G04 #@! TF.GenerationSoftware,KiCad,Pcbnew,5.1.5-52549c5~84~ubuntu19.10.1*
G04 #@! TF.CreationDate,2020-03-01T20:16:17+01:00*
G04 #@! TF.ProjectId,C245_conn,43323435-5f63-46f6-9e6e-2e6b69636164,rev?*
G04 #@! TF.SameCoordinates,Original*
G04 #@! TF.FileFunction,Legend,Bot*
G04 #@! TF.FilePolarity,Positive*
%FSLAX46Y46*%
G04 Gerber Fmt 4.6, Leading zero omitted, Abs format (unit mm)*
G04 Created by KiCad (PCBNEW 5.1.5-52549c5~84~ubuntu19.10.1) date 2020-03-01 20:16:17*
%MOMM*%
%LPD*%
G04 APERTURE LIST*
%ADD10C,0.120000*%
G04 APERTURE END LIST*
D10*
X105370000Y-100630000D02*
X104100000Y-100630000D01*
X105370000Y-101900000D02*
X105370000Y-100630000D01*
X103057071Y-114980000D02*
X102660000Y-114980000D01*
X103057071Y-114220000D02*
X102660000Y-114220000D01*
X94000000Y-114980000D02*
X100000000Y-114980000D01*
X94000000Y-114220000D02*
X94000000Y-114980000D01*
X100000000Y-114220000D02*
X94000000Y-114220000D01*
X102660000Y-113330000D02*
X100000000Y-113330000D01*
X103057071Y-112440000D02*
X102660000Y-112440000D01*
X103057071Y-111680000D02*
X102660000Y-111680000D01*
X94000000Y-112440000D02*
X100000000Y-112440000D01*
X94000000Y-111680000D02*
X94000000Y-112440000D01*
X100000000Y-111680000D02*
X94000000Y-111680000D01*
X102660000Y-110790000D02*
X100000000Y-110790000D01*
X103057071Y-109900000D02*
X102660000Y-109900000D01*
X103057071Y-109140000D02*
X102660000Y-109140000D01*
X94000000Y-109900000D02*
X100000000Y-109900000D01*
X94000000Y-109140000D02*
X94000000Y-109900000D01*
X100000000Y-109140000D02*
X94000000Y-109140000D01*
X102660000Y-108250000D02*
X100000000Y-108250000D01*
X103057071Y-107360000D02*
X102660000Y-107360000D01*
X103057071Y-106600000D02*
X102660000Y-106600000D01*
X94000000Y-107360000D02*
X100000000Y-107360000D01*
X94000000Y-106600000D02*
X94000000Y-107360000D01*
X100000000Y-106600000D02*
X94000000Y-106600000D01*
X102660000Y-105710000D02*
X100000000Y-105710000D01*
X103057071Y-104820000D02*
X102660000Y-104820000D01*
X103057071Y-104060000D02*
X102660000Y-104060000D01*
X94000000Y-104820000D02*
X100000000Y-104820000D01*
X94000000Y-104060000D02*
X94000000Y-104820000D01*
X100000000Y-104060000D02*
X94000000Y-104060000D01*
X102660000Y-103170000D02*
X100000000Y-103170000D01*
X102990000Y-102280000D02*
X102660000Y-102280000D01*
X102990000Y-101520000D02*
X102660000Y-101520000D01*
X100000000Y-102180000D02*
X94000000Y-102180000D01*
X100000000Y-102060000D02*
X94000000Y-102060000D01*
X100000000Y-101940000D02*
X94000000Y-101940000D01*
X100000000Y-101820000D02*
X94000000Y-101820000D01*
X100000000Y-101700000D02*
X94000000Y-101700000D01*
X100000000Y-101580000D02*
X94000000Y-101580000D01*
X94000000Y-102280000D02*
X100000000Y-102280000D01*
X94000000Y-101520000D02*
X94000000Y-102280000D01*
X100000000Y-101520000D02*
X94000000Y-101520000D01*
X100000000Y-100570000D02*
X102660000Y-100570000D01*
X100000000Y-115930000D02*
X100000000Y-100570000D01*
X102660000Y-115930000D02*
X100000000Y-115930000D01*
X102660000Y-100570000D02*
X102660000Y-115930000D01*
M02*
