G04 #@! TF.GenerationSoftware,KiCad,Pcbnew,5.1.5-52549c5~84~ubuntu19.10.1*
G04 #@! TF.CreationDate,2020-03-01T20:16:17+01:00*
G04 #@! TF.ProjectId,C245_conn,43323435-5f63-46f6-9e6e-2e6b69636164,rev?*
G04 #@! TF.SameCoordinates,Original*
G04 #@! TF.FileFunction,Legend,Top*
G04 #@! TF.FilePolarity,Positive*
%FSLAX46Y46*%
G04 Gerber Fmt 4.6, Leading zero omitted, Abs format (unit mm)*
G04 Created by KiCad (PCBNEW 5.1.5-52549c5~84~ubuntu19.10.1) date 2020-03-01 20:16:17*
%MOMM*%
%LPD*%
G04 APERTURE LIST*
%ADD10C,0.010000*%
%ADD11C,0.120000*%
G04 APERTURE END LIST*
D10*
G36*
X101274222Y-108309112D02*
G01*
X101274222Y-107730556D01*
X101485889Y-107730556D01*
X101485889Y-108309112D01*
X101274222Y-108309112D01*
G37*
X101274222Y-108309112D02*
X101274222Y-107730556D01*
X101485889Y-107730556D01*
X101485889Y-108309112D01*
X101274222Y-108309112D01*
G36*
X101274222Y-117001556D02*
G01*
X101274222Y-117199112D01*
X101090778Y-117199112D01*
X101090778Y-117001556D01*
X100681555Y-117001556D01*
X100681555Y-116789889D01*
X101090778Y-116789889D01*
X101090778Y-116070223D01*
X101170636Y-116070223D01*
X101207037Y-116071673D01*
X101240870Y-116077505D01*
X101274222Y-116088545D01*
X101274222Y-116281483D01*
X101274222Y-116789889D01*
X101658750Y-116789382D01*
X102043278Y-116788874D01*
X102000944Y-116752814D01*
X101882410Y-116657713D01*
X101749631Y-116561177D01*
X101611133Y-116468911D01*
X101475446Y-116386619D01*
X101362416Y-116325620D01*
X101274222Y-116281483D01*
X101274222Y-116088545D01*
X101278425Y-116089937D01*
X101325990Y-116111188D01*
X101389856Y-116143476D01*
X101413920Y-116156059D01*
X101574572Y-116246315D01*
X101740389Y-116350181D01*
X101903731Y-116462366D01*
X102056959Y-116577576D01*
X102192434Y-116690520D01*
X102216139Y-116711835D01*
X102304333Y-116792257D01*
X102304333Y-117001556D01*
X101274222Y-117001556D01*
G37*
X101274222Y-117001556D02*
X101274222Y-117199112D01*
X101090778Y-117199112D01*
X101090778Y-117001556D01*
X100681555Y-117001556D01*
X100681555Y-116789889D01*
X101090778Y-116789889D01*
X101090778Y-116070223D01*
X101170636Y-116070223D01*
X101207037Y-116071673D01*
X101240870Y-116077505D01*
X101274222Y-116088545D01*
X101274222Y-116281483D01*
X101274222Y-116789889D01*
X101658750Y-116789382D01*
X102043278Y-116788874D01*
X102000944Y-116752814D01*
X101882410Y-116657713D01*
X101749631Y-116561177D01*
X101611133Y-116468911D01*
X101475446Y-116386619D01*
X101362416Y-116325620D01*
X101274222Y-116281483D01*
X101274222Y-116088545D01*
X101278425Y-116089937D01*
X101325990Y-116111188D01*
X101389856Y-116143476D01*
X101413920Y-116156059D01*
X101574572Y-116246315D01*
X101740389Y-116350181D01*
X101903731Y-116462366D01*
X102056959Y-116577576D01*
X102192434Y-116690520D01*
X102216139Y-116711835D01*
X102304333Y-116792257D01*
X102304333Y-117001556D01*
X101274222Y-117001556D01*
G36*
X102343120Y-115296062D02*
G01*
X102326202Y-115403729D01*
X102294181Y-115503629D01*
X102248450Y-115587927D01*
X102233776Y-115607187D01*
X102169155Y-115664960D01*
X102086296Y-115708054D01*
X101992084Y-115734651D01*
X101893401Y-115742937D01*
X101797130Y-115731093D01*
X101780740Y-115726728D01*
X101710761Y-115700197D01*
X101636477Y-115659219D01*
X101554974Y-115601712D01*
X101463334Y-115525593D01*
X101358643Y-115428780D01*
X101345027Y-115415637D01*
X101240918Y-115316099D01*
X101153493Y-115235600D01*
X101080532Y-115172222D01*
X101019814Y-115124047D01*
X100969120Y-115089158D01*
X100962112Y-115084874D01*
X100933781Y-115067852D01*
X100911569Y-115056525D01*
X100894731Y-115053520D01*
X100882526Y-115061463D01*
X100874210Y-115082980D01*
X100869041Y-115120698D01*
X100866275Y-115177244D01*
X100865169Y-115255243D01*
X100864981Y-115357321D01*
X100865000Y-115428167D01*
X100865000Y-115802112D01*
X100681555Y-115802112D01*
X100681555Y-114810622D01*
X100787824Y-114817442D01*
X100847888Y-114823447D01*
X100899312Y-114834909D01*
X100953389Y-114855120D01*
X101012480Y-114882926D01*
X101052437Y-114903798D01*
X101090159Y-114926437D01*
X101129214Y-114953705D01*
X101173171Y-114988464D01*
X101225598Y-115033576D01*
X101290066Y-115091905D01*
X101370142Y-115166312D01*
X101395710Y-115190290D01*
X101490993Y-115278894D01*
X101569540Y-115349430D01*
X101634455Y-115403896D01*
X101688843Y-115444295D01*
X101735809Y-115472626D01*
X101778457Y-115490891D01*
X101819893Y-115501090D01*
X101863221Y-115505224D01*
X101885090Y-115505640D01*
X101974577Y-115494703D01*
X102047126Y-115461859D01*
X102101823Y-115407551D01*
X102108883Y-115396856D01*
X102126512Y-115363503D01*
X102136621Y-115328000D01*
X102141062Y-115280990D01*
X102141783Y-115230612D01*
X102139990Y-115166896D01*
X102133354Y-115119780D01*
X102119435Y-115077743D01*
X102101461Y-115040112D01*
X102073472Y-114991008D01*
X102043742Y-114946623D01*
X102026121Y-114924854D01*
X101990830Y-114887208D01*
X102070259Y-114834471D01*
X102149687Y-114781733D01*
X102183365Y-114813372D01*
X102217350Y-114855060D01*
X102253906Y-114915853D01*
X102288745Y-114987480D01*
X102317582Y-115061668D01*
X102326063Y-115088770D01*
X102343538Y-115188464D01*
X102343120Y-115296062D01*
G37*
X102343120Y-115296062D02*
X102326202Y-115403729D01*
X102294181Y-115503629D01*
X102248450Y-115587927D01*
X102233776Y-115607187D01*
X102169155Y-115664960D01*
X102086296Y-115708054D01*
X101992084Y-115734651D01*
X101893401Y-115742937D01*
X101797130Y-115731093D01*
X101780740Y-115726728D01*
X101710761Y-115700197D01*
X101636477Y-115659219D01*
X101554974Y-115601712D01*
X101463334Y-115525593D01*
X101358643Y-115428780D01*
X101345027Y-115415637D01*
X101240918Y-115316099D01*
X101153493Y-115235600D01*
X101080532Y-115172222D01*
X101019814Y-115124047D01*
X100969120Y-115089158D01*
X100962112Y-115084874D01*
X100933781Y-115067852D01*
X100911569Y-115056525D01*
X100894731Y-115053520D01*
X100882526Y-115061463D01*
X100874210Y-115082980D01*
X100869041Y-115120698D01*
X100866275Y-115177244D01*
X100865169Y-115255243D01*
X100864981Y-115357321D01*
X100865000Y-115428167D01*
X100865000Y-115802112D01*
X100681555Y-115802112D01*
X100681555Y-114810622D01*
X100787824Y-114817442D01*
X100847888Y-114823447D01*
X100899312Y-114834909D01*
X100953389Y-114855120D01*
X101012480Y-114882926D01*
X101052437Y-114903798D01*
X101090159Y-114926437D01*
X101129214Y-114953705D01*
X101173171Y-114988464D01*
X101225598Y-115033576D01*
X101290066Y-115091905D01*
X101370142Y-115166312D01*
X101395710Y-115190290D01*
X101490993Y-115278894D01*
X101569540Y-115349430D01*
X101634455Y-115403896D01*
X101688843Y-115444295D01*
X101735809Y-115472626D01*
X101778457Y-115490891D01*
X101819893Y-115501090D01*
X101863221Y-115505224D01*
X101885090Y-115505640D01*
X101974577Y-115494703D01*
X102047126Y-115461859D01*
X102101823Y-115407551D01*
X102108883Y-115396856D01*
X102126512Y-115363503D01*
X102136621Y-115328000D01*
X102141062Y-115280990D01*
X102141783Y-115230612D01*
X102139990Y-115166896D01*
X102133354Y-115119780D01*
X102119435Y-115077743D01*
X102101461Y-115040112D01*
X102073472Y-114991008D01*
X102043742Y-114946623D01*
X102026121Y-114924854D01*
X101990830Y-114887208D01*
X102070259Y-114834471D01*
X102149687Y-114781733D01*
X102183365Y-114813372D01*
X102217350Y-114855060D01*
X102253906Y-114915853D01*
X102288745Y-114987480D01*
X102317582Y-115061668D01*
X102326063Y-115088770D01*
X102343538Y-115188464D01*
X102343120Y-115296062D01*
G36*
X101920863Y-111983862D02*
G01*
X101917259Y-112059404D01*
X101911540Y-112114913D01*
X101902254Y-112158571D01*
X101887948Y-112198559D01*
X101879321Y-112217889D01*
X101821777Y-112309997D01*
X101745071Y-112383087D01*
X101655379Y-112432880D01*
X101632269Y-112441558D01*
X101608825Y-112448513D01*
X101581615Y-112453982D01*
X101547209Y-112458200D01*
X101502175Y-112461402D01*
X101443084Y-112463824D01*
X101366504Y-112465701D01*
X101269004Y-112467269D01*
X101147153Y-112468762D01*
X101129583Y-112468960D01*
X100681555Y-112473990D01*
X100681555Y-112260223D01*
X101023750Y-112259943D01*
X101175187Y-112258888D01*
X101301146Y-112255609D01*
X101404324Y-112249530D01*
X101487417Y-112240075D01*
X101553122Y-112226668D01*
X101604135Y-112208733D01*
X101643152Y-112185694D01*
X101672870Y-112156976D01*
X101695986Y-112122002D01*
X101699323Y-112115647D01*
X101714424Y-112080842D01*
X101723453Y-112043590D01*
X101727663Y-111995527D01*
X101728307Y-111928287D01*
X101728250Y-111922579D01*
X101726701Y-111859148D01*
X101723773Y-111802294D01*
X101719984Y-111760836D01*
X101718116Y-111749465D01*
X101709424Y-111709889D01*
X100681555Y-111709889D01*
X100681555Y-111484112D01*
X101864550Y-111484112D01*
X101879757Y-111555021D01*
X101905518Y-111695175D01*
X101919090Y-111823298D01*
X101921703Y-111952191D01*
X101920863Y-111983862D01*
G37*
X101920863Y-111983862D02*
X101917259Y-112059404D01*
X101911540Y-112114913D01*
X101902254Y-112158571D01*
X101887948Y-112198559D01*
X101879321Y-112217889D01*
X101821777Y-112309997D01*
X101745071Y-112383087D01*
X101655379Y-112432880D01*
X101632269Y-112441558D01*
X101608825Y-112448513D01*
X101581615Y-112453982D01*
X101547209Y-112458200D01*
X101502175Y-112461402D01*
X101443084Y-112463824D01*
X101366504Y-112465701D01*
X101269004Y-112467269D01*
X101147153Y-112468762D01*
X101129583Y-112468960D01*
X100681555Y-112473990D01*
X100681555Y-112260223D01*
X101023750Y-112259943D01*
X101175187Y-112258888D01*
X101301146Y-112255609D01*
X101404324Y-112249530D01*
X101487417Y-112240075D01*
X101553122Y-112226668D01*
X101604135Y-112208733D01*
X101643152Y-112185694D01*
X101672870Y-112156976D01*
X101695986Y-112122002D01*
X101699323Y-112115647D01*
X101714424Y-112080842D01*
X101723453Y-112043590D01*
X101727663Y-111995527D01*
X101728307Y-111928287D01*
X101728250Y-111922579D01*
X101726701Y-111859148D01*
X101723773Y-111802294D01*
X101719984Y-111760836D01*
X101718116Y-111749465D01*
X101709424Y-111709889D01*
X100681555Y-111709889D01*
X100681555Y-111484112D01*
X101864550Y-111484112D01*
X101879757Y-111555021D01*
X101905518Y-111695175D01*
X101919090Y-111823298D01*
X101921703Y-111952191D01*
X101920863Y-111983862D01*
G36*
X101918793Y-109722488D02*
G01*
X101907211Y-109809904D01*
X101896041Y-109856353D01*
X101884801Y-109879570D01*
X101870929Y-109884434D01*
X101868406Y-109883867D01*
X101839293Y-109877020D01*
X101799313Y-109868946D01*
X101796333Y-109868389D01*
X101742431Y-109857304D01*
X101712545Y-109848007D01*
X101702660Y-109839011D01*
X101703956Y-109834171D01*
X101709298Y-109815702D01*
X101717089Y-109777171D01*
X101725759Y-109726449D01*
X101726847Y-109719511D01*
X101735318Y-109641572D01*
X101733361Y-109570780D01*
X101725301Y-109512824D01*
X101707674Y-109409778D01*
X100681555Y-109409778D01*
X100681555Y-109198112D01*
X101850589Y-109198112D01*
X101865903Y-109244512D01*
X101894441Y-109354702D01*
X101913252Y-109477707D01*
X101921611Y-109603608D01*
X101918793Y-109722488D01*
G37*
X101918793Y-109722488D02*
X101907211Y-109809904D01*
X101896041Y-109856353D01*
X101884801Y-109879570D01*
X101870929Y-109884434D01*
X101868406Y-109883867D01*
X101839293Y-109877020D01*
X101799313Y-109868946D01*
X101796333Y-109868389D01*
X101742431Y-109857304D01*
X101712545Y-109848007D01*
X101702660Y-109839011D01*
X101703956Y-109834171D01*
X101709298Y-109815702D01*
X101717089Y-109777171D01*
X101725759Y-109726449D01*
X101726847Y-109719511D01*
X101735318Y-109641572D01*
X101733361Y-109570780D01*
X101725301Y-109512824D01*
X101707674Y-109409778D01*
X100681555Y-109409778D01*
X100681555Y-109198112D01*
X101850589Y-109198112D01*
X101865903Y-109244512D01*
X101894441Y-109354702D01*
X101913252Y-109477707D01*
X101921611Y-109603608D01*
X101918793Y-109722488D01*
G36*
X100681555Y-108803000D02*
G01*
X100681555Y-108577223D01*
X102304333Y-108577223D01*
X102304333Y-108803000D01*
X100681555Y-108803000D01*
G37*
X100681555Y-108803000D02*
X100681555Y-108577223D01*
X102304333Y-108577223D01*
X102304333Y-108803000D01*
X100681555Y-108803000D01*
G36*
X101921370Y-107506390D02*
G01*
X101916123Y-107568223D01*
X101908552Y-107626387D01*
X101899618Y-107674546D01*
X101890283Y-107706366D01*
X101882580Y-107715829D01*
X101850188Y-107711136D01*
X101808084Y-107702101D01*
X101765004Y-107691020D01*
X101729681Y-107680193D01*
X101710850Y-107671915D01*
X101709723Y-107670362D01*
X101711659Y-107652010D01*
X101717259Y-107613829D01*
X101725346Y-107563793D01*
X101726047Y-107559625D01*
X101734751Y-107490038D01*
X101734723Y-107425595D01*
X101725928Y-107350536D01*
X101725562Y-107348168D01*
X101708216Y-107236667D01*
X100681555Y-107236667D01*
X100681555Y-107025000D01*
X101850589Y-107025000D01*
X101865903Y-107071401D01*
X101886587Y-107148847D01*
X101904251Y-107242338D01*
X101917037Y-107339718D01*
X101923089Y-107428834D01*
X101923333Y-107447222D01*
X101921370Y-107506390D01*
G37*
X101921370Y-107506390D02*
X101916123Y-107568223D01*
X101908552Y-107626387D01*
X101899618Y-107674546D01*
X101890283Y-107706366D01*
X101882580Y-107715829D01*
X101850188Y-107711136D01*
X101808084Y-107702101D01*
X101765004Y-107691020D01*
X101729681Y-107680193D01*
X101710850Y-107671915D01*
X101709723Y-107670362D01*
X101711659Y-107652010D01*
X101717259Y-107613829D01*
X101725346Y-107563793D01*
X101726047Y-107559625D01*
X101734751Y-107490038D01*
X101734723Y-107425595D01*
X101725928Y-107350536D01*
X101725562Y-107348168D01*
X101708216Y-107236667D01*
X100681555Y-107236667D01*
X100681555Y-107025000D01*
X101850589Y-107025000D01*
X101865903Y-107071401D01*
X101886587Y-107148847D01*
X101904251Y-107242338D01*
X101917037Y-107339718D01*
X101923089Y-107428834D01*
X101923333Y-107447222D01*
X101921370Y-107506390D01*
G36*
X101922407Y-106283595D02*
G01*
X101893964Y-106398404D01*
X101843946Y-106495221D01*
X101772766Y-106573750D01*
X101680835Y-106633694D01*
X101568565Y-106674756D01*
X101436367Y-106696639D01*
X101344083Y-106700445D01*
X101231889Y-106700445D01*
X101231889Y-106284167D01*
X101232099Y-106161939D01*
X101232136Y-106065224D01*
X101231107Y-105991322D01*
X101228123Y-105937534D01*
X101222292Y-105901158D01*
X101212722Y-105879495D01*
X101198522Y-105869846D01*
X101178801Y-105869509D01*
X101152669Y-105875786D01*
X101119232Y-105885975D01*
X101102102Y-105890967D01*
X101016152Y-105927414D01*
X100942916Y-105982677D01*
X100888313Y-106051679D01*
X100869596Y-106090398D01*
X100855245Y-106147622D01*
X100846895Y-106223137D01*
X100844525Y-106307661D01*
X100848115Y-106391911D01*
X100857643Y-106466607D01*
X100870533Y-106516021D01*
X100882124Y-106554856D01*
X100885148Y-106582400D01*
X100882912Y-106588901D01*
X100863847Y-106596183D01*
X100826111Y-106604060D01*
X100792720Y-106608920D01*
X100713385Y-106618579D01*
X100688496Y-106550151D01*
X100675833Y-106503379D01*
X100666805Y-106440608D01*
X100660880Y-106357236D01*
X100658478Y-106291223D01*
X100656905Y-106208390D01*
X100657736Y-106146754D01*
X100661555Y-106099350D01*
X100668948Y-106059211D01*
X100680500Y-106019370D01*
X100681599Y-106016056D01*
X100732234Y-105905535D01*
X100803714Y-105813548D01*
X100895119Y-105740656D01*
X101005533Y-105687421D01*
X101134039Y-105654407D01*
X101279720Y-105642175D01*
X101291682Y-105642112D01*
X101432385Y-105653355D01*
X101437103Y-105654565D01*
X101437103Y-105876166D01*
X101412276Y-105877216D01*
X101411805Y-105877475D01*
X101408651Y-105892804D01*
X101405871Y-105932110D01*
X101403615Y-105991149D01*
X101402031Y-106065676D01*
X101401268Y-106151447D01*
X101401222Y-106179167D01*
X101401222Y-106474667D01*
X101445446Y-106474667D01*
X101523054Y-106463594D01*
X101597793Y-106433329D01*
X101662246Y-106388300D01*
X101708999Y-106332939D01*
X101720475Y-106310370D01*
X101740386Y-106228237D01*
X101736168Y-106142729D01*
X101709822Y-106060826D01*
X101663346Y-105989507D01*
X101616429Y-105947125D01*
X101576210Y-105923767D01*
X101527378Y-105902269D01*
X101478240Y-105885460D01*
X101437103Y-105876166D01*
X101437103Y-105654565D01*
X101559148Y-105685886D01*
X101670200Y-105737907D01*
X101763774Y-105807618D01*
X101838103Y-105893222D01*
X101891417Y-105992921D01*
X101921948Y-106104915D01*
X101927928Y-106227407D01*
X101922407Y-106283595D01*
G37*
X101922407Y-106283595D02*
X101893964Y-106398404D01*
X101843946Y-106495221D01*
X101772766Y-106573750D01*
X101680835Y-106633694D01*
X101568565Y-106674756D01*
X101436367Y-106696639D01*
X101344083Y-106700445D01*
X101231889Y-106700445D01*
X101231889Y-106284167D01*
X101232099Y-106161939D01*
X101232136Y-106065224D01*
X101231107Y-105991322D01*
X101228123Y-105937534D01*
X101222292Y-105901158D01*
X101212722Y-105879495D01*
X101198522Y-105869846D01*
X101178801Y-105869509D01*
X101152669Y-105875786D01*
X101119232Y-105885975D01*
X101102102Y-105890967D01*
X101016152Y-105927414D01*
X100942916Y-105982677D01*
X100888313Y-106051679D01*
X100869596Y-106090398D01*
X100855245Y-106147622D01*
X100846895Y-106223137D01*
X100844525Y-106307661D01*
X100848115Y-106391911D01*
X100857643Y-106466607D01*
X100870533Y-106516021D01*
X100882124Y-106554856D01*
X100885148Y-106582400D01*
X100882912Y-106588901D01*
X100863847Y-106596183D01*
X100826111Y-106604060D01*
X100792720Y-106608920D01*
X100713385Y-106618579D01*
X100688496Y-106550151D01*
X100675833Y-106503379D01*
X100666805Y-106440608D01*
X100660880Y-106357236D01*
X100658478Y-106291223D01*
X100656905Y-106208390D01*
X100657736Y-106146754D01*
X100661555Y-106099350D01*
X100668948Y-106059211D01*
X100680500Y-106019370D01*
X100681599Y-106016056D01*
X100732234Y-105905535D01*
X100803714Y-105813548D01*
X100895119Y-105740656D01*
X101005533Y-105687421D01*
X101134039Y-105654407D01*
X101279720Y-105642175D01*
X101291682Y-105642112D01*
X101432385Y-105653355D01*
X101437103Y-105654565D01*
X101437103Y-105876166D01*
X101412276Y-105877216D01*
X101411805Y-105877475D01*
X101408651Y-105892804D01*
X101405871Y-105932110D01*
X101403615Y-105991149D01*
X101402031Y-106065676D01*
X101401268Y-106151447D01*
X101401222Y-106179167D01*
X101401222Y-106474667D01*
X101445446Y-106474667D01*
X101523054Y-106463594D01*
X101597793Y-106433329D01*
X101662246Y-106388300D01*
X101708999Y-106332939D01*
X101720475Y-106310370D01*
X101740386Y-106228237D01*
X101736168Y-106142729D01*
X101709822Y-106060826D01*
X101663346Y-105989507D01*
X101616429Y-105947125D01*
X101576210Y-105923767D01*
X101527378Y-105902269D01*
X101478240Y-105885460D01*
X101437103Y-105876166D01*
X101437103Y-105654565D01*
X101559148Y-105685886D01*
X101670200Y-105737907D01*
X101763774Y-105807618D01*
X101838103Y-105893222D01*
X101891417Y-105992921D01*
X101921948Y-106104915D01*
X101927928Y-106227407D01*
X101922407Y-106283595D01*
G36*
X102262177Y-104984890D02*
G01*
X102220946Y-104989681D01*
X102153278Y-104992384D01*
X102085611Y-104993000D01*
X101895111Y-104993000D01*
X101895111Y-105460014D01*
X101806916Y-105455813D01*
X101718722Y-105451612D01*
X101714845Y-105222306D01*
X101710967Y-104993000D01*
X101362067Y-104993310D01*
X101251723Y-104993599D01*
X101165735Y-104994417D01*
X101100239Y-104996019D01*
X101051370Y-104998663D01*
X101015265Y-105002604D01*
X100988058Y-105008099D01*
X100965886Y-105015404D01*
X100954294Y-105020350D01*
X100904139Y-105048975D01*
X100871621Y-105084411D01*
X100853639Y-105132739D01*
X100847091Y-105200039D01*
X100846944Y-105230822D01*
X100851306Y-105302684D01*
X100861708Y-105363334D01*
X100870691Y-105391186D01*
X100884864Y-105425496D01*
X100892685Y-105446969D01*
X100893222Y-105449483D01*
X100880849Y-105455882D01*
X100849298Y-105465721D01*
X100826194Y-105471741D01*
X100781632Y-105482901D01*
X100745998Y-105492240D01*
X100735961Y-105495061D01*
X100716566Y-105487728D01*
X100698784Y-105457164D01*
X100683253Y-105408345D01*
X100670610Y-105346247D01*
X100661491Y-105275844D01*
X100656536Y-105202112D01*
X100656382Y-105130026D01*
X100661665Y-105064561D01*
X100673024Y-105010692D01*
X100673649Y-105008741D01*
X100708904Y-104939422D01*
X100764358Y-104875711D01*
X100832171Y-104826433D01*
X100838601Y-104823013D01*
X100867191Y-104810107D01*
X100900319Y-104799304D01*
X100940592Y-104790428D01*
X100990617Y-104783301D01*
X101053000Y-104777746D01*
X101130346Y-104773584D01*
X101225263Y-104770640D01*
X101340357Y-104768735D01*
X101478234Y-104767692D01*
X101641500Y-104767334D01*
X101656682Y-104767329D01*
X102243753Y-104767223D01*
X102259932Y-104865191D01*
X102268008Y-104916097D01*
X102273807Y-104956477D01*
X102276109Y-104977815D01*
X102276111Y-104978080D01*
X102262177Y-104984890D01*
G37*
X102262177Y-104984890D02*
X102220946Y-104989681D01*
X102153278Y-104992384D01*
X102085611Y-104993000D01*
X101895111Y-104993000D01*
X101895111Y-105460014D01*
X101806916Y-105455813D01*
X101718722Y-105451612D01*
X101714845Y-105222306D01*
X101710967Y-104993000D01*
X101362067Y-104993310D01*
X101251723Y-104993599D01*
X101165735Y-104994417D01*
X101100239Y-104996019D01*
X101051370Y-104998663D01*
X101015265Y-105002604D01*
X100988058Y-105008099D01*
X100965886Y-105015404D01*
X100954294Y-105020350D01*
X100904139Y-105048975D01*
X100871621Y-105084411D01*
X100853639Y-105132739D01*
X100847091Y-105200039D01*
X100846944Y-105230822D01*
X100851306Y-105302684D01*
X100861708Y-105363334D01*
X100870691Y-105391186D01*
X100884864Y-105425496D01*
X100892685Y-105446969D01*
X100893222Y-105449483D01*
X100880849Y-105455882D01*
X100849298Y-105465721D01*
X100826194Y-105471741D01*
X100781632Y-105482901D01*
X100745998Y-105492240D01*
X100735961Y-105495061D01*
X100716566Y-105487728D01*
X100698784Y-105457164D01*
X100683253Y-105408345D01*
X100670610Y-105346247D01*
X100661491Y-105275844D01*
X100656536Y-105202112D01*
X100656382Y-105130026D01*
X100661665Y-105064561D01*
X100673024Y-105010692D01*
X100673649Y-105008741D01*
X100708904Y-104939422D01*
X100764358Y-104875711D01*
X100832171Y-104826433D01*
X100838601Y-104823013D01*
X100867191Y-104810107D01*
X100900319Y-104799304D01*
X100940592Y-104790428D01*
X100990617Y-104783301D01*
X101053000Y-104777746D01*
X101130346Y-104773584D01*
X101225263Y-104770640D01*
X101340357Y-104768735D01*
X101478234Y-104767692D01*
X101641500Y-104767334D01*
X101656682Y-104767329D01*
X102243753Y-104767223D01*
X102259932Y-104865191D01*
X102268008Y-104916097D01*
X102273807Y-104956477D01*
X102276109Y-104977815D01*
X102276111Y-104978080D01*
X102262177Y-104984890D01*
G36*
X102262177Y-104039446D02*
G01*
X102220946Y-104044236D01*
X102153278Y-104046939D01*
X102085611Y-104047556D01*
X101895111Y-104047556D01*
X101895111Y-104499112D01*
X101711666Y-104499112D01*
X101711666Y-104046220D01*
X101348305Y-104050416D01*
X101228648Y-104052045D01*
X101133750Y-104054272D01*
X101060149Y-104057718D01*
X101004381Y-104063005D01*
X100962984Y-104070755D01*
X100932494Y-104081589D01*
X100909449Y-104096129D01*
X100890385Y-104114998D01*
X100874262Y-104135530D01*
X100858926Y-104162015D01*
X100850352Y-104195002D01*
X100847023Y-104242710D01*
X100846933Y-104283697D01*
X100851312Y-104357040D01*
X100861790Y-104418247D01*
X100870691Y-104445742D01*
X100884864Y-104480052D01*
X100892685Y-104501525D01*
X100893222Y-104504039D01*
X100880849Y-104510437D01*
X100849298Y-104520276D01*
X100826194Y-104526297D01*
X100781632Y-104537456D01*
X100745998Y-104546795D01*
X100735961Y-104549617D01*
X100716455Y-104542325D01*
X100698627Y-104511784D01*
X100683105Y-104462948D01*
X100670517Y-104400770D01*
X100661490Y-104330204D01*
X100656651Y-104256204D01*
X100656629Y-104183723D01*
X100662050Y-104117714D01*
X100673542Y-104063133D01*
X100674112Y-104061334D01*
X100713972Y-103981953D01*
X100776743Y-103917663D01*
X100860756Y-103869693D01*
X100964338Y-103839271D01*
X100979712Y-103836578D01*
X101015013Y-103833189D01*
X101075349Y-103830114D01*
X101157534Y-103827424D01*
X101258382Y-103825188D01*
X101374707Y-103823474D01*
X101503323Y-103822353D01*
X101641045Y-103821892D01*
X101656682Y-103821885D01*
X102243753Y-103821778D01*
X102259932Y-103919746D01*
X102268008Y-103970653D01*
X102273807Y-104011032D01*
X102276109Y-104032371D01*
X102276111Y-104032635D01*
X102262177Y-104039446D01*
G37*
X102262177Y-104039446D02*
X102220946Y-104044236D01*
X102153278Y-104046939D01*
X102085611Y-104047556D01*
X101895111Y-104047556D01*
X101895111Y-104499112D01*
X101711666Y-104499112D01*
X101711666Y-104046220D01*
X101348305Y-104050416D01*
X101228648Y-104052045D01*
X101133750Y-104054272D01*
X101060149Y-104057718D01*
X101004381Y-104063005D01*
X100962984Y-104070755D01*
X100932494Y-104081589D01*
X100909449Y-104096129D01*
X100890385Y-104114998D01*
X100874262Y-104135530D01*
X100858926Y-104162015D01*
X100850352Y-104195002D01*
X100847023Y-104242710D01*
X100846933Y-104283697D01*
X100851312Y-104357040D01*
X100861790Y-104418247D01*
X100870691Y-104445742D01*
X100884864Y-104480052D01*
X100892685Y-104501525D01*
X100893222Y-104504039D01*
X100880849Y-104510437D01*
X100849298Y-104520276D01*
X100826194Y-104526297D01*
X100781632Y-104537456D01*
X100745998Y-104546795D01*
X100735961Y-104549617D01*
X100716455Y-104542325D01*
X100698627Y-104511784D01*
X100683105Y-104462948D01*
X100670517Y-104400770D01*
X100661490Y-104330204D01*
X100656651Y-104256204D01*
X100656629Y-104183723D01*
X100662050Y-104117714D01*
X100673542Y-104063133D01*
X100674112Y-104061334D01*
X100713972Y-103981953D01*
X100776743Y-103917663D01*
X100860756Y-103869693D01*
X100964338Y-103839271D01*
X100979712Y-103836578D01*
X101015013Y-103833189D01*
X101075349Y-103830114D01*
X101157534Y-103827424D01*
X101258382Y-103825188D01*
X101374707Y-103823474D01*
X101503323Y-103822353D01*
X101641045Y-103821892D01*
X101656682Y-103821885D01*
X102243753Y-103821778D01*
X102259932Y-103919746D01*
X102268008Y-103970653D01*
X102273807Y-104011032D01*
X102276109Y-104032371D01*
X102276111Y-104032635D01*
X102262177Y-104039446D01*
G36*
X102120889Y-118398556D02*
G01*
X102120889Y-118102223D01*
X102120493Y-117998198D01*
X102119196Y-117919636D01*
X102116836Y-117863787D01*
X102113248Y-117827901D01*
X102108271Y-117809229D01*
X102103250Y-117804841D01*
X102083428Y-117803339D01*
X102041061Y-117799930D01*
X101981725Y-117795069D01*
X101910999Y-117789211D01*
X101884542Y-117787005D01*
X101683473Y-117770218D01*
X101677694Y-117812748D01*
X101660089Y-117931483D01*
X101642060Y-118026777D01*
X101621957Y-118103383D01*
X101598129Y-118166054D01*
X101568926Y-118219546D01*
X101532696Y-118268610D01*
X101510645Y-118293828D01*
X101427118Y-118368960D01*
X101335031Y-118418895D01*
X101229373Y-118446056D01*
X101185618Y-118450834D01*
X101062542Y-118447830D01*
X100952174Y-118420141D01*
X100856054Y-118369000D01*
X100775722Y-118295641D01*
X100712720Y-118201297D01*
X100668587Y-118087203D01*
X100654516Y-118025548D01*
X100645940Y-117956824D01*
X100641797Y-117876329D01*
X100642311Y-117796557D01*
X100647704Y-117729999D01*
X100649067Y-117721223D01*
X100657628Y-117679576D01*
X100670337Y-117627706D01*
X100685149Y-117572818D01*
X100700018Y-117522117D01*
X100712900Y-117482806D01*
X100721751Y-117462092D01*
X100722999Y-117460717D01*
X100740974Y-117460511D01*
X100776521Y-117465912D01*
X100820062Y-117474829D01*
X100862015Y-117485174D01*
X100892801Y-117494856D01*
X100902306Y-117499825D01*
X100901744Y-117516021D01*
X100892522Y-117550448D01*
X100878820Y-117589721D01*
X100854550Y-117677291D01*
X100841070Y-117777838D01*
X100838940Y-117880333D01*
X100848723Y-117973751D01*
X100857398Y-118010710D01*
X100895278Y-118097093D01*
X100951365Y-118162633D01*
X101023306Y-118205794D01*
X101108750Y-118225039D01*
X101181849Y-118222649D01*
X101263653Y-118202494D01*
X101331202Y-118164490D01*
X101385839Y-118106763D01*
X101428906Y-118027439D01*
X101461745Y-117924643D01*
X101485370Y-117798834D01*
X101492886Y-117734883D01*
X101498100Y-117669243D01*
X101499720Y-117625333D01*
X101500000Y-117550610D01*
X101545861Y-117558187D01*
X101592539Y-117564340D01*
X101661677Y-117571414D01*
X101747547Y-117578955D01*
X101844420Y-117586505D01*
X101946567Y-117593610D01*
X102048260Y-117599813D01*
X102110305Y-117603092D01*
X102304333Y-117612627D01*
X102304333Y-118398556D01*
X102120889Y-118398556D01*
G37*
X102120889Y-118398556D02*
X102120889Y-118102223D01*
X102120493Y-117998198D01*
X102119196Y-117919636D01*
X102116836Y-117863787D01*
X102113248Y-117827901D01*
X102108271Y-117809229D01*
X102103250Y-117804841D01*
X102083428Y-117803339D01*
X102041061Y-117799930D01*
X101981725Y-117795069D01*
X101910999Y-117789211D01*
X101884542Y-117787005D01*
X101683473Y-117770218D01*
X101677694Y-117812748D01*
X101660089Y-117931483D01*
X101642060Y-118026777D01*
X101621957Y-118103383D01*
X101598129Y-118166054D01*
X101568926Y-118219546D01*
X101532696Y-118268610D01*
X101510645Y-118293828D01*
X101427118Y-118368960D01*
X101335031Y-118418895D01*
X101229373Y-118446056D01*
X101185618Y-118450834D01*
X101062542Y-118447830D01*
X100952174Y-118420141D01*
X100856054Y-118369000D01*
X100775722Y-118295641D01*
X100712720Y-118201297D01*
X100668587Y-118087203D01*
X100654516Y-118025548D01*
X100645940Y-117956824D01*
X100641797Y-117876329D01*
X100642311Y-117796557D01*
X100647704Y-117729999D01*
X100649067Y-117721223D01*
X100657628Y-117679576D01*
X100670337Y-117627706D01*
X100685149Y-117572818D01*
X100700018Y-117522117D01*
X100712900Y-117482806D01*
X100721751Y-117462092D01*
X100722999Y-117460717D01*
X100740974Y-117460511D01*
X100776521Y-117465912D01*
X100820062Y-117474829D01*
X100862015Y-117485174D01*
X100892801Y-117494856D01*
X100902306Y-117499825D01*
X100901744Y-117516021D01*
X100892522Y-117550448D01*
X100878820Y-117589721D01*
X100854550Y-117677291D01*
X100841070Y-117777838D01*
X100838940Y-117880333D01*
X100848723Y-117973751D01*
X100857398Y-118010710D01*
X100895278Y-118097093D01*
X100951365Y-118162633D01*
X101023306Y-118205794D01*
X101108750Y-118225039D01*
X101181849Y-118222649D01*
X101263653Y-118202494D01*
X101331202Y-118164490D01*
X101385839Y-118106763D01*
X101428906Y-118027439D01*
X101461745Y-117924643D01*
X101485370Y-117798834D01*
X101492886Y-117734883D01*
X101498100Y-117669243D01*
X101499720Y-117625333D01*
X101500000Y-117550610D01*
X101545861Y-117558187D01*
X101592539Y-117564340D01*
X101661677Y-117571414D01*
X101747547Y-117578955D01*
X101844420Y-117586505D01*
X101946567Y-117593610D01*
X102048260Y-117599813D01*
X102110305Y-117603092D01*
X102304333Y-117612627D01*
X102304333Y-118398556D01*
X102120889Y-118398556D01*
G36*
X102334531Y-114263395D02*
G01*
X102307450Y-114397706D01*
X102288654Y-114455344D01*
X102266190Y-114513040D01*
X102247361Y-114547780D01*
X102226156Y-114563127D01*
X102196562Y-114562647D01*
X102152565Y-114549905D01*
X102137627Y-114544889D01*
X102089170Y-114526982D01*
X102063594Y-114512713D01*
X102056359Y-114499046D01*
X102058109Y-114491708D01*
X102110738Y-114342647D01*
X102139233Y-114207590D01*
X102143676Y-114086047D01*
X102136557Y-114028282D01*
X102101959Y-113907707D01*
X102045898Y-113805435D01*
X101968231Y-113721274D01*
X101868813Y-113655033D01*
X101847363Y-113644415D01*
X101750960Y-113606215D01*
X101652266Y-113583195D01*
X101541185Y-113573301D01*
X101494176Y-113572556D01*
X101340768Y-113582613D01*
X101206565Y-113612331D01*
X101092228Y-113661031D01*
X100998422Y-113728035D01*
X100925809Y-113812663D01*
X100875052Y-113914236D01*
X100846814Y-114032076D01*
X100841758Y-114165503D01*
X100847722Y-114234574D01*
X100859245Y-114304850D01*
X100875689Y-114376638D01*
X100893898Y-114436565D01*
X100897788Y-114446730D01*
X100932231Y-114532004D01*
X100840777Y-114560251D01*
X100792883Y-114573445D01*
X100755488Y-114580805D01*
X100736795Y-114580756D01*
X100725366Y-114562415D01*
X100710382Y-114522891D01*
X100693719Y-114468696D01*
X100677249Y-114406343D01*
X100662849Y-114342343D01*
X100653745Y-114292223D01*
X100642626Y-114179619D01*
X100642047Y-114061384D01*
X100651786Y-113950304D01*
X100660550Y-113901003D01*
X100694496Y-113794261D01*
X100747431Y-113688307D01*
X100813592Y-113593494D01*
X100859061Y-113544525D01*
X100945339Y-113477442D01*
X101050214Y-113419029D01*
X101164343Y-113373968D01*
X101239349Y-113353995D01*
X101324991Y-113341396D01*
X101427016Y-113334900D01*
X101534647Y-113334521D01*
X101637108Y-113340273D01*
X101723624Y-113352172D01*
X101729245Y-113353329D01*
X101867335Y-113395677D01*
X101993317Y-113460300D01*
X102104160Y-113544562D01*
X102196835Y-113645827D01*
X102268309Y-113761461D01*
X102305786Y-113854778D01*
X102333966Y-113982564D01*
X102343458Y-114121892D01*
X102334531Y-114263395D01*
G37*
X102334531Y-114263395D02*
X102307450Y-114397706D01*
X102288654Y-114455344D01*
X102266190Y-114513040D01*
X102247361Y-114547780D01*
X102226156Y-114563127D01*
X102196562Y-114562647D01*
X102152565Y-114549905D01*
X102137627Y-114544889D01*
X102089170Y-114526982D01*
X102063594Y-114512713D01*
X102056359Y-114499046D01*
X102058109Y-114491708D01*
X102110738Y-114342647D01*
X102139233Y-114207590D01*
X102143676Y-114086047D01*
X102136557Y-114028282D01*
X102101959Y-113907707D01*
X102045898Y-113805435D01*
X101968231Y-113721274D01*
X101868813Y-113655033D01*
X101847363Y-113644415D01*
X101750960Y-113606215D01*
X101652266Y-113583195D01*
X101541185Y-113573301D01*
X101494176Y-113572556D01*
X101340768Y-113582613D01*
X101206565Y-113612331D01*
X101092228Y-113661031D01*
X100998422Y-113728035D01*
X100925809Y-113812663D01*
X100875052Y-113914236D01*
X100846814Y-114032076D01*
X100841758Y-114165503D01*
X100847722Y-114234574D01*
X100859245Y-114304850D01*
X100875689Y-114376638D01*
X100893898Y-114436565D01*
X100897788Y-114446730D01*
X100932231Y-114532004D01*
X100840777Y-114560251D01*
X100792883Y-114573445D01*
X100755488Y-114580805D01*
X100736795Y-114580756D01*
X100725366Y-114562415D01*
X100710382Y-114522891D01*
X100693719Y-114468696D01*
X100677249Y-114406343D01*
X100662849Y-114342343D01*
X100653745Y-114292223D01*
X100642626Y-114179619D01*
X100642047Y-114061384D01*
X100651786Y-113950304D01*
X100660550Y-113901003D01*
X100694496Y-113794261D01*
X100747431Y-113688307D01*
X100813592Y-113593494D01*
X100859061Y-113544525D01*
X100945339Y-113477442D01*
X101050214Y-113419029D01*
X101164343Y-113373968D01*
X101239349Y-113353995D01*
X101324991Y-113341396D01*
X101427016Y-113334900D01*
X101534647Y-113334521D01*
X101637108Y-113340273D01*
X101723624Y-113352172D01*
X101729245Y-113353329D01*
X101867335Y-113395677D01*
X101993317Y-113460300D01*
X102104160Y-113544562D01*
X102196835Y-113645827D01*
X102268309Y-113761461D01*
X102305786Y-113854778D01*
X102333966Y-113982564D01*
X102343458Y-114121892D01*
X102334531Y-114263395D01*
G36*
X101914051Y-110730389D02*
G01*
X101876979Y-110845933D01*
X101816362Y-110947192D01*
X101733408Y-111032559D01*
X101629323Y-111100427D01*
X101518268Y-111145314D01*
X101439653Y-111162314D01*
X101345179Y-111171759D01*
X101245842Y-111173417D01*
X101152641Y-111167058D01*
X101083722Y-111154457D01*
X100959705Y-111108396D01*
X100853805Y-111042293D01*
X100767691Y-110957917D01*
X100703033Y-110857032D01*
X100661499Y-110741405D01*
X100652838Y-110698416D01*
X100644114Y-110639171D01*
X100641392Y-110594538D01*
X100645014Y-110551496D01*
X100655321Y-110497024D01*
X100658517Y-110482223D01*
X100697526Y-110365968D01*
X100759595Y-110264577D01*
X100842890Y-110179619D01*
X100945576Y-110112664D01*
X101065818Y-110065281D01*
X101172283Y-110042682D01*
X101303336Y-110034543D01*
X101303336Y-110264785D01*
X101199913Y-110268523D01*
X101106836Y-110283805D01*
X101088619Y-110288824D01*
X100998049Y-110329146D01*
X100925721Y-110387910D01*
X100873731Y-110461375D01*
X100844179Y-110545803D01*
X100839161Y-110637452D01*
X100852884Y-110709097D01*
X100890141Y-110785267D01*
X100951952Y-110850960D01*
X101031093Y-110901131D01*
X101067924Y-110918202D01*
X101100516Y-110929539D01*
X101136185Y-110936305D01*
X101182246Y-110939659D01*
X101246013Y-110940762D01*
X101281278Y-110940834D01*
X101367823Y-110939518D01*
X101433688Y-110934400D01*
X101486341Y-110923725D01*
X101533248Y-110905735D01*
X101581878Y-110878676D01*
X101603129Y-110865151D01*
X101665060Y-110808807D01*
X101709045Y-110735380D01*
X101732884Y-110651205D01*
X101734381Y-110562618D01*
X101724860Y-110514222D01*
X101690495Y-110440333D01*
X101633704Y-110374103D01*
X101560201Y-110321016D01*
X101492944Y-110291609D01*
X101405037Y-110272508D01*
X101303336Y-110264785D01*
X101303336Y-110034543D01*
X101314825Y-110033829D01*
X101447669Y-110047690D01*
X101568659Y-110082665D01*
X101675642Y-110137156D01*
X101766462Y-110209565D01*
X101838965Y-110298292D01*
X101890997Y-110401740D01*
X101920402Y-110518309D01*
X101926370Y-110602167D01*
X101914051Y-110730389D01*
G37*
X101914051Y-110730389D02*
X101876979Y-110845933D01*
X101816362Y-110947192D01*
X101733408Y-111032559D01*
X101629323Y-111100427D01*
X101518268Y-111145314D01*
X101439653Y-111162314D01*
X101345179Y-111171759D01*
X101245842Y-111173417D01*
X101152641Y-111167058D01*
X101083722Y-111154457D01*
X100959705Y-111108396D01*
X100853805Y-111042293D01*
X100767691Y-110957917D01*
X100703033Y-110857032D01*
X100661499Y-110741405D01*
X100652838Y-110698416D01*
X100644114Y-110639171D01*
X100641392Y-110594538D01*
X100645014Y-110551496D01*
X100655321Y-110497024D01*
X100658517Y-110482223D01*
X100697526Y-110365968D01*
X100759595Y-110264577D01*
X100842890Y-110179619D01*
X100945576Y-110112664D01*
X101065818Y-110065281D01*
X101172283Y-110042682D01*
X101303336Y-110034543D01*
X101303336Y-110264785D01*
X101199913Y-110268523D01*
X101106836Y-110283805D01*
X101088619Y-110288824D01*
X100998049Y-110329146D01*
X100925721Y-110387910D01*
X100873731Y-110461375D01*
X100844179Y-110545803D01*
X100839161Y-110637452D01*
X100852884Y-110709097D01*
X100890141Y-110785267D01*
X100951952Y-110850960D01*
X101031093Y-110901131D01*
X101067924Y-110918202D01*
X101100516Y-110929539D01*
X101136185Y-110936305D01*
X101182246Y-110939659D01*
X101246013Y-110940762D01*
X101281278Y-110940834D01*
X101367823Y-110939518D01*
X101433688Y-110934400D01*
X101486341Y-110923725D01*
X101533248Y-110905735D01*
X101581878Y-110878676D01*
X101603129Y-110865151D01*
X101665060Y-110808807D01*
X101709045Y-110735380D01*
X101732884Y-110651205D01*
X101734381Y-110562618D01*
X101724860Y-110514222D01*
X101690495Y-110440333D01*
X101633704Y-110374103D01*
X101560201Y-110321016D01*
X101492944Y-110291609D01*
X101405037Y-110272508D01*
X101303336Y-110264785D01*
X101303336Y-110034543D01*
X101314825Y-110033829D01*
X101447669Y-110047690D01*
X101568659Y-110082665D01*
X101675642Y-110137156D01*
X101766462Y-110209565D01*
X101838965Y-110298292D01*
X101890997Y-110401740D01*
X101920402Y-110518309D01*
X101926370Y-110602167D01*
X101914051Y-110730389D01*
G36*
X102341830Y-102791667D02*
G01*
X102321280Y-102937017D01*
X102278496Y-103066287D01*
X102212295Y-103182195D01*
X102129526Y-103279528D01*
X102019402Y-103370197D01*
X101892784Y-103438342D01*
X101749401Y-103484063D01*
X101588979Y-103507457D01*
X101492944Y-103510844D01*
X101322993Y-103499741D01*
X101170229Y-103466367D01*
X101034383Y-103410624D01*
X100915180Y-103332411D01*
X100856363Y-103279528D01*
X100793605Y-103210495D01*
X100745520Y-103140966D01*
X100705899Y-103060815D01*
X100678796Y-102989901D01*
X100660070Y-102915012D01*
X100648416Y-102823210D01*
X100644306Y-102725021D01*
X100648215Y-102630974D01*
X100659321Y-102557063D01*
X100704556Y-102417121D01*
X100772295Y-102294124D01*
X100862220Y-102188415D01*
X100974014Y-102100337D01*
X101107357Y-102030234D01*
X101170040Y-102006119D01*
X101216095Y-101990855D01*
X101256276Y-101980210D01*
X101297433Y-101973364D01*
X101346419Y-101969495D01*
X101410084Y-101967780D01*
X101492944Y-101967399D01*
X101554794Y-101967690D01*
X101554794Y-102201804D01*
X101421405Y-102202599D01*
X101293825Y-102221506D01*
X101175793Y-102257283D01*
X101071048Y-102308687D01*
X100983329Y-102374477D01*
X100916375Y-102453411D01*
X100898895Y-102483231D01*
X100863226Y-102577284D01*
X100845035Y-102684888D01*
X100845058Y-102796874D01*
X100864030Y-102904074D01*
X100864882Y-102907058D01*
X100903312Y-102992714D01*
X100965473Y-103073350D01*
X101046888Y-103144872D01*
X101143080Y-103203184D01*
X101225299Y-103236800D01*
X101295685Y-103252772D01*
X101384170Y-103262398D01*
X101482293Y-103265760D01*
X101581589Y-103262940D01*
X101673596Y-103254022D01*
X101749850Y-103239087D01*
X101774027Y-103231453D01*
X101894867Y-103175696D01*
X101991252Y-103105981D01*
X102063506Y-103021868D01*
X102111952Y-102922912D01*
X102136912Y-102808671D01*
X102140719Y-102728167D01*
X102127294Y-102605299D01*
X102089990Y-102497120D01*
X102029457Y-102404363D01*
X101946346Y-102327763D01*
X101841308Y-102268052D01*
X101714993Y-102225965D01*
X101690254Y-102220362D01*
X101554794Y-102201804D01*
X101554794Y-101967690D01*
X101577464Y-101967797D01*
X101640633Y-101969541D01*
X101689320Y-101973461D01*
X101730391Y-101980386D01*
X101770715Y-101991143D01*
X101816962Y-102006493D01*
X101958216Y-102069007D01*
X102079079Y-102150379D01*
X102178537Y-102249096D01*
X102255581Y-102363644D01*
X102309197Y-102492512D01*
X102338377Y-102634185D01*
X102342107Y-102787152D01*
X102341830Y-102791667D01*
G37*
X102341830Y-102791667D02*
X102321280Y-102937017D01*
X102278496Y-103066287D01*
X102212295Y-103182195D01*
X102129526Y-103279528D01*
X102019402Y-103370197D01*
X101892784Y-103438342D01*
X101749401Y-103484063D01*
X101588979Y-103507457D01*
X101492944Y-103510844D01*
X101322993Y-103499741D01*
X101170229Y-103466367D01*
X101034383Y-103410624D01*
X100915180Y-103332411D01*
X100856363Y-103279528D01*
X100793605Y-103210495D01*
X100745520Y-103140966D01*
X100705899Y-103060815D01*
X100678796Y-102989901D01*
X100660070Y-102915012D01*
X100648416Y-102823210D01*
X100644306Y-102725021D01*
X100648215Y-102630974D01*
X100659321Y-102557063D01*
X100704556Y-102417121D01*
X100772295Y-102294124D01*
X100862220Y-102188415D01*
X100974014Y-102100337D01*
X101107357Y-102030234D01*
X101170040Y-102006119D01*
X101216095Y-101990855D01*
X101256276Y-101980210D01*
X101297433Y-101973364D01*
X101346419Y-101969495D01*
X101410084Y-101967780D01*
X101492944Y-101967399D01*
X101554794Y-101967690D01*
X101554794Y-102201804D01*
X101421405Y-102202599D01*
X101293825Y-102221506D01*
X101175793Y-102257283D01*
X101071048Y-102308687D01*
X100983329Y-102374477D01*
X100916375Y-102453411D01*
X100898895Y-102483231D01*
X100863226Y-102577284D01*
X100845035Y-102684888D01*
X100845058Y-102796874D01*
X100864030Y-102904074D01*
X100864882Y-102907058D01*
X100903312Y-102992714D01*
X100965473Y-103073350D01*
X101046888Y-103144872D01*
X101143080Y-103203184D01*
X101225299Y-103236800D01*
X101295685Y-103252772D01*
X101384170Y-103262398D01*
X101482293Y-103265760D01*
X101581589Y-103262940D01*
X101673596Y-103254022D01*
X101749850Y-103239087D01*
X101774027Y-103231453D01*
X101894867Y-103175696D01*
X101991252Y-103105981D01*
X102063506Y-103021868D01*
X102111952Y-102922912D01*
X102136912Y-102808671D01*
X102140719Y-102728167D01*
X102127294Y-102605299D01*
X102089990Y-102497120D01*
X102029457Y-102404363D01*
X101946346Y-102327763D01*
X101841308Y-102268052D01*
X101714993Y-102225965D01*
X101690254Y-102220362D01*
X101554794Y-102201804D01*
X101554794Y-101967690D01*
X101577464Y-101967797D01*
X101640633Y-101969541D01*
X101689320Y-101973461D01*
X101730391Y-101980386D01*
X101770715Y-101991143D01*
X101816962Y-102006493D01*
X101958216Y-102069007D01*
X102079079Y-102150379D01*
X102178537Y-102249096D01*
X102255581Y-102363644D01*
X102309197Y-102492512D01*
X102338377Y-102634185D01*
X102342107Y-102787152D01*
X102341830Y-102791667D01*
D11*
X120725000Y-110175000D02*
G75*
G03X120725000Y-110175000I-6250000J0D01*
G01*
X124575000Y-117425000D02*
G75*
G02X121725000Y-120275000I-2850000J0D01*
G01*
X121725000Y-100075000D02*
G75*
G02X124575000Y-102925000I0J-2850000D01*
G01*
X104375000Y-102925000D02*
G75*
G02X107225000Y-100075000I2850000J0D01*
G01*
X107225000Y-120275000D02*
G75*
G02X104375000Y-117425000I0J2850000D01*
G01*
X121725000Y-100075000D02*
X107225000Y-100075000D01*
X121725000Y-120275000D02*
X107225000Y-120275000D01*
X104375000Y-117425000D02*
X104375000Y-102925000D01*
X124575000Y-117425000D02*
X124575000Y-102925000D01*
X124575000Y-112675000D02*
X120225000Y-112675000D01*
X124575000Y-107675000D02*
X120225000Y-107675000D01*
M02*
