%MOIN*%
%OFA0B0*%
%FSLAX44Y44*%
%IPPOS*%
%LPD*%
%ADD10C,0*%
D10*
X00010930Y00012992D02*
X00010930Y00012992D01*
X00004817Y00012992D01*
X00004786Y00012993D01*
X00004755Y00012996D01*
X00004725Y00013003D01*
X00004695Y00013011D01*
X00004666Y00013022D01*
X00004638Y00013035D01*
X00004611Y00013050D01*
X00004585Y00013067D01*
X00004561Y00013086D01*
X00004538Y00013107D01*
X00004517Y00013130D01*
X00004498Y00013154D01*
X00004481Y00013180D01*
X00004466Y00013207D01*
X00004453Y00013235D01*
X00004442Y00013264D01*
X00004434Y00013293D01*
X00004428Y00013324D01*
X00004424Y00013354D01*
X00004423Y00013385D01*
X00004423Y00014173D01*
X00004424Y00014204D01*
X00004428Y00014234D01*
X00004434Y00014265D01*
X00004442Y00014294D01*
X00004453Y00014323D01*
X00004466Y00014351D01*
X00004481Y00014378D01*
X00004498Y00014404D01*
X00004517Y00014428D01*
X00004538Y00014451D01*
X00004561Y00014472D01*
X00004585Y00014491D01*
X00004611Y00014508D01*
X00004638Y00014524D01*
X00004666Y00014536D01*
X00004695Y00014547D01*
X00004725Y00014556D01*
X00004755Y00014562D01*
X00004786Y00014565D01*
X00004817Y00014566D01*
X00010930Y00014566D01*
X00010961Y00014565D01*
X00010992Y00014562D01*
X00011022Y00014556D01*
X00011052Y00014547D01*
X00011081Y00014536D01*
X00011109Y00014524D01*
X00011136Y00014508D01*
X00011162Y00014491D01*
X00011186Y00014472D01*
X00011209Y00014451D01*
X00011230Y00014428D01*
X00011249Y00014404D01*
X00011266Y00014378D01*
X00011281Y00014351D01*
X00011294Y00014323D01*
X00011305Y00014294D01*
X00011313Y00014265D01*
X00011319Y00014234D01*
X00011323Y00014204D01*
X00011324Y00014173D01*
X00011324Y00013385D01*
X00011323Y00013354D01*
X00011319Y00013324D01*
X00011313Y00013293D01*
X00011305Y00013264D01*
X00011294Y00013235D01*
X00011281Y00013207D01*
X00011266Y00013180D01*
X00011249Y00013154D01*
X00011230Y00013130D01*
X00011209Y00013107D01*
X00011186Y00013086D01*
X00011162Y00013067D01*
X00011136Y00013050D01*
X00011109Y00013035D01*
X00011081Y00013022D01*
X00011052Y00013011D01*
X00011022Y00013003D01*
X00010992Y00012996D01*
X00010961Y00012993D01*
X00010930Y00012992D01*
X00020078Y00012795D02*
X00020078Y00012795D01*
X00019685Y00012992D01*
X00012691Y00012992D01*
X00012660Y00012993D01*
X00012629Y00012996D01*
X00012599Y00013003D01*
X00012569Y00013011D01*
X00012540Y00013022D01*
X00012512Y00013035D01*
X00012485Y00013050D01*
X00012459Y00013067D01*
X00012435Y00013086D01*
X00012412Y00013107D01*
X00012391Y00013130D01*
X00012372Y00013154D01*
X00012355Y00013180D01*
X00012340Y00013207D01*
X00012327Y00013235D01*
X00012316Y00013264D01*
X00012308Y00013293D01*
X00012302Y00013324D01*
X00012298Y00013354D01*
X00012297Y00013385D01*
X00012297Y00014173D01*
X00012298Y00014204D01*
X00012302Y00014234D01*
X00012308Y00014265D01*
X00012316Y00014294D01*
X00012327Y00014323D01*
X00012340Y00014351D01*
X00012355Y00014378D01*
X00012372Y00014404D01*
X00012391Y00014428D01*
X00012412Y00014451D01*
X00012435Y00014472D01*
X00012459Y00014491D01*
X00012485Y00014508D01*
X00012512Y00014524D01*
X00012540Y00014536D01*
X00012569Y00014547D01*
X00012599Y00014556D01*
X00012629Y00014562D01*
X00012660Y00014565D01*
X00012691Y00014566D01*
X00022491Y00014566D01*
X00022518Y00014565D01*
X00022546Y00014563D01*
X00022573Y00014558D01*
X00022600Y00014551D01*
X00022626Y00014542D01*
X00022652Y00014532D01*
X00022676Y00014520D01*
X00022700Y00014506D01*
X00022723Y00014491D01*
X00022745Y00014473D01*
X00022765Y00014455D01*
X00022784Y00014435D01*
X00022802Y00014414D01*
X00022818Y00014391D01*
X00022833Y00014368D01*
X00022846Y00014343D01*
X00022857Y00014318D01*
X00022866Y00014292D01*
X00022873Y00014265D01*
X00022879Y00014238D01*
X00023045Y00013254D01*
X00023050Y00013220D01*
X00023051Y00013186D01*
X00023049Y00013152D01*
X00023045Y00013118D01*
X00023037Y00013085D01*
X00023026Y00013052D01*
X00023013Y00013020D01*
X00022997Y00012990D01*
X00022979Y00012961D01*
X00022958Y00012934D01*
X00022935Y00012909D01*
X00022909Y00012886D01*
X00022882Y00012865D01*
X00022853Y00012847D01*
X00022823Y00012831D01*
X00022791Y00012818D01*
X00022759Y00012808D01*
X00022725Y00012801D01*
X00022691Y00012796D01*
X00022657Y00012795D01*
X00020078Y00012795D01*
X00019685Y00009055D02*
X00019685Y00009055D01*
X00020078Y00009251D01*
X00022392Y00009251D01*
X00022423Y00009250D01*
X00022454Y00009247D01*
X00022484Y00009241D01*
X00022514Y00009232D01*
X00022543Y00009221D01*
X00022571Y00009209D01*
X00022598Y00009193D01*
X00022624Y00009176D01*
X00022648Y00009157D01*
X00022671Y00009136D01*
X00022692Y00009113D01*
X00022711Y00009089D01*
X00022728Y00009063D01*
X00022743Y00009037D01*
X00022756Y00009008D01*
X00022767Y00008979D01*
X00022775Y00008950D01*
X00022781Y00008919D01*
X00022785Y00008889D01*
X00022786Y00008858D01*
X00022786Y00007677D01*
X00022785Y00007646D01*
X00022781Y00007615D01*
X00022775Y00007585D01*
X00022767Y00007555D01*
X00022756Y00007526D01*
X00022743Y00007498D01*
X00022728Y00007471D01*
X00022711Y00007445D01*
X00022692Y00007421D01*
X00022671Y00007398D01*
X00022648Y00007377D01*
X00022624Y00007358D01*
X00022598Y00007341D01*
X00022571Y00007326D01*
X00022543Y00007313D01*
X00022514Y00007302D01*
X00022484Y00007294D01*
X00022454Y00007288D01*
X00022423Y00007284D01*
X00022392Y00007283D01*
X00020078Y00007283D01*
X00019685Y00007480D01*
X00012691Y00007480D01*
X00012660Y00007481D01*
X00012629Y00007485D01*
X00012599Y00007491D01*
X00012569Y00007499D01*
X00012540Y00007510D01*
X00012512Y00007523D01*
X00012485Y00007538D01*
X00012459Y00007555D01*
X00012435Y00007574D01*
X00012412Y00007595D01*
X00012391Y00007618D01*
X00012372Y00007642D01*
X00012355Y00007668D01*
X00012340Y00007695D01*
X00012327Y00007723D01*
X00012316Y00007752D01*
X00012308Y00007782D01*
X00012302Y00007812D01*
X00012298Y00007843D01*
X00012297Y00007874D01*
X00012297Y00008661D01*
X00012298Y00008692D01*
X00012302Y00008723D01*
X00012308Y00008753D01*
X00012316Y00008783D01*
X00012327Y00008812D01*
X00012340Y00008840D01*
X00012355Y00008867D01*
X00012372Y00008892D01*
X00012391Y00008917D01*
X00012412Y00008939D01*
X00012435Y00008960D01*
X00012459Y00008979D01*
X00012485Y00008997D01*
X00012512Y00009012D01*
X00012540Y00009025D01*
X00012569Y00009035D01*
X00012599Y00009044D01*
X00012629Y00009050D01*
X00012660Y00009053D01*
X00012691Y00009055D01*
X00019685Y00009055D01*
X00024752Y00001968D02*
X00024752Y00001968D01*
X00024725Y00001969D01*
X00024697Y00001972D01*
X00024670Y00001977D01*
X00024643Y00001983D01*
X00024617Y00001992D01*
X00024591Y00002002D01*
X00024567Y00002015D01*
X00024543Y00002028D01*
X00024520Y00002044D01*
X00024498Y00002061D01*
X00024478Y00002080D01*
X00024459Y00002099D01*
X00024441Y00002121D01*
X00024425Y00002143D01*
X00024410Y00002167D01*
X00024398Y00002191D01*
X00024386Y00002216D01*
X00024377Y00002242D01*
X00024370Y00002269D01*
X00024364Y00002296D01*
X00024198Y00003280D01*
X00024193Y00003314D01*
X00024192Y00003348D01*
X00024194Y00003383D01*
X00024199Y00003416D01*
X00024206Y00003450D01*
X00024217Y00003482D01*
X00024230Y00003514D01*
X00024246Y00003544D01*
X00024264Y00003573D01*
X00024285Y00003600D01*
X00024308Y00003625D01*
X00024334Y00003648D01*
X00024361Y00003669D01*
X00024390Y00003687D01*
X00024420Y00003703D01*
X00024452Y00003716D01*
X00024484Y00003726D01*
X00024518Y00003734D01*
X00024552Y00003738D01*
X00024586Y00003740D01*
X00030531Y00003740D01*
X00030565Y00003738D01*
X00030599Y00003734D01*
X00030633Y00003726D01*
X00030665Y00003716D01*
X00030697Y00003703D01*
X00030727Y00003687D01*
X00030756Y00003669D01*
X00030783Y00003648D01*
X00030809Y00003625D01*
X00030832Y00003600D01*
X00030853Y00003573D01*
X00030871Y00003544D01*
X00030887Y00003514D01*
X00030900Y00003482D01*
X00030911Y00003450D01*
X00030919Y00003416D01*
X00030923Y00003383D01*
X00030925Y00003348D01*
X00030924Y00003314D01*
X00030919Y00003280D01*
X00030753Y00002296D01*
X00030747Y00002269D01*
X00030740Y00002242D01*
X00030731Y00002216D01*
X00030720Y00002191D01*
X00030707Y00002167D01*
X00030692Y00002143D01*
X00030676Y00002121D01*
X00030658Y00002099D01*
X00030639Y00002080D01*
X00030619Y00002061D01*
X00030597Y00002044D01*
X00030574Y00002028D01*
X00030550Y00002015D01*
X00030526Y00002002D01*
X00030500Y00001992D01*
X00030474Y00001983D01*
X00030447Y00001977D01*
X00030420Y00001972D01*
X00030392Y00001969D01*
X00030365Y00001968D01*
X00024752Y00001968D01*
X00024851Y00007283D02*
X00024851Y00007283D01*
X00024820Y00007284D01*
X00024789Y00007288D01*
X00024759Y00007294D01*
X00024729Y00007302D01*
X00024700Y00007313D01*
X00024672Y00007326D01*
X00024645Y00007341D01*
X00024619Y00007358D01*
X00024595Y00007377D01*
X00024572Y00007398D01*
X00024552Y00007421D01*
X00024532Y00007445D01*
X00024515Y00007471D01*
X00024500Y00007498D01*
X00024487Y00007526D01*
X00024476Y00007555D01*
X00024468Y00007585D01*
X00024462Y00007615D01*
X00024458Y00007646D01*
X00024457Y00007677D01*
X00024457Y00008858D01*
X00024458Y00008889D01*
X00024462Y00008919D01*
X00024468Y00008950D01*
X00024476Y00008979D01*
X00024487Y00009008D01*
X00024500Y00009037D01*
X00024515Y00009063D01*
X00024532Y00009089D01*
X00024552Y00009113D01*
X00024572Y00009136D01*
X00024595Y00009157D01*
X00024619Y00009176D01*
X00024645Y00009193D01*
X00024672Y00009209D01*
X00024700Y00009221D01*
X00024729Y00009232D01*
X00024759Y00009241D01*
X00024789Y00009247D01*
X00024820Y00009250D01*
X00024851Y00009251D01*
X00030266Y00009251D01*
X00030297Y00009250D01*
X00030328Y00009247D01*
X00030358Y00009241D01*
X00030388Y00009232D01*
X00030417Y00009221D01*
X00030445Y00009209D01*
X00030472Y00009193D01*
X00030498Y00009176D01*
X00030522Y00009157D01*
X00030545Y00009136D01*
X00030566Y00009113D01*
X00030585Y00009089D01*
X00030602Y00009063D01*
X00030617Y00009037D01*
X00030630Y00009008D01*
X00030641Y00008979D01*
X00030649Y00008950D01*
X00030655Y00008919D01*
X00030659Y00008889D01*
X00030660Y00008858D01*
X00030660Y00007677D01*
X00030659Y00007646D01*
X00030655Y00007615D01*
X00030649Y00007585D01*
X00030641Y00007555D01*
X00030630Y00007526D01*
X00030617Y00007498D01*
X00030602Y00007471D01*
X00030585Y00007445D01*
X00030566Y00007421D01*
X00030545Y00007398D01*
X00030522Y00007377D01*
X00030498Y00007358D01*
X00030472Y00007341D01*
X00030445Y00007326D01*
X00030417Y00007313D01*
X00030388Y00007302D01*
X00030358Y00007294D01*
X00030328Y00007288D01*
X00030297Y00007284D01*
X00030266Y00007283D01*
X00024851Y00007283D01*
X00024586Y00012795D02*
X00024586Y00012795D01*
X00024552Y00012796D01*
X00024518Y00012801D01*
X00024484Y00012808D01*
X00024452Y00012818D01*
X00024420Y00012831D01*
X00024390Y00012847D01*
X00024361Y00012865D01*
X00024334Y00012886D01*
X00024308Y00012909D01*
X00024285Y00012934D01*
X00024264Y00012961D01*
X00024246Y00012990D01*
X00024230Y00013020D01*
X00024217Y00013052D01*
X00024206Y00013085D01*
X00024199Y00013118D01*
X00024194Y00013152D01*
X00024192Y00013186D01*
X00024193Y00013220D01*
X00024198Y00013254D01*
X00024364Y00014238D01*
X00024370Y00014265D01*
X00024377Y00014292D01*
X00024386Y00014318D01*
X00024398Y00014343D01*
X00024410Y00014368D01*
X00024425Y00014391D01*
X00024441Y00014414D01*
X00024459Y00014435D01*
X00024478Y00014455D01*
X00024498Y00014473D01*
X00024520Y00014491D01*
X00024543Y00014506D01*
X00024567Y00014520D01*
X00024591Y00014532D01*
X00024617Y00014542D01*
X00024643Y00014551D01*
X00024670Y00014558D01*
X00024697Y00014563D01*
X00024725Y00014565D01*
X00024752Y00014566D01*
X00030365Y00014566D01*
X00030392Y00014565D01*
X00030420Y00014563D01*
X00030447Y00014558D01*
X00030474Y00014551D01*
X00030500Y00014542D01*
X00030526Y00014532D01*
X00030550Y00014520D01*
X00030574Y00014506D01*
X00030597Y00014491D01*
X00030619Y00014473D01*
X00030639Y00014455D01*
X00030658Y00014435D01*
X00030676Y00014414D01*
X00030692Y00014391D01*
X00030707Y00014368D01*
X00030720Y00014343D01*
X00030731Y00014318D01*
X00030740Y00014292D01*
X00030747Y00014265D01*
X00030753Y00014238D01*
X00030919Y00013254D01*
X00030924Y00013220D01*
X00030925Y00013186D01*
X00030923Y00013152D01*
X00030919Y00013118D01*
X00030911Y00013085D01*
X00030900Y00013052D01*
X00030887Y00013020D01*
X00030871Y00012990D01*
X00030853Y00012961D01*
X00030832Y00012934D01*
X00030809Y00012909D01*
X00030783Y00012886D01*
X00030756Y00012865D01*
X00030727Y00012847D01*
X00030697Y00012831D01*
X00030665Y00012818D01*
X00030633Y00012808D01*
X00030599Y00012801D01*
X00030565Y00012796D01*
X00030531Y00012795D01*
X00024586Y00012795D01*
X00012691Y00001968D02*
X00012691Y00001968D01*
X00012660Y00001969D01*
X00012629Y00001973D01*
X00012599Y00001979D01*
X00012569Y00001987D01*
X00012540Y00001998D01*
X00012512Y00002011D01*
X00012485Y00002026D01*
X00012459Y00002043D01*
X00012435Y00002062D01*
X00012412Y00002083D01*
X00012391Y00002106D01*
X00012372Y00002130D01*
X00012355Y00002156D01*
X00012340Y00002183D01*
X00012327Y00002211D01*
X00012316Y00002240D01*
X00012308Y00002270D01*
X00012302Y00002300D01*
X00012298Y00002331D01*
X00012297Y00002362D01*
X00012297Y00003149D01*
X00012298Y00003180D01*
X00012302Y00003211D01*
X00012308Y00003241D01*
X00012316Y00003271D01*
X00012327Y00003300D01*
X00012340Y00003328D01*
X00012355Y00003355D01*
X00012372Y00003381D01*
X00012391Y00003405D01*
X00012412Y00003427D01*
X00012435Y00003448D01*
X00012459Y00003468D01*
X00012485Y00003485D01*
X00012512Y00003500D01*
X00012540Y00003513D01*
X00012569Y00003524D01*
X00012599Y00003532D01*
X00012629Y00003538D01*
X00012660Y00003542D01*
X00012691Y00003543D01*
X00019685Y00003543D01*
X00020078Y00003740D01*
X00022657Y00003740D01*
X00022691Y00003738D01*
X00022725Y00003734D01*
X00022759Y00003726D01*
X00022791Y00003716D01*
X00022823Y00003703D01*
X00022853Y00003687D01*
X00022882Y00003669D01*
X00022909Y00003648D01*
X00022935Y00003625D01*
X00022958Y00003600D01*
X00022979Y00003573D01*
X00022997Y00003544D01*
X00023013Y00003514D01*
X00023026Y00003482D01*
X00023037Y00003450D01*
X00023045Y00003416D01*
X00023049Y00003383D01*
X00023051Y00003348D01*
X00023050Y00003314D01*
X00023045Y00003280D01*
X00022879Y00002296D01*
X00022873Y00002269D01*
X00022866Y00002242D01*
X00022857Y00002216D01*
X00022846Y00002191D01*
X00022833Y00002167D01*
X00022818Y00002143D01*
X00022802Y00002121D01*
X00022784Y00002099D01*
X00022765Y00002080D01*
X00022745Y00002061D01*
X00022723Y00002044D01*
X00022700Y00002028D01*
X00022676Y00002015D01*
X00022652Y00002002D01*
X00022626Y00001992D01*
X00022600Y00001983D01*
X00022573Y00001977D01*
X00022546Y00001972D01*
X00022518Y00001969D01*
X00022491Y00001968D01*
X00012691Y00001968D01*
X00004817Y00007480D02*
X00004817Y00007480D01*
X00004786Y00007481D01*
X00004755Y00007485D01*
X00004725Y00007491D01*
X00004695Y00007499D01*
X00004666Y00007510D01*
X00004638Y00007523D01*
X00004611Y00007538D01*
X00004585Y00007555D01*
X00004561Y00007574D01*
X00004538Y00007595D01*
X00004517Y00007618D01*
X00004498Y00007642D01*
X00004481Y00007668D01*
X00004466Y00007695D01*
X00004453Y00007723D01*
X00004442Y00007752D01*
X00004434Y00007782D01*
X00004428Y00007812D01*
X00004424Y00007843D01*
X00004423Y00007874D01*
X00004423Y00008661D01*
X00004424Y00008692D01*
X00004428Y00008723D01*
X00004434Y00008753D01*
X00004442Y00008783D01*
X00004453Y00008812D01*
X00004466Y00008840D01*
X00004481Y00008867D01*
X00004498Y00008892D01*
X00004517Y00008917D01*
X00004538Y00008939D01*
X00004561Y00008960D01*
X00004585Y00008979D01*
X00004611Y00008997D01*
X00004638Y00009012D01*
X00004666Y00009025D01*
X00004695Y00009035D01*
X00004725Y00009044D01*
X00004755Y00009050D01*
X00004786Y00009053D01*
X00004817Y00009055D01*
X00010930Y00009055D01*
X00010961Y00009053D01*
X00010992Y00009050D01*
X00011022Y00009044D01*
X00011052Y00009035D01*
X00011081Y00009025D01*
X00011109Y00009012D01*
X00011136Y00008997D01*
X00011162Y00008979D01*
X00011186Y00008960D01*
X00011209Y00008939D01*
X00011230Y00008917D01*
X00011249Y00008892D01*
X00011266Y00008867D01*
X00011281Y00008840D01*
X00011294Y00008812D01*
X00011305Y00008783D01*
X00011313Y00008753D01*
X00011319Y00008723D01*
X00011323Y00008692D01*
X00011324Y00008661D01*
X00011324Y00007874D01*
X00011323Y00007843D01*
X00011319Y00007812D01*
X00011313Y00007782D01*
X00011305Y00007752D01*
X00011294Y00007723D01*
X00011281Y00007695D01*
X00011266Y00007668D01*
X00011249Y00007642D01*
X00011230Y00007618D01*
X00011209Y00007595D01*
X00011186Y00007574D01*
X00011162Y00007555D01*
X00011136Y00007538D01*
X00011109Y00007523D01*
X00011081Y00007510D01*
X00011052Y00007499D01*
X00011022Y00007491D01*
X00010992Y00007485D01*
X00010961Y00007481D01*
X00010930Y00007480D01*
X00004817Y00007480D01*
X00004817Y00001968D02*
X00004817Y00001968D01*
X00004786Y00001969D01*
X00004755Y00001973D01*
X00004725Y00001979D01*
X00004695Y00001987D01*
X00004666Y00001998D01*
X00004638Y00002011D01*
X00004611Y00002026D01*
X00004585Y00002043D01*
X00004561Y00002062D01*
X00004538Y00002083D01*
X00004517Y00002106D01*
X00004498Y00002130D01*
X00004481Y00002156D01*
X00004466Y00002183D01*
X00004453Y00002211D01*
X00004442Y00002240D01*
X00004434Y00002270D01*
X00004428Y00002300D01*
X00004424Y00002331D01*
X00004423Y00002362D01*
X00004423Y00003149D01*
X00004424Y00003180D01*
X00004428Y00003211D01*
X00004434Y00003241D01*
X00004442Y00003271D01*
X00004453Y00003300D01*
X00004466Y00003328D01*
X00004481Y00003355D01*
X00004498Y00003381D01*
X00004517Y00003405D01*
X00004538Y00003427D01*
X00004561Y00003448D01*
X00004585Y00003468D01*
X00004611Y00003485D01*
X00004638Y00003500D01*
X00004666Y00003513D01*
X00004695Y00003524D01*
X00004725Y00003532D01*
X00004755Y00003538D01*
X00004786Y00003542D01*
X00004817Y00003543D01*
X00010930Y00003543D01*
X00010961Y00003542D01*
X00010992Y00003538D01*
X00011022Y00003532D01*
X00011052Y00003524D01*
X00011081Y00003513D01*
X00011109Y00003500D01*
X00011136Y00003485D01*
X00011162Y00003468D01*
X00011186Y00003448D01*
X00011209Y00003427D01*
X00011230Y00003405D01*
X00011249Y00003381D01*
X00011266Y00003355D01*
X00011281Y00003328D01*
X00011294Y00003300D01*
X00011305Y00003271D01*
X00011313Y00003241D01*
X00011319Y00003211D01*
X00011323Y00003180D01*
X00011324Y00003149D01*
X00011324Y00002362D01*
X00011323Y00002331D01*
X00011319Y00002300D01*
X00011313Y00002270D01*
X00011305Y00002240D01*
X00011294Y00002211D01*
X00011281Y00002183D01*
X00011266Y00002156D01*
X00011249Y00002130D01*
X00011230Y00002106D01*
X00011209Y00002083D01*
X00011186Y00002062D01*
X00011162Y00002043D01*
X00011136Y00002026D01*
X00011109Y00002011D01*
X00011081Y00001998D01*
X00011052Y00001987D01*
X00011022Y00001979D01*
X00010992Y00001973D01*
X00010961Y00001969D01*
X00010930Y00001968D01*
X00004817Y00001968D01*
X00003056Y00003543D02*
X00003056Y00003543D01*
X00003087Y00003542D01*
X00003118Y00003538D01*
X00003148Y00003532D01*
X00003178Y00003524D01*
X00003207Y00003513D01*
X00003235Y00003500D01*
X00003262Y00003485D01*
X00003288Y00003468D01*
X00003312Y00003448D01*
X00003335Y00003427D01*
X00003356Y00003405D01*
X00003375Y00003381D01*
X00003392Y00003355D01*
X00003407Y00003328D01*
X00003420Y00003300D01*
X00003431Y00003271D01*
X00003439Y00003241D01*
X00003445Y00003211D01*
X00003449Y00003180D01*
X00003450Y00003149D01*
X00003450Y00002362D01*
X00003449Y00002331D01*
X00003445Y00002300D01*
X00003439Y00002270D01*
X00003431Y00002240D01*
X00003420Y00002211D01*
X00003407Y00002183D01*
X00003392Y00002156D01*
X00003375Y00002130D01*
X00003356Y00002106D01*
X00003335Y00002083D01*
X00003312Y00002062D01*
X00003288Y00002043D01*
X00003262Y00002026D01*
X00003235Y00002011D01*
X00003207Y00001998D01*
X00003178Y00001987D01*
X00003148Y00001979D01*
X00003118Y00001973D01*
X00003087Y00001969D01*
X00003056Y00001968D01*
X00000000Y00001968D01*
X00000000Y00000000D01*
X00035433Y00000000D01*
X00035433Y00001968D01*
X00032626Y00001968D01*
X00032599Y00001969D01*
X00032571Y00001972D01*
X00032544Y00001977D01*
X00032517Y00001983D01*
X00032491Y00001992D01*
X00032465Y00002002D01*
X00032441Y00002015D01*
X00032417Y00002028D01*
X00032394Y00002044D01*
X00032372Y00002061D01*
X00032352Y00002080D01*
X00032333Y00002099D01*
X00032315Y00002121D01*
X00032299Y00002143D01*
X00032284Y00002167D01*
X00032272Y00002191D01*
X00032260Y00002216D01*
X00032251Y00002242D01*
X00032244Y00002269D01*
X00032238Y00002296D01*
X00032072Y00003280D01*
X00032068Y00003314D01*
X00032066Y00003348D01*
X00032068Y00003383D01*
X00032073Y00003416D01*
X00032080Y00003450D01*
X00032091Y00003482D01*
X00032104Y00003514D01*
X00032120Y00003544D01*
X00032138Y00003573D01*
X00032159Y00003600D01*
X00032182Y00003625D01*
X00032208Y00003648D01*
X00032235Y00003669D01*
X00032264Y00003687D01*
X00032294Y00003703D01*
X00032326Y00003716D01*
X00032358Y00003726D01*
X00032392Y00003734D01*
X00032426Y00003738D01*
X00032460Y00003740D01*
X00033070Y00003740D01*
X00033070Y00007283D01*
X00032725Y00007283D01*
X00032694Y00007284D01*
X00032663Y00007288D01*
X00032633Y00007294D01*
X00032603Y00007302D01*
X00032574Y00007313D01*
X00032546Y00007326D01*
X00032519Y00007341D01*
X00032493Y00007358D01*
X00032469Y00007377D01*
X00032447Y00007398D01*
X00032426Y00007421D01*
X00032406Y00007445D01*
X00032389Y00007471D01*
X00032374Y00007498D01*
X00032361Y00007526D01*
X00032350Y00007555D01*
X00032342Y00007585D01*
X00032336Y00007615D01*
X00032332Y00007646D01*
X00032331Y00007677D01*
X00032331Y00008858D01*
X00032332Y00008889D01*
X00032336Y00008919D01*
X00032342Y00008950D01*
X00032350Y00008979D01*
X00032361Y00009008D01*
X00032374Y00009037D01*
X00032389Y00009063D01*
X00032406Y00009089D01*
X00032426Y00009113D01*
X00032447Y00009136D01*
X00032469Y00009157D01*
X00032493Y00009176D01*
X00032519Y00009193D01*
X00032546Y00009209D01*
X00032574Y00009221D01*
X00032603Y00009232D01*
X00032633Y00009241D01*
X00032663Y00009247D01*
X00032694Y00009250D01*
X00032725Y00009251D01*
X00033070Y00009251D01*
X00033070Y00012795D01*
X00032460Y00012795D01*
X00032426Y00012796D01*
X00032392Y00012801D01*
X00032358Y00012808D01*
X00032326Y00012818D01*
X00032294Y00012831D01*
X00032264Y00012847D01*
X00032235Y00012865D01*
X00032208Y00012886D01*
X00032182Y00012909D01*
X00032159Y00012934D01*
X00032138Y00012961D01*
X00032120Y00012990D01*
X00032104Y00013020D01*
X00032091Y00013052D01*
X00032080Y00013085D01*
X00032073Y00013118D01*
X00032068Y00013152D01*
X00032066Y00013186D01*
X00032068Y00013220D01*
X00032072Y00013254D01*
X00032238Y00014238D01*
X00032244Y00014265D01*
X00032251Y00014292D01*
X00032260Y00014318D01*
X00032272Y00014343D01*
X00032284Y00014368D01*
X00032299Y00014391D01*
X00032315Y00014414D01*
X00032333Y00014435D01*
X00032352Y00014455D01*
X00032372Y00014473D01*
X00032394Y00014491D01*
X00032417Y00014506D01*
X00032441Y00014520D01*
X00032465Y00014532D01*
X00032491Y00014542D01*
X00032517Y00014551D01*
X00032544Y00014558D01*
X00032571Y00014563D01*
X00032599Y00014565D01*
X00032626Y00014566D01*
X00035433Y00014566D01*
X00035433Y00016535D01*
X00000000Y00016535D01*
X00000000Y00014566D01*
X00003056Y00014566D01*
X00003087Y00014565D01*
X00003118Y00014562D01*
X00003148Y00014556D01*
X00003178Y00014547D01*
X00003207Y00014536D01*
X00003235Y00014524D01*
X00003262Y00014508D01*
X00003288Y00014491D01*
X00003312Y00014472D01*
X00003335Y00014451D01*
X00003356Y00014428D01*
X00003375Y00014404D01*
X00003392Y00014378D01*
X00003407Y00014351D01*
X00003420Y00014323D01*
X00003431Y00014294D01*
X00003439Y00014265D01*
X00003445Y00014234D01*
X00003449Y00014204D01*
X00003450Y00014173D01*
X00003450Y00013385D01*
X00003449Y00013354D01*
X00003445Y00013324D01*
X00003439Y00013293D01*
X00003431Y00013264D01*
X00003420Y00013235D01*
X00003407Y00013207D01*
X00003392Y00013180D01*
X00003375Y00013154D01*
X00003356Y00013130D01*
X00003335Y00013107D01*
X00003312Y00013086D01*
X00003288Y00013067D01*
X00003262Y00013050D01*
X00003235Y00013035D01*
X00003207Y00013022D01*
X00003178Y00013011D01*
X00003148Y00013003D01*
X00003118Y00012996D01*
X00003087Y00012993D01*
X00003056Y00012992D01*
X00000000Y00012992D01*
X00000000Y00009055D01*
X00003056Y00009055D01*
X00003087Y00009053D01*
X00003118Y00009050D01*
X00003148Y00009044D01*
X00003178Y00009035D01*
X00003207Y00009025D01*
X00003235Y00009012D01*
X00003262Y00008997D01*
X00003288Y00008979D01*
X00003312Y00008960D01*
X00003335Y00008939D01*
X00003356Y00008917D01*
X00003375Y00008892D01*
X00003392Y00008867D01*
X00003407Y00008840D01*
X00003420Y00008812D01*
X00003431Y00008783D01*
X00003439Y00008753D01*
X00003445Y00008723D01*
X00003449Y00008692D01*
X00003450Y00008661D01*
X00003450Y00007874D01*
X00003449Y00007843D01*
X00003445Y00007812D01*
X00003439Y00007782D01*
X00003431Y00007752D01*
X00003420Y00007723D01*
X00003407Y00007695D01*
X00003392Y00007668D01*
X00003375Y00007642D01*
X00003356Y00007618D01*
X00003335Y00007595D01*
X00003312Y00007574D01*
X00003288Y00007555D01*
X00003262Y00007538D01*
X00003235Y00007523D01*
X00003207Y00007510D01*
X00003178Y00007499D01*
X00003148Y00007491D01*
X00003118Y00007485D01*
X00003087Y00007481D01*
X00003056Y00007480D01*
X00000000Y00007480D01*
X00000000Y00003543D01*
X00003056Y00003543D01*
M02*