%
M48
METRIC,000.000
T01C0.65
T02C0.99
T03C0.99
T10C0.20
T11C0.30
T12C0.60
T13C1.19
T14C1.70
T15C1.15
%
T01
X006555Y030899
X006555Y025121
X006555Y016899
X006555Y011121
T02
X041564Y026040
X041564Y024008
X041564Y012040
X041564Y010008
X036484Y011024
T03
X036484Y025024
T10
X009400Y027249
X009451Y026500
X010335Y024463
X010711Y028473
X010711Y027523
X011000Y026350
X011005Y025136
X013423Y024475
X013819Y026899
X015290Y028910
X017330Y024679
X020439Y029789
X020550Y025649
X022450Y024450
X022946Y026805
X023360Y031791
X023596Y030063
X023629Y030848
X024681Y032149
X029799Y023650
X035600Y025735
X039649Y026385
X039700Y027249
X040649Y027374
X050124Y032347
X050268Y025570
X052049Y031786
X054533Y031971
X055011Y024689
X073850Y031971
X074800Y031349
X009400Y013249
X009451Y012500
X010335Y010463
X010711Y014473
X010711Y013523
X011000Y012350
X011005Y011136
X013423Y010475
X013819Y012899
X015290Y014910
X017330Y010679
X020439Y015789
X020550Y011649
X022450Y010450
X022946Y012805
X023360Y017791
X023596Y016062
X023629Y016848
X024681Y018149
X029799Y009650
X035600Y011735
X039649Y012385
X039700Y013249
X040649Y013374
X050124Y018347
X050268Y011570
X052049Y017786
X054533Y017971
X055011Y010689
X073850Y017971
X074800Y017349
T11
X004140Y030289
X004140Y029390
X004140Y028489
X004140Y027589
X004140Y026690
X004140Y025789
X005039Y030289
X005039Y029390
X005039Y028489
X005039Y027589
X005039Y026690
X005039Y025789
X005859Y025860
X005910Y030269
X005910Y029411
X006649Y029949
X006710Y026040
X009339Y025700
X009349Y030267
X010200Y030267
X011130Y030396
X012870Y027988
X014068Y030480
X016219Y025441
X016239Y031689
X017830Y028329
X019070Y031669
X019260Y028308
X020210Y031659
X021848Y025100
X022229Y028280
X024500Y024100
X025750Y025700
X025755Y030269
X026850Y032161
X030350Y030300
X030350Y025700
X032073Y024498
X032499Y026551
X035549Y023825
X036298Y030800
X036923Y023950
X037000Y028049
X037899Y030800
X037899Y028100
X038587Y028113
X038971Y031750
X039672Y031750
X039875Y023701
X040355Y031750
X042575Y031450
X043314Y029035
X043400Y027325
X046751Y029530
X049499Y025999
X050639Y024160
X050860Y025100
X054061Y024719
X054899Y030831
X054899Y030069
X055699Y030831
X055699Y030069
X056499Y030831
X056499Y030069
X056949Y027699
X057299Y030831
X057299Y030069
X060299Y027826
X060649Y026225
X062262Y024100
X062300Y027950
X066448Y024600
X067200Y024600
X067949Y024600
X068699Y024600
X075199Y025601
X076504Y028849
X004140Y016289
X004140Y015390
X004140Y014489
X004140Y013589
X004140Y012690
X004140Y011789
X005039Y016289
X005039Y015390
X005039Y014489
X005039Y013589
X005039Y012690
X005039Y011789
X005859Y011860
X005910Y016268
X005910Y015411
X006649Y015949
X006710Y012040
X009339Y011700
X009349Y016267
X010200Y016267
X011130Y016396
X012870Y013988
X014068Y016480
X016219Y011441
X016239Y017689
X017830Y014329
X019070Y017669
X019260Y014308
X020210Y017659
X021848Y011100
X022229Y014280
X024500Y010100
X025750Y011700
X025755Y016268
X026850Y018161
X030350Y016300
X030350Y011700
X032073Y010498
X032499Y012551
X035549Y009825
X036298Y016800
X036923Y009950
X037000Y014049
X037899Y016800
X037899Y014100
X038587Y014113
X038971Y017750
X039672Y017750
X039875Y009701
X040355Y017750
X042575Y017450
X043314Y015035
X043400Y013325
X046751Y015530
X049499Y011999
X050639Y010160
X050860Y011100
X054061Y010719
X054899Y016831
X054899Y016068
X055699Y016831
X055699Y016068
X056499Y016831
X056499Y016068
X056949Y013699
X057299Y016831
X057299Y016068
X060299Y013826
X060649Y012225
X062262Y010100
X062300Y013950
X066448Y010600
X067200Y010600
X067949Y010600
X068699Y010600
X075199Y011601
X076504Y014849
T12
X002605Y032329G85X003205Y032329
X002605Y023691G85X003205Y023691
X006535Y032329G85X007635Y032329
X006535Y023691G85X007635Y023691
X002605Y018329G85X003205Y018329
X002605Y009691G85X003205Y009691
X006535Y018329G85X007635Y018329
X006535Y009691G85X007635Y009691
T13
X072001Y030399
X072001Y025601
X072001Y016399
X072001Y011601
T14
X081000Y027998
X081000Y013998
T15
X002499Y002500
X087500Y039499
M30