G04 #@! TF.GenerationSoftware,KiCad,Pcbnew,5.1.4+dfsg1-1*
G04 #@! TF.CreationDate,2020-04-13T22:05:46+02:00*
G04 #@! TF.ProjectId,OtterIron_PRO_Bot,4f747465-7249-4726-9f6e-5f50524f5f42,rev?*
G04 #@! TF.SameCoordinates,Original*
G04 #@! TF.FileFunction,Soldermask,Top*
G04 #@! TF.FilePolarity,Negative*
%FSLAX46Y46*%
G04 Gerber Fmt 4.6, Leading zero omitted, Abs format (unit mm)*
G04 Created by KiCad (PCBNEW 5.1.4+dfsg1-1) date 2020-04-13 22:05:46*
%MOMM*%
%LPD*%
G04 APERTURE LIST*
%ADD10O,1.350000X1.350000*%
%ADD11R,1.350000X1.350000*%
%ADD12R,0.300000X1.475000*%
%ADD13R,1.475000X0.300000*%
%ADD14R,1.600000X5.900000*%
%ADD15O,1.700000X1.700000*%
%ADD16R,1.700000X1.700000*%
%ADD17R,0.650000X1.060000*%
%ADD18R,0.900000X0.800000*%
%ADD19C,1.000000*%
%ADD20C,0.100000*%
%ADD21R,2.200000X1.840000*%
%ADD22R,1.000000X1.500000*%
%ADD23R,1.000000X1.800000*%
%ADD24C,0.850000*%
%ADD25R,0.500000X0.600000*%
%ADD26R,0.700000X1.300000*%
%ADD27R,0.600000X0.500000*%
%ADD28R,0.900000X0.600000*%
%ADD29R,0.800000X0.900000*%
%ADD30R,0.700000X0.420000*%
%ADD31C,1.710000*%
%ADD32C,0.985520*%
%ADD33C,0.988060*%
%ADD34R,1.100000X1.100000*%
%ADD35C,2.000000*%
%ADD36R,2.000000X2.000000*%
%ADD37R,0.600000X0.900000*%
G04 APERTURE END LIST*
D10*
X96900000Y-119000000D03*
X96900000Y-117000000D03*
X96900000Y-115000000D03*
X96900000Y-113000000D03*
X96900000Y-111000000D03*
X96900000Y-109000000D03*
X96900000Y-107000000D03*
X96900000Y-105000000D03*
X96900000Y-103000000D03*
D11*
X96900000Y-101000000D03*
D12*
X85750000Y-117962500D03*
X85250000Y-117962500D03*
X84750000Y-117962500D03*
X84250000Y-117962500D03*
X83750000Y-117962500D03*
X83250000Y-117962500D03*
X82750000Y-117962500D03*
X82250000Y-117962500D03*
X81750000Y-117962500D03*
X81250000Y-117962500D03*
X80750000Y-117962500D03*
X80250000Y-117962500D03*
D13*
X78837500Y-116550000D03*
X78837500Y-116050000D03*
X78837500Y-115550000D03*
X78837500Y-115050000D03*
X78837500Y-114550000D03*
X78837500Y-114050000D03*
X78837500Y-113550000D03*
X78837500Y-113050000D03*
X78837500Y-112550000D03*
X78837500Y-112050000D03*
X78837500Y-111550000D03*
X78837500Y-111050000D03*
D12*
X80250000Y-109637500D03*
X80750000Y-109637500D03*
X81250000Y-109637500D03*
X81750000Y-109637500D03*
X82250000Y-109637500D03*
X82750000Y-109637500D03*
X83250000Y-109637500D03*
X83750000Y-109637500D03*
X84250000Y-109637500D03*
X84750000Y-109637500D03*
X85250000Y-109637500D03*
X85750000Y-109637500D03*
D13*
X87162500Y-111050000D03*
X87162500Y-111550000D03*
X87162500Y-112050000D03*
X87162500Y-112550000D03*
X87162500Y-113050000D03*
X87162500Y-113550000D03*
X87162500Y-114050000D03*
X87162500Y-114550000D03*
X87162500Y-115050000D03*
X87162500Y-115550000D03*
X87162500Y-116050000D03*
X87162500Y-116550000D03*
D14*
X58650000Y-110800000D03*
X63350000Y-110800000D03*
D15*
X54100000Y-106180000D03*
X54100000Y-108720000D03*
X54100000Y-111260000D03*
D16*
X54100000Y-113800000D03*
D17*
X91250000Y-106600000D03*
X93150000Y-106600000D03*
X93150000Y-108800000D03*
X92200000Y-108800000D03*
X91250000Y-108800000D03*
D18*
X89000000Y-107700000D03*
X87000000Y-108650000D03*
X87000000Y-106750000D03*
D17*
X58150000Y-118700000D03*
X56250000Y-118700000D03*
X56250000Y-116500000D03*
X57200000Y-116500000D03*
X58150000Y-116500000D03*
D19*
X92300000Y-115823800D03*
D20*
G36*
X91200000Y-116323800D02*
G01*
X91900000Y-115323800D01*
X92700000Y-115323800D01*
X93400000Y-116323800D01*
X91200000Y-116323800D01*
X91200000Y-116323800D01*
G37*
D21*
X92300000Y-117233500D03*
D22*
X90800000Y-114420000D03*
D23*
X92300000Y-114566500D03*
D22*
X93800000Y-114420000D03*
D24*
X92300000Y-118567000D03*
D20*
G36*
X93400000Y-118142000D02*
G01*
X92800000Y-118992000D01*
X91800000Y-118992000D01*
X91200000Y-118142000D01*
X93400000Y-118142000D01*
X93400000Y-118142000D01*
G37*
D25*
X69000711Y-113756497D03*
X69940711Y-113756497D03*
D26*
X91350000Y-103000000D03*
X93250000Y-103000000D03*
D27*
X91800000Y-104330000D03*
X91800000Y-105270000D03*
X92800000Y-105270000D03*
X92800000Y-104330000D03*
D28*
X66400000Y-110250000D03*
X66400000Y-111750000D03*
D27*
X84800000Y-107030000D03*
X84800000Y-107970000D03*
D25*
X54870000Y-116400000D03*
X53930000Y-116400000D03*
X53070000Y-117400000D03*
X52130000Y-117400000D03*
D27*
X59600000Y-116530000D03*
X59600000Y-117470000D03*
D25*
X62470000Y-116600000D03*
X61530000Y-116600000D03*
X69940711Y-114887868D03*
X69000711Y-114887868D03*
X74730000Y-110700000D03*
X75670000Y-110700000D03*
X92730000Y-110100000D03*
X93670000Y-110100000D03*
D27*
X78600000Y-109130000D03*
X78600000Y-110070000D03*
X88800000Y-115970000D03*
X88800000Y-115030000D03*
D25*
X90170000Y-110400000D03*
X89230000Y-110400000D03*
D27*
X89700000Y-106170000D03*
X89700000Y-105230000D03*
D29*
X69000000Y-112400000D03*
X68050000Y-110400000D03*
X69950000Y-110400000D03*
X66400000Y-115200000D03*
X65450000Y-113200000D03*
X67350000Y-113200000D03*
D30*
X64300000Y-106375000D03*
X64300000Y-105075000D03*
X64300000Y-105725000D03*
X64300000Y-104425000D03*
D31*
X62345000Y-105400000D03*
D20*
G36*
X60950000Y-106165000D02*
G01*
X61490000Y-106165000D01*
X61490000Y-105935000D01*
X60950000Y-105935000D01*
X60950000Y-105515000D01*
X61490000Y-105515000D01*
X61490000Y-105285000D01*
X60950000Y-105285000D01*
X60950000Y-104865000D01*
X61490000Y-104865000D01*
X61490000Y-104635000D01*
X60950000Y-104635000D01*
X60950000Y-104215000D01*
X63200000Y-104215000D01*
X63200000Y-106585000D01*
X60950000Y-106585000D01*
X60950000Y-106165000D01*
X60950000Y-106165000D01*
G37*
D29*
X72600000Y-112400000D03*
X71650000Y-110400000D03*
X73550000Y-110400000D03*
D32*
X72660000Y-119016000D03*
X72660000Y-116984000D03*
D33*
X77740000Y-118000000D03*
D34*
X57000000Y-106200000D03*
X59800000Y-106200000D03*
D35*
X66400000Y-102600000D03*
D36*
X66400000Y-107600000D03*
D27*
X89800000Y-112970000D03*
X89800000Y-112030000D03*
D25*
X88470000Y-105500000D03*
X87530000Y-105500000D03*
X53070000Y-116400000D03*
X52130000Y-116400000D03*
D27*
X60600000Y-116530000D03*
X60600000Y-117470000D03*
D37*
X81350000Y-108000000D03*
X79850000Y-108000000D03*
D25*
X85330000Y-119400000D03*
X86270000Y-119400000D03*
D28*
X76000000Y-115450000D03*
X76000000Y-116950000D03*
D27*
X59600000Y-118330000D03*
X59600000Y-119270000D03*
X77200000Y-115930000D03*
X77200000Y-116870000D03*
X88800000Y-113470000D03*
X88800000Y-112530000D03*
D37*
X92250000Y-112700000D03*
X90750000Y-112700000D03*
D25*
X87430000Y-110000000D03*
X88370000Y-110000000D03*
D37*
X93150000Y-112700000D03*
X94650000Y-112700000D03*
M02*
