G04 #@! TF.GenerationSoftware,KiCad,Pcbnew,5.1.4+dfsg1-1*
G04 #@! TF.CreationDate,2020-04-13T22:05:46+02:00*
G04 #@! TF.ProjectId,OtterIron_PRO_Bot,4f747465-7249-4726-9f6e-5f50524f5f42,rev?*
G04 #@! TF.SameCoordinates,Original*
G04 #@! TF.FileFunction,Copper,L2,Bot*
G04 #@! TF.FilePolarity,Positive*
%FSLAX46Y46*%
G04 Gerber Fmt 4.6, Leading zero omitted, Abs format (unit mm)*
G04 Created by KiCad (PCBNEW 5.1.4+dfsg1-1) date 2020-04-13 22:05:46*
%MOMM*%
%LPD*%
G04 APERTURE LIST*
%ADD10O,1.350000X1.350000*%
%ADD11R,1.350000X1.350000*%
%ADD12O,1.700000X1.700000*%
%ADD13R,1.700000X1.700000*%
%ADD14C,0.784860*%
%ADD15C,2.000000*%
%ADD16R,2.000000X2.000000*%
%ADD17C,0.700000*%
%ADD18C,0.154000*%
%ADD19C,0.254000*%
G04 APERTURE END LIST*
D10*
X96900000Y-119000000D03*
X96900000Y-117000000D03*
X96900000Y-115000000D03*
X96900000Y-113000000D03*
X96900000Y-111000000D03*
X96900000Y-109000000D03*
X96900000Y-107000000D03*
X96900000Y-105000000D03*
X96900000Y-103000000D03*
D11*
X96900000Y-101000000D03*
D12*
X54100000Y-106180000D03*
X54100000Y-108720000D03*
X54100000Y-111260000D03*
D13*
X54100000Y-113800000D03*
D14*
X73930000Y-117365000D03*
X73930000Y-118635000D03*
X75200000Y-117365000D03*
X75200000Y-118635000D03*
X76470000Y-117365000D03*
X76470000Y-118635000D03*
D15*
X66400000Y-102600000D03*
D16*
X66400000Y-107600000D03*
D17*
X92300000Y-117600000D03*
X92300000Y-116700000D03*
X92300000Y-115100000D03*
X92300000Y-114100000D03*
X56300000Y-117600000D03*
X55200000Y-117600000D03*
X57200000Y-118700000D03*
X86700000Y-118100000D03*
X87600000Y-119100000D03*
X84700000Y-119300000D03*
X80400000Y-119500000D03*
X53300000Y-118700000D03*
X62100000Y-118300000D03*
X60800000Y-118300000D03*
X70025000Y-112025000D03*
X70875000Y-111175000D03*
X91200000Y-110200000D03*
X89700000Y-114100000D03*
X88750000Y-114250000D03*
X89250000Y-117450000D03*
X90700000Y-119050000D03*
X94300000Y-118250000D03*
X95350000Y-114850000D03*
X95650000Y-119250000D03*
X94900000Y-109750000D03*
X94800000Y-107050000D03*
X92700000Y-107700000D03*
X90500000Y-107750000D03*
X89250000Y-108950000D03*
X87900000Y-107650000D03*
X86600000Y-109800000D03*
X84600000Y-112100000D03*
X81150000Y-112200000D03*
X81100000Y-115350000D03*
X85600000Y-114700000D03*
X82350000Y-107950000D03*
X83650000Y-107100000D03*
X79450000Y-109600000D03*
X77200000Y-110300000D03*
X75500000Y-113450000D03*
X74850000Y-115000000D03*
X72250000Y-114750000D03*
X69150000Y-117450000D03*
X65900000Y-117500000D03*
X62400000Y-115400000D03*
X60700000Y-115500000D03*
X50950000Y-116200000D03*
X51000000Y-119250000D03*
X70700000Y-118950000D03*
X79200000Y-119500000D03*
X94500000Y-104800000D03*
X89700000Y-104400000D03*
X79200000Y-117500000D03*
X76364124Y-113935876D03*
X77035876Y-113264124D03*
X82600000Y-119600000D03*
X74600000Y-116600000D03*
X77000000Y-115175998D03*
X86600000Y-105700000D03*
X64800000Y-118400000D03*
X82100002Y-115600000D03*
X84900000Y-115900000D03*
X83831010Y-119200000D03*
X85700000Y-108300000D03*
D18*
X94500000Y-104800000D02*
X90100000Y-104800000D01*
X90100000Y-104800000D02*
X89700000Y-104400000D01*
X76862429Y-119027429D02*
X78072571Y-119027429D01*
X76470000Y-118635000D02*
X76862429Y-119027429D01*
X78072571Y-119027429D02*
X79200000Y-117900000D01*
X79200000Y-117900000D02*
X79200000Y-117500000D01*
X76364124Y-112150204D02*
X77514328Y-111000000D01*
X95304000Y-111000000D02*
X96900000Y-111000000D01*
X77514328Y-111000000D02*
X95304000Y-111000000D01*
X76364124Y-113935876D02*
X76364124Y-112150204D01*
X77681672Y-111404000D02*
X95304000Y-111404000D01*
X76768124Y-112317548D02*
X77681672Y-111404000D01*
X95304000Y-111404000D02*
X96900000Y-113000000D01*
X77035876Y-113264124D02*
X76768124Y-112996372D01*
X76768124Y-112996372D02*
X76768124Y-112317548D01*
X96225001Y-117674999D02*
X96900000Y-117000000D01*
X94018999Y-119881001D02*
X96225001Y-117674999D01*
X83652129Y-119881001D02*
X94018999Y-119881001D01*
X82600000Y-119600000D02*
X83371128Y-119600000D01*
X83371128Y-119600000D02*
X83652129Y-119881001D01*
X75200000Y-117365000D02*
X74600000Y-116765000D01*
X74600000Y-116765000D02*
X74600000Y-116600000D01*
X76470000Y-117365000D02*
X76470000Y-115705998D01*
X76470000Y-115705998D02*
X77000000Y-115175998D01*
X96200000Y-105700000D02*
X96900000Y-105000000D01*
X86600000Y-105700000D02*
X96200000Y-105700000D01*
X81750003Y-115949999D02*
X82100002Y-115600000D01*
X77700000Y-119900000D02*
X77800002Y-119900000D01*
X77800002Y-119900000D02*
X81750003Y-115949999D01*
X65149999Y-118749999D02*
X64800000Y-118400000D01*
X77800000Y-119900000D02*
X66300000Y-119900000D01*
X66300000Y-119900000D02*
X65149999Y-118749999D01*
X83831010Y-119200000D02*
X83831010Y-116968990D01*
X84550001Y-116249999D02*
X84900000Y-115900000D01*
X83831010Y-116968990D02*
X84550001Y-116249999D01*
X96225001Y-115674999D02*
X96900000Y-115000000D01*
X84900000Y-115900000D02*
X96000000Y-115900000D01*
X96000000Y-115900000D02*
X96225001Y-115674999D01*
X96200000Y-106300000D02*
X96900000Y-107000000D01*
X87300000Y-106300000D02*
X96200000Y-106300000D01*
X85700000Y-108300000D02*
X85700000Y-107900000D01*
X85700000Y-107900000D02*
X87300000Y-106300000D01*
D19*
G36*
X97773000Y-102605254D02*
G01*
X97698730Y-102466305D01*
X97579264Y-102320736D01*
X97433695Y-102201270D01*
X97267615Y-102112498D01*
X97087409Y-102057833D01*
X96946959Y-102044000D01*
X96853041Y-102044000D01*
X96712591Y-102057833D01*
X96532385Y-102112498D01*
X96366305Y-102201270D01*
X96220736Y-102320736D01*
X96101270Y-102466305D01*
X96012498Y-102632385D01*
X95957833Y-102812591D01*
X95939375Y-103000000D01*
X95957833Y-103187409D01*
X96012498Y-103367615D01*
X96101270Y-103533695D01*
X96220736Y-103679264D01*
X96366305Y-103798730D01*
X96505254Y-103873000D01*
X90047059Y-103873000D01*
X89998891Y-103840815D01*
X89884056Y-103793249D01*
X89762148Y-103769000D01*
X89637852Y-103769000D01*
X89515944Y-103793249D01*
X89401109Y-103840815D01*
X89352941Y-103873000D01*
X88500000Y-103873000D01*
X88475224Y-103875440D01*
X88451399Y-103882667D01*
X88429443Y-103894403D01*
X88410197Y-103910197D01*
X87447394Y-104873000D01*
X79900000Y-104873000D01*
X79875224Y-104875440D01*
X79851399Y-104882667D01*
X79829443Y-104894403D01*
X79810197Y-104910197D01*
X74810197Y-109910197D01*
X74794403Y-109929443D01*
X74782667Y-109951399D01*
X74775440Y-109975224D01*
X74773000Y-110000000D01*
X74773000Y-112447394D01*
X73947394Y-113273000D01*
X71500000Y-113273000D01*
X71475224Y-113275440D01*
X71451399Y-113282667D01*
X71429443Y-113294403D01*
X71410197Y-113310197D01*
X70610197Y-114110197D01*
X70594403Y-114129443D01*
X70582667Y-114151399D01*
X70575440Y-114175224D01*
X70573000Y-114200000D01*
X70573000Y-115147394D01*
X69647394Y-116073000D01*
X64752606Y-116073000D01*
X62989803Y-114310197D01*
X62970557Y-114294403D01*
X62948601Y-114282667D01*
X62924776Y-114275440D01*
X62900000Y-114273000D01*
X60500000Y-114273000D01*
X60475224Y-114275440D01*
X60451399Y-114282667D01*
X60429443Y-114294403D01*
X60410197Y-114310197D01*
X59647394Y-115073000D01*
X53227000Y-115073000D01*
X53227000Y-114930094D01*
X53250000Y-114932359D01*
X54950000Y-114932359D01*
X55005086Y-114926934D01*
X55058054Y-114910866D01*
X55106870Y-114884773D01*
X55149658Y-114849658D01*
X55184773Y-114806870D01*
X55210866Y-114758054D01*
X55226934Y-114705086D01*
X55232359Y-114650000D01*
X55232359Y-112950000D01*
X55226934Y-112894914D01*
X55210866Y-112841946D01*
X55184773Y-112793130D01*
X55149658Y-112750342D01*
X55106870Y-112715227D01*
X55058054Y-112689134D01*
X55005086Y-112673066D01*
X54950000Y-112667641D01*
X53250000Y-112667641D01*
X53227000Y-112669906D01*
X53227000Y-111979051D01*
X53296393Y-112063607D01*
X53468610Y-112204942D01*
X53665091Y-112309963D01*
X53878285Y-112374635D01*
X54044442Y-112391000D01*
X54155558Y-112391000D01*
X54321715Y-112374635D01*
X54534909Y-112309963D01*
X54731390Y-112204942D01*
X54903607Y-112063607D01*
X55044942Y-111891390D01*
X55149963Y-111694909D01*
X55214635Y-111481715D01*
X55236472Y-111260000D01*
X55214635Y-111038285D01*
X55149963Y-110825091D01*
X55044942Y-110628610D01*
X54903607Y-110456393D01*
X54731390Y-110315058D01*
X54534909Y-110210037D01*
X54321715Y-110145365D01*
X54155558Y-110129000D01*
X54044442Y-110129000D01*
X53878285Y-110145365D01*
X53665091Y-110210037D01*
X53468610Y-110315058D01*
X53296393Y-110456393D01*
X53227000Y-110540949D01*
X53227000Y-109439051D01*
X53296393Y-109523607D01*
X53468610Y-109664942D01*
X53665091Y-109769963D01*
X53878285Y-109834635D01*
X54044442Y-109851000D01*
X54155558Y-109851000D01*
X54321715Y-109834635D01*
X54534909Y-109769963D01*
X54731390Y-109664942D01*
X54903607Y-109523607D01*
X55044942Y-109351390D01*
X55149963Y-109154909D01*
X55214635Y-108941715D01*
X55236472Y-108720000D01*
X55214635Y-108498285D01*
X55149963Y-108285091D01*
X55044942Y-108088610D01*
X54903607Y-107916393D01*
X54731390Y-107775058D01*
X54534909Y-107670037D01*
X54321715Y-107605365D01*
X54155558Y-107589000D01*
X54044442Y-107589000D01*
X53878285Y-107605365D01*
X53665091Y-107670037D01*
X53468610Y-107775058D01*
X53296393Y-107916393D01*
X53227000Y-108000949D01*
X53227000Y-106600000D01*
X65117641Y-106600000D01*
X65117641Y-108600000D01*
X65123066Y-108655086D01*
X65139134Y-108708054D01*
X65165227Y-108756870D01*
X65200342Y-108799658D01*
X65243130Y-108834773D01*
X65291946Y-108860866D01*
X65344914Y-108876934D01*
X65400000Y-108882359D01*
X67400000Y-108882359D01*
X67455086Y-108876934D01*
X67508054Y-108860866D01*
X67556870Y-108834773D01*
X67599658Y-108799658D01*
X67634773Y-108756870D01*
X67660866Y-108708054D01*
X67676934Y-108655086D01*
X67682359Y-108600000D01*
X67682359Y-106600000D01*
X67676934Y-106544914D01*
X67660866Y-106491946D01*
X67634773Y-106443130D01*
X67599658Y-106400342D01*
X67556870Y-106365227D01*
X67508054Y-106339134D01*
X67455086Y-106323066D01*
X67400000Y-106317641D01*
X65400000Y-106317641D01*
X65344914Y-106323066D01*
X65291946Y-106339134D01*
X65243130Y-106365227D01*
X65200342Y-106400342D01*
X65165227Y-106443130D01*
X65139134Y-106491946D01*
X65123066Y-106544914D01*
X65117641Y-106600000D01*
X53227000Y-106600000D01*
X53227000Y-99952000D01*
X97773000Y-99952000D01*
X97773000Y-102605254D01*
X97773000Y-102605254D01*
G37*
X97773000Y-102605254D02*
X97698730Y-102466305D01*
X97579264Y-102320736D01*
X97433695Y-102201270D01*
X97267615Y-102112498D01*
X97087409Y-102057833D01*
X96946959Y-102044000D01*
X96853041Y-102044000D01*
X96712591Y-102057833D01*
X96532385Y-102112498D01*
X96366305Y-102201270D01*
X96220736Y-102320736D01*
X96101270Y-102466305D01*
X96012498Y-102632385D01*
X95957833Y-102812591D01*
X95939375Y-103000000D01*
X95957833Y-103187409D01*
X96012498Y-103367615D01*
X96101270Y-103533695D01*
X96220736Y-103679264D01*
X96366305Y-103798730D01*
X96505254Y-103873000D01*
X90047059Y-103873000D01*
X89998891Y-103840815D01*
X89884056Y-103793249D01*
X89762148Y-103769000D01*
X89637852Y-103769000D01*
X89515944Y-103793249D01*
X89401109Y-103840815D01*
X89352941Y-103873000D01*
X88500000Y-103873000D01*
X88475224Y-103875440D01*
X88451399Y-103882667D01*
X88429443Y-103894403D01*
X88410197Y-103910197D01*
X87447394Y-104873000D01*
X79900000Y-104873000D01*
X79875224Y-104875440D01*
X79851399Y-104882667D01*
X79829443Y-104894403D01*
X79810197Y-104910197D01*
X74810197Y-109910197D01*
X74794403Y-109929443D01*
X74782667Y-109951399D01*
X74775440Y-109975224D01*
X74773000Y-110000000D01*
X74773000Y-112447394D01*
X73947394Y-113273000D01*
X71500000Y-113273000D01*
X71475224Y-113275440D01*
X71451399Y-113282667D01*
X71429443Y-113294403D01*
X71410197Y-113310197D01*
X70610197Y-114110197D01*
X70594403Y-114129443D01*
X70582667Y-114151399D01*
X70575440Y-114175224D01*
X70573000Y-114200000D01*
X70573000Y-115147394D01*
X69647394Y-116073000D01*
X64752606Y-116073000D01*
X62989803Y-114310197D01*
X62970557Y-114294403D01*
X62948601Y-114282667D01*
X62924776Y-114275440D01*
X62900000Y-114273000D01*
X60500000Y-114273000D01*
X60475224Y-114275440D01*
X60451399Y-114282667D01*
X60429443Y-114294403D01*
X60410197Y-114310197D01*
X59647394Y-115073000D01*
X53227000Y-115073000D01*
X53227000Y-114930094D01*
X53250000Y-114932359D01*
X54950000Y-114932359D01*
X55005086Y-114926934D01*
X55058054Y-114910866D01*
X55106870Y-114884773D01*
X55149658Y-114849658D01*
X55184773Y-114806870D01*
X55210866Y-114758054D01*
X55226934Y-114705086D01*
X55232359Y-114650000D01*
X55232359Y-112950000D01*
X55226934Y-112894914D01*
X55210866Y-112841946D01*
X55184773Y-112793130D01*
X55149658Y-112750342D01*
X55106870Y-112715227D01*
X55058054Y-112689134D01*
X55005086Y-112673066D01*
X54950000Y-112667641D01*
X53250000Y-112667641D01*
X53227000Y-112669906D01*
X53227000Y-111979051D01*
X53296393Y-112063607D01*
X53468610Y-112204942D01*
X53665091Y-112309963D01*
X53878285Y-112374635D01*
X54044442Y-112391000D01*
X54155558Y-112391000D01*
X54321715Y-112374635D01*
X54534909Y-112309963D01*
X54731390Y-112204942D01*
X54903607Y-112063607D01*
X55044942Y-111891390D01*
X55149963Y-111694909D01*
X55214635Y-111481715D01*
X55236472Y-111260000D01*
X55214635Y-111038285D01*
X55149963Y-110825091D01*
X55044942Y-110628610D01*
X54903607Y-110456393D01*
X54731390Y-110315058D01*
X54534909Y-110210037D01*
X54321715Y-110145365D01*
X54155558Y-110129000D01*
X54044442Y-110129000D01*
X53878285Y-110145365D01*
X53665091Y-110210037D01*
X53468610Y-110315058D01*
X53296393Y-110456393D01*
X53227000Y-110540949D01*
X53227000Y-109439051D01*
X53296393Y-109523607D01*
X53468610Y-109664942D01*
X53665091Y-109769963D01*
X53878285Y-109834635D01*
X54044442Y-109851000D01*
X54155558Y-109851000D01*
X54321715Y-109834635D01*
X54534909Y-109769963D01*
X54731390Y-109664942D01*
X54903607Y-109523607D01*
X55044942Y-109351390D01*
X55149963Y-109154909D01*
X55214635Y-108941715D01*
X55236472Y-108720000D01*
X55214635Y-108498285D01*
X55149963Y-108285091D01*
X55044942Y-108088610D01*
X54903607Y-107916393D01*
X54731390Y-107775058D01*
X54534909Y-107670037D01*
X54321715Y-107605365D01*
X54155558Y-107589000D01*
X54044442Y-107589000D01*
X53878285Y-107605365D01*
X53665091Y-107670037D01*
X53468610Y-107775058D01*
X53296393Y-107916393D01*
X53227000Y-108000949D01*
X53227000Y-106600000D01*
X65117641Y-106600000D01*
X65117641Y-108600000D01*
X65123066Y-108655086D01*
X65139134Y-108708054D01*
X65165227Y-108756870D01*
X65200342Y-108799658D01*
X65243130Y-108834773D01*
X65291946Y-108860866D01*
X65344914Y-108876934D01*
X65400000Y-108882359D01*
X67400000Y-108882359D01*
X67455086Y-108876934D01*
X67508054Y-108860866D01*
X67556870Y-108834773D01*
X67599658Y-108799658D01*
X67634773Y-108756870D01*
X67660866Y-108708054D01*
X67676934Y-108655086D01*
X67682359Y-108600000D01*
X67682359Y-106600000D01*
X67676934Y-106544914D01*
X67660866Y-106491946D01*
X67634773Y-106443130D01*
X67599658Y-106400342D01*
X67556870Y-106365227D01*
X67508054Y-106339134D01*
X67455086Y-106323066D01*
X67400000Y-106317641D01*
X65400000Y-106317641D01*
X65344914Y-106323066D01*
X65291946Y-106339134D01*
X65243130Y-106365227D01*
X65200342Y-106400342D01*
X65165227Y-106443130D01*
X65139134Y-106491946D01*
X65123066Y-106544914D01*
X65117641Y-106600000D01*
X53227000Y-106600000D01*
X53227000Y-99952000D01*
X97773000Y-99952000D01*
X97773000Y-102605254D01*
G36*
X97773000Y-103873000D02*
G01*
X97294746Y-103873000D01*
X97433695Y-103798730D01*
X97579264Y-103679264D01*
X97698730Y-103533695D01*
X97773000Y-103394746D01*
X97773000Y-103873000D01*
X97773000Y-103873000D01*
G37*
X97773000Y-103873000D02*
X97294746Y-103873000D01*
X97433695Y-103798730D01*
X97579264Y-103679264D01*
X97698730Y-103533695D01*
X97773000Y-103394746D01*
X97773000Y-103873000D01*
G36*
X99798000Y-120048000D02*
G01*
X94358288Y-120048000D01*
X95406288Y-119000000D01*
X95939375Y-119000000D01*
X95957833Y-119187409D01*
X96012498Y-119367615D01*
X96101270Y-119533695D01*
X96220736Y-119679264D01*
X96366305Y-119798730D01*
X96532385Y-119887502D01*
X96712591Y-119942167D01*
X96853041Y-119956000D01*
X96946959Y-119956000D01*
X97087409Y-119942167D01*
X97267615Y-119887502D01*
X97433695Y-119798730D01*
X97579264Y-119679264D01*
X97698730Y-119533695D01*
X97787502Y-119367615D01*
X97842167Y-119187409D01*
X97860625Y-119000000D01*
X97842167Y-118812591D01*
X97787502Y-118632385D01*
X97698730Y-118466305D01*
X97579264Y-118320736D01*
X97433695Y-118201270D01*
X97267615Y-118112498D01*
X97087409Y-118057833D01*
X96946959Y-118044000D01*
X96853041Y-118044000D01*
X96712591Y-118057833D01*
X96532385Y-118112498D01*
X96366305Y-118201270D01*
X96220736Y-118320736D01*
X96101270Y-118466305D01*
X96012498Y-118632385D01*
X95957833Y-118812591D01*
X95939375Y-119000000D01*
X95406288Y-119000000D01*
X96490580Y-117915709D01*
X96490585Y-117915703D01*
X96523523Y-117882765D01*
X96532385Y-117887502D01*
X96712591Y-117942167D01*
X96853041Y-117956000D01*
X96946959Y-117956000D01*
X97087409Y-117942167D01*
X97267615Y-117887502D01*
X97433695Y-117798730D01*
X97579264Y-117679264D01*
X97698730Y-117533695D01*
X97787502Y-117367615D01*
X97842167Y-117187409D01*
X97860625Y-117000000D01*
X97842167Y-116812591D01*
X97787502Y-116632385D01*
X97698730Y-116466305D01*
X97579264Y-116320736D01*
X97433695Y-116201270D01*
X97267615Y-116112498D01*
X97087409Y-116057833D01*
X96946959Y-116044000D01*
X96853041Y-116044000D01*
X96712591Y-116057833D01*
X96532385Y-116112498D01*
X96366305Y-116201270D01*
X96220736Y-116320736D01*
X96101270Y-116466305D01*
X96012498Y-116632385D01*
X95957833Y-116812591D01*
X95939375Y-117000000D01*
X95957833Y-117187409D01*
X96012498Y-117367615D01*
X96017235Y-117376477D01*
X95984297Y-117409415D01*
X95984291Y-117409420D01*
X93870711Y-119523001D01*
X84374085Y-119523001D01*
X84390195Y-119498891D01*
X84437761Y-119384056D01*
X84462010Y-119262148D01*
X84462010Y-119137852D01*
X84437761Y-119015944D01*
X84390195Y-118901109D01*
X84321140Y-118797761D01*
X84233249Y-118709870D01*
X84189010Y-118680310D01*
X84189010Y-117117278D01*
X84785668Y-116520620D01*
X84837852Y-116531000D01*
X84962148Y-116531000D01*
X85084056Y-116506751D01*
X85198891Y-116459185D01*
X85302239Y-116390130D01*
X85390130Y-116302239D01*
X85419690Y-116258000D01*
X95982417Y-116258000D01*
X96000000Y-116259732D01*
X96017583Y-116258000D01*
X96017586Y-116258000D01*
X96070180Y-116252820D01*
X96137663Y-116232349D01*
X96199856Y-116199106D01*
X96254369Y-116154369D01*
X96265581Y-116140707D01*
X96523523Y-115882765D01*
X96532385Y-115887502D01*
X96712591Y-115942167D01*
X96853041Y-115956000D01*
X96946959Y-115956000D01*
X97087409Y-115942167D01*
X97267615Y-115887502D01*
X97433695Y-115798730D01*
X97579264Y-115679264D01*
X97698730Y-115533695D01*
X97787502Y-115367615D01*
X97842167Y-115187409D01*
X97860625Y-115000000D01*
X97842167Y-114812591D01*
X97787502Y-114632385D01*
X97698730Y-114466305D01*
X97579264Y-114320736D01*
X97433695Y-114201270D01*
X97267615Y-114112498D01*
X97087409Y-114057833D01*
X96946959Y-114044000D01*
X96853041Y-114044000D01*
X96712591Y-114057833D01*
X96532385Y-114112498D01*
X96366305Y-114201270D01*
X96220736Y-114320736D01*
X96101270Y-114466305D01*
X96012498Y-114632385D01*
X95957833Y-114812591D01*
X95939375Y-115000000D01*
X95957833Y-115187409D01*
X96012498Y-115367615D01*
X96017235Y-115376477D01*
X95851712Y-115542000D01*
X85419690Y-115542000D01*
X85390130Y-115497761D01*
X85302239Y-115409870D01*
X85198891Y-115340815D01*
X85084056Y-115293249D01*
X84962148Y-115269000D01*
X84837852Y-115269000D01*
X84715944Y-115293249D01*
X84601109Y-115340815D01*
X84497761Y-115409870D01*
X84409870Y-115497761D01*
X84340815Y-115601109D01*
X84293249Y-115715944D01*
X84269000Y-115837852D01*
X84269000Y-115962148D01*
X84279380Y-116014332D01*
X83590298Y-116703414D01*
X83576642Y-116714621D01*
X83565435Y-116728277D01*
X83565431Y-116728281D01*
X83531904Y-116769134D01*
X83498662Y-116831327D01*
X83478191Y-116898810D01*
X83471278Y-116968990D01*
X83473011Y-116986583D01*
X83473010Y-118680310D01*
X83428771Y-118709870D01*
X83340880Y-118797761D01*
X83271825Y-118901109D01*
X83224259Y-119015944D01*
X83200010Y-119137852D01*
X83200010Y-119242000D01*
X83119690Y-119242000D01*
X83090130Y-119197761D01*
X83002239Y-119109870D01*
X82898891Y-119040815D01*
X82784056Y-118993249D01*
X82662148Y-118969000D01*
X82537852Y-118969000D01*
X82415944Y-118993249D01*
X82301109Y-119040815D01*
X82197761Y-119109870D01*
X82109870Y-119197761D01*
X82040815Y-119301109D01*
X81993249Y-119415944D01*
X81969000Y-119537852D01*
X81969000Y-119662148D01*
X81993249Y-119784056D01*
X82040815Y-119898891D01*
X82109870Y-120002239D01*
X82155631Y-120048000D01*
X78158290Y-120048000D01*
X81985671Y-116220620D01*
X82037854Y-116231000D01*
X82162150Y-116231000D01*
X82284058Y-116206751D01*
X82398893Y-116159185D01*
X82502241Y-116090130D01*
X82590132Y-116002239D01*
X82659187Y-115898891D01*
X82706753Y-115784056D01*
X82731002Y-115662148D01*
X82731002Y-115537852D01*
X82706753Y-115415944D01*
X82659187Y-115301109D01*
X82590132Y-115197761D01*
X82502241Y-115109870D01*
X82398893Y-115040815D01*
X82284058Y-114993249D01*
X82162150Y-114969000D01*
X82037854Y-114969000D01*
X81915946Y-114993249D01*
X81801111Y-115040815D01*
X81697763Y-115109870D01*
X81609872Y-115197761D01*
X81540817Y-115301109D01*
X81493251Y-115415944D01*
X81469002Y-115537852D01*
X81469002Y-115662148D01*
X81479382Y-115714331D01*
X79818534Y-117375180D01*
X79806751Y-117315944D01*
X79759185Y-117201109D01*
X79690130Y-117097761D01*
X79602239Y-117009870D01*
X79498891Y-116940815D01*
X79384056Y-116893249D01*
X79262148Y-116869000D01*
X79137852Y-116869000D01*
X79015944Y-116893249D01*
X78901109Y-116940815D01*
X78797761Y-117009870D01*
X78709870Y-117097761D01*
X78640815Y-117201109D01*
X78593249Y-117315944D01*
X78569000Y-117437852D01*
X78569000Y-117562148D01*
X78593249Y-117684056D01*
X78640815Y-117798891D01*
X78702501Y-117891210D01*
X78514447Y-118079264D01*
X78515030Y-118076334D01*
X78515030Y-117923666D01*
X78485246Y-117773932D01*
X78426823Y-117632886D01*
X78342005Y-117505947D01*
X78234053Y-117397995D01*
X78107114Y-117313177D01*
X77966068Y-117254754D01*
X77816334Y-117224970D01*
X77663666Y-117224970D01*
X77513932Y-117254754D01*
X77372886Y-117313177D01*
X77245947Y-117397995D01*
X77137995Y-117505947D01*
X77124599Y-117525996D01*
X77143430Y-117431327D01*
X77143430Y-117298673D01*
X77117550Y-117168568D01*
X77066786Y-117046011D01*
X76993087Y-116935714D01*
X76899286Y-116841913D01*
X76828000Y-116794281D01*
X76828000Y-115854286D01*
X76885668Y-115796618D01*
X76937852Y-115806998D01*
X77062148Y-115806998D01*
X77184056Y-115782749D01*
X77298891Y-115735183D01*
X77402239Y-115666128D01*
X77490130Y-115578237D01*
X77559185Y-115474889D01*
X77606751Y-115360054D01*
X77631000Y-115238146D01*
X77631000Y-115113850D01*
X77606751Y-114991942D01*
X77559185Y-114877107D01*
X77490130Y-114773759D01*
X77402239Y-114685868D01*
X77298891Y-114616813D01*
X77184056Y-114569247D01*
X77062148Y-114544998D01*
X76937852Y-114544998D01*
X76815944Y-114569247D01*
X76701109Y-114616813D01*
X76597761Y-114685868D01*
X76509870Y-114773759D01*
X76440815Y-114877107D01*
X76393249Y-114991942D01*
X76369000Y-115113850D01*
X76369000Y-115238146D01*
X76379380Y-115290330D01*
X76229288Y-115440422D01*
X76215632Y-115451629D01*
X76204425Y-115465285D01*
X76204421Y-115465289D01*
X76170894Y-115506142D01*
X76137652Y-115568335D01*
X76117181Y-115635818D01*
X76110268Y-115705998D01*
X76112001Y-115723591D01*
X76112000Y-116794280D01*
X76040714Y-116841913D01*
X75946913Y-116935714D01*
X75873214Y-117046011D01*
X75835000Y-117138269D01*
X75796786Y-117046011D01*
X75723087Y-116935714D01*
X75629286Y-116841913D01*
X75518989Y-116768214D01*
X75396432Y-116717450D01*
X75266327Y-116691570D01*
X75225148Y-116691570D01*
X75231000Y-116662148D01*
X75231000Y-116537852D01*
X75206751Y-116415944D01*
X75159185Y-116301109D01*
X75090130Y-116197761D01*
X75002239Y-116109870D01*
X74898891Y-116040815D01*
X74784056Y-115993249D01*
X74662148Y-115969000D01*
X74537852Y-115969000D01*
X74415944Y-115993249D01*
X74301109Y-116040815D01*
X74197761Y-116109870D01*
X74109870Y-116197761D01*
X74040815Y-116301109D01*
X73993249Y-116415944D01*
X73969000Y-116537852D01*
X73969000Y-116662148D01*
X73974852Y-116691570D01*
X73863673Y-116691570D01*
X73733568Y-116717450D01*
X73611011Y-116768214D01*
X73500714Y-116841913D01*
X73433760Y-116908867D01*
X73433760Y-116907791D01*
X73404025Y-116758303D01*
X73345697Y-116617487D01*
X73261019Y-116490757D01*
X73153243Y-116382981D01*
X73026513Y-116298303D01*
X72885697Y-116239975D01*
X72736209Y-116210240D01*
X72583791Y-116210240D01*
X72434303Y-116239975D01*
X72293487Y-116298303D01*
X72166757Y-116382981D01*
X72058981Y-116490757D01*
X71974303Y-116617487D01*
X71915975Y-116758303D01*
X71886240Y-116907791D01*
X71886240Y-117060209D01*
X71915975Y-117209697D01*
X71974303Y-117350513D01*
X72058981Y-117477243D01*
X72166757Y-117585019D01*
X72293487Y-117669697D01*
X72434303Y-117728025D01*
X72583791Y-117757760D01*
X72736209Y-117757760D01*
X72885697Y-117728025D01*
X73026513Y-117669697D01*
X73153243Y-117585019D01*
X73261019Y-117477243D01*
X73264629Y-117471841D01*
X73282450Y-117561432D01*
X73333214Y-117683989D01*
X73406913Y-117794286D01*
X73500714Y-117888087D01*
X73611011Y-117961786D01*
X73707099Y-118001586D01*
X73687875Y-118007418D01*
X73643560Y-118103901D01*
X73930000Y-118390341D01*
X74216440Y-118103901D01*
X74172125Y-118007418D01*
X74152162Y-118001892D01*
X74248989Y-117961786D01*
X74359286Y-117888087D01*
X74453087Y-117794286D01*
X74526786Y-117683989D01*
X74565000Y-117591731D01*
X74603214Y-117683989D01*
X74676913Y-117794286D01*
X74770714Y-117888087D01*
X74881011Y-117961786D01*
X74973269Y-118000000D01*
X74881011Y-118038214D01*
X74770714Y-118111913D01*
X74676913Y-118205714D01*
X74603214Y-118316011D01*
X74563414Y-118412099D01*
X74557582Y-118392875D01*
X74461099Y-118348560D01*
X74174659Y-118635000D01*
X74461099Y-118921440D01*
X74557582Y-118877125D01*
X74563108Y-118857162D01*
X74603214Y-118953989D01*
X74676913Y-119064286D01*
X74770714Y-119158087D01*
X74881011Y-119231786D01*
X75003568Y-119282550D01*
X75133673Y-119308430D01*
X75266327Y-119308430D01*
X75396432Y-119282550D01*
X75518989Y-119231786D01*
X75629286Y-119158087D01*
X75723087Y-119064286D01*
X75796786Y-118953989D01*
X75835000Y-118861731D01*
X75873214Y-118953989D01*
X75946913Y-119064286D01*
X76040714Y-119158087D01*
X76151011Y-119231786D01*
X76273568Y-119282550D01*
X76403673Y-119308430D01*
X76536327Y-119308430D01*
X76620186Y-119291749D01*
X76621716Y-119293005D01*
X76621719Y-119293008D01*
X76652013Y-119317869D01*
X76662573Y-119326535D01*
X76724766Y-119359778D01*
X76792249Y-119380249D01*
X76844843Y-119385429D01*
X76844853Y-119385429D01*
X76862428Y-119387160D01*
X76880004Y-119385429D01*
X77808285Y-119385429D01*
X77651714Y-119542000D01*
X73228262Y-119542000D01*
X73261019Y-119509243D01*
X73345697Y-119382513D01*
X73404025Y-119241697D01*
X73419062Y-119166099D01*
X73643560Y-119166099D01*
X73687875Y-119262582D01*
X73814962Y-119297760D01*
X73946471Y-119307468D01*
X74077346Y-119291333D01*
X74172125Y-119262582D01*
X74216440Y-119166099D01*
X73930000Y-118879659D01*
X73643560Y-119166099D01*
X73419062Y-119166099D01*
X73433760Y-119092209D01*
X73433760Y-118939791D01*
X73424932Y-118895409D01*
X73685341Y-118635000D01*
X73398901Y-118348560D01*
X73302418Y-118392875D01*
X73267240Y-118519962D01*
X73266435Y-118530863D01*
X73261019Y-118522757D01*
X73153243Y-118414981D01*
X73026513Y-118330303D01*
X72885697Y-118271975D01*
X72736209Y-118242240D01*
X72583791Y-118242240D01*
X72434303Y-118271975D01*
X72293487Y-118330303D01*
X72166757Y-118414981D01*
X72058981Y-118522757D01*
X71974303Y-118649487D01*
X71915975Y-118790303D01*
X71886240Y-118939791D01*
X71886240Y-119092209D01*
X71915975Y-119241697D01*
X71974303Y-119382513D01*
X72058981Y-119509243D01*
X72091738Y-119542000D01*
X66448289Y-119542000D01*
X65420620Y-118514332D01*
X65431000Y-118462148D01*
X65431000Y-118337852D01*
X65406751Y-118215944D01*
X65359185Y-118101109D01*
X65290130Y-117997761D01*
X65202239Y-117909870D01*
X65098891Y-117840815D01*
X64984056Y-117793249D01*
X64862148Y-117769000D01*
X64737852Y-117769000D01*
X64615944Y-117793249D01*
X64501109Y-117840815D01*
X64397761Y-117909870D01*
X64309870Y-117997761D01*
X64240815Y-118101109D01*
X64193249Y-118215944D01*
X64169000Y-118337852D01*
X64169000Y-118462148D01*
X64193249Y-118584056D01*
X64240815Y-118698891D01*
X64309870Y-118802239D01*
X64397761Y-118890130D01*
X64501109Y-118959185D01*
X64615944Y-119006751D01*
X64737852Y-119031000D01*
X64862148Y-119031000D01*
X64914332Y-119020620D01*
X65941711Y-120048000D01*
X50202000Y-120048000D01*
X50202000Y-115627000D01*
X59900000Y-115627000D01*
X59924776Y-115624560D01*
X59948601Y-115617333D01*
X59970557Y-115605597D01*
X59989803Y-115589803D01*
X60752606Y-114827000D01*
X62647394Y-114827000D01*
X64610197Y-116789803D01*
X64629443Y-116805597D01*
X64651399Y-116817333D01*
X64675224Y-116824560D01*
X64700000Y-116827000D01*
X69800000Y-116827000D01*
X69824776Y-116824560D01*
X69848601Y-116817333D01*
X69870557Y-116805597D01*
X69889803Y-116789803D01*
X71289803Y-115389803D01*
X71305597Y-115370557D01*
X71317333Y-115348601D01*
X71324560Y-115324776D01*
X71327000Y-115300000D01*
X71327000Y-114352606D01*
X71805878Y-113873728D01*
X75733124Y-113873728D01*
X75733124Y-113998024D01*
X75757373Y-114119932D01*
X75804939Y-114234767D01*
X75873994Y-114338115D01*
X75961885Y-114426006D01*
X76065233Y-114495061D01*
X76180068Y-114542627D01*
X76301976Y-114566876D01*
X76426272Y-114566876D01*
X76548180Y-114542627D01*
X76663015Y-114495061D01*
X76766363Y-114426006D01*
X76854254Y-114338115D01*
X76923309Y-114234767D01*
X76970875Y-114119932D01*
X76995124Y-113998024D01*
X76995124Y-113895124D01*
X77098024Y-113895124D01*
X77219932Y-113870875D01*
X77334767Y-113823309D01*
X77438115Y-113754254D01*
X77526006Y-113666363D01*
X77595061Y-113563015D01*
X77642627Y-113448180D01*
X77666876Y-113326272D01*
X77666876Y-113201976D01*
X77642627Y-113080068D01*
X77595061Y-112965233D01*
X77526006Y-112861885D01*
X77438115Y-112773994D01*
X77334767Y-112704939D01*
X77219932Y-112657373D01*
X77126124Y-112638713D01*
X77126124Y-112465836D01*
X77829961Y-111762000D01*
X95155712Y-111762000D01*
X96017235Y-112623523D01*
X96012498Y-112632385D01*
X95957833Y-112812591D01*
X95939375Y-113000000D01*
X95957833Y-113187409D01*
X96012498Y-113367615D01*
X96101270Y-113533695D01*
X96220736Y-113679264D01*
X96366305Y-113798730D01*
X96532385Y-113887502D01*
X96712591Y-113942167D01*
X96853041Y-113956000D01*
X96946959Y-113956000D01*
X97087409Y-113942167D01*
X97267615Y-113887502D01*
X97433695Y-113798730D01*
X97579264Y-113679264D01*
X97698730Y-113533695D01*
X97787502Y-113367615D01*
X97842167Y-113187409D01*
X97860625Y-113000000D01*
X97842167Y-112812591D01*
X97787502Y-112632385D01*
X97698730Y-112466305D01*
X97579264Y-112320736D01*
X97433695Y-112201270D01*
X97267615Y-112112498D01*
X97087409Y-112057833D01*
X96946959Y-112044000D01*
X96853041Y-112044000D01*
X96712591Y-112057833D01*
X96532385Y-112112498D01*
X96523523Y-112117235D01*
X95764288Y-111358000D01*
X96009581Y-111358000D01*
X96012498Y-111367615D01*
X96101270Y-111533695D01*
X96220736Y-111679264D01*
X96366305Y-111798730D01*
X96532385Y-111887502D01*
X96712591Y-111942167D01*
X96853041Y-111956000D01*
X96946959Y-111956000D01*
X97087409Y-111942167D01*
X97267615Y-111887502D01*
X97433695Y-111798730D01*
X97579264Y-111679264D01*
X97698730Y-111533695D01*
X97787502Y-111367615D01*
X97842167Y-111187409D01*
X97860625Y-111000000D01*
X97842167Y-110812591D01*
X97787502Y-110632385D01*
X97698730Y-110466305D01*
X97579264Y-110320736D01*
X97433695Y-110201270D01*
X97267615Y-110112498D01*
X97087409Y-110057833D01*
X96946959Y-110044000D01*
X96853041Y-110044000D01*
X96712591Y-110057833D01*
X96532385Y-110112498D01*
X96366305Y-110201270D01*
X96220736Y-110320736D01*
X96101270Y-110466305D01*
X96012498Y-110632385D01*
X96009581Y-110642000D01*
X77531910Y-110642000D01*
X77514327Y-110640268D01*
X77496744Y-110642000D01*
X77496742Y-110642000D01*
X77444148Y-110647180D01*
X77376665Y-110667651D01*
X77347714Y-110683126D01*
X77314471Y-110700894D01*
X77273618Y-110734421D01*
X77273615Y-110734424D01*
X77259959Y-110745631D01*
X77248752Y-110759287D01*
X76123412Y-111884628D01*
X76109756Y-111895835D01*
X76098549Y-111909491D01*
X76098545Y-111909495D01*
X76065018Y-111950348D01*
X76031776Y-112012541D01*
X76011305Y-112080024D01*
X76004392Y-112150204D01*
X76006125Y-112167797D01*
X76006124Y-113416186D01*
X75961885Y-113445746D01*
X75873994Y-113533637D01*
X75804939Y-113636985D01*
X75757373Y-113751820D01*
X75733124Y-113873728D01*
X71805878Y-113873728D01*
X71852606Y-113827000D01*
X74200000Y-113827000D01*
X74224776Y-113824560D01*
X74248601Y-113817333D01*
X74270557Y-113805597D01*
X74289803Y-113789803D01*
X75489803Y-112589803D01*
X75505597Y-112570557D01*
X75517333Y-112548601D01*
X75524560Y-112524776D01*
X75527000Y-112500000D01*
X75527000Y-110352606D01*
X76879606Y-109000000D01*
X95939375Y-109000000D01*
X95957833Y-109187409D01*
X96012498Y-109367615D01*
X96101270Y-109533695D01*
X96220736Y-109679264D01*
X96366305Y-109798730D01*
X96532385Y-109887502D01*
X96712591Y-109942167D01*
X96853041Y-109956000D01*
X96946959Y-109956000D01*
X97087409Y-109942167D01*
X97267615Y-109887502D01*
X97433695Y-109798730D01*
X97579264Y-109679264D01*
X97698730Y-109533695D01*
X97787502Y-109367615D01*
X97842167Y-109187409D01*
X97860625Y-109000000D01*
X97842167Y-108812591D01*
X97787502Y-108632385D01*
X97698730Y-108466305D01*
X97579264Y-108320736D01*
X97433695Y-108201270D01*
X97267615Y-108112498D01*
X97087409Y-108057833D01*
X96946959Y-108044000D01*
X96853041Y-108044000D01*
X96712591Y-108057833D01*
X96532385Y-108112498D01*
X96366305Y-108201270D01*
X96220736Y-108320736D01*
X96101270Y-108466305D01*
X96012498Y-108632385D01*
X95957833Y-108812591D01*
X95939375Y-109000000D01*
X76879606Y-109000000D01*
X80252606Y-105627000D01*
X85971159Y-105627000D01*
X85969000Y-105637852D01*
X85969000Y-105762148D01*
X85993249Y-105884056D01*
X86040815Y-105998891D01*
X86109870Y-106102239D01*
X86197761Y-106190130D01*
X86301109Y-106259185D01*
X86415944Y-106306751D01*
X86537852Y-106331000D01*
X86662148Y-106331000D01*
X86784056Y-106306751D01*
X86789015Y-106304697D01*
X85459288Y-107634424D01*
X85445632Y-107645631D01*
X85434425Y-107659287D01*
X85434421Y-107659291D01*
X85400894Y-107700144D01*
X85367652Y-107762337D01*
X85367335Y-107763382D01*
X85297761Y-107809870D01*
X85209870Y-107897761D01*
X85140815Y-108001109D01*
X85093249Y-108115944D01*
X85069000Y-108237852D01*
X85069000Y-108362148D01*
X85093249Y-108484056D01*
X85140815Y-108598891D01*
X85209870Y-108702239D01*
X85297761Y-108790130D01*
X85401109Y-108859185D01*
X85515944Y-108906751D01*
X85637852Y-108931000D01*
X85762148Y-108931000D01*
X85884056Y-108906751D01*
X85998891Y-108859185D01*
X86102239Y-108790130D01*
X86190130Y-108702239D01*
X86259185Y-108598891D01*
X86306751Y-108484056D01*
X86331000Y-108362148D01*
X86331000Y-108237852D01*
X86306751Y-108115944D01*
X86259185Y-108001109D01*
X86197499Y-107908789D01*
X87448288Y-106658000D01*
X96004728Y-106658000D01*
X95957833Y-106812591D01*
X95939375Y-107000000D01*
X95957833Y-107187409D01*
X96012498Y-107367615D01*
X96101270Y-107533695D01*
X96220736Y-107679264D01*
X96366305Y-107798730D01*
X96532385Y-107887502D01*
X96712591Y-107942167D01*
X96853041Y-107956000D01*
X96946959Y-107956000D01*
X97087409Y-107942167D01*
X97267615Y-107887502D01*
X97433695Y-107798730D01*
X97579264Y-107679264D01*
X97698730Y-107533695D01*
X97787502Y-107367615D01*
X97842167Y-107187409D01*
X97860625Y-107000000D01*
X97842167Y-106812591D01*
X97787502Y-106632385D01*
X97698730Y-106466305D01*
X97579264Y-106320736D01*
X97433695Y-106201270D01*
X97267615Y-106112498D01*
X97087409Y-106057833D01*
X96946959Y-106044000D01*
X96853041Y-106044000D01*
X96712591Y-106057833D01*
X96532385Y-106112498D01*
X96523523Y-106117235D01*
X96465581Y-106059293D01*
X96454369Y-106045631D01*
X96399856Y-106000894D01*
X96398183Y-106000000D01*
X96399856Y-105999106D01*
X96454369Y-105954369D01*
X96465581Y-105940707D01*
X96523523Y-105882765D01*
X96532385Y-105887502D01*
X96712591Y-105942167D01*
X96853041Y-105956000D01*
X96946959Y-105956000D01*
X97087409Y-105942167D01*
X97267615Y-105887502D01*
X97433695Y-105798730D01*
X97579264Y-105679264D01*
X97698730Y-105533695D01*
X97787502Y-105367615D01*
X97842167Y-105187409D01*
X97860625Y-105000000D01*
X97842167Y-104812591D01*
X97787502Y-104632385D01*
X97784624Y-104627000D01*
X97900000Y-104627000D01*
X97924776Y-104624560D01*
X97948601Y-104617333D01*
X97970557Y-104605597D01*
X97989803Y-104589803D01*
X98005597Y-104570557D01*
X98017333Y-104548601D01*
X98024560Y-104524776D01*
X98027000Y-104500000D01*
X98027000Y-99952000D01*
X99798001Y-99952000D01*
X99798000Y-120048000D01*
X99798000Y-120048000D01*
G37*
X99798000Y-120048000D02*
X94358288Y-120048000D01*
X95406288Y-119000000D01*
X95939375Y-119000000D01*
X95957833Y-119187409D01*
X96012498Y-119367615D01*
X96101270Y-119533695D01*
X96220736Y-119679264D01*
X96366305Y-119798730D01*
X96532385Y-119887502D01*
X96712591Y-119942167D01*
X96853041Y-119956000D01*
X96946959Y-119956000D01*
X97087409Y-119942167D01*
X97267615Y-119887502D01*
X97433695Y-119798730D01*
X97579264Y-119679264D01*
X97698730Y-119533695D01*
X97787502Y-119367615D01*
X97842167Y-119187409D01*
X97860625Y-119000000D01*
X97842167Y-118812591D01*
X97787502Y-118632385D01*
X97698730Y-118466305D01*
X97579264Y-118320736D01*
X97433695Y-118201270D01*
X97267615Y-118112498D01*
X97087409Y-118057833D01*
X96946959Y-118044000D01*
X96853041Y-118044000D01*
X96712591Y-118057833D01*
X96532385Y-118112498D01*
X96366305Y-118201270D01*
X96220736Y-118320736D01*
X96101270Y-118466305D01*
X96012498Y-118632385D01*
X95957833Y-118812591D01*
X95939375Y-119000000D01*
X95406288Y-119000000D01*
X96490580Y-117915709D01*
X96490585Y-117915703D01*
X96523523Y-117882765D01*
X96532385Y-117887502D01*
X96712591Y-117942167D01*
X96853041Y-117956000D01*
X96946959Y-117956000D01*
X97087409Y-117942167D01*
X97267615Y-117887502D01*
X97433695Y-117798730D01*
X97579264Y-117679264D01*
X97698730Y-117533695D01*
X97787502Y-117367615D01*
X97842167Y-117187409D01*
X97860625Y-117000000D01*
X97842167Y-116812591D01*
X97787502Y-116632385D01*
X97698730Y-116466305D01*
X97579264Y-116320736D01*
X97433695Y-116201270D01*
X97267615Y-116112498D01*
X97087409Y-116057833D01*
X96946959Y-116044000D01*
X96853041Y-116044000D01*
X96712591Y-116057833D01*
X96532385Y-116112498D01*
X96366305Y-116201270D01*
X96220736Y-116320736D01*
X96101270Y-116466305D01*
X96012498Y-116632385D01*
X95957833Y-116812591D01*
X95939375Y-117000000D01*
X95957833Y-117187409D01*
X96012498Y-117367615D01*
X96017235Y-117376477D01*
X95984297Y-117409415D01*
X95984291Y-117409420D01*
X93870711Y-119523001D01*
X84374085Y-119523001D01*
X84390195Y-119498891D01*
X84437761Y-119384056D01*
X84462010Y-119262148D01*
X84462010Y-119137852D01*
X84437761Y-119015944D01*
X84390195Y-118901109D01*
X84321140Y-118797761D01*
X84233249Y-118709870D01*
X84189010Y-118680310D01*
X84189010Y-117117278D01*
X84785668Y-116520620D01*
X84837852Y-116531000D01*
X84962148Y-116531000D01*
X85084056Y-116506751D01*
X85198891Y-116459185D01*
X85302239Y-116390130D01*
X85390130Y-116302239D01*
X85419690Y-116258000D01*
X95982417Y-116258000D01*
X96000000Y-116259732D01*
X96017583Y-116258000D01*
X96017586Y-116258000D01*
X96070180Y-116252820D01*
X96137663Y-116232349D01*
X96199856Y-116199106D01*
X96254369Y-116154369D01*
X96265581Y-116140707D01*
X96523523Y-115882765D01*
X96532385Y-115887502D01*
X96712591Y-115942167D01*
X96853041Y-115956000D01*
X96946959Y-115956000D01*
X97087409Y-115942167D01*
X97267615Y-115887502D01*
X97433695Y-115798730D01*
X97579264Y-115679264D01*
X97698730Y-115533695D01*
X97787502Y-115367615D01*
X97842167Y-115187409D01*
X97860625Y-115000000D01*
X97842167Y-114812591D01*
X97787502Y-114632385D01*
X97698730Y-114466305D01*
X97579264Y-114320736D01*
X97433695Y-114201270D01*
X97267615Y-114112498D01*
X97087409Y-114057833D01*
X96946959Y-114044000D01*
X96853041Y-114044000D01*
X96712591Y-114057833D01*
X96532385Y-114112498D01*
X96366305Y-114201270D01*
X96220736Y-114320736D01*
X96101270Y-114466305D01*
X96012498Y-114632385D01*
X95957833Y-114812591D01*
X95939375Y-115000000D01*
X95957833Y-115187409D01*
X96012498Y-115367615D01*
X96017235Y-115376477D01*
X95851712Y-115542000D01*
X85419690Y-115542000D01*
X85390130Y-115497761D01*
X85302239Y-115409870D01*
X85198891Y-115340815D01*
X85084056Y-115293249D01*
X84962148Y-115269000D01*
X84837852Y-115269000D01*
X84715944Y-115293249D01*
X84601109Y-115340815D01*
X84497761Y-115409870D01*
X84409870Y-115497761D01*
X84340815Y-115601109D01*
X84293249Y-115715944D01*
X84269000Y-115837852D01*
X84269000Y-115962148D01*
X84279380Y-116014332D01*
X83590298Y-116703414D01*
X83576642Y-116714621D01*
X83565435Y-116728277D01*
X83565431Y-116728281D01*
X83531904Y-116769134D01*
X83498662Y-116831327D01*
X83478191Y-116898810D01*
X83471278Y-116968990D01*
X83473011Y-116986583D01*
X83473010Y-118680310D01*
X83428771Y-118709870D01*
X83340880Y-118797761D01*
X83271825Y-118901109D01*
X83224259Y-119015944D01*
X83200010Y-119137852D01*
X83200010Y-119242000D01*
X83119690Y-119242000D01*
X83090130Y-119197761D01*
X83002239Y-119109870D01*
X82898891Y-119040815D01*
X82784056Y-118993249D01*
X82662148Y-118969000D01*
X82537852Y-118969000D01*
X82415944Y-118993249D01*
X82301109Y-119040815D01*
X82197761Y-119109870D01*
X82109870Y-119197761D01*
X82040815Y-119301109D01*
X81993249Y-119415944D01*
X81969000Y-119537852D01*
X81969000Y-119662148D01*
X81993249Y-119784056D01*
X82040815Y-119898891D01*
X82109870Y-120002239D01*
X82155631Y-120048000D01*
X78158290Y-120048000D01*
X81985671Y-116220620D01*
X82037854Y-116231000D01*
X82162150Y-116231000D01*
X82284058Y-116206751D01*
X82398893Y-116159185D01*
X82502241Y-116090130D01*
X82590132Y-116002239D01*
X82659187Y-115898891D01*
X82706753Y-115784056D01*
X82731002Y-115662148D01*
X82731002Y-115537852D01*
X82706753Y-115415944D01*
X82659187Y-115301109D01*
X82590132Y-115197761D01*
X82502241Y-115109870D01*
X82398893Y-115040815D01*
X82284058Y-114993249D01*
X82162150Y-114969000D01*
X82037854Y-114969000D01*
X81915946Y-114993249D01*
X81801111Y-115040815D01*
X81697763Y-115109870D01*
X81609872Y-115197761D01*
X81540817Y-115301109D01*
X81493251Y-115415944D01*
X81469002Y-115537852D01*
X81469002Y-115662148D01*
X81479382Y-115714331D01*
X79818534Y-117375180D01*
X79806751Y-117315944D01*
X79759185Y-117201109D01*
X79690130Y-117097761D01*
X79602239Y-117009870D01*
X79498891Y-116940815D01*
X79384056Y-116893249D01*
X79262148Y-116869000D01*
X79137852Y-116869000D01*
X79015944Y-116893249D01*
X78901109Y-116940815D01*
X78797761Y-117009870D01*
X78709870Y-117097761D01*
X78640815Y-117201109D01*
X78593249Y-117315944D01*
X78569000Y-117437852D01*
X78569000Y-117562148D01*
X78593249Y-117684056D01*
X78640815Y-117798891D01*
X78702501Y-117891210D01*
X78514447Y-118079264D01*
X78515030Y-118076334D01*
X78515030Y-117923666D01*
X78485246Y-117773932D01*
X78426823Y-117632886D01*
X78342005Y-117505947D01*
X78234053Y-117397995D01*
X78107114Y-117313177D01*
X77966068Y-117254754D01*
X77816334Y-117224970D01*
X77663666Y-117224970D01*
X77513932Y-117254754D01*
X77372886Y-117313177D01*
X77245947Y-117397995D01*
X77137995Y-117505947D01*
X77124599Y-117525996D01*
X77143430Y-117431327D01*
X77143430Y-117298673D01*
X77117550Y-117168568D01*
X77066786Y-117046011D01*
X76993087Y-116935714D01*
X76899286Y-116841913D01*
X76828000Y-116794281D01*
X76828000Y-115854286D01*
X76885668Y-115796618D01*
X76937852Y-115806998D01*
X77062148Y-115806998D01*
X77184056Y-115782749D01*
X77298891Y-115735183D01*
X77402239Y-115666128D01*
X77490130Y-115578237D01*
X77559185Y-115474889D01*
X77606751Y-115360054D01*
X77631000Y-115238146D01*
X77631000Y-115113850D01*
X77606751Y-114991942D01*
X77559185Y-114877107D01*
X77490130Y-114773759D01*
X77402239Y-114685868D01*
X77298891Y-114616813D01*
X77184056Y-114569247D01*
X77062148Y-114544998D01*
X76937852Y-114544998D01*
X76815944Y-114569247D01*
X76701109Y-114616813D01*
X76597761Y-114685868D01*
X76509870Y-114773759D01*
X76440815Y-114877107D01*
X76393249Y-114991942D01*
X76369000Y-115113850D01*
X76369000Y-115238146D01*
X76379380Y-115290330D01*
X76229288Y-115440422D01*
X76215632Y-115451629D01*
X76204425Y-115465285D01*
X76204421Y-115465289D01*
X76170894Y-115506142D01*
X76137652Y-115568335D01*
X76117181Y-115635818D01*
X76110268Y-115705998D01*
X76112001Y-115723591D01*
X76112000Y-116794280D01*
X76040714Y-116841913D01*
X75946913Y-116935714D01*
X75873214Y-117046011D01*
X75835000Y-117138269D01*
X75796786Y-117046011D01*
X75723087Y-116935714D01*
X75629286Y-116841913D01*
X75518989Y-116768214D01*
X75396432Y-116717450D01*
X75266327Y-116691570D01*
X75225148Y-116691570D01*
X75231000Y-116662148D01*
X75231000Y-116537852D01*
X75206751Y-116415944D01*
X75159185Y-116301109D01*
X75090130Y-116197761D01*
X75002239Y-116109870D01*
X74898891Y-116040815D01*
X74784056Y-115993249D01*
X74662148Y-115969000D01*
X74537852Y-115969000D01*
X74415944Y-115993249D01*
X74301109Y-116040815D01*
X74197761Y-116109870D01*
X74109870Y-116197761D01*
X74040815Y-116301109D01*
X73993249Y-116415944D01*
X73969000Y-116537852D01*
X73969000Y-116662148D01*
X73974852Y-116691570D01*
X73863673Y-116691570D01*
X73733568Y-116717450D01*
X73611011Y-116768214D01*
X73500714Y-116841913D01*
X73433760Y-116908867D01*
X73433760Y-116907791D01*
X73404025Y-116758303D01*
X73345697Y-116617487D01*
X73261019Y-116490757D01*
X73153243Y-116382981D01*
X73026513Y-116298303D01*
X72885697Y-116239975D01*
X72736209Y-116210240D01*
X72583791Y-116210240D01*
X72434303Y-116239975D01*
X72293487Y-116298303D01*
X72166757Y-116382981D01*
X72058981Y-116490757D01*
X71974303Y-116617487D01*
X71915975Y-116758303D01*
X71886240Y-116907791D01*
X71886240Y-117060209D01*
X71915975Y-117209697D01*
X71974303Y-117350513D01*
X72058981Y-117477243D01*
X72166757Y-117585019D01*
X72293487Y-117669697D01*
X72434303Y-117728025D01*
X72583791Y-117757760D01*
X72736209Y-117757760D01*
X72885697Y-117728025D01*
X73026513Y-117669697D01*
X73153243Y-117585019D01*
X73261019Y-117477243D01*
X73264629Y-117471841D01*
X73282450Y-117561432D01*
X73333214Y-117683989D01*
X73406913Y-117794286D01*
X73500714Y-117888087D01*
X73611011Y-117961786D01*
X73707099Y-118001586D01*
X73687875Y-118007418D01*
X73643560Y-118103901D01*
X73930000Y-118390341D01*
X74216440Y-118103901D01*
X74172125Y-118007418D01*
X74152162Y-118001892D01*
X74248989Y-117961786D01*
X74359286Y-117888087D01*
X74453087Y-117794286D01*
X74526786Y-117683989D01*
X74565000Y-117591731D01*
X74603214Y-117683989D01*
X74676913Y-117794286D01*
X74770714Y-117888087D01*
X74881011Y-117961786D01*
X74973269Y-118000000D01*
X74881011Y-118038214D01*
X74770714Y-118111913D01*
X74676913Y-118205714D01*
X74603214Y-118316011D01*
X74563414Y-118412099D01*
X74557582Y-118392875D01*
X74461099Y-118348560D01*
X74174659Y-118635000D01*
X74461099Y-118921440D01*
X74557582Y-118877125D01*
X74563108Y-118857162D01*
X74603214Y-118953989D01*
X74676913Y-119064286D01*
X74770714Y-119158087D01*
X74881011Y-119231786D01*
X75003568Y-119282550D01*
X75133673Y-119308430D01*
X75266327Y-119308430D01*
X75396432Y-119282550D01*
X75518989Y-119231786D01*
X75629286Y-119158087D01*
X75723087Y-119064286D01*
X75796786Y-118953989D01*
X75835000Y-118861731D01*
X75873214Y-118953989D01*
X75946913Y-119064286D01*
X76040714Y-119158087D01*
X76151011Y-119231786D01*
X76273568Y-119282550D01*
X76403673Y-119308430D01*
X76536327Y-119308430D01*
X76620186Y-119291749D01*
X76621716Y-119293005D01*
X76621719Y-119293008D01*
X76652013Y-119317869D01*
X76662573Y-119326535D01*
X76724766Y-119359778D01*
X76792249Y-119380249D01*
X76844843Y-119385429D01*
X76844853Y-119385429D01*
X76862428Y-119387160D01*
X76880004Y-119385429D01*
X77808285Y-119385429D01*
X77651714Y-119542000D01*
X73228262Y-119542000D01*
X73261019Y-119509243D01*
X73345697Y-119382513D01*
X73404025Y-119241697D01*
X73419062Y-119166099D01*
X73643560Y-119166099D01*
X73687875Y-119262582D01*
X73814962Y-119297760D01*
X73946471Y-119307468D01*
X74077346Y-119291333D01*
X74172125Y-119262582D01*
X74216440Y-119166099D01*
X73930000Y-118879659D01*
X73643560Y-119166099D01*
X73419062Y-119166099D01*
X73433760Y-119092209D01*
X73433760Y-118939791D01*
X73424932Y-118895409D01*
X73685341Y-118635000D01*
X73398901Y-118348560D01*
X73302418Y-118392875D01*
X73267240Y-118519962D01*
X73266435Y-118530863D01*
X73261019Y-118522757D01*
X73153243Y-118414981D01*
X73026513Y-118330303D01*
X72885697Y-118271975D01*
X72736209Y-118242240D01*
X72583791Y-118242240D01*
X72434303Y-118271975D01*
X72293487Y-118330303D01*
X72166757Y-118414981D01*
X72058981Y-118522757D01*
X71974303Y-118649487D01*
X71915975Y-118790303D01*
X71886240Y-118939791D01*
X71886240Y-119092209D01*
X71915975Y-119241697D01*
X71974303Y-119382513D01*
X72058981Y-119509243D01*
X72091738Y-119542000D01*
X66448289Y-119542000D01*
X65420620Y-118514332D01*
X65431000Y-118462148D01*
X65431000Y-118337852D01*
X65406751Y-118215944D01*
X65359185Y-118101109D01*
X65290130Y-117997761D01*
X65202239Y-117909870D01*
X65098891Y-117840815D01*
X64984056Y-117793249D01*
X64862148Y-117769000D01*
X64737852Y-117769000D01*
X64615944Y-117793249D01*
X64501109Y-117840815D01*
X64397761Y-117909870D01*
X64309870Y-117997761D01*
X64240815Y-118101109D01*
X64193249Y-118215944D01*
X64169000Y-118337852D01*
X64169000Y-118462148D01*
X64193249Y-118584056D01*
X64240815Y-118698891D01*
X64309870Y-118802239D01*
X64397761Y-118890130D01*
X64501109Y-118959185D01*
X64615944Y-119006751D01*
X64737852Y-119031000D01*
X64862148Y-119031000D01*
X64914332Y-119020620D01*
X65941711Y-120048000D01*
X50202000Y-120048000D01*
X50202000Y-115627000D01*
X59900000Y-115627000D01*
X59924776Y-115624560D01*
X59948601Y-115617333D01*
X59970557Y-115605597D01*
X59989803Y-115589803D01*
X60752606Y-114827000D01*
X62647394Y-114827000D01*
X64610197Y-116789803D01*
X64629443Y-116805597D01*
X64651399Y-116817333D01*
X64675224Y-116824560D01*
X64700000Y-116827000D01*
X69800000Y-116827000D01*
X69824776Y-116824560D01*
X69848601Y-116817333D01*
X69870557Y-116805597D01*
X69889803Y-116789803D01*
X71289803Y-115389803D01*
X71305597Y-115370557D01*
X71317333Y-115348601D01*
X71324560Y-115324776D01*
X71327000Y-115300000D01*
X71327000Y-114352606D01*
X71805878Y-113873728D01*
X75733124Y-113873728D01*
X75733124Y-113998024D01*
X75757373Y-114119932D01*
X75804939Y-114234767D01*
X75873994Y-114338115D01*
X75961885Y-114426006D01*
X76065233Y-114495061D01*
X76180068Y-114542627D01*
X76301976Y-114566876D01*
X76426272Y-114566876D01*
X76548180Y-114542627D01*
X76663015Y-114495061D01*
X76766363Y-114426006D01*
X76854254Y-114338115D01*
X76923309Y-114234767D01*
X76970875Y-114119932D01*
X76995124Y-113998024D01*
X76995124Y-113895124D01*
X77098024Y-113895124D01*
X77219932Y-113870875D01*
X77334767Y-113823309D01*
X77438115Y-113754254D01*
X77526006Y-113666363D01*
X77595061Y-113563015D01*
X77642627Y-113448180D01*
X77666876Y-113326272D01*
X77666876Y-113201976D01*
X77642627Y-113080068D01*
X77595061Y-112965233D01*
X77526006Y-112861885D01*
X77438115Y-112773994D01*
X77334767Y-112704939D01*
X77219932Y-112657373D01*
X77126124Y-112638713D01*
X77126124Y-112465836D01*
X77829961Y-111762000D01*
X95155712Y-111762000D01*
X96017235Y-112623523D01*
X96012498Y-112632385D01*
X95957833Y-112812591D01*
X95939375Y-113000000D01*
X95957833Y-113187409D01*
X96012498Y-113367615D01*
X96101270Y-113533695D01*
X96220736Y-113679264D01*
X96366305Y-113798730D01*
X96532385Y-113887502D01*
X96712591Y-113942167D01*
X96853041Y-113956000D01*
X96946959Y-113956000D01*
X97087409Y-113942167D01*
X97267615Y-113887502D01*
X97433695Y-113798730D01*
X97579264Y-113679264D01*
X97698730Y-113533695D01*
X97787502Y-113367615D01*
X97842167Y-113187409D01*
X97860625Y-113000000D01*
X97842167Y-112812591D01*
X97787502Y-112632385D01*
X97698730Y-112466305D01*
X97579264Y-112320736D01*
X97433695Y-112201270D01*
X97267615Y-112112498D01*
X97087409Y-112057833D01*
X96946959Y-112044000D01*
X96853041Y-112044000D01*
X96712591Y-112057833D01*
X96532385Y-112112498D01*
X96523523Y-112117235D01*
X95764288Y-111358000D01*
X96009581Y-111358000D01*
X96012498Y-111367615D01*
X96101270Y-111533695D01*
X96220736Y-111679264D01*
X96366305Y-111798730D01*
X96532385Y-111887502D01*
X96712591Y-111942167D01*
X96853041Y-111956000D01*
X96946959Y-111956000D01*
X97087409Y-111942167D01*
X97267615Y-111887502D01*
X97433695Y-111798730D01*
X97579264Y-111679264D01*
X97698730Y-111533695D01*
X97787502Y-111367615D01*
X97842167Y-111187409D01*
X97860625Y-111000000D01*
X97842167Y-110812591D01*
X97787502Y-110632385D01*
X97698730Y-110466305D01*
X97579264Y-110320736D01*
X97433695Y-110201270D01*
X97267615Y-110112498D01*
X97087409Y-110057833D01*
X96946959Y-110044000D01*
X96853041Y-110044000D01*
X96712591Y-110057833D01*
X96532385Y-110112498D01*
X96366305Y-110201270D01*
X96220736Y-110320736D01*
X96101270Y-110466305D01*
X96012498Y-110632385D01*
X96009581Y-110642000D01*
X77531910Y-110642000D01*
X77514327Y-110640268D01*
X77496744Y-110642000D01*
X77496742Y-110642000D01*
X77444148Y-110647180D01*
X77376665Y-110667651D01*
X77347714Y-110683126D01*
X77314471Y-110700894D01*
X77273618Y-110734421D01*
X77273615Y-110734424D01*
X77259959Y-110745631D01*
X77248752Y-110759287D01*
X76123412Y-111884628D01*
X76109756Y-111895835D01*
X76098549Y-111909491D01*
X76098545Y-111909495D01*
X76065018Y-111950348D01*
X76031776Y-112012541D01*
X76011305Y-112080024D01*
X76004392Y-112150204D01*
X76006125Y-112167797D01*
X76006124Y-113416186D01*
X75961885Y-113445746D01*
X75873994Y-113533637D01*
X75804939Y-113636985D01*
X75757373Y-113751820D01*
X75733124Y-113873728D01*
X71805878Y-113873728D01*
X71852606Y-113827000D01*
X74200000Y-113827000D01*
X74224776Y-113824560D01*
X74248601Y-113817333D01*
X74270557Y-113805597D01*
X74289803Y-113789803D01*
X75489803Y-112589803D01*
X75505597Y-112570557D01*
X75517333Y-112548601D01*
X75524560Y-112524776D01*
X75527000Y-112500000D01*
X75527000Y-110352606D01*
X76879606Y-109000000D01*
X95939375Y-109000000D01*
X95957833Y-109187409D01*
X96012498Y-109367615D01*
X96101270Y-109533695D01*
X96220736Y-109679264D01*
X96366305Y-109798730D01*
X96532385Y-109887502D01*
X96712591Y-109942167D01*
X96853041Y-109956000D01*
X96946959Y-109956000D01*
X97087409Y-109942167D01*
X97267615Y-109887502D01*
X97433695Y-109798730D01*
X97579264Y-109679264D01*
X97698730Y-109533695D01*
X97787502Y-109367615D01*
X97842167Y-109187409D01*
X97860625Y-109000000D01*
X97842167Y-108812591D01*
X97787502Y-108632385D01*
X97698730Y-108466305D01*
X97579264Y-108320736D01*
X97433695Y-108201270D01*
X97267615Y-108112498D01*
X97087409Y-108057833D01*
X96946959Y-108044000D01*
X96853041Y-108044000D01*
X96712591Y-108057833D01*
X96532385Y-108112498D01*
X96366305Y-108201270D01*
X96220736Y-108320736D01*
X96101270Y-108466305D01*
X96012498Y-108632385D01*
X95957833Y-108812591D01*
X95939375Y-109000000D01*
X76879606Y-109000000D01*
X80252606Y-105627000D01*
X85971159Y-105627000D01*
X85969000Y-105637852D01*
X85969000Y-105762148D01*
X85993249Y-105884056D01*
X86040815Y-105998891D01*
X86109870Y-106102239D01*
X86197761Y-106190130D01*
X86301109Y-106259185D01*
X86415944Y-106306751D01*
X86537852Y-106331000D01*
X86662148Y-106331000D01*
X86784056Y-106306751D01*
X86789015Y-106304697D01*
X85459288Y-107634424D01*
X85445632Y-107645631D01*
X85434425Y-107659287D01*
X85434421Y-107659291D01*
X85400894Y-107700144D01*
X85367652Y-107762337D01*
X85367335Y-107763382D01*
X85297761Y-107809870D01*
X85209870Y-107897761D01*
X85140815Y-108001109D01*
X85093249Y-108115944D01*
X85069000Y-108237852D01*
X85069000Y-108362148D01*
X85093249Y-108484056D01*
X85140815Y-108598891D01*
X85209870Y-108702239D01*
X85297761Y-108790130D01*
X85401109Y-108859185D01*
X85515944Y-108906751D01*
X85637852Y-108931000D01*
X85762148Y-108931000D01*
X85884056Y-108906751D01*
X85998891Y-108859185D01*
X86102239Y-108790130D01*
X86190130Y-108702239D01*
X86259185Y-108598891D01*
X86306751Y-108484056D01*
X86331000Y-108362148D01*
X86331000Y-108237852D01*
X86306751Y-108115944D01*
X86259185Y-108001109D01*
X86197499Y-107908789D01*
X87448288Y-106658000D01*
X96004728Y-106658000D01*
X95957833Y-106812591D01*
X95939375Y-107000000D01*
X95957833Y-107187409D01*
X96012498Y-107367615D01*
X96101270Y-107533695D01*
X96220736Y-107679264D01*
X96366305Y-107798730D01*
X96532385Y-107887502D01*
X96712591Y-107942167D01*
X96853041Y-107956000D01*
X96946959Y-107956000D01*
X97087409Y-107942167D01*
X97267615Y-107887502D01*
X97433695Y-107798730D01*
X97579264Y-107679264D01*
X97698730Y-107533695D01*
X97787502Y-107367615D01*
X97842167Y-107187409D01*
X97860625Y-107000000D01*
X97842167Y-106812591D01*
X97787502Y-106632385D01*
X97698730Y-106466305D01*
X97579264Y-106320736D01*
X97433695Y-106201270D01*
X97267615Y-106112498D01*
X97087409Y-106057833D01*
X96946959Y-106044000D01*
X96853041Y-106044000D01*
X96712591Y-106057833D01*
X96532385Y-106112498D01*
X96523523Y-106117235D01*
X96465581Y-106059293D01*
X96454369Y-106045631D01*
X96399856Y-106000894D01*
X96398183Y-106000000D01*
X96399856Y-105999106D01*
X96454369Y-105954369D01*
X96465581Y-105940707D01*
X96523523Y-105882765D01*
X96532385Y-105887502D01*
X96712591Y-105942167D01*
X96853041Y-105956000D01*
X96946959Y-105956000D01*
X97087409Y-105942167D01*
X97267615Y-105887502D01*
X97433695Y-105798730D01*
X97579264Y-105679264D01*
X97698730Y-105533695D01*
X97787502Y-105367615D01*
X97842167Y-105187409D01*
X97860625Y-105000000D01*
X97842167Y-104812591D01*
X97787502Y-104632385D01*
X97784624Y-104627000D01*
X97900000Y-104627000D01*
X97924776Y-104624560D01*
X97948601Y-104617333D01*
X97970557Y-104605597D01*
X97989803Y-104589803D01*
X98005597Y-104570557D01*
X98017333Y-104548601D01*
X98024560Y-104524776D01*
X98027000Y-104500000D01*
X98027000Y-99952000D01*
X99798001Y-99952000D01*
X99798000Y-120048000D01*
M02*
