M48
; DRILL file {KiCad 5.1.4+dfsg1-1} date Mo 13 Apr 2020 22:05:48 CEST
; FORMAT={-:-/ absolute / inch / decimal}
; #@! TF.CreationDate,2020-04-13T22:05:48+02:00
; #@! TF.GenerationSoftware,Kicad,Pcbnew,5.1.4+dfsg1-1
; #@! TF.FileFunction,Plated,1,2,PTH
FMAT,2
INCH
T1C0.0157
T2C0.0315
T3C0.0394
%
G90
G05
T1
X2.0059Y-4.5748
X2.0079Y-4.6949
X2.0984Y-4.6732
X2.1732Y-4.6299
X2.2165Y-4.6299
X2.252Y-4.6732
X2.3898Y-4.5472
X2.3937Y-4.6575
X2.4449Y-4.6575
X2.4567Y-4.5433
X2.5512Y-4.6614
X2.5945Y-4.626
X2.7224Y-4.624
X2.7569Y-4.4104
X2.7835Y-4.6831
X2.7904Y-4.377
X2.8445Y-4.5177
X2.937Y-4.5906
X2.9469Y-4.5276
X2.9724Y-4.4665
X3.0065Y-4.4857
X3.0315Y-4.5345
X3.0329Y-4.4592
X3.0394Y-4.3425
X3.1181Y-4.626
X3.1181Y-4.7047
X3.128Y-4.315
X3.1654Y-4.7047
X3.1929Y-4.5413
X3.1949Y-4.4173
X3.2323Y-4.5512
X3.2421Y-4.25
X3.252Y-4.7087
X3.2933Y-4.2165
X3.3004Y-4.6929
X3.3307Y-4.4134
X3.3346Y-4.6969
X3.3425Y-4.563
X3.3701Y-4.5157
X3.374Y-4.2638
X3.4094Y-4.1614
X3.4094Y-4.3228
X3.4134Y-4.6496
X3.4488Y-4.689
X3.4606Y-4.2382
X3.4941Y-4.498
X3.5138Y-4.2894
X3.5138Y-4.624
X3.5315Y-4.1102
X3.5315Y-4.4921
X3.563Y-4.2421
X3.5709Y-4.687
X3.5906Y-4.3386
X3.6339Y-4.4921
X3.6339Y-4.5315
X3.6339Y-4.5945
X3.6339Y-4.6299
X3.6496Y-4.2402
X3.7126Y-4.6555
X3.7205Y-4.126
X3.7323Y-4.2146
X3.7362Y-4.3209
X3.7539Y-4.5217
X3.7657Y-4.6949
T2
X3.815Y-3.9764
X3.815Y-4.0551
X3.815Y-4.1339
X3.815Y-4.2126
X3.815Y-4.2913
X3.815Y-4.3701
X3.815Y-4.4488
X3.815Y-4.5276
X3.815Y-4.6063
X3.815Y-4.685
T3
X2.1299Y-4.1803
X2.1299Y-4.2803
X2.1299Y-4.3803
X2.1299Y-4.4803
X2.6142Y-4.0394
X2.6142Y-4.2362
T0
M30
