G04 #@! TF.GenerationSoftware,KiCad,Pcbnew,5.1.4+dfsg1-1*
G04 #@! TF.CreationDate,2020-04-13T21:56:05+02:00*
G04 #@! TF.ProjectId,USB_conn,5553425f-636f-46e6-9e2e-6b696361645f,rev?*
G04 #@! TF.SameCoordinates,Original*
G04 #@! TF.FileFunction,Copper,L2,Bot*
G04 #@! TF.FilePolarity,Positive*
%FSLAX46Y46*%
G04 Gerber Fmt 4.6, Leading zero omitted, Abs format (unit mm)*
G04 Created by KiCad (PCBNEW 5.1.4+dfsg1-1) date 2020-04-13 21:56:05*
%MOMM*%
%LPD*%
G04 APERTURE LIST*
%ADD10O,1.350000X1.350000*%
%ADD11R,1.350000X1.350000*%
%ADD12C,0.600000*%
%ADD13C,0.200000*%
%ADD14C,0.254000*%
G04 APERTURE END LIST*
D10*
X91000000Y-91500000D03*
X91000000Y-93500000D03*
X91000000Y-95500000D03*
X91000000Y-97500000D03*
X91000000Y-99500000D03*
X91000000Y-101500000D03*
X91000000Y-103500000D03*
X91000000Y-105500000D03*
X91000000Y-107500000D03*
D11*
X91000000Y-109500000D03*
D12*
X102000000Y-90900000D03*
X101100000Y-91700000D03*
X102000000Y-93000000D03*
X101100000Y-93800000D03*
X103700000Y-93000000D03*
X102800000Y-93800000D03*
X103700000Y-90900000D03*
X102800000Y-91700000D03*
X104050000Y-100950000D03*
D13*
X103200000Y-105500000D02*
X97000000Y-105500000D01*
X97000000Y-105500000D02*
X91000000Y-99500000D01*
X104050000Y-100950000D02*
X104050000Y-104650000D01*
X104050000Y-104650000D02*
X103200000Y-105500000D01*
D14*
G36*
X107273000Y-93973000D02*
G01*
X103300000Y-93973000D01*
X103275224Y-93975440D01*
X103251399Y-93982667D01*
X103229443Y-93994403D01*
X103210197Y-94010197D01*
X102847394Y-94373000D01*
X90127000Y-94373000D01*
X90127000Y-92727000D01*
X92700000Y-92727000D01*
X92724776Y-92724560D01*
X92748601Y-92717333D01*
X92770557Y-92705597D01*
X92789803Y-92689803D01*
X92852606Y-92627000D01*
X107273000Y-92627000D01*
X107273000Y-93973000D01*
X107273000Y-93973000D01*
G37*
X107273000Y-93973000D02*
X103300000Y-93973000D01*
X103275224Y-93975440D01*
X103251399Y-93982667D01*
X103229443Y-93994403D01*
X103210197Y-94010197D01*
X102847394Y-94373000D01*
X90127000Y-94373000D01*
X90127000Y-92727000D01*
X92700000Y-92727000D01*
X92724776Y-92724560D01*
X92748601Y-92717333D01*
X92770557Y-92705597D01*
X92789803Y-92689803D01*
X92852606Y-92627000D01*
X107273000Y-92627000D01*
X107273000Y-93973000D01*
G36*
X107273000Y-91973000D02*
G01*
X92400000Y-91973000D01*
X92375224Y-91975440D01*
X92351399Y-91982667D01*
X92329443Y-91994403D01*
X92310197Y-92010197D01*
X92047394Y-92273000D01*
X90127000Y-92273000D01*
X90127000Y-90627000D01*
X107273000Y-90627000D01*
X107273000Y-91973000D01*
X107273000Y-91973000D01*
G37*
X107273000Y-91973000D02*
X92400000Y-91973000D01*
X92375224Y-91975440D01*
X92351399Y-91982667D01*
X92329443Y-91994403D01*
X92310197Y-92010197D01*
X92047394Y-92273000D01*
X90127000Y-92273000D01*
X90127000Y-90627000D01*
X107273000Y-90627000D01*
X107273000Y-91973000D01*
M02*
