G04 #@! TF.GenerationSoftware,KiCad,Pcbnew,5.1.4+dfsg1-1*
G04 #@! TF.CreationDate,2020-04-13T21:56:05+02:00*
G04 #@! TF.ProjectId,USB_conn,5553425f-636f-46e6-9e2e-6b696361645f,rev?*
G04 #@! TF.SameCoordinates,Original*
G04 #@! TF.FileFunction,Copper,L1,Top*
G04 #@! TF.FilePolarity,Positive*
%FSLAX46Y46*%
G04 Gerber Fmt 4.6, Leading zero omitted, Abs format (unit mm)*
G04 Created by KiCad (PCBNEW 5.1.4+dfsg1-1) date 2020-04-13 21:56:05*
%MOMM*%
%LPD*%
G04 APERTURE LIST*
%ADD10R,3.000000X1.000000*%
%ADD11R,3.000000X0.750000*%
%ADD12R,3.000000X1.500000*%
%ADD13O,1.350000X1.350000*%
%ADD14R,1.350000X1.350000*%
%ADD15C,0.600000*%
%ADD16C,0.200000*%
%ADD17C,0.500000*%
%ADD18C,0.254000*%
G04 APERTURE END LIST*
D10*
X105900000Y-110000000D03*
X105900000Y-108500000D03*
X105900000Y-107000000D03*
X105900000Y-103400000D03*
X105900000Y-101900000D03*
X105900000Y-100400000D03*
D11*
X105900000Y-98800000D03*
X105900000Y-97550000D03*
D12*
X105900000Y-93300000D03*
X105900000Y-91300000D03*
D13*
X91000000Y-91500000D03*
X91000000Y-93500000D03*
X91000000Y-95500000D03*
X91000000Y-97500000D03*
X91000000Y-99500000D03*
X91000000Y-101500000D03*
X91000000Y-103500000D03*
X91000000Y-105500000D03*
X91000000Y-107500000D03*
D14*
X91000000Y-109500000D03*
D15*
X102000000Y-90900000D03*
X101100000Y-91700000D03*
X102000000Y-93000000D03*
X101100000Y-93800000D03*
X103700000Y-93000000D03*
X102800000Y-93800000D03*
X103700000Y-90900000D03*
X102800000Y-91700000D03*
X104050000Y-100950000D03*
D16*
X91500000Y-110000000D02*
X91000000Y-109500000D01*
X105900000Y-110000000D02*
X91500000Y-110000000D01*
X92000000Y-108500000D02*
X91000000Y-107500000D01*
X105900000Y-108500000D02*
X92000000Y-108500000D01*
D17*
X92500000Y-107000000D02*
X91000000Y-105500000D01*
X105900000Y-107000000D02*
X92500000Y-107000000D01*
D16*
X93700000Y-106200000D02*
X91674999Y-104174999D01*
X104200000Y-106200000D02*
X93700000Y-106200000D01*
X105900000Y-103400000D02*
X105900000Y-104500000D01*
X91674999Y-104174999D02*
X91000000Y-103500000D01*
X105900000Y-104500000D02*
X104200000Y-106200000D01*
X104900000Y-101900000D02*
X104000000Y-102800000D01*
X105900000Y-101900000D02*
X104900000Y-101900000D01*
X104000000Y-102800000D02*
X104000000Y-104700000D01*
X91674999Y-102174999D02*
X91000000Y-101500000D01*
X95233670Y-105733670D02*
X91674999Y-102174999D01*
X102966329Y-105733670D02*
X95233670Y-105733670D01*
X104000000Y-104700000D02*
X102966329Y-105733670D01*
X104050000Y-100550000D02*
X104050000Y-100950000D01*
X105900000Y-100400000D02*
X104200000Y-100400000D01*
X104200000Y-100400000D02*
X104050000Y-100550000D01*
X104734998Y-98800000D02*
X105900000Y-98800000D01*
X104099999Y-98165001D02*
X104734998Y-98800000D01*
X104099999Y-96999999D02*
X104099999Y-98165001D01*
X103908814Y-96808814D02*
X104099999Y-96999999D01*
X91775000Y-96725000D02*
X95993200Y-96725000D01*
X95993200Y-96725000D02*
X97193200Y-95525000D01*
X103908814Y-96077014D02*
X103908814Y-96808814D01*
X91000000Y-97500000D02*
X91775000Y-96725000D01*
X97193200Y-95525000D02*
X103356800Y-95525000D01*
X103356800Y-95525000D02*
X103908814Y-96077014D01*
X91775000Y-96275000D02*
X95806800Y-96275000D01*
X95806800Y-96275000D02*
X97006800Y-95075000D01*
X91000000Y-95500000D02*
X91775000Y-96275000D01*
X97006800Y-95075000D02*
X103543200Y-95075000D01*
X103543200Y-95075000D02*
X104358814Y-95890614D01*
X104358814Y-96622417D02*
X105286397Y-97550000D01*
X105286397Y-97550000D02*
X105900000Y-97550000D01*
X104358814Y-95890614D02*
X104358814Y-96622417D01*
D18*
G36*
X107273000Y-91973000D02*
G01*
X92400000Y-91973000D01*
X92375224Y-91975440D01*
X92351399Y-91982667D01*
X92329443Y-91994403D01*
X92310197Y-92010197D01*
X92047394Y-92273000D01*
X90127000Y-92273000D01*
X90127000Y-90627000D01*
X107273000Y-90627000D01*
X107273000Y-91973000D01*
X107273000Y-91973000D01*
G37*
X107273000Y-91973000D02*
X92400000Y-91973000D01*
X92375224Y-91975440D01*
X92351399Y-91982667D01*
X92329443Y-91994403D01*
X92310197Y-92010197D01*
X92047394Y-92273000D01*
X90127000Y-92273000D01*
X90127000Y-90627000D01*
X107273000Y-90627000D01*
X107273000Y-91973000D01*
G36*
X107273000Y-93973000D02*
G01*
X103300000Y-93973000D01*
X103275224Y-93975440D01*
X103251399Y-93982667D01*
X103229443Y-93994403D01*
X103210197Y-94010197D01*
X102847394Y-94373000D01*
X90127000Y-94373000D01*
X90127000Y-92727000D01*
X92700000Y-92727000D01*
X92724776Y-92724560D01*
X92748601Y-92717333D01*
X92770557Y-92705597D01*
X92789803Y-92689803D01*
X92852606Y-92627000D01*
X107273000Y-92627000D01*
X107273000Y-93973000D01*
X107273000Y-93973000D01*
G37*
X107273000Y-93973000D02*
X103300000Y-93973000D01*
X103275224Y-93975440D01*
X103251399Y-93982667D01*
X103229443Y-93994403D01*
X103210197Y-94010197D01*
X102847394Y-94373000D01*
X90127000Y-94373000D01*
X90127000Y-92727000D01*
X92700000Y-92727000D01*
X92724776Y-92724560D01*
X92748601Y-92717333D01*
X92770557Y-92705597D01*
X92789803Y-92689803D01*
X92852606Y-92627000D01*
X107273000Y-92627000D01*
X107273000Y-93973000D01*
M02*
