G04 #@! TF.GenerationSoftware,KiCad,Pcbnew,(6.0.0-rc1-dev-1-g01c5bdfb8)*
G04 #@! TF.CreationDate,2018-11-23T11:25:08+01:00*
G04 #@! TF.ProjectId,TS100C,5453313030432E6B696361645F706362,rev?*
G04 #@! TF.SameCoordinates,Original*
G04 #@! TF.FileFunction,Legend,Bot*
G04 #@! TF.FilePolarity,Positive*
%FSLAX46Y46*%
G04 Gerber Fmt 4.6, Leading zero omitted, Abs format (unit mm)*
G04 Created by KiCad (PCBNEW (6.0.0-rc1-dev-1-g01c5bdfb8)) date Fri Nov 23 11:25:08 2018*
%MOMM*%
%LPD*%
G01*
G04 APERTURE LIST*
%ADD10C,0.120000*%
%ADD11C,0.050000*%
G04 APERTURE END LIST*
D10*
G04 #@! TO.C,SW2*
X156475000Y-82800000D02*
X156475000Y-87200000D01*
X156475000Y-87200000D02*
X156355000Y-87200000D01*
X155345000Y-87200000D02*
X154205000Y-87200000D01*
X153195000Y-87200000D02*
X153075000Y-87200000D01*
X153075000Y-87200000D02*
X153075000Y-82800000D01*
X153075000Y-82800000D02*
X153195000Y-82800000D01*
X154205000Y-82800000D02*
X155345000Y-82800000D01*
X156355000Y-82800000D02*
X156475000Y-82800000D01*
G04 #@! TO.C,SW1*
X142700000Y-86580000D02*
X142700000Y-86700000D01*
X142700000Y-84430000D02*
X142700000Y-85570000D01*
X142700000Y-83300000D02*
X142700000Y-83420000D01*
X138300000Y-83300000D02*
X142700000Y-83300000D01*
X138300000Y-83420000D02*
X138300000Y-83300000D01*
X138300000Y-85570000D02*
X138300000Y-84430000D01*
X138300000Y-86700000D02*
X138300000Y-86580000D01*
X142700000Y-86700000D02*
X138300000Y-86700000D01*
G04 #@! TO.C,J1*
X91170000Y-81750000D02*
X91170000Y-80250000D01*
X91170000Y-80250000D02*
X83910000Y-80250000D01*
X91170000Y-89750000D02*
X83910000Y-89750000D01*
X91170000Y-89750000D02*
X91170000Y-88250000D01*
G04 #@! TO.C,SW2*
D11*
X156321428Y-84600000D02*
X156335714Y-84642857D01*
X156335714Y-84714285D01*
X156321428Y-84742857D01*
X156307142Y-84757142D01*
X156278571Y-84771428D01*
X156250000Y-84771428D01*
X156221428Y-84757142D01*
X156207142Y-84742857D01*
X156192857Y-84714285D01*
X156178571Y-84657142D01*
X156164285Y-84628571D01*
X156150000Y-84614285D01*
X156121428Y-84600000D01*
X156092857Y-84600000D01*
X156064285Y-84614285D01*
X156050000Y-84628571D01*
X156035714Y-84657142D01*
X156035714Y-84728571D01*
X156050000Y-84771428D01*
X156035714Y-84871428D02*
X156335714Y-84942857D01*
X156121428Y-85000000D01*
X156335714Y-85057142D01*
X156035714Y-85128571D01*
X156064285Y-85228571D02*
X156050000Y-85242857D01*
X156035714Y-85271428D01*
X156035714Y-85342857D01*
X156050000Y-85371428D01*
X156064285Y-85385714D01*
X156092857Y-85400000D01*
X156121428Y-85400000D01*
X156164285Y-85385714D01*
X156335714Y-85214285D01*
X156335714Y-85400000D01*
G04 #@! TO.C,SW1*
X140875000Y-86546428D02*
X140832142Y-86560714D01*
X140760714Y-86560714D01*
X140732142Y-86546428D01*
X140717857Y-86532142D01*
X140703571Y-86503571D01*
X140703571Y-86475000D01*
X140717857Y-86446428D01*
X140732142Y-86432142D01*
X140760714Y-86417857D01*
X140817857Y-86403571D01*
X140846428Y-86389285D01*
X140860714Y-86375000D01*
X140875000Y-86346428D01*
X140875000Y-86317857D01*
X140860714Y-86289285D01*
X140846428Y-86275000D01*
X140817857Y-86260714D01*
X140746428Y-86260714D01*
X140703571Y-86275000D01*
X140603571Y-86260714D02*
X140532142Y-86560714D01*
X140475000Y-86346428D01*
X140417857Y-86560714D01*
X140346428Y-86260714D01*
X140075000Y-86560714D02*
X140246428Y-86560714D01*
X140160714Y-86560714D02*
X140160714Y-86260714D01*
X140189285Y-86303571D01*
X140217857Y-86332142D01*
X140246428Y-86346428D01*
G04 #@! TO.C,J1*
X91835714Y-84900000D02*
X92050000Y-84900000D01*
X92092857Y-84885714D01*
X92121428Y-84857142D01*
X92135714Y-84814285D01*
X92135714Y-84785714D01*
X92135714Y-85200000D02*
X92135714Y-85028571D01*
X92135714Y-85114285D02*
X91835714Y-85114285D01*
X91878571Y-85085714D01*
X91907142Y-85057142D01*
X91921428Y-85028571D01*
G04 #@! TO.C,J2*
X123335714Y-84900000D02*
X123550000Y-84900000D01*
X123592857Y-84885714D01*
X123621428Y-84857142D01*
X123635714Y-84814285D01*
X123635714Y-84785714D01*
X123364285Y-85028571D02*
X123350000Y-85042857D01*
X123335714Y-85071428D01*
X123335714Y-85142857D01*
X123350000Y-85171428D01*
X123364285Y-85185714D01*
X123392857Y-85200000D01*
X123421428Y-85200000D01*
X123464285Y-85185714D01*
X123635714Y-85014285D01*
X123635714Y-85200000D01*
G04 #@! TO.C,C12*
X128442857Y-83057142D02*
X128457142Y-83071428D01*
X128500000Y-83085714D01*
X128528571Y-83085714D01*
X128571428Y-83071428D01*
X128600000Y-83042857D01*
X128614285Y-83014285D01*
X128628571Y-82957142D01*
X128628571Y-82914285D01*
X128614285Y-82857142D01*
X128600000Y-82828571D01*
X128571428Y-82800000D01*
X128528571Y-82785714D01*
X128500000Y-82785714D01*
X128457142Y-82800000D01*
X128442857Y-82814285D01*
X128157142Y-83085714D02*
X128328571Y-83085714D01*
X128242857Y-83085714D02*
X128242857Y-82785714D01*
X128271428Y-82828571D01*
X128300000Y-82857142D01*
X128328571Y-82871428D01*
X128042857Y-82814285D02*
X128028571Y-82800000D01*
X128000000Y-82785714D01*
X127928571Y-82785714D01*
X127900000Y-82800000D01*
X127885714Y-82814285D01*
X127871428Y-82842857D01*
X127871428Y-82871428D01*
X127885714Y-82914285D01*
X128057142Y-83085714D01*
X127871428Y-83085714D01*
G04 #@! TO.C,C13*
X129607142Y-87832142D02*
X129621428Y-87817857D01*
X129635714Y-87775000D01*
X129635714Y-87746428D01*
X129621428Y-87703571D01*
X129592857Y-87675000D01*
X129564285Y-87660714D01*
X129507142Y-87646428D01*
X129464285Y-87646428D01*
X129407142Y-87660714D01*
X129378571Y-87675000D01*
X129350000Y-87703571D01*
X129335714Y-87746428D01*
X129335714Y-87775000D01*
X129350000Y-87817857D01*
X129364285Y-87832142D01*
X129635714Y-88117857D02*
X129635714Y-87946428D01*
X129635714Y-88032142D02*
X129335714Y-88032142D01*
X129378571Y-88003571D01*
X129407142Y-87975000D01*
X129421428Y-87946428D01*
X129335714Y-88217857D02*
X129335714Y-88403571D01*
X129450000Y-88303571D01*
X129450000Y-88346428D01*
X129464285Y-88375000D01*
X129478571Y-88389285D01*
X129507142Y-88403571D01*
X129578571Y-88403571D01*
X129607142Y-88389285D01*
X129621428Y-88375000D01*
X129635714Y-88346428D01*
X129635714Y-88260714D01*
X129621428Y-88232142D01*
X129607142Y-88217857D01*
G04 #@! TO.C,C14*
X128467857Y-81832142D02*
X128482142Y-81846428D01*
X128525000Y-81860714D01*
X128553571Y-81860714D01*
X128596428Y-81846428D01*
X128625000Y-81817857D01*
X128639285Y-81789285D01*
X128653571Y-81732142D01*
X128653571Y-81689285D01*
X128639285Y-81632142D01*
X128625000Y-81603571D01*
X128596428Y-81575000D01*
X128553571Y-81560714D01*
X128525000Y-81560714D01*
X128482142Y-81575000D01*
X128467857Y-81589285D01*
X128182142Y-81860714D02*
X128353571Y-81860714D01*
X128267857Y-81860714D02*
X128267857Y-81560714D01*
X128296428Y-81603571D01*
X128325000Y-81632142D01*
X128353571Y-81646428D01*
X127925000Y-81660714D02*
X127925000Y-81860714D01*
X127996428Y-81546428D02*
X128067857Y-81760714D01*
X127882142Y-81760714D01*
G04 #@! TO.C,C15*
X129607142Y-88807142D02*
X129621428Y-88792857D01*
X129635714Y-88750000D01*
X129635714Y-88721428D01*
X129621428Y-88678571D01*
X129592857Y-88650000D01*
X129564285Y-88635714D01*
X129507142Y-88621428D01*
X129464285Y-88621428D01*
X129407142Y-88635714D01*
X129378571Y-88650000D01*
X129350000Y-88678571D01*
X129335714Y-88721428D01*
X129335714Y-88750000D01*
X129350000Y-88792857D01*
X129364285Y-88807142D01*
X129635714Y-89092857D02*
X129635714Y-88921428D01*
X129635714Y-89007142D02*
X129335714Y-89007142D01*
X129378571Y-88978571D01*
X129407142Y-88950000D01*
X129421428Y-88921428D01*
X129335714Y-89364285D02*
X129335714Y-89221428D01*
X129478571Y-89207142D01*
X129464285Y-89221428D01*
X129450000Y-89250000D01*
X129450000Y-89321428D01*
X129464285Y-89350000D01*
X129478571Y-89364285D01*
X129507142Y-89378571D01*
X129578571Y-89378571D01*
X129607142Y-89364285D01*
X129621428Y-89350000D01*
X129635714Y-89321428D01*
X129635714Y-89250000D01*
X129621428Y-89221428D01*
X129607142Y-89207142D01*
G04 #@! TO.C,R10*
X129610714Y-84832142D02*
X129467857Y-84732142D01*
X129610714Y-84660714D02*
X129310714Y-84660714D01*
X129310714Y-84775000D01*
X129325000Y-84803571D01*
X129339285Y-84817857D01*
X129367857Y-84832142D01*
X129410714Y-84832142D01*
X129439285Y-84817857D01*
X129453571Y-84803571D01*
X129467857Y-84775000D01*
X129467857Y-84660714D01*
X129610714Y-85117857D02*
X129610714Y-84946428D01*
X129610714Y-85032142D02*
X129310714Y-85032142D01*
X129353571Y-85003571D01*
X129382142Y-84975000D01*
X129396428Y-84946428D01*
X129310714Y-85303571D02*
X129310714Y-85332142D01*
X129325000Y-85360714D01*
X129339285Y-85375000D01*
X129367857Y-85389285D01*
X129425000Y-85403571D01*
X129496428Y-85403571D01*
X129553571Y-85389285D01*
X129582142Y-85375000D01*
X129596428Y-85360714D01*
X129610714Y-85332142D01*
X129610714Y-85303571D01*
X129596428Y-85275000D01*
X129582142Y-85260714D01*
X129553571Y-85246428D01*
X129496428Y-85232142D01*
X129425000Y-85232142D01*
X129367857Y-85246428D01*
X129339285Y-85260714D01*
X129325000Y-85275000D01*
X129310714Y-85303571D01*
G04 #@! TO.C,R11*
X129610714Y-86832142D02*
X129467857Y-86732142D01*
X129610714Y-86660714D02*
X129310714Y-86660714D01*
X129310714Y-86775000D01*
X129325000Y-86803571D01*
X129339285Y-86817857D01*
X129367857Y-86832142D01*
X129410714Y-86832142D01*
X129439285Y-86817857D01*
X129453571Y-86803571D01*
X129467857Y-86775000D01*
X129467857Y-86660714D01*
X129610714Y-87117857D02*
X129610714Y-86946428D01*
X129610714Y-87032142D02*
X129310714Y-87032142D01*
X129353571Y-87003571D01*
X129382142Y-86975000D01*
X129396428Y-86946428D01*
X129610714Y-87403571D02*
X129610714Y-87232142D01*
X129610714Y-87317857D02*
X129310714Y-87317857D01*
X129353571Y-87289285D01*
X129382142Y-87260714D01*
X129396428Y-87232142D01*
G04 #@! TO.C,R13*
X129610714Y-85832142D02*
X129467857Y-85732142D01*
X129610714Y-85660714D02*
X129310714Y-85660714D01*
X129310714Y-85775000D01*
X129325000Y-85803571D01*
X129339285Y-85817857D01*
X129367857Y-85832142D01*
X129410714Y-85832142D01*
X129439285Y-85817857D01*
X129453571Y-85803571D01*
X129467857Y-85775000D01*
X129467857Y-85660714D01*
X129610714Y-86117857D02*
X129610714Y-85946428D01*
X129610714Y-86032142D02*
X129310714Y-86032142D01*
X129353571Y-86003571D01*
X129382142Y-85975000D01*
X129396428Y-85946428D01*
X129310714Y-86217857D02*
X129310714Y-86403571D01*
X129425000Y-86303571D01*
X129425000Y-86346428D01*
X129439285Y-86375000D01*
X129453571Y-86389285D01*
X129482142Y-86403571D01*
X129553571Y-86403571D01*
X129582142Y-86389285D01*
X129596428Y-86375000D01*
X129610714Y-86346428D01*
X129610714Y-86260714D01*
X129596428Y-86232142D01*
X129582142Y-86217857D01*
G04 #@! TD*
M02*
