G04 #@! TF.GenerationSoftware,KiCad,Pcbnew,(6.0.0-rc1-dev-1-g01c5bdfb8)*
G04 #@! TF.CreationDate,2018-11-23T11:25:08+01:00*
G04 #@! TF.ProjectId,TS100C,5453313030432E6B696361645F706362,rev?*
G04 #@! TF.SameCoordinates,Original*
G04 #@! TF.FileFunction,Copper,L2,Inr,Plane*
G04 #@! TF.FilePolarity,Positive*
%FSLAX46Y46*%
G04 Gerber Fmt 4.6, Leading zero omitted, Abs format (unit mm)*
G04 Created by KiCad (PCBNEW (6.0.0-rc1-dev-1-g01c5bdfb8)) date Fri Nov 23 11:25:08 2018*
%MOMM*%
%LPD*%
G01*
G04 APERTURE LIST*
G04 #@! TA.AperFunction,ViaPad*
%ADD10R,5.000000X3.960000*%
G04 #@! TD*
G04 #@! TA.AperFunction,ViaPad*
%ADD11O,1.400000X0.800000*%
G04 #@! TD*
G04 #@! TA.AperFunction,ViaPad*
%ADD12C,0.650000*%
G04 #@! TD*
G04 #@! TA.AperFunction,ViaPad*
%ADD13C,2.000000*%
G04 #@! TD*
G04 #@! TA.AperFunction,ViaPad*
%ADD14C,0.600000*%
G04 #@! TD*
G04 #@! TA.AperFunction,ViaPad*
%ADD15C,0.700000*%
G04 #@! TD*
G04 #@! TA.AperFunction,Conductor*
%ADD16C,0.154000*%
G04 #@! TD*
G04 #@! TA.AperFunction,Conductor*
%ADD17C,0.254000*%
G04 #@! TD*
G04 APERTURE END LIST*
D10*
G04 #@! TO.N,GND*
G04 #@! TO.C,J4*
X161000000Y-85000000D03*
G04 #@! TD*
D11*
G04 #@! TO.N,GND*
G04 #@! TO.C,J1*
X88910000Y-89130000D03*
X88910000Y-80870000D03*
X82960000Y-80510000D03*
X82960000Y-89490000D03*
D12*
X89510000Y-82200000D03*
G04 #@! TO.N,VBUS*
X89510000Y-83800000D03*
G04 #@! TO.N,USB_P*
X89510000Y-84600000D03*
G04 #@! TO.N,USB_N*
X89510000Y-85400000D03*
G04 #@! TO.N,VBUS*
X89510000Y-86200000D03*
G04 #@! TO.N,GND*
X89510000Y-87800000D03*
G04 #@! TO.N,Net-(J1-PadB2)*
X88810000Y-82600000D03*
G04 #@! TO.N,Net-(J1-PadB3)*
X88810000Y-83400000D03*
G04 #@! TO.N,CC2*
X88810000Y-84200000D03*
G04 #@! TO.N,Net-(J1-PadB8)*
X88810000Y-85800000D03*
G04 #@! TO.N,Net-(J1-PadB10)*
X88810000Y-86600000D03*
G04 #@! TO.N,Net-(J1-PadB11)*
X88810000Y-87400000D03*
G04 #@! TD*
D13*
G04 #@! TO.N,/OUT*
G04 #@! TO.C,J3*
X152000000Y-87400000D03*
X152000000Y-82600000D03*
G04 #@! TD*
D14*
G04 #@! TO.N,GND*
X98500000Y-82300000D03*
X117850000Y-83700000D03*
X116350000Y-83700000D03*
X117900000Y-82200000D03*
X116300000Y-82200000D03*
X97700000Y-82300000D03*
X97700000Y-83100000D03*
X98500000Y-83100000D03*
X110350000Y-82700000D03*
X110350000Y-87300000D03*
X105750000Y-87300000D03*
X156504168Y-84150000D03*
X146450000Y-88400000D03*
X147200000Y-88400000D03*
X147950000Y-88400000D03*
X148700000Y-88400000D03*
X142300000Y-85050000D03*
X136950000Y-85300000D03*
X98950000Y-86700000D03*
X92250000Y-82475000D03*
X93225000Y-87200000D03*
X119875000Y-89300000D03*
X105755086Y-82731010D03*
X133768990Y-83729792D03*
X112750000Y-84800000D03*
X129500000Y-87000000D03*
D15*
X126725000Y-84275000D03*
X140650000Y-86775000D03*
D14*
G04 #@! TO.N,OLED_PULLUP*
X114800000Y-84099996D03*
G04 #@! TO.N,OLED_SDA*
X119825000Y-85525000D03*
D15*
G04 #@! TO.N,VBUS*
X140600000Y-82200000D03*
X140600000Y-81400000D03*
X139800000Y-81400000D03*
X139800000Y-82200000D03*
X139000000Y-82200000D03*
X139000000Y-81400000D03*
X138200000Y-81400000D03*
X138200000Y-82200000D03*
D14*
X117900000Y-84900000D03*
X97900000Y-84800000D03*
X118586802Y-84887682D03*
D15*
X139800000Y-82960979D03*
X138200000Y-82960979D03*
X139000000Y-82960979D03*
X140600000Y-82960979D03*
D14*
G04 #@! TO.N,OLED_SCL*
X120650000Y-85625000D03*
G04 #@! TO.N,+3V3*
X155200000Y-87400000D03*
X142262500Y-88900000D03*
X94825000Y-81975000D03*
X97850000Y-85875000D03*
X104425000Y-80775000D03*
X116925000Y-89050000D03*
X115550000Y-89175000D03*
X112075000Y-88500000D03*
X106850000Y-80837052D03*
X118350000Y-80968990D03*
X117650000Y-80968990D03*
X116950000Y-80968990D03*
X117000000Y-84950000D03*
X101700000Y-87450000D03*
D15*
X131125000Y-88650000D03*
X123314163Y-83964163D03*
X122575000Y-81650000D03*
X123400000Y-85675000D03*
X140300000Y-85050000D03*
D14*
G04 #@! TO.N,SDA*
X102999992Y-84950000D03*
X103000000Y-86499994D03*
G04 #@! TO.N,CC2*
X95800000Y-86100000D03*
X97025000Y-84950000D03*
G04 #@! TO.N,CC1*
X95400000Y-82700000D03*
G04 #@! TO.N,Net-(SW1-Pad2)*
X103550000Y-82200000D03*
X135550000Y-82031010D03*
G04 #@! TO.N,SWDIO*
X109800000Y-89350000D03*
X115600000Y-87264021D03*
G04 #@! TO.N,PWM*
X119650000Y-86600000D03*
X130400000Y-87550000D03*
G04 #@! TO.N,TTIP*
X105350000Y-80650000D03*
X130123424Y-80653152D03*
G04 #@! TO.N,TREF*
X106139915Y-80546399D03*
X154800000Y-81650000D03*
G04 #@! TO.N,Net-(SW2-Pad2)*
X103500000Y-83050000D03*
X134600000Y-81118990D03*
X153850000Y-81029000D03*
G04 #@! TO.N,USB_P*
X91994527Y-85449994D03*
X92000000Y-83700000D03*
G04 #@! TO.N,USB_N*
X92000000Y-84600000D03*
G04 #@! TD*
D16*
G04 #@! TO.N,TTIP*
X129800000Y-80350000D02*
X130100000Y-80650000D01*
X105400000Y-80700000D02*
X105400000Y-80750000D01*
X105350000Y-80650000D02*
X105400000Y-80700000D01*
X107100000Y-81400000D02*
X108150000Y-80350000D01*
X108150000Y-80350000D02*
X129800000Y-80350000D01*
X105400000Y-80750000D02*
X106050000Y-81400000D01*
X106050000Y-81400000D02*
X107100000Y-81400000D01*
G04 #@! TO.N,Net-(SW2-Pad2)*
X103500000Y-83050000D02*
X104800000Y-81750000D01*
X104800000Y-81750000D02*
X107450000Y-81750000D01*
X107450000Y-81750000D02*
X108300000Y-80900000D01*
X108300000Y-80900000D02*
X115850000Y-80900000D01*
X115850000Y-80900000D02*
X116450000Y-81500000D01*
X116450000Y-81500000D02*
X119050000Y-81500000D01*
X119050000Y-81500000D02*
X119750000Y-80800000D01*
X119750000Y-80800000D02*
X129250000Y-80800000D01*
X129250000Y-80800000D02*
X129400000Y-80800000D01*
X134300001Y-81418989D02*
X134600000Y-81118990D01*
X129250000Y-80800000D02*
X129868989Y-81418989D01*
X129868989Y-81418989D02*
X134300001Y-81418989D01*
G04 #@! TD*
D17*
G04 #@! TO.N,VBUS*
G36*
X103770171Y-80576360D02*
X103744000Y-80707927D01*
X103744000Y-80842073D01*
X103770171Y-80973640D01*
X103821506Y-81097574D01*
X103896033Y-81209112D01*
X103990888Y-81303967D01*
X104102426Y-81378494D01*
X104226360Y-81429829D01*
X104357927Y-81456000D01*
X104446290Y-81456000D01*
X104101972Y-81800318D01*
X104078967Y-81765888D01*
X103984112Y-81671033D01*
X103872574Y-81596506D01*
X103748640Y-81545171D01*
X103617073Y-81519000D01*
X103482927Y-81519000D01*
X103351360Y-81545171D01*
X103227426Y-81596506D01*
X103115888Y-81671033D01*
X103021033Y-81765888D01*
X102946506Y-81877426D01*
X102895171Y-82001360D01*
X102869000Y-82132927D01*
X102869000Y-82267073D01*
X102895171Y-82398640D01*
X102946506Y-82522574D01*
X102993706Y-82593215D01*
X102971033Y-82615888D01*
X102896506Y-82727426D01*
X102845171Y-82851360D01*
X102819000Y-82982927D01*
X102819000Y-83117073D01*
X102845171Y-83248640D01*
X102896506Y-83372574D01*
X102971033Y-83484112D01*
X103065888Y-83578967D01*
X103177426Y-83653494D01*
X103301360Y-83704829D01*
X103432927Y-83731000D01*
X103567073Y-83731000D01*
X103698640Y-83704829D01*
X103822574Y-83653494D01*
X103934112Y-83578967D01*
X104028967Y-83484112D01*
X104103494Y-83372574D01*
X104154829Y-83248640D01*
X104181000Y-83117073D01*
X104181000Y-83016709D01*
X104989710Y-82208000D01*
X105315017Y-82208000D01*
X105226119Y-82296898D01*
X105151592Y-82408436D01*
X105100257Y-82532370D01*
X105074086Y-82663937D01*
X105074086Y-82798083D01*
X105100257Y-82929650D01*
X105151592Y-83053584D01*
X105226119Y-83165122D01*
X105320974Y-83259977D01*
X105432512Y-83334504D01*
X105556446Y-83385839D01*
X105688013Y-83412010D01*
X105822159Y-83412010D01*
X105953726Y-83385839D01*
X106077660Y-83334504D01*
X106189198Y-83259977D01*
X106284053Y-83165122D01*
X106358580Y-83053584D01*
X106409915Y-82929650D01*
X106436086Y-82798083D01*
X106436086Y-82663937D01*
X106429918Y-82632927D01*
X109669000Y-82632927D01*
X109669000Y-82767073D01*
X109695171Y-82898640D01*
X109746506Y-83022574D01*
X109821033Y-83134112D01*
X109915888Y-83228967D01*
X110027426Y-83303494D01*
X110151360Y-83354829D01*
X110282927Y-83381000D01*
X110417073Y-83381000D01*
X110548640Y-83354829D01*
X110672574Y-83303494D01*
X110784112Y-83228967D01*
X110878967Y-83134112D01*
X110953494Y-83022574D01*
X111004829Y-82898640D01*
X111031000Y-82767073D01*
X111031000Y-82632927D01*
X111004829Y-82501360D01*
X110953494Y-82377426D01*
X110878967Y-82265888D01*
X110784112Y-82171033D01*
X110672574Y-82096506D01*
X110548640Y-82045171D01*
X110417073Y-82019000D01*
X110282927Y-82019000D01*
X110151360Y-82045171D01*
X110027426Y-82096506D01*
X109915888Y-82171033D01*
X109821033Y-82265888D01*
X109746506Y-82377426D01*
X109695171Y-82501360D01*
X109669000Y-82632927D01*
X106429918Y-82632927D01*
X106409915Y-82532370D01*
X106358580Y-82408436D01*
X106284053Y-82296898D01*
X106195155Y-82208000D01*
X107427501Y-82208000D01*
X107450000Y-82210216D01*
X107472499Y-82208000D01*
X107539784Y-82201373D01*
X107626117Y-82175184D01*
X107705682Y-82132656D01*
X107775422Y-82075422D01*
X107789769Y-82057940D01*
X108489710Y-81358000D01*
X115660291Y-81358000D01*
X115930291Y-81628001D01*
X115865888Y-81671033D01*
X115771033Y-81765888D01*
X115696506Y-81877426D01*
X115645171Y-82001360D01*
X115619000Y-82132927D01*
X115619000Y-82267073D01*
X115645171Y-82398640D01*
X115696506Y-82522574D01*
X115771033Y-82634112D01*
X115865888Y-82728967D01*
X115977426Y-82803494D01*
X116101360Y-82854829D01*
X116232927Y-82881000D01*
X116367073Y-82881000D01*
X116498640Y-82854829D01*
X116622574Y-82803494D01*
X116734112Y-82728967D01*
X116828967Y-82634112D01*
X116903494Y-82522574D01*
X116954829Y-82398640D01*
X116981000Y-82267073D01*
X116981000Y-82132927D01*
X116954829Y-82001360D01*
X116936869Y-81958000D01*
X117263131Y-81958000D01*
X117245171Y-82001360D01*
X117219000Y-82132927D01*
X117219000Y-82267073D01*
X117245171Y-82398640D01*
X117296506Y-82522574D01*
X117371033Y-82634112D01*
X117465888Y-82728967D01*
X117577426Y-82803494D01*
X117701360Y-82854829D01*
X117832927Y-82881000D01*
X117967073Y-82881000D01*
X118098640Y-82854829D01*
X118222574Y-82803494D01*
X118334112Y-82728967D01*
X118428967Y-82634112D01*
X118503494Y-82522574D01*
X118554829Y-82398640D01*
X118581000Y-82267073D01*
X118581000Y-82132927D01*
X118554829Y-82001360D01*
X118536869Y-81958000D01*
X119027501Y-81958000D01*
X119050000Y-81960216D01*
X119072499Y-81958000D01*
X119139784Y-81951373D01*
X119226117Y-81925184D01*
X119305682Y-81882656D01*
X119375422Y-81825422D01*
X119389769Y-81807940D01*
X119939710Y-81258000D01*
X121957760Y-81258000D01*
X121927196Y-81303742D01*
X121872092Y-81436775D01*
X121844000Y-81578003D01*
X121844000Y-81721997D01*
X121872092Y-81863225D01*
X121927196Y-81996258D01*
X122007195Y-82115985D01*
X122109015Y-82217805D01*
X122228742Y-82297804D01*
X122361775Y-82352908D01*
X122503003Y-82381000D01*
X122646997Y-82381000D01*
X122788225Y-82352908D01*
X122921258Y-82297804D01*
X123040985Y-82217805D01*
X123142805Y-82115985D01*
X123222804Y-81996258D01*
X123277908Y-81863225D01*
X123306000Y-81721997D01*
X123306000Y-81578003D01*
X123277908Y-81436775D01*
X123222804Y-81303742D01*
X123192240Y-81258000D01*
X129060291Y-81258000D01*
X129529224Y-81726934D01*
X129543567Y-81744411D01*
X129561043Y-81758753D01*
X129613307Y-81801645D01*
X129692872Y-81844173D01*
X129779205Y-81870362D01*
X129868989Y-81879205D01*
X129891488Y-81876989D01*
X134277502Y-81876989D01*
X134300001Y-81879205D01*
X134322500Y-81876989D01*
X134389785Y-81870362D01*
X134476118Y-81844173D01*
X134555683Y-81801645D01*
X134557700Y-81799990D01*
X134667073Y-81799990D01*
X134798640Y-81773819D01*
X134922574Y-81722484D01*
X134948851Y-81704926D01*
X134946506Y-81708436D01*
X134895171Y-81832370D01*
X134869000Y-81963937D01*
X134869000Y-82098083D01*
X134895171Y-82229650D01*
X134946506Y-82353584D01*
X135021033Y-82465122D01*
X135115888Y-82559977D01*
X135227426Y-82634504D01*
X135351360Y-82685839D01*
X135482927Y-82712010D01*
X135617073Y-82712010D01*
X135748640Y-82685839D01*
X135872574Y-82634504D01*
X135984112Y-82559977D01*
X136078967Y-82465122D01*
X136153494Y-82353584D01*
X136204829Y-82229650D01*
X136231000Y-82098083D01*
X136231000Y-81963937D01*
X136204829Y-81832370D01*
X136153494Y-81708436D01*
X136078967Y-81596898D01*
X135984112Y-81502043D01*
X135872574Y-81427516D01*
X135748640Y-81376181D01*
X135617073Y-81350010D01*
X135482927Y-81350010D01*
X135351360Y-81376181D01*
X135227426Y-81427516D01*
X135201149Y-81445074D01*
X135203494Y-81441564D01*
X135254829Y-81317630D01*
X135281000Y-81186063D01*
X135281000Y-81051917D01*
X135261920Y-80956000D01*
X142173000Y-80956000D01*
X142173000Y-84380921D01*
X142101360Y-84395171D01*
X141977426Y-84446506D01*
X141865888Y-84521033D01*
X141771033Y-84615888D01*
X141696506Y-84727426D01*
X141645171Y-84851360D01*
X141619000Y-84982927D01*
X141619000Y-85117073D01*
X141645171Y-85248640D01*
X141696506Y-85372574D01*
X141771033Y-85484112D01*
X141865888Y-85578967D01*
X141977426Y-85653494D01*
X142101360Y-85704829D01*
X142173000Y-85719079D01*
X142173000Y-88223461D01*
X142063860Y-88245171D01*
X141939926Y-88296506D01*
X141828388Y-88371033D01*
X141733533Y-88465888D01*
X141659006Y-88577426D01*
X141607671Y-88701360D01*
X141581500Y-88832927D01*
X141581500Y-88967073D01*
X141596802Y-89044000D01*
X131740904Y-89044000D01*
X131772804Y-88996258D01*
X131827908Y-88863225D01*
X131856000Y-88721997D01*
X131856000Y-88578003D01*
X131827908Y-88436775D01*
X131772804Y-88303742D01*
X131692805Y-88184015D01*
X131590985Y-88082195D01*
X131471258Y-88002196D01*
X131338225Y-87947092D01*
X131196997Y-87919000D01*
X131053003Y-87919000D01*
X130960130Y-87937474D01*
X131003494Y-87872574D01*
X131054829Y-87748640D01*
X131081000Y-87617073D01*
X131081000Y-87482927D01*
X131054829Y-87351360D01*
X131003494Y-87227426D01*
X130928967Y-87115888D01*
X130834112Y-87021033D01*
X130722574Y-86946506D01*
X130598640Y-86895171D01*
X130467073Y-86869000D01*
X130332927Y-86869000D01*
X130201360Y-86895171D01*
X130175611Y-86905836D01*
X130154829Y-86801360D01*
X130114089Y-86703003D01*
X139919000Y-86703003D01*
X139919000Y-86846997D01*
X139947092Y-86988225D01*
X140002196Y-87121258D01*
X140082195Y-87240985D01*
X140184015Y-87342805D01*
X140303742Y-87422804D01*
X140436775Y-87477908D01*
X140578003Y-87506000D01*
X140721997Y-87506000D01*
X140863225Y-87477908D01*
X140996258Y-87422804D01*
X141115985Y-87342805D01*
X141217805Y-87240985D01*
X141297804Y-87121258D01*
X141352908Y-86988225D01*
X141381000Y-86846997D01*
X141381000Y-86703003D01*
X141352908Y-86561775D01*
X141297804Y-86428742D01*
X141217805Y-86309015D01*
X141115985Y-86207195D01*
X140996258Y-86127196D01*
X140863225Y-86072092D01*
X140721997Y-86044000D01*
X140578003Y-86044000D01*
X140436775Y-86072092D01*
X140303742Y-86127196D01*
X140184015Y-86207195D01*
X140082195Y-86309015D01*
X140002196Y-86428742D01*
X139947092Y-86561775D01*
X139919000Y-86703003D01*
X130114089Y-86703003D01*
X130103494Y-86677426D01*
X130028967Y-86565888D01*
X129934112Y-86471033D01*
X129822574Y-86396506D01*
X129698640Y-86345171D01*
X129567073Y-86319000D01*
X129432927Y-86319000D01*
X129301360Y-86345171D01*
X129177426Y-86396506D01*
X129065888Y-86471033D01*
X128971033Y-86565888D01*
X128896506Y-86677426D01*
X128845171Y-86801360D01*
X128819000Y-86932927D01*
X128819000Y-87067073D01*
X128845171Y-87198640D01*
X128896506Y-87322574D01*
X128971033Y-87434112D01*
X129065888Y-87528967D01*
X129177426Y-87603494D01*
X129301360Y-87654829D01*
X129432927Y-87681000D01*
X129567073Y-87681000D01*
X129698640Y-87654829D01*
X129724389Y-87644164D01*
X129745171Y-87748640D01*
X129796506Y-87872574D01*
X129871033Y-87984112D01*
X129965888Y-88078967D01*
X130077426Y-88153494D01*
X130201360Y-88204829D01*
X130332927Y-88231000D01*
X130467073Y-88231000D01*
X130534803Y-88217527D01*
X130477196Y-88303742D01*
X130422092Y-88436775D01*
X130394000Y-88578003D01*
X130394000Y-88721997D01*
X130422092Y-88863225D01*
X130477196Y-88996258D01*
X130557195Y-89115985D01*
X130620925Y-89179715D01*
X129892355Y-89544000D01*
X122246360Y-89544000D01*
X122339316Y-89404881D01*
X122405182Y-89245866D01*
X122438760Y-89077058D01*
X122438760Y-88904942D01*
X122405182Y-88736134D01*
X122339316Y-88577119D01*
X122243694Y-88434010D01*
X122121990Y-88312306D01*
X121978881Y-88216684D01*
X121819866Y-88150818D01*
X121651058Y-88117240D01*
X121478942Y-88117240D01*
X121310134Y-88150818D01*
X121151119Y-88216684D01*
X121008010Y-88312306D01*
X120886306Y-88434010D01*
X120790684Y-88577119D01*
X120724818Y-88736134D01*
X120691240Y-88904942D01*
X120691240Y-89077058D01*
X120724818Y-89245866D01*
X120790684Y-89404881D01*
X120883640Y-89544000D01*
X120511040Y-89544000D01*
X120529829Y-89498640D01*
X120556000Y-89367073D01*
X120556000Y-89232927D01*
X120529829Y-89101360D01*
X120478494Y-88977426D01*
X120403967Y-88865888D01*
X120309112Y-88771033D01*
X120197574Y-88696506D01*
X120073640Y-88645171D01*
X119942073Y-88619000D01*
X119807927Y-88619000D01*
X119676360Y-88645171D01*
X119552426Y-88696506D01*
X119440888Y-88771033D01*
X119346033Y-88865888D01*
X119271506Y-88977426D01*
X119220171Y-89101360D01*
X119194000Y-89232927D01*
X119194000Y-89367073D01*
X119220171Y-89498640D01*
X119238960Y-89544000D01*
X117394079Y-89544000D01*
X117453967Y-89484112D01*
X117528494Y-89372574D01*
X117579829Y-89248640D01*
X117606000Y-89117073D01*
X117606000Y-88982927D01*
X117579829Y-88851360D01*
X117528494Y-88727426D01*
X117453967Y-88615888D01*
X117359112Y-88521033D01*
X117247574Y-88446506D01*
X117227810Y-88438319D01*
X117260442Y-88389482D01*
X117326403Y-88230237D01*
X117360030Y-88061183D01*
X117360030Y-87888817D01*
X117326403Y-87719763D01*
X117260442Y-87560518D01*
X117164680Y-87417201D01*
X117042799Y-87295320D01*
X116899482Y-87199558D01*
X116740237Y-87133597D01*
X116571183Y-87099970D01*
X116398817Y-87099970D01*
X116266928Y-87126204D01*
X116254829Y-87065381D01*
X116203494Y-86941447D01*
X116128967Y-86829909D01*
X116034112Y-86735054D01*
X115922574Y-86660527D01*
X115798640Y-86609192D01*
X115667073Y-86583021D01*
X115532927Y-86583021D01*
X115401360Y-86609192D01*
X115277426Y-86660527D01*
X115165888Y-86735054D01*
X115071033Y-86829909D01*
X114996506Y-86941447D01*
X114945171Y-87065381D01*
X114919000Y-87196948D01*
X114919000Y-87331094D01*
X114945171Y-87462661D01*
X114996506Y-87586595D01*
X115071033Y-87698133D01*
X115165888Y-87792988D01*
X115277426Y-87867515D01*
X115401360Y-87918850D01*
X115532927Y-87945021D01*
X115609970Y-87945021D01*
X115609970Y-88061183D01*
X115643597Y-88230237D01*
X115709558Y-88389482D01*
X115805320Y-88532799D01*
X115823841Y-88551320D01*
X115748640Y-88520171D01*
X115617073Y-88494000D01*
X115482927Y-88494000D01*
X115351360Y-88520171D01*
X115227426Y-88571506D01*
X115115888Y-88646033D01*
X115021033Y-88740888D01*
X114946506Y-88852426D01*
X114895171Y-88976360D01*
X114869000Y-89107927D01*
X114869000Y-89242073D01*
X114895171Y-89373640D01*
X114946506Y-89497574D01*
X114977527Y-89544000D01*
X110455752Y-89544000D01*
X110481000Y-89417073D01*
X110481000Y-89282927D01*
X110454829Y-89151360D01*
X110403494Y-89027426D01*
X110328967Y-88915888D01*
X110234112Y-88821033D01*
X110122574Y-88746506D01*
X109998640Y-88695171D01*
X109867073Y-88669000D01*
X109732927Y-88669000D01*
X109601360Y-88695171D01*
X109477426Y-88746506D01*
X109365888Y-88821033D01*
X109271033Y-88915888D01*
X109196506Y-89027426D01*
X109145171Y-89151360D01*
X109119000Y-89282927D01*
X109119000Y-89417073D01*
X109144248Y-89544000D01*
X89874278Y-89544000D01*
X89935040Y-89430322D01*
X89979452Y-89283918D01*
X90090465Y-89306000D01*
X90229535Y-89306000D01*
X90365933Y-89278869D01*
X90494416Y-89225649D01*
X90610049Y-89148386D01*
X90708386Y-89050049D01*
X90785649Y-88934416D01*
X90838869Y-88805933D01*
X90866000Y-88669535D01*
X90866000Y-88530465D01*
X90846599Y-88432927D01*
X111394000Y-88432927D01*
X111394000Y-88567073D01*
X111420171Y-88698640D01*
X111471506Y-88822574D01*
X111546033Y-88934112D01*
X111640888Y-89028967D01*
X111752426Y-89103494D01*
X111876360Y-89154829D01*
X112007927Y-89181000D01*
X112142073Y-89181000D01*
X112273640Y-89154829D01*
X112397574Y-89103494D01*
X112509112Y-89028967D01*
X112603967Y-88934112D01*
X112678494Y-88822574D01*
X112729829Y-88698640D01*
X112756000Y-88567073D01*
X112756000Y-88432927D01*
X112729829Y-88301360D01*
X112678494Y-88177426D01*
X112603967Y-88065888D01*
X112509112Y-87971033D01*
X112397574Y-87896506D01*
X112273640Y-87845171D01*
X112142073Y-87819000D01*
X112007927Y-87819000D01*
X111876360Y-87845171D01*
X111752426Y-87896506D01*
X111640888Y-87971033D01*
X111546033Y-88065888D01*
X111471506Y-88177426D01*
X111420171Y-88301360D01*
X111394000Y-88432927D01*
X90846599Y-88432927D01*
X90838869Y-88394067D01*
X90785649Y-88265584D01*
X90708386Y-88149951D01*
X90610049Y-88051614D01*
X90494416Y-87974351D01*
X90365933Y-87921131D01*
X90229535Y-87894000D01*
X90211134Y-87894000D01*
X90216000Y-87869535D01*
X90216000Y-87730465D01*
X90188869Y-87594067D01*
X90135649Y-87465584D01*
X90058386Y-87349951D01*
X89960049Y-87251614D01*
X89844416Y-87174351D01*
X89791980Y-87152631D01*
X89811684Y-87132927D01*
X92544000Y-87132927D01*
X92544000Y-87267073D01*
X92570171Y-87398640D01*
X92621506Y-87522574D01*
X92696033Y-87634112D01*
X92790888Y-87728967D01*
X92902426Y-87803494D01*
X93026360Y-87854829D01*
X93157927Y-87881000D01*
X93292073Y-87881000D01*
X93423640Y-87854829D01*
X93547574Y-87803494D01*
X93659112Y-87728967D01*
X93753967Y-87634112D01*
X93828494Y-87522574D01*
X93879829Y-87398640D01*
X93882954Y-87382927D01*
X101019000Y-87382927D01*
X101019000Y-87517073D01*
X101045171Y-87648640D01*
X101096506Y-87772574D01*
X101171033Y-87884112D01*
X101265888Y-87978967D01*
X101377426Y-88053494D01*
X101501360Y-88104829D01*
X101632927Y-88131000D01*
X101767073Y-88131000D01*
X101898640Y-88104829D01*
X102022574Y-88053494D01*
X102134112Y-87978967D01*
X102228967Y-87884112D01*
X102303494Y-87772574D01*
X102354829Y-87648640D01*
X102381000Y-87517073D01*
X102381000Y-87382927D01*
X102354829Y-87251360D01*
X102347194Y-87232927D01*
X105069000Y-87232927D01*
X105069000Y-87367073D01*
X105095171Y-87498640D01*
X105146506Y-87622574D01*
X105221033Y-87734112D01*
X105315888Y-87828967D01*
X105427426Y-87903494D01*
X105551360Y-87954829D01*
X105682927Y-87981000D01*
X105817073Y-87981000D01*
X105948640Y-87954829D01*
X106072574Y-87903494D01*
X106184112Y-87828967D01*
X106278967Y-87734112D01*
X106353494Y-87622574D01*
X106404829Y-87498640D01*
X106431000Y-87367073D01*
X106431000Y-87232927D01*
X109669000Y-87232927D01*
X109669000Y-87367073D01*
X109695171Y-87498640D01*
X109746506Y-87622574D01*
X109821033Y-87734112D01*
X109915888Y-87828967D01*
X110027426Y-87903494D01*
X110151360Y-87954829D01*
X110282927Y-87981000D01*
X110417073Y-87981000D01*
X110548640Y-87954829D01*
X110672574Y-87903494D01*
X110784112Y-87828967D01*
X110878967Y-87734112D01*
X110953494Y-87622574D01*
X111004829Y-87498640D01*
X111031000Y-87367073D01*
X111031000Y-87232927D01*
X111004829Y-87101360D01*
X110953494Y-86977426D01*
X110878967Y-86865888D01*
X110784112Y-86771033D01*
X110672574Y-86696506D01*
X110548640Y-86645171D01*
X110417073Y-86619000D01*
X110282927Y-86619000D01*
X110151360Y-86645171D01*
X110027426Y-86696506D01*
X109915888Y-86771033D01*
X109821033Y-86865888D01*
X109746506Y-86977426D01*
X109695171Y-87101360D01*
X109669000Y-87232927D01*
X106431000Y-87232927D01*
X106404829Y-87101360D01*
X106353494Y-86977426D01*
X106278967Y-86865888D01*
X106184112Y-86771033D01*
X106072574Y-86696506D01*
X105948640Y-86645171D01*
X105817073Y-86619000D01*
X105682927Y-86619000D01*
X105551360Y-86645171D01*
X105427426Y-86696506D01*
X105315888Y-86771033D01*
X105221033Y-86865888D01*
X105146506Y-86977426D01*
X105095171Y-87101360D01*
X105069000Y-87232927D01*
X102347194Y-87232927D01*
X102303494Y-87127426D01*
X102228967Y-87015888D01*
X102134112Y-86921033D01*
X102022574Y-86846506D01*
X101898640Y-86795171D01*
X101767073Y-86769000D01*
X101632927Y-86769000D01*
X101501360Y-86795171D01*
X101377426Y-86846506D01*
X101265888Y-86921033D01*
X101171033Y-87015888D01*
X101096506Y-87127426D01*
X101045171Y-87251360D01*
X101019000Y-87382927D01*
X93882954Y-87382927D01*
X93906000Y-87267073D01*
X93906000Y-87132927D01*
X93879829Y-87001360D01*
X93828494Y-86877426D01*
X93753967Y-86765888D01*
X93659112Y-86671033D01*
X93547574Y-86596506D01*
X93423640Y-86545171D01*
X93292073Y-86519000D01*
X93157927Y-86519000D01*
X93026360Y-86545171D01*
X92902426Y-86596506D01*
X92790888Y-86671033D01*
X92696033Y-86765888D01*
X92621506Y-86877426D01*
X92570171Y-87001360D01*
X92544000Y-87132927D01*
X89811684Y-87132927D01*
X89897496Y-87047115D01*
X89723449Y-86873068D01*
X89778526Y-86856631D01*
X89784432Y-86854185D01*
X89813899Y-86733709D01*
X89510000Y-86429810D01*
X89498305Y-86441505D01*
X89488869Y-86394067D01*
X89435649Y-86265584D01*
X89391827Y-86200000D01*
X89435649Y-86134416D01*
X89447419Y-86106000D01*
X89579535Y-86106000D01*
X89715933Y-86078869D01*
X89809663Y-86040044D01*
X89854715Y-86085096D01*
X89739810Y-86200000D01*
X90043709Y-86503899D01*
X90164185Y-86474432D01*
X90183005Y-86413386D01*
X90357115Y-86587496D01*
X90628504Y-86316107D01*
X90100066Y-85787669D01*
X90135649Y-85734416D01*
X90188869Y-85605933D01*
X90216000Y-85469535D01*
X90216000Y-85382921D01*
X91313527Y-85382921D01*
X91313527Y-85517067D01*
X91339698Y-85648634D01*
X91391033Y-85772568D01*
X91465560Y-85884106D01*
X91560415Y-85978961D01*
X91671953Y-86053488D01*
X91795887Y-86104823D01*
X91927454Y-86130994D01*
X92061600Y-86130994D01*
X92193167Y-86104823D01*
X92317101Y-86053488D01*
X92347872Y-86032927D01*
X95119000Y-86032927D01*
X95119000Y-86167073D01*
X95145171Y-86298640D01*
X95196506Y-86422574D01*
X95271033Y-86534112D01*
X95365888Y-86628967D01*
X95477426Y-86703494D01*
X95601360Y-86754829D01*
X95732927Y-86781000D01*
X95867073Y-86781000D01*
X95998640Y-86754829D01*
X96122574Y-86703494D01*
X96228185Y-86632927D01*
X98269000Y-86632927D01*
X98269000Y-86767073D01*
X98295171Y-86898640D01*
X98346506Y-87022574D01*
X98421033Y-87134112D01*
X98515888Y-87228967D01*
X98627426Y-87303494D01*
X98751360Y-87354829D01*
X98882927Y-87381000D01*
X99017073Y-87381000D01*
X99148640Y-87354829D01*
X99272574Y-87303494D01*
X99384112Y-87228967D01*
X99478967Y-87134112D01*
X99553494Y-87022574D01*
X99604829Y-86898640D01*
X99631000Y-86767073D01*
X99631000Y-86632927D01*
X99604829Y-86501360D01*
X99576481Y-86432921D01*
X102319000Y-86432921D01*
X102319000Y-86567067D01*
X102345171Y-86698634D01*
X102396506Y-86822568D01*
X102471033Y-86934106D01*
X102565888Y-87028961D01*
X102677426Y-87103488D01*
X102801360Y-87154823D01*
X102932927Y-87180994D01*
X103067073Y-87180994D01*
X103198640Y-87154823D01*
X103322574Y-87103488D01*
X103434112Y-87028961D01*
X103528967Y-86934106D01*
X103603494Y-86822568D01*
X103654829Y-86698634D01*
X103681000Y-86567067D01*
X103681000Y-86532927D01*
X118969000Y-86532927D01*
X118969000Y-86667073D01*
X118995171Y-86798640D01*
X119046506Y-86922574D01*
X119121033Y-87034112D01*
X119215888Y-87128967D01*
X119327426Y-87203494D01*
X119451360Y-87254829D01*
X119582927Y-87281000D01*
X119717073Y-87281000D01*
X119848640Y-87254829D01*
X119972574Y-87203494D01*
X120084112Y-87128967D01*
X120178967Y-87034112D01*
X120253494Y-86922574D01*
X120274052Y-86872942D01*
X120691240Y-86872942D01*
X120691240Y-87045058D01*
X120724818Y-87213866D01*
X120790684Y-87372881D01*
X120886306Y-87515990D01*
X121008010Y-87637694D01*
X121151119Y-87733316D01*
X121310134Y-87799182D01*
X121478942Y-87832760D01*
X121651058Y-87832760D01*
X121819866Y-87799182D01*
X121978881Y-87733316D01*
X122121990Y-87637694D01*
X122243694Y-87515990D01*
X122339316Y-87372881D01*
X122405182Y-87213866D01*
X122438760Y-87045058D01*
X122438760Y-86872942D01*
X122405182Y-86704134D01*
X122339316Y-86545119D01*
X122243694Y-86402010D01*
X122121990Y-86280306D01*
X121978881Y-86184684D01*
X121819866Y-86118818D01*
X121651058Y-86085240D01*
X121478942Y-86085240D01*
X121310134Y-86118818D01*
X121151119Y-86184684D01*
X121008010Y-86280306D01*
X120886306Y-86402010D01*
X120790684Y-86545119D01*
X120724818Y-86704134D01*
X120691240Y-86872942D01*
X120274052Y-86872942D01*
X120304829Y-86798640D01*
X120331000Y-86667073D01*
X120331000Y-86532927D01*
X120304829Y-86401360D01*
X120253494Y-86277426D01*
X120178967Y-86165888D01*
X120143331Y-86130252D01*
X120147574Y-86128494D01*
X120173255Y-86111334D01*
X120215888Y-86153967D01*
X120327426Y-86228494D01*
X120451360Y-86279829D01*
X120582927Y-86306000D01*
X120717073Y-86306000D01*
X120848640Y-86279829D01*
X120972574Y-86228494D01*
X121084112Y-86153967D01*
X121178967Y-86059112D01*
X121253494Y-85947574D01*
X121304829Y-85823640D01*
X121331000Y-85692073D01*
X121331000Y-85603003D01*
X122669000Y-85603003D01*
X122669000Y-85746997D01*
X122697092Y-85888225D01*
X122752196Y-86021258D01*
X122832195Y-86140985D01*
X122934015Y-86242805D01*
X123053742Y-86322804D01*
X123186775Y-86377908D01*
X123328003Y-86406000D01*
X123471997Y-86406000D01*
X123613225Y-86377908D01*
X123746258Y-86322804D01*
X123865985Y-86242805D01*
X123967805Y-86140985D01*
X124047804Y-86021258D01*
X124102908Y-85888225D01*
X124131000Y-85746997D01*
X124131000Y-85603003D01*
X124102908Y-85461775D01*
X124047804Y-85328742D01*
X123983783Y-85232927D01*
X136269000Y-85232927D01*
X136269000Y-85367073D01*
X136295171Y-85498640D01*
X136346506Y-85622574D01*
X136421033Y-85734112D01*
X136515888Y-85828967D01*
X136627426Y-85903494D01*
X136751360Y-85954829D01*
X136882927Y-85981000D01*
X137017073Y-85981000D01*
X137148640Y-85954829D01*
X137272574Y-85903494D01*
X137384112Y-85828967D01*
X137478967Y-85734112D01*
X137553494Y-85622574D01*
X137604829Y-85498640D01*
X137631000Y-85367073D01*
X137631000Y-85232927D01*
X137604829Y-85101360D01*
X137553734Y-84978003D01*
X139569000Y-84978003D01*
X139569000Y-85121997D01*
X139597092Y-85263225D01*
X139652196Y-85396258D01*
X139732195Y-85515985D01*
X139834015Y-85617805D01*
X139953742Y-85697804D01*
X140086775Y-85752908D01*
X140228003Y-85781000D01*
X140371997Y-85781000D01*
X140513225Y-85752908D01*
X140646258Y-85697804D01*
X140765985Y-85617805D01*
X140867805Y-85515985D01*
X140947804Y-85396258D01*
X141002908Y-85263225D01*
X141031000Y-85121997D01*
X141031000Y-84978003D01*
X141002908Y-84836775D01*
X140947804Y-84703742D01*
X140867805Y-84584015D01*
X140765985Y-84482195D01*
X140646258Y-84402196D01*
X140513225Y-84347092D01*
X140371997Y-84319000D01*
X140228003Y-84319000D01*
X140086775Y-84347092D01*
X139953742Y-84402196D01*
X139834015Y-84482195D01*
X139732195Y-84584015D01*
X139652196Y-84703742D01*
X139597092Y-84836775D01*
X139569000Y-84978003D01*
X137553734Y-84978003D01*
X137553494Y-84977426D01*
X137478967Y-84865888D01*
X137384112Y-84771033D01*
X137272574Y-84696506D01*
X137148640Y-84645171D01*
X137017073Y-84619000D01*
X136882927Y-84619000D01*
X136751360Y-84645171D01*
X136627426Y-84696506D01*
X136515888Y-84771033D01*
X136421033Y-84865888D01*
X136346506Y-84977426D01*
X136295171Y-85101360D01*
X136269000Y-85232927D01*
X123983783Y-85232927D01*
X123967805Y-85209015D01*
X123865985Y-85107195D01*
X123746258Y-85027196D01*
X123613225Y-84972092D01*
X123471997Y-84944000D01*
X123328003Y-84944000D01*
X123186775Y-84972092D01*
X123053742Y-85027196D01*
X122934015Y-85107195D01*
X122832195Y-85209015D01*
X122752196Y-85328742D01*
X122697092Y-85461775D01*
X122669000Y-85603003D01*
X121331000Y-85603003D01*
X121331000Y-85557927D01*
X121304829Y-85426360D01*
X121253494Y-85302426D01*
X121178967Y-85190888D01*
X121084112Y-85096033D01*
X120972574Y-85021506D01*
X120848640Y-84970171D01*
X120717073Y-84944000D01*
X120582927Y-84944000D01*
X120451360Y-84970171D01*
X120327426Y-85021506D01*
X120301745Y-85038666D01*
X120259112Y-84996033D01*
X120147574Y-84921506D01*
X120023640Y-84870171D01*
X119892073Y-84844000D01*
X119757927Y-84844000D01*
X119626360Y-84870171D01*
X119502426Y-84921506D01*
X119390888Y-84996033D01*
X119296033Y-85090888D01*
X119221506Y-85202426D01*
X119170171Y-85326360D01*
X119144000Y-85457927D01*
X119144000Y-85592073D01*
X119170171Y-85723640D01*
X119221506Y-85847574D01*
X119296033Y-85959112D01*
X119331669Y-85994748D01*
X119327426Y-85996506D01*
X119215888Y-86071033D01*
X119121033Y-86165888D01*
X119046506Y-86277426D01*
X118995171Y-86401360D01*
X118969000Y-86532927D01*
X103681000Y-86532927D01*
X103681000Y-86432921D01*
X103654829Y-86301354D01*
X103603494Y-86177420D01*
X103528967Y-86065882D01*
X103434112Y-85971027D01*
X103322574Y-85896500D01*
X103198640Y-85845165D01*
X103067073Y-85818994D01*
X102932927Y-85818994D01*
X102801360Y-85845165D01*
X102677426Y-85896500D01*
X102565888Y-85971027D01*
X102471033Y-86065882D01*
X102396506Y-86177420D01*
X102345171Y-86301354D01*
X102319000Y-86432921D01*
X99576481Y-86432921D01*
X99553494Y-86377426D01*
X99478967Y-86265888D01*
X99384112Y-86171033D01*
X99272574Y-86096506D01*
X99148640Y-86045171D01*
X99017073Y-86019000D01*
X98882927Y-86019000D01*
X98751360Y-86045171D01*
X98627426Y-86096506D01*
X98515888Y-86171033D01*
X98421033Y-86265888D01*
X98346506Y-86377426D01*
X98295171Y-86501360D01*
X98269000Y-86632927D01*
X96228185Y-86632927D01*
X96234112Y-86628967D01*
X96328967Y-86534112D01*
X96403494Y-86422574D01*
X96454829Y-86298640D01*
X96481000Y-86167073D01*
X96481000Y-86032927D01*
X96454829Y-85901360D01*
X96403494Y-85777426D01*
X96328967Y-85665888D01*
X96234112Y-85571033D01*
X96122574Y-85496506D01*
X95998640Y-85445171D01*
X95867073Y-85419000D01*
X95732927Y-85419000D01*
X95601360Y-85445171D01*
X95477426Y-85496506D01*
X95365888Y-85571033D01*
X95271033Y-85665888D01*
X95196506Y-85777426D01*
X95145171Y-85901360D01*
X95119000Y-86032927D01*
X92347872Y-86032927D01*
X92428639Y-85978961D01*
X92523494Y-85884106D01*
X92598021Y-85772568D01*
X92649356Y-85648634D01*
X92675527Y-85517067D01*
X92675527Y-85382921D01*
X92649356Y-85251354D01*
X92598021Y-85127420D01*
X92532321Y-85029092D01*
X92603494Y-84922574D01*
X92619916Y-84882927D01*
X96344000Y-84882927D01*
X96344000Y-85017073D01*
X96370171Y-85148640D01*
X96421506Y-85272574D01*
X96496033Y-85384112D01*
X96590888Y-85478967D01*
X96702426Y-85553494D01*
X96826360Y-85604829D01*
X96957927Y-85631000D01*
X97092073Y-85631000D01*
X97223640Y-85604829D01*
X97225040Y-85604249D01*
X97195171Y-85676360D01*
X97169000Y-85807927D01*
X97169000Y-85942073D01*
X97195171Y-86073640D01*
X97246506Y-86197574D01*
X97321033Y-86309112D01*
X97415888Y-86403967D01*
X97527426Y-86478494D01*
X97651360Y-86529829D01*
X97782927Y-86556000D01*
X97917073Y-86556000D01*
X98048640Y-86529829D01*
X98172574Y-86478494D01*
X98284112Y-86403967D01*
X98378967Y-86309112D01*
X98453494Y-86197574D01*
X98504829Y-86073640D01*
X98531000Y-85942073D01*
X98531000Y-85807927D01*
X98504829Y-85676360D01*
X98453494Y-85552426D01*
X98378967Y-85440888D01*
X98284112Y-85346033D01*
X98172574Y-85271506D01*
X98048640Y-85220171D01*
X97917073Y-85194000D01*
X97782927Y-85194000D01*
X97651360Y-85220171D01*
X97649960Y-85220751D01*
X97679829Y-85148640D01*
X97706000Y-85017073D01*
X97706000Y-84882927D01*
X102318992Y-84882927D01*
X102318992Y-85017073D01*
X102345163Y-85148640D01*
X102396498Y-85272574D01*
X102471025Y-85384112D01*
X102565880Y-85478967D01*
X102677418Y-85553494D01*
X102801352Y-85604829D01*
X102932919Y-85631000D01*
X103067065Y-85631000D01*
X103198632Y-85604829D01*
X103322566Y-85553494D01*
X103434104Y-85478967D01*
X103528959Y-85384112D01*
X103603486Y-85272574D01*
X103654821Y-85148640D01*
X103680992Y-85017073D01*
X103680992Y-84882927D01*
X103654821Y-84751360D01*
X103647186Y-84732927D01*
X112069000Y-84732927D01*
X112069000Y-84867073D01*
X112095171Y-84998640D01*
X112146506Y-85122574D01*
X112221033Y-85234112D01*
X112315888Y-85328967D01*
X112427426Y-85403494D01*
X112551360Y-85454829D01*
X112682927Y-85481000D01*
X112817073Y-85481000D01*
X112948640Y-85454829D01*
X113072574Y-85403494D01*
X113184112Y-85328967D01*
X113278967Y-85234112D01*
X113353494Y-85122574D01*
X113404829Y-84998640D01*
X113427846Y-84882927D01*
X116319000Y-84882927D01*
X116319000Y-85017073D01*
X116345171Y-85148640D01*
X116396506Y-85272574D01*
X116471033Y-85384112D01*
X116565888Y-85478967D01*
X116677426Y-85553494D01*
X116801360Y-85604829D01*
X116932927Y-85631000D01*
X117067073Y-85631000D01*
X117198640Y-85604829D01*
X117322574Y-85553494D01*
X117434112Y-85478967D01*
X117528967Y-85384112D01*
X117603494Y-85272574D01*
X117654829Y-85148640D01*
X117681000Y-85017073D01*
X117681000Y-84882927D01*
X117654829Y-84751360D01*
X117603494Y-84627426D01*
X117528967Y-84515888D01*
X117434112Y-84421033D01*
X117322574Y-84346506D01*
X117198640Y-84295171D01*
X117067073Y-84269000D01*
X116932927Y-84269000D01*
X116801360Y-84295171D01*
X116677426Y-84346506D01*
X116565888Y-84421033D01*
X116471033Y-84515888D01*
X116396506Y-84627426D01*
X116345171Y-84751360D01*
X116319000Y-84882927D01*
X113427846Y-84882927D01*
X113431000Y-84867073D01*
X113431000Y-84732927D01*
X113404829Y-84601360D01*
X113353494Y-84477426D01*
X113278967Y-84365888D01*
X113184112Y-84271033D01*
X113072574Y-84196506D01*
X112948640Y-84145171D01*
X112817073Y-84119000D01*
X112682927Y-84119000D01*
X112551360Y-84145171D01*
X112427426Y-84196506D01*
X112315888Y-84271033D01*
X112221033Y-84365888D01*
X112146506Y-84477426D01*
X112095171Y-84601360D01*
X112069000Y-84732927D01*
X103647186Y-84732927D01*
X103603486Y-84627426D01*
X103528959Y-84515888D01*
X103434104Y-84421033D01*
X103322566Y-84346506D01*
X103198632Y-84295171D01*
X103067065Y-84269000D01*
X102932919Y-84269000D01*
X102801352Y-84295171D01*
X102677418Y-84346506D01*
X102565880Y-84421033D01*
X102471025Y-84515888D01*
X102396498Y-84627426D01*
X102345163Y-84751360D01*
X102318992Y-84882927D01*
X97706000Y-84882927D01*
X97679829Y-84751360D01*
X97628494Y-84627426D01*
X97553967Y-84515888D01*
X97459112Y-84421033D01*
X97347574Y-84346506D01*
X97223640Y-84295171D01*
X97092073Y-84269000D01*
X96957927Y-84269000D01*
X96826360Y-84295171D01*
X96702426Y-84346506D01*
X96590888Y-84421033D01*
X96496033Y-84515888D01*
X96421506Y-84627426D01*
X96370171Y-84751360D01*
X96344000Y-84882927D01*
X92619916Y-84882927D01*
X92654829Y-84798640D01*
X92681000Y-84667073D01*
X92681000Y-84532927D01*
X92654829Y-84401360D01*
X92603494Y-84277426D01*
X92528967Y-84165888D01*
X92513079Y-84150000D01*
X92528967Y-84134112D01*
X92596579Y-84032923D01*
X114119000Y-84032923D01*
X114119000Y-84167069D01*
X114145171Y-84298636D01*
X114196506Y-84422570D01*
X114271033Y-84534108D01*
X114365888Y-84628963D01*
X114477426Y-84703490D01*
X114601360Y-84754825D01*
X114732927Y-84780996D01*
X114867073Y-84780996D01*
X114998640Y-84754825D01*
X115122574Y-84703490D01*
X115234112Y-84628963D01*
X115328967Y-84534108D01*
X115403494Y-84422570D01*
X115454829Y-84298636D01*
X115481000Y-84167069D01*
X115481000Y-84032923D01*
X115454829Y-83901356D01*
X115403494Y-83777422D01*
X115328967Y-83665884D01*
X115296010Y-83632927D01*
X115669000Y-83632927D01*
X115669000Y-83767073D01*
X115695171Y-83898640D01*
X115746506Y-84022574D01*
X115821033Y-84134112D01*
X115915888Y-84228967D01*
X116027426Y-84303494D01*
X116151360Y-84354829D01*
X116282927Y-84381000D01*
X116417073Y-84381000D01*
X116548640Y-84354829D01*
X116672574Y-84303494D01*
X116784112Y-84228967D01*
X116878967Y-84134112D01*
X116953494Y-84022574D01*
X117004829Y-83898640D01*
X117031000Y-83767073D01*
X117031000Y-83632927D01*
X117169000Y-83632927D01*
X117169000Y-83767073D01*
X117195171Y-83898640D01*
X117246506Y-84022574D01*
X117321033Y-84134112D01*
X117415888Y-84228967D01*
X117527426Y-84303494D01*
X117651360Y-84354829D01*
X117782927Y-84381000D01*
X117917073Y-84381000D01*
X118048640Y-84354829D01*
X118172574Y-84303494D01*
X118284112Y-84228967D01*
X118378967Y-84134112D01*
X118453494Y-84022574D01*
X118504829Y-83898640D01*
X118506116Y-83892166D01*
X122583163Y-83892166D01*
X122583163Y-84036160D01*
X122611255Y-84177388D01*
X122666359Y-84310421D01*
X122746358Y-84430148D01*
X122848178Y-84531968D01*
X122967905Y-84611967D01*
X123100938Y-84667071D01*
X123242166Y-84695163D01*
X123386160Y-84695163D01*
X123527388Y-84667071D01*
X123660421Y-84611967D01*
X123780148Y-84531968D01*
X123881968Y-84430148D01*
X123961967Y-84310421D01*
X124006460Y-84203003D01*
X125994000Y-84203003D01*
X125994000Y-84346997D01*
X126022092Y-84488225D01*
X126077196Y-84621258D01*
X126157195Y-84740985D01*
X126259015Y-84842805D01*
X126378742Y-84922804D01*
X126511775Y-84977908D01*
X126653003Y-85006000D01*
X126796997Y-85006000D01*
X126938225Y-84977908D01*
X127071258Y-84922804D01*
X127190985Y-84842805D01*
X127292805Y-84740985D01*
X127372804Y-84621258D01*
X127427908Y-84488225D01*
X127456000Y-84346997D01*
X127456000Y-84203003D01*
X127427908Y-84061775D01*
X127372804Y-83928742D01*
X127292805Y-83809015D01*
X127190985Y-83707195D01*
X127124422Y-83662719D01*
X133087990Y-83662719D01*
X133087990Y-83796865D01*
X133114161Y-83928432D01*
X133165496Y-84052366D01*
X133240023Y-84163904D01*
X133334878Y-84258759D01*
X133446416Y-84333286D01*
X133570350Y-84384621D01*
X133701917Y-84410792D01*
X133836063Y-84410792D01*
X133967630Y-84384621D01*
X134091564Y-84333286D01*
X134203102Y-84258759D01*
X134297957Y-84163904D01*
X134372484Y-84052366D01*
X134423819Y-83928432D01*
X134449990Y-83796865D01*
X134449990Y-83662719D01*
X134423819Y-83531152D01*
X134372484Y-83407218D01*
X134297957Y-83295680D01*
X134203102Y-83200825D01*
X134091564Y-83126298D01*
X133967630Y-83074963D01*
X133836063Y-83048792D01*
X133701917Y-83048792D01*
X133570350Y-83074963D01*
X133446416Y-83126298D01*
X133334878Y-83200825D01*
X133240023Y-83295680D01*
X133165496Y-83407218D01*
X133114161Y-83531152D01*
X133087990Y-83662719D01*
X127124422Y-83662719D01*
X127071258Y-83627196D01*
X126938225Y-83572092D01*
X126796997Y-83544000D01*
X126653003Y-83544000D01*
X126511775Y-83572092D01*
X126378742Y-83627196D01*
X126259015Y-83707195D01*
X126157195Y-83809015D01*
X126077196Y-83928742D01*
X126022092Y-84061775D01*
X125994000Y-84203003D01*
X124006460Y-84203003D01*
X124017071Y-84177388D01*
X124045163Y-84036160D01*
X124045163Y-83892166D01*
X124017071Y-83750938D01*
X123961967Y-83617905D01*
X123881968Y-83498178D01*
X123780148Y-83396358D01*
X123660421Y-83316359D01*
X123527388Y-83261255D01*
X123386160Y-83233163D01*
X123242166Y-83233163D01*
X123100938Y-83261255D01*
X122967905Y-83316359D01*
X122848178Y-83396358D01*
X122746358Y-83498178D01*
X122666359Y-83617905D01*
X122611255Y-83750938D01*
X122583163Y-83892166D01*
X118506116Y-83892166D01*
X118531000Y-83767073D01*
X118531000Y-83632927D01*
X118504829Y-83501360D01*
X118453494Y-83377426D01*
X118378967Y-83265888D01*
X118284112Y-83171033D01*
X118172574Y-83096506D01*
X118048640Y-83045171D01*
X117917073Y-83019000D01*
X117782927Y-83019000D01*
X117651360Y-83045171D01*
X117527426Y-83096506D01*
X117415888Y-83171033D01*
X117321033Y-83265888D01*
X117246506Y-83377426D01*
X117195171Y-83501360D01*
X117169000Y-83632927D01*
X117031000Y-83632927D01*
X117004829Y-83501360D01*
X116953494Y-83377426D01*
X116878967Y-83265888D01*
X116784112Y-83171033D01*
X116672574Y-83096506D01*
X116548640Y-83045171D01*
X116417073Y-83019000D01*
X116282927Y-83019000D01*
X116151360Y-83045171D01*
X116027426Y-83096506D01*
X115915888Y-83171033D01*
X115821033Y-83265888D01*
X115746506Y-83377426D01*
X115695171Y-83501360D01*
X115669000Y-83632927D01*
X115296010Y-83632927D01*
X115234112Y-83571029D01*
X115122574Y-83496502D01*
X114998640Y-83445167D01*
X114867073Y-83418996D01*
X114732927Y-83418996D01*
X114601360Y-83445167D01*
X114477426Y-83496502D01*
X114365888Y-83571029D01*
X114271033Y-83665884D01*
X114196506Y-83777422D01*
X114145171Y-83901356D01*
X114119000Y-84032923D01*
X92596579Y-84032923D01*
X92603494Y-84022574D01*
X92654829Y-83898640D01*
X92681000Y-83767073D01*
X92681000Y-83632927D01*
X92654829Y-83501360D01*
X92603494Y-83377426D01*
X92528967Y-83265888D01*
X92434112Y-83171033D01*
X92389925Y-83141508D01*
X92448640Y-83129829D01*
X92572574Y-83078494D01*
X92684112Y-83003967D01*
X92778967Y-82909112D01*
X92853494Y-82797574D01*
X92904829Y-82673640D01*
X92931000Y-82542073D01*
X92931000Y-82407927D01*
X92904829Y-82276360D01*
X92853494Y-82152426D01*
X92778967Y-82040888D01*
X92684112Y-81946033D01*
X92627083Y-81907927D01*
X94144000Y-81907927D01*
X94144000Y-82042073D01*
X94170171Y-82173640D01*
X94221506Y-82297574D01*
X94296033Y-82409112D01*
X94390888Y-82503967D01*
X94502426Y-82578494D01*
X94626360Y-82629829D01*
X94719000Y-82648257D01*
X94719000Y-82767073D01*
X94745171Y-82898640D01*
X94796506Y-83022574D01*
X94871033Y-83134112D01*
X94965888Y-83228967D01*
X95077426Y-83303494D01*
X95201360Y-83354829D01*
X95332927Y-83381000D01*
X95467073Y-83381000D01*
X95598640Y-83354829D01*
X95722574Y-83303494D01*
X95834112Y-83228967D01*
X95928967Y-83134112D01*
X96003494Y-83022574D01*
X96054829Y-82898640D01*
X96081000Y-82767073D01*
X96081000Y-82632927D01*
X96054829Y-82501360D01*
X96003494Y-82377426D01*
X95928967Y-82265888D01*
X95896006Y-82232927D01*
X97019000Y-82232927D01*
X97019000Y-82367073D01*
X97045171Y-82498640D01*
X97096506Y-82622574D01*
X97148240Y-82700000D01*
X97096506Y-82777426D01*
X97045171Y-82901360D01*
X97019000Y-83032927D01*
X97019000Y-83167073D01*
X97045171Y-83298640D01*
X97096506Y-83422574D01*
X97171033Y-83534112D01*
X97265888Y-83628967D01*
X97377426Y-83703494D01*
X97501360Y-83754829D01*
X97632927Y-83781000D01*
X97767073Y-83781000D01*
X97898640Y-83754829D01*
X98022574Y-83703494D01*
X98100000Y-83651760D01*
X98177426Y-83703494D01*
X98301360Y-83754829D01*
X98432927Y-83781000D01*
X98567073Y-83781000D01*
X98698640Y-83754829D01*
X98822574Y-83703494D01*
X98934112Y-83628967D01*
X99028967Y-83534112D01*
X99103494Y-83422574D01*
X99154829Y-83298640D01*
X99181000Y-83167073D01*
X99181000Y-83032927D01*
X99154829Y-82901360D01*
X99103494Y-82777426D01*
X99051760Y-82700000D01*
X99103494Y-82622574D01*
X99154829Y-82498640D01*
X99181000Y-82367073D01*
X99181000Y-82232927D01*
X99154829Y-82101360D01*
X99103494Y-81977426D01*
X99028967Y-81865888D01*
X98934112Y-81771033D01*
X98822574Y-81696506D01*
X98698640Y-81645171D01*
X98567073Y-81619000D01*
X98432927Y-81619000D01*
X98301360Y-81645171D01*
X98177426Y-81696506D01*
X98100000Y-81748240D01*
X98022574Y-81696506D01*
X97898640Y-81645171D01*
X97767073Y-81619000D01*
X97632927Y-81619000D01*
X97501360Y-81645171D01*
X97377426Y-81696506D01*
X97265888Y-81771033D01*
X97171033Y-81865888D01*
X97096506Y-81977426D01*
X97045171Y-82101360D01*
X97019000Y-82232927D01*
X95896006Y-82232927D01*
X95834112Y-82171033D01*
X95722574Y-82096506D01*
X95598640Y-82045171D01*
X95506000Y-82026743D01*
X95506000Y-81907927D01*
X95479829Y-81776360D01*
X95428494Y-81652426D01*
X95353967Y-81540888D01*
X95259112Y-81446033D01*
X95147574Y-81371506D01*
X95023640Y-81320171D01*
X94892073Y-81294000D01*
X94757927Y-81294000D01*
X94626360Y-81320171D01*
X94502426Y-81371506D01*
X94390888Y-81446033D01*
X94296033Y-81540888D01*
X94221506Y-81652426D01*
X94170171Y-81776360D01*
X94144000Y-81907927D01*
X92627083Y-81907927D01*
X92572574Y-81871506D01*
X92448640Y-81820171D01*
X92317073Y-81794000D01*
X92182927Y-81794000D01*
X92051360Y-81820171D01*
X91927426Y-81871506D01*
X91815888Y-81946033D01*
X91721033Y-82040888D01*
X91646506Y-82152426D01*
X91595171Y-82276360D01*
X91569000Y-82407927D01*
X91569000Y-82542073D01*
X91595171Y-82673640D01*
X91646506Y-82797574D01*
X91721033Y-82909112D01*
X91815888Y-83003967D01*
X91860075Y-83033492D01*
X91801360Y-83045171D01*
X91677426Y-83096506D01*
X91565888Y-83171033D01*
X91471033Y-83265888D01*
X91396506Y-83377426D01*
X91345171Y-83501360D01*
X91319000Y-83632927D01*
X91319000Y-83767073D01*
X91345171Y-83898640D01*
X91396506Y-84022574D01*
X91471033Y-84134112D01*
X91486921Y-84150000D01*
X91471033Y-84165888D01*
X91396506Y-84277426D01*
X91345171Y-84401360D01*
X91319000Y-84532927D01*
X91319000Y-84667073D01*
X91345171Y-84798640D01*
X91396506Y-84922574D01*
X91462206Y-85020902D01*
X91391033Y-85127420D01*
X91339698Y-85251354D01*
X91313527Y-85382921D01*
X90216000Y-85382921D01*
X90216000Y-85330465D01*
X90188869Y-85194067D01*
X90135649Y-85065584D01*
X90091827Y-85000000D01*
X90135649Y-84934416D01*
X90188869Y-84805933D01*
X90216000Y-84669535D01*
X90216000Y-84530465D01*
X90188869Y-84394067D01*
X90135649Y-84265584D01*
X90100066Y-84212331D01*
X90628504Y-83683893D01*
X90357115Y-83412504D01*
X90183068Y-83586551D01*
X90166631Y-83531474D01*
X90164185Y-83525568D01*
X90043709Y-83496101D01*
X89739810Y-83800000D01*
X89854715Y-83914905D01*
X89809663Y-83959956D01*
X89715933Y-83921131D01*
X89579535Y-83894000D01*
X89447419Y-83894000D01*
X89435649Y-83865584D01*
X89391827Y-83800000D01*
X89435649Y-83734416D01*
X89488869Y-83605933D01*
X89498305Y-83558495D01*
X89510000Y-83570190D01*
X89813899Y-83266291D01*
X89784432Y-83145815D01*
X89723386Y-83126995D01*
X89897496Y-82952885D01*
X89791980Y-82847369D01*
X89844416Y-82825649D01*
X89960049Y-82748386D01*
X90058386Y-82650049D01*
X90135649Y-82534416D01*
X90188869Y-82405933D01*
X90216000Y-82269535D01*
X90216000Y-82253901D01*
X90298400Y-82245785D01*
X90431482Y-82205415D01*
X90554130Y-82139858D01*
X90661633Y-82051633D01*
X90749858Y-81944130D01*
X90815415Y-81821482D01*
X90855785Y-81688399D01*
X90866000Y-81584683D01*
X90866000Y-81215316D01*
X90855785Y-81111600D01*
X90815415Y-80978518D01*
X90749858Y-80855870D01*
X90661632Y-80748367D01*
X90554129Y-80660142D01*
X90431481Y-80594585D01*
X90298399Y-80554215D01*
X90160000Y-80540584D01*
X90021600Y-80554215D01*
X89938039Y-80579563D01*
X89935040Y-80569678D01*
X89874278Y-80456000D01*
X103820026Y-80456000D01*
X103770171Y-80576360D01*
X103770171Y-80576360D01*
G37*
X103770171Y-80576360D02*
X103744000Y-80707927D01*
X103744000Y-80842073D01*
X103770171Y-80973640D01*
X103821506Y-81097574D01*
X103896033Y-81209112D01*
X103990888Y-81303967D01*
X104102426Y-81378494D01*
X104226360Y-81429829D01*
X104357927Y-81456000D01*
X104446290Y-81456000D01*
X104101972Y-81800318D01*
X104078967Y-81765888D01*
X103984112Y-81671033D01*
X103872574Y-81596506D01*
X103748640Y-81545171D01*
X103617073Y-81519000D01*
X103482927Y-81519000D01*
X103351360Y-81545171D01*
X103227426Y-81596506D01*
X103115888Y-81671033D01*
X103021033Y-81765888D01*
X102946506Y-81877426D01*
X102895171Y-82001360D01*
X102869000Y-82132927D01*
X102869000Y-82267073D01*
X102895171Y-82398640D01*
X102946506Y-82522574D01*
X102993706Y-82593215D01*
X102971033Y-82615888D01*
X102896506Y-82727426D01*
X102845171Y-82851360D01*
X102819000Y-82982927D01*
X102819000Y-83117073D01*
X102845171Y-83248640D01*
X102896506Y-83372574D01*
X102971033Y-83484112D01*
X103065888Y-83578967D01*
X103177426Y-83653494D01*
X103301360Y-83704829D01*
X103432927Y-83731000D01*
X103567073Y-83731000D01*
X103698640Y-83704829D01*
X103822574Y-83653494D01*
X103934112Y-83578967D01*
X104028967Y-83484112D01*
X104103494Y-83372574D01*
X104154829Y-83248640D01*
X104181000Y-83117073D01*
X104181000Y-83016709D01*
X104989710Y-82208000D01*
X105315017Y-82208000D01*
X105226119Y-82296898D01*
X105151592Y-82408436D01*
X105100257Y-82532370D01*
X105074086Y-82663937D01*
X105074086Y-82798083D01*
X105100257Y-82929650D01*
X105151592Y-83053584D01*
X105226119Y-83165122D01*
X105320974Y-83259977D01*
X105432512Y-83334504D01*
X105556446Y-83385839D01*
X105688013Y-83412010D01*
X105822159Y-83412010D01*
X105953726Y-83385839D01*
X106077660Y-83334504D01*
X106189198Y-83259977D01*
X106284053Y-83165122D01*
X106358580Y-83053584D01*
X106409915Y-82929650D01*
X106436086Y-82798083D01*
X106436086Y-82663937D01*
X106429918Y-82632927D01*
X109669000Y-82632927D01*
X109669000Y-82767073D01*
X109695171Y-82898640D01*
X109746506Y-83022574D01*
X109821033Y-83134112D01*
X109915888Y-83228967D01*
X110027426Y-83303494D01*
X110151360Y-83354829D01*
X110282927Y-83381000D01*
X110417073Y-83381000D01*
X110548640Y-83354829D01*
X110672574Y-83303494D01*
X110784112Y-83228967D01*
X110878967Y-83134112D01*
X110953494Y-83022574D01*
X111004829Y-82898640D01*
X111031000Y-82767073D01*
X111031000Y-82632927D01*
X111004829Y-82501360D01*
X110953494Y-82377426D01*
X110878967Y-82265888D01*
X110784112Y-82171033D01*
X110672574Y-82096506D01*
X110548640Y-82045171D01*
X110417073Y-82019000D01*
X110282927Y-82019000D01*
X110151360Y-82045171D01*
X110027426Y-82096506D01*
X109915888Y-82171033D01*
X109821033Y-82265888D01*
X109746506Y-82377426D01*
X109695171Y-82501360D01*
X109669000Y-82632927D01*
X106429918Y-82632927D01*
X106409915Y-82532370D01*
X106358580Y-82408436D01*
X106284053Y-82296898D01*
X106195155Y-82208000D01*
X107427501Y-82208000D01*
X107450000Y-82210216D01*
X107472499Y-82208000D01*
X107539784Y-82201373D01*
X107626117Y-82175184D01*
X107705682Y-82132656D01*
X107775422Y-82075422D01*
X107789769Y-82057940D01*
X108489710Y-81358000D01*
X115660291Y-81358000D01*
X115930291Y-81628001D01*
X115865888Y-81671033D01*
X115771033Y-81765888D01*
X115696506Y-81877426D01*
X115645171Y-82001360D01*
X115619000Y-82132927D01*
X115619000Y-82267073D01*
X115645171Y-82398640D01*
X115696506Y-82522574D01*
X115771033Y-82634112D01*
X115865888Y-82728967D01*
X115977426Y-82803494D01*
X116101360Y-82854829D01*
X116232927Y-82881000D01*
X116367073Y-82881000D01*
X116498640Y-82854829D01*
X116622574Y-82803494D01*
X116734112Y-82728967D01*
X116828967Y-82634112D01*
X116903494Y-82522574D01*
X116954829Y-82398640D01*
X116981000Y-82267073D01*
X116981000Y-82132927D01*
X116954829Y-82001360D01*
X116936869Y-81958000D01*
X117263131Y-81958000D01*
X117245171Y-82001360D01*
X117219000Y-82132927D01*
X117219000Y-82267073D01*
X117245171Y-82398640D01*
X117296506Y-82522574D01*
X117371033Y-82634112D01*
X117465888Y-82728967D01*
X117577426Y-82803494D01*
X117701360Y-82854829D01*
X117832927Y-82881000D01*
X117967073Y-82881000D01*
X118098640Y-82854829D01*
X118222574Y-82803494D01*
X118334112Y-82728967D01*
X118428967Y-82634112D01*
X118503494Y-82522574D01*
X118554829Y-82398640D01*
X118581000Y-82267073D01*
X118581000Y-82132927D01*
X118554829Y-82001360D01*
X118536869Y-81958000D01*
X119027501Y-81958000D01*
X119050000Y-81960216D01*
X119072499Y-81958000D01*
X119139784Y-81951373D01*
X119226117Y-81925184D01*
X119305682Y-81882656D01*
X119375422Y-81825422D01*
X119389769Y-81807940D01*
X119939710Y-81258000D01*
X121957760Y-81258000D01*
X121927196Y-81303742D01*
X121872092Y-81436775D01*
X121844000Y-81578003D01*
X121844000Y-81721997D01*
X121872092Y-81863225D01*
X121927196Y-81996258D01*
X122007195Y-82115985D01*
X122109015Y-82217805D01*
X122228742Y-82297804D01*
X122361775Y-82352908D01*
X122503003Y-82381000D01*
X122646997Y-82381000D01*
X122788225Y-82352908D01*
X122921258Y-82297804D01*
X123040985Y-82217805D01*
X123142805Y-82115985D01*
X123222804Y-81996258D01*
X123277908Y-81863225D01*
X123306000Y-81721997D01*
X123306000Y-81578003D01*
X123277908Y-81436775D01*
X123222804Y-81303742D01*
X123192240Y-81258000D01*
X129060291Y-81258000D01*
X129529224Y-81726934D01*
X129543567Y-81744411D01*
X129561043Y-81758753D01*
X129613307Y-81801645D01*
X129692872Y-81844173D01*
X129779205Y-81870362D01*
X129868989Y-81879205D01*
X129891488Y-81876989D01*
X134277502Y-81876989D01*
X134300001Y-81879205D01*
X134322500Y-81876989D01*
X134389785Y-81870362D01*
X134476118Y-81844173D01*
X134555683Y-81801645D01*
X134557700Y-81799990D01*
X134667073Y-81799990D01*
X134798640Y-81773819D01*
X134922574Y-81722484D01*
X134948851Y-81704926D01*
X134946506Y-81708436D01*
X134895171Y-81832370D01*
X134869000Y-81963937D01*
X134869000Y-82098083D01*
X134895171Y-82229650D01*
X134946506Y-82353584D01*
X135021033Y-82465122D01*
X135115888Y-82559977D01*
X135227426Y-82634504D01*
X135351360Y-82685839D01*
X135482927Y-82712010D01*
X135617073Y-82712010D01*
X135748640Y-82685839D01*
X135872574Y-82634504D01*
X135984112Y-82559977D01*
X136078967Y-82465122D01*
X136153494Y-82353584D01*
X136204829Y-82229650D01*
X136231000Y-82098083D01*
X136231000Y-81963937D01*
X136204829Y-81832370D01*
X136153494Y-81708436D01*
X136078967Y-81596898D01*
X135984112Y-81502043D01*
X135872574Y-81427516D01*
X135748640Y-81376181D01*
X135617073Y-81350010D01*
X135482927Y-81350010D01*
X135351360Y-81376181D01*
X135227426Y-81427516D01*
X135201149Y-81445074D01*
X135203494Y-81441564D01*
X135254829Y-81317630D01*
X135281000Y-81186063D01*
X135281000Y-81051917D01*
X135261920Y-80956000D01*
X142173000Y-80956000D01*
X142173000Y-84380921D01*
X142101360Y-84395171D01*
X141977426Y-84446506D01*
X141865888Y-84521033D01*
X141771033Y-84615888D01*
X141696506Y-84727426D01*
X141645171Y-84851360D01*
X141619000Y-84982927D01*
X141619000Y-85117073D01*
X141645171Y-85248640D01*
X141696506Y-85372574D01*
X141771033Y-85484112D01*
X141865888Y-85578967D01*
X141977426Y-85653494D01*
X142101360Y-85704829D01*
X142173000Y-85719079D01*
X142173000Y-88223461D01*
X142063860Y-88245171D01*
X141939926Y-88296506D01*
X141828388Y-88371033D01*
X141733533Y-88465888D01*
X141659006Y-88577426D01*
X141607671Y-88701360D01*
X141581500Y-88832927D01*
X141581500Y-88967073D01*
X141596802Y-89044000D01*
X131740904Y-89044000D01*
X131772804Y-88996258D01*
X131827908Y-88863225D01*
X131856000Y-88721997D01*
X131856000Y-88578003D01*
X131827908Y-88436775D01*
X131772804Y-88303742D01*
X131692805Y-88184015D01*
X131590985Y-88082195D01*
X131471258Y-88002196D01*
X131338225Y-87947092D01*
X131196997Y-87919000D01*
X131053003Y-87919000D01*
X130960130Y-87937474D01*
X131003494Y-87872574D01*
X131054829Y-87748640D01*
X131081000Y-87617073D01*
X131081000Y-87482927D01*
X131054829Y-87351360D01*
X131003494Y-87227426D01*
X130928967Y-87115888D01*
X130834112Y-87021033D01*
X130722574Y-86946506D01*
X130598640Y-86895171D01*
X130467073Y-86869000D01*
X130332927Y-86869000D01*
X130201360Y-86895171D01*
X130175611Y-86905836D01*
X130154829Y-86801360D01*
X130114089Y-86703003D01*
X139919000Y-86703003D01*
X139919000Y-86846997D01*
X139947092Y-86988225D01*
X140002196Y-87121258D01*
X140082195Y-87240985D01*
X140184015Y-87342805D01*
X140303742Y-87422804D01*
X140436775Y-87477908D01*
X140578003Y-87506000D01*
X140721997Y-87506000D01*
X140863225Y-87477908D01*
X140996258Y-87422804D01*
X141115985Y-87342805D01*
X141217805Y-87240985D01*
X141297804Y-87121258D01*
X141352908Y-86988225D01*
X141381000Y-86846997D01*
X141381000Y-86703003D01*
X141352908Y-86561775D01*
X141297804Y-86428742D01*
X141217805Y-86309015D01*
X141115985Y-86207195D01*
X140996258Y-86127196D01*
X140863225Y-86072092D01*
X140721997Y-86044000D01*
X140578003Y-86044000D01*
X140436775Y-86072092D01*
X140303742Y-86127196D01*
X140184015Y-86207195D01*
X140082195Y-86309015D01*
X140002196Y-86428742D01*
X139947092Y-86561775D01*
X139919000Y-86703003D01*
X130114089Y-86703003D01*
X130103494Y-86677426D01*
X130028967Y-86565888D01*
X129934112Y-86471033D01*
X129822574Y-86396506D01*
X129698640Y-86345171D01*
X129567073Y-86319000D01*
X129432927Y-86319000D01*
X129301360Y-86345171D01*
X129177426Y-86396506D01*
X129065888Y-86471033D01*
X128971033Y-86565888D01*
X128896506Y-86677426D01*
X128845171Y-86801360D01*
X128819000Y-86932927D01*
X128819000Y-87067073D01*
X128845171Y-87198640D01*
X128896506Y-87322574D01*
X128971033Y-87434112D01*
X129065888Y-87528967D01*
X129177426Y-87603494D01*
X129301360Y-87654829D01*
X129432927Y-87681000D01*
X129567073Y-87681000D01*
X129698640Y-87654829D01*
X129724389Y-87644164D01*
X129745171Y-87748640D01*
X129796506Y-87872574D01*
X129871033Y-87984112D01*
X129965888Y-88078967D01*
X130077426Y-88153494D01*
X130201360Y-88204829D01*
X130332927Y-88231000D01*
X130467073Y-88231000D01*
X130534803Y-88217527D01*
X130477196Y-88303742D01*
X130422092Y-88436775D01*
X130394000Y-88578003D01*
X130394000Y-88721997D01*
X130422092Y-88863225D01*
X130477196Y-88996258D01*
X130557195Y-89115985D01*
X130620925Y-89179715D01*
X129892355Y-89544000D01*
X122246360Y-89544000D01*
X122339316Y-89404881D01*
X122405182Y-89245866D01*
X122438760Y-89077058D01*
X122438760Y-88904942D01*
X122405182Y-88736134D01*
X122339316Y-88577119D01*
X122243694Y-88434010D01*
X122121990Y-88312306D01*
X121978881Y-88216684D01*
X121819866Y-88150818D01*
X121651058Y-88117240D01*
X121478942Y-88117240D01*
X121310134Y-88150818D01*
X121151119Y-88216684D01*
X121008010Y-88312306D01*
X120886306Y-88434010D01*
X120790684Y-88577119D01*
X120724818Y-88736134D01*
X120691240Y-88904942D01*
X120691240Y-89077058D01*
X120724818Y-89245866D01*
X120790684Y-89404881D01*
X120883640Y-89544000D01*
X120511040Y-89544000D01*
X120529829Y-89498640D01*
X120556000Y-89367073D01*
X120556000Y-89232927D01*
X120529829Y-89101360D01*
X120478494Y-88977426D01*
X120403967Y-88865888D01*
X120309112Y-88771033D01*
X120197574Y-88696506D01*
X120073640Y-88645171D01*
X119942073Y-88619000D01*
X119807927Y-88619000D01*
X119676360Y-88645171D01*
X119552426Y-88696506D01*
X119440888Y-88771033D01*
X119346033Y-88865888D01*
X119271506Y-88977426D01*
X119220171Y-89101360D01*
X119194000Y-89232927D01*
X119194000Y-89367073D01*
X119220171Y-89498640D01*
X119238960Y-89544000D01*
X117394079Y-89544000D01*
X117453967Y-89484112D01*
X117528494Y-89372574D01*
X117579829Y-89248640D01*
X117606000Y-89117073D01*
X117606000Y-88982927D01*
X117579829Y-88851360D01*
X117528494Y-88727426D01*
X117453967Y-88615888D01*
X117359112Y-88521033D01*
X117247574Y-88446506D01*
X117227810Y-88438319D01*
X117260442Y-88389482D01*
X117326403Y-88230237D01*
X117360030Y-88061183D01*
X117360030Y-87888817D01*
X117326403Y-87719763D01*
X117260442Y-87560518D01*
X117164680Y-87417201D01*
X117042799Y-87295320D01*
X116899482Y-87199558D01*
X116740237Y-87133597D01*
X116571183Y-87099970D01*
X116398817Y-87099970D01*
X116266928Y-87126204D01*
X116254829Y-87065381D01*
X116203494Y-86941447D01*
X116128967Y-86829909D01*
X116034112Y-86735054D01*
X115922574Y-86660527D01*
X115798640Y-86609192D01*
X115667073Y-86583021D01*
X115532927Y-86583021D01*
X115401360Y-86609192D01*
X115277426Y-86660527D01*
X115165888Y-86735054D01*
X115071033Y-86829909D01*
X114996506Y-86941447D01*
X114945171Y-87065381D01*
X114919000Y-87196948D01*
X114919000Y-87331094D01*
X114945171Y-87462661D01*
X114996506Y-87586595D01*
X115071033Y-87698133D01*
X115165888Y-87792988D01*
X115277426Y-87867515D01*
X115401360Y-87918850D01*
X115532927Y-87945021D01*
X115609970Y-87945021D01*
X115609970Y-88061183D01*
X115643597Y-88230237D01*
X115709558Y-88389482D01*
X115805320Y-88532799D01*
X115823841Y-88551320D01*
X115748640Y-88520171D01*
X115617073Y-88494000D01*
X115482927Y-88494000D01*
X115351360Y-88520171D01*
X115227426Y-88571506D01*
X115115888Y-88646033D01*
X115021033Y-88740888D01*
X114946506Y-88852426D01*
X114895171Y-88976360D01*
X114869000Y-89107927D01*
X114869000Y-89242073D01*
X114895171Y-89373640D01*
X114946506Y-89497574D01*
X114977527Y-89544000D01*
X110455752Y-89544000D01*
X110481000Y-89417073D01*
X110481000Y-89282927D01*
X110454829Y-89151360D01*
X110403494Y-89027426D01*
X110328967Y-88915888D01*
X110234112Y-88821033D01*
X110122574Y-88746506D01*
X109998640Y-88695171D01*
X109867073Y-88669000D01*
X109732927Y-88669000D01*
X109601360Y-88695171D01*
X109477426Y-88746506D01*
X109365888Y-88821033D01*
X109271033Y-88915888D01*
X109196506Y-89027426D01*
X109145171Y-89151360D01*
X109119000Y-89282927D01*
X109119000Y-89417073D01*
X109144248Y-89544000D01*
X89874278Y-89544000D01*
X89935040Y-89430322D01*
X89979452Y-89283918D01*
X90090465Y-89306000D01*
X90229535Y-89306000D01*
X90365933Y-89278869D01*
X90494416Y-89225649D01*
X90610049Y-89148386D01*
X90708386Y-89050049D01*
X90785649Y-88934416D01*
X90838869Y-88805933D01*
X90866000Y-88669535D01*
X90866000Y-88530465D01*
X90846599Y-88432927D01*
X111394000Y-88432927D01*
X111394000Y-88567073D01*
X111420171Y-88698640D01*
X111471506Y-88822574D01*
X111546033Y-88934112D01*
X111640888Y-89028967D01*
X111752426Y-89103494D01*
X111876360Y-89154829D01*
X112007927Y-89181000D01*
X112142073Y-89181000D01*
X112273640Y-89154829D01*
X112397574Y-89103494D01*
X112509112Y-89028967D01*
X112603967Y-88934112D01*
X112678494Y-88822574D01*
X112729829Y-88698640D01*
X112756000Y-88567073D01*
X112756000Y-88432927D01*
X112729829Y-88301360D01*
X112678494Y-88177426D01*
X112603967Y-88065888D01*
X112509112Y-87971033D01*
X112397574Y-87896506D01*
X112273640Y-87845171D01*
X112142073Y-87819000D01*
X112007927Y-87819000D01*
X111876360Y-87845171D01*
X111752426Y-87896506D01*
X111640888Y-87971033D01*
X111546033Y-88065888D01*
X111471506Y-88177426D01*
X111420171Y-88301360D01*
X111394000Y-88432927D01*
X90846599Y-88432927D01*
X90838869Y-88394067D01*
X90785649Y-88265584D01*
X90708386Y-88149951D01*
X90610049Y-88051614D01*
X90494416Y-87974351D01*
X90365933Y-87921131D01*
X90229535Y-87894000D01*
X90211134Y-87894000D01*
X90216000Y-87869535D01*
X90216000Y-87730465D01*
X90188869Y-87594067D01*
X90135649Y-87465584D01*
X90058386Y-87349951D01*
X89960049Y-87251614D01*
X89844416Y-87174351D01*
X89791980Y-87152631D01*
X89811684Y-87132927D01*
X92544000Y-87132927D01*
X92544000Y-87267073D01*
X92570171Y-87398640D01*
X92621506Y-87522574D01*
X92696033Y-87634112D01*
X92790888Y-87728967D01*
X92902426Y-87803494D01*
X93026360Y-87854829D01*
X93157927Y-87881000D01*
X93292073Y-87881000D01*
X93423640Y-87854829D01*
X93547574Y-87803494D01*
X93659112Y-87728967D01*
X93753967Y-87634112D01*
X93828494Y-87522574D01*
X93879829Y-87398640D01*
X93882954Y-87382927D01*
X101019000Y-87382927D01*
X101019000Y-87517073D01*
X101045171Y-87648640D01*
X101096506Y-87772574D01*
X101171033Y-87884112D01*
X101265888Y-87978967D01*
X101377426Y-88053494D01*
X101501360Y-88104829D01*
X101632927Y-88131000D01*
X101767073Y-88131000D01*
X101898640Y-88104829D01*
X102022574Y-88053494D01*
X102134112Y-87978967D01*
X102228967Y-87884112D01*
X102303494Y-87772574D01*
X102354829Y-87648640D01*
X102381000Y-87517073D01*
X102381000Y-87382927D01*
X102354829Y-87251360D01*
X102347194Y-87232927D01*
X105069000Y-87232927D01*
X105069000Y-87367073D01*
X105095171Y-87498640D01*
X105146506Y-87622574D01*
X105221033Y-87734112D01*
X105315888Y-87828967D01*
X105427426Y-87903494D01*
X105551360Y-87954829D01*
X105682927Y-87981000D01*
X105817073Y-87981000D01*
X105948640Y-87954829D01*
X106072574Y-87903494D01*
X106184112Y-87828967D01*
X106278967Y-87734112D01*
X106353494Y-87622574D01*
X106404829Y-87498640D01*
X106431000Y-87367073D01*
X106431000Y-87232927D01*
X109669000Y-87232927D01*
X109669000Y-87367073D01*
X109695171Y-87498640D01*
X109746506Y-87622574D01*
X109821033Y-87734112D01*
X109915888Y-87828967D01*
X110027426Y-87903494D01*
X110151360Y-87954829D01*
X110282927Y-87981000D01*
X110417073Y-87981000D01*
X110548640Y-87954829D01*
X110672574Y-87903494D01*
X110784112Y-87828967D01*
X110878967Y-87734112D01*
X110953494Y-87622574D01*
X111004829Y-87498640D01*
X111031000Y-87367073D01*
X111031000Y-87232927D01*
X111004829Y-87101360D01*
X110953494Y-86977426D01*
X110878967Y-86865888D01*
X110784112Y-86771033D01*
X110672574Y-86696506D01*
X110548640Y-86645171D01*
X110417073Y-86619000D01*
X110282927Y-86619000D01*
X110151360Y-86645171D01*
X110027426Y-86696506D01*
X109915888Y-86771033D01*
X109821033Y-86865888D01*
X109746506Y-86977426D01*
X109695171Y-87101360D01*
X109669000Y-87232927D01*
X106431000Y-87232927D01*
X106404829Y-87101360D01*
X106353494Y-86977426D01*
X106278967Y-86865888D01*
X106184112Y-86771033D01*
X106072574Y-86696506D01*
X105948640Y-86645171D01*
X105817073Y-86619000D01*
X105682927Y-86619000D01*
X105551360Y-86645171D01*
X105427426Y-86696506D01*
X105315888Y-86771033D01*
X105221033Y-86865888D01*
X105146506Y-86977426D01*
X105095171Y-87101360D01*
X105069000Y-87232927D01*
X102347194Y-87232927D01*
X102303494Y-87127426D01*
X102228967Y-87015888D01*
X102134112Y-86921033D01*
X102022574Y-86846506D01*
X101898640Y-86795171D01*
X101767073Y-86769000D01*
X101632927Y-86769000D01*
X101501360Y-86795171D01*
X101377426Y-86846506D01*
X101265888Y-86921033D01*
X101171033Y-87015888D01*
X101096506Y-87127426D01*
X101045171Y-87251360D01*
X101019000Y-87382927D01*
X93882954Y-87382927D01*
X93906000Y-87267073D01*
X93906000Y-87132927D01*
X93879829Y-87001360D01*
X93828494Y-86877426D01*
X93753967Y-86765888D01*
X93659112Y-86671033D01*
X93547574Y-86596506D01*
X93423640Y-86545171D01*
X93292073Y-86519000D01*
X93157927Y-86519000D01*
X93026360Y-86545171D01*
X92902426Y-86596506D01*
X92790888Y-86671033D01*
X92696033Y-86765888D01*
X92621506Y-86877426D01*
X92570171Y-87001360D01*
X92544000Y-87132927D01*
X89811684Y-87132927D01*
X89897496Y-87047115D01*
X89723449Y-86873068D01*
X89778526Y-86856631D01*
X89784432Y-86854185D01*
X89813899Y-86733709D01*
X89510000Y-86429810D01*
X89498305Y-86441505D01*
X89488869Y-86394067D01*
X89435649Y-86265584D01*
X89391827Y-86200000D01*
X89435649Y-86134416D01*
X89447419Y-86106000D01*
X89579535Y-86106000D01*
X89715933Y-86078869D01*
X89809663Y-86040044D01*
X89854715Y-86085096D01*
X89739810Y-86200000D01*
X90043709Y-86503899D01*
X90164185Y-86474432D01*
X90183005Y-86413386D01*
X90357115Y-86587496D01*
X90628504Y-86316107D01*
X90100066Y-85787669D01*
X90135649Y-85734416D01*
X90188869Y-85605933D01*
X90216000Y-85469535D01*
X90216000Y-85382921D01*
X91313527Y-85382921D01*
X91313527Y-85517067D01*
X91339698Y-85648634D01*
X91391033Y-85772568D01*
X91465560Y-85884106D01*
X91560415Y-85978961D01*
X91671953Y-86053488D01*
X91795887Y-86104823D01*
X91927454Y-86130994D01*
X92061600Y-86130994D01*
X92193167Y-86104823D01*
X92317101Y-86053488D01*
X92347872Y-86032927D01*
X95119000Y-86032927D01*
X95119000Y-86167073D01*
X95145171Y-86298640D01*
X95196506Y-86422574D01*
X95271033Y-86534112D01*
X95365888Y-86628967D01*
X95477426Y-86703494D01*
X95601360Y-86754829D01*
X95732927Y-86781000D01*
X95867073Y-86781000D01*
X95998640Y-86754829D01*
X96122574Y-86703494D01*
X96228185Y-86632927D01*
X98269000Y-86632927D01*
X98269000Y-86767073D01*
X98295171Y-86898640D01*
X98346506Y-87022574D01*
X98421033Y-87134112D01*
X98515888Y-87228967D01*
X98627426Y-87303494D01*
X98751360Y-87354829D01*
X98882927Y-87381000D01*
X99017073Y-87381000D01*
X99148640Y-87354829D01*
X99272574Y-87303494D01*
X99384112Y-87228967D01*
X99478967Y-87134112D01*
X99553494Y-87022574D01*
X99604829Y-86898640D01*
X99631000Y-86767073D01*
X99631000Y-86632927D01*
X99604829Y-86501360D01*
X99576481Y-86432921D01*
X102319000Y-86432921D01*
X102319000Y-86567067D01*
X102345171Y-86698634D01*
X102396506Y-86822568D01*
X102471033Y-86934106D01*
X102565888Y-87028961D01*
X102677426Y-87103488D01*
X102801360Y-87154823D01*
X102932927Y-87180994D01*
X103067073Y-87180994D01*
X103198640Y-87154823D01*
X103322574Y-87103488D01*
X103434112Y-87028961D01*
X103528967Y-86934106D01*
X103603494Y-86822568D01*
X103654829Y-86698634D01*
X103681000Y-86567067D01*
X103681000Y-86532927D01*
X118969000Y-86532927D01*
X118969000Y-86667073D01*
X118995171Y-86798640D01*
X119046506Y-86922574D01*
X119121033Y-87034112D01*
X119215888Y-87128967D01*
X119327426Y-87203494D01*
X119451360Y-87254829D01*
X119582927Y-87281000D01*
X119717073Y-87281000D01*
X119848640Y-87254829D01*
X119972574Y-87203494D01*
X120084112Y-87128967D01*
X120178967Y-87034112D01*
X120253494Y-86922574D01*
X120274052Y-86872942D01*
X120691240Y-86872942D01*
X120691240Y-87045058D01*
X120724818Y-87213866D01*
X120790684Y-87372881D01*
X120886306Y-87515990D01*
X121008010Y-87637694D01*
X121151119Y-87733316D01*
X121310134Y-87799182D01*
X121478942Y-87832760D01*
X121651058Y-87832760D01*
X121819866Y-87799182D01*
X121978881Y-87733316D01*
X122121990Y-87637694D01*
X122243694Y-87515990D01*
X122339316Y-87372881D01*
X122405182Y-87213866D01*
X122438760Y-87045058D01*
X122438760Y-86872942D01*
X122405182Y-86704134D01*
X122339316Y-86545119D01*
X122243694Y-86402010D01*
X122121990Y-86280306D01*
X121978881Y-86184684D01*
X121819866Y-86118818D01*
X121651058Y-86085240D01*
X121478942Y-86085240D01*
X121310134Y-86118818D01*
X121151119Y-86184684D01*
X121008010Y-86280306D01*
X120886306Y-86402010D01*
X120790684Y-86545119D01*
X120724818Y-86704134D01*
X120691240Y-86872942D01*
X120274052Y-86872942D01*
X120304829Y-86798640D01*
X120331000Y-86667073D01*
X120331000Y-86532927D01*
X120304829Y-86401360D01*
X120253494Y-86277426D01*
X120178967Y-86165888D01*
X120143331Y-86130252D01*
X120147574Y-86128494D01*
X120173255Y-86111334D01*
X120215888Y-86153967D01*
X120327426Y-86228494D01*
X120451360Y-86279829D01*
X120582927Y-86306000D01*
X120717073Y-86306000D01*
X120848640Y-86279829D01*
X120972574Y-86228494D01*
X121084112Y-86153967D01*
X121178967Y-86059112D01*
X121253494Y-85947574D01*
X121304829Y-85823640D01*
X121331000Y-85692073D01*
X121331000Y-85603003D01*
X122669000Y-85603003D01*
X122669000Y-85746997D01*
X122697092Y-85888225D01*
X122752196Y-86021258D01*
X122832195Y-86140985D01*
X122934015Y-86242805D01*
X123053742Y-86322804D01*
X123186775Y-86377908D01*
X123328003Y-86406000D01*
X123471997Y-86406000D01*
X123613225Y-86377908D01*
X123746258Y-86322804D01*
X123865985Y-86242805D01*
X123967805Y-86140985D01*
X124047804Y-86021258D01*
X124102908Y-85888225D01*
X124131000Y-85746997D01*
X124131000Y-85603003D01*
X124102908Y-85461775D01*
X124047804Y-85328742D01*
X123983783Y-85232927D01*
X136269000Y-85232927D01*
X136269000Y-85367073D01*
X136295171Y-85498640D01*
X136346506Y-85622574D01*
X136421033Y-85734112D01*
X136515888Y-85828967D01*
X136627426Y-85903494D01*
X136751360Y-85954829D01*
X136882927Y-85981000D01*
X137017073Y-85981000D01*
X137148640Y-85954829D01*
X137272574Y-85903494D01*
X137384112Y-85828967D01*
X137478967Y-85734112D01*
X137553494Y-85622574D01*
X137604829Y-85498640D01*
X137631000Y-85367073D01*
X137631000Y-85232927D01*
X137604829Y-85101360D01*
X137553734Y-84978003D01*
X139569000Y-84978003D01*
X139569000Y-85121997D01*
X139597092Y-85263225D01*
X139652196Y-85396258D01*
X139732195Y-85515985D01*
X139834015Y-85617805D01*
X139953742Y-85697804D01*
X140086775Y-85752908D01*
X140228003Y-85781000D01*
X140371997Y-85781000D01*
X140513225Y-85752908D01*
X140646258Y-85697804D01*
X140765985Y-85617805D01*
X140867805Y-85515985D01*
X140947804Y-85396258D01*
X141002908Y-85263225D01*
X141031000Y-85121997D01*
X141031000Y-84978003D01*
X141002908Y-84836775D01*
X140947804Y-84703742D01*
X140867805Y-84584015D01*
X140765985Y-84482195D01*
X140646258Y-84402196D01*
X140513225Y-84347092D01*
X140371997Y-84319000D01*
X140228003Y-84319000D01*
X140086775Y-84347092D01*
X139953742Y-84402196D01*
X139834015Y-84482195D01*
X139732195Y-84584015D01*
X139652196Y-84703742D01*
X139597092Y-84836775D01*
X139569000Y-84978003D01*
X137553734Y-84978003D01*
X137553494Y-84977426D01*
X137478967Y-84865888D01*
X137384112Y-84771033D01*
X137272574Y-84696506D01*
X137148640Y-84645171D01*
X137017073Y-84619000D01*
X136882927Y-84619000D01*
X136751360Y-84645171D01*
X136627426Y-84696506D01*
X136515888Y-84771033D01*
X136421033Y-84865888D01*
X136346506Y-84977426D01*
X136295171Y-85101360D01*
X136269000Y-85232927D01*
X123983783Y-85232927D01*
X123967805Y-85209015D01*
X123865985Y-85107195D01*
X123746258Y-85027196D01*
X123613225Y-84972092D01*
X123471997Y-84944000D01*
X123328003Y-84944000D01*
X123186775Y-84972092D01*
X123053742Y-85027196D01*
X122934015Y-85107195D01*
X122832195Y-85209015D01*
X122752196Y-85328742D01*
X122697092Y-85461775D01*
X122669000Y-85603003D01*
X121331000Y-85603003D01*
X121331000Y-85557927D01*
X121304829Y-85426360D01*
X121253494Y-85302426D01*
X121178967Y-85190888D01*
X121084112Y-85096033D01*
X120972574Y-85021506D01*
X120848640Y-84970171D01*
X120717073Y-84944000D01*
X120582927Y-84944000D01*
X120451360Y-84970171D01*
X120327426Y-85021506D01*
X120301745Y-85038666D01*
X120259112Y-84996033D01*
X120147574Y-84921506D01*
X120023640Y-84870171D01*
X119892073Y-84844000D01*
X119757927Y-84844000D01*
X119626360Y-84870171D01*
X119502426Y-84921506D01*
X119390888Y-84996033D01*
X119296033Y-85090888D01*
X119221506Y-85202426D01*
X119170171Y-85326360D01*
X119144000Y-85457927D01*
X119144000Y-85592073D01*
X119170171Y-85723640D01*
X119221506Y-85847574D01*
X119296033Y-85959112D01*
X119331669Y-85994748D01*
X119327426Y-85996506D01*
X119215888Y-86071033D01*
X119121033Y-86165888D01*
X119046506Y-86277426D01*
X118995171Y-86401360D01*
X118969000Y-86532927D01*
X103681000Y-86532927D01*
X103681000Y-86432921D01*
X103654829Y-86301354D01*
X103603494Y-86177420D01*
X103528967Y-86065882D01*
X103434112Y-85971027D01*
X103322574Y-85896500D01*
X103198640Y-85845165D01*
X103067073Y-85818994D01*
X102932927Y-85818994D01*
X102801360Y-85845165D01*
X102677426Y-85896500D01*
X102565888Y-85971027D01*
X102471033Y-86065882D01*
X102396506Y-86177420D01*
X102345171Y-86301354D01*
X102319000Y-86432921D01*
X99576481Y-86432921D01*
X99553494Y-86377426D01*
X99478967Y-86265888D01*
X99384112Y-86171033D01*
X99272574Y-86096506D01*
X99148640Y-86045171D01*
X99017073Y-86019000D01*
X98882927Y-86019000D01*
X98751360Y-86045171D01*
X98627426Y-86096506D01*
X98515888Y-86171033D01*
X98421033Y-86265888D01*
X98346506Y-86377426D01*
X98295171Y-86501360D01*
X98269000Y-86632927D01*
X96228185Y-86632927D01*
X96234112Y-86628967D01*
X96328967Y-86534112D01*
X96403494Y-86422574D01*
X96454829Y-86298640D01*
X96481000Y-86167073D01*
X96481000Y-86032927D01*
X96454829Y-85901360D01*
X96403494Y-85777426D01*
X96328967Y-85665888D01*
X96234112Y-85571033D01*
X96122574Y-85496506D01*
X95998640Y-85445171D01*
X95867073Y-85419000D01*
X95732927Y-85419000D01*
X95601360Y-85445171D01*
X95477426Y-85496506D01*
X95365888Y-85571033D01*
X95271033Y-85665888D01*
X95196506Y-85777426D01*
X95145171Y-85901360D01*
X95119000Y-86032927D01*
X92347872Y-86032927D01*
X92428639Y-85978961D01*
X92523494Y-85884106D01*
X92598021Y-85772568D01*
X92649356Y-85648634D01*
X92675527Y-85517067D01*
X92675527Y-85382921D01*
X92649356Y-85251354D01*
X92598021Y-85127420D01*
X92532321Y-85029092D01*
X92603494Y-84922574D01*
X92619916Y-84882927D01*
X96344000Y-84882927D01*
X96344000Y-85017073D01*
X96370171Y-85148640D01*
X96421506Y-85272574D01*
X96496033Y-85384112D01*
X96590888Y-85478967D01*
X96702426Y-85553494D01*
X96826360Y-85604829D01*
X96957927Y-85631000D01*
X97092073Y-85631000D01*
X97223640Y-85604829D01*
X97225040Y-85604249D01*
X97195171Y-85676360D01*
X97169000Y-85807927D01*
X97169000Y-85942073D01*
X97195171Y-86073640D01*
X97246506Y-86197574D01*
X97321033Y-86309112D01*
X97415888Y-86403967D01*
X97527426Y-86478494D01*
X97651360Y-86529829D01*
X97782927Y-86556000D01*
X97917073Y-86556000D01*
X98048640Y-86529829D01*
X98172574Y-86478494D01*
X98284112Y-86403967D01*
X98378967Y-86309112D01*
X98453494Y-86197574D01*
X98504829Y-86073640D01*
X98531000Y-85942073D01*
X98531000Y-85807927D01*
X98504829Y-85676360D01*
X98453494Y-85552426D01*
X98378967Y-85440888D01*
X98284112Y-85346033D01*
X98172574Y-85271506D01*
X98048640Y-85220171D01*
X97917073Y-85194000D01*
X97782927Y-85194000D01*
X97651360Y-85220171D01*
X97649960Y-85220751D01*
X97679829Y-85148640D01*
X97706000Y-85017073D01*
X97706000Y-84882927D01*
X102318992Y-84882927D01*
X102318992Y-85017073D01*
X102345163Y-85148640D01*
X102396498Y-85272574D01*
X102471025Y-85384112D01*
X102565880Y-85478967D01*
X102677418Y-85553494D01*
X102801352Y-85604829D01*
X102932919Y-85631000D01*
X103067065Y-85631000D01*
X103198632Y-85604829D01*
X103322566Y-85553494D01*
X103434104Y-85478967D01*
X103528959Y-85384112D01*
X103603486Y-85272574D01*
X103654821Y-85148640D01*
X103680992Y-85017073D01*
X103680992Y-84882927D01*
X103654821Y-84751360D01*
X103647186Y-84732927D01*
X112069000Y-84732927D01*
X112069000Y-84867073D01*
X112095171Y-84998640D01*
X112146506Y-85122574D01*
X112221033Y-85234112D01*
X112315888Y-85328967D01*
X112427426Y-85403494D01*
X112551360Y-85454829D01*
X112682927Y-85481000D01*
X112817073Y-85481000D01*
X112948640Y-85454829D01*
X113072574Y-85403494D01*
X113184112Y-85328967D01*
X113278967Y-85234112D01*
X113353494Y-85122574D01*
X113404829Y-84998640D01*
X113427846Y-84882927D01*
X116319000Y-84882927D01*
X116319000Y-85017073D01*
X116345171Y-85148640D01*
X116396506Y-85272574D01*
X116471033Y-85384112D01*
X116565888Y-85478967D01*
X116677426Y-85553494D01*
X116801360Y-85604829D01*
X116932927Y-85631000D01*
X117067073Y-85631000D01*
X117198640Y-85604829D01*
X117322574Y-85553494D01*
X117434112Y-85478967D01*
X117528967Y-85384112D01*
X117603494Y-85272574D01*
X117654829Y-85148640D01*
X117681000Y-85017073D01*
X117681000Y-84882927D01*
X117654829Y-84751360D01*
X117603494Y-84627426D01*
X117528967Y-84515888D01*
X117434112Y-84421033D01*
X117322574Y-84346506D01*
X117198640Y-84295171D01*
X117067073Y-84269000D01*
X116932927Y-84269000D01*
X116801360Y-84295171D01*
X116677426Y-84346506D01*
X116565888Y-84421033D01*
X116471033Y-84515888D01*
X116396506Y-84627426D01*
X116345171Y-84751360D01*
X116319000Y-84882927D01*
X113427846Y-84882927D01*
X113431000Y-84867073D01*
X113431000Y-84732927D01*
X113404829Y-84601360D01*
X113353494Y-84477426D01*
X113278967Y-84365888D01*
X113184112Y-84271033D01*
X113072574Y-84196506D01*
X112948640Y-84145171D01*
X112817073Y-84119000D01*
X112682927Y-84119000D01*
X112551360Y-84145171D01*
X112427426Y-84196506D01*
X112315888Y-84271033D01*
X112221033Y-84365888D01*
X112146506Y-84477426D01*
X112095171Y-84601360D01*
X112069000Y-84732927D01*
X103647186Y-84732927D01*
X103603486Y-84627426D01*
X103528959Y-84515888D01*
X103434104Y-84421033D01*
X103322566Y-84346506D01*
X103198632Y-84295171D01*
X103067065Y-84269000D01*
X102932919Y-84269000D01*
X102801352Y-84295171D01*
X102677418Y-84346506D01*
X102565880Y-84421033D01*
X102471025Y-84515888D01*
X102396498Y-84627426D01*
X102345163Y-84751360D01*
X102318992Y-84882927D01*
X97706000Y-84882927D01*
X97679829Y-84751360D01*
X97628494Y-84627426D01*
X97553967Y-84515888D01*
X97459112Y-84421033D01*
X97347574Y-84346506D01*
X97223640Y-84295171D01*
X97092073Y-84269000D01*
X96957927Y-84269000D01*
X96826360Y-84295171D01*
X96702426Y-84346506D01*
X96590888Y-84421033D01*
X96496033Y-84515888D01*
X96421506Y-84627426D01*
X96370171Y-84751360D01*
X96344000Y-84882927D01*
X92619916Y-84882927D01*
X92654829Y-84798640D01*
X92681000Y-84667073D01*
X92681000Y-84532927D01*
X92654829Y-84401360D01*
X92603494Y-84277426D01*
X92528967Y-84165888D01*
X92513079Y-84150000D01*
X92528967Y-84134112D01*
X92596579Y-84032923D01*
X114119000Y-84032923D01*
X114119000Y-84167069D01*
X114145171Y-84298636D01*
X114196506Y-84422570D01*
X114271033Y-84534108D01*
X114365888Y-84628963D01*
X114477426Y-84703490D01*
X114601360Y-84754825D01*
X114732927Y-84780996D01*
X114867073Y-84780996D01*
X114998640Y-84754825D01*
X115122574Y-84703490D01*
X115234112Y-84628963D01*
X115328967Y-84534108D01*
X115403494Y-84422570D01*
X115454829Y-84298636D01*
X115481000Y-84167069D01*
X115481000Y-84032923D01*
X115454829Y-83901356D01*
X115403494Y-83777422D01*
X115328967Y-83665884D01*
X115296010Y-83632927D01*
X115669000Y-83632927D01*
X115669000Y-83767073D01*
X115695171Y-83898640D01*
X115746506Y-84022574D01*
X115821033Y-84134112D01*
X115915888Y-84228967D01*
X116027426Y-84303494D01*
X116151360Y-84354829D01*
X116282927Y-84381000D01*
X116417073Y-84381000D01*
X116548640Y-84354829D01*
X116672574Y-84303494D01*
X116784112Y-84228967D01*
X116878967Y-84134112D01*
X116953494Y-84022574D01*
X117004829Y-83898640D01*
X117031000Y-83767073D01*
X117031000Y-83632927D01*
X117169000Y-83632927D01*
X117169000Y-83767073D01*
X117195171Y-83898640D01*
X117246506Y-84022574D01*
X117321033Y-84134112D01*
X117415888Y-84228967D01*
X117527426Y-84303494D01*
X117651360Y-84354829D01*
X117782927Y-84381000D01*
X117917073Y-84381000D01*
X118048640Y-84354829D01*
X118172574Y-84303494D01*
X118284112Y-84228967D01*
X118378967Y-84134112D01*
X118453494Y-84022574D01*
X118504829Y-83898640D01*
X118506116Y-83892166D01*
X122583163Y-83892166D01*
X122583163Y-84036160D01*
X122611255Y-84177388D01*
X122666359Y-84310421D01*
X122746358Y-84430148D01*
X122848178Y-84531968D01*
X122967905Y-84611967D01*
X123100938Y-84667071D01*
X123242166Y-84695163D01*
X123386160Y-84695163D01*
X123527388Y-84667071D01*
X123660421Y-84611967D01*
X123780148Y-84531968D01*
X123881968Y-84430148D01*
X123961967Y-84310421D01*
X124006460Y-84203003D01*
X125994000Y-84203003D01*
X125994000Y-84346997D01*
X126022092Y-84488225D01*
X126077196Y-84621258D01*
X126157195Y-84740985D01*
X126259015Y-84842805D01*
X126378742Y-84922804D01*
X126511775Y-84977908D01*
X126653003Y-85006000D01*
X126796997Y-85006000D01*
X126938225Y-84977908D01*
X127071258Y-84922804D01*
X127190985Y-84842805D01*
X127292805Y-84740985D01*
X127372804Y-84621258D01*
X127427908Y-84488225D01*
X127456000Y-84346997D01*
X127456000Y-84203003D01*
X127427908Y-84061775D01*
X127372804Y-83928742D01*
X127292805Y-83809015D01*
X127190985Y-83707195D01*
X127124422Y-83662719D01*
X133087990Y-83662719D01*
X133087990Y-83796865D01*
X133114161Y-83928432D01*
X133165496Y-84052366D01*
X133240023Y-84163904D01*
X133334878Y-84258759D01*
X133446416Y-84333286D01*
X133570350Y-84384621D01*
X133701917Y-84410792D01*
X133836063Y-84410792D01*
X133967630Y-84384621D01*
X134091564Y-84333286D01*
X134203102Y-84258759D01*
X134297957Y-84163904D01*
X134372484Y-84052366D01*
X134423819Y-83928432D01*
X134449990Y-83796865D01*
X134449990Y-83662719D01*
X134423819Y-83531152D01*
X134372484Y-83407218D01*
X134297957Y-83295680D01*
X134203102Y-83200825D01*
X134091564Y-83126298D01*
X133967630Y-83074963D01*
X133836063Y-83048792D01*
X133701917Y-83048792D01*
X133570350Y-83074963D01*
X133446416Y-83126298D01*
X133334878Y-83200825D01*
X133240023Y-83295680D01*
X133165496Y-83407218D01*
X133114161Y-83531152D01*
X133087990Y-83662719D01*
X127124422Y-83662719D01*
X127071258Y-83627196D01*
X126938225Y-83572092D01*
X126796997Y-83544000D01*
X126653003Y-83544000D01*
X126511775Y-83572092D01*
X126378742Y-83627196D01*
X126259015Y-83707195D01*
X126157195Y-83809015D01*
X126077196Y-83928742D01*
X126022092Y-84061775D01*
X125994000Y-84203003D01*
X124006460Y-84203003D01*
X124017071Y-84177388D01*
X124045163Y-84036160D01*
X124045163Y-83892166D01*
X124017071Y-83750938D01*
X123961967Y-83617905D01*
X123881968Y-83498178D01*
X123780148Y-83396358D01*
X123660421Y-83316359D01*
X123527388Y-83261255D01*
X123386160Y-83233163D01*
X123242166Y-83233163D01*
X123100938Y-83261255D01*
X122967905Y-83316359D01*
X122848178Y-83396358D01*
X122746358Y-83498178D01*
X122666359Y-83617905D01*
X122611255Y-83750938D01*
X122583163Y-83892166D01*
X118506116Y-83892166D01*
X118531000Y-83767073D01*
X118531000Y-83632927D01*
X118504829Y-83501360D01*
X118453494Y-83377426D01*
X118378967Y-83265888D01*
X118284112Y-83171033D01*
X118172574Y-83096506D01*
X118048640Y-83045171D01*
X117917073Y-83019000D01*
X117782927Y-83019000D01*
X117651360Y-83045171D01*
X117527426Y-83096506D01*
X117415888Y-83171033D01*
X117321033Y-83265888D01*
X117246506Y-83377426D01*
X117195171Y-83501360D01*
X117169000Y-83632927D01*
X117031000Y-83632927D01*
X117004829Y-83501360D01*
X116953494Y-83377426D01*
X116878967Y-83265888D01*
X116784112Y-83171033D01*
X116672574Y-83096506D01*
X116548640Y-83045171D01*
X116417073Y-83019000D01*
X116282927Y-83019000D01*
X116151360Y-83045171D01*
X116027426Y-83096506D01*
X115915888Y-83171033D01*
X115821033Y-83265888D01*
X115746506Y-83377426D01*
X115695171Y-83501360D01*
X115669000Y-83632927D01*
X115296010Y-83632927D01*
X115234112Y-83571029D01*
X115122574Y-83496502D01*
X114998640Y-83445167D01*
X114867073Y-83418996D01*
X114732927Y-83418996D01*
X114601360Y-83445167D01*
X114477426Y-83496502D01*
X114365888Y-83571029D01*
X114271033Y-83665884D01*
X114196506Y-83777422D01*
X114145171Y-83901356D01*
X114119000Y-84032923D01*
X92596579Y-84032923D01*
X92603494Y-84022574D01*
X92654829Y-83898640D01*
X92681000Y-83767073D01*
X92681000Y-83632927D01*
X92654829Y-83501360D01*
X92603494Y-83377426D01*
X92528967Y-83265888D01*
X92434112Y-83171033D01*
X92389925Y-83141508D01*
X92448640Y-83129829D01*
X92572574Y-83078494D01*
X92684112Y-83003967D01*
X92778967Y-82909112D01*
X92853494Y-82797574D01*
X92904829Y-82673640D01*
X92931000Y-82542073D01*
X92931000Y-82407927D01*
X92904829Y-82276360D01*
X92853494Y-82152426D01*
X92778967Y-82040888D01*
X92684112Y-81946033D01*
X92627083Y-81907927D01*
X94144000Y-81907927D01*
X94144000Y-82042073D01*
X94170171Y-82173640D01*
X94221506Y-82297574D01*
X94296033Y-82409112D01*
X94390888Y-82503967D01*
X94502426Y-82578494D01*
X94626360Y-82629829D01*
X94719000Y-82648257D01*
X94719000Y-82767073D01*
X94745171Y-82898640D01*
X94796506Y-83022574D01*
X94871033Y-83134112D01*
X94965888Y-83228967D01*
X95077426Y-83303494D01*
X95201360Y-83354829D01*
X95332927Y-83381000D01*
X95467073Y-83381000D01*
X95598640Y-83354829D01*
X95722574Y-83303494D01*
X95834112Y-83228967D01*
X95928967Y-83134112D01*
X96003494Y-83022574D01*
X96054829Y-82898640D01*
X96081000Y-82767073D01*
X96081000Y-82632927D01*
X96054829Y-82501360D01*
X96003494Y-82377426D01*
X95928967Y-82265888D01*
X95896006Y-82232927D01*
X97019000Y-82232927D01*
X97019000Y-82367073D01*
X97045171Y-82498640D01*
X97096506Y-82622574D01*
X97148240Y-82700000D01*
X97096506Y-82777426D01*
X97045171Y-82901360D01*
X97019000Y-83032927D01*
X97019000Y-83167073D01*
X97045171Y-83298640D01*
X97096506Y-83422574D01*
X97171033Y-83534112D01*
X97265888Y-83628967D01*
X97377426Y-83703494D01*
X97501360Y-83754829D01*
X97632927Y-83781000D01*
X97767073Y-83781000D01*
X97898640Y-83754829D01*
X98022574Y-83703494D01*
X98100000Y-83651760D01*
X98177426Y-83703494D01*
X98301360Y-83754829D01*
X98432927Y-83781000D01*
X98567073Y-83781000D01*
X98698640Y-83754829D01*
X98822574Y-83703494D01*
X98934112Y-83628967D01*
X99028967Y-83534112D01*
X99103494Y-83422574D01*
X99154829Y-83298640D01*
X99181000Y-83167073D01*
X99181000Y-83032927D01*
X99154829Y-82901360D01*
X99103494Y-82777426D01*
X99051760Y-82700000D01*
X99103494Y-82622574D01*
X99154829Y-82498640D01*
X99181000Y-82367073D01*
X99181000Y-82232927D01*
X99154829Y-82101360D01*
X99103494Y-81977426D01*
X99028967Y-81865888D01*
X98934112Y-81771033D01*
X98822574Y-81696506D01*
X98698640Y-81645171D01*
X98567073Y-81619000D01*
X98432927Y-81619000D01*
X98301360Y-81645171D01*
X98177426Y-81696506D01*
X98100000Y-81748240D01*
X98022574Y-81696506D01*
X97898640Y-81645171D01*
X97767073Y-81619000D01*
X97632927Y-81619000D01*
X97501360Y-81645171D01*
X97377426Y-81696506D01*
X97265888Y-81771033D01*
X97171033Y-81865888D01*
X97096506Y-81977426D01*
X97045171Y-82101360D01*
X97019000Y-82232927D01*
X95896006Y-82232927D01*
X95834112Y-82171033D01*
X95722574Y-82096506D01*
X95598640Y-82045171D01*
X95506000Y-82026743D01*
X95506000Y-81907927D01*
X95479829Y-81776360D01*
X95428494Y-81652426D01*
X95353967Y-81540888D01*
X95259112Y-81446033D01*
X95147574Y-81371506D01*
X95023640Y-81320171D01*
X94892073Y-81294000D01*
X94757927Y-81294000D01*
X94626360Y-81320171D01*
X94502426Y-81371506D01*
X94390888Y-81446033D01*
X94296033Y-81540888D01*
X94221506Y-81652426D01*
X94170171Y-81776360D01*
X94144000Y-81907927D01*
X92627083Y-81907927D01*
X92572574Y-81871506D01*
X92448640Y-81820171D01*
X92317073Y-81794000D01*
X92182927Y-81794000D01*
X92051360Y-81820171D01*
X91927426Y-81871506D01*
X91815888Y-81946033D01*
X91721033Y-82040888D01*
X91646506Y-82152426D01*
X91595171Y-82276360D01*
X91569000Y-82407927D01*
X91569000Y-82542073D01*
X91595171Y-82673640D01*
X91646506Y-82797574D01*
X91721033Y-82909112D01*
X91815888Y-83003967D01*
X91860075Y-83033492D01*
X91801360Y-83045171D01*
X91677426Y-83096506D01*
X91565888Y-83171033D01*
X91471033Y-83265888D01*
X91396506Y-83377426D01*
X91345171Y-83501360D01*
X91319000Y-83632927D01*
X91319000Y-83767073D01*
X91345171Y-83898640D01*
X91396506Y-84022574D01*
X91471033Y-84134112D01*
X91486921Y-84150000D01*
X91471033Y-84165888D01*
X91396506Y-84277426D01*
X91345171Y-84401360D01*
X91319000Y-84532927D01*
X91319000Y-84667073D01*
X91345171Y-84798640D01*
X91396506Y-84922574D01*
X91462206Y-85020902D01*
X91391033Y-85127420D01*
X91339698Y-85251354D01*
X91313527Y-85382921D01*
X90216000Y-85382921D01*
X90216000Y-85330465D01*
X90188869Y-85194067D01*
X90135649Y-85065584D01*
X90091827Y-85000000D01*
X90135649Y-84934416D01*
X90188869Y-84805933D01*
X90216000Y-84669535D01*
X90216000Y-84530465D01*
X90188869Y-84394067D01*
X90135649Y-84265584D01*
X90100066Y-84212331D01*
X90628504Y-83683893D01*
X90357115Y-83412504D01*
X90183068Y-83586551D01*
X90166631Y-83531474D01*
X90164185Y-83525568D01*
X90043709Y-83496101D01*
X89739810Y-83800000D01*
X89854715Y-83914905D01*
X89809663Y-83959956D01*
X89715933Y-83921131D01*
X89579535Y-83894000D01*
X89447419Y-83894000D01*
X89435649Y-83865584D01*
X89391827Y-83800000D01*
X89435649Y-83734416D01*
X89488869Y-83605933D01*
X89498305Y-83558495D01*
X89510000Y-83570190D01*
X89813899Y-83266291D01*
X89784432Y-83145815D01*
X89723386Y-83126995D01*
X89897496Y-82952885D01*
X89791980Y-82847369D01*
X89844416Y-82825649D01*
X89960049Y-82748386D01*
X90058386Y-82650049D01*
X90135649Y-82534416D01*
X90188869Y-82405933D01*
X90216000Y-82269535D01*
X90216000Y-82253901D01*
X90298400Y-82245785D01*
X90431482Y-82205415D01*
X90554130Y-82139858D01*
X90661633Y-82051633D01*
X90749858Y-81944130D01*
X90815415Y-81821482D01*
X90855785Y-81688399D01*
X90866000Y-81584683D01*
X90866000Y-81215316D01*
X90855785Y-81111600D01*
X90815415Y-80978518D01*
X90749858Y-80855870D01*
X90661632Y-80748367D01*
X90554129Y-80660142D01*
X90431481Y-80594585D01*
X90298399Y-80554215D01*
X90160000Y-80540584D01*
X90021600Y-80554215D01*
X89938039Y-80579563D01*
X89935040Y-80569678D01*
X89874278Y-80456000D01*
X103820026Y-80456000D01*
X103770171Y-80576360D01*
G04 #@! TD*
M02*
