G04 #@! TF.GenerationSoftware,KiCad,Pcbnew,(6.0.0-rc1-dev-1-g01c5bdfb8)*
G04 #@! TF.CreationDate,2018-11-23T11:25:08+01:00*
G04 #@! TF.ProjectId,TS100C,5453313030432E6B696361645F706362,rev?*
G04 #@! TF.SameCoordinates,Original*
G04 #@! TF.FileFunction,Legend,Top*
G04 #@! TF.FilePolarity,Positive*
%FSLAX46Y46*%
G04 Gerber Fmt 4.6, Leading zero omitted, Abs format (unit mm)*
G04 Created by KiCad (PCBNEW (6.0.0-rc1-dev-1-g01c5bdfb8)) date Fri Nov 23 11:25:08 2018*
%MOMM*%
%LPD*%
G01*
G04 APERTURE LIST*
%ADD10C,0.127000*%
%ADD11C,0.120000*%
%ADD12C,0.150000*%
%ADD13C,0.050000*%
G04 APERTURE END LIST*
D10*
G04 #@! TO.C,P1*
X121628500Y-89880000D02*
X116942200Y-89880000D01*
X121628500Y-86070000D02*
X116942200Y-86070000D01*
X115761100Y-88698900D02*
X116942200Y-89880000D01*
X115761100Y-87251100D02*
X116942200Y-86070000D01*
X115761100Y-87251100D02*
G75*
G03X115761100Y-88698900I723900J-723900D01*
G01*
X122581000Y-87022500D02*
X122581000Y-88927500D01*
X121628500Y-89880000D02*
G75*
G03X122581000Y-88927500I0J952500D01*
G01*
X122581000Y-87022500D02*
G75*
G03X121628500Y-86070000I-952500J0D01*
G01*
D11*
G04 #@! TO.C,Q2*
X145020000Y-80980000D02*
X141250000Y-80980000D01*
X141480000Y-84520000D02*
X145020000Y-84520000D01*
X145020000Y-80980000D02*
X145020000Y-81350000D01*
X145020000Y-84520000D02*
X145020000Y-84150000D01*
X141480000Y-84520000D02*
X141480000Y-84150000D01*
G04 #@! TO.C,U5*
X138740000Y-85850000D02*
X138740000Y-88300000D01*
X141960000Y-87650000D02*
X141960000Y-85850000D01*
D12*
G04 #@! TO.C,J3*
X153250000Y-83000000D02*
X154500000Y-83000000D01*
X149500000Y-83000000D02*
X150750000Y-83000000D01*
X150750000Y-87000000D02*
X149500000Y-87000000D01*
X153250000Y-87000000D02*
X154500000Y-87000000D01*
X153500000Y-82500000D02*
X154500000Y-82500000D01*
X154500000Y-87500000D02*
X153500000Y-87500000D01*
X150500000Y-82500000D02*
X149500000Y-82500000D01*
X154500000Y-87500000D02*
X154500000Y-82500000D01*
X149500000Y-87500000D02*
X150500000Y-87500000D01*
X149500000Y-82500000D02*
X149500000Y-87500000D01*
D11*
G04 #@! TO.C,C9*
X113740000Y-82199721D02*
X113740000Y-82525279D01*
X114760000Y-82199721D02*
X114760000Y-82525279D01*
G04 #@! TO.C,C11*
X113840000Y-88037221D02*
X113840000Y-88362779D01*
X114860000Y-88037221D02*
X114860000Y-88362779D01*
G04 #@! TO.C,C4*
X143687221Y-88610000D02*
X144012779Y-88610000D01*
X143687221Y-87590000D02*
X144012779Y-87590000D01*
G04 #@! TO.C,C1*
X122460000Y-83962779D02*
X122460000Y-83637221D01*
X121440000Y-83962779D02*
X121440000Y-83637221D01*
G04 #@! TO.C,D3*
X149050000Y-81350000D02*
X149050000Y-86750000D01*
X145750000Y-81350000D02*
X145750000Y-86750000D01*
X149050000Y-81350000D02*
X145750000Y-81350000D01*
G04 #@! TO.C,U4*
X111660000Y-81865000D02*
X111660000Y-81390000D01*
X104440000Y-88610000D02*
X104915000Y-88610000D01*
X104440000Y-88135000D02*
X104440000Y-88610000D01*
X104440000Y-81390000D02*
X104915000Y-81390000D01*
X104440000Y-81865000D02*
X104440000Y-81390000D01*
X111660000Y-88610000D02*
X111185000Y-88610000D01*
X111660000Y-88135000D02*
X111660000Y-88610000D01*
G04 #@! TO.C,U3*
X96730000Y-81330000D02*
X97190000Y-81330000D01*
X96730000Y-81540000D02*
X96730000Y-81330000D01*
X99470000Y-83860000D02*
X99470000Y-84070000D01*
X99470000Y-84070000D02*
X99010000Y-84070000D01*
X99470000Y-81330000D02*
X99010000Y-81330000D01*
X99470000Y-81540000D02*
X99470000Y-81330000D01*
X96730000Y-83860000D02*
X96730000Y-84070000D01*
G04 #@! TO.C,Q1*
X134860000Y-85430000D02*
X133400000Y-85430000D01*
X134860000Y-82270000D02*
X132700000Y-82270000D01*
X134860000Y-82270000D02*
X134860000Y-83200000D01*
X134860000Y-85430000D02*
X134860000Y-84500000D01*
G04 #@! TO.C,U1*
X92390000Y-84100000D02*
X92390000Y-86550000D01*
X95610000Y-85900000D02*
X95610000Y-84100000D01*
G04 #@! TO.C,U2*
X116653500Y-85350000D02*
X116653500Y-84150000D01*
X120653500Y-85350000D02*
X116653500Y-85350000D01*
X116653500Y-80550000D02*
X119353500Y-80550000D01*
X116653500Y-81750000D02*
X116653500Y-80550000D01*
G04 #@! TO.C,U6*
X158080000Y-83390000D02*
X158080000Y-84850000D01*
X154920000Y-83390000D02*
X154920000Y-85550000D01*
X154920000Y-83390000D02*
X155850000Y-83390000D01*
X158080000Y-83390000D02*
X157150000Y-83390000D01*
G04 #@! TO.C,J4*
D12*
X160666666Y-81277380D02*
X160666666Y-81991666D01*
X160619047Y-82134523D01*
X160523809Y-82229761D01*
X160380952Y-82277380D01*
X160285714Y-82277380D01*
X161571428Y-81610714D02*
X161571428Y-82277380D01*
X161333333Y-81229761D02*
X161095238Y-81944047D01*
X161714285Y-81944047D01*
G04 #@! TO.C,C6*
D13*
X103550000Y-86757142D02*
X103535714Y-86771428D01*
X103492857Y-86785714D01*
X103464285Y-86785714D01*
X103421428Y-86771428D01*
X103392857Y-86742857D01*
X103378571Y-86714285D01*
X103364285Y-86657142D01*
X103364285Y-86614285D01*
X103378571Y-86557142D01*
X103392857Y-86528571D01*
X103421428Y-86500000D01*
X103464285Y-86485714D01*
X103492857Y-86485714D01*
X103535714Y-86500000D01*
X103550000Y-86514285D01*
X103807142Y-86485714D02*
X103750000Y-86485714D01*
X103721428Y-86500000D01*
X103707142Y-86514285D01*
X103678571Y-86557142D01*
X103664285Y-86614285D01*
X103664285Y-86728571D01*
X103678571Y-86757142D01*
X103692857Y-86771428D01*
X103721428Y-86785714D01*
X103778571Y-86785714D01*
X103807142Y-86771428D01*
X103821428Y-86757142D01*
X103835714Y-86728571D01*
X103835714Y-86657142D01*
X103821428Y-86628571D01*
X103807142Y-86614285D01*
X103778571Y-86600000D01*
X103721428Y-86600000D01*
X103692857Y-86614285D01*
X103678571Y-86628571D01*
X103664285Y-86657142D01*
G04 #@! TO.C,J5*
X115050000Y-84085714D02*
X115050000Y-84300000D01*
X115035714Y-84342857D01*
X115007142Y-84371428D01*
X114964285Y-84385714D01*
X114935714Y-84385714D01*
X115335714Y-84085714D02*
X115192857Y-84085714D01*
X115178571Y-84228571D01*
X115192857Y-84214285D01*
X115221428Y-84200000D01*
X115292857Y-84200000D01*
X115321428Y-84214285D01*
X115335714Y-84228571D01*
X115350000Y-84257142D01*
X115350000Y-84328571D01*
X115335714Y-84357142D01*
X115321428Y-84371428D01*
X115292857Y-84385714D01*
X115221428Y-84385714D01*
X115192857Y-84371428D01*
X115178571Y-84357142D01*
G04 #@! TO.C,Q2*
X145696428Y-81064285D02*
X145667857Y-81050000D01*
X145639285Y-81021428D01*
X145596428Y-80978571D01*
X145567857Y-80964285D01*
X145539285Y-80964285D01*
X145553571Y-81035714D02*
X145525000Y-81021428D01*
X145496428Y-80992857D01*
X145482142Y-80935714D01*
X145482142Y-80835714D01*
X145496428Y-80778571D01*
X145525000Y-80750000D01*
X145553571Y-80735714D01*
X145610714Y-80735714D01*
X145639285Y-80750000D01*
X145667857Y-80778571D01*
X145682142Y-80835714D01*
X145682142Y-80935714D01*
X145667857Y-80992857D01*
X145639285Y-81021428D01*
X145610714Y-81035714D01*
X145553571Y-81035714D01*
X145796428Y-80764285D02*
X145810714Y-80750000D01*
X145839285Y-80735714D01*
X145910714Y-80735714D01*
X145939285Y-80750000D01*
X145953571Y-80764285D01*
X145967857Y-80792857D01*
X145967857Y-80821428D01*
X145953571Y-80864285D01*
X145782142Y-81035714D01*
X145967857Y-81035714D01*
G04 #@! TO.C,R19*
X138057142Y-83610714D02*
X137957142Y-83467857D01*
X137885714Y-83610714D02*
X137885714Y-83310714D01*
X138000000Y-83310714D01*
X138028571Y-83325000D01*
X138042857Y-83339285D01*
X138057142Y-83367857D01*
X138057142Y-83410714D01*
X138042857Y-83439285D01*
X138028571Y-83453571D01*
X138000000Y-83467857D01*
X137885714Y-83467857D01*
X138342857Y-83610714D02*
X138171428Y-83610714D01*
X138257142Y-83610714D02*
X138257142Y-83310714D01*
X138228571Y-83353571D01*
X138200000Y-83382142D01*
X138171428Y-83396428D01*
X138485714Y-83610714D02*
X138542857Y-83610714D01*
X138571428Y-83596428D01*
X138585714Y-83582142D01*
X138614285Y-83539285D01*
X138628571Y-83482142D01*
X138628571Y-83367857D01*
X138614285Y-83339285D01*
X138600000Y-83325000D01*
X138571428Y-83310714D01*
X138514285Y-83310714D01*
X138485714Y-83325000D01*
X138471428Y-83339285D01*
X138457142Y-83367857D01*
X138457142Y-83439285D01*
X138471428Y-83467857D01*
X138485714Y-83482142D01*
X138514285Y-83496428D01*
X138571428Y-83496428D01*
X138600000Y-83482142D01*
X138614285Y-83467857D01*
X138628571Y-83439285D01*
G04 #@! TO.C,C16*
X137557142Y-89232142D02*
X137542857Y-89246428D01*
X137500000Y-89260714D01*
X137471428Y-89260714D01*
X137428571Y-89246428D01*
X137400000Y-89217857D01*
X137385714Y-89189285D01*
X137371428Y-89132142D01*
X137371428Y-89089285D01*
X137385714Y-89032142D01*
X137400000Y-89003571D01*
X137428571Y-88975000D01*
X137471428Y-88960714D01*
X137500000Y-88960714D01*
X137542857Y-88975000D01*
X137557142Y-88989285D01*
X137842857Y-89260714D02*
X137671428Y-89260714D01*
X137757142Y-89260714D02*
X137757142Y-88960714D01*
X137728571Y-89003571D01*
X137700000Y-89032142D01*
X137671428Y-89046428D01*
X138100000Y-88960714D02*
X138042857Y-88960714D01*
X138014285Y-88975000D01*
X138000000Y-88989285D01*
X137971428Y-89032142D01*
X137957142Y-89089285D01*
X137957142Y-89203571D01*
X137971428Y-89232142D01*
X137985714Y-89246428D01*
X138014285Y-89260714D01*
X138071428Y-89260714D01*
X138100000Y-89246428D01*
X138114285Y-89232142D01*
X138128571Y-89203571D01*
X138128571Y-89132142D01*
X138114285Y-89103571D01*
X138100000Y-89089285D01*
X138071428Y-89075000D01*
X138014285Y-89075000D01*
X137985714Y-89089285D01*
X137971428Y-89103571D01*
X137957142Y-89132142D01*
G04 #@! TO.C,C17*
X143082142Y-85032142D02*
X143067857Y-85046428D01*
X143025000Y-85060714D01*
X142996428Y-85060714D01*
X142953571Y-85046428D01*
X142925000Y-85017857D01*
X142910714Y-84989285D01*
X142896428Y-84932142D01*
X142896428Y-84889285D01*
X142910714Y-84832142D01*
X142925000Y-84803571D01*
X142953571Y-84775000D01*
X142996428Y-84760714D01*
X143025000Y-84760714D01*
X143067857Y-84775000D01*
X143082142Y-84789285D01*
X143367857Y-85060714D02*
X143196428Y-85060714D01*
X143282142Y-85060714D02*
X143282142Y-84760714D01*
X143253571Y-84803571D01*
X143225000Y-84832142D01*
X143196428Y-84846428D01*
X143467857Y-84760714D02*
X143667857Y-84760714D01*
X143539285Y-85060714D01*
G04 #@! TO.C,U5*
X140171428Y-86510714D02*
X140171428Y-86753571D01*
X140185714Y-86782142D01*
X140200000Y-86796428D01*
X140228571Y-86810714D01*
X140285714Y-86810714D01*
X140314285Y-86796428D01*
X140328571Y-86782142D01*
X140342857Y-86753571D01*
X140342857Y-86510714D01*
X140628571Y-86510714D02*
X140485714Y-86510714D01*
X140471428Y-86653571D01*
X140485714Y-86639285D01*
X140514285Y-86625000D01*
X140585714Y-86625000D01*
X140614285Y-86639285D01*
X140628571Y-86653571D01*
X140642857Y-86682142D01*
X140642857Y-86753571D01*
X140628571Y-86782142D01*
X140614285Y-86796428D01*
X140585714Y-86810714D01*
X140514285Y-86810714D01*
X140485714Y-86796428D01*
X140471428Y-86782142D01*
G04 #@! TO.C,R14*
X135357142Y-88035714D02*
X135257142Y-87892857D01*
X135185714Y-88035714D02*
X135185714Y-87735714D01*
X135300000Y-87735714D01*
X135328571Y-87750000D01*
X135342857Y-87764285D01*
X135357142Y-87792857D01*
X135357142Y-87835714D01*
X135342857Y-87864285D01*
X135328571Y-87878571D01*
X135300000Y-87892857D01*
X135185714Y-87892857D01*
X135642857Y-88035714D02*
X135471428Y-88035714D01*
X135557142Y-88035714D02*
X135557142Y-87735714D01*
X135528571Y-87778571D01*
X135500000Y-87807142D01*
X135471428Y-87821428D01*
X135900000Y-87835714D02*
X135900000Y-88035714D01*
X135828571Y-87721428D02*
X135757142Y-87935714D01*
X135942857Y-87935714D01*
G04 #@! TO.C,R15*
X136407142Y-85885714D02*
X136307142Y-85742857D01*
X136235714Y-85885714D02*
X136235714Y-85585714D01*
X136350000Y-85585714D01*
X136378571Y-85600000D01*
X136392857Y-85614285D01*
X136407142Y-85642857D01*
X136407142Y-85685714D01*
X136392857Y-85714285D01*
X136378571Y-85728571D01*
X136350000Y-85742857D01*
X136235714Y-85742857D01*
X136692857Y-85885714D02*
X136521428Y-85885714D01*
X136607142Y-85885714D02*
X136607142Y-85585714D01*
X136578571Y-85628571D01*
X136550000Y-85657142D01*
X136521428Y-85671428D01*
X136964285Y-85585714D02*
X136821428Y-85585714D01*
X136807142Y-85728571D01*
X136821428Y-85714285D01*
X136850000Y-85700000D01*
X136921428Y-85700000D01*
X136950000Y-85714285D01*
X136964285Y-85728571D01*
X136978571Y-85757142D01*
X136978571Y-85828571D01*
X136964285Y-85857142D01*
X136950000Y-85871428D01*
X136921428Y-85885714D01*
X136850000Y-85885714D01*
X136821428Y-85871428D01*
X136807142Y-85857142D01*
G04 #@! TO.C,R16*
X137257142Y-84885714D02*
X137157142Y-84742857D01*
X137085714Y-84885714D02*
X137085714Y-84585714D01*
X137200000Y-84585714D01*
X137228571Y-84600000D01*
X137242857Y-84614285D01*
X137257142Y-84642857D01*
X137257142Y-84685714D01*
X137242857Y-84714285D01*
X137228571Y-84728571D01*
X137200000Y-84742857D01*
X137085714Y-84742857D01*
X137542857Y-84885714D02*
X137371428Y-84885714D01*
X137457142Y-84885714D02*
X137457142Y-84585714D01*
X137428571Y-84628571D01*
X137400000Y-84657142D01*
X137371428Y-84671428D01*
X137800000Y-84585714D02*
X137742857Y-84585714D01*
X137714285Y-84600000D01*
X137700000Y-84614285D01*
X137671428Y-84657142D01*
X137657142Y-84714285D01*
X137657142Y-84828571D01*
X137671428Y-84857142D01*
X137685714Y-84871428D01*
X137714285Y-84885714D01*
X137771428Y-84885714D01*
X137800000Y-84871428D01*
X137814285Y-84857142D01*
X137828571Y-84828571D01*
X137828571Y-84757142D01*
X137814285Y-84728571D01*
X137800000Y-84714285D01*
X137771428Y-84700000D01*
X137714285Y-84700000D01*
X137685714Y-84714285D01*
X137671428Y-84728571D01*
X137657142Y-84757142D01*
G04 #@! TO.C,R17*
X142282142Y-86710714D02*
X142182142Y-86567857D01*
X142110714Y-86710714D02*
X142110714Y-86410714D01*
X142225000Y-86410714D01*
X142253571Y-86425000D01*
X142267857Y-86439285D01*
X142282142Y-86467857D01*
X142282142Y-86510714D01*
X142267857Y-86539285D01*
X142253571Y-86553571D01*
X142225000Y-86567857D01*
X142110714Y-86567857D01*
X142567857Y-86710714D02*
X142396428Y-86710714D01*
X142482142Y-86710714D02*
X142482142Y-86410714D01*
X142453571Y-86453571D01*
X142425000Y-86482142D01*
X142396428Y-86496428D01*
X142667857Y-86410714D02*
X142867857Y-86410714D01*
X142739285Y-86710714D01*
G04 #@! TO.C,J3*
X149600000Y-82035714D02*
X149600000Y-82250000D01*
X149585714Y-82292857D01*
X149557142Y-82321428D01*
X149514285Y-82335714D01*
X149485714Y-82335714D01*
X149714285Y-82035714D02*
X149900000Y-82035714D01*
X149800000Y-82150000D01*
X149842857Y-82150000D01*
X149871428Y-82164285D01*
X149885714Y-82178571D01*
X149900000Y-82207142D01*
X149900000Y-82278571D01*
X149885714Y-82307142D01*
X149871428Y-82321428D01*
X149842857Y-82335714D01*
X149757142Y-82335714D01*
X149728571Y-82321428D01*
X149714285Y-82307142D01*
G04 #@! TO.C,C2*
X102400000Y-80532142D02*
X102385714Y-80546428D01*
X102342857Y-80560714D01*
X102314285Y-80560714D01*
X102271428Y-80546428D01*
X102242857Y-80517857D01*
X102228571Y-80489285D01*
X102214285Y-80432142D01*
X102214285Y-80389285D01*
X102228571Y-80332142D01*
X102242857Y-80303571D01*
X102271428Y-80275000D01*
X102314285Y-80260714D01*
X102342857Y-80260714D01*
X102385714Y-80275000D01*
X102400000Y-80289285D01*
X102514285Y-80289285D02*
X102528571Y-80275000D01*
X102557142Y-80260714D01*
X102628571Y-80260714D01*
X102657142Y-80275000D01*
X102671428Y-80289285D01*
X102685714Y-80317857D01*
X102685714Y-80346428D01*
X102671428Y-80389285D01*
X102500000Y-80560714D01*
X102685714Y-80560714D01*
G04 #@! TO.C,C5*
X112850000Y-81382142D02*
X112835714Y-81396428D01*
X112792857Y-81410714D01*
X112764285Y-81410714D01*
X112721428Y-81396428D01*
X112692857Y-81367857D01*
X112678571Y-81339285D01*
X112664285Y-81282142D01*
X112664285Y-81239285D01*
X112678571Y-81182142D01*
X112692857Y-81153571D01*
X112721428Y-81125000D01*
X112764285Y-81110714D01*
X112792857Y-81110714D01*
X112835714Y-81125000D01*
X112850000Y-81139285D01*
X113121428Y-81110714D02*
X112978571Y-81110714D01*
X112964285Y-81253571D01*
X112978571Y-81239285D01*
X113007142Y-81225000D01*
X113078571Y-81225000D01*
X113107142Y-81239285D01*
X113121428Y-81253571D01*
X113135714Y-81282142D01*
X113135714Y-81353571D01*
X113121428Y-81382142D01*
X113107142Y-81396428D01*
X113078571Y-81410714D01*
X113007142Y-81410714D01*
X112978571Y-81396428D01*
X112964285Y-81382142D01*
G04 #@! TO.C,C7*
X92800000Y-81857142D02*
X92785714Y-81871428D01*
X92742857Y-81885714D01*
X92714285Y-81885714D01*
X92671428Y-81871428D01*
X92642857Y-81842857D01*
X92628571Y-81814285D01*
X92614285Y-81757142D01*
X92614285Y-81714285D01*
X92628571Y-81657142D01*
X92642857Y-81628571D01*
X92671428Y-81600000D01*
X92714285Y-81585714D01*
X92742857Y-81585714D01*
X92785714Y-81600000D01*
X92800000Y-81614285D01*
X92900000Y-81585714D02*
X93100000Y-81585714D01*
X92971428Y-81885714D01*
G04 #@! TO.C,C8*
X123200000Y-81482142D02*
X123185714Y-81496428D01*
X123142857Y-81510714D01*
X123114285Y-81510714D01*
X123071428Y-81496428D01*
X123042857Y-81467857D01*
X123028571Y-81439285D01*
X123014285Y-81382142D01*
X123014285Y-81339285D01*
X123028571Y-81282142D01*
X123042857Y-81253571D01*
X123071428Y-81225000D01*
X123114285Y-81210714D01*
X123142857Y-81210714D01*
X123185714Y-81225000D01*
X123200000Y-81239285D01*
X123371428Y-81339285D02*
X123342857Y-81325000D01*
X123328571Y-81310714D01*
X123314285Y-81282142D01*
X123314285Y-81267857D01*
X123328571Y-81239285D01*
X123342857Y-81225000D01*
X123371428Y-81210714D01*
X123428571Y-81210714D01*
X123457142Y-81225000D01*
X123471428Y-81239285D01*
X123485714Y-81267857D01*
X123485714Y-81282142D01*
X123471428Y-81310714D01*
X123457142Y-81325000D01*
X123428571Y-81339285D01*
X123371428Y-81339285D01*
X123342857Y-81353571D01*
X123328571Y-81367857D01*
X123314285Y-81396428D01*
X123314285Y-81453571D01*
X123328571Y-81482142D01*
X123342857Y-81496428D01*
X123371428Y-81510714D01*
X123428571Y-81510714D01*
X123457142Y-81496428D01*
X123471428Y-81482142D01*
X123485714Y-81453571D01*
X123485714Y-81396428D01*
X123471428Y-81367857D01*
X123457142Y-81353571D01*
X123428571Y-81339285D01*
G04 #@! TO.C,C10*
X98357142Y-85117857D02*
X98371428Y-85132142D01*
X98385714Y-85175000D01*
X98385714Y-85203571D01*
X98371428Y-85246428D01*
X98342857Y-85275000D01*
X98314285Y-85289285D01*
X98257142Y-85303571D01*
X98214285Y-85303571D01*
X98157142Y-85289285D01*
X98128571Y-85275000D01*
X98100000Y-85246428D01*
X98085714Y-85203571D01*
X98085714Y-85175000D01*
X98100000Y-85132142D01*
X98114285Y-85117857D01*
X98385714Y-84832142D02*
X98385714Y-85003571D01*
X98385714Y-84917857D02*
X98085714Y-84917857D01*
X98128571Y-84946428D01*
X98157142Y-84975000D01*
X98171428Y-85003571D01*
X98085714Y-84646428D02*
X98085714Y-84617857D01*
X98100000Y-84589285D01*
X98114285Y-84575000D01*
X98142857Y-84560714D01*
X98200000Y-84546428D01*
X98271428Y-84546428D01*
X98328571Y-84560714D01*
X98357142Y-84575000D01*
X98371428Y-84589285D01*
X98385714Y-84617857D01*
X98385714Y-84646428D01*
X98371428Y-84675000D01*
X98357142Y-84689285D01*
X98328571Y-84703571D01*
X98271428Y-84717857D01*
X98200000Y-84717857D01*
X98142857Y-84703571D01*
X98114285Y-84689285D01*
X98100000Y-84675000D01*
X98085714Y-84646428D01*
G04 #@! TO.C,C3*
X112850000Y-87707142D02*
X112835714Y-87721428D01*
X112792857Y-87735714D01*
X112764285Y-87735714D01*
X112721428Y-87721428D01*
X112692857Y-87692857D01*
X112678571Y-87664285D01*
X112664285Y-87607142D01*
X112664285Y-87564285D01*
X112678571Y-87507142D01*
X112692857Y-87478571D01*
X112721428Y-87450000D01*
X112764285Y-87435714D01*
X112792857Y-87435714D01*
X112835714Y-87450000D01*
X112850000Y-87464285D01*
X112950000Y-87435714D02*
X113135714Y-87435714D01*
X113035714Y-87550000D01*
X113078571Y-87550000D01*
X113107142Y-87564285D01*
X113121428Y-87578571D01*
X113135714Y-87607142D01*
X113135714Y-87678571D01*
X113121428Y-87707142D01*
X113107142Y-87721428D01*
X113078571Y-87735714D01*
X112992857Y-87735714D01*
X112964285Y-87721428D01*
X112950000Y-87707142D01*
G04 #@! TO.C,C9*
X114200000Y-80757142D02*
X114185714Y-80771428D01*
X114142857Y-80785714D01*
X114114285Y-80785714D01*
X114071428Y-80771428D01*
X114042857Y-80742857D01*
X114028571Y-80714285D01*
X114014285Y-80657142D01*
X114014285Y-80614285D01*
X114028571Y-80557142D01*
X114042857Y-80528571D01*
X114071428Y-80500000D01*
X114114285Y-80485714D01*
X114142857Y-80485714D01*
X114185714Y-80500000D01*
X114200000Y-80514285D01*
X114342857Y-80785714D02*
X114400000Y-80785714D01*
X114428571Y-80771428D01*
X114442857Y-80757142D01*
X114471428Y-80714285D01*
X114485714Y-80657142D01*
X114485714Y-80542857D01*
X114471428Y-80514285D01*
X114457142Y-80500000D01*
X114428571Y-80485714D01*
X114371428Y-80485714D01*
X114342857Y-80500000D01*
X114328571Y-80514285D01*
X114314285Y-80542857D01*
X114314285Y-80614285D01*
X114328571Y-80642857D01*
X114342857Y-80657142D01*
X114371428Y-80671428D01*
X114428571Y-80671428D01*
X114457142Y-80657142D01*
X114471428Y-80642857D01*
X114485714Y-80614285D01*
G04 #@! TO.C,C11*
X114157142Y-86557142D02*
X114142857Y-86571428D01*
X114100000Y-86585714D01*
X114071428Y-86585714D01*
X114028571Y-86571428D01*
X114000000Y-86542857D01*
X113985714Y-86514285D01*
X113971428Y-86457142D01*
X113971428Y-86414285D01*
X113985714Y-86357142D01*
X114000000Y-86328571D01*
X114028571Y-86300000D01*
X114071428Y-86285714D01*
X114100000Y-86285714D01*
X114142857Y-86300000D01*
X114157142Y-86314285D01*
X114442857Y-86585714D02*
X114271428Y-86585714D01*
X114357142Y-86585714D02*
X114357142Y-86285714D01*
X114328571Y-86328571D01*
X114300000Y-86357142D01*
X114271428Y-86371428D01*
X114728571Y-86585714D02*
X114557142Y-86585714D01*
X114642857Y-86585714D02*
X114642857Y-86285714D01*
X114614285Y-86328571D01*
X114585714Y-86357142D01*
X114557142Y-86371428D01*
G04 #@! TO.C,C4*
X142600000Y-89232142D02*
X142585714Y-89246428D01*
X142542857Y-89260714D01*
X142514285Y-89260714D01*
X142471428Y-89246428D01*
X142442857Y-89217857D01*
X142428571Y-89189285D01*
X142414285Y-89132142D01*
X142414285Y-89089285D01*
X142428571Y-89032142D01*
X142442857Y-89003571D01*
X142471428Y-88975000D01*
X142514285Y-88960714D01*
X142542857Y-88960714D01*
X142585714Y-88975000D01*
X142600000Y-88989285D01*
X142857142Y-89060714D02*
X142857142Y-89260714D01*
X142785714Y-88946428D02*
X142714285Y-89160714D01*
X142900000Y-89160714D01*
G04 #@! TO.C,C1*
X121900000Y-82182142D02*
X121885714Y-82196428D01*
X121842857Y-82210714D01*
X121814285Y-82210714D01*
X121771428Y-82196428D01*
X121742857Y-82167857D01*
X121728571Y-82139285D01*
X121714285Y-82082142D01*
X121714285Y-82039285D01*
X121728571Y-81982142D01*
X121742857Y-81953571D01*
X121771428Y-81925000D01*
X121814285Y-81910714D01*
X121842857Y-81910714D01*
X121885714Y-81925000D01*
X121900000Y-81939285D01*
X122185714Y-82210714D02*
X122014285Y-82210714D01*
X122100000Y-82210714D02*
X122100000Y-81910714D01*
X122071428Y-81953571D01*
X122042857Y-81982142D01*
X122014285Y-81996428D01*
G04 #@! TO.C,D3*
X147203571Y-84885714D02*
X147203571Y-84585714D01*
X147275000Y-84585714D01*
X147317857Y-84600000D01*
X147346428Y-84628571D01*
X147360714Y-84657142D01*
X147375000Y-84714285D01*
X147375000Y-84757142D01*
X147360714Y-84814285D01*
X147346428Y-84842857D01*
X147317857Y-84871428D01*
X147275000Y-84885714D01*
X147203571Y-84885714D01*
X147475000Y-84585714D02*
X147660714Y-84585714D01*
X147560714Y-84700000D01*
X147603571Y-84700000D01*
X147632142Y-84714285D01*
X147646428Y-84728571D01*
X147660714Y-84757142D01*
X147660714Y-84828571D01*
X147646428Y-84857142D01*
X147632142Y-84871428D01*
X147603571Y-84885714D01*
X147517857Y-84885714D01*
X147489285Y-84871428D01*
X147475000Y-84857142D01*
G04 #@! TO.C,U4*
X111221428Y-80935714D02*
X111221428Y-81178571D01*
X111235714Y-81207142D01*
X111250000Y-81221428D01*
X111278571Y-81235714D01*
X111335714Y-81235714D01*
X111364285Y-81221428D01*
X111378571Y-81207142D01*
X111392857Y-81178571D01*
X111392857Y-80935714D01*
X111664285Y-81035714D02*
X111664285Y-81235714D01*
X111592857Y-80921428D02*
X111521428Y-81135714D01*
X111707142Y-81135714D01*
G04 #@! TO.C,U3*
X96871428Y-83835714D02*
X96871428Y-84078571D01*
X96885714Y-84107142D01*
X96900000Y-84121428D01*
X96928571Y-84135714D01*
X96985714Y-84135714D01*
X97014285Y-84121428D01*
X97028571Y-84107142D01*
X97042857Y-84078571D01*
X97042857Y-83835714D01*
X97157142Y-83835714D02*
X97342857Y-83835714D01*
X97242857Y-83950000D01*
X97285714Y-83950000D01*
X97314285Y-83964285D01*
X97328571Y-83978571D01*
X97342857Y-84007142D01*
X97342857Y-84078571D01*
X97328571Y-84107142D01*
X97314285Y-84121428D01*
X97285714Y-84135714D01*
X97200000Y-84135714D01*
X97171428Y-84121428D01*
X97157142Y-84107142D01*
G04 #@! TO.C,Q1*
X132946428Y-82014285D02*
X132917857Y-82000000D01*
X132889285Y-81971428D01*
X132846428Y-81928571D01*
X132817857Y-81914285D01*
X132789285Y-81914285D01*
X132803571Y-81985714D02*
X132775000Y-81971428D01*
X132746428Y-81942857D01*
X132732142Y-81885714D01*
X132732142Y-81785714D01*
X132746428Y-81728571D01*
X132775000Y-81700000D01*
X132803571Y-81685714D01*
X132860714Y-81685714D01*
X132889285Y-81700000D01*
X132917857Y-81728571D01*
X132932142Y-81785714D01*
X132932142Y-81885714D01*
X132917857Y-81942857D01*
X132889285Y-81971428D01*
X132860714Y-81985714D01*
X132803571Y-81985714D01*
X133217857Y-81985714D02*
X133046428Y-81985714D01*
X133132142Y-81985714D02*
X133132142Y-81685714D01*
X133103571Y-81728571D01*
X133075000Y-81757142D01*
X133046428Y-81771428D01*
G04 #@! TO.C,U1*
X95296428Y-82710714D02*
X95296428Y-82953571D01*
X95310714Y-82982142D01*
X95325000Y-82996428D01*
X95353571Y-83010714D01*
X95410714Y-83010714D01*
X95439285Y-82996428D01*
X95453571Y-82982142D01*
X95467857Y-82953571D01*
X95467857Y-82710714D01*
X95767857Y-83010714D02*
X95596428Y-83010714D01*
X95682142Y-83010714D02*
X95682142Y-82710714D01*
X95653571Y-82753571D01*
X95625000Y-82782142D01*
X95596428Y-82796428D01*
G04 #@! TO.C,U2*
X115896428Y-81160714D02*
X115896428Y-81403571D01*
X115910714Y-81432142D01*
X115925000Y-81446428D01*
X115953571Y-81460714D01*
X116010714Y-81460714D01*
X116039285Y-81446428D01*
X116053571Y-81432142D01*
X116067857Y-81403571D01*
X116067857Y-81160714D01*
X116196428Y-81189285D02*
X116210714Y-81175000D01*
X116239285Y-81160714D01*
X116310714Y-81160714D01*
X116339285Y-81175000D01*
X116353571Y-81189285D01*
X116367857Y-81217857D01*
X116367857Y-81246428D01*
X116353571Y-81289285D01*
X116182142Y-81460714D01*
X116367857Y-81460714D01*
G04 #@! TO.C,R3*
X100550000Y-83110714D02*
X100450000Y-82967857D01*
X100378571Y-83110714D02*
X100378571Y-82810714D01*
X100492857Y-82810714D01*
X100521428Y-82825000D01*
X100535714Y-82839285D01*
X100550000Y-82867857D01*
X100550000Y-82910714D01*
X100535714Y-82939285D01*
X100521428Y-82953571D01*
X100492857Y-82967857D01*
X100378571Y-82967857D01*
X100650000Y-82810714D02*
X100835714Y-82810714D01*
X100735714Y-82925000D01*
X100778571Y-82925000D01*
X100807142Y-82939285D01*
X100821428Y-82953571D01*
X100835714Y-82982142D01*
X100835714Y-83053571D01*
X100821428Y-83082142D01*
X100807142Y-83096428D01*
X100778571Y-83110714D01*
X100692857Y-83110714D01*
X100664285Y-83096428D01*
X100650000Y-83082142D01*
G04 #@! TO.C,R1*
X93900000Y-80460714D02*
X93800000Y-80317857D01*
X93728571Y-80460714D02*
X93728571Y-80160714D01*
X93842857Y-80160714D01*
X93871428Y-80175000D01*
X93885714Y-80189285D01*
X93900000Y-80217857D01*
X93900000Y-80260714D01*
X93885714Y-80289285D01*
X93871428Y-80303571D01*
X93842857Y-80317857D01*
X93728571Y-80317857D01*
X94185714Y-80460714D02*
X94014285Y-80460714D01*
X94100000Y-80460714D02*
X94100000Y-80160714D01*
X94071428Y-80203571D01*
X94042857Y-80232142D01*
X94014285Y-80246428D01*
G04 #@! TO.C,R4*
X101925000Y-85685714D02*
X101825000Y-85542857D01*
X101753571Y-85685714D02*
X101753571Y-85385714D01*
X101867857Y-85385714D01*
X101896428Y-85400000D01*
X101910714Y-85414285D01*
X101925000Y-85442857D01*
X101925000Y-85485714D01*
X101910714Y-85514285D01*
X101896428Y-85528571D01*
X101867857Y-85542857D01*
X101753571Y-85542857D01*
X102182142Y-85485714D02*
X102182142Y-85685714D01*
X102110714Y-85371428D02*
X102039285Y-85585714D01*
X102225000Y-85585714D01*
G04 #@! TO.C,R5*
X113165000Y-84385714D02*
X113065000Y-84242857D01*
X112993571Y-84385714D02*
X112993571Y-84085714D01*
X113107857Y-84085714D01*
X113136428Y-84100000D01*
X113150714Y-84114285D01*
X113165000Y-84142857D01*
X113165000Y-84185714D01*
X113150714Y-84214285D01*
X113136428Y-84228571D01*
X113107857Y-84242857D01*
X112993571Y-84242857D01*
X113436428Y-84085714D02*
X113293571Y-84085714D01*
X113279285Y-84228571D01*
X113293571Y-84214285D01*
X113322142Y-84200000D01*
X113393571Y-84200000D01*
X113422142Y-84214285D01*
X113436428Y-84228571D01*
X113450714Y-84257142D01*
X113450714Y-84328571D01*
X113436428Y-84357142D01*
X113422142Y-84371428D01*
X113393571Y-84385714D01*
X113322142Y-84385714D01*
X113293571Y-84371428D01*
X113279285Y-84357142D01*
G04 #@! TO.C,R6*
X100310714Y-87300000D02*
X100167857Y-87400000D01*
X100310714Y-87471428D02*
X100010714Y-87471428D01*
X100010714Y-87357142D01*
X100025000Y-87328571D01*
X100039285Y-87314285D01*
X100067857Y-87300000D01*
X100110714Y-87300000D01*
X100139285Y-87314285D01*
X100153571Y-87328571D01*
X100167857Y-87357142D01*
X100167857Y-87471428D01*
X100010714Y-87042857D02*
X100010714Y-87100000D01*
X100025000Y-87128571D01*
X100039285Y-87142857D01*
X100082142Y-87171428D01*
X100139285Y-87185714D01*
X100253571Y-87185714D01*
X100282142Y-87171428D01*
X100296428Y-87157142D01*
X100310714Y-87128571D01*
X100310714Y-87071428D01*
X100296428Y-87042857D01*
X100282142Y-87028571D01*
X100253571Y-87014285D01*
X100182142Y-87014285D01*
X100153571Y-87028571D01*
X100139285Y-87042857D01*
X100125000Y-87071428D01*
X100125000Y-87128571D01*
X100139285Y-87157142D01*
X100153571Y-87171428D01*
X100182142Y-87185714D01*
G04 #@! TO.C,R9*
X131600000Y-82685714D02*
X131500000Y-82542857D01*
X131428571Y-82685714D02*
X131428571Y-82385714D01*
X131542857Y-82385714D01*
X131571428Y-82400000D01*
X131585714Y-82414285D01*
X131600000Y-82442857D01*
X131600000Y-82485714D01*
X131585714Y-82514285D01*
X131571428Y-82528571D01*
X131542857Y-82542857D01*
X131428571Y-82542857D01*
X131742857Y-82685714D02*
X131800000Y-82685714D01*
X131828571Y-82671428D01*
X131842857Y-82657142D01*
X131871428Y-82614285D01*
X131885714Y-82557142D01*
X131885714Y-82442857D01*
X131871428Y-82414285D01*
X131857142Y-82400000D01*
X131828571Y-82385714D01*
X131771428Y-82385714D01*
X131742857Y-82400000D01*
X131728571Y-82414285D01*
X131714285Y-82442857D01*
X131714285Y-82514285D01*
X131728571Y-82542857D01*
X131742857Y-82557142D01*
X131771428Y-82571428D01*
X131828571Y-82571428D01*
X131857142Y-82557142D01*
X131871428Y-82542857D01*
X131885714Y-82514285D01*
G04 #@! TO.C,R12*
X136457142Y-82660714D02*
X136357142Y-82517857D01*
X136285714Y-82660714D02*
X136285714Y-82360714D01*
X136400000Y-82360714D01*
X136428571Y-82375000D01*
X136442857Y-82389285D01*
X136457142Y-82417857D01*
X136457142Y-82460714D01*
X136442857Y-82489285D01*
X136428571Y-82503571D01*
X136400000Y-82517857D01*
X136285714Y-82517857D01*
X136742857Y-82660714D02*
X136571428Y-82660714D01*
X136657142Y-82660714D02*
X136657142Y-82360714D01*
X136628571Y-82403571D01*
X136600000Y-82432142D01*
X136571428Y-82446428D01*
X136857142Y-82389285D02*
X136871428Y-82375000D01*
X136900000Y-82360714D01*
X136971428Y-82360714D01*
X137000000Y-82375000D01*
X137014285Y-82389285D01*
X137028571Y-82417857D01*
X137028571Y-82446428D01*
X137014285Y-82489285D01*
X136842857Y-82660714D01*
X137028571Y-82660714D01*
G04 #@! TO.C,R2*
X101350000Y-80560714D02*
X101250000Y-80417857D01*
X101178571Y-80560714D02*
X101178571Y-80260714D01*
X101292857Y-80260714D01*
X101321428Y-80275000D01*
X101335714Y-80289285D01*
X101350000Y-80317857D01*
X101350000Y-80360714D01*
X101335714Y-80389285D01*
X101321428Y-80403571D01*
X101292857Y-80417857D01*
X101178571Y-80417857D01*
X101464285Y-80289285D02*
X101478571Y-80275000D01*
X101507142Y-80260714D01*
X101578571Y-80260714D01*
X101607142Y-80275000D01*
X101621428Y-80289285D01*
X101635714Y-80317857D01*
X101635714Y-80346428D01*
X101621428Y-80389285D01*
X101450000Y-80560714D01*
X101635714Y-80560714D01*
G04 #@! TO.C,C18*
X154957142Y-87432142D02*
X154942857Y-87446428D01*
X154900000Y-87460714D01*
X154871428Y-87460714D01*
X154828571Y-87446428D01*
X154800000Y-87417857D01*
X154785714Y-87389285D01*
X154771428Y-87332142D01*
X154771428Y-87289285D01*
X154785714Y-87232142D01*
X154800000Y-87203571D01*
X154828571Y-87175000D01*
X154871428Y-87160714D01*
X154900000Y-87160714D01*
X154942857Y-87175000D01*
X154957142Y-87189285D01*
X155242857Y-87460714D02*
X155071428Y-87460714D01*
X155157142Y-87460714D02*
X155157142Y-87160714D01*
X155128571Y-87203571D01*
X155100000Y-87232142D01*
X155071428Y-87246428D01*
X155414285Y-87289285D02*
X155385714Y-87275000D01*
X155371428Y-87260714D01*
X155357142Y-87232142D01*
X155357142Y-87217857D01*
X155371428Y-87189285D01*
X155385714Y-87175000D01*
X155414285Y-87160714D01*
X155471428Y-87160714D01*
X155500000Y-87175000D01*
X155514285Y-87189285D01*
X155528571Y-87217857D01*
X155528571Y-87232142D01*
X155514285Y-87260714D01*
X155500000Y-87275000D01*
X155471428Y-87289285D01*
X155414285Y-87289285D01*
X155385714Y-87303571D01*
X155371428Y-87317857D01*
X155357142Y-87346428D01*
X155357142Y-87403571D01*
X155371428Y-87432142D01*
X155385714Y-87446428D01*
X155414285Y-87460714D01*
X155471428Y-87460714D01*
X155500000Y-87446428D01*
X155514285Y-87432142D01*
X155528571Y-87403571D01*
X155528571Y-87346428D01*
X155514285Y-87317857D01*
X155500000Y-87303571D01*
X155471428Y-87289285D01*
G04 #@! TO.C,R18*
X156107142Y-80985714D02*
X156007142Y-80842857D01*
X155935714Y-80985714D02*
X155935714Y-80685714D01*
X156050000Y-80685714D01*
X156078571Y-80700000D01*
X156092857Y-80714285D01*
X156107142Y-80742857D01*
X156107142Y-80785714D01*
X156092857Y-80814285D01*
X156078571Y-80828571D01*
X156050000Y-80842857D01*
X155935714Y-80842857D01*
X156392857Y-80985714D02*
X156221428Y-80985714D01*
X156307142Y-80985714D02*
X156307142Y-80685714D01*
X156278571Y-80728571D01*
X156250000Y-80757142D01*
X156221428Y-80771428D01*
X156564285Y-80814285D02*
X156535714Y-80800000D01*
X156521428Y-80785714D01*
X156507142Y-80757142D01*
X156507142Y-80742857D01*
X156521428Y-80714285D01*
X156535714Y-80700000D01*
X156564285Y-80685714D01*
X156621428Y-80685714D01*
X156650000Y-80700000D01*
X156664285Y-80714285D01*
X156678571Y-80742857D01*
X156678571Y-80757142D01*
X156664285Y-80785714D01*
X156650000Y-80800000D01*
X156621428Y-80814285D01*
X156564285Y-80814285D01*
X156535714Y-80828571D01*
X156521428Y-80842857D01*
X156507142Y-80871428D01*
X156507142Y-80928571D01*
X156521428Y-80957142D01*
X156535714Y-80971428D01*
X156564285Y-80985714D01*
X156621428Y-80985714D01*
X156650000Y-80971428D01*
X156664285Y-80957142D01*
X156678571Y-80928571D01*
X156678571Y-80871428D01*
X156664285Y-80842857D01*
X156650000Y-80828571D01*
X156621428Y-80814285D01*
G04 #@! TO.C,U6*
X157396428Y-82785714D02*
X157396428Y-83028571D01*
X157410714Y-83057142D01*
X157425000Y-83071428D01*
X157453571Y-83085714D01*
X157510714Y-83085714D01*
X157539285Y-83071428D01*
X157553571Y-83057142D01*
X157567857Y-83028571D01*
X157567857Y-82785714D01*
X157839285Y-82785714D02*
X157782142Y-82785714D01*
X157753571Y-82800000D01*
X157739285Y-82814285D01*
X157710714Y-82857142D01*
X157696428Y-82914285D01*
X157696428Y-83028571D01*
X157710714Y-83057142D01*
X157725000Y-83071428D01*
X157753571Y-83085714D01*
X157810714Y-83085714D01*
X157839285Y-83071428D01*
X157853571Y-83057142D01*
X157867857Y-83028571D01*
X157867857Y-82957142D01*
X157853571Y-82928571D01*
X157839285Y-82914285D01*
X157810714Y-82900000D01*
X157753571Y-82900000D01*
X157725000Y-82914285D01*
X157710714Y-82928571D01*
X157696428Y-82957142D01*
G04 #@! TD*
M02*
