G04 #@! TF.GenerationSoftware,KiCad,Pcbnew,5.0.1*
G04 #@! TF.CreationDate,2018-12-01T15:00:02+01:00*
G04 #@! TF.ProjectId,TS100C,5453313030432E6B696361645F706362,rev?*
G04 #@! TF.SameCoordinates,Original*
G04 #@! TF.FileFunction,Legend,Top*
G04 #@! TF.FilePolarity,Positive*
%FSLAX46Y46*%
G04 Gerber Fmt 4.6, Leading zero omitted, Abs format (unit mm)*
G04 Created by KiCad (PCBNEW 5.0.1) date Sa 01 Dez 2018 15:00:02 CET*
%MOMM*%
%LPD*%
G01*
G04 APERTURE LIST*
%ADD10C,0.100000*%
%ADD11C,0.127000*%
%ADD12C,0.120000*%
%ADD13C,0.150000*%
G04 APERTURE END LIST*
D10*
X113909523Y-86076190D02*
X113909523Y-85576190D01*
X114028571Y-85576190D01*
X114100000Y-85600000D01*
X114147619Y-85647619D01*
X114171428Y-85695238D01*
X114195238Y-85790476D01*
X114195238Y-85861904D01*
X114171428Y-85957142D01*
X114147619Y-86004761D01*
X114100000Y-86052380D01*
X114028571Y-86076190D01*
X113909523Y-86076190D01*
X114576190Y-85814285D02*
X114409523Y-85814285D01*
X114409523Y-86076190D02*
X114409523Y-85576190D01*
X114647619Y-85576190D01*
X114838095Y-85576190D02*
X114838095Y-85980952D01*
X114861904Y-86028571D01*
X114885714Y-86052380D01*
X114933333Y-86076190D01*
X115028571Y-86076190D01*
X115076190Y-86052380D01*
X115100000Y-86028571D01*
X115123809Y-85980952D01*
X115123809Y-85576190D01*
X115671428Y-85623809D02*
X115766666Y-85552380D01*
X115861904Y-85623809D01*
D11*
G04 #@! TO.C,P1*
X121628500Y-89880000D02*
X116942200Y-89880000D01*
X121628500Y-86070000D02*
X116942200Y-86070000D01*
X115761100Y-88698900D02*
X116942200Y-89880000D01*
X115761100Y-87251100D02*
X116942200Y-86070000D01*
X115761100Y-87251100D02*
G75*
G03X115761100Y-88698900I723900J-723900D01*
G01*
X122581000Y-87022500D02*
X122581000Y-88927500D01*
X121628500Y-89880000D02*
G75*
G03X122581000Y-88927500I0J952500D01*
G01*
X122581000Y-87022500D02*
G75*
G03X121628500Y-86070000I-952500J0D01*
G01*
D12*
G04 #@! TO.C,Q2*
X145020000Y-80980000D02*
X141250000Y-80980000D01*
X141480000Y-84520000D02*
X145020000Y-84520000D01*
X145020000Y-80980000D02*
X145020000Y-81350000D01*
X145020000Y-84520000D02*
X145020000Y-84150000D01*
X141480000Y-84520000D02*
X141480000Y-84150000D01*
G04 #@! TO.C,U5*
X138740000Y-85850000D02*
X138740000Y-88300000D01*
X141960000Y-87650000D02*
X141960000Y-85850000D01*
D13*
G04 #@! TO.C,J3*
X153250000Y-83000000D02*
X154500000Y-83000000D01*
X149500000Y-83000000D02*
X150750000Y-83000000D01*
X150750000Y-87000000D02*
X149500000Y-87000000D01*
X153250000Y-87000000D02*
X154500000Y-87000000D01*
X153500000Y-82500000D02*
X154500000Y-82500000D01*
X154500000Y-87500000D02*
X153500000Y-87500000D01*
X150500000Y-82500000D02*
X149500000Y-82500000D01*
X154500000Y-87500000D02*
X154500000Y-82500000D01*
X149500000Y-87500000D02*
X150500000Y-87500000D01*
X149500000Y-82500000D02*
X149500000Y-87500000D01*
D12*
G04 #@! TO.C,C9*
X113740000Y-82199721D02*
X113740000Y-82525279D01*
X114760000Y-82199721D02*
X114760000Y-82525279D01*
G04 #@! TO.C,C11*
X113840000Y-88037221D02*
X113840000Y-88362779D01*
X114860000Y-88037221D02*
X114860000Y-88362779D01*
G04 #@! TO.C,C4*
X143687221Y-88610000D02*
X144012779Y-88610000D01*
X143687221Y-87590000D02*
X144012779Y-87590000D01*
G04 #@! TO.C,C1*
X122460000Y-83962779D02*
X122460000Y-83637221D01*
X121440000Y-83962779D02*
X121440000Y-83637221D01*
G04 #@! TO.C,D3*
X149050000Y-81350000D02*
X149050000Y-86750000D01*
X145750000Y-81350000D02*
X145750000Y-86750000D01*
X149050000Y-81350000D02*
X145750000Y-81350000D01*
G04 #@! TO.C,U4*
X111660000Y-81865000D02*
X111660000Y-81390000D01*
X104440000Y-88610000D02*
X104915000Y-88610000D01*
X104440000Y-88135000D02*
X104440000Y-88610000D01*
X104440000Y-81390000D02*
X104915000Y-81390000D01*
X104440000Y-81865000D02*
X104440000Y-81390000D01*
X111660000Y-88610000D02*
X111185000Y-88610000D01*
X111660000Y-88135000D02*
X111660000Y-88610000D01*
G04 #@! TO.C,U3*
X96730000Y-81330000D02*
X97190000Y-81330000D01*
X96730000Y-81540000D02*
X96730000Y-81330000D01*
X99470000Y-83860000D02*
X99470000Y-84070000D01*
X99470000Y-84070000D02*
X99010000Y-84070000D01*
X99470000Y-81330000D02*
X99010000Y-81330000D01*
X99470000Y-81540000D02*
X99470000Y-81330000D01*
X96730000Y-83860000D02*
X96730000Y-84070000D01*
G04 #@! TO.C,Q1*
X134860000Y-85430000D02*
X133400000Y-85430000D01*
X134860000Y-82270000D02*
X132700000Y-82270000D01*
X134860000Y-82270000D02*
X134860000Y-83200000D01*
X134860000Y-85430000D02*
X134860000Y-84500000D01*
G04 #@! TO.C,U1*
X92390000Y-84100000D02*
X92390000Y-86550000D01*
X95610000Y-85900000D02*
X95610000Y-84100000D01*
G04 #@! TO.C,U2*
X116653500Y-85350000D02*
X116653500Y-84150000D01*
X120653500Y-85350000D02*
X116653500Y-85350000D01*
X116653500Y-80550000D02*
X119353500Y-80550000D01*
X116653500Y-81750000D02*
X116653500Y-80550000D01*
G04 #@! TO.C,U6*
X158080000Y-83390000D02*
X158080000Y-84850000D01*
X154920000Y-83390000D02*
X154920000Y-85550000D01*
X154920000Y-83390000D02*
X155850000Y-83390000D01*
X158080000Y-83390000D02*
X157150000Y-83390000D01*
G04 #@! TO.C,J5*
D10*
X115316666Y-83980952D02*
X115316666Y-84266666D01*
X115297619Y-84323809D01*
X115259523Y-84361904D01*
X115202380Y-84380952D01*
X115164285Y-84380952D01*
X115697619Y-83980952D02*
X115507142Y-83980952D01*
X115488095Y-84171428D01*
X115507142Y-84152380D01*
X115545238Y-84133333D01*
X115640476Y-84133333D01*
X115678571Y-84152380D01*
X115697619Y-84171428D01*
X115716666Y-84209523D01*
X115716666Y-84304761D01*
X115697619Y-84342857D01*
X115678571Y-84361904D01*
X115640476Y-84380952D01*
X115545238Y-84380952D01*
X115507142Y-84361904D01*
X115488095Y-84342857D01*
G04 #@! TO.C,J4*
X160866666Y-81605952D02*
X160866666Y-81891666D01*
X160847619Y-81948809D01*
X160809523Y-81986904D01*
X160752380Y-82005952D01*
X160714285Y-82005952D01*
X161228571Y-81739285D02*
X161228571Y-82005952D01*
X161133333Y-81586904D02*
X161038095Y-81872619D01*
X161285714Y-81872619D01*
G04 #@! TO.C,C6*
X102933333Y-88292857D02*
X102914285Y-88311904D01*
X102857142Y-88330952D01*
X102819047Y-88330952D01*
X102761904Y-88311904D01*
X102723809Y-88273809D01*
X102704761Y-88235714D01*
X102685714Y-88159523D01*
X102685714Y-88102380D01*
X102704761Y-88026190D01*
X102723809Y-87988095D01*
X102761904Y-87950000D01*
X102819047Y-87930952D01*
X102857142Y-87930952D01*
X102914285Y-87950000D01*
X102933333Y-87969047D01*
X103276190Y-87930952D02*
X103200000Y-87930952D01*
X103161904Y-87950000D01*
X103142857Y-87969047D01*
X103104761Y-88026190D01*
X103085714Y-88102380D01*
X103085714Y-88254761D01*
X103104761Y-88292857D01*
X103123809Y-88311904D01*
X103161904Y-88330952D01*
X103238095Y-88330952D01*
X103276190Y-88311904D01*
X103295238Y-88292857D01*
X103314285Y-88254761D01*
X103314285Y-88159523D01*
X103295238Y-88121428D01*
X103276190Y-88102380D01*
X103238095Y-88083333D01*
X103161904Y-88083333D01*
X103123809Y-88102380D01*
X103104761Y-88121428D01*
X103085714Y-88159523D01*
G04 #@! TO.C,Q2*
X145961904Y-81219047D02*
X145923809Y-81200000D01*
X145885714Y-81161904D01*
X145828571Y-81104761D01*
X145790476Y-81085714D01*
X145752380Y-81085714D01*
X145771428Y-81180952D02*
X145733333Y-81161904D01*
X145695238Y-81123809D01*
X145676190Y-81047619D01*
X145676190Y-80914285D01*
X145695238Y-80838095D01*
X145733333Y-80800000D01*
X145771428Y-80780952D01*
X145847619Y-80780952D01*
X145885714Y-80800000D01*
X145923809Y-80838095D01*
X145942857Y-80914285D01*
X145942857Y-81047619D01*
X145923809Y-81123809D01*
X145885714Y-81161904D01*
X145847619Y-81180952D01*
X145771428Y-81180952D01*
X146095238Y-80819047D02*
X146114285Y-80800000D01*
X146152380Y-80780952D01*
X146247619Y-80780952D01*
X146285714Y-80800000D01*
X146304761Y-80819047D01*
X146323809Y-80857142D01*
X146323809Y-80895238D01*
X146304761Y-80952380D01*
X146076190Y-81180952D01*
X146323809Y-81180952D01*
G04 #@! TO.C,R19*
X140242857Y-84380952D02*
X140109523Y-84190476D01*
X140014285Y-84380952D02*
X140014285Y-83980952D01*
X140166666Y-83980952D01*
X140204761Y-84000000D01*
X140223809Y-84019047D01*
X140242857Y-84057142D01*
X140242857Y-84114285D01*
X140223809Y-84152380D01*
X140204761Y-84171428D01*
X140166666Y-84190476D01*
X140014285Y-84190476D01*
X140623809Y-84380952D02*
X140395238Y-84380952D01*
X140509523Y-84380952D02*
X140509523Y-83980952D01*
X140471428Y-84038095D01*
X140433333Y-84076190D01*
X140395238Y-84095238D01*
X140814285Y-84380952D02*
X140890476Y-84380952D01*
X140928571Y-84361904D01*
X140947619Y-84342857D01*
X140985714Y-84285714D01*
X141004761Y-84209523D01*
X141004761Y-84057142D01*
X140985714Y-84019047D01*
X140966666Y-84000000D01*
X140928571Y-83980952D01*
X140852380Y-83980952D01*
X140814285Y-84000000D01*
X140795238Y-84019047D01*
X140776190Y-84057142D01*
X140776190Y-84152380D01*
X140795238Y-84190476D01*
X140814285Y-84209523D01*
X140852380Y-84228571D01*
X140928571Y-84228571D01*
X140966666Y-84209523D01*
X140985714Y-84190476D01*
X141004761Y-84152380D01*
G04 #@! TO.C,C16*
X138592857Y-89092857D02*
X138573809Y-89111904D01*
X138516666Y-89130952D01*
X138478571Y-89130952D01*
X138421428Y-89111904D01*
X138383333Y-89073809D01*
X138364285Y-89035714D01*
X138345238Y-88959523D01*
X138345238Y-88902380D01*
X138364285Y-88826190D01*
X138383333Y-88788095D01*
X138421428Y-88750000D01*
X138478571Y-88730952D01*
X138516666Y-88730952D01*
X138573809Y-88750000D01*
X138592857Y-88769047D01*
X138973809Y-89130952D02*
X138745238Y-89130952D01*
X138859523Y-89130952D02*
X138859523Y-88730952D01*
X138821428Y-88788095D01*
X138783333Y-88826190D01*
X138745238Y-88845238D01*
X139316666Y-88730952D02*
X139240476Y-88730952D01*
X139202380Y-88750000D01*
X139183333Y-88769047D01*
X139145238Y-88826190D01*
X139126190Y-88902380D01*
X139126190Y-89054761D01*
X139145238Y-89092857D01*
X139164285Y-89111904D01*
X139202380Y-89130952D01*
X139278571Y-89130952D01*
X139316666Y-89111904D01*
X139335714Y-89092857D01*
X139354761Y-89054761D01*
X139354761Y-88959523D01*
X139335714Y-88921428D01*
X139316666Y-88902380D01*
X139278571Y-88883333D01*
X139202380Y-88883333D01*
X139164285Y-88902380D01*
X139145238Y-88921428D01*
X139126190Y-88959523D01*
G04 #@! TO.C,C17*
X144892857Y-84992857D02*
X144873809Y-85011904D01*
X144816666Y-85030952D01*
X144778571Y-85030952D01*
X144721428Y-85011904D01*
X144683333Y-84973809D01*
X144664285Y-84935714D01*
X144645238Y-84859523D01*
X144645238Y-84802380D01*
X144664285Y-84726190D01*
X144683333Y-84688095D01*
X144721428Y-84650000D01*
X144778571Y-84630952D01*
X144816666Y-84630952D01*
X144873809Y-84650000D01*
X144892857Y-84669047D01*
X145273809Y-85030952D02*
X145045238Y-85030952D01*
X145159523Y-85030952D02*
X145159523Y-84630952D01*
X145121428Y-84688095D01*
X145083333Y-84726190D01*
X145045238Y-84745238D01*
X145407142Y-84630952D02*
X145673809Y-84630952D01*
X145502380Y-85030952D01*
G04 #@! TO.C,U5*
X140095238Y-86455952D02*
X140095238Y-86779761D01*
X140114285Y-86817857D01*
X140133333Y-86836904D01*
X140171428Y-86855952D01*
X140247619Y-86855952D01*
X140285714Y-86836904D01*
X140304761Y-86817857D01*
X140323809Y-86779761D01*
X140323809Y-86455952D01*
X140704761Y-86455952D02*
X140514285Y-86455952D01*
X140495238Y-86646428D01*
X140514285Y-86627380D01*
X140552380Y-86608333D01*
X140647619Y-86608333D01*
X140685714Y-86627380D01*
X140704761Y-86646428D01*
X140723809Y-86684523D01*
X140723809Y-86779761D01*
X140704761Y-86817857D01*
X140685714Y-86836904D01*
X140647619Y-86855952D01*
X140552380Y-86855952D01*
X140514285Y-86836904D01*
X140495238Y-86817857D01*
G04 #@! TO.C,R14*
X135142857Y-87980952D02*
X135009523Y-87790476D01*
X134914285Y-87980952D02*
X134914285Y-87580952D01*
X135066666Y-87580952D01*
X135104761Y-87600000D01*
X135123809Y-87619047D01*
X135142857Y-87657142D01*
X135142857Y-87714285D01*
X135123809Y-87752380D01*
X135104761Y-87771428D01*
X135066666Y-87790476D01*
X134914285Y-87790476D01*
X135523809Y-87980952D02*
X135295238Y-87980952D01*
X135409523Y-87980952D02*
X135409523Y-87580952D01*
X135371428Y-87638095D01*
X135333333Y-87676190D01*
X135295238Y-87695238D01*
X135866666Y-87714285D02*
X135866666Y-87980952D01*
X135771428Y-87561904D02*
X135676190Y-87847619D01*
X135923809Y-87847619D01*
G04 #@! TO.C,R15*
X136342857Y-85930952D02*
X136209523Y-85740476D01*
X136114285Y-85930952D02*
X136114285Y-85530952D01*
X136266666Y-85530952D01*
X136304761Y-85550000D01*
X136323809Y-85569047D01*
X136342857Y-85607142D01*
X136342857Y-85664285D01*
X136323809Y-85702380D01*
X136304761Y-85721428D01*
X136266666Y-85740476D01*
X136114285Y-85740476D01*
X136723809Y-85930952D02*
X136495238Y-85930952D01*
X136609523Y-85930952D02*
X136609523Y-85530952D01*
X136571428Y-85588095D01*
X136533333Y-85626190D01*
X136495238Y-85645238D01*
X137085714Y-85530952D02*
X136895238Y-85530952D01*
X136876190Y-85721428D01*
X136895238Y-85702380D01*
X136933333Y-85683333D01*
X137028571Y-85683333D01*
X137066666Y-85702380D01*
X137085714Y-85721428D01*
X137104761Y-85759523D01*
X137104761Y-85854761D01*
X137085714Y-85892857D01*
X137066666Y-85911904D01*
X137028571Y-85930952D01*
X136933333Y-85930952D01*
X136895238Y-85911904D01*
X136876190Y-85892857D01*
G04 #@! TO.C,R16*
X136342857Y-85330952D02*
X136209523Y-85140476D01*
X136114285Y-85330952D02*
X136114285Y-84930952D01*
X136266666Y-84930952D01*
X136304761Y-84950000D01*
X136323809Y-84969047D01*
X136342857Y-85007142D01*
X136342857Y-85064285D01*
X136323809Y-85102380D01*
X136304761Y-85121428D01*
X136266666Y-85140476D01*
X136114285Y-85140476D01*
X136723809Y-85330952D02*
X136495238Y-85330952D01*
X136609523Y-85330952D02*
X136609523Y-84930952D01*
X136571428Y-84988095D01*
X136533333Y-85026190D01*
X136495238Y-85045238D01*
X137066666Y-84930952D02*
X136990476Y-84930952D01*
X136952380Y-84950000D01*
X136933333Y-84969047D01*
X136895238Y-85026190D01*
X136876190Y-85102380D01*
X136876190Y-85254761D01*
X136895238Y-85292857D01*
X136914285Y-85311904D01*
X136952380Y-85330952D01*
X137028571Y-85330952D01*
X137066666Y-85311904D01*
X137085714Y-85292857D01*
X137104761Y-85254761D01*
X137104761Y-85159523D01*
X137085714Y-85121428D01*
X137066666Y-85102380D01*
X137028571Y-85083333D01*
X136952380Y-85083333D01*
X136914285Y-85102380D01*
X136895238Y-85121428D01*
X136876190Y-85159523D01*
G04 #@! TO.C,R17*
X145192857Y-87230952D02*
X145059523Y-87040476D01*
X144964285Y-87230952D02*
X144964285Y-86830952D01*
X145116666Y-86830952D01*
X145154761Y-86850000D01*
X145173809Y-86869047D01*
X145192857Y-86907142D01*
X145192857Y-86964285D01*
X145173809Y-87002380D01*
X145154761Y-87021428D01*
X145116666Y-87040476D01*
X144964285Y-87040476D01*
X145573809Y-87230952D02*
X145345238Y-87230952D01*
X145459523Y-87230952D02*
X145459523Y-86830952D01*
X145421428Y-86888095D01*
X145383333Y-86926190D01*
X145345238Y-86945238D01*
X145707142Y-86830952D02*
X145973809Y-86830952D01*
X145802380Y-87230952D01*
G04 #@! TO.C,J3*
X149666666Y-81880952D02*
X149666666Y-82166666D01*
X149647619Y-82223809D01*
X149609523Y-82261904D01*
X149552380Y-82280952D01*
X149514285Y-82280952D01*
X149819047Y-81880952D02*
X150066666Y-81880952D01*
X149933333Y-82033333D01*
X149990476Y-82033333D01*
X150028571Y-82052380D01*
X150047619Y-82071428D01*
X150066666Y-82109523D01*
X150066666Y-82204761D01*
X150047619Y-82242857D01*
X150028571Y-82261904D01*
X149990476Y-82280952D01*
X149876190Y-82280952D01*
X149838095Y-82261904D01*
X149819047Y-82242857D01*
G04 #@! TO.C,C2*
X102383333Y-80567857D02*
X102364285Y-80586904D01*
X102307142Y-80605952D01*
X102269047Y-80605952D01*
X102211904Y-80586904D01*
X102173809Y-80548809D01*
X102154761Y-80510714D01*
X102135714Y-80434523D01*
X102135714Y-80377380D01*
X102154761Y-80301190D01*
X102173809Y-80263095D01*
X102211904Y-80225000D01*
X102269047Y-80205952D01*
X102307142Y-80205952D01*
X102364285Y-80225000D01*
X102383333Y-80244047D01*
X102535714Y-80244047D02*
X102554761Y-80225000D01*
X102592857Y-80205952D01*
X102688095Y-80205952D01*
X102726190Y-80225000D01*
X102745238Y-80244047D01*
X102764285Y-80282142D01*
X102764285Y-80320238D01*
X102745238Y-80377380D01*
X102516666Y-80605952D01*
X102764285Y-80605952D01*
G04 #@! TO.C,C5*
X112833333Y-81392857D02*
X112814285Y-81411904D01*
X112757142Y-81430952D01*
X112719047Y-81430952D01*
X112661904Y-81411904D01*
X112623809Y-81373809D01*
X112604761Y-81335714D01*
X112585714Y-81259523D01*
X112585714Y-81202380D01*
X112604761Y-81126190D01*
X112623809Y-81088095D01*
X112661904Y-81050000D01*
X112719047Y-81030952D01*
X112757142Y-81030952D01*
X112814285Y-81050000D01*
X112833333Y-81069047D01*
X113195238Y-81030952D02*
X113004761Y-81030952D01*
X112985714Y-81221428D01*
X113004761Y-81202380D01*
X113042857Y-81183333D01*
X113138095Y-81183333D01*
X113176190Y-81202380D01*
X113195238Y-81221428D01*
X113214285Y-81259523D01*
X113214285Y-81354761D01*
X113195238Y-81392857D01*
X113176190Y-81411904D01*
X113138095Y-81430952D01*
X113042857Y-81430952D01*
X113004761Y-81411904D01*
X112985714Y-81392857D01*
G04 #@! TO.C,C7*
X93483333Y-81892857D02*
X93464285Y-81911904D01*
X93407142Y-81930952D01*
X93369047Y-81930952D01*
X93311904Y-81911904D01*
X93273809Y-81873809D01*
X93254761Y-81835714D01*
X93235714Y-81759523D01*
X93235714Y-81702380D01*
X93254761Y-81626190D01*
X93273809Y-81588095D01*
X93311904Y-81550000D01*
X93369047Y-81530952D01*
X93407142Y-81530952D01*
X93464285Y-81550000D01*
X93483333Y-81569047D01*
X93616666Y-81530952D02*
X93883333Y-81530952D01*
X93711904Y-81930952D01*
G04 #@! TO.C,C8*
X123183333Y-81442857D02*
X123164285Y-81461904D01*
X123107142Y-81480952D01*
X123069047Y-81480952D01*
X123011904Y-81461904D01*
X122973809Y-81423809D01*
X122954761Y-81385714D01*
X122935714Y-81309523D01*
X122935714Y-81252380D01*
X122954761Y-81176190D01*
X122973809Y-81138095D01*
X123011904Y-81100000D01*
X123069047Y-81080952D01*
X123107142Y-81080952D01*
X123164285Y-81100000D01*
X123183333Y-81119047D01*
X123411904Y-81252380D02*
X123373809Y-81233333D01*
X123354761Y-81214285D01*
X123335714Y-81176190D01*
X123335714Y-81157142D01*
X123354761Y-81119047D01*
X123373809Y-81100000D01*
X123411904Y-81080952D01*
X123488095Y-81080952D01*
X123526190Y-81100000D01*
X123545238Y-81119047D01*
X123564285Y-81157142D01*
X123564285Y-81176190D01*
X123545238Y-81214285D01*
X123526190Y-81233333D01*
X123488095Y-81252380D01*
X123411904Y-81252380D01*
X123373809Y-81271428D01*
X123354761Y-81290476D01*
X123335714Y-81328571D01*
X123335714Y-81404761D01*
X123354761Y-81442857D01*
X123373809Y-81461904D01*
X123411904Y-81480952D01*
X123488095Y-81480952D01*
X123526190Y-81461904D01*
X123545238Y-81442857D01*
X123564285Y-81404761D01*
X123564285Y-81328571D01*
X123545238Y-81290476D01*
X123526190Y-81271428D01*
X123488095Y-81252380D01*
G04 #@! TO.C,C10*
X99942857Y-85757142D02*
X99961904Y-85776190D01*
X99980952Y-85833333D01*
X99980952Y-85871428D01*
X99961904Y-85928571D01*
X99923809Y-85966666D01*
X99885714Y-85985714D01*
X99809523Y-86004761D01*
X99752380Y-86004761D01*
X99676190Y-85985714D01*
X99638095Y-85966666D01*
X99600000Y-85928571D01*
X99580952Y-85871428D01*
X99580952Y-85833333D01*
X99600000Y-85776190D01*
X99619047Y-85757142D01*
X99980952Y-85376190D02*
X99980952Y-85604761D01*
X99980952Y-85490476D02*
X99580952Y-85490476D01*
X99638095Y-85528571D01*
X99676190Y-85566666D01*
X99695238Y-85604761D01*
X99580952Y-85128571D02*
X99580952Y-85090476D01*
X99600000Y-85052380D01*
X99619047Y-85033333D01*
X99657142Y-85014285D01*
X99733333Y-84995238D01*
X99828571Y-84995238D01*
X99904761Y-85014285D01*
X99942857Y-85033333D01*
X99961904Y-85052380D01*
X99980952Y-85090476D01*
X99980952Y-85128571D01*
X99961904Y-85166666D01*
X99942857Y-85185714D01*
X99904761Y-85204761D01*
X99828571Y-85223809D01*
X99733333Y-85223809D01*
X99657142Y-85204761D01*
X99619047Y-85185714D01*
X99600000Y-85166666D01*
X99580952Y-85128571D01*
G04 #@! TO.C,C3*
X112833333Y-87692857D02*
X112814285Y-87711904D01*
X112757142Y-87730952D01*
X112719047Y-87730952D01*
X112661904Y-87711904D01*
X112623809Y-87673809D01*
X112604761Y-87635714D01*
X112585714Y-87559523D01*
X112585714Y-87502380D01*
X112604761Y-87426190D01*
X112623809Y-87388095D01*
X112661904Y-87350000D01*
X112719047Y-87330952D01*
X112757142Y-87330952D01*
X112814285Y-87350000D01*
X112833333Y-87369047D01*
X112966666Y-87330952D02*
X113214285Y-87330952D01*
X113080952Y-87483333D01*
X113138095Y-87483333D01*
X113176190Y-87502380D01*
X113195238Y-87521428D01*
X113214285Y-87559523D01*
X113214285Y-87654761D01*
X113195238Y-87692857D01*
X113176190Y-87711904D01*
X113138095Y-87730952D01*
X113023809Y-87730952D01*
X112985714Y-87711904D01*
X112966666Y-87692857D01*
G04 #@! TO.C,C9*
X114183333Y-80842857D02*
X114164285Y-80861904D01*
X114107142Y-80880952D01*
X114069047Y-80880952D01*
X114011904Y-80861904D01*
X113973809Y-80823809D01*
X113954761Y-80785714D01*
X113935714Y-80709523D01*
X113935714Y-80652380D01*
X113954761Y-80576190D01*
X113973809Y-80538095D01*
X114011904Y-80500000D01*
X114069047Y-80480952D01*
X114107142Y-80480952D01*
X114164285Y-80500000D01*
X114183333Y-80519047D01*
X114373809Y-80880952D02*
X114450000Y-80880952D01*
X114488095Y-80861904D01*
X114507142Y-80842857D01*
X114545238Y-80785714D01*
X114564285Y-80709523D01*
X114564285Y-80557142D01*
X114545238Y-80519047D01*
X114526190Y-80500000D01*
X114488095Y-80480952D01*
X114411904Y-80480952D01*
X114373809Y-80500000D01*
X114354761Y-80519047D01*
X114335714Y-80557142D01*
X114335714Y-80652380D01*
X114354761Y-80690476D01*
X114373809Y-80709523D01*
X114411904Y-80728571D01*
X114488095Y-80728571D01*
X114526190Y-80709523D01*
X114545238Y-80690476D01*
X114564285Y-80652380D01*
G04 #@! TO.C,C11*
X114092857Y-86592857D02*
X114073809Y-86611904D01*
X114016666Y-86630952D01*
X113978571Y-86630952D01*
X113921428Y-86611904D01*
X113883333Y-86573809D01*
X113864285Y-86535714D01*
X113845238Y-86459523D01*
X113845238Y-86402380D01*
X113864285Y-86326190D01*
X113883333Y-86288095D01*
X113921428Y-86250000D01*
X113978571Y-86230952D01*
X114016666Y-86230952D01*
X114073809Y-86250000D01*
X114092857Y-86269047D01*
X114473809Y-86630952D02*
X114245238Y-86630952D01*
X114359523Y-86630952D02*
X114359523Y-86230952D01*
X114321428Y-86288095D01*
X114283333Y-86326190D01*
X114245238Y-86345238D01*
X114854761Y-86630952D02*
X114626190Y-86630952D01*
X114740476Y-86630952D02*
X114740476Y-86230952D01*
X114702380Y-86288095D01*
X114664285Y-86326190D01*
X114626190Y-86345238D01*
G04 #@! TO.C,C4*
X145683333Y-88942857D02*
X145664285Y-88961904D01*
X145607142Y-88980952D01*
X145569047Y-88980952D01*
X145511904Y-88961904D01*
X145473809Y-88923809D01*
X145454761Y-88885714D01*
X145435714Y-88809523D01*
X145435714Y-88752380D01*
X145454761Y-88676190D01*
X145473809Y-88638095D01*
X145511904Y-88600000D01*
X145569047Y-88580952D01*
X145607142Y-88580952D01*
X145664285Y-88600000D01*
X145683333Y-88619047D01*
X146026190Y-88714285D02*
X146026190Y-88980952D01*
X145930952Y-88561904D02*
X145835714Y-88847619D01*
X146083333Y-88847619D01*
G04 #@! TO.C,C1*
X121883333Y-82217857D02*
X121864285Y-82236904D01*
X121807142Y-82255952D01*
X121769047Y-82255952D01*
X121711904Y-82236904D01*
X121673809Y-82198809D01*
X121654761Y-82160714D01*
X121635714Y-82084523D01*
X121635714Y-82027380D01*
X121654761Y-81951190D01*
X121673809Y-81913095D01*
X121711904Y-81875000D01*
X121769047Y-81855952D01*
X121807142Y-81855952D01*
X121864285Y-81875000D01*
X121883333Y-81894047D01*
X122264285Y-82255952D02*
X122035714Y-82255952D01*
X122150000Y-82255952D02*
X122150000Y-81855952D01*
X122111904Y-81913095D01*
X122073809Y-81951190D01*
X122035714Y-81970238D01*
G04 #@! TO.C,D3*
X147129761Y-84930952D02*
X147129761Y-84530952D01*
X147225000Y-84530952D01*
X147282142Y-84550000D01*
X147320238Y-84588095D01*
X147339285Y-84626190D01*
X147358333Y-84702380D01*
X147358333Y-84759523D01*
X147339285Y-84835714D01*
X147320238Y-84873809D01*
X147282142Y-84911904D01*
X147225000Y-84930952D01*
X147129761Y-84930952D01*
X147491666Y-84530952D02*
X147739285Y-84530952D01*
X147605952Y-84683333D01*
X147663095Y-84683333D01*
X147701190Y-84702380D01*
X147720238Y-84721428D01*
X147739285Y-84759523D01*
X147739285Y-84854761D01*
X147720238Y-84892857D01*
X147701190Y-84911904D01*
X147663095Y-84930952D01*
X147548809Y-84930952D01*
X147510714Y-84911904D01*
X147491666Y-84892857D01*
G04 #@! TO.C,U4*
X111145238Y-80880952D02*
X111145238Y-81204761D01*
X111164285Y-81242857D01*
X111183333Y-81261904D01*
X111221428Y-81280952D01*
X111297619Y-81280952D01*
X111335714Y-81261904D01*
X111354761Y-81242857D01*
X111373809Y-81204761D01*
X111373809Y-80880952D01*
X111735714Y-81014285D02*
X111735714Y-81280952D01*
X111640476Y-80861904D02*
X111545238Y-81147619D01*
X111792857Y-81147619D01*
G04 #@! TO.C,U3*
X95895238Y-83930952D02*
X95895238Y-84254761D01*
X95914285Y-84292857D01*
X95933333Y-84311904D01*
X95971428Y-84330952D01*
X96047619Y-84330952D01*
X96085714Y-84311904D01*
X96104761Y-84292857D01*
X96123809Y-84254761D01*
X96123809Y-83930952D01*
X96276190Y-83930952D02*
X96523809Y-83930952D01*
X96390476Y-84083333D01*
X96447619Y-84083333D01*
X96485714Y-84102380D01*
X96504761Y-84121428D01*
X96523809Y-84159523D01*
X96523809Y-84254761D01*
X96504761Y-84292857D01*
X96485714Y-84311904D01*
X96447619Y-84330952D01*
X96333333Y-84330952D01*
X96295238Y-84311904D01*
X96276190Y-84292857D01*
G04 #@! TO.C,Q1*
X132936904Y-82069047D02*
X132898809Y-82050000D01*
X132860714Y-82011904D01*
X132803571Y-81954761D01*
X132765476Y-81935714D01*
X132727380Y-81935714D01*
X132746428Y-82030952D02*
X132708333Y-82011904D01*
X132670238Y-81973809D01*
X132651190Y-81897619D01*
X132651190Y-81764285D01*
X132670238Y-81688095D01*
X132708333Y-81650000D01*
X132746428Y-81630952D01*
X132822619Y-81630952D01*
X132860714Y-81650000D01*
X132898809Y-81688095D01*
X132917857Y-81764285D01*
X132917857Y-81897619D01*
X132898809Y-81973809D01*
X132860714Y-82011904D01*
X132822619Y-82030952D01*
X132746428Y-82030952D01*
X133298809Y-82030952D02*
X133070238Y-82030952D01*
X133184523Y-82030952D02*
X133184523Y-81630952D01*
X133146428Y-81688095D01*
X133108333Y-81726190D01*
X133070238Y-81745238D01*
G04 #@! TO.C,U1*
X95645238Y-83230952D02*
X95645238Y-83554761D01*
X95664285Y-83592857D01*
X95683333Y-83611904D01*
X95721428Y-83630952D01*
X95797619Y-83630952D01*
X95835714Y-83611904D01*
X95854761Y-83592857D01*
X95873809Y-83554761D01*
X95873809Y-83230952D01*
X96273809Y-83630952D02*
X96045238Y-83630952D01*
X96159523Y-83630952D02*
X96159523Y-83230952D01*
X96121428Y-83288095D01*
X96083333Y-83326190D01*
X96045238Y-83345238D01*
G04 #@! TO.C,U2*
X115745238Y-81030952D02*
X115745238Y-81354761D01*
X115764285Y-81392857D01*
X115783333Y-81411904D01*
X115821428Y-81430952D01*
X115897619Y-81430952D01*
X115935714Y-81411904D01*
X115954761Y-81392857D01*
X115973809Y-81354761D01*
X115973809Y-81030952D01*
X116145238Y-81069047D02*
X116164285Y-81050000D01*
X116202380Y-81030952D01*
X116297619Y-81030952D01*
X116335714Y-81050000D01*
X116354761Y-81069047D01*
X116373809Y-81107142D01*
X116373809Y-81145238D01*
X116354761Y-81202380D01*
X116126190Y-81430952D01*
X116373809Y-81430952D01*
G04 #@! TO.C,R3*
X100533333Y-83155952D02*
X100400000Y-82965476D01*
X100304761Y-83155952D02*
X100304761Y-82755952D01*
X100457142Y-82755952D01*
X100495238Y-82775000D01*
X100514285Y-82794047D01*
X100533333Y-82832142D01*
X100533333Y-82889285D01*
X100514285Y-82927380D01*
X100495238Y-82946428D01*
X100457142Y-82965476D01*
X100304761Y-82965476D01*
X100666666Y-82755952D02*
X100914285Y-82755952D01*
X100780952Y-82908333D01*
X100838095Y-82908333D01*
X100876190Y-82927380D01*
X100895238Y-82946428D01*
X100914285Y-82984523D01*
X100914285Y-83079761D01*
X100895238Y-83117857D01*
X100876190Y-83136904D01*
X100838095Y-83155952D01*
X100723809Y-83155952D01*
X100685714Y-83136904D01*
X100666666Y-83117857D01*
G04 #@! TO.C,R1*
X95933333Y-81180952D02*
X95800000Y-80990476D01*
X95704761Y-81180952D02*
X95704761Y-80780952D01*
X95857142Y-80780952D01*
X95895238Y-80800000D01*
X95914285Y-80819047D01*
X95933333Y-80857142D01*
X95933333Y-80914285D01*
X95914285Y-80952380D01*
X95895238Y-80971428D01*
X95857142Y-80990476D01*
X95704761Y-80990476D01*
X96314285Y-81180952D02*
X96085714Y-81180952D01*
X96200000Y-81180952D02*
X96200000Y-80780952D01*
X96161904Y-80838095D01*
X96123809Y-80876190D01*
X96085714Y-80895238D01*
G04 #@! TO.C,R4*
X101233333Y-85680952D02*
X101100000Y-85490476D01*
X101004761Y-85680952D02*
X101004761Y-85280952D01*
X101157142Y-85280952D01*
X101195238Y-85300000D01*
X101214285Y-85319047D01*
X101233333Y-85357142D01*
X101233333Y-85414285D01*
X101214285Y-85452380D01*
X101195238Y-85471428D01*
X101157142Y-85490476D01*
X101004761Y-85490476D01*
X101576190Y-85414285D02*
X101576190Y-85680952D01*
X101480952Y-85261904D02*
X101385714Y-85547619D01*
X101633333Y-85547619D01*
G04 #@! TO.C,R5*
X113833333Y-84380952D02*
X113700000Y-84190476D01*
X113604761Y-84380952D02*
X113604761Y-83980952D01*
X113757142Y-83980952D01*
X113795238Y-84000000D01*
X113814285Y-84019047D01*
X113833333Y-84057142D01*
X113833333Y-84114285D01*
X113814285Y-84152380D01*
X113795238Y-84171428D01*
X113757142Y-84190476D01*
X113604761Y-84190476D01*
X114195238Y-83980952D02*
X114004761Y-83980952D01*
X113985714Y-84171428D01*
X114004761Y-84152380D01*
X114042857Y-84133333D01*
X114138095Y-84133333D01*
X114176190Y-84152380D01*
X114195238Y-84171428D01*
X114214285Y-84209523D01*
X114214285Y-84304761D01*
X114195238Y-84342857D01*
X114176190Y-84361904D01*
X114138095Y-84380952D01*
X114042857Y-84380952D01*
X114004761Y-84361904D01*
X113985714Y-84342857D01*
G04 #@! TO.C,R6*
X100280952Y-87966666D02*
X100090476Y-88100000D01*
X100280952Y-88195238D02*
X99880952Y-88195238D01*
X99880952Y-88042857D01*
X99900000Y-88004761D01*
X99919047Y-87985714D01*
X99957142Y-87966666D01*
X100014285Y-87966666D01*
X100052380Y-87985714D01*
X100071428Y-88004761D01*
X100090476Y-88042857D01*
X100090476Y-88195238D01*
X99880952Y-87623809D02*
X99880952Y-87700000D01*
X99900000Y-87738095D01*
X99919047Y-87757142D01*
X99976190Y-87795238D01*
X100052380Y-87814285D01*
X100204761Y-87814285D01*
X100242857Y-87795238D01*
X100261904Y-87776190D01*
X100280952Y-87738095D01*
X100280952Y-87661904D01*
X100261904Y-87623809D01*
X100242857Y-87604761D01*
X100204761Y-87585714D01*
X100109523Y-87585714D01*
X100071428Y-87604761D01*
X100052380Y-87623809D01*
X100033333Y-87661904D01*
X100033333Y-87738095D01*
X100052380Y-87776190D01*
X100071428Y-87795238D01*
X100109523Y-87814285D01*
G04 #@! TO.C,R9*
X131583333Y-82730952D02*
X131450000Y-82540476D01*
X131354761Y-82730952D02*
X131354761Y-82330952D01*
X131507142Y-82330952D01*
X131545238Y-82350000D01*
X131564285Y-82369047D01*
X131583333Y-82407142D01*
X131583333Y-82464285D01*
X131564285Y-82502380D01*
X131545238Y-82521428D01*
X131507142Y-82540476D01*
X131354761Y-82540476D01*
X131773809Y-82730952D02*
X131850000Y-82730952D01*
X131888095Y-82711904D01*
X131907142Y-82692857D01*
X131945238Y-82635714D01*
X131964285Y-82559523D01*
X131964285Y-82407142D01*
X131945238Y-82369047D01*
X131926190Y-82350000D01*
X131888095Y-82330952D01*
X131811904Y-82330952D01*
X131773809Y-82350000D01*
X131754761Y-82369047D01*
X131735714Y-82407142D01*
X131735714Y-82502380D01*
X131754761Y-82540476D01*
X131773809Y-82559523D01*
X131811904Y-82578571D01*
X131888095Y-82578571D01*
X131926190Y-82559523D01*
X131945238Y-82540476D01*
X131964285Y-82502380D01*
G04 #@! TO.C,R12*
X136392857Y-82630952D02*
X136259523Y-82440476D01*
X136164285Y-82630952D02*
X136164285Y-82230952D01*
X136316666Y-82230952D01*
X136354761Y-82250000D01*
X136373809Y-82269047D01*
X136392857Y-82307142D01*
X136392857Y-82364285D01*
X136373809Y-82402380D01*
X136354761Y-82421428D01*
X136316666Y-82440476D01*
X136164285Y-82440476D01*
X136773809Y-82630952D02*
X136545238Y-82630952D01*
X136659523Y-82630952D02*
X136659523Y-82230952D01*
X136621428Y-82288095D01*
X136583333Y-82326190D01*
X136545238Y-82345238D01*
X136926190Y-82269047D02*
X136945238Y-82250000D01*
X136983333Y-82230952D01*
X137078571Y-82230952D01*
X137116666Y-82250000D01*
X137135714Y-82269047D01*
X137154761Y-82307142D01*
X137154761Y-82345238D01*
X137135714Y-82402380D01*
X136907142Y-82630952D01*
X137154761Y-82630952D01*
G04 #@! TO.C,R2*
X101333333Y-80605952D02*
X101200000Y-80415476D01*
X101104761Y-80605952D02*
X101104761Y-80205952D01*
X101257142Y-80205952D01*
X101295238Y-80225000D01*
X101314285Y-80244047D01*
X101333333Y-80282142D01*
X101333333Y-80339285D01*
X101314285Y-80377380D01*
X101295238Y-80396428D01*
X101257142Y-80415476D01*
X101104761Y-80415476D01*
X101485714Y-80244047D02*
X101504761Y-80225000D01*
X101542857Y-80205952D01*
X101638095Y-80205952D01*
X101676190Y-80225000D01*
X101695238Y-80244047D01*
X101714285Y-80282142D01*
X101714285Y-80320238D01*
X101695238Y-80377380D01*
X101466666Y-80605952D01*
X101714285Y-80605952D01*
G04 #@! TO.C,C18*
X155442857Y-87592857D02*
X155423809Y-87611904D01*
X155366666Y-87630952D01*
X155328571Y-87630952D01*
X155271428Y-87611904D01*
X155233333Y-87573809D01*
X155214285Y-87535714D01*
X155195238Y-87459523D01*
X155195238Y-87402380D01*
X155214285Y-87326190D01*
X155233333Y-87288095D01*
X155271428Y-87250000D01*
X155328571Y-87230952D01*
X155366666Y-87230952D01*
X155423809Y-87250000D01*
X155442857Y-87269047D01*
X155823809Y-87630952D02*
X155595238Y-87630952D01*
X155709523Y-87630952D02*
X155709523Y-87230952D01*
X155671428Y-87288095D01*
X155633333Y-87326190D01*
X155595238Y-87345238D01*
X156052380Y-87402380D02*
X156014285Y-87383333D01*
X155995238Y-87364285D01*
X155976190Y-87326190D01*
X155976190Y-87307142D01*
X155995238Y-87269047D01*
X156014285Y-87250000D01*
X156052380Y-87230952D01*
X156128571Y-87230952D01*
X156166666Y-87250000D01*
X156185714Y-87269047D01*
X156204761Y-87307142D01*
X156204761Y-87326190D01*
X156185714Y-87364285D01*
X156166666Y-87383333D01*
X156128571Y-87402380D01*
X156052380Y-87402380D01*
X156014285Y-87421428D01*
X155995238Y-87440476D01*
X155976190Y-87478571D01*
X155976190Y-87554761D01*
X155995238Y-87592857D01*
X156014285Y-87611904D01*
X156052380Y-87630952D01*
X156128571Y-87630952D01*
X156166666Y-87611904D01*
X156185714Y-87592857D01*
X156204761Y-87554761D01*
X156204761Y-87478571D01*
X156185714Y-87440476D01*
X156166666Y-87421428D01*
X156128571Y-87402380D01*
G04 #@! TO.C,R18*
X155042857Y-82330952D02*
X154909523Y-82140476D01*
X154814285Y-82330952D02*
X154814285Y-81930952D01*
X154966666Y-81930952D01*
X155004761Y-81950000D01*
X155023809Y-81969047D01*
X155042857Y-82007142D01*
X155042857Y-82064285D01*
X155023809Y-82102380D01*
X155004761Y-82121428D01*
X154966666Y-82140476D01*
X154814285Y-82140476D01*
X155423809Y-82330952D02*
X155195238Y-82330952D01*
X155309523Y-82330952D02*
X155309523Y-81930952D01*
X155271428Y-81988095D01*
X155233333Y-82026190D01*
X155195238Y-82045238D01*
X155652380Y-82102380D02*
X155614285Y-82083333D01*
X155595238Y-82064285D01*
X155576190Y-82026190D01*
X155576190Y-82007142D01*
X155595238Y-81969047D01*
X155614285Y-81950000D01*
X155652380Y-81930952D01*
X155728571Y-81930952D01*
X155766666Y-81950000D01*
X155785714Y-81969047D01*
X155804761Y-82007142D01*
X155804761Y-82026190D01*
X155785714Y-82064285D01*
X155766666Y-82083333D01*
X155728571Y-82102380D01*
X155652380Y-82102380D01*
X155614285Y-82121428D01*
X155595238Y-82140476D01*
X155576190Y-82178571D01*
X155576190Y-82254761D01*
X155595238Y-82292857D01*
X155614285Y-82311904D01*
X155652380Y-82330952D01*
X155728571Y-82330952D01*
X155766666Y-82311904D01*
X155785714Y-82292857D01*
X155804761Y-82254761D01*
X155804761Y-82178571D01*
X155785714Y-82140476D01*
X155766666Y-82121428D01*
X155728571Y-82102380D01*
G04 #@! TO.C,U6*
X157320238Y-82730952D02*
X157320238Y-83054761D01*
X157339285Y-83092857D01*
X157358333Y-83111904D01*
X157396428Y-83130952D01*
X157472619Y-83130952D01*
X157510714Y-83111904D01*
X157529761Y-83092857D01*
X157548809Y-83054761D01*
X157548809Y-82730952D01*
X157910714Y-82730952D02*
X157834523Y-82730952D01*
X157796428Y-82750000D01*
X157777380Y-82769047D01*
X157739285Y-82826190D01*
X157720238Y-82902380D01*
X157720238Y-83054761D01*
X157739285Y-83092857D01*
X157758333Y-83111904D01*
X157796428Y-83130952D01*
X157872619Y-83130952D01*
X157910714Y-83111904D01*
X157929761Y-83092857D01*
X157948809Y-83054761D01*
X157948809Y-82959523D01*
X157929761Y-82921428D01*
X157910714Y-82902380D01*
X157872619Y-82883333D01*
X157796428Y-82883333D01*
X157758333Y-82902380D01*
X157739285Y-82921428D01*
X157720238Y-82959523D01*
G04 #@! TD*
M02*
