G04 #@! TF.GenerationSoftware,KiCad,Pcbnew,(6.0.0-rc1-dev-1-g01c5bdfb8)*
G04 #@! TF.CreationDate,2018-11-23T11:25:08+01:00*
G04 #@! TF.ProjectId,TS100C,5453313030432E6B696361645F706362,rev?*
G04 #@! TF.SameCoordinates,Original*
G04 #@! TF.FileFunction,Copper,L3,Inr,Plane*
G04 #@! TF.FilePolarity,Positive*
%FSLAX46Y46*%
G04 Gerber Fmt 4.6, Leading zero omitted, Abs format (unit mm)*
G04 Created by KiCad (PCBNEW (6.0.0-rc1-dev-1-g01c5bdfb8)) date Fri Nov 23 11:25:08 2018*
%MOMM*%
%LPD*%
G01*
G04 APERTURE LIST*
G04 #@! TA.AperFunction,ViaPad*
%ADD10R,5.000000X3.960000*%
G04 #@! TD*
G04 #@! TA.AperFunction,ViaPad*
%ADD11O,1.400000X0.800000*%
G04 #@! TD*
G04 #@! TA.AperFunction,ViaPad*
%ADD12C,0.650000*%
G04 #@! TD*
G04 #@! TA.AperFunction,ViaPad*
%ADD13C,2.000000*%
G04 #@! TD*
G04 #@! TA.AperFunction,ViaPad*
%ADD14C,0.600000*%
G04 #@! TD*
G04 #@! TA.AperFunction,ViaPad*
%ADD15C,0.700000*%
G04 #@! TD*
G04 #@! TA.AperFunction,Conductor*
%ADD16C,0.250000*%
G04 #@! TD*
G04 #@! TA.AperFunction,Conductor*
%ADD17C,0.154000*%
G04 #@! TD*
G04 #@! TA.AperFunction,Conductor*
%ADD18C,0.254000*%
G04 #@! TD*
G04 APERTURE END LIST*
D10*
G04 #@! TO.N,GND*
G04 #@! TO.C,J4*
X161000000Y-85000000D03*
G04 #@! TD*
D11*
G04 #@! TO.N,GND*
G04 #@! TO.C,J1*
X88910000Y-89130000D03*
X88910000Y-80870000D03*
X82960000Y-80510000D03*
X82960000Y-89490000D03*
D12*
X89510000Y-82200000D03*
G04 #@! TO.N,VBUS*
X89510000Y-83800000D03*
G04 #@! TO.N,USB_P*
X89510000Y-84600000D03*
G04 #@! TO.N,USB_N*
X89510000Y-85400000D03*
G04 #@! TO.N,VBUS*
X89510000Y-86200000D03*
G04 #@! TO.N,GND*
X89510000Y-87800000D03*
G04 #@! TO.N,Net-(J1-PadB2)*
X88810000Y-82600000D03*
G04 #@! TO.N,Net-(J1-PadB3)*
X88810000Y-83400000D03*
G04 #@! TO.N,CC2*
X88810000Y-84200000D03*
G04 #@! TO.N,Net-(J1-PadB8)*
X88810000Y-85800000D03*
G04 #@! TO.N,Net-(J1-PadB10)*
X88810000Y-86600000D03*
G04 #@! TO.N,Net-(J1-PadB11)*
X88810000Y-87400000D03*
G04 #@! TD*
D13*
G04 #@! TO.N,/OUT*
G04 #@! TO.C,J3*
X152000000Y-87400000D03*
X152000000Y-82600000D03*
G04 #@! TD*
D14*
G04 #@! TO.N,GND*
X98500000Y-82300000D03*
X117850000Y-83700000D03*
X116350000Y-83700000D03*
X117900000Y-82200000D03*
X116300000Y-82200000D03*
X97700000Y-82300000D03*
X97700000Y-83100000D03*
X98500000Y-83100000D03*
X110350000Y-82700000D03*
X110350000Y-87300000D03*
X105750000Y-87300000D03*
X156504168Y-84150000D03*
X146450000Y-88400000D03*
X147200000Y-88400000D03*
X147950000Y-88400000D03*
X148700000Y-88400000D03*
X142300000Y-85050000D03*
X136950000Y-85300000D03*
X98950000Y-86700000D03*
X92250000Y-82475000D03*
X93225000Y-87200000D03*
X119875000Y-89300000D03*
X105755086Y-82731010D03*
X133768990Y-83729792D03*
X112750000Y-84800000D03*
X129500000Y-87000000D03*
D15*
X126725000Y-84275000D03*
X140650000Y-86775000D03*
D14*
G04 #@! TO.N,OLED_PULLUP*
X114800000Y-84099996D03*
G04 #@! TO.N,OLED_SDA*
X119825000Y-85525000D03*
D15*
G04 #@! TO.N,VBUS*
X140600000Y-82200000D03*
X140600000Y-81400000D03*
X139800000Y-81400000D03*
X139800000Y-82200000D03*
X139000000Y-82200000D03*
X139000000Y-81400000D03*
X138200000Y-81400000D03*
X138200000Y-82200000D03*
D14*
X117900000Y-84900000D03*
X97900000Y-84800000D03*
X118586802Y-84887682D03*
D15*
X139800000Y-82960979D03*
X138200000Y-82960979D03*
X139000000Y-82960979D03*
X140600000Y-82960979D03*
D14*
G04 #@! TO.N,OLED_SCL*
X120650000Y-85625000D03*
G04 #@! TO.N,+3V3*
X155200000Y-87400000D03*
X142262500Y-88900000D03*
X94825000Y-81975000D03*
X97850000Y-85875000D03*
X104425000Y-80775000D03*
X116925000Y-89050000D03*
X115550000Y-89175000D03*
X112075000Y-88500000D03*
X106850000Y-80837052D03*
X118350000Y-80968990D03*
X117650000Y-80968990D03*
X116950000Y-80968990D03*
X117000000Y-84950000D03*
X101700000Y-87450000D03*
D15*
X131125000Y-88650000D03*
X123314163Y-83964163D03*
X122575000Y-81650000D03*
X123400000Y-85675000D03*
X140300000Y-85050000D03*
D14*
G04 #@! TO.N,SDA*
X102999992Y-84950000D03*
X103000000Y-86499994D03*
G04 #@! TO.N,CC2*
X95800000Y-86100000D03*
X97025000Y-84950000D03*
G04 #@! TO.N,CC1*
X95400000Y-82700000D03*
G04 #@! TO.N,Net-(SW1-Pad2)*
X103550000Y-82200000D03*
X135550000Y-82031010D03*
G04 #@! TO.N,SWDIO*
X109800000Y-89350000D03*
X115600000Y-87264021D03*
G04 #@! TO.N,PWM*
X119650000Y-86600000D03*
X130400000Y-87550000D03*
G04 #@! TO.N,TTIP*
X105350000Y-80650000D03*
X130123424Y-80653152D03*
G04 #@! TO.N,TREF*
X106139915Y-80546399D03*
X154800000Y-81650000D03*
G04 #@! TO.N,Net-(SW2-Pad2)*
X103500000Y-83050000D03*
X134600000Y-81118990D03*
X153850000Y-81029000D03*
G04 #@! TO.N,USB_P*
X91994527Y-85449994D03*
X92000000Y-83700000D03*
G04 #@! TO.N,USB_N*
X92000000Y-84600000D03*
G04 #@! TD*
D16*
G04 #@! TO.N,GND*
X88910000Y-80870000D02*
X89305000Y-80475000D01*
X89305000Y-80475000D02*
X90425000Y-80475000D01*
X88910000Y-89130000D02*
X89380000Y-89130000D01*
X89380000Y-89130000D02*
X89650000Y-89400000D01*
X89650000Y-89400000D02*
X90300000Y-89400000D01*
D17*
G04 #@! TO.N,Net-(SW1-Pad2)*
X135531010Y-82050000D02*
X135550000Y-82031010D01*
X119117537Y-81132463D02*
X129337249Y-81132463D01*
X104250000Y-81500000D02*
X118750000Y-81500000D01*
X103550000Y-82200000D02*
X104250000Y-81500000D01*
X118750000Y-81500000D02*
X119117537Y-81132463D01*
X130254786Y-82050000D02*
X135531010Y-82050000D01*
X129337249Y-81132463D02*
X130254786Y-82050000D01*
G04 #@! TO.N,TREF*
X106193518Y-80600002D02*
X106139915Y-80546399D01*
X106349998Y-80600002D02*
X106193518Y-80600002D01*
X154650000Y-81600000D02*
X154800000Y-81750000D01*
X152750000Y-81250000D02*
X153100000Y-81600000D01*
X144050000Y-81250000D02*
X152750000Y-81250000D01*
X137214407Y-83850000D02*
X141450000Y-83850000D01*
X153100000Y-81600000D02*
X154650000Y-81600000D01*
X136641989Y-82141989D02*
X136641989Y-83277582D01*
X106380304Y-80306010D02*
X128970128Y-80306010D01*
X106139915Y-80546399D02*
X106380304Y-80306010D01*
X128970128Y-80306010D02*
X130314118Y-81650000D01*
X141450000Y-83850000D02*
X144050000Y-81250000D01*
X136641989Y-83277582D02*
X137214407Y-83850000D01*
X136000000Y-81500000D02*
X136641989Y-82141989D01*
X134885882Y-81650000D02*
X135035882Y-81500000D01*
X130314118Y-81650000D02*
X134885882Y-81650000D01*
X135035882Y-81500000D02*
X136000000Y-81500000D01*
G04 #@! TO.N,Net-(SW2-Pad2)*
X136218990Y-81118990D02*
X136950000Y-81850000D01*
X136950000Y-83150000D02*
X137341989Y-83541989D01*
X136950000Y-81850000D02*
X136950000Y-83150000D01*
X143900000Y-80850000D02*
X153550000Y-80850000D01*
X134600000Y-81118990D02*
X136218990Y-81118990D01*
X137341989Y-83541989D02*
X141208011Y-83541989D01*
X141208011Y-83541989D02*
X143900000Y-80850000D01*
X153550000Y-80850000D02*
X153671000Y-80850000D01*
X153671000Y-80850000D02*
X153850000Y-81029000D01*
G04 #@! TD*
D18*
G04 #@! TO.N,GND*
G36*
X87957895Y-80458020D02*
X87895624Y-80554361D01*
X87954063Y-80670000D01*
X88560000Y-80670000D01*
X88560000Y-80470000D01*
X89260000Y-80470000D01*
X89260000Y-80670000D01*
X89610000Y-80670000D01*
X89610000Y-80807304D01*
X89570142Y-80855871D01*
X89504585Y-80978519D01*
X89476835Y-81070000D01*
X89260000Y-81070000D01*
X89260000Y-81215389D01*
X89122504Y-81352885D01*
X89260000Y-81490381D01*
X89260000Y-81537840D01*
X89241474Y-81543369D01*
X89235568Y-81545815D01*
X89206101Y-81666291D01*
X89510000Y-81970190D01*
X89558270Y-81921920D01*
X89570142Y-81944130D01*
X89658368Y-82051633D01*
X89765871Y-82139858D01*
X89788081Y-82151729D01*
X89739810Y-82200000D01*
X90043709Y-82503899D01*
X90164185Y-82474432D01*
X90183005Y-82413386D01*
X90357115Y-82587496D01*
X90628504Y-82316107D01*
X90487741Y-82175344D01*
X90554130Y-82139858D01*
X90661633Y-82051633D01*
X90749858Y-81944130D01*
X90769208Y-81907927D01*
X94144000Y-81907927D01*
X94144000Y-82042073D01*
X94170171Y-82173640D01*
X94221506Y-82297574D01*
X94296033Y-82409112D01*
X94390888Y-82503967D01*
X94502426Y-82578494D01*
X94626360Y-82629829D01*
X94719000Y-82648257D01*
X94719000Y-82767073D01*
X94745171Y-82898640D01*
X94796506Y-83022574D01*
X94871033Y-83134112D01*
X94965888Y-83228967D01*
X95077426Y-83303494D01*
X95201360Y-83354829D01*
X95332927Y-83381000D01*
X95467073Y-83381000D01*
X95598640Y-83354829D01*
X95722574Y-83303494D01*
X95834112Y-83228967D01*
X95928967Y-83134112D01*
X96003494Y-83022574D01*
X96054829Y-82898640D01*
X96081000Y-82767073D01*
X96081000Y-82632927D01*
X96054829Y-82501360D01*
X96003494Y-82377426D01*
X95928967Y-82265888D01*
X95834112Y-82171033D01*
X95722574Y-82096506D01*
X95598640Y-82045171D01*
X95506000Y-82026743D01*
X95506000Y-81907927D01*
X95479829Y-81776360D01*
X95428494Y-81652426D01*
X95353967Y-81540888D01*
X95259112Y-81446033D01*
X95147574Y-81371506D01*
X95023640Y-81320171D01*
X94892073Y-81294000D01*
X94757927Y-81294000D01*
X94626360Y-81320171D01*
X94502426Y-81371506D01*
X94390888Y-81446033D01*
X94296033Y-81540888D01*
X94221506Y-81652426D01*
X94170171Y-81776360D01*
X94144000Y-81907927D01*
X90769208Y-81907927D01*
X90815415Y-81821482D01*
X90855785Y-81688399D01*
X90866000Y-81584683D01*
X90866000Y-81215316D01*
X90855785Y-81111600D01*
X90815415Y-80978518D01*
X90749858Y-80855870D01*
X90661632Y-80748367D01*
X90554129Y-80660142D01*
X90431481Y-80594585D01*
X90298399Y-80554215D01*
X90160000Y-80540584D01*
X90021600Y-80554215D01*
X89991000Y-80563497D01*
X89991000Y-80456000D01*
X103820026Y-80456000D01*
X103770171Y-80576360D01*
X103744000Y-80707927D01*
X103744000Y-80842073D01*
X103770171Y-80973640D01*
X103821506Y-81097574D01*
X103894889Y-81207401D01*
X103583290Y-81519000D01*
X103482927Y-81519000D01*
X103351360Y-81545171D01*
X103227426Y-81596506D01*
X103115888Y-81671033D01*
X103021033Y-81765888D01*
X102946506Y-81877426D01*
X102895171Y-82001360D01*
X102869000Y-82132927D01*
X102869000Y-82267073D01*
X102895171Y-82398640D01*
X102946506Y-82522574D01*
X102993706Y-82593215D01*
X102971033Y-82615888D01*
X102896506Y-82727426D01*
X102845171Y-82851360D01*
X102819000Y-82982927D01*
X102819000Y-83117073D01*
X102845171Y-83248640D01*
X102896506Y-83372574D01*
X102971033Y-83484112D01*
X103065888Y-83578967D01*
X103177426Y-83653494D01*
X103301360Y-83704829D01*
X103432927Y-83731000D01*
X103567073Y-83731000D01*
X103698640Y-83704829D01*
X103822574Y-83653494D01*
X103934112Y-83578967D01*
X104028967Y-83484112D01*
X104103494Y-83372574D01*
X104154829Y-83248640D01*
X104181000Y-83117073D01*
X104181000Y-82982927D01*
X104154829Y-82851360D01*
X104103494Y-82727426D01*
X104056294Y-82656785D01*
X104078967Y-82634112D01*
X104153494Y-82522574D01*
X104204829Y-82398640D01*
X104231000Y-82267073D01*
X104231000Y-82166710D01*
X104439710Y-81958000D01*
X118727501Y-81958000D01*
X118750000Y-81960216D01*
X118772499Y-81958000D01*
X118839784Y-81951373D01*
X118926117Y-81925184D01*
X119005682Y-81882656D01*
X119075422Y-81825422D01*
X119089769Y-81807940D01*
X119307247Y-81590463D01*
X121844000Y-81590463D01*
X121844000Y-81721997D01*
X121872092Y-81863225D01*
X121927196Y-81996258D01*
X122007195Y-82115985D01*
X122109015Y-82217805D01*
X122228742Y-82297804D01*
X122361775Y-82352908D01*
X122503003Y-82381000D01*
X122646997Y-82381000D01*
X122788225Y-82352908D01*
X122921258Y-82297804D01*
X123040985Y-82217805D01*
X123142805Y-82115985D01*
X123222804Y-81996258D01*
X123277908Y-81863225D01*
X123306000Y-81721997D01*
X123306000Y-81590463D01*
X129147540Y-81590463D01*
X129915017Y-82357940D01*
X129929364Y-82375422D01*
X129999104Y-82432656D01*
X130078669Y-82475184D01*
X130165002Y-82501373D01*
X130232287Y-82508000D01*
X130232288Y-82508000D01*
X130254785Y-82510216D01*
X130277282Y-82508000D01*
X135063911Y-82508000D01*
X135115888Y-82559977D01*
X135227426Y-82634504D01*
X135351360Y-82685839D01*
X135482927Y-82712010D01*
X135617073Y-82712010D01*
X135748640Y-82685839D01*
X135872574Y-82634504D01*
X135984112Y-82559977D01*
X136078967Y-82465122D01*
X136153494Y-82353584D01*
X136168836Y-82316546D01*
X136183989Y-82331699D01*
X136183990Y-83255073D01*
X136181773Y-83277582D01*
X136190616Y-83367366D01*
X136216805Y-83453698D01*
X136233062Y-83484112D01*
X136259334Y-83533264D01*
X136316568Y-83603004D01*
X136334045Y-83617347D01*
X136874638Y-84157940D01*
X136888985Y-84175422D01*
X136958725Y-84232656D01*
X137038290Y-84275184D01*
X137124623Y-84301373D01*
X137191908Y-84308000D01*
X137191917Y-84308000D01*
X137214406Y-84310215D01*
X137236895Y-84308000D01*
X141427501Y-84308000D01*
X141450000Y-84310216D01*
X141472499Y-84308000D01*
X141539784Y-84301373D01*
X141626117Y-84275184D01*
X141705682Y-84232656D01*
X141775422Y-84175422D01*
X141789769Y-84157940D01*
X144239709Y-81708000D01*
X150938971Y-81708000D01*
X150927307Y-81719664D01*
X150776174Y-81945851D01*
X150672071Y-82197177D01*
X150619000Y-82463983D01*
X150619000Y-82736017D01*
X150672071Y-83002823D01*
X150776174Y-83254149D01*
X150927307Y-83480336D01*
X151119664Y-83672693D01*
X151345851Y-83823826D01*
X151597177Y-83927929D01*
X151863983Y-83981000D01*
X152136017Y-83981000D01*
X152402823Y-83927929D01*
X152654149Y-83823826D01*
X152880336Y-83672693D01*
X153072693Y-83480336D01*
X153223826Y-83254149D01*
X153327929Y-83002823D01*
X153331976Y-82982475D01*
X158119000Y-82982475D01*
X158119000Y-84031750D01*
X158214250Y-84127000D01*
X160127000Y-84127000D01*
X160127000Y-82734250D01*
X160031750Y-82639000D01*
X158462475Y-82639000D01*
X158388867Y-82653642D01*
X158319529Y-82682362D01*
X158257127Y-82724058D01*
X158204058Y-82777126D01*
X158162362Y-82839529D01*
X158133642Y-82908866D01*
X158119000Y-82982475D01*
X153331976Y-82982475D01*
X153381000Y-82736017D01*
X153381000Y-82463983D01*
X153327929Y-82197177D01*
X153270280Y-82058000D01*
X154253586Y-82058000D01*
X154271033Y-82084112D01*
X154365888Y-82178967D01*
X154477426Y-82253494D01*
X154601360Y-82304829D01*
X154732927Y-82331000D01*
X154867073Y-82331000D01*
X154998640Y-82304829D01*
X155122574Y-82253494D01*
X155234112Y-82178967D01*
X155328967Y-82084112D01*
X155403494Y-81972574D01*
X155454829Y-81848640D01*
X155481000Y-81717073D01*
X155481000Y-81582927D01*
X155454829Y-81451360D01*
X155403494Y-81327426D01*
X155328967Y-81215888D01*
X155234112Y-81121033D01*
X155122574Y-81046506D01*
X154998640Y-80995171D01*
X154867073Y-80969000D01*
X154732927Y-80969000D01*
X154601360Y-80995171D01*
X154531000Y-81024315D01*
X154531000Y-80961927D01*
X154529821Y-80956000D01*
X163544000Y-80956000D01*
X163544000Y-82640288D01*
X163537525Y-82639000D01*
X161968250Y-82639000D01*
X161873000Y-82734250D01*
X161873000Y-84127000D01*
X161893000Y-84127000D01*
X161893000Y-85873000D01*
X161873000Y-85873000D01*
X161873000Y-87265750D01*
X161968250Y-87361000D01*
X163537525Y-87361000D01*
X163544001Y-87359712D01*
X163544001Y-89044000D01*
X142928198Y-89044000D01*
X142943500Y-88967073D01*
X142943500Y-88832927D01*
X142917329Y-88701360D01*
X142865994Y-88577426D01*
X142791467Y-88465888D01*
X142696612Y-88371033D01*
X142585074Y-88296506D01*
X142461140Y-88245171D01*
X142329573Y-88219000D01*
X142195427Y-88219000D01*
X142063860Y-88245171D01*
X141939926Y-88296506D01*
X141828388Y-88371033D01*
X141733533Y-88465888D01*
X141659006Y-88577426D01*
X141607671Y-88701360D01*
X141581500Y-88832927D01*
X141581500Y-88967073D01*
X141596802Y-89044000D01*
X131740904Y-89044000D01*
X131772804Y-88996258D01*
X131827908Y-88863225D01*
X131856000Y-88721997D01*
X131856000Y-88578003D01*
X131827908Y-88436775D01*
X131772804Y-88303742D01*
X131692805Y-88184015D01*
X131590985Y-88082195D01*
X131471258Y-88002196D01*
X131338225Y-87947092D01*
X131196997Y-87919000D01*
X131053003Y-87919000D01*
X130960130Y-87937474D01*
X131003494Y-87872574D01*
X131054829Y-87748640D01*
X131081000Y-87617073D01*
X131081000Y-87482927D01*
X131054829Y-87351360D01*
X131018637Y-87263983D01*
X150619000Y-87263983D01*
X150619000Y-87536017D01*
X150672071Y-87802823D01*
X150776174Y-88054149D01*
X150927307Y-88280336D01*
X151119664Y-88472693D01*
X151345851Y-88623826D01*
X151597177Y-88727929D01*
X151863983Y-88781000D01*
X152136017Y-88781000D01*
X152402823Y-88727929D01*
X152654149Y-88623826D01*
X152880336Y-88472693D01*
X153072693Y-88280336D01*
X153223826Y-88054149D01*
X153327929Y-87802823D01*
X153381000Y-87536017D01*
X153381000Y-87332927D01*
X154519000Y-87332927D01*
X154519000Y-87467073D01*
X154545171Y-87598640D01*
X154596506Y-87722574D01*
X154671033Y-87834112D01*
X154765888Y-87928967D01*
X154877426Y-88003494D01*
X155001360Y-88054829D01*
X155132927Y-88081000D01*
X155267073Y-88081000D01*
X155398640Y-88054829D01*
X155522574Y-88003494D01*
X155634112Y-87928967D01*
X155728967Y-87834112D01*
X155803494Y-87722574D01*
X155854829Y-87598640D01*
X155881000Y-87467073D01*
X155881000Y-87332927D01*
X155854829Y-87201360D01*
X155803494Y-87077426D01*
X155728967Y-86965888D01*
X155634112Y-86871033D01*
X155522574Y-86796506D01*
X155398640Y-86745171D01*
X155267073Y-86719000D01*
X155132927Y-86719000D01*
X155001360Y-86745171D01*
X154877426Y-86796506D01*
X154765888Y-86871033D01*
X154671033Y-86965888D01*
X154596506Y-87077426D01*
X154545171Y-87201360D01*
X154519000Y-87332927D01*
X153381000Y-87332927D01*
X153381000Y-87263983D01*
X153327929Y-86997177D01*
X153223826Y-86745851D01*
X153072693Y-86519664D01*
X152880336Y-86327307D01*
X152654149Y-86176174D01*
X152402823Y-86072071D01*
X152136017Y-86019000D01*
X151863983Y-86019000D01*
X151597177Y-86072071D01*
X151345851Y-86176174D01*
X151119664Y-86327307D01*
X150927307Y-86519664D01*
X150776174Y-86745851D01*
X150672071Y-86997177D01*
X150619000Y-87263983D01*
X131018637Y-87263983D01*
X131003494Y-87227426D01*
X130928967Y-87115888D01*
X130834112Y-87021033D01*
X130722574Y-86946506D01*
X130598640Y-86895171D01*
X130467073Y-86869000D01*
X130332927Y-86869000D01*
X130201360Y-86895171D01*
X130077426Y-86946506D01*
X129965888Y-87021033D01*
X129871033Y-87115888D01*
X129796506Y-87227426D01*
X129745171Y-87351360D01*
X129719000Y-87482927D01*
X129719000Y-87617073D01*
X129745171Y-87748640D01*
X129796506Y-87872574D01*
X129871033Y-87984112D01*
X129965888Y-88078967D01*
X130077426Y-88153494D01*
X130201360Y-88204829D01*
X130332927Y-88231000D01*
X130467073Y-88231000D01*
X130534803Y-88217527D01*
X130477196Y-88303742D01*
X130422092Y-88436775D01*
X130394000Y-88578003D01*
X130394000Y-88721997D01*
X130422092Y-88863225D01*
X130477196Y-88996258D01*
X130557195Y-89115985D01*
X130620925Y-89179715D01*
X129892355Y-89544000D01*
X122246360Y-89544000D01*
X122339316Y-89404881D01*
X122405182Y-89245866D01*
X122438760Y-89077058D01*
X122438760Y-88904942D01*
X122405182Y-88736134D01*
X122339316Y-88577119D01*
X122243694Y-88434010D01*
X122121990Y-88312306D01*
X121978881Y-88216684D01*
X121819866Y-88150818D01*
X121651058Y-88117240D01*
X121478942Y-88117240D01*
X121310134Y-88150818D01*
X121151119Y-88216684D01*
X121008010Y-88312306D01*
X120886306Y-88434010D01*
X120790684Y-88577119D01*
X120724818Y-88736134D01*
X120691240Y-88904942D01*
X120691240Y-89077058D01*
X120724818Y-89245866D01*
X120790684Y-89404881D01*
X120883640Y-89544000D01*
X117394079Y-89544000D01*
X117453967Y-89484112D01*
X117528494Y-89372574D01*
X117579829Y-89248640D01*
X117606000Y-89117073D01*
X117606000Y-88982927D01*
X117579829Y-88851360D01*
X117528494Y-88727426D01*
X117453967Y-88615888D01*
X117359112Y-88521033D01*
X117247574Y-88446506D01*
X117227810Y-88438319D01*
X117260442Y-88389482D01*
X117326403Y-88230237D01*
X117360030Y-88061183D01*
X117360030Y-87888817D01*
X117326403Y-87719763D01*
X117260442Y-87560518D01*
X117164680Y-87417201D01*
X117042799Y-87295320D01*
X116899482Y-87199558D01*
X116740237Y-87133597D01*
X116571183Y-87099970D01*
X116398817Y-87099970D01*
X116266928Y-87126204D01*
X116254829Y-87065381D01*
X116203494Y-86941447D01*
X116128967Y-86829909D01*
X116034112Y-86735054D01*
X115922574Y-86660527D01*
X115798640Y-86609192D01*
X115667073Y-86583021D01*
X115532927Y-86583021D01*
X115401360Y-86609192D01*
X115277426Y-86660527D01*
X115165888Y-86735054D01*
X115071033Y-86829909D01*
X114996506Y-86941447D01*
X114945171Y-87065381D01*
X114919000Y-87196948D01*
X114919000Y-87331094D01*
X114945171Y-87462661D01*
X114996506Y-87586595D01*
X115071033Y-87698133D01*
X115165888Y-87792988D01*
X115277426Y-87867515D01*
X115401360Y-87918850D01*
X115532927Y-87945021D01*
X115609970Y-87945021D01*
X115609970Y-88061183D01*
X115643597Y-88230237D01*
X115709558Y-88389482D01*
X115805320Y-88532799D01*
X115823841Y-88551320D01*
X115748640Y-88520171D01*
X115617073Y-88494000D01*
X115482927Y-88494000D01*
X115351360Y-88520171D01*
X115227426Y-88571506D01*
X115115888Y-88646033D01*
X115021033Y-88740888D01*
X114946506Y-88852426D01*
X114895171Y-88976360D01*
X114869000Y-89107927D01*
X114869000Y-89242073D01*
X114895171Y-89373640D01*
X114946506Y-89497574D01*
X114977527Y-89544000D01*
X110455752Y-89544000D01*
X110481000Y-89417073D01*
X110481000Y-89282927D01*
X110454829Y-89151360D01*
X110403494Y-89027426D01*
X110328967Y-88915888D01*
X110234112Y-88821033D01*
X110122574Y-88746506D01*
X109998640Y-88695171D01*
X109867073Y-88669000D01*
X109732927Y-88669000D01*
X109601360Y-88695171D01*
X109477426Y-88746506D01*
X109365888Y-88821033D01*
X109271033Y-88915888D01*
X109196506Y-89027426D01*
X109145171Y-89151360D01*
X109119000Y-89282927D01*
X109119000Y-89417073D01*
X109144248Y-89544000D01*
X89991000Y-89544000D01*
X89991000Y-89286215D01*
X90090465Y-89306000D01*
X90229535Y-89306000D01*
X90365933Y-89278869D01*
X90494416Y-89225649D01*
X90610049Y-89148386D01*
X90708386Y-89050049D01*
X90785649Y-88934416D01*
X90838869Y-88805933D01*
X90866000Y-88669535D01*
X90866000Y-88530465D01*
X90846599Y-88432927D01*
X111394000Y-88432927D01*
X111394000Y-88567073D01*
X111420171Y-88698640D01*
X111471506Y-88822574D01*
X111546033Y-88934112D01*
X111640888Y-89028967D01*
X111752426Y-89103494D01*
X111876360Y-89154829D01*
X112007927Y-89181000D01*
X112142073Y-89181000D01*
X112273640Y-89154829D01*
X112397574Y-89103494D01*
X112509112Y-89028967D01*
X112603967Y-88934112D01*
X112678494Y-88822574D01*
X112729829Y-88698640D01*
X112756000Y-88567073D01*
X112756000Y-88432927D01*
X112729829Y-88301360D01*
X112678494Y-88177426D01*
X112603967Y-88065888D01*
X112509112Y-87971033D01*
X112397574Y-87896506D01*
X112273640Y-87845171D01*
X112142073Y-87819000D01*
X112007927Y-87819000D01*
X111876360Y-87845171D01*
X111752426Y-87896506D01*
X111640888Y-87971033D01*
X111546033Y-88065888D01*
X111471506Y-88177426D01*
X111420171Y-88301360D01*
X111394000Y-88432927D01*
X90846599Y-88432927D01*
X90838869Y-88394067D01*
X90785649Y-88265584D01*
X90708386Y-88149951D01*
X90610049Y-88051614D01*
X90494416Y-87974351D01*
X90383846Y-87928551D01*
X90628504Y-87683893D01*
X90357115Y-87412504D01*
X90183068Y-87586551D01*
X90166631Y-87531474D01*
X90164185Y-87525568D01*
X90043709Y-87496101D01*
X89739810Y-87800000D01*
X89854715Y-87914905D01*
X89734223Y-88035396D01*
X89709951Y-88051614D01*
X89620878Y-88140688D01*
X89510000Y-88029810D01*
X89206101Y-88333709D01*
X89235568Y-88454185D01*
X89260000Y-88461717D01*
X89260000Y-88509619D01*
X89122504Y-88647115D01*
X89260000Y-88784611D01*
X89260000Y-88930000D01*
X89532522Y-88930000D01*
X89534351Y-88934416D01*
X89610000Y-89047633D01*
X89610000Y-89330000D01*
X89260000Y-89330000D01*
X89260000Y-89530000D01*
X88560000Y-89530000D01*
X88560000Y-89330000D01*
X87954063Y-89330000D01*
X87895624Y-89445639D01*
X87957895Y-89541980D01*
X87959468Y-89544000D01*
X80456000Y-89544000D01*
X80456000Y-89174361D01*
X81945624Y-89174361D01*
X82004063Y-89290000D01*
X82610000Y-89290000D01*
X82610000Y-88815531D01*
X83310000Y-88815531D01*
X83310000Y-89290000D01*
X83915937Y-89290000D01*
X83974376Y-89174361D01*
X83912105Y-89078020D01*
X83819202Y-88958717D01*
X83704809Y-88859831D01*
X83624740Y-88814361D01*
X87895624Y-88814361D01*
X87954063Y-88930000D01*
X88560000Y-88930000D01*
X88560000Y-88455531D01*
X88440205Y-88377579D01*
X88296678Y-88425162D01*
X88165191Y-88499831D01*
X88050798Y-88598717D01*
X87957895Y-88718020D01*
X87895624Y-88814361D01*
X83624740Y-88814361D01*
X83573322Y-88785162D01*
X83429795Y-88737579D01*
X83310000Y-88815531D01*
X82610000Y-88815531D01*
X82490205Y-88737579D01*
X82346678Y-88785162D01*
X82215191Y-88859831D01*
X82100798Y-88958717D01*
X82007895Y-89078020D01*
X81945624Y-89174361D01*
X80456000Y-89174361D01*
X80456000Y-82530465D01*
X88104000Y-82530465D01*
X88104000Y-82669535D01*
X88131131Y-82805933D01*
X88184351Y-82934416D01*
X88228173Y-83000000D01*
X88184351Y-83065584D01*
X88131131Y-83194067D01*
X88104000Y-83330465D01*
X88104000Y-83469535D01*
X88131131Y-83605933D01*
X88184351Y-83734416D01*
X88228173Y-83800000D01*
X88184351Y-83865584D01*
X88131131Y-83994067D01*
X88104000Y-84130465D01*
X88104000Y-84269535D01*
X88131131Y-84405933D01*
X88184351Y-84534416D01*
X88261614Y-84650049D01*
X88359951Y-84748386D01*
X88475584Y-84825649D01*
X88604067Y-84878869D01*
X88740465Y-84906000D01*
X88872581Y-84906000D01*
X88884351Y-84934416D01*
X88928173Y-85000000D01*
X88884351Y-85065584D01*
X88872581Y-85094000D01*
X88740465Y-85094000D01*
X88604067Y-85121131D01*
X88475584Y-85174351D01*
X88359951Y-85251614D01*
X88261614Y-85349951D01*
X88184351Y-85465584D01*
X88131131Y-85594067D01*
X88104000Y-85730465D01*
X88104000Y-85869535D01*
X88131131Y-86005933D01*
X88184351Y-86134416D01*
X88228173Y-86200000D01*
X88184351Y-86265584D01*
X88131131Y-86394067D01*
X88104000Y-86530465D01*
X88104000Y-86669535D01*
X88131131Y-86805933D01*
X88184351Y-86934416D01*
X88228173Y-87000000D01*
X88184351Y-87065584D01*
X88131131Y-87194067D01*
X88104000Y-87330465D01*
X88104000Y-87469535D01*
X88131131Y-87605933D01*
X88184351Y-87734416D01*
X88261614Y-87850049D01*
X88359951Y-87948386D01*
X88475584Y-88025649D01*
X88519037Y-88043648D01*
X88662885Y-88187496D01*
X88744381Y-88106000D01*
X88879535Y-88106000D01*
X88937633Y-88094444D01*
X88976291Y-88103899D01*
X88997693Y-88082497D01*
X89015933Y-88078869D01*
X89144416Y-88025649D01*
X89260049Y-87948386D01*
X89358386Y-87850049D01*
X89435649Y-87734416D01*
X89488869Y-87605933D01*
X89498305Y-87558495D01*
X89510000Y-87570190D01*
X89697263Y-87382927D01*
X101019000Y-87382927D01*
X101019000Y-87517073D01*
X101045171Y-87648640D01*
X101096506Y-87772574D01*
X101171033Y-87884112D01*
X101265888Y-87978967D01*
X101377426Y-88053494D01*
X101501360Y-88104829D01*
X101632927Y-88131000D01*
X101767073Y-88131000D01*
X101898640Y-88104829D01*
X102022574Y-88053494D01*
X102134112Y-87978967D01*
X102228967Y-87884112D01*
X102303494Y-87772574D01*
X102354829Y-87648640D01*
X102381000Y-87517073D01*
X102381000Y-87382927D01*
X102354829Y-87251360D01*
X102303494Y-87127426D01*
X102228967Y-87015888D01*
X102134112Y-86921033D01*
X102022574Y-86846506D01*
X101898640Y-86795171D01*
X101767073Y-86769000D01*
X101632927Y-86769000D01*
X101501360Y-86795171D01*
X101377426Y-86846506D01*
X101265888Y-86921033D01*
X101171033Y-87015888D01*
X101096506Y-87127426D01*
X101045171Y-87251360D01*
X101019000Y-87382927D01*
X89697263Y-87382927D01*
X89813899Y-87266291D01*
X89784432Y-87145815D01*
X89723386Y-87126995D01*
X89897496Y-86952885D01*
X89791980Y-86847369D01*
X89844416Y-86825649D01*
X89960049Y-86748386D01*
X90058386Y-86650049D01*
X90135649Y-86534416D01*
X90188869Y-86405933D01*
X90216000Y-86269535D01*
X90216000Y-86130465D01*
X90188869Y-85994067D01*
X90135649Y-85865584D01*
X90091827Y-85800000D01*
X90135649Y-85734416D01*
X90188869Y-85605933D01*
X90216000Y-85469535D01*
X90216000Y-85382921D01*
X91313527Y-85382921D01*
X91313527Y-85517067D01*
X91339698Y-85648634D01*
X91391033Y-85772568D01*
X91465560Y-85884106D01*
X91560415Y-85978961D01*
X91671953Y-86053488D01*
X91795887Y-86104823D01*
X91927454Y-86130994D01*
X92061600Y-86130994D01*
X92193167Y-86104823D01*
X92317101Y-86053488D01*
X92347872Y-86032927D01*
X95119000Y-86032927D01*
X95119000Y-86167073D01*
X95145171Y-86298640D01*
X95196506Y-86422574D01*
X95271033Y-86534112D01*
X95365888Y-86628967D01*
X95477426Y-86703494D01*
X95601360Y-86754829D01*
X95732927Y-86781000D01*
X95867073Y-86781000D01*
X95998640Y-86754829D01*
X96122574Y-86703494D01*
X96234112Y-86628967D01*
X96328967Y-86534112D01*
X96403494Y-86422574D01*
X96454829Y-86298640D01*
X96481000Y-86167073D01*
X96481000Y-86032927D01*
X96454829Y-85901360D01*
X96403494Y-85777426D01*
X96328967Y-85665888D01*
X96234112Y-85571033D01*
X96122574Y-85496506D01*
X95998640Y-85445171D01*
X95867073Y-85419000D01*
X95732927Y-85419000D01*
X95601360Y-85445171D01*
X95477426Y-85496506D01*
X95365888Y-85571033D01*
X95271033Y-85665888D01*
X95196506Y-85777426D01*
X95145171Y-85901360D01*
X95119000Y-86032927D01*
X92347872Y-86032927D01*
X92428639Y-85978961D01*
X92523494Y-85884106D01*
X92598021Y-85772568D01*
X92649356Y-85648634D01*
X92675527Y-85517067D01*
X92675527Y-85382921D01*
X92649356Y-85251354D01*
X92598021Y-85127420D01*
X92532321Y-85029092D01*
X92603494Y-84922574D01*
X92619916Y-84882927D01*
X96344000Y-84882927D01*
X96344000Y-85017073D01*
X96370171Y-85148640D01*
X96421506Y-85272574D01*
X96496033Y-85384112D01*
X96590888Y-85478967D01*
X96702426Y-85553494D01*
X96826360Y-85604829D01*
X96957927Y-85631000D01*
X97092073Y-85631000D01*
X97223640Y-85604829D01*
X97225040Y-85604249D01*
X97195171Y-85676360D01*
X97169000Y-85807927D01*
X97169000Y-85942073D01*
X97195171Y-86073640D01*
X97246506Y-86197574D01*
X97321033Y-86309112D01*
X97415888Y-86403967D01*
X97527426Y-86478494D01*
X97651360Y-86529829D01*
X97782927Y-86556000D01*
X97917073Y-86556000D01*
X98048640Y-86529829D01*
X98172574Y-86478494D01*
X98240779Y-86432921D01*
X102319000Y-86432921D01*
X102319000Y-86567067D01*
X102345171Y-86698634D01*
X102396506Y-86822568D01*
X102471033Y-86934106D01*
X102565888Y-87028961D01*
X102677426Y-87103488D01*
X102801360Y-87154823D01*
X102932927Y-87180994D01*
X103067073Y-87180994D01*
X103198640Y-87154823D01*
X103322574Y-87103488D01*
X103434112Y-87028961D01*
X103528967Y-86934106D01*
X103603494Y-86822568D01*
X103654829Y-86698634D01*
X103681000Y-86567067D01*
X103681000Y-86532927D01*
X118969000Y-86532927D01*
X118969000Y-86667073D01*
X118995171Y-86798640D01*
X119046506Y-86922574D01*
X119121033Y-87034112D01*
X119215888Y-87128967D01*
X119327426Y-87203494D01*
X119451360Y-87254829D01*
X119582927Y-87281000D01*
X119717073Y-87281000D01*
X119848640Y-87254829D01*
X119972574Y-87203494D01*
X120084112Y-87128967D01*
X120178967Y-87034112D01*
X120253494Y-86922574D01*
X120274052Y-86872942D01*
X120691240Y-86872942D01*
X120691240Y-87045058D01*
X120724818Y-87213866D01*
X120790684Y-87372881D01*
X120886306Y-87515990D01*
X121008010Y-87637694D01*
X121151119Y-87733316D01*
X121310134Y-87799182D01*
X121478942Y-87832760D01*
X121651058Y-87832760D01*
X121819866Y-87799182D01*
X121978881Y-87733316D01*
X122121990Y-87637694D01*
X122243694Y-87515990D01*
X122339316Y-87372881D01*
X122405182Y-87213866D01*
X122438760Y-87045058D01*
X122438760Y-86872942D01*
X122405182Y-86704134D01*
X122339316Y-86545119D01*
X122243694Y-86402010D01*
X122121990Y-86280306D01*
X121978881Y-86184684D01*
X121819866Y-86118818D01*
X121651058Y-86085240D01*
X121478942Y-86085240D01*
X121310134Y-86118818D01*
X121151119Y-86184684D01*
X121008010Y-86280306D01*
X120886306Y-86402010D01*
X120790684Y-86545119D01*
X120724818Y-86704134D01*
X120691240Y-86872942D01*
X120274052Y-86872942D01*
X120304829Y-86798640D01*
X120331000Y-86667073D01*
X120331000Y-86532927D01*
X120304829Y-86401360D01*
X120253494Y-86277426D01*
X120178967Y-86165888D01*
X120143331Y-86130252D01*
X120147574Y-86128494D01*
X120173255Y-86111334D01*
X120215888Y-86153967D01*
X120327426Y-86228494D01*
X120451360Y-86279829D01*
X120582927Y-86306000D01*
X120717073Y-86306000D01*
X120848640Y-86279829D01*
X120972574Y-86228494D01*
X121084112Y-86153967D01*
X121178967Y-86059112D01*
X121253494Y-85947574D01*
X121304829Y-85823640D01*
X121331000Y-85692073D01*
X121331000Y-85603003D01*
X122669000Y-85603003D01*
X122669000Y-85746997D01*
X122697092Y-85888225D01*
X122752196Y-86021258D01*
X122832195Y-86140985D01*
X122934015Y-86242805D01*
X123053742Y-86322804D01*
X123186775Y-86377908D01*
X123328003Y-86406000D01*
X123471997Y-86406000D01*
X123613225Y-86377908D01*
X123746258Y-86322804D01*
X123865985Y-86242805D01*
X123967805Y-86140985D01*
X124047804Y-86021258D01*
X124069760Y-85968250D01*
X158119000Y-85968250D01*
X158119000Y-87017525D01*
X158133642Y-87091134D01*
X158162362Y-87160471D01*
X158204058Y-87222874D01*
X158257127Y-87275942D01*
X158319529Y-87317638D01*
X158388867Y-87346358D01*
X158462475Y-87361000D01*
X160031750Y-87361000D01*
X160127000Y-87265750D01*
X160127000Y-85873000D01*
X158214250Y-85873000D01*
X158119000Y-85968250D01*
X124069760Y-85968250D01*
X124102908Y-85888225D01*
X124131000Y-85746997D01*
X124131000Y-85603003D01*
X124102908Y-85461775D01*
X124047804Y-85328742D01*
X123967805Y-85209015D01*
X123865985Y-85107195D01*
X123746258Y-85027196D01*
X123627496Y-84978003D01*
X139569000Y-84978003D01*
X139569000Y-85121997D01*
X139597092Y-85263225D01*
X139652196Y-85396258D01*
X139732195Y-85515985D01*
X139834015Y-85617805D01*
X139953742Y-85697804D01*
X140086775Y-85752908D01*
X140228003Y-85781000D01*
X140371997Y-85781000D01*
X140513225Y-85752908D01*
X140646258Y-85697804D01*
X140765985Y-85617805D01*
X140867805Y-85515985D01*
X140947804Y-85396258D01*
X141002908Y-85263225D01*
X141031000Y-85121997D01*
X141031000Y-84978003D01*
X141002908Y-84836775D01*
X140947804Y-84703742D01*
X140867805Y-84584015D01*
X140765985Y-84482195D01*
X140646258Y-84402196D01*
X140513225Y-84347092D01*
X140371997Y-84319000D01*
X140228003Y-84319000D01*
X140086775Y-84347092D01*
X139953742Y-84402196D01*
X139834015Y-84482195D01*
X139732195Y-84584015D01*
X139652196Y-84703742D01*
X139597092Y-84836775D01*
X139569000Y-84978003D01*
X123627496Y-84978003D01*
X123613225Y-84972092D01*
X123471997Y-84944000D01*
X123328003Y-84944000D01*
X123186775Y-84972092D01*
X123053742Y-85027196D01*
X122934015Y-85107195D01*
X122832195Y-85209015D01*
X122752196Y-85328742D01*
X122697092Y-85461775D01*
X122669000Y-85603003D01*
X121331000Y-85603003D01*
X121331000Y-85557927D01*
X121304829Y-85426360D01*
X121253494Y-85302426D01*
X121178967Y-85190888D01*
X121084112Y-85096033D01*
X120972574Y-85021506D01*
X120848640Y-84970171D01*
X120717073Y-84944000D01*
X120582927Y-84944000D01*
X120451360Y-84970171D01*
X120327426Y-85021506D01*
X120301745Y-85038666D01*
X120259112Y-84996033D01*
X120147574Y-84921506D01*
X120023640Y-84870171D01*
X119892073Y-84844000D01*
X119757927Y-84844000D01*
X119626360Y-84870171D01*
X119502426Y-84921506D01*
X119390888Y-84996033D01*
X119296033Y-85090888D01*
X119221506Y-85202426D01*
X119170171Y-85326360D01*
X119144000Y-85457927D01*
X119144000Y-85592073D01*
X119170171Y-85723640D01*
X119221506Y-85847574D01*
X119296033Y-85959112D01*
X119331669Y-85994748D01*
X119327426Y-85996506D01*
X119215888Y-86071033D01*
X119121033Y-86165888D01*
X119046506Y-86277426D01*
X118995171Y-86401360D01*
X118969000Y-86532927D01*
X103681000Y-86532927D01*
X103681000Y-86432921D01*
X103654829Y-86301354D01*
X103603494Y-86177420D01*
X103528967Y-86065882D01*
X103434112Y-85971027D01*
X103322574Y-85896500D01*
X103198640Y-85845165D01*
X103067073Y-85818994D01*
X102932927Y-85818994D01*
X102801360Y-85845165D01*
X102677426Y-85896500D01*
X102565888Y-85971027D01*
X102471033Y-86065882D01*
X102396506Y-86177420D01*
X102345171Y-86301354D01*
X102319000Y-86432921D01*
X98240779Y-86432921D01*
X98284112Y-86403967D01*
X98378967Y-86309112D01*
X98453494Y-86197574D01*
X98504829Y-86073640D01*
X98531000Y-85942073D01*
X98531000Y-85807927D01*
X98504829Y-85676360D01*
X98453494Y-85552426D01*
X98378967Y-85440888D01*
X98293909Y-85355830D01*
X98334112Y-85328967D01*
X98428967Y-85234112D01*
X98503494Y-85122574D01*
X98554829Y-84998640D01*
X98577846Y-84882927D01*
X102318992Y-84882927D01*
X102318992Y-85017073D01*
X102345163Y-85148640D01*
X102396498Y-85272574D01*
X102471025Y-85384112D01*
X102565880Y-85478967D01*
X102677418Y-85553494D01*
X102801352Y-85604829D01*
X102932919Y-85631000D01*
X103067065Y-85631000D01*
X103198632Y-85604829D01*
X103322566Y-85553494D01*
X103434104Y-85478967D01*
X103528959Y-85384112D01*
X103603486Y-85272574D01*
X103654821Y-85148640D01*
X103680992Y-85017073D01*
X103680992Y-84882927D01*
X116319000Y-84882927D01*
X116319000Y-85017073D01*
X116345171Y-85148640D01*
X116396506Y-85272574D01*
X116471033Y-85384112D01*
X116565888Y-85478967D01*
X116677426Y-85553494D01*
X116801360Y-85604829D01*
X116932927Y-85631000D01*
X117067073Y-85631000D01*
X117198640Y-85604829D01*
X117322574Y-85553494D01*
X117434112Y-85478967D01*
X117476813Y-85436266D01*
X117577426Y-85503494D01*
X117701360Y-85554829D01*
X117832927Y-85581000D01*
X117967073Y-85581000D01*
X118098640Y-85554829D01*
X118222574Y-85503494D01*
X118252619Y-85483419D01*
X118264228Y-85491176D01*
X118388162Y-85542511D01*
X118519729Y-85568682D01*
X118653875Y-85568682D01*
X118785442Y-85542511D01*
X118909376Y-85491176D01*
X119020914Y-85416649D01*
X119115769Y-85321794D01*
X119190296Y-85210256D01*
X119241631Y-85086322D01*
X119267802Y-84954755D01*
X119267802Y-84820609D01*
X119241631Y-84689042D01*
X119190296Y-84565108D01*
X119115769Y-84453570D01*
X119020914Y-84358715D01*
X118909376Y-84284188D01*
X118785442Y-84232853D01*
X118653875Y-84206682D01*
X118519729Y-84206682D01*
X118388162Y-84232853D01*
X118264228Y-84284188D01*
X118234183Y-84304263D01*
X118222574Y-84296506D01*
X118098640Y-84245171D01*
X117967073Y-84219000D01*
X117832927Y-84219000D01*
X117701360Y-84245171D01*
X117577426Y-84296506D01*
X117465888Y-84371033D01*
X117423187Y-84413734D01*
X117322574Y-84346506D01*
X117198640Y-84295171D01*
X117067073Y-84269000D01*
X116932927Y-84269000D01*
X116801360Y-84295171D01*
X116677426Y-84346506D01*
X116565888Y-84421033D01*
X116471033Y-84515888D01*
X116396506Y-84627426D01*
X116345171Y-84751360D01*
X116319000Y-84882927D01*
X103680992Y-84882927D01*
X103654821Y-84751360D01*
X103603486Y-84627426D01*
X103528959Y-84515888D01*
X103434104Y-84421033D01*
X103322566Y-84346506D01*
X103198632Y-84295171D01*
X103067065Y-84269000D01*
X102932919Y-84269000D01*
X102801352Y-84295171D01*
X102677418Y-84346506D01*
X102565880Y-84421033D01*
X102471025Y-84515888D01*
X102396498Y-84627426D01*
X102345163Y-84751360D01*
X102318992Y-84882927D01*
X98577846Y-84882927D01*
X98581000Y-84867073D01*
X98581000Y-84732927D01*
X98554829Y-84601360D01*
X98503494Y-84477426D01*
X98428967Y-84365888D01*
X98334112Y-84271033D01*
X98222574Y-84196506D01*
X98098640Y-84145171D01*
X97967073Y-84119000D01*
X97832927Y-84119000D01*
X97701360Y-84145171D01*
X97577426Y-84196506D01*
X97465888Y-84271033D01*
X97373255Y-84363666D01*
X97347574Y-84346506D01*
X97223640Y-84295171D01*
X97092073Y-84269000D01*
X96957927Y-84269000D01*
X96826360Y-84295171D01*
X96702426Y-84346506D01*
X96590888Y-84421033D01*
X96496033Y-84515888D01*
X96421506Y-84627426D01*
X96370171Y-84751360D01*
X96344000Y-84882927D01*
X92619916Y-84882927D01*
X92654829Y-84798640D01*
X92681000Y-84667073D01*
X92681000Y-84532927D01*
X92654829Y-84401360D01*
X92603494Y-84277426D01*
X92528967Y-84165888D01*
X92513079Y-84150000D01*
X92528967Y-84134112D01*
X92596579Y-84032923D01*
X114119000Y-84032923D01*
X114119000Y-84167069D01*
X114145171Y-84298636D01*
X114196506Y-84422570D01*
X114271033Y-84534108D01*
X114365888Y-84628963D01*
X114477426Y-84703490D01*
X114601360Y-84754825D01*
X114732927Y-84780996D01*
X114867073Y-84780996D01*
X114998640Y-84754825D01*
X115122574Y-84703490D01*
X115234112Y-84628963D01*
X115328967Y-84534108D01*
X115403494Y-84422570D01*
X115454829Y-84298636D01*
X115481000Y-84167069D01*
X115481000Y-84032923D01*
X115454829Y-83901356D01*
X115451023Y-83892166D01*
X122583163Y-83892166D01*
X122583163Y-84036160D01*
X122611255Y-84177388D01*
X122666359Y-84310421D01*
X122746358Y-84430148D01*
X122848178Y-84531968D01*
X122967905Y-84611967D01*
X123100938Y-84667071D01*
X123242166Y-84695163D01*
X123386160Y-84695163D01*
X123527388Y-84667071D01*
X123660421Y-84611967D01*
X123780148Y-84531968D01*
X123881968Y-84430148D01*
X123961967Y-84310421D01*
X124017071Y-84177388D01*
X124045163Y-84036160D01*
X124045163Y-83892166D01*
X124017071Y-83750938D01*
X123961967Y-83617905D01*
X123881968Y-83498178D01*
X123780148Y-83396358D01*
X123660421Y-83316359D01*
X123527388Y-83261255D01*
X123386160Y-83233163D01*
X123242166Y-83233163D01*
X123100938Y-83261255D01*
X122967905Y-83316359D01*
X122848178Y-83396358D01*
X122746358Y-83498178D01*
X122666359Y-83617905D01*
X122611255Y-83750938D01*
X122583163Y-83892166D01*
X115451023Y-83892166D01*
X115403494Y-83777422D01*
X115328967Y-83665884D01*
X115234112Y-83571029D01*
X115122574Y-83496502D01*
X114998640Y-83445167D01*
X114867073Y-83418996D01*
X114732927Y-83418996D01*
X114601360Y-83445167D01*
X114477426Y-83496502D01*
X114365888Y-83571029D01*
X114271033Y-83665884D01*
X114196506Y-83777422D01*
X114145171Y-83901356D01*
X114119000Y-84032923D01*
X92596579Y-84032923D01*
X92603494Y-84022574D01*
X92654829Y-83898640D01*
X92681000Y-83767073D01*
X92681000Y-83632927D01*
X92654829Y-83501360D01*
X92603494Y-83377426D01*
X92528967Y-83265888D01*
X92434112Y-83171033D01*
X92322574Y-83096506D01*
X92198640Y-83045171D01*
X92067073Y-83019000D01*
X91932927Y-83019000D01*
X91801360Y-83045171D01*
X91677426Y-83096506D01*
X91565888Y-83171033D01*
X91471033Y-83265888D01*
X91396506Y-83377426D01*
X91345171Y-83501360D01*
X91319000Y-83632927D01*
X91319000Y-83767073D01*
X91345171Y-83898640D01*
X91396506Y-84022574D01*
X91471033Y-84134112D01*
X91486921Y-84150000D01*
X91471033Y-84165888D01*
X91396506Y-84277426D01*
X91345171Y-84401360D01*
X91319000Y-84532927D01*
X91319000Y-84667073D01*
X91345171Y-84798640D01*
X91396506Y-84922574D01*
X91462206Y-85020902D01*
X91391033Y-85127420D01*
X91339698Y-85251354D01*
X91313527Y-85382921D01*
X90216000Y-85382921D01*
X90216000Y-85330465D01*
X90188869Y-85194067D01*
X90135649Y-85065584D01*
X90091827Y-85000000D01*
X90135649Y-84934416D01*
X90188869Y-84805933D01*
X90216000Y-84669535D01*
X90216000Y-84530465D01*
X90188869Y-84394067D01*
X90135649Y-84265584D01*
X90091827Y-84200000D01*
X90135649Y-84134416D01*
X90188869Y-84005933D01*
X90216000Y-83869535D01*
X90216000Y-83730465D01*
X90188869Y-83594067D01*
X90135649Y-83465584D01*
X90058386Y-83349951D01*
X89960049Y-83251614D01*
X89844416Y-83174351D01*
X89791980Y-83152631D01*
X89897496Y-83047115D01*
X89723449Y-82873068D01*
X89778526Y-82856631D01*
X89784432Y-82854185D01*
X89813899Y-82733709D01*
X89510000Y-82429810D01*
X89498305Y-82441505D01*
X89488869Y-82394067D01*
X89435649Y-82265584D01*
X89358386Y-82149951D01*
X89260049Y-82051614D01*
X89144416Y-81974351D01*
X89015933Y-81921131D01*
X88997693Y-81917503D01*
X88976291Y-81896101D01*
X88937633Y-81905556D01*
X88879535Y-81894000D01*
X88744381Y-81894000D01*
X88662885Y-81812504D01*
X88519037Y-81956352D01*
X88475584Y-81974351D01*
X88359951Y-82051614D01*
X88261614Y-82149951D01*
X88184351Y-82265584D01*
X88131131Y-82394067D01*
X88104000Y-82530465D01*
X80456000Y-82530465D01*
X80456000Y-80825639D01*
X81945624Y-80825639D01*
X82007895Y-80921980D01*
X82100798Y-81041283D01*
X82215191Y-81140169D01*
X82346678Y-81214838D01*
X82490205Y-81262421D01*
X82610000Y-81184469D01*
X82610000Y-80710000D01*
X83310000Y-80710000D01*
X83310000Y-81184469D01*
X83429795Y-81262421D01*
X83573322Y-81214838D01*
X83624739Y-81185639D01*
X87895624Y-81185639D01*
X87957895Y-81281980D01*
X88050798Y-81401283D01*
X88165191Y-81500169D01*
X88296678Y-81574838D01*
X88440205Y-81622421D01*
X88560000Y-81544469D01*
X88560000Y-81070000D01*
X87954063Y-81070000D01*
X87895624Y-81185639D01*
X83624739Y-81185639D01*
X83704809Y-81140169D01*
X83819202Y-81041283D01*
X83912105Y-80921980D01*
X83974376Y-80825639D01*
X83915937Y-80710000D01*
X83310000Y-80710000D01*
X82610000Y-80710000D01*
X82004063Y-80710000D01*
X81945624Y-80825639D01*
X80456000Y-80825639D01*
X80456000Y-80456000D01*
X87959468Y-80456000D01*
X87957895Y-80458020D01*
X87957895Y-80458020D01*
G37*
X87957895Y-80458020D02*
X87895624Y-80554361D01*
X87954063Y-80670000D01*
X88560000Y-80670000D01*
X88560000Y-80470000D01*
X89260000Y-80470000D01*
X89260000Y-80670000D01*
X89610000Y-80670000D01*
X89610000Y-80807304D01*
X89570142Y-80855871D01*
X89504585Y-80978519D01*
X89476835Y-81070000D01*
X89260000Y-81070000D01*
X89260000Y-81215389D01*
X89122504Y-81352885D01*
X89260000Y-81490381D01*
X89260000Y-81537840D01*
X89241474Y-81543369D01*
X89235568Y-81545815D01*
X89206101Y-81666291D01*
X89510000Y-81970190D01*
X89558270Y-81921920D01*
X89570142Y-81944130D01*
X89658368Y-82051633D01*
X89765871Y-82139858D01*
X89788081Y-82151729D01*
X89739810Y-82200000D01*
X90043709Y-82503899D01*
X90164185Y-82474432D01*
X90183005Y-82413386D01*
X90357115Y-82587496D01*
X90628504Y-82316107D01*
X90487741Y-82175344D01*
X90554130Y-82139858D01*
X90661633Y-82051633D01*
X90749858Y-81944130D01*
X90769208Y-81907927D01*
X94144000Y-81907927D01*
X94144000Y-82042073D01*
X94170171Y-82173640D01*
X94221506Y-82297574D01*
X94296033Y-82409112D01*
X94390888Y-82503967D01*
X94502426Y-82578494D01*
X94626360Y-82629829D01*
X94719000Y-82648257D01*
X94719000Y-82767073D01*
X94745171Y-82898640D01*
X94796506Y-83022574D01*
X94871033Y-83134112D01*
X94965888Y-83228967D01*
X95077426Y-83303494D01*
X95201360Y-83354829D01*
X95332927Y-83381000D01*
X95467073Y-83381000D01*
X95598640Y-83354829D01*
X95722574Y-83303494D01*
X95834112Y-83228967D01*
X95928967Y-83134112D01*
X96003494Y-83022574D01*
X96054829Y-82898640D01*
X96081000Y-82767073D01*
X96081000Y-82632927D01*
X96054829Y-82501360D01*
X96003494Y-82377426D01*
X95928967Y-82265888D01*
X95834112Y-82171033D01*
X95722574Y-82096506D01*
X95598640Y-82045171D01*
X95506000Y-82026743D01*
X95506000Y-81907927D01*
X95479829Y-81776360D01*
X95428494Y-81652426D01*
X95353967Y-81540888D01*
X95259112Y-81446033D01*
X95147574Y-81371506D01*
X95023640Y-81320171D01*
X94892073Y-81294000D01*
X94757927Y-81294000D01*
X94626360Y-81320171D01*
X94502426Y-81371506D01*
X94390888Y-81446033D01*
X94296033Y-81540888D01*
X94221506Y-81652426D01*
X94170171Y-81776360D01*
X94144000Y-81907927D01*
X90769208Y-81907927D01*
X90815415Y-81821482D01*
X90855785Y-81688399D01*
X90866000Y-81584683D01*
X90866000Y-81215316D01*
X90855785Y-81111600D01*
X90815415Y-80978518D01*
X90749858Y-80855870D01*
X90661632Y-80748367D01*
X90554129Y-80660142D01*
X90431481Y-80594585D01*
X90298399Y-80554215D01*
X90160000Y-80540584D01*
X90021600Y-80554215D01*
X89991000Y-80563497D01*
X89991000Y-80456000D01*
X103820026Y-80456000D01*
X103770171Y-80576360D01*
X103744000Y-80707927D01*
X103744000Y-80842073D01*
X103770171Y-80973640D01*
X103821506Y-81097574D01*
X103894889Y-81207401D01*
X103583290Y-81519000D01*
X103482927Y-81519000D01*
X103351360Y-81545171D01*
X103227426Y-81596506D01*
X103115888Y-81671033D01*
X103021033Y-81765888D01*
X102946506Y-81877426D01*
X102895171Y-82001360D01*
X102869000Y-82132927D01*
X102869000Y-82267073D01*
X102895171Y-82398640D01*
X102946506Y-82522574D01*
X102993706Y-82593215D01*
X102971033Y-82615888D01*
X102896506Y-82727426D01*
X102845171Y-82851360D01*
X102819000Y-82982927D01*
X102819000Y-83117073D01*
X102845171Y-83248640D01*
X102896506Y-83372574D01*
X102971033Y-83484112D01*
X103065888Y-83578967D01*
X103177426Y-83653494D01*
X103301360Y-83704829D01*
X103432927Y-83731000D01*
X103567073Y-83731000D01*
X103698640Y-83704829D01*
X103822574Y-83653494D01*
X103934112Y-83578967D01*
X104028967Y-83484112D01*
X104103494Y-83372574D01*
X104154829Y-83248640D01*
X104181000Y-83117073D01*
X104181000Y-82982927D01*
X104154829Y-82851360D01*
X104103494Y-82727426D01*
X104056294Y-82656785D01*
X104078967Y-82634112D01*
X104153494Y-82522574D01*
X104204829Y-82398640D01*
X104231000Y-82267073D01*
X104231000Y-82166710D01*
X104439710Y-81958000D01*
X118727501Y-81958000D01*
X118750000Y-81960216D01*
X118772499Y-81958000D01*
X118839784Y-81951373D01*
X118926117Y-81925184D01*
X119005682Y-81882656D01*
X119075422Y-81825422D01*
X119089769Y-81807940D01*
X119307247Y-81590463D01*
X121844000Y-81590463D01*
X121844000Y-81721997D01*
X121872092Y-81863225D01*
X121927196Y-81996258D01*
X122007195Y-82115985D01*
X122109015Y-82217805D01*
X122228742Y-82297804D01*
X122361775Y-82352908D01*
X122503003Y-82381000D01*
X122646997Y-82381000D01*
X122788225Y-82352908D01*
X122921258Y-82297804D01*
X123040985Y-82217805D01*
X123142805Y-82115985D01*
X123222804Y-81996258D01*
X123277908Y-81863225D01*
X123306000Y-81721997D01*
X123306000Y-81590463D01*
X129147540Y-81590463D01*
X129915017Y-82357940D01*
X129929364Y-82375422D01*
X129999104Y-82432656D01*
X130078669Y-82475184D01*
X130165002Y-82501373D01*
X130232287Y-82508000D01*
X130232288Y-82508000D01*
X130254785Y-82510216D01*
X130277282Y-82508000D01*
X135063911Y-82508000D01*
X135115888Y-82559977D01*
X135227426Y-82634504D01*
X135351360Y-82685839D01*
X135482927Y-82712010D01*
X135617073Y-82712010D01*
X135748640Y-82685839D01*
X135872574Y-82634504D01*
X135984112Y-82559977D01*
X136078967Y-82465122D01*
X136153494Y-82353584D01*
X136168836Y-82316546D01*
X136183989Y-82331699D01*
X136183990Y-83255073D01*
X136181773Y-83277582D01*
X136190616Y-83367366D01*
X136216805Y-83453698D01*
X136233062Y-83484112D01*
X136259334Y-83533264D01*
X136316568Y-83603004D01*
X136334045Y-83617347D01*
X136874638Y-84157940D01*
X136888985Y-84175422D01*
X136958725Y-84232656D01*
X137038290Y-84275184D01*
X137124623Y-84301373D01*
X137191908Y-84308000D01*
X137191917Y-84308000D01*
X137214406Y-84310215D01*
X137236895Y-84308000D01*
X141427501Y-84308000D01*
X141450000Y-84310216D01*
X141472499Y-84308000D01*
X141539784Y-84301373D01*
X141626117Y-84275184D01*
X141705682Y-84232656D01*
X141775422Y-84175422D01*
X141789769Y-84157940D01*
X144239709Y-81708000D01*
X150938971Y-81708000D01*
X150927307Y-81719664D01*
X150776174Y-81945851D01*
X150672071Y-82197177D01*
X150619000Y-82463983D01*
X150619000Y-82736017D01*
X150672071Y-83002823D01*
X150776174Y-83254149D01*
X150927307Y-83480336D01*
X151119664Y-83672693D01*
X151345851Y-83823826D01*
X151597177Y-83927929D01*
X151863983Y-83981000D01*
X152136017Y-83981000D01*
X152402823Y-83927929D01*
X152654149Y-83823826D01*
X152880336Y-83672693D01*
X153072693Y-83480336D01*
X153223826Y-83254149D01*
X153327929Y-83002823D01*
X153331976Y-82982475D01*
X158119000Y-82982475D01*
X158119000Y-84031750D01*
X158214250Y-84127000D01*
X160127000Y-84127000D01*
X160127000Y-82734250D01*
X160031750Y-82639000D01*
X158462475Y-82639000D01*
X158388867Y-82653642D01*
X158319529Y-82682362D01*
X158257127Y-82724058D01*
X158204058Y-82777126D01*
X158162362Y-82839529D01*
X158133642Y-82908866D01*
X158119000Y-82982475D01*
X153331976Y-82982475D01*
X153381000Y-82736017D01*
X153381000Y-82463983D01*
X153327929Y-82197177D01*
X153270280Y-82058000D01*
X154253586Y-82058000D01*
X154271033Y-82084112D01*
X154365888Y-82178967D01*
X154477426Y-82253494D01*
X154601360Y-82304829D01*
X154732927Y-82331000D01*
X154867073Y-82331000D01*
X154998640Y-82304829D01*
X155122574Y-82253494D01*
X155234112Y-82178967D01*
X155328967Y-82084112D01*
X155403494Y-81972574D01*
X155454829Y-81848640D01*
X155481000Y-81717073D01*
X155481000Y-81582927D01*
X155454829Y-81451360D01*
X155403494Y-81327426D01*
X155328967Y-81215888D01*
X155234112Y-81121033D01*
X155122574Y-81046506D01*
X154998640Y-80995171D01*
X154867073Y-80969000D01*
X154732927Y-80969000D01*
X154601360Y-80995171D01*
X154531000Y-81024315D01*
X154531000Y-80961927D01*
X154529821Y-80956000D01*
X163544000Y-80956000D01*
X163544000Y-82640288D01*
X163537525Y-82639000D01*
X161968250Y-82639000D01*
X161873000Y-82734250D01*
X161873000Y-84127000D01*
X161893000Y-84127000D01*
X161893000Y-85873000D01*
X161873000Y-85873000D01*
X161873000Y-87265750D01*
X161968250Y-87361000D01*
X163537525Y-87361000D01*
X163544001Y-87359712D01*
X163544001Y-89044000D01*
X142928198Y-89044000D01*
X142943500Y-88967073D01*
X142943500Y-88832927D01*
X142917329Y-88701360D01*
X142865994Y-88577426D01*
X142791467Y-88465888D01*
X142696612Y-88371033D01*
X142585074Y-88296506D01*
X142461140Y-88245171D01*
X142329573Y-88219000D01*
X142195427Y-88219000D01*
X142063860Y-88245171D01*
X141939926Y-88296506D01*
X141828388Y-88371033D01*
X141733533Y-88465888D01*
X141659006Y-88577426D01*
X141607671Y-88701360D01*
X141581500Y-88832927D01*
X141581500Y-88967073D01*
X141596802Y-89044000D01*
X131740904Y-89044000D01*
X131772804Y-88996258D01*
X131827908Y-88863225D01*
X131856000Y-88721997D01*
X131856000Y-88578003D01*
X131827908Y-88436775D01*
X131772804Y-88303742D01*
X131692805Y-88184015D01*
X131590985Y-88082195D01*
X131471258Y-88002196D01*
X131338225Y-87947092D01*
X131196997Y-87919000D01*
X131053003Y-87919000D01*
X130960130Y-87937474D01*
X131003494Y-87872574D01*
X131054829Y-87748640D01*
X131081000Y-87617073D01*
X131081000Y-87482927D01*
X131054829Y-87351360D01*
X131018637Y-87263983D01*
X150619000Y-87263983D01*
X150619000Y-87536017D01*
X150672071Y-87802823D01*
X150776174Y-88054149D01*
X150927307Y-88280336D01*
X151119664Y-88472693D01*
X151345851Y-88623826D01*
X151597177Y-88727929D01*
X151863983Y-88781000D01*
X152136017Y-88781000D01*
X152402823Y-88727929D01*
X152654149Y-88623826D01*
X152880336Y-88472693D01*
X153072693Y-88280336D01*
X153223826Y-88054149D01*
X153327929Y-87802823D01*
X153381000Y-87536017D01*
X153381000Y-87332927D01*
X154519000Y-87332927D01*
X154519000Y-87467073D01*
X154545171Y-87598640D01*
X154596506Y-87722574D01*
X154671033Y-87834112D01*
X154765888Y-87928967D01*
X154877426Y-88003494D01*
X155001360Y-88054829D01*
X155132927Y-88081000D01*
X155267073Y-88081000D01*
X155398640Y-88054829D01*
X155522574Y-88003494D01*
X155634112Y-87928967D01*
X155728967Y-87834112D01*
X155803494Y-87722574D01*
X155854829Y-87598640D01*
X155881000Y-87467073D01*
X155881000Y-87332927D01*
X155854829Y-87201360D01*
X155803494Y-87077426D01*
X155728967Y-86965888D01*
X155634112Y-86871033D01*
X155522574Y-86796506D01*
X155398640Y-86745171D01*
X155267073Y-86719000D01*
X155132927Y-86719000D01*
X155001360Y-86745171D01*
X154877426Y-86796506D01*
X154765888Y-86871033D01*
X154671033Y-86965888D01*
X154596506Y-87077426D01*
X154545171Y-87201360D01*
X154519000Y-87332927D01*
X153381000Y-87332927D01*
X153381000Y-87263983D01*
X153327929Y-86997177D01*
X153223826Y-86745851D01*
X153072693Y-86519664D01*
X152880336Y-86327307D01*
X152654149Y-86176174D01*
X152402823Y-86072071D01*
X152136017Y-86019000D01*
X151863983Y-86019000D01*
X151597177Y-86072071D01*
X151345851Y-86176174D01*
X151119664Y-86327307D01*
X150927307Y-86519664D01*
X150776174Y-86745851D01*
X150672071Y-86997177D01*
X150619000Y-87263983D01*
X131018637Y-87263983D01*
X131003494Y-87227426D01*
X130928967Y-87115888D01*
X130834112Y-87021033D01*
X130722574Y-86946506D01*
X130598640Y-86895171D01*
X130467073Y-86869000D01*
X130332927Y-86869000D01*
X130201360Y-86895171D01*
X130077426Y-86946506D01*
X129965888Y-87021033D01*
X129871033Y-87115888D01*
X129796506Y-87227426D01*
X129745171Y-87351360D01*
X129719000Y-87482927D01*
X129719000Y-87617073D01*
X129745171Y-87748640D01*
X129796506Y-87872574D01*
X129871033Y-87984112D01*
X129965888Y-88078967D01*
X130077426Y-88153494D01*
X130201360Y-88204829D01*
X130332927Y-88231000D01*
X130467073Y-88231000D01*
X130534803Y-88217527D01*
X130477196Y-88303742D01*
X130422092Y-88436775D01*
X130394000Y-88578003D01*
X130394000Y-88721997D01*
X130422092Y-88863225D01*
X130477196Y-88996258D01*
X130557195Y-89115985D01*
X130620925Y-89179715D01*
X129892355Y-89544000D01*
X122246360Y-89544000D01*
X122339316Y-89404881D01*
X122405182Y-89245866D01*
X122438760Y-89077058D01*
X122438760Y-88904942D01*
X122405182Y-88736134D01*
X122339316Y-88577119D01*
X122243694Y-88434010D01*
X122121990Y-88312306D01*
X121978881Y-88216684D01*
X121819866Y-88150818D01*
X121651058Y-88117240D01*
X121478942Y-88117240D01*
X121310134Y-88150818D01*
X121151119Y-88216684D01*
X121008010Y-88312306D01*
X120886306Y-88434010D01*
X120790684Y-88577119D01*
X120724818Y-88736134D01*
X120691240Y-88904942D01*
X120691240Y-89077058D01*
X120724818Y-89245866D01*
X120790684Y-89404881D01*
X120883640Y-89544000D01*
X117394079Y-89544000D01*
X117453967Y-89484112D01*
X117528494Y-89372574D01*
X117579829Y-89248640D01*
X117606000Y-89117073D01*
X117606000Y-88982927D01*
X117579829Y-88851360D01*
X117528494Y-88727426D01*
X117453967Y-88615888D01*
X117359112Y-88521033D01*
X117247574Y-88446506D01*
X117227810Y-88438319D01*
X117260442Y-88389482D01*
X117326403Y-88230237D01*
X117360030Y-88061183D01*
X117360030Y-87888817D01*
X117326403Y-87719763D01*
X117260442Y-87560518D01*
X117164680Y-87417201D01*
X117042799Y-87295320D01*
X116899482Y-87199558D01*
X116740237Y-87133597D01*
X116571183Y-87099970D01*
X116398817Y-87099970D01*
X116266928Y-87126204D01*
X116254829Y-87065381D01*
X116203494Y-86941447D01*
X116128967Y-86829909D01*
X116034112Y-86735054D01*
X115922574Y-86660527D01*
X115798640Y-86609192D01*
X115667073Y-86583021D01*
X115532927Y-86583021D01*
X115401360Y-86609192D01*
X115277426Y-86660527D01*
X115165888Y-86735054D01*
X115071033Y-86829909D01*
X114996506Y-86941447D01*
X114945171Y-87065381D01*
X114919000Y-87196948D01*
X114919000Y-87331094D01*
X114945171Y-87462661D01*
X114996506Y-87586595D01*
X115071033Y-87698133D01*
X115165888Y-87792988D01*
X115277426Y-87867515D01*
X115401360Y-87918850D01*
X115532927Y-87945021D01*
X115609970Y-87945021D01*
X115609970Y-88061183D01*
X115643597Y-88230237D01*
X115709558Y-88389482D01*
X115805320Y-88532799D01*
X115823841Y-88551320D01*
X115748640Y-88520171D01*
X115617073Y-88494000D01*
X115482927Y-88494000D01*
X115351360Y-88520171D01*
X115227426Y-88571506D01*
X115115888Y-88646033D01*
X115021033Y-88740888D01*
X114946506Y-88852426D01*
X114895171Y-88976360D01*
X114869000Y-89107927D01*
X114869000Y-89242073D01*
X114895171Y-89373640D01*
X114946506Y-89497574D01*
X114977527Y-89544000D01*
X110455752Y-89544000D01*
X110481000Y-89417073D01*
X110481000Y-89282927D01*
X110454829Y-89151360D01*
X110403494Y-89027426D01*
X110328967Y-88915888D01*
X110234112Y-88821033D01*
X110122574Y-88746506D01*
X109998640Y-88695171D01*
X109867073Y-88669000D01*
X109732927Y-88669000D01*
X109601360Y-88695171D01*
X109477426Y-88746506D01*
X109365888Y-88821033D01*
X109271033Y-88915888D01*
X109196506Y-89027426D01*
X109145171Y-89151360D01*
X109119000Y-89282927D01*
X109119000Y-89417073D01*
X109144248Y-89544000D01*
X89991000Y-89544000D01*
X89991000Y-89286215D01*
X90090465Y-89306000D01*
X90229535Y-89306000D01*
X90365933Y-89278869D01*
X90494416Y-89225649D01*
X90610049Y-89148386D01*
X90708386Y-89050049D01*
X90785649Y-88934416D01*
X90838869Y-88805933D01*
X90866000Y-88669535D01*
X90866000Y-88530465D01*
X90846599Y-88432927D01*
X111394000Y-88432927D01*
X111394000Y-88567073D01*
X111420171Y-88698640D01*
X111471506Y-88822574D01*
X111546033Y-88934112D01*
X111640888Y-89028967D01*
X111752426Y-89103494D01*
X111876360Y-89154829D01*
X112007927Y-89181000D01*
X112142073Y-89181000D01*
X112273640Y-89154829D01*
X112397574Y-89103494D01*
X112509112Y-89028967D01*
X112603967Y-88934112D01*
X112678494Y-88822574D01*
X112729829Y-88698640D01*
X112756000Y-88567073D01*
X112756000Y-88432927D01*
X112729829Y-88301360D01*
X112678494Y-88177426D01*
X112603967Y-88065888D01*
X112509112Y-87971033D01*
X112397574Y-87896506D01*
X112273640Y-87845171D01*
X112142073Y-87819000D01*
X112007927Y-87819000D01*
X111876360Y-87845171D01*
X111752426Y-87896506D01*
X111640888Y-87971033D01*
X111546033Y-88065888D01*
X111471506Y-88177426D01*
X111420171Y-88301360D01*
X111394000Y-88432927D01*
X90846599Y-88432927D01*
X90838869Y-88394067D01*
X90785649Y-88265584D01*
X90708386Y-88149951D01*
X90610049Y-88051614D01*
X90494416Y-87974351D01*
X90383846Y-87928551D01*
X90628504Y-87683893D01*
X90357115Y-87412504D01*
X90183068Y-87586551D01*
X90166631Y-87531474D01*
X90164185Y-87525568D01*
X90043709Y-87496101D01*
X89739810Y-87800000D01*
X89854715Y-87914905D01*
X89734223Y-88035396D01*
X89709951Y-88051614D01*
X89620878Y-88140688D01*
X89510000Y-88029810D01*
X89206101Y-88333709D01*
X89235568Y-88454185D01*
X89260000Y-88461717D01*
X89260000Y-88509619D01*
X89122504Y-88647115D01*
X89260000Y-88784611D01*
X89260000Y-88930000D01*
X89532522Y-88930000D01*
X89534351Y-88934416D01*
X89610000Y-89047633D01*
X89610000Y-89330000D01*
X89260000Y-89330000D01*
X89260000Y-89530000D01*
X88560000Y-89530000D01*
X88560000Y-89330000D01*
X87954063Y-89330000D01*
X87895624Y-89445639D01*
X87957895Y-89541980D01*
X87959468Y-89544000D01*
X80456000Y-89544000D01*
X80456000Y-89174361D01*
X81945624Y-89174361D01*
X82004063Y-89290000D01*
X82610000Y-89290000D01*
X82610000Y-88815531D01*
X83310000Y-88815531D01*
X83310000Y-89290000D01*
X83915937Y-89290000D01*
X83974376Y-89174361D01*
X83912105Y-89078020D01*
X83819202Y-88958717D01*
X83704809Y-88859831D01*
X83624740Y-88814361D01*
X87895624Y-88814361D01*
X87954063Y-88930000D01*
X88560000Y-88930000D01*
X88560000Y-88455531D01*
X88440205Y-88377579D01*
X88296678Y-88425162D01*
X88165191Y-88499831D01*
X88050798Y-88598717D01*
X87957895Y-88718020D01*
X87895624Y-88814361D01*
X83624740Y-88814361D01*
X83573322Y-88785162D01*
X83429795Y-88737579D01*
X83310000Y-88815531D01*
X82610000Y-88815531D01*
X82490205Y-88737579D01*
X82346678Y-88785162D01*
X82215191Y-88859831D01*
X82100798Y-88958717D01*
X82007895Y-89078020D01*
X81945624Y-89174361D01*
X80456000Y-89174361D01*
X80456000Y-82530465D01*
X88104000Y-82530465D01*
X88104000Y-82669535D01*
X88131131Y-82805933D01*
X88184351Y-82934416D01*
X88228173Y-83000000D01*
X88184351Y-83065584D01*
X88131131Y-83194067D01*
X88104000Y-83330465D01*
X88104000Y-83469535D01*
X88131131Y-83605933D01*
X88184351Y-83734416D01*
X88228173Y-83800000D01*
X88184351Y-83865584D01*
X88131131Y-83994067D01*
X88104000Y-84130465D01*
X88104000Y-84269535D01*
X88131131Y-84405933D01*
X88184351Y-84534416D01*
X88261614Y-84650049D01*
X88359951Y-84748386D01*
X88475584Y-84825649D01*
X88604067Y-84878869D01*
X88740465Y-84906000D01*
X88872581Y-84906000D01*
X88884351Y-84934416D01*
X88928173Y-85000000D01*
X88884351Y-85065584D01*
X88872581Y-85094000D01*
X88740465Y-85094000D01*
X88604067Y-85121131D01*
X88475584Y-85174351D01*
X88359951Y-85251614D01*
X88261614Y-85349951D01*
X88184351Y-85465584D01*
X88131131Y-85594067D01*
X88104000Y-85730465D01*
X88104000Y-85869535D01*
X88131131Y-86005933D01*
X88184351Y-86134416D01*
X88228173Y-86200000D01*
X88184351Y-86265584D01*
X88131131Y-86394067D01*
X88104000Y-86530465D01*
X88104000Y-86669535D01*
X88131131Y-86805933D01*
X88184351Y-86934416D01*
X88228173Y-87000000D01*
X88184351Y-87065584D01*
X88131131Y-87194067D01*
X88104000Y-87330465D01*
X88104000Y-87469535D01*
X88131131Y-87605933D01*
X88184351Y-87734416D01*
X88261614Y-87850049D01*
X88359951Y-87948386D01*
X88475584Y-88025649D01*
X88519037Y-88043648D01*
X88662885Y-88187496D01*
X88744381Y-88106000D01*
X88879535Y-88106000D01*
X88937633Y-88094444D01*
X88976291Y-88103899D01*
X88997693Y-88082497D01*
X89015933Y-88078869D01*
X89144416Y-88025649D01*
X89260049Y-87948386D01*
X89358386Y-87850049D01*
X89435649Y-87734416D01*
X89488869Y-87605933D01*
X89498305Y-87558495D01*
X89510000Y-87570190D01*
X89697263Y-87382927D01*
X101019000Y-87382927D01*
X101019000Y-87517073D01*
X101045171Y-87648640D01*
X101096506Y-87772574D01*
X101171033Y-87884112D01*
X101265888Y-87978967D01*
X101377426Y-88053494D01*
X101501360Y-88104829D01*
X101632927Y-88131000D01*
X101767073Y-88131000D01*
X101898640Y-88104829D01*
X102022574Y-88053494D01*
X102134112Y-87978967D01*
X102228967Y-87884112D01*
X102303494Y-87772574D01*
X102354829Y-87648640D01*
X102381000Y-87517073D01*
X102381000Y-87382927D01*
X102354829Y-87251360D01*
X102303494Y-87127426D01*
X102228967Y-87015888D01*
X102134112Y-86921033D01*
X102022574Y-86846506D01*
X101898640Y-86795171D01*
X101767073Y-86769000D01*
X101632927Y-86769000D01*
X101501360Y-86795171D01*
X101377426Y-86846506D01*
X101265888Y-86921033D01*
X101171033Y-87015888D01*
X101096506Y-87127426D01*
X101045171Y-87251360D01*
X101019000Y-87382927D01*
X89697263Y-87382927D01*
X89813899Y-87266291D01*
X89784432Y-87145815D01*
X89723386Y-87126995D01*
X89897496Y-86952885D01*
X89791980Y-86847369D01*
X89844416Y-86825649D01*
X89960049Y-86748386D01*
X90058386Y-86650049D01*
X90135649Y-86534416D01*
X90188869Y-86405933D01*
X90216000Y-86269535D01*
X90216000Y-86130465D01*
X90188869Y-85994067D01*
X90135649Y-85865584D01*
X90091827Y-85800000D01*
X90135649Y-85734416D01*
X90188869Y-85605933D01*
X90216000Y-85469535D01*
X90216000Y-85382921D01*
X91313527Y-85382921D01*
X91313527Y-85517067D01*
X91339698Y-85648634D01*
X91391033Y-85772568D01*
X91465560Y-85884106D01*
X91560415Y-85978961D01*
X91671953Y-86053488D01*
X91795887Y-86104823D01*
X91927454Y-86130994D01*
X92061600Y-86130994D01*
X92193167Y-86104823D01*
X92317101Y-86053488D01*
X92347872Y-86032927D01*
X95119000Y-86032927D01*
X95119000Y-86167073D01*
X95145171Y-86298640D01*
X95196506Y-86422574D01*
X95271033Y-86534112D01*
X95365888Y-86628967D01*
X95477426Y-86703494D01*
X95601360Y-86754829D01*
X95732927Y-86781000D01*
X95867073Y-86781000D01*
X95998640Y-86754829D01*
X96122574Y-86703494D01*
X96234112Y-86628967D01*
X96328967Y-86534112D01*
X96403494Y-86422574D01*
X96454829Y-86298640D01*
X96481000Y-86167073D01*
X96481000Y-86032927D01*
X96454829Y-85901360D01*
X96403494Y-85777426D01*
X96328967Y-85665888D01*
X96234112Y-85571033D01*
X96122574Y-85496506D01*
X95998640Y-85445171D01*
X95867073Y-85419000D01*
X95732927Y-85419000D01*
X95601360Y-85445171D01*
X95477426Y-85496506D01*
X95365888Y-85571033D01*
X95271033Y-85665888D01*
X95196506Y-85777426D01*
X95145171Y-85901360D01*
X95119000Y-86032927D01*
X92347872Y-86032927D01*
X92428639Y-85978961D01*
X92523494Y-85884106D01*
X92598021Y-85772568D01*
X92649356Y-85648634D01*
X92675527Y-85517067D01*
X92675527Y-85382921D01*
X92649356Y-85251354D01*
X92598021Y-85127420D01*
X92532321Y-85029092D01*
X92603494Y-84922574D01*
X92619916Y-84882927D01*
X96344000Y-84882927D01*
X96344000Y-85017073D01*
X96370171Y-85148640D01*
X96421506Y-85272574D01*
X96496033Y-85384112D01*
X96590888Y-85478967D01*
X96702426Y-85553494D01*
X96826360Y-85604829D01*
X96957927Y-85631000D01*
X97092073Y-85631000D01*
X97223640Y-85604829D01*
X97225040Y-85604249D01*
X97195171Y-85676360D01*
X97169000Y-85807927D01*
X97169000Y-85942073D01*
X97195171Y-86073640D01*
X97246506Y-86197574D01*
X97321033Y-86309112D01*
X97415888Y-86403967D01*
X97527426Y-86478494D01*
X97651360Y-86529829D01*
X97782927Y-86556000D01*
X97917073Y-86556000D01*
X98048640Y-86529829D01*
X98172574Y-86478494D01*
X98240779Y-86432921D01*
X102319000Y-86432921D01*
X102319000Y-86567067D01*
X102345171Y-86698634D01*
X102396506Y-86822568D01*
X102471033Y-86934106D01*
X102565888Y-87028961D01*
X102677426Y-87103488D01*
X102801360Y-87154823D01*
X102932927Y-87180994D01*
X103067073Y-87180994D01*
X103198640Y-87154823D01*
X103322574Y-87103488D01*
X103434112Y-87028961D01*
X103528967Y-86934106D01*
X103603494Y-86822568D01*
X103654829Y-86698634D01*
X103681000Y-86567067D01*
X103681000Y-86532927D01*
X118969000Y-86532927D01*
X118969000Y-86667073D01*
X118995171Y-86798640D01*
X119046506Y-86922574D01*
X119121033Y-87034112D01*
X119215888Y-87128967D01*
X119327426Y-87203494D01*
X119451360Y-87254829D01*
X119582927Y-87281000D01*
X119717073Y-87281000D01*
X119848640Y-87254829D01*
X119972574Y-87203494D01*
X120084112Y-87128967D01*
X120178967Y-87034112D01*
X120253494Y-86922574D01*
X120274052Y-86872942D01*
X120691240Y-86872942D01*
X120691240Y-87045058D01*
X120724818Y-87213866D01*
X120790684Y-87372881D01*
X120886306Y-87515990D01*
X121008010Y-87637694D01*
X121151119Y-87733316D01*
X121310134Y-87799182D01*
X121478942Y-87832760D01*
X121651058Y-87832760D01*
X121819866Y-87799182D01*
X121978881Y-87733316D01*
X122121990Y-87637694D01*
X122243694Y-87515990D01*
X122339316Y-87372881D01*
X122405182Y-87213866D01*
X122438760Y-87045058D01*
X122438760Y-86872942D01*
X122405182Y-86704134D01*
X122339316Y-86545119D01*
X122243694Y-86402010D01*
X122121990Y-86280306D01*
X121978881Y-86184684D01*
X121819866Y-86118818D01*
X121651058Y-86085240D01*
X121478942Y-86085240D01*
X121310134Y-86118818D01*
X121151119Y-86184684D01*
X121008010Y-86280306D01*
X120886306Y-86402010D01*
X120790684Y-86545119D01*
X120724818Y-86704134D01*
X120691240Y-86872942D01*
X120274052Y-86872942D01*
X120304829Y-86798640D01*
X120331000Y-86667073D01*
X120331000Y-86532927D01*
X120304829Y-86401360D01*
X120253494Y-86277426D01*
X120178967Y-86165888D01*
X120143331Y-86130252D01*
X120147574Y-86128494D01*
X120173255Y-86111334D01*
X120215888Y-86153967D01*
X120327426Y-86228494D01*
X120451360Y-86279829D01*
X120582927Y-86306000D01*
X120717073Y-86306000D01*
X120848640Y-86279829D01*
X120972574Y-86228494D01*
X121084112Y-86153967D01*
X121178967Y-86059112D01*
X121253494Y-85947574D01*
X121304829Y-85823640D01*
X121331000Y-85692073D01*
X121331000Y-85603003D01*
X122669000Y-85603003D01*
X122669000Y-85746997D01*
X122697092Y-85888225D01*
X122752196Y-86021258D01*
X122832195Y-86140985D01*
X122934015Y-86242805D01*
X123053742Y-86322804D01*
X123186775Y-86377908D01*
X123328003Y-86406000D01*
X123471997Y-86406000D01*
X123613225Y-86377908D01*
X123746258Y-86322804D01*
X123865985Y-86242805D01*
X123967805Y-86140985D01*
X124047804Y-86021258D01*
X124069760Y-85968250D01*
X158119000Y-85968250D01*
X158119000Y-87017525D01*
X158133642Y-87091134D01*
X158162362Y-87160471D01*
X158204058Y-87222874D01*
X158257127Y-87275942D01*
X158319529Y-87317638D01*
X158388867Y-87346358D01*
X158462475Y-87361000D01*
X160031750Y-87361000D01*
X160127000Y-87265750D01*
X160127000Y-85873000D01*
X158214250Y-85873000D01*
X158119000Y-85968250D01*
X124069760Y-85968250D01*
X124102908Y-85888225D01*
X124131000Y-85746997D01*
X124131000Y-85603003D01*
X124102908Y-85461775D01*
X124047804Y-85328742D01*
X123967805Y-85209015D01*
X123865985Y-85107195D01*
X123746258Y-85027196D01*
X123627496Y-84978003D01*
X139569000Y-84978003D01*
X139569000Y-85121997D01*
X139597092Y-85263225D01*
X139652196Y-85396258D01*
X139732195Y-85515985D01*
X139834015Y-85617805D01*
X139953742Y-85697804D01*
X140086775Y-85752908D01*
X140228003Y-85781000D01*
X140371997Y-85781000D01*
X140513225Y-85752908D01*
X140646258Y-85697804D01*
X140765985Y-85617805D01*
X140867805Y-85515985D01*
X140947804Y-85396258D01*
X141002908Y-85263225D01*
X141031000Y-85121997D01*
X141031000Y-84978003D01*
X141002908Y-84836775D01*
X140947804Y-84703742D01*
X140867805Y-84584015D01*
X140765985Y-84482195D01*
X140646258Y-84402196D01*
X140513225Y-84347092D01*
X140371997Y-84319000D01*
X140228003Y-84319000D01*
X140086775Y-84347092D01*
X139953742Y-84402196D01*
X139834015Y-84482195D01*
X139732195Y-84584015D01*
X139652196Y-84703742D01*
X139597092Y-84836775D01*
X139569000Y-84978003D01*
X123627496Y-84978003D01*
X123613225Y-84972092D01*
X123471997Y-84944000D01*
X123328003Y-84944000D01*
X123186775Y-84972092D01*
X123053742Y-85027196D01*
X122934015Y-85107195D01*
X122832195Y-85209015D01*
X122752196Y-85328742D01*
X122697092Y-85461775D01*
X122669000Y-85603003D01*
X121331000Y-85603003D01*
X121331000Y-85557927D01*
X121304829Y-85426360D01*
X121253494Y-85302426D01*
X121178967Y-85190888D01*
X121084112Y-85096033D01*
X120972574Y-85021506D01*
X120848640Y-84970171D01*
X120717073Y-84944000D01*
X120582927Y-84944000D01*
X120451360Y-84970171D01*
X120327426Y-85021506D01*
X120301745Y-85038666D01*
X120259112Y-84996033D01*
X120147574Y-84921506D01*
X120023640Y-84870171D01*
X119892073Y-84844000D01*
X119757927Y-84844000D01*
X119626360Y-84870171D01*
X119502426Y-84921506D01*
X119390888Y-84996033D01*
X119296033Y-85090888D01*
X119221506Y-85202426D01*
X119170171Y-85326360D01*
X119144000Y-85457927D01*
X119144000Y-85592073D01*
X119170171Y-85723640D01*
X119221506Y-85847574D01*
X119296033Y-85959112D01*
X119331669Y-85994748D01*
X119327426Y-85996506D01*
X119215888Y-86071033D01*
X119121033Y-86165888D01*
X119046506Y-86277426D01*
X118995171Y-86401360D01*
X118969000Y-86532927D01*
X103681000Y-86532927D01*
X103681000Y-86432921D01*
X103654829Y-86301354D01*
X103603494Y-86177420D01*
X103528967Y-86065882D01*
X103434112Y-85971027D01*
X103322574Y-85896500D01*
X103198640Y-85845165D01*
X103067073Y-85818994D01*
X102932927Y-85818994D01*
X102801360Y-85845165D01*
X102677426Y-85896500D01*
X102565888Y-85971027D01*
X102471033Y-86065882D01*
X102396506Y-86177420D01*
X102345171Y-86301354D01*
X102319000Y-86432921D01*
X98240779Y-86432921D01*
X98284112Y-86403967D01*
X98378967Y-86309112D01*
X98453494Y-86197574D01*
X98504829Y-86073640D01*
X98531000Y-85942073D01*
X98531000Y-85807927D01*
X98504829Y-85676360D01*
X98453494Y-85552426D01*
X98378967Y-85440888D01*
X98293909Y-85355830D01*
X98334112Y-85328967D01*
X98428967Y-85234112D01*
X98503494Y-85122574D01*
X98554829Y-84998640D01*
X98577846Y-84882927D01*
X102318992Y-84882927D01*
X102318992Y-85017073D01*
X102345163Y-85148640D01*
X102396498Y-85272574D01*
X102471025Y-85384112D01*
X102565880Y-85478967D01*
X102677418Y-85553494D01*
X102801352Y-85604829D01*
X102932919Y-85631000D01*
X103067065Y-85631000D01*
X103198632Y-85604829D01*
X103322566Y-85553494D01*
X103434104Y-85478967D01*
X103528959Y-85384112D01*
X103603486Y-85272574D01*
X103654821Y-85148640D01*
X103680992Y-85017073D01*
X103680992Y-84882927D01*
X116319000Y-84882927D01*
X116319000Y-85017073D01*
X116345171Y-85148640D01*
X116396506Y-85272574D01*
X116471033Y-85384112D01*
X116565888Y-85478967D01*
X116677426Y-85553494D01*
X116801360Y-85604829D01*
X116932927Y-85631000D01*
X117067073Y-85631000D01*
X117198640Y-85604829D01*
X117322574Y-85553494D01*
X117434112Y-85478967D01*
X117476813Y-85436266D01*
X117577426Y-85503494D01*
X117701360Y-85554829D01*
X117832927Y-85581000D01*
X117967073Y-85581000D01*
X118098640Y-85554829D01*
X118222574Y-85503494D01*
X118252619Y-85483419D01*
X118264228Y-85491176D01*
X118388162Y-85542511D01*
X118519729Y-85568682D01*
X118653875Y-85568682D01*
X118785442Y-85542511D01*
X118909376Y-85491176D01*
X119020914Y-85416649D01*
X119115769Y-85321794D01*
X119190296Y-85210256D01*
X119241631Y-85086322D01*
X119267802Y-84954755D01*
X119267802Y-84820609D01*
X119241631Y-84689042D01*
X119190296Y-84565108D01*
X119115769Y-84453570D01*
X119020914Y-84358715D01*
X118909376Y-84284188D01*
X118785442Y-84232853D01*
X118653875Y-84206682D01*
X118519729Y-84206682D01*
X118388162Y-84232853D01*
X118264228Y-84284188D01*
X118234183Y-84304263D01*
X118222574Y-84296506D01*
X118098640Y-84245171D01*
X117967073Y-84219000D01*
X117832927Y-84219000D01*
X117701360Y-84245171D01*
X117577426Y-84296506D01*
X117465888Y-84371033D01*
X117423187Y-84413734D01*
X117322574Y-84346506D01*
X117198640Y-84295171D01*
X117067073Y-84269000D01*
X116932927Y-84269000D01*
X116801360Y-84295171D01*
X116677426Y-84346506D01*
X116565888Y-84421033D01*
X116471033Y-84515888D01*
X116396506Y-84627426D01*
X116345171Y-84751360D01*
X116319000Y-84882927D01*
X103680992Y-84882927D01*
X103654821Y-84751360D01*
X103603486Y-84627426D01*
X103528959Y-84515888D01*
X103434104Y-84421033D01*
X103322566Y-84346506D01*
X103198632Y-84295171D01*
X103067065Y-84269000D01*
X102932919Y-84269000D01*
X102801352Y-84295171D01*
X102677418Y-84346506D01*
X102565880Y-84421033D01*
X102471025Y-84515888D01*
X102396498Y-84627426D01*
X102345163Y-84751360D01*
X102318992Y-84882927D01*
X98577846Y-84882927D01*
X98581000Y-84867073D01*
X98581000Y-84732927D01*
X98554829Y-84601360D01*
X98503494Y-84477426D01*
X98428967Y-84365888D01*
X98334112Y-84271033D01*
X98222574Y-84196506D01*
X98098640Y-84145171D01*
X97967073Y-84119000D01*
X97832927Y-84119000D01*
X97701360Y-84145171D01*
X97577426Y-84196506D01*
X97465888Y-84271033D01*
X97373255Y-84363666D01*
X97347574Y-84346506D01*
X97223640Y-84295171D01*
X97092073Y-84269000D01*
X96957927Y-84269000D01*
X96826360Y-84295171D01*
X96702426Y-84346506D01*
X96590888Y-84421033D01*
X96496033Y-84515888D01*
X96421506Y-84627426D01*
X96370171Y-84751360D01*
X96344000Y-84882927D01*
X92619916Y-84882927D01*
X92654829Y-84798640D01*
X92681000Y-84667073D01*
X92681000Y-84532927D01*
X92654829Y-84401360D01*
X92603494Y-84277426D01*
X92528967Y-84165888D01*
X92513079Y-84150000D01*
X92528967Y-84134112D01*
X92596579Y-84032923D01*
X114119000Y-84032923D01*
X114119000Y-84167069D01*
X114145171Y-84298636D01*
X114196506Y-84422570D01*
X114271033Y-84534108D01*
X114365888Y-84628963D01*
X114477426Y-84703490D01*
X114601360Y-84754825D01*
X114732927Y-84780996D01*
X114867073Y-84780996D01*
X114998640Y-84754825D01*
X115122574Y-84703490D01*
X115234112Y-84628963D01*
X115328967Y-84534108D01*
X115403494Y-84422570D01*
X115454829Y-84298636D01*
X115481000Y-84167069D01*
X115481000Y-84032923D01*
X115454829Y-83901356D01*
X115451023Y-83892166D01*
X122583163Y-83892166D01*
X122583163Y-84036160D01*
X122611255Y-84177388D01*
X122666359Y-84310421D01*
X122746358Y-84430148D01*
X122848178Y-84531968D01*
X122967905Y-84611967D01*
X123100938Y-84667071D01*
X123242166Y-84695163D01*
X123386160Y-84695163D01*
X123527388Y-84667071D01*
X123660421Y-84611967D01*
X123780148Y-84531968D01*
X123881968Y-84430148D01*
X123961967Y-84310421D01*
X124017071Y-84177388D01*
X124045163Y-84036160D01*
X124045163Y-83892166D01*
X124017071Y-83750938D01*
X123961967Y-83617905D01*
X123881968Y-83498178D01*
X123780148Y-83396358D01*
X123660421Y-83316359D01*
X123527388Y-83261255D01*
X123386160Y-83233163D01*
X123242166Y-83233163D01*
X123100938Y-83261255D01*
X122967905Y-83316359D01*
X122848178Y-83396358D01*
X122746358Y-83498178D01*
X122666359Y-83617905D01*
X122611255Y-83750938D01*
X122583163Y-83892166D01*
X115451023Y-83892166D01*
X115403494Y-83777422D01*
X115328967Y-83665884D01*
X115234112Y-83571029D01*
X115122574Y-83496502D01*
X114998640Y-83445167D01*
X114867073Y-83418996D01*
X114732927Y-83418996D01*
X114601360Y-83445167D01*
X114477426Y-83496502D01*
X114365888Y-83571029D01*
X114271033Y-83665884D01*
X114196506Y-83777422D01*
X114145171Y-83901356D01*
X114119000Y-84032923D01*
X92596579Y-84032923D01*
X92603494Y-84022574D01*
X92654829Y-83898640D01*
X92681000Y-83767073D01*
X92681000Y-83632927D01*
X92654829Y-83501360D01*
X92603494Y-83377426D01*
X92528967Y-83265888D01*
X92434112Y-83171033D01*
X92322574Y-83096506D01*
X92198640Y-83045171D01*
X92067073Y-83019000D01*
X91932927Y-83019000D01*
X91801360Y-83045171D01*
X91677426Y-83096506D01*
X91565888Y-83171033D01*
X91471033Y-83265888D01*
X91396506Y-83377426D01*
X91345171Y-83501360D01*
X91319000Y-83632927D01*
X91319000Y-83767073D01*
X91345171Y-83898640D01*
X91396506Y-84022574D01*
X91471033Y-84134112D01*
X91486921Y-84150000D01*
X91471033Y-84165888D01*
X91396506Y-84277426D01*
X91345171Y-84401360D01*
X91319000Y-84532927D01*
X91319000Y-84667073D01*
X91345171Y-84798640D01*
X91396506Y-84922574D01*
X91462206Y-85020902D01*
X91391033Y-85127420D01*
X91339698Y-85251354D01*
X91313527Y-85382921D01*
X90216000Y-85382921D01*
X90216000Y-85330465D01*
X90188869Y-85194067D01*
X90135649Y-85065584D01*
X90091827Y-85000000D01*
X90135649Y-84934416D01*
X90188869Y-84805933D01*
X90216000Y-84669535D01*
X90216000Y-84530465D01*
X90188869Y-84394067D01*
X90135649Y-84265584D01*
X90091827Y-84200000D01*
X90135649Y-84134416D01*
X90188869Y-84005933D01*
X90216000Y-83869535D01*
X90216000Y-83730465D01*
X90188869Y-83594067D01*
X90135649Y-83465584D01*
X90058386Y-83349951D01*
X89960049Y-83251614D01*
X89844416Y-83174351D01*
X89791980Y-83152631D01*
X89897496Y-83047115D01*
X89723449Y-82873068D01*
X89778526Y-82856631D01*
X89784432Y-82854185D01*
X89813899Y-82733709D01*
X89510000Y-82429810D01*
X89498305Y-82441505D01*
X89488869Y-82394067D01*
X89435649Y-82265584D01*
X89358386Y-82149951D01*
X89260049Y-82051614D01*
X89144416Y-81974351D01*
X89015933Y-81921131D01*
X88997693Y-81917503D01*
X88976291Y-81896101D01*
X88937633Y-81905556D01*
X88879535Y-81894000D01*
X88744381Y-81894000D01*
X88662885Y-81812504D01*
X88519037Y-81956352D01*
X88475584Y-81974351D01*
X88359951Y-82051614D01*
X88261614Y-82149951D01*
X88184351Y-82265584D01*
X88131131Y-82394067D01*
X88104000Y-82530465D01*
X80456000Y-82530465D01*
X80456000Y-80825639D01*
X81945624Y-80825639D01*
X82007895Y-80921980D01*
X82100798Y-81041283D01*
X82215191Y-81140169D01*
X82346678Y-81214838D01*
X82490205Y-81262421D01*
X82610000Y-81184469D01*
X82610000Y-80710000D01*
X83310000Y-80710000D01*
X83310000Y-81184469D01*
X83429795Y-81262421D01*
X83573322Y-81214838D01*
X83624739Y-81185639D01*
X87895624Y-81185639D01*
X87957895Y-81281980D01*
X88050798Y-81401283D01*
X88165191Y-81500169D01*
X88296678Y-81574838D01*
X88440205Y-81622421D01*
X88560000Y-81544469D01*
X88560000Y-81070000D01*
X87954063Y-81070000D01*
X87895624Y-81185639D01*
X83624739Y-81185639D01*
X83704809Y-81140169D01*
X83819202Y-81041283D01*
X83912105Y-80921980D01*
X83974376Y-80825639D01*
X83915937Y-80710000D01*
X83310000Y-80710000D01*
X82610000Y-80710000D01*
X82004063Y-80710000D01*
X81945624Y-80825639D01*
X80456000Y-80825639D01*
X80456000Y-80456000D01*
X87959468Y-80456000D01*
X87957895Y-80458020D01*
G04 #@! TD*
M02*
