M48
;DRILL file {KiCad (6.0.0-rc1-dev-1-g01c5bdfb8)} date Fri Nov 23 11:24:46 2018
;FORMAT={-:-/ absolute / inch / decimal}
FMAT,2
INCH,TZ
T1C0.0118
T2C0.0157
T3C0.0197
T4C0.0469
T5C0.0669
%
G90
G05
M72
T1
X3.6218Y-3.3642
X3.622Y-3.2953
X3.622Y-3.3307
X3.6319Y-3.247
X3.6703Y-3.4331
X3.7333Y-3.2274
X3.7559Y-3.2559
X3.7717Y-3.3898
X3.8199Y-3.3445
X3.8465Y-3.2402
X3.8465Y-3.2717
X3.8524Y-3.3809
X3.8543Y-3.3386
X3.878Y-3.2402
X3.878Y-3.2717
X3.8957Y-3.4134
X4.0039Y-3.4429
X4.0551Y-3.3445
X4.0551Y-3.4055
X4.0748Y-3.2697
X4.0768Y-3.2362
X4.1112Y-3.1801
X4.1476Y-3.1752
X4.1634Y-3.437
X4.1636Y-3.2571
X4.1787Y-3.1711
X4.2067Y-3.1826
X4.3228Y-3.5177
X4.3445Y-3.2559
X4.3445Y-3.437
X4.4124Y-3.4843
X4.439Y-3.3386
X4.5197Y-3.311
X4.5492Y-3.5108
X4.5512Y-3.4356
X4.5787Y-3.2362
X4.5807Y-3.2953
X4.6033Y-3.5059
X4.6043Y-3.1878
X4.6063Y-3.3445
X4.6319Y-3.1878
X4.6398Y-3.2953
X4.6417Y-3.2362
X4.6417Y-3.3425
X4.6594Y-3.1878
X4.6688Y-3.342
X4.7106Y-3.4094
X4.7175Y-3.3671
X4.7195Y-3.5157
X4.75Y-3.3711
X5.0984Y-3.4252
X5.123Y-3.1753
X5.1339Y-3.4469
X5.2665Y-3.2964
X5.2992Y-3.1937
X5.3366Y-3.2296
X5.3917Y-3.3583
X5.6009Y-3.5
X5.6024Y-3.3484
X5.7657Y-3.4803
X5.7953Y-3.4803
X5.8248Y-3.4803
X5.8543Y-3.4803
X6.0571Y-3.1901
X6.0945Y-3.2146
X6.1102Y-3.4409
X6.1616Y-3.313
T2
X4.8258Y-3.2146
X4.8549Y-3.3057
X4.8583Y-3.373
X4.9892Y-3.3179
X5.1624Y-3.4902
X5.4409Y-3.2047
X5.4409Y-3.2362
X5.4409Y-3.2662
X5.4724Y-3.2047
X5.4724Y-3.2362
X5.4724Y-3.2662
X5.5039Y-3.2047
X5.5039Y-3.2362
X5.5039Y-3.2662
X5.5236Y-3.3484
X5.5354Y-3.2047
X5.5354Y-3.2362
X5.5354Y-3.2662
X5.5374Y-3.4163
X3.4965Y-3.252
X3.4965Y-3.2835
X3.4965Y-3.315
X3.4965Y-3.378
X3.4965Y-3.4094
X3.4965Y-3.4409
X3.524Y-3.2362
X3.524Y-3.2992
X3.524Y-3.3307
X3.524Y-3.3622
X3.524Y-3.3937
X3.524Y-3.4567
T4
X5.9843Y-3.252
X5.9843Y-3.4409
T5
X6.3386Y-3.3465
T3
X3.2543Y-3.1697G85X3.278Y-3.1697
G05
X3.2543Y-3.5232G85X3.278Y-3.5232
G05
X3.4886Y-3.1839G85X3.5122Y-3.1839
G05
X3.4886Y-3.5091G85X3.5122Y-3.5091
G05
T0
M30
