G04 #@! TF.GenerationSoftware,KiCad,Pcbnew,(6.0.0-rc1-dev-1-g01c5bdfb8)*
G04 #@! TF.CreationDate,2018-11-23T11:25:08+01:00*
G04 #@! TF.ProjectId,TS100C,5453313030432E6B696361645F706362,rev?*
G04 #@! TF.SameCoordinates,Original*
G04 #@! TF.FileFunction,Copper,L4,Bot,Mixed*
G04 #@! TF.FilePolarity,Positive*
%FSLAX46Y46*%
G04 Gerber Fmt 4.6, Leading zero omitted, Abs format (unit mm)*
G04 Created by KiCad (PCBNEW (6.0.0-rc1-dev-1-g01c5bdfb8)) date Fri Nov 23 11:25:08 2018*
%MOMM*%
%LPD*%
G01*
G04 APERTURE LIST*
G04 #@! TA.AperFunction,ComponentPad*
%ADD10R,5.000000X3.960000*%
G04 #@! TD*
G04 #@! TA.AperFunction,SMDPad,CuDef*
%ADD11R,0.650000X1.050000*%
G04 #@! TD*
G04 #@! TA.AperFunction,SMDPad,CuDef*
%ADD12R,1.050000X0.650000*%
G04 #@! TD*
G04 #@! TA.AperFunction,ComponentPad*
%ADD13O,1.400000X0.800000*%
G04 #@! TD*
G04 #@! TA.AperFunction,SMDPad,CuDef*
%ADD14R,0.700000X0.300000*%
G04 #@! TD*
G04 #@! TA.AperFunction,ComponentPad*
%ADD15C,0.650000*%
G04 #@! TD*
G04 #@! TA.AperFunction,SMDPad,CuDef*
%ADD16R,2.000000X0.320000*%
G04 #@! TD*
G04 #@! TA.AperFunction,ComponentPad*
%ADD17C,2.000000*%
G04 #@! TD*
G04 #@! TA.AperFunction,Conductor*
%ADD18C,0.100000*%
G04 #@! TD*
G04 #@! TA.AperFunction,SMDPad,CuDef*
%ADD19C,0.590000*%
G04 #@! TD*
G04 #@! TA.AperFunction,ViaPad*
%ADD20C,0.600000*%
G04 #@! TD*
G04 #@! TA.AperFunction,ViaPad*
%ADD21C,0.700000*%
G04 #@! TD*
G04 #@! TA.AperFunction,Conductor*
%ADD22C,0.250000*%
G04 #@! TD*
G04 #@! TA.AperFunction,Conductor*
%ADD23C,0.154000*%
G04 #@! TD*
G04 #@! TA.AperFunction,Conductor*
%ADD24C,0.254000*%
G04 #@! TD*
G04 APERTURE END LIST*
D10*
G04 #@! TO.P,J4,1*
G04 #@! TO.N,GND*
X161000000Y-85000000D03*
G04 #@! TD*
D11*
G04 #@! TO.P,SW2,2*
G04 #@! TO.N,Net-(SW2-Pad2)*
X153700000Y-82925000D03*
X153700000Y-87075000D03*
G04 #@! TO.P,SW2,1*
G04 #@! TO.N,+3V3*
X155850000Y-82925000D03*
X155850000Y-87075000D03*
G04 #@! TD*
D12*
G04 #@! TO.P,SW1,1*
G04 #@! TO.N,+3V3*
X138425000Y-86075000D03*
X142575000Y-86075000D03*
G04 #@! TO.P,SW1,2*
G04 #@! TO.N,Net-(SW1-Pad2)*
X138425000Y-83925000D03*
X142575000Y-83925000D03*
G04 #@! TD*
D13*
G04 #@! TO.P,J1,S1*
G04 #@! TO.N,GND*
X88910000Y-89130000D03*
D14*
G04 #@! TO.P,J1,A1*
X90820000Y-87750000D03*
G04 #@! TO.P,J1,A2*
G04 #@! TO.N,Net-(J1-PadA2)*
X90820000Y-87250000D03*
G04 #@! TO.P,J1,A3*
G04 #@! TO.N,Net-(J1-PadA3)*
X90820000Y-86750000D03*
G04 #@! TO.P,J1,A4*
G04 #@! TO.N,VBUS*
X90820000Y-86250000D03*
G04 #@! TO.P,J1,A5*
G04 #@! TO.N,CC1*
X90820000Y-85750000D03*
G04 #@! TO.P,J1,A6*
G04 #@! TO.N,USB_P*
X90820000Y-85250000D03*
G04 #@! TO.P,J1,A7*
G04 #@! TO.N,USB_N*
X90820000Y-84750000D03*
G04 #@! TO.P,J1,A12*
G04 #@! TO.N,GND*
X90820000Y-82250000D03*
G04 #@! TO.P,J1,A10*
G04 #@! TO.N,Net-(J1-PadA10)*
X90820000Y-83250000D03*
G04 #@! TO.P,J1,A9*
G04 #@! TO.N,VBUS*
X90820000Y-83750000D03*
G04 #@! TO.P,J1,A8*
G04 #@! TO.N,Net-(J1-PadA8)*
X90820000Y-84250000D03*
G04 #@! TO.P,J1,A11*
G04 #@! TO.N,Net-(J1-PadA11)*
X90820000Y-82750000D03*
D13*
G04 #@! TO.P,J1,S1*
G04 #@! TO.N,GND*
X88910000Y-80870000D03*
X82960000Y-80510000D03*
X82960000Y-89490000D03*
D15*
G04 #@! TO.P,J1,B1*
X89510000Y-82200000D03*
G04 #@! TO.P,J1,B4*
G04 #@! TO.N,VBUS*
X89510000Y-83800000D03*
G04 #@! TO.P,J1,B6*
G04 #@! TO.N,USB_P*
X89510000Y-84600000D03*
G04 #@! TO.P,J1,B7*
G04 #@! TO.N,USB_N*
X89510000Y-85400000D03*
G04 #@! TO.P,J1,B9*
G04 #@! TO.N,VBUS*
X89510000Y-86200000D03*
G04 #@! TO.P,J1,B12*
G04 #@! TO.N,GND*
X89510000Y-87800000D03*
G04 #@! TO.P,J1,B2*
G04 #@! TO.N,Net-(J1-PadB2)*
X88810000Y-82600000D03*
G04 #@! TO.P,J1,B3*
G04 #@! TO.N,Net-(J1-PadB3)*
X88810000Y-83400000D03*
G04 #@! TO.P,J1,B5*
G04 #@! TO.N,CC2*
X88810000Y-84200000D03*
G04 #@! TO.P,J1,B8*
G04 #@! TO.N,Net-(J1-PadB8)*
X88810000Y-85800000D03*
G04 #@! TO.P,J1,B10*
G04 #@! TO.N,Net-(J1-PadB10)*
X88810000Y-86600000D03*
G04 #@! TO.P,J1,B11*
G04 #@! TO.N,Net-(J1-PadB11)*
X88810000Y-87400000D03*
G04 #@! TD*
D16*
G04 #@! TO.P,J2,1*
G04 #@! TO.N,Net-(C14-Pad2)*
X125000000Y-80840000D03*
G04 #@! TO.P,J2,2*
G04 #@! TO.N,Net-(C14-Pad1)*
X125000000Y-81480000D03*
G04 #@! TO.P,J2,3*
G04 #@! TO.N,Net-(C12-Pad1)*
X125000000Y-82120000D03*
G04 #@! TO.P,J2,4*
G04 #@! TO.N,Net-(C12-Pad2)*
X125000000Y-82760000D03*
G04 #@! TO.P,J2,5*
G04 #@! TO.N,+3V3*
X125000000Y-83400000D03*
G04 #@! TO.P,J2,6*
G04 #@! TO.N,Net-(J2-Pad6)*
X125000000Y-84040000D03*
G04 #@! TO.P,J2,7*
G04 #@! TO.N,GND*
X125000000Y-84680000D03*
G04 #@! TO.P,J2,8*
G04 #@! TO.N,+3V3*
X125000000Y-85320000D03*
G04 #@! TO.P,J2,9*
G04 #@! TO.N,Net-(J2-Pad9)*
X125000000Y-85960000D03*
G04 #@! TO.P,J2,10*
G04 #@! TO.N,OLED_SCL*
X125000000Y-86600000D03*
G04 #@! TO.P,J2,11*
G04 #@! TO.N,OLED_SDA*
X125000000Y-87240000D03*
G04 #@! TO.P,J2,12*
G04 #@! TO.N,Net-(J2-Pad12)*
X125000000Y-87880000D03*
G04 #@! TO.P,J2,13*
G04 #@! TO.N,Net-(C13-Pad1)*
X125000000Y-88520000D03*
G04 #@! TO.P,J2,14*
G04 #@! TO.N,Net-(C15-Pad1)*
X125000000Y-89160000D03*
G04 #@! TD*
D17*
G04 #@! TO.P,J3,1*
G04 #@! TO.N,/OUT*
X152000000Y-87400000D03*
X152000000Y-82600000D03*
G04 #@! TD*
D18*
G04 #@! TO.N,Net-(C12-Pad2)*
G04 #@! TO.C,C12*
G36*
X128371958Y-81880710D02*
X128386276Y-81882834D01*
X128400317Y-81886351D01*
X128413946Y-81891228D01*
X128427031Y-81897417D01*
X128439447Y-81904858D01*
X128451073Y-81913481D01*
X128461798Y-81923202D01*
X128471519Y-81933927D01*
X128480142Y-81945553D01*
X128487583Y-81957969D01*
X128493772Y-81971054D01*
X128498649Y-81984683D01*
X128502166Y-81998724D01*
X128504290Y-82013042D01*
X128505000Y-82027500D01*
X128505000Y-82372500D01*
X128504290Y-82386958D01*
X128502166Y-82401276D01*
X128498649Y-82415317D01*
X128493772Y-82428946D01*
X128487583Y-82442031D01*
X128480142Y-82454447D01*
X128471519Y-82466073D01*
X128461798Y-82476798D01*
X128451073Y-82486519D01*
X128439447Y-82495142D01*
X128427031Y-82502583D01*
X128413946Y-82508772D01*
X128400317Y-82513649D01*
X128386276Y-82517166D01*
X128371958Y-82519290D01*
X128357500Y-82520000D01*
X128062500Y-82520000D01*
X128048042Y-82519290D01*
X128033724Y-82517166D01*
X128019683Y-82513649D01*
X128006054Y-82508772D01*
X127992969Y-82502583D01*
X127980553Y-82495142D01*
X127968927Y-82486519D01*
X127958202Y-82476798D01*
X127948481Y-82466073D01*
X127939858Y-82454447D01*
X127932417Y-82442031D01*
X127926228Y-82428946D01*
X127921351Y-82415317D01*
X127917834Y-82401276D01*
X127915710Y-82386958D01*
X127915000Y-82372500D01*
X127915000Y-82027500D01*
X127915710Y-82013042D01*
X127917834Y-81998724D01*
X127921351Y-81984683D01*
X127926228Y-81971054D01*
X127932417Y-81957969D01*
X127939858Y-81945553D01*
X127948481Y-81933927D01*
X127958202Y-81923202D01*
X127968927Y-81913481D01*
X127980553Y-81904858D01*
X127992969Y-81897417D01*
X128006054Y-81891228D01*
X128019683Y-81886351D01*
X128033724Y-81882834D01*
X128048042Y-81880710D01*
X128062500Y-81880000D01*
X128357500Y-81880000D01*
X128371958Y-81880710D01*
X128371958Y-81880710D01*
G37*
D19*
G04 #@! TD*
G04 #@! TO.P,C12,2*
G04 #@! TO.N,Net-(C12-Pad2)*
X128210000Y-82200000D03*
D18*
G04 #@! TO.N,Net-(C12-Pad1)*
G04 #@! TO.C,C12*
G36*
X127401958Y-81880710D02*
X127416276Y-81882834D01*
X127430317Y-81886351D01*
X127443946Y-81891228D01*
X127457031Y-81897417D01*
X127469447Y-81904858D01*
X127481073Y-81913481D01*
X127491798Y-81923202D01*
X127501519Y-81933927D01*
X127510142Y-81945553D01*
X127517583Y-81957969D01*
X127523772Y-81971054D01*
X127528649Y-81984683D01*
X127532166Y-81998724D01*
X127534290Y-82013042D01*
X127535000Y-82027500D01*
X127535000Y-82372500D01*
X127534290Y-82386958D01*
X127532166Y-82401276D01*
X127528649Y-82415317D01*
X127523772Y-82428946D01*
X127517583Y-82442031D01*
X127510142Y-82454447D01*
X127501519Y-82466073D01*
X127491798Y-82476798D01*
X127481073Y-82486519D01*
X127469447Y-82495142D01*
X127457031Y-82502583D01*
X127443946Y-82508772D01*
X127430317Y-82513649D01*
X127416276Y-82517166D01*
X127401958Y-82519290D01*
X127387500Y-82520000D01*
X127092500Y-82520000D01*
X127078042Y-82519290D01*
X127063724Y-82517166D01*
X127049683Y-82513649D01*
X127036054Y-82508772D01*
X127022969Y-82502583D01*
X127010553Y-82495142D01*
X126998927Y-82486519D01*
X126988202Y-82476798D01*
X126978481Y-82466073D01*
X126969858Y-82454447D01*
X126962417Y-82442031D01*
X126956228Y-82428946D01*
X126951351Y-82415317D01*
X126947834Y-82401276D01*
X126945710Y-82386958D01*
X126945000Y-82372500D01*
X126945000Y-82027500D01*
X126945710Y-82013042D01*
X126947834Y-81998724D01*
X126951351Y-81984683D01*
X126956228Y-81971054D01*
X126962417Y-81957969D01*
X126969858Y-81945553D01*
X126978481Y-81933927D01*
X126988202Y-81923202D01*
X126998927Y-81913481D01*
X127010553Y-81904858D01*
X127022969Y-81897417D01*
X127036054Y-81891228D01*
X127049683Y-81886351D01*
X127063724Y-81882834D01*
X127078042Y-81880710D01*
X127092500Y-81880000D01*
X127387500Y-81880000D01*
X127401958Y-81880710D01*
X127401958Y-81880710D01*
G37*
D19*
G04 #@! TD*
G04 #@! TO.P,C12,1*
G04 #@! TO.N,Net-(C12-Pad1)*
X127240000Y-82200000D03*
D18*
G04 #@! TO.N,GND*
G04 #@! TO.C,C13*
G36*
X128921958Y-87705710D02*
X128936276Y-87707834D01*
X128950317Y-87711351D01*
X128963946Y-87716228D01*
X128977031Y-87722417D01*
X128989447Y-87729858D01*
X129001073Y-87738481D01*
X129011798Y-87748202D01*
X129021519Y-87758927D01*
X129030142Y-87770553D01*
X129037583Y-87782969D01*
X129043772Y-87796054D01*
X129048649Y-87809683D01*
X129052166Y-87823724D01*
X129054290Y-87838042D01*
X129055000Y-87852500D01*
X129055000Y-88197500D01*
X129054290Y-88211958D01*
X129052166Y-88226276D01*
X129048649Y-88240317D01*
X129043772Y-88253946D01*
X129037583Y-88267031D01*
X129030142Y-88279447D01*
X129021519Y-88291073D01*
X129011798Y-88301798D01*
X129001073Y-88311519D01*
X128989447Y-88320142D01*
X128977031Y-88327583D01*
X128963946Y-88333772D01*
X128950317Y-88338649D01*
X128936276Y-88342166D01*
X128921958Y-88344290D01*
X128907500Y-88345000D01*
X128612500Y-88345000D01*
X128598042Y-88344290D01*
X128583724Y-88342166D01*
X128569683Y-88338649D01*
X128556054Y-88333772D01*
X128542969Y-88327583D01*
X128530553Y-88320142D01*
X128518927Y-88311519D01*
X128508202Y-88301798D01*
X128498481Y-88291073D01*
X128489858Y-88279447D01*
X128482417Y-88267031D01*
X128476228Y-88253946D01*
X128471351Y-88240317D01*
X128467834Y-88226276D01*
X128465710Y-88211958D01*
X128465000Y-88197500D01*
X128465000Y-87852500D01*
X128465710Y-87838042D01*
X128467834Y-87823724D01*
X128471351Y-87809683D01*
X128476228Y-87796054D01*
X128482417Y-87782969D01*
X128489858Y-87770553D01*
X128498481Y-87758927D01*
X128508202Y-87748202D01*
X128518927Y-87738481D01*
X128530553Y-87729858D01*
X128542969Y-87722417D01*
X128556054Y-87716228D01*
X128569683Y-87711351D01*
X128583724Y-87707834D01*
X128598042Y-87705710D01*
X128612500Y-87705000D01*
X128907500Y-87705000D01*
X128921958Y-87705710D01*
X128921958Y-87705710D01*
G37*
D19*
G04 #@! TD*
G04 #@! TO.P,C13,2*
G04 #@! TO.N,GND*
X128760000Y-88025000D03*
D18*
G04 #@! TO.N,Net-(C13-Pad1)*
G04 #@! TO.C,C13*
G36*
X127951958Y-87705710D02*
X127966276Y-87707834D01*
X127980317Y-87711351D01*
X127993946Y-87716228D01*
X128007031Y-87722417D01*
X128019447Y-87729858D01*
X128031073Y-87738481D01*
X128041798Y-87748202D01*
X128051519Y-87758927D01*
X128060142Y-87770553D01*
X128067583Y-87782969D01*
X128073772Y-87796054D01*
X128078649Y-87809683D01*
X128082166Y-87823724D01*
X128084290Y-87838042D01*
X128085000Y-87852500D01*
X128085000Y-88197500D01*
X128084290Y-88211958D01*
X128082166Y-88226276D01*
X128078649Y-88240317D01*
X128073772Y-88253946D01*
X128067583Y-88267031D01*
X128060142Y-88279447D01*
X128051519Y-88291073D01*
X128041798Y-88301798D01*
X128031073Y-88311519D01*
X128019447Y-88320142D01*
X128007031Y-88327583D01*
X127993946Y-88333772D01*
X127980317Y-88338649D01*
X127966276Y-88342166D01*
X127951958Y-88344290D01*
X127937500Y-88345000D01*
X127642500Y-88345000D01*
X127628042Y-88344290D01*
X127613724Y-88342166D01*
X127599683Y-88338649D01*
X127586054Y-88333772D01*
X127572969Y-88327583D01*
X127560553Y-88320142D01*
X127548927Y-88311519D01*
X127538202Y-88301798D01*
X127528481Y-88291073D01*
X127519858Y-88279447D01*
X127512417Y-88267031D01*
X127506228Y-88253946D01*
X127501351Y-88240317D01*
X127497834Y-88226276D01*
X127495710Y-88211958D01*
X127495000Y-88197500D01*
X127495000Y-87852500D01*
X127495710Y-87838042D01*
X127497834Y-87823724D01*
X127501351Y-87809683D01*
X127506228Y-87796054D01*
X127512417Y-87782969D01*
X127519858Y-87770553D01*
X127528481Y-87758927D01*
X127538202Y-87748202D01*
X127548927Y-87738481D01*
X127560553Y-87729858D01*
X127572969Y-87722417D01*
X127586054Y-87716228D01*
X127599683Y-87711351D01*
X127613724Y-87707834D01*
X127628042Y-87705710D01*
X127642500Y-87705000D01*
X127937500Y-87705000D01*
X127951958Y-87705710D01*
X127951958Y-87705710D01*
G37*
D19*
G04 #@! TD*
G04 #@! TO.P,C13,1*
G04 #@! TO.N,Net-(C13-Pad1)*
X127790000Y-88025000D03*
D18*
G04 #@! TO.N,Net-(C14-Pad2)*
G04 #@! TO.C,C14*
G36*
X127426958Y-80655710D02*
X127441276Y-80657834D01*
X127455317Y-80661351D01*
X127468946Y-80666228D01*
X127482031Y-80672417D01*
X127494447Y-80679858D01*
X127506073Y-80688481D01*
X127516798Y-80698202D01*
X127526519Y-80708927D01*
X127535142Y-80720553D01*
X127542583Y-80732969D01*
X127548772Y-80746054D01*
X127553649Y-80759683D01*
X127557166Y-80773724D01*
X127559290Y-80788042D01*
X127560000Y-80802500D01*
X127560000Y-81147500D01*
X127559290Y-81161958D01*
X127557166Y-81176276D01*
X127553649Y-81190317D01*
X127548772Y-81203946D01*
X127542583Y-81217031D01*
X127535142Y-81229447D01*
X127526519Y-81241073D01*
X127516798Y-81251798D01*
X127506073Y-81261519D01*
X127494447Y-81270142D01*
X127482031Y-81277583D01*
X127468946Y-81283772D01*
X127455317Y-81288649D01*
X127441276Y-81292166D01*
X127426958Y-81294290D01*
X127412500Y-81295000D01*
X127117500Y-81295000D01*
X127103042Y-81294290D01*
X127088724Y-81292166D01*
X127074683Y-81288649D01*
X127061054Y-81283772D01*
X127047969Y-81277583D01*
X127035553Y-81270142D01*
X127023927Y-81261519D01*
X127013202Y-81251798D01*
X127003481Y-81241073D01*
X126994858Y-81229447D01*
X126987417Y-81217031D01*
X126981228Y-81203946D01*
X126976351Y-81190317D01*
X126972834Y-81176276D01*
X126970710Y-81161958D01*
X126970000Y-81147500D01*
X126970000Y-80802500D01*
X126970710Y-80788042D01*
X126972834Y-80773724D01*
X126976351Y-80759683D01*
X126981228Y-80746054D01*
X126987417Y-80732969D01*
X126994858Y-80720553D01*
X127003481Y-80708927D01*
X127013202Y-80698202D01*
X127023927Y-80688481D01*
X127035553Y-80679858D01*
X127047969Y-80672417D01*
X127061054Y-80666228D01*
X127074683Y-80661351D01*
X127088724Y-80657834D01*
X127103042Y-80655710D01*
X127117500Y-80655000D01*
X127412500Y-80655000D01*
X127426958Y-80655710D01*
X127426958Y-80655710D01*
G37*
D19*
G04 #@! TD*
G04 #@! TO.P,C14,2*
G04 #@! TO.N,Net-(C14-Pad2)*
X127265000Y-80975000D03*
D18*
G04 #@! TO.N,Net-(C14-Pad1)*
G04 #@! TO.C,C14*
G36*
X128396958Y-80655710D02*
X128411276Y-80657834D01*
X128425317Y-80661351D01*
X128438946Y-80666228D01*
X128452031Y-80672417D01*
X128464447Y-80679858D01*
X128476073Y-80688481D01*
X128486798Y-80698202D01*
X128496519Y-80708927D01*
X128505142Y-80720553D01*
X128512583Y-80732969D01*
X128518772Y-80746054D01*
X128523649Y-80759683D01*
X128527166Y-80773724D01*
X128529290Y-80788042D01*
X128530000Y-80802500D01*
X128530000Y-81147500D01*
X128529290Y-81161958D01*
X128527166Y-81176276D01*
X128523649Y-81190317D01*
X128518772Y-81203946D01*
X128512583Y-81217031D01*
X128505142Y-81229447D01*
X128496519Y-81241073D01*
X128486798Y-81251798D01*
X128476073Y-81261519D01*
X128464447Y-81270142D01*
X128452031Y-81277583D01*
X128438946Y-81283772D01*
X128425317Y-81288649D01*
X128411276Y-81292166D01*
X128396958Y-81294290D01*
X128382500Y-81295000D01*
X128087500Y-81295000D01*
X128073042Y-81294290D01*
X128058724Y-81292166D01*
X128044683Y-81288649D01*
X128031054Y-81283772D01*
X128017969Y-81277583D01*
X128005553Y-81270142D01*
X127993927Y-81261519D01*
X127983202Y-81251798D01*
X127973481Y-81241073D01*
X127964858Y-81229447D01*
X127957417Y-81217031D01*
X127951228Y-81203946D01*
X127946351Y-81190317D01*
X127942834Y-81176276D01*
X127940710Y-81161958D01*
X127940000Y-81147500D01*
X127940000Y-80802500D01*
X127940710Y-80788042D01*
X127942834Y-80773724D01*
X127946351Y-80759683D01*
X127951228Y-80746054D01*
X127957417Y-80732969D01*
X127964858Y-80720553D01*
X127973481Y-80708927D01*
X127983202Y-80698202D01*
X127993927Y-80688481D01*
X128005553Y-80679858D01*
X128017969Y-80672417D01*
X128031054Y-80666228D01*
X128044683Y-80661351D01*
X128058724Y-80657834D01*
X128073042Y-80655710D01*
X128087500Y-80655000D01*
X128382500Y-80655000D01*
X128396958Y-80655710D01*
X128396958Y-80655710D01*
G37*
D19*
G04 #@! TD*
G04 #@! TO.P,C14,1*
G04 #@! TO.N,Net-(C14-Pad1)*
X128235000Y-80975000D03*
D18*
G04 #@! TO.N,GND*
G04 #@! TO.C,C15*
G36*
X128921958Y-88705710D02*
X128936276Y-88707834D01*
X128950317Y-88711351D01*
X128963946Y-88716228D01*
X128977031Y-88722417D01*
X128989447Y-88729858D01*
X129001073Y-88738481D01*
X129011798Y-88748202D01*
X129021519Y-88758927D01*
X129030142Y-88770553D01*
X129037583Y-88782969D01*
X129043772Y-88796054D01*
X129048649Y-88809683D01*
X129052166Y-88823724D01*
X129054290Y-88838042D01*
X129055000Y-88852500D01*
X129055000Y-89197500D01*
X129054290Y-89211958D01*
X129052166Y-89226276D01*
X129048649Y-89240317D01*
X129043772Y-89253946D01*
X129037583Y-89267031D01*
X129030142Y-89279447D01*
X129021519Y-89291073D01*
X129011798Y-89301798D01*
X129001073Y-89311519D01*
X128989447Y-89320142D01*
X128977031Y-89327583D01*
X128963946Y-89333772D01*
X128950317Y-89338649D01*
X128936276Y-89342166D01*
X128921958Y-89344290D01*
X128907500Y-89345000D01*
X128612500Y-89345000D01*
X128598042Y-89344290D01*
X128583724Y-89342166D01*
X128569683Y-89338649D01*
X128556054Y-89333772D01*
X128542969Y-89327583D01*
X128530553Y-89320142D01*
X128518927Y-89311519D01*
X128508202Y-89301798D01*
X128498481Y-89291073D01*
X128489858Y-89279447D01*
X128482417Y-89267031D01*
X128476228Y-89253946D01*
X128471351Y-89240317D01*
X128467834Y-89226276D01*
X128465710Y-89211958D01*
X128465000Y-89197500D01*
X128465000Y-88852500D01*
X128465710Y-88838042D01*
X128467834Y-88823724D01*
X128471351Y-88809683D01*
X128476228Y-88796054D01*
X128482417Y-88782969D01*
X128489858Y-88770553D01*
X128498481Y-88758927D01*
X128508202Y-88748202D01*
X128518927Y-88738481D01*
X128530553Y-88729858D01*
X128542969Y-88722417D01*
X128556054Y-88716228D01*
X128569683Y-88711351D01*
X128583724Y-88707834D01*
X128598042Y-88705710D01*
X128612500Y-88705000D01*
X128907500Y-88705000D01*
X128921958Y-88705710D01*
X128921958Y-88705710D01*
G37*
D19*
G04 #@! TD*
G04 #@! TO.P,C15,2*
G04 #@! TO.N,GND*
X128760000Y-89025000D03*
D18*
G04 #@! TO.N,Net-(C15-Pad1)*
G04 #@! TO.C,C15*
G36*
X127951958Y-88705710D02*
X127966276Y-88707834D01*
X127980317Y-88711351D01*
X127993946Y-88716228D01*
X128007031Y-88722417D01*
X128019447Y-88729858D01*
X128031073Y-88738481D01*
X128041798Y-88748202D01*
X128051519Y-88758927D01*
X128060142Y-88770553D01*
X128067583Y-88782969D01*
X128073772Y-88796054D01*
X128078649Y-88809683D01*
X128082166Y-88823724D01*
X128084290Y-88838042D01*
X128085000Y-88852500D01*
X128085000Y-89197500D01*
X128084290Y-89211958D01*
X128082166Y-89226276D01*
X128078649Y-89240317D01*
X128073772Y-89253946D01*
X128067583Y-89267031D01*
X128060142Y-89279447D01*
X128051519Y-89291073D01*
X128041798Y-89301798D01*
X128031073Y-89311519D01*
X128019447Y-89320142D01*
X128007031Y-89327583D01*
X127993946Y-89333772D01*
X127980317Y-89338649D01*
X127966276Y-89342166D01*
X127951958Y-89344290D01*
X127937500Y-89345000D01*
X127642500Y-89345000D01*
X127628042Y-89344290D01*
X127613724Y-89342166D01*
X127599683Y-89338649D01*
X127586054Y-89333772D01*
X127572969Y-89327583D01*
X127560553Y-89320142D01*
X127548927Y-89311519D01*
X127538202Y-89301798D01*
X127528481Y-89291073D01*
X127519858Y-89279447D01*
X127512417Y-89267031D01*
X127506228Y-89253946D01*
X127501351Y-89240317D01*
X127497834Y-89226276D01*
X127495710Y-89211958D01*
X127495000Y-89197500D01*
X127495000Y-88852500D01*
X127495710Y-88838042D01*
X127497834Y-88823724D01*
X127501351Y-88809683D01*
X127506228Y-88796054D01*
X127512417Y-88782969D01*
X127519858Y-88770553D01*
X127528481Y-88758927D01*
X127538202Y-88748202D01*
X127548927Y-88738481D01*
X127560553Y-88729858D01*
X127572969Y-88722417D01*
X127586054Y-88716228D01*
X127599683Y-88711351D01*
X127613724Y-88707834D01*
X127628042Y-88705710D01*
X127642500Y-88705000D01*
X127937500Y-88705000D01*
X127951958Y-88705710D01*
X127951958Y-88705710D01*
G37*
D19*
G04 #@! TD*
G04 #@! TO.P,C15,1*
G04 #@! TO.N,Net-(C15-Pad1)*
X127790000Y-89025000D03*
D18*
G04 #@! TO.N,OLED_PULLUP*
G04 #@! TO.C,R10*
G36*
X128921958Y-84705710D02*
X128936276Y-84707834D01*
X128950317Y-84711351D01*
X128963946Y-84716228D01*
X128977031Y-84722417D01*
X128989447Y-84729858D01*
X129001073Y-84738481D01*
X129011798Y-84748202D01*
X129021519Y-84758927D01*
X129030142Y-84770553D01*
X129037583Y-84782969D01*
X129043772Y-84796054D01*
X129048649Y-84809683D01*
X129052166Y-84823724D01*
X129054290Y-84838042D01*
X129055000Y-84852500D01*
X129055000Y-85197500D01*
X129054290Y-85211958D01*
X129052166Y-85226276D01*
X129048649Y-85240317D01*
X129043772Y-85253946D01*
X129037583Y-85267031D01*
X129030142Y-85279447D01*
X129021519Y-85291073D01*
X129011798Y-85301798D01*
X129001073Y-85311519D01*
X128989447Y-85320142D01*
X128977031Y-85327583D01*
X128963946Y-85333772D01*
X128950317Y-85338649D01*
X128936276Y-85342166D01*
X128921958Y-85344290D01*
X128907500Y-85345000D01*
X128612500Y-85345000D01*
X128598042Y-85344290D01*
X128583724Y-85342166D01*
X128569683Y-85338649D01*
X128556054Y-85333772D01*
X128542969Y-85327583D01*
X128530553Y-85320142D01*
X128518927Y-85311519D01*
X128508202Y-85301798D01*
X128498481Y-85291073D01*
X128489858Y-85279447D01*
X128482417Y-85267031D01*
X128476228Y-85253946D01*
X128471351Y-85240317D01*
X128467834Y-85226276D01*
X128465710Y-85211958D01*
X128465000Y-85197500D01*
X128465000Y-84852500D01*
X128465710Y-84838042D01*
X128467834Y-84823724D01*
X128471351Y-84809683D01*
X128476228Y-84796054D01*
X128482417Y-84782969D01*
X128489858Y-84770553D01*
X128498481Y-84758927D01*
X128508202Y-84748202D01*
X128518927Y-84738481D01*
X128530553Y-84729858D01*
X128542969Y-84722417D01*
X128556054Y-84716228D01*
X128569683Y-84711351D01*
X128583724Y-84707834D01*
X128598042Y-84705710D01*
X128612500Y-84705000D01*
X128907500Y-84705000D01*
X128921958Y-84705710D01*
X128921958Y-84705710D01*
G37*
D19*
G04 #@! TD*
G04 #@! TO.P,R10,2*
G04 #@! TO.N,OLED_PULLUP*
X128760000Y-85025000D03*
D18*
G04 #@! TO.N,OLED_SCL*
G04 #@! TO.C,R10*
G36*
X127951958Y-84705710D02*
X127966276Y-84707834D01*
X127980317Y-84711351D01*
X127993946Y-84716228D01*
X128007031Y-84722417D01*
X128019447Y-84729858D01*
X128031073Y-84738481D01*
X128041798Y-84748202D01*
X128051519Y-84758927D01*
X128060142Y-84770553D01*
X128067583Y-84782969D01*
X128073772Y-84796054D01*
X128078649Y-84809683D01*
X128082166Y-84823724D01*
X128084290Y-84838042D01*
X128085000Y-84852500D01*
X128085000Y-85197500D01*
X128084290Y-85211958D01*
X128082166Y-85226276D01*
X128078649Y-85240317D01*
X128073772Y-85253946D01*
X128067583Y-85267031D01*
X128060142Y-85279447D01*
X128051519Y-85291073D01*
X128041798Y-85301798D01*
X128031073Y-85311519D01*
X128019447Y-85320142D01*
X128007031Y-85327583D01*
X127993946Y-85333772D01*
X127980317Y-85338649D01*
X127966276Y-85342166D01*
X127951958Y-85344290D01*
X127937500Y-85345000D01*
X127642500Y-85345000D01*
X127628042Y-85344290D01*
X127613724Y-85342166D01*
X127599683Y-85338649D01*
X127586054Y-85333772D01*
X127572969Y-85327583D01*
X127560553Y-85320142D01*
X127548927Y-85311519D01*
X127538202Y-85301798D01*
X127528481Y-85291073D01*
X127519858Y-85279447D01*
X127512417Y-85267031D01*
X127506228Y-85253946D01*
X127501351Y-85240317D01*
X127497834Y-85226276D01*
X127495710Y-85211958D01*
X127495000Y-85197500D01*
X127495000Y-84852500D01*
X127495710Y-84838042D01*
X127497834Y-84823724D01*
X127501351Y-84809683D01*
X127506228Y-84796054D01*
X127512417Y-84782969D01*
X127519858Y-84770553D01*
X127528481Y-84758927D01*
X127538202Y-84748202D01*
X127548927Y-84738481D01*
X127560553Y-84729858D01*
X127572969Y-84722417D01*
X127586054Y-84716228D01*
X127599683Y-84711351D01*
X127613724Y-84707834D01*
X127628042Y-84705710D01*
X127642500Y-84705000D01*
X127937500Y-84705000D01*
X127951958Y-84705710D01*
X127951958Y-84705710D01*
G37*
D19*
G04 #@! TD*
G04 #@! TO.P,R10,1*
G04 #@! TO.N,OLED_SCL*
X127790000Y-85025000D03*
D18*
G04 #@! TO.N,GND*
G04 #@! TO.C,R11*
G36*
X128921958Y-86705710D02*
X128936276Y-86707834D01*
X128950317Y-86711351D01*
X128963946Y-86716228D01*
X128977031Y-86722417D01*
X128989447Y-86729858D01*
X129001073Y-86738481D01*
X129011798Y-86748202D01*
X129021519Y-86758927D01*
X129030142Y-86770553D01*
X129037583Y-86782969D01*
X129043772Y-86796054D01*
X129048649Y-86809683D01*
X129052166Y-86823724D01*
X129054290Y-86838042D01*
X129055000Y-86852500D01*
X129055000Y-87197500D01*
X129054290Y-87211958D01*
X129052166Y-87226276D01*
X129048649Y-87240317D01*
X129043772Y-87253946D01*
X129037583Y-87267031D01*
X129030142Y-87279447D01*
X129021519Y-87291073D01*
X129011798Y-87301798D01*
X129001073Y-87311519D01*
X128989447Y-87320142D01*
X128977031Y-87327583D01*
X128963946Y-87333772D01*
X128950317Y-87338649D01*
X128936276Y-87342166D01*
X128921958Y-87344290D01*
X128907500Y-87345000D01*
X128612500Y-87345000D01*
X128598042Y-87344290D01*
X128583724Y-87342166D01*
X128569683Y-87338649D01*
X128556054Y-87333772D01*
X128542969Y-87327583D01*
X128530553Y-87320142D01*
X128518927Y-87311519D01*
X128508202Y-87301798D01*
X128498481Y-87291073D01*
X128489858Y-87279447D01*
X128482417Y-87267031D01*
X128476228Y-87253946D01*
X128471351Y-87240317D01*
X128467834Y-87226276D01*
X128465710Y-87211958D01*
X128465000Y-87197500D01*
X128465000Y-86852500D01*
X128465710Y-86838042D01*
X128467834Y-86823724D01*
X128471351Y-86809683D01*
X128476228Y-86796054D01*
X128482417Y-86782969D01*
X128489858Y-86770553D01*
X128498481Y-86758927D01*
X128508202Y-86748202D01*
X128518927Y-86738481D01*
X128530553Y-86729858D01*
X128542969Y-86722417D01*
X128556054Y-86716228D01*
X128569683Y-86711351D01*
X128583724Y-86707834D01*
X128598042Y-86705710D01*
X128612500Y-86705000D01*
X128907500Y-86705000D01*
X128921958Y-86705710D01*
X128921958Y-86705710D01*
G37*
D19*
G04 #@! TD*
G04 #@! TO.P,R11,2*
G04 #@! TO.N,GND*
X128760000Y-87025000D03*
D18*
G04 #@! TO.N,Net-(J2-Pad12)*
G04 #@! TO.C,R11*
G36*
X127951958Y-86705710D02*
X127966276Y-86707834D01*
X127980317Y-86711351D01*
X127993946Y-86716228D01*
X128007031Y-86722417D01*
X128019447Y-86729858D01*
X128031073Y-86738481D01*
X128041798Y-86748202D01*
X128051519Y-86758927D01*
X128060142Y-86770553D01*
X128067583Y-86782969D01*
X128073772Y-86796054D01*
X128078649Y-86809683D01*
X128082166Y-86823724D01*
X128084290Y-86838042D01*
X128085000Y-86852500D01*
X128085000Y-87197500D01*
X128084290Y-87211958D01*
X128082166Y-87226276D01*
X128078649Y-87240317D01*
X128073772Y-87253946D01*
X128067583Y-87267031D01*
X128060142Y-87279447D01*
X128051519Y-87291073D01*
X128041798Y-87301798D01*
X128031073Y-87311519D01*
X128019447Y-87320142D01*
X128007031Y-87327583D01*
X127993946Y-87333772D01*
X127980317Y-87338649D01*
X127966276Y-87342166D01*
X127951958Y-87344290D01*
X127937500Y-87345000D01*
X127642500Y-87345000D01*
X127628042Y-87344290D01*
X127613724Y-87342166D01*
X127599683Y-87338649D01*
X127586054Y-87333772D01*
X127572969Y-87327583D01*
X127560553Y-87320142D01*
X127548927Y-87311519D01*
X127538202Y-87301798D01*
X127528481Y-87291073D01*
X127519858Y-87279447D01*
X127512417Y-87267031D01*
X127506228Y-87253946D01*
X127501351Y-87240317D01*
X127497834Y-87226276D01*
X127495710Y-87211958D01*
X127495000Y-87197500D01*
X127495000Y-86852500D01*
X127495710Y-86838042D01*
X127497834Y-86823724D01*
X127501351Y-86809683D01*
X127506228Y-86796054D01*
X127512417Y-86782969D01*
X127519858Y-86770553D01*
X127528481Y-86758927D01*
X127538202Y-86748202D01*
X127548927Y-86738481D01*
X127560553Y-86729858D01*
X127572969Y-86722417D01*
X127586054Y-86716228D01*
X127599683Y-86711351D01*
X127613724Y-86707834D01*
X127628042Y-86705710D01*
X127642500Y-86705000D01*
X127937500Y-86705000D01*
X127951958Y-86705710D01*
X127951958Y-86705710D01*
G37*
D19*
G04 #@! TD*
G04 #@! TO.P,R11,1*
G04 #@! TO.N,Net-(J2-Pad12)*
X127790000Y-87025000D03*
D18*
G04 #@! TO.N,OLED_PULLUP*
G04 #@! TO.C,R13*
G36*
X128921958Y-85705710D02*
X128936276Y-85707834D01*
X128950317Y-85711351D01*
X128963946Y-85716228D01*
X128977031Y-85722417D01*
X128989447Y-85729858D01*
X129001073Y-85738481D01*
X129011798Y-85748202D01*
X129021519Y-85758927D01*
X129030142Y-85770553D01*
X129037583Y-85782969D01*
X129043772Y-85796054D01*
X129048649Y-85809683D01*
X129052166Y-85823724D01*
X129054290Y-85838042D01*
X129055000Y-85852500D01*
X129055000Y-86197500D01*
X129054290Y-86211958D01*
X129052166Y-86226276D01*
X129048649Y-86240317D01*
X129043772Y-86253946D01*
X129037583Y-86267031D01*
X129030142Y-86279447D01*
X129021519Y-86291073D01*
X129011798Y-86301798D01*
X129001073Y-86311519D01*
X128989447Y-86320142D01*
X128977031Y-86327583D01*
X128963946Y-86333772D01*
X128950317Y-86338649D01*
X128936276Y-86342166D01*
X128921958Y-86344290D01*
X128907500Y-86345000D01*
X128612500Y-86345000D01*
X128598042Y-86344290D01*
X128583724Y-86342166D01*
X128569683Y-86338649D01*
X128556054Y-86333772D01*
X128542969Y-86327583D01*
X128530553Y-86320142D01*
X128518927Y-86311519D01*
X128508202Y-86301798D01*
X128498481Y-86291073D01*
X128489858Y-86279447D01*
X128482417Y-86267031D01*
X128476228Y-86253946D01*
X128471351Y-86240317D01*
X128467834Y-86226276D01*
X128465710Y-86211958D01*
X128465000Y-86197500D01*
X128465000Y-85852500D01*
X128465710Y-85838042D01*
X128467834Y-85823724D01*
X128471351Y-85809683D01*
X128476228Y-85796054D01*
X128482417Y-85782969D01*
X128489858Y-85770553D01*
X128498481Y-85758927D01*
X128508202Y-85748202D01*
X128518927Y-85738481D01*
X128530553Y-85729858D01*
X128542969Y-85722417D01*
X128556054Y-85716228D01*
X128569683Y-85711351D01*
X128583724Y-85707834D01*
X128598042Y-85705710D01*
X128612500Y-85705000D01*
X128907500Y-85705000D01*
X128921958Y-85705710D01*
X128921958Y-85705710D01*
G37*
D19*
G04 #@! TD*
G04 #@! TO.P,R13,2*
G04 #@! TO.N,OLED_PULLUP*
X128760000Y-86025000D03*
D18*
G04 #@! TO.N,OLED_SDA*
G04 #@! TO.C,R13*
G36*
X127951958Y-85705710D02*
X127966276Y-85707834D01*
X127980317Y-85711351D01*
X127993946Y-85716228D01*
X128007031Y-85722417D01*
X128019447Y-85729858D01*
X128031073Y-85738481D01*
X128041798Y-85748202D01*
X128051519Y-85758927D01*
X128060142Y-85770553D01*
X128067583Y-85782969D01*
X128073772Y-85796054D01*
X128078649Y-85809683D01*
X128082166Y-85823724D01*
X128084290Y-85838042D01*
X128085000Y-85852500D01*
X128085000Y-86197500D01*
X128084290Y-86211958D01*
X128082166Y-86226276D01*
X128078649Y-86240317D01*
X128073772Y-86253946D01*
X128067583Y-86267031D01*
X128060142Y-86279447D01*
X128051519Y-86291073D01*
X128041798Y-86301798D01*
X128031073Y-86311519D01*
X128019447Y-86320142D01*
X128007031Y-86327583D01*
X127993946Y-86333772D01*
X127980317Y-86338649D01*
X127966276Y-86342166D01*
X127951958Y-86344290D01*
X127937500Y-86345000D01*
X127642500Y-86345000D01*
X127628042Y-86344290D01*
X127613724Y-86342166D01*
X127599683Y-86338649D01*
X127586054Y-86333772D01*
X127572969Y-86327583D01*
X127560553Y-86320142D01*
X127548927Y-86311519D01*
X127538202Y-86301798D01*
X127528481Y-86291073D01*
X127519858Y-86279447D01*
X127512417Y-86267031D01*
X127506228Y-86253946D01*
X127501351Y-86240317D01*
X127497834Y-86226276D01*
X127495710Y-86211958D01*
X127495000Y-86197500D01*
X127495000Y-85852500D01*
X127495710Y-85838042D01*
X127497834Y-85823724D01*
X127501351Y-85809683D01*
X127506228Y-85796054D01*
X127512417Y-85782969D01*
X127519858Y-85770553D01*
X127528481Y-85758927D01*
X127538202Y-85748202D01*
X127548927Y-85738481D01*
X127560553Y-85729858D01*
X127572969Y-85722417D01*
X127586054Y-85716228D01*
X127599683Y-85711351D01*
X127613724Y-85707834D01*
X127628042Y-85705710D01*
X127642500Y-85705000D01*
X127937500Y-85705000D01*
X127951958Y-85705710D01*
X127951958Y-85705710D01*
G37*
D19*
G04 #@! TD*
G04 #@! TO.P,R13,1*
G04 #@! TO.N,OLED_SDA*
X127790000Y-86025000D03*
D20*
G04 #@! TO.N,GND*
X98500000Y-82300000D03*
X117850000Y-83700000D03*
X116350000Y-83700000D03*
X117900000Y-82200000D03*
X116300000Y-82200000D03*
X97700000Y-82300000D03*
X97700000Y-83100000D03*
X98500000Y-83100000D03*
X110350000Y-82700000D03*
X110350000Y-87300000D03*
X105750000Y-87300000D03*
X156504168Y-84150000D03*
X146450000Y-88400000D03*
X147200000Y-88400000D03*
X147950000Y-88400000D03*
X148700000Y-88400000D03*
X142300000Y-85050000D03*
X136950000Y-85300000D03*
X98950000Y-86700000D03*
X92250000Y-82475000D03*
X93225000Y-87200000D03*
X119875000Y-89300000D03*
X105755086Y-82731010D03*
X133768990Y-83729792D03*
X112750000Y-84800000D03*
X129500000Y-87000000D03*
D21*
X126725000Y-84275000D03*
X140650000Y-86775000D03*
D20*
G04 #@! TO.N,OLED_PULLUP*
X114800000Y-84099996D03*
G04 #@! TO.N,OLED_SDA*
X119825000Y-85525000D03*
D21*
G04 #@! TO.N,VBUS*
X140600000Y-82200000D03*
X140600000Y-81400000D03*
X139800000Y-81400000D03*
X139800000Y-82200000D03*
X139000000Y-82200000D03*
X139000000Y-81400000D03*
X138200000Y-81400000D03*
X138200000Y-82200000D03*
D20*
X117900000Y-84900000D03*
X97900000Y-84800000D03*
X118586802Y-84887682D03*
D21*
X139800000Y-82960979D03*
X138200000Y-82960979D03*
X139000000Y-82960979D03*
X140600000Y-82960979D03*
D20*
G04 #@! TO.N,OLED_SCL*
X120650000Y-85625000D03*
G04 #@! TO.N,+3V3*
X155200000Y-87400000D03*
X142262500Y-88900000D03*
X94825000Y-81975000D03*
X97850000Y-85875000D03*
X104425000Y-80775000D03*
X116925000Y-89050000D03*
X115550000Y-89175000D03*
X112075000Y-88500000D03*
X106850000Y-80837052D03*
X118350000Y-80968990D03*
X117650000Y-80968990D03*
X116950000Y-80968990D03*
X117000000Y-84950000D03*
X101700000Y-87450000D03*
D21*
X131125000Y-88650000D03*
X123314163Y-83964163D03*
X122575000Y-81650000D03*
X123400000Y-85675000D03*
X140300000Y-85050000D03*
D20*
G04 #@! TO.N,SDA*
X102999992Y-84950000D03*
X103000000Y-86499994D03*
G04 #@! TO.N,CC2*
X95800000Y-86100000D03*
X97025000Y-84950000D03*
G04 #@! TO.N,CC1*
X95400000Y-82700000D03*
G04 #@! TO.N,Net-(SW1-Pad2)*
X103550000Y-82200000D03*
X135550000Y-82031010D03*
G04 #@! TO.N,SWDIO*
X109800000Y-89350000D03*
X115600000Y-87264021D03*
G04 #@! TO.N,PWM*
X119650000Y-86600000D03*
X130400000Y-87550000D03*
G04 #@! TO.N,TTIP*
X105350000Y-80650000D03*
X130123424Y-80653152D03*
G04 #@! TO.N,TREF*
X106139915Y-80546399D03*
X154800000Y-81650000D03*
G04 #@! TO.N,Net-(SW2-Pad2)*
X103500000Y-83050000D03*
X134600000Y-81118990D03*
X153850000Y-81029000D03*
G04 #@! TO.N,USB_P*
X91994527Y-85449994D03*
X92000000Y-83700000D03*
G04 #@! TO.N,USB_N*
X92000000Y-84600000D03*
G04 #@! TD*
D22*
G04 #@! TO.N,GND*
X89560000Y-82250000D02*
X89510000Y-82200000D01*
X90820000Y-82250000D02*
X89560000Y-82250000D01*
X89560000Y-87750000D02*
X89510000Y-87800000D01*
X90820000Y-87750000D02*
X89560000Y-87750000D01*
D23*
X128760000Y-89025000D02*
X128760000Y-87025000D01*
X128760000Y-87025000D02*
X129475000Y-87025000D01*
X129475000Y-87025000D02*
X129500000Y-87000000D01*
D22*
X125000000Y-84680000D02*
X126320000Y-84680000D01*
X126320000Y-84680000D02*
X126725000Y-84275000D01*
D23*
G04 #@! TO.N,OLED_PULLUP*
X129700000Y-81050000D02*
X128998990Y-80348990D01*
X128998990Y-80348990D02*
X126751010Y-80348990D01*
X128760000Y-86025000D02*
X128760000Y-85025000D01*
X129700000Y-84085000D02*
X128760000Y-85025000D01*
X129700000Y-81050000D02*
X129700000Y-84085000D01*
X115224264Y-84099996D02*
X114800000Y-84099996D01*
X115474267Y-84349999D02*
X115224264Y-84099996D01*
X118950001Y-84349999D02*
X115474267Y-84349999D01*
X126950000Y-80350000D02*
X122950000Y-80350000D01*
X122950000Y-80350000D02*
X118950001Y-84349999D01*
G04 #@! TO.N,OLED_SDA*
X120181001Y-86156001D02*
X119825000Y-85800000D01*
X122231001Y-86156001D02*
X120181001Y-86156001D01*
X125000000Y-87240000D02*
X123315000Y-87240000D01*
X119825000Y-85800000D02*
X119825000Y-85525000D01*
X123315000Y-87240000D02*
X122231001Y-86156001D01*
X126575000Y-87240000D02*
X127790000Y-86025000D01*
X125000000Y-87240000D02*
X126575000Y-87240000D01*
D22*
G04 #@! TO.N,VBUS*
X89560000Y-86250000D02*
X89510000Y-86200000D01*
X90820000Y-86250000D02*
X89560000Y-86250000D01*
X89560000Y-83750000D02*
X89510000Y-83800000D01*
X90820000Y-83750000D02*
X89560000Y-83750000D01*
D23*
G04 #@! TO.N,Net-(J2-Pad12)*
X126935000Y-87880000D02*
X127790000Y-87025000D01*
X125000000Y-87880000D02*
X126935000Y-87880000D01*
G04 #@! TO.N,OLED_SCL*
X123300000Y-86600000D02*
X122325000Y-85625000D01*
X122325000Y-85625000D02*
X121074264Y-85625000D01*
X125000000Y-86600000D02*
X123300000Y-86600000D01*
X121074264Y-85625000D02*
X120650000Y-85625000D01*
X126215000Y-86600000D02*
X127790000Y-85025000D01*
X125000000Y-86600000D02*
X126215000Y-86600000D01*
D22*
G04 #@! TO.N,+3V3*
X155200000Y-87400000D02*
X155200000Y-88350000D01*
X155200000Y-88350000D02*
X154550000Y-89000000D01*
X138425000Y-86075000D02*
X142575000Y-86075000D01*
X142575000Y-86554000D02*
X142250000Y-86879000D01*
X142575000Y-86075000D02*
X142575000Y-86554000D01*
X142250000Y-86879000D02*
X142250000Y-88900000D01*
X155371000Y-87075000D02*
X155250000Y-87196000D01*
X155850000Y-87075000D02*
X155371000Y-87075000D01*
X155250000Y-87196000D02*
X155250000Y-87350000D01*
X155250000Y-87350000D02*
X155200000Y-87300000D01*
X155850000Y-86396000D02*
X155850000Y-82925000D01*
X155850000Y-87075000D02*
X155850000Y-86396000D01*
X154550000Y-89000000D02*
X142350000Y-89000000D01*
X142350000Y-89000000D02*
X142250000Y-88900000D01*
X138425000Y-86075000D02*
X138075000Y-86075000D01*
X125000000Y-83400000D02*
X123750000Y-83400000D01*
X123750000Y-83400000D02*
X123625000Y-83400000D01*
X125000000Y-85320000D02*
X123630000Y-85320000D01*
X123630000Y-85320000D02*
X123625000Y-85325000D01*
X142262500Y-88900000D02*
X131375000Y-88900000D01*
X131375000Y-88900000D02*
X131125000Y-88650000D01*
X138425000Y-85500000D02*
X138425000Y-86075000D01*
X138875000Y-85050000D02*
X138425000Y-85500000D01*
X140300000Y-85050000D02*
X138875000Y-85050000D01*
D23*
G04 #@! TO.N,SDA*
X102999992Y-84950000D02*
X102999992Y-86499986D01*
X102999992Y-86499986D02*
X103000000Y-86499994D01*
G04 #@! TO.N,CC2*
X97025000Y-84975000D02*
X97025000Y-84950000D01*
X95800000Y-86100000D02*
X95900000Y-86100000D01*
X95900000Y-86100000D02*
X97025000Y-84975000D01*
G04 #@! TO.N,CC1*
X91324000Y-85750000D02*
X91774000Y-86200000D01*
X90820000Y-85750000D02*
X91324000Y-85750000D01*
X91774000Y-86200000D02*
X92700000Y-86200000D01*
X92700000Y-86200000D02*
X95400000Y-83500000D01*
X95400000Y-83500000D02*
X95400000Y-82700000D01*
G04 #@! TO.N,Net-(SW1-Pad2)*
X138425000Y-83925000D02*
X142575000Y-83925000D01*
X137443990Y-83925000D02*
X135849999Y-82331009D01*
X135849999Y-82331009D02*
X135550000Y-82031010D01*
X138425000Y-83925000D02*
X137443990Y-83925000D01*
G04 #@! TO.N,SWDIO*
X111885979Y-87264021D02*
X115175736Y-87264021D01*
X115175736Y-87264021D02*
X115600000Y-87264021D01*
X109800000Y-89350000D02*
X111885979Y-87264021D01*
D22*
G04 #@! TO.N,Net-(C14-Pad2)*
X127130000Y-80840000D02*
X127265000Y-80975000D01*
X125000000Y-80840000D02*
X127130000Y-80840000D01*
G04 #@! TO.N,Net-(C14-Pad1)*
X127900832Y-81309168D02*
X128235000Y-80975000D01*
X127635990Y-81574010D02*
X127900832Y-81309168D01*
X126344010Y-81574010D02*
X127635990Y-81574010D01*
X126250000Y-81480000D02*
X126344010Y-81574010D01*
X125000000Y-81480000D02*
X126250000Y-81480000D01*
G04 #@! TO.N,Net-(C12-Pad1)*
X127160000Y-82120000D02*
X127240000Y-82200000D01*
X125000000Y-82120000D02*
X127160000Y-82120000D01*
G04 #@! TO.N,Net-(C12-Pad2)*
X126250000Y-82760000D02*
X125000000Y-82760000D01*
X127610990Y-82799010D02*
X126289010Y-82799010D01*
X126289010Y-82799010D02*
X126250000Y-82760000D01*
X128210000Y-82200000D02*
X127610990Y-82799010D01*
D23*
G04 #@! TO.N,Net-(C13-Pad1)*
X127295000Y-88520000D02*
X127790000Y-88025000D01*
X125000000Y-88520000D02*
X127295000Y-88520000D01*
G04 #@! TO.N,Net-(C15-Pad1)*
X127655000Y-89160000D02*
X127790000Y-89025000D01*
X125000000Y-89160000D02*
X127655000Y-89160000D01*
G04 #@! TO.N,PWM*
X119650000Y-86600000D02*
X120900000Y-87850000D01*
X130400000Y-88525000D02*
X130400000Y-87974264D01*
X129313990Y-89611010D02*
X130400000Y-88525000D01*
X123476128Y-89611010D02*
X129313990Y-89611010D01*
X121715118Y-87850000D02*
X123476128Y-89611010D01*
X130400000Y-87974264D02*
X130400000Y-87550000D01*
X120900000Y-87850000D02*
X121715118Y-87850000D01*
G04 #@! TO.N,Net-(SW2-Pad2)*
X153700000Y-86396000D02*
X153700000Y-82925000D01*
X153700000Y-87075000D02*
X153700000Y-86396000D01*
X153850000Y-82775000D02*
X153700000Y-82925000D01*
X153850000Y-81029000D02*
X153850000Y-82775000D01*
G04 #@! TO.N,USB_P*
X91794533Y-85250000D02*
X91994527Y-85449994D01*
X92200000Y-83900000D02*
X92000000Y-83700000D01*
X92300000Y-83900000D02*
X92200000Y-83900000D01*
X92700000Y-84300000D02*
X92300000Y-83900000D01*
X90820000Y-85250000D02*
X91794533Y-85250000D01*
X92700000Y-85168785D02*
X92700000Y-84300000D01*
X92418791Y-85449994D02*
X92700000Y-85168785D01*
X91994527Y-85449994D02*
X92418791Y-85449994D01*
G04 #@! TO.N,USB_N*
X92000000Y-84600000D02*
X91850000Y-84750000D01*
X91850000Y-84750000D02*
X90820000Y-84750000D01*
G04 #@! TD*
D24*
G04 #@! TO.N,+3V3*
G36*
X104669000Y-80582927D02*
X104669000Y-80717073D01*
X104695171Y-80848640D01*
X104746506Y-80972574D01*
X104821033Y-81084112D01*
X104915888Y-81178967D01*
X105027426Y-81253494D01*
X105151360Y-81304829D01*
X105282927Y-81331000D01*
X105417073Y-81331000D01*
X105548640Y-81304829D01*
X105672574Y-81253494D01*
X105784112Y-81178967D01*
X105814850Y-81148229D01*
X105817341Y-81149893D01*
X105941275Y-81201228D01*
X106072842Y-81227399D01*
X106206988Y-81227399D01*
X106338555Y-81201228D01*
X106462489Y-81149893D01*
X106574027Y-81075366D01*
X106668882Y-80980511D01*
X106743409Y-80868973D01*
X106794744Y-80745039D01*
X106820915Y-80613472D01*
X106820915Y-80479326D01*
X106816275Y-80456000D01*
X122196290Y-80456000D01*
X118760292Y-83891999D01*
X118506150Y-83891999D01*
X118531000Y-83767073D01*
X118531000Y-83632927D01*
X118504829Y-83501360D01*
X118453494Y-83377426D01*
X118378967Y-83265888D01*
X118284112Y-83171033D01*
X118172574Y-83096506D01*
X118048640Y-83045171D01*
X117917073Y-83019000D01*
X117782927Y-83019000D01*
X117651360Y-83045171D01*
X117527426Y-83096506D01*
X117415888Y-83171033D01*
X117321033Y-83265888D01*
X117246506Y-83377426D01*
X117195171Y-83501360D01*
X117169000Y-83632927D01*
X117169000Y-83767073D01*
X117193850Y-83891999D01*
X117006150Y-83891999D01*
X117031000Y-83767073D01*
X117031000Y-83632927D01*
X117004829Y-83501360D01*
X116953494Y-83377426D01*
X116878967Y-83265888D01*
X116784112Y-83171033D01*
X116672574Y-83096506D01*
X116548640Y-83045171D01*
X116417073Y-83019000D01*
X116282927Y-83019000D01*
X116151360Y-83045171D01*
X116027426Y-83096506D01*
X115915888Y-83171033D01*
X115821033Y-83265888D01*
X115746506Y-83377426D01*
X115695171Y-83501360D01*
X115669000Y-83632927D01*
X115669000Y-83767073D01*
X115693850Y-83891999D01*
X115663976Y-83891999D01*
X115564033Y-83792056D01*
X115549686Y-83774574D01*
X115479946Y-83717340D01*
X115400381Y-83674812D01*
X115314048Y-83648623D01*
X115311450Y-83648367D01*
X115234112Y-83571029D01*
X115122574Y-83496502D01*
X114998640Y-83445167D01*
X114867073Y-83418996D01*
X114732927Y-83418996D01*
X114601360Y-83445167D01*
X114477426Y-83496502D01*
X114365888Y-83571029D01*
X114271033Y-83665884D01*
X114196506Y-83777422D01*
X114145171Y-83901356D01*
X114119000Y-84032923D01*
X114119000Y-84167069D01*
X114145171Y-84298636D01*
X114196506Y-84422570D01*
X114271033Y-84534108D01*
X114365888Y-84628963D01*
X114477426Y-84703490D01*
X114601360Y-84754825D01*
X114732927Y-84780996D01*
X114867073Y-84780996D01*
X114998640Y-84754825D01*
X115122574Y-84703490D01*
X115155908Y-84681217D01*
X115218585Y-84732655D01*
X115253580Y-84751360D01*
X115298150Y-84775183D01*
X115384483Y-84801372D01*
X115474267Y-84810215D01*
X115496766Y-84807999D01*
X117223959Y-84807999D01*
X117219000Y-84832927D01*
X117219000Y-84967073D01*
X117245171Y-85098640D01*
X117296506Y-85222574D01*
X117371033Y-85334112D01*
X117465888Y-85428967D01*
X117577426Y-85503494D01*
X117701360Y-85554829D01*
X117832927Y-85581000D01*
X117967073Y-85581000D01*
X118098640Y-85554829D01*
X118222574Y-85503494D01*
X118252619Y-85483419D01*
X118264228Y-85491176D01*
X118388162Y-85542511D01*
X118519729Y-85568682D01*
X118653875Y-85568682D01*
X118785442Y-85542511D01*
X118909376Y-85491176D01*
X119020914Y-85416649D01*
X119115769Y-85321794D01*
X119190296Y-85210256D01*
X119241631Y-85086322D01*
X119267802Y-84954755D01*
X119267802Y-84820609D01*
X119244044Y-84701173D01*
X119275423Y-84675421D01*
X119289770Y-84657939D01*
X123139710Y-80808000D01*
X123617157Y-80808000D01*
X123617157Y-81000000D01*
X123624513Y-81074689D01*
X123646299Y-81146508D01*
X123653511Y-81160000D01*
X123646299Y-81173492D01*
X123624513Y-81245311D01*
X123617157Y-81320000D01*
X123617157Y-81640000D01*
X123624513Y-81714689D01*
X123646299Y-81786508D01*
X123653511Y-81800000D01*
X123646299Y-81813492D01*
X123624513Y-81885311D01*
X123617157Y-81960000D01*
X123617157Y-82280000D01*
X123624513Y-82354689D01*
X123646299Y-82426508D01*
X123653511Y-82440000D01*
X123646299Y-82453492D01*
X123624513Y-82525311D01*
X123617157Y-82600000D01*
X123617157Y-82920000D01*
X123624513Y-82994689D01*
X123646299Y-83066508D01*
X123681678Y-83132696D01*
X123729289Y-83190711D01*
X123787304Y-83238322D01*
X123853492Y-83273701D01*
X123925311Y-83295487D01*
X124000000Y-83302843D01*
X124473000Y-83302843D01*
X124473000Y-83497157D01*
X124000000Y-83497157D01*
X123925311Y-83504513D01*
X123853492Y-83526299D01*
X123787304Y-83561678D01*
X123729289Y-83609289D01*
X123681678Y-83667304D01*
X123646299Y-83733492D01*
X123624513Y-83805311D01*
X123617157Y-83880000D01*
X123617157Y-84200000D01*
X123624513Y-84274689D01*
X123646299Y-84346508D01*
X123653511Y-84360000D01*
X123646299Y-84373492D01*
X123624513Y-84445311D01*
X123617157Y-84520000D01*
X123617157Y-84840000D01*
X123624513Y-84914689D01*
X123646299Y-84986508D01*
X123681678Y-85052696D01*
X123729289Y-85110711D01*
X123787304Y-85158322D01*
X123853492Y-85193701D01*
X123925311Y-85215487D01*
X124000000Y-85222843D01*
X124473000Y-85222843D01*
X124473000Y-85417157D01*
X124000000Y-85417157D01*
X123925311Y-85424513D01*
X123853492Y-85446299D01*
X123787304Y-85481678D01*
X123729289Y-85529289D01*
X123681678Y-85587304D01*
X123646299Y-85653492D01*
X123624513Y-85725311D01*
X123617157Y-85800000D01*
X123617157Y-86120000D01*
X123619324Y-86142000D01*
X123489709Y-86142000D01*
X122664769Y-85317060D01*
X122650422Y-85299578D01*
X122580682Y-85242344D01*
X122501117Y-85199816D01*
X122414784Y-85173627D01*
X122347499Y-85167000D01*
X122325000Y-85164784D01*
X122302501Y-85167000D01*
X121155079Y-85167000D01*
X121084112Y-85096033D01*
X120972574Y-85021506D01*
X120848640Y-84970171D01*
X120717073Y-84944000D01*
X120582927Y-84944000D01*
X120451360Y-84970171D01*
X120327426Y-85021506D01*
X120301745Y-85038666D01*
X120259112Y-84996033D01*
X120147574Y-84921506D01*
X120023640Y-84870171D01*
X119892073Y-84844000D01*
X119757927Y-84844000D01*
X119626360Y-84870171D01*
X119502426Y-84921506D01*
X119390888Y-84996033D01*
X119296033Y-85090888D01*
X119221506Y-85202426D01*
X119170171Y-85326360D01*
X119144000Y-85457927D01*
X119144000Y-85592073D01*
X119170171Y-85723640D01*
X119221506Y-85847574D01*
X119296033Y-85959112D01*
X119331669Y-85994748D01*
X119327426Y-85996506D01*
X119215888Y-86071033D01*
X119121033Y-86165888D01*
X119046506Y-86277426D01*
X118995171Y-86401360D01*
X118969000Y-86532927D01*
X118969000Y-86667073D01*
X118995171Y-86798640D01*
X119046506Y-86922574D01*
X119121033Y-87034112D01*
X119215888Y-87128967D01*
X119327426Y-87203494D01*
X119451360Y-87254829D01*
X119582927Y-87281000D01*
X119683291Y-87281000D01*
X120560235Y-88157945D01*
X120574578Y-88175422D01*
X120644318Y-88232656D01*
X120681811Y-88252696D01*
X120723883Y-88275184D01*
X120810215Y-88301373D01*
X120900000Y-88310216D01*
X120922499Y-88308000D01*
X121014454Y-88308000D01*
X121008010Y-88312306D01*
X120886306Y-88434010D01*
X120790684Y-88577119D01*
X120724818Y-88736134D01*
X120691240Y-88904942D01*
X120691240Y-89077058D01*
X120724818Y-89245866D01*
X120790684Y-89404881D01*
X120883640Y-89544000D01*
X120511040Y-89544000D01*
X120529829Y-89498640D01*
X120556000Y-89367073D01*
X120556000Y-89232927D01*
X120529829Y-89101360D01*
X120478494Y-88977426D01*
X120403967Y-88865888D01*
X120309112Y-88771033D01*
X120197574Y-88696506D01*
X120073640Y-88645171D01*
X119942073Y-88619000D01*
X119807927Y-88619000D01*
X119676360Y-88645171D01*
X119552426Y-88696506D01*
X119440888Y-88771033D01*
X119346033Y-88865888D01*
X119271506Y-88977426D01*
X119220171Y-89101360D01*
X119194000Y-89232927D01*
X119194000Y-89367073D01*
X119220171Y-89498640D01*
X119238960Y-89544000D01*
X110455752Y-89544000D01*
X110481000Y-89417073D01*
X110481000Y-89316709D01*
X112075689Y-87722021D01*
X115094921Y-87722021D01*
X115165888Y-87792988D01*
X115277426Y-87867515D01*
X115401360Y-87918850D01*
X115532927Y-87945021D01*
X115609970Y-87945021D01*
X115609970Y-88061183D01*
X115643597Y-88230237D01*
X115709558Y-88389482D01*
X115805320Y-88532799D01*
X115927201Y-88654680D01*
X116070518Y-88750442D01*
X116229763Y-88816403D01*
X116398817Y-88850030D01*
X116571183Y-88850030D01*
X116740237Y-88816403D01*
X116899482Y-88750442D01*
X117042799Y-88654680D01*
X117164680Y-88532799D01*
X117260442Y-88389482D01*
X117326403Y-88230237D01*
X117360030Y-88061183D01*
X117360030Y-87888817D01*
X117326403Y-87719763D01*
X117260442Y-87560518D01*
X117164680Y-87417201D01*
X117042799Y-87295320D01*
X116899482Y-87199558D01*
X116740237Y-87133597D01*
X116571183Y-87099970D01*
X116398817Y-87099970D01*
X116266928Y-87126204D01*
X116254829Y-87065381D01*
X116203494Y-86941447D01*
X116128967Y-86829909D01*
X116034112Y-86735054D01*
X115922574Y-86660527D01*
X115798640Y-86609192D01*
X115667073Y-86583021D01*
X115532927Y-86583021D01*
X115401360Y-86609192D01*
X115277426Y-86660527D01*
X115165888Y-86735054D01*
X115094921Y-86806021D01*
X111908478Y-86806021D01*
X111885979Y-86803805D01*
X111796194Y-86812648D01*
X111763493Y-86822568D01*
X111709862Y-86838837D01*
X111630297Y-86881365D01*
X111560557Y-86938599D01*
X111546214Y-86956076D01*
X111005122Y-87497169D01*
X111031000Y-87367073D01*
X111031000Y-87232927D01*
X111004829Y-87101360D01*
X110953494Y-86977426D01*
X110878967Y-86865888D01*
X110784112Y-86771033D01*
X110672574Y-86696506D01*
X110548640Y-86645171D01*
X110417073Y-86619000D01*
X110282927Y-86619000D01*
X110151360Y-86645171D01*
X110027426Y-86696506D01*
X109915888Y-86771033D01*
X109821033Y-86865888D01*
X109746506Y-86977426D01*
X109695171Y-87101360D01*
X109669000Y-87232927D01*
X109669000Y-87367073D01*
X109695171Y-87498640D01*
X109746506Y-87622574D01*
X109821033Y-87734112D01*
X109915888Y-87828967D01*
X110027426Y-87903494D01*
X110151360Y-87954829D01*
X110282927Y-87981000D01*
X110417073Y-87981000D01*
X110547169Y-87955122D01*
X109833291Y-88669000D01*
X109732927Y-88669000D01*
X109601360Y-88695171D01*
X109477426Y-88746506D01*
X109365888Y-88821033D01*
X109271033Y-88915888D01*
X109196506Y-89027426D01*
X109145171Y-89151360D01*
X109119000Y-89282927D01*
X109119000Y-89417073D01*
X109144248Y-89544000D01*
X93652000Y-89544000D01*
X93652000Y-87733719D01*
X93659112Y-87728967D01*
X93753967Y-87634112D01*
X93828494Y-87522574D01*
X93879829Y-87398640D01*
X93906000Y-87267073D01*
X93906000Y-87132927D01*
X93879829Y-87001360D01*
X93828494Y-86877426D01*
X93753967Y-86765888D01*
X93659112Y-86671033D01*
X93652000Y-86666281D01*
X93652000Y-86032927D01*
X95119000Y-86032927D01*
X95119000Y-86167073D01*
X95145171Y-86298640D01*
X95196506Y-86422574D01*
X95271033Y-86534112D01*
X95365888Y-86628967D01*
X95477426Y-86703494D01*
X95601360Y-86754829D01*
X95732927Y-86781000D01*
X95867073Y-86781000D01*
X95998640Y-86754829D01*
X96122574Y-86703494D01*
X96228185Y-86632927D01*
X98269000Y-86632927D01*
X98269000Y-86767073D01*
X98295171Y-86898640D01*
X98346506Y-87022574D01*
X98421033Y-87134112D01*
X98515888Y-87228967D01*
X98627426Y-87303494D01*
X98751360Y-87354829D01*
X98882927Y-87381000D01*
X99017073Y-87381000D01*
X99148640Y-87354829D01*
X99272574Y-87303494D01*
X99378185Y-87232927D01*
X105069000Y-87232927D01*
X105069000Y-87367073D01*
X105095171Y-87498640D01*
X105146506Y-87622574D01*
X105221033Y-87734112D01*
X105315888Y-87828967D01*
X105427426Y-87903494D01*
X105551360Y-87954829D01*
X105682927Y-87981000D01*
X105817073Y-87981000D01*
X105948640Y-87954829D01*
X106072574Y-87903494D01*
X106184112Y-87828967D01*
X106278967Y-87734112D01*
X106353494Y-87622574D01*
X106404829Y-87498640D01*
X106431000Y-87367073D01*
X106431000Y-87232927D01*
X106404829Y-87101360D01*
X106353494Y-86977426D01*
X106278967Y-86865888D01*
X106184112Y-86771033D01*
X106072574Y-86696506D01*
X105948640Y-86645171D01*
X105817073Y-86619000D01*
X105682927Y-86619000D01*
X105551360Y-86645171D01*
X105427426Y-86696506D01*
X105315888Y-86771033D01*
X105221033Y-86865888D01*
X105146506Y-86977426D01*
X105095171Y-87101360D01*
X105069000Y-87232927D01*
X99378185Y-87232927D01*
X99384112Y-87228967D01*
X99478967Y-87134112D01*
X99553494Y-87022574D01*
X99604829Y-86898640D01*
X99631000Y-86767073D01*
X99631000Y-86632927D01*
X99604829Y-86501360D01*
X99553494Y-86377426D01*
X99478967Y-86265888D01*
X99384112Y-86171033D01*
X99272574Y-86096506D01*
X99148640Y-86045171D01*
X99017073Y-86019000D01*
X98882927Y-86019000D01*
X98751360Y-86045171D01*
X98627426Y-86096506D01*
X98515888Y-86171033D01*
X98421033Y-86265888D01*
X98346506Y-86377426D01*
X98295171Y-86501360D01*
X98269000Y-86632927D01*
X96228185Y-86632927D01*
X96234112Y-86628967D01*
X96328967Y-86534112D01*
X96403494Y-86422574D01*
X96454829Y-86298640D01*
X96481000Y-86167073D01*
X96481000Y-86166709D01*
X97016709Y-85631000D01*
X97092073Y-85631000D01*
X97223640Y-85604829D01*
X97347574Y-85553494D01*
X97459112Y-85478967D01*
X97551745Y-85386334D01*
X97577426Y-85403494D01*
X97701360Y-85454829D01*
X97832927Y-85481000D01*
X97967073Y-85481000D01*
X98098640Y-85454829D01*
X98222574Y-85403494D01*
X98334112Y-85328967D01*
X98428967Y-85234112D01*
X98503494Y-85122574D01*
X98554829Y-84998640D01*
X98577846Y-84882927D01*
X102318992Y-84882927D01*
X102318992Y-85017073D01*
X102345163Y-85148640D01*
X102396498Y-85272574D01*
X102471025Y-85384112D01*
X102541992Y-85455079D01*
X102541993Y-85994922D01*
X102471033Y-86065882D01*
X102396506Y-86177420D01*
X102345171Y-86301354D01*
X102319000Y-86432921D01*
X102319000Y-86567067D01*
X102345171Y-86698634D01*
X102396506Y-86822568D01*
X102471033Y-86934106D01*
X102565888Y-87028961D01*
X102677426Y-87103488D01*
X102801360Y-87154823D01*
X102932927Y-87180994D01*
X103067073Y-87180994D01*
X103198640Y-87154823D01*
X103322574Y-87103488D01*
X103434112Y-87028961D01*
X103528967Y-86934106D01*
X103603494Y-86822568D01*
X103654829Y-86698634D01*
X103681000Y-86567067D01*
X103681000Y-86432921D01*
X103654829Y-86301354D01*
X103603494Y-86177420D01*
X103528967Y-86065882D01*
X103457992Y-85994907D01*
X103457992Y-85455079D01*
X103528959Y-85384112D01*
X103603486Y-85272574D01*
X103654821Y-85148640D01*
X103680992Y-85017073D01*
X103680992Y-84882927D01*
X103654821Y-84751360D01*
X103647186Y-84732927D01*
X112069000Y-84732927D01*
X112069000Y-84867073D01*
X112095171Y-84998640D01*
X112146506Y-85122574D01*
X112221033Y-85234112D01*
X112315888Y-85328967D01*
X112427426Y-85403494D01*
X112551360Y-85454829D01*
X112682927Y-85481000D01*
X112817073Y-85481000D01*
X112948640Y-85454829D01*
X113072574Y-85403494D01*
X113184112Y-85328967D01*
X113278967Y-85234112D01*
X113353494Y-85122574D01*
X113404829Y-84998640D01*
X113431000Y-84867073D01*
X113431000Y-84732927D01*
X113404829Y-84601360D01*
X113353494Y-84477426D01*
X113278967Y-84365888D01*
X113184112Y-84271033D01*
X113072574Y-84196506D01*
X112948640Y-84145171D01*
X112817073Y-84119000D01*
X112682927Y-84119000D01*
X112551360Y-84145171D01*
X112427426Y-84196506D01*
X112315888Y-84271033D01*
X112221033Y-84365888D01*
X112146506Y-84477426D01*
X112095171Y-84601360D01*
X112069000Y-84732927D01*
X103647186Y-84732927D01*
X103603486Y-84627426D01*
X103528959Y-84515888D01*
X103434104Y-84421033D01*
X103322566Y-84346506D01*
X103198632Y-84295171D01*
X103067065Y-84269000D01*
X102932919Y-84269000D01*
X102801352Y-84295171D01*
X102677418Y-84346506D01*
X102565880Y-84421033D01*
X102471025Y-84515888D01*
X102396498Y-84627426D01*
X102345163Y-84751360D01*
X102318992Y-84882927D01*
X98577846Y-84882927D01*
X98581000Y-84867073D01*
X98581000Y-84732927D01*
X98554829Y-84601360D01*
X98503494Y-84477426D01*
X98428967Y-84365888D01*
X98334112Y-84271033D01*
X98222574Y-84196506D01*
X98098640Y-84145171D01*
X97967073Y-84119000D01*
X97832927Y-84119000D01*
X97701360Y-84145171D01*
X97577426Y-84196506D01*
X97465888Y-84271033D01*
X97373255Y-84363666D01*
X97347574Y-84346506D01*
X97223640Y-84295171D01*
X97092073Y-84269000D01*
X96957927Y-84269000D01*
X96826360Y-84295171D01*
X96702426Y-84346506D01*
X96590888Y-84421033D01*
X96496033Y-84515888D01*
X96421506Y-84627426D01*
X96370171Y-84751360D01*
X96344000Y-84882927D01*
X96344000Y-85008291D01*
X95922304Y-85429987D01*
X95867073Y-85419000D01*
X95732927Y-85419000D01*
X95601360Y-85445171D01*
X95477426Y-85496506D01*
X95365888Y-85571033D01*
X95271033Y-85665888D01*
X95196506Y-85777426D01*
X95145171Y-85901360D01*
X95119000Y-86032927D01*
X93652000Y-86032927D01*
X93652000Y-85895709D01*
X95707946Y-83839764D01*
X95725422Y-83825422D01*
X95782656Y-83755682D01*
X95825184Y-83676117D01*
X95851373Y-83589784D01*
X95858000Y-83522499D01*
X95858000Y-83522498D01*
X95860216Y-83500000D01*
X95858000Y-83477501D01*
X95858000Y-83205079D01*
X95928967Y-83134112D01*
X96003494Y-83022574D01*
X96054829Y-82898640D01*
X96081000Y-82767073D01*
X96081000Y-82632927D01*
X96054829Y-82501360D01*
X96003494Y-82377426D01*
X95928967Y-82265888D01*
X95896006Y-82232927D01*
X97019000Y-82232927D01*
X97019000Y-82367073D01*
X97045171Y-82498640D01*
X97096506Y-82622574D01*
X97148240Y-82700000D01*
X97096506Y-82777426D01*
X97045171Y-82901360D01*
X97019000Y-83032927D01*
X97019000Y-83167073D01*
X97045171Y-83298640D01*
X97096506Y-83422574D01*
X97171033Y-83534112D01*
X97265888Y-83628967D01*
X97377426Y-83703494D01*
X97501360Y-83754829D01*
X97632927Y-83781000D01*
X97767073Y-83781000D01*
X97898640Y-83754829D01*
X98022574Y-83703494D01*
X98100000Y-83651760D01*
X98177426Y-83703494D01*
X98301360Y-83754829D01*
X98432927Y-83781000D01*
X98567073Y-83781000D01*
X98698640Y-83754829D01*
X98822574Y-83703494D01*
X98934112Y-83628967D01*
X99028967Y-83534112D01*
X99103494Y-83422574D01*
X99154829Y-83298640D01*
X99181000Y-83167073D01*
X99181000Y-83032927D01*
X99171055Y-82982927D01*
X102819000Y-82982927D01*
X102819000Y-83117073D01*
X102845171Y-83248640D01*
X102896506Y-83372574D01*
X102971033Y-83484112D01*
X103065888Y-83578967D01*
X103177426Y-83653494D01*
X103301360Y-83704829D01*
X103432927Y-83731000D01*
X103567073Y-83731000D01*
X103698640Y-83704829D01*
X103822574Y-83653494D01*
X103934112Y-83578967D01*
X104028967Y-83484112D01*
X104103494Y-83372574D01*
X104154829Y-83248640D01*
X104181000Y-83117073D01*
X104181000Y-82982927D01*
X104154829Y-82851360D01*
X104103494Y-82727426D01*
X104061073Y-82663937D01*
X105074086Y-82663937D01*
X105074086Y-82798083D01*
X105100257Y-82929650D01*
X105151592Y-83053584D01*
X105226119Y-83165122D01*
X105320974Y-83259977D01*
X105432512Y-83334504D01*
X105556446Y-83385839D01*
X105688013Y-83412010D01*
X105822159Y-83412010D01*
X105953726Y-83385839D01*
X106077660Y-83334504D01*
X106189198Y-83259977D01*
X106284053Y-83165122D01*
X106358580Y-83053584D01*
X106409915Y-82929650D01*
X106436086Y-82798083D01*
X106436086Y-82663937D01*
X106429918Y-82632927D01*
X109669000Y-82632927D01*
X109669000Y-82767073D01*
X109695171Y-82898640D01*
X109746506Y-83022574D01*
X109821033Y-83134112D01*
X109915888Y-83228967D01*
X110027426Y-83303494D01*
X110151360Y-83354829D01*
X110282927Y-83381000D01*
X110417073Y-83381000D01*
X110548640Y-83354829D01*
X110672574Y-83303494D01*
X110784112Y-83228967D01*
X110878967Y-83134112D01*
X110953494Y-83022574D01*
X111004829Y-82898640D01*
X111031000Y-82767073D01*
X111031000Y-82632927D01*
X111004829Y-82501360D01*
X110953494Y-82377426D01*
X110878967Y-82265888D01*
X110784112Y-82171033D01*
X110727083Y-82132927D01*
X115619000Y-82132927D01*
X115619000Y-82267073D01*
X115645171Y-82398640D01*
X115696506Y-82522574D01*
X115771033Y-82634112D01*
X115865888Y-82728967D01*
X115977426Y-82803494D01*
X116101360Y-82854829D01*
X116232927Y-82881000D01*
X116367073Y-82881000D01*
X116498640Y-82854829D01*
X116622574Y-82803494D01*
X116734112Y-82728967D01*
X116828967Y-82634112D01*
X116903494Y-82522574D01*
X116954829Y-82398640D01*
X116981000Y-82267073D01*
X116981000Y-82132927D01*
X117219000Y-82132927D01*
X117219000Y-82267073D01*
X117245171Y-82398640D01*
X117296506Y-82522574D01*
X117371033Y-82634112D01*
X117465888Y-82728967D01*
X117577426Y-82803494D01*
X117701360Y-82854829D01*
X117832927Y-82881000D01*
X117967073Y-82881000D01*
X118098640Y-82854829D01*
X118222574Y-82803494D01*
X118334112Y-82728967D01*
X118428967Y-82634112D01*
X118503494Y-82522574D01*
X118554829Y-82398640D01*
X118581000Y-82267073D01*
X118581000Y-82132927D01*
X118554829Y-82001360D01*
X118503494Y-81877426D01*
X118428967Y-81765888D01*
X118334112Y-81671033D01*
X118222574Y-81596506D01*
X118098640Y-81545171D01*
X117967073Y-81519000D01*
X117832927Y-81519000D01*
X117701360Y-81545171D01*
X117577426Y-81596506D01*
X117465888Y-81671033D01*
X117371033Y-81765888D01*
X117296506Y-81877426D01*
X117245171Y-82001360D01*
X117219000Y-82132927D01*
X116981000Y-82132927D01*
X116954829Y-82001360D01*
X116903494Y-81877426D01*
X116828967Y-81765888D01*
X116734112Y-81671033D01*
X116622574Y-81596506D01*
X116498640Y-81545171D01*
X116367073Y-81519000D01*
X116232927Y-81519000D01*
X116101360Y-81545171D01*
X115977426Y-81596506D01*
X115865888Y-81671033D01*
X115771033Y-81765888D01*
X115696506Y-81877426D01*
X115645171Y-82001360D01*
X115619000Y-82132927D01*
X110727083Y-82132927D01*
X110672574Y-82096506D01*
X110548640Y-82045171D01*
X110417073Y-82019000D01*
X110282927Y-82019000D01*
X110151360Y-82045171D01*
X110027426Y-82096506D01*
X109915888Y-82171033D01*
X109821033Y-82265888D01*
X109746506Y-82377426D01*
X109695171Y-82501360D01*
X109669000Y-82632927D01*
X106429918Y-82632927D01*
X106409915Y-82532370D01*
X106358580Y-82408436D01*
X106284053Y-82296898D01*
X106189198Y-82202043D01*
X106077660Y-82127516D01*
X105953726Y-82076181D01*
X105822159Y-82050010D01*
X105688013Y-82050010D01*
X105556446Y-82076181D01*
X105432512Y-82127516D01*
X105320974Y-82202043D01*
X105226119Y-82296898D01*
X105151592Y-82408436D01*
X105100257Y-82532370D01*
X105074086Y-82663937D01*
X104061073Y-82663937D01*
X104056294Y-82656785D01*
X104078967Y-82634112D01*
X104153494Y-82522574D01*
X104204829Y-82398640D01*
X104231000Y-82267073D01*
X104231000Y-82132927D01*
X104204829Y-82001360D01*
X104153494Y-81877426D01*
X104078967Y-81765888D01*
X103984112Y-81671033D01*
X103872574Y-81596506D01*
X103748640Y-81545171D01*
X103617073Y-81519000D01*
X103482927Y-81519000D01*
X103351360Y-81545171D01*
X103227426Y-81596506D01*
X103115888Y-81671033D01*
X103021033Y-81765888D01*
X102946506Y-81877426D01*
X102895171Y-82001360D01*
X102869000Y-82132927D01*
X102869000Y-82267073D01*
X102895171Y-82398640D01*
X102946506Y-82522574D01*
X102993706Y-82593215D01*
X102971033Y-82615888D01*
X102896506Y-82727426D01*
X102845171Y-82851360D01*
X102819000Y-82982927D01*
X99171055Y-82982927D01*
X99154829Y-82901360D01*
X99103494Y-82777426D01*
X99051760Y-82700000D01*
X99103494Y-82622574D01*
X99154829Y-82498640D01*
X99181000Y-82367073D01*
X99181000Y-82232927D01*
X99154829Y-82101360D01*
X99103494Y-81977426D01*
X99028967Y-81865888D01*
X98934112Y-81771033D01*
X98822574Y-81696506D01*
X98698640Y-81645171D01*
X98567073Y-81619000D01*
X98432927Y-81619000D01*
X98301360Y-81645171D01*
X98177426Y-81696506D01*
X98100000Y-81748240D01*
X98022574Y-81696506D01*
X97898640Y-81645171D01*
X97767073Y-81619000D01*
X97632927Y-81619000D01*
X97501360Y-81645171D01*
X97377426Y-81696506D01*
X97265888Y-81771033D01*
X97171033Y-81865888D01*
X97096506Y-81977426D01*
X97045171Y-82101360D01*
X97019000Y-82232927D01*
X95896006Y-82232927D01*
X95834112Y-82171033D01*
X95722574Y-82096506D01*
X95598640Y-82045171D01*
X95467073Y-82019000D01*
X95332927Y-82019000D01*
X95201360Y-82045171D01*
X95077426Y-82096506D01*
X94965888Y-82171033D01*
X94871033Y-82265888D01*
X94796506Y-82377426D01*
X94745171Y-82501360D01*
X94719000Y-82632927D01*
X94719000Y-82767073D01*
X94745171Y-82898640D01*
X94796506Y-83022574D01*
X94871033Y-83134112D01*
X94942000Y-83205079D01*
X94942000Y-83310290D01*
X93652000Y-84600290D01*
X93652000Y-80456000D01*
X104694248Y-80456000D01*
X104669000Y-80582927D01*
X104669000Y-80582927D01*
G37*
X104669000Y-80582927D02*
X104669000Y-80717073D01*
X104695171Y-80848640D01*
X104746506Y-80972574D01*
X104821033Y-81084112D01*
X104915888Y-81178967D01*
X105027426Y-81253494D01*
X105151360Y-81304829D01*
X105282927Y-81331000D01*
X105417073Y-81331000D01*
X105548640Y-81304829D01*
X105672574Y-81253494D01*
X105784112Y-81178967D01*
X105814850Y-81148229D01*
X105817341Y-81149893D01*
X105941275Y-81201228D01*
X106072842Y-81227399D01*
X106206988Y-81227399D01*
X106338555Y-81201228D01*
X106462489Y-81149893D01*
X106574027Y-81075366D01*
X106668882Y-80980511D01*
X106743409Y-80868973D01*
X106794744Y-80745039D01*
X106820915Y-80613472D01*
X106820915Y-80479326D01*
X106816275Y-80456000D01*
X122196290Y-80456000D01*
X118760292Y-83891999D01*
X118506150Y-83891999D01*
X118531000Y-83767073D01*
X118531000Y-83632927D01*
X118504829Y-83501360D01*
X118453494Y-83377426D01*
X118378967Y-83265888D01*
X118284112Y-83171033D01*
X118172574Y-83096506D01*
X118048640Y-83045171D01*
X117917073Y-83019000D01*
X117782927Y-83019000D01*
X117651360Y-83045171D01*
X117527426Y-83096506D01*
X117415888Y-83171033D01*
X117321033Y-83265888D01*
X117246506Y-83377426D01*
X117195171Y-83501360D01*
X117169000Y-83632927D01*
X117169000Y-83767073D01*
X117193850Y-83891999D01*
X117006150Y-83891999D01*
X117031000Y-83767073D01*
X117031000Y-83632927D01*
X117004829Y-83501360D01*
X116953494Y-83377426D01*
X116878967Y-83265888D01*
X116784112Y-83171033D01*
X116672574Y-83096506D01*
X116548640Y-83045171D01*
X116417073Y-83019000D01*
X116282927Y-83019000D01*
X116151360Y-83045171D01*
X116027426Y-83096506D01*
X115915888Y-83171033D01*
X115821033Y-83265888D01*
X115746506Y-83377426D01*
X115695171Y-83501360D01*
X115669000Y-83632927D01*
X115669000Y-83767073D01*
X115693850Y-83891999D01*
X115663976Y-83891999D01*
X115564033Y-83792056D01*
X115549686Y-83774574D01*
X115479946Y-83717340D01*
X115400381Y-83674812D01*
X115314048Y-83648623D01*
X115311450Y-83648367D01*
X115234112Y-83571029D01*
X115122574Y-83496502D01*
X114998640Y-83445167D01*
X114867073Y-83418996D01*
X114732927Y-83418996D01*
X114601360Y-83445167D01*
X114477426Y-83496502D01*
X114365888Y-83571029D01*
X114271033Y-83665884D01*
X114196506Y-83777422D01*
X114145171Y-83901356D01*
X114119000Y-84032923D01*
X114119000Y-84167069D01*
X114145171Y-84298636D01*
X114196506Y-84422570D01*
X114271033Y-84534108D01*
X114365888Y-84628963D01*
X114477426Y-84703490D01*
X114601360Y-84754825D01*
X114732927Y-84780996D01*
X114867073Y-84780996D01*
X114998640Y-84754825D01*
X115122574Y-84703490D01*
X115155908Y-84681217D01*
X115218585Y-84732655D01*
X115253580Y-84751360D01*
X115298150Y-84775183D01*
X115384483Y-84801372D01*
X115474267Y-84810215D01*
X115496766Y-84807999D01*
X117223959Y-84807999D01*
X117219000Y-84832927D01*
X117219000Y-84967073D01*
X117245171Y-85098640D01*
X117296506Y-85222574D01*
X117371033Y-85334112D01*
X117465888Y-85428967D01*
X117577426Y-85503494D01*
X117701360Y-85554829D01*
X117832927Y-85581000D01*
X117967073Y-85581000D01*
X118098640Y-85554829D01*
X118222574Y-85503494D01*
X118252619Y-85483419D01*
X118264228Y-85491176D01*
X118388162Y-85542511D01*
X118519729Y-85568682D01*
X118653875Y-85568682D01*
X118785442Y-85542511D01*
X118909376Y-85491176D01*
X119020914Y-85416649D01*
X119115769Y-85321794D01*
X119190296Y-85210256D01*
X119241631Y-85086322D01*
X119267802Y-84954755D01*
X119267802Y-84820609D01*
X119244044Y-84701173D01*
X119275423Y-84675421D01*
X119289770Y-84657939D01*
X123139710Y-80808000D01*
X123617157Y-80808000D01*
X123617157Y-81000000D01*
X123624513Y-81074689D01*
X123646299Y-81146508D01*
X123653511Y-81160000D01*
X123646299Y-81173492D01*
X123624513Y-81245311D01*
X123617157Y-81320000D01*
X123617157Y-81640000D01*
X123624513Y-81714689D01*
X123646299Y-81786508D01*
X123653511Y-81800000D01*
X123646299Y-81813492D01*
X123624513Y-81885311D01*
X123617157Y-81960000D01*
X123617157Y-82280000D01*
X123624513Y-82354689D01*
X123646299Y-82426508D01*
X123653511Y-82440000D01*
X123646299Y-82453492D01*
X123624513Y-82525311D01*
X123617157Y-82600000D01*
X123617157Y-82920000D01*
X123624513Y-82994689D01*
X123646299Y-83066508D01*
X123681678Y-83132696D01*
X123729289Y-83190711D01*
X123787304Y-83238322D01*
X123853492Y-83273701D01*
X123925311Y-83295487D01*
X124000000Y-83302843D01*
X124473000Y-83302843D01*
X124473000Y-83497157D01*
X124000000Y-83497157D01*
X123925311Y-83504513D01*
X123853492Y-83526299D01*
X123787304Y-83561678D01*
X123729289Y-83609289D01*
X123681678Y-83667304D01*
X123646299Y-83733492D01*
X123624513Y-83805311D01*
X123617157Y-83880000D01*
X123617157Y-84200000D01*
X123624513Y-84274689D01*
X123646299Y-84346508D01*
X123653511Y-84360000D01*
X123646299Y-84373492D01*
X123624513Y-84445311D01*
X123617157Y-84520000D01*
X123617157Y-84840000D01*
X123624513Y-84914689D01*
X123646299Y-84986508D01*
X123681678Y-85052696D01*
X123729289Y-85110711D01*
X123787304Y-85158322D01*
X123853492Y-85193701D01*
X123925311Y-85215487D01*
X124000000Y-85222843D01*
X124473000Y-85222843D01*
X124473000Y-85417157D01*
X124000000Y-85417157D01*
X123925311Y-85424513D01*
X123853492Y-85446299D01*
X123787304Y-85481678D01*
X123729289Y-85529289D01*
X123681678Y-85587304D01*
X123646299Y-85653492D01*
X123624513Y-85725311D01*
X123617157Y-85800000D01*
X123617157Y-86120000D01*
X123619324Y-86142000D01*
X123489709Y-86142000D01*
X122664769Y-85317060D01*
X122650422Y-85299578D01*
X122580682Y-85242344D01*
X122501117Y-85199816D01*
X122414784Y-85173627D01*
X122347499Y-85167000D01*
X122325000Y-85164784D01*
X122302501Y-85167000D01*
X121155079Y-85167000D01*
X121084112Y-85096033D01*
X120972574Y-85021506D01*
X120848640Y-84970171D01*
X120717073Y-84944000D01*
X120582927Y-84944000D01*
X120451360Y-84970171D01*
X120327426Y-85021506D01*
X120301745Y-85038666D01*
X120259112Y-84996033D01*
X120147574Y-84921506D01*
X120023640Y-84870171D01*
X119892073Y-84844000D01*
X119757927Y-84844000D01*
X119626360Y-84870171D01*
X119502426Y-84921506D01*
X119390888Y-84996033D01*
X119296033Y-85090888D01*
X119221506Y-85202426D01*
X119170171Y-85326360D01*
X119144000Y-85457927D01*
X119144000Y-85592073D01*
X119170171Y-85723640D01*
X119221506Y-85847574D01*
X119296033Y-85959112D01*
X119331669Y-85994748D01*
X119327426Y-85996506D01*
X119215888Y-86071033D01*
X119121033Y-86165888D01*
X119046506Y-86277426D01*
X118995171Y-86401360D01*
X118969000Y-86532927D01*
X118969000Y-86667073D01*
X118995171Y-86798640D01*
X119046506Y-86922574D01*
X119121033Y-87034112D01*
X119215888Y-87128967D01*
X119327426Y-87203494D01*
X119451360Y-87254829D01*
X119582927Y-87281000D01*
X119683291Y-87281000D01*
X120560235Y-88157945D01*
X120574578Y-88175422D01*
X120644318Y-88232656D01*
X120681811Y-88252696D01*
X120723883Y-88275184D01*
X120810215Y-88301373D01*
X120900000Y-88310216D01*
X120922499Y-88308000D01*
X121014454Y-88308000D01*
X121008010Y-88312306D01*
X120886306Y-88434010D01*
X120790684Y-88577119D01*
X120724818Y-88736134D01*
X120691240Y-88904942D01*
X120691240Y-89077058D01*
X120724818Y-89245866D01*
X120790684Y-89404881D01*
X120883640Y-89544000D01*
X120511040Y-89544000D01*
X120529829Y-89498640D01*
X120556000Y-89367073D01*
X120556000Y-89232927D01*
X120529829Y-89101360D01*
X120478494Y-88977426D01*
X120403967Y-88865888D01*
X120309112Y-88771033D01*
X120197574Y-88696506D01*
X120073640Y-88645171D01*
X119942073Y-88619000D01*
X119807927Y-88619000D01*
X119676360Y-88645171D01*
X119552426Y-88696506D01*
X119440888Y-88771033D01*
X119346033Y-88865888D01*
X119271506Y-88977426D01*
X119220171Y-89101360D01*
X119194000Y-89232927D01*
X119194000Y-89367073D01*
X119220171Y-89498640D01*
X119238960Y-89544000D01*
X110455752Y-89544000D01*
X110481000Y-89417073D01*
X110481000Y-89316709D01*
X112075689Y-87722021D01*
X115094921Y-87722021D01*
X115165888Y-87792988D01*
X115277426Y-87867515D01*
X115401360Y-87918850D01*
X115532927Y-87945021D01*
X115609970Y-87945021D01*
X115609970Y-88061183D01*
X115643597Y-88230237D01*
X115709558Y-88389482D01*
X115805320Y-88532799D01*
X115927201Y-88654680D01*
X116070518Y-88750442D01*
X116229763Y-88816403D01*
X116398817Y-88850030D01*
X116571183Y-88850030D01*
X116740237Y-88816403D01*
X116899482Y-88750442D01*
X117042799Y-88654680D01*
X117164680Y-88532799D01*
X117260442Y-88389482D01*
X117326403Y-88230237D01*
X117360030Y-88061183D01*
X117360030Y-87888817D01*
X117326403Y-87719763D01*
X117260442Y-87560518D01*
X117164680Y-87417201D01*
X117042799Y-87295320D01*
X116899482Y-87199558D01*
X116740237Y-87133597D01*
X116571183Y-87099970D01*
X116398817Y-87099970D01*
X116266928Y-87126204D01*
X116254829Y-87065381D01*
X116203494Y-86941447D01*
X116128967Y-86829909D01*
X116034112Y-86735054D01*
X115922574Y-86660527D01*
X115798640Y-86609192D01*
X115667073Y-86583021D01*
X115532927Y-86583021D01*
X115401360Y-86609192D01*
X115277426Y-86660527D01*
X115165888Y-86735054D01*
X115094921Y-86806021D01*
X111908478Y-86806021D01*
X111885979Y-86803805D01*
X111796194Y-86812648D01*
X111763493Y-86822568D01*
X111709862Y-86838837D01*
X111630297Y-86881365D01*
X111560557Y-86938599D01*
X111546214Y-86956076D01*
X111005122Y-87497169D01*
X111031000Y-87367073D01*
X111031000Y-87232927D01*
X111004829Y-87101360D01*
X110953494Y-86977426D01*
X110878967Y-86865888D01*
X110784112Y-86771033D01*
X110672574Y-86696506D01*
X110548640Y-86645171D01*
X110417073Y-86619000D01*
X110282927Y-86619000D01*
X110151360Y-86645171D01*
X110027426Y-86696506D01*
X109915888Y-86771033D01*
X109821033Y-86865888D01*
X109746506Y-86977426D01*
X109695171Y-87101360D01*
X109669000Y-87232927D01*
X109669000Y-87367073D01*
X109695171Y-87498640D01*
X109746506Y-87622574D01*
X109821033Y-87734112D01*
X109915888Y-87828967D01*
X110027426Y-87903494D01*
X110151360Y-87954829D01*
X110282927Y-87981000D01*
X110417073Y-87981000D01*
X110547169Y-87955122D01*
X109833291Y-88669000D01*
X109732927Y-88669000D01*
X109601360Y-88695171D01*
X109477426Y-88746506D01*
X109365888Y-88821033D01*
X109271033Y-88915888D01*
X109196506Y-89027426D01*
X109145171Y-89151360D01*
X109119000Y-89282927D01*
X109119000Y-89417073D01*
X109144248Y-89544000D01*
X93652000Y-89544000D01*
X93652000Y-87733719D01*
X93659112Y-87728967D01*
X93753967Y-87634112D01*
X93828494Y-87522574D01*
X93879829Y-87398640D01*
X93906000Y-87267073D01*
X93906000Y-87132927D01*
X93879829Y-87001360D01*
X93828494Y-86877426D01*
X93753967Y-86765888D01*
X93659112Y-86671033D01*
X93652000Y-86666281D01*
X93652000Y-86032927D01*
X95119000Y-86032927D01*
X95119000Y-86167073D01*
X95145171Y-86298640D01*
X95196506Y-86422574D01*
X95271033Y-86534112D01*
X95365888Y-86628967D01*
X95477426Y-86703494D01*
X95601360Y-86754829D01*
X95732927Y-86781000D01*
X95867073Y-86781000D01*
X95998640Y-86754829D01*
X96122574Y-86703494D01*
X96228185Y-86632927D01*
X98269000Y-86632927D01*
X98269000Y-86767073D01*
X98295171Y-86898640D01*
X98346506Y-87022574D01*
X98421033Y-87134112D01*
X98515888Y-87228967D01*
X98627426Y-87303494D01*
X98751360Y-87354829D01*
X98882927Y-87381000D01*
X99017073Y-87381000D01*
X99148640Y-87354829D01*
X99272574Y-87303494D01*
X99378185Y-87232927D01*
X105069000Y-87232927D01*
X105069000Y-87367073D01*
X105095171Y-87498640D01*
X105146506Y-87622574D01*
X105221033Y-87734112D01*
X105315888Y-87828967D01*
X105427426Y-87903494D01*
X105551360Y-87954829D01*
X105682927Y-87981000D01*
X105817073Y-87981000D01*
X105948640Y-87954829D01*
X106072574Y-87903494D01*
X106184112Y-87828967D01*
X106278967Y-87734112D01*
X106353494Y-87622574D01*
X106404829Y-87498640D01*
X106431000Y-87367073D01*
X106431000Y-87232927D01*
X106404829Y-87101360D01*
X106353494Y-86977426D01*
X106278967Y-86865888D01*
X106184112Y-86771033D01*
X106072574Y-86696506D01*
X105948640Y-86645171D01*
X105817073Y-86619000D01*
X105682927Y-86619000D01*
X105551360Y-86645171D01*
X105427426Y-86696506D01*
X105315888Y-86771033D01*
X105221033Y-86865888D01*
X105146506Y-86977426D01*
X105095171Y-87101360D01*
X105069000Y-87232927D01*
X99378185Y-87232927D01*
X99384112Y-87228967D01*
X99478967Y-87134112D01*
X99553494Y-87022574D01*
X99604829Y-86898640D01*
X99631000Y-86767073D01*
X99631000Y-86632927D01*
X99604829Y-86501360D01*
X99553494Y-86377426D01*
X99478967Y-86265888D01*
X99384112Y-86171033D01*
X99272574Y-86096506D01*
X99148640Y-86045171D01*
X99017073Y-86019000D01*
X98882927Y-86019000D01*
X98751360Y-86045171D01*
X98627426Y-86096506D01*
X98515888Y-86171033D01*
X98421033Y-86265888D01*
X98346506Y-86377426D01*
X98295171Y-86501360D01*
X98269000Y-86632927D01*
X96228185Y-86632927D01*
X96234112Y-86628967D01*
X96328967Y-86534112D01*
X96403494Y-86422574D01*
X96454829Y-86298640D01*
X96481000Y-86167073D01*
X96481000Y-86166709D01*
X97016709Y-85631000D01*
X97092073Y-85631000D01*
X97223640Y-85604829D01*
X97347574Y-85553494D01*
X97459112Y-85478967D01*
X97551745Y-85386334D01*
X97577426Y-85403494D01*
X97701360Y-85454829D01*
X97832927Y-85481000D01*
X97967073Y-85481000D01*
X98098640Y-85454829D01*
X98222574Y-85403494D01*
X98334112Y-85328967D01*
X98428967Y-85234112D01*
X98503494Y-85122574D01*
X98554829Y-84998640D01*
X98577846Y-84882927D01*
X102318992Y-84882927D01*
X102318992Y-85017073D01*
X102345163Y-85148640D01*
X102396498Y-85272574D01*
X102471025Y-85384112D01*
X102541992Y-85455079D01*
X102541993Y-85994922D01*
X102471033Y-86065882D01*
X102396506Y-86177420D01*
X102345171Y-86301354D01*
X102319000Y-86432921D01*
X102319000Y-86567067D01*
X102345171Y-86698634D01*
X102396506Y-86822568D01*
X102471033Y-86934106D01*
X102565888Y-87028961D01*
X102677426Y-87103488D01*
X102801360Y-87154823D01*
X102932927Y-87180994D01*
X103067073Y-87180994D01*
X103198640Y-87154823D01*
X103322574Y-87103488D01*
X103434112Y-87028961D01*
X103528967Y-86934106D01*
X103603494Y-86822568D01*
X103654829Y-86698634D01*
X103681000Y-86567067D01*
X103681000Y-86432921D01*
X103654829Y-86301354D01*
X103603494Y-86177420D01*
X103528967Y-86065882D01*
X103457992Y-85994907D01*
X103457992Y-85455079D01*
X103528959Y-85384112D01*
X103603486Y-85272574D01*
X103654821Y-85148640D01*
X103680992Y-85017073D01*
X103680992Y-84882927D01*
X103654821Y-84751360D01*
X103647186Y-84732927D01*
X112069000Y-84732927D01*
X112069000Y-84867073D01*
X112095171Y-84998640D01*
X112146506Y-85122574D01*
X112221033Y-85234112D01*
X112315888Y-85328967D01*
X112427426Y-85403494D01*
X112551360Y-85454829D01*
X112682927Y-85481000D01*
X112817073Y-85481000D01*
X112948640Y-85454829D01*
X113072574Y-85403494D01*
X113184112Y-85328967D01*
X113278967Y-85234112D01*
X113353494Y-85122574D01*
X113404829Y-84998640D01*
X113431000Y-84867073D01*
X113431000Y-84732927D01*
X113404829Y-84601360D01*
X113353494Y-84477426D01*
X113278967Y-84365888D01*
X113184112Y-84271033D01*
X113072574Y-84196506D01*
X112948640Y-84145171D01*
X112817073Y-84119000D01*
X112682927Y-84119000D01*
X112551360Y-84145171D01*
X112427426Y-84196506D01*
X112315888Y-84271033D01*
X112221033Y-84365888D01*
X112146506Y-84477426D01*
X112095171Y-84601360D01*
X112069000Y-84732927D01*
X103647186Y-84732927D01*
X103603486Y-84627426D01*
X103528959Y-84515888D01*
X103434104Y-84421033D01*
X103322566Y-84346506D01*
X103198632Y-84295171D01*
X103067065Y-84269000D01*
X102932919Y-84269000D01*
X102801352Y-84295171D01*
X102677418Y-84346506D01*
X102565880Y-84421033D01*
X102471025Y-84515888D01*
X102396498Y-84627426D01*
X102345163Y-84751360D01*
X102318992Y-84882927D01*
X98577846Y-84882927D01*
X98581000Y-84867073D01*
X98581000Y-84732927D01*
X98554829Y-84601360D01*
X98503494Y-84477426D01*
X98428967Y-84365888D01*
X98334112Y-84271033D01*
X98222574Y-84196506D01*
X98098640Y-84145171D01*
X97967073Y-84119000D01*
X97832927Y-84119000D01*
X97701360Y-84145171D01*
X97577426Y-84196506D01*
X97465888Y-84271033D01*
X97373255Y-84363666D01*
X97347574Y-84346506D01*
X97223640Y-84295171D01*
X97092073Y-84269000D01*
X96957927Y-84269000D01*
X96826360Y-84295171D01*
X96702426Y-84346506D01*
X96590888Y-84421033D01*
X96496033Y-84515888D01*
X96421506Y-84627426D01*
X96370171Y-84751360D01*
X96344000Y-84882927D01*
X96344000Y-85008291D01*
X95922304Y-85429987D01*
X95867073Y-85419000D01*
X95732927Y-85419000D01*
X95601360Y-85445171D01*
X95477426Y-85496506D01*
X95365888Y-85571033D01*
X95271033Y-85665888D01*
X95196506Y-85777426D01*
X95145171Y-85901360D01*
X95119000Y-86032927D01*
X93652000Y-86032927D01*
X93652000Y-85895709D01*
X95707946Y-83839764D01*
X95725422Y-83825422D01*
X95782656Y-83755682D01*
X95825184Y-83676117D01*
X95851373Y-83589784D01*
X95858000Y-83522499D01*
X95858000Y-83522498D01*
X95860216Y-83500000D01*
X95858000Y-83477501D01*
X95858000Y-83205079D01*
X95928967Y-83134112D01*
X96003494Y-83022574D01*
X96054829Y-82898640D01*
X96081000Y-82767073D01*
X96081000Y-82632927D01*
X96054829Y-82501360D01*
X96003494Y-82377426D01*
X95928967Y-82265888D01*
X95896006Y-82232927D01*
X97019000Y-82232927D01*
X97019000Y-82367073D01*
X97045171Y-82498640D01*
X97096506Y-82622574D01*
X97148240Y-82700000D01*
X97096506Y-82777426D01*
X97045171Y-82901360D01*
X97019000Y-83032927D01*
X97019000Y-83167073D01*
X97045171Y-83298640D01*
X97096506Y-83422574D01*
X97171033Y-83534112D01*
X97265888Y-83628967D01*
X97377426Y-83703494D01*
X97501360Y-83754829D01*
X97632927Y-83781000D01*
X97767073Y-83781000D01*
X97898640Y-83754829D01*
X98022574Y-83703494D01*
X98100000Y-83651760D01*
X98177426Y-83703494D01*
X98301360Y-83754829D01*
X98432927Y-83781000D01*
X98567073Y-83781000D01*
X98698640Y-83754829D01*
X98822574Y-83703494D01*
X98934112Y-83628967D01*
X99028967Y-83534112D01*
X99103494Y-83422574D01*
X99154829Y-83298640D01*
X99181000Y-83167073D01*
X99181000Y-83032927D01*
X99171055Y-82982927D01*
X102819000Y-82982927D01*
X102819000Y-83117073D01*
X102845171Y-83248640D01*
X102896506Y-83372574D01*
X102971033Y-83484112D01*
X103065888Y-83578967D01*
X103177426Y-83653494D01*
X103301360Y-83704829D01*
X103432927Y-83731000D01*
X103567073Y-83731000D01*
X103698640Y-83704829D01*
X103822574Y-83653494D01*
X103934112Y-83578967D01*
X104028967Y-83484112D01*
X104103494Y-83372574D01*
X104154829Y-83248640D01*
X104181000Y-83117073D01*
X104181000Y-82982927D01*
X104154829Y-82851360D01*
X104103494Y-82727426D01*
X104061073Y-82663937D01*
X105074086Y-82663937D01*
X105074086Y-82798083D01*
X105100257Y-82929650D01*
X105151592Y-83053584D01*
X105226119Y-83165122D01*
X105320974Y-83259977D01*
X105432512Y-83334504D01*
X105556446Y-83385839D01*
X105688013Y-83412010D01*
X105822159Y-83412010D01*
X105953726Y-83385839D01*
X106077660Y-83334504D01*
X106189198Y-83259977D01*
X106284053Y-83165122D01*
X106358580Y-83053584D01*
X106409915Y-82929650D01*
X106436086Y-82798083D01*
X106436086Y-82663937D01*
X106429918Y-82632927D01*
X109669000Y-82632927D01*
X109669000Y-82767073D01*
X109695171Y-82898640D01*
X109746506Y-83022574D01*
X109821033Y-83134112D01*
X109915888Y-83228967D01*
X110027426Y-83303494D01*
X110151360Y-83354829D01*
X110282927Y-83381000D01*
X110417073Y-83381000D01*
X110548640Y-83354829D01*
X110672574Y-83303494D01*
X110784112Y-83228967D01*
X110878967Y-83134112D01*
X110953494Y-83022574D01*
X111004829Y-82898640D01*
X111031000Y-82767073D01*
X111031000Y-82632927D01*
X111004829Y-82501360D01*
X110953494Y-82377426D01*
X110878967Y-82265888D01*
X110784112Y-82171033D01*
X110727083Y-82132927D01*
X115619000Y-82132927D01*
X115619000Y-82267073D01*
X115645171Y-82398640D01*
X115696506Y-82522574D01*
X115771033Y-82634112D01*
X115865888Y-82728967D01*
X115977426Y-82803494D01*
X116101360Y-82854829D01*
X116232927Y-82881000D01*
X116367073Y-82881000D01*
X116498640Y-82854829D01*
X116622574Y-82803494D01*
X116734112Y-82728967D01*
X116828967Y-82634112D01*
X116903494Y-82522574D01*
X116954829Y-82398640D01*
X116981000Y-82267073D01*
X116981000Y-82132927D01*
X117219000Y-82132927D01*
X117219000Y-82267073D01*
X117245171Y-82398640D01*
X117296506Y-82522574D01*
X117371033Y-82634112D01*
X117465888Y-82728967D01*
X117577426Y-82803494D01*
X117701360Y-82854829D01*
X117832927Y-82881000D01*
X117967073Y-82881000D01*
X118098640Y-82854829D01*
X118222574Y-82803494D01*
X118334112Y-82728967D01*
X118428967Y-82634112D01*
X118503494Y-82522574D01*
X118554829Y-82398640D01*
X118581000Y-82267073D01*
X118581000Y-82132927D01*
X118554829Y-82001360D01*
X118503494Y-81877426D01*
X118428967Y-81765888D01*
X118334112Y-81671033D01*
X118222574Y-81596506D01*
X118098640Y-81545171D01*
X117967073Y-81519000D01*
X117832927Y-81519000D01*
X117701360Y-81545171D01*
X117577426Y-81596506D01*
X117465888Y-81671033D01*
X117371033Y-81765888D01*
X117296506Y-81877426D01*
X117245171Y-82001360D01*
X117219000Y-82132927D01*
X116981000Y-82132927D01*
X116954829Y-82001360D01*
X116903494Y-81877426D01*
X116828967Y-81765888D01*
X116734112Y-81671033D01*
X116622574Y-81596506D01*
X116498640Y-81545171D01*
X116367073Y-81519000D01*
X116232927Y-81519000D01*
X116101360Y-81545171D01*
X115977426Y-81596506D01*
X115865888Y-81671033D01*
X115771033Y-81765888D01*
X115696506Y-81877426D01*
X115645171Y-82001360D01*
X115619000Y-82132927D01*
X110727083Y-82132927D01*
X110672574Y-82096506D01*
X110548640Y-82045171D01*
X110417073Y-82019000D01*
X110282927Y-82019000D01*
X110151360Y-82045171D01*
X110027426Y-82096506D01*
X109915888Y-82171033D01*
X109821033Y-82265888D01*
X109746506Y-82377426D01*
X109695171Y-82501360D01*
X109669000Y-82632927D01*
X106429918Y-82632927D01*
X106409915Y-82532370D01*
X106358580Y-82408436D01*
X106284053Y-82296898D01*
X106189198Y-82202043D01*
X106077660Y-82127516D01*
X105953726Y-82076181D01*
X105822159Y-82050010D01*
X105688013Y-82050010D01*
X105556446Y-82076181D01*
X105432512Y-82127516D01*
X105320974Y-82202043D01*
X105226119Y-82296898D01*
X105151592Y-82408436D01*
X105100257Y-82532370D01*
X105074086Y-82663937D01*
X104061073Y-82663937D01*
X104056294Y-82656785D01*
X104078967Y-82634112D01*
X104153494Y-82522574D01*
X104204829Y-82398640D01*
X104231000Y-82267073D01*
X104231000Y-82132927D01*
X104204829Y-82001360D01*
X104153494Y-81877426D01*
X104078967Y-81765888D01*
X103984112Y-81671033D01*
X103872574Y-81596506D01*
X103748640Y-81545171D01*
X103617073Y-81519000D01*
X103482927Y-81519000D01*
X103351360Y-81545171D01*
X103227426Y-81596506D01*
X103115888Y-81671033D01*
X103021033Y-81765888D01*
X102946506Y-81877426D01*
X102895171Y-82001360D01*
X102869000Y-82132927D01*
X102869000Y-82267073D01*
X102895171Y-82398640D01*
X102946506Y-82522574D01*
X102993706Y-82593215D01*
X102971033Y-82615888D01*
X102896506Y-82727426D01*
X102845171Y-82851360D01*
X102819000Y-82982927D01*
X99171055Y-82982927D01*
X99154829Y-82901360D01*
X99103494Y-82777426D01*
X99051760Y-82700000D01*
X99103494Y-82622574D01*
X99154829Y-82498640D01*
X99181000Y-82367073D01*
X99181000Y-82232927D01*
X99154829Y-82101360D01*
X99103494Y-81977426D01*
X99028967Y-81865888D01*
X98934112Y-81771033D01*
X98822574Y-81696506D01*
X98698640Y-81645171D01*
X98567073Y-81619000D01*
X98432927Y-81619000D01*
X98301360Y-81645171D01*
X98177426Y-81696506D01*
X98100000Y-81748240D01*
X98022574Y-81696506D01*
X97898640Y-81645171D01*
X97767073Y-81619000D01*
X97632927Y-81619000D01*
X97501360Y-81645171D01*
X97377426Y-81696506D01*
X97265888Y-81771033D01*
X97171033Y-81865888D01*
X97096506Y-81977426D01*
X97045171Y-82101360D01*
X97019000Y-82232927D01*
X95896006Y-82232927D01*
X95834112Y-82171033D01*
X95722574Y-82096506D01*
X95598640Y-82045171D01*
X95467073Y-82019000D01*
X95332927Y-82019000D01*
X95201360Y-82045171D01*
X95077426Y-82096506D01*
X94965888Y-82171033D01*
X94871033Y-82265888D01*
X94796506Y-82377426D01*
X94745171Y-82501360D01*
X94719000Y-82632927D01*
X94719000Y-82767073D01*
X94745171Y-82898640D01*
X94796506Y-83022574D01*
X94871033Y-83134112D01*
X94942000Y-83205079D01*
X94942000Y-83310290D01*
X93652000Y-84600290D01*
X93652000Y-80456000D01*
X104694248Y-80456000D01*
X104669000Y-80582927D01*
G04 #@! TD*
M02*
