G04 #@! TF.GenerationSoftware,KiCad,Pcbnew,5.1.4+dfsg1-1*
G04 #@! TF.CreationDate,2020-04-13T00:01:02+02:00*
G04 #@! TF.ProjectId,C245_conn,43323435-5f63-46f6-9e6e-2e6b69636164,rev?*
G04 #@! TF.SameCoordinates,Original*
G04 #@! TF.FileFunction,Soldermask,Bot*
G04 #@! TF.FilePolarity,Negative*
%FSLAX46Y46*%
G04 Gerber Fmt 4.6, Leading zero omitted, Abs format (unit mm)*
G04 Created by KiCad (PCBNEW 5.1.4+dfsg1-1) date 2020-04-13 00:01:02*
%MOMM*%
%LPD*%
G04 APERTURE LIST*
%ADD10C,0.100000*%
G04 APERTURE END LIST*
D10*
G36*
X93129487Y-106498996D02*
G01*
X93366253Y-106597068D01*
X93366255Y-106597069D01*
X93579339Y-106739447D01*
X93760553Y-106920661D01*
X93902932Y-107133747D01*
X94001004Y-107370513D01*
X94051000Y-107621861D01*
X94051000Y-107878139D01*
X94001004Y-108129487D01*
X93902932Y-108366253D01*
X93902931Y-108366255D01*
X93760553Y-108579339D01*
X93579339Y-108760553D01*
X93366255Y-108902931D01*
X93366254Y-108902932D01*
X93366253Y-108902932D01*
X93129487Y-109001004D01*
X92878139Y-109051000D01*
X92621861Y-109051000D01*
X92370513Y-109001004D01*
X92133747Y-108902932D01*
X92133746Y-108902932D01*
X92133745Y-108902931D01*
X91920661Y-108760553D01*
X91739447Y-108579339D01*
X91597069Y-108366255D01*
X91597068Y-108366253D01*
X91498996Y-108129487D01*
X91449000Y-107878139D01*
X91449000Y-107621861D01*
X91498996Y-107370513D01*
X91597068Y-107133747D01*
X91739447Y-106920661D01*
X91920661Y-106739447D01*
X92133745Y-106597069D01*
X92133747Y-106597068D01*
X92370513Y-106498996D01*
X92621861Y-106449000D01*
X92878139Y-106449000D01*
X93129487Y-106498996D01*
X93129487Y-106498996D01*
G37*
G36*
X107629487Y-106498996D02*
G01*
X107866253Y-106597068D01*
X107866255Y-106597069D01*
X108079339Y-106739447D01*
X108260553Y-106920661D01*
X108402932Y-107133747D01*
X108501004Y-107370513D01*
X108551000Y-107621861D01*
X108551000Y-107878139D01*
X108501004Y-108129487D01*
X108402932Y-108366253D01*
X108402931Y-108366255D01*
X108260553Y-108579339D01*
X108079339Y-108760553D01*
X107866255Y-108902931D01*
X107866254Y-108902932D01*
X107866253Y-108902932D01*
X107629487Y-109001004D01*
X107378139Y-109051000D01*
X107121861Y-109051000D01*
X106870513Y-109001004D01*
X106633747Y-108902932D01*
X106633746Y-108902932D01*
X106633745Y-108902931D01*
X106420661Y-108760553D01*
X106239447Y-108579339D01*
X106097069Y-108366255D01*
X106097068Y-108366253D01*
X105998996Y-108129487D01*
X105949000Y-107878139D01*
X105949000Y-107621861D01*
X105998996Y-107370513D01*
X106097068Y-107133747D01*
X106239447Y-106920661D01*
X106420661Y-106739447D01*
X106633745Y-106597069D01*
X106633747Y-106597068D01*
X106870513Y-106498996D01*
X107121861Y-106449000D01*
X107378139Y-106449000D01*
X107629487Y-106498996D01*
X107629487Y-106498996D01*
G37*
G36*
X88010442Y-103705518D02*
G01*
X88076627Y-103712037D01*
X88246466Y-103763557D01*
X88402991Y-103847222D01*
X88438729Y-103876552D01*
X88540186Y-103959814D01*
X88623448Y-104061271D01*
X88652778Y-104097009D01*
X88736443Y-104253534D01*
X88787963Y-104423373D01*
X88805359Y-104600000D01*
X88787963Y-104776627D01*
X88736443Y-104946466D01*
X88652778Y-105102991D01*
X88623448Y-105138729D01*
X88540186Y-105240186D01*
X88438729Y-105323448D01*
X88402991Y-105352778D01*
X88246466Y-105436443D01*
X88076627Y-105487963D01*
X88010442Y-105494482D01*
X87944260Y-105501000D01*
X87855740Y-105501000D01*
X87789557Y-105494481D01*
X87723373Y-105487963D01*
X87553534Y-105436443D01*
X87397009Y-105352778D01*
X87361271Y-105323448D01*
X87259814Y-105240186D01*
X87176552Y-105138729D01*
X87147222Y-105102991D01*
X87063557Y-104946466D01*
X87012037Y-104776627D01*
X86994641Y-104600000D01*
X87012037Y-104423373D01*
X87063557Y-104253534D01*
X87147222Y-104097009D01*
X87176552Y-104061271D01*
X87259814Y-103959814D01*
X87361271Y-103876552D01*
X87397009Y-103847222D01*
X87553534Y-103763557D01*
X87723373Y-103712037D01*
X87789557Y-103705519D01*
X87855740Y-103699000D01*
X87944260Y-103699000D01*
X88010442Y-103705518D01*
X88010442Y-103705518D01*
G37*
G36*
X98396217Y-102056665D02*
G01*
X98666995Y-102110525D01*
X98958358Y-102231212D01*
X99220578Y-102406422D01*
X99443578Y-102629422D01*
X99618788Y-102891642D01*
X99739475Y-103183005D01*
X99801000Y-103492315D01*
X99801000Y-103807685D01*
X99739475Y-104116995D01*
X99618788Y-104408358D01*
X99443578Y-104670578D01*
X99220578Y-104893578D01*
X98958358Y-105068788D01*
X98666995Y-105189475D01*
X98412056Y-105240185D01*
X98357686Y-105251000D01*
X98042314Y-105251000D01*
X97987944Y-105240185D01*
X97733005Y-105189475D01*
X97441642Y-105068788D01*
X97179422Y-104893578D01*
X96956422Y-104670578D01*
X96781212Y-104408358D01*
X96660525Y-104116995D01*
X96599000Y-103807685D01*
X96599000Y-103492315D01*
X96660525Y-103183005D01*
X96781212Y-102891642D01*
X96956422Y-102629422D01*
X97179422Y-102406422D01*
X97441642Y-102231212D01*
X97733005Y-102110525D01*
X98003783Y-102056665D01*
X98042314Y-102049000D01*
X98357686Y-102049000D01*
X98396217Y-102056665D01*
X98396217Y-102056665D01*
G37*
G36*
X101996217Y-102056665D02*
G01*
X102266995Y-102110525D01*
X102558358Y-102231212D01*
X102820578Y-102406422D01*
X103043578Y-102629422D01*
X103218788Y-102891642D01*
X103339475Y-103183005D01*
X103401000Y-103492315D01*
X103401000Y-103807685D01*
X103339475Y-104116995D01*
X103218788Y-104408358D01*
X103043578Y-104670578D01*
X102820578Y-104893578D01*
X102558358Y-105068788D01*
X102266995Y-105189475D01*
X102012056Y-105240185D01*
X101957686Y-105251000D01*
X101642314Y-105251000D01*
X101587944Y-105240185D01*
X101333005Y-105189475D01*
X101041642Y-105068788D01*
X100779422Y-104893578D01*
X100556422Y-104670578D01*
X100381212Y-104408358D01*
X100260525Y-104116995D01*
X100199000Y-103807685D01*
X100199000Y-103492315D01*
X100260525Y-103183005D01*
X100381212Y-102891642D01*
X100556422Y-102629422D01*
X100779422Y-102406422D01*
X101041642Y-102231212D01*
X101333005Y-102110525D01*
X101603783Y-102056665D01*
X101642314Y-102049000D01*
X101957686Y-102049000D01*
X101996217Y-102056665D01*
X101996217Y-102056665D01*
G37*
G36*
X88010443Y-101165519D02*
G01*
X88076627Y-101172037D01*
X88246466Y-101223557D01*
X88402991Y-101307222D01*
X88438729Y-101336552D01*
X88540186Y-101419814D01*
X88622879Y-101520577D01*
X88652778Y-101557009D01*
X88736443Y-101713534D01*
X88787963Y-101883373D01*
X88805359Y-102060000D01*
X88787963Y-102236627D01*
X88736443Y-102406466D01*
X88652778Y-102562991D01*
X88623448Y-102598729D01*
X88540186Y-102700186D01*
X88438729Y-102783448D01*
X88402991Y-102812778D01*
X88246466Y-102896443D01*
X88076627Y-102947963D01*
X88010443Y-102954481D01*
X87944260Y-102961000D01*
X87855740Y-102961000D01*
X87789557Y-102954481D01*
X87723373Y-102947963D01*
X87553534Y-102896443D01*
X87397009Y-102812778D01*
X87361271Y-102783448D01*
X87259814Y-102700186D01*
X87176552Y-102598729D01*
X87147222Y-102562991D01*
X87063557Y-102406466D01*
X87012037Y-102236627D01*
X86994641Y-102060000D01*
X87012037Y-101883373D01*
X87063557Y-101713534D01*
X87147222Y-101557009D01*
X87177121Y-101520577D01*
X87259814Y-101419814D01*
X87361271Y-101336552D01*
X87397009Y-101307222D01*
X87553534Y-101223557D01*
X87723373Y-101172037D01*
X87789557Y-101165519D01*
X87855740Y-101159000D01*
X87944260Y-101159000D01*
X88010443Y-101165519D01*
X88010443Y-101165519D01*
G37*
G36*
X100196217Y-98906665D02*
G01*
X100466995Y-98960525D01*
X100758358Y-99081212D01*
X101020578Y-99256422D01*
X101243578Y-99479422D01*
X101418788Y-99741642D01*
X101539475Y-100033005D01*
X101601000Y-100342315D01*
X101601000Y-100657685D01*
X101539475Y-100966995D01*
X101418788Y-101258358D01*
X101243578Y-101520578D01*
X101020578Y-101743578D01*
X100758358Y-101918788D01*
X100466995Y-102039475D01*
X100196217Y-102093335D01*
X100157686Y-102101000D01*
X99842314Y-102101000D01*
X99803783Y-102093335D01*
X99533005Y-102039475D01*
X99241642Y-101918788D01*
X98979422Y-101743578D01*
X98756422Y-101520578D01*
X98581212Y-101258358D01*
X98460525Y-100966995D01*
X98399000Y-100657685D01*
X98399000Y-100342315D01*
X98460525Y-100033005D01*
X98581212Y-99741642D01*
X98756422Y-99479422D01*
X98979422Y-99256422D01*
X99241642Y-99081212D01*
X99533005Y-98960525D01*
X99803783Y-98906665D01*
X99842314Y-98899000D01*
X100157686Y-98899000D01*
X100196217Y-98906665D01*
X100196217Y-98906665D01*
G37*
G36*
X96596217Y-98906665D02*
G01*
X96866995Y-98960525D01*
X97158358Y-99081212D01*
X97420578Y-99256422D01*
X97643578Y-99479422D01*
X97818788Y-99741642D01*
X97939475Y-100033005D01*
X98001000Y-100342315D01*
X98001000Y-100657685D01*
X97939475Y-100966995D01*
X97818788Y-101258358D01*
X97643578Y-101520578D01*
X97420578Y-101743578D01*
X97158358Y-101918788D01*
X96866995Y-102039475D01*
X96596217Y-102093335D01*
X96557686Y-102101000D01*
X96242314Y-102101000D01*
X96203783Y-102093335D01*
X95933005Y-102039475D01*
X95641642Y-101918788D01*
X95379422Y-101743578D01*
X95156422Y-101520578D01*
X94981212Y-101258358D01*
X94860525Y-100966995D01*
X94799000Y-100657685D01*
X94799000Y-100342315D01*
X94860525Y-100033005D01*
X94981212Y-99741642D01*
X95156422Y-99479422D01*
X95379422Y-99256422D01*
X95641642Y-99081212D01*
X95933005Y-98960525D01*
X96203783Y-98906665D01*
X96242314Y-98899000D01*
X96557686Y-98899000D01*
X96596217Y-98906665D01*
X96596217Y-98906665D01*
G37*
G36*
X88010442Y-98625518D02*
G01*
X88076627Y-98632037D01*
X88246466Y-98683557D01*
X88402991Y-98767222D01*
X88438729Y-98796552D01*
X88540186Y-98879814D01*
X88623448Y-98981271D01*
X88652778Y-99017009D01*
X88736443Y-99173534D01*
X88787963Y-99343373D01*
X88805359Y-99520000D01*
X88787963Y-99696627D01*
X88736443Y-99866466D01*
X88652778Y-100022991D01*
X88644558Y-100033007D01*
X88540186Y-100160186D01*
X88438729Y-100243448D01*
X88402991Y-100272778D01*
X88402989Y-100272779D01*
X88272898Y-100342315D01*
X88246466Y-100356443D01*
X88076627Y-100407963D01*
X88010442Y-100414482D01*
X87944260Y-100421000D01*
X87855740Y-100421000D01*
X87789558Y-100414482D01*
X87723373Y-100407963D01*
X87553534Y-100356443D01*
X87527103Y-100342315D01*
X87397011Y-100272779D01*
X87397009Y-100272778D01*
X87361271Y-100243448D01*
X87259814Y-100160186D01*
X87155442Y-100033007D01*
X87147222Y-100022991D01*
X87063557Y-99866466D01*
X87012037Y-99696627D01*
X86994641Y-99520000D01*
X87012037Y-99343373D01*
X87063557Y-99173534D01*
X87147222Y-99017009D01*
X87176552Y-98981271D01*
X87259814Y-98879814D01*
X87361271Y-98796552D01*
X87397009Y-98767222D01*
X87553534Y-98683557D01*
X87723373Y-98632037D01*
X87789558Y-98625518D01*
X87855740Y-98619000D01*
X87944260Y-98619000D01*
X88010442Y-98625518D01*
X88010442Y-98625518D01*
G37*
G36*
X101996217Y-95756665D02*
G01*
X102266995Y-95810525D01*
X102558358Y-95931212D01*
X102820578Y-96106422D01*
X103043578Y-96329422D01*
X103218788Y-96591642D01*
X103339475Y-96883005D01*
X103401000Y-97192315D01*
X103401000Y-97507685D01*
X103339475Y-97816995D01*
X103218788Y-98108358D01*
X103043578Y-98370578D01*
X102820578Y-98593578D01*
X102558358Y-98768788D01*
X102266995Y-98889475D01*
X101996217Y-98943335D01*
X101957686Y-98951000D01*
X101642314Y-98951000D01*
X101603783Y-98943335D01*
X101333005Y-98889475D01*
X101041642Y-98768788D01*
X100779422Y-98593578D01*
X100556422Y-98370578D01*
X100381212Y-98108358D01*
X100260525Y-97816995D01*
X100199000Y-97507685D01*
X100199000Y-97192315D01*
X100260525Y-96883005D01*
X100381212Y-96591642D01*
X100556422Y-96329422D01*
X100779422Y-96106422D01*
X101041642Y-95931212D01*
X101333005Y-95810525D01*
X101603783Y-95756665D01*
X101642314Y-95749000D01*
X101957686Y-95749000D01*
X101996217Y-95756665D01*
X101996217Y-95756665D01*
G37*
G36*
X98396217Y-95756665D02*
G01*
X98666995Y-95810525D01*
X98958358Y-95931212D01*
X99220578Y-96106422D01*
X99443578Y-96329422D01*
X99618788Y-96591642D01*
X99739475Y-96883005D01*
X99801000Y-97192315D01*
X99801000Y-97507685D01*
X99739475Y-97816995D01*
X99618788Y-98108358D01*
X99443578Y-98370578D01*
X99220578Y-98593578D01*
X98958358Y-98768788D01*
X98666995Y-98889475D01*
X98396217Y-98943335D01*
X98357686Y-98951000D01*
X98042314Y-98951000D01*
X98003783Y-98943335D01*
X97733005Y-98889475D01*
X97441642Y-98768788D01*
X97179422Y-98593578D01*
X96956422Y-98370578D01*
X96781212Y-98108358D01*
X96660525Y-97816995D01*
X96599000Y-97507685D01*
X96599000Y-97192315D01*
X96660525Y-96883005D01*
X96781212Y-96591642D01*
X96956422Y-96329422D01*
X97179422Y-96106422D01*
X97441642Y-95931212D01*
X97733005Y-95810525D01*
X98003783Y-95756665D01*
X98042314Y-95749000D01*
X98357686Y-95749000D01*
X98396217Y-95756665D01*
X98396217Y-95756665D01*
G37*
G36*
X88010443Y-96085519D02*
G01*
X88076627Y-96092037D01*
X88246466Y-96143557D01*
X88402991Y-96227222D01*
X88438729Y-96256552D01*
X88540186Y-96339814D01*
X88623448Y-96441271D01*
X88652778Y-96477009D01*
X88736443Y-96633534D01*
X88787963Y-96803373D01*
X88805359Y-96980000D01*
X88787963Y-97156627D01*
X88736443Y-97326466D01*
X88652778Y-97482991D01*
X88632512Y-97507685D01*
X88540186Y-97620186D01*
X88438729Y-97703448D01*
X88402991Y-97732778D01*
X88246466Y-97816443D01*
X88076627Y-97867963D01*
X88010443Y-97874481D01*
X87944260Y-97881000D01*
X87855740Y-97881000D01*
X87789558Y-97874482D01*
X87723373Y-97867963D01*
X87553534Y-97816443D01*
X87397009Y-97732778D01*
X87361271Y-97703448D01*
X87259814Y-97620186D01*
X87167488Y-97507685D01*
X87147222Y-97482991D01*
X87063557Y-97326466D01*
X87012037Y-97156627D01*
X86994641Y-96980000D01*
X87012037Y-96803373D01*
X87063557Y-96633534D01*
X87147222Y-96477009D01*
X87176552Y-96441271D01*
X87259814Y-96339814D01*
X87361271Y-96256552D01*
X87397009Y-96227222D01*
X87553534Y-96143557D01*
X87723373Y-96092037D01*
X87789557Y-96085519D01*
X87855740Y-96079000D01*
X87944260Y-96079000D01*
X88010443Y-96085519D01*
X88010443Y-96085519D01*
G37*
G36*
X88010442Y-93545518D02*
G01*
X88076627Y-93552037D01*
X88246466Y-93603557D01*
X88402991Y-93687222D01*
X88438729Y-93716552D01*
X88540186Y-93799814D01*
X88623448Y-93901271D01*
X88652778Y-93937009D01*
X88736443Y-94093534D01*
X88787963Y-94263373D01*
X88805359Y-94440000D01*
X88787963Y-94616627D01*
X88736443Y-94786466D01*
X88652778Y-94942991D01*
X88623448Y-94978729D01*
X88540186Y-95080186D01*
X88438729Y-95163448D01*
X88402991Y-95192778D01*
X88246466Y-95276443D01*
X88076627Y-95327963D01*
X88010443Y-95334481D01*
X87944260Y-95341000D01*
X87855740Y-95341000D01*
X87789557Y-95334481D01*
X87723373Y-95327963D01*
X87553534Y-95276443D01*
X87397009Y-95192778D01*
X87361271Y-95163448D01*
X87259814Y-95080186D01*
X87176552Y-94978729D01*
X87147222Y-94942991D01*
X87063557Y-94786466D01*
X87012037Y-94616627D01*
X86994641Y-94440000D01*
X87012037Y-94263373D01*
X87063557Y-94093534D01*
X87147222Y-93937009D01*
X87176552Y-93901271D01*
X87259814Y-93799814D01*
X87361271Y-93716552D01*
X87397009Y-93687222D01*
X87553534Y-93603557D01*
X87723373Y-93552037D01*
X87789558Y-93545518D01*
X87855740Y-93539000D01*
X87944260Y-93539000D01*
X88010442Y-93545518D01*
X88010442Y-93545518D01*
G37*
G36*
X107629487Y-91998996D02*
G01*
X107866253Y-92097068D01*
X107866255Y-92097069D01*
X108079339Y-92239447D01*
X108260553Y-92420661D01*
X108402932Y-92633747D01*
X108501004Y-92870513D01*
X108551000Y-93121861D01*
X108551000Y-93378139D01*
X108501004Y-93629487D01*
X108402932Y-93866253D01*
X108402931Y-93866255D01*
X108260553Y-94079339D01*
X108079339Y-94260553D01*
X107866255Y-94402931D01*
X107866254Y-94402932D01*
X107866253Y-94402932D01*
X107629487Y-94501004D01*
X107378139Y-94551000D01*
X107121861Y-94551000D01*
X106870513Y-94501004D01*
X106633747Y-94402932D01*
X106633746Y-94402932D01*
X106633745Y-94402931D01*
X106420661Y-94260553D01*
X106239447Y-94079339D01*
X106097069Y-93866255D01*
X106097068Y-93866253D01*
X105998996Y-93629487D01*
X105949000Y-93378139D01*
X105949000Y-93121861D01*
X105998996Y-92870513D01*
X106097068Y-92633747D01*
X106239447Y-92420661D01*
X106420661Y-92239447D01*
X106633745Y-92097069D01*
X106633747Y-92097068D01*
X106870513Y-91998996D01*
X107121861Y-91949000D01*
X107378139Y-91949000D01*
X107629487Y-91998996D01*
X107629487Y-91998996D01*
G37*
G36*
X93129487Y-91998996D02*
G01*
X93366253Y-92097068D01*
X93366255Y-92097069D01*
X93579339Y-92239447D01*
X93760553Y-92420661D01*
X93902932Y-92633747D01*
X94001004Y-92870513D01*
X94051000Y-93121861D01*
X94051000Y-93378139D01*
X94001004Y-93629487D01*
X93902932Y-93866253D01*
X93902931Y-93866255D01*
X93760553Y-94079339D01*
X93579339Y-94260553D01*
X93366255Y-94402931D01*
X93366254Y-94402932D01*
X93366253Y-94402932D01*
X93129487Y-94501004D01*
X92878139Y-94551000D01*
X92621861Y-94551000D01*
X92370513Y-94501004D01*
X92133747Y-94402932D01*
X92133746Y-94402932D01*
X92133745Y-94402931D01*
X91920661Y-94260553D01*
X91739447Y-94079339D01*
X91597069Y-93866255D01*
X91597068Y-93866253D01*
X91498996Y-93629487D01*
X91449000Y-93378139D01*
X91449000Y-93121861D01*
X91498996Y-92870513D01*
X91597068Y-92633747D01*
X91739447Y-92420661D01*
X91920661Y-92239447D01*
X92133745Y-92097069D01*
X92133747Y-92097068D01*
X92370513Y-91998996D01*
X92621861Y-91949000D01*
X92878139Y-91949000D01*
X93129487Y-91998996D01*
X93129487Y-91998996D01*
G37*
G36*
X88801000Y-92801000D02*
G01*
X86999000Y-92801000D01*
X86999000Y-90999000D01*
X88801000Y-90999000D01*
X88801000Y-92801000D01*
X88801000Y-92801000D01*
G37*
M02*
