G04 #@! TF.GenerationSoftware,KiCad,Pcbnew,5.1.4+dfsg1-1*
G04 #@! TF.CreationDate,2020-04-13T00:01:02+02:00*
G04 #@! TF.ProjectId,C245_conn,43323435-5f63-46f6-9e6e-2e6b69636164,rev?*
G04 #@! TF.SameCoordinates,Original*
G04 #@! TF.FileFunction,Copper,L2,Bot*
G04 #@! TF.FilePolarity,Positive*
%FSLAX46Y46*%
G04 Gerber Fmt 4.6, Leading zero omitted, Abs format (unit mm)*
G04 Created by KiCad (PCBNEW 5.1.4+dfsg1-1) date 2020-04-13 00:01:02*
%MOMM*%
%LPD*%
G04 APERTURE LIST*
%ADD10O,1.700000X1.700000*%
%ADD11R,1.700000X1.700000*%
%ADD12C,3.100000*%
%ADD13C,0.800000*%
%ADD14C,0.100000*%
G04 APERTURE END LIST*
D10*
X87900000Y-104600000D03*
X87900000Y-102060000D03*
X87900000Y-99520000D03*
X87900000Y-96980000D03*
X87900000Y-94440000D03*
D11*
X87900000Y-91900000D03*
D12*
X101800000Y-97350000D03*
X98200000Y-97350000D03*
X101800000Y-103650000D03*
X98200000Y-103650000D03*
X96400000Y-100500000D03*
X100000000Y-100500000D03*
D13*
X92000000Y-101000000D03*
X91000000Y-101000000D03*
X90000000Y-101000000D03*
X90500000Y-102000000D03*
X91500000Y-102000000D03*
X92500000Y-102000000D03*
X93500000Y-102000000D03*
D14*
G36*
X93218257Y-100780764D02*
G01*
X93254243Y-100824613D01*
X93258488Y-100821129D01*
X95671693Y-103242403D01*
X95675387Y-103245757D01*
X95826923Y-103370120D01*
X95835073Y-103375566D01*
X96007960Y-103467976D01*
X96017016Y-103471727D01*
X96204609Y-103528632D01*
X96214222Y-103530544D01*
X96400000Y-103548842D01*
X96400000Y-103827284D01*
X96469173Y-104175041D01*
X96604861Y-104502620D01*
X96801849Y-104797433D01*
X97052567Y-105048151D01*
X97347380Y-105245139D01*
X97674959Y-105380827D01*
X98022716Y-105450000D01*
X98377284Y-105450000D01*
X98725041Y-105380827D01*
X99052620Y-105245139D01*
X99347433Y-105048151D01*
X99598151Y-104797433D01*
X99795139Y-104502620D01*
X99930827Y-104175041D01*
X100000000Y-103827284D01*
X100000000Y-103472716D01*
X99930827Y-103124959D01*
X99795139Y-102797380D01*
X99598151Y-102502567D01*
X99569129Y-102473545D01*
X99670991Y-102269820D01*
X99822716Y-102300000D01*
X100177284Y-102300000D01*
X100525041Y-102230827D01*
X100852620Y-102095139D01*
X101147433Y-101898151D01*
X101398151Y-101647433D01*
X101463254Y-101550000D01*
X102583332Y-101550000D01*
X102771075Y-101568491D01*
X102949243Y-101622537D01*
X103113445Y-101710305D01*
X103259277Y-101829987D01*
X104670013Y-103240723D01*
X104789695Y-103386555D01*
X104877463Y-103550757D01*
X104931509Y-103728925D01*
X104950000Y-103916668D01*
X104950000Y-106083332D01*
X104931509Y-106271075D01*
X104877463Y-106449243D01*
X104789695Y-106613445D01*
X104670013Y-106759277D01*
X102259277Y-109170013D01*
X102113445Y-109289695D01*
X101949243Y-109377463D01*
X101771075Y-109431509D01*
X101583332Y-109450000D01*
X93416668Y-109450000D01*
X93228925Y-109431509D01*
X93050757Y-109377463D01*
X92886555Y-109289695D01*
X92838187Y-109250000D01*
X92897737Y-109250000D01*
X93187534Y-109192356D01*
X93460517Y-109079283D01*
X93706194Y-108915126D01*
X93915126Y-108706194D01*
X94079283Y-108460517D01*
X94192356Y-108187534D01*
X94250000Y-107897737D01*
X94250000Y-107602263D01*
X94192356Y-107312466D01*
X94079283Y-107039483D01*
X93915126Y-106793806D01*
X93706194Y-106584874D01*
X93460517Y-106420717D01*
X93187534Y-106307644D01*
X92897737Y-106250000D01*
X92602263Y-106250000D01*
X92312466Y-106307644D01*
X92039483Y-106420717D01*
X91793806Y-106584874D01*
X91584874Y-106793806D01*
X91420717Y-107039483D01*
X91307644Y-107312466D01*
X91250000Y-107602263D01*
X91250000Y-107679290D01*
X89328248Y-105757538D01*
X89324613Y-105754243D01*
X89173077Y-105629880D01*
X89164927Y-105624434D01*
X88992040Y-105532024D01*
X88982984Y-105528273D01*
X88795391Y-105471368D01*
X88785778Y-105469456D01*
X88597144Y-105450877D01*
X88681581Y-105381581D01*
X88819042Y-105214084D01*
X88921184Y-105022988D01*
X88984084Y-104815638D01*
X89005322Y-104600000D01*
X88984084Y-104384362D01*
X88921184Y-104177012D01*
X88819042Y-103985916D01*
X88681581Y-103818419D01*
X88514084Y-103680958D01*
X88322988Y-103578816D01*
X88115638Y-103515916D01*
X87954036Y-103500000D01*
X87845964Y-103500000D01*
X87684362Y-103515916D01*
X87477012Y-103578816D01*
X87285916Y-103680958D01*
X87118419Y-103818419D01*
X86980958Y-103985916D01*
X86878816Y-104177012D01*
X86848304Y-104277594D01*
X86329987Y-103759277D01*
X86210305Y-103613445D01*
X86122537Y-103449243D01*
X86075000Y-103292533D01*
X86075000Y-99520000D01*
X86794678Y-99520000D01*
X86815916Y-99735638D01*
X86878816Y-99942988D01*
X86980958Y-100134084D01*
X87118419Y-100301581D01*
X87285916Y-100439042D01*
X87477012Y-100541184D01*
X87684362Y-100604084D01*
X87845964Y-100620000D01*
X87954036Y-100620000D01*
X88115638Y-100604084D01*
X88322988Y-100541184D01*
X88514084Y-100439042D01*
X88681581Y-100301581D01*
X88819042Y-100134084D01*
X88921184Y-99942988D01*
X88984084Y-99735638D01*
X89005322Y-99520000D01*
X88984084Y-99304362D01*
X88921184Y-99097012D01*
X88819042Y-98905916D01*
X88681581Y-98738419D01*
X88514084Y-98600958D01*
X88322988Y-98498816D01*
X88115638Y-98435916D01*
X87954036Y-98420000D01*
X87845964Y-98420000D01*
X87684362Y-98435916D01*
X87477012Y-98498816D01*
X87285916Y-98600958D01*
X87118419Y-98738419D01*
X86980958Y-98905916D01*
X86878816Y-99097012D01*
X86815916Y-99304362D01*
X86794678Y-99520000D01*
X86075000Y-99520000D01*
X86075000Y-98843254D01*
X86122537Y-98686544D01*
X86210303Y-98522345D01*
X86328420Y-98378420D01*
X86472345Y-98260303D01*
X86636544Y-98172537D01*
X86814712Y-98118491D01*
X87002454Y-98100000D01*
X90546426Y-98100000D01*
X93218257Y-100780764D01*
X93218257Y-100780764D01*
G37*
X93218257Y-100780764D02*
X93254243Y-100824613D01*
X93258488Y-100821129D01*
X95671693Y-103242403D01*
X95675387Y-103245757D01*
X95826923Y-103370120D01*
X95835073Y-103375566D01*
X96007960Y-103467976D01*
X96017016Y-103471727D01*
X96204609Y-103528632D01*
X96214222Y-103530544D01*
X96400000Y-103548842D01*
X96400000Y-103827284D01*
X96469173Y-104175041D01*
X96604861Y-104502620D01*
X96801849Y-104797433D01*
X97052567Y-105048151D01*
X97347380Y-105245139D01*
X97674959Y-105380827D01*
X98022716Y-105450000D01*
X98377284Y-105450000D01*
X98725041Y-105380827D01*
X99052620Y-105245139D01*
X99347433Y-105048151D01*
X99598151Y-104797433D01*
X99795139Y-104502620D01*
X99930827Y-104175041D01*
X100000000Y-103827284D01*
X100000000Y-103472716D01*
X99930827Y-103124959D01*
X99795139Y-102797380D01*
X99598151Y-102502567D01*
X99569129Y-102473545D01*
X99670991Y-102269820D01*
X99822716Y-102300000D01*
X100177284Y-102300000D01*
X100525041Y-102230827D01*
X100852620Y-102095139D01*
X101147433Y-101898151D01*
X101398151Y-101647433D01*
X101463254Y-101550000D01*
X102583332Y-101550000D01*
X102771075Y-101568491D01*
X102949243Y-101622537D01*
X103113445Y-101710305D01*
X103259277Y-101829987D01*
X104670013Y-103240723D01*
X104789695Y-103386555D01*
X104877463Y-103550757D01*
X104931509Y-103728925D01*
X104950000Y-103916668D01*
X104950000Y-106083332D01*
X104931509Y-106271075D01*
X104877463Y-106449243D01*
X104789695Y-106613445D01*
X104670013Y-106759277D01*
X102259277Y-109170013D01*
X102113445Y-109289695D01*
X101949243Y-109377463D01*
X101771075Y-109431509D01*
X101583332Y-109450000D01*
X93416668Y-109450000D01*
X93228925Y-109431509D01*
X93050757Y-109377463D01*
X92886555Y-109289695D01*
X92838187Y-109250000D01*
X92897737Y-109250000D01*
X93187534Y-109192356D01*
X93460517Y-109079283D01*
X93706194Y-108915126D01*
X93915126Y-108706194D01*
X94079283Y-108460517D01*
X94192356Y-108187534D01*
X94250000Y-107897737D01*
X94250000Y-107602263D01*
X94192356Y-107312466D01*
X94079283Y-107039483D01*
X93915126Y-106793806D01*
X93706194Y-106584874D01*
X93460517Y-106420717D01*
X93187534Y-106307644D01*
X92897737Y-106250000D01*
X92602263Y-106250000D01*
X92312466Y-106307644D01*
X92039483Y-106420717D01*
X91793806Y-106584874D01*
X91584874Y-106793806D01*
X91420717Y-107039483D01*
X91307644Y-107312466D01*
X91250000Y-107602263D01*
X91250000Y-107679290D01*
X89328248Y-105757538D01*
X89324613Y-105754243D01*
X89173077Y-105629880D01*
X89164927Y-105624434D01*
X88992040Y-105532024D01*
X88982984Y-105528273D01*
X88795391Y-105471368D01*
X88785778Y-105469456D01*
X88597144Y-105450877D01*
X88681581Y-105381581D01*
X88819042Y-105214084D01*
X88921184Y-105022988D01*
X88984084Y-104815638D01*
X89005322Y-104600000D01*
X88984084Y-104384362D01*
X88921184Y-104177012D01*
X88819042Y-103985916D01*
X88681581Y-103818419D01*
X88514084Y-103680958D01*
X88322988Y-103578816D01*
X88115638Y-103515916D01*
X87954036Y-103500000D01*
X87845964Y-103500000D01*
X87684362Y-103515916D01*
X87477012Y-103578816D01*
X87285916Y-103680958D01*
X87118419Y-103818419D01*
X86980958Y-103985916D01*
X86878816Y-104177012D01*
X86848304Y-104277594D01*
X86329987Y-103759277D01*
X86210305Y-103613445D01*
X86122537Y-103449243D01*
X86075000Y-103292533D01*
X86075000Y-99520000D01*
X86794678Y-99520000D01*
X86815916Y-99735638D01*
X86878816Y-99942988D01*
X86980958Y-100134084D01*
X87118419Y-100301581D01*
X87285916Y-100439042D01*
X87477012Y-100541184D01*
X87684362Y-100604084D01*
X87845964Y-100620000D01*
X87954036Y-100620000D01*
X88115638Y-100604084D01*
X88322988Y-100541184D01*
X88514084Y-100439042D01*
X88681581Y-100301581D01*
X88819042Y-100134084D01*
X88921184Y-99942988D01*
X88984084Y-99735638D01*
X89005322Y-99520000D01*
X88984084Y-99304362D01*
X88921184Y-99097012D01*
X88819042Y-98905916D01*
X88681581Y-98738419D01*
X88514084Y-98600958D01*
X88322988Y-98498816D01*
X88115638Y-98435916D01*
X87954036Y-98420000D01*
X87845964Y-98420000D01*
X87684362Y-98435916D01*
X87477012Y-98498816D01*
X87285916Y-98600958D01*
X87118419Y-98738419D01*
X86980958Y-98905916D01*
X86878816Y-99097012D01*
X86815916Y-99304362D01*
X86794678Y-99520000D01*
X86075000Y-99520000D01*
X86075000Y-98843254D01*
X86122537Y-98686544D01*
X86210303Y-98522345D01*
X86328420Y-98378420D01*
X86472345Y-98260303D01*
X86636544Y-98172537D01*
X86814712Y-98118491D01*
X87002454Y-98100000D01*
X90546426Y-98100000D01*
X93218257Y-100780764D01*
M02*
