G04 #@! TF.GenerationSoftware,KiCad,Pcbnew,5.1.4+dfsg1-1*
G04 #@! TF.CreationDate,2020-04-13T00:01:02+02:00*
G04 #@! TF.ProjectId,C245_conn,43323435-5f63-46f6-9e6e-2e6b69636164,rev?*
G04 #@! TF.SameCoordinates,Original*
G04 #@! TF.FileFunction,Legend,Top*
G04 #@! TF.FilePolarity,Positive*
%FSLAX46Y46*%
G04 Gerber Fmt 4.6, Leading zero omitted, Abs format (unit mm)*
G04 Created by KiCad (PCBNEW 5.1.4+dfsg1-1) date 2020-04-13 00:01:02*
%MOMM*%
%LPD*%
G04 APERTURE LIST*
%ADD10C,0.120000*%
%ADD11C,0.010000*%
%ADD12C,0.150000*%
G04 APERTURE END LIST*
D10*
X92910000Y-98052064D02*
X92910000Y-96847936D01*
X91090000Y-98052064D02*
X91090000Y-96847936D01*
D11*
G36*
X112225778Y-102390888D02*
G01*
X112225778Y-102969444D01*
X112014111Y-102969444D01*
X112014111Y-102390888D01*
X112225778Y-102390888D01*
X112225778Y-102390888D01*
G37*
X112225778Y-102390888D02*
X112225778Y-102969444D01*
X112014111Y-102969444D01*
X112014111Y-102390888D01*
X112225778Y-102390888D01*
G36*
X112225778Y-93698444D02*
G01*
X112225778Y-93500888D01*
X112409222Y-93500888D01*
X112409222Y-93698444D01*
X112818445Y-93698444D01*
X112818445Y-93910111D01*
X112409222Y-93910111D01*
X112409222Y-94629777D01*
X112329364Y-94629777D01*
X112292963Y-94628327D01*
X112259130Y-94622495D01*
X112225778Y-94611455D01*
X112225778Y-94418517D01*
X112225778Y-93910111D01*
X111841250Y-93910618D01*
X111456722Y-93911126D01*
X111499056Y-93947186D01*
X111617590Y-94042287D01*
X111750369Y-94138823D01*
X111888867Y-94231089D01*
X112024554Y-94313381D01*
X112137584Y-94374380D01*
X112225778Y-94418517D01*
X112225778Y-94611455D01*
X112221575Y-94610063D01*
X112174010Y-94588812D01*
X112110144Y-94556524D01*
X112086080Y-94543941D01*
X111925428Y-94453685D01*
X111759611Y-94349819D01*
X111596269Y-94237634D01*
X111443041Y-94122424D01*
X111307566Y-94009480D01*
X111283861Y-93988165D01*
X111195667Y-93907743D01*
X111195667Y-93698444D01*
X112225778Y-93698444D01*
X112225778Y-93698444D01*
G37*
X112225778Y-93698444D02*
X112225778Y-93500888D01*
X112409222Y-93500888D01*
X112409222Y-93698444D01*
X112818445Y-93698444D01*
X112818445Y-93910111D01*
X112409222Y-93910111D01*
X112409222Y-94629777D01*
X112329364Y-94629777D01*
X112292963Y-94628327D01*
X112259130Y-94622495D01*
X112225778Y-94611455D01*
X112225778Y-94418517D01*
X112225778Y-93910111D01*
X111841250Y-93910618D01*
X111456722Y-93911126D01*
X111499056Y-93947186D01*
X111617590Y-94042287D01*
X111750369Y-94138823D01*
X111888867Y-94231089D01*
X112024554Y-94313381D01*
X112137584Y-94374380D01*
X112225778Y-94418517D01*
X112225778Y-94611455D01*
X112221575Y-94610063D01*
X112174010Y-94588812D01*
X112110144Y-94556524D01*
X112086080Y-94543941D01*
X111925428Y-94453685D01*
X111759611Y-94349819D01*
X111596269Y-94237634D01*
X111443041Y-94122424D01*
X111307566Y-94009480D01*
X111283861Y-93988165D01*
X111195667Y-93907743D01*
X111195667Y-93698444D01*
X112225778Y-93698444D01*
G36*
X111156880Y-95403938D02*
G01*
X111173798Y-95296271D01*
X111205819Y-95196371D01*
X111251550Y-95112073D01*
X111266224Y-95092813D01*
X111330845Y-95035040D01*
X111413704Y-94991946D01*
X111507916Y-94965349D01*
X111606599Y-94957063D01*
X111702870Y-94968907D01*
X111719260Y-94973272D01*
X111789239Y-94999803D01*
X111863523Y-95040781D01*
X111945026Y-95098288D01*
X112036666Y-95174407D01*
X112141357Y-95271220D01*
X112154973Y-95284363D01*
X112259082Y-95383901D01*
X112346507Y-95464400D01*
X112419468Y-95527778D01*
X112480186Y-95575953D01*
X112530880Y-95610842D01*
X112537888Y-95615126D01*
X112566219Y-95632148D01*
X112588431Y-95643475D01*
X112605269Y-95646480D01*
X112617474Y-95638537D01*
X112625790Y-95617020D01*
X112630959Y-95579302D01*
X112633725Y-95522756D01*
X112634831Y-95444757D01*
X112635019Y-95342679D01*
X112635000Y-95271833D01*
X112635000Y-94897888D01*
X112818445Y-94897888D01*
X112818445Y-95889378D01*
X112712176Y-95882558D01*
X112652112Y-95876553D01*
X112600688Y-95865091D01*
X112546611Y-95844880D01*
X112487520Y-95817074D01*
X112447563Y-95796202D01*
X112409841Y-95773563D01*
X112370786Y-95746295D01*
X112326829Y-95711536D01*
X112274402Y-95666424D01*
X112209934Y-95608095D01*
X112129858Y-95533688D01*
X112104290Y-95509710D01*
X112009007Y-95421106D01*
X111930460Y-95350570D01*
X111865545Y-95296104D01*
X111811157Y-95255705D01*
X111764191Y-95227374D01*
X111721543Y-95209109D01*
X111680107Y-95198910D01*
X111636779Y-95194776D01*
X111614910Y-95194360D01*
X111525423Y-95205297D01*
X111452874Y-95238141D01*
X111398177Y-95292449D01*
X111391117Y-95303144D01*
X111373488Y-95336497D01*
X111363379Y-95372000D01*
X111358938Y-95419010D01*
X111358217Y-95469388D01*
X111360010Y-95533104D01*
X111366646Y-95580220D01*
X111380565Y-95622257D01*
X111398539Y-95659888D01*
X111426528Y-95708992D01*
X111456258Y-95753377D01*
X111473879Y-95775146D01*
X111509170Y-95812792D01*
X111429741Y-95865529D01*
X111350313Y-95918267D01*
X111316635Y-95886628D01*
X111282650Y-95844940D01*
X111246094Y-95784147D01*
X111211255Y-95712520D01*
X111182418Y-95638332D01*
X111173937Y-95611230D01*
X111156462Y-95511536D01*
X111156880Y-95403938D01*
X111156880Y-95403938D01*
G37*
X111156880Y-95403938D02*
X111173798Y-95296271D01*
X111205819Y-95196371D01*
X111251550Y-95112073D01*
X111266224Y-95092813D01*
X111330845Y-95035040D01*
X111413704Y-94991946D01*
X111507916Y-94965349D01*
X111606599Y-94957063D01*
X111702870Y-94968907D01*
X111719260Y-94973272D01*
X111789239Y-94999803D01*
X111863523Y-95040781D01*
X111945026Y-95098288D01*
X112036666Y-95174407D01*
X112141357Y-95271220D01*
X112154973Y-95284363D01*
X112259082Y-95383901D01*
X112346507Y-95464400D01*
X112419468Y-95527778D01*
X112480186Y-95575953D01*
X112530880Y-95610842D01*
X112537888Y-95615126D01*
X112566219Y-95632148D01*
X112588431Y-95643475D01*
X112605269Y-95646480D01*
X112617474Y-95638537D01*
X112625790Y-95617020D01*
X112630959Y-95579302D01*
X112633725Y-95522756D01*
X112634831Y-95444757D01*
X112635019Y-95342679D01*
X112635000Y-95271833D01*
X112635000Y-94897888D01*
X112818445Y-94897888D01*
X112818445Y-95889378D01*
X112712176Y-95882558D01*
X112652112Y-95876553D01*
X112600688Y-95865091D01*
X112546611Y-95844880D01*
X112487520Y-95817074D01*
X112447563Y-95796202D01*
X112409841Y-95773563D01*
X112370786Y-95746295D01*
X112326829Y-95711536D01*
X112274402Y-95666424D01*
X112209934Y-95608095D01*
X112129858Y-95533688D01*
X112104290Y-95509710D01*
X112009007Y-95421106D01*
X111930460Y-95350570D01*
X111865545Y-95296104D01*
X111811157Y-95255705D01*
X111764191Y-95227374D01*
X111721543Y-95209109D01*
X111680107Y-95198910D01*
X111636779Y-95194776D01*
X111614910Y-95194360D01*
X111525423Y-95205297D01*
X111452874Y-95238141D01*
X111398177Y-95292449D01*
X111391117Y-95303144D01*
X111373488Y-95336497D01*
X111363379Y-95372000D01*
X111358938Y-95419010D01*
X111358217Y-95469388D01*
X111360010Y-95533104D01*
X111366646Y-95580220D01*
X111380565Y-95622257D01*
X111398539Y-95659888D01*
X111426528Y-95708992D01*
X111456258Y-95753377D01*
X111473879Y-95775146D01*
X111509170Y-95812792D01*
X111429741Y-95865529D01*
X111350313Y-95918267D01*
X111316635Y-95886628D01*
X111282650Y-95844940D01*
X111246094Y-95784147D01*
X111211255Y-95712520D01*
X111182418Y-95638332D01*
X111173937Y-95611230D01*
X111156462Y-95511536D01*
X111156880Y-95403938D01*
G36*
X111579137Y-98716138D02*
G01*
X111582741Y-98640596D01*
X111588460Y-98585087D01*
X111597746Y-98541429D01*
X111612052Y-98501441D01*
X111620679Y-98482111D01*
X111678223Y-98390003D01*
X111754929Y-98316913D01*
X111844621Y-98267120D01*
X111867731Y-98258442D01*
X111891175Y-98251487D01*
X111918385Y-98246018D01*
X111952791Y-98241800D01*
X111997825Y-98238598D01*
X112056916Y-98236176D01*
X112133496Y-98234299D01*
X112230996Y-98232731D01*
X112352847Y-98231238D01*
X112370417Y-98231040D01*
X112818445Y-98226010D01*
X112818445Y-98439777D01*
X112476250Y-98440057D01*
X112324813Y-98441112D01*
X112198854Y-98444391D01*
X112095676Y-98450470D01*
X112012583Y-98459925D01*
X111946878Y-98473332D01*
X111895865Y-98491267D01*
X111856848Y-98514306D01*
X111827130Y-98543024D01*
X111804014Y-98577998D01*
X111800677Y-98584353D01*
X111785576Y-98619158D01*
X111776547Y-98656410D01*
X111772337Y-98704473D01*
X111771693Y-98771713D01*
X111771750Y-98777421D01*
X111773299Y-98840852D01*
X111776227Y-98897706D01*
X111780016Y-98939164D01*
X111781884Y-98950535D01*
X111790576Y-98990111D01*
X112818445Y-98990111D01*
X112818445Y-99215888D01*
X111635450Y-99215888D01*
X111620243Y-99144979D01*
X111594482Y-99004825D01*
X111580910Y-98876702D01*
X111578297Y-98747809D01*
X111579137Y-98716138D01*
X111579137Y-98716138D01*
G37*
X111579137Y-98716138D02*
X111582741Y-98640596D01*
X111588460Y-98585087D01*
X111597746Y-98541429D01*
X111612052Y-98501441D01*
X111620679Y-98482111D01*
X111678223Y-98390003D01*
X111754929Y-98316913D01*
X111844621Y-98267120D01*
X111867731Y-98258442D01*
X111891175Y-98251487D01*
X111918385Y-98246018D01*
X111952791Y-98241800D01*
X111997825Y-98238598D01*
X112056916Y-98236176D01*
X112133496Y-98234299D01*
X112230996Y-98232731D01*
X112352847Y-98231238D01*
X112370417Y-98231040D01*
X112818445Y-98226010D01*
X112818445Y-98439777D01*
X112476250Y-98440057D01*
X112324813Y-98441112D01*
X112198854Y-98444391D01*
X112095676Y-98450470D01*
X112012583Y-98459925D01*
X111946878Y-98473332D01*
X111895865Y-98491267D01*
X111856848Y-98514306D01*
X111827130Y-98543024D01*
X111804014Y-98577998D01*
X111800677Y-98584353D01*
X111785576Y-98619158D01*
X111776547Y-98656410D01*
X111772337Y-98704473D01*
X111771693Y-98771713D01*
X111771750Y-98777421D01*
X111773299Y-98840852D01*
X111776227Y-98897706D01*
X111780016Y-98939164D01*
X111781884Y-98950535D01*
X111790576Y-98990111D01*
X112818445Y-98990111D01*
X112818445Y-99215888D01*
X111635450Y-99215888D01*
X111620243Y-99144979D01*
X111594482Y-99004825D01*
X111580910Y-98876702D01*
X111578297Y-98747809D01*
X111579137Y-98716138D01*
G36*
X111581207Y-100977512D02*
G01*
X111592789Y-100890096D01*
X111603959Y-100843647D01*
X111615199Y-100820430D01*
X111629071Y-100815566D01*
X111631594Y-100816133D01*
X111660707Y-100822980D01*
X111700687Y-100831054D01*
X111703667Y-100831611D01*
X111757569Y-100842696D01*
X111787455Y-100851993D01*
X111797340Y-100860989D01*
X111796044Y-100865829D01*
X111790702Y-100884298D01*
X111782911Y-100922829D01*
X111774241Y-100973551D01*
X111773153Y-100980489D01*
X111764682Y-101058428D01*
X111766639Y-101129220D01*
X111774699Y-101187176D01*
X111792326Y-101290222D01*
X112818445Y-101290222D01*
X112818445Y-101501888D01*
X111649411Y-101501888D01*
X111634097Y-101455488D01*
X111605559Y-101345298D01*
X111586748Y-101222293D01*
X111578389Y-101096392D01*
X111581207Y-100977512D01*
X111581207Y-100977512D01*
G37*
X111581207Y-100977512D02*
X111592789Y-100890096D01*
X111603959Y-100843647D01*
X111615199Y-100820430D01*
X111629071Y-100815566D01*
X111631594Y-100816133D01*
X111660707Y-100822980D01*
X111700687Y-100831054D01*
X111703667Y-100831611D01*
X111757569Y-100842696D01*
X111787455Y-100851993D01*
X111797340Y-100860989D01*
X111796044Y-100865829D01*
X111790702Y-100884298D01*
X111782911Y-100922829D01*
X111774241Y-100973551D01*
X111773153Y-100980489D01*
X111764682Y-101058428D01*
X111766639Y-101129220D01*
X111774699Y-101187176D01*
X111792326Y-101290222D01*
X112818445Y-101290222D01*
X112818445Y-101501888D01*
X111649411Y-101501888D01*
X111634097Y-101455488D01*
X111605559Y-101345298D01*
X111586748Y-101222293D01*
X111578389Y-101096392D01*
X111581207Y-100977512D01*
G36*
X112818445Y-101897000D02*
G01*
X112818445Y-102122777D01*
X111195667Y-102122777D01*
X111195667Y-101897000D01*
X112818445Y-101897000D01*
X112818445Y-101897000D01*
G37*
X112818445Y-101897000D02*
X112818445Y-102122777D01*
X111195667Y-102122777D01*
X111195667Y-101897000D01*
X112818445Y-101897000D01*
G36*
X111578630Y-103193610D02*
G01*
X111583877Y-103131777D01*
X111591448Y-103073613D01*
X111600382Y-103025454D01*
X111609717Y-102993634D01*
X111617420Y-102984171D01*
X111649812Y-102988864D01*
X111691916Y-102997899D01*
X111734996Y-103008980D01*
X111770319Y-103019807D01*
X111789150Y-103028085D01*
X111790277Y-103029638D01*
X111788341Y-103047990D01*
X111782741Y-103086171D01*
X111774654Y-103136207D01*
X111773953Y-103140375D01*
X111765249Y-103209962D01*
X111765277Y-103274405D01*
X111774072Y-103349464D01*
X111774438Y-103351832D01*
X111791784Y-103463333D01*
X112818445Y-103463333D01*
X112818445Y-103675000D01*
X111649411Y-103675000D01*
X111634097Y-103628599D01*
X111613413Y-103551153D01*
X111595749Y-103457662D01*
X111582963Y-103360282D01*
X111576911Y-103271166D01*
X111576667Y-103252778D01*
X111578630Y-103193610D01*
X111578630Y-103193610D01*
G37*
X111578630Y-103193610D02*
X111583877Y-103131777D01*
X111591448Y-103073613D01*
X111600382Y-103025454D01*
X111609717Y-102993634D01*
X111617420Y-102984171D01*
X111649812Y-102988864D01*
X111691916Y-102997899D01*
X111734996Y-103008980D01*
X111770319Y-103019807D01*
X111789150Y-103028085D01*
X111790277Y-103029638D01*
X111788341Y-103047990D01*
X111782741Y-103086171D01*
X111774654Y-103136207D01*
X111773953Y-103140375D01*
X111765249Y-103209962D01*
X111765277Y-103274405D01*
X111774072Y-103349464D01*
X111774438Y-103351832D01*
X111791784Y-103463333D01*
X112818445Y-103463333D01*
X112818445Y-103675000D01*
X111649411Y-103675000D01*
X111634097Y-103628599D01*
X111613413Y-103551153D01*
X111595749Y-103457662D01*
X111582963Y-103360282D01*
X111576911Y-103271166D01*
X111576667Y-103252778D01*
X111578630Y-103193610D01*
G36*
X111577593Y-104416405D02*
G01*
X111606036Y-104301596D01*
X111656054Y-104204779D01*
X111727234Y-104126250D01*
X111819165Y-104066306D01*
X111931435Y-104025244D01*
X112063633Y-104003361D01*
X112155917Y-103999555D01*
X112268111Y-103999555D01*
X112268111Y-104415833D01*
X112267901Y-104538061D01*
X112267864Y-104634776D01*
X112268893Y-104708678D01*
X112271877Y-104762466D01*
X112277708Y-104798842D01*
X112287278Y-104820505D01*
X112301478Y-104830154D01*
X112321199Y-104830491D01*
X112347331Y-104824214D01*
X112380768Y-104814025D01*
X112397898Y-104809033D01*
X112483848Y-104772586D01*
X112557084Y-104717323D01*
X112611687Y-104648321D01*
X112630404Y-104609602D01*
X112644755Y-104552378D01*
X112653105Y-104476863D01*
X112655475Y-104392339D01*
X112651885Y-104308089D01*
X112642357Y-104233393D01*
X112629467Y-104183979D01*
X112617876Y-104145144D01*
X112614852Y-104117600D01*
X112617088Y-104111099D01*
X112636153Y-104103817D01*
X112673889Y-104095940D01*
X112707280Y-104091080D01*
X112786615Y-104081421D01*
X112811504Y-104149849D01*
X112824167Y-104196621D01*
X112833195Y-104259392D01*
X112839120Y-104342764D01*
X112841522Y-104408777D01*
X112843095Y-104491610D01*
X112842264Y-104553246D01*
X112838445Y-104600650D01*
X112831052Y-104640789D01*
X112819500Y-104680630D01*
X112818401Y-104683944D01*
X112767766Y-104794465D01*
X112696286Y-104886452D01*
X112604881Y-104959344D01*
X112494467Y-105012579D01*
X112365961Y-105045593D01*
X112220280Y-105057825D01*
X112208318Y-105057888D01*
X112067615Y-105046645D01*
X112062897Y-105045435D01*
X112062897Y-104823834D01*
X112087724Y-104822784D01*
X112088195Y-104822525D01*
X112091349Y-104807196D01*
X112094129Y-104767890D01*
X112096385Y-104708851D01*
X112097969Y-104634324D01*
X112098732Y-104548553D01*
X112098778Y-104520833D01*
X112098778Y-104225333D01*
X112054554Y-104225333D01*
X111976946Y-104236406D01*
X111902207Y-104266671D01*
X111837754Y-104311700D01*
X111791001Y-104367061D01*
X111779525Y-104389630D01*
X111759614Y-104471763D01*
X111763832Y-104557271D01*
X111790178Y-104639174D01*
X111836654Y-104710493D01*
X111883571Y-104752875D01*
X111923790Y-104776233D01*
X111972622Y-104797731D01*
X112021760Y-104814540D01*
X112062897Y-104823834D01*
X112062897Y-105045435D01*
X111940852Y-105014114D01*
X111829800Y-104962093D01*
X111736226Y-104892382D01*
X111661897Y-104806778D01*
X111608583Y-104707079D01*
X111578052Y-104595085D01*
X111572072Y-104472593D01*
X111577593Y-104416405D01*
X111577593Y-104416405D01*
G37*
X111577593Y-104416405D02*
X111606036Y-104301596D01*
X111656054Y-104204779D01*
X111727234Y-104126250D01*
X111819165Y-104066306D01*
X111931435Y-104025244D01*
X112063633Y-104003361D01*
X112155917Y-103999555D01*
X112268111Y-103999555D01*
X112268111Y-104415833D01*
X112267901Y-104538061D01*
X112267864Y-104634776D01*
X112268893Y-104708678D01*
X112271877Y-104762466D01*
X112277708Y-104798842D01*
X112287278Y-104820505D01*
X112301478Y-104830154D01*
X112321199Y-104830491D01*
X112347331Y-104824214D01*
X112380768Y-104814025D01*
X112397898Y-104809033D01*
X112483848Y-104772586D01*
X112557084Y-104717323D01*
X112611687Y-104648321D01*
X112630404Y-104609602D01*
X112644755Y-104552378D01*
X112653105Y-104476863D01*
X112655475Y-104392339D01*
X112651885Y-104308089D01*
X112642357Y-104233393D01*
X112629467Y-104183979D01*
X112617876Y-104145144D01*
X112614852Y-104117600D01*
X112617088Y-104111099D01*
X112636153Y-104103817D01*
X112673889Y-104095940D01*
X112707280Y-104091080D01*
X112786615Y-104081421D01*
X112811504Y-104149849D01*
X112824167Y-104196621D01*
X112833195Y-104259392D01*
X112839120Y-104342764D01*
X112841522Y-104408777D01*
X112843095Y-104491610D01*
X112842264Y-104553246D01*
X112838445Y-104600650D01*
X112831052Y-104640789D01*
X112819500Y-104680630D01*
X112818401Y-104683944D01*
X112767766Y-104794465D01*
X112696286Y-104886452D01*
X112604881Y-104959344D01*
X112494467Y-105012579D01*
X112365961Y-105045593D01*
X112220280Y-105057825D01*
X112208318Y-105057888D01*
X112067615Y-105046645D01*
X112062897Y-105045435D01*
X112062897Y-104823834D01*
X112087724Y-104822784D01*
X112088195Y-104822525D01*
X112091349Y-104807196D01*
X112094129Y-104767890D01*
X112096385Y-104708851D01*
X112097969Y-104634324D01*
X112098732Y-104548553D01*
X112098778Y-104520833D01*
X112098778Y-104225333D01*
X112054554Y-104225333D01*
X111976946Y-104236406D01*
X111902207Y-104266671D01*
X111837754Y-104311700D01*
X111791001Y-104367061D01*
X111779525Y-104389630D01*
X111759614Y-104471763D01*
X111763832Y-104557271D01*
X111790178Y-104639174D01*
X111836654Y-104710493D01*
X111883571Y-104752875D01*
X111923790Y-104776233D01*
X111972622Y-104797731D01*
X112021760Y-104814540D01*
X112062897Y-104823834D01*
X112062897Y-105045435D01*
X111940852Y-105014114D01*
X111829800Y-104962093D01*
X111736226Y-104892382D01*
X111661897Y-104806778D01*
X111608583Y-104707079D01*
X111578052Y-104595085D01*
X111572072Y-104472593D01*
X111577593Y-104416405D01*
G36*
X111237823Y-105715110D02*
G01*
X111279054Y-105710319D01*
X111346722Y-105707616D01*
X111414389Y-105707000D01*
X111604889Y-105707000D01*
X111604889Y-105239986D01*
X111693084Y-105244187D01*
X111781278Y-105248388D01*
X111785155Y-105477694D01*
X111789033Y-105707000D01*
X112137933Y-105706690D01*
X112248277Y-105706401D01*
X112334265Y-105705583D01*
X112399761Y-105703981D01*
X112448630Y-105701337D01*
X112484735Y-105697396D01*
X112511942Y-105691901D01*
X112534114Y-105684596D01*
X112545706Y-105679650D01*
X112595861Y-105651025D01*
X112628379Y-105615589D01*
X112646361Y-105567261D01*
X112652909Y-105499961D01*
X112653056Y-105469178D01*
X112648694Y-105397316D01*
X112638292Y-105336666D01*
X112629309Y-105308814D01*
X112615136Y-105274504D01*
X112607315Y-105253031D01*
X112606778Y-105250517D01*
X112619151Y-105244118D01*
X112650702Y-105234279D01*
X112673806Y-105228259D01*
X112718368Y-105217099D01*
X112754002Y-105207760D01*
X112764039Y-105204939D01*
X112783434Y-105212272D01*
X112801216Y-105242836D01*
X112816747Y-105291655D01*
X112829390Y-105353753D01*
X112838509Y-105424156D01*
X112843464Y-105497888D01*
X112843618Y-105569974D01*
X112838335Y-105635439D01*
X112826976Y-105689308D01*
X112826351Y-105691259D01*
X112791096Y-105760578D01*
X112735642Y-105824289D01*
X112667829Y-105873567D01*
X112661399Y-105876987D01*
X112632809Y-105889893D01*
X112599681Y-105900696D01*
X112559408Y-105909572D01*
X112509383Y-105916699D01*
X112447000Y-105922254D01*
X112369654Y-105926416D01*
X112274737Y-105929360D01*
X112159643Y-105931265D01*
X112021766Y-105932308D01*
X111858500Y-105932666D01*
X111843318Y-105932671D01*
X111256247Y-105932777D01*
X111240068Y-105834809D01*
X111231992Y-105783903D01*
X111226193Y-105743523D01*
X111223891Y-105722185D01*
X111223889Y-105721920D01*
X111237823Y-105715110D01*
X111237823Y-105715110D01*
G37*
X111237823Y-105715110D02*
X111279054Y-105710319D01*
X111346722Y-105707616D01*
X111414389Y-105707000D01*
X111604889Y-105707000D01*
X111604889Y-105239986D01*
X111693084Y-105244187D01*
X111781278Y-105248388D01*
X111785155Y-105477694D01*
X111789033Y-105707000D01*
X112137933Y-105706690D01*
X112248277Y-105706401D01*
X112334265Y-105705583D01*
X112399761Y-105703981D01*
X112448630Y-105701337D01*
X112484735Y-105697396D01*
X112511942Y-105691901D01*
X112534114Y-105684596D01*
X112545706Y-105679650D01*
X112595861Y-105651025D01*
X112628379Y-105615589D01*
X112646361Y-105567261D01*
X112652909Y-105499961D01*
X112653056Y-105469178D01*
X112648694Y-105397316D01*
X112638292Y-105336666D01*
X112629309Y-105308814D01*
X112615136Y-105274504D01*
X112607315Y-105253031D01*
X112606778Y-105250517D01*
X112619151Y-105244118D01*
X112650702Y-105234279D01*
X112673806Y-105228259D01*
X112718368Y-105217099D01*
X112754002Y-105207760D01*
X112764039Y-105204939D01*
X112783434Y-105212272D01*
X112801216Y-105242836D01*
X112816747Y-105291655D01*
X112829390Y-105353753D01*
X112838509Y-105424156D01*
X112843464Y-105497888D01*
X112843618Y-105569974D01*
X112838335Y-105635439D01*
X112826976Y-105689308D01*
X112826351Y-105691259D01*
X112791096Y-105760578D01*
X112735642Y-105824289D01*
X112667829Y-105873567D01*
X112661399Y-105876987D01*
X112632809Y-105889893D01*
X112599681Y-105900696D01*
X112559408Y-105909572D01*
X112509383Y-105916699D01*
X112447000Y-105922254D01*
X112369654Y-105926416D01*
X112274737Y-105929360D01*
X112159643Y-105931265D01*
X112021766Y-105932308D01*
X111858500Y-105932666D01*
X111843318Y-105932671D01*
X111256247Y-105932777D01*
X111240068Y-105834809D01*
X111231992Y-105783903D01*
X111226193Y-105743523D01*
X111223891Y-105722185D01*
X111223889Y-105721920D01*
X111237823Y-105715110D01*
G36*
X111237823Y-106660554D02*
G01*
X111279054Y-106655764D01*
X111346722Y-106653061D01*
X111414389Y-106652444D01*
X111604889Y-106652444D01*
X111604889Y-106200888D01*
X111788334Y-106200888D01*
X111788334Y-106653780D01*
X112151695Y-106649584D01*
X112271352Y-106647955D01*
X112366250Y-106645728D01*
X112439851Y-106642282D01*
X112495619Y-106636995D01*
X112537016Y-106629245D01*
X112567506Y-106618411D01*
X112590551Y-106603871D01*
X112609615Y-106585002D01*
X112625738Y-106564470D01*
X112641074Y-106537985D01*
X112649648Y-106504998D01*
X112652977Y-106457290D01*
X112653067Y-106416303D01*
X112648688Y-106342960D01*
X112638210Y-106281753D01*
X112629309Y-106254258D01*
X112615136Y-106219948D01*
X112607315Y-106198475D01*
X112606778Y-106195961D01*
X112619151Y-106189563D01*
X112650702Y-106179724D01*
X112673806Y-106173703D01*
X112718368Y-106162544D01*
X112754002Y-106153205D01*
X112764039Y-106150383D01*
X112783545Y-106157675D01*
X112801373Y-106188216D01*
X112816895Y-106237052D01*
X112829483Y-106299230D01*
X112838510Y-106369796D01*
X112843349Y-106443796D01*
X112843371Y-106516277D01*
X112837950Y-106582286D01*
X112826458Y-106636867D01*
X112825888Y-106638666D01*
X112786028Y-106718047D01*
X112723257Y-106782337D01*
X112639244Y-106830307D01*
X112535662Y-106860729D01*
X112520288Y-106863422D01*
X112484987Y-106866811D01*
X112424651Y-106869886D01*
X112342466Y-106872576D01*
X112241618Y-106874812D01*
X112125293Y-106876526D01*
X111996677Y-106877647D01*
X111858955Y-106878108D01*
X111843318Y-106878115D01*
X111256247Y-106878222D01*
X111240068Y-106780254D01*
X111231992Y-106729347D01*
X111226193Y-106688968D01*
X111223891Y-106667629D01*
X111223889Y-106667365D01*
X111237823Y-106660554D01*
X111237823Y-106660554D01*
G37*
X111237823Y-106660554D02*
X111279054Y-106655764D01*
X111346722Y-106653061D01*
X111414389Y-106652444D01*
X111604889Y-106652444D01*
X111604889Y-106200888D01*
X111788334Y-106200888D01*
X111788334Y-106653780D01*
X112151695Y-106649584D01*
X112271352Y-106647955D01*
X112366250Y-106645728D01*
X112439851Y-106642282D01*
X112495619Y-106636995D01*
X112537016Y-106629245D01*
X112567506Y-106618411D01*
X112590551Y-106603871D01*
X112609615Y-106585002D01*
X112625738Y-106564470D01*
X112641074Y-106537985D01*
X112649648Y-106504998D01*
X112652977Y-106457290D01*
X112653067Y-106416303D01*
X112648688Y-106342960D01*
X112638210Y-106281753D01*
X112629309Y-106254258D01*
X112615136Y-106219948D01*
X112607315Y-106198475D01*
X112606778Y-106195961D01*
X112619151Y-106189563D01*
X112650702Y-106179724D01*
X112673806Y-106173703D01*
X112718368Y-106162544D01*
X112754002Y-106153205D01*
X112764039Y-106150383D01*
X112783545Y-106157675D01*
X112801373Y-106188216D01*
X112816895Y-106237052D01*
X112829483Y-106299230D01*
X112838510Y-106369796D01*
X112843349Y-106443796D01*
X112843371Y-106516277D01*
X112837950Y-106582286D01*
X112826458Y-106636867D01*
X112825888Y-106638666D01*
X112786028Y-106718047D01*
X112723257Y-106782337D01*
X112639244Y-106830307D01*
X112535662Y-106860729D01*
X112520288Y-106863422D01*
X112484987Y-106866811D01*
X112424651Y-106869886D01*
X112342466Y-106872576D01*
X112241618Y-106874812D01*
X112125293Y-106876526D01*
X111996677Y-106877647D01*
X111858955Y-106878108D01*
X111843318Y-106878115D01*
X111256247Y-106878222D01*
X111240068Y-106780254D01*
X111231992Y-106729347D01*
X111226193Y-106688968D01*
X111223891Y-106667629D01*
X111223889Y-106667365D01*
X111237823Y-106660554D01*
G36*
X111379111Y-92301444D02*
G01*
X111379111Y-92597777D01*
X111379507Y-92701802D01*
X111380804Y-92780364D01*
X111383164Y-92836213D01*
X111386752Y-92872099D01*
X111391729Y-92890771D01*
X111396750Y-92895159D01*
X111416572Y-92896661D01*
X111458939Y-92900070D01*
X111518275Y-92904931D01*
X111589001Y-92910789D01*
X111615458Y-92912995D01*
X111816527Y-92929782D01*
X111822306Y-92887252D01*
X111839911Y-92768517D01*
X111857940Y-92673223D01*
X111878043Y-92596617D01*
X111901871Y-92533946D01*
X111931074Y-92480454D01*
X111967304Y-92431390D01*
X111989355Y-92406172D01*
X112072882Y-92331040D01*
X112164969Y-92281105D01*
X112270627Y-92253944D01*
X112314382Y-92249166D01*
X112437458Y-92252170D01*
X112547826Y-92279859D01*
X112643946Y-92331000D01*
X112724278Y-92404359D01*
X112787280Y-92498703D01*
X112831413Y-92612797D01*
X112845484Y-92674452D01*
X112854060Y-92743176D01*
X112858203Y-92823671D01*
X112857689Y-92903443D01*
X112852296Y-92970001D01*
X112850933Y-92978777D01*
X112842372Y-93020424D01*
X112829663Y-93072294D01*
X112814851Y-93127182D01*
X112799982Y-93177883D01*
X112787100Y-93217194D01*
X112778249Y-93237908D01*
X112777001Y-93239283D01*
X112759026Y-93239489D01*
X112723479Y-93234088D01*
X112679938Y-93225171D01*
X112637985Y-93214826D01*
X112607199Y-93205144D01*
X112597694Y-93200175D01*
X112598256Y-93183979D01*
X112607478Y-93149552D01*
X112621180Y-93110279D01*
X112645450Y-93022709D01*
X112658930Y-92922162D01*
X112661060Y-92819667D01*
X112651277Y-92726249D01*
X112642602Y-92689290D01*
X112604722Y-92602907D01*
X112548635Y-92537367D01*
X112476694Y-92494206D01*
X112391250Y-92474961D01*
X112318151Y-92477351D01*
X112236347Y-92497506D01*
X112168798Y-92535510D01*
X112114161Y-92593237D01*
X112071094Y-92672561D01*
X112038255Y-92775357D01*
X112014630Y-92901166D01*
X112007114Y-92965117D01*
X112001900Y-93030757D01*
X112000280Y-93074667D01*
X112000000Y-93149390D01*
X111954139Y-93141813D01*
X111907461Y-93135660D01*
X111838323Y-93128586D01*
X111752453Y-93121045D01*
X111655580Y-93113495D01*
X111553433Y-93106390D01*
X111451740Y-93100187D01*
X111389695Y-93096908D01*
X111195667Y-93087373D01*
X111195667Y-92301444D01*
X111379111Y-92301444D01*
X111379111Y-92301444D01*
G37*
X111379111Y-92301444D02*
X111379111Y-92597777D01*
X111379507Y-92701802D01*
X111380804Y-92780364D01*
X111383164Y-92836213D01*
X111386752Y-92872099D01*
X111391729Y-92890771D01*
X111396750Y-92895159D01*
X111416572Y-92896661D01*
X111458939Y-92900070D01*
X111518275Y-92904931D01*
X111589001Y-92910789D01*
X111615458Y-92912995D01*
X111816527Y-92929782D01*
X111822306Y-92887252D01*
X111839911Y-92768517D01*
X111857940Y-92673223D01*
X111878043Y-92596617D01*
X111901871Y-92533946D01*
X111931074Y-92480454D01*
X111967304Y-92431390D01*
X111989355Y-92406172D01*
X112072882Y-92331040D01*
X112164969Y-92281105D01*
X112270627Y-92253944D01*
X112314382Y-92249166D01*
X112437458Y-92252170D01*
X112547826Y-92279859D01*
X112643946Y-92331000D01*
X112724278Y-92404359D01*
X112787280Y-92498703D01*
X112831413Y-92612797D01*
X112845484Y-92674452D01*
X112854060Y-92743176D01*
X112858203Y-92823671D01*
X112857689Y-92903443D01*
X112852296Y-92970001D01*
X112850933Y-92978777D01*
X112842372Y-93020424D01*
X112829663Y-93072294D01*
X112814851Y-93127182D01*
X112799982Y-93177883D01*
X112787100Y-93217194D01*
X112778249Y-93237908D01*
X112777001Y-93239283D01*
X112759026Y-93239489D01*
X112723479Y-93234088D01*
X112679938Y-93225171D01*
X112637985Y-93214826D01*
X112607199Y-93205144D01*
X112597694Y-93200175D01*
X112598256Y-93183979D01*
X112607478Y-93149552D01*
X112621180Y-93110279D01*
X112645450Y-93022709D01*
X112658930Y-92922162D01*
X112661060Y-92819667D01*
X112651277Y-92726249D01*
X112642602Y-92689290D01*
X112604722Y-92602907D01*
X112548635Y-92537367D01*
X112476694Y-92494206D01*
X112391250Y-92474961D01*
X112318151Y-92477351D01*
X112236347Y-92497506D01*
X112168798Y-92535510D01*
X112114161Y-92593237D01*
X112071094Y-92672561D01*
X112038255Y-92775357D01*
X112014630Y-92901166D01*
X112007114Y-92965117D01*
X112001900Y-93030757D01*
X112000280Y-93074667D01*
X112000000Y-93149390D01*
X111954139Y-93141813D01*
X111907461Y-93135660D01*
X111838323Y-93128586D01*
X111752453Y-93121045D01*
X111655580Y-93113495D01*
X111553433Y-93106390D01*
X111451740Y-93100187D01*
X111389695Y-93096908D01*
X111195667Y-93087373D01*
X111195667Y-92301444D01*
X111379111Y-92301444D01*
G36*
X111165469Y-96436605D02*
G01*
X111192550Y-96302294D01*
X111211346Y-96244656D01*
X111233810Y-96186960D01*
X111252639Y-96152220D01*
X111273844Y-96136873D01*
X111303438Y-96137353D01*
X111347435Y-96150095D01*
X111362373Y-96155111D01*
X111410830Y-96173018D01*
X111436406Y-96187287D01*
X111443641Y-96200954D01*
X111441891Y-96208292D01*
X111389262Y-96357353D01*
X111360767Y-96492410D01*
X111356324Y-96613953D01*
X111363443Y-96671718D01*
X111398041Y-96792293D01*
X111454102Y-96894565D01*
X111531769Y-96978726D01*
X111631187Y-97044967D01*
X111652637Y-97055585D01*
X111749040Y-97093785D01*
X111847734Y-97116805D01*
X111958815Y-97126699D01*
X112005824Y-97127444D01*
X112159232Y-97117387D01*
X112293435Y-97087669D01*
X112407772Y-97038969D01*
X112501578Y-96971965D01*
X112574191Y-96887337D01*
X112624948Y-96785764D01*
X112653186Y-96667924D01*
X112658242Y-96534497D01*
X112652278Y-96465426D01*
X112640755Y-96395150D01*
X112624311Y-96323362D01*
X112606102Y-96263435D01*
X112602212Y-96253270D01*
X112567769Y-96167996D01*
X112659223Y-96139749D01*
X112707117Y-96126555D01*
X112744512Y-96119195D01*
X112763205Y-96119244D01*
X112774634Y-96137585D01*
X112789618Y-96177109D01*
X112806281Y-96231304D01*
X112822751Y-96293657D01*
X112837151Y-96357657D01*
X112846255Y-96407777D01*
X112857374Y-96520381D01*
X112857953Y-96638616D01*
X112848214Y-96749696D01*
X112839450Y-96798997D01*
X112805504Y-96905739D01*
X112752569Y-97011693D01*
X112686408Y-97106506D01*
X112640939Y-97155475D01*
X112554661Y-97222558D01*
X112449786Y-97280971D01*
X112335657Y-97326032D01*
X112260651Y-97346005D01*
X112175009Y-97358604D01*
X112072984Y-97365100D01*
X111965353Y-97365479D01*
X111862892Y-97359727D01*
X111776376Y-97347828D01*
X111770755Y-97346671D01*
X111632665Y-97304323D01*
X111506683Y-97239700D01*
X111395840Y-97155438D01*
X111303165Y-97054173D01*
X111231691Y-96938539D01*
X111194214Y-96845222D01*
X111166034Y-96717436D01*
X111156542Y-96578108D01*
X111165469Y-96436605D01*
X111165469Y-96436605D01*
G37*
X111165469Y-96436605D02*
X111192550Y-96302294D01*
X111211346Y-96244656D01*
X111233810Y-96186960D01*
X111252639Y-96152220D01*
X111273844Y-96136873D01*
X111303438Y-96137353D01*
X111347435Y-96150095D01*
X111362373Y-96155111D01*
X111410830Y-96173018D01*
X111436406Y-96187287D01*
X111443641Y-96200954D01*
X111441891Y-96208292D01*
X111389262Y-96357353D01*
X111360767Y-96492410D01*
X111356324Y-96613953D01*
X111363443Y-96671718D01*
X111398041Y-96792293D01*
X111454102Y-96894565D01*
X111531769Y-96978726D01*
X111631187Y-97044967D01*
X111652637Y-97055585D01*
X111749040Y-97093785D01*
X111847734Y-97116805D01*
X111958815Y-97126699D01*
X112005824Y-97127444D01*
X112159232Y-97117387D01*
X112293435Y-97087669D01*
X112407772Y-97038969D01*
X112501578Y-96971965D01*
X112574191Y-96887337D01*
X112624948Y-96785764D01*
X112653186Y-96667924D01*
X112658242Y-96534497D01*
X112652278Y-96465426D01*
X112640755Y-96395150D01*
X112624311Y-96323362D01*
X112606102Y-96263435D01*
X112602212Y-96253270D01*
X112567769Y-96167996D01*
X112659223Y-96139749D01*
X112707117Y-96126555D01*
X112744512Y-96119195D01*
X112763205Y-96119244D01*
X112774634Y-96137585D01*
X112789618Y-96177109D01*
X112806281Y-96231304D01*
X112822751Y-96293657D01*
X112837151Y-96357657D01*
X112846255Y-96407777D01*
X112857374Y-96520381D01*
X112857953Y-96638616D01*
X112848214Y-96749696D01*
X112839450Y-96798997D01*
X112805504Y-96905739D01*
X112752569Y-97011693D01*
X112686408Y-97106506D01*
X112640939Y-97155475D01*
X112554661Y-97222558D01*
X112449786Y-97280971D01*
X112335657Y-97326032D01*
X112260651Y-97346005D01*
X112175009Y-97358604D01*
X112072984Y-97365100D01*
X111965353Y-97365479D01*
X111862892Y-97359727D01*
X111776376Y-97347828D01*
X111770755Y-97346671D01*
X111632665Y-97304323D01*
X111506683Y-97239700D01*
X111395840Y-97155438D01*
X111303165Y-97054173D01*
X111231691Y-96938539D01*
X111194214Y-96845222D01*
X111166034Y-96717436D01*
X111156542Y-96578108D01*
X111165469Y-96436605D01*
G36*
X111585949Y-99969611D02*
G01*
X111623021Y-99854067D01*
X111683638Y-99752808D01*
X111766592Y-99667441D01*
X111870677Y-99599573D01*
X111981732Y-99554686D01*
X112060347Y-99537686D01*
X112154821Y-99528241D01*
X112254158Y-99526583D01*
X112347359Y-99532942D01*
X112416278Y-99545543D01*
X112540295Y-99591604D01*
X112646195Y-99657707D01*
X112732309Y-99742083D01*
X112796967Y-99842968D01*
X112838501Y-99958595D01*
X112847162Y-100001584D01*
X112855886Y-100060829D01*
X112858608Y-100105462D01*
X112854986Y-100148504D01*
X112844679Y-100202976D01*
X112841483Y-100217777D01*
X112802474Y-100334032D01*
X112740405Y-100435423D01*
X112657110Y-100520381D01*
X112554424Y-100587336D01*
X112434182Y-100634719D01*
X112327717Y-100657318D01*
X112196664Y-100665457D01*
X112196664Y-100435215D01*
X112300087Y-100431477D01*
X112393164Y-100416195D01*
X112411381Y-100411176D01*
X112501951Y-100370854D01*
X112574279Y-100312090D01*
X112626269Y-100238625D01*
X112655821Y-100154197D01*
X112660839Y-100062548D01*
X112647116Y-99990903D01*
X112609859Y-99914733D01*
X112548048Y-99849040D01*
X112468907Y-99798869D01*
X112432076Y-99781798D01*
X112399484Y-99770461D01*
X112363815Y-99763695D01*
X112317754Y-99760341D01*
X112253987Y-99759238D01*
X112218722Y-99759166D01*
X112132177Y-99760482D01*
X112066312Y-99765600D01*
X112013659Y-99776275D01*
X111966752Y-99794265D01*
X111918122Y-99821324D01*
X111896871Y-99834849D01*
X111834940Y-99891193D01*
X111790955Y-99964620D01*
X111767116Y-100048795D01*
X111765619Y-100137382D01*
X111775140Y-100185778D01*
X111809505Y-100259667D01*
X111866296Y-100325897D01*
X111939799Y-100378984D01*
X112007056Y-100408391D01*
X112094963Y-100427492D01*
X112196664Y-100435215D01*
X112196664Y-100665457D01*
X112185175Y-100666171D01*
X112052331Y-100652310D01*
X111931341Y-100617335D01*
X111824358Y-100562844D01*
X111733538Y-100490435D01*
X111661035Y-100401708D01*
X111609003Y-100298260D01*
X111579598Y-100181691D01*
X111573630Y-100097833D01*
X111585949Y-99969611D01*
X111585949Y-99969611D01*
G37*
X111585949Y-99969611D02*
X111623021Y-99854067D01*
X111683638Y-99752808D01*
X111766592Y-99667441D01*
X111870677Y-99599573D01*
X111981732Y-99554686D01*
X112060347Y-99537686D01*
X112154821Y-99528241D01*
X112254158Y-99526583D01*
X112347359Y-99532942D01*
X112416278Y-99545543D01*
X112540295Y-99591604D01*
X112646195Y-99657707D01*
X112732309Y-99742083D01*
X112796967Y-99842968D01*
X112838501Y-99958595D01*
X112847162Y-100001584D01*
X112855886Y-100060829D01*
X112858608Y-100105462D01*
X112854986Y-100148504D01*
X112844679Y-100202976D01*
X112841483Y-100217777D01*
X112802474Y-100334032D01*
X112740405Y-100435423D01*
X112657110Y-100520381D01*
X112554424Y-100587336D01*
X112434182Y-100634719D01*
X112327717Y-100657318D01*
X112196664Y-100665457D01*
X112196664Y-100435215D01*
X112300087Y-100431477D01*
X112393164Y-100416195D01*
X112411381Y-100411176D01*
X112501951Y-100370854D01*
X112574279Y-100312090D01*
X112626269Y-100238625D01*
X112655821Y-100154197D01*
X112660839Y-100062548D01*
X112647116Y-99990903D01*
X112609859Y-99914733D01*
X112548048Y-99849040D01*
X112468907Y-99798869D01*
X112432076Y-99781798D01*
X112399484Y-99770461D01*
X112363815Y-99763695D01*
X112317754Y-99760341D01*
X112253987Y-99759238D01*
X112218722Y-99759166D01*
X112132177Y-99760482D01*
X112066312Y-99765600D01*
X112013659Y-99776275D01*
X111966752Y-99794265D01*
X111918122Y-99821324D01*
X111896871Y-99834849D01*
X111834940Y-99891193D01*
X111790955Y-99964620D01*
X111767116Y-100048795D01*
X111765619Y-100137382D01*
X111775140Y-100185778D01*
X111809505Y-100259667D01*
X111866296Y-100325897D01*
X111939799Y-100378984D01*
X112007056Y-100408391D01*
X112094963Y-100427492D01*
X112196664Y-100435215D01*
X112196664Y-100665457D01*
X112185175Y-100666171D01*
X112052331Y-100652310D01*
X111931341Y-100617335D01*
X111824358Y-100562844D01*
X111733538Y-100490435D01*
X111661035Y-100401708D01*
X111609003Y-100298260D01*
X111579598Y-100181691D01*
X111573630Y-100097833D01*
X111585949Y-99969611D01*
G36*
X111158170Y-107908333D02*
G01*
X111178720Y-107762983D01*
X111221504Y-107633713D01*
X111287705Y-107517805D01*
X111370474Y-107420472D01*
X111480598Y-107329803D01*
X111607216Y-107261658D01*
X111750599Y-107215937D01*
X111911021Y-107192543D01*
X112007056Y-107189156D01*
X112177007Y-107200259D01*
X112329771Y-107233633D01*
X112465617Y-107289376D01*
X112584820Y-107367589D01*
X112643637Y-107420472D01*
X112706395Y-107489505D01*
X112754480Y-107559034D01*
X112794101Y-107639185D01*
X112821204Y-107710099D01*
X112839930Y-107784988D01*
X112851584Y-107876790D01*
X112855694Y-107974979D01*
X112851785Y-108069026D01*
X112840679Y-108142937D01*
X112795444Y-108282879D01*
X112727705Y-108405876D01*
X112637780Y-108511585D01*
X112525986Y-108599663D01*
X112392643Y-108669766D01*
X112329960Y-108693881D01*
X112283905Y-108709145D01*
X112243724Y-108719790D01*
X112202567Y-108726636D01*
X112153581Y-108730505D01*
X112089916Y-108732220D01*
X112007056Y-108732601D01*
X111945206Y-108732310D01*
X111945206Y-108498196D01*
X112078595Y-108497401D01*
X112206175Y-108478494D01*
X112324207Y-108442717D01*
X112428952Y-108391313D01*
X112516671Y-108325523D01*
X112583625Y-108246589D01*
X112601105Y-108216769D01*
X112636774Y-108122716D01*
X112654965Y-108015112D01*
X112654942Y-107903126D01*
X112635970Y-107795926D01*
X112635118Y-107792942D01*
X112596688Y-107707286D01*
X112534527Y-107626650D01*
X112453112Y-107555128D01*
X112356920Y-107496816D01*
X112274701Y-107463200D01*
X112204315Y-107447228D01*
X112115830Y-107437602D01*
X112017707Y-107434240D01*
X111918411Y-107437060D01*
X111826404Y-107445978D01*
X111750150Y-107460913D01*
X111725973Y-107468547D01*
X111605133Y-107524304D01*
X111508748Y-107594019D01*
X111436494Y-107678132D01*
X111388048Y-107777088D01*
X111363088Y-107891329D01*
X111359281Y-107971833D01*
X111372706Y-108094701D01*
X111410010Y-108202880D01*
X111470543Y-108295637D01*
X111553654Y-108372237D01*
X111658692Y-108431948D01*
X111785007Y-108474035D01*
X111809746Y-108479638D01*
X111945206Y-108498196D01*
X111945206Y-108732310D01*
X111922536Y-108732203D01*
X111859367Y-108730459D01*
X111810680Y-108726539D01*
X111769609Y-108719614D01*
X111729285Y-108708857D01*
X111683038Y-108693507D01*
X111541784Y-108630993D01*
X111420921Y-108549621D01*
X111321463Y-108450904D01*
X111244419Y-108336356D01*
X111190803Y-108207488D01*
X111161623Y-108065815D01*
X111157893Y-107912848D01*
X111158170Y-107908333D01*
X111158170Y-107908333D01*
G37*
X111158170Y-107908333D02*
X111178720Y-107762983D01*
X111221504Y-107633713D01*
X111287705Y-107517805D01*
X111370474Y-107420472D01*
X111480598Y-107329803D01*
X111607216Y-107261658D01*
X111750599Y-107215937D01*
X111911021Y-107192543D01*
X112007056Y-107189156D01*
X112177007Y-107200259D01*
X112329771Y-107233633D01*
X112465617Y-107289376D01*
X112584820Y-107367589D01*
X112643637Y-107420472D01*
X112706395Y-107489505D01*
X112754480Y-107559034D01*
X112794101Y-107639185D01*
X112821204Y-107710099D01*
X112839930Y-107784988D01*
X112851584Y-107876790D01*
X112855694Y-107974979D01*
X112851785Y-108069026D01*
X112840679Y-108142937D01*
X112795444Y-108282879D01*
X112727705Y-108405876D01*
X112637780Y-108511585D01*
X112525986Y-108599663D01*
X112392643Y-108669766D01*
X112329960Y-108693881D01*
X112283905Y-108709145D01*
X112243724Y-108719790D01*
X112202567Y-108726636D01*
X112153581Y-108730505D01*
X112089916Y-108732220D01*
X112007056Y-108732601D01*
X111945206Y-108732310D01*
X111945206Y-108498196D01*
X112078595Y-108497401D01*
X112206175Y-108478494D01*
X112324207Y-108442717D01*
X112428952Y-108391313D01*
X112516671Y-108325523D01*
X112583625Y-108246589D01*
X112601105Y-108216769D01*
X112636774Y-108122716D01*
X112654965Y-108015112D01*
X112654942Y-107903126D01*
X112635970Y-107795926D01*
X112635118Y-107792942D01*
X112596688Y-107707286D01*
X112534527Y-107626650D01*
X112453112Y-107555128D01*
X112356920Y-107496816D01*
X112274701Y-107463200D01*
X112204315Y-107447228D01*
X112115830Y-107437602D01*
X112017707Y-107434240D01*
X111918411Y-107437060D01*
X111826404Y-107445978D01*
X111750150Y-107460913D01*
X111725973Y-107468547D01*
X111605133Y-107524304D01*
X111508748Y-107594019D01*
X111436494Y-107678132D01*
X111388048Y-107777088D01*
X111363088Y-107891329D01*
X111359281Y-107971833D01*
X111372706Y-108094701D01*
X111410010Y-108202880D01*
X111470543Y-108295637D01*
X111553654Y-108372237D01*
X111658692Y-108431948D01*
X111785007Y-108474035D01*
X111809746Y-108479638D01*
X111945206Y-108498196D01*
X111945206Y-108732310D01*
X111922536Y-108732203D01*
X111859367Y-108730459D01*
X111810680Y-108726539D01*
X111769609Y-108719614D01*
X111729285Y-108708857D01*
X111683038Y-108693507D01*
X111541784Y-108630993D01*
X111420921Y-108549621D01*
X111321463Y-108450904D01*
X111244419Y-108336356D01*
X111190803Y-108207488D01*
X111161623Y-108065815D01*
X111157893Y-107912848D01*
X111158170Y-107908333D01*
D10*
X106250000Y-100500000D02*
G75*
G03X106250000Y-100500000I-6250000J0D01*
G01*
X110100000Y-107750000D02*
G75*
G02X107250000Y-110600000I-2850000J0D01*
G01*
X107250000Y-90400000D02*
G75*
G02X110100000Y-93250000I0J-2850000D01*
G01*
X89900000Y-93250000D02*
G75*
G02X92750000Y-90400000I2850000J0D01*
G01*
X92750000Y-110600000D02*
G75*
G02X89900000Y-107750000I0J2850000D01*
G01*
X107250000Y-90400000D02*
X92750000Y-90400000D01*
X107250000Y-110600000D02*
X92750000Y-110600000D01*
X89900000Y-107750000D02*
X89900000Y-93250000D01*
X110100000Y-107750000D02*
X110100000Y-93250000D01*
X110100000Y-103000000D02*
X105750000Y-103000000D01*
X110100000Y-98000000D02*
X105750000Y-98000000D01*
D12*
X90537142Y-97616666D02*
X90584761Y-97664285D01*
X90632380Y-97807142D01*
X90632380Y-97902380D01*
X90584761Y-98045238D01*
X90489523Y-98140476D01*
X90394285Y-98188095D01*
X90203809Y-98235714D01*
X90060952Y-98235714D01*
X89870476Y-98188095D01*
X89775238Y-98140476D01*
X89680000Y-98045238D01*
X89632380Y-97902380D01*
X89632380Y-97807142D01*
X89680000Y-97664285D01*
X89727619Y-97616666D01*
X90632380Y-96664285D02*
X90632380Y-97235714D01*
X90632380Y-96950000D02*
X89632380Y-96950000D01*
X89775238Y-97045238D01*
X89870476Y-97140476D01*
X89918095Y-97235714D01*
M02*
