G04 #@! TF.GenerationSoftware,KiCad,Pcbnew,5.1.4+dfsg1-1*
G04 #@! TF.CreationDate,2020-04-13T00:01:02+02:00*
G04 #@! TF.ProjectId,C245_conn,43323435-5f63-46f6-9e6e-2e6b69636164,rev?*
G04 #@! TF.SameCoordinates,Original*
G04 #@! TF.FileFunction,Copper,L1,Top*
G04 #@! TF.FilePolarity,Positive*
%FSLAX46Y46*%
G04 Gerber Fmt 4.6, Leading zero omitted, Abs format (unit mm)*
G04 Created by KiCad (PCBNEW 5.1.4+dfsg1-1) date 2020-04-13 00:01:02*
%MOMM*%
%LPD*%
G04 APERTURE LIST*
%ADD10C,0.100000*%
%ADD11C,1.250000*%
%ADD12O,1.700000X1.700000*%
%ADD13R,1.700000X1.700000*%
%ADD14C,3.100000*%
%ADD15C,0.800000*%
%ADD16C,0.200000*%
G04 APERTURE END LIST*
D10*
G36*
X92649504Y-95426204D02*
G01*
X92673773Y-95429804D01*
X92697571Y-95435765D01*
X92720671Y-95444030D01*
X92742849Y-95454520D01*
X92763893Y-95467133D01*
X92783598Y-95481747D01*
X92801777Y-95498223D01*
X92818253Y-95516402D01*
X92832867Y-95536107D01*
X92845480Y-95557151D01*
X92855970Y-95579329D01*
X92864235Y-95602429D01*
X92870196Y-95626227D01*
X92873796Y-95650496D01*
X92875000Y-95675000D01*
X92875000Y-96425000D01*
X92873796Y-96449504D01*
X92870196Y-96473773D01*
X92864235Y-96497571D01*
X92855970Y-96520671D01*
X92845480Y-96542849D01*
X92832867Y-96563893D01*
X92818253Y-96583598D01*
X92801777Y-96601777D01*
X92783598Y-96618253D01*
X92763893Y-96632867D01*
X92742849Y-96645480D01*
X92720671Y-96655970D01*
X92697571Y-96664235D01*
X92673773Y-96670196D01*
X92649504Y-96673796D01*
X92625000Y-96675000D01*
X91375000Y-96675000D01*
X91350496Y-96673796D01*
X91326227Y-96670196D01*
X91302429Y-96664235D01*
X91279329Y-96655970D01*
X91257151Y-96645480D01*
X91236107Y-96632867D01*
X91216402Y-96618253D01*
X91198223Y-96601777D01*
X91181747Y-96583598D01*
X91167133Y-96563893D01*
X91154520Y-96542849D01*
X91144030Y-96520671D01*
X91135765Y-96497571D01*
X91129804Y-96473773D01*
X91126204Y-96449504D01*
X91125000Y-96425000D01*
X91125000Y-95675000D01*
X91126204Y-95650496D01*
X91129804Y-95626227D01*
X91135765Y-95602429D01*
X91144030Y-95579329D01*
X91154520Y-95557151D01*
X91167133Y-95536107D01*
X91181747Y-95516402D01*
X91198223Y-95498223D01*
X91216402Y-95481747D01*
X91236107Y-95467133D01*
X91257151Y-95454520D01*
X91279329Y-95444030D01*
X91302429Y-95435765D01*
X91326227Y-95429804D01*
X91350496Y-95426204D01*
X91375000Y-95425000D01*
X92625000Y-95425000D01*
X92649504Y-95426204D01*
X92649504Y-95426204D01*
G37*
D11*
X92000000Y-96050000D03*
D10*
G36*
X92649504Y-98226204D02*
G01*
X92673773Y-98229804D01*
X92697571Y-98235765D01*
X92720671Y-98244030D01*
X92742849Y-98254520D01*
X92763893Y-98267133D01*
X92783598Y-98281747D01*
X92801777Y-98298223D01*
X92818253Y-98316402D01*
X92832867Y-98336107D01*
X92845480Y-98357151D01*
X92855970Y-98379329D01*
X92864235Y-98402429D01*
X92870196Y-98426227D01*
X92873796Y-98450496D01*
X92875000Y-98475000D01*
X92875000Y-99225000D01*
X92873796Y-99249504D01*
X92870196Y-99273773D01*
X92864235Y-99297571D01*
X92855970Y-99320671D01*
X92845480Y-99342849D01*
X92832867Y-99363893D01*
X92818253Y-99383598D01*
X92801777Y-99401777D01*
X92783598Y-99418253D01*
X92763893Y-99432867D01*
X92742849Y-99445480D01*
X92720671Y-99455970D01*
X92697571Y-99464235D01*
X92673773Y-99470196D01*
X92649504Y-99473796D01*
X92625000Y-99475000D01*
X91375000Y-99475000D01*
X91350496Y-99473796D01*
X91326227Y-99470196D01*
X91302429Y-99464235D01*
X91279329Y-99455970D01*
X91257151Y-99445480D01*
X91236107Y-99432867D01*
X91216402Y-99418253D01*
X91198223Y-99401777D01*
X91181747Y-99383598D01*
X91167133Y-99363893D01*
X91154520Y-99342849D01*
X91144030Y-99320671D01*
X91135765Y-99297571D01*
X91129804Y-99273773D01*
X91126204Y-99249504D01*
X91125000Y-99225000D01*
X91125000Y-98475000D01*
X91126204Y-98450496D01*
X91129804Y-98426227D01*
X91135765Y-98402429D01*
X91144030Y-98379329D01*
X91154520Y-98357151D01*
X91167133Y-98336107D01*
X91181747Y-98316402D01*
X91198223Y-98298223D01*
X91216402Y-98281747D01*
X91236107Y-98267133D01*
X91257151Y-98254520D01*
X91279329Y-98244030D01*
X91302429Y-98235765D01*
X91326227Y-98229804D01*
X91350496Y-98226204D01*
X91375000Y-98225000D01*
X92625000Y-98225000D01*
X92649504Y-98226204D01*
X92649504Y-98226204D01*
G37*
D11*
X92000000Y-98850000D03*
D12*
X87900000Y-104600000D03*
X87900000Y-102060000D03*
X87900000Y-99520000D03*
X87900000Y-96980000D03*
X87900000Y-94440000D03*
D13*
X87900000Y-91900000D03*
D14*
X101800000Y-97350000D03*
X98200000Y-97350000D03*
X101800000Y-103650000D03*
X98200000Y-103650000D03*
X96400000Y-100500000D03*
X100000000Y-100500000D03*
D15*
X92000000Y-101000000D03*
X91000000Y-101000000D03*
X90000000Y-101000000D03*
X90500000Y-102000000D03*
X91500000Y-102000000D03*
X92500000Y-102000000D03*
X93500000Y-102000000D03*
D16*
X90960000Y-97500000D02*
X87900000Y-94440000D01*
X98200000Y-97350000D02*
X98050000Y-97500000D01*
X98050000Y-97500000D02*
X90960000Y-97500000D01*
D10*
G36*
X92185288Y-98118491D02*
G01*
X92363456Y-98172537D01*
X92527655Y-98260303D01*
X92671580Y-98378420D01*
X92789697Y-98522345D01*
X92877463Y-98686544D01*
X92931509Y-98864712D01*
X92950000Y-99052454D01*
X92950000Y-100085786D01*
X92950241Y-100090687D01*
X92969456Y-100285778D01*
X92971368Y-100295391D01*
X93028273Y-100482984D01*
X93032024Y-100492040D01*
X93124434Y-100664927D01*
X93129880Y-100673077D01*
X93254243Y-100824613D01*
X93257538Y-100828248D01*
X95671752Y-103242462D01*
X95675387Y-103245757D01*
X95826923Y-103370120D01*
X95835073Y-103375566D01*
X96007960Y-103467976D01*
X96017016Y-103471727D01*
X96204609Y-103528632D01*
X96214222Y-103530544D01*
X96400000Y-103548842D01*
X96400000Y-103827284D01*
X96469173Y-104175041D01*
X96604861Y-104502620D01*
X96801849Y-104797433D01*
X97052567Y-105048151D01*
X97347380Y-105245139D01*
X97674959Y-105380827D01*
X98022716Y-105450000D01*
X98377284Y-105450000D01*
X98725041Y-105380827D01*
X99052620Y-105245139D01*
X99347433Y-105048151D01*
X99598151Y-104797433D01*
X99795139Y-104502620D01*
X99930827Y-104175041D01*
X100000000Y-103827284D01*
X100000000Y-103472716D01*
X99930827Y-103124959D01*
X99795139Y-102797380D01*
X99598151Y-102502567D01*
X99569129Y-102473545D01*
X99670991Y-102269820D01*
X99822716Y-102300000D01*
X100177284Y-102300000D01*
X100525041Y-102230827D01*
X100852620Y-102095139D01*
X101147433Y-101898151D01*
X101398151Y-101647433D01*
X101463254Y-101550000D01*
X102583332Y-101550000D01*
X102771075Y-101568491D01*
X102949243Y-101622537D01*
X103113445Y-101710305D01*
X103259277Y-101829987D01*
X104670013Y-103240723D01*
X104789695Y-103386555D01*
X104877463Y-103550757D01*
X104931509Y-103728925D01*
X104950000Y-103916668D01*
X104950000Y-106083332D01*
X104931509Y-106271075D01*
X104877463Y-106449243D01*
X104789695Y-106613445D01*
X104670013Y-106759277D01*
X102259277Y-109170013D01*
X102113445Y-109289695D01*
X101949243Y-109377463D01*
X101771075Y-109431509D01*
X101583332Y-109450000D01*
X93416668Y-109450000D01*
X93228925Y-109431509D01*
X93050757Y-109377463D01*
X92886555Y-109289695D01*
X92838187Y-109250000D01*
X92897737Y-109250000D01*
X93187534Y-109192356D01*
X93460517Y-109079283D01*
X93706194Y-108915126D01*
X93915126Y-108706194D01*
X94079283Y-108460517D01*
X94192356Y-108187534D01*
X94250000Y-107897737D01*
X94250000Y-107602263D01*
X94192356Y-107312466D01*
X94079283Y-107039483D01*
X93915126Y-106793806D01*
X93706194Y-106584874D01*
X93460517Y-106420717D01*
X93187534Y-106307644D01*
X92897737Y-106250000D01*
X92602263Y-106250000D01*
X92312466Y-106307644D01*
X92039483Y-106420717D01*
X91793806Y-106584874D01*
X91584874Y-106793806D01*
X91420717Y-107039483D01*
X91307644Y-107312466D01*
X91250000Y-107602263D01*
X91250000Y-107679290D01*
X89328248Y-105757538D01*
X89324613Y-105754243D01*
X89173077Y-105629880D01*
X89164927Y-105624434D01*
X88992040Y-105532024D01*
X88982984Y-105528273D01*
X88795391Y-105471368D01*
X88785778Y-105469456D01*
X88597144Y-105450877D01*
X88681581Y-105381581D01*
X88819042Y-105214084D01*
X88921184Y-105022988D01*
X88984084Y-104815638D01*
X89005322Y-104600000D01*
X88984084Y-104384362D01*
X88921184Y-104177012D01*
X88819042Y-103985916D01*
X88681581Y-103818419D01*
X88514084Y-103680958D01*
X88322988Y-103578816D01*
X88115638Y-103515916D01*
X87954036Y-103500000D01*
X87845964Y-103500000D01*
X87684362Y-103515916D01*
X87477012Y-103578816D01*
X87285916Y-103680958D01*
X87118419Y-103818419D01*
X86980958Y-103985916D01*
X86878816Y-104177012D01*
X86848304Y-104277594D01*
X86329987Y-103759277D01*
X86210305Y-103613445D01*
X86122537Y-103449243D01*
X86075000Y-103292533D01*
X86075000Y-99520000D01*
X86794678Y-99520000D01*
X86815916Y-99735638D01*
X86878816Y-99942988D01*
X86980958Y-100134084D01*
X87118419Y-100301581D01*
X87285916Y-100439042D01*
X87477012Y-100541184D01*
X87684362Y-100604084D01*
X87845964Y-100620000D01*
X87954036Y-100620000D01*
X88115638Y-100604084D01*
X88322988Y-100541184D01*
X88514084Y-100439042D01*
X88681581Y-100301581D01*
X88819042Y-100134084D01*
X88921184Y-99942988D01*
X88984084Y-99735638D01*
X89005322Y-99520000D01*
X88984084Y-99304362D01*
X88921184Y-99097012D01*
X88819042Y-98905916D01*
X88681581Y-98738419D01*
X88514084Y-98600958D01*
X88322988Y-98498816D01*
X88115638Y-98435916D01*
X87954036Y-98420000D01*
X87845964Y-98420000D01*
X87684362Y-98435916D01*
X87477012Y-98498816D01*
X87285916Y-98600958D01*
X87118419Y-98738419D01*
X86980958Y-98905916D01*
X86878816Y-99097012D01*
X86815916Y-99304362D01*
X86794678Y-99520000D01*
X86075000Y-99520000D01*
X86075000Y-98843254D01*
X86122537Y-98686544D01*
X86210303Y-98522345D01*
X86328420Y-98378420D01*
X86472345Y-98260303D01*
X86636544Y-98172537D01*
X86814712Y-98118491D01*
X87002454Y-98100000D01*
X91997546Y-98100000D01*
X92185288Y-98118491D01*
X92185288Y-98118491D01*
G37*
X92185288Y-98118491D02*
X92363456Y-98172537D01*
X92527655Y-98260303D01*
X92671580Y-98378420D01*
X92789697Y-98522345D01*
X92877463Y-98686544D01*
X92931509Y-98864712D01*
X92950000Y-99052454D01*
X92950000Y-100085786D01*
X92950241Y-100090687D01*
X92969456Y-100285778D01*
X92971368Y-100295391D01*
X93028273Y-100482984D01*
X93032024Y-100492040D01*
X93124434Y-100664927D01*
X93129880Y-100673077D01*
X93254243Y-100824613D01*
X93257538Y-100828248D01*
X95671752Y-103242462D01*
X95675387Y-103245757D01*
X95826923Y-103370120D01*
X95835073Y-103375566D01*
X96007960Y-103467976D01*
X96017016Y-103471727D01*
X96204609Y-103528632D01*
X96214222Y-103530544D01*
X96400000Y-103548842D01*
X96400000Y-103827284D01*
X96469173Y-104175041D01*
X96604861Y-104502620D01*
X96801849Y-104797433D01*
X97052567Y-105048151D01*
X97347380Y-105245139D01*
X97674959Y-105380827D01*
X98022716Y-105450000D01*
X98377284Y-105450000D01*
X98725041Y-105380827D01*
X99052620Y-105245139D01*
X99347433Y-105048151D01*
X99598151Y-104797433D01*
X99795139Y-104502620D01*
X99930827Y-104175041D01*
X100000000Y-103827284D01*
X100000000Y-103472716D01*
X99930827Y-103124959D01*
X99795139Y-102797380D01*
X99598151Y-102502567D01*
X99569129Y-102473545D01*
X99670991Y-102269820D01*
X99822716Y-102300000D01*
X100177284Y-102300000D01*
X100525041Y-102230827D01*
X100852620Y-102095139D01*
X101147433Y-101898151D01*
X101398151Y-101647433D01*
X101463254Y-101550000D01*
X102583332Y-101550000D01*
X102771075Y-101568491D01*
X102949243Y-101622537D01*
X103113445Y-101710305D01*
X103259277Y-101829987D01*
X104670013Y-103240723D01*
X104789695Y-103386555D01*
X104877463Y-103550757D01*
X104931509Y-103728925D01*
X104950000Y-103916668D01*
X104950000Y-106083332D01*
X104931509Y-106271075D01*
X104877463Y-106449243D01*
X104789695Y-106613445D01*
X104670013Y-106759277D01*
X102259277Y-109170013D01*
X102113445Y-109289695D01*
X101949243Y-109377463D01*
X101771075Y-109431509D01*
X101583332Y-109450000D01*
X93416668Y-109450000D01*
X93228925Y-109431509D01*
X93050757Y-109377463D01*
X92886555Y-109289695D01*
X92838187Y-109250000D01*
X92897737Y-109250000D01*
X93187534Y-109192356D01*
X93460517Y-109079283D01*
X93706194Y-108915126D01*
X93915126Y-108706194D01*
X94079283Y-108460517D01*
X94192356Y-108187534D01*
X94250000Y-107897737D01*
X94250000Y-107602263D01*
X94192356Y-107312466D01*
X94079283Y-107039483D01*
X93915126Y-106793806D01*
X93706194Y-106584874D01*
X93460517Y-106420717D01*
X93187534Y-106307644D01*
X92897737Y-106250000D01*
X92602263Y-106250000D01*
X92312466Y-106307644D01*
X92039483Y-106420717D01*
X91793806Y-106584874D01*
X91584874Y-106793806D01*
X91420717Y-107039483D01*
X91307644Y-107312466D01*
X91250000Y-107602263D01*
X91250000Y-107679290D01*
X89328248Y-105757538D01*
X89324613Y-105754243D01*
X89173077Y-105629880D01*
X89164927Y-105624434D01*
X88992040Y-105532024D01*
X88982984Y-105528273D01*
X88795391Y-105471368D01*
X88785778Y-105469456D01*
X88597144Y-105450877D01*
X88681581Y-105381581D01*
X88819042Y-105214084D01*
X88921184Y-105022988D01*
X88984084Y-104815638D01*
X89005322Y-104600000D01*
X88984084Y-104384362D01*
X88921184Y-104177012D01*
X88819042Y-103985916D01*
X88681581Y-103818419D01*
X88514084Y-103680958D01*
X88322988Y-103578816D01*
X88115638Y-103515916D01*
X87954036Y-103500000D01*
X87845964Y-103500000D01*
X87684362Y-103515916D01*
X87477012Y-103578816D01*
X87285916Y-103680958D01*
X87118419Y-103818419D01*
X86980958Y-103985916D01*
X86878816Y-104177012D01*
X86848304Y-104277594D01*
X86329987Y-103759277D01*
X86210305Y-103613445D01*
X86122537Y-103449243D01*
X86075000Y-103292533D01*
X86075000Y-99520000D01*
X86794678Y-99520000D01*
X86815916Y-99735638D01*
X86878816Y-99942988D01*
X86980958Y-100134084D01*
X87118419Y-100301581D01*
X87285916Y-100439042D01*
X87477012Y-100541184D01*
X87684362Y-100604084D01*
X87845964Y-100620000D01*
X87954036Y-100620000D01*
X88115638Y-100604084D01*
X88322988Y-100541184D01*
X88514084Y-100439042D01*
X88681581Y-100301581D01*
X88819042Y-100134084D01*
X88921184Y-99942988D01*
X88984084Y-99735638D01*
X89005322Y-99520000D01*
X88984084Y-99304362D01*
X88921184Y-99097012D01*
X88819042Y-98905916D01*
X88681581Y-98738419D01*
X88514084Y-98600958D01*
X88322988Y-98498816D01*
X88115638Y-98435916D01*
X87954036Y-98420000D01*
X87845964Y-98420000D01*
X87684362Y-98435916D01*
X87477012Y-98498816D01*
X87285916Y-98600958D01*
X87118419Y-98738419D01*
X86980958Y-98905916D01*
X86878816Y-99097012D01*
X86815916Y-99304362D01*
X86794678Y-99520000D01*
X86075000Y-99520000D01*
X86075000Y-98843254D01*
X86122537Y-98686544D01*
X86210303Y-98522345D01*
X86328420Y-98378420D01*
X86472345Y-98260303D01*
X86636544Y-98172537D01*
X86814712Y-98118491D01*
X87002454Y-98100000D01*
X91997546Y-98100000D01*
X92185288Y-98118491D01*
G36*
X104977205Y-90172008D02*
G01*
X105143216Y-90235632D01*
X105288565Y-90337212D01*
X105400167Y-90469972D01*
X105470608Y-90627958D01*
X105495206Y-90802753D01*
X105495206Y-97048293D01*
X105473856Y-97249875D01*
X105411578Y-97439994D01*
X105310858Y-97612846D01*
X105174377Y-97762728D01*
X103547854Y-99208527D01*
X103407383Y-99312202D01*
X103252543Y-99387793D01*
X103086600Y-99434164D01*
X102912734Y-99450000D01*
X101463254Y-99450000D01*
X101398151Y-99352567D01*
X101147433Y-99101849D01*
X100852620Y-98904861D01*
X100525041Y-98769173D01*
X100177284Y-98700000D01*
X100155142Y-98700000D01*
X99709012Y-98331519D01*
X99795139Y-98202620D01*
X99930827Y-97875041D01*
X100000000Y-97527284D01*
X100000000Y-97172716D01*
X99930827Y-96824959D01*
X99795139Y-96497380D01*
X99598151Y-96202567D01*
X99347433Y-95951849D01*
X99052620Y-95754861D01*
X98725041Y-95619173D01*
X98377284Y-95550000D01*
X98022716Y-95550000D01*
X97674959Y-95619173D01*
X97347380Y-95754861D01*
X97052567Y-95951849D01*
X96801849Y-96202567D01*
X96604861Y-96497380D01*
X96469173Y-96824959D01*
X96411923Y-97112770D01*
X91612060Y-97147056D01*
X91425895Y-97130230D01*
X91248837Y-97078419D01*
X91085135Y-96993355D01*
X90939052Y-96876721D01*
X88902548Y-94897854D01*
X88921184Y-94862988D01*
X88984084Y-94655638D01*
X89005322Y-94440000D01*
X88984084Y-94224362D01*
X88921184Y-94017012D01*
X88819042Y-93825916D01*
X88681581Y-93658419D01*
X88514084Y-93520958D01*
X88322988Y-93418816D01*
X88115638Y-93355916D01*
X87954036Y-93340000D01*
X87845964Y-93340000D01*
X87684362Y-93355916D01*
X87477012Y-93418816D01*
X87414705Y-93452119D01*
X87054660Y-93102263D01*
X91250000Y-93102263D01*
X91250000Y-93397737D01*
X91307644Y-93687534D01*
X91420717Y-93960517D01*
X91584874Y-94206194D01*
X91793806Y-94415126D01*
X92039483Y-94579283D01*
X92312466Y-94692356D01*
X92602263Y-94750000D01*
X92897737Y-94750000D01*
X93187534Y-94692356D01*
X93460517Y-94579283D01*
X93706194Y-94415126D01*
X93915126Y-94206194D01*
X94079283Y-93960517D01*
X94192356Y-93687534D01*
X94250000Y-93397737D01*
X94250000Y-93102263D01*
X94192356Y-92812466D01*
X94079283Y-92539483D01*
X93915126Y-92293806D01*
X93706194Y-92084874D01*
X93460517Y-91920717D01*
X93187534Y-91807644D01*
X92897737Y-91750000D01*
X92602263Y-91750000D01*
X92312466Y-91807644D01*
X92039483Y-91920717D01*
X91793806Y-92084874D01*
X91584874Y-92293806D01*
X91420717Y-92539483D01*
X91307644Y-92812466D01*
X91250000Y-93102263D01*
X87054660Y-93102263D01*
X86239756Y-92310423D01*
X86116037Y-92163475D01*
X86075000Y-92088328D01*
X86075000Y-92003668D01*
X86112014Y-91626168D01*
X86220582Y-91266574D01*
X86396927Y-90934920D01*
X86634333Y-90643832D01*
X86923755Y-90404401D01*
X87254174Y-90225745D01*
X87498866Y-90150000D01*
X104797697Y-90150000D01*
X104977205Y-90172008D01*
X104977205Y-90172008D01*
G37*
X104977205Y-90172008D02*
X105143216Y-90235632D01*
X105288565Y-90337212D01*
X105400167Y-90469972D01*
X105470608Y-90627958D01*
X105495206Y-90802753D01*
X105495206Y-97048293D01*
X105473856Y-97249875D01*
X105411578Y-97439994D01*
X105310858Y-97612846D01*
X105174377Y-97762728D01*
X103547854Y-99208527D01*
X103407383Y-99312202D01*
X103252543Y-99387793D01*
X103086600Y-99434164D01*
X102912734Y-99450000D01*
X101463254Y-99450000D01*
X101398151Y-99352567D01*
X101147433Y-99101849D01*
X100852620Y-98904861D01*
X100525041Y-98769173D01*
X100177284Y-98700000D01*
X100155142Y-98700000D01*
X99709012Y-98331519D01*
X99795139Y-98202620D01*
X99930827Y-97875041D01*
X100000000Y-97527284D01*
X100000000Y-97172716D01*
X99930827Y-96824959D01*
X99795139Y-96497380D01*
X99598151Y-96202567D01*
X99347433Y-95951849D01*
X99052620Y-95754861D01*
X98725041Y-95619173D01*
X98377284Y-95550000D01*
X98022716Y-95550000D01*
X97674959Y-95619173D01*
X97347380Y-95754861D01*
X97052567Y-95951849D01*
X96801849Y-96202567D01*
X96604861Y-96497380D01*
X96469173Y-96824959D01*
X96411923Y-97112770D01*
X91612060Y-97147056D01*
X91425895Y-97130230D01*
X91248837Y-97078419D01*
X91085135Y-96993355D01*
X90939052Y-96876721D01*
X88902548Y-94897854D01*
X88921184Y-94862988D01*
X88984084Y-94655638D01*
X89005322Y-94440000D01*
X88984084Y-94224362D01*
X88921184Y-94017012D01*
X88819042Y-93825916D01*
X88681581Y-93658419D01*
X88514084Y-93520958D01*
X88322988Y-93418816D01*
X88115638Y-93355916D01*
X87954036Y-93340000D01*
X87845964Y-93340000D01*
X87684362Y-93355916D01*
X87477012Y-93418816D01*
X87414705Y-93452119D01*
X87054660Y-93102263D01*
X91250000Y-93102263D01*
X91250000Y-93397737D01*
X91307644Y-93687534D01*
X91420717Y-93960517D01*
X91584874Y-94206194D01*
X91793806Y-94415126D01*
X92039483Y-94579283D01*
X92312466Y-94692356D01*
X92602263Y-94750000D01*
X92897737Y-94750000D01*
X93187534Y-94692356D01*
X93460517Y-94579283D01*
X93706194Y-94415126D01*
X93915126Y-94206194D01*
X94079283Y-93960517D01*
X94192356Y-93687534D01*
X94250000Y-93397737D01*
X94250000Y-93102263D01*
X94192356Y-92812466D01*
X94079283Y-92539483D01*
X93915126Y-92293806D01*
X93706194Y-92084874D01*
X93460517Y-91920717D01*
X93187534Y-91807644D01*
X92897737Y-91750000D01*
X92602263Y-91750000D01*
X92312466Y-91807644D01*
X92039483Y-91920717D01*
X91793806Y-92084874D01*
X91584874Y-92293806D01*
X91420717Y-92539483D01*
X91307644Y-92812466D01*
X91250000Y-93102263D01*
X87054660Y-93102263D01*
X86239756Y-92310423D01*
X86116037Y-92163475D01*
X86075000Y-92088328D01*
X86075000Y-92003668D01*
X86112014Y-91626168D01*
X86220582Y-91266574D01*
X86396927Y-90934920D01*
X86634333Y-90643832D01*
X86923755Y-90404401D01*
X87254174Y-90225745D01*
X87498866Y-90150000D01*
X104797697Y-90150000D01*
X104977205Y-90172008D01*
M02*
