G04 #@! TF.GenerationSoftware,KiCad,Pcbnew,5.1.5-52549c5~84~ubuntu19.10.1*
G04 #@! TF.CreationDate,2020-03-01T20:16:17+01:00*
G04 #@! TF.ProjectId,C245_conn,43323435-5f63-46f6-9e6e-2e6b69636164,rev?*
G04 #@! TF.SameCoordinates,Original*
G04 #@! TF.FileFunction,Copper,L2,Bot*
G04 #@! TF.FilePolarity,Positive*
%FSLAX46Y46*%
G04 Gerber Fmt 4.6, Leading zero omitted, Abs format (unit mm)*
G04 Created by KiCad (PCBNEW 5.1.5-52549c5~84~ubuntu19.10.1) date 2020-03-01 20:16:17*
%MOMM*%
%LPD*%
G04 APERTURE LIST*
%ADD10C,3.100000*%
%ADD11O,1.700000X1.700000*%
%ADD12R,1.700000X1.700000*%
%ADD13C,0.100000*%
G04 APERTURE END LIST*
D10*
X116275000Y-107025000D03*
X112675000Y-107025000D03*
X116275000Y-113325000D03*
X112675000Y-113325000D03*
X110875000Y-110175000D03*
X114475000Y-110175000D03*
D11*
X104100000Y-114600000D03*
X104100000Y-112060000D03*
X104100000Y-109520000D03*
X104100000Y-106980000D03*
X104100000Y-104440000D03*
D12*
X104100000Y-101900000D03*
D13*
G36*
X103245575Y-110221209D02*
G01*
X103398791Y-110374425D01*
X103578955Y-110494807D01*
X103779142Y-110577727D01*
X103991659Y-110620000D01*
X104208341Y-110620000D01*
X104420858Y-110577727D01*
X104621045Y-110494807D01*
X104801209Y-110374425D01*
X104954425Y-110221209D01*
X105068823Y-110050000D01*
X108948634Y-110050000D01*
X109000967Y-110071677D01*
X109075000Y-110145710D01*
X109075000Y-110352284D01*
X109144173Y-110700041D01*
X109279861Y-111027620D01*
X109476849Y-111322433D01*
X109727567Y-111573151D01*
X110022380Y-111770139D01*
X110349959Y-111905827D01*
X110697716Y-111975000D01*
X110904290Y-111975000D01*
X110935356Y-112006066D01*
X110942932Y-112012284D01*
X110951577Y-112016905D01*
X111022287Y-112046194D01*
X111031667Y-112049039D01*
X111041421Y-112050000D01*
X111404416Y-112050000D01*
X111276849Y-112177567D01*
X111079861Y-112472380D01*
X110944173Y-112799959D01*
X110875000Y-113147716D01*
X110875000Y-113502284D01*
X110944173Y-113850041D01*
X111079861Y-114177620D01*
X111276849Y-114472433D01*
X111527567Y-114723151D01*
X111822380Y-114920139D01*
X112149959Y-115055827D01*
X112497716Y-115125000D01*
X112852284Y-115125000D01*
X113200041Y-115055827D01*
X113527620Y-114920139D01*
X113822433Y-114723151D01*
X114073151Y-114472433D01*
X114270139Y-114177620D01*
X114405827Y-113850041D01*
X114475000Y-113502284D01*
X114475000Y-113147716D01*
X114405827Y-112799959D01*
X114270139Y-112472380D01*
X114073151Y-112177567D01*
X113944681Y-112049097D01*
X113951860Y-112048097D01*
X114004433Y-112033162D01*
X114013554Y-112029572D01*
X114021799Y-112024272D01*
X114027679Y-112018795D01*
X114064548Y-111978451D01*
X114072360Y-111967082D01*
X114089145Y-111933513D01*
X114297716Y-111975000D01*
X114652284Y-111975000D01*
X115000041Y-111905827D01*
X115327620Y-111770139D01*
X115622433Y-111573151D01*
X115873151Y-111322433D01*
X116070139Y-111027620D01*
X116205827Y-110700041D01*
X116275000Y-110352284D01*
X116275000Y-110050000D01*
X117948634Y-110050000D01*
X118000967Y-110071677D01*
X119928323Y-111999033D01*
X119950000Y-112051366D01*
X119950000Y-114948634D01*
X119928323Y-115000967D01*
X117000967Y-117928323D01*
X116948634Y-117950000D01*
X108631126Y-117950000D01*
X108667356Y-117862534D01*
X108725000Y-117572737D01*
X108725000Y-117277263D01*
X108667356Y-116987466D01*
X108554283Y-116714483D01*
X108390126Y-116468806D01*
X108181194Y-116259874D01*
X107935517Y-116095717D01*
X107662534Y-115982644D01*
X107372737Y-115925000D01*
X107077263Y-115925000D01*
X106787466Y-115982644D01*
X106514483Y-116095717D01*
X106305839Y-116235129D01*
X105109060Y-115038350D01*
X105157727Y-114920858D01*
X105200000Y-114708341D01*
X105200000Y-114491659D01*
X105157727Y-114279142D01*
X105074807Y-114078955D01*
X104954425Y-113898791D01*
X104801209Y-113745575D01*
X104621045Y-113625193D01*
X104420858Y-113542273D01*
X104208341Y-113500000D01*
X103991659Y-113500000D01*
X103779142Y-113542273D01*
X103578955Y-113625193D01*
X103398791Y-113745575D01*
X103245575Y-113898791D01*
X103211358Y-113950000D01*
X103051366Y-113950000D01*
X102999033Y-113928323D01*
X102071677Y-113000967D01*
X102050000Y-112948634D01*
X102050000Y-111051366D01*
X102071677Y-110999033D01*
X102999033Y-110071677D01*
X103051366Y-110050000D01*
X103131177Y-110050000D01*
X103245575Y-110221209D01*
G37*
X103245575Y-110221209D02*
X103398791Y-110374425D01*
X103578955Y-110494807D01*
X103779142Y-110577727D01*
X103991659Y-110620000D01*
X104208341Y-110620000D01*
X104420858Y-110577727D01*
X104621045Y-110494807D01*
X104801209Y-110374425D01*
X104954425Y-110221209D01*
X105068823Y-110050000D01*
X108948634Y-110050000D01*
X109000967Y-110071677D01*
X109075000Y-110145710D01*
X109075000Y-110352284D01*
X109144173Y-110700041D01*
X109279861Y-111027620D01*
X109476849Y-111322433D01*
X109727567Y-111573151D01*
X110022380Y-111770139D01*
X110349959Y-111905827D01*
X110697716Y-111975000D01*
X110904290Y-111975000D01*
X110935356Y-112006066D01*
X110942932Y-112012284D01*
X110951577Y-112016905D01*
X111022287Y-112046194D01*
X111031667Y-112049039D01*
X111041421Y-112050000D01*
X111404416Y-112050000D01*
X111276849Y-112177567D01*
X111079861Y-112472380D01*
X110944173Y-112799959D01*
X110875000Y-113147716D01*
X110875000Y-113502284D01*
X110944173Y-113850041D01*
X111079861Y-114177620D01*
X111276849Y-114472433D01*
X111527567Y-114723151D01*
X111822380Y-114920139D01*
X112149959Y-115055827D01*
X112497716Y-115125000D01*
X112852284Y-115125000D01*
X113200041Y-115055827D01*
X113527620Y-114920139D01*
X113822433Y-114723151D01*
X114073151Y-114472433D01*
X114270139Y-114177620D01*
X114405827Y-113850041D01*
X114475000Y-113502284D01*
X114475000Y-113147716D01*
X114405827Y-112799959D01*
X114270139Y-112472380D01*
X114073151Y-112177567D01*
X113944681Y-112049097D01*
X113951860Y-112048097D01*
X114004433Y-112033162D01*
X114013554Y-112029572D01*
X114021799Y-112024272D01*
X114027679Y-112018795D01*
X114064548Y-111978451D01*
X114072360Y-111967082D01*
X114089145Y-111933513D01*
X114297716Y-111975000D01*
X114652284Y-111975000D01*
X115000041Y-111905827D01*
X115327620Y-111770139D01*
X115622433Y-111573151D01*
X115873151Y-111322433D01*
X116070139Y-111027620D01*
X116205827Y-110700041D01*
X116275000Y-110352284D01*
X116275000Y-110050000D01*
X117948634Y-110050000D01*
X118000967Y-110071677D01*
X119928323Y-111999033D01*
X119950000Y-112051366D01*
X119950000Y-114948634D01*
X119928323Y-115000967D01*
X117000967Y-117928323D01*
X116948634Y-117950000D01*
X108631126Y-117950000D01*
X108667356Y-117862534D01*
X108725000Y-117572737D01*
X108725000Y-117277263D01*
X108667356Y-116987466D01*
X108554283Y-116714483D01*
X108390126Y-116468806D01*
X108181194Y-116259874D01*
X107935517Y-116095717D01*
X107662534Y-115982644D01*
X107372737Y-115925000D01*
X107077263Y-115925000D01*
X106787466Y-115982644D01*
X106514483Y-116095717D01*
X106305839Y-116235129D01*
X105109060Y-115038350D01*
X105157727Y-114920858D01*
X105200000Y-114708341D01*
X105200000Y-114491659D01*
X105157727Y-114279142D01*
X105074807Y-114078955D01*
X104954425Y-113898791D01*
X104801209Y-113745575D01*
X104621045Y-113625193D01*
X104420858Y-113542273D01*
X104208341Y-113500000D01*
X103991659Y-113500000D01*
X103779142Y-113542273D01*
X103578955Y-113625193D01*
X103398791Y-113745575D01*
X103245575Y-113898791D01*
X103211358Y-113950000D01*
X103051366Y-113950000D01*
X102999033Y-113928323D01*
X102071677Y-113000967D01*
X102050000Y-112948634D01*
X102050000Y-111051366D01*
X102071677Y-110999033D01*
X102999033Y-110071677D01*
X103051366Y-110050000D01*
X103131177Y-110050000D01*
X103245575Y-110221209D01*
G36*
X118928323Y-100999033D02*
G01*
X118950000Y-101051366D01*
X118950000Y-107944381D01*
X118925211Y-107999581D01*
X116955991Y-109750000D01*
X116225726Y-109750000D01*
X116205827Y-109649959D01*
X116070139Y-109322380D01*
X115873151Y-109027567D01*
X115622433Y-108776849D01*
X115327620Y-108579861D01*
X115000041Y-108444173D01*
X114652284Y-108375000D01*
X114297716Y-108375000D01*
X113949959Y-108444173D01*
X113622380Y-108579861D01*
X113327567Y-108776849D01*
X113245530Y-108858886D01*
X113139374Y-108767894D01*
X113200041Y-108755827D01*
X113527620Y-108620139D01*
X113822433Y-108423151D01*
X114073151Y-108172433D01*
X114270139Y-107877620D01*
X114405827Y-107550041D01*
X114475000Y-107202284D01*
X114475000Y-106847716D01*
X114405827Y-106499959D01*
X114270139Y-106172380D01*
X114073151Y-105877567D01*
X113822433Y-105626849D01*
X113527620Y-105429861D01*
X113200041Y-105294173D01*
X112852284Y-105225000D01*
X112497716Y-105225000D01*
X112149959Y-105294173D01*
X111822380Y-105429861D01*
X111527567Y-105626849D01*
X111276849Y-105877567D01*
X111079861Y-106172380D01*
X110944173Y-106499959D01*
X110875000Y-106847716D01*
X110875000Y-106950000D01*
X107051366Y-106950000D01*
X106999033Y-106928323D01*
X105064644Y-104993934D01*
X105057068Y-104987716D01*
X105057008Y-104987684D01*
X105074807Y-104961045D01*
X105157727Y-104760858D01*
X105200000Y-104548341D01*
X105200000Y-104331659D01*
X105157727Y-104119142D01*
X105074807Y-103918955D01*
X104954425Y-103738791D01*
X104801209Y-103585575D01*
X104621045Y-103465193D01*
X104420858Y-103382273D01*
X104208341Y-103340000D01*
X103991659Y-103340000D01*
X103779142Y-103382273D01*
X103578955Y-103465193D01*
X103398791Y-103585575D01*
X103245575Y-103738791D01*
X103125193Y-103918955D01*
X103042273Y-104119142D01*
X103000000Y-104331659D01*
X103000000Y-104497187D01*
X102591973Y-104002609D01*
X102575000Y-103955366D01*
X102575000Y-102777263D01*
X105725000Y-102777263D01*
X105725000Y-103072737D01*
X105782644Y-103362534D01*
X105895717Y-103635517D01*
X106059874Y-103881194D01*
X106268806Y-104090126D01*
X106514483Y-104254283D01*
X106787466Y-104367356D01*
X107077263Y-104425000D01*
X107372737Y-104425000D01*
X107662534Y-104367356D01*
X107935517Y-104254283D01*
X108181194Y-104090126D01*
X108390126Y-103881194D01*
X108554283Y-103635517D01*
X108667356Y-103362534D01*
X108725000Y-103072737D01*
X108725000Y-102777263D01*
X108667356Y-102487466D01*
X108554283Y-102214483D01*
X108390126Y-101968806D01*
X108181194Y-101759874D01*
X107935517Y-101595717D01*
X107662534Y-101482644D01*
X107372737Y-101425000D01*
X107077263Y-101425000D01*
X106787466Y-101482644D01*
X106514483Y-101595717D01*
X106268806Y-101759874D01*
X106059874Y-101968806D01*
X105895717Y-102214483D01*
X105782644Y-102487466D01*
X105725000Y-102777263D01*
X102575000Y-102777263D01*
X102575000Y-101028108D01*
X102582224Y-100996063D01*
X103015001Y-100084953D01*
X103023824Y-100075000D01*
X118004290Y-100075000D01*
X118928323Y-100999033D01*
G37*
X118928323Y-100999033D02*
X118950000Y-101051366D01*
X118950000Y-107944381D01*
X118925211Y-107999581D01*
X116955991Y-109750000D01*
X116225726Y-109750000D01*
X116205827Y-109649959D01*
X116070139Y-109322380D01*
X115873151Y-109027567D01*
X115622433Y-108776849D01*
X115327620Y-108579861D01*
X115000041Y-108444173D01*
X114652284Y-108375000D01*
X114297716Y-108375000D01*
X113949959Y-108444173D01*
X113622380Y-108579861D01*
X113327567Y-108776849D01*
X113245530Y-108858886D01*
X113139374Y-108767894D01*
X113200041Y-108755827D01*
X113527620Y-108620139D01*
X113822433Y-108423151D01*
X114073151Y-108172433D01*
X114270139Y-107877620D01*
X114405827Y-107550041D01*
X114475000Y-107202284D01*
X114475000Y-106847716D01*
X114405827Y-106499959D01*
X114270139Y-106172380D01*
X114073151Y-105877567D01*
X113822433Y-105626849D01*
X113527620Y-105429861D01*
X113200041Y-105294173D01*
X112852284Y-105225000D01*
X112497716Y-105225000D01*
X112149959Y-105294173D01*
X111822380Y-105429861D01*
X111527567Y-105626849D01*
X111276849Y-105877567D01*
X111079861Y-106172380D01*
X110944173Y-106499959D01*
X110875000Y-106847716D01*
X110875000Y-106950000D01*
X107051366Y-106950000D01*
X106999033Y-106928323D01*
X105064644Y-104993934D01*
X105057068Y-104987716D01*
X105057008Y-104987684D01*
X105074807Y-104961045D01*
X105157727Y-104760858D01*
X105200000Y-104548341D01*
X105200000Y-104331659D01*
X105157727Y-104119142D01*
X105074807Y-103918955D01*
X104954425Y-103738791D01*
X104801209Y-103585575D01*
X104621045Y-103465193D01*
X104420858Y-103382273D01*
X104208341Y-103340000D01*
X103991659Y-103340000D01*
X103779142Y-103382273D01*
X103578955Y-103465193D01*
X103398791Y-103585575D01*
X103245575Y-103738791D01*
X103125193Y-103918955D01*
X103042273Y-104119142D01*
X103000000Y-104331659D01*
X103000000Y-104497187D01*
X102591973Y-104002609D01*
X102575000Y-103955366D01*
X102575000Y-102777263D01*
X105725000Y-102777263D01*
X105725000Y-103072737D01*
X105782644Y-103362534D01*
X105895717Y-103635517D01*
X106059874Y-103881194D01*
X106268806Y-104090126D01*
X106514483Y-104254283D01*
X106787466Y-104367356D01*
X107077263Y-104425000D01*
X107372737Y-104425000D01*
X107662534Y-104367356D01*
X107935517Y-104254283D01*
X108181194Y-104090126D01*
X108390126Y-103881194D01*
X108554283Y-103635517D01*
X108667356Y-103362534D01*
X108725000Y-103072737D01*
X108725000Y-102777263D01*
X108667356Y-102487466D01*
X108554283Y-102214483D01*
X108390126Y-101968806D01*
X108181194Y-101759874D01*
X107935517Y-101595717D01*
X107662534Y-101482644D01*
X107372737Y-101425000D01*
X107077263Y-101425000D01*
X106787466Y-101482644D01*
X106514483Y-101595717D01*
X106268806Y-101759874D01*
X106059874Y-101968806D01*
X105895717Y-102214483D01*
X105782644Y-102487466D01*
X105725000Y-102777263D01*
X102575000Y-102777263D01*
X102575000Y-101028108D01*
X102582224Y-100996063D01*
X103015001Y-100084953D01*
X103023824Y-100075000D01*
X118004290Y-100075000D01*
X118928323Y-100999033D01*
M02*
