G04 #@! TF.GenerationSoftware,KiCad,Pcbnew,5.1.4+dfsg1-1*
G04 #@! TF.CreationDate,2020-04-12T23:52:35+02:00*
G04 #@! TF.ProjectId,OtterIron_Devkit,4f747465-7249-4726-9f6e-5f4465766b69,rev?*
G04 #@! TF.SameCoordinates,Original*
G04 #@! TF.FileFunction,Paste,Top*
G04 #@! TF.FilePolarity,Positive*
%FSLAX46Y46*%
G04 Gerber Fmt 4.6, Leading zero omitted, Abs format (unit mm)*
G04 Created by KiCad (PCBNEW 5.1.4+dfsg1-1) date 2020-04-12 23:52:35*
%MOMM*%
%LPD*%
G04 APERTURE LIST*
%ADD10C,0.150000*%
%ADD11R,1.600000X1.200000*%
%ADD12R,0.900000X0.600000*%
%ADD13R,0.500000X0.600000*%
%ADD14R,0.900000X0.800000*%
%ADD15R,0.800000X0.900000*%
%ADD16R,1.060000X0.650000*%
%ADD17R,0.600000X0.500000*%
%ADD18R,0.250000X0.825000*%
%ADD19R,0.825000X0.250000*%
%ADD20C,0.100000*%
%ADD21C,1.090000*%
%ADD22R,0.600000X0.900000*%
%ADD23R,1.400000X1.050000*%
%ADD24R,1.475000X0.300000*%
%ADD25R,0.300000X1.475000*%
%ADD26R,0.700000X1.300000*%
%ADD27C,0.500000*%
%ADD28C,0.600000*%
%ADD29C,0.650000*%
%ADD30C,1.000000*%
%ADD31R,1.840000X2.200000*%
%ADD32R,1.500000X1.000000*%
%ADD33R,1.800000X1.000000*%
%ADD34C,0.850000*%
%ADD35R,0.650000X1.060000*%
%ADD36R,0.420000X0.700000*%
%ADD37C,1.710000*%
%ADD38R,2.000000X0.320000*%
%ADD39R,1.450000X0.600000*%
%ADD40R,1.450000X0.300000*%
%ADD41R,1.100000X1.100000*%
G04 APERTURE END LIST*
D10*
X88000000Y-120000001D02*
G75*
G02X85999999Y-118000000I0J2000001D01*
G01*
X114000001Y-118000000D02*
G75*
G02X112000000Y-120000001I-2000001J0D01*
G01*
X112000000Y-89999999D02*
G75*
G02X114000001Y-92000000I0J-2000001D01*
G01*
X86000000Y-92000000D02*
G75*
G02X88000000Y-90000000I2000000J0D01*
G01*
X86000000Y-92000000D02*
X85999999Y-118000000D01*
X112000000Y-90000000D02*
X88000000Y-90000000D01*
X114000000Y-118000000D02*
X114000000Y-92000000D01*
X88000000Y-120000001D02*
X112000000Y-120000001D01*
G36*
X93500000Y-95450000D02*
G01*
X93500000Y-96450000D01*
X92500000Y-96450000D01*
X92500000Y-95450000D01*
X93500000Y-95450000D01*
G37*
X93500000Y-95450000D02*
X93500000Y-96450000D01*
X92500000Y-96450000D01*
X92500000Y-95450000D01*
X93500000Y-95450000D01*
D11*
X91500000Y-101400000D03*
X91500000Y-98600000D03*
D12*
X89800000Y-104050000D03*
X89800000Y-105550000D03*
D13*
X96030000Y-110500000D03*
X96970000Y-110500000D03*
D14*
X95700000Y-108000000D03*
X93700000Y-108950000D03*
X93700000Y-107050000D03*
D15*
X92100000Y-106300000D03*
X91150000Y-104300000D03*
X93050000Y-104300000D03*
D16*
X113100000Y-107750000D03*
X113100000Y-109650000D03*
X110900000Y-109650000D03*
X110900000Y-108700000D03*
X110900000Y-107750000D03*
D17*
X112200000Y-105257868D03*
X112200000Y-104317868D03*
X113136396Y-104317868D03*
X113136396Y-105257868D03*
D13*
X112030000Y-111000000D03*
X112970000Y-111000000D03*
D18*
X100300000Y-99862500D03*
X99800000Y-99862500D03*
X99300000Y-99862500D03*
X98800000Y-99862500D03*
X98300000Y-99862500D03*
X97800000Y-99862500D03*
D19*
X97087500Y-99150000D03*
X97087500Y-98650000D03*
X97087500Y-98150000D03*
X97087500Y-97650000D03*
X97087500Y-97150000D03*
X97087500Y-96650000D03*
D18*
X97800000Y-95937500D03*
X98300000Y-95937500D03*
X98800000Y-95937500D03*
X99300000Y-95937500D03*
X99800000Y-95937500D03*
X100300000Y-95937500D03*
D19*
X101012500Y-96650000D03*
X101012500Y-97150000D03*
X101012500Y-97650000D03*
X101012500Y-98150000D03*
X101012500Y-98650000D03*
X101012500Y-99150000D03*
D20*
G36*
X98694504Y-96681204D02*
G01*
X98718773Y-96684804D01*
X98742571Y-96690765D01*
X98765671Y-96699030D01*
X98787849Y-96709520D01*
X98808893Y-96722133D01*
X98828598Y-96736747D01*
X98846777Y-96753223D01*
X98863253Y-96771402D01*
X98877867Y-96791107D01*
X98890480Y-96812151D01*
X98900970Y-96834329D01*
X98909235Y-96857429D01*
X98915196Y-96881227D01*
X98918796Y-96905496D01*
X98920000Y-96930000D01*
X98920000Y-97520000D01*
X98918796Y-97544504D01*
X98915196Y-97568773D01*
X98909235Y-97592571D01*
X98900970Y-97615671D01*
X98890480Y-97637849D01*
X98877867Y-97658893D01*
X98863253Y-97678598D01*
X98846777Y-97696777D01*
X98828598Y-97713253D01*
X98808893Y-97727867D01*
X98787849Y-97740480D01*
X98765671Y-97750970D01*
X98742571Y-97759235D01*
X98718773Y-97765196D01*
X98694504Y-97768796D01*
X98670000Y-97770000D01*
X98080000Y-97770000D01*
X98055496Y-97768796D01*
X98031227Y-97765196D01*
X98007429Y-97759235D01*
X97984329Y-97750970D01*
X97962151Y-97740480D01*
X97941107Y-97727867D01*
X97921402Y-97713253D01*
X97903223Y-97696777D01*
X97886747Y-97678598D01*
X97872133Y-97658893D01*
X97859520Y-97637849D01*
X97849030Y-97615671D01*
X97840765Y-97592571D01*
X97834804Y-97568773D01*
X97831204Y-97544504D01*
X97830000Y-97520000D01*
X97830000Y-96930000D01*
X97831204Y-96905496D01*
X97834804Y-96881227D01*
X97840765Y-96857429D01*
X97849030Y-96834329D01*
X97859520Y-96812151D01*
X97872133Y-96791107D01*
X97886747Y-96771402D01*
X97903223Y-96753223D01*
X97921402Y-96736747D01*
X97941107Y-96722133D01*
X97962151Y-96709520D01*
X97984329Y-96699030D01*
X98007429Y-96690765D01*
X98031227Y-96684804D01*
X98055496Y-96681204D01*
X98080000Y-96680000D01*
X98670000Y-96680000D01*
X98694504Y-96681204D01*
X98694504Y-96681204D01*
G37*
D21*
X98375000Y-97225000D03*
D20*
G36*
X98694504Y-98031204D02*
G01*
X98718773Y-98034804D01*
X98742571Y-98040765D01*
X98765671Y-98049030D01*
X98787849Y-98059520D01*
X98808893Y-98072133D01*
X98828598Y-98086747D01*
X98846777Y-98103223D01*
X98863253Y-98121402D01*
X98877867Y-98141107D01*
X98890480Y-98162151D01*
X98900970Y-98184329D01*
X98909235Y-98207429D01*
X98915196Y-98231227D01*
X98918796Y-98255496D01*
X98920000Y-98280000D01*
X98920000Y-98870000D01*
X98918796Y-98894504D01*
X98915196Y-98918773D01*
X98909235Y-98942571D01*
X98900970Y-98965671D01*
X98890480Y-98987849D01*
X98877867Y-99008893D01*
X98863253Y-99028598D01*
X98846777Y-99046777D01*
X98828598Y-99063253D01*
X98808893Y-99077867D01*
X98787849Y-99090480D01*
X98765671Y-99100970D01*
X98742571Y-99109235D01*
X98718773Y-99115196D01*
X98694504Y-99118796D01*
X98670000Y-99120000D01*
X98080000Y-99120000D01*
X98055496Y-99118796D01*
X98031227Y-99115196D01*
X98007429Y-99109235D01*
X97984329Y-99100970D01*
X97962151Y-99090480D01*
X97941107Y-99077867D01*
X97921402Y-99063253D01*
X97903223Y-99046777D01*
X97886747Y-99028598D01*
X97872133Y-99008893D01*
X97859520Y-98987849D01*
X97849030Y-98965671D01*
X97840765Y-98942571D01*
X97834804Y-98918773D01*
X97831204Y-98894504D01*
X97830000Y-98870000D01*
X97830000Y-98280000D01*
X97831204Y-98255496D01*
X97834804Y-98231227D01*
X97840765Y-98207429D01*
X97849030Y-98184329D01*
X97859520Y-98162151D01*
X97872133Y-98141107D01*
X97886747Y-98121402D01*
X97903223Y-98103223D01*
X97921402Y-98086747D01*
X97941107Y-98072133D01*
X97962151Y-98059520D01*
X97984329Y-98049030D01*
X98007429Y-98040765D01*
X98031227Y-98034804D01*
X98055496Y-98031204D01*
X98080000Y-98030000D01*
X98670000Y-98030000D01*
X98694504Y-98031204D01*
X98694504Y-98031204D01*
G37*
D21*
X98375000Y-98575000D03*
D20*
G36*
X100044504Y-96681204D02*
G01*
X100068773Y-96684804D01*
X100092571Y-96690765D01*
X100115671Y-96699030D01*
X100137849Y-96709520D01*
X100158893Y-96722133D01*
X100178598Y-96736747D01*
X100196777Y-96753223D01*
X100213253Y-96771402D01*
X100227867Y-96791107D01*
X100240480Y-96812151D01*
X100250970Y-96834329D01*
X100259235Y-96857429D01*
X100265196Y-96881227D01*
X100268796Y-96905496D01*
X100270000Y-96930000D01*
X100270000Y-97520000D01*
X100268796Y-97544504D01*
X100265196Y-97568773D01*
X100259235Y-97592571D01*
X100250970Y-97615671D01*
X100240480Y-97637849D01*
X100227867Y-97658893D01*
X100213253Y-97678598D01*
X100196777Y-97696777D01*
X100178598Y-97713253D01*
X100158893Y-97727867D01*
X100137849Y-97740480D01*
X100115671Y-97750970D01*
X100092571Y-97759235D01*
X100068773Y-97765196D01*
X100044504Y-97768796D01*
X100020000Y-97770000D01*
X99430000Y-97770000D01*
X99405496Y-97768796D01*
X99381227Y-97765196D01*
X99357429Y-97759235D01*
X99334329Y-97750970D01*
X99312151Y-97740480D01*
X99291107Y-97727867D01*
X99271402Y-97713253D01*
X99253223Y-97696777D01*
X99236747Y-97678598D01*
X99222133Y-97658893D01*
X99209520Y-97637849D01*
X99199030Y-97615671D01*
X99190765Y-97592571D01*
X99184804Y-97568773D01*
X99181204Y-97544504D01*
X99180000Y-97520000D01*
X99180000Y-96930000D01*
X99181204Y-96905496D01*
X99184804Y-96881227D01*
X99190765Y-96857429D01*
X99199030Y-96834329D01*
X99209520Y-96812151D01*
X99222133Y-96791107D01*
X99236747Y-96771402D01*
X99253223Y-96753223D01*
X99271402Y-96736747D01*
X99291107Y-96722133D01*
X99312151Y-96709520D01*
X99334329Y-96699030D01*
X99357429Y-96690765D01*
X99381227Y-96684804D01*
X99405496Y-96681204D01*
X99430000Y-96680000D01*
X100020000Y-96680000D01*
X100044504Y-96681204D01*
X100044504Y-96681204D01*
G37*
D21*
X99725000Y-97225000D03*
D20*
G36*
X100044504Y-98031204D02*
G01*
X100068773Y-98034804D01*
X100092571Y-98040765D01*
X100115671Y-98049030D01*
X100137849Y-98059520D01*
X100158893Y-98072133D01*
X100178598Y-98086747D01*
X100196777Y-98103223D01*
X100213253Y-98121402D01*
X100227867Y-98141107D01*
X100240480Y-98162151D01*
X100250970Y-98184329D01*
X100259235Y-98207429D01*
X100265196Y-98231227D01*
X100268796Y-98255496D01*
X100270000Y-98280000D01*
X100270000Y-98870000D01*
X100268796Y-98894504D01*
X100265196Y-98918773D01*
X100259235Y-98942571D01*
X100250970Y-98965671D01*
X100240480Y-98987849D01*
X100227867Y-99008893D01*
X100213253Y-99028598D01*
X100196777Y-99046777D01*
X100178598Y-99063253D01*
X100158893Y-99077867D01*
X100137849Y-99090480D01*
X100115671Y-99100970D01*
X100092571Y-99109235D01*
X100068773Y-99115196D01*
X100044504Y-99118796D01*
X100020000Y-99120000D01*
X99430000Y-99120000D01*
X99405496Y-99118796D01*
X99381227Y-99115196D01*
X99357429Y-99109235D01*
X99334329Y-99100970D01*
X99312151Y-99090480D01*
X99291107Y-99077867D01*
X99271402Y-99063253D01*
X99253223Y-99046777D01*
X99236747Y-99028598D01*
X99222133Y-99008893D01*
X99209520Y-98987849D01*
X99199030Y-98965671D01*
X99190765Y-98942571D01*
X99184804Y-98918773D01*
X99181204Y-98894504D01*
X99180000Y-98870000D01*
X99180000Y-98280000D01*
X99181204Y-98255496D01*
X99184804Y-98231227D01*
X99190765Y-98207429D01*
X99199030Y-98184329D01*
X99209520Y-98162151D01*
X99222133Y-98141107D01*
X99236747Y-98121402D01*
X99253223Y-98103223D01*
X99271402Y-98086747D01*
X99291107Y-98072133D01*
X99312151Y-98059520D01*
X99334329Y-98049030D01*
X99357429Y-98040765D01*
X99381227Y-98034804D01*
X99405496Y-98031204D01*
X99430000Y-98030000D01*
X100020000Y-98030000D01*
X100044504Y-98031204D01*
X100044504Y-98031204D01*
G37*
D21*
X99725000Y-98575000D03*
D22*
X90550000Y-114200000D03*
X92050000Y-114200000D03*
D23*
X93300000Y-119020000D03*
X96900000Y-119020000D03*
X93300000Y-117580000D03*
X96900000Y-117580000D03*
X108100000Y-119020000D03*
X111700000Y-119020000D03*
X108100000Y-117580000D03*
X111700000Y-117580000D03*
D24*
X100637500Y-113050000D03*
X100637500Y-112550000D03*
X100637500Y-112050000D03*
X100637500Y-111550000D03*
X100637500Y-111050000D03*
X100637500Y-110550000D03*
X100637500Y-110050000D03*
X100637500Y-109550000D03*
X100637500Y-109050000D03*
X100637500Y-108550000D03*
X100637500Y-108050000D03*
X100637500Y-107550000D03*
D25*
X102050000Y-106137500D03*
X102550000Y-106137500D03*
X103050000Y-106137500D03*
X103550000Y-106137500D03*
X104050000Y-106137500D03*
X104550000Y-106137500D03*
X105050000Y-106137500D03*
X105550000Y-106137500D03*
X106050000Y-106137500D03*
X106550000Y-106137500D03*
X107050000Y-106137500D03*
X107550000Y-106137500D03*
D24*
X108962500Y-107550000D03*
X108962500Y-108050000D03*
X108962500Y-108550000D03*
X108962500Y-109050000D03*
X108962500Y-109550000D03*
X108962500Y-110050000D03*
X108962500Y-110550000D03*
X108962500Y-111050000D03*
X108962500Y-111550000D03*
X108962500Y-112050000D03*
X108962500Y-112550000D03*
X108962500Y-113050000D03*
D25*
X107550000Y-114462500D03*
X107050000Y-114462500D03*
X106550000Y-114462500D03*
X106050000Y-114462500D03*
X105550000Y-114462500D03*
X105050000Y-114462500D03*
X104550000Y-114462500D03*
X104050000Y-114462500D03*
X103550000Y-114462500D03*
X103050000Y-114462500D03*
X102550000Y-114462500D03*
X102050000Y-114462500D03*
D13*
X91470000Y-115600000D03*
X90530000Y-115600000D03*
D17*
X96000000Y-98180000D03*
X96000000Y-99120000D03*
D26*
X107550000Y-92000000D03*
X109450000Y-92000000D03*
D13*
X111720000Y-112000000D03*
X110780000Y-112000000D03*
X89470000Y-106500000D03*
X88530000Y-106500000D03*
D27*
X88032340Y-108232340D03*
D20*
G36*
X87643431Y-108267695D02*
G01*
X88067695Y-107843431D01*
X88421249Y-108196985D01*
X87996985Y-108621249D01*
X87643431Y-108267695D01*
X87643431Y-108267695D01*
G37*
D27*
X87367660Y-107567660D03*
D20*
G36*
X86978751Y-107603015D02*
G01*
X87403015Y-107178751D01*
X87756569Y-107532305D01*
X87332305Y-107956569D01*
X86978751Y-107603015D01*
X86978751Y-107603015D01*
G37*
D27*
X92332340Y-111067660D03*
D20*
G36*
X92367695Y-111456569D02*
G01*
X91943431Y-111032305D01*
X92296985Y-110678751D01*
X92721249Y-111103015D01*
X92367695Y-111456569D01*
X92367695Y-111456569D01*
G37*
D27*
X91667660Y-111732340D03*
D20*
G36*
X91703015Y-112121249D02*
G01*
X91278751Y-111696985D01*
X91632305Y-111343431D01*
X92056569Y-111767695D01*
X91703015Y-112121249D01*
X91703015Y-112121249D01*
G37*
D27*
X93582340Y-112382340D03*
D20*
G36*
X93193431Y-112417695D02*
G01*
X93617695Y-111993431D01*
X93971249Y-112346985D01*
X93546985Y-112771249D01*
X93193431Y-112417695D01*
X93193431Y-112417695D01*
G37*
D27*
X92917660Y-111717660D03*
D20*
G36*
X92528751Y-111753015D02*
G01*
X92953015Y-111328751D01*
X93306569Y-111682305D01*
X92882305Y-112106569D01*
X92528751Y-111753015D01*
X92528751Y-111753015D01*
G37*
D17*
X93800000Y-115130000D03*
X93800000Y-116070000D03*
D13*
X95170000Y-110200000D03*
X94230000Y-110200000D03*
X91470000Y-117400000D03*
X90530000Y-117400000D03*
D17*
X92800000Y-115130000D03*
X92800000Y-116070000D03*
D13*
X98870000Y-106900000D03*
X97930000Y-106900000D03*
X102230000Y-95300000D03*
X103170000Y-95300000D03*
X108470000Y-104650000D03*
X107530000Y-104650000D03*
X98380000Y-119250000D03*
X99320000Y-119250000D03*
X101380000Y-103800000D03*
X102320000Y-103800000D03*
X101280000Y-102900000D03*
X102220000Y-102900000D03*
D17*
X109600000Y-114970000D03*
X109600000Y-114030000D03*
X110000000Y-104470000D03*
X110000000Y-103530000D03*
D13*
X108570000Y-116200000D03*
X107630000Y-116200000D03*
X101530000Y-100300000D03*
X102470000Y-100300000D03*
X102520000Y-101250000D03*
X101580000Y-101250000D03*
X98570000Y-101050000D03*
X97630000Y-101050000D03*
X109530000Y-115900000D03*
X110470000Y-115900000D03*
X87770000Y-106500000D03*
X86830000Y-106500000D03*
D27*
X91732340Y-110367660D03*
D20*
G36*
X91767695Y-110756569D02*
G01*
X91343431Y-110332305D01*
X91696985Y-109978751D01*
X92121249Y-110403015D01*
X91767695Y-110756569D01*
X91767695Y-110756569D01*
G37*
D27*
X91067660Y-111032340D03*
D20*
G36*
X91103015Y-111421249D02*
G01*
X90678751Y-110996985D01*
X91032305Y-110643431D01*
X91456569Y-111067695D01*
X91103015Y-111421249D01*
X91103015Y-111421249D01*
G37*
D13*
X91470000Y-119200000D03*
X90530000Y-119200000D03*
D17*
X86800000Y-108930000D03*
X86800000Y-109870000D03*
D13*
X91470000Y-118300000D03*
X90530000Y-118300000D03*
D17*
X90500000Y-112770000D03*
X90500000Y-111830000D03*
D28*
X99969670Y-106530330D03*
D20*
G36*
X99863604Y-106000000D02*
G01*
X100500000Y-106636396D01*
X100075736Y-107060660D01*
X99439340Y-106424264D01*
X99863604Y-106000000D01*
X99863604Y-106000000D01*
G37*
D28*
X101030330Y-105469670D03*
D20*
G36*
X100924264Y-104939340D02*
G01*
X101560660Y-105575736D01*
X101136396Y-106000000D01*
X100500000Y-105363604D01*
X100924264Y-104939340D01*
X100924264Y-104939340D01*
G37*
D17*
X106550000Y-116970000D03*
X106550000Y-116030000D03*
D13*
X87930000Y-110250000D03*
X88870000Y-110250000D03*
X99380000Y-101300000D03*
X100320000Y-101300000D03*
D17*
X99100000Y-112330000D03*
X99100000Y-113270000D03*
D13*
X109920000Y-106650000D03*
X108980000Y-106650000D03*
D12*
X94400000Y-104050000D03*
X94400000Y-105550000D03*
D13*
X102720000Y-104650000D03*
X101780000Y-104650000D03*
D17*
X108550000Y-115270000D03*
X108550000Y-114330000D03*
D12*
X94400000Y-103050000D03*
X94400000Y-101550000D03*
D14*
X110800000Y-114250000D03*
X112800000Y-113300000D03*
X112800000Y-115200000D03*
D29*
X90187868Y-110099138D03*
D20*
G36*
X90332825Y-109494562D02*
G01*
X90792444Y-109954181D01*
X90042911Y-110703714D01*
X89583292Y-110244095D01*
X90332825Y-109494562D01*
X90332825Y-109494562D01*
G37*
D29*
X88844365Y-108755635D03*
D20*
G36*
X88989322Y-108151059D02*
G01*
X89448941Y-108610678D01*
X88699408Y-109360211D01*
X88239789Y-108900592D01*
X88989322Y-108151059D01*
X88989322Y-108151059D01*
G37*
D29*
X90400000Y-107200000D03*
D20*
G36*
X90544957Y-106595424D02*
G01*
X91004576Y-107055043D01*
X90255043Y-107804576D01*
X89795424Y-107344957D01*
X90544957Y-106595424D01*
X90544957Y-106595424D01*
G37*
D29*
X91071751Y-107871752D03*
D20*
G36*
X91216708Y-107267176D02*
G01*
X91676327Y-107726795D01*
X90926794Y-108476328D01*
X90467175Y-108016709D01*
X91216708Y-107267176D01*
X91216708Y-107267176D01*
G37*
D29*
X91743503Y-108543503D03*
D20*
G36*
X91888460Y-107938927D02*
G01*
X92348079Y-108398546D01*
X91598546Y-109148079D01*
X91138927Y-108688460D01*
X91888460Y-107938927D01*
X91888460Y-107938927D01*
G37*
D30*
X97323800Y-104000000D03*
D20*
G36*
X97823800Y-105100000D02*
G01*
X96823800Y-104400000D01*
X96823800Y-103600000D01*
X97823800Y-102900000D01*
X97823800Y-105100000D01*
X97823800Y-105100000D01*
G37*
D31*
X98733500Y-104000000D03*
D32*
X95920000Y-105500000D03*
D33*
X96066500Y-104000000D03*
D32*
X95920000Y-102500000D03*
D34*
X100067000Y-104000000D03*
D20*
G36*
X99642000Y-102900000D02*
G01*
X100492000Y-103500000D01*
X100492000Y-104500000D01*
X99642000Y-105100000D01*
X99642000Y-102900000D01*
X99642000Y-102900000D01*
G37*
D35*
X103400000Y-99100000D03*
X104350000Y-99100000D03*
X102450000Y-99100000D03*
X102450000Y-96900000D03*
X103400000Y-96900000D03*
X104350000Y-96900000D03*
D36*
X93975000Y-93950000D03*
X92675000Y-93950000D03*
X93325000Y-93950000D03*
X92025000Y-93950000D03*
D37*
X93000000Y-95905000D03*
D20*
G36*
X93765000Y-97300000D02*
G01*
X93765000Y-96760000D01*
X93535000Y-96760000D01*
X93535000Y-97300000D01*
X93115000Y-97300000D01*
X93115000Y-96760000D01*
X92885000Y-96760000D01*
X92885000Y-97300000D01*
X92465000Y-97300000D01*
X92465000Y-96760000D01*
X92235000Y-96760000D01*
X92235000Y-97300000D01*
X91815000Y-97300000D01*
X91815000Y-95050000D01*
X94185000Y-95050000D01*
X94185000Y-97300000D01*
X93765000Y-97300000D01*
X93765000Y-97300000D01*
G37*
D15*
X98000000Y-110100000D03*
X97050000Y-108100000D03*
X98950000Y-108100000D03*
D38*
X88700000Y-111050776D03*
X88700000Y-111656929D03*
X88700000Y-112263082D03*
X88700000Y-112869235D03*
X88700000Y-113475388D03*
X88700000Y-114081541D03*
X88700000Y-114687694D03*
X88700000Y-115293847D03*
X88700000Y-115900000D03*
X88700000Y-116506153D03*
X88700000Y-117112306D03*
X88700000Y-117718459D03*
X88700000Y-118324612D03*
X88700000Y-118930776D03*
D39*
X106500000Y-100700000D03*
X106500000Y-95900000D03*
X106500000Y-95100000D03*
X106500000Y-101500000D03*
X106500000Y-95100000D03*
X106500000Y-95900000D03*
D40*
X106500000Y-96550000D03*
X106500000Y-97050000D03*
X106500000Y-97550000D03*
X106500000Y-98050000D03*
X106500000Y-98550000D03*
X106500000Y-99050000D03*
X106500000Y-99550000D03*
X106500000Y-100050000D03*
D39*
X106500000Y-100700000D03*
X106500000Y-101500000D03*
D41*
X90050000Y-93950000D03*
X90050000Y-96750000D03*
M02*
