G04 #@! TF.GenerationSoftware,KiCad,Pcbnew,5.1.4+dfsg1-1*
G04 #@! TF.CreationDate,2020-04-12T23:52:35+02:00*
G04 #@! TF.ProjectId,OtterIron_Devkit,4f747465-7249-4726-9f6e-5f4465766b69,rev?*
G04 #@! TF.SameCoordinates,Original*
G04 #@! TF.FileFunction,Copper,L2,Bot*
G04 #@! TF.FilePolarity,Positive*
%FSLAX46Y46*%
G04 Gerber Fmt 4.6, Leading zero omitted, Abs format (unit mm)*
G04 Created by KiCad (PCBNEW 5.1.4+dfsg1-1) date 2020-04-12 23:52:35*
%MOMM*%
%LPD*%
G04 APERTURE LIST*
%ADD10C,0.150000*%
%ADD11C,1.600000*%
%ADD12R,1.600000X1.600000*%
%ADD13O,1.700000X1.700000*%
%ADD14R,1.700000X1.700000*%
%ADD15C,0.784860*%
%ADD16O,2.100000X1.000000*%
%ADD17O,1.600000X1.000000*%
%ADD18C,0.700000*%
%ADD19C,0.154000*%
%ADD20C,0.300000*%
%ADD21C,0.200000*%
G04 APERTURE END LIST*
D10*
X88000000Y-120000001D02*
G75*
G02X85999999Y-118000000I0J2000001D01*
G01*
X114000001Y-118000000D02*
G75*
G02X112000000Y-120000001I-2000001J0D01*
G01*
X112000000Y-89999999D02*
G75*
G02X114000001Y-92000000I0J-2000001D01*
G01*
X86000000Y-92000000D02*
G75*
G02X88000000Y-90000000I2000000J0D01*
G01*
X86000000Y-92000000D02*
X85999999Y-118000000D01*
X112000000Y-90000000D02*
X88000000Y-90000000D01*
X114000000Y-118000000D02*
X114000000Y-92000000D01*
X88000000Y-120000001D02*
X112000000Y-120000001D01*
D11*
X90750000Y-91500000D03*
D12*
X95750000Y-91500000D03*
D11*
X100750000Y-91500000D03*
D12*
X105750000Y-91500000D03*
D13*
X87900000Y-104600000D03*
X87900000Y-102060000D03*
X87900000Y-99520000D03*
X87900000Y-96980000D03*
X87900000Y-94440000D03*
D14*
X87900000Y-91900000D03*
D15*
X104070000Y-118435000D03*
X104070000Y-117165000D03*
X102800000Y-118435000D03*
X102800000Y-117165000D03*
X101530000Y-118435000D03*
X101530000Y-117165000D03*
D16*
X107415000Y-102620000D03*
X107415000Y-93980000D03*
D17*
X111595000Y-102620000D03*
X111595000Y-93980000D03*
D18*
X99600000Y-104000000D03*
X98700000Y-104000000D03*
X97800000Y-104000000D03*
X96800000Y-104000000D03*
X95800000Y-104000000D03*
X98200000Y-98700000D03*
X98200000Y-97100000D03*
X97000000Y-95900000D03*
X101400000Y-95300000D03*
X103900000Y-95500000D03*
X102300000Y-98000000D03*
X96500000Y-100800000D03*
X93900000Y-100400000D03*
X94800000Y-100400000D03*
X104000000Y-100700000D03*
X104000000Y-101500000D03*
X105400000Y-109200000D03*
X106300000Y-118000000D03*
X93100000Y-113900000D03*
X88700000Y-107500000D03*
X105600000Y-104600000D03*
X102800000Y-100800000D03*
X111800000Y-116100000D03*
X112100000Y-108700000D03*
X110700000Y-111000000D03*
X101200000Y-106700000D03*
X96900000Y-106700000D03*
X96000000Y-106700000D03*
X111800000Y-106500000D03*
X102700000Y-107600000D03*
X97100000Y-109200000D03*
X96000000Y-109000000D03*
X102700000Y-109300000D03*
X104400000Y-111700000D03*
X106200000Y-112200000D03*
X104000000Y-107600000D03*
X110600000Y-105800000D03*
X111100000Y-104900000D03*
X112000000Y-110100000D03*
X104900000Y-113100000D03*
X105000000Y-117800000D03*
X100300000Y-115400000D03*
X98600000Y-116400000D03*
X95600000Y-116000000D03*
X98700000Y-114200000D03*
X100300000Y-113900000D03*
X98200000Y-113000000D03*
X96700000Y-114500000D03*
X95100000Y-113300000D03*
X97000000Y-111500000D03*
X94600000Y-111500000D03*
X93200000Y-110300000D03*
X91100000Y-105500000D03*
X107000000Y-110400000D03*
X110600000Y-113700000D03*
X110400000Y-115000000D03*
X86750000Y-114750000D03*
X86750000Y-112250000D03*
X86750000Y-118250000D03*
X92000000Y-118250000D03*
X92000000Y-119250000D03*
X99380748Y-110607913D03*
X94437986Y-116043051D03*
X102000000Y-94200000D03*
X101500000Y-99800000D03*
X92041691Y-116287999D03*
X99176770Y-109683831D03*
X106111448Y-107534351D03*
X97000000Y-99900000D03*
X103400000Y-98200000D03*
X91700000Y-113000000D03*
X89400000Y-109500000D03*
X102771216Y-102185655D03*
X113107062Y-117054728D03*
X111500000Y-115200000D03*
X94900000Y-106900000D03*
X101500000Y-115600000D03*
X103127748Y-103831941D03*
X107052861Y-108444275D03*
X99500000Y-94954010D03*
X103098498Y-102974466D03*
X107600000Y-109100000D03*
X100500000Y-94954010D03*
X103200000Y-116200000D03*
X103300000Y-111700000D03*
X102100000Y-110700000D03*
X108297718Y-105800304D03*
X109616510Y-105400000D03*
X104000000Y-108600000D03*
X98045986Y-108050002D03*
X107000000Y-113000000D03*
X96300000Y-115400000D03*
X88900000Y-103250000D03*
X91104018Y-94250000D03*
X104300000Y-98000000D03*
X107800000Y-97600000D03*
X104500000Y-103200000D03*
X105003877Y-103903877D03*
X105181010Y-98299696D03*
X113100000Y-118400000D03*
X112000000Y-114300000D03*
X102233027Y-112900000D03*
X102040303Y-111613569D03*
D19*
X94437986Y-115550675D02*
X94437986Y-116043051D01*
X99380748Y-110607913D02*
X94437986Y-115550675D01*
X102000000Y-94200000D02*
X102000000Y-95700000D01*
X101500000Y-99305026D02*
X101500000Y-99800000D01*
X101500000Y-96200000D02*
X101500000Y-99305026D01*
X102000000Y-95700000D02*
X101500000Y-96200000D01*
X93112001Y-116287999D02*
X98750001Y-110649999D01*
X98750001Y-110649999D02*
X98750001Y-110110600D01*
X98750001Y-110110600D02*
X98826771Y-110033830D01*
X92041691Y-116287999D02*
X93112001Y-116287999D01*
X98826771Y-110033830D02*
X99176770Y-109683831D01*
X97349999Y-100249999D02*
X97000000Y-99900000D01*
X98649999Y-100249999D02*
X97349999Y-100249999D01*
X106111448Y-107534351D02*
X105934351Y-107534351D01*
X105934351Y-107534351D02*
X98649999Y-100249999D01*
D20*
X89400000Y-110700000D02*
X91700000Y-113000000D01*
X89400000Y-109500000D02*
X89400000Y-110700000D01*
D19*
X103400000Y-101556871D02*
X102771216Y-102185655D01*
X103400000Y-98200000D02*
X103400000Y-101556871D01*
X112000000Y-115200000D02*
X111500000Y-115200000D01*
X113107062Y-117054728D02*
X113107062Y-116307062D01*
X113107062Y-116307062D02*
X112000000Y-115200000D01*
D20*
X91700000Y-113000000D02*
X94900000Y-109800000D01*
X94900000Y-109800000D02*
X94900000Y-106900000D01*
D19*
X101530000Y-117165000D02*
X101530000Y-115630000D01*
X101530000Y-115630000D02*
X101500000Y-115600000D01*
X107052861Y-107652861D02*
X107052861Y-108444275D01*
X103127748Y-103831941D02*
X103231941Y-103831941D01*
X103231941Y-103831941D02*
X107052861Y-107652861D01*
X99500000Y-95448984D02*
X99500000Y-94954010D01*
X99800000Y-95748984D02*
X99500000Y-95448984D01*
X99800000Y-100799584D02*
X99800000Y-95748984D01*
X103127748Y-103831941D02*
X102832357Y-103831941D01*
X102832357Y-103831941D02*
X99800000Y-100799584D01*
X107700000Y-109000000D02*
X107600000Y-109100000D01*
X103174466Y-102974466D02*
X103800000Y-103600000D01*
X103800000Y-103600000D02*
X103800000Y-103700000D01*
X103098498Y-102974466D02*
X103174466Y-102974466D01*
X103800000Y-103700000D02*
X107700000Y-107600000D01*
X107700000Y-107600000D02*
X107700000Y-109000000D01*
X100300000Y-95648984D02*
X100500000Y-95448984D01*
X100500000Y-95448984D02*
X100500000Y-94954010D01*
X100300000Y-100670942D02*
X100300000Y-95648984D01*
X103098498Y-102974466D02*
X102603524Y-102974466D01*
X102603524Y-102974466D02*
X100300000Y-100670942D01*
X103200000Y-116765000D02*
X102800000Y-117165000D01*
X103200000Y-116200000D02*
X103200000Y-116765000D01*
X102153431Y-114846569D02*
X103300000Y-113700000D01*
X101530000Y-118435000D02*
X102153431Y-117811569D01*
X103300000Y-112194974D02*
X103300000Y-111700000D01*
X102153431Y-117811569D02*
X102153431Y-114846569D01*
X103300000Y-113700000D02*
X103300000Y-112194974D01*
X99500000Y-118113047D02*
X99500000Y-113300000D01*
X100445384Y-119058431D02*
X99500000Y-118113047D01*
X101750001Y-111049999D02*
X102100000Y-110700000D01*
X102176569Y-119058431D02*
X100445384Y-119058431D01*
X99500000Y-113300000D02*
X101750001Y-111049999D01*
X102800000Y-118435000D02*
X102176569Y-119058431D01*
X108698022Y-105400000D02*
X109121536Y-105400000D01*
X108297718Y-105800304D02*
X108698022Y-105400000D01*
X109121536Y-105400000D02*
X109616510Y-105400000D01*
X104000000Y-108600000D02*
X98595984Y-108600000D01*
X98595984Y-108600000D02*
X98395985Y-108400001D01*
X98395985Y-108400001D02*
X98045986Y-108050002D01*
X106650001Y-115713885D02*
X107000000Y-116063884D01*
X106650001Y-113349999D02*
X106650001Y-115713885D01*
X100500000Y-119600000D02*
X96649999Y-115749999D01*
X107000000Y-118900000D02*
X106300000Y-119600000D01*
X96649999Y-115749999D02*
X96300000Y-115400000D01*
X106300000Y-119600000D02*
X100500000Y-119600000D01*
X107000000Y-113000000D02*
X106650001Y-113349999D01*
X107000000Y-116063884D02*
X107000000Y-118900000D01*
D21*
X88900000Y-103250000D02*
X89500000Y-102650000D01*
X91000000Y-94250000D02*
X91104018Y-94250000D01*
X89500000Y-95750000D02*
X91000000Y-94250000D01*
X89500000Y-102650000D02*
X89500000Y-95750000D01*
D19*
X104700000Y-97600000D02*
X104300000Y-98000000D01*
X107800000Y-97600000D02*
X104700000Y-97600000D01*
X104600000Y-103100000D02*
X104500000Y-103200000D01*
X104300000Y-98000000D02*
X104600000Y-98300000D01*
X104600000Y-98300000D02*
X104600000Y-103100000D01*
X105181010Y-98794670D02*
X105181010Y-98299696D01*
X105000000Y-98975680D02*
X105181010Y-98794670D01*
X105003877Y-103696123D02*
X105100000Y-103600000D01*
X105092593Y-102792593D02*
X105000000Y-102700000D01*
X105000000Y-102700000D02*
X105000000Y-98975680D01*
X105100000Y-103600000D02*
X105092593Y-103407407D01*
X105003877Y-103903877D02*
X105003877Y-103696123D01*
X105092593Y-103407407D02*
X105092593Y-102792593D01*
X113100000Y-118400000D02*
X113688064Y-117811936D01*
X112349999Y-114649999D02*
X112000000Y-114300000D01*
X113688064Y-115988064D02*
X112349999Y-114649999D01*
X113688064Y-117811936D02*
X113688064Y-115988064D01*
X102233027Y-111806293D02*
X102040303Y-111613569D01*
X102233027Y-112900000D02*
X102233027Y-111806293D01*
D21*
G36*
X112354316Y-90210580D02*
G01*
X112695133Y-90313478D01*
X113009479Y-90480619D01*
X113285366Y-90705627D01*
X113512301Y-90979944D01*
X113681626Y-91293104D01*
X113786904Y-91633204D01*
X113824984Y-91995510D01*
X113825001Y-92000329D01*
X113825001Y-103700000D01*
X105641422Y-103700000D01*
X105498732Y-103557310D01*
X105473034Y-103518850D01*
X105426327Y-103472143D01*
X105423593Y-103401063D01*
X105423593Y-102938711D01*
X106131226Y-102938711D01*
X106157894Y-103044265D01*
X106254251Y-103174062D01*
X106374078Y-103282567D01*
X106512771Y-103365610D01*
X106665000Y-103420000D01*
X107215000Y-103420000D01*
X107215000Y-102820000D01*
X107615000Y-102820000D01*
X107615000Y-103420000D01*
X108165000Y-103420000D01*
X108317229Y-103365610D01*
X108455922Y-103282567D01*
X108575749Y-103174062D01*
X108672106Y-103044265D01*
X108698774Y-102938711D01*
X110561226Y-102938711D01*
X110599094Y-103050932D01*
X110696536Y-103178416D01*
X110816977Y-103284441D01*
X110955788Y-103364932D01*
X111107635Y-103416795D01*
X111266682Y-103438038D01*
X111395000Y-103357397D01*
X111395000Y-102820000D01*
X111795000Y-102820000D01*
X111795000Y-103357397D01*
X111923318Y-103438038D01*
X112082365Y-103416795D01*
X112234212Y-103364932D01*
X112373023Y-103284441D01*
X112493464Y-103178416D01*
X112590906Y-103050932D01*
X112628774Y-102938711D01*
X112591868Y-102820000D01*
X111795000Y-102820000D01*
X111395000Y-102820000D01*
X110598132Y-102820000D01*
X110561226Y-102938711D01*
X108698774Y-102938711D01*
X108661868Y-102820000D01*
X107615000Y-102820000D01*
X107215000Y-102820000D01*
X106168132Y-102820000D01*
X106131226Y-102938711D01*
X105423593Y-102938711D01*
X105423593Y-102808839D01*
X105425193Y-102792592D01*
X105423593Y-102776345D01*
X105423593Y-102776338D01*
X105418803Y-102727706D01*
X105416283Y-102719397D01*
X105409767Y-102697919D01*
X105399876Y-102665312D01*
X105369141Y-102607810D01*
X105331000Y-102561336D01*
X105331000Y-102301289D01*
X106131226Y-102301289D01*
X106168132Y-102420000D01*
X107215000Y-102420000D01*
X107215000Y-101820000D01*
X107615000Y-101820000D01*
X107615000Y-102420000D01*
X108661868Y-102420000D01*
X108698774Y-102301289D01*
X110561226Y-102301289D01*
X110598132Y-102420000D01*
X111395000Y-102420000D01*
X111395000Y-101882603D01*
X111795000Y-101882603D01*
X111795000Y-102420000D01*
X112591868Y-102420000D01*
X112628774Y-102301289D01*
X112590906Y-102189068D01*
X112493464Y-102061584D01*
X112373023Y-101955559D01*
X112234212Y-101875068D01*
X112082365Y-101823205D01*
X111923318Y-101801962D01*
X111795000Y-101882603D01*
X111395000Y-101882603D01*
X111266682Y-101801962D01*
X111107635Y-101823205D01*
X110955788Y-101875068D01*
X110816977Y-101955559D01*
X110696536Y-102061584D01*
X110599094Y-102189068D01*
X110561226Y-102301289D01*
X108698774Y-102301289D01*
X108672106Y-102195735D01*
X108575749Y-102065938D01*
X108455922Y-101957433D01*
X108317229Y-101874390D01*
X108165000Y-101820000D01*
X107615000Y-101820000D01*
X107215000Y-101820000D01*
X106665000Y-101820000D01*
X106512771Y-101874390D01*
X106374078Y-101957433D01*
X106254251Y-102065938D01*
X106157894Y-102195735D01*
X106131226Y-102301289D01*
X105331000Y-102301289D01*
X105331000Y-101132973D01*
X107366000Y-101132973D01*
X107366000Y-101247027D01*
X107388250Y-101358888D01*
X107431896Y-101464260D01*
X107495261Y-101559091D01*
X107575909Y-101639739D01*
X107670740Y-101703104D01*
X107776112Y-101746750D01*
X107887973Y-101769000D01*
X108002027Y-101769000D01*
X108113888Y-101746750D01*
X108219260Y-101703104D01*
X108314091Y-101639739D01*
X108394739Y-101559091D01*
X108458104Y-101464260D01*
X108501750Y-101358888D01*
X108524000Y-101247027D01*
X108524000Y-101132973D01*
X108501750Y-101021112D01*
X108458104Y-100915740D01*
X108394739Y-100820909D01*
X108314091Y-100740261D01*
X108219260Y-100676896D01*
X108113888Y-100633250D01*
X108002027Y-100611000D01*
X107887973Y-100611000D01*
X107776112Y-100633250D01*
X107670740Y-100676896D01*
X107575909Y-100740261D01*
X107495261Y-100820909D01*
X107431896Y-100915740D01*
X107388250Y-101021112D01*
X107366000Y-101132973D01*
X105331000Y-101132973D01*
X105331000Y-99112784D01*
X105403568Y-99040216D01*
X105416194Y-99029854D01*
X105457558Y-98979453D01*
X105488293Y-98921951D01*
X105507220Y-98859557D01*
X105512010Y-98810925D01*
X105512010Y-98810917D01*
X105512639Y-98804532D01*
X105566037Y-98768853D01*
X105650167Y-98684723D01*
X105716267Y-98585797D01*
X105761798Y-98475876D01*
X105785010Y-98359185D01*
X105785010Y-98240207D01*
X105761798Y-98123516D01*
X105716267Y-98013595D01*
X105661079Y-97931000D01*
X107294743Y-97931000D01*
X107330843Y-97985027D01*
X107414973Y-98069157D01*
X107513899Y-98135257D01*
X107623820Y-98180788D01*
X107740511Y-98204000D01*
X107859489Y-98204000D01*
X107976180Y-98180788D01*
X108086101Y-98135257D01*
X108185027Y-98069157D01*
X108269157Y-97985027D01*
X108335257Y-97886101D01*
X108380788Y-97776180D01*
X108404000Y-97659489D01*
X108404000Y-97540511D01*
X108380788Y-97423820D01*
X108335257Y-97313899D01*
X108269157Y-97214973D01*
X108185027Y-97130843D01*
X108086101Y-97064743D01*
X107976180Y-97019212D01*
X107859489Y-96996000D01*
X107740511Y-96996000D01*
X107623820Y-97019212D01*
X107513899Y-97064743D01*
X107414973Y-97130843D01*
X107330843Y-97214973D01*
X107294743Y-97269000D01*
X104716244Y-97269000D01*
X104699999Y-97267400D01*
X104683754Y-97269000D01*
X104683745Y-97269000D01*
X104635113Y-97273790D01*
X104572719Y-97292717D01*
X104515217Y-97323452D01*
X104515215Y-97323453D01*
X104515216Y-97323453D01*
X104477441Y-97354454D01*
X104477437Y-97354458D01*
X104464816Y-97364816D01*
X104454458Y-97377437D01*
X104423218Y-97408677D01*
X104359489Y-97396000D01*
X104240511Y-97396000D01*
X104123820Y-97419212D01*
X104013899Y-97464743D01*
X103914973Y-97530843D01*
X103830843Y-97614973D01*
X103764743Y-97713899D01*
X103763643Y-97716555D01*
X103686101Y-97664743D01*
X103576180Y-97619212D01*
X103459489Y-97596000D01*
X103340511Y-97596000D01*
X103223820Y-97619212D01*
X103113899Y-97664743D01*
X103014973Y-97730843D01*
X102930843Y-97814973D01*
X102864743Y-97913899D01*
X102819212Y-98023820D01*
X102796000Y-98140511D01*
X102796000Y-98259489D01*
X102819212Y-98376180D01*
X102864743Y-98486101D01*
X102930843Y-98585027D01*
X103014973Y-98669157D01*
X103069000Y-98705257D01*
X103069001Y-101419765D01*
X102988766Y-101500000D01*
X101597162Y-101500000D01*
X100631000Y-100533838D01*
X100631000Y-99740511D01*
X100896000Y-99740511D01*
X100896000Y-99859489D01*
X100919212Y-99976180D01*
X100964743Y-100086101D01*
X101030843Y-100185027D01*
X101114973Y-100269157D01*
X101213899Y-100335257D01*
X101323820Y-100380788D01*
X101440511Y-100404000D01*
X101559489Y-100404000D01*
X101676180Y-100380788D01*
X101786101Y-100335257D01*
X101885027Y-100269157D01*
X101969157Y-100185027D01*
X102035257Y-100086101D01*
X102080788Y-99976180D01*
X102104000Y-99859489D01*
X102104000Y-99740511D01*
X102080788Y-99623820D01*
X102035257Y-99513899D01*
X101969157Y-99414973D01*
X101885027Y-99330843D01*
X101831000Y-99294743D01*
X101831000Y-96337104D01*
X102222563Y-95945542D01*
X102235184Y-95935184D01*
X102245542Y-95922563D01*
X102245546Y-95922559D01*
X102270646Y-95891975D01*
X102276548Y-95884783D01*
X102307283Y-95827281D01*
X102321145Y-95781585D01*
X102326210Y-95764888D01*
X102330086Y-95725532D01*
X102331000Y-95716255D01*
X102331000Y-95716247D01*
X102332600Y-95700000D01*
X102331000Y-95683753D01*
X102331000Y-95352973D01*
X107366000Y-95352973D01*
X107366000Y-95467027D01*
X107388250Y-95578888D01*
X107431896Y-95684260D01*
X107495261Y-95779091D01*
X107575909Y-95859739D01*
X107670740Y-95923104D01*
X107776112Y-95966750D01*
X107887973Y-95989000D01*
X108002027Y-95989000D01*
X108113888Y-95966750D01*
X108219260Y-95923104D01*
X108314091Y-95859739D01*
X108394739Y-95779091D01*
X108458104Y-95684260D01*
X108501750Y-95578888D01*
X108524000Y-95467027D01*
X108524000Y-95352973D01*
X108501750Y-95241112D01*
X108458104Y-95135740D01*
X108394739Y-95040909D01*
X108314091Y-94960261D01*
X108219260Y-94896896D01*
X108113888Y-94853250D01*
X108002027Y-94831000D01*
X107887973Y-94831000D01*
X107776112Y-94853250D01*
X107670740Y-94896896D01*
X107575909Y-94960261D01*
X107495261Y-95040909D01*
X107431896Y-95135740D01*
X107388250Y-95241112D01*
X107366000Y-95352973D01*
X102331000Y-95352973D01*
X102331000Y-94705257D01*
X102385027Y-94669157D01*
X102469157Y-94585027D01*
X102535257Y-94486101D01*
X102580788Y-94376180D01*
X102596198Y-94298711D01*
X106131226Y-94298711D01*
X106157894Y-94404265D01*
X106254251Y-94534062D01*
X106374078Y-94642567D01*
X106512771Y-94725610D01*
X106665000Y-94780000D01*
X107215000Y-94780000D01*
X107215000Y-94180000D01*
X107615000Y-94180000D01*
X107615000Y-94780000D01*
X108165000Y-94780000D01*
X108317229Y-94725610D01*
X108455922Y-94642567D01*
X108575749Y-94534062D01*
X108672106Y-94404265D01*
X108698774Y-94298711D01*
X110561226Y-94298711D01*
X110599094Y-94410932D01*
X110696536Y-94538416D01*
X110816977Y-94644441D01*
X110955788Y-94724932D01*
X111107635Y-94776795D01*
X111266682Y-94798038D01*
X111395000Y-94717397D01*
X111395000Y-94180000D01*
X111795000Y-94180000D01*
X111795000Y-94717397D01*
X111923318Y-94798038D01*
X112082365Y-94776795D01*
X112234212Y-94724932D01*
X112373023Y-94644441D01*
X112493464Y-94538416D01*
X112590906Y-94410932D01*
X112628774Y-94298711D01*
X112591868Y-94180000D01*
X111795000Y-94180000D01*
X111395000Y-94180000D01*
X110598132Y-94180000D01*
X110561226Y-94298711D01*
X108698774Y-94298711D01*
X108661868Y-94180000D01*
X107615000Y-94180000D01*
X107215000Y-94180000D01*
X106168132Y-94180000D01*
X106131226Y-94298711D01*
X102596198Y-94298711D01*
X102604000Y-94259489D01*
X102604000Y-94140511D01*
X102580788Y-94023820D01*
X102535257Y-93913899D01*
X102469157Y-93814973D01*
X102385027Y-93730843D01*
X102286101Y-93664743D01*
X102277763Y-93661289D01*
X106131226Y-93661289D01*
X106168132Y-93780000D01*
X107215000Y-93780000D01*
X107215000Y-93180000D01*
X107615000Y-93180000D01*
X107615000Y-93780000D01*
X108661868Y-93780000D01*
X108698774Y-93661289D01*
X110561226Y-93661289D01*
X110598132Y-93780000D01*
X111395000Y-93780000D01*
X111395000Y-93242603D01*
X111795000Y-93242603D01*
X111795000Y-93780000D01*
X112591868Y-93780000D01*
X112628774Y-93661289D01*
X112590906Y-93549068D01*
X112493464Y-93421584D01*
X112373023Y-93315559D01*
X112234212Y-93235068D01*
X112082365Y-93183205D01*
X111923318Y-93161962D01*
X111795000Y-93242603D01*
X111395000Y-93242603D01*
X111266682Y-93161962D01*
X111107635Y-93183205D01*
X110955788Y-93235068D01*
X110816977Y-93315559D01*
X110696536Y-93421584D01*
X110599094Y-93549068D01*
X110561226Y-93661289D01*
X108698774Y-93661289D01*
X108672106Y-93555735D01*
X108575749Y-93425938D01*
X108455922Y-93317433D01*
X108317229Y-93234390D01*
X108165000Y-93180000D01*
X107615000Y-93180000D01*
X107215000Y-93180000D01*
X106665000Y-93180000D01*
X106512771Y-93234390D01*
X106374078Y-93317433D01*
X106254251Y-93425938D01*
X106157894Y-93555735D01*
X106131226Y-93661289D01*
X102277763Y-93661289D01*
X102176180Y-93619212D01*
X102059489Y-93596000D01*
X101940511Y-93596000D01*
X101823820Y-93619212D01*
X101713899Y-93664743D01*
X101614973Y-93730843D01*
X101530843Y-93814973D01*
X101464743Y-93913899D01*
X101419212Y-94023820D01*
X101396000Y-94140511D01*
X101396000Y-94259489D01*
X101419212Y-94376180D01*
X101464743Y-94486101D01*
X101530843Y-94585027D01*
X101614973Y-94669157D01*
X101669000Y-94705257D01*
X101669001Y-95562894D01*
X101277442Y-95954453D01*
X101264816Y-95964816D01*
X101223452Y-96015218D01*
X101192717Y-96072720D01*
X101173790Y-96135114D01*
X101169000Y-96183746D01*
X101169000Y-96183753D01*
X101167400Y-96200000D01*
X101169000Y-96216247D01*
X101169001Y-99288762D01*
X101169000Y-99288772D01*
X101169000Y-99294743D01*
X101114973Y-99330843D01*
X101030843Y-99414973D01*
X100964743Y-99513899D01*
X100919212Y-99623820D01*
X100896000Y-99740511D01*
X100631000Y-99740511D01*
X100631000Y-95786088D01*
X100722558Y-95694530D01*
X100735184Y-95684168D01*
X100776548Y-95633767D01*
X100807283Y-95576265D01*
X100814529Y-95552377D01*
X100826210Y-95513872D01*
X100826766Y-95508225D01*
X100831000Y-95465239D01*
X100831000Y-95465231D01*
X100831629Y-95458846D01*
X100885027Y-95423167D01*
X100969157Y-95339037D01*
X101035257Y-95240111D01*
X101080788Y-95130190D01*
X101104000Y-95013499D01*
X101104000Y-94894521D01*
X101080788Y-94777830D01*
X101035257Y-94667909D01*
X100969157Y-94568983D01*
X100885027Y-94484853D01*
X100786101Y-94418753D01*
X100676180Y-94373222D01*
X100559489Y-94350010D01*
X100440511Y-94350010D01*
X100323820Y-94373222D01*
X100213899Y-94418753D01*
X100114973Y-94484853D01*
X100030843Y-94568983D01*
X100000000Y-94615143D01*
X99969157Y-94568983D01*
X99885027Y-94484853D01*
X99786101Y-94418753D01*
X99676180Y-94373222D01*
X99559489Y-94350010D01*
X99440511Y-94350010D01*
X99323820Y-94373222D01*
X99213899Y-94418753D01*
X99114973Y-94484853D01*
X99030843Y-94568983D01*
X98964743Y-94667909D01*
X98919212Y-94777830D01*
X98896000Y-94894521D01*
X98896000Y-95013499D01*
X98919212Y-95130190D01*
X98964743Y-95240111D01*
X99030843Y-95339037D01*
X99114973Y-95423167D01*
X99168371Y-95458846D01*
X99169000Y-95465231D01*
X99169000Y-95465238D01*
X99171367Y-95489267D01*
X99173790Y-95513871D01*
X99178084Y-95528025D01*
X99192717Y-95576264D01*
X99223452Y-95633766D01*
X99264816Y-95684168D01*
X99277442Y-95694530D01*
X99469001Y-95886090D01*
X99469000Y-100600896D01*
X98895544Y-100027440D01*
X98885183Y-100014815D01*
X98834782Y-99973451D01*
X98777280Y-99942716D01*
X98714886Y-99923789D01*
X98666254Y-99918999D01*
X98666246Y-99918999D01*
X98649999Y-99917399D01*
X98633752Y-99918999D01*
X97604000Y-99918999D01*
X97604000Y-99840511D01*
X97580788Y-99723820D01*
X97535257Y-99613899D01*
X97469157Y-99514973D01*
X97385027Y-99430843D01*
X97286101Y-99364743D01*
X97176180Y-99319212D01*
X97059489Y-99296000D01*
X96940511Y-99296000D01*
X96823820Y-99319212D01*
X96713899Y-99364743D01*
X96614973Y-99430843D01*
X96530843Y-99514973D01*
X96464743Y-99613899D01*
X96419212Y-99723820D01*
X96396000Y-99840511D01*
X96396000Y-99959489D01*
X96419212Y-100076180D01*
X96464743Y-100186101D01*
X96530843Y-100285027D01*
X96614973Y-100369157D01*
X96713899Y-100435257D01*
X96823820Y-100480788D01*
X96940511Y-100504000D01*
X97059489Y-100504000D01*
X97122476Y-100491471D01*
X97127436Y-100495541D01*
X97127440Y-100495545D01*
X97157403Y-100520135D01*
X97165216Y-100526547D01*
X97222718Y-100557282D01*
X97270589Y-100571804D01*
X97285111Y-100576209D01*
X97291296Y-100576818D01*
X97333744Y-100580999D01*
X97333751Y-100580999D01*
X97349998Y-100582599D01*
X97366245Y-100580999D01*
X98512895Y-100580999D01*
X99431896Y-101500000D01*
X95900000Y-101500000D01*
X95900000Y-95641422D01*
X96441422Y-95100000D01*
X96600000Y-95100000D01*
X96619509Y-95098079D01*
X96638268Y-95092388D01*
X96655557Y-95083147D01*
X96670711Y-95070711D01*
X96683147Y-95055557D01*
X96692388Y-95038268D01*
X96698079Y-95019509D01*
X96700000Y-95000000D01*
X96700000Y-94600000D01*
X96698079Y-94580491D01*
X96692388Y-94561732D01*
X96683147Y-94544443D01*
X96670711Y-94529289D01*
X96655557Y-94516853D01*
X96638268Y-94507612D01*
X96619509Y-94501921D01*
X96600000Y-94500000D01*
X96200000Y-94500000D01*
X96180491Y-94501921D01*
X96161732Y-94507612D01*
X96144443Y-94516853D01*
X96129289Y-94529289D01*
X95329289Y-95329289D01*
X95316853Y-95344443D01*
X95307612Y-95361732D01*
X95301921Y-95380491D01*
X95300000Y-95400000D01*
X95300000Y-102000000D01*
X95301921Y-102019509D01*
X95307612Y-102038268D01*
X95316853Y-102055557D01*
X95329289Y-102070711D01*
X95344443Y-102083147D01*
X95361732Y-102092388D01*
X95380491Y-102098079D01*
X95400000Y-102100000D01*
X100031896Y-102100000D01*
X105507448Y-107575553D01*
X105507448Y-107593840D01*
X105530660Y-107710531D01*
X105576191Y-107820452D01*
X105642291Y-107919378D01*
X105726421Y-108003508D01*
X105825347Y-108069608D01*
X105935268Y-108115139D01*
X106051959Y-108138351D01*
X106170937Y-108138351D01*
X106287628Y-108115139D01*
X106397549Y-108069608D01*
X106496475Y-108003508D01*
X106580605Y-107919378D01*
X106646705Y-107820452D01*
X106677647Y-107745752D01*
X106721861Y-107789966D01*
X106721861Y-107939018D01*
X106667834Y-107975118D01*
X106583704Y-108059248D01*
X106517604Y-108158174D01*
X106472073Y-108268095D01*
X106448861Y-108384786D01*
X106448861Y-108503764D01*
X106472073Y-108620455D01*
X106517604Y-108730376D01*
X106583704Y-108829302D01*
X106667834Y-108913432D01*
X106766760Y-108979532D01*
X106876681Y-109025063D01*
X106993372Y-109048275D01*
X106996000Y-109048275D01*
X106996000Y-109159489D01*
X107019212Y-109276180D01*
X107064743Y-109386101D01*
X107130843Y-109485027D01*
X107214973Y-109569157D01*
X107313899Y-109635257D01*
X107423820Y-109680788D01*
X107540511Y-109704000D01*
X107659489Y-109704000D01*
X107776180Y-109680788D01*
X107886101Y-109635257D01*
X107985027Y-109569157D01*
X108069157Y-109485027D01*
X108135257Y-109386101D01*
X108180788Y-109276180D01*
X108204000Y-109159489D01*
X108204000Y-109040511D01*
X108180788Y-108923820D01*
X108135257Y-108813899D01*
X108069157Y-108714973D01*
X108031000Y-108676816D01*
X108031000Y-107616247D01*
X108032600Y-107600000D01*
X108031000Y-107583753D01*
X108031000Y-107583745D01*
X108026210Y-107535113D01*
X108020032Y-107514745D01*
X108007283Y-107472719D01*
X108004802Y-107468077D01*
X107976548Y-107415217D01*
X107969862Y-107407070D01*
X107945546Y-107377441D01*
X107945542Y-107377437D01*
X107935184Y-107364816D01*
X107922564Y-107354459D01*
X106308920Y-105740815D01*
X107693718Y-105740815D01*
X107693718Y-105859793D01*
X107716930Y-105976484D01*
X107762461Y-106086405D01*
X107828561Y-106185331D01*
X107912691Y-106269461D01*
X108011617Y-106335561D01*
X108121538Y-106381092D01*
X108238229Y-106404304D01*
X108357207Y-106404304D01*
X108473898Y-106381092D01*
X108583819Y-106335561D01*
X108682745Y-106269461D01*
X108766875Y-106185331D01*
X108832975Y-106086405D01*
X108878506Y-105976484D01*
X108901718Y-105859793D01*
X108901718Y-105740815D01*
X108899766Y-105731000D01*
X109111253Y-105731000D01*
X109147353Y-105785027D01*
X109231483Y-105869157D01*
X109330409Y-105935257D01*
X109440330Y-105980788D01*
X109557021Y-106004000D01*
X109675999Y-106004000D01*
X109792690Y-105980788D01*
X109902611Y-105935257D01*
X110001537Y-105869157D01*
X110085667Y-105785027D01*
X110151767Y-105686101D01*
X110197298Y-105576180D01*
X110220510Y-105459489D01*
X110220510Y-105340511D01*
X110197298Y-105223820D01*
X110151767Y-105113899D01*
X110085667Y-105014973D01*
X110001537Y-104930843D01*
X109902611Y-104864743D01*
X109792690Y-104819212D01*
X109675999Y-104796000D01*
X109557021Y-104796000D01*
X109440330Y-104819212D01*
X109330409Y-104864743D01*
X109231483Y-104930843D01*
X109147353Y-105014973D01*
X109111253Y-105069000D01*
X108714268Y-105069000D01*
X108698021Y-105067400D01*
X108681774Y-105069000D01*
X108681767Y-105069000D01*
X108639319Y-105073181D01*
X108633134Y-105073790D01*
X108618612Y-105078195D01*
X108570741Y-105092717D01*
X108513239Y-105123452D01*
X108513237Y-105123453D01*
X108513238Y-105123453D01*
X108475463Y-105154454D01*
X108475459Y-105154458D01*
X108462838Y-105164816D01*
X108452480Y-105177437D01*
X108420936Y-105208981D01*
X108357207Y-105196304D01*
X108238229Y-105196304D01*
X108121538Y-105219516D01*
X108011617Y-105265047D01*
X107912691Y-105331147D01*
X107828561Y-105415277D01*
X107762461Y-105514203D01*
X107716930Y-105624124D01*
X107693718Y-105740815D01*
X106308920Y-105740815D01*
X105073888Y-104505784D01*
X105180057Y-104484665D01*
X105289978Y-104439134D01*
X105388904Y-104373034D01*
X105461938Y-104300000D01*
X113825001Y-104300000D01*
X113825000Y-115656895D01*
X112595549Y-114427445D01*
X112595545Y-114427440D01*
X112591323Y-114423218D01*
X112604000Y-114359489D01*
X112604000Y-114240511D01*
X112580788Y-114123820D01*
X112535257Y-114013899D01*
X112469157Y-113914973D01*
X112385027Y-113830843D01*
X112286101Y-113764743D01*
X112176180Y-113719212D01*
X112059489Y-113696000D01*
X111940511Y-113696000D01*
X111823820Y-113719212D01*
X111713899Y-113764743D01*
X111614973Y-113830843D01*
X111530843Y-113914973D01*
X111464743Y-114013899D01*
X111419212Y-114123820D01*
X111396000Y-114240511D01*
X111396000Y-114359489D01*
X111419212Y-114476180D01*
X111464743Y-114586101D01*
X111471357Y-114596000D01*
X111440511Y-114596000D01*
X111323820Y-114619212D01*
X111213899Y-114664743D01*
X111114973Y-114730843D01*
X111030843Y-114814973D01*
X110964743Y-114913899D01*
X110919212Y-115023820D01*
X110896000Y-115140511D01*
X110896000Y-115259489D01*
X110919212Y-115376180D01*
X110964743Y-115486101D01*
X111030843Y-115585027D01*
X111114973Y-115669157D01*
X111213899Y-115735257D01*
X111323820Y-115780788D01*
X111440511Y-115804000D01*
X111559489Y-115804000D01*
X111676180Y-115780788D01*
X111786101Y-115735257D01*
X111885027Y-115669157D01*
X111943040Y-115611144D01*
X112776063Y-116444168D01*
X112776063Y-116549471D01*
X112722035Y-116585571D01*
X112637905Y-116669701D01*
X112571805Y-116768627D01*
X112526274Y-116878548D01*
X112503062Y-116995239D01*
X112503062Y-117114217D01*
X112526274Y-117230908D01*
X112571805Y-117340829D01*
X112637905Y-117439755D01*
X112722035Y-117523885D01*
X112820961Y-117589985D01*
X112930882Y-117635516D01*
X113047573Y-117658728D01*
X113166551Y-117658728D01*
X113283242Y-117635516D01*
X113357064Y-117604938D01*
X113357064Y-117674831D01*
X113223218Y-117808677D01*
X113159489Y-117796000D01*
X113040511Y-117796000D01*
X112923820Y-117819212D01*
X112813899Y-117864743D01*
X112714973Y-117930843D01*
X112630843Y-118014973D01*
X112564743Y-118113899D01*
X112519212Y-118223820D01*
X112496000Y-118340511D01*
X112496000Y-118459489D01*
X112519212Y-118576180D01*
X112564743Y-118686101D01*
X112630843Y-118785027D01*
X112714973Y-118869157D01*
X112813899Y-118935257D01*
X112923820Y-118980788D01*
X113040511Y-119004000D01*
X113159489Y-119004000D01*
X113276180Y-118980788D01*
X113386101Y-118935257D01*
X113485027Y-118869157D01*
X113569157Y-118785027D01*
X113635257Y-118686101D01*
X113680788Y-118576180D01*
X113704000Y-118459489D01*
X113704000Y-118340511D01*
X113691323Y-118276782D01*
X113808513Y-118159591D01*
X113789420Y-118354316D01*
X113686522Y-118695134D01*
X113519381Y-119009479D01*
X113294373Y-119285366D01*
X113020056Y-119512301D01*
X112706896Y-119681626D01*
X112366796Y-119786904D01*
X112004489Y-119824984D01*
X111999671Y-119825001D01*
X106543541Y-119825001D01*
X106545547Y-119822557D01*
X107222563Y-119145542D01*
X107228693Y-119140511D01*
X109296000Y-119140511D01*
X109296000Y-119259489D01*
X109319212Y-119376180D01*
X109364743Y-119486101D01*
X109430843Y-119585027D01*
X109514973Y-119669157D01*
X109613899Y-119735257D01*
X109723820Y-119780788D01*
X109840511Y-119804000D01*
X109959489Y-119804000D01*
X110076180Y-119780788D01*
X110186101Y-119735257D01*
X110285027Y-119669157D01*
X110369157Y-119585027D01*
X110435257Y-119486101D01*
X110480788Y-119376180D01*
X110504000Y-119259489D01*
X110504000Y-119140511D01*
X110480788Y-119023820D01*
X110435257Y-118913899D01*
X110369157Y-118814973D01*
X110285027Y-118730843D01*
X110186101Y-118664743D01*
X110076180Y-118619212D01*
X109959489Y-118596000D01*
X109840511Y-118596000D01*
X109723820Y-118619212D01*
X109613899Y-118664743D01*
X109514973Y-118730843D01*
X109430843Y-118814973D01*
X109364743Y-118913899D01*
X109319212Y-119023820D01*
X109296000Y-119140511D01*
X107228693Y-119140511D01*
X107235184Y-119135184D01*
X107245542Y-119122563D01*
X107245546Y-119122559D01*
X107263983Y-119100093D01*
X107276548Y-119084783D01*
X107307283Y-119027281D01*
X107326210Y-118964887D01*
X107331000Y-118916255D01*
X107331000Y-118916246D01*
X107332600Y-118900001D01*
X107331000Y-118883756D01*
X107331000Y-117340511D01*
X109296000Y-117340511D01*
X109296000Y-117459489D01*
X109319212Y-117576180D01*
X109364743Y-117686101D01*
X109430843Y-117785027D01*
X109514973Y-117869157D01*
X109613899Y-117935257D01*
X109723820Y-117980788D01*
X109840511Y-118004000D01*
X109959489Y-118004000D01*
X110076180Y-117980788D01*
X110186101Y-117935257D01*
X110285027Y-117869157D01*
X110369157Y-117785027D01*
X110435257Y-117686101D01*
X110480788Y-117576180D01*
X110504000Y-117459489D01*
X110504000Y-117340511D01*
X110480788Y-117223820D01*
X110435257Y-117113899D01*
X110369157Y-117014973D01*
X110285027Y-116930843D01*
X110186101Y-116864743D01*
X110076180Y-116819212D01*
X109959489Y-116796000D01*
X109840511Y-116796000D01*
X109723820Y-116819212D01*
X109613899Y-116864743D01*
X109514973Y-116930843D01*
X109430843Y-117014973D01*
X109364743Y-117113899D01*
X109319212Y-117223820D01*
X109296000Y-117340511D01*
X107331000Y-117340511D01*
X107331000Y-116080130D01*
X107332600Y-116063883D01*
X107331000Y-116047636D01*
X107331000Y-116047629D01*
X107326210Y-115998997D01*
X107307283Y-115936603D01*
X107276548Y-115879101D01*
X107265126Y-115865184D01*
X107245546Y-115841325D01*
X107245542Y-115841321D01*
X107235184Y-115828700D01*
X107222564Y-115818343D01*
X106981001Y-115576781D01*
X106981001Y-113604000D01*
X107059489Y-113604000D01*
X107176180Y-113580788D01*
X107286101Y-113535257D01*
X107385027Y-113469157D01*
X107469157Y-113385027D01*
X107535257Y-113286101D01*
X107580788Y-113176180D01*
X107604000Y-113059489D01*
X107604000Y-112940511D01*
X107580788Y-112823820D01*
X107535257Y-112713899D01*
X107469157Y-112614973D01*
X107385027Y-112530843D01*
X107286101Y-112464743D01*
X107176180Y-112419212D01*
X107059489Y-112396000D01*
X106940511Y-112396000D01*
X106823820Y-112419212D01*
X106713899Y-112464743D01*
X106614973Y-112530843D01*
X106530843Y-112614973D01*
X106464743Y-112713899D01*
X106419212Y-112823820D01*
X106396000Y-112940511D01*
X106396000Y-113059489D01*
X106408529Y-113122476D01*
X106373453Y-113165217D01*
X106342718Y-113222719D01*
X106323791Y-113285113D01*
X106319001Y-113333745D01*
X106319001Y-113333752D01*
X106317401Y-113349999D01*
X106319001Y-113366246D01*
X106319002Y-115697628D01*
X106317401Y-115713885D01*
X106323791Y-115778772D01*
X106342718Y-115841165D01*
X106373454Y-115898668D01*
X106404455Y-115936443D01*
X106404460Y-115936448D01*
X106414818Y-115949069D01*
X106427439Y-115959427D01*
X106669000Y-116200989D01*
X106669001Y-118762894D01*
X106162896Y-119269000D01*
X105935435Y-119269000D01*
X106001770Y-119169723D01*
X106058062Y-119033822D01*
X106086760Y-118889549D01*
X106086760Y-118742451D01*
X106058062Y-118598178D01*
X106001770Y-118462277D01*
X105920046Y-118339968D01*
X105816032Y-118235954D01*
X105693723Y-118154230D01*
X105557822Y-118097938D01*
X105413549Y-118069240D01*
X105266451Y-118069240D01*
X105122178Y-118097938D01*
X104986277Y-118154230D01*
X104863968Y-118235954D01*
X104759954Y-118339968D01*
X104716430Y-118405106D01*
X104716430Y-118371332D01*
X104691588Y-118246443D01*
X104642859Y-118128800D01*
X104572115Y-118022925D01*
X104482075Y-117932885D01*
X104376200Y-117862141D01*
X104287586Y-117825436D01*
X104299906Y-117821699D01*
X104344131Y-117721974D01*
X104070000Y-117447843D01*
X103795869Y-117721974D01*
X103840094Y-117821699D01*
X103853541Y-117824969D01*
X103763800Y-117862141D01*
X103657925Y-117932885D01*
X103567885Y-118022925D01*
X103497141Y-118128800D01*
X103448412Y-118246443D01*
X103435000Y-118313870D01*
X103421588Y-118246443D01*
X103372859Y-118128800D01*
X103302115Y-118022925D01*
X103212075Y-117932885D01*
X103106200Y-117862141D01*
X102988557Y-117813412D01*
X102921130Y-117800000D01*
X102988557Y-117786588D01*
X103106200Y-117737859D01*
X103212075Y-117667115D01*
X103302115Y-117577075D01*
X103372859Y-117471200D01*
X103409564Y-117382586D01*
X103413301Y-117394906D01*
X103513026Y-117439131D01*
X103787157Y-117165000D01*
X104352843Y-117165000D01*
X104626974Y-117439131D01*
X104726699Y-117394906D01*
X104758933Y-117262373D01*
X104759087Y-117258734D01*
X104759954Y-117260032D01*
X104863968Y-117364046D01*
X104986277Y-117445770D01*
X105122178Y-117502062D01*
X105266451Y-117530760D01*
X105413549Y-117530760D01*
X105557822Y-117502062D01*
X105693723Y-117445770D01*
X105816032Y-117364046D01*
X105920046Y-117260032D01*
X106001770Y-117137723D01*
X106058062Y-117001822D01*
X106086760Y-116857549D01*
X106086760Y-116710451D01*
X106058062Y-116566178D01*
X106001770Y-116430277D01*
X105920046Y-116307968D01*
X105816032Y-116203954D01*
X105693723Y-116122230D01*
X105557822Y-116065938D01*
X105413549Y-116037240D01*
X105266451Y-116037240D01*
X105122178Y-116065938D01*
X104986277Y-116122230D01*
X104863968Y-116203954D01*
X104759954Y-116307968D01*
X104678230Y-116430277D01*
X104621938Y-116566178D01*
X104593240Y-116710451D01*
X104593240Y-116857549D01*
X104604365Y-116913478D01*
X104352843Y-117165000D01*
X103787157Y-117165000D01*
X103773015Y-117150858D01*
X104055858Y-116868015D01*
X104070000Y-116882157D01*
X104344131Y-116608026D01*
X104299906Y-116508301D01*
X104167373Y-116476067D01*
X104031098Y-116470309D01*
X103896318Y-116491246D01*
X103840094Y-116508301D01*
X103795870Y-116608024D01*
X103719774Y-116531928D01*
X103674155Y-116577547D01*
X103735257Y-116486101D01*
X103780788Y-116376180D01*
X103804000Y-116259489D01*
X103804000Y-116140511D01*
X103780788Y-116023820D01*
X103735257Y-115913899D01*
X103669157Y-115814973D01*
X103585027Y-115730843D01*
X103486101Y-115664743D01*
X103376180Y-115619212D01*
X103259489Y-115596000D01*
X103140511Y-115596000D01*
X103023820Y-115619212D01*
X102913899Y-115664743D01*
X102814973Y-115730843D01*
X102730843Y-115814973D01*
X102664743Y-115913899D01*
X102619212Y-116023820D01*
X102596000Y-116140511D01*
X102596000Y-116259489D01*
X102619212Y-116376180D01*
X102664743Y-116486101D01*
X102692291Y-116527330D01*
X102611443Y-116543412D01*
X102493800Y-116592141D01*
X102484431Y-116598401D01*
X102484431Y-114983673D01*
X103522564Y-113945541D01*
X103535184Y-113935184D01*
X103545542Y-113922563D01*
X103545546Y-113922559D01*
X103576547Y-113884784D01*
X103576548Y-113884783D01*
X103607283Y-113827281D01*
X103626210Y-113764887D01*
X103631000Y-113716255D01*
X103631000Y-113716246D01*
X103632600Y-113700001D01*
X103631000Y-113683756D01*
X103631000Y-112205257D01*
X103685027Y-112169157D01*
X103769157Y-112085027D01*
X103835257Y-111986101D01*
X103880788Y-111876180D01*
X103904000Y-111759489D01*
X103904000Y-111640511D01*
X103880788Y-111523820D01*
X103835257Y-111413899D01*
X103769157Y-111314973D01*
X103685027Y-111230843D01*
X103586101Y-111164743D01*
X103476180Y-111119212D01*
X103359489Y-111096000D01*
X103240511Y-111096000D01*
X103123820Y-111119212D01*
X103013899Y-111164743D01*
X102914973Y-111230843D01*
X102830843Y-111314973D01*
X102764743Y-111413899D01*
X102719212Y-111523820D01*
X102696000Y-111640511D01*
X102696000Y-111759489D01*
X102719212Y-111876180D01*
X102764743Y-111986101D01*
X102830843Y-112085027D01*
X102914973Y-112169157D01*
X102969000Y-112205257D01*
X102969000Y-112211228D01*
X102969001Y-112211238D01*
X102969000Y-113562895D01*
X101930869Y-114601027D01*
X101918248Y-114611385D01*
X101907890Y-114624006D01*
X101907885Y-114624011D01*
X101876884Y-114661786D01*
X101846148Y-114719289D01*
X101827221Y-114781682D01*
X101820831Y-114846569D01*
X101822432Y-114862826D01*
X101822432Y-115089018D01*
X101786101Y-115064743D01*
X101676180Y-115019212D01*
X101559489Y-114996000D01*
X101440511Y-114996000D01*
X101323820Y-115019212D01*
X101213899Y-115064743D01*
X101114973Y-115130843D01*
X101030843Y-115214973D01*
X100964743Y-115313899D01*
X100919212Y-115423820D01*
X100896000Y-115540511D01*
X100896000Y-115659489D01*
X100919212Y-115776180D01*
X100964743Y-115886101D01*
X101030843Y-115985027D01*
X101114973Y-116069157D01*
X101199001Y-116125302D01*
X101199000Y-116608712D01*
X101117925Y-116662885D01*
X101027885Y-116752925D01*
X100957141Y-116858800D01*
X100908412Y-116976443D01*
X100883570Y-117101332D01*
X100883570Y-117228668D01*
X100908412Y-117353557D01*
X100957141Y-117471200D01*
X101027885Y-117577075D01*
X101117925Y-117667115D01*
X101223800Y-117737859D01*
X101341443Y-117786588D01*
X101408870Y-117800000D01*
X101341443Y-117813412D01*
X101223800Y-117862141D01*
X101117925Y-117932885D01*
X101027885Y-118022925D01*
X100957141Y-118128800D01*
X100908412Y-118246443D01*
X100883570Y-118371332D01*
X100883570Y-118498668D01*
X100908412Y-118623557D01*
X100951438Y-118727431D01*
X100582489Y-118727431D01*
X100391571Y-118536513D01*
X100478192Y-118519283D01*
X100614325Y-118462895D01*
X100736841Y-118381033D01*
X100841033Y-118276841D01*
X100922895Y-118154325D01*
X100979283Y-118018192D01*
X101008030Y-117873674D01*
X101008030Y-117726326D01*
X100979283Y-117581808D01*
X100922895Y-117445675D01*
X100841033Y-117323159D01*
X100736841Y-117218967D01*
X100614325Y-117137105D01*
X100478192Y-117080717D01*
X100333674Y-117051970D01*
X100186326Y-117051970D01*
X100041808Y-117080717D01*
X99905675Y-117137105D01*
X99831000Y-117187001D01*
X99831000Y-113437104D01*
X101465033Y-111803071D01*
X101505046Y-111899670D01*
X101571146Y-111998596D01*
X101655276Y-112082726D01*
X101754202Y-112148826D01*
X101864123Y-112194357D01*
X101902028Y-112201897D01*
X101902027Y-112394743D01*
X101848000Y-112430843D01*
X101763870Y-112514973D01*
X101697770Y-112613899D01*
X101652239Y-112723820D01*
X101629027Y-112840511D01*
X101629027Y-112959489D01*
X101652239Y-113076180D01*
X101697770Y-113186101D01*
X101763870Y-113285027D01*
X101848000Y-113369157D01*
X101946926Y-113435257D01*
X102056847Y-113480788D01*
X102173538Y-113504000D01*
X102292516Y-113504000D01*
X102409207Y-113480788D01*
X102519128Y-113435257D01*
X102618054Y-113369157D01*
X102702184Y-113285027D01*
X102768284Y-113186101D01*
X102813815Y-113076180D01*
X102837027Y-112959489D01*
X102837027Y-112840511D01*
X102813815Y-112723820D01*
X102768284Y-112613899D01*
X102702184Y-112514973D01*
X102618054Y-112430843D01*
X102564027Y-112394743D01*
X102564027Y-111916930D01*
X102575560Y-111899670D01*
X102621091Y-111789749D01*
X102644303Y-111673058D01*
X102644303Y-111554080D01*
X102621091Y-111437389D01*
X102575560Y-111327468D01*
X102509460Y-111228542D01*
X102464075Y-111183157D01*
X102485027Y-111169157D01*
X102569157Y-111085027D01*
X102635257Y-110986101D01*
X102680788Y-110876180D01*
X102704000Y-110759489D01*
X102704000Y-110640511D01*
X102680788Y-110523820D01*
X102635257Y-110413899D01*
X102569157Y-110314973D01*
X102485027Y-110230843D01*
X102386101Y-110164743D01*
X102276180Y-110119212D01*
X102159489Y-110096000D01*
X102040511Y-110096000D01*
X101923820Y-110119212D01*
X101813899Y-110164743D01*
X101714973Y-110230843D01*
X101630843Y-110314973D01*
X101564743Y-110413899D01*
X101519212Y-110523820D01*
X101496000Y-110640511D01*
X101496000Y-110759489D01*
X101508677Y-110823218D01*
X99277438Y-113054458D01*
X99264817Y-113064816D01*
X99254459Y-113077437D01*
X99254454Y-113077442D01*
X99223453Y-113115217D01*
X99192717Y-113172720D01*
X99173790Y-113235113D01*
X99167400Y-113300000D01*
X99169001Y-113316257D01*
X99169000Y-117800895D01*
X96895550Y-115527446D01*
X96895545Y-115527440D01*
X96891323Y-115523218D01*
X96904000Y-115459489D01*
X96904000Y-115340511D01*
X96880788Y-115223820D01*
X96835257Y-115113899D01*
X96769157Y-115014973D01*
X96685027Y-114930843D01*
X96586101Y-114864743D01*
X96476180Y-114819212D01*
X96359489Y-114796000D01*
X96240511Y-114796000D01*
X96123820Y-114819212D01*
X96013899Y-114864743D01*
X95914973Y-114930843D01*
X95830843Y-115014973D01*
X95764743Y-115113899D01*
X95719212Y-115223820D01*
X95696000Y-115340511D01*
X95696000Y-115459489D01*
X95719212Y-115576180D01*
X95764743Y-115686101D01*
X95830843Y-115785027D01*
X95914973Y-115869157D01*
X96013899Y-115935257D01*
X96123820Y-115980788D01*
X96240511Y-116004000D01*
X96359489Y-116004000D01*
X96423218Y-115991323D01*
X96427440Y-115995545D01*
X96427446Y-115995550D01*
X100254458Y-119822563D01*
X100256459Y-119825001D01*
X88008561Y-119825001D01*
X87645684Y-119789420D01*
X87304866Y-119686522D01*
X86990521Y-119519381D01*
X86714634Y-119294373D01*
X86587349Y-119140511D01*
X94496000Y-119140511D01*
X94496000Y-119259489D01*
X94519212Y-119376180D01*
X94564743Y-119486101D01*
X94630843Y-119585027D01*
X94714973Y-119669157D01*
X94813899Y-119735257D01*
X94923820Y-119780788D01*
X95040511Y-119804000D01*
X95159489Y-119804000D01*
X95276180Y-119780788D01*
X95386101Y-119735257D01*
X95485027Y-119669157D01*
X95569157Y-119585027D01*
X95635257Y-119486101D01*
X95680788Y-119376180D01*
X95704000Y-119259489D01*
X95704000Y-119140511D01*
X95680788Y-119023820D01*
X95635257Y-118913899D01*
X95569157Y-118814973D01*
X95485027Y-118730843D01*
X95386101Y-118664743D01*
X95276180Y-118619212D01*
X95159489Y-118596000D01*
X95040511Y-118596000D01*
X94923820Y-118619212D01*
X94813899Y-118664743D01*
X94714973Y-118730843D01*
X94630843Y-118814973D01*
X94564743Y-118913899D01*
X94519212Y-119023820D01*
X94496000Y-119140511D01*
X86587349Y-119140511D01*
X86487699Y-119020056D01*
X86318374Y-118706896D01*
X86213096Y-118366796D01*
X86175016Y-118004489D01*
X86174998Y-117999386D01*
X86174998Y-117340511D01*
X94496000Y-117340511D01*
X94496000Y-117459489D01*
X94519212Y-117576180D01*
X94564743Y-117686101D01*
X94630843Y-117785027D01*
X94714973Y-117869157D01*
X94813899Y-117935257D01*
X94923820Y-117980788D01*
X95040511Y-118004000D01*
X95159489Y-118004000D01*
X95276180Y-117980788D01*
X95386101Y-117935257D01*
X95485027Y-117869157D01*
X95569157Y-117785027D01*
X95635257Y-117686101D01*
X95680788Y-117576180D01*
X95704000Y-117459489D01*
X95704000Y-117340511D01*
X95680788Y-117223820D01*
X95635257Y-117113899D01*
X95569157Y-117014973D01*
X95485027Y-116930843D01*
X95386101Y-116864743D01*
X95276180Y-116819212D01*
X95159489Y-116796000D01*
X95040511Y-116796000D01*
X94923820Y-116819212D01*
X94813899Y-116864743D01*
X94714973Y-116930843D01*
X94630843Y-117014973D01*
X94564743Y-117113899D01*
X94519212Y-117223820D01*
X94496000Y-117340511D01*
X86174998Y-117340511D01*
X86174998Y-116228510D01*
X91437691Y-116228510D01*
X91437691Y-116347488D01*
X91460903Y-116464179D01*
X91506434Y-116574100D01*
X91572534Y-116673026D01*
X91656664Y-116757156D01*
X91755590Y-116823256D01*
X91865511Y-116868787D01*
X91982202Y-116891999D01*
X92101180Y-116891999D01*
X92217871Y-116868787D01*
X92327792Y-116823256D01*
X92426718Y-116757156D01*
X92510848Y-116673026D01*
X92546948Y-116618999D01*
X93095754Y-116618999D01*
X93112001Y-116620599D01*
X93128248Y-116618999D01*
X93128256Y-116618999D01*
X93176888Y-116614209D01*
X93239282Y-116595282D01*
X93296784Y-116564547D01*
X93347185Y-116523183D01*
X93357548Y-116510556D01*
X93833986Y-116034118D01*
X93833986Y-116102540D01*
X93857198Y-116219231D01*
X93902729Y-116329152D01*
X93968829Y-116428078D01*
X94052959Y-116512208D01*
X94151885Y-116578308D01*
X94261806Y-116623839D01*
X94378497Y-116647051D01*
X94497475Y-116647051D01*
X94614166Y-116623839D01*
X94724087Y-116578308D01*
X94823013Y-116512208D01*
X94907143Y-116428078D01*
X94973243Y-116329152D01*
X95018774Y-116219231D01*
X95041986Y-116102540D01*
X95041986Y-115983562D01*
X95018774Y-115866871D01*
X94973243Y-115756950D01*
X94907143Y-115658024D01*
X94852942Y-115603823D01*
X99257530Y-111199236D01*
X99321259Y-111211913D01*
X99440237Y-111211913D01*
X99556928Y-111188701D01*
X99666849Y-111143170D01*
X99765775Y-111077070D01*
X99849905Y-110992940D01*
X99916005Y-110894014D01*
X99961536Y-110784093D01*
X99984748Y-110667402D01*
X99984748Y-110548424D01*
X99961536Y-110431733D01*
X99916005Y-110321812D01*
X99849905Y-110222886D01*
X99765775Y-110138756D01*
X99666849Y-110072656D01*
X99648475Y-110065045D01*
X99712027Y-109969932D01*
X99757558Y-109860011D01*
X99780770Y-109743320D01*
X99780770Y-109624342D01*
X99757558Y-109507651D01*
X99712027Y-109397730D01*
X99645927Y-109298804D01*
X99561797Y-109214674D01*
X99462871Y-109148574D01*
X99352950Y-109103043D01*
X99236259Y-109079831D01*
X99117281Y-109079831D01*
X99000590Y-109103043D01*
X98890669Y-109148574D01*
X98791743Y-109214674D01*
X98707613Y-109298804D01*
X98641513Y-109397730D01*
X98595982Y-109507651D01*
X98572770Y-109624342D01*
X98572770Y-109743320D01*
X98585447Y-109807050D01*
X98527439Y-109865058D01*
X98514818Y-109875416D01*
X98504460Y-109888037D01*
X98504455Y-109888042D01*
X98473454Y-109925817D01*
X98442718Y-109983320D01*
X98423791Y-110045713D01*
X98417401Y-110110600D01*
X98419002Y-110126857D01*
X98419001Y-110512894D01*
X92974897Y-115956999D01*
X92546948Y-115956999D01*
X92510848Y-115902972D01*
X92426718Y-115818842D01*
X92327792Y-115752742D01*
X92217871Y-115707211D01*
X92101180Y-115683999D01*
X91982202Y-115683999D01*
X91865511Y-115707211D01*
X91755590Y-115752742D01*
X91656664Y-115818842D01*
X91572534Y-115902972D01*
X91506434Y-116001898D01*
X91460903Y-116111819D01*
X91437691Y-116228510D01*
X86174998Y-116228510D01*
X86174998Y-109440511D01*
X88796000Y-109440511D01*
X88796000Y-109559489D01*
X88819212Y-109676180D01*
X88864743Y-109786101D01*
X88930843Y-109885027D01*
X88996000Y-109950184D01*
X88996001Y-110680153D01*
X88994046Y-110700000D01*
X88997513Y-110735194D01*
X89001847Y-110779198D01*
X89024948Y-110855352D01*
X89062462Y-110925535D01*
X89100300Y-110971642D01*
X89100304Y-110971646D01*
X89112948Y-110987053D01*
X89128355Y-110999697D01*
X91096000Y-112967343D01*
X91096000Y-113059489D01*
X91119212Y-113176180D01*
X91164743Y-113286101D01*
X91230843Y-113385027D01*
X91314973Y-113469157D01*
X91413899Y-113535257D01*
X91523820Y-113580788D01*
X91640511Y-113604000D01*
X91759489Y-113604000D01*
X91876180Y-113580788D01*
X91986101Y-113535257D01*
X92085027Y-113469157D01*
X92169157Y-113385027D01*
X92235257Y-113286101D01*
X92280788Y-113176180D01*
X92304000Y-113059489D01*
X92304000Y-112967342D01*
X95171641Y-110099701D01*
X95187053Y-110087053D01*
X95213764Y-110054505D01*
X95237538Y-110025537D01*
X95260104Y-109983319D01*
X95275053Y-109955352D01*
X95298154Y-109879198D01*
X95304000Y-109819840D01*
X95304000Y-109819831D01*
X95305953Y-109800001D01*
X95304000Y-109780171D01*
X95304000Y-107990513D01*
X97441986Y-107990513D01*
X97441986Y-108109491D01*
X97465198Y-108226182D01*
X97510729Y-108336103D01*
X97576829Y-108435029D01*
X97660959Y-108519159D01*
X97759885Y-108585259D01*
X97869806Y-108630790D01*
X97986497Y-108654002D01*
X98105475Y-108654002D01*
X98169204Y-108641325D01*
X98173426Y-108645547D01*
X98173432Y-108645552D01*
X98350437Y-108822557D01*
X98360800Y-108835184D01*
X98411201Y-108876548D01*
X98468703Y-108907283D01*
X98508028Y-108919212D01*
X98531096Y-108926210D01*
X98537281Y-108926819D01*
X98579729Y-108931000D01*
X98579736Y-108931000D01*
X98595983Y-108932600D01*
X98612230Y-108931000D01*
X103494743Y-108931000D01*
X103530843Y-108985027D01*
X103614973Y-109069157D01*
X103713899Y-109135257D01*
X103823820Y-109180788D01*
X103940511Y-109204000D01*
X104059489Y-109204000D01*
X104176180Y-109180788D01*
X104286101Y-109135257D01*
X104385027Y-109069157D01*
X104469157Y-108985027D01*
X104535257Y-108886101D01*
X104580788Y-108776180D01*
X104604000Y-108659489D01*
X104604000Y-108540511D01*
X104580788Y-108423820D01*
X104535257Y-108313899D01*
X104469157Y-108214973D01*
X104385027Y-108130843D01*
X104286101Y-108064743D01*
X104176180Y-108019212D01*
X104059489Y-107996000D01*
X103940511Y-107996000D01*
X103823820Y-108019212D01*
X103713899Y-108064743D01*
X103614973Y-108130843D01*
X103530843Y-108214973D01*
X103494743Y-108269000D01*
X98733088Y-108269000D01*
X98641536Y-108177448D01*
X98641531Y-108177442D01*
X98637309Y-108173220D01*
X98649986Y-108109491D01*
X98649986Y-107990513D01*
X98626774Y-107873822D01*
X98581243Y-107763901D01*
X98515143Y-107664975D01*
X98431013Y-107580845D01*
X98332087Y-107514745D01*
X98222166Y-107469214D01*
X98105475Y-107446002D01*
X97986497Y-107446002D01*
X97869806Y-107469214D01*
X97759885Y-107514745D01*
X97660959Y-107580845D01*
X97576829Y-107664975D01*
X97510729Y-107763901D01*
X97465198Y-107873822D01*
X97441986Y-107990513D01*
X95304000Y-107990513D01*
X95304000Y-107350184D01*
X95369157Y-107285027D01*
X95435257Y-107186101D01*
X95480788Y-107076180D01*
X95504000Y-106959489D01*
X95504000Y-106840511D01*
X95480788Y-106723820D01*
X95435257Y-106613899D01*
X95369157Y-106514973D01*
X95285027Y-106430843D01*
X95186101Y-106364743D01*
X95076180Y-106319212D01*
X94959489Y-106296000D01*
X94840511Y-106296000D01*
X94723820Y-106319212D01*
X94613899Y-106364743D01*
X94514973Y-106430843D01*
X94430843Y-106514973D01*
X94364743Y-106613899D01*
X94319212Y-106723820D01*
X94296000Y-106840511D01*
X94296000Y-106959489D01*
X94319212Y-107076180D01*
X94364743Y-107186101D01*
X94430843Y-107285027D01*
X94496001Y-107350185D01*
X94496000Y-109632658D01*
X91732658Y-112396000D01*
X91667343Y-112396000D01*
X89804000Y-110532658D01*
X89804000Y-109950184D01*
X89869157Y-109885027D01*
X89935257Y-109786101D01*
X89980788Y-109676180D01*
X90004000Y-109559489D01*
X90004000Y-109440511D01*
X89980788Y-109323820D01*
X89935257Y-109213899D01*
X89869157Y-109114973D01*
X89785027Y-109030843D01*
X89686101Y-108964743D01*
X89576180Y-108919212D01*
X89459489Y-108896000D01*
X89340511Y-108896000D01*
X89223820Y-108919212D01*
X89113899Y-108964743D01*
X89014973Y-109030843D01*
X88930843Y-109114973D01*
X88864743Y-109213899D01*
X88819212Y-109323820D01*
X88796000Y-109440511D01*
X86174998Y-109440511D01*
X86174998Y-102060000D01*
X86790659Y-102060000D01*
X86811975Y-102276422D01*
X86875103Y-102484526D01*
X86977617Y-102676317D01*
X87115577Y-102844423D01*
X87283683Y-102982383D01*
X87475474Y-103084897D01*
X87683578Y-103148025D01*
X87845773Y-103164000D01*
X87954227Y-103164000D01*
X88116422Y-103148025D01*
X88316526Y-103087324D01*
X88296000Y-103190511D01*
X88296000Y-103309489D01*
X88319212Y-103426180D01*
X88364743Y-103536101D01*
X88427624Y-103630210D01*
X88324526Y-103575103D01*
X88116422Y-103511975D01*
X87954227Y-103496000D01*
X87845773Y-103496000D01*
X87683578Y-103511975D01*
X87475474Y-103575103D01*
X87283683Y-103677617D01*
X87115577Y-103815577D01*
X86977617Y-103983683D01*
X86875103Y-104175474D01*
X86811975Y-104383578D01*
X86790659Y-104600000D01*
X86811975Y-104816422D01*
X86875103Y-105024526D01*
X86977617Y-105216317D01*
X87115577Y-105384423D01*
X87283683Y-105522383D01*
X87475474Y-105624897D01*
X87683578Y-105688025D01*
X87845773Y-105704000D01*
X87954227Y-105704000D01*
X88116422Y-105688025D01*
X88324526Y-105624897D01*
X88516317Y-105522383D01*
X88684423Y-105384423D01*
X88822383Y-105216317D01*
X88924897Y-105024526D01*
X88988025Y-104816422D01*
X89009341Y-104600000D01*
X88988025Y-104383578D01*
X88924897Y-104175474D01*
X88822383Y-103983683D01*
X88684423Y-103815577D01*
X88681697Y-103813340D01*
X88723820Y-103830788D01*
X88840511Y-103854000D01*
X88959489Y-103854000D01*
X89076180Y-103830788D01*
X89186101Y-103785257D01*
X89285027Y-103719157D01*
X89369157Y-103635027D01*
X89435257Y-103536101D01*
X89480788Y-103426180D01*
X89504000Y-103309489D01*
X89504000Y-103190511D01*
X89496720Y-103153911D01*
X89738028Y-102912603D01*
X89751525Y-102901526D01*
X89762603Y-102888028D01*
X89762606Y-102888025D01*
X89795763Y-102847624D01*
X89795764Y-102847623D01*
X89828635Y-102786125D01*
X89846356Y-102727706D01*
X89848877Y-102719397D01*
X89851933Y-102688365D01*
X89854000Y-102667382D01*
X89854000Y-102667375D01*
X89855711Y-102650001D01*
X89854000Y-102632626D01*
X89854000Y-95896630D01*
X90922185Y-94828446D01*
X90927838Y-94830788D01*
X91044529Y-94854000D01*
X91163507Y-94854000D01*
X91280198Y-94830788D01*
X91390119Y-94785257D01*
X91489045Y-94719157D01*
X91573175Y-94635027D01*
X91639275Y-94536101D01*
X91684806Y-94426180D01*
X91708018Y-94309489D01*
X91708018Y-94190511D01*
X91684806Y-94073820D01*
X91639275Y-93963899D01*
X91573175Y-93864973D01*
X91489045Y-93780843D01*
X91390119Y-93714743D01*
X91280198Y-93669212D01*
X91163507Y-93646000D01*
X91044529Y-93646000D01*
X90927838Y-93669212D01*
X90817917Y-93714743D01*
X90718991Y-93780843D01*
X90634861Y-93864973D01*
X90568761Y-93963899D01*
X90523230Y-94073820D01*
X90500018Y-94190511D01*
X90500018Y-94249350D01*
X89261977Y-95487393D01*
X89248475Y-95498474D01*
X89204237Y-95552377D01*
X89171366Y-95613875D01*
X89151123Y-95680604D01*
X89144289Y-95750000D01*
X89146001Y-95767384D01*
X89146000Y-102503369D01*
X88996089Y-102653280D01*
X88959489Y-102646000D01*
X88840511Y-102646000D01*
X88838359Y-102646428D01*
X88924897Y-102484526D01*
X88988025Y-102276422D01*
X89009341Y-102060000D01*
X88988025Y-101843578D01*
X88924897Y-101635474D01*
X88822383Y-101443683D01*
X88684423Y-101275577D01*
X88516317Y-101137617D01*
X88324526Y-101035103D01*
X88116422Y-100971975D01*
X87954227Y-100956000D01*
X87845773Y-100956000D01*
X87683578Y-100971975D01*
X87475474Y-101035103D01*
X87283683Y-101137617D01*
X87115577Y-101275577D01*
X86977617Y-101443683D01*
X86875103Y-101635474D01*
X86811975Y-101843578D01*
X86790659Y-102060000D01*
X86174998Y-102060000D01*
X86174998Y-99520000D01*
X86790659Y-99520000D01*
X86811975Y-99736422D01*
X86875103Y-99944526D01*
X86977617Y-100136317D01*
X87115577Y-100304423D01*
X87283683Y-100442383D01*
X87475474Y-100544897D01*
X87683578Y-100608025D01*
X87845773Y-100624000D01*
X87954227Y-100624000D01*
X88116422Y-100608025D01*
X88324526Y-100544897D01*
X88516317Y-100442383D01*
X88684423Y-100304423D01*
X88822383Y-100136317D01*
X88924897Y-99944526D01*
X88988025Y-99736422D01*
X89009341Y-99520000D01*
X88988025Y-99303578D01*
X88924897Y-99095474D01*
X88822383Y-98903683D01*
X88684423Y-98735577D01*
X88516317Y-98597617D01*
X88324526Y-98495103D01*
X88116422Y-98431975D01*
X87954227Y-98416000D01*
X87845773Y-98416000D01*
X87683578Y-98431975D01*
X87475474Y-98495103D01*
X87283683Y-98597617D01*
X87115577Y-98735577D01*
X86977617Y-98903683D01*
X86875103Y-99095474D01*
X86811975Y-99303578D01*
X86790659Y-99520000D01*
X86174998Y-99520000D01*
X86174998Y-96980000D01*
X86790659Y-96980000D01*
X86811975Y-97196422D01*
X86875103Y-97404526D01*
X86977617Y-97596317D01*
X87115577Y-97764423D01*
X87283683Y-97902383D01*
X87475474Y-98004897D01*
X87683578Y-98068025D01*
X87845773Y-98084000D01*
X87954227Y-98084000D01*
X88116422Y-98068025D01*
X88324526Y-98004897D01*
X88516317Y-97902383D01*
X88684423Y-97764423D01*
X88822383Y-97596317D01*
X88924897Y-97404526D01*
X88988025Y-97196422D01*
X89009341Y-96980000D01*
X88988025Y-96763578D01*
X88924897Y-96555474D01*
X88822383Y-96363683D01*
X88684423Y-96195577D01*
X88516317Y-96057617D01*
X88324526Y-95955103D01*
X88116422Y-95891975D01*
X87954227Y-95876000D01*
X87845773Y-95876000D01*
X87683578Y-95891975D01*
X87475474Y-95955103D01*
X87283683Y-96057617D01*
X87115577Y-96195577D01*
X86977617Y-96363683D01*
X86875103Y-96555474D01*
X86811975Y-96763578D01*
X86790659Y-96980000D01*
X86174998Y-96980000D01*
X86174998Y-94440000D01*
X86790659Y-94440000D01*
X86811975Y-94656422D01*
X86875103Y-94864526D01*
X86977617Y-95056317D01*
X87115577Y-95224423D01*
X87283683Y-95362383D01*
X87475474Y-95464897D01*
X87683578Y-95528025D01*
X87845773Y-95544000D01*
X87954227Y-95544000D01*
X88116422Y-95528025D01*
X88324526Y-95464897D01*
X88516317Y-95362383D01*
X88684423Y-95224423D01*
X88822383Y-95056317D01*
X88924897Y-94864526D01*
X88988025Y-94656422D01*
X89009341Y-94440000D01*
X88988025Y-94223578D01*
X88924897Y-94015474D01*
X88822383Y-93823683D01*
X88684423Y-93655577D01*
X88516317Y-93517617D01*
X88324526Y-93415103D01*
X88116422Y-93351975D01*
X87954227Y-93336000D01*
X87845773Y-93336000D01*
X87683578Y-93351975D01*
X87475474Y-93415103D01*
X87283683Y-93517617D01*
X87115577Y-93655577D01*
X86977617Y-93823683D01*
X86875103Y-94015474D01*
X86811975Y-94223578D01*
X86790659Y-94440000D01*
X86174998Y-94440000D01*
X86174999Y-92750000D01*
X86748548Y-92750000D01*
X86754340Y-92808810D01*
X86771495Y-92865361D01*
X86799352Y-92917478D01*
X86836841Y-92963159D01*
X86882522Y-93000648D01*
X86934639Y-93028505D01*
X86991190Y-93045660D01*
X87050000Y-93051452D01*
X87625000Y-93050000D01*
X87700000Y-92975000D01*
X87700000Y-92100000D01*
X88100000Y-92100000D01*
X88100000Y-92975000D01*
X88175000Y-93050000D01*
X88750000Y-93051452D01*
X88808810Y-93045660D01*
X88865361Y-93028505D01*
X88917478Y-93000648D01*
X88963159Y-92963159D01*
X89000648Y-92917478D01*
X89028505Y-92865361D01*
X89045660Y-92808810D01*
X89051452Y-92750000D01*
X89050458Y-92356111D01*
X90176732Y-92356111D01*
X90272836Y-92497021D01*
X90476514Y-92570953D01*
X90690701Y-92603729D01*
X90907168Y-92594090D01*
X91117594Y-92542406D01*
X91227164Y-92497021D01*
X91323268Y-92356111D01*
X90750000Y-91782843D01*
X90176732Y-92356111D01*
X89050458Y-92356111D01*
X89050000Y-92175000D01*
X88975000Y-92100000D01*
X88100000Y-92100000D01*
X87700000Y-92100000D01*
X86825000Y-92100000D01*
X86750000Y-92175000D01*
X86748548Y-92750000D01*
X86174999Y-92750000D01*
X86175000Y-92008561D01*
X86210581Y-91645684D01*
X86313479Y-91304867D01*
X86448994Y-91050000D01*
X86748548Y-91050000D01*
X86750000Y-91625000D01*
X86825000Y-91700000D01*
X87700000Y-91700000D01*
X87700000Y-90825000D01*
X88100000Y-90825000D01*
X88100000Y-91700000D01*
X88975000Y-91700000D01*
X89050000Y-91625000D01*
X89050465Y-91440701D01*
X89646271Y-91440701D01*
X89655910Y-91657168D01*
X89707594Y-91867594D01*
X89752979Y-91977164D01*
X89893889Y-92073268D01*
X90467157Y-91500000D01*
X91032843Y-91500000D01*
X91606111Y-92073268D01*
X91747021Y-91977164D01*
X91820953Y-91773486D01*
X91853729Y-91559299D01*
X91844090Y-91342832D01*
X91792406Y-91132406D01*
X91747021Y-91022836D01*
X91606111Y-90926732D01*
X91032843Y-91500000D01*
X90467157Y-91500000D01*
X89893889Y-90926732D01*
X89752979Y-91022836D01*
X89679047Y-91226514D01*
X89646271Y-91440701D01*
X89050465Y-91440701D01*
X89051452Y-91050000D01*
X89045660Y-90991190D01*
X89028505Y-90934639D01*
X89000648Y-90882522D01*
X88963159Y-90836841D01*
X88917478Y-90799352D01*
X88865361Y-90771495D01*
X88808810Y-90754340D01*
X88750000Y-90748548D01*
X88175000Y-90750000D01*
X88100000Y-90825000D01*
X87700000Y-90825000D01*
X87625000Y-90750000D01*
X87050000Y-90748548D01*
X86991190Y-90754340D01*
X86934639Y-90771495D01*
X86882522Y-90799352D01*
X86836841Y-90836841D01*
X86799352Y-90882522D01*
X86771495Y-90934639D01*
X86754340Y-90991190D01*
X86748548Y-91050000D01*
X86448994Y-91050000D01*
X86480617Y-90990526D01*
X86705628Y-90714635D01*
X86791145Y-90643889D01*
X90176732Y-90643889D01*
X90750000Y-91217157D01*
X91267157Y-90700000D01*
X94694772Y-90700000D01*
X94694772Y-92300000D01*
X94699676Y-92349793D01*
X94714200Y-92397672D01*
X94737786Y-92441797D01*
X94769527Y-92480473D01*
X94808203Y-92512214D01*
X94852328Y-92535800D01*
X94900207Y-92550324D01*
X94950000Y-92555228D01*
X96550000Y-92555228D01*
X96599793Y-92550324D01*
X96647672Y-92535800D01*
X96691797Y-92512214D01*
X96730473Y-92480473D01*
X96762214Y-92441797D01*
X96785800Y-92397672D01*
X96798407Y-92356111D01*
X100176732Y-92356111D01*
X100272836Y-92497021D01*
X100476514Y-92570953D01*
X100690701Y-92603729D01*
X100907168Y-92594090D01*
X101117594Y-92542406D01*
X101227164Y-92497021D01*
X101323268Y-92356111D01*
X100750000Y-91782843D01*
X100176732Y-92356111D01*
X96798407Y-92356111D01*
X96800324Y-92349793D01*
X96805228Y-92300000D01*
X96805228Y-91440701D01*
X99646271Y-91440701D01*
X99655910Y-91657168D01*
X99707594Y-91867594D01*
X99752979Y-91977164D01*
X99893889Y-92073268D01*
X100467157Y-91500000D01*
X101032843Y-91500000D01*
X101606111Y-92073268D01*
X101747021Y-91977164D01*
X101820953Y-91773486D01*
X101853729Y-91559299D01*
X101844090Y-91342832D01*
X101792406Y-91132406D01*
X101747021Y-91022836D01*
X101606111Y-90926732D01*
X101032843Y-91500000D01*
X100467157Y-91500000D01*
X99893889Y-90926732D01*
X99752979Y-91022836D01*
X99679047Y-91226514D01*
X99646271Y-91440701D01*
X96805228Y-91440701D01*
X96805228Y-90700000D01*
X96800324Y-90650207D01*
X96798408Y-90643889D01*
X100176732Y-90643889D01*
X100750000Y-91217157D01*
X101267157Y-90700000D01*
X104694772Y-90700000D01*
X104694772Y-92300000D01*
X104699676Y-92349793D01*
X104714200Y-92397672D01*
X104737786Y-92441797D01*
X104769527Y-92480473D01*
X104808203Y-92512214D01*
X104852328Y-92535800D01*
X104900207Y-92550324D01*
X104950000Y-92555228D01*
X106550000Y-92555228D01*
X106599793Y-92550324D01*
X106647672Y-92535800D01*
X106691797Y-92512214D01*
X106730473Y-92480473D01*
X106762214Y-92441797D01*
X106785800Y-92397672D01*
X106800324Y-92349793D01*
X106805228Y-92300000D01*
X106805228Y-90700000D01*
X106800324Y-90650207D01*
X106785800Y-90602328D01*
X106762214Y-90558203D01*
X106730473Y-90519527D01*
X106691797Y-90487786D01*
X106647672Y-90464200D01*
X106599793Y-90449676D01*
X106550000Y-90444772D01*
X104950000Y-90444772D01*
X104900207Y-90449676D01*
X104852328Y-90464200D01*
X104808203Y-90487786D01*
X104769527Y-90519527D01*
X104737786Y-90558203D01*
X104714200Y-90602328D01*
X104699676Y-90650207D01*
X104694772Y-90700000D01*
X101267157Y-90700000D01*
X101323268Y-90643889D01*
X101227164Y-90502979D01*
X101023486Y-90429047D01*
X100809299Y-90396271D01*
X100592832Y-90405910D01*
X100382406Y-90457594D01*
X100272836Y-90502979D01*
X100176732Y-90643889D01*
X96798408Y-90643889D01*
X96785800Y-90602328D01*
X96762214Y-90558203D01*
X96730473Y-90519527D01*
X96691797Y-90487786D01*
X96647672Y-90464200D01*
X96599793Y-90449676D01*
X96550000Y-90444772D01*
X94950000Y-90444772D01*
X94900207Y-90449676D01*
X94852328Y-90464200D01*
X94808203Y-90487786D01*
X94769527Y-90519527D01*
X94737786Y-90558203D01*
X94714200Y-90602328D01*
X94699676Y-90650207D01*
X94694772Y-90700000D01*
X91267157Y-90700000D01*
X91323268Y-90643889D01*
X91227164Y-90502979D01*
X91023486Y-90429047D01*
X90809299Y-90396271D01*
X90592832Y-90405910D01*
X90382406Y-90457594D01*
X90272836Y-90502979D01*
X90176732Y-90643889D01*
X86791145Y-90643889D01*
X86979941Y-90487703D01*
X87293105Y-90318375D01*
X87633204Y-90213097D01*
X87995510Y-90175017D01*
X88000329Y-90175000D01*
X111991449Y-90175000D01*
X112354316Y-90210580D01*
X112354316Y-90210580D01*
G37*
X112354316Y-90210580D02*
X112695133Y-90313478D01*
X113009479Y-90480619D01*
X113285366Y-90705627D01*
X113512301Y-90979944D01*
X113681626Y-91293104D01*
X113786904Y-91633204D01*
X113824984Y-91995510D01*
X113825001Y-92000329D01*
X113825001Y-103700000D01*
X105641422Y-103700000D01*
X105498732Y-103557310D01*
X105473034Y-103518850D01*
X105426327Y-103472143D01*
X105423593Y-103401063D01*
X105423593Y-102938711D01*
X106131226Y-102938711D01*
X106157894Y-103044265D01*
X106254251Y-103174062D01*
X106374078Y-103282567D01*
X106512771Y-103365610D01*
X106665000Y-103420000D01*
X107215000Y-103420000D01*
X107215000Y-102820000D01*
X107615000Y-102820000D01*
X107615000Y-103420000D01*
X108165000Y-103420000D01*
X108317229Y-103365610D01*
X108455922Y-103282567D01*
X108575749Y-103174062D01*
X108672106Y-103044265D01*
X108698774Y-102938711D01*
X110561226Y-102938711D01*
X110599094Y-103050932D01*
X110696536Y-103178416D01*
X110816977Y-103284441D01*
X110955788Y-103364932D01*
X111107635Y-103416795D01*
X111266682Y-103438038D01*
X111395000Y-103357397D01*
X111395000Y-102820000D01*
X111795000Y-102820000D01*
X111795000Y-103357397D01*
X111923318Y-103438038D01*
X112082365Y-103416795D01*
X112234212Y-103364932D01*
X112373023Y-103284441D01*
X112493464Y-103178416D01*
X112590906Y-103050932D01*
X112628774Y-102938711D01*
X112591868Y-102820000D01*
X111795000Y-102820000D01*
X111395000Y-102820000D01*
X110598132Y-102820000D01*
X110561226Y-102938711D01*
X108698774Y-102938711D01*
X108661868Y-102820000D01*
X107615000Y-102820000D01*
X107215000Y-102820000D01*
X106168132Y-102820000D01*
X106131226Y-102938711D01*
X105423593Y-102938711D01*
X105423593Y-102808839D01*
X105425193Y-102792592D01*
X105423593Y-102776345D01*
X105423593Y-102776338D01*
X105418803Y-102727706D01*
X105416283Y-102719397D01*
X105409767Y-102697919D01*
X105399876Y-102665312D01*
X105369141Y-102607810D01*
X105331000Y-102561336D01*
X105331000Y-102301289D01*
X106131226Y-102301289D01*
X106168132Y-102420000D01*
X107215000Y-102420000D01*
X107215000Y-101820000D01*
X107615000Y-101820000D01*
X107615000Y-102420000D01*
X108661868Y-102420000D01*
X108698774Y-102301289D01*
X110561226Y-102301289D01*
X110598132Y-102420000D01*
X111395000Y-102420000D01*
X111395000Y-101882603D01*
X111795000Y-101882603D01*
X111795000Y-102420000D01*
X112591868Y-102420000D01*
X112628774Y-102301289D01*
X112590906Y-102189068D01*
X112493464Y-102061584D01*
X112373023Y-101955559D01*
X112234212Y-101875068D01*
X112082365Y-101823205D01*
X111923318Y-101801962D01*
X111795000Y-101882603D01*
X111395000Y-101882603D01*
X111266682Y-101801962D01*
X111107635Y-101823205D01*
X110955788Y-101875068D01*
X110816977Y-101955559D01*
X110696536Y-102061584D01*
X110599094Y-102189068D01*
X110561226Y-102301289D01*
X108698774Y-102301289D01*
X108672106Y-102195735D01*
X108575749Y-102065938D01*
X108455922Y-101957433D01*
X108317229Y-101874390D01*
X108165000Y-101820000D01*
X107615000Y-101820000D01*
X107215000Y-101820000D01*
X106665000Y-101820000D01*
X106512771Y-101874390D01*
X106374078Y-101957433D01*
X106254251Y-102065938D01*
X106157894Y-102195735D01*
X106131226Y-102301289D01*
X105331000Y-102301289D01*
X105331000Y-101132973D01*
X107366000Y-101132973D01*
X107366000Y-101247027D01*
X107388250Y-101358888D01*
X107431896Y-101464260D01*
X107495261Y-101559091D01*
X107575909Y-101639739D01*
X107670740Y-101703104D01*
X107776112Y-101746750D01*
X107887973Y-101769000D01*
X108002027Y-101769000D01*
X108113888Y-101746750D01*
X108219260Y-101703104D01*
X108314091Y-101639739D01*
X108394739Y-101559091D01*
X108458104Y-101464260D01*
X108501750Y-101358888D01*
X108524000Y-101247027D01*
X108524000Y-101132973D01*
X108501750Y-101021112D01*
X108458104Y-100915740D01*
X108394739Y-100820909D01*
X108314091Y-100740261D01*
X108219260Y-100676896D01*
X108113888Y-100633250D01*
X108002027Y-100611000D01*
X107887973Y-100611000D01*
X107776112Y-100633250D01*
X107670740Y-100676896D01*
X107575909Y-100740261D01*
X107495261Y-100820909D01*
X107431896Y-100915740D01*
X107388250Y-101021112D01*
X107366000Y-101132973D01*
X105331000Y-101132973D01*
X105331000Y-99112784D01*
X105403568Y-99040216D01*
X105416194Y-99029854D01*
X105457558Y-98979453D01*
X105488293Y-98921951D01*
X105507220Y-98859557D01*
X105512010Y-98810925D01*
X105512010Y-98810917D01*
X105512639Y-98804532D01*
X105566037Y-98768853D01*
X105650167Y-98684723D01*
X105716267Y-98585797D01*
X105761798Y-98475876D01*
X105785010Y-98359185D01*
X105785010Y-98240207D01*
X105761798Y-98123516D01*
X105716267Y-98013595D01*
X105661079Y-97931000D01*
X107294743Y-97931000D01*
X107330843Y-97985027D01*
X107414973Y-98069157D01*
X107513899Y-98135257D01*
X107623820Y-98180788D01*
X107740511Y-98204000D01*
X107859489Y-98204000D01*
X107976180Y-98180788D01*
X108086101Y-98135257D01*
X108185027Y-98069157D01*
X108269157Y-97985027D01*
X108335257Y-97886101D01*
X108380788Y-97776180D01*
X108404000Y-97659489D01*
X108404000Y-97540511D01*
X108380788Y-97423820D01*
X108335257Y-97313899D01*
X108269157Y-97214973D01*
X108185027Y-97130843D01*
X108086101Y-97064743D01*
X107976180Y-97019212D01*
X107859489Y-96996000D01*
X107740511Y-96996000D01*
X107623820Y-97019212D01*
X107513899Y-97064743D01*
X107414973Y-97130843D01*
X107330843Y-97214973D01*
X107294743Y-97269000D01*
X104716244Y-97269000D01*
X104699999Y-97267400D01*
X104683754Y-97269000D01*
X104683745Y-97269000D01*
X104635113Y-97273790D01*
X104572719Y-97292717D01*
X104515217Y-97323452D01*
X104515215Y-97323453D01*
X104515216Y-97323453D01*
X104477441Y-97354454D01*
X104477437Y-97354458D01*
X104464816Y-97364816D01*
X104454458Y-97377437D01*
X104423218Y-97408677D01*
X104359489Y-97396000D01*
X104240511Y-97396000D01*
X104123820Y-97419212D01*
X104013899Y-97464743D01*
X103914973Y-97530843D01*
X103830843Y-97614973D01*
X103764743Y-97713899D01*
X103763643Y-97716555D01*
X103686101Y-97664743D01*
X103576180Y-97619212D01*
X103459489Y-97596000D01*
X103340511Y-97596000D01*
X103223820Y-97619212D01*
X103113899Y-97664743D01*
X103014973Y-97730843D01*
X102930843Y-97814973D01*
X102864743Y-97913899D01*
X102819212Y-98023820D01*
X102796000Y-98140511D01*
X102796000Y-98259489D01*
X102819212Y-98376180D01*
X102864743Y-98486101D01*
X102930843Y-98585027D01*
X103014973Y-98669157D01*
X103069000Y-98705257D01*
X103069001Y-101419765D01*
X102988766Y-101500000D01*
X101597162Y-101500000D01*
X100631000Y-100533838D01*
X100631000Y-99740511D01*
X100896000Y-99740511D01*
X100896000Y-99859489D01*
X100919212Y-99976180D01*
X100964743Y-100086101D01*
X101030843Y-100185027D01*
X101114973Y-100269157D01*
X101213899Y-100335257D01*
X101323820Y-100380788D01*
X101440511Y-100404000D01*
X101559489Y-100404000D01*
X101676180Y-100380788D01*
X101786101Y-100335257D01*
X101885027Y-100269157D01*
X101969157Y-100185027D01*
X102035257Y-100086101D01*
X102080788Y-99976180D01*
X102104000Y-99859489D01*
X102104000Y-99740511D01*
X102080788Y-99623820D01*
X102035257Y-99513899D01*
X101969157Y-99414973D01*
X101885027Y-99330843D01*
X101831000Y-99294743D01*
X101831000Y-96337104D01*
X102222563Y-95945542D01*
X102235184Y-95935184D01*
X102245542Y-95922563D01*
X102245546Y-95922559D01*
X102270646Y-95891975D01*
X102276548Y-95884783D01*
X102307283Y-95827281D01*
X102321145Y-95781585D01*
X102326210Y-95764888D01*
X102330086Y-95725532D01*
X102331000Y-95716255D01*
X102331000Y-95716247D01*
X102332600Y-95700000D01*
X102331000Y-95683753D01*
X102331000Y-95352973D01*
X107366000Y-95352973D01*
X107366000Y-95467027D01*
X107388250Y-95578888D01*
X107431896Y-95684260D01*
X107495261Y-95779091D01*
X107575909Y-95859739D01*
X107670740Y-95923104D01*
X107776112Y-95966750D01*
X107887973Y-95989000D01*
X108002027Y-95989000D01*
X108113888Y-95966750D01*
X108219260Y-95923104D01*
X108314091Y-95859739D01*
X108394739Y-95779091D01*
X108458104Y-95684260D01*
X108501750Y-95578888D01*
X108524000Y-95467027D01*
X108524000Y-95352973D01*
X108501750Y-95241112D01*
X108458104Y-95135740D01*
X108394739Y-95040909D01*
X108314091Y-94960261D01*
X108219260Y-94896896D01*
X108113888Y-94853250D01*
X108002027Y-94831000D01*
X107887973Y-94831000D01*
X107776112Y-94853250D01*
X107670740Y-94896896D01*
X107575909Y-94960261D01*
X107495261Y-95040909D01*
X107431896Y-95135740D01*
X107388250Y-95241112D01*
X107366000Y-95352973D01*
X102331000Y-95352973D01*
X102331000Y-94705257D01*
X102385027Y-94669157D01*
X102469157Y-94585027D01*
X102535257Y-94486101D01*
X102580788Y-94376180D01*
X102596198Y-94298711D01*
X106131226Y-94298711D01*
X106157894Y-94404265D01*
X106254251Y-94534062D01*
X106374078Y-94642567D01*
X106512771Y-94725610D01*
X106665000Y-94780000D01*
X107215000Y-94780000D01*
X107215000Y-94180000D01*
X107615000Y-94180000D01*
X107615000Y-94780000D01*
X108165000Y-94780000D01*
X108317229Y-94725610D01*
X108455922Y-94642567D01*
X108575749Y-94534062D01*
X108672106Y-94404265D01*
X108698774Y-94298711D01*
X110561226Y-94298711D01*
X110599094Y-94410932D01*
X110696536Y-94538416D01*
X110816977Y-94644441D01*
X110955788Y-94724932D01*
X111107635Y-94776795D01*
X111266682Y-94798038D01*
X111395000Y-94717397D01*
X111395000Y-94180000D01*
X111795000Y-94180000D01*
X111795000Y-94717397D01*
X111923318Y-94798038D01*
X112082365Y-94776795D01*
X112234212Y-94724932D01*
X112373023Y-94644441D01*
X112493464Y-94538416D01*
X112590906Y-94410932D01*
X112628774Y-94298711D01*
X112591868Y-94180000D01*
X111795000Y-94180000D01*
X111395000Y-94180000D01*
X110598132Y-94180000D01*
X110561226Y-94298711D01*
X108698774Y-94298711D01*
X108661868Y-94180000D01*
X107615000Y-94180000D01*
X107215000Y-94180000D01*
X106168132Y-94180000D01*
X106131226Y-94298711D01*
X102596198Y-94298711D01*
X102604000Y-94259489D01*
X102604000Y-94140511D01*
X102580788Y-94023820D01*
X102535257Y-93913899D01*
X102469157Y-93814973D01*
X102385027Y-93730843D01*
X102286101Y-93664743D01*
X102277763Y-93661289D01*
X106131226Y-93661289D01*
X106168132Y-93780000D01*
X107215000Y-93780000D01*
X107215000Y-93180000D01*
X107615000Y-93180000D01*
X107615000Y-93780000D01*
X108661868Y-93780000D01*
X108698774Y-93661289D01*
X110561226Y-93661289D01*
X110598132Y-93780000D01*
X111395000Y-93780000D01*
X111395000Y-93242603D01*
X111795000Y-93242603D01*
X111795000Y-93780000D01*
X112591868Y-93780000D01*
X112628774Y-93661289D01*
X112590906Y-93549068D01*
X112493464Y-93421584D01*
X112373023Y-93315559D01*
X112234212Y-93235068D01*
X112082365Y-93183205D01*
X111923318Y-93161962D01*
X111795000Y-93242603D01*
X111395000Y-93242603D01*
X111266682Y-93161962D01*
X111107635Y-93183205D01*
X110955788Y-93235068D01*
X110816977Y-93315559D01*
X110696536Y-93421584D01*
X110599094Y-93549068D01*
X110561226Y-93661289D01*
X108698774Y-93661289D01*
X108672106Y-93555735D01*
X108575749Y-93425938D01*
X108455922Y-93317433D01*
X108317229Y-93234390D01*
X108165000Y-93180000D01*
X107615000Y-93180000D01*
X107215000Y-93180000D01*
X106665000Y-93180000D01*
X106512771Y-93234390D01*
X106374078Y-93317433D01*
X106254251Y-93425938D01*
X106157894Y-93555735D01*
X106131226Y-93661289D01*
X102277763Y-93661289D01*
X102176180Y-93619212D01*
X102059489Y-93596000D01*
X101940511Y-93596000D01*
X101823820Y-93619212D01*
X101713899Y-93664743D01*
X101614973Y-93730843D01*
X101530843Y-93814973D01*
X101464743Y-93913899D01*
X101419212Y-94023820D01*
X101396000Y-94140511D01*
X101396000Y-94259489D01*
X101419212Y-94376180D01*
X101464743Y-94486101D01*
X101530843Y-94585027D01*
X101614973Y-94669157D01*
X101669000Y-94705257D01*
X101669001Y-95562894D01*
X101277442Y-95954453D01*
X101264816Y-95964816D01*
X101223452Y-96015218D01*
X101192717Y-96072720D01*
X101173790Y-96135114D01*
X101169000Y-96183746D01*
X101169000Y-96183753D01*
X101167400Y-96200000D01*
X101169000Y-96216247D01*
X101169001Y-99288762D01*
X101169000Y-99288772D01*
X101169000Y-99294743D01*
X101114973Y-99330843D01*
X101030843Y-99414973D01*
X100964743Y-99513899D01*
X100919212Y-99623820D01*
X100896000Y-99740511D01*
X100631000Y-99740511D01*
X100631000Y-95786088D01*
X100722558Y-95694530D01*
X100735184Y-95684168D01*
X100776548Y-95633767D01*
X100807283Y-95576265D01*
X100814529Y-95552377D01*
X100826210Y-95513872D01*
X100826766Y-95508225D01*
X100831000Y-95465239D01*
X100831000Y-95465231D01*
X100831629Y-95458846D01*
X100885027Y-95423167D01*
X100969157Y-95339037D01*
X101035257Y-95240111D01*
X101080788Y-95130190D01*
X101104000Y-95013499D01*
X101104000Y-94894521D01*
X101080788Y-94777830D01*
X101035257Y-94667909D01*
X100969157Y-94568983D01*
X100885027Y-94484853D01*
X100786101Y-94418753D01*
X100676180Y-94373222D01*
X100559489Y-94350010D01*
X100440511Y-94350010D01*
X100323820Y-94373222D01*
X100213899Y-94418753D01*
X100114973Y-94484853D01*
X100030843Y-94568983D01*
X100000000Y-94615143D01*
X99969157Y-94568983D01*
X99885027Y-94484853D01*
X99786101Y-94418753D01*
X99676180Y-94373222D01*
X99559489Y-94350010D01*
X99440511Y-94350010D01*
X99323820Y-94373222D01*
X99213899Y-94418753D01*
X99114973Y-94484853D01*
X99030843Y-94568983D01*
X98964743Y-94667909D01*
X98919212Y-94777830D01*
X98896000Y-94894521D01*
X98896000Y-95013499D01*
X98919212Y-95130190D01*
X98964743Y-95240111D01*
X99030843Y-95339037D01*
X99114973Y-95423167D01*
X99168371Y-95458846D01*
X99169000Y-95465231D01*
X99169000Y-95465238D01*
X99171367Y-95489267D01*
X99173790Y-95513871D01*
X99178084Y-95528025D01*
X99192717Y-95576264D01*
X99223452Y-95633766D01*
X99264816Y-95684168D01*
X99277442Y-95694530D01*
X99469001Y-95886090D01*
X99469000Y-100600896D01*
X98895544Y-100027440D01*
X98885183Y-100014815D01*
X98834782Y-99973451D01*
X98777280Y-99942716D01*
X98714886Y-99923789D01*
X98666254Y-99918999D01*
X98666246Y-99918999D01*
X98649999Y-99917399D01*
X98633752Y-99918999D01*
X97604000Y-99918999D01*
X97604000Y-99840511D01*
X97580788Y-99723820D01*
X97535257Y-99613899D01*
X97469157Y-99514973D01*
X97385027Y-99430843D01*
X97286101Y-99364743D01*
X97176180Y-99319212D01*
X97059489Y-99296000D01*
X96940511Y-99296000D01*
X96823820Y-99319212D01*
X96713899Y-99364743D01*
X96614973Y-99430843D01*
X96530843Y-99514973D01*
X96464743Y-99613899D01*
X96419212Y-99723820D01*
X96396000Y-99840511D01*
X96396000Y-99959489D01*
X96419212Y-100076180D01*
X96464743Y-100186101D01*
X96530843Y-100285027D01*
X96614973Y-100369157D01*
X96713899Y-100435257D01*
X96823820Y-100480788D01*
X96940511Y-100504000D01*
X97059489Y-100504000D01*
X97122476Y-100491471D01*
X97127436Y-100495541D01*
X97127440Y-100495545D01*
X97157403Y-100520135D01*
X97165216Y-100526547D01*
X97222718Y-100557282D01*
X97270589Y-100571804D01*
X97285111Y-100576209D01*
X97291296Y-100576818D01*
X97333744Y-100580999D01*
X97333751Y-100580999D01*
X97349998Y-100582599D01*
X97366245Y-100580999D01*
X98512895Y-100580999D01*
X99431896Y-101500000D01*
X95900000Y-101500000D01*
X95900000Y-95641422D01*
X96441422Y-95100000D01*
X96600000Y-95100000D01*
X96619509Y-95098079D01*
X96638268Y-95092388D01*
X96655557Y-95083147D01*
X96670711Y-95070711D01*
X96683147Y-95055557D01*
X96692388Y-95038268D01*
X96698079Y-95019509D01*
X96700000Y-95000000D01*
X96700000Y-94600000D01*
X96698079Y-94580491D01*
X96692388Y-94561732D01*
X96683147Y-94544443D01*
X96670711Y-94529289D01*
X96655557Y-94516853D01*
X96638268Y-94507612D01*
X96619509Y-94501921D01*
X96600000Y-94500000D01*
X96200000Y-94500000D01*
X96180491Y-94501921D01*
X96161732Y-94507612D01*
X96144443Y-94516853D01*
X96129289Y-94529289D01*
X95329289Y-95329289D01*
X95316853Y-95344443D01*
X95307612Y-95361732D01*
X95301921Y-95380491D01*
X95300000Y-95400000D01*
X95300000Y-102000000D01*
X95301921Y-102019509D01*
X95307612Y-102038268D01*
X95316853Y-102055557D01*
X95329289Y-102070711D01*
X95344443Y-102083147D01*
X95361732Y-102092388D01*
X95380491Y-102098079D01*
X95400000Y-102100000D01*
X100031896Y-102100000D01*
X105507448Y-107575553D01*
X105507448Y-107593840D01*
X105530660Y-107710531D01*
X105576191Y-107820452D01*
X105642291Y-107919378D01*
X105726421Y-108003508D01*
X105825347Y-108069608D01*
X105935268Y-108115139D01*
X106051959Y-108138351D01*
X106170937Y-108138351D01*
X106287628Y-108115139D01*
X106397549Y-108069608D01*
X106496475Y-108003508D01*
X106580605Y-107919378D01*
X106646705Y-107820452D01*
X106677647Y-107745752D01*
X106721861Y-107789966D01*
X106721861Y-107939018D01*
X106667834Y-107975118D01*
X106583704Y-108059248D01*
X106517604Y-108158174D01*
X106472073Y-108268095D01*
X106448861Y-108384786D01*
X106448861Y-108503764D01*
X106472073Y-108620455D01*
X106517604Y-108730376D01*
X106583704Y-108829302D01*
X106667834Y-108913432D01*
X106766760Y-108979532D01*
X106876681Y-109025063D01*
X106993372Y-109048275D01*
X106996000Y-109048275D01*
X106996000Y-109159489D01*
X107019212Y-109276180D01*
X107064743Y-109386101D01*
X107130843Y-109485027D01*
X107214973Y-109569157D01*
X107313899Y-109635257D01*
X107423820Y-109680788D01*
X107540511Y-109704000D01*
X107659489Y-109704000D01*
X107776180Y-109680788D01*
X107886101Y-109635257D01*
X107985027Y-109569157D01*
X108069157Y-109485027D01*
X108135257Y-109386101D01*
X108180788Y-109276180D01*
X108204000Y-109159489D01*
X108204000Y-109040511D01*
X108180788Y-108923820D01*
X108135257Y-108813899D01*
X108069157Y-108714973D01*
X108031000Y-108676816D01*
X108031000Y-107616247D01*
X108032600Y-107600000D01*
X108031000Y-107583753D01*
X108031000Y-107583745D01*
X108026210Y-107535113D01*
X108020032Y-107514745D01*
X108007283Y-107472719D01*
X108004802Y-107468077D01*
X107976548Y-107415217D01*
X107969862Y-107407070D01*
X107945546Y-107377441D01*
X107945542Y-107377437D01*
X107935184Y-107364816D01*
X107922564Y-107354459D01*
X106308920Y-105740815D01*
X107693718Y-105740815D01*
X107693718Y-105859793D01*
X107716930Y-105976484D01*
X107762461Y-106086405D01*
X107828561Y-106185331D01*
X107912691Y-106269461D01*
X108011617Y-106335561D01*
X108121538Y-106381092D01*
X108238229Y-106404304D01*
X108357207Y-106404304D01*
X108473898Y-106381092D01*
X108583819Y-106335561D01*
X108682745Y-106269461D01*
X108766875Y-106185331D01*
X108832975Y-106086405D01*
X108878506Y-105976484D01*
X108901718Y-105859793D01*
X108901718Y-105740815D01*
X108899766Y-105731000D01*
X109111253Y-105731000D01*
X109147353Y-105785027D01*
X109231483Y-105869157D01*
X109330409Y-105935257D01*
X109440330Y-105980788D01*
X109557021Y-106004000D01*
X109675999Y-106004000D01*
X109792690Y-105980788D01*
X109902611Y-105935257D01*
X110001537Y-105869157D01*
X110085667Y-105785027D01*
X110151767Y-105686101D01*
X110197298Y-105576180D01*
X110220510Y-105459489D01*
X110220510Y-105340511D01*
X110197298Y-105223820D01*
X110151767Y-105113899D01*
X110085667Y-105014973D01*
X110001537Y-104930843D01*
X109902611Y-104864743D01*
X109792690Y-104819212D01*
X109675999Y-104796000D01*
X109557021Y-104796000D01*
X109440330Y-104819212D01*
X109330409Y-104864743D01*
X109231483Y-104930843D01*
X109147353Y-105014973D01*
X109111253Y-105069000D01*
X108714268Y-105069000D01*
X108698021Y-105067400D01*
X108681774Y-105069000D01*
X108681767Y-105069000D01*
X108639319Y-105073181D01*
X108633134Y-105073790D01*
X108618612Y-105078195D01*
X108570741Y-105092717D01*
X108513239Y-105123452D01*
X108513237Y-105123453D01*
X108513238Y-105123453D01*
X108475463Y-105154454D01*
X108475459Y-105154458D01*
X108462838Y-105164816D01*
X108452480Y-105177437D01*
X108420936Y-105208981D01*
X108357207Y-105196304D01*
X108238229Y-105196304D01*
X108121538Y-105219516D01*
X108011617Y-105265047D01*
X107912691Y-105331147D01*
X107828561Y-105415277D01*
X107762461Y-105514203D01*
X107716930Y-105624124D01*
X107693718Y-105740815D01*
X106308920Y-105740815D01*
X105073888Y-104505784D01*
X105180057Y-104484665D01*
X105289978Y-104439134D01*
X105388904Y-104373034D01*
X105461938Y-104300000D01*
X113825001Y-104300000D01*
X113825000Y-115656895D01*
X112595549Y-114427445D01*
X112595545Y-114427440D01*
X112591323Y-114423218D01*
X112604000Y-114359489D01*
X112604000Y-114240511D01*
X112580788Y-114123820D01*
X112535257Y-114013899D01*
X112469157Y-113914973D01*
X112385027Y-113830843D01*
X112286101Y-113764743D01*
X112176180Y-113719212D01*
X112059489Y-113696000D01*
X111940511Y-113696000D01*
X111823820Y-113719212D01*
X111713899Y-113764743D01*
X111614973Y-113830843D01*
X111530843Y-113914973D01*
X111464743Y-114013899D01*
X111419212Y-114123820D01*
X111396000Y-114240511D01*
X111396000Y-114359489D01*
X111419212Y-114476180D01*
X111464743Y-114586101D01*
X111471357Y-114596000D01*
X111440511Y-114596000D01*
X111323820Y-114619212D01*
X111213899Y-114664743D01*
X111114973Y-114730843D01*
X111030843Y-114814973D01*
X110964743Y-114913899D01*
X110919212Y-115023820D01*
X110896000Y-115140511D01*
X110896000Y-115259489D01*
X110919212Y-115376180D01*
X110964743Y-115486101D01*
X111030843Y-115585027D01*
X111114973Y-115669157D01*
X111213899Y-115735257D01*
X111323820Y-115780788D01*
X111440511Y-115804000D01*
X111559489Y-115804000D01*
X111676180Y-115780788D01*
X111786101Y-115735257D01*
X111885027Y-115669157D01*
X111943040Y-115611144D01*
X112776063Y-116444168D01*
X112776063Y-116549471D01*
X112722035Y-116585571D01*
X112637905Y-116669701D01*
X112571805Y-116768627D01*
X112526274Y-116878548D01*
X112503062Y-116995239D01*
X112503062Y-117114217D01*
X112526274Y-117230908D01*
X112571805Y-117340829D01*
X112637905Y-117439755D01*
X112722035Y-117523885D01*
X112820961Y-117589985D01*
X112930882Y-117635516D01*
X113047573Y-117658728D01*
X113166551Y-117658728D01*
X113283242Y-117635516D01*
X113357064Y-117604938D01*
X113357064Y-117674831D01*
X113223218Y-117808677D01*
X113159489Y-117796000D01*
X113040511Y-117796000D01*
X112923820Y-117819212D01*
X112813899Y-117864743D01*
X112714973Y-117930843D01*
X112630843Y-118014973D01*
X112564743Y-118113899D01*
X112519212Y-118223820D01*
X112496000Y-118340511D01*
X112496000Y-118459489D01*
X112519212Y-118576180D01*
X112564743Y-118686101D01*
X112630843Y-118785027D01*
X112714973Y-118869157D01*
X112813899Y-118935257D01*
X112923820Y-118980788D01*
X113040511Y-119004000D01*
X113159489Y-119004000D01*
X113276180Y-118980788D01*
X113386101Y-118935257D01*
X113485027Y-118869157D01*
X113569157Y-118785027D01*
X113635257Y-118686101D01*
X113680788Y-118576180D01*
X113704000Y-118459489D01*
X113704000Y-118340511D01*
X113691323Y-118276782D01*
X113808513Y-118159591D01*
X113789420Y-118354316D01*
X113686522Y-118695134D01*
X113519381Y-119009479D01*
X113294373Y-119285366D01*
X113020056Y-119512301D01*
X112706896Y-119681626D01*
X112366796Y-119786904D01*
X112004489Y-119824984D01*
X111999671Y-119825001D01*
X106543541Y-119825001D01*
X106545547Y-119822557D01*
X107222563Y-119145542D01*
X107228693Y-119140511D01*
X109296000Y-119140511D01*
X109296000Y-119259489D01*
X109319212Y-119376180D01*
X109364743Y-119486101D01*
X109430843Y-119585027D01*
X109514973Y-119669157D01*
X109613899Y-119735257D01*
X109723820Y-119780788D01*
X109840511Y-119804000D01*
X109959489Y-119804000D01*
X110076180Y-119780788D01*
X110186101Y-119735257D01*
X110285027Y-119669157D01*
X110369157Y-119585027D01*
X110435257Y-119486101D01*
X110480788Y-119376180D01*
X110504000Y-119259489D01*
X110504000Y-119140511D01*
X110480788Y-119023820D01*
X110435257Y-118913899D01*
X110369157Y-118814973D01*
X110285027Y-118730843D01*
X110186101Y-118664743D01*
X110076180Y-118619212D01*
X109959489Y-118596000D01*
X109840511Y-118596000D01*
X109723820Y-118619212D01*
X109613899Y-118664743D01*
X109514973Y-118730843D01*
X109430843Y-118814973D01*
X109364743Y-118913899D01*
X109319212Y-119023820D01*
X109296000Y-119140511D01*
X107228693Y-119140511D01*
X107235184Y-119135184D01*
X107245542Y-119122563D01*
X107245546Y-119122559D01*
X107263983Y-119100093D01*
X107276548Y-119084783D01*
X107307283Y-119027281D01*
X107326210Y-118964887D01*
X107331000Y-118916255D01*
X107331000Y-118916246D01*
X107332600Y-118900001D01*
X107331000Y-118883756D01*
X107331000Y-117340511D01*
X109296000Y-117340511D01*
X109296000Y-117459489D01*
X109319212Y-117576180D01*
X109364743Y-117686101D01*
X109430843Y-117785027D01*
X109514973Y-117869157D01*
X109613899Y-117935257D01*
X109723820Y-117980788D01*
X109840511Y-118004000D01*
X109959489Y-118004000D01*
X110076180Y-117980788D01*
X110186101Y-117935257D01*
X110285027Y-117869157D01*
X110369157Y-117785027D01*
X110435257Y-117686101D01*
X110480788Y-117576180D01*
X110504000Y-117459489D01*
X110504000Y-117340511D01*
X110480788Y-117223820D01*
X110435257Y-117113899D01*
X110369157Y-117014973D01*
X110285027Y-116930843D01*
X110186101Y-116864743D01*
X110076180Y-116819212D01*
X109959489Y-116796000D01*
X109840511Y-116796000D01*
X109723820Y-116819212D01*
X109613899Y-116864743D01*
X109514973Y-116930843D01*
X109430843Y-117014973D01*
X109364743Y-117113899D01*
X109319212Y-117223820D01*
X109296000Y-117340511D01*
X107331000Y-117340511D01*
X107331000Y-116080130D01*
X107332600Y-116063883D01*
X107331000Y-116047636D01*
X107331000Y-116047629D01*
X107326210Y-115998997D01*
X107307283Y-115936603D01*
X107276548Y-115879101D01*
X107265126Y-115865184D01*
X107245546Y-115841325D01*
X107245542Y-115841321D01*
X107235184Y-115828700D01*
X107222564Y-115818343D01*
X106981001Y-115576781D01*
X106981001Y-113604000D01*
X107059489Y-113604000D01*
X107176180Y-113580788D01*
X107286101Y-113535257D01*
X107385027Y-113469157D01*
X107469157Y-113385027D01*
X107535257Y-113286101D01*
X107580788Y-113176180D01*
X107604000Y-113059489D01*
X107604000Y-112940511D01*
X107580788Y-112823820D01*
X107535257Y-112713899D01*
X107469157Y-112614973D01*
X107385027Y-112530843D01*
X107286101Y-112464743D01*
X107176180Y-112419212D01*
X107059489Y-112396000D01*
X106940511Y-112396000D01*
X106823820Y-112419212D01*
X106713899Y-112464743D01*
X106614973Y-112530843D01*
X106530843Y-112614973D01*
X106464743Y-112713899D01*
X106419212Y-112823820D01*
X106396000Y-112940511D01*
X106396000Y-113059489D01*
X106408529Y-113122476D01*
X106373453Y-113165217D01*
X106342718Y-113222719D01*
X106323791Y-113285113D01*
X106319001Y-113333745D01*
X106319001Y-113333752D01*
X106317401Y-113349999D01*
X106319001Y-113366246D01*
X106319002Y-115697628D01*
X106317401Y-115713885D01*
X106323791Y-115778772D01*
X106342718Y-115841165D01*
X106373454Y-115898668D01*
X106404455Y-115936443D01*
X106404460Y-115936448D01*
X106414818Y-115949069D01*
X106427439Y-115959427D01*
X106669000Y-116200989D01*
X106669001Y-118762894D01*
X106162896Y-119269000D01*
X105935435Y-119269000D01*
X106001770Y-119169723D01*
X106058062Y-119033822D01*
X106086760Y-118889549D01*
X106086760Y-118742451D01*
X106058062Y-118598178D01*
X106001770Y-118462277D01*
X105920046Y-118339968D01*
X105816032Y-118235954D01*
X105693723Y-118154230D01*
X105557822Y-118097938D01*
X105413549Y-118069240D01*
X105266451Y-118069240D01*
X105122178Y-118097938D01*
X104986277Y-118154230D01*
X104863968Y-118235954D01*
X104759954Y-118339968D01*
X104716430Y-118405106D01*
X104716430Y-118371332D01*
X104691588Y-118246443D01*
X104642859Y-118128800D01*
X104572115Y-118022925D01*
X104482075Y-117932885D01*
X104376200Y-117862141D01*
X104287586Y-117825436D01*
X104299906Y-117821699D01*
X104344131Y-117721974D01*
X104070000Y-117447843D01*
X103795869Y-117721974D01*
X103840094Y-117821699D01*
X103853541Y-117824969D01*
X103763800Y-117862141D01*
X103657925Y-117932885D01*
X103567885Y-118022925D01*
X103497141Y-118128800D01*
X103448412Y-118246443D01*
X103435000Y-118313870D01*
X103421588Y-118246443D01*
X103372859Y-118128800D01*
X103302115Y-118022925D01*
X103212075Y-117932885D01*
X103106200Y-117862141D01*
X102988557Y-117813412D01*
X102921130Y-117800000D01*
X102988557Y-117786588D01*
X103106200Y-117737859D01*
X103212075Y-117667115D01*
X103302115Y-117577075D01*
X103372859Y-117471200D01*
X103409564Y-117382586D01*
X103413301Y-117394906D01*
X103513026Y-117439131D01*
X103787157Y-117165000D01*
X104352843Y-117165000D01*
X104626974Y-117439131D01*
X104726699Y-117394906D01*
X104758933Y-117262373D01*
X104759087Y-117258734D01*
X104759954Y-117260032D01*
X104863968Y-117364046D01*
X104986277Y-117445770D01*
X105122178Y-117502062D01*
X105266451Y-117530760D01*
X105413549Y-117530760D01*
X105557822Y-117502062D01*
X105693723Y-117445770D01*
X105816032Y-117364046D01*
X105920046Y-117260032D01*
X106001770Y-117137723D01*
X106058062Y-117001822D01*
X106086760Y-116857549D01*
X106086760Y-116710451D01*
X106058062Y-116566178D01*
X106001770Y-116430277D01*
X105920046Y-116307968D01*
X105816032Y-116203954D01*
X105693723Y-116122230D01*
X105557822Y-116065938D01*
X105413549Y-116037240D01*
X105266451Y-116037240D01*
X105122178Y-116065938D01*
X104986277Y-116122230D01*
X104863968Y-116203954D01*
X104759954Y-116307968D01*
X104678230Y-116430277D01*
X104621938Y-116566178D01*
X104593240Y-116710451D01*
X104593240Y-116857549D01*
X104604365Y-116913478D01*
X104352843Y-117165000D01*
X103787157Y-117165000D01*
X103773015Y-117150858D01*
X104055858Y-116868015D01*
X104070000Y-116882157D01*
X104344131Y-116608026D01*
X104299906Y-116508301D01*
X104167373Y-116476067D01*
X104031098Y-116470309D01*
X103896318Y-116491246D01*
X103840094Y-116508301D01*
X103795870Y-116608024D01*
X103719774Y-116531928D01*
X103674155Y-116577547D01*
X103735257Y-116486101D01*
X103780788Y-116376180D01*
X103804000Y-116259489D01*
X103804000Y-116140511D01*
X103780788Y-116023820D01*
X103735257Y-115913899D01*
X103669157Y-115814973D01*
X103585027Y-115730843D01*
X103486101Y-115664743D01*
X103376180Y-115619212D01*
X103259489Y-115596000D01*
X103140511Y-115596000D01*
X103023820Y-115619212D01*
X102913899Y-115664743D01*
X102814973Y-115730843D01*
X102730843Y-115814973D01*
X102664743Y-115913899D01*
X102619212Y-116023820D01*
X102596000Y-116140511D01*
X102596000Y-116259489D01*
X102619212Y-116376180D01*
X102664743Y-116486101D01*
X102692291Y-116527330D01*
X102611443Y-116543412D01*
X102493800Y-116592141D01*
X102484431Y-116598401D01*
X102484431Y-114983673D01*
X103522564Y-113945541D01*
X103535184Y-113935184D01*
X103545542Y-113922563D01*
X103545546Y-113922559D01*
X103576547Y-113884784D01*
X103576548Y-113884783D01*
X103607283Y-113827281D01*
X103626210Y-113764887D01*
X103631000Y-113716255D01*
X103631000Y-113716246D01*
X103632600Y-113700001D01*
X103631000Y-113683756D01*
X103631000Y-112205257D01*
X103685027Y-112169157D01*
X103769157Y-112085027D01*
X103835257Y-111986101D01*
X103880788Y-111876180D01*
X103904000Y-111759489D01*
X103904000Y-111640511D01*
X103880788Y-111523820D01*
X103835257Y-111413899D01*
X103769157Y-111314973D01*
X103685027Y-111230843D01*
X103586101Y-111164743D01*
X103476180Y-111119212D01*
X103359489Y-111096000D01*
X103240511Y-111096000D01*
X103123820Y-111119212D01*
X103013899Y-111164743D01*
X102914973Y-111230843D01*
X102830843Y-111314973D01*
X102764743Y-111413899D01*
X102719212Y-111523820D01*
X102696000Y-111640511D01*
X102696000Y-111759489D01*
X102719212Y-111876180D01*
X102764743Y-111986101D01*
X102830843Y-112085027D01*
X102914973Y-112169157D01*
X102969000Y-112205257D01*
X102969000Y-112211228D01*
X102969001Y-112211238D01*
X102969000Y-113562895D01*
X101930869Y-114601027D01*
X101918248Y-114611385D01*
X101907890Y-114624006D01*
X101907885Y-114624011D01*
X101876884Y-114661786D01*
X101846148Y-114719289D01*
X101827221Y-114781682D01*
X101820831Y-114846569D01*
X101822432Y-114862826D01*
X101822432Y-115089018D01*
X101786101Y-115064743D01*
X101676180Y-115019212D01*
X101559489Y-114996000D01*
X101440511Y-114996000D01*
X101323820Y-115019212D01*
X101213899Y-115064743D01*
X101114973Y-115130843D01*
X101030843Y-115214973D01*
X100964743Y-115313899D01*
X100919212Y-115423820D01*
X100896000Y-115540511D01*
X100896000Y-115659489D01*
X100919212Y-115776180D01*
X100964743Y-115886101D01*
X101030843Y-115985027D01*
X101114973Y-116069157D01*
X101199001Y-116125302D01*
X101199000Y-116608712D01*
X101117925Y-116662885D01*
X101027885Y-116752925D01*
X100957141Y-116858800D01*
X100908412Y-116976443D01*
X100883570Y-117101332D01*
X100883570Y-117228668D01*
X100908412Y-117353557D01*
X100957141Y-117471200D01*
X101027885Y-117577075D01*
X101117925Y-117667115D01*
X101223800Y-117737859D01*
X101341443Y-117786588D01*
X101408870Y-117800000D01*
X101341443Y-117813412D01*
X101223800Y-117862141D01*
X101117925Y-117932885D01*
X101027885Y-118022925D01*
X100957141Y-118128800D01*
X100908412Y-118246443D01*
X100883570Y-118371332D01*
X100883570Y-118498668D01*
X100908412Y-118623557D01*
X100951438Y-118727431D01*
X100582489Y-118727431D01*
X100391571Y-118536513D01*
X100478192Y-118519283D01*
X100614325Y-118462895D01*
X100736841Y-118381033D01*
X100841033Y-118276841D01*
X100922895Y-118154325D01*
X100979283Y-118018192D01*
X101008030Y-117873674D01*
X101008030Y-117726326D01*
X100979283Y-117581808D01*
X100922895Y-117445675D01*
X100841033Y-117323159D01*
X100736841Y-117218967D01*
X100614325Y-117137105D01*
X100478192Y-117080717D01*
X100333674Y-117051970D01*
X100186326Y-117051970D01*
X100041808Y-117080717D01*
X99905675Y-117137105D01*
X99831000Y-117187001D01*
X99831000Y-113437104D01*
X101465033Y-111803071D01*
X101505046Y-111899670D01*
X101571146Y-111998596D01*
X101655276Y-112082726D01*
X101754202Y-112148826D01*
X101864123Y-112194357D01*
X101902028Y-112201897D01*
X101902027Y-112394743D01*
X101848000Y-112430843D01*
X101763870Y-112514973D01*
X101697770Y-112613899D01*
X101652239Y-112723820D01*
X101629027Y-112840511D01*
X101629027Y-112959489D01*
X101652239Y-113076180D01*
X101697770Y-113186101D01*
X101763870Y-113285027D01*
X101848000Y-113369157D01*
X101946926Y-113435257D01*
X102056847Y-113480788D01*
X102173538Y-113504000D01*
X102292516Y-113504000D01*
X102409207Y-113480788D01*
X102519128Y-113435257D01*
X102618054Y-113369157D01*
X102702184Y-113285027D01*
X102768284Y-113186101D01*
X102813815Y-113076180D01*
X102837027Y-112959489D01*
X102837027Y-112840511D01*
X102813815Y-112723820D01*
X102768284Y-112613899D01*
X102702184Y-112514973D01*
X102618054Y-112430843D01*
X102564027Y-112394743D01*
X102564027Y-111916930D01*
X102575560Y-111899670D01*
X102621091Y-111789749D01*
X102644303Y-111673058D01*
X102644303Y-111554080D01*
X102621091Y-111437389D01*
X102575560Y-111327468D01*
X102509460Y-111228542D01*
X102464075Y-111183157D01*
X102485027Y-111169157D01*
X102569157Y-111085027D01*
X102635257Y-110986101D01*
X102680788Y-110876180D01*
X102704000Y-110759489D01*
X102704000Y-110640511D01*
X102680788Y-110523820D01*
X102635257Y-110413899D01*
X102569157Y-110314973D01*
X102485027Y-110230843D01*
X102386101Y-110164743D01*
X102276180Y-110119212D01*
X102159489Y-110096000D01*
X102040511Y-110096000D01*
X101923820Y-110119212D01*
X101813899Y-110164743D01*
X101714973Y-110230843D01*
X101630843Y-110314973D01*
X101564743Y-110413899D01*
X101519212Y-110523820D01*
X101496000Y-110640511D01*
X101496000Y-110759489D01*
X101508677Y-110823218D01*
X99277438Y-113054458D01*
X99264817Y-113064816D01*
X99254459Y-113077437D01*
X99254454Y-113077442D01*
X99223453Y-113115217D01*
X99192717Y-113172720D01*
X99173790Y-113235113D01*
X99167400Y-113300000D01*
X99169001Y-113316257D01*
X99169000Y-117800895D01*
X96895550Y-115527446D01*
X96895545Y-115527440D01*
X96891323Y-115523218D01*
X96904000Y-115459489D01*
X96904000Y-115340511D01*
X96880788Y-115223820D01*
X96835257Y-115113899D01*
X96769157Y-115014973D01*
X96685027Y-114930843D01*
X96586101Y-114864743D01*
X96476180Y-114819212D01*
X96359489Y-114796000D01*
X96240511Y-114796000D01*
X96123820Y-114819212D01*
X96013899Y-114864743D01*
X95914973Y-114930843D01*
X95830843Y-115014973D01*
X95764743Y-115113899D01*
X95719212Y-115223820D01*
X95696000Y-115340511D01*
X95696000Y-115459489D01*
X95719212Y-115576180D01*
X95764743Y-115686101D01*
X95830843Y-115785027D01*
X95914973Y-115869157D01*
X96013899Y-115935257D01*
X96123820Y-115980788D01*
X96240511Y-116004000D01*
X96359489Y-116004000D01*
X96423218Y-115991323D01*
X96427440Y-115995545D01*
X96427446Y-115995550D01*
X100254458Y-119822563D01*
X100256459Y-119825001D01*
X88008561Y-119825001D01*
X87645684Y-119789420D01*
X87304866Y-119686522D01*
X86990521Y-119519381D01*
X86714634Y-119294373D01*
X86587349Y-119140511D01*
X94496000Y-119140511D01*
X94496000Y-119259489D01*
X94519212Y-119376180D01*
X94564743Y-119486101D01*
X94630843Y-119585027D01*
X94714973Y-119669157D01*
X94813899Y-119735257D01*
X94923820Y-119780788D01*
X95040511Y-119804000D01*
X95159489Y-119804000D01*
X95276180Y-119780788D01*
X95386101Y-119735257D01*
X95485027Y-119669157D01*
X95569157Y-119585027D01*
X95635257Y-119486101D01*
X95680788Y-119376180D01*
X95704000Y-119259489D01*
X95704000Y-119140511D01*
X95680788Y-119023820D01*
X95635257Y-118913899D01*
X95569157Y-118814973D01*
X95485027Y-118730843D01*
X95386101Y-118664743D01*
X95276180Y-118619212D01*
X95159489Y-118596000D01*
X95040511Y-118596000D01*
X94923820Y-118619212D01*
X94813899Y-118664743D01*
X94714973Y-118730843D01*
X94630843Y-118814973D01*
X94564743Y-118913899D01*
X94519212Y-119023820D01*
X94496000Y-119140511D01*
X86587349Y-119140511D01*
X86487699Y-119020056D01*
X86318374Y-118706896D01*
X86213096Y-118366796D01*
X86175016Y-118004489D01*
X86174998Y-117999386D01*
X86174998Y-117340511D01*
X94496000Y-117340511D01*
X94496000Y-117459489D01*
X94519212Y-117576180D01*
X94564743Y-117686101D01*
X94630843Y-117785027D01*
X94714973Y-117869157D01*
X94813899Y-117935257D01*
X94923820Y-117980788D01*
X95040511Y-118004000D01*
X95159489Y-118004000D01*
X95276180Y-117980788D01*
X95386101Y-117935257D01*
X95485027Y-117869157D01*
X95569157Y-117785027D01*
X95635257Y-117686101D01*
X95680788Y-117576180D01*
X95704000Y-117459489D01*
X95704000Y-117340511D01*
X95680788Y-117223820D01*
X95635257Y-117113899D01*
X95569157Y-117014973D01*
X95485027Y-116930843D01*
X95386101Y-116864743D01*
X95276180Y-116819212D01*
X95159489Y-116796000D01*
X95040511Y-116796000D01*
X94923820Y-116819212D01*
X94813899Y-116864743D01*
X94714973Y-116930843D01*
X94630843Y-117014973D01*
X94564743Y-117113899D01*
X94519212Y-117223820D01*
X94496000Y-117340511D01*
X86174998Y-117340511D01*
X86174998Y-116228510D01*
X91437691Y-116228510D01*
X91437691Y-116347488D01*
X91460903Y-116464179D01*
X91506434Y-116574100D01*
X91572534Y-116673026D01*
X91656664Y-116757156D01*
X91755590Y-116823256D01*
X91865511Y-116868787D01*
X91982202Y-116891999D01*
X92101180Y-116891999D01*
X92217871Y-116868787D01*
X92327792Y-116823256D01*
X92426718Y-116757156D01*
X92510848Y-116673026D01*
X92546948Y-116618999D01*
X93095754Y-116618999D01*
X93112001Y-116620599D01*
X93128248Y-116618999D01*
X93128256Y-116618999D01*
X93176888Y-116614209D01*
X93239282Y-116595282D01*
X93296784Y-116564547D01*
X93347185Y-116523183D01*
X93357548Y-116510556D01*
X93833986Y-116034118D01*
X93833986Y-116102540D01*
X93857198Y-116219231D01*
X93902729Y-116329152D01*
X93968829Y-116428078D01*
X94052959Y-116512208D01*
X94151885Y-116578308D01*
X94261806Y-116623839D01*
X94378497Y-116647051D01*
X94497475Y-116647051D01*
X94614166Y-116623839D01*
X94724087Y-116578308D01*
X94823013Y-116512208D01*
X94907143Y-116428078D01*
X94973243Y-116329152D01*
X95018774Y-116219231D01*
X95041986Y-116102540D01*
X95041986Y-115983562D01*
X95018774Y-115866871D01*
X94973243Y-115756950D01*
X94907143Y-115658024D01*
X94852942Y-115603823D01*
X99257530Y-111199236D01*
X99321259Y-111211913D01*
X99440237Y-111211913D01*
X99556928Y-111188701D01*
X99666849Y-111143170D01*
X99765775Y-111077070D01*
X99849905Y-110992940D01*
X99916005Y-110894014D01*
X99961536Y-110784093D01*
X99984748Y-110667402D01*
X99984748Y-110548424D01*
X99961536Y-110431733D01*
X99916005Y-110321812D01*
X99849905Y-110222886D01*
X99765775Y-110138756D01*
X99666849Y-110072656D01*
X99648475Y-110065045D01*
X99712027Y-109969932D01*
X99757558Y-109860011D01*
X99780770Y-109743320D01*
X99780770Y-109624342D01*
X99757558Y-109507651D01*
X99712027Y-109397730D01*
X99645927Y-109298804D01*
X99561797Y-109214674D01*
X99462871Y-109148574D01*
X99352950Y-109103043D01*
X99236259Y-109079831D01*
X99117281Y-109079831D01*
X99000590Y-109103043D01*
X98890669Y-109148574D01*
X98791743Y-109214674D01*
X98707613Y-109298804D01*
X98641513Y-109397730D01*
X98595982Y-109507651D01*
X98572770Y-109624342D01*
X98572770Y-109743320D01*
X98585447Y-109807050D01*
X98527439Y-109865058D01*
X98514818Y-109875416D01*
X98504460Y-109888037D01*
X98504455Y-109888042D01*
X98473454Y-109925817D01*
X98442718Y-109983320D01*
X98423791Y-110045713D01*
X98417401Y-110110600D01*
X98419002Y-110126857D01*
X98419001Y-110512894D01*
X92974897Y-115956999D01*
X92546948Y-115956999D01*
X92510848Y-115902972D01*
X92426718Y-115818842D01*
X92327792Y-115752742D01*
X92217871Y-115707211D01*
X92101180Y-115683999D01*
X91982202Y-115683999D01*
X91865511Y-115707211D01*
X91755590Y-115752742D01*
X91656664Y-115818842D01*
X91572534Y-115902972D01*
X91506434Y-116001898D01*
X91460903Y-116111819D01*
X91437691Y-116228510D01*
X86174998Y-116228510D01*
X86174998Y-109440511D01*
X88796000Y-109440511D01*
X88796000Y-109559489D01*
X88819212Y-109676180D01*
X88864743Y-109786101D01*
X88930843Y-109885027D01*
X88996000Y-109950184D01*
X88996001Y-110680153D01*
X88994046Y-110700000D01*
X88997513Y-110735194D01*
X89001847Y-110779198D01*
X89024948Y-110855352D01*
X89062462Y-110925535D01*
X89100300Y-110971642D01*
X89100304Y-110971646D01*
X89112948Y-110987053D01*
X89128355Y-110999697D01*
X91096000Y-112967343D01*
X91096000Y-113059489D01*
X91119212Y-113176180D01*
X91164743Y-113286101D01*
X91230843Y-113385027D01*
X91314973Y-113469157D01*
X91413899Y-113535257D01*
X91523820Y-113580788D01*
X91640511Y-113604000D01*
X91759489Y-113604000D01*
X91876180Y-113580788D01*
X91986101Y-113535257D01*
X92085027Y-113469157D01*
X92169157Y-113385027D01*
X92235257Y-113286101D01*
X92280788Y-113176180D01*
X92304000Y-113059489D01*
X92304000Y-112967342D01*
X95171641Y-110099701D01*
X95187053Y-110087053D01*
X95213764Y-110054505D01*
X95237538Y-110025537D01*
X95260104Y-109983319D01*
X95275053Y-109955352D01*
X95298154Y-109879198D01*
X95304000Y-109819840D01*
X95304000Y-109819831D01*
X95305953Y-109800001D01*
X95304000Y-109780171D01*
X95304000Y-107990513D01*
X97441986Y-107990513D01*
X97441986Y-108109491D01*
X97465198Y-108226182D01*
X97510729Y-108336103D01*
X97576829Y-108435029D01*
X97660959Y-108519159D01*
X97759885Y-108585259D01*
X97869806Y-108630790D01*
X97986497Y-108654002D01*
X98105475Y-108654002D01*
X98169204Y-108641325D01*
X98173426Y-108645547D01*
X98173432Y-108645552D01*
X98350437Y-108822557D01*
X98360800Y-108835184D01*
X98411201Y-108876548D01*
X98468703Y-108907283D01*
X98508028Y-108919212D01*
X98531096Y-108926210D01*
X98537281Y-108926819D01*
X98579729Y-108931000D01*
X98579736Y-108931000D01*
X98595983Y-108932600D01*
X98612230Y-108931000D01*
X103494743Y-108931000D01*
X103530843Y-108985027D01*
X103614973Y-109069157D01*
X103713899Y-109135257D01*
X103823820Y-109180788D01*
X103940511Y-109204000D01*
X104059489Y-109204000D01*
X104176180Y-109180788D01*
X104286101Y-109135257D01*
X104385027Y-109069157D01*
X104469157Y-108985027D01*
X104535257Y-108886101D01*
X104580788Y-108776180D01*
X104604000Y-108659489D01*
X104604000Y-108540511D01*
X104580788Y-108423820D01*
X104535257Y-108313899D01*
X104469157Y-108214973D01*
X104385027Y-108130843D01*
X104286101Y-108064743D01*
X104176180Y-108019212D01*
X104059489Y-107996000D01*
X103940511Y-107996000D01*
X103823820Y-108019212D01*
X103713899Y-108064743D01*
X103614973Y-108130843D01*
X103530843Y-108214973D01*
X103494743Y-108269000D01*
X98733088Y-108269000D01*
X98641536Y-108177448D01*
X98641531Y-108177442D01*
X98637309Y-108173220D01*
X98649986Y-108109491D01*
X98649986Y-107990513D01*
X98626774Y-107873822D01*
X98581243Y-107763901D01*
X98515143Y-107664975D01*
X98431013Y-107580845D01*
X98332087Y-107514745D01*
X98222166Y-107469214D01*
X98105475Y-107446002D01*
X97986497Y-107446002D01*
X97869806Y-107469214D01*
X97759885Y-107514745D01*
X97660959Y-107580845D01*
X97576829Y-107664975D01*
X97510729Y-107763901D01*
X97465198Y-107873822D01*
X97441986Y-107990513D01*
X95304000Y-107990513D01*
X95304000Y-107350184D01*
X95369157Y-107285027D01*
X95435257Y-107186101D01*
X95480788Y-107076180D01*
X95504000Y-106959489D01*
X95504000Y-106840511D01*
X95480788Y-106723820D01*
X95435257Y-106613899D01*
X95369157Y-106514973D01*
X95285027Y-106430843D01*
X95186101Y-106364743D01*
X95076180Y-106319212D01*
X94959489Y-106296000D01*
X94840511Y-106296000D01*
X94723820Y-106319212D01*
X94613899Y-106364743D01*
X94514973Y-106430843D01*
X94430843Y-106514973D01*
X94364743Y-106613899D01*
X94319212Y-106723820D01*
X94296000Y-106840511D01*
X94296000Y-106959489D01*
X94319212Y-107076180D01*
X94364743Y-107186101D01*
X94430843Y-107285027D01*
X94496001Y-107350185D01*
X94496000Y-109632658D01*
X91732658Y-112396000D01*
X91667343Y-112396000D01*
X89804000Y-110532658D01*
X89804000Y-109950184D01*
X89869157Y-109885027D01*
X89935257Y-109786101D01*
X89980788Y-109676180D01*
X90004000Y-109559489D01*
X90004000Y-109440511D01*
X89980788Y-109323820D01*
X89935257Y-109213899D01*
X89869157Y-109114973D01*
X89785027Y-109030843D01*
X89686101Y-108964743D01*
X89576180Y-108919212D01*
X89459489Y-108896000D01*
X89340511Y-108896000D01*
X89223820Y-108919212D01*
X89113899Y-108964743D01*
X89014973Y-109030843D01*
X88930843Y-109114973D01*
X88864743Y-109213899D01*
X88819212Y-109323820D01*
X88796000Y-109440511D01*
X86174998Y-109440511D01*
X86174998Y-102060000D01*
X86790659Y-102060000D01*
X86811975Y-102276422D01*
X86875103Y-102484526D01*
X86977617Y-102676317D01*
X87115577Y-102844423D01*
X87283683Y-102982383D01*
X87475474Y-103084897D01*
X87683578Y-103148025D01*
X87845773Y-103164000D01*
X87954227Y-103164000D01*
X88116422Y-103148025D01*
X88316526Y-103087324D01*
X88296000Y-103190511D01*
X88296000Y-103309489D01*
X88319212Y-103426180D01*
X88364743Y-103536101D01*
X88427624Y-103630210D01*
X88324526Y-103575103D01*
X88116422Y-103511975D01*
X87954227Y-103496000D01*
X87845773Y-103496000D01*
X87683578Y-103511975D01*
X87475474Y-103575103D01*
X87283683Y-103677617D01*
X87115577Y-103815577D01*
X86977617Y-103983683D01*
X86875103Y-104175474D01*
X86811975Y-104383578D01*
X86790659Y-104600000D01*
X86811975Y-104816422D01*
X86875103Y-105024526D01*
X86977617Y-105216317D01*
X87115577Y-105384423D01*
X87283683Y-105522383D01*
X87475474Y-105624897D01*
X87683578Y-105688025D01*
X87845773Y-105704000D01*
X87954227Y-105704000D01*
X88116422Y-105688025D01*
X88324526Y-105624897D01*
X88516317Y-105522383D01*
X88684423Y-105384423D01*
X88822383Y-105216317D01*
X88924897Y-105024526D01*
X88988025Y-104816422D01*
X89009341Y-104600000D01*
X88988025Y-104383578D01*
X88924897Y-104175474D01*
X88822383Y-103983683D01*
X88684423Y-103815577D01*
X88681697Y-103813340D01*
X88723820Y-103830788D01*
X88840511Y-103854000D01*
X88959489Y-103854000D01*
X89076180Y-103830788D01*
X89186101Y-103785257D01*
X89285027Y-103719157D01*
X89369157Y-103635027D01*
X89435257Y-103536101D01*
X89480788Y-103426180D01*
X89504000Y-103309489D01*
X89504000Y-103190511D01*
X89496720Y-103153911D01*
X89738028Y-102912603D01*
X89751525Y-102901526D01*
X89762603Y-102888028D01*
X89762606Y-102888025D01*
X89795763Y-102847624D01*
X89795764Y-102847623D01*
X89828635Y-102786125D01*
X89846356Y-102727706D01*
X89848877Y-102719397D01*
X89851933Y-102688365D01*
X89854000Y-102667382D01*
X89854000Y-102667375D01*
X89855711Y-102650001D01*
X89854000Y-102632626D01*
X89854000Y-95896630D01*
X90922185Y-94828446D01*
X90927838Y-94830788D01*
X91044529Y-94854000D01*
X91163507Y-94854000D01*
X91280198Y-94830788D01*
X91390119Y-94785257D01*
X91489045Y-94719157D01*
X91573175Y-94635027D01*
X91639275Y-94536101D01*
X91684806Y-94426180D01*
X91708018Y-94309489D01*
X91708018Y-94190511D01*
X91684806Y-94073820D01*
X91639275Y-93963899D01*
X91573175Y-93864973D01*
X91489045Y-93780843D01*
X91390119Y-93714743D01*
X91280198Y-93669212D01*
X91163507Y-93646000D01*
X91044529Y-93646000D01*
X90927838Y-93669212D01*
X90817917Y-93714743D01*
X90718991Y-93780843D01*
X90634861Y-93864973D01*
X90568761Y-93963899D01*
X90523230Y-94073820D01*
X90500018Y-94190511D01*
X90500018Y-94249350D01*
X89261977Y-95487393D01*
X89248475Y-95498474D01*
X89204237Y-95552377D01*
X89171366Y-95613875D01*
X89151123Y-95680604D01*
X89144289Y-95750000D01*
X89146001Y-95767384D01*
X89146000Y-102503369D01*
X88996089Y-102653280D01*
X88959489Y-102646000D01*
X88840511Y-102646000D01*
X88838359Y-102646428D01*
X88924897Y-102484526D01*
X88988025Y-102276422D01*
X89009341Y-102060000D01*
X88988025Y-101843578D01*
X88924897Y-101635474D01*
X88822383Y-101443683D01*
X88684423Y-101275577D01*
X88516317Y-101137617D01*
X88324526Y-101035103D01*
X88116422Y-100971975D01*
X87954227Y-100956000D01*
X87845773Y-100956000D01*
X87683578Y-100971975D01*
X87475474Y-101035103D01*
X87283683Y-101137617D01*
X87115577Y-101275577D01*
X86977617Y-101443683D01*
X86875103Y-101635474D01*
X86811975Y-101843578D01*
X86790659Y-102060000D01*
X86174998Y-102060000D01*
X86174998Y-99520000D01*
X86790659Y-99520000D01*
X86811975Y-99736422D01*
X86875103Y-99944526D01*
X86977617Y-100136317D01*
X87115577Y-100304423D01*
X87283683Y-100442383D01*
X87475474Y-100544897D01*
X87683578Y-100608025D01*
X87845773Y-100624000D01*
X87954227Y-100624000D01*
X88116422Y-100608025D01*
X88324526Y-100544897D01*
X88516317Y-100442383D01*
X88684423Y-100304423D01*
X88822383Y-100136317D01*
X88924897Y-99944526D01*
X88988025Y-99736422D01*
X89009341Y-99520000D01*
X88988025Y-99303578D01*
X88924897Y-99095474D01*
X88822383Y-98903683D01*
X88684423Y-98735577D01*
X88516317Y-98597617D01*
X88324526Y-98495103D01*
X88116422Y-98431975D01*
X87954227Y-98416000D01*
X87845773Y-98416000D01*
X87683578Y-98431975D01*
X87475474Y-98495103D01*
X87283683Y-98597617D01*
X87115577Y-98735577D01*
X86977617Y-98903683D01*
X86875103Y-99095474D01*
X86811975Y-99303578D01*
X86790659Y-99520000D01*
X86174998Y-99520000D01*
X86174998Y-96980000D01*
X86790659Y-96980000D01*
X86811975Y-97196422D01*
X86875103Y-97404526D01*
X86977617Y-97596317D01*
X87115577Y-97764423D01*
X87283683Y-97902383D01*
X87475474Y-98004897D01*
X87683578Y-98068025D01*
X87845773Y-98084000D01*
X87954227Y-98084000D01*
X88116422Y-98068025D01*
X88324526Y-98004897D01*
X88516317Y-97902383D01*
X88684423Y-97764423D01*
X88822383Y-97596317D01*
X88924897Y-97404526D01*
X88988025Y-97196422D01*
X89009341Y-96980000D01*
X88988025Y-96763578D01*
X88924897Y-96555474D01*
X88822383Y-96363683D01*
X88684423Y-96195577D01*
X88516317Y-96057617D01*
X88324526Y-95955103D01*
X88116422Y-95891975D01*
X87954227Y-95876000D01*
X87845773Y-95876000D01*
X87683578Y-95891975D01*
X87475474Y-95955103D01*
X87283683Y-96057617D01*
X87115577Y-96195577D01*
X86977617Y-96363683D01*
X86875103Y-96555474D01*
X86811975Y-96763578D01*
X86790659Y-96980000D01*
X86174998Y-96980000D01*
X86174998Y-94440000D01*
X86790659Y-94440000D01*
X86811975Y-94656422D01*
X86875103Y-94864526D01*
X86977617Y-95056317D01*
X87115577Y-95224423D01*
X87283683Y-95362383D01*
X87475474Y-95464897D01*
X87683578Y-95528025D01*
X87845773Y-95544000D01*
X87954227Y-95544000D01*
X88116422Y-95528025D01*
X88324526Y-95464897D01*
X88516317Y-95362383D01*
X88684423Y-95224423D01*
X88822383Y-95056317D01*
X88924897Y-94864526D01*
X88988025Y-94656422D01*
X89009341Y-94440000D01*
X88988025Y-94223578D01*
X88924897Y-94015474D01*
X88822383Y-93823683D01*
X88684423Y-93655577D01*
X88516317Y-93517617D01*
X88324526Y-93415103D01*
X88116422Y-93351975D01*
X87954227Y-93336000D01*
X87845773Y-93336000D01*
X87683578Y-93351975D01*
X87475474Y-93415103D01*
X87283683Y-93517617D01*
X87115577Y-93655577D01*
X86977617Y-93823683D01*
X86875103Y-94015474D01*
X86811975Y-94223578D01*
X86790659Y-94440000D01*
X86174998Y-94440000D01*
X86174999Y-92750000D01*
X86748548Y-92750000D01*
X86754340Y-92808810D01*
X86771495Y-92865361D01*
X86799352Y-92917478D01*
X86836841Y-92963159D01*
X86882522Y-93000648D01*
X86934639Y-93028505D01*
X86991190Y-93045660D01*
X87050000Y-93051452D01*
X87625000Y-93050000D01*
X87700000Y-92975000D01*
X87700000Y-92100000D01*
X88100000Y-92100000D01*
X88100000Y-92975000D01*
X88175000Y-93050000D01*
X88750000Y-93051452D01*
X88808810Y-93045660D01*
X88865361Y-93028505D01*
X88917478Y-93000648D01*
X88963159Y-92963159D01*
X89000648Y-92917478D01*
X89028505Y-92865361D01*
X89045660Y-92808810D01*
X89051452Y-92750000D01*
X89050458Y-92356111D01*
X90176732Y-92356111D01*
X90272836Y-92497021D01*
X90476514Y-92570953D01*
X90690701Y-92603729D01*
X90907168Y-92594090D01*
X91117594Y-92542406D01*
X91227164Y-92497021D01*
X91323268Y-92356111D01*
X90750000Y-91782843D01*
X90176732Y-92356111D01*
X89050458Y-92356111D01*
X89050000Y-92175000D01*
X88975000Y-92100000D01*
X88100000Y-92100000D01*
X87700000Y-92100000D01*
X86825000Y-92100000D01*
X86750000Y-92175000D01*
X86748548Y-92750000D01*
X86174999Y-92750000D01*
X86175000Y-92008561D01*
X86210581Y-91645684D01*
X86313479Y-91304867D01*
X86448994Y-91050000D01*
X86748548Y-91050000D01*
X86750000Y-91625000D01*
X86825000Y-91700000D01*
X87700000Y-91700000D01*
X87700000Y-90825000D01*
X88100000Y-90825000D01*
X88100000Y-91700000D01*
X88975000Y-91700000D01*
X89050000Y-91625000D01*
X89050465Y-91440701D01*
X89646271Y-91440701D01*
X89655910Y-91657168D01*
X89707594Y-91867594D01*
X89752979Y-91977164D01*
X89893889Y-92073268D01*
X90467157Y-91500000D01*
X91032843Y-91500000D01*
X91606111Y-92073268D01*
X91747021Y-91977164D01*
X91820953Y-91773486D01*
X91853729Y-91559299D01*
X91844090Y-91342832D01*
X91792406Y-91132406D01*
X91747021Y-91022836D01*
X91606111Y-90926732D01*
X91032843Y-91500000D01*
X90467157Y-91500000D01*
X89893889Y-90926732D01*
X89752979Y-91022836D01*
X89679047Y-91226514D01*
X89646271Y-91440701D01*
X89050465Y-91440701D01*
X89051452Y-91050000D01*
X89045660Y-90991190D01*
X89028505Y-90934639D01*
X89000648Y-90882522D01*
X88963159Y-90836841D01*
X88917478Y-90799352D01*
X88865361Y-90771495D01*
X88808810Y-90754340D01*
X88750000Y-90748548D01*
X88175000Y-90750000D01*
X88100000Y-90825000D01*
X87700000Y-90825000D01*
X87625000Y-90750000D01*
X87050000Y-90748548D01*
X86991190Y-90754340D01*
X86934639Y-90771495D01*
X86882522Y-90799352D01*
X86836841Y-90836841D01*
X86799352Y-90882522D01*
X86771495Y-90934639D01*
X86754340Y-90991190D01*
X86748548Y-91050000D01*
X86448994Y-91050000D01*
X86480617Y-90990526D01*
X86705628Y-90714635D01*
X86791145Y-90643889D01*
X90176732Y-90643889D01*
X90750000Y-91217157D01*
X91267157Y-90700000D01*
X94694772Y-90700000D01*
X94694772Y-92300000D01*
X94699676Y-92349793D01*
X94714200Y-92397672D01*
X94737786Y-92441797D01*
X94769527Y-92480473D01*
X94808203Y-92512214D01*
X94852328Y-92535800D01*
X94900207Y-92550324D01*
X94950000Y-92555228D01*
X96550000Y-92555228D01*
X96599793Y-92550324D01*
X96647672Y-92535800D01*
X96691797Y-92512214D01*
X96730473Y-92480473D01*
X96762214Y-92441797D01*
X96785800Y-92397672D01*
X96798407Y-92356111D01*
X100176732Y-92356111D01*
X100272836Y-92497021D01*
X100476514Y-92570953D01*
X100690701Y-92603729D01*
X100907168Y-92594090D01*
X101117594Y-92542406D01*
X101227164Y-92497021D01*
X101323268Y-92356111D01*
X100750000Y-91782843D01*
X100176732Y-92356111D01*
X96798407Y-92356111D01*
X96800324Y-92349793D01*
X96805228Y-92300000D01*
X96805228Y-91440701D01*
X99646271Y-91440701D01*
X99655910Y-91657168D01*
X99707594Y-91867594D01*
X99752979Y-91977164D01*
X99893889Y-92073268D01*
X100467157Y-91500000D01*
X101032843Y-91500000D01*
X101606111Y-92073268D01*
X101747021Y-91977164D01*
X101820953Y-91773486D01*
X101853729Y-91559299D01*
X101844090Y-91342832D01*
X101792406Y-91132406D01*
X101747021Y-91022836D01*
X101606111Y-90926732D01*
X101032843Y-91500000D01*
X100467157Y-91500000D01*
X99893889Y-90926732D01*
X99752979Y-91022836D01*
X99679047Y-91226514D01*
X99646271Y-91440701D01*
X96805228Y-91440701D01*
X96805228Y-90700000D01*
X96800324Y-90650207D01*
X96798408Y-90643889D01*
X100176732Y-90643889D01*
X100750000Y-91217157D01*
X101267157Y-90700000D01*
X104694772Y-90700000D01*
X104694772Y-92300000D01*
X104699676Y-92349793D01*
X104714200Y-92397672D01*
X104737786Y-92441797D01*
X104769527Y-92480473D01*
X104808203Y-92512214D01*
X104852328Y-92535800D01*
X104900207Y-92550324D01*
X104950000Y-92555228D01*
X106550000Y-92555228D01*
X106599793Y-92550324D01*
X106647672Y-92535800D01*
X106691797Y-92512214D01*
X106730473Y-92480473D01*
X106762214Y-92441797D01*
X106785800Y-92397672D01*
X106800324Y-92349793D01*
X106805228Y-92300000D01*
X106805228Y-90700000D01*
X106800324Y-90650207D01*
X106785800Y-90602328D01*
X106762214Y-90558203D01*
X106730473Y-90519527D01*
X106691797Y-90487786D01*
X106647672Y-90464200D01*
X106599793Y-90449676D01*
X106550000Y-90444772D01*
X104950000Y-90444772D01*
X104900207Y-90449676D01*
X104852328Y-90464200D01*
X104808203Y-90487786D01*
X104769527Y-90519527D01*
X104737786Y-90558203D01*
X104714200Y-90602328D01*
X104699676Y-90650207D01*
X104694772Y-90700000D01*
X101267157Y-90700000D01*
X101323268Y-90643889D01*
X101227164Y-90502979D01*
X101023486Y-90429047D01*
X100809299Y-90396271D01*
X100592832Y-90405910D01*
X100382406Y-90457594D01*
X100272836Y-90502979D01*
X100176732Y-90643889D01*
X96798408Y-90643889D01*
X96785800Y-90602328D01*
X96762214Y-90558203D01*
X96730473Y-90519527D01*
X96691797Y-90487786D01*
X96647672Y-90464200D01*
X96599793Y-90449676D01*
X96550000Y-90444772D01*
X94950000Y-90444772D01*
X94900207Y-90449676D01*
X94852328Y-90464200D01*
X94808203Y-90487786D01*
X94769527Y-90519527D01*
X94737786Y-90558203D01*
X94714200Y-90602328D01*
X94699676Y-90650207D01*
X94694772Y-90700000D01*
X91267157Y-90700000D01*
X91323268Y-90643889D01*
X91227164Y-90502979D01*
X91023486Y-90429047D01*
X90809299Y-90396271D01*
X90592832Y-90405910D01*
X90382406Y-90457594D01*
X90272836Y-90502979D01*
X90176732Y-90643889D01*
X86791145Y-90643889D01*
X86979941Y-90487703D01*
X87293105Y-90318375D01*
X87633204Y-90213097D01*
X87995510Y-90175017D01*
X88000329Y-90175000D01*
X111991449Y-90175000D01*
X112354316Y-90210580D01*
G36*
X104013899Y-98535257D02*
G01*
X104123820Y-98580788D01*
X104240511Y-98604000D01*
X104269000Y-98604000D01*
X104269001Y-102327579D01*
X103678822Y-101737400D01*
X103707283Y-101684152D01*
X103726210Y-101621759D01*
X103726766Y-101616112D01*
X103731000Y-101573126D01*
X103731000Y-101573118D01*
X103732600Y-101556871D01*
X103731000Y-101540624D01*
X103731000Y-98705257D01*
X103785027Y-98669157D01*
X103869157Y-98585027D01*
X103935257Y-98486101D01*
X103936357Y-98483445D01*
X104013899Y-98535257D01*
X104013899Y-98535257D01*
G37*
X104013899Y-98535257D02*
X104123820Y-98580788D01*
X104240511Y-98604000D01*
X104269000Y-98604000D01*
X104269001Y-102327579D01*
X103678822Y-101737400D01*
X103707283Y-101684152D01*
X103726210Y-101621759D01*
X103726766Y-101616112D01*
X103731000Y-101573126D01*
X103731000Y-101573118D01*
X103732600Y-101556871D01*
X103731000Y-101540624D01*
X103731000Y-98705257D01*
X103785027Y-98669157D01*
X103869157Y-98585027D01*
X103935257Y-98486101D01*
X103936357Y-98483445D01*
X104013899Y-98535257D01*
M02*
