G04 #@! TF.GenerationSoftware,KiCad,Pcbnew,5.1.5-52549c5~84~ubuntu19.10.1*
G04 #@! TF.CreationDate,2020-03-01T19:43:28+01:00*
G04 #@! TF.ProjectId,C245,43323435-2e6b-4696-9361-645f70636258,rev?*
G04 #@! TF.SameCoordinates,Original*
G04 #@! TF.FileFunction,Soldermask,Top*
G04 #@! TF.FilePolarity,Negative*
%FSLAX46Y46*%
G04 Gerber Fmt 4.6, Leading zero omitted, Abs format (unit mm)*
G04 Created by KiCad (PCBNEW 5.1.5-52549c5~84~ubuntu19.10.1) date 2020-03-01 19:43:28*
%MOMM*%
%LPD*%
G04 APERTURE LIST*
%ADD10C,0.150000*%
%ADD11R,0.250000X0.825000*%
%ADD12R,0.825000X0.250000*%
%ADD13R,2.650000X2.650000*%
%ADD14O,1.700000X1.700000*%
%ADD15R,1.700000X1.700000*%
%ADD16R,0.600000X0.900000*%
%ADD17C,0.985520*%
%ADD18C,0.988060*%
%ADD19C,0.700000*%
%ADD20R,1.400000X1.050000*%
%ADD21R,1.475000X0.300000*%
%ADD22R,0.300000X1.475000*%
%ADD23R,0.500000X0.600000*%
%ADD24R,0.600000X0.500000*%
%ADD25R,1.300000X0.700000*%
%ADD26C,0.100000*%
%ADD27R,0.900000X0.600000*%
%ADD28R,0.650000X1.060000*%
%ADD29R,0.900000X0.800000*%
%ADD30R,0.420000X0.700000*%
%ADD31R,0.800000X0.900000*%
%ADD32R,2.000000X0.320000*%
%ADD33R,1.450000X0.600000*%
%ADD34O,2.100000X1.000000*%
%ADD35O,1.600000X1.000000*%
%ADD36C,0.650000*%
%ADD37R,1.450000X0.300000*%
%ADD38R,1.100000X1.100000*%
G04 APERTURE END LIST*
D10*
X88000000Y-120000001D02*
G75*
G02X85999999Y-118000000I0J2000001D01*
G01*
X114000001Y-118000000D02*
G75*
G02X112000000Y-120000001I-2000001J0D01*
G01*
X112000000Y-89999999D02*
G75*
G02X114000001Y-92000000I0J-2000001D01*
G01*
X86000000Y-92000000D02*
G75*
G02X88000000Y-90000000I2000000J0D01*
G01*
X86000000Y-92000000D02*
X85999999Y-118000000D01*
X112000000Y-90000000D02*
X88000000Y-90000000D01*
X114000000Y-118000000D02*
X114000000Y-92000000D01*
X88000000Y-120000001D02*
X112000000Y-120000001D01*
D11*
X100300000Y-99862500D03*
X99800000Y-99862500D03*
X99300000Y-99862500D03*
X98800000Y-99862500D03*
X98300000Y-99862500D03*
X97800000Y-99862500D03*
D12*
X97087500Y-99150000D03*
X97087500Y-98650000D03*
X97087500Y-98150000D03*
X97087500Y-97650000D03*
X97087500Y-97150000D03*
X97087500Y-96650000D03*
D11*
X97800000Y-95937500D03*
X98300000Y-95937500D03*
X98800000Y-95937500D03*
X99300000Y-95937500D03*
X99800000Y-95937500D03*
X100300000Y-95937500D03*
D12*
X101012500Y-96650000D03*
X101012500Y-97150000D03*
X101012500Y-97650000D03*
X101012500Y-98150000D03*
X101012500Y-98650000D03*
X101012500Y-99150000D03*
D13*
X99050000Y-97900000D03*
D14*
X87900000Y-104600000D03*
X87900000Y-102060000D03*
X87900000Y-99520000D03*
X87900000Y-96980000D03*
X87900000Y-94440000D03*
D15*
X87900000Y-91900000D03*
D16*
X90550000Y-114200000D03*
X92050000Y-114200000D03*
D17*
X105340000Y-116784000D03*
X105340000Y-118816000D03*
D18*
X100260000Y-117800000D03*
D19*
X95100000Y-119200000D03*
X95100000Y-117400000D03*
D20*
X93300000Y-119020000D03*
X96900000Y-119020000D03*
X93300000Y-117580000D03*
X96900000Y-117580000D03*
D19*
X109900000Y-119200000D03*
X109900000Y-117400000D03*
D20*
X108100000Y-119020000D03*
X111700000Y-119020000D03*
X108100000Y-117580000D03*
X111700000Y-117580000D03*
D21*
X100637500Y-113050000D03*
X100637500Y-112550000D03*
X100637500Y-112050000D03*
X100637500Y-111550000D03*
X100637500Y-111050000D03*
X100637500Y-110550000D03*
X100637500Y-110050000D03*
X100637500Y-109550000D03*
X100637500Y-109050000D03*
X100637500Y-108550000D03*
X100637500Y-108050000D03*
X100637500Y-107550000D03*
D22*
X102050000Y-106137500D03*
X102550000Y-106137500D03*
X103050000Y-106137500D03*
X103550000Y-106137500D03*
X104050000Y-106137500D03*
X104550000Y-106137500D03*
X105050000Y-106137500D03*
X105550000Y-106137500D03*
X106050000Y-106137500D03*
X106550000Y-106137500D03*
X107050000Y-106137500D03*
X107550000Y-106137500D03*
D21*
X108962500Y-107550000D03*
X108962500Y-108050000D03*
X108962500Y-108550000D03*
X108962500Y-109050000D03*
X108962500Y-109550000D03*
X108962500Y-110050000D03*
X108962500Y-110550000D03*
X108962500Y-111050000D03*
X108962500Y-111550000D03*
X108962500Y-112050000D03*
X108962500Y-112550000D03*
X108962500Y-113050000D03*
D22*
X107550000Y-114462500D03*
X107050000Y-114462500D03*
X106550000Y-114462500D03*
X106050000Y-114462500D03*
X105550000Y-114462500D03*
X105050000Y-114462500D03*
X104550000Y-114462500D03*
X104050000Y-114462500D03*
X103550000Y-114462500D03*
X103050000Y-114462500D03*
X102550000Y-114462500D03*
X102050000Y-114462500D03*
D23*
X91470000Y-115600000D03*
X90530000Y-115600000D03*
D24*
X96000000Y-98180000D03*
X96000000Y-99120000D03*
D25*
X93550000Y-98450000D03*
X93550000Y-96550000D03*
D26*
G36*
X95706569Y-101182305D02*
G01*
X95282305Y-101606569D01*
X94928751Y-101253015D01*
X95353015Y-100828751D01*
X95706569Y-101182305D01*
G37*
G36*
X96371249Y-101846985D02*
G01*
X95946985Y-102271249D01*
X95593431Y-101917695D01*
X96017695Y-101493431D01*
X96371249Y-101846985D01*
G37*
G36*
X96243431Y-101267695D02*
G01*
X96667695Y-100843431D01*
X97021249Y-101196985D01*
X96596985Y-101621249D01*
X96243431Y-101267695D01*
G37*
G36*
X95578751Y-100603015D02*
G01*
X96003015Y-100178751D01*
X96356569Y-100532305D01*
X95932305Y-100956569D01*
X95578751Y-100603015D01*
G37*
D23*
X90080000Y-104050000D03*
X91020000Y-104050000D03*
D24*
X111000000Y-109730000D03*
X111000000Y-110670000D03*
D23*
X89470000Y-106500000D03*
X88530000Y-106500000D03*
D26*
G36*
X87643431Y-108267695D02*
G01*
X88067695Y-107843431D01*
X88421249Y-108196985D01*
X87996985Y-108621249D01*
X87643431Y-108267695D01*
G37*
G36*
X86978751Y-107603015D02*
G01*
X87403015Y-107178751D01*
X87756569Y-107532305D01*
X87332305Y-107956569D01*
X86978751Y-107603015D01*
G37*
G36*
X92367695Y-111456569D02*
G01*
X91943431Y-111032305D01*
X92296985Y-110678751D01*
X92721249Y-111103015D01*
X92367695Y-111456569D01*
G37*
G36*
X91703015Y-112121249D02*
G01*
X91278751Y-111696985D01*
X91632305Y-111343431D01*
X92056569Y-111767695D01*
X91703015Y-112121249D01*
G37*
G36*
X93193431Y-112417695D02*
G01*
X93617695Y-111993431D01*
X93971249Y-112346985D01*
X93546985Y-112771249D01*
X93193431Y-112417695D01*
G37*
G36*
X92528751Y-111753015D02*
G01*
X92953015Y-111328751D01*
X93306569Y-111682305D01*
X92882305Y-112106569D01*
X92528751Y-111753015D01*
G37*
D24*
X93400000Y-115330000D03*
X93400000Y-116270000D03*
X93800000Y-103270000D03*
X93800000Y-102330000D03*
D23*
X91470000Y-117400000D03*
X90530000Y-117400000D03*
D24*
X92400000Y-115130000D03*
X92400000Y-116070000D03*
D23*
X92430000Y-107450000D03*
X93370000Y-107450000D03*
D24*
X99900000Y-104220000D03*
X99900000Y-103280000D03*
D23*
X102230000Y-95300000D03*
X103170000Y-95300000D03*
X108470000Y-104650000D03*
X107530000Y-104650000D03*
X98380000Y-119250000D03*
X99320000Y-119250000D03*
X101380000Y-103800000D03*
X102320000Y-103800000D03*
X101280000Y-102900000D03*
X102220000Y-102900000D03*
D24*
X110950000Y-104430000D03*
X110950000Y-105370000D03*
X110000000Y-104470000D03*
X110000000Y-103530000D03*
D23*
X108570000Y-116200000D03*
X107630000Y-116200000D03*
X101530000Y-100300000D03*
X102470000Y-100300000D03*
X102520000Y-101250000D03*
X101580000Y-101250000D03*
X98570000Y-101050000D03*
X97630000Y-101050000D03*
X112770000Y-105100000D03*
X111830000Y-105100000D03*
X87770000Y-106500000D03*
X86830000Y-106500000D03*
D26*
G36*
X91767695Y-110756569D02*
G01*
X91343431Y-110332305D01*
X91696985Y-109978751D01*
X92121249Y-110403015D01*
X91767695Y-110756569D01*
G37*
G36*
X91103015Y-111421249D02*
G01*
X90678751Y-110996985D01*
X91032305Y-110643431D01*
X91456569Y-111067695D01*
X91103015Y-111421249D01*
G37*
D23*
X91470000Y-119200000D03*
X90530000Y-119200000D03*
D24*
X86800000Y-109580000D03*
X86800000Y-110520000D03*
D23*
X91470000Y-118300000D03*
X90530000Y-118300000D03*
D24*
X90500000Y-112770000D03*
X90500000Y-111830000D03*
D27*
X100350000Y-106650000D03*
X100350000Y-105150000D03*
D24*
X106500000Y-116970000D03*
X106500000Y-116030000D03*
D23*
X87930000Y-110250000D03*
X88870000Y-110250000D03*
X99380000Y-101300000D03*
X100320000Y-101300000D03*
X99130000Y-114000000D03*
X100070000Y-114000000D03*
X108980000Y-106650000D03*
X109920000Y-106650000D03*
D26*
G36*
X97863604Y-112100000D02*
G01*
X98500000Y-112736396D01*
X98075736Y-113160660D01*
X97439340Y-112524264D01*
X97863604Y-112100000D01*
G37*
G36*
X98924264Y-111039340D02*
G01*
X99560660Y-111675736D01*
X99136396Y-112100000D01*
X98500000Y-111463604D01*
X98924264Y-111039340D01*
G37*
D23*
X102720000Y-104650000D03*
X101780000Y-104650000D03*
D24*
X108550000Y-115520000D03*
X108550000Y-114580000D03*
D26*
G36*
X97436396Y-113800000D02*
G01*
X96800000Y-113163604D01*
X97224264Y-112739340D01*
X97860660Y-113375736D01*
X97436396Y-113800000D01*
G37*
G36*
X96375736Y-114860660D02*
G01*
X95739340Y-114224264D01*
X96163604Y-113800000D01*
X96800000Y-114436396D01*
X96375736Y-114860660D01*
G37*
D28*
X96650000Y-103000000D03*
X98550000Y-103000000D03*
X98550000Y-105200000D03*
X97600000Y-105200000D03*
X96650000Y-105200000D03*
D29*
X113000000Y-107400000D03*
X111000000Y-108350000D03*
X111000000Y-106450000D03*
D26*
G36*
X90332825Y-109494562D02*
G01*
X90792444Y-109954181D01*
X90042911Y-110703714D01*
X89583292Y-110244095D01*
X90332825Y-109494562D01*
G37*
G36*
X88989322Y-108151059D02*
G01*
X89448941Y-108610678D01*
X88699408Y-109360211D01*
X88239789Y-108900592D01*
X88989322Y-108151059D01*
G37*
G36*
X90544957Y-106595424D02*
G01*
X91004576Y-107055043D01*
X90255043Y-107804576D01*
X89795424Y-107344957D01*
X90544957Y-106595424D01*
G37*
G36*
X91216708Y-107267176D02*
G01*
X91676327Y-107726795D01*
X90926794Y-108476328D01*
X90467175Y-108016709D01*
X91216708Y-107267176D01*
G37*
G36*
X91888460Y-107938927D02*
G01*
X92348079Y-108398546D01*
X91598546Y-109148079D01*
X91138927Y-108688460D01*
X91888460Y-107938927D01*
G37*
G36*
X96278146Y-109322511D02*
G01*
X96490278Y-110524593D01*
X95924593Y-111090278D01*
X94722511Y-110878146D01*
X96278146Y-109322511D01*
G37*
G36*
X94729794Y-110885429D02*
G01*
X93428717Y-109584352D01*
X94984352Y-108028717D01*
X96285429Y-109329794D01*
X94729794Y-110885429D01*
G37*
G36*
X98083955Y-111269741D02*
G01*
X97023295Y-110209081D01*
X97730401Y-109501975D01*
X98791061Y-110562635D01*
X98083955Y-111269741D01*
G37*
G36*
X97025770Y-112332876D02*
G01*
X95752978Y-111060084D01*
X96460084Y-110352978D01*
X97732876Y-111625770D01*
X97025770Y-112332876D01*
G37*
G36*
X95962635Y-113391061D02*
G01*
X94901975Y-112330401D01*
X95609081Y-111623295D01*
X96669741Y-112683955D01*
X95962635Y-113391061D01*
G37*
G36*
X93436849Y-109592484D02*
G01*
X93260072Y-108567179D01*
X93967179Y-107860072D01*
X94992484Y-108036849D01*
X93436849Y-109592484D01*
G37*
D28*
X103400000Y-99100000D03*
X104350000Y-99100000D03*
X102450000Y-99100000D03*
X102450000Y-96900000D03*
X103400000Y-96900000D03*
X104350000Y-96900000D03*
D30*
X92375000Y-99700000D03*
X91075000Y-99700000D03*
X91725000Y-99700000D03*
X90425000Y-99700000D03*
D26*
G36*
X92165000Y-103050000D02*
G01*
X92165000Y-102510000D01*
X91935000Y-102510000D01*
X91935000Y-103050000D01*
X91515000Y-103050000D01*
X91515000Y-102510000D01*
X91285000Y-102510000D01*
X91285000Y-103050000D01*
X90865000Y-103050000D01*
X90865000Y-102510000D01*
X90635000Y-102510000D01*
X90635000Y-103050000D01*
X90215000Y-103050000D01*
X90215000Y-100800000D01*
X92585000Y-100800000D01*
X92585000Y-103050000D01*
X92165000Y-103050000D01*
G37*
D31*
X92800000Y-104350000D03*
X93750000Y-106350000D03*
X91850000Y-106350000D03*
D32*
X88700000Y-111050776D03*
X88700000Y-111656929D03*
X88700000Y-112263082D03*
X88700000Y-112869235D03*
X88700000Y-113475388D03*
X88700000Y-114081541D03*
X88700000Y-114687694D03*
X88700000Y-115293847D03*
X88700000Y-115900000D03*
X88700000Y-116506153D03*
X88700000Y-117112306D03*
X88700000Y-117718459D03*
X88700000Y-118324612D03*
X88700000Y-118930776D03*
D33*
X106500000Y-100700000D03*
X106500000Y-95900000D03*
X106500000Y-95100000D03*
X106500000Y-101500000D03*
D34*
X107415000Y-102620000D03*
X107415000Y-93980000D03*
D35*
X111595000Y-102620000D03*
X111595000Y-93980000D03*
D36*
X107945000Y-95410000D03*
X107945000Y-101190000D03*
D33*
X106500000Y-95100000D03*
X106500000Y-95900000D03*
D37*
X106500000Y-96550000D03*
X106500000Y-97050000D03*
X106500000Y-97550000D03*
X106500000Y-98050000D03*
X106500000Y-98550000D03*
X106500000Y-99050000D03*
X106500000Y-99550000D03*
X106500000Y-100050000D03*
D33*
X106500000Y-100700000D03*
X106500000Y-101500000D03*
D38*
X90600000Y-95300000D03*
X90600000Y-98100000D03*
M02*
