M48
; DRILL file {KiCad 5.1.4+dfsg1-1} date So 12 Apr 2020 23:52:36 CEST
; FORMAT={-:-/ absolute / inch / decimal}
; #@! TF.CreationDate,2020-04-12T23:52:36+02:00
; #@! TF.GenerationSoftware,Kicad,Pcbnew,5.1.4+dfsg1-1
; #@! TF.FileFunction,Plated,1,2,PTH
FMAT,2
INCH
T1C0.0157
T2C0.0236
T3C0.0394
%
G90
G05
T1
X3.4154Y-4.4193
X3.4154Y-4.5177
X3.4154Y-4.6555
X3.4921Y-4.2323
X3.5Y-4.065
X3.5197Y-4.311
X3.5866Y-4.1535
X3.5868Y-3.7106
X3.6102Y-4.4488
X3.622Y-4.6555
X3.622Y-4.6949
X3.6237Y-4.5783
X3.6654Y-4.4843
X3.6693Y-4.3425
X3.6969Y-3.9528
X3.718Y-4.5686
X3.7244Y-4.3898
X3.7323Y-3.9528
X3.7362Y-4.2087
X3.7441Y-4.4606
X3.7638Y-4.5669
X3.7717Y-4.0945
X3.7795Y-4.2008
X3.7795Y-4.2913
X3.7913Y-4.5433
X3.7992Y-3.9685
X3.8071Y-4.5079
X3.811Y-4.0945
X3.815Y-4.2008
X3.8189Y-3.7756
X3.8189Y-3.9331
X3.8189Y-4.3898
X3.8228Y-4.2992
X3.8504Y-4.0945
X3.8601Y-4.2539
X3.8661Y-3.8228
X3.8661Y-3.8858
X3.8661Y-4.4488
X3.8819Y-4.5827
X3.8858Y-4.0945
X3.8858Y-4.4961
X3.9046Y-4.3183
X3.9126Y-4.3546
X3.9173Y-3.7383
X3.9213Y-4.0945
X3.9488Y-4.4843
X3.9488Y-4.5433
X3.9567Y-3.7383
X3.9843Y-4.2008
X3.9921Y-3.752
X3.9961Y-3.9291
X3.9961Y-4.5512
X4.0157Y-3.7087
X4.0173Y-4.3942
X4.0197Y-4.3583
X4.0249Y-4.4449
X4.0276Y-3.8583
X4.0433Y-4.2362
X4.0433Y-4.3031
X4.0461Y-4.0231
X4.0472Y-3.9685
X4.059Y-4.0541
X4.0601Y-4.0879
X4.063Y-4.5748
X4.0669Y-4.3976
X4.0709Y-3.8661
X4.0906Y-3.7598
X4.0945Y-3.9646
X4.0945Y-3.9961
X4.0945Y-4.2362
X4.0945Y-4.2756
X4.1063Y-3.8583
X4.1102Y-4.3976
X4.1142Y-4.063
X4.1299Y-4.4528
X4.1339Y-4.6378
X4.134Y-4.0907
X4.141Y-3.8701
X4.1496Y-4.2992
X4.1575Y-4.1181
X4.1776Y-4.2336
X4.1811Y-4.4173
X4.185Y-4.6457
X4.2126Y-4.3465
X4.2126Y-4.4488
X4.2147Y-4.2695
X4.2362Y-4.2953
X4.2441Y-3.8425
X4.2637Y-4.1654
X4.3156Y-4.1496
X4.3465Y-4.5276
X4.3543Y-4.1654
X4.3543Y-4.4764
X4.3583Y-4.3701
X4.374Y-4.1299
X4.3898Y-4.5354
X4.4016Y-4.1929
X4.4016Y-4.5709
X4.4094Y-4.3346
X4.4094Y-4.5
X4.4134Y-4.2795
X4.4528Y-4.6614
X4.453Y-4.6085
T3
X3.9665Y-3.6024
X4.1634Y-3.6024
X3.5728Y-3.6024
X3.7697Y-3.6024
X3.4606Y-3.6181
X3.4606Y-3.7181
X3.4606Y-3.8181
X3.4606Y-3.9181
X3.4606Y-4.0181
X3.4606Y-4.1181
T2
X4.2073Y-3.7G85X4.2506Y-3.7
G05
X4.2073Y-4.0402G85X4.2506Y-4.0402
G05
X4.3817Y-3.7G85X4.4053Y-3.7
G05
X4.3817Y-4.0402G85X4.4053Y-4.0402
G05
T0
M30
