G04 #@! TF.GenerationSoftware,KiCad,Pcbnew,5.1.5-52549c5~84~ubuntu19.10.1*
G04 #@! TF.CreationDate,2020-03-01T19:43:28+01:00*
G04 #@! TF.ProjectId,C245,43323435-2e6b-4696-9361-645f70636258,rev?*
G04 #@! TF.SameCoordinates,Original*
G04 #@! TF.FileFunction,Legend,Top*
G04 #@! TF.FilePolarity,Positive*
%FSLAX46Y46*%
G04 Gerber Fmt 4.6, Leading zero omitted, Abs format (unit mm)*
G04 Created by KiCad (PCBNEW 5.1.5-52549c5~84~ubuntu19.10.1) date 2020-03-01 19:43:28*
%MOMM*%
%LPD*%
G04 APERTURE LIST*
%ADD10C,0.100000*%
%ADD11C,0.150000*%
%ADD12C,0.010000*%
%ADD13C,0.120000*%
G04 APERTURE END LIST*
D10*
X101338095Y-117311904D02*
X101338095Y-117502380D01*
X101147619Y-117426190D02*
X101338095Y-117502380D01*
X101528571Y-117426190D01*
X101223809Y-117654761D02*
X101338095Y-117502380D01*
X101452380Y-117654761D01*
X101833333Y-118111904D02*
X101833333Y-117578571D01*
X101833333Y-117654761D02*
X101871428Y-117616666D01*
X101947619Y-117578571D01*
X102061904Y-117578571D01*
X102138095Y-117616666D01*
X102176190Y-117692857D01*
X102176190Y-118111904D01*
X102176190Y-117692857D02*
X102214285Y-117616666D01*
X102290476Y-117578571D01*
X102404761Y-117578571D01*
X102480952Y-117616666D01*
X102519047Y-117692857D01*
X102519047Y-118111904D01*
X103242857Y-118111904D02*
X103242857Y-117692857D01*
X103204761Y-117616666D01*
X103128571Y-117578571D01*
X102976190Y-117578571D01*
X102900000Y-117616666D01*
X103242857Y-118073809D02*
X103166666Y-118111904D01*
X102976190Y-118111904D01*
X102900000Y-118073809D01*
X102861904Y-117997619D01*
X102861904Y-117921428D01*
X102900000Y-117845238D01*
X102976190Y-117807142D01*
X103166666Y-117807142D01*
X103242857Y-117769047D01*
X103966666Y-117578571D02*
X103966666Y-118111904D01*
X103623809Y-117578571D02*
X103623809Y-117997619D01*
X103661904Y-118073809D01*
X103738095Y-118111904D01*
X103852380Y-118111904D01*
X103928571Y-118073809D01*
X103966666Y-118035714D01*
X104461904Y-117311904D02*
X104461904Y-117502380D01*
X104271428Y-117426190D02*
X104461904Y-117502380D01*
X104652380Y-117426190D01*
X104347619Y-117654761D02*
X104461904Y-117502380D01*
X104576190Y-117654761D01*
D11*
X95500000Y-95400000D02*
X96200000Y-94700000D01*
X95500000Y-97000000D02*
X95500000Y-95400000D01*
X95500000Y-99600000D02*
X95500000Y-97850000D01*
X95000000Y-102300000D02*
X95000000Y-105000000D01*
X95350000Y-101950000D02*
X95000000Y-102300000D01*
X97300000Y-101800000D02*
X96800000Y-101800000D01*
X103300000Y-101800000D02*
X98900000Y-101800000D01*
X105500000Y-104000000D02*
X103300000Y-101800000D01*
X109500000Y-104000000D02*
X105500000Y-104000000D01*
X114400000Y-104000000D02*
X111500000Y-104000000D01*
X88000000Y-120000001D02*
G75*
G02X85999999Y-118000000I0J2000001D01*
G01*
X114000001Y-118000000D02*
G75*
G02X112000000Y-120000001I-2000001J0D01*
G01*
X112000000Y-89999999D02*
G75*
G02X114000001Y-92000000I0J-2000001D01*
G01*
X86000000Y-92000000D02*
G75*
G02X88000000Y-90000000I2000000J0D01*
G01*
X86000000Y-92000000D02*
X85999999Y-118000000D01*
X112000000Y-90000000D02*
X88000000Y-90000000D01*
X114000000Y-118000000D02*
X114000000Y-92000000D01*
X88000000Y-120000001D02*
X112000000Y-120000001D01*
D12*
G36*
X105728079Y-90834261D02*
G01*
X105768200Y-90866856D01*
X105782842Y-90889419D01*
X105797192Y-90940411D01*
X105790174Y-90988628D01*
X105765781Y-91029886D01*
X105728004Y-91060000D01*
X105680837Y-91074785D01*
X105628273Y-91070057D01*
X105614933Y-91065406D01*
X105576157Y-91037512D01*
X105553113Y-90995790D01*
X105546844Y-90947133D01*
X105558393Y-90898435D01*
X105584023Y-90861123D01*
X105629939Y-90830533D01*
X105679975Y-90821866D01*
X105728079Y-90834261D01*
G37*
X105728079Y-90834261D02*
X105768200Y-90866856D01*
X105782842Y-90889419D01*
X105797192Y-90940411D01*
X105790174Y-90988628D01*
X105765781Y-91029886D01*
X105728004Y-91060000D01*
X105680837Y-91074785D01*
X105628273Y-91070057D01*
X105614933Y-91065406D01*
X105576157Y-91037512D01*
X105553113Y-90995790D01*
X105546844Y-90947133D01*
X105558393Y-90898435D01*
X105584023Y-90861123D01*
X105629939Y-90830533D01*
X105679975Y-90821866D01*
X105728079Y-90834261D01*
G36*
X96161600Y-91827300D02*
G01*
X95640900Y-91827300D01*
X95640900Y-91649500D01*
X96161600Y-91649500D01*
X96161600Y-91827300D01*
G37*
X96161600Y-91827300D02*
X95640900Y-91827300D01*
X95640900Y-91649500D01*
X96161600Y-91649500D01*
X96161600Y-91827300D01*
G36*
X105775500Y-92373400D02*
G01*
X105572300Y-92373400D01*
X105572300Y-91281200D01*
X105775500Y-91281200D01*
X105775500Y-92373400D01*
G37*
X105775500Y-92373400D02*
X105572300Y-92373400D01*
X105572300Y-91281200D01*
X105775500Y-91281200D01*
X105775500Y-92373400D01*
G36*
X104670600Y-91731520D02*
G01*
X104785392Y-91617485D01*
X104842205Y-91559790D01*
X104904481Y-91494535D01*
X104963421Y-91431026D01*
X104998117Y-91392442D01*
X105096050Y-91281434D01*
X105207806Y-91281317D01*
X105261195Y-91281774D01*
X105293365Y-91283828D01*
X105308485Y-91288294D01*
X105310722Y-91295987D01*
X105308470Y-91301019D01*
X105296853Y-91315454D01*
X105270167Y-91345379D01*
X105230985Y-91388012D01*
X105181880Y-91440570D01*
X105125427Y-91500273D01*
X105084428Y-91543245D01*
X104871478Y-91765651D01*
X104976151Y-91869205D01*
X105031478Y-91926414D01*
X105092222Y-91993135D01*
X105148742Y-92058642D01*
X105172219Y-92087354D01*
X105214251Y-92141251D01*
X105256309Y-92197261D01*
X105295527Y-92251323D01*
X105329042Y-92299381D01*
X105353991Y-92337374D01*
X105367509Y-92361245D01*
X105369100Y-92366353D01*
X105357358Y-92369493D01*
X105325959Y-92371913D01*
X105280645Y-92373249D01*
X105257735Y-92373400D01*
X105146370Y-92373400D01*
X105064060Y-92256311D01*
X105020687Y-92198827D01*
X104967258Y-92134429D01*
X104908187Y-92067842D01*
X104847891Y-92003793D01*
X104790786Y-91947008D01*
X104741288Y-91902215D01*
X104711875Y-91879374D01*
X104670600Y-91850970D01*
X104670600Y-92373400D01*
X104467210Y-92373400D01*
X104473750Y-90767550D01*
X104530900Y-90758143D01*
X104576919Y-90750429D01*
X104620271Y-90742948D01*
X104629325Y-90741342D01*
X104670600Y-90733950D01*
X104670600Y-91731520D01*
G37*
X104670600Y-91731520D02*
X104785392Y-91617485D01*
X104842205Y-91559790D01*
X104904481Y-91494535D01*
X104963421Y-91431026D01*
X104998117Y-91392442D01*
X105096050Y-91281434D01*
X105207806Y-91281317D01*
X105261195Y-91281774D01*
X105293365Y-91283828D01*
X105308485Y-91288294D01*
X105310722Y-91295987D01*
X105308470Y-91301019D01*
X105296853Y-91315454D01*
X105270167Y-91345379D01*
X105230985Y-91388012D01*
X105181880Y-91440570D01*
X105125427Y-91500273D01*
X105084428Y-91543245D01*
X104871478Y-91765651D01*
X104976151Y-91869205D01*
X105031478Y-91926414D01*
X105092222Y-91993135D01*
X105148742Y-92058642D01*
X105172219Y-92087354D01*
X105214251Y-92141251D01*
X105256309Y-92197261D01*
X105295527Y-92251323D01*
X105329042Y-92299381D01*
X105353991Y-92337374D01*
X105367509Y-92361245D01*
X105369100Y-92366353D01*
X105357358Y-92369493D01*
X105325959Y-92371913D01*
X105280645Y-92373249D01*
X105257735Y-92373400D01*
X105146370Y-92373400D01*
X105064060Y-92256311D01*
X105020687Y-92198827D01*
X104967258Y-92134429D01*
X104908187Y-92067842D01*
X104847891Y-92003793D01*
X104790786Y-91947008D01*
X104741288Y-91902215D01*
X104711875Y-91879374D01*
X104670600Y-91850970D01*
X104670600Y-92373400D01*
X104467210Y-92373400D01*
X104473750Y-90767550D01*
X104530900Y-90758143D01*
X104576919Y-90750429D01*
X104620271Y-90742948D01*
X104629325Y-90741342D01*
X104670600Y-90733950D01*
X104670600Y-91731520D01*
G36*
X103508238Y-91366924D02*
G01*
X103535457Y-91463424D01*
X103570793Y-91577593D01*
X103612332Y-91703767D01*
X103658159Y-91836281D01*
X103706360Y-91969468D01*
X103755021Y-92097664D01*
X103756068Y-92100350D01*
X103770935Y-92138450D01*
X103790419Y-92101527D01*
X103805444Y-92068332D01*
X103826503Y-92015245D01*
X103852078Y-91946626D01*
X103880650Y-91866832D01*
X103910703Y-91780223D01*
X103940718Y-91691159D01*
X103969176Y-91603999D01*
X103994560Y-91523102D01*
X104010853Y-91468525D01*
X104065147Y-91281200D01*
X104264683Y-91281200D01*
X104256341Y-91316125D01*
X104238657Y-91381223D01*
X104212525Y-91465351D01*
X104179529Y-91564206D01*
X104141253Y-91673482D01*
X104099278Y-91788873D01*
X104055188Y-91906076D01*
X104010567Y-92020784D01*
X103966996Y-92128693D01*
X103926059Y-92225499D01*
X103902373Y-92278760D01*
X103859245Y-92373400D01*
X103769792Y-92373400D01*
X103722958Y-92372928D01*
X103694875Y-92369811D01*
X103678894Y-92361493D01*
X103668367Y-92345419D01*
X103662396Y-92332125D01*
X103589141Y-92161726D01*
X103526112Y-92010811D01*
X103472084Y-91876192D01*
X103425831Y-91754679D01*
X103386128Y-91643084D01*
X103351750Y-91538220D01*
X103331097Y-91470179D01*
X103313274Y-91409680D01*
X103297786Y-91357378D01*
X103286170Y-91318450D01*
X103279965Y-91298068D01*
X103279643Y-91297075D01*
X103283844Y-91288851D01*
X103305186Y-91283831D01*
X103346873Y-91281510D01*
X103380063Y-91281200D01*
X103485730Y-91281199D01*
X103508238Y-91366924D01*
G37*
X103508238Y-91366924D02*
X103535457Y-91463424D01*
X103570793Y-91577593D01*
X103612332Y-91703767D01*
X103658159Y-91836281D01*
X103706360Y-91969468D01*
X103755021Y-92097664D01*
X103756068Y-92100350D01*
X103770935Y-92138450D01*
X103790419Y-92101527D01*
X103805444Y-92068332D01*
X103826503Y-92015245D01*
X103852078Y-91946626D01*
X103880650Y-91866832D01*
X103910703Y-91780223D01*
X103940718Y-91691159D01*
X103969176Y-91603999D01*
X103994560Y-91523102D01*
X104010853Y-91468525D01*
X104065147Y-91281200D01*
X104264683Y-91281200D01*
X104256341Y-91316125D01*
X104238657Y-91381223D01*
X104212525Y-91465351D01*
X104179529Y-91564206D01*
X104141253Y-91673482D01*
X104099278Y-91788873D01*
X104055188Y-91906076D01*
X104010567Y-92020784D01*
X103966996Y-92128693D01*
X103926059Y-92225499D01*
X103902373Y-92278760D01*
X103859245Y-92373400D01*
X103769792Y-92373400D01*
X103722958Y-92372928D01*
X103694875Y-92369811D01*
X103678894Y-92361493D01*
X103668367Y-92345419D01*
X103662396Y-92332125D01*
X103589141Y-92161726D01*
X103526112Y-92010811D01*
X103472084Y-91876192D01*
X103425831Y-91754679D01*
X103386128Y-91643084D01*
X103351750Y-91538220D01*
X103331097Y-91470179D01*
X103313274Y-91409680D01*
X103297786Y-91357378D01*
X103286170Y-91318450D01*
X103279965Y-91298068D01*
X103279643Y-91297075D01*
X103283844Y-91288851D01*
X103305186Y-91283831D01*
X103346873Y-91281510D01*
X103380063Y-91281200D01*
X103485730Y-91281199D01*
X103508238Y-91366924D01*
G36*
X99478275Y-91257924D02*
G01*
X99566671Y-91265427D01*
X99639217Y-91279846D01*
X99673150Y-91291938D01*
X99752640Y-91339319D01*
X99814427Y-91402584D01*
X99859628Y-91483352D01*
X99889363Y-91583240D01*
X99894649Y-91612232D01*
X99898255Y-91647255D01*
X99901495Y-91703249D01*
X99904230Y-91775785D01*
X99906318Y-91860436D01*
X99907620Y-91952772D01*
X99908004Y-92033675D01*
X99908100Y-92373400D01*
X99704900Y-92373400D01*
X99704900Y-92024775D01*
X99704547Y-91903030D01*
X99703217Y-91803801D01*
X99700504Y-91724210D01*
X99696001Y-91661380D01*
X99689303Y-91612432D01*
X99680001Y-91574490D01*
X99667691Y-91544675D01*
X99651964Y-91520109D01*
X99632416Y-91497916D01*
X99630159Y-91495640D01*
X99583511Y-91460176D01*
X99525495Y-91437347D01*
X99453250Y-91426743D01*
X99363912Y-91427952D01*
X99254621Y-91440561D01*
X99250875Y-91441131D01*
X99209600Y-91447450D01*
X99209600Y-92373400D01*
X99019100Y-92373400D01*
X99019100Y-91309615D01*
X99073075Y-91296301D01*
X99171432Y-91276526D01*
X99275313Y-91263513D01*
X99379375Y-91257299D01*
X99478275Y-91257924D01*
G37*
X99478275Y-91257924D02*
X99566671Y-91265427D01*
X99639217Y-91279846D01*
X99673150Y-91291938D01*
X99752640Y-91339319D01*
X99814427Y-91402584D01*
X99859628Y-91483352D01*
X99889363Y-91583240D01*
X99894649Y-91612232D01*
X99898255Y-91647255D01*
X99901495Y-91703249D01*
X99904230Y-91775785D01*
X99906318Y-91860436D01*
X99907620Y-91952772D01*
X99908004Y-92033675D01*
X99908100Y-92373400D01*
X99704900Y-92373400D01*
X99704900Y-92024775D01*
X99704547Y-91903030D01*
X99703217Y-91803801D01*
X99700504Y-91724210D01*
X99696001Y-91661380D01*
X99689303Y-91612432D01*
X99680001Y-91574490D01*
X99667691Y-91544675D01*
X99651964Y-91520109D01*
X99632416Y-91497916D01*
X99630159Y-91495640D01*
X99583511Y-91460176D01*
X99525495Y-91437347D01*
X99453250Y-91426743D01*
X99363912Y-91427952D01*
X99254621Y-91440561D01*
X99250875Y-91441131D01*
X99209600Y-91447450D01*
X99209600Y-92373400D01*
X99019100Y-92373400D01*
X99019100Y-91309615D01*
X99073075Y-91296301D01*
X99171432Y-91276526D01*
X99275313Y-91263513D01*
X99379375Y-91257299D01*
X99478275Y-91257924D01*
G36*
X97383199Y-91263276D02*
G01*
X97444282Y-91265311D01*
X97493619Y-91268453D01*
X97523675Y-91272250D01*
X97550965Y-91279976D01*
X97566127Y-91292354D01*
X97570686Y-91314724D01*
X97566167Y-91352430D01*
X97558034Y-91392606D01*
X97544768Y-91454462D01*
X97465959Y-91437945D01*
X97390054Y-91425089D01*
X97324746Y-91422237D01*
X97257345Y-91429256D01*
X97224168Y-91435353D01*
X97152200Y-91449806D01*
X97152200Y-92373400D01*
X96949000Y-92373400D01*
X96949000Y-91322082D01*
X97053775Y-91292637D01*
X97110435Y-91278532D01*
X97165398Y-91269498D01*
X97227264Y-91264558D01*
X97304636Y-91262734D01*
X97317300Y-91262671D01*
X97383199Y-91263276D01*
G37*
X97383199Y-91263276D02*
X97444282Y-91265311D01*
X97493619Y-91268453D01*
X97523675Y-91272250D01*
X97550965Y-91279976D01*
X97566127Y-91292354D01*
X97570686Y-91314724D01*
X97566167Y-91352430D01*
X97558034Y-91392606D01*
X97544768Y-91454462D01*
X97465959Y-91437945D01*
X97390054Y-91425089D01*
X97324746Y-91422237D01*
X97257345Y-91429256D01*
X97224168Y-91435353D01*
X97152200Y-91449806D01*
X97152200Y-92373400D01*
X96949000Y-92373400D01*
X96949000Y-91322082D01*
X97053775Y-91292637D01*
X97110435Y-91278532D01*
X97165398Y-91269498D01*
X97227264Y-91264558D01*
X97304636Y-91262734D01*
X97317300Y-91262671D01*
X97383199Y-91263276D01*
G36*
X96606100Y-92373400D02*
G01*
X96390200Y-92373400D01*
X96390200Y-90912900D01*
X96606100Y-90912900D01*
X96606100Y-92373400D01*
G37*
X96606100Y-92373400D02*
X96390200Y-92373400D01*
X96390200Y-90912900D01*
X96606100Y-90912900D01*
X96606100Y-92373400D01*
G36*
X95477838Y-91259885D02*
G01*
X95556513Y-91270309D01*
X95598317Y-91280362D01*
X95619212Y-91290479D01*
X95623590Y-91302963D01*
X95623079Y-91305234D01*
X95616917Y-91331435D01*
X95609650Y-91367418D01*
X95609150Y-91370100D01*
X95600493Y-91415423D01*
X95591756Y-91440345D01*
X95577079Y-91449197D01*
X95550604Y-91446311D01*
X95516770Y-91438410D01*
X95452932Y-91425990D01*
X95395725Y-91421973D01*
X95334030Y-91426197D01*
X95276815Y-91434903D01*
X95196400Y-91448907D01*
X95196400Y-92373400D01*
X95005900Y-92373400D01*
X95005900Y-91321269D01*
X95047660Y-91307487D01*
X95146831Y-91281803D01*
X95257536Y-91264873D01*
X95370847Y-91257350D01*
X95477838Y-91259885D01*
G37*
X95477838Y-91259885D02*
X95556513Y-91270309D01*
X95598317Y-91280362D01*
X95619212Y-91290479D01*
X95623590Y-91302963D01*
X95623079Y-91305234D01*
X95616917Y-91331435D01*
X95609650Y-91367418D01*
X95609150Y-91370100D01*
X95600493Y-91415423D01*
X95591756Y-91440345D01*
X95577079Y-91449197D01*
X95550604Y-91446311D01*
X95516770Y-91438410D01*
X95452932Y-91425990D01*
X95395725Y-91421973D01*
X95334030Y-91426197D01*
X95276815Y-91434903D01*
X95196400Y-91448907D01*
X95196400Y-92373400D01*
X95005900Y-92373400D01*
X95005900Y-91321269D01*
X95047660Y-91307487D01*
X95146831Y-91281803D01*
X95257536Y-91264873D01*
X95370847Y-91257350D01*
X95477838Y-91259885D01*
G36*
X101193442Y-90907191D02*
G01*
X101264562Y-90909360D01*
X101320212Y-90913425D01*
X101365342Y-90919754D01*
X101404906Y-90928714D01*
X101406700Y-90929203D01*
X101539661Y-90976968D01*
X101654584Y-91042068D01*
X101750898Y-91123938D01*
X101828035Y-91222015D01*
X101885427Y-91335736D01*
X101915804Y-91433600D01*
X101926014Y-91498256D01*
X101931228Y-91578931D01*
X101931560Y-91666760D01*
X101927124Y-91752881D01*
X101918032Y-91828431D01*
X101910286Y-91865400D01*
X101865606Y-91991333D01*
X101802149Y-92100206D01*
X101720103Y-92191854D01*
X101619656Y-92266113D01*
X101500995Y-92322820D01*
X101364309Y-92361810D01*
X101335468Y-92367354D01*
X101258900Y-92376924D01*
X101165389Y-92382276D01*
X101063051Y-92383334D01*
X100960005Y-92380021D01*
X100864367Y-92372261D01*
X100860600Y-92371833D01*
X100812401Y-92365751D01*
X100773262Y-92359841D01*
X100750785Y-92355268D01*
X100749475Y-92354829D01*
X100745922Y-92348347D01*
X100742903Y-92330726D01*
X100740381Y-92300333D01*
X100738320Y-92255538D01*
X100736684Y-92194709D01*
X100735436Y-92116216D01*
X100734540Y-92018428D01*
X100733961Y-91899712D01*
X100733662Y-91758439D01*
X100733600Y-91638112D01*
X100733600Y-91078000D01*
X100936800Y-91078000D01*
X100936800Y-91634683D01*
X100937010Y-91751276D01*
X100937613Y-91860025D01*
X100938564Y-91958300D01*
X100939819Y-92043471D01*
X100941333Y-92112911D01*
X100943062Y-92163990D01*
X100944962Y-92194079D01*
X100946325Y-92201203D01*
X100961883Y-92204382D01*
X100997843Y-92206206D01*
X101049238Y-92206574D01*
X101111099Y-92205388D01*
X101127300Y-92204848D01*
X101215796Y-92200269D01*
X101285376Y-92193205D01*
X101342471Y-92182813D01*
X101384716Y-92171142D01*
X101481219Y-92127410D01*
X101563811Y-92063631D01*
X101630263Y-91982312D01*
X101678344Y-91885962D01*
X101698220Y-91818579D01*
X101707865Y-91754440D01*
X101712669Y-91676458D01*
X101712593Y-91594717D01*
X101707601Y-91519297D01*
X101699542Y-91468041D01*
X101665378Y-91366097D01*
X101612999Y-91275819D01*
X101545291Y-91201259D01*
X101473762Y-91151014D01*
X101407841Y-91120155D01*
X101338083Y-91098614D01*
X101258613Y-91085247D01*
X101163554Y-91078908D01*
X101099231Y-91078000D01*
X100936800Y-91078000D01*
X100733600Y-91078000D01*
X100733600Y-90927427D01*
X100806625Y-90916988D01*
X100844062Y-90913487D01*
X100900848Y-90910485D01*
X100970933Y-90908196D01*
X101048267Y-90906836D01*
X101101900Y-90906550D01*
X101193442Y-90907191D01*
G37*
X101193442Y-90907191D02*
X101264562Y-90909360D01*
X101320212Y-90913425D01*
X101365342Y-90919754D01*
X101404906Y-90928714D01*
X101406700Y-90929203D01*
X101539661Y-90976968D01*
X101654584Y-91042068D01*
X101750898Y-91123938D01*
X101828035Y-91222015D01*
X101885427Y-91335736D01*
X101915804Y-91433600D01*
X101926014Y-91498256D01*
X101931228Y-91578931D01*
X101931560Y-91666760D01*
X101927124Y-91752881D01*
X101918032Y-91828431D01*
X101910286Y-91865400D01*
X101865606Y-91991333D01*
X101802149Y-92100206D01*
X101720103Y-92191854D01*
X101619656Y-92266113D01*
X101500995Y-92322820D01*
X101364309Y-92361810D01*
X101335468Y-92367354D01*
X101258900Y-92376924D01*
X101165389Y-92382276D01*
X101063051Y-92383334D01*
X100960005Y-92380021D01*
X100864367Y-92372261D01*
X100860600Y-92371833D01*
X100812401Y-92365751D01*
X100773262Y-92359841D01*
X100750785Y-92355268D01*
X100749475Y-92354829D01*
X100745922Y-92348347D01*
X100742903Y-92330726D01*
X100740381Y-92300333D01*
X100738320Y-92255538D01*
X100736684Y-92194709D01*
X100735436Y-92116216D01*
X100734540Y-92018428D01*
X100733961Y-91899712D01*
X100733662Y-91758439D01*
X100733600Y-91638112D01*
X100733600Y-91078000D01*
X100936800Y-91078000D01*
X100936800Y-91634683D01*
X100937010Y-91751276D01*
X100937613Y-91860025D01*
X100938564Y-91958300D01*
X100939819Y-92043471D01*
X100941333Y-92112911D01*
X100943062Y-92163990D01*
X100944962Y-92194079D01*
X100946325Y-92201203D01*
X100961883Y-92204382D01*
X100997843Y-92206206D01*
X101049238Y-92206574D01*
X101111099Y-92205388D01*
X101127300Y-92204848D01*
X101215796Y-92200269D01*
X101285376Y-92193205D01*
X101342471Y-92182813D01*
X101384716Y-92171142D01*
X101481219Y-92127410D01*
X101563811Y-92063631D01*
X101630263Y-91982312D01*
X101678344Y-91885962D01*
X101698220Y-91818579D01*
X101707865Y-91754440D01*
X101712669Y-91676458D01*
X101712593Y-91594717D01*
X101707601Y-91519297D01*
X101699542Y-91468041D01*
X101665378Y-91366097D01*
X101612999Y-91275819D01*
X101545291Y-91201259D01*
X101473762Y-91151014D01*
X101407841Y-91120155D01*
X101338083Y-91098614D01*
X101258613Y-91085247D01*
X101163554Y-91078908D01*
X101099231Y-91078000D01*
X100936800Y-91078000D01*
X100733600Y-91078000D01*
X100733600Y-90927427D01*
X100806625Y-90916988D01*
X100844062Y-90913487D01*
X100900848Y-90910485D01*
X100970933Y-90908196D01*
X101048267Y-90906836D01*
X101101900Y-90906550D01*
X101193442Y-90907191D01*
G36*
X106296200Y-91281200D02*
G01*
X106716512Y-91281200D01*
X106708950Y-91439950D01*
X106501784Y-91443443D01*
X106294619Y-91446936D01*
X106298584Y-91767293D01*
X106300335Y-91878411D01*
X106302949Y-91967057D01*
X106307051Y-92036155D01*
X106313268Y-92088631D01*
X106322221Y-92127413D01*
X106334538Y-92155424D01*
X106350842Y-92175592D01*
X106371758Y-92190842D01*
X106391175Y-92200968D01*
X106440200Y-92214976D01*
X106503481Y-92220273D01*
X106571417Y-92216858D01*
X106634403Y-92204728D01*
X106646210Y-92201037D01*
X106681381Y-92190579D01*
X106705427Y-92186195D01*
X106710957Y-92187023D01*
X106717259Y-92201661D01*
X106727199Y-92233071D01*
X106734988Y-92260961D01*
X106743860Y-92300106D01*
X106743351Y-92327076D01*
X106729895Y-92345723D01*
X106699923Y-92359897D01*
X106649868Y-92373450D01*
X106625565Y-92379073D01*
X106496181Y-92396238D01*
X106369120Y-92388764D01*
X106347000Y-92384850D01*
X106269055Y-92357701D01*
X106205365Y-92309780D01*
X106156299Y-92241580D01*
X106122225Y-92153597D01*
X106104851Y-92059463D01*
X106102126Y-92021163D01*
X106099793Y-91961106D01*
X106097906Y-91882933D01*
X106096520Y-91790284D01*
X106095689Y-91686801D01*
X106095467Y-91576124D01*
X106095907Y-91461893D01*
X106095924Y-91459517D01*
X106099350Y-90971085D01*
X106143593Y-90962039D01*
X106186321Y-90954041D01*
X106234300Y-90946048D01*
X106242018Y-90944868D01*
X106296200Y-90936743D01*
X106296200Y-91281200D01*
G37*
X106296200Y-91281200D02*
X106716512Y-91281200D01*
X106708950Y-91439950D01*
X106501784Y-91443443D01*
X106294619Y-91446936D01*
X106298584Y-91767293D01*
X106300335Y-91878411D01*
X106302949Y-91967057D01*
X106307051Y-92036155D01*
X106313268Y-92088631D01*
X106322221Y-92127413D01*
X106334538Y-92155424D01*
X106350842Y-92175592D01*
X106371758Y-92190842D01*
X106391175Y-92200968D01*
X106440200Y-92214976D01*
X106503481Y-92220273D01*
X106571417Y-92216858D01*
X106634403Y-92204728D01*
X106646210Y-92201037D01*
X106681381Y-92190579D01*
X106705427Y-92186195D01*
X106710957Y-92187023D01*
X106717259Y-92201661D01*
X106727199Y-92233071D01*
X106734988Y-92260961D01*
X106743860Y-92300106D01*
X106743351Y-92327076D01*
X106729895Y-92345723D01*
X106699923Y-92359897D01*
X106649868Y-92373450D01*
X106625565Y-92379073D01*
X106496181Y-92396238D01*
X106369120Y-92388764D01*
X106347000Y-92384850D01*
X106269055Y-92357701D01*
X106205365Y-92309780D01*
X106156299Y-92241580D01*
X106122225Y-92153597D01*
X106104851Y-92059463D01*
X106102126Y-92021163D01*
X106099793Y-91961106D01*
X106097906Y-91882933D01*
X106096520Y-91790284D01*
X106095689Y-91686801D01*
X106095467Y-91576124D01*
X106095907Y-91461893D01*
X106095924Y-91459517D01*
X106099350Y-90971085D01*
X106143593Y-90962039D01*
X106186321Y-90954041D01*
X106234300Y-90946048D01*
X106242018Y-90944868D01*
X106296200Y-90936743D01*
X106296200Y-91281200D01*
G36*
X102778624Y-91262810D02*
G01*
X102875997Y-91292590D01*
X102957713Y-91342053D01*
X103023367Y-91410736D01*
X103072554Y-91498176D01*
X103104869Y-91603911D01*
X103119907Y-91727476D01*
X103121012Y-91773325D01*
X103121200Y-91878100D01*
X102369667Y-91878100D01*
X102378396Y-91932075D01*
X102394081Y-91994738D01*
X102419030Y-92057467D01*
X102448842Y-92110154D01*
X102464595Y-92130002D01*
X102505310Y-92166026D01*
X102552620Y-92191247D01*
X102611864Y-92207450D01*
X102688378Y-92216423D01*
X102729124Y-92218550D01*
X102806671Y-92219805D01*
X102866849Y-92216390D01*
X102917358Y-92207711D01*
X102937192Y-92202454D01*
X102977619Y-92192749D01*
X103008105Y-92189196D01*
X103020210Y-92191578D01*
X103027113Y-92209107D01*
X103034425Y-92243324D01*
X103038778Y-92272961D01*
X103047423Y-92343972D01*
X102966836Y-92367003D01*
X102897432Y-92381520D01*
X102814306Y-92390806D01*
X102726169Y-92394597D01*
X102641729Y-92392631D01*
X102569696Y-92384642D01*
X102546415Y-92379729D01*
X102476368Y-92358561D01*
X102420206Y-92331873D01*
X102367228Y-92293786D01*
X102330487Y-92261122D01*
X102261517Y-92181100D01*
X102212127Y-92087784D01*
X102181897Y-91979902D01*
X102170410Y-91856180D01*
X102172042Y-91778903D01*
X102183613Y-91693406D01*
X102379349Y-91693406D01*
X102380294Y-91715751D01*
X102380526Y-91716175D01*
X102394322Y-91719013D01*
X102429698Y-91721515D01*
X102482833Y-91723546D01*
X102549907Y-91724971D01*
X102627102Y-91725658D01*
X102652049Y-91725700D01*
X102918000Y-91725700D01*
X102918000Y-91683145D01*
X102906619Y-91609739D01*
X102875367Y-91538962D01*
X102828579Y-91478647D01*
X102786353Y-91445266D01*
X102741350Y-91427621D01*
X102679735Y-91421054D01*
X102669172Y-91420947D01*
X102584325Y-91431901D01*
X102512085Y-91464504D01*
X102453581Y-91518201D01*
X102443212Y-91532013D01*
X102422189Y-91568210D01*
X102402842Y-91612159D01*
X102387713Y-91656384D01*
X102379349Y-91693406D01*
X102183613Y-91693406D01*
X102189164Y-91652398D01*
X102224656Y-91541005D01*
X102277354Y-91445959D01*
X102346096Y-91368500D01*
X102429717Y-91309864D01*
X102527056Y-91271292D01*
X102636949Y-91254019D01*
X102665998Y-91253175D01*
X102778624Y-91262810D01*
G37*
X102778624Y-91262810D02*
X102875997Y-91292590D01*
X102957713Y-91342053D01*
X103023367Y-91410736D01*
X103072554Y-91498176D01*
X103104869Y-91603911D01*
X103119907Y-91727476D01*
X103121012Y-91773325D01*
X103121200Y-91878100D01*
X102369667Y-91878100D01*
X102378396Y-91932075D01*
X102394081Y-91994738D01*
X102419030Y-92057467D01*
X102448842Y-92110154D01*
X102464595Y-92130002D01*
X102505310Y-92166026D01*
X102552620Y-92191247D01*
X102611864Y-92207450D01*
X102688378Y-92216423D01*
X102729124Y-92218550D01*
X102806671Y-92219805D01*
X102866849Y-92216390D01*
X102917358Y-92207711D01*
X102937192Y-92202454D01*
X102977619Y-92192749D01*
X103008105Y-92189196D01*
X103020210Y-92191578D01*
X103027113Y-92209107D01*
X103034425Y-92243324D01*
X103038778Y-92272961D01*
X103047423Y-92343972D01*
X102966836Y-92367003D01*
X102897432Y-92381520D01*
X102814306Y-92390806D01*
X102726169Y-92394597D01*
X102641729Y-92392631D01*
X102569696Y-92384642D01*
X102546415Y-92379729D01*
X102476368Y-92358561D01*
X102420206Y-92331873D01*
X102367228Y-92293786D01*
X102330487Y-92261122D01*
X102261517Y-92181100D01*
X102212127Y-92087784D01*
X102181897Y-91979902D01*
X102170410Y-91856180D01*
X102172042Y-91778903D01*
X102183613Y-91693406D01*
X102379349Y-91693406D01*
X102380294Y-91715751D01*
X102380526Y-91716175D01*
X102394322Y-91719013D01*
X102429698Y-91721515D01*
X102482833Y-91723546D01*
X102549907Y-91724971D01*
X102627102Y-91725658D01*
X102652049Y-91725700D01*
X102918000Y-91725700D01*
X102918000Y-91683145D01*
X102906619Y-91609739D01*
X102875367Y-91538962D01*
X102828579Y-91478647D01*
X102786353Y-91445266D01*
X102741350Y-91427621D01*
X102679735Y-91421054D01*
X102669172Y-91420947D01*
X102584325Y-91431901D01*
X102512085Y-91464504D01*
X102453581Y-91518201D01*
X102443212Y-91532013D01*
X102422189Y-91568210D01*
X102402842Y-91612159D01*
X102387713Y-91656384D01*
X102379349Y-91693406D01*
X102183613Y-91693406D01*
X102189164Y-91652398D01*
X102224656Y-91541005D01*
X102277354Y-91445959D01*
X102346096Y-91368500D01*
X102429717Y-91309864D01*
X102527056Y-91271292D01*
X102636949Y-91254019D01*
X102665998Y-91253175D01*
X102778624Y-91262810D01*
G36*
X98339943Y-91264215D02*
G01*
X98438634Y-91297459D01*
X98529266Y-91351325D01*
X98591550Y-91407269D01*
X98654776Y-91492268D01*
X98700468Y-91590429D01*
X98728764Y-91697541D01*
X98739804Y-91809397D01*
X98733728Y-91921790D01*
X98710675Y-92030510D01*
X98670784Y-92131350D01*
X98614194Y-92220101D01*
X98562825Y-92274477D01*
X98489083Y-92330530D01*
X98412706Y-92367343D01*
X98326404Y-92387713D01*
X98251856Y-92393848D01*
X98193706Y-92394329D01*
X98139385Y-92392131D01*
X98098086Y-92387710D01*
X98088627Y-92385777D01*
X97992696Y-92349200D01*
X97909022Y-92292676D01*
X97838647Y-92219046D01*
X97782612Y-92131154D01*
X97741956Y-92031839D01*
X97717723Y-91923945D01*
X97711207Y-91814600D01*
X97921146Y-91814600D01*
X97924851Y-91915188D01*
X97937693Y-91996115D01*
X97961401Y-92062018D01*
X97997704Y-92117532D01*
X98048331Y-92167292D01*
X98054634Y-92172441D01*
X98116458Y-92206986D01*
X98190144Y-92224147D01*
X98268458Y-92223294D01*
X98344171Y-92203796D01*
X98355944Y-92198729D01*
X98404404Y-92165708D01*
X98450967Y-92115069D01*
X98489568Y-92054249D01*
X98507497Y-92012838D01*
X98522865Y-91948207D01*
X98530558Y-91870271D01*
X98530738Y-91787443D01*
X98523572Y-91708137D01*
X98509223Y-91640765D01*
X98499713Y-91614866D01*
X98453549Y-91538199D01*
X98392994Y-91479432D01*
X98321379Y-91440609D01*
X98242033Y-91423777D01*
X98191107Y-91425201D01*
X98111677Y-91444981D01*
X98045497Y-91484816D01*
X97990747Y-91546134D01*
X97954056Y-91611400D01*
X97938794Y-91647389D01*
X97929106Y-91681254D01*
X97923759Y-91720617D01*
X97921516Y-91773103D01*
X97921146Y-91814600D01*
X97711207Y-91814600D01*
X97710951Y-91810313D01*
X97722682Y-91693785D01*
X97753956Y-91577203D01*
X97774060Y-91526886D01*
X97795842Y-91488551D01*
X97828365Y-91443407D01*
X97859120Y-91407300D01*
X97940886Y-91337442D01*
X98033665Y-91288205D01*
X98133645Y-91259588D01*
X98237009Y-91251591D01*
X98339943Y-91264215D01*
G37*
X98339943Y-91264215D02*
X98438634Y-91297459D01*
X98529266Y-91351325D01*
X98591550Y-91407269D01*
X98654776Y-91492268D01*
X98700468Y-91590429D01*
X98728764Y-91697541D01*
X98739804Y-91809397D01*
X98733728Y-91921790D01*
X98710675Y-92030510D01*
X98670784Y-92131350D01*
X98614194Y-92220101D01*
X98562825Y-92274477D01*
X98489083Y-92330530D01*
X98412706Y-92367343D01*
X98326404Y-92387713D01*
X98251856Y-92393848D01*
X98193706Y-92394329D01*
X98139385Y-92392131D01*
X98098086Y-92387710D01*
X98088627Y-92385777D01*
X97992696Y-92349200D01*
X97909022Y-92292676D01*
X97838647Y-92219046D01*
X97782612Y-92131154D01*
X97741956Y-92031839D01*
X97717723Y-91923945D01*
X97711207Y-91814600D01*
X97921146Y-91814600D01*
X97924851Y-91915188D01*
X97937693Y-91996115D01*
X97961401Y-92062018D01*
X97997704Y-92117532D01*
X98048331Y-92167292D01*
X98054634Y-92172441D01*
X98116458Y-92206986D01*
X98190144Y-92224147D01*
X98268458Y-92223294D01*
X98344171Y-92203796D01*
X98355944Y-92198729D01*
X98404404Y-92165708D01*
X98450967Y-92115069D01*
X98489568Y-92054249D01*
X98507497Y-92012838D01*
X98522865Y-91948207D01*
X98530558Y-91870271D01*
X98530738Y-91787443D01*
X98523572Y-91708137D01*
X98509223Y-91640765D01*
X98499713Y-91614866D01*
X98453549Y-91538199D01*
X98392994Y-91479432D01*
X98321379Y-91440609D01*
X98242033Y-91423777D01*
X98191107Y-91425201D01*
X98111677Y-91444981D01*
X98045497Y-91484816D01*
X97990747Y-91546134D01*
X97954056Y-91611400D01*
X97938794Y-91647389D01*
X97929106Y-91681254D01*
X97923759Y-91720617D01*
X97921516Y-91773103D01*
X97921146Y-91814600D01*
X97711207Y-91814600D01*
X97710951Y-91810313D01*
X97722682Y-91693785D01*
X97753956Y-91577203D01*
X97774060Y-91526886D01*
X97795842Y-91488551D01*
X97828365Y-91443407D01*
X97859120Y-91407300D01*
X97940886Y-91337442D01*
X98033665Y-91288205D01*
X98133645Y-91259588D01*
X98237009Y-91251591D01*
X98339943Y-91264215D01*
G36*
X94398877Y-91268317D02*
G01*
X94488443Y-91302932D01*
X94566019Y-91356392D01*
X94572059Y-91361944D01*
X94625107Y-91427688D01*
X94667008Y-91512683D01*
X94696333Y-91612711D01*
X94711652Y-91723554D01*
X94713612Y-91779675D01*
X94713800Y-91878100D01*
X93961615Y-91878100D01*
X93970581Y-91937884D01*
X93994545Y-92026698D01*
X94036437Y-92101693D01*
X94093906Y-92160080D01*
X94164599Y-92199076D01*
X94199916Y-92209514D01*
X94252029Y-92216712D01*
X94317733Y-92219418D01*
X94389318Y-92218000D01*
X94459074Y-92212826D01*
X94519289Y-92204263D01*
X94562254Y-92192680D01*
X94563476Y-92192171D01*
X94587724Y-92182379D01*
X94603477Y-92180605D01*
X94613571Y-92190749D01*
X94620843Y-92216711D01*
X94628127Y-92262389D01*
X94631481Y-92285680D01*
X94639885Y-92344011D01*
X94559367Y-92367022D01*
X94501025Y-92379196D01*
X94427266Y-92388120D01*
X94346513Y-92393407D01*
X94267187Y-92394666D01*
X94197712Y-92391508D01*
X94155575Y-92385686D01*
X94051430Y-92351432D01*
X93959457Y-92296126D01*
X93882199Y-92222218D01*
X93822199Y-92132159D01*
X93782000Y-92028401D01*
X93781010Y-92024656D01*
X93769587Y-91960709D01*
X93763318Y-91882432D01*
X93762253Y-91799069D01*
X93766442Y-91719862D01*
X93768349Y-91706635D01*
X93970595Y-91706635D01*
X93971818Y-91714567D01*
X93986013Y-91717876D01*
X94021776Y-91720794D01*
X94075276Y-91723165D01*
X94142682Y-91724834D01*
X94220164Y-91725646D01*
X94246418Y-91725700D01*
X94514137Y-91725700D01*
X94506720Y-91663068D01*
X94487833Y-91584030D01*
X94452891Y-91516101D01*
X94404955Y-91463872D01*
X94354198Y-91434445D01*
X94321164Y-91426792D01*
X94275316Y-91421881D01*
X94245559Y-91420900D01*
X94166071Y-91432381D01*
X94097825Y-91466261D01*
X94041831Y-91521688D01*
X93999099Y-91597812D01*
X93983567Y-91641542D01*
X93974134Y-91679070D01*
X93970595Y-91706635D01*
X93768349Y-91706635D01*
X93775933Y-91654056D01*
X93778954Y-91641478D01*
X93805024Y-91567205D01*
X93842143Y-91492238D01*
X93885431Y-91425196D01*
X93929944Y-91374758D01*
X94011427Y-91316503D01*
X94103597Y-91276641D01*
X94201919Y-91255262D01*
X94301858Y-91252457D01*
X94398877Y-91268317D01*
G37*
X94398877Y-91268317D02*
X94488443Y-91302932D01*
X94566019Y-91356392D01*
X94572059Y-91361944D01*
X94625107Y-91427688D01*
X94667008Y-91512683D01*
X94696333Y-91612711D01*
X94711652Y-91723554D01*
X94713612Y-91779675D01*
X94713800Y-91878100D01*
X93961615Y-91878100D01*
X93970581Y-91937884D01*
X93994545Y-92026698D01*
X94036437Y-92101693D01*
X94093906Y-92160080D01*
X94164599Y-92199076D01*
X94199916Y-92209514D01*
X94252029Y-92216712D01*
X94317733Y-92219418D01*
X94389318Y-92218000D01*
X94459074Y-92212826D01*
X94519289Y-92204263D01*
X94562254Y-92192680D01*
X94563476Y-92192171D01*
X94587724Y-92182379D01*
X94603477Y-92180605D01*
X94613571Y-92190749D01*
X94620843Y-92216711D01*
X94628127Y-92262389D01*
X94631481Y-92285680D01*
X94639885Y-92344011D01*
X94559367Y-92367022D01*
X94501025Y-92379196D01*
X94427266Y-92388120D01*
X94346513Y-92393407D01*
X94267187Y-92394666D01*
X94197712Y-92391508D01*
X94155575Y-92385686D01*
X94051430Y-92351432D01*
X93959457Y-92296126D01*
X93882199Y-92222218D01*
X93822199Y-92132159D01*
X93782000Y-92028401D01*
X93781010Y-92024656D01*
X93769587Y-91960709D01*
X93763318Y-91882432D01*
X93762253Y-91799069D01*
X93766442Y-91719862D01*
X93768349Y-91706635D01*
X93970595Y-91706635D01*
X93971818Y-91714567D01*
X93986013Y-91717876D01*
X94021776Y-91720794D01*
X94075276Y-91723165D01*
X94142682Y-91724834D01*
X94220164Y-91725646D01*
X94246418Y-91725700D01*
X94514137Y-91725700D01*
X94506720Y-91663068D01*
X94487833Y-91584030D01*
X94452891Y-91516101D01*
X94404955Y-91463872D01*
X94354198Y-91434445D01*
X94321164Y-91426792D01*
X94275316Y-91421881D01*
X94245559Y-91420900D01*
X94166071Y-91432381D01*
X94097825Y-91466261D01*
X94041831Y-91521688D01*
X93999099Y-91597812D01*
X93983567Y-91641542D01*
X93974134Y-91679070D01*
X93970595Y-91706635D01*
X93768349Y-91706635D01*
X93775933Y-91654056D01*
X93778954Y-91641478D01*
X93805024Y-91567205D01*
X93842143Y-91492238D01*
X93885431Y-91425196D01*
X93929944Y-91374758D01*
X94011427Y-91316503D01*
X94103597Y-91276641D01*
X94201919Y-91255262D01*
X94301858Y-91252457D01*
X94398877Y-91268317D01*
G36*
X93177100Y-91281200D02*
G01*
X93583500Y-91281200D01*
X93583500Y-91446300D01*
X93177100Y-91446300D01*
X93177378Y-91760625D01*
X93177637Y-91859959D01*
X93178369Y-91937372D01*
X93179804Y-91996343D01*
X93182175Y-92040348D01*
X93185713Y-92072867D01*
X93190647Y-92097378D01*
X93197209Y-92117357D01*
X93201780Y-92128082D01*
X93229345Y-92171469D01*
X93263301Y-92200542D01*
X93264371Y-92201107D01*
X93307295Y-92214222D01*
X93365330Y-92220159D01*
X93429212Y-92218888D01*
X93489679Y-92210378D01*
X93520000Y-92201950D01*
X93554631Y-92190422D01*
X93578760Y-92183650D01*
X93583533Y-92182900D01*
X93591346Y-92194179D01*
X93602199Y-92223564D01*
X93612338Y-92259375D01*
X93621759Y-92298471D01*
X93623954Y-92324695D01*
X93615268Y-92342148D01*
X93592042Y-92354936D01*
X93550620Y-92367162D01*
X93506488Y-92378166D01*
X93389051Y-92395660D01*
X93270676Y-92391780D01*
X93232045Y-92385536D01*
X93148613Y-92357367D01*
X93080591Y-92309042D01*
X93028354Y-92240842D01*
X93020350Y-92225869D01*
X93009524Y-92200674D01*
X93000461Y-92170210D01*
X92993016Y-92132188D01*
X92987044Y-92084323D01*
X92982398Y-92024325D01*
X92978935Y-91949909D01*
X92976509Y-91858785D01*
X92974974Y-91748668D01*
X92974186Y-91617268D01*
X92973995Y-91495561D01*
X92973900Y-90966972D01*
X93039180Y-90958312D01*
X93085156Y-90951731D01*
X93126676Y-90945001D01*
X93140780Y-90942388D01*
X93177100Y-90935125D01*
X93177100Y-91281200D01*
G37*
X93177100Y-91281200D02*
X93583500Y-91281200D01*
X93583500Y-91446300D01*
X93177100Y-91446300D01*
X93177378Y-91760625D01*
X93177637Y-91859959D01*
X93178369Y-91937372D01*
X93179804Y-91996343D01*
X93182175Y-92040348D01*
X93185713Y-92072867D01*
X93190647Y-92097378D01*
X93197209Y-92117357D01*
X93201780Y-92128082D01*
X93229345Y-92171469D01*
X93263301Y-92200542D01*
X93264371Y-92201107D01*
X93307295Y-92214222D01*
X93365330Y-92220159D01*
X93429212Y-92218888D01*
X93489679Y-92210378D01*
X93520000Y-92201950D01*
X93554631Y-92190422D01*
X93578760Y-92183650D01*
X93583533Y-92182900D01*
X93591346Y-92194179D01*
X93602199Y-92223564D01*
X93612338Y-92259375D01*
X93621759Y-92298471D01*
X93623954Y-92324695D01*
X93615268Y-92342148D01*
X93592042Y-92354936D01*
X93550620Y-92367162D01*
X93506488Y-92378166D01*
X93389051Y-92395660D01*
X93270676Y-92391780D01*
X93232045Y-92385536D01*
X93148613Y-92357367D01*
X93080591Y-92309042D01*
X93028354Y-92240842D01*
X93020350Y-92225869D01*
X93009524Y-92200674D01*
X93000461Y-92170210D01*
X92993016Y-92132188D01*
X92987044Y-92084323D01*
X92982398Y-92024325D01*
X92978935Y-91949909D01*
X92976509Y-91858785D01*
X92974974Y-91748668D01*
X92974186Y-91617268D01*
X92973995Y-91495561D01*
X92973900Y-90966972D01*
X93039180Y-90958312D01*
X93085156Y-90951731D01*
X93126676Y-90945001D01*
X93140780Y-90942388D01*
X93177100Y-90935125D01*
X93177100Y-91281200D01*
G36*
X92326200Y-91281200D02*
G01*
X92732600Y-91281200D01*
X92732600Y-91446300D01*
X92326200Y-91446300D01*
X92326478Y-91760625D01*
X92326737Y-91859959D01*
X92327469Y-91937372D01*
X92328904Y-91996343D01*
X92331275Y-92040348D01*
X92334813Y-92072867D01*
X92339747Y-92097378D01*
X92346309Y-92117357D01*
X92350880Y-92128082D01*
X92378445Y-92171469D01*
X92412401Y-92200542D01*
X92413471Y-92201107D01*
X92456395Y-92214222D01*
X92514430Y-92220159D01*
X92578312Y-92218888D01*
X92638779Y-92210378D01*
X92669100Y-92201950D01*
X92703731Y-92190422D01*
X92727860Y-92183650D01*
X92732633Y-92182900D01*
X92740446Y-92194179D01*
X92751299Y-92223564D01*
X92761438Y-92259375D01*
X92770859Y-92298471D01*
X92773054Y-92324695D01*
X92764368Y-92342148D01*
X92741142Y-92354936D01*
X92699720Y-92367162D01*
X92655588Y-92378166D01*
X92538151Y-92395660D01*
X92419776Y-92391780D01*
X92381145Y-92385536D01*
X92297713Y-92357367D01*
X92229691Y-92309042D01*
X92177454Y-92240842D01*
X92169450Y-92225869D01*
X92158624Y-92200674D01*
X92149561Y-92170210D01*
X92142116Y-92132188D01*
X92136144Y-92084323D01*
X92131498Y-92024325D01*
X92128035Y-91949909D01*
X92125609Y-91858785D01*
X92124074Y-91748668D01*
X92123286Y-91617268D01*
X92123095Y-91495561D01*
X92123000Y-90966972D01*
X92188280Y-90958312D01*
X92234256Y-90951731D01*
X92275776Y-90945001D01*
X92289880Y-90942388D01*
X92326200Y-90935125D01*
X92326200Y-91281200D01*
G37*
X92326200Y-91281200D02*
X92732600Y-91281200D01*
X92732600Y-91446300D01*
X92326200Y-91446300D01*
X92326478Y-91760625D01*
X92326737Y-91859959D01*
X92327469Y-91937372D01*
X92328904Y-91996343D01*
X92331275Y-92040348D01*
X92334813Y-92072867D01*
X92339747Y-92097378D01*
X92346309Y-92117357D01*
X92350880Y-92128082D01*
X92378445Y-92171469D01*
X92412401Y-92200542D01*
X92413471Y-92201107D01*
X92456395Y-92214222D01*
X92514430Y-92220159D01*
X92578312Y-92218888D01*
X92638779Y-92210378D01*
X92669100Y-92201950D01*
X92703731Y-92190422D01*
X92727860Y-92183650D01*
X92732633Y-92182900D01*
X92740446Y-92194179D01*
X92751299Y-92223564D01*
X92761438Y-92259375D01*
X92770859Y-92298471D01*
X92773054Y-92324695D01*
X92764368Y-92342148D01*
X92741142Y-92354936D01*
X92699720Y-92367162D01*
X92655588Y-92378166D01*
X92538151Y-92395660D01*
X92419776Y-92391780D01*
X92381145Y-92385536D01*
X92297713Y-92357367D01*
X92229691Y-92309042D01*
X92177454Y-92240842D01*
X92169450Y-92225869D01*
X92158624Y-92200674D01*
X92149561Y-92170210D01*
X92142116Y-92132188D01*
X92136144Y-92084323D01*
X92131498Y-92024325D01*
X92128035Y-91949909D01*
X92125609Y-91858785D01*
X92124074Y-91748668D01*
X92123286Y-91617268D01*
X92123095Y-91495561D01*
X92123000Y-90966972D01*
X92188280Y-90958312D01*
X92234256Y-90951731D01*
X92275776Y-90945001D01*
X92289880Y-90942388D01*
X92326200Y-90935125D01*
X92326200Y-91281200D01*
G36*
X91257540Y-90885198D02*
G01*
X91303850Y-90893988D01*
X91427792Y-90932423D01*
X91538525Y-90991860D01*
X91634585Y-91070781D01*
X91714508Y-91167667D01*
X91776832Y-91281000D01*
X91820092Y-91409261D01*
X91826213Y-91436030D01*
X91839692Y-91533134D01*
X91843029Y-91641688D01*
X91836699Y-91752543D01*
X91821174Y-91856549D01*
X91800413Y-91934765D01*
X91745252Y-92060739D01*
X91673079Y-92168303D01*
X91585215Y-92256630D01*
X91482979Y-92324891D01*
X91367691Y-92372258D01*
X91240672Y-92397903D01*
X91103241Y-92400998D01*
X91062550Y-92397656D01*
X90946262Y-92377951D01*
X90845942Y-92343590D01*
X90755263Y-92292092D01*
X90713534Y-92260743D01*
X90655881Y-92210813D01*
X90611907Y-92163416D01*
X90574628Y-92109800D01*
X90537063Y-92041214D01*
X90534786Y-92036706D01*
X90485884Y-91914869D01*
X90457377Y-91782924D01*
X90448765Y-91638140D01*
X90450015Y-91598700D01*
X90666601Y-91598700D01*
X90668786Y-91731524D01*
X90689857Y-91852600D01*
X90728849Y-91960188D01*
X90784796Y-92052547D01*
X90856735Y-92127935D01*
X90943699Y-92184611D01*
X91005400Y-92209806D01*
X91031529Y-92213934D01*
X91075720Y-92216519D01*
X91130661Y-92217247D01*
X91164150Y-92216703D01*
X91227444Y-92214013D01*
X91273084Y-92209044D01*
X91308800Y-92200309D01*
X91342326Y-92186323D01*
X91354650Y-92180081D01*
X91442657Y-92120265D01*
X91514138Y-92042006D01*
X91568459Y-91946674D01*
X91604984Y-91835642D01*
X91623079Y-91710279D01*
X91623766Y-91598700D01*
X91608121Y-91466409D01*
X91575590Y-91351378D01*
X91526856Y-91254365D01*
X91462601Y-91176126D01*
X91383507Y-91117419D01*
X91290259Y-91079001D01*
X91183537Y-91061630D01*
X91138750Y-91060718D01*
X91027185Y-91073320D01*
X90929526Y-91106905D01*
X90846314Y-91160859D01*
X90778087Y-91234566D01*
X90725386Y-91327413D01*
X90688750Y-91438783D01*
X90668718Y-91568063D01*
X90666601Y-91598700D01*
X90450015Y-91598700D01*
X90450675Y-91577900D01*
X90469140Y-91434260D01*
X90507455Y-91304234D01*
X90564607Y-91189077D01*
X90639583Y-91090045D01*
X90731370Y-91008393D01*
X90838956Y-90945376D01*
X90961328Y-90902250D01*
X91003342Y-90892876D01*
X91094532Y-90879007D01*
X91175186Y-90876432D01*
X91257540Y-90885198D01*
G37*
X91257540Y-90885198D02*
X91303850Y-90893988D01*
X91427792Y-90932423D01*
X91538525Y-90991860D01*
X91634585Y-91070781D01*
X91714508Y-91167667D01*
X91776832Y-91281000D01*
X91820092Y-91409261D01*
X91826213Y-91436030D01*
X91839692Y-91533134D01*
X91843029Y-91641688D01*
X91836699Y-91752543D01*
X91821174Y-91856549D01*
X91800413Y-91934765D01*
X91745252Y-92060739D01*
X91673079Y-92168303D01*
X91585215Y-92256630D01*
X91482979Y-92324891D01*
X91367691Y-92372258D01*
X91240672Y-92397903D01*
X91103241Y-92400998D01*
X91062550Y-92397656D01*
X90946262Y-92377951D01*
X90845942Y-92343590D01*
X90755263Y-92292092D01*
X90713534Y-92260743D01*
X90655881Y-92210813D01*
X90611907Y-92163416D01*
X90574628Y-92109800D01*
X90537063Y-92041214D01*
X90534786Y-92036706D01*
X90485884Y-91914869D01*
X90457377Y-91782924D01*
X90448765Y-91638140D01*
X90450015Y-91598700D01*
X90666601Y-91598700D01*
X90668786Y-91731524D01*
X90689857Y-91852600D01*
X90728849Y-91960188D01*
X90784796Y-92052547D01*
X90856735Y-92127935D01*
X90943699Y-92184611D01*
X91005400Y-92209806D01*
X91031529Y-92213934D01*
X91075720Y-92216519D01*
X91130661Y-92217247D01*
X91164150Y-92216703D01*
X91227444Y-92214013D01*
X91273084Y-92209044D01*
X91308800Y-92200309D01*
X91342326Y-92186323D01*
X91354650Y-92180081D01*
X91442657Y-92120265D01*
X91514138Y-92042006D01*
X91568459Y-91946674D01*
X91604984Y-91835642D01*
X91623079Y-91710279D01*
X91623766Y-91598700D01*
X91608121Y-91466409D01*
X91575590Y-91351378D01*
X91526856Y-91254365D01*
X91462601Y-91176126D01*
X91383507Y-91117419D01*
X91290259Y-91079001D01*
X91183537Y-91061630D01*
X91138750Y-91060718D01*
X91027185Y-91073320D01*
X90929526Y-91106905D01*
X90846314Y-91160859D01*
X90778087Y-91234566D01*
X90725386Y-91327413D01*
X90688750Y-91438783D01*
X90668718Y-91568063D01*
X90666601Y-91598700D01*
X90450015Y-91598700D01*
X90450675Y-91577900D01*
X90469140Y-91434260D01*
X90507455Y-91304234D01*
X90564607Y-91189077D01*
X90639583Y-91090045D01*
X90731370Y-91008393D01*
X90838956Y-90945376D01*
X90961328Y-90902250D01*
X91003342Y-90892876D01*
X91094532Y-90879007D01*
X91175186Y-90876432D01*
X91257540Y-90885198D01*
G36*
X103501104Y-92942730D02*
G01*
X103530082Y-92972205D01*
X103540300Y-93016956D01*
X103529838Y-93057560D01*
X103503007Y-93085134D01*
X103466633Y-93096994D01*
X103427545Y-93090452D01*
X103400600Y-93071900D01*
X103378804Y-93035397D01*
X103377449Y-92996356D01*
X103393774Y-92961672D01*
X103425020Y-92938241D01*
X103456501Y-92932200D01*
X103501104Y-92942730D01*
G37*
X103501104Y-92942730D02*
X103530082Y-92972205D01*
X103540300Y-93016956D01*
X103529838Y-93057560D01*
X103503007Y-93085134D01*
X103466633Y-93096994D01*
X103427545Y-93090452D01*
X103400600Y-93071900D01*
X103378804Y-93035397D01*
X103377449Y-92996356D01*
X103393774Y-92961672D01*
X103425020Y-92938241D01*
X103456501Y-92932200D01*
X103501104Y-92942730D01*
G36*
X98644052Y-92938300D02*
G01*
X98674359Y-92957864D01*
X98689885Y-92988784D01*
X98690404Y-92993432D01*
X98684353Y-93042913D01*
X98661496Y-93078467D01*
X98626505Y-93096852D01*
X98584050Y-93094828D01*
X98559717Y-93084138D01*
X98537690Y-93058208D01*
X98528567Y-93020047D01*
X98533886Y-92980135D01*
X98542020Y-92963433D01*
X98570126Y-92939517D01*
X98606722Y-92931662D01*
X98644052Y-92938300D01*
G37*
X98644052Y-92938300D02*
X98674359Y-92957864D01*
X98689885Y-92988784D01*
X98690404Y-92993432D01*
X98684353Y-93042913D01*
X98661496Y-93078467D01*
X98626505Y-93096852D01*
X98584050Y-93094828D01*
X98559717Y-93084138D01*
X98537690Y-93058208D01*
X98528567Y-93020047D01*
X98533886Y-92980135D01*
X98542020Y-92963433D01*
X98570126Y-92939517D01*
X98606722Y-92931662D01*
X98644052Y-92938300D01*
G36*
X93174052Y-92942676D02*
G01*
X93202214Y-92969546D01*
X93214532Y-93005969D01*
X93208218Y-93045104D01*
X93189800Y-93071900D01*
X93154412Y-93092457D01*
X93113720Y-93095411D01*
X93078034Y-93080571D01*
X93071118Y-93074074D01*
X93054364Y-93040267D01*
X93051379Y-92999024D01*
X93062268Y-92962371D01*
X93070057Y-92952157D01*
X93096281Y-92938206D01*
X93131901Y-92932204D01*
X93132837Y-92932200D01*
X93174052Y-92942676D01*
G37*
X93174052Y-92942676D02*
X93202214Y-92969546D01*
X93214532Y-93005969D01*
X93208218Y-93045104D01*
X93189800Y-93071900D01*
X93154412Y-93092457D01*
X93113720Y-93095411D01*
X93078034Y-93080571D01*
X93071118Y-93074074D01*
X93054364Y-93040267D01*
X93051379Y-92999024D01*
X93062268Y-92962371D01*
X93070057Y-92952157D01*
X93096281Y-92938206D01*
X93131901Y-92932204D01*
X93132837Y-92932200D01*
X93174052Y-92942676D01*
G36*
X104619800Y-93240175D02*
G01*
X104661075Y-93231899D01*
X104725604Y-93220199D01*
X104774595Y-93215057D01*
X104816956Y-93216136D01*
X104861596Y-93223101D01*
X104866729Y-93224150D01*
X104930896Y-93244462D01*
X104983031Y-93278530D01*
X104989273Y-93284021D01*
X105016136Y-93311215D01*
X105037005Y-93340746D01*
X105052604Y-93376124D01*
X105063657Y-93420859D01*
X105070888Y-93478459D01*
X105075022Y-93552435D01*
X105076781Y-93646294D01*
X105077000Y-93709205D01*
X105077000Y-93960900D01*
X104952257Y-93960900D01*
X104947803Y-93703725D01*
X104945881Y-93612236D01*
X104943492Y-93542528D01*
X104940322Y-93490979D01*
X104936052Y-93453972D01*
X104930366Y-93427886D01*
X104922949Y-93409101D01*
X104921873Y-93407063D01*
X104885605Y-93366193D01*
X104830812Y-93341707D01*
X104758610Y-93333885D01*
X104670113Y-93343005D01*
X104667425Y-93343504D01*
X104619800Y-93352450D01*
X104619800Y-93960900D01*
X104492800Y-93960900D01*
X104492800Y-92894583D01*
X104527725Y-92887195D01*
X104565409Y-92879315D01*
X104591225Y-92874011D01*
X104619800Y-92868216D01*
X104619800Y-93240175D01*
G37*
X104619800Y-93240175D02*
X104661075Y-93231899D01*
X104725604Y-93220199D01*
X104774595Y-93215057D01*
X104816956Y-93216136D01*
X104861596Y-93223101D01*
X104866729Y-93224150D01*
X104930896Y-93244462D01*
X104983031Y-93278530D01*
X104989273Y-93284021D01*
X105016136Y-93311215D01*
X105037005Y-93340746D01*
X105052604Y-93376124D01*
X105063657Y-93420859D01*
X105070888Y-93478459D01*
X105075022Y-93552435D01*
X105076781Y-93646294D01*
X105077000Y-93709205D01*
X105077000Y-93960900D01*
X104952257Y-93960900D01*
X104947803Y-93703725D01*
X104945881Y-93612236D01*
X104943492Y-93542528D01*
X104940322Y-93490979D01*
X104936052Y-93453972D01*
X104930366Y-93427886D01*
X104922949Y-93409101D01*
X104921873Y-93407063D01*
X104885605Y-93366193D01*
X104830812Y-93341707D01*
X104758610Y-93333885D01*
X104670113Y-93343005D01*
X104667425Y-93343504D01*
X104619800Y-93352450D01*
X104619800Y-93960900D01*
X104492800Y-93960900D01*
X104492800Y-92894583D01*
X104527725Y-92887195D01*
X104565409Y-92879315D01*
X104591225Y-92874011D01*
X104619800Y-92868216D01*
X104619800Y-93240175D01*
G36*
X103883695Y-93201833D02*
G01*
X103884191Y-93535450D01*
X104029819Y-93385593D01*
X104175448Y-93235736D01*
X104319222Y-93243350D01*
X104170475Y-93400585D01*
X104021728Y-93557821D01*
X104115536Y-93654585D01*
X104166852Y-93710089D01*
X104219318Y-93771247D01*
X104268404Y-93832383D01*
X104309583Y-93887822D01*
X104338326Y-93931887D01*
X104341948Y-93938394D01*
X104346218Y-93950886D01*
X104338775Y-93957661D01*
X104314803Y-93960426D01*
X104278461Y-93960900D01*
X104202929Y-93960900D01*
X104143530Y-93877660D01*
X104113559Y-93838770D01*
X104075498Y-93793846D01*
X104033194Y-93746899D01*
X103990495Y-93701944D01*
X103951248Y-93662993D01*
X103919302Y-93634060D01*
X103898504Y-93619158D01*
X103894576Y-93618000D01*
X103890418Y-93629927D01*
X103886941Y-93662625D01*
X103884452Y-93711466D01*
X103883260Y-93771824D01*
X103883200Y-93789450D01*
X103883200Y-93960900D01*
X103756200Y-93960900D01*
X103756200Y-92894583D01*
X103791125Y-92887195D01*
X103828809Y-92879315D01*
X103854625Y-92874011D01*
X103883200Y-92868216D01*
X103883695Y-93201833D01*
G37*
X103883695Y-93201833D02*
X103884191Y-93535450D01*
X104029819Y-93385593D01*
X104175448Y-93235736D01*
X104319222Y-93243350D01*
X104170475Y-93400585D01*
X104021728Y-93557821D01*
X104115536Y-93654585D01*
X104166852Y-93710089D01*
X104219318Y-93771247D01*
X104268404Y-93832383D01*
X104309583Y-93887822D01*
X104338326Y-93931887D01*
X104341948Y-93938394D01*
X104346218Y-93950886D01*
X104338775Y-93957661D01*
X104314803Y-93960426D01*
X104278461Y-93960900D01*
X104202929Y-93960900D01*
X104143530Y-93877660D01*
X104113559Y-93838770D01*
X104075498Y-93793846D01*
X104033194Y-93746899D01*
X103990495Y-93701944D01*
X103951248Y-93662993D01*
X103919302Y-93634060D01*
X103898504Y-93619158D01*
X103894576Y-93618000D01*
X103890418Y-93629927D01*
X103886941Y-93662625D01*
X103884452Y-93711466D01*
X103883260Y-93771824D01*
X103883200Y-93789450D01*
X103883200Y-93960900D01*
X103756200Y-93960900D01*
X103756200Y-92894583D01*
X103791125Y-92887195D01*
X103828809Y-92879315D01*
X103854625Y-92874011D01*
X103883200Y-92868216D01*
X103883695Y-93201833D01*
G36*
X103527600Y-93960900D02*
G01*
X103400600Y-93960900D01*
X103400600Y-93237000D01*
X103527600Y-93237000D01*
X103527600Y-93960900D01*
G37*
X103527600Y-93960900D02*
X103400600Y-93960900D01*
X103400600Y-93237000D01*
X103527600Y-93237000D01*
X103527600Y-93960900D01*
G36*
X103163701Y-93220828D02*
G01*
X103212512Y-93225017D01*
X103227498Y-93228143D01*
X103250177Y-93236379D01*
X103259021Y-93249593D01*
X103257768Y-93276191D01*
X103255491Y-93291122D01*
X103249727Y-93324236D01*
X103245359Y-93344191D01*
X103244443Y-93346496D01*
X103231673Y-93345647D01*
X103201655Y-93340784D01*
X103175987Y-93335926D01*
X103100910Y-93329307D01*
X103048987Y-93334018D01*
X102987850Y-93345181D01*
X102984449Y-93653040D01*
X102981048Y-93960900D01*
X102854098Y-93960900D01*
X102857474Y-93609299D01*
X102860850Y-93257699D01*
X102924350Y-93240399D01*
X102973870Y-93230743D01*
X103035914Y-93224034D01*
X103102013Y-93220615D01*
X103163701Y-93220828D01*
G37*
X103163701Y-93220828D02*
X103212512Y-93225017D01*
X103227498Y-93228143D01*
X103250177Y-93236379D01*
X103259021Y-93249593D01*
X103257768Y-93276191D01*
X103255491Y-93291122D01*
X103249727Y-93324236D01*
X103245359Y-93344191D01*
X103244443Y-93346496D01*
X103231673Y-93345647D01*
X103201655Y-93340784D01*
X103175987Y-93335926D01*
X103100910Y-93329307D01*
X103048987Y-93334018D01*
X102987850Y-93345181D01*
X102984449Y-93653040D01*
X102981048Y-93960900D01*
X102854098Y-93960900D01*
X102857474Y-93609299D01*
X102860850Y-93257699D01*
X102924350Y-93240399D01*
X102973870Y-93230743D01*
X103035914Y-93224034D01*
X103102013Y-93220615D01*
X103163701Y-93220828D01*
G36*
X102440077Y-93230586D02*
G01*
X102513047Y-93260871D01*
X102521466Y-93266245D01*
X102552124Y-93295106D01*
X102582797Y-93337209D01*
X102596252Y-93361376D01*
X102607380Y-93385017D01*
X102615819Y-93407437D01*
X102622049Y-93432704D01*
X102626554Y-93464890D01*
X102629818Y-93508065D01*
X102632323Y-93566300D01*
X102634552Y-93643665D01*
X102635810Y-93694751D01*
X102642199Y-93960900D01*
X102498900Y-93960900D01*
X102498183Y-93716425D01*
X102497286Y-93617258D01*
X102494821Y-93540037D01*
X102490146Y-93481325D01*
X102482620Y-93437685D01*
X102471599Y-93405680D01*
X102456443Y-93381873D01*
X102436511Y-93362827D01*
X102431435Y-93358945D01*
X102407870Y-93344920D01*
X102379564Y-93337052D01*
X102339036Y-93333957D01*
X102296284Y-93333932D01*
X102247277Y-93335685D01*
X102207663Y-93338995D01*
X102184719Y-93343208D01*
X102182773Y-93344100D01*
X102177704Y-93358280D01*
X102173800Y-93394379D01*
X102171025Y-93453236D01*
X102169340Y-93535692D01*
X102168707Y-93642589D01*
X102168700Y-93656849D01*
X102168700Y-93960900D01*
X102041700Y-93960900D01*
X102041700Y-93251500D01*
X102108375Y-93238331D01*
X102237406Y-93219294D01*
X102348085Y-93216720D01*
X102440077Y-93230586D01*
G37*
X102440077Y-93230586D02*
X102513047Y-93260871D01*
X102521466Y-93266245D01*
X102552124Y-93295106D01*
X102582797Y-93337209D01*
X102596252Y-93361376D01*
X102607380Y-93385017D01*
X102615819Y-93407437D01*
X102622049Y-93432704D01*
X102626554Y-93464890D01*
X102629818Y-93508065D01*
X102632323Y-93566300D01*
X102634552Y-93643665D01*
X102635810Y-93694751D01*
X102642199Y-93960900D01*
X102498900Y-93960900D01*
X102498183Y-93716425D01*
X102497286Y-93617258D01*
X102494821Y-93540037D01*
X102490146Y-93481325D01*
X102482620Y-93437685D01*
X102471599Y-93405680D01*
X102456443Y-93381873D01*
X102436511Y-93362827D01*
X102431435Y-93358945D01*
X102407870Y-93344920D01*
X102379564Y-93337052D01*
X102339036Y-93333957D01*
X102296284Y-93333932D01*
X102247277Y-93335685D01*
X102207663Y-93338995D01*
X102184719Y-93343208D01*
X102182773Y-93344100D01*
X102177704Y-93358280D01*
X102173800Y-93394379D01*
X102171025Y-93453236D01*
X102169340Y-93535692D01*
X102168707Y-93642589D01*
X102168700Y-93656849D01*
X102168700Y-93960900D01*
X102041700Y-93960900D01*
X102041700Y-93251500D01*
X102108375Y-93238331D01*
X102237406Y-93219294D01*
X102348085Y-93216720D01*
X102440077Y-93230586D01*
G36*
X100581200Y-93239232D02*
G01*
X100635175Y-93228591D01*
X100736190Y-93217663D01*
X100825631Y-93226182D01*
X100901657Y-93253298D01*
X100962429Y-93298160D01*
X101006105Y-93359918D01*
X101024382Y-93408450D01*
X101028904Y-93437865D01*
X101032774Y-93488044D01*
X101035777Y-93554350D01*
X101037699Y-93632150D01*
X101038329Y-93710075D01*
X101038400Y-93960900D01*
X100914007Y-93960900D01*
X100909123Y-93703725D01*
X100907022Y-93611772D01*
X100904463Y-93541639D01*
X100901130Y-93489742D01*
X100896708Y-93452501D01*
X100890882Y-93426335D01*
X100883337Y-93407662D01*
X100883018Y-93407063D01*
X100847438Y-93366846D01*
X100793520Y-93342014D01*
X100723563Y-93333146D01*
X100639871Y-93340824D01*
X100628825Y-93342923D01*
X100581200Y-93352450D01*
X100581200Y-93960900D01*
X100454200Y-93960900D01*
X100454200Y-92894583D01*
X100489125Y-92887195D01*
X100526809Y-92879315D01*
X100552625Y-92874011D01*
X100581200Y-92868216D01*
X100581200Y-93239232D01*
G37*
X100581200Y-93239232D02*
X100635175Y-93228591D01*
X100736190Y-93217663D01*
X100825631Y-93226182D01*
X100901657Y-93253298D01*
X100962429Y-93298160D01*
X101006105Y-93359918D01*
X101024382Y-93408450D01*
X101028904Y-93437865D01*
X101032774Y-93488044D01*
X101035777Y-93554350D01*
X101037699Y-93632150D01*
X101038329Y-93710075D01*
X101038400Y-93960900D01*
X100914007Y-93960900D01*
X100909123Y-93703725D01*
X100907022Y-93611772D01*
X100904463Y-93541639D01*
X100901130Y-93489742D01*
X100896708Y-93452501D01*
X100890882Y-93426335D01*
X100883337Y-93407662D01*
X100883018Y-93407063D01*
X100847438Y-93366846D01*
X100793520Y-93342014D01*
X100723563Y-93333146D01*
X100639871Y-93340824D01*
X100628825Y-93342923D01*
X100581200Y-93352450D01*
X100581200Y-93960900D01*
X100454200Y-93960900D01*
X100454200Y-92894583D01*
X100489125Y-92887195D01*
X100526809Y-92879315D01*
X100552625Y-92874011D01*
X100581200Y-92868216D01*
X100581200Y-93239232D01*
G36*
X100011079Y-93223073D02*
G01*
X100079143Y-93245758D01*
X100134447Y-93282810D01*
X100144762Y-93292557D01*
X100181224Y-93336614D01*
X100206600Y-93382088D01*
X100211367Y-93395791D01*
X100216099Y-93425974D01*
X100220073Y-93477362D01*
X100223096Y-93545768D01*
X100224975Y-93627005D01*
X100225529Y-93703725D01*
X100225600Y-93960900D01*
X100100472Y-93960900D01*
X100096361Y-93703725D01*
X100093906Y-93596754D01*
X100089375Y-93512506D01*
X100081302Y-93448308D01*
X100068221Y-93401489D01*
X100048665Y-93369379D01*
X100021169Y-93349306D01*
X99984265Y-93338599D01*
X99936488Y-93334588D01*
X99893598Y-93334355D01*
X99845166Y-93335939D01*
X99806157Y-93339162D01*
X99783967Y-93343378D01*
X99782473Y-93344100D01*
X99777404Y-93358280D01*
X99773500Y-93394379D01*
X99770725Y-93453236D01*
X99769040Y-93535692D01*
X99768407Y-93642589D01*
X99768400Y-93656849D01*
X99768400Y-93960900D01*
X99641400Y-93960900D01*
X99641400Y-93251500D01*
X99708075Y-93238467D01*
X99827770Y-93219703D01*
X99928030Y-93214480D01*
X100011079Y-93223073D01*
G37*
X100011079Y-93223073D02*
X100079143Y-93245758D01*
X100134447Y-93282810D01*
X100144762Y-93292557D01*
X100181224Y-93336614D01*
X100206600Y-93382088D01*
X100211367Y-93395791D01*
X100216099Y-93425974D01*
X100220073Y-93477362D01*
X100223096Y-93545768D01*
X100224975Y-93627005D01*
X100225529Y-93703725D01*
X100225600Y-93960900D01*
X100100472Y-93960900D01*
X100096361Y-93703725D01*
X100093906Y-93596754D01*
X100089375Y-93512506D01*
X100081302Y-93448308D01*
X100068221Y-93401489D01*
X100048665Y-93369379D01*
X100021169Y-93349306D01*
X99984265Y-93338599D01*
X99936488Y-93334588D01*
X99893598Y-93334355D01*
X99845166Y-93335939D01*
X99806157Y-93339162D01*
X99783967Y-93343378D01*
X99782473Y-93344100D01*
X99777404Y-93358280D01*
X99773500Y-93394379D01*
X99770725Y-93453236D01*
X99769040Y-93535692D01*
X99768407Y-93642589D01*
X99768400Y-93656849D01*
X99768400Y-93960900D01*
X99641400Y-93960900D01*
X99641400Y-93251500D01*
X99708075Y-93238467D01*
X99827770Y-93219703D01*
X99928030Y-93214480D01*
X100011079Y-93223073D01*
G36*
X94559925Y-93216739D02*
G01*
X94577700Y-93218326D01*
X94658078Y-93236591D01*
X94720321Y-93268820D01*
X94769316Y-93318244D01*
X94797920Y-93364000D01*
X94805918Y-93381785D01*
X94812065Y-93403682D01*
X94816681Y-93433339D01*
X94820083Y-93474405D01*
X94822592Y-93530532D01*
X94824524Y-93605367D01*
X94825925Y-93684675D01*
X94830247Y-93960900D01*
X94701100Y-93960900D01*
X94701100Y-93753083D01*
X94700302Y-93676955D01*
X94698102Y-93604224D01*
X94694791Y-93541127D01*
X94690660Y-93493902D01*
X94688251Y-93477519D01*
X94668002Y-93413833D01*
X94633907Y-93368969D01*
X94584147Y-93341832D01*
X94516905Y-93331326D01*
X94450275Y-93334060D01*
X94370900Y-93342107D01*
X94370900Y-93960900D01*
X94231200Y-93960900D01*
X94231200Y-93612096D01*
X94231312Y-93508343D01*
X94231766Y-93427125D01*
X94232740Y-93365576D01*
X94234409Y-93320832D01*
X94236950Y-93290028D01*
X94240539Y-93270299D01*
X94245354Y-93258781D01*
X94251571Y-93252607D01*
X94253425Y-93251532D01*
X94282791Y-93242078D01*
X94330393Y-93233108D01*
X94389071Y-93225355D01*
X94451660Y-93219554D01*
X94510998Y-93216438D01*
X94559925Y-93216739D01*
G37*
X94559925Y-93216739D02*
X94577700Y-93218326D01*
X94658078Y-93236591D01*
X94720321Y-93268820D01*
X94769316Y-93318244D01*
X94797920Y-93364000D01*
X94805918Y-93381785D01*
X94812065Y-93403682D01*
X94816681Y-93433339D01*
X94820083Y-93474405D01*
X94822592Y-93530532D01*
X94824524Y-93605367D01*
X94825925Y-93684675D01*
X94830247Y-93960900D01*
X94701100Y-93960900D01*
X94701100Y-93753083D01*
X94700302Y-93676955D01*
X94698102Y-93604224D01*
X94694791Y-93541127D01*
X94690660Y-93493902D01*
X94688251Y-93477519D01*
X94668002Y-93413833D01*
X94633907Y-93368969D01*
X94584147Y-93341832D01*
X94516905Y-93331326D01*
X94450275Y-93334060D01*
X94370900Y-93342107D01*
X94370900Y-93960900D01*
X94231200Y-93960900D01*
X94231200Y-93612096D01*
X94231312Y-93508343D01*
X94231766Y-93427125D01*
X94232740Y-93365576D01*
X94234409Y-93320832D01*
X94236950Y-93290028D01*
X94240539Y-93270299D01*
X94245354Y-93258781D01*
X94251571Y-93252607D01*
X94253425Y-93251532D01*
X94282791Y-93242078D01*
X94330393Y-93233108D01*
X94389071Y-93225355D01*
X94451660Y-93219554D01*
X94510998Y-93216438D01*
X94559925Y-93216739D01*
G36*
X93189800Y-93960900D02*
G01*
X93062800Y-93960900D01*
X93062800Y-93237000D01*
X93189800Y-93237000D01*
X93189800Y-93960900D01*
G37*
X93189800Y-93960900D02*
X93062800Y-93960900D01*
X93062800Y-93237000D01*
X93189800Y-93237000D01*
X93189800Y-93960900D01*
G36*
X101631610Y-93222007D02*
G01*
X101707132Y-93252837D01*
X101767255Y-93303501D01*
X101811413Y-93373408D01*
X101839042Y-93461970D01*
X101848059Y-93531928D01*
X101854829Y-93630700D01*
X101355900Y-93630700D01*
X101355900Y-93664790D01*
X101366700Y-93719163D01*
X101395204Y-93773315D01*
X101435562Y-93817507D01*
X101456055Y-93831562D01*
X101491956Y-93847680D01*
X101533020Y-93856318D01*
X101588437Y-93859243D01*
X101600209Y-93859300D01*
X101653172Y-93857383D01*
X101701607Y-93852353D01*
X101735193Y-93845289D01*
X101735653Y-93845131D01*
X101764136Y-93836809D01*
X101779948Y-93835224D01*
X101780547Y-93835606D01*
X101785071Y-93849889D01*
X101791269Y-93880043D01*
X101793425Y-93892509D01*
X101802052Y-93944768D01*
X101744802Y-93959184D01*
X101692620Y-93967789D01*
X101627740Y-93972039D01*
X101558790Y-93972034D01*
X101494392Y-93967875D01*
X101443173Y-93959663D01*
X101428899Y-93955480D01*
X101354340Y-93916715D01*
X101293812Y-93857913D01*
X101260324Y-93806852D01*
X101243560Y-93774903D01*
X101232652Y-93747086D01*
X101226353Y-93716524D01*
X101223410Y-93676335D01*
X101222576Y-93619643D01*
X101222550Y-93598950D01*
X101225304Y-93515005D01*
X101228317Y-93494717D01*
X101356136Y-93494717D01*
X101358763Y-93511942D01*
X101375621Y-93522170D01*
X101409552Y-93527224D01*
X101463400Y-93528927D01*
X101533700Y-93529100D01*
X101711500Y-93529100D01*
X101711500Y-93496942D01*
X101702304Y-93446633D01*
X101678803Y-93395283D01*
X101649881Y-93358973D01*
X101618520Y-93342020D01*
X101573529Y-93330556D01*
X101560040Y-93328860D01*
X101493154Y-93333243D01*
X101437848Y-93360206D01*
X101394464Y-93409552D01*
X101382201Y-93431988D01*
X101364896Y-93468673D01*
X101356136Y-93494717D01*
X101228317Y-93494717D01*
X101235046Y-93449409D01*
X101253991Y-93395561D01*
X101284353Y-93346863D01*
X101321690Y-93303644D01*
X101366816Y-93268635D01*
X101426581Y-93238638D01*
X101490229Y-93218162D01*
X101541252Y-93211600D01*
X101631610Y-93222007D01*
G37*
X101631610Y-93222007D02*
X101707132Y-93252837D01*
X101767255Y-93303501D01*
X101811413Y-93373408D01*
X101839042Y-93461970D01*
X101848059Y-93531928D01*
X101854829Y-93630700D01*
X101355900Y-93630700D01*
X101355900Y-93664790D01*
X101366700Y-93719163D01*
X101395204Y-93773315D01*
X101435562Y-93817507D01*
X101456055Y-93831562D01*
X101491956Y-93847680D01*
X101533020Y-93856318D01*
X101588437Y-93859243D01*
X101600209Y-93859300D01*
X101653172Y-93857383D01*
X101701607Y-93852353D01*
X101735193Y-93845289D01*
X101735653Y-93845131D01*
X101764136Y-93836809D01*
X101779948Y-93835224D01*
X101780547Y-93835606D01*
X101785071Y-93849889D01*
X101791269Y-93880043D01*
X101793425Y-93892509D01*
X101802052Y-93944768D01*
X101744802Y-93959184D01*
X101692620Y-93967789D01*
X101627740Y-93972039D01*
X101558790Y-93972034D01*
X101494392Y-93967875D01*
X101443173Y-93959663D01*
X101428899Y-93955480D01*
X101354340Y-93916715D01*
X101293812Y-93857913D01*
X101260324Y-93806852D01*
X101243560Y-93774903D01*
X101232652Y-93747086D01*
X101226353Y-93716524D01*
X101223410Y-93676335D01*
X101222576Y-93619643D01*
X101222550Y-93598950D01*
X101225304Y-93515005D01*
X101228317Y-93494717D01*
X101356136Y-93494717D01*
X101358763Y-93511942D01*
X101375621Y-93522170D01*
X101409552Y-93527224D01*
X101463400Y-93528927D01*
X101533700Y-93529100D01*
X101711500Y-93529100D01*
X101711500Y-93496942D01*
X101702304Y-93446633D01*
X101678803Y-93395283D01*
X101649881Y-93358973D01*
X101618520Y-93342020D01*
X101573529Y-93330556D01*
X101560040Y-93328860D01*
X101493154Y-93333243D01*
X101437848Y-93360206D01*
X101394464Y-93409552D01*
X101382201Y-93431988D01*
X101364896Y-93468673D01*
X101356136Y-93494717D01*
X101228317Y-93494717D01*
X101235046Y-93449409D01*
X101253991Y-93395561D01*
X101284353Y-93346863D01*
X101321690Y-93303644D01*
X101366816Y-93268635D01*
X101426581Y-93238638D01*
X101490229Y-93218162D01*
X101541252Y-93211600D01*
X101631610Y-93222007D01*
G36*
X99215378Y-93220095D02*
G01*
X99293198Y-93243879D01*
X99351322Y-93283388D01*
X99374608Y-93309791D01*
X99392651Y-93341221D01*
X99406060Y-93381049D01*
X99415442Y-93432646D01*
X99421404Y-93499385D01*
X99424554Y-93584637D01*
X99425499Y-93691773D01*
X99425500Y-93695146D01*
X99425318Y-93781424D01*
X99424581Y-93845682D01*
X99422998Y-93891298D01*
X99420281Y-93921648D01*
X99416139Y-93940112D01*
X99410284Y-93950067D01*
X99403275Y-93954559D01*
X99376990Y-93959950D01*
X99331528Y-93964127D01*
X99273086Y-93967024D01*
X99207860Y-93968572D01*
X99142049Y-93968704D01*
X99081847Y-93967352D01*
X99033454Y-93964449D01*
X99003065Y-93959927D01*
X99000050Y-93958960D01*
X98933042Y-93921986D01*
X98886240Y-93869934D01*
X98860408Y-93804070D01*
X98858425Y-93766083D01*
X98986253Y-93766083D01*
X99004466Y-93807973D01*
X99040590Y-93842058D01*
X99078060Y-93858941D01*
X99131475Y-93868430D01*
X99195156Y-93870517D01*
X99254952Y-93864802D01*
X99258812Y-93864062D01*
X99298500Y-93856125D01*
X99298500Y-93750512D01*
X99296874Y-93696318D01*
X99292398Y-93656894D01*
X99285674Y-93637201D01*
X99284646Y-93636337D01*
X99258059Y-93629124D01*
X99214849Y-93626375D01*
X99163322Y-93627671D01*
X99111782Y-93632591D01*
X99068533Y-93640715D01*
X99047129Y-93648345D01*
X99006781Y-93680794D01*
X98986757Y-93721865D01*
X98986253Y-93766083D01*
X98858425Y-93766083D01*
X98856314Y-93725662D01*
X98856691Y-93721451D01*
X98873405Y-93653288D01*
X98910091Y-93599413D01*
X98968513Y-93557369D01*
X98977913Y-93552587D01*
X99009844Y-93538708D01*
X99041662Y-93530041D01*
X99080605Y-93525510D01*
X99133913Y-93524042D01*
X99169633Y-93524132D01*
X99301117Y-93525170D01*
X99293374Y-93476748D01*
X99278524Y-93415947D01*
X99255020Y-93374677D01*
X99219735Y-93347676D01*
X99215445Y-93345562D01*
X99164786Y-93331216D01*
X99099820Y-93326763D01*
X99029763Y-93332518D01*
X99000406Y-93338201D01*
X98968275Y-93344850D01*
X98949040Y-93347310D01*
X98947013Y-93346946D01*
X98943370Y-93333796D01*
X98937807Y-93304431D01*
X98935755Y-93292041D01*
X98927447Y-93240086D01*
X99009238Y-93225843D01*
X99120497Y-93214044D01*
X99215378Y-93220095D01*
G37*
X99215378Y-93220095D02*
X99293198Y-93243879D01*
X99351322Y-93283388D01*
X99374608Y-93309791D01*
X99392651Y-93341221D01*
X99406060Y-93381049D01*
X99415442Y-93432646D01*
X99421404Y-93499385D01*
X99424554Y-93584637D01*
X99425499Y-93691773D01*
X99425500Y-93695146D01*
X99425318Y-93781424D01*
X99424581Y-93845682D01*
X99422998Y-93891298D01*
X99420281Y-93921648D01*
X99416139Y-93940112D01*
X99410284Y-93950067D01*
X99403275Y-93954559D01*
X99376990Y-93959950D01*
X99331528Y-93964127D01*
X99273086Y-93967024D01*
X99207860Y-93968572D01*
X99142049Y-93968704D01*
X99081847Y-93967352D01*
X99033454Y-93964449D01*
X99003065Y-93959927D01*
X99000050Y-93958960D01*
X98933042Y-93921986D01*
X98886240Y-93869934D01*
X98860408Y-93804070D01*
X98858425Y-93766083D01*
X98986253Y-93766083D01*
X99004466Y-93807973D01*
X99040590Y-93842058D01*
X99078060Y-93858941D01*
X99131475Y-93868430D01*
X99195156Y-93870517D01*
X99254952Y-93864802D01*
X99258812Y-93864062D01*
X99298500Y-93856125D01*
X99298500Y-93750512D01*
X99296874Y-93696318D01*
X99292398Y-93656894D01*
X99285674Y-93637201D01*
X99284646Y-93636337D01*
X99258059Y-93629124D01*
X99214849Y-93626375D01*
X99163322Y-93627671D01*
X99111782Y-93632591D01*
X99068533Y-93640715D01*
X99047129Y-93648345D01*
X99006781Y-93680794D01*
X98986757Y-93721865D01*
X98986253Y-93766083D01*
X98858425Y-93766083D01*
X98856314Y-93725662D01*
X98856691Y-93721451D01*
X98873405Y-93653288D01*
X98910091Y-93599413D01*
X98968513Y-93557369D01*
X98977913Y-93552587D01*
X99009844Y-93538708D01*
X99041662Y-93530041D01*
X99080605Y-93525510D01*
X99133913Y-93524042D01*
X99169633Y-93524132D01*
X99301117Y-93525170D01*
X99293374Y-93476748D01*
X99278524Y-93415947D01*
X99255020Y-93374677D01*
X99219735Y-93347676D01*
X99215445Y-93345562D01*
X99164786Y-93331216D01*
X99099820Y-93326763D01*
X99029763Y-93332518D01*
X99000406Y-93338201D01*
X98968275Y-93344850D01*
X98949040Y-93347310D01*
X98947013Y-93346946D01*
X98943370Y-93333796D01*
X98937807Y-93304431D01*
X98935755Y-93292041D01*
X98927447Y-93240086D01*
X99009238Y-93225843D01*
X99120497Y-93214044D01*
X99215378Y-93220095D01*
G36*
X95501200Y-93258496D02*
G01*
X95567875Y-93235463D01*
X95657106Y-93216004D01*
X95743336Y-93218569D01*
X95822808Y-93241833D01*
X95891762Y-93284470D01*
X95946441Y-93345156D01*
X95963945Y-93375112D01*
X96000089Y-93469169D01*
X96015826Y-93564623D01*
X96012256Y-93657952D01*
X95990475Y-93745634D01*
X95951583Y-93824147D01*
X95896678Y-93889968D01*
X95826859Y-93939576D01*
X95781879Y-93958885D01*
X95745515Y-93965974D01*
X95691230Y-93970234D01*
X95626346Y-93971684D01*
X95558182Y-93970341D01*
X95494059Y-93966225D01*
X95441296Y-93959352D01*
X95434525Y-93958024D01*
X95374200Y-93945452D01*
X95374200Y-93380557D01*
X95501200Y-93380557D01*
X95501200Y-93612520D01*
X95501672Y-93700715D01*
X95503203Y-93766051D01*
X95505960Y-93811053D01*
X95510110Y-93838246D01*
X95515823Y-93850155D01*
X95517075Y-93850889D01*
X95536839Y-93854109D01*
X95574410Y-93856714D01*
X95622195Y-93858203D01*
X95629496Y-93858297D01*
X95683762Y-93857485D01*
X95721102Y-93852574D01*
X95749873Y-93841893D01*
X95768894Y-93830422D01*
X95826241Y-93777227D01*
X95863079Y-93709407D01*
X95875868Y-93655962D01*
X95879418Y-93560695D01*
X95862764Y-93477574D01*
X95826518Y-93408434D01*
X95777392Y-93359488D01*
X95732696Y-93339802D01*
X95674556Y-93332831D01*
X95611586Y-93338697D01*
X95554831Y-93356403D01*
X95501200Y-93380557D01*
X95374200Y-93380557D01*
X95374200Y-92894583D01*
X95402775Y-92888788D01*
X95437887Y-92881554D01*
X95466275Y-92875604D01*
X95501200Y-92868216D01*
X95501200Y-93258496D01*
G37*
X95501200Y-93258496D02*
X95567875Y-93235463D01*
X95657106Y-93216004D01*
X95743336Y-93218569D01*
X95822808Y-93241833D01*
X95891762Y-93284470D01*
X95946441Y-93345156D01*
X95963945Y-93375112D01*
X96000089Y-93469169D01*
X96015826Y-93564623D01*
X96012256Y-93657952D01*
X95990475Y-93745634D01*
X95951583Y-93824147D01*
X95896678Y-93889968D01*
X95826859Y-93939576D01*
X95781879Y-93958885D01*
X95745515Y-93965974D01*
X95691230Y-93970234D01*
X95626346Y-93971684D01*
X95558182Y-93970341D01*
X95494059Y-93966225D01*
X95441296Y-93959352D01*
X95434525Y-93958024D01*
X95374200Y-93945452D01*
X95374200Y-93380557D01*
X95501200Y-93380557D01*
X95501200Y-93612520D01*
X95501672Y-93700715D01*
X95503203Y-93766051D01*
X95505960Y-93811053D01*
X95510110Y-93838246D01*
X95515823Y-93850155D01*
X95517075Y-93850889D01*
X95536839Y-93854109D01*
X95574410Y-93856714D01*
X95622195Y-93858203D01*
X95629496Y-93858297D01*
X95683762Y-93857485D01*
X95721102Y-93852574D01*
X95749873Y-93841893D01*
X95768894Y-93830422D01*
X95826241Y-93777227D01*
X95863079Y-93709407D01*
X95875868Y-93655962D01*
X95879418Y-93560695D01*
X95862764Y-93477574D01*
X95826518Y-93408434D01*
X95777392Y-93359488D01*
X95732696Y-93339802D01*
X95674556Y-93332831D01*
X95611586Y-93338697D01*
X95554831Y-93356403D01*
X95501200Y-93380557D01*
X95374200Y-93380557D01*
X95374200Y-92894583D01*
X95402775Y-92888788D01*
X95437887Y-92881554D01*
X95466275Y-92875604D01*
X95501200Y-92868216D01*
X95501200Y-93258496D01*
G36*
X92758750Y-93220589D02*
G01*
X92818892Y-93233762D01*
X92825897Y-93236257D01*
X92846050Y-93246783D01*
X92851949Y-93262945D01*
X92846931Y-93294010D01*
X92846844Y-93294398D01*
X92838003Y-93329537D01*
X92827735Y-93344881D01*
X92808828Y-93345369D01*
X92782642Y-93338382D01*
X92729184Y-93328728D01*
X92669397Y-93326507D01*
X92613307Y-93331435D01*
X92570940Y-93343230D01*
X92568483Y-93344441D01*
X92534568Y-93372701D01*
X92522403Y-93407870D01*
X92531003Y-93445527D01*
X92559385Y-93481248D01*
X92605298Y-93510050D01*
X92695939Y-93551659D01*
X92765469Y-93586893D01*
X92816592Y-93618211D01*
X92852009Y-93648075D01*
X92874424Y-93678943D01*
X92886541Y-93713277D01*
X92891061Y-93753535D01*
X92891350Y-93770400D01*
X92884592Y-93835420D01*
X92861897Y-93884587D01*
X92819634Y-93923760D01*
X92783140Y-93945025D01*
X92751320Y-93959106D01*
X92718344Y-93967621D01*
X92676594Y-93971756D01*
X92618453Y-93972698D01*
X92606084Y-93972623D01*
X92546346Y-93970551D01*
X92490134Y-93965847D01*
X92446493Y-93959368D01*
X92434150Y-93956342D01*
X92403592Y-93944992D01*
X92387381Y-93934726D01*
X92386525Y-93931918D01*
X92389150Y-93913047D01*
X92389894Y-93894225D01*
X92393010Y-93862533D01*
X92404831Y-93845678D01*
X92429880Y-93841878D01*
X92472680Y-93849353D01*
X92491827Y-93854082D01*
X92569412Y-93867871D01*
X92637785Y-93868284D01*
X92693720Y-93856236D01*
X92733996Y-93832639D01*
X92755386Y-93798408D01*
X92758000Y-93778671D01*
X92753214Y-93746974D01*
X92736679Y-93719385D01*
X92705122Y-93693098D01*
X92655274Y-93665309D01*
X92592900Y-93637050D01*
X92541102Y-93613302D01*
X92495296Y-93589413D01*
X92462820Y-93569319D01*
X92455168Y-93563189D01*
X92412103Y-93508450D01*
X92391708Y-93448974D01*
X92392806Y-93388763D01*
X92414219Y-93331819D01*
X92454767Y-93282144D01*
X92513272Y-93243742D01*
X92553676Y-93228584D01*
X92614978Y-93217686D01*
X92687057Y-93215126D01*
X92758750Y-93220589D01*
G37*
X92758750Y-93220589D02*
X92818892Y-93233762D01*
X92825897Y-93236257D01*
X92846050Y-93246783D01*
X92851949Y-93262945D01*
X92846931Y-93294010D01*
X92846844Y-93294398D01*
X92838003Y-93329537D01*
X92827735Y-93344881D01*
X92808828Y-93345369D01*
X92782642Y-93338382D01*
X92729184Y-93328728D01*
X92669397Y-93326507D01*
X92613307Y-93331435D01*
X92570940Y-93343230D01*
X92568483Y-93344441D01*
X92534568Y-93372701D01*
X92522403Y-93407870D01*
X92531003Y-93445527D01*
X92559385Y-93481248D01*
X92605298Y-93510050D01*
X92695939Y-93551659D01*
X92765469Y-93586893D01*
X92816592Y-93618211D01*
X92852009Y-93648075D01*
X92874424Y-93678943D01*
X92886541Y-93713277D01*
X92891061Y-93753535D01*
X92891350Y-93770400D01*
X92884592Y-93835420D01*
X92861897Y-93884587D01*
X92819634Y-93923760D01*
X92783140Y-93945025D01*
X92751320Y-93959106D01*
X92718344Y-93967621D01*
X92676594Y-93971756D01*
X92618453Y-93972698D01*
X92606084Y-93972623D01*
X92546346Y-93970551D01*
X92490134Y-93965847D01*
X92446493Y-93959368D01*
X92434150Y-93956342D01*
X92403592Y-93944992D01*
X92387381Y-93934726D01*
X92386525Y-93931918D01*
X92389150Y-93913047D01*
X92389894Y-93894225D01*
X92393010Y-93862533D01*
X92404831Y-93845678D01*
X92429880Y-93841878D01*
X92472680Y-93849353D01*
X92491827Y-93854082D01*
X92569412Y-93867871D01*
X92637785Y-93868284D01*
X92693720Y-93856236D01*
X92733996Y-93832639D01*
X92755386Y-93798408D01*
X92758000Y-93778671D01*
X92753214Y-93746974D01*
X92736679Y-93719385D01*
X92705122Y-93693098D01*
X92655274Y-93665309D01*
X92592900Y-93637050D01*
X92541102Y-93613302D01*
X92495296Y-93589413D01*
X92462820Y-93569319D01*
X92455168Y-93563189D01*
X92412103Y-93508450D01*
X92391708Y-93448974D01*
X92392806Y-93388763D01*
X92414219Y-93331819D01*
X92454767Y-93282144D01*
X92513272Y-93243742D01*
X92553676Y-93228584D01*
X92614978Y-93217686D01*
X92687057Y-93215126D01*
X92758750Y-93220589D01*
G36*
X92031352Y-93226090D02*
G01*
X92099876Y-93249697D01*
X92153904Y-93290783D01*
X92181792Y-93326103D01*
X92210412Y-93383228D01*
X92233081Y-93454933D01*
X92246915Y-93530585D01*
X92249801Y-93576725D01*
X92250000Y-93630700D01*
X91742635Y-93630700D01*
X91750287Y-93671975D01*
X91770794Y-93744518D01*
X91803341Y-93797034D01*
X91850826Y-93831911D01*
X91916151Y-93851537D01*
X91975703Y-93857557D01*
X92031516Y-93857871D01*
X92084459Y-93854381D01*
X92123777Y-93847831D01*
X92126165Y-93847152D01*
X92158164Y-93838702D01*
X92177810Y-93835663D01*
X92180130Y-93836194D01*
X92183611Y-93850210D01*
X92187479Y-93880020D01*
X92188419Y-93889776D01*
X92189383Y-93922650D01*
X92180407Y-93940370D01*
X92155432Y-93952883D01*
X92148400Y-93955485D01*
X92106949Y-93964634D01*
X92048957Y-93970002D01*
X91982999Y-93971590D01*
X91917649Y-93969395D01*
X91861483Y-93963416D01*
X91827840Y-93955528D01*
X91763188Y-93926113D01*
X91713276Y-93886554D01*
X91678210Y-93844184D01*
X91642819Y-93783595D01*
X91621371Y-93715902D01*
X91611967Y-93634154D01*
X91611158Y-93598950D01*
X91617729Y-93529100D01*
X91751376Y-93529100D01*
X91930838Y-93529100D01*
X92001479Y-93528976D01*
X92050615Y-93528192D01*
X92082140Y-93526125D01*
X92099948Y-93522156D01*
X92107933Y-93515662D01*
X92109991Y-93506023D01*
X92110021Y-93500525D01*
X92104663Y-93471455D01*
X92091564Y-93432774D01*
X92085619Y-93418817D01*
X92051527Y-93369255D01*
X92006203Y-93338620D01*
X91954259Y-93325983D01*
X91900305Y-93330419D01*
X91848955Y-93351000D01*
X91804820Y-93386801D01*
X91772511Y-93436893D01*
X91758609Y-93484529D01*
X91751376Y-93529100D01*
X91617729Y-93529100D01*
X91620994Y-93494394D01*
X91650703Y-93402707D01*
X91699276Y-93325791D01*
X91765704Y-93265555D01*
X91798283Y-93245899D01*
X91837080Y-93229677D01*
X91881743Y-93221140D01*
X91941638Y-93218543D01*
X91945200Y-93218538D01*
X92031352Y-93226090D01*
G37*
X92031352Y-93226090D02*
X92099876Y-93249697D01*
X92153904Y-93290783D01*
X92181792Y-93326103D01*
X92210412Y-93383228D01*
X92233081Y-93454933D01*
X92246915Y-93530585D01*
X92249801Y-93576725D01*
X92250000Y-93630700D01*
X91742635Y-93630700D01*
X91750287Y-93671975D01*
X91770794Y-93744518D01*
X91803341Y-93797034D01*
X91850826Y-93831911D01*
X91916151Y-93851537D01*
X91975703Y-93857557D01*
X92031516Y-93857871D01*
X92084459Y-93854381D01*
X92123777Y-93847831D01*
X92126165Y-93847152D01*
X92158164Y-93838702D01*
X92177810Y-93835663D01*
X92180130Y-93836194D01*
X92183611Y-93850210D01*
X92187479Y-93880020D01*
X92188419Y-93889776D01*
X92189383Y-93922650D01*
X92180407Y-93940370D01*
X92155432Y-93952883D01*
X92148400Y-93955485D01*
X92106949Y-93964634D01*
X92048957Y-93970002D01*
X91982999Y-93971590D01*
X91917649Y-93969395D01*
X91861483Y-93963416D01*
X91827840Y-93955528D01*
X91763188Y-93926113D01*
X91713276Y-93886554D01*
X91678210Y-93844184D01*
X91642819Y-93783595D01*
X91621371Y-93715902D01*
X91611967Y-93634154D01*
X91611158Y-93598950D01*
X91617729Y-93529100D01*
X91751376Y-93529100D01*
X91930838Y-93529100D01*
X92001479Y-93528976D01*
X92050615Y-93528192D01*
X92082140Y-93526125D01*
X92099948Y-93522156D01*
X92107933Y-93515662D01*
X92109991Y-93506023D01*
X92110021Y-93500525D01*
X92104663Y-93471455D01*
X92091564Y-93432774D01*
X92085619Y-93418817D01*
X92051527Y-93369255D01*
X92006203Y-93338620D01*
X91954259Y-93325983D01*
X91900305Y-93330419D01*
X91848955Y-93351000D01*
X91804820Y-93386801D01*
X91772511Y-93436893D01*
X91758609Y-93484529D01*
X91751376Y-93529100D01*
X91617729Y-93529100D01*
X91620994Y-93494394D01*
X91650703Y-93402707D01*
X91699276Y-93325791D01*
X91765704Y-93265555D01*
X91798283Y-93245899D01*
X91837080Y-93229677D01*
X91881743Y-93221140D01*
X91941638Y-93218543D01*
X91945200Y-93218538D01*
X92031352Y-93226090D01*
G36*
X90972979Y-92984551D02*
G01*
X91035530Y-92989529D01*
X91088354Y-92998929D01*
X91123463Y-93008524D01*
X91226817Y-93051838D01*
X91311599Y-93111909D01*
X91377145Y-93188100D01*
X91422794Y-93279774D01*
X91430731Y-93304063D01*
X91445198Y-93379736D01*
X91449657Y-93468292D01*
X91444295Y-93559348D01*
X91429297Y-93642520D01*
X91424368Y-93659884D01*
X91384113Y-93749184D01*
X91323785Y-93824730D01*
X91245186Y-93885683D01*
X91150117Y-93931201D01*
X91040378Y-93960443D01*
X90917770Y-93972570D01*
X90784095Y-93966739D01*
X90770450Y-93965168D01*
X90728697Y-93959528D01*
X90691075Y-93953795D01*
X90649800Y-93947049D01*
X90649800Y-93849341D01*
X90789500Y-93849341D01*
X90932375Y-93844227D01*
X91001850Y-93840764D01*
X91052097Y-93835508D01*
X91089274Y-93827439D01*
X91119540Y-93815540D01*
X91126050Y-93812219D01*
X91197708Y-93763716D01*
X91249894Y-93703251D01*
X91283835Y-93628469D01*
X91300756Y-93537014D01*
X91303245Y-93471950D01*
X91294932Y-93367276D01*
X91270546Y-93281316D01*
X91229102Y-93213114D01*
X91169614Y-93161714D01*
X91091097Y-93126158D01*
X90992564Y-93105491D01*
X90919675Y-93099681D01*
X90789500Y-93094419D01*
X90789500Y-93849341D01*
X90649800Y-93849341D01*
X90649799Y-93473036D01*
X90649799Y-92999023D01*
X90697425Y-92991151D01*
X90729465Y-92987950D01*
X90779541Y-92985349D01*
X90840290Y-92983649D01*
X90892937Y-92983139D01*
X90972979Y-92984551D01*
G37*
X90972979Y-92984551D02*
X91035530Y-92989529D01*
X91088354Y-92998929D01*
X91123463Y-93008524D01*
X91226817Y-93051838D01*
X91311599Y-93111909D01*
X91377145Y-93188100D01*
X91422794Y-93279774D01*
X91430731Y-93304063D01*
X91445198Y-93379736D01*
X91449657Y-93468292D01*
X91444295Y-93559348D01*
X91429297Y-93642520D01*
X91424368Y-93659884D01*
X91384113Y-93749184D01*
X91323785Y-93824730D01*
X91245186Y-93885683D01*
X91150117Y-93931201D01*
X91040378Y-93960443D01*
X90917770Y-93972570D01*
X90784095Y-93966739D01*
X90770450Y-93965168D01*
X90728697Y-93959528D01*
X90691075Y-93953795D01*
X90649800Y-93947049D01*
X90649800Y-93849341D01*
X90789500Y-93849341D01*
X90932375Y-93844227D01*
X91001850Y-93840764D01*
X91052097Y-93835508D01*
X91089274Y-93827439D01*
X91119540Y-93815540D01*
X91126050Y-93812219D01*
X91197708Y-93763716D01*
X91249894Y-93703251D01*
X91283835Y-93628469D01*
X91300756Y-93537014D01*
X91303245Y-93471950D01*
X91294932Y-93367276D01*
X91270546Y-93281316D01*
X91229102Y-93213114D01*
X91169614Y-93161714D01*
X91091097Y-93126158D01*
X90992564Y-93105491D01*
X90919675Y-93099681D01*
X90789500Y-93094419D01*
X90789500Y-93849341D01*
X90649800Y-93849341D01*
X90649799Y-93473036D01*
X90649799Y-92999023D01*
X90697425Y-92991151D01*
X90729465Y-92987950D01*
X90779541Y-92985349D01*
X90840290Y-92983649D01*
X90892937Y-92983139D01*
X90972979Y-92984551D01*
G36*
X97901593Y-92981072D02*
G01*
X98014803Y-93012641D01*
X98113706Y-93063883D01*
X98196910Y-93133677D01*
X98263026Y-93220898D01*
X98310663Y-93324425D01*
X98335221Y-93422226D01*
X98342907Y-93518575D01*
X98334519Y-93612790D01*
X98311553Y-93700165D01*
X98275505Y-93775992D01*
X98227870Y-93835562D01*
X98195910Y-93860564D01*
X98132684Y-93888579D01*
X98065209Y-93898126D01*
X98001687Y-93888507D01*
X97978987Y-93879015D01*
X97954092Y-93868822D01*
X97929383Y-93867742D01*
X97894435Y-93875865D01*
X97881192Y-93879863D01*
X97796326Y-93894756D01*
X97713321Y-93888423D01*
X97636919Y-93862409D01*
X97571863Y-93818261D01*
X97526963Y-93764351D01*
X97506332Y-93727067D01*
X97493913Y-93691519D01*
X97487162Y-93648010D01*
X97484142Y-93601192D01*
X97484212Y-93582689D01*
X97611402Y-93582689D01*
X97620489Y-93648715D01*
X97642922Y-93706952D01*
X97677525Y-93751111D01*
X97696379Y-93764506D01*
X97721723Y-93772269D01*
X97760646Y-93777481D01*
X97805149Y-93779923D01*
X97847234Y-93779376D01*
X97878901Y-93775624D01*
X97891602Y-93769829D01*
X97892497Y-93755814D01*
X97892531Y-93720825D01*
X97891760Y-93669271D01*
X97890240Y-93605561D01*
X97888914Y-93560850D01*
X97882450Y-93357650D01*
X97818950Y-93354188D01*
X97748072Y-93359695D01*
X97692098Y-93385387D01*
X97649450Y-93432118D01*
X97637975Y-93452415D01*
X97616839Y-93515161D01*
X97611402Y-93582689D01*
X97484212Y-93582689D01*
X97484457Y-93518833D01*
X97495124Y-93453858D01*
X97518013Y-93399711D01*
X97554994Y-93349836D01*
X97556171Y-93348525D01*
X97604594Y-93302937D01*
X97656378Y-93273034D01*
X97718080Y-93256297D01*
X97796255Y-93250209D01*
X97812600Y-93250049D01*
X97869398Y-93251536D01*
X97922554Y-93255663D01*
X97962265Y-93261610D01*
X97968175Y-93263067D01*
X98015800Y-93276293D01*
X98017065Y-93494771D01*
X98017838Y-93586123D01*
X98019435Y-93655248D01*
X98022570Y-93705321D01*
X98027961Y-93739517D01*
X98036322Y-93761008D01*
X98048369Y-93772969D01*
X98064818Y-93778573D01*
X98081520Y-93780604D01*
X98117618Y-93779023D01*
X98143210Y-93762846D01*
X98154270Y-93750028D01*
X98186584Y-93691579D01*
X98207554Y-93616964D01*
X98216754Y-93532950D01*
X98213758Y-93446307D01*
X98198140Y-93363801D01*
X98181558Y-93316835D01*
X98143468Y-93253171D01*
X98088199Y-93191224D01*
X98023322Y-93138426D01*
X97967758Y-93106947D01*
X97909388Y-93088406D01*
X97836519Y-93076607D01*
X97810516Y-93074527D01*
X97696618Y-93078978D01*
X97594128Y-93105554D01*
X97504673Y-93152941D01*
X97429885Y-93219820D01*
X97371392Y-93304876D01*
X97330824Y-93406792D01*
X97315992Y-93474082D01*
X97308515Y-93581104D01*
X97319635Y-93686023D01*
X97347766Y-93784538D01*
X97391323Y-93872350D01*
X97448723Y-93945158D01*
X97506747Y-93991745D01*
X97596782Y-94034823D01*
X97700275Y-94061927D01*
X97809956Y-94071769D01*
X97913627Y-94063897D01*
X97963838Y-94057321D01*
X97994289Y-94059563D01*
X98009803Y-94073047D01*
X98015200Y-94100192D01*
X98015605Y-94115116D01*
X98007570Y-94145539D01*
X97993575Y-94157743D01*
X97962226Y-94164677D01*
X97912309Y-94169316D01*
X97850551Y-94171658D01*
X97783680Y-94171700D01*
X97718424Y-94169440D01*
X97661511Y-94164874D01*
X97619669Y-94158001D01*
X97619212Y-94157886D01*
X97501967Y-94116780D01*
X97402689Y-94057902D01*
X97321847Y-93981890D01*
X97259907Y-93889380D01*
X97217337Y-93781010D01*
X97194603Y-93657416D01*
X97190675Y-93573550D01*
X97201208Y-93440875D01*
X97232058Y-93322243D01*
X97282099Y-93218814D01*
X97350208Y-93131748D01*
X97435259Y-93062205D01*
X97536128Y-93011345D01*
X97651690Y-92980329D01*
X97775467Y-92970300D01*
X97901593Y-92981072D01*
G37*
X97901593Y-92981072D02*
X98014803Y-93012641D01*
X98113706Y-93063883D01*
X98196910Y-93133677D01*
X98263026Y-93220898D01*
X98310663Y-93324425D01*
X98335221Y-93422226D01*
X98342907Y-93518575D01*
X98334519Y-93612790D01*
X98311553Y-93700165D01*
X98275505Y-93775992D01*
X98227870Y-93835562D01*
X98195910Y-93860564D01*
X98132684Y-93888579D01*
X98065209Y-93898126D01*
X98001687Y-93888507D01*
X97978987Y-93879015D01*
X97954092Y-93868822D01*
X97929383Y-93867742D01*
X97894435Y-93875865D01*
X97881192Y-93879863D01*
X97796326Y-93894756D01*
X97713321Y-93888423D01*
X97636919Y-93862409D01*
X97571863Y-93818261D01*
X97526963Y-93764351D01*
X97506332Y-93727067D01*
X97493913Y-93691519D01*
X97487162Y-93648010D01*
X97484142Y-93601192D01*
X97484212Y-93582689D01*
X97611402Y-93582689D01*
X97620489Y-93648715D01*
X97642922Y-93706952D01*
X97677525Y-93751111D01*
X97696379Y-93764506D01*
X97721723Y-93772269D01*
X97760646Y-93777481D01*
X97805149Y-93779923D01*
X97847234Y-93779376D01*
X97878901Y-93775624D01*
X97891602Y-93769829D01*
X97892497Y-93755814D01*
X97892531Y-93720825D01*
X97891760Y-93669271D01*
X97890240Y-93605561D01*
X97888914Y-93560850D01*
X97882450Y-93357650D01*
X97818950Y-93354188D01*
X97748072Y-93359695D01*
X97692098Y-93385387D01*
X97649450Y-93432118D01*
X97637975Y-93452415D01*
X97616839Y-93515161D01*
X97611402Y-93582689D01*
X97484212Y-93582689D01*
X97484457Y-93518833D01*
X97495124Y-93453858D01*
X97518013Y-93399711D01*
X97554994Y-93349836D01*
X97556171Y-93348525D01*
X97604594Y-93302937D01*
X97656378Y-93273034D01*
X97718080Y-93256297D01*
X97796255Y-93250209D01*
X97812600Y-93250049D01*
X97869398Y-93251536D01*
X97922554Y-93255663D01*
X97962265Y-93261610D01*
X97968175Y-93263067D01*
X98015800Y-93276293D01*
X98017065Y-93494771D01*
X98017838Y-93586123D01*
X98019435Y-93655248D01*
X98022570Y-93705321D01*
X98027961Y-93739517D01*
X98036322Y-93761008D01*
X98048369Y-93772969D01*
X98064818Y-93778573D01*
X98081520Y-93780604D01*
X98117618Y-93779023D01*
X98143210Y-93762846D01*
X98154270Y-93750028D01*
X98186584Y-93691579D01*
X98207554Y-93616964D01*
X98216754Y-93532950D01*
X98213758Y-93446307D01*
X98198140Y-93363801D01*
X98181558Y-93316835D01*
X98143468Y-93253171D01*
X98088199Y-93191224D01*
X98023322Y-93138426D01*
X97967758Y-93106947D01*
X97909388Y-93088406D01*
X97836519Y-93076607D01*
X97810516Y-93074527D01*
X97696618Y-93078978D01*
X97594128Y-93105554D01*
X97504673Y-93152941D01*
X97429885Y-93219820D01*
X97371392Y-93304876D01*
X97330824Y-93406792D01*
X97315992Y-93474082D01*
X97308515Y-93581104D01*
X97319635Y-93686023D01*
X97347766Y-93784538D01*
X97391323Y-93872350D01*
X97448723Y-93945158D01*
X97506747Y-93991745D01*
X97596782Y-94034823D01*
X97700275Y-94061927D01*
X97809956Y-94071769D01*
X97913627Y-94063897D01*
X97963838Y-94057321D01*
X97994289Y-94059563D01*
X98009803Y-94073047D01*
X98015200Y-94100192D01*
X98015605Y-94115116D01*
X98007570Y-94145539D01*
X97993575Y-94157743D01*
X97962226Y-94164677D01*
X97912309Y-94169316D01*
X97850551Y-94171658D01*
X97783680Y-94171700D01*
X97718424Y-94169440D01*
X97661511Y-94164874D01*
X97619669Y-94158001D01*
X97619212Y-94157886D01*
X97501967Y-94116780D01*
X97402689Y-94057902D01*
X97321847Y-93981890D01*
X97259907Y-93889380D01*
X97217337Y-93781010D01*
X97194603Y-93657416D01*
X97190675Y-93573550D01*
X97201208Y-93440875D01*
X97232058Y-93322243D01*
X97282099Y-93218814D01*
X97350208Y-93131748D01*
X97435259Y-93062205D01*
X97536128Y-93011345D01*
X97651690Y-92980329D01*
X97775467Y-92970300D01*
X97901593Y-92981072D01*
G36*
X98676129Y-93627525D02*
G01*
X98675621Y-93750110D01*
X98674183Y-93855797D01*
X98671873Y-93942745D01*
X98668750Y-94009118D01*
X98664873Y-94053075D01*
X98662120Y-94068254D01*
X98633039Y-94128425D01*
X98585445Y-94176429D01*
X98524332Y-94209712D01*
X98454696Y-94225725D01*
X98381532Y-94221915D01*
X98367546Y-94218714D01*
X98352635Y-94209147D01*
X98347610Y-94186453D01*
X98348496Y-94161776D01*
X98352350Y-94110776D01*
X98417294Y-94108679D01*
X98459034Y-94104236D01*
X98492315Y-94095285D01*
X98502801Y-94089516D01*
X98515433Y-94075684D01*
X98525610Y-94055602D01*
X98533580Y-94026682D01*
X98539594Y-93986333D01*
X98543900Y-93931967D01*
X98546749Y-93860992D01*
X98548388Y-93770819D01*
X98549069Y-93658858D01*
X98549129Y-93608475D01*
X98549200Y-93237000D01*
X98676200Y-93237000D01*
X98676129Y-93627525D01*
G37*
X98676129Y-93627525D02*
X98675621Y-93750110D01*
X98674183Y-93855797D01*
X98671873Y-93942745D01*
X98668750Y-94009118D01*
X98664873Y-94053075D01*
X98662120Y-94068254D01*
X98633039Y-94128425D01*
X98585445Y-94176429D01*
X98524332Y-94209712D01*
X98454696Y-94225725D01*
X98381532Y-94221915D01*
X98367546Y-94218714D01*
X98352635Y-94209147D01*
X98347610Y-94186453D01*
X98348496Y-94161776D01*
X98352350Y-94110776D01*
X98417294Y-94108679D01*
X98459034Y-94104236D01*
X98492315Y-94095285D01*
X98502801Y-94089516D01*
X98515433Y-94075684D01*
X98525610Y-94055602D01*
X98533580Y-94026682D01*
X98539594Y-93986333D01*
X98543900Y-93931967D01*
X98546749Y-93860992D01*
X98548388Y-93770819D01*
X98549069Y-93658858D01*
X98549129Y-93608475D01*
X98549200Y-93237000D01*
X98676200Y-93237000D01*
X98676129Y-93627525D01*
G36*
X96250704Y-93290975D02*
G01*
X96265545Y-93343715D01*
X96285332Y-93406953D01*
X96308577Y-93476651D01*
X96333792Y-93548773D01*
X96359488Y-93619283D01*
X96384174Y-93684146D01*
X96406363Y-93739323D01*
X96424566Y-93780780D01*
X96437294Y-93804480D01*
X96441614Y-93808500D01*
X96448626Y-93796922D01*
X96460959Y-93764938D01*
X96477342Y-93716669D01*
X96496500Y-93656238D01*
X96517163Y-93587767D01*
X96538056Y-93515378D01*
X96557908Y-93443195D01*
X96575445Y-93375338D01*
X96575894Y-93373525D01*
X96609673Y-93237000D01*
X96679095Y-93237000D01*
X96719064Y-93238196D01*
X96738524Y-93242796D01*
X96742297Y-93252312D01*
X96741050Y-93256458D01*
X96734108Y-93278543D01*
X96723551Y-93316441D01*
X96713484Y-93354883D01*
X96685339Y-93457781D01*
X96651915Y-93567432D01*
X96614976Y-93678966D01*
X96576287Y-93787515D01*
X96537612Y-93888210D01*
X96500713Y-93976180D01*
X96467357Y-94046558D01*
X96453952Y-94071227D01*
X96399599Y-94142716D01*
X96332325Y-94193308D01*
X96254878Y-94221802D01*
X96170007Y-94226995D01*
X96117150Y-94218544D01*
X96089062Y-94207820D01*
X96079119Y-94189331D01*
X96084037Y-94155997D01*
X96085541Y-94150408D01*
X96097876Y-94105732D01*
X96177363Y-94110205D01*
X96248556Y-94106783D01*
X96302978Y-94086279D01*
X96344092Y-94046962D01*
X96361476Y-94018286D01*
X96384712Y-93972994D01*
X96322601Y-93843122D01*
X96252916Y-93689165D01*
X96191420Y-93536767D01*
X96141398Y-93394192D01*
X96131407Y-93362163D01*
X96116667Y-93312780D01*
X96105268Y-93273069D01*
X96098888Y-93248947D01*
X96098100Y-93244688D01*
X96109584Y-93240464D01*
X96139188Y-93237671D01*
X96167460Y-93237000D01*
X96236820Y-93237000D01*
X96250704Y-93290975D01*
G37*
X96250704Y-93290975D02*
X96265545Y-93343715D01*
X96285332Y-93406953D01*
X96308577Y-93476651D01*
X96333792Y-93548773D01*
X96359488Y-93619283D01*
X96384174Y-93684146D01*
X96406363Y-93739323D01*
X96424566Y-93780780D01*
X96437294Y-93804480D01*
X96441614Y-93808500D01*
X96448626Y-93796922D01*
X96460959Y-93764938D01*
X96477342Y-93716669D01*
X96496500Y-93656238D01*
X96517163Y-93587767D01*
X96538056Y-93515378D01*
X96557908Y-93443195D01*
X96575445Y-93375338D01*
X96575894Y-93373525D01*
X96609673Y-93237000D01*
X96679095Y-93237000D01*
X96719064Y-93238196D01*
X96738524Y-93242796D01*
X96742297Y-93252312D01*
X96741050Y-93256458D01*
X96734108Y-93278543D01*
X96723551Y-93316441D01*
X96713484Y-93354883D01*
X96685339Y-93457781D01*
X96651915Y-93567432D01*
X96614976Y-93678966D01*
X96576287Y-93787515D01*
X96537612Y-93888210D01*
X96500713Y-93976180D01*
X96467357Y-94046558D01*
X96453952Y-94071227D01*
X96399599Y-94142716D01*
X96332325Y-94193308D01*
X96254878Y-94221802D01*
X96170007Y-94226995D01*
X96117150Y-94218544D01*
X96089062Y-94207820D01*
X96079119Y-94189331D01*
X96084037Y-94155997D01*
X96085541Y-94150408D01*
X96097876Y-94105732D01*
X96177363Y-94110205D01*
X96248556Y-94106783D01*
X96302978Y-94086279D01*
X96344092Y-94046962D01*
X96361476Y-94018286D01*
X96384712Y-93972994D01*
X96322601Y-93843122D01*
X96252916Y-93689165D01*
X96191420Y-93536767D01*
X96141398Y-93394192D01*
X96131407Y-93362163D01*
X96116667Y-93312780D01*
X96105268Y-93273069D01*
X96098888Y-93248947D01*
X96098100Y-93244688D01*
X96109584Y-93240464D01*
X96139188Y-93237671D01*
X96167460Y-93237000D01*
X96236820Y-93237000D01*
X96250704Y-93290975D01*
G36*
X93803577Y-93220222D02*
G01*
X93895208Y-93229836D01*
X93930554Y-93236006D01*
X94017259Y-93252945D01*
X94013104Y-93629147D01*
X94011807Y-93737673D01*
X94010432Y-93823932D01*
X94008754Y-93891055D01*
X94006551Y-93942174D01*
X94003597Y-93980423D01*
X93999669Y-94008931D01*
X93994542Y-94030833D01*
X93987993Y-94049260D01*
X93982100Y-94062500D01*
X93944646Y-94124315D01*
X93896522Y-94169395D01*
X93834303Y-94199579D01*
X93754564Y-94216706D01*
X93685100Y-94221960D01*
X93631160Y-94222989D01*
X93583606Y-94222383D01*
X93550772Y-94220291D01*
X93545400Y-94219468D01*
X93510965Y-94211898D01*
X93470281Y-94201978D01*
X93467401Y-94201236D01*
X93421153Y-94189262D01*
X93433172Y-94135768D01*
X93441028Y-94102604D01*
X93446596Y-94082355D01*
X93447688Y-94079778D01*
X93460240Y-94081328D01*
X93490083Y-94087927D01*
X93519609Y-94095291D01*
X93608743Y-94111220D01*
X93691389Y-94112230D01*
X93763189Y-94098907D01*
X93819786Y-94071842D01*
X93842526Y-94051681D01*
X93853487Y-94031097D01*
X93864097Y-93998291D01*
X93872784Y-93960948D01*
X93877976Y-93926752D01*
X93878102Y-93903389D01*
X93874040Y-93897591D01*
X93860243Y-93901616D01*
X93831337Y-93911490D01*
X93818450Y-93916083D01*
X93732071Y-93934949D01*
X93646677Y-93931080D01*
X93566540Y-93906125D01*
X93495932Y-93861736D01*
X93439126Y-93799562D01*
X93416504Y-93760841D01*
X93396434Y-93699748D01*
X93386181Y-93624672D01*
X93386055Y-93595250D01*
X93520000Y-93595250D01*
X93530496Y-93673925D01*
X93560014Y-93737872D01*
X93605597Y-93785096D01*
X93664289Y-93813602D01*
X93733133Y-93821394D01*
X93809171Y-93806478D01*
X93824542Y-93800771D01*
X93875600Y-93780342D01*
X93875600Y-93341880D01*
X93802575Y-93334057D01*
X93718877Y-93332623D01*
X93651226Y-93348722D01*
X93596564Y-93383146D01*
X93590079Y-93389177D01*
X93550645Y-93441661D01*
X93527680Y-93508257D01*
X93520006Y-93592428D01*
X93520000Y-93595250D01*
X93386055Y-93595250D01*
X93385838Y-93545092D01*
X93395495Y-93470488D01*
X93413169Y-93414657D01*
X93461197Y-93339322D01*
X93526937Y-93277914D01*
X93583357Y-93245005D01*
X93641307Y-93227971D01*
X93716828Y-93219655D01*
X93803577Y-93220222D01*
G37*
X93803577Y-93220222D02*
X93895208Y-93229836D01*
X93930554Y-93236006D01*
X94017259Y-93252945D01*
X94013104Y-93629147D01*
X94011807Y-93737673D01*
X94010432Y-93823932D01*
X94008754Y-93891055D01*
X94006551Y-93942174D01*
X94003597Y-93980423D01*
X93999669Y-94008931D01*
X93994542Y-94030833D01*
X93987993Y-94049260D01*
X93982100Y-94062500D01*
X93944646Y-94124315D01*
X93896522Y-94169395D01*
X93834303Y-94199579D01*
X93754564Y-94216706D01*
X93685100Y-94221960D01*
X93631160Y-94222989D01*
X93583606Y-94222383D01*
X93550772Y-94220291D01*
X93545400Y-94219468D01*
X93510965Y-94211898D01*
X93470281Y-94201978D01*
X93467401Y-94201236D01*
X93421153Y-94189262D01*
X93433172Y-94135768D01*
X93441028Y-94102604D01*
X93446596Y-94082355D01*
X93447688Y-94079778D01*
X93460240Y-94081328D01*
X93490083Y-94087927D01*
X93519609Y-94095291D01*
X93608743Y-94111220D01*
X93691389Y-94112230D01*
X93763189Y-94098907D01*
X93819786Y-94071842D01*
X93842526Y-94051681D01*
X93853487Y-94031097D01*
X93864097Y-93998291D01*
X93872784Y-93960948D01*
X93877976Y-93926752D01*
X93878102Y-93903389D01*
X93874040Y-93897591D01*
X93860243Y-93901616D01*
X93831337Y-93911490D01*
X93818450Y-93916083D01*
X93732071Y-93934949D01*
X93646677Y-93931080D01*
X93566540Y-93906125D01*
X93495932Y-93861736D01*
X93439126Y-93799562D01*
X93416504Y-93760841D01*
X93396434Y-93699748D01*
X93386181Y-93624672D01*
X93386055Y-93595250D01*
X93520000Y-93595250D01*
X93530496Y-93673925D01*
X93560014Y-93737872D01*
X93605597Y-93785096D01*
X93664289Y-93813602D01*
X93733133Y-93821394D01*
X93809171Y-93806478D01*
X93824542Y-93800771D01*
X93875600Y-93780342D01*
X93875600Y-93341880D01*
X93802575Y-93334057D01*
X93718877Y-93332623D01*
X93651226Y-93348722D01*
X93596564Y-93383146D01*
X93590079Y-93389177D01*
X93550645Y-93441661D01*
X93527680Y-93508257D01*
X93520006Y-93592428D01*
X93520000Y-93595250D01*
X93386055Y-93595250D01*
X93385838Y-93545092D01*
X93395495Y-93470488D01*
X93413169Y-93414657D01*
X93461197Y-93339322D01*
X93526937Y-93277914D01*
X93583357Y-93245005D01*
X93641307Y-93227971D01*
X93716828Y-93219655D01*
X93803577Y-93220222D01*
D13*
X100685000Y-100010000D02*
X101160000Y-100010000D01*
X96940000Y-95790000D02*
X96940000Y-96265000D01*
X97415000Y-95790000D02*
X96940000Y-95790000D01*
X101160000Y-95790000D02*
X101160000Y-96265000D01*
X100685000Y-95790000D02*
X101160000Y-95790000D01*
X96940000Y-100010000D02*
X96940000Y-99535000D01*
X97415000Y-100010000D02*
X96940000Y-100010000D01*
X91300000Y-113850000D02*
X91300000Y-114550000D01*
X96850000Y-119850000D02*
X93350000Y-119850000D01*
X93350000Y-116750000D02*
X96850000Y-116750000D01*
X94150000Y-120500000D02*
X94150000Y-119850000D01*
X96050000Y-120500000D02*
X94150000Y-120500000D01*
X96050000Y-119850000D02*
X96050000Y-120500000D01*
X111650000Y-119850000D02*
X108150000Y-119850000D01*
X108150000Y-116750000D02*
X111650000Y-116750000D01*
X108950000Y-120500000D02*
X108950000Y-119850000D01*
X110850000Y-120500000D02*
X108950000Y-120500000D01*
X110850000Y-119850000D02*
X110850000Y-120500000D01*
X101640000Y-113910000D02*
X101640000Y-115200000D01*
X101190000Y-113910000D02*
X101640000Y-113910000D01*
X101190000Y-113460000D02*
X101190000Y-113910000D01*
X101190000Y-106690000D02*
X101640000Y-106690000D01*
X101190000Y-107140000D02*
X101190000Y-106690000D01*
X108410000Y-113910000D02*
X107960000Y-113910000D01*
X108410000Y-113460000D02*
X108410000Y-113910000D01*
X108410000Y-106690000D02*
X107960000Y-106690000D01*
X108410000Y-107140000D02*
X108410000Y-106690000D01*
X91000000Y-115750000D02*
X91000000Y-115450000D01*
X96150000Y-98650000D02*
X95850000Y-98650000D01*
X93050000Y-97500000D02*
X94050000Y-97500000D01*
X95756066Y-101443934D02*
X95543934Y-101656066D01*
X96193934Y-101006066D02*
X96406066Y-100793934D01*
X90550000Y-103900000D02*
X90550000Y-104200000D01*
X111150000Y-110200000D02*
X110850000Y-110200000D01*
X89000000Y-106650000D02*
X89000000Y-106350000D01*
X87593934Y-108006066D02*
X87806066Y-107793934D01*
X92106066Y-111506066D02*
X91893934Y-111293934D01*
X93143934Y-112156066D02*
X93356066Y-111943934D01*
X93550000Y-115800000D02*
X93250000Y-115800000D01*
X93650000Y-102800000D02*
X93950000Y-102800000D01*
X91000000Y-117550000D02*
X91000000Y-117250000D01*
X92550000Y-115600000D02*
X92250000Y-115600000D01*
X92900000Y-107300000D02*
X92900000Y-107600000D01*
X99750000Y-103750000D02*
X100050000Y-103750000D01*
X102700000Y-95150000D02*
X102700000Y-95450000D01*
X108000000Y-104800000D02*
X108000000Y-104500000D01*
X98850000Y-119100000D02*
X98850000Y-119400000D01*
X101850000Y-103650000D02*
X101850000Y-103950000D01*
X101750000Y-102750000D02*
X101750000Y-103050000D01*
X111100000Y-104900000D02*
X110800000Y-104900000D01*
X109850000Y-104000000D02*
X110150000Y-104000000D01*
X108100000Y-116350000D02*
X108100000Y-116050000D01*
X102000000Y-100150000D02*
X102000000Y-100450000D01*
X102050000Y-101400000D02*
X102050000Y-101100000D01*
X98100000Y-101200000D02*
X98100000Y-100900000D01*
X112300000Y-105250000D02*
X112300000Y-104950000D01*
X87300000Y-106650000D02*
X87300000Y-106350000D01*
X91506066Y-110806066D02*
X91293934Y-110593934D01*
X91000000Y-119350000D02*
X91000000Y-119050000D01*
X86950000Y-110050000D02*
X86650000Y-110050000D01*
X91000000Y-118450000D02*
X91000000Y-118150000D01*
X90350000Y-112300000D02*
X90650000Y-112300000D01*
X100000000Y-105900000D02*
X100700000Y-105900000D01*
X106350000Y-116500000D02*
X106650000Y-116500000D01*
X88400000Y-110100000D02*
X88400000Y-110400000D01*
X99850000Y-101150000D02*
X99850000Y-101450000D01*
X99600000Y-113850000D02*
X99600000Y-114150000D01*
X109450000Y-106500000D02*
X109450000Y-106800000D01*
X98252513Y-111852513D02*
X98747487Y-112347487D01*
X102250000Y-104800000D02*
X102250000Y-104500000D01*
X108400000Y-115050000D02*
X108700000Y-115050000D01*
X97047487Y-114047487D02*
X96552513Y-113552513D01*
X95990000Y-103200000D02*
X95990000Y-105650000D01*
X99210000Y-105000000D02*
X99210000Y-103200000D01*
X112760000Y-108980000D02*
X111300000Y-108980000D01*
X112760000Y-105820000D02*
X110600000Y-105820000D01*
X112760000Y-105820000D02*
X112760000Y-106750000D01*
X112760000Y-108980000D02*
X112760000Y-108050000D01*
X90795980Y-110424407D02*
X92528391Y-108691995D01*
X89791888Y-106874731D02*
X88519096Y-108147523D01*
X92844294Y-110838406D02*
X93692822Y-109989878D01*
X95672721Y-113666833D02*
X92844294Y-110838406D01*
X96238406Y-107444294D02*
X98147595Y-109353482D01*
X95389878Y-108292822D02*
X96238406Y-107444294D01*
X105010000Y-98900000D02*
X105010000Y-96450000D01*
X101790000Y-97100000D02*
X101790000Y-98900000D01*
X93170000Y-102970000D02*
X93170000Y-99200000D01*
X89630000Y-99430000D02*
X89630000Y-102970000D01*
X93170000Y-102970000D02*
X92800000Y-102970000D01*
X89630000Y-102970000D02*
X90000000Y-102970000D01*
X89630000Y-99430000D02*
X90000000Y-99430000D01*
X94380000Y-104590000D02*
X94380000Y-106050000D01*
X91220000Y-104590000D02*
X91220000Y-106750000D01*
X91220000Y-104590000D02*
X92150000Y-104590000D01*
X94380000Y-104590000D02*
X93450000Y-104590000D01*
D11*
X106000000Y-94300000D02*
X106000000Y-93800000D01*
X106000000Y-102800000D02*
X106000000Y-102300000D01*
X108500000Y-102800000D02*
X110500000Y-102800000D01*
X110500000Y-93800000D02*
X108500000Y-93800000D01*
X112500000Y-93800000D02*
X114195000Y-93800000D01*
X114195000Y-102800000D02*
X112500000Y-102800000D01*
X114195000Y-93800000D02*
X114195000Y-102800000D01*
D13*
X89600000Y-98900000D02*
X89600000Y-95050000D01*
X91600000Y-98900000D02*
X91600000Y-95050000D01*
X89600000Y-98900000D02*
X91600000Y-98900000D01*
D10*
X100657142Y-95203571D02*
X100657142Y-95567857D01*
X100678571Y-95610714D01*
X100700000Y-95632142D01*
X100742857Y-95653571D01*
X100828571Y-95653571D01*
X100871428Y-95632142D01*
X100892857Y-95610714D01*
X100914285Y-95567857D01*
X100914285Y-95203571D01*
X101085714Y-95203571D02*
X101364285Y-95203571D01*
X101214285Y-95375000D01*
X101278571Y-95375000D01*
X101321428Y-95396428D01*
X101342857Y-95417857D01*
X101364285Y-95460714D01*
X101364285Y-95567857D01*
X101342857Y-95610714D01*
X101321428Y-95632142D01*
X101278571Y-95653571D01*
X101150000Y-95653571D01*
X101107142Y-95632142D01*
X101085714Y-95610714D01*
X92875000Y-114110714D02*
X92853571Y-114132142D01*
X92789285Y-114153571D01*
X92746428Y-114153571D01*
X92682142Y-114132142D01*
X92639285Y-114089285D01*
X92617857Y-114046428D01*
X92596428Y-113960714D01*
X92596428Y-113896428D01*
X92617857Y-113810714D01*
X92639285Y-113767857D01*
X92682142Y-113725000D01*
X92746428Y-113703571D01*
X92789285Y-113703571D01*
X92853571Y-113725000D01*
X92875000Y-113746428D01*
X93089285Y-114153571D02*
X93175000Y-114153571D01*
X93217857Y-114132142D01*
X93239285Y-114110714D01*
X93282142Y-114046428D01*
X93303571Y-113960714D01*
X93303571Y-113789285D01*
X93282142Y-113746428D01*
X93260714Y-113725000D01*
X93217857Y-113703571D01*
X93132142Y-113703571D01*
X93089285Y-113725000D01*
X93067857Y-113746428D01*
X93046428Y-113789285D01*
X93046428Y-113896428D01*
X93067857Y-113939285D01*
X93089285Y-113960714D01*
X93132142Y-113982142D01*
X93217857Y-113982142D01*
X93260714Y-113960714D01*
X93282142Y-113939285D01*
X93303571Y-113896428D01*
X96600000Y-116482142D02*
X96664285Y-116503571D01*
X96771428Y-116503571D01*
X96814285Y-116482142D01*
X96835714Y-116460714D01*
X96857142Y-116417857D01*
X96857142Y-116375000D01*
X96835714Y-116332142D01*
X96814285Y-116310714D01*
X96771428Y-116289285D01*
X96685714Y-116267857D01*
X96642857Y-116246428D01*
X96621428Y-116225000D01*
X96600000Y-116182142D01*
X96600000Y-116139285D01*
X96621428Y-116096428D01*
X96642857Y-116075000D01*
X96685714Y-116053571D01*
X96792857Y-116053571D01*
X96857142Y-116075000D01*
X97007142Y-116053571D02*
X97114285Y-116503571D01*
X97200000Y-116182142D01*
X97285714Y-116503571D01*
X97392857Y-116053571D01*
X97542857Y-116096428D02*
X97564285Y-116075000D01*
X97607142Y-116053571D01*
X97714285Y-116053571D01*
X97757142Y-116075000D01*
X97778571Y-116096428D01*
X97800000Y-116139285D01*
X97800000Y-116182142D01*
X97778571Y-116246428D01*
X97521428Y-116503571D01*
X97800000Y-116503571D01*
X111400000Y-116482142D02*
X111464285Y-116503571D01*
X111571428Y-116503571D01*
X111614285Y-116482142D01*
X111635714Y-116460714D01*
X111657142Y-116417857D01*
X111657142Y-116375000D01*
X111635714Y-116332142D01*
X111614285Y-116310714D01*
X111571428Y-116289285D01*
X111485714Y-116267857D01*
X111442857Y-116246428D01*
X111421428Y-116225000D01*
X111400000Y-116182142D01*
X111400000Y-116139285D01*
X111421428Y-116096428D01*
X111442857Y-116075000D01*
X111485714Y-116053571D01*
X111592857Y-116053571D01*
X111657142Y-116075000D01*
X111807142Y-116053571D02*
X111914285Y-116503571D01*
X112000000Y-116182142D01*
X112085714Y-116503571D01*
X112192857Y-116053571D01*
X112600000Y-116503571D02*
X112342857Y-116503571D01*
X112471428Y-116503571D02*
X112471428Y-116053571D01*
X112428571Y-116117857D01*
X112385714Y-116160714D01*
X112342857Y-116182142D01*
X100707142Y-114103571D02*
X100707142Y-114467857D01*
X100728571Y-114510714D01*
X100750000Y-114532142D01*
X100792857Y-114553571D01*
X100878571Y-114553571D01*
X100921428Y-114532142D01*
X100942857Y-114510714D01*
X100964285Y-114467857D01*
X100964285Y-114103571D01*
X101371428Y-114253571D02*
X101371428Y-114553571D01*
X101264285Y-114082142D02*
X101157142Y-114403571D01*
X101435714Y-114403571D01*
X91060714Y-115203571D02*
X90910714Y-114989285D01*
X90803571Y-115203571D02*
X90803571Y-114753571D01*
X90975000Y-114753571D01*
X91017857Y-114775000D01*
X91039285Y-114796428D01*
X91060714Y-114839285D01*
X91060714Y-114903571D01*
X91039285Y-114946428D01*
X91017857Y-114967857D01*
X90975000Y-114989285D01*
X90803571Y-114989285D01*
X91232142Y-114796428D02*
X91253571Y-114775000D01*
X91296428Y-114753571D01*
X91403571Y-114753571D01*
X91446428Y-114775000D01*
X91467857Y-114796428D01*
X91489285Y-114839285D01*
X91489285Y-114882142D01*
X91467857Y-114946428D01*
X91210714Y-115203571D01*
X91489285Y-115203571D01*
X91875000Y-114903571D02*
X91875000Y-115203571D01*
X91767857Y-114732142D02*
X91660714Y-115053571D01*
X91939285Y-115053571D01*
X95510714Y-97653571D02*
X95360714Y-97439285D01*
X95253571Y-97653571D02*
X95253571Y-97203571D01*
X95425000Y-97203571D01*
X95467857Y-97225000D01*
X95489285Y-97246428D01*
X95510714Y-97289285D01*
X95510714Y-97353571D01*
X95489285Y-97396428D01*
X95467857Y-97417857D01*
X95425000Y-97439285D01*
X95253571Y-97439285D01*
X95682142Y-97246428D02*
X95703571Y-97225000D01*
X95746428Y-97203571D01*
X95853571Y-97203571D01*
X95896428Y-97225000D01*
X95917857Y-97246428D01*
X95939285Y-97289285D01*
X95939285Y-97332142D01*
X95917857Y-97396428D01*
X95660714Y-97653571D01*
X95939285Y-97653571D01*
X96089285Y-97203571D02*
X96367857Y-97203571D01*
X96217857Y-97375000D01*
X96282142Y-97375000D01*
X96325000Y-97396428D01*
X96346428Y-97417857D01*
X96367857Y-97460714D01*
X96367857Y-97567857D01*
X96346428Y-97610714D01*
X96325000Y-97632142D01*
X96282142Y-97653571D01*
X96153571Y-97653571D01*
X96110714Y-97632142D01*
X96089285Y-97610714D01*
X93260714Y-95953571D02*
X93110714Y-95739285D01*
X93003571Y-95953571D02*
X93003571Y-95503571D01*
X93175000Y-95503571D01*
X93217857Y-95525000D01*
X93239285Y-95546428D01*
X93260714Y-95589285D01*
X93260714Y-95653571D01*
X93239285Y-95696428D01*
X93217857Y-95717857D01*
X93175000Y-95739285D01*
X93003571Y-95739285D01*
X93432142Y-95546428D02*
X93453571Y-95525000D01*
X93496428Y-95503571D01*
X93603571Y-95503571D01*
X93646428Y-95525000D01*
X93667857Y-95546428D01*
X93689285Y-95589285D01*
X93689285Y-95632142D01*
X93667857Y-95696428D01*
X93410714Y-95953571D01*
X93689285Y-95953571D01*
X93860714Y-95546428D02*
X93882142Y-95525000D01*
X93925000Y-95503571D01*
X94032142Y-95503571D01*
X94075000Y-95525000D01*
X94096428Y-95546428D01*
X94117857Y-95589285D01*
X94117857Y-95632142D01*
X94096428Y-95696428D01*
X93839285Y-95953571D01*
X94117857Y-95953571D01*
X94210714Y-100853571D02*
X94060714Y-100639285D01*
X93953571Y-100853571D02*
X93953571Y-100403571D01*
X94125000Y-100403571D01*
X94167857Y-100425000D01*
X94189285Y-100446428D01*
X94210714Y-100489285D01*
X94210714Y-100553571D01*
X94189285Y-100596428D01*
X94167857Y-100617857D01*
X94125000Y-100639285D01*
X93953571Y-100639285D01*
X94382142Y-100446428D02*
X94403571Y-100425000D01*
X94446428Y-100403571D01*
X94553571Y-100403571D01*
X94596428Y-100425000D01*
X94617857Y-100446428D01*
X94639285Y-100489285D01*
X94639285Y-100532142D01*
X94617857Y-100596428D01*
X94360714Y-100853571D01*
X94639285Y-100853571D01*
X95067857Y-100853571D02*
X94810714Y-100853571D01*
X94939285Y-100853571D02*
X94939285Y-100403571D01*
X94896428Y-100467857D01*
X94853571Y-100510714D01*
X94810714Y-100532142D01*
X94860714Y-100253571D02*
X94710714Y-100039285D01*
X94603571Y-100253571D02*
X94603571Y-99803571D01*
X94775000Y-99803571D01*
X94817857Y-99825000D01*
X94839285Y-99846428D01*
X94860714Y-99889285D01*
X94860714Y-99953571D01*
X94839285Y-99996428D01*
X94817857Y-100017857D01*
X94775000Y-100039285D01*
X94603571Y-100039285D01*
X95032142Y-99846428D02*
X95053571Y-99825000D01*
X95096428Y-99803571D01*
X95203571Y-99803571D01*
X95246428Y-99825000D01*
X95267857Y-99846428D01*
X95289285Y-99889285D01*
X95289285Y-99932142D01*
X95267857Y-99996428D01*
X95010714Y-100253571D01*
X95289285Y-100253571D01*
X95567857Y-99803571D02*
X95610714Y-99803571D01*
X95653571Y-99825000D01*
X95675000Y-99846428D01*
X95696428Y-99889285D01*
X95717857Y-99975000D01*
X95717857Y-100082142D01*
X95696428Y-100167857D01*
X95675000Y-100210714D01*
X95653571Y-100232142D01*
X95610714Y-100253571D01*
X95567857Y-100253571D01*
X95525000Y-100232142D01*
X95503571Y-100210714D01*
X95482142Y-100167857D01*
X95460714Y-100082142D01*
X95460714Y-99975000D01*
X95482142Y-99889285D01*
X95503571Y-99846428D01*
X95525000Y-99825000D01*
X95567857Y-99803571D01*
X90160714Y-105053571D02*
X90010714Y-104839285D01*
X89903571Y-105053571D02*
X89903571Y-104603571D01*
X90075000Y-104603571D01*
X90117857Y-104625000D01*
X90139285Y-104646428D01*
X90160714Y-104689285D01*
X90160714Y-104753571D01*
X90139285Y-104796428D01*
X90117857Y-104817857D01*
X90075000Y-104839285D01*
X89903571Y-104839285D01*
X90589285Y-105053571D02*
X90332142Y-105053571D01*
X90460714Y-105053571D02*
X90460714Y-104603571D01*
X90417857Y-104667857D01*
X90375000Y-104710714D01*
X90332142Y-104732142D01*
X90803571Y-105053571D02*
X90889285Y-105053571D01*
X90932142Y-105032142D01*
X90953571Y-105010714D01*
X90996428Y-104946428D01*
X91017857Y-104860714D01*
X91017857Y-104689285D01*
X90996428Y-104646428D01*
X90975000Y-104625000D01*
X90932142Y-104603571D01*
X90846428Y-104603571D01*
X90803571Y-104625000D01*
X90782142Y-104646428D01*
X90760714Y-104689285D01*
X90760714Y-104796428D01*
X90782142Y-104839285D01*
X90803571Y-104860714D01*
X90846428Y-104882142D01*
X90932142Y-104882142D01*
X90975000Y-104860714D01*
X90996428Y-104839285D01*
X91017857Y-104796428D01*
X110710714Y-111603571D02*
X110560714Y-111389285D01*
X110453571Y-111603571D02*
X110453571Y-111153571D01*
X110625000Y-111153571D01*
X110667857Y-111175000D01*
X110689285Y-111196428D01*
X110710714Y-111239285D01*
X110710714Y-111303571D01*
X110689285Y-111346428D01*
X110667857Y-111367857D01*
X110625000Y-111389285D01*
X110453571Y-111389285D01*
X111139285Y-111603571D02*
X110882142Y-111603571D01*
X111010714Y-111603571D02*
X111010714Y-111153571D01*
X110967857Y-111217857D01*
X110925000Y-111260714D01*
X110882142Y-111282142D01*
X111396428Y-111346428D02*
X111353571Y-111325000D01*
X111332142Y-111303571D01*
X111310714Y-111260714D01*
X111310714Y-111239285D01*
X111332142Y-111196428D01*
X111353571Y-111175000D01*
X111396428Y-111153571D01*
X111482142Y-111153571D01*
X111525000Y-111175000D01*
X111546428Y-111196428D01*
X111567857Y-111239285D01*
X111567857Y-111260714D01*
X111546428Y-111303571D01*
X111525000Y-111325000D01*
X111482142Y-111346428D01*
X111396428Y-111346428D01*
X111353571Y-111367857D01*
X111332142Y-111389285D01*
X111310714Y-111432142D01*
X111310714Y-111517857D01*
X111332142Y-111560714D01*
X111353571Y-111582142D01*
X111396428Y-111603571D01*
X111482142Y-111603571D01*
X111525000Y-111582142D01*
X111546428Y-111560714D01*
X111567857Y-111517857D01*
X111567857Y-111432142D01*
X111546428Y-111389285D01*
X111525000Y-111367857D01*
X111482142Y-111346428D01*
X89810714Y-105953571D02*
X89660714Y-105739285D01*
X89553571Y-105953571D02*
X89553571Y-105503571D01*
X89725000Y-105503571D01*
X89767857Y-105525000D01*
X89789285Y-105546428D01*
X89810714Y-105589285D01*
X89810714Y-105653571D01*
X89789285Y-105696428D01*
X89767857Y-105717857D01*
X89725000Y-105739285D01*
X89553571Y-105739285D01*
X90239285Y-105953571D02*
X89982142Y-105953571D01*
X90110714Y-105953571D02*
X90110714Y-105503571D01*
X90067857Y-105567857D01*
X90025000Y-105610714D01*
X89982142Y-105632142D01*
X90389285Y-105503571D02*
X90689285Y-105503571D01*
X90496428Y-105953571D01*
X87110714Y-109103571D02*
X86960714Y-108889285D01*
X86853571Y-109103571D02*
X86853571Y-108653571D01*
X87025000Y-108653571D01*
X87067857Y-108675000D01*
X87089285Y-108696428D01*
X87110714Y-108739285D01*
X87110714Y-108803571D01*
X87089285Y-108846428D01*
X87067857Y-108867857D01*
X87025000Y-108889285D01*
X86853571Y-108889285D01*
X87539285Y-109103571D02*
X87282142Y-109103571D01*
X87410714Y-109103571D02*
X87410714Y-108653571D01*
X87367857Y-108717857D01*
X87325000Y-108760714D01*
X87282142Y-108782142D01*
X87925000Y-108653571D02*
X87839285Y-108653571D01*
X87796428Y-108675000D01*
X87775000Y-108696428D01*
X87732142Y-108760714D01*
X87710714Y-108846428D01*
X87710714Y-109017857D01*
X87732142Y-109060714D01*
X87753571Y-109082142D01*
X87796428Y-109103571D01*
X87882142Y-109103571D01*
X87925000Y-109082142D01*
X87946428Y-109060714D01*
X87967857Y-109017857D01*
X87967857Y-108910714D01*
X87946428Y-108867857D01*
X87925000Y-108846428D01*
X87882142Y-108825000D01*
X87796428Y-108825000D01*
X87753571Y-108846428D01*
X87732142Y-108867857D01*
X87710714Y-108910714D01*
X91460714Y-112653571D02*
X91310714Y-112439285D01*
X91203571Y-112653571D02*
X91203571Y-112203571D01*
X91375000Y-112203571D01*
X91417857Y-112225000D01*
X91439285Y-112246428D01*
X91460714Y-112289285D01*
X91460714Y-112353571D01*
X91439285Y-112396428D01*
X91417857Y-112417857D01*
X91375000Y-112439285D01*
X91203571Y-112439285D01*
X91889285Y-112653571D02*
X91632142Y-112653571D01*
X91760714Y-112653571D02*
X91760714Y-112203571D01*
X91717857Y-112267857D01*
X91675000Y-112310714D01*
X91632142Y-112332142D01*
X92296428Y-112203571D02*
X92082142Y-112203571D01*
X92060714Y-112417857D01*
X92082142Y-112396428D01*
X92125000Y-112375000D01*
X92232142Y-112375000D01*
X92275000Y-112396428D01*
X92296428Y-112417857D01*
X92317857Y-112460714D01*
X92317857Y-112567857D01*
X92296428Y-112610714D01*
X92275000Y-112632142D01*
X92232142Y-112653571D01*
X92125000Y-112653571D01*
X92082142Y-112632142D01*
X92060714Y-112610714D01*
X93010714Y-113403571D02*
X92860714Y-113189285D01*
X92753571Y-113403571D02*
X92753571Y-112953571D01*
X92925000Y-112953571D01*
X92967857Y-112975000D01*
X92989285Y-112996428D01*
X93010714Y-113039285D01*
X93010714Y-113103571D01*
X92989285Y-113146428D01*
X92967857Y-113167857D01*
X92925000Y-113189285D01*
X92753571Y-113189285D01*
X93439285Y-113403571D02*
X93182142Y-113403571D01*
X93310714Y-113403571D02*
X93310714Y-112953571D01*
X93267857Y-113017857D01*
X93225000Y-113060714D01*
X93182142Y-113082142D01*
X93825000Y-113103571D02*
X93825000Y-113403571D01*
X93717857Y-112932142D02*
X93610714Y-113253571D01*
X93889285Y-113253571D01*
X94210714Y-115503571D02*
X94060714Y-115289285D01*
X93953571Y-115503571D02*
X93953571Y-115053571D01*
X94125000Y-115053571D01*
X94167857Y-115075000D01*
X94189285Y-115096428D01*
X94210714Y-115139285D01*
X94210714Y-115203571D01*
X94189285Y-115246428D01*
X94167857Y-115267857D01*
X94125000Y-115289285D01*
X93953571Y-115289285D01*
X94639285Y-115503571D02*
X94382142Y-115503571D01*
X94510714Y-115503571D02*
X94510714Y-115053571D01*
X94467857Y-115117857D01*
X94425000Y-115160714D01*
X94382142Y-115182142D01*
X94789285Y-115053571D02*
X95067857Y-115053571D01*
X94917857Y-115225000D01*
X94982142Y-115225000D01*
X95025000Y-115246428D01*
X95046428Y-115267857D01*
X95067857Y-115310714D01*
X95067857Y-115417857D01*
X95046428Y-115460714D01*
X95025000Y-115482142D01*
X94982142Y-115503571D01*
X94853571Y-115503571D01*
X94810714Y-115482142D01*
X94789285Y-115460714D01*
X93610714Y-101853571D02*
X93460714Y-101639285D01*
X93353571Y-101853571D02*
X93353571Y-101403571D01*
X93525000Y-101403571D01*
X93567857Y-101425000D01*
X93589285Y-101446428D01*
X93610714Y-101489285D01*
X93610714Y-101553571D01*
X93589285Y-101596428D01*
X93567857Y-101617857D01*
X93525000Y-101639285D01*
X93353571Y-101639285D01*
X94039285Y-101853571D02*
X93782142Y-101853571D01*
X93910714Y-101853571D02*
X93910714Y-101403571D01*
X93867857Y-101467857D01*
X93825000Y-101510714D01*
X93782142Y-101532142D01*
X94210714Y-101446428D02*
X94232142Y-101425000D01*
X94275000Y-101403571D01*
X94382142Y-101403571D01*
X94425000Y-101425000D01*
X94446428Y-101446428D01*
X94467857Y-101489285D01*
X94467857Y-101532142D01*
X94446428Y-101596428D01*
X94189285Y-101853571D01*
X94467857Y-101853571D01*
X90710714Y-116453571D02*
X90560714Y-116239285D01*
X90453571Y-116453571D02*
X90453571Y-116003571D01*
X90625000Y-116003571D01*
X90667857Y-116025000D01*
X90689285Y-116046428D01*
X90710714Y-116089285D01*
X90710714Y-116153571D01*
X90689285Y-116196428D01*
X90667857Y-116217857D01*
X90625000Y-116239285D01*
X90453571Y-116239285D01*
X91139285Y-116453571D02*
X90882142Y-116453571D01*
X91010714Y-116453571D02*
X91010714Y-116003571D01*
X90967857Y-116067857D01*
X90925000Y-116110714D01*
X90882142Y-116132142D01*
X91567857Y-116453571D02*
X91310714Y-116453571D01*
X91439285Y-116453571D02*
X91439285Y-116003571D01*
X91396428Y-116067857D01*
X91353571Y-116110714D01*
X91310714Y-116132142D01*
X93260714Y-114803571D02*
X93110714Y-114589285D01*
X93003571Y-114803571D02*
X93003571Y-114353571D01*
X93175000Y-114353571D01*
X93217857Y-114375000D01*
X93239285Y-114396428D01*
X93260714Y-114439285D01*
X93260714Y-114503571D01*
X93239285Y-114546428D01*
X93217857Y-114567857D01*
X93175000Y-114589285D01*
X93003571Y-114589285D01*
X93689285Y-114803571D02*
X93432142Y-114803571D01*
X93560714Y-114803571D02*
X93560714Y-114353571D01*
X93517857Y-114417857D01*
X93475000Y-114460714D01*
X93432142Y-114482142D01*
X93967857Y-114353571D02*
X94010714Y-114353571D01*
X94053571Y-114375000D01*
X94075000Y-114396428D01*
X94096428Y-114439285D01*
X94117857Y-114525000D01*
X94117857Y-114632142D01*
X94096428Y-114717857D01*
X94075000Y-114760714D01*
X94053571Y-114782142D01*
X94010714Y-114803571D01*
X93967857Y-114803571D01*
X93925000Y-114782142D01*
X93903571Y-114760714D01*
X93882142Y-114717857D01*
X93860714Y-114632142D01*
X93860714Y-114525000D01*
X93882142Y-114439285D01*
X93903571Y-114396428D01*
X93925000Y-114375000D01*
X93967857Y-114353571D01*
X92825000Y-108403571D02*
X92675000Y-108189285D01*
X92567857Y-108403571D02*
X92567857Y-107953571D01*
X92739285Y-107953571D01*
X92782142Y-107975000D01*
X92803571Y-107996428D01*
X92825000Y-108039285D01*
X92825000Y-108103571D01*
X92803571Y-108146428D01*
X92782142Y-108167857D01*
X92739285Y-108189285D01*
X92567857Y-108189285D01*
X93039285Y-108403571D02*
X93125000Y-108403571D01*
X93167857Y-108382142D01*
X93189285Y-108360714D01*
X93232142Y-108296428D01*
X93253571Y-108210714D01*
X93253571Y-108039285D01*
X93232142Y-107996428D01*
X93210714Y-107975000D01*
X93167857Y-107953571D01*
X93082142Y-107953571D01*
X93039285Y-107975000D01*
X93017857Y-107996428D01*
X92996428Y-108039285D01*
X92996428Y-108146428D01*
X93017857Y-108189285D01*
X93039285Y-108210714D01*
X93082142Y-108232142D01*
X93167857Y-108232142D01*
X93210714Y-108210714D01*
X93232142Y-108189285D01*
X93253571Y-108146428D01*
X99825000Y-102803571D02*
X99675000Y-102589285D01*
X99567857Y-102803571D02*
X99567857Y-102353571D01*
X99739285Y-102353571D01*
X99782142Y-102375000D01*
X99803571Y-102396428D01*
X99825000Y-102439285D01*
X99825000Y-102503571D01*
X99803571Y-102546428D01*
X99782142Y-102567857D01*
X99739285Y-102589285D01*
X99567857Y-102589285D01*
X100082142Y-102546428D02*
X100039285Y-102525000D01*
X100017857Y-102503571D01*
X99996428Y-102460714D01*
X99996428Y-102439285D01*
X100017857Y-102396428D01*
X100039285Y-102375000D01*
X100082142Y-102353571D01*
X100167857Y-102353571D01*
X100210714Y-102375000D01*
X100232142Y-102396428D01*
X100253571Y-102439285D01*
X100253571Y-102460714D01*
X100232142Y-102503571D01*
X100210714Y-102525000D01*
X100167857Y-102546428D01*
X100082142Y-102546428D01*
X100039285Y-102567857D01*
X100017857Y-102589285D01*
X99996428Y-102632142D01*
X99996428Y-102717857D01*
X100017857Y-102760714D01*
X100039285Y-102782142D01*
X100082142Y-102803571D01*
X100167857Y-102803571D01*
X100210714Y-102782142D01*
X100232142Y-102760714D01*
X100253571Y-102717857D01*
X100253571Y-102632142D01*
X100232142Y-102589285D01*
X100210714Y-102567857D01*
X100167857Y-102546428D01*
X103925000Y-95353571D02*
X103775000Y-95139285D01*
X103667857Y-95353571D02*
X103667857Y-94903571D01*
X103839285Y-94903571D01*
X103882142Y-94925000D01*
X103903571Y-94946428D01*
X103925000Y-94989285D01*
X103925000Y-95053571D01*
X103903571Y-95096428D01*
X103882142Y-95117857D01*
X103839285Y-95139285D01*
X103667857Y-95139285D01*
X104075000Y-94903571D02*
X104375000Y-94903571D01*
X104182142Y-95353571D01*
X106625000Y-104853571D02*
X106475000Y-104639285D01*
X106367857Y-104853571D02*
X106367857Y-104403571D01*
X106539285Y-104403571D01*
X106582142Y-104425000D01*
X106603571Y-104446428D01*
X106625000Y-104489285D01*
X106625000Y-104553571D01*
X106603571Y-104596428D01*
X106582142Y-104617857D01*
X106539285Y-104639285D01*
X106367857Y-104639285D01*
X107010714Y-104403571D02*
X106925000Y-104403571D01*
X106882142Y-104425000D01*
X106860714Y-104446428D01*
X106817857Y-104510714D01*
X106796428Y-104596428D01*
X106796428Y-104767857D01*
X106817857Y-104810714D01*
X106839285Y-104832142D01*
X106882142Y-104853571D01*
X106967857Y-104853571D01*
X107010714Y-104832142D01*
X107032142Y-104810714D01*
X107053571Y-104767857D01*
X107053571Y-104660714D01*
X107032142Y-104617857D01*
X107010714Y-104596428D01*
X106967857Y-104575000D01*
X106882142Y-104575000D01*
X106839285Y-104596428D01*
X106817857Y-104617857D01*
X106796428Y-104660714D01*
X98775000Y-118703571D02*
X98625000Y-118489285D01*
X98517857Y-118703571D02*
X98517857Y-118253571D01*
X98689285Y-118253571D01*
X98732142Y-118275000D01*
X98753571Y-118296428D01*
X98775000Y-118339285D01*
X98775000Y-118403571D01*
X98753571Y-118446428D01*
X98732142Y-118467857D01*
X98689285Y-118489285D01*
X98517857Y-118489285D01*
X99182142Y-118253571D02*
X98967857Y-118253571D01*
X98946428Y-118467857D01*
X98967857Y-118446428D01*
X99010714Y-118425000D01*
X99117857Y-118425000D01*
X99160714Y-118446428D01*
X99182142Y-118467857D01*
X99203571Y-118510714D01*
X99203571Y-118617857D01*
X99182142Y-118660714D01*
X99160714Y-118682142D01*
X99117857Y-118703571D01*
X99010714Y-118703571D01*
X98967857Y-118682142D01*
X98946428Y-118660714D01*
X103075000Y-104003571D02*
X102925000Y-103789285D01*
X102817857Y-104003571D02*
X102817857Y-103553571D01*
X102989285Y-103553571D01*
X103032142Y-103575000D01*
X103053571Y-103596428D01*
X103075000Y-103639285D01*
X103075000Y-103703571D01*
X103053571Y-103746428D01*
X103032142Y-103767857D01*
X102989285Y-103789285D01*
X102817857Y-103789285D01*
X103460714Y-103703571D02*
X103460714Y-104003571D01*
X103353571Y-103532142D02*
X103246428Y-103853571D01*
X103525000Y-103853571D01*
X102975000Y-103103571D02*
X102825000Y-102889285D01*
X102717857Y-103103571D02*
X102717857Y-102653571D01*
X102889285Y-102653571D01*
X102932142Y-102675000D01*
X102953571Y-102696428D01*
X102975000Y-102739285D01*
X102975000Y-102803571D01*
X102953571Y-102846428D01*
X102932142Y-102867857D01*
X102889285Y-102889285D01*
X102717857Y-102889285D01*
X103125000Y-102653571D02*
X103403571Y-102653571D01*
X103253571Y-102825000D01*
X103317857Y-102825000D01*
X103360714Y-102846428D01*
X103382142Y-102867857D01*
X103403571Y-102910714D01*
X103403571Y-103017857D01*
X103382142Y-103060714D01*
X103360714Y-103082142D01*
X103317857Y-103103571D01*
X103189285Y-103103571D01*
X103146428Y-103082142D01*
X103125000Y-103060714D01*
X110875000Y-103953571D02*
X110725000Y-103739285D01*
X110617857Y-103953571D02*
X110617857Y-103503571D01*
X110789285Y-103503571D01*
X110832142Y-103525000D01*
X110853571Y-103546428D01*
X110875000Y-103589285D01*
X110875000Y-103653571D01*
X110853571Y-103696428D01*
X110832142Y-103717857D01*
X110789285Y-103739285D01*
X110617857Y-103739285D01*
X111046428Y-103546428D02*
X111067857Y-103525000D01*
X111110714Y-103503571D01*
X111217857Y-103503571D01*
X111260714Y-103525000D01*
X111282142Y-103546428D01*
X111303571Y-103589285D01*
X111303571Y-103632142D01*
X111282142Y-103696428D01*
X111025000Y-103953571D01*
X111303571Y-103953571D01*
X109275000Y-105353571D02*
X109125000Y-105139285D01*
X109017857Y-105353571D02*
X109017857Y-104903571D01*
X109189285Y-104903571D01*
X109232142Y-104925000D01*
X109253571Y-104946428D01*
X109275000Y-104989285D01*
X109275000Y-105053571D01*
X109253571Y-105096428D01*
X109232142Y-105117857D01*
X109189285Y-105139285D01*
X109017857Y-105139285D01*
X109703571Y-105353571D02*
X109446428Y-105353571D01*
X109575000Y-105353571D02*
X109575000Y-104903571D01*
X109532142Y-104967857D01*
X109489285Y-105010714D01*
X109446428Y-105032142D01*
X109360714Y-116360714D02*
X109339285Y-116382142D01*
X109275000Y-116403571D01*
X109232142Y-116403571D01*
X109167857Y-116382142D01*
X109125000Y-116339285D01*
X109103571Y-116296428D01*
X109082142Y-116210714D01*
X109082142Y-116146428D01*
X109103571Y-116060714D01*
X109125000Y-116017857D01*
X109167857Y-115975000D01*
X109232142Y-115953571D01*
X109275000Y-115953571D01*
X109339285Y-115975000D01*
X109360714Y-115996428D01*
X109532142Y-115996428D02*
X109553571Y-115975000D01*
X109596428Y-115953571D01*
X109703571Y-115953571D01*
X109746428Y-115975000D01*
X109767857Y-115996428D01*
X109789285Y-116039285D01*
X109789285Y-116082142D01*
X109767857Y-116146428D01*
X109510714Y-116403571D01*
X109789285Y-116403571D01*
X109960714Y-115996428D02*
X109982142Y-115975000D01*
X110025000Y-115953571D01*
X110132142Y-115953571D01*
X110175000Y-115975000D01*
X110196428Y-115996428D01*
X110217857Y-116039285D01*
X110217857Y-116082142D01*
X110196428Y-116146428D01*
X109939285Y-116403571D01*
X110217857Y-116403571D01*
X103210714Y-100460714D02*
X103189285Y-100482142D01*
X103125000Y-100503571D01*
X103082142Y-100503571D01*
X103017857Y-100482142D01*
X102975000Y-100439285D01*
X102953571Y-100396428D01*
X102932142Y-100310714D01*
X102932142Y-100246428D01*
X102953571Y-100160714D01*
X102975000Y-100117857D01*
X103017857Y-100075000D01*
X103082142Y-100053571D01*
X103125000Y-100053571D01*
X103189285Y-100075000D01*
X103210714Y-100096428D01*
X103382142Y-100096428D02*
X103403571Y-100075000D01*
X103446428Y-100053571D01*
X103553571Y-100053571D01*
X103596428Y-100075000D01*
X103617857Y-100096428D01*
X103639285Y-100139285D01*
X103639285Y-100182142D01*
X103617857Y-100246428D01*
X103360714Y-100503571D01*
X103639285Y-100503571D01*
X104067857Y-100503571D02*
X103810714Y-100503571D01*
X103939285Y-100503571D02*
X103939285Y-100053571D01*
X103896428Y-100117857D01*
X103853571Y-100160714D01*
X103810714Y-100182142D01*
X103260714Y-101410714D02*
X103239285Y-101432142D01*
X103175000Y-101453571D01*
X103132142Y-101453571D01*
X103067857Y-101432142D01*
X103025000Y-101389285D01*
X103003571Y-101346428D01*
X102982142Y-101260714D01*
X102982142Y-101196428D01*
X103003571Y-101110714D01*
X103025000Y-101067857D01*
X103067857Y-101025000D01*
X103132142Y-101003571D01*
X103175000Y-101003571D01*
X103239285Y-101025000D01*
X103260714Y-101046428D01*
X103432142Y-101046428D02*
X103453571Y-101025000D01*
X103496428Y-101003571D01*
X103603571Y-101003571D01*
X103646428Y-101025000D01*
X103667857Y-101046428D01*
X103689285Y-101089285D01*
X103689285Y-101132142D01*
X103667857Y-101196428D01*
X103410714Y-101453571D01*
X103689285Y-101453571D01*
X103967857Y-101003571D02*
X104010714Y-101003571D01*
X104053571Y-101025000D01*
X104075000Y-101046428D01*
X104096428Y-101089285D01*
X104117857Y-101175000D01*
X104117857Y-101282142D01*
X104096428Y-101367857D01*
X104075000Y-101410714D01*
X104053571Y-101432142D01*
X104010714Y-101453571D01*
X103967857Y-101453571D01*
X103925000Y-101432142D01*
X103903571Y-101410714D01*
X103882142Y-101367857D01*
X103860714Y-101282142D01*
X103860714Y-101175000D01*
X103882142Y-101089285D01*
X103903571Y-101046428D01*
X103925000Y-101025000D01*
X103967857Y-101003571D01*
X97810714Y-101960714D02*
X97789285Y-101982142D01*
X97725000Y-102003571D01*
X97682142Y-102003571D01*
X97617857Y-101982142D01*
X97575000Y-101939285D01*
X97553571Y-101896428D01*
X97532142Y-101810714D01*
X97532142Y-101746428D01*
X97553571Y-101660714D01*
X97575000Y-101617857D01*
X97617857Y-101575000D01*
X97682142Y-101553571D01*
X97725000Y-101553571D01*
X97789285Y-101575000D01*
X97810714Y-101596428D01*
X98239285Y-102003571D02*
X97982142Y-102003571D01*
X98110714Y-102003571D02*
X98110714Y-101553571D01*
X98067857Y-101617857D01*
X98025000Y-101660714D01*
X97982142Y-101682142D01*
X98453571Y-102003571D02*
X98539285Y-102003571D01*
X98582142Y-101982142D01*
X98603571Y-101960714D01*
X98646428Y-101896428D01*
X98667857Y-101810714D01*
X98667857Y-101639285D01*
X98646428Y-101596428D01*
X98625000Y-101575000D01*
X98582142Y-101553571D01*
X98496428Y-101553571D01*
X98453571Y-101575000D01*
X98432142Y-101596428D01*
X98410714Y-101639285D01*
X98410714Y-101746428D01*
X98432142Y-101789285D01*
X98453571Y-101810714D01*
X98496428Y-101832142D01*
X98582142Y-101832142D01*
X98625000Y-101810714D01*
X98646428Y-101789285D01*
X98667857Y-101746428D01*
X112010714Y-104560714D02*
X111989285Y-104582142D01*
X111925000Y-104603571D01*
X111882142Y-104603571D01*
X111817857Y-104582142D01*
X111775000Y-104539285D01*
X111753571Y-104496428D01*
X111732142Y-104410714D01*
X111732142Y-104346428D01*
X111753571Y-104260714D01*
X111775000Y-104217857D01*
X111817857Y-104175000D01*
X111882142Y-104153571D01*
X111925000Y-104153571D01*
X111989285Y-104175000D01*
X112010714Y-104196428D01*
X112439285Y-104603571D02*
X112182142Y-104603571D01*
X112310714Y-104603571D02*
X112310714Y-104153571D01*
X112267857Y-104217857D01*
X112225000Y-104260714D01*
X112182142Y-104282142D01*
X112696428Y-104346428D02*
X112653571Y-104325000D01*
X112632142Y-104303571D01*
X112610714Y-104260714D01*
X112610714Y-104239285D01*
X112632142Y-104196428D01*
X112653571Y-104175000D01*
X112696428Y-104153571D01*
X112782142Y-104153571D01*
X112825000Y-104175000D01*
X112846428Y-104196428D01*
X112867857Y-104239285D01*
X112867857Y-104260714D01*
X112846428Y-104303571D01*
X112825000Y-104325000D01*
X112782142Y-104346428D01*
X112696428Y-104346428D01*
X112653571Y-104367857D01*
X112632142Y-104389285D01*
X112610714Y-104432142D01*
X112610714Y-104517857D01*
X112632142Y-104560714D01*
X112653571Y-104582142D01*
X112696428Y-104603571D01*
X112782142Y-104603571D01*
X112825000Y-104582142D01*
X112846428Y-104560714D01*
X112867857Y-104517857D01*
X112867857Y-104432142D01*
X112846428Y-104389285D01*
X112825000Y-104367857D01*
X112782142Y-104346428D01*
X88010714Y-107460714D02*
X87989285Y-107482142D01*
X87925000Y-107503571D01*
X87882142Y-107503571D01*
X87817857Y-107482142D01*
X87775000Y-107439285D01*
X87753571Y-107396428D01*
X87732142Y-107310714D01*
X87732142Y-107246428D01*
X87753571Y-107160714D01*
X87775000Y-107117857D01*
X87817857Y-107075000D01*
X87882142Y-107053571D01*
X87925000Y-107053571D01*
X87989285Y-107075000D01*
X88010714Y-107096428D01*
X88439285Y-107503571D02*
X88182142Y-107503571D01*
X88310714Y-107503571D02*
X88310714Y-107053571D01*
X88267857Y-107117857D01*
X88225000Y-107160714D01*
X88182142Y-107182142D01*
X88589285Y-107053571D02*
X88889285Y-107053571D01*
X88696428Y-107503571D01*
X92160714Y-109960714D02*
X92139285Y-109982142D01*
X92075000Y-110003571D01*
X92032142Y-110003571D01*
X91967857Y-109982142D01*
X91925000Y-109939285D01*
X91903571Y-109896428D01*
X91882142Y-109810714D01*
X91882142Y-109746428D01*
X91903571Y-109660714D01*
X91925000Y-109617857D01*
X91967857Y-109575000D01*
X92032142Y-109553571D01*
X92075000Y-109553571D01*
X92139285Y-109575000D01*
X92160714Y-109596428D01*
X92589285Y-110003571D02*
X92332142Y-110003571D01*
X92460714Y-110003571D02*
X92460714Y-109553571D01*
X92417857Y-109617857D01*
X92375000Y-109660714D01*
X92332142Y-109682142D01*
X92975000Y-109553571D02*
X92889285Y-109553571D01*
X92846428Y-109575000D01*
X92825000Y-109596428D01*
X92782142Y-109660714D01*
X92760714Y-109746428D01*
X92760714Y-109917857D01*
X92782142Y-109960714D01*
X92803571Y-109982142D01*
X92846428Y-110003571D01*
X92932142Y-110003571D01*
X92975000Y-109982142D01*
X92996428Y-109960714D01*
X93017857Y-109917857D01*
X93017857Y-109810714D01*
X92996428Y-109767857D01*
X92975000Y-109746428D01*
X92932142Y-109725000D01*
X92846428Y-109725000D01*
X92803571Y-109746428D01*
X92782142Y-109767857D01*
X92760714Y-109810714D01*
X89210714Y-119660714D02*
X89189285Y-119682142D01*
X89125000Y-119703571D01*
X89082142Y-119703571D01*
X89017857Y-119682142D01*
X88975000Y-119639285D01*
X88953571Y-119596428D01*
X88932142Y-119510714D01*
X88932142Y-119446428D01*
X88953571Y-119360714D01*
X88975000Y-119317857D01*
X89017857Y-119275000D01*
X89082142Y-119253571D01*
X89125000Y-119253571D01*
X89189285Y-119275000D01*
X89210714Y-119296428D01*
X89639285Y-119703571D02*
X89382142Y-119703571D01*
X89510714Y-119703571D02*
X89510714Y-119253571D01*
X89467857Y-119317857D01*
X89425000Y-119360714D01*
X89382142Y-119382142D01*
X90046428Y-119253571D02*
X89832142Y-119253571D01*
X89810714Y-119467857D01*
X89832142Y-119446428D01*
X89875000Y-119425000D01*
X89982142Y-119425000D01*
X90025000Y-119446428D01*
X90046428Y-119467857D01*
X90067857Y-119510714D01*
X90067857Y-119617857D01*
X90046428Y-119660714D01*
X90025000Y-119682142D01*
X89982142Y-119703571D01*
X89875000Y-119703571D01*
X89832142Y-119682142D01*
X89810714Y-119660714D01*
X86660714Y-111410714D02*
X86639285Y-111432142D01*
X86575000Y-111453571D01*
X86532142Y-111453571D01*
X86467857Y-111432142D01*
X86425000Y-111389285D01*
X86403571Y-111346428D01*
X86382142Y-111260714D01*
X86382142Y-111196428D01*
X86403571Y-111110714D01*
X86425000Y-111067857D01*
X86467857Y-111025000D01*
X86532142Y-111003571D01*
X86575000Y-111003571D01*
X86639285Y-111025000D01*
X86660714Y-111046428D01*
X87089285Y-111453571D02*
X86832142Y-111453571D01*
X86960714Y-111453571D02*
X86960714Y-111003571D01*
X86917857Y-111067857D01*
X86875000Y-111110714D01*
X86832142Y-111132142D01*
X87475000Y-111153571D02*
X87475000Y-111453571D01*
X87367857Y-110982142D02*
X87260714Y-111303571D01*
X87539285Y-111303571D01*
X90710714Y-116960714D02*
X90689285Y-116982142D01*
X90625000Y-117003571D01*
X90582142Y-117003571D01*
X90517857Y-116982142D01*
X90475000Y-116939285D01*
X90453571Y-116896428D01*
X90432142Y-116810714D01*
X90432142Y-116746428D01*
X90453571Y-116660714D01*
X90475000Y-116617857D01*
X90517857Y-116575000D01*
X90582142Y-116553571D01*
X90625000Y-116553571D01*
X90689285Y-116575000D01*
X90710714Y-116596428D01*
X91139285Y-117003571D02*
X90882142Y-117003571D01*
X91010714Y-117003571D02*
X91010714Y-116553571D01*
X90967857Y-116617857D01*
X90925000Y-116660714D01*
X90882142Y-116682142D01*
X91289285Y-116553571D02*
X91567857Y-116553571D01*
X91417857Y-116725000D01*
X91482142Y-116725000D01*
X91525000Y-116746428D01*
X91546428Y-116767857D01*
X91567857Y-116810714D01*
X91567857Y-116917857D01*
X91546428Y-116960714D01*
X91525000Y-116982142D01*
X91482142Y-117003571D01*
X91353571Y-117003571D01*
X91310714Y-116982142D01*
X91289285Y-116960714D01*
X91310714Y-113310714D02*
X91289285Y-113332142D01*
X91225000Y-113353571D01*
X91182142Y-113353571D01*
X91117857Y-113332142D01*
X91075000Y-113289285D01*
X91053571Y-113246428D01*
X91032142Y-113160714D01*
X91032142Y-113096428D01*
X91053571Y-113010714D01*
X91075000Y-112967857D01*
X91117857Y-112925000D01*
X91182142Y-112903571D01*
X91225000Y-112903571D01*
X91289285Y-112925000D01*
X91310714Y-112946428D01*
X91739285Y-113353571D02*
X91482142Y-113353571D01*
X91610714Y-113353571D02*
X91610714Y-112903571D01*
X91567857Y-112967857D01*
X91525000Y-113010714D01*
X91482142Y-113032142D01*
X91910714Y-112946428D02*
X91932142Y-112925000D01*
X91975000Y-112903571D01*
X92082142Y-112903571D01*
X92125000Y-112925000D01*
X92146428Y-112946428D01*
X92167857Y-112989285D01*
X92167857Y-113032142D01*
X92146428Y-113096428D01*
X91889285Y-113353571D01*
X92167857Y-113353571D01*
X98760714Y-106460714D02*
X98739285Y-106482142D01*
X98675000Y-106503571D01*
X98632142Y-106503571D01*
X98567857Y-106482142D01*
X98525000Y-106439285D01*
X98503571Y-106396428D01*
X98482142Y-106310714D01*
X98482142Y-106246428D01*
X98503571Y-106160714D01*
X98525000Y-106117857D01*
X98567857Y-106075000D01*
X98632142Y-106053571D01*
X98675000Y-106053571D01*
X98739285Y-106075000D01*
X98760714Y-106096428D01*
X99189285Y-106503571D02*
X98932142Y-106503571D01*
X99060714Y-106503571D02*
X99060714Y-106053571D01*
X99017857Y-106117857D01*
X98975000Y-106160714D01*
X98932142Y-106182142D01*
X99617857Y-106503571D02*
X99360714Y-106503571D01*
X99489285Y-106503571D02*
X99489285Y-106053571D01*
X99446428Y-106117857D01*
X99403571Y-106160714D01*
X99360714Y-106182142D01*
X105160714Y-116010714D02*
X105139285Y-116032142D01*
X105075000Y-116053571D01*
X105032142Y-116053571D01*
X104967857Y-116032142D01*
X104925000Y-115989285D01*
X104903571Y-115946428D01*
X104882142Y-115860714D01*
X104882142Y-115796428D01*
X104903571Y-115710714D01*
X104925000Y-115667857D01*
X104967857Y-115625000D01*
X105032142Y-115603571D01*
X105075000Y-115603571D01*
X105139285Y-115625000D01*
X105160714Y-115646428D01*
X105589285Y-116053571D02*
X105332142Y-116053571D01*
X105460714Y-116053571D02*
X105460714Y-115603571D01*
X105417857Y-115667857D01*
X105375000Y-115710714D01*
X105332142Y-115732142D01*
X105867857Y-115603571D02*
X105910714Y-115603571D01*
X105953571Y-115625000D01*
X105975000Y-115646428D01*
X105996428Y-115689285D01*
X106017857Y-115775000D01*
X106017857Y-115882142D01*
X105996428Y-115967857D01*
X105975000Y-116010714D01*
X105953571Y-116032142D01*
X105910714Y-116053571D01*
X105867857Y-116053571D01*
X105825000Y-116032142D01*
X105803571Y-116010714D01*
X105782142Y-115967857D01*
X105760714Y-115882142D01*
X105760714Y-115775000D01*
X105782142Y-115689285D01*
X105803571Y-115646428D01*
X105825000Y-115625000D01*
X105867857Y-115603571D01*
X88025000Y-109710714D02*
X88003571Y-109732142D01*
X87939285Y-109753571D01*
X87896428Y-109753571D01*
X87832142Y-109732142D01*
X87789285Y-109689285D01*
X87767857Y-109646428D01*
X87746428Y-109560714D01*
X87746428Y-109496428D01*
X87767857Y-109410714D01*
X87789285Y-109367857D01*
X87832142Y-109325000D01*
X87896428Y-109303571D01*
X87939285Y-109303571D01*
X88003571Y-109325000D01*
X88025000Y-109346428D01*
X88282142Y-109496428D02*
X88239285Y-109475000D01*
X88217857Y-109453571D01*
X88196428Y-109410714D01*
X88196428Y-109389285D01*
X88217857Y-109346428D01*
X88239285Y-109325000D01*
X88282142Y-109303571D01*
X88367857Y-109303571D01*
X88410714Y-109325000D01*
X88432142Y-109346428D01*
X88453571Y-109389285D01*
X88453571Y-109410714D01*
X88432142Y-109453571D01*
X88410714Y-109475000D01*
X88367857Y-109496428D01*
X88282142Y-109496428D01*
X88239285Y-109517857D01*
X88217857Y-109539285D01*
X88196428Y-109582142D01*
X88196428Y-109667857D01*
X88217857Y-109710714D01*
X88239285Y-109732142D01*
X88282142Y-109753571D01*
X88367857Y-109753571D01*
X88410714Y-109732142D01*
X88432142Y-109710714D01*
X88453571Y-109667857D01*
X88453571Y-109582142D01*
X88432142Y-109539285D01*
X88410714Y-109517857D01*
X88367857Y-109496428D01*
X100675000Y-100810714D02*
X100653571Y-100832142D01*
X100589285Y-100853571D01*
X100546428Y-100853571D01*
X100482142Y-100832142D01*
X100439285Y-100789285D01*
X100417857Y-100746428D01*
X100396428Y-100660714D01*
X100396428Y-100596428D01*
X100417857Y-100510714D01*
X100439285Y-100467857D01*
X100482142Y-100425000D01*
X100546428Y-100403571D01*
X100589285Y-100403571D01*
X100653571Y-100425000D01*
X100675000Y-100446428D01*
X100825000Y-100403571D02*
X101125000Y-100403571D01*
X100932142Y-100853571D01*
X99525000Y-114910714D02*
X99503571Y-114932142D01*
X99439285Y-114953571D01*
X99396428Y-114953571D01*
X99332142Y-114932142D01*
X99289285Y-114889285D01*
X99267857Y-114846428D01*
X99246428Y-114760714D01*
X99246428Y-114696428D01*
X99267857Y-114610714D01*
X99289285Y-114567857D01*
X99332142Y-114525000D01*
X99396428Y-114503571D01*
X99439285Y-114503571D01*
X99503571Y-114525000D01*
X99525000Y-114546428D01*
X99910714Y-114503571D02*
X99825000Y-114503571D01*
X99782142Y-114525000D01*
X99760714Y-114546428D01*
X99717857Y-114610714D01*
X99696428Y-114696428D01*
X99696428Y-114867857D01*
X99717857Y-114910714D01*
X99739285Y-114932142D01*
X99782142Y-114953571D01*
X99867857Y-114953571D01*
X99910714Y-114932142D01*
X99932142Y-114910714D01*
X99953571Y-114867857D01*
X99953571Y-114760714D01*
X99932142Y-114717857D01*
X99910714Y-114696428D01*
X99867857Y-114675000D01*
X99782142Y-114675000D01*
X99739285Y-114696428D01*
X99717857Y-114717857D01*
X99696428Y-114760714D01*
X109375000Y-106060714D02*
X109353571Y-106082142D01*
X109289285Y-106103571D01*
X109246428Y-106103571D01*
X109182142Y-106082142D01*
X109139285Y-106039285D01*
X109117857Y-105996428D01*
X109096428Y-105910714D01*
X109096428Y-105846428D01*
X109117857Y-105760714D01*
X109139285Y-105717857D01*
X109182142Y-105675000D01*
X109246428Y-105653571D01*
X109289285Y-105653571D01*
X109353571Y-105675000D01*
X109375000Y-105696428D01*
X109782142Y-105653571D02*
X109567857Y-105653571D01*
X109546428Y-105867857D01*
X109567857Y-105846428D01*
X109610714Y-105825000D01*
X109717857Y-105825000D01*
X109760714Y-105846428D01*
X109782142Y-105867857D01*
X109803571Y-105910714D01*
X109803571Y-106017857D01*
X109782142Y-106060714D01*
X109760714Y-106082142D01*
X109717857Y-106103571D01*
X109610714Y-106103571D01*
X109567857Y-106082142D01*
X109546428Y-106060714D01*
X99075000Y-112910714D02*
X99053571Y-112932142D01*
X98989285Y-112953571D01*
X98946428Y-112953571D01*
X98882142Y-112932142D01*
X98839285Y-112889285D01*
X98817857Y-112846428D01*
X98796428Y-112760714D01*
X98796428Y-112696428D01*
X98817857Y-112610714D01*
X98839285Y-112567857D01*
X98882142Y-112525000D01*
X98946428Y-112503571D01*
X98989285Y-112503571D01*
X99053571Y-112525000D01*
X99075000Y-112546428D01*
X99460714Y-112653571D02*
X99460714Y-112953571D01*
X99353571Y-112482142D02*
X99246428Y-112803571D01*
X99525000Y-112803571D01*
X103475000Y-104810714D02*
X103453571Y-104832142D01*
X103389285Y-104853571D01*
X103346428Y-104853571D01*
X103282142Y-104832142D01*
X103239285Y-104789285D01*
X103217857Y-104746428D01*
X103196428Y-104660714D01*
X103196428Y-104596428D01*
X103217857Y-104510714D01*
X103239285Y-104467857D01*
X103282142Y-104425000D01*
X103346428Y-104403571D01*
X103389285Y-104403571D01*
X103453571Y-104425000D01*
X103475000Y-104446428D01*
X103625000Y-104403571D02*
X103903571Y-104403571D01*
X103753571Y-104575000D01*
X103817857Y-104575000D01*
X103860714Y-104596428D01*
X103882142Y-104617857D01*
X103903571Y-104660714D01*
X103903571Y-104767857D01*
X103882142Y-104810714D01*
X103860714Y-104832142D01*
X103817857Y-104853571D01*
X103689285Y-104853571D01*
X103646428Y-104832142D01*
X103625000Y-104810714D01*
X109325000Y-115210714D02*
X109303571Y-115232142D01*
X109239285Y-115253571D01*
X109196428Y-115253571D01*
X109132142Y-115232142D01*
X109089285Y-115189285D01*
X109067857Y-115146428D01*
X109046428Y-115060714D01*
X109046428Y-114996428D01*
X109067857Y-114910714D01*
X109089285Y-114867857D01*
X109132142Y-114825000D01*
X109196428Y-114803571D01*
X109239285Y-114803571D01*
X109303571Y-114825000D01*
X109325000Y-114846428D01*
X109496428Y-114846428D02*
X109517857Y-114825000D01*
X109560714Y-114803571D01*
X109667857Y-114803571D01*
X109710714Y-114825000D01*
X109732142Y-114846428D01*
X109753571Y-114889285D01*
X109753571Y-114932142D01*
X109732142Y-114996428D01*
X109475000Y-115253571D01*
X109753571Y-115253571D01*
X97425000Y-114610714D02*
X97403571Y-114632142D01*
X97339285Y-114653571D01*
X97296428Y-114653571D01*
X97232142Y-114632142D01*
X97189285Y-114589285D01*
X97167857Y-114546428D01*
X97146428Y-114460714D01*
X97146428Y-114396428D01*
X97167857Y-114310714D01*
X97189285Y-114267857D01*
X97232142Y-114225000D01*
X97296428Y-114203571D01*
X97339285Y-114203571D01*
X97403571Y-114225000D01*
X97425000Y-114246428D01*
X97853571Y-114653571D02*
X97596428Y-114653571D01*
X97725000Y-114653571D02*
X97725000Y-114203571D01*
X97682142Y-114267857D01*
X97639285Y-114310714D01*
X97596428Y-114332142D01*
X95307142Y-102553571D02*
X95307142Y-102917857D01*
X95328571Y-102960714D01*
X95350000Y-102982142D01*
X95392857Y-103003571D01*
X95478571Y-103003571D01*
X95521428Y-102982142D01*
X95542857Y-102960714D01*
X95564285Y-102917857D01*
X95564285Y-102553571D01*
X95735714Y-102553571D02*
X96035714Y-102553571D01*
X95842857Y-103003571D01*
X113007142Y-106253571D02*
X113007142Y-106617857D01*
X113028571Y-106660714D01*
X113050000Y-106682142D01*
X113092857Y-106703571D01*
X113178571Y-106703571D01*
X113221428Y-106682142D01*
X113242857Y-106660714D01*
X113264285Y-106617857D01*
X113264285Y-106253571D01*
X113671428Y-106253571D02*
X113585714Y-106253571D01*
X113542857Y-106275000D01*
X113521428Y-106296428D01*
X113478571Y-106360714D01*
X113457142Y-106446428D01*
X113457142Y-106617857D01*
X113478571Y-106660714D01*
X113500000Y-106682142D01*
X113542857Y-106703571D01*
X113628571Y-106703571D01*
X113671428Y-106682142D01*
X113692857Y-106660714D01*
X113714285Y-106617857D01*
X113714285Y-106510714D01*
X113692857Y-106467857D01*
X113671428Y-106446428D01*
X113628571Y-106425000D01*
X113542857Y-106425000D01*
X113500000Y-106446428D01*
X113478571Y-106467857D01*
X113457142Y-106510714D01*
X89857142Y-108403571D02*
X89857142Y-108767857D01*
X89878571Y-108810714D01*
X89900000Y-108832142D01*
X89942857Y-108853571D01*
X90028571Y-108853571D01*
X90071428Y-108832142D01*
X90092857Y-108810714D01*
X90114285Y-108767857D01*
X90114285Y-108403571D01*
X90542857Y-108403571D02*
X90328571Y-108403571D01*
X90307142Y-108617857D01*
X90328571Y-108596428D01*
X90371428Y-108575000D01*
X90478571Y-108575000D01*
X90521428Y-108596428D01*
X90542857Y-108617857D01*
X90564285Y-108660714D01*
X90564285Y-108767857D01*
X90542857Y-108810714D01*
X90521428Y-108832142D01*
X90478571Y-108853571D01*
X90371428Y-108853571D01*
X90328571Y-108832142D01*
X90307142Y-108810714D01*
X94907142Y-107303571D02*
X94907142Y-107667857D01*
X94928571Y-107710714D01*
X94950000Y-107732142D01*
X94992857Y-107753571D01*
X95078571Y-107753571D01*
X95121428Y-107732142D01*
X95142857Y-107710714D01*
X95164285Y-107667857D01*
X95164285Y-107303571D01*
X95357142Y-107346428D02*
X95378571Y-107325000D01*
X95421428Y-107303571D01*
X95528571Y-107303571D01*
X95571428Y-107325000D01*
X95592857Y-107346428D01*
X95614285Y-107389285D01*
X95614285Y-107432142D01*
X95592857Y-107496428D01*
X95335714Y-107753571D01*
X95614285Y-107753571D01*
X104407142Y-95653571D02*
X104407142Y-96017857D01*
X104428571Y-96060714D01*
X104450000Y-96082142D01*
X104492857Y-96103571D01*
X104578571Y-96103571D01*
X104621428Y-96082142D01*
X104642857Y-96060714D01*
X104664285Y-96017857D01*
X104664285Y-95653571D01*
X105114285Y-96103571D02*
X104857142Y-96103571D01*
X104985714Y-96103571D02*
X104985714Y-95653571D01*
X104942857Y-95717857D01*
X104900000Y-95760714D01*
X104857142Y-95782142D01*
X93657142Y-99746428D02*
X93614285Y-99725000D01*
X93571428Y-99682142D01*
X93507142Y-99617857D01*
X93464285Y-99596428D01*
X93421428Y-99596428D01*
X93442857Y-99703571D02*
X93400000Y-99682142D01*
X93357142Y-99639285D01*
X93335714Y-99553571D01*
X93335714Y-99403571D01*
X93357142Y-99317857D01*
X93400000Y-99275000D01*
X93442857Y-99253571D01*
X93528571Y-99253571D01*
X93571428Y-99275000D01*
X93614285Y-99317857D01*
X93635714Y-99403571D01*
X93635714Y-99553571D01*
X93614285Y-99639285D01*
X93571428Y-99682142D01*
X93528571Y-99703571D01*
X93442857Y-99703571D01*
X93807142Y-99296428D02*
X93828571Y-99275000D01*
X93871428Y-99253571D01*
X93978571Y-99253571D01*
X94021428Y-99275000D01*
X94042857Y-99296428D01*
X94064285Y-99339285D01*
X94064285Y-99382142D01*
X94042857Y-99446428D01*
X93785714Y-99703571D01*
X94064285Y-99703571D01*
X93857142Y-104446428D02*
X93814285Y-104425000D01*
X93771428Y-104382142D01*
X93707142Y-104317857D01*
X93664285Y-104296428D01*
X93621428Y-104296428D01*
X93642857Y-104403571D02*
X93600000Y-104382142D01*
X93557142Y-104339285D01*
X93535714Y-104253571D01*
X93535714Y-104103571D01*
X93557142Y-104017857D01*
X93600000Y-103975000D01*
X93642857Y-103953571D01*
X93728571Y-103953571D01*
X93771428Y-103975000D01*
X93814285Y-104017857D01*
X93835714Y-104103571D01*
X93835714Y-104253571D01*
X93814285Y-104339285D01*
X93771428Y-104382142D01*
X93728571Y-104403571D01*
X93642857Y-104403571D01*
X94264285Y-104403571D02*
X94007142Y-104403571D01*
X94135714Y-104403571D02*
X94135714Y-103953571D01*
X94092857Y-104017857D01*
X94050000Y-104060714D01*
X94007142Y-104082142D01*
X91817857Y-96903571D02*
X91817857Y-96453571D01*
X91925000Y-96453571D01*
X91989285Y-96475000D01*
X92032142Y-96517857D01*
X92053571Y-96560714D01*
X92075000Y-96646428D01*
X92075000Y-96710714D01*
X92053571Y-96796428D01*
X92032142Y-96839285D01*
X91989285Y-96882142D01*
X91925000Y-96903571D01*
X91817857Y-96903571D01*
X92225000Y-96453571D02*
X92503571Y-96453571D01*
X92353571Y-96625000D01*
X92417857Y-96625000D01*
X92460714Y-96646428D01*
X92482142Y-96667857D01*
X92503571Y-96710714D01*
X92503571Y-96817857D01*
X92482142Y-96860714D01*
X92460714Y-96882142D01*
X92417857Y-96903571D01*
X92289285Y-96903571D01*
X92246428Y-96882142D01*
X92225000Y-96860714D01*
M02*
