G04 #@! TF.GenerationSoftware,KiCad,Pcbnew,5.1.2*
G04 #@! TF.CreationDate,2019-07-25T15:36:57+02:00*
G04 #@! TF.ProjectId,TS100C,54533130-3043-42e6-9b69-6361645f7063,rev?*
G04 #@! TF.SameCoordinates,Original*
G04 #@! TF.FileFunction,Copper,L4,Bot*
G04 #@! TF.FilePolarity,Positive*
%FSLAX46Y46*%
G04 Gerber Fmt 4.6, Leading zero omitted, Abs format (unit mm)*
G04 Created by KiCad (PCBNEW 5.1.2) date 2019-07-25 15:36:57*
%MOMM*%
%LPD*%
G04 APERTURE LIST*
%ADD10C,0.150000*%
%ADD11O,2.100000X1.000000*%
%ADD12O,1.600000X1.000000*%
%ADD13R,1.450000X0.600000*%
%ADD14R,1.450000X0.300000*%
%ADD15R,5.000000X3.960000*%
%ADD16R,0.650000X1.050000*%
%ADD17R,2.000000X0.320000*%
%ADD18C,2.000000*%
%ADD19C,0.100000*%
%ADD20C,0.590000*%
%ADD21C,0.600000*%
%ADD22C,0.450000*%
%ADD23C,0.200000*%
%ADD24C,0.154000*%
%ADD25C,0.106000*%
G04 APERTURE END LIST*
D10*
X131000000Y-80500000D02*
X164000000Y-80500000D01*
X130000000Y-80000000D02*
X131000000Y-80500000D01*
X130000000Y-90000000D02*
X131000000Y-89500000D01*
X131000000Y-89500000D02*
X164000000Y-89500000D01*
X80000000Y-80000000D02*
X80000000Y-90000000D01*
X130000000Y-90000000D02*
X80000000Y-90000000D01*
X164000000Y-80500000D02*
X164000000Y-89500000D01*
X80000000Y-80000000D02*
X130000000Y-80000000D01*
D11*
X87085000Y-89310000D03*
X87085000Y-80670000D03*
D12*
X82905000Y-89310000D03*
X82905000Y-80670000D03*
D13*
X88000000Y-81790000D03*
X88000000Y-82590000D03*
D14*
X88000000Y-83240000D03*
X88000000Y-83740000D03*
X88000000Y-84240000D03*
X88000000Y-84740000D03*
X88000000Y-85240000D03*
X88000000Y-85740000D03*
X88000000Y-86240000D03*
X88000000Y-86740000D03*
D13*
X88000000Y-87390000D03*
X88000000Y-88190000D03*
D15*
X161000000Y-85000000D03*
D16*
X153700000Y-82925000D03*
X153700000Y-87075000D03*
X155850000Y-82925000D03*
X155850000Y-87075000D03*
X141575000Y-87075000D03*
X141575000Y-82925000D03*
X139425000Y-87075000D03*
X139425000Y-82925000D03*
D17*
X125000000Y-80840000D03*
X125000000Y-81480000D03*
X125000000Y-82120000D03*
X125000000Y-82760000D03*
X125000000Y-83400000D03*
X125000000Y-84040000D03*
X125000000Y-84680000D03*
X125000000Y-85320000D03*
X125000000Y-85960000D03*
X125000000Y-86600000D03*
X125000000Y-87240000D03*
X125000000Y-87880000D03*
X125000000Y-88520000D03*
X125000000Y-89160000D03*
D18*
X152000000Y-87400000D03*
X152000000Y-82600000D03*
D19*
G36*
X128371958Y-81880710D02*
G01*
X128386276Y-81882834D01*
X128400317Y-81886351D01*
X128413946Y-81891228D01*
X128427031Y-81897417D01*
X128439447Y-81904858D01*
X128451073Y-81913481D01*
X128461798Y-81923202D01*
X128471519Y-81933927D01*
X128480142Y-81945553D01*
X128487583Y-81957969D01*
X128493772Y-81971054D01*
X128498649Y-81984683D01*
X128502166Y-81998724D01*
X128504290Y-82013042D01*
X128505000Y-82027500D01*
X128505000Y-82372500D01*
X128504290Y-82386958D01*
X128502166Y-82401276D01*
X128498649Y-82415317D01*
X128493772Y-82428946D01*
X128487583Y-82442031D01*
X128480142Y-82454447D01*
X128471519Y-82466073D01*
X128461798Y-82476798D01*
X128451073Y-82486519D01*
X128439447Y-82495142D01*
X128427031Y-82502583D01*
X128413946Y-82508772D01*
X128400317Y-82513649D01*
X128386276Y-82517166D01*
X128371958Y-82519290D01*
X128357500Y-82520000D01*
X128062500Y-82520000D01*
X128048042Y-82519290D01*
X128033724Y-82517166D01*
X128019683Y-82513649D01*
X128006054Y-82508772D01*
X127992969Y-82502583D01*
X127980553Y-82495142D01*
X127968927Y-82486519D01*
X127958202Y-82476798D01*
X127948481Y-82466073D01*
X127939858Y-82454447D01*
X127932417Y-82442031D01*
X127926228Y-82428946D01*
X127921351Y-82415317D01*
X127917834Y-82401276D01*
X127915710Y-82386958D01*
X127915000Y-82372500D01*
X127915000Y-82027500D01*
X127915710Y-82013042D01*
X127917834Y-81998724D01*
X127921351Y-81984683D01*
X127926228Y-81971054D01*
X127932417Y-81957969D01*
X127939858Y-81945553D01*
X127948481Y-81933927D01*
X127958202Y-81923202D01*
X127968927Y-81913481D01*
X127980553Y-81904858D01*
X127992969Y-81897417D01*
X128006054Y-81891228D01*
X128019683Y-81886351D01*
X128033724Y-81882834D01*
X128048042Y-81880710D01*
X128062500Y-81880000D01*
X128357500Y-81880000D01*
X128371958Y-81880710D01*
X128371958Y-81880710D01*
G37*
D20*
X128210000Y-82200000D03*
D19*
G36*
X127401958Y-81880710D02*
G01*
X127416276Y-81882834D01*
X127430317Y-81886351D01*
X127443946Y-81891228D01*
X127457031Y-81897417D01*
X127469447Y-81904858D01*
X127481073Y-81913481D01*
X127491798Y-81923202D01*
X127501519Y-81933927D01*
X127510142Y-81945553D01*
X127517583Y-81957969D01*
X127523772Y-81971054D01*
X127528649Y-81984683D01*
X127532166Y-81998724D01*
X127534290Y-82013042D01*
X127535000Y-82027500D01*
X127535000Y-82372500D01*
X127534290Y-82386958D01*
X127532166Y-82401276D01*
X127528649Y-82415317D01*
X127523772Y-82428946D01*
X127517583Y-82442031D01*
X127510142Y-82454447D01*
X127501519Y-82466073D01*
X127491798Y-82476798D01*
X127481073Y-82486519D01*
X127469447Y-82495142D01*
X127457031Y-82502583D01*
X127443946Y-82508772D01*
X127430317Y-82513649D01*
X127416276Y-82517166D01*
X127401958Y-82519290D01*
X127387500Y-82520000D01*
X127092500Y-82520000D01*
X127078042Y-82519290D01*
X127063724Y-82517166D01*
X127049683Y-82513649D01*
X127036054Y-82508772D01*
X127022969Y-82502583D01*
X127010553Y-82495142D01*
X126998927Y-82486519D01*
X126988202Y-82476798D01*
X126978481Y-82466073D01*
X126969858Y-82454447D01*
X126962417Y-82442031D01*
X126956228Y-82428946D01*
X126951351Y-82415317D01*
X126947834Y-82401276D01*
X126945710Y-82386958D01*
X126945000Y-82372500D01*
X126945000Y-82027500D01*
X126945710Y-82013042D01*
X126947834Y-81998724D01*
X126951351Y-81984683D01*
X126956228Y-81971054D01*
X126962417Y-81957969D01*
X126969858Y-81945553D01*
X126978481Y-81933927D01*
X126988202Y-81923202D01*
X126998927Y-81913481D01*
X127010553Y-81904858D01*
X127022969Y-81897417D01*
X127036054Y-81891228D01*
X127049683Y-81886351D01*
X127063724Y-81882834D01*
X127078042Y-81880710D01*
X127092500Y-81880000D01*
X127387500Y-81880000D01*
X127401958Y-81880710D01*
X127401958Y-81880710D01*
G37*
D20*
X127240000Y-82200000D03*
D19*
G36*
X128921958Y-87705710D02*
G01*
X128936276Y-87707834D01*
X128950317Y-87711351D01*
X128963946Y-87716228D01*
X128977031Y-87722417D01*
X128989447Y-87729858D01*
X129001073Y-87738481D01*
X129011798Y-87748202D01*
X129021519Y-87758927D01*
X129030142Y-87770553D01*
X129037583Y-87782969D01*
X129043772Y-87796054D01*
X129048649Y-87809683D01*
X129052166Y-87823724D01*
X129054290Y-87838042D01*
X129055000Y-87852500D01*
X129055000Y-88197500D01*
X129054290Y-88211958D01*
X129052166Y-88226276D01*
X129048649Y-88240317D01*
X129043772Y-88253946D01*
X129037583Y-88267031D01*
X129030142Y-88279447D01*
X129021519Y-88291073D01*
X129011798Y-88301798D01*
X129001073Y-88311519D01*
X128989447Y-88320142D01*
X128977031Y-88327583D01*
X128963946Y-88333772D01*
X128950317Y-88338649D01*
X128936276Y-88342166D01*
X128921958Y-88344290D01*
X128907500Y-88345000D01*
X128612500Y-88345000D01*
X128598042Y-88344290D01*
X128583724Y-88342166D01*
X128569683Y-88338649D01*
X128556054Y-88333772D01*
X128542969Y-88327583D01*
X128530553Y-88320142D01*
X128518927Y-88311519D01*
X128508202Y-88301798D01*
X128498481Y-88291073D01*
X128489858Y-88279447D01*
X128482417Y-88267031D01*
X128476228Y-88253946D01*
X128471351Y-88240317D01*
X128467834Y-88226276D01*
X128465710Y-88211958D01*
X128465000Y-88197500D01*
X128465000Y-87852500D01*
X128465710Y-87838042D01*
X128467834Y-87823724D01*
X128471351Y-87809683D01*
X128476228Y-87796054D01*
X128482417Y-87782969D01*
X128489858Y-87770553D01*
X128498481Y-87758927D01*
X128508202Y-87748202D01*
X128518927Y-87738481D01*
X128530553Y-87729858D01*
X128542969Y-87722417D01*
X128556054Y-87716228D01*
X128569683Y-87711351D01*
X128583724Y-87707834D01*
X128598042Y-87705710D01*
X128612500Y-87705000D01*
X128907500Y-87705000D01*
X128921958Y-87705710D01*
X128921958Y-87705710D01*
G37*
D20*
X128760000Y-88025000D03*
D19*
G36*
X127951958Y-87705710D02*
G01*
X127966276Y-87707834D01*
X127980317Y-87711351D01*
X127993946Y-87716228D01*
X128007031Y-87722417D01*
X128019447Y-87729858D01*
X128031073Y-87738481D01*
X128041798Y-87748202D01*
X128051519Y-87758927D01*
X128060142Y-87770553D01*
X128067583Y-87782969D01*
X128073772Y-87796054D01*
X128078649Y-87809683D01*
X128082166Y-87823724D01*
X128084290Y-87838042D01*
X128085000Y-87852500D01*
X128085000Y-88197500D01*
X128084290Y-88211958D01*
X128082166Y-88226276D01*
X128078649Y-88240317D01*
X128073772Y-88253946D01*
X128067583Y-88267031D01*
X128060142Y-88279447D01*
X128051519Y-88291073D01*
X128041798Y-88301798D01*
X128031073Y-88311519D01*
X128019447Y-88320142D01*
X128007031Y-88327583D01*
X127993946Y-88333772D01*
X127980317Y-88338649D01*
X127966276Y-88342166D01*
X127951958Y-88344290D01*
X127937500Y-88345000D01*
X127642500Y-88345000D01*
X127628042Y-88344290D01*
X127613724Y-88342166D01*
X127599683Y-88338649D01*
X127586054Y-88333772D01*
X127572969Y-88327583D01*
X127560553Y-88320142D01*
X127548927Y-88311519D01*
X127538202Y-88301798D01*
X127528481Y-88291073D01*
X127519858Y-88279447D01*
X127512417Y-88267031D01*
X127506228Y-88253946D01*
X127501351Y-88240317D01*
X127497834Y-88226276D01*
X127495710Y-88211958D01*
X127495000Y-88197500D01*
X127495000Y-87852500D01*
X127495710Y-87838042D01*
X127497834Y-87823724D01*
X127501351Y-87809683D01*
X127506228Y-87796054D01*
X127512417Y-87782969D01*
X127519858Y-87770553D01*
X127528481Y-87758927D01*
X127538202Y-87748202D01*
X127548927Y-87738481D01*
X127560553Y-87729858D01*
X127572969Y-87722417D01*
X127586054Y-87716228D01*
X127599683Y-87711351D01*
X127613724Y-87707834D01*
X127628042Y-87705710D01*
X127642500Y-87705000D01*
X127937500Y-87705000D01*
X127951958Y-87705710D01*
X127951958Y-87705710D01*
G37*
D20*
X127790000Y-88025000D03*
D19*
G36*
X127426958Y-80655710D02*
G01*
X127441276Y-80657834D01*
X127455317Y-80661351D01*
X127468946Y-80666228D01*
X127482031Y-80672417D01*
X127494447Y-80679858D01*
X127506073Y-80688481D01*
X127516798Y-80698202D01*
X127526519Y-80708927D01*
X127535142Y-80720553D01*
X127542583Y-80732969D01*
X127548772Y-80746054D01*
X127553649Y-80759683D01*
X127557166Y-80773724D01*
X127559290Y-80788042D01*
X127560000Y-80802500D01*
X127560000Y-81147500D01*
X127559290Y-81161958D01*
X127557166Y-81176276D01*
X127553649Y-81190317D01*
X127548772Y-81203946D01*
X127542583Y-81217031D01*
X127535142Y-81229447D01*
X127526519Y-81241073D01*
X127516798Y-81251798D01*
X127506073Y-81261519D01*
X127494447Y-81270142D01*
X127482031Y-81277583D01*
X127468946Y-81283772D01*
X127455317Y-81288649D01*
X127441276Y-81292166D01*
X127426958Y-81294290D01*
X127412500Y-81295000D01*
X127117500Y-81295000D01*
X127103042Y-81294290D01*
X127088724Y-81292166D01*
X127074683Y-81288649D01*
X127061054Y-81283772D01*
X127047969Y-81277583D01*
X127035553Y-81270142D01*
X127023927Y-81261519D01*
X127013202Y-81251798D01*
X127003481Y-81241073D01*
X126994858Y-81229447D01*
X126987417Y-81217031D01*
X126981228Y-81203946D01*
X126976351Y-81190317D01*
X126972834Y-81176276D01*
X126970710Y-81161958D01*
X126970000Y-81147500D01*
X126970000Y-80802500D01*
X126970710Y-80788042D01*
X126972834Y-80773724D01*
X126976351Y-80759683D01*
X126981228Y-80746054D01*
X126987417Y-80732969D01*
X126994858Y-80720553D01*
X127003481Y-80708927D01*
X127013202Y-80698202D01*
X127023927Y-80688481D01*
X127035553Y-80679858D01*
X127047969Y-80672417D01*
X127061054Y-80666228D01*
X127074683Y-80661351D01*
X127088724Y-80657834D01*
X127103042Y-80655710D01*
X127117500Y-80655000D01*
X127412500Y-80655000D01*
X127426958Y-80655710D01*
X127426958Y-80655710D01*
G37*
D20*
X127265000Y-80975000D03*
D19*
G36*
X128396958Y-80655710D02*
G01*
X128411276Y-80657834D01*
X128425317Y-80661351D01*
X128438946Y-80666228D01*
X128452031Y-80672417D01*
X128464447Y-80679858D01*
X128476073Y-80688481D01*
X128486798Y-80698202D01*
X128496519Y-80708927D01*
X128505142Y-80720553D01*
X128512583Y-80732969D01*
X128518772Y-80746054D01*
X128523649Y-80759683D01*
X128527166Y-80773724D01*
X128529290Y-80788042D01*
X128530000Y-80802500D01*
X128530000Y-81147500D01*
X128529290Y-81161958D01*
X128527166Y-81176276D01*
X128523649Y-81190317D01*
X128518772Y-81203946D01*
X128512583Y-81217031D01*
X128505142Y-81229447D01*
X128496519Y-81241073D01*
X128486798Y-81251798D01*
X128476073Y-81261519D01*
X128464447Y-81270142D01*
X128452031Y-81277583D01*
X128438946Y-81283772D01*
X128425317Y-81288649D01*
X128411276Y-81292166D01*
X128396958Y-81294290D01*
X128382500Y-81295000D01*
X128087500Y-81295000D01*
X128073042Y-81294290D01*
X128058724Y-81292166D01*
X128044683Y-81288649D01*
X128031054Y-81283772D01*
X128017969Y-81277583D01*
X128005553Y-81270142D01*
X127993927Y-81261519D01*
X127983202Y-81251798D01*
X127973481Y-81241073D01*
X127964858Y-81229447D01*
X127957417Y-81217031D01*
X127951228Y-81203946D01*
X127946351Y-81190317D01*
X127942834Y-81176276D01*
X127940710Y-81161958D01*
X127940000Y-81147500D01*
X127940000Y-80802500D01*
X127940710Y-80788042D01*
X127942834Y-80773724D01*
X127946351Y-80759683D01*
X127951228Y-80746054D01*
X127957417Y-80732969D01*
X127964858Y-80720553D01*
X127973481Y-80708927D01*
X127983202Y-80698202D01*
X127993927Y-80688481D01*
X128005553Y-80679858D01*
X128017969Y-80672417D01*
X128031054Y-80666228D01*
X128044683Y-80661351D01*
X128058724Y-80657834D01*
X128073042Y-80655710D01*
X128087500Y-80655000D01*
X128382500Y-80655000D01*
X128396958Y-80655710D01*
X128396958Y-80655710D01*
G37*
D20*
X128235000Y-80975000D03*
D19*
G36*
X128921958Y-88705710D02*
G01*
X128936276Y-88707834D01*
X128950317Y-88711351D01*
X128963946Y-88716228D01*
X128977031Y-88722417D01*
X128989447Y-88729858D01*
X129001073Y-88738481D01*
X129011798Y-88748202D01*
X129021519Y-88758927D01*
X129030142Y-88770553D01*
X129037583Y-88782969D01*
X129043772Y-88796054D01*
X129048649Y-88809683D01*
X129052166Y-88823724D01*
X129054290Y-88838042D01*
X129055000Y-88852500D01*
X129055000Y-89197500D01*
X129054290Y-89211958D01*
X129052166Y-89226276D01*
X129048649Y-89240317D01*
X129043772Y-89253946D01*
X129037583Y-89267031D01*
X129030142Y-89279447D01*
X129021519Y-89291073D01*
X129011798Y-89301798D01*
X129001073Y-89311519D01*
X128989447Y-89320142D01*
X128977031Y-89327583D01*
X128963946Y-89333772D01*
X128950317Y-89338649D01*
X128936276Y-89342166D01*
X128921958Y-89344290D01*
X128907500Y-89345000D01*
X128612500Y-89345000D01*
X128598042Y-89344290D01*
X128583724Y-89342166D01*
X128569683Y-89338649D01*
X128556054Y-89333772D01*
X128542969Y-89327583D01*
X128530553Y-89320142D01*
X128518927Y-89311519D01*
X128508202Y-89301798D01*
X128498481Y-89291073D01*
X128489858Y-89279447D01*
X128482417Y-89267031D01*
X128476228Y-89253946D01*
X128471351Y-89240317D01*
X128467834Y-89226276D01*
X128465710Y-89211958D01*
X128465000Y-89197500D01*
X128465000Y-88852500D01*
X128465710Y-88838042D01*
X128467834Y-88823724D01*
X128471351Y-88809683D01*
X128476228Y-88796054D01*
X128482417Y-88782969D01*
X128489858Y-88770553D01*
X128498481Y-88758927D01*
X128508202Y-88748202D01*
X128518927Y-88738481D01*
X128530553Y-88729858D01*
X128542969Y-88722417D01*
X128556054Y-88716228D01*
X128569683Y-88711351D01*
X128583724Y-88707834D01*
X128598042Y-88705710D01*
X128612500Y-88705000D01*
X128907500Y-88705000D01*
X128921958Y-88705710D01*
X128921958Y-88705710D01*
G37*
D20*
X128760000Y-89025000D03*
D19*
G36*
X127951958Y-88705710D02*
G01*
X127966276Y-88707834D01*
X127980317Y-88711351D01*
X127993946Y-88716228D01*
X128007031Y-88722417D01*
X128019447Y-88729858D01*
X128031073Y-88738481D01*
X128041798Y-88748202D01*
X128051519Y-88758927D01*
X128060142Y-88770553D01*
X128067583Y-88782969D01*
X128073772Y-88796054D01*
X128078649Y-88809683D01*
X128082166Y-88823724D01*
X128084290Y-88838042D01*
X128085000Y-88852500D01*
X128085000Y-89197500D01*
X128084290Y-89211958D01*
X128082166Y-89226276D01*
X128078649Y-89240317D01*
X128073772Y-89253946D01*
X128067583Y-89267031D01*
X128060142Y-89279447D01*
X128051519Y-89291073D01*
X128041798Y-89301798D01*
X128031073Y-89311519D01*
X128019447Y-89320142D01*
X128007031Y-89327583D01*
X127993946Y-89333772D01*
X127980317Y-89338649D01*
X127966276Y-89342166D01*
X127951958Y-89344290D01*
X127937500Y-89345000D01*
X127642500Y-89345000D01*
X127628042Y-89344290D01*
X127613724Y-89342166D01*
X127599683Y-89338649D01*
X127586054Y-89333772D01*
X127572969Y-89327583D01*
X127560553Y-89320142D01*
X127548927Y-89311519D01*
X127538202Y-89301798D01*
X127528481Y-89291073D01*
X127519858Y-89279447D01*
X127512417Y-89267031D01*
X127506228Y-89253946D01*
X127501351Y-89240317D01*
X127497834Y-89226276D01*
X127495710Y-89211958D01*
X127495000Y-89197500D01*
X127495000Y-88852500D01*
X127495710Y-88838042D01*
X127497834Y-88823724D01*
X127501351Y-88809683D01*
X127506228Y-88796054D01*
X127512417Y-88782969D01*
X127519858Y-88770553D01*
X127528481Y-88758927D01*
X127538202Y-88748202D01*
X127548927Y-88738481D01*
X127560553Y-88729858D01*
X127572969Y-88722417D01*
X127586054Y-88716228D01*
X127599683Y-88711351D01*
X127613724Y-88707834D01*
X127628042Y-88705710D01*
X127642500Y-88705000D01*
X127937500Y-88705000D01*
X127951958Y-88705710D01*
X127951958Y-88705710D01*
G37*
D20*
X127790000Y-89025000D03*
D19*
G36*
X128921958Y-84705710D02*
G01*
X128936276Y-84707834D01*
X128950317Y-84711351D01*
X128963946Y-84716228D01*
X128977031Y-84722417D01*
X128989447Y-84729858D01*
X129001073Y-84738481D01*
X129011798Y-84748202D01*
X129021519Y-84758927D01*
X129030142Y-84770553D01*
X129037583Y-84782969D01*
X129043772Y-84796054D01*
X129048649Y-84809683D01*
X129052166Y-84823724D01*
X129054290Y-84838042D01*
X129055000Y-84852500D01*
X129055000Y-85197500D01*
X129054290Y-85211958D01*
X129052166Y-85226276D01*
X129048649Y-85240317D01*
X129043772Y-85253946D01*
X129037583Y-85267031D01*
X129030142Y-85279447D01*
X129021519Y-85291073D01*
X129011798Y-85301798D01*
X129001073Y-85311519D01*
X128989447Y-85320142D01*
X128977031Y-85327583D01*
X128963946Y-85333772D01*
X128950317Y-85338649D01*
X128936276Y-85342166D01*
X128921958Y-85344290D01*
X128907500Y-85345000D01*
X128612500Y-85345000D01*
X128598042Y-85344290D01*
X128583724Y-85342166D01*
X128569683Y-85338649D01*
X128556054Y-85333772D01*
X128542969Y-85327583D01*
X128530553Y-85320142D01*
X128518927Y-85311519D01*
X128508202Y-85301798D01*
X128498481Y-85291073D01*
X128489858Y-85279447D01*
X128482417Y-85267031D01*
X128476228Y-85253946D01*
X128471351Y-85240317D01*
X128467834Y-85226276D01*
X128465710Y-85211958D01*
X128465000Y-85197500D01*
X128465000Y-84852500D01*
X128465710Y-84838042D01*
X128467834Y-84823724D01*
X128471351Y-84809683D01*
X128476228Y-84796054D01*
X128482417Y-84782969D01*
X128489858Y-84770553D01*
X128498481Y-84758927D01*
X128508202Y-84748202D01*
X128518927Y-84738481D01*
X128530553Y-84729858D01*
X128542969Y-84722417D01*
X128556054Y-84716228D01*
X128569683Y-84711351D01*
X128583724Y-84707834D01*
X128598042Y-84705710D01*
X128612500Y-84705000D01*
X128907500Y-84705000D01*
X128921958Y-84705710D01*
X128921958Y-84705710D01*
G37*
D20*
X128760000Y-85025000D03*
D19*
G36*
X127951958Y-84705710D02*
G01*
X127966276Y-84707834D01*
X127980317Y-84711351D01*
X127993946Y-84716228D01*
X128007031Y-84722417D01*
X128019447Y-84729858D01*
X128031073Y-84738481D01*
X128041798Y-84748202D01*
X128051519Y-84758927D01*
X128060142Y-84770553D01*
X128067583Y-84782969D01*
X128073772Y-84796054D01*
X128078649Y-84809683D01*
X128082166Y-84823724D01*
X128084290Y-84838042D01*
X128085000Y-84852500D01*
X128085000Y-85197500D01*
X128084290Y-85211958D01*
X128082166Y-85226276D01*
X128078649Y-85240317D01*
X128073772Y-85253946D01*
X128067583Y-85267031D01*
X128060142Y-85279447D01*
X128051519Y-85291073D01*
X128041798Y-85301798D01*
X128031073Y-85311519D01*
X128019447Y-85320142D01*
X128007031Y-85327583D01*
X127993946Y-85333772D01*
X127980317Y-85338649D01*
X127966276Y-85342166D01*
X127951958Y-85344290D01*
X127937500Y-85345000D01*
X127642500Y-85345000D01*
X127628042Y-85344290D01*
X127613724Y-85342166D01*
X127599683Y-85338649D01*
X127586054Y-85333772D01*
X127572969Y-85327583D01*
X127560553Y-85320142D01*
X127548927Y-85311519D01*
X127538202Y-85301798D01*
X127528481Y-85291073D01*
X127519858Y-85279447D01*
X127512417Y-85267031D01*
X127506228Y-85253946D01*
X127501351Y-85240317D01*
X127497834Y-85226276D01*
X127495710Y-85211958D01*
X127495000Y-85197500D01*
X127495000Y-84852500D01*
X127495710Y-84838042D01*
X127497834Y-84823724D01*
X127501351Y-84809683D01*
X127506228Y-84796054D01*
X127512417Y-84782969D01*
X127519858Y-84770553D01*
X127528481Y-84758927D01*
X127538202Y-84748202D01*
X127548927Y-84738481D01*
X127560553Y-84729858D01*
X127572969Y-84722417D01*
X127586054Y-84716228D01*
X127599683Y-84711351D01*
X127613724Y-84707834D01*
X127628042Y-84705710D01*
X127642500Y-84705000D01*
X127937500Y-84705000D01*
X127951958Y-84705710D01*
X127951958Y-84705710D01*
G37*
D20*
X127790000Y-85025000D03*
D19*
G36*
X128921958Y-86705710D02*
G01*
X128936276Y-86707834D01*
X128950317Y-86711351D01*
X128963946Y-86716228D01*
X128977031Y-86722417D01*
X128989447Y-86729858D01*
X129001073Y-86738481D01*
X129011798Y-86748202D01*
X129021519Y-86758927D01*
X129030142Y-86770553D01*
X129037583Y-86782969D01*
X129043772Y-86796054D01*
X129048649Y-86809683D01*
X129052166Y-86823724D01*
X129054290Y-86838042D01*
X129055000Y-86852500D01*
X129055000Y-87197500D01*
X129054290Y-87211958D01*
X129052166Y-87226276D01*
X129048649Y-87240317D01*
X129043772Y-87253946D01*
X129037583Y-87267031D01*
X129030142Y-87279447D01*
X129021519Y-87291073D01*
X129011798Y-87301798D01*
X129001073Y-87311519D01*
X128989447Y-87320142D01*
X128977031Y-87327583D01*
X128963946Y-87333772D01*
X128950317Y-87338649D01*
X128936276Y-87342166D01*
X128921958Y-87344290D01*
X128907500Y-87345000D01*
X128612500Y-87345000D01*
X128598042Y-87344290D01*
X128583724Y-87342166D01*
X128569683Y-87338649D01*
X128556054Y-87333772D01*
X128542969Y-87327583D01*
X128530553Y-87320142D01*
X128518927Y-87311519D01*
X128508202Y-87301798D01*
X128498481Y-87291073D01*
X128489858Y-87279447D01*
X128482417Y-87267031D01*
X128476228Y-87253946D01*
X128471351Y-87240317D01*
X128467834Y-87226276D01*
X128465710Y-87211958D01*
X128465000Y-87197500D01*
X128465000Y-86852500D01*
X128465710Y-86838042D01*
X128467834Y-86823724D01*
X128471351Y-86809683D01*
X128476228Y-86796054D01*
X128482417Y-86782969D01*
X128489858Y-86770553D01*
X128498481Y-86758927D01*
X128508202Y-86748202D01*
X128518927Y-86738481D01*
X128530553Y-86729858D01*
X128542969Y-86722417D01*
X128556054Y-86716228D01*
X128569683Y-86711351D01*
X128583724Y-86707834D01*
X128598042Y-86705710D01*
X128612500Y-86705000D01*
X128907500Y-86705000D01*
X128921958Y-86705710D01*
X128921958Y-86705710D01*
G37*
D20*
X128760000Y-87025000D03*
D19*
G36*
X127951958Y-86705710D02*
G01*
X127966276Y-86707834D01*
X127980317Y-86711351D01*
X127993946Y-86716228D01*
X128007031Y-86722417D01*
X128019447Y-86729858D01*
X128031073Y-86738481D01*
X128041798Y-86748202D01*
X128051519Y-86758927D01*
X128060142Y-86770553D01*
X128067583Y-86782969D01*
X128073772Y-86796054D01*
X128078649Y-86809683D01*
X128082166Y-86823724D01*
X128084290Y-86838042D01*
X128085000Y-86852500D01*
X128085000Y-87197500D01*
X128084290Y-87211958D01*
X128082166Y-87226276D01*
X128078649Y-87240317D01*
X128073772Y-87253946D01*
X128067583Y-87267031D01*
X128060142Y-87279447D01*
X128051519Y-87291073D01*
X128041798Y-87301798D01*
X128031073Y-87311519D01*
X128019447Y-87320142D01*
X128007031Y-87327583D01*
X127993946Y-87333772D01*
X127980317Y-87338649D01*
X127966276Y-87342166D01*
X127951958Y-87344290D01*
X127937500Y-87345000D01*
X127642500Y-87345000D01*
X127628042Y-87344290D01*
X127613724Y-87342166D01*
X127599683Y-87338649D01*
X127586054Y-87333772D01*
X127572969Y-87327583D01*
X127560553Y-87320142D01*
X127548927Y-87311519D01*
X127538202Y-87301798D01*
X127528481Y-87291073D01*
X127519858Y-87279447D01*
X127512417Y-87267031D01*
X127506228Y-87253946D01*
X127501351Y-87240317D01*
X127497834Y-87226276D01*
X127495710Y-87211958D01*
X127495000Y-87197500D01*
X127495000Y-86852500D01*
X127495710Y-86838042D01*
X127497834Y-86823724D01*
X127501351Y-86809683D01*
X127506228Y-86796054D01*
X127512417Y-86782969D01*
X127519858Y-86770553D01*
X127528481Y-86758927D01*
X127538202Y-86748202D01*
X127548927Y-86738481D01*
X127560553Y-86729858D01*
X127572969Y-86722417D01*
X127586054Y-86716228D01*
X127599683Y-86711351D01*
X127613724Y-86707834D01*
X127628042Y-86705710D01*
X127642500Y-86705000D01*
X127937500Y-86705000D01*
X127951958Y-86705710D01*
X127951958Y-86705710D01*
G37*
D20*
X127790000Y-87025000D03*
D19*
G36*
X128921958Y-85705710D02*
G01*
X128936276Y-85707834D01*
X128950317Y-85711351D01*
X128963946Y-85716228D01*
X128977031Y-85722417D01*
X128989447Y-85729858D01*
X129001073Y-85738481D01*
X129011798Y-85748202D01*
X129021519Y-85758927D01*
X129030142Y-85770553D01*
X129037583Y-85782969D01*
X129043772Y-85796054D01*
X129048649Y-85809683D01*
X129052166Y-85823724D01*
X129054290Y-85838042D01*
X129055000Y-85852500D01*
X129055000Y-86197500D01*
X129054290Y-86211958D01*
X129052166Y-86226276D01*
X129048649Y-86240317D01*
X129043772Y-86253946D01*
X129037583Y-86267031D01*
X129030142Y-86279447D01*
X129021519Y-86291073D01*
X129011798Y-86301798D01*
X129001073Y-86311519D01*
X128989447Y-86320142D01*
X128977031Y-86327583D01*
X128963946Y-86333772D01*
X128950317Y-86338649D01*
X128936276Y-86342166D01*
X128921958Y-86344290D01*
X128907500Y-86345000D01*
X128612500Y-86345000D01*
X128598042Y-86344290D01*
X128583724Y-86342166D01*
X128569683Y-86338649D01*
X128556054Y-86333772D01*
X128542969Y-86327583D01*
X128530553Y-86320142D01*
X128518927Y-86311519D01*
X128508202Y-86301798D01*
X128498481Y-86291073D01*
X128489858Y-86279447D01*
X128482417Y-86267031D01*
X128476228Y-86253946D01*
X128471351Y-86240317D01*
X128467834Y-86226276D01*
X128465710Y-86211958D01*
X128465000Y-86197500D01*
X128465000Y-85852500D01*
X128465710Y-85838042D01*
X128467834Y-85823724D01*
X128471351Y-85809683D01*
X128476228Y-85796054D01*
X128482417Y-85782969D01*
X128489858Y-85770553D01*
X128498481Y-85758927D01*
X128508202Y-85748202D01*
X128518927Y-85738481D01*
X128530553Y-85729858D01*
X128542969Y-85722417D01*
X128556054Y-85716228D01*
X128569683Y-85711351D01*
X128583724Y-85707834D01*
X128598042Y-85705710D01*
X128612500Y-85705000D01*
X128907500Y-85705000D01*
X128921958Y-85705710D01*
X128921958Y-85705710D01*
G37*
D20*
X128760000Y-86025000D03*
D19*
G36*
X127951958Y-85705710D02*
G01*
X127966276Y-85707834D01*
X127980317Y-85711351D01*
X127993946Y-85716228D01*
X128007031Y-85722417D01*
X128019447Y-85729858D01*
X128031073Y-85738481D01*
X128041798Y-85748202D01*
X128051519Y-85758927D01*
X128060142Y-85770553D01*
X128067583Y-85782969D01*
X128073772Y-85796054D01*
X128078649Y-85809683D01*
X128082166Y-85823724D01*
X128084290Y-85838042D01*
X128085000Y-85852500D01*
X128085000Y-86197500D01*
X128084290Y-86211958D01*
X128082166Y-86226276D01*
X128078649Y-86240317D01*
X128073772Y-86253946D01*
X128067583Y-86267031D01*
X128060142Y-86279447D01*
X128051519Y-86291073D01*
X128041798Y-86301798D01*
X128031073Y-86311519D01*
X128019447Y-86320142D01*
X128007031Y-86327583D01*
X127993946Y-86333772D01*
X127980317Y-86338649D01*
X127966276Y-86342166D01*
X127951958Y-86344290D01*
X127937500Y-86345000D01*
X127642500Y-86345000D01*
X127628042Y-86344290D01*
X127613724Y-86342166D01*
X127599683Y-86338649D01*
X127586054Y-86333772D01*
X127572969Y-86327583D01*
X127560553Y-86320142D01*
X127548927Y-86311519D01*
X127538202Y-86301798D01*
X127528481Y-86291073D01*
X127519858Y-86279447D01*
X127512417Y-86267031D01*
X127506228Y-86253946D01*
X127501351Y-86240317D01*
X127497834Y-86226276D01*
X127495710Y-86211958D01*
X127495000Y-86197500D01*
X127495000Y-85852500D01*
X127495710Y-85838042D01*
X127497834Y-85823724D01*
X127501351Y-85809683D01*
X127506228Y-85796054D01*
X127512417Y-85782969D01*
X127519858Y-85770553D01*
X127528481Y-85758927D01*
X127538202Y-85748202D01*
X127548927Y-85738481D01*
X127560553Y-85729858D01*
X127572969Y-85722417D01*
X127586054Y-85716228D01*
X127599683Y-85711351D01*
X127613724Y-85707834D01*
X127628042Y-85705710D01*
X127642500Y-85705000D01*
X127937500Y-85705000D01*
X127951958Y-85705710D01*
X127951958Y-85705710D01*
G37*
D20*
X127790000Y-86025000D03*
D21*
X99260000Y-84690000D03*
X97830000Y-84670000D03*
X117900000Y-82200000D03*
X116300000Y-82200000D03*
X110350000Y-82700000D03*
X110350000Y-87300000D03*
X105750000Y-87300000D03*
X156504168Y-84150000D03*
X146450000Y-88400000D03*
X147200000Y-88400000D03*
X147950000Y-88400000D03*
X148700000Y-88400000D03*
X142300000Y-85050000D03*
X136950000Y-85300000D03*
X119875000Y-89300000D03*
X105755086Y-82731010D03*
X129500000Y-87000000D03*
X140650000Y-86775000D03*
X96240000Y-81310000D03*
X91129245Y-82604245D03*
X100210000Y-81340000D03*
X96220000Y-87560000D03*
X92870000Y-85010000D03*
X134060000Y-88280000D03*
X126750000Y-83470002D03*
D22*
X119700000Y-85750000D03*
D21*
X137300000Y-82170000D03*
X136500000Y-82170000D03*
X135700000Y-82170000D03*
X134900000Y-82170000D03*
X136500000Y-82930979D03*
X134900000Y-82930979D03*
X137300000Y-82930979D03*
X117900000Y-84900000D03*
X118586802Y-84887682D03*
X86710000Y-86960000D03*
X85860000Y-87140000D03*
X86650000Y-83050000D03*
X85910000Y-82730000D03*
X85910000Y-83590000D03*
X89340000Y-87300000D03*
X84140000Y-82710000D03*
X85040000Y-82710000D03*
X84140000Y-83610000D03*
X85040000Y-83610000D03*
X84140000Y-84510000D03*
X85040000Y-84510000D03*
X84140000Y-85410000D03*
X85040000Y-85410000D03*
X84140000Y-86310000D03*
X85040000Y-86310000D03*
X84140000Y-87210000D03*
X85040000Y-87210000D03*
X130860000Y-87900000D03*
X135700000Y-82930979D03*
X89350000Y-82732990D03*
X90200345Y-82733095D03*
D22*
X120650000Y-85625000D03*
X100440000Y-83210000D03*
X102449998Y-88550000D03*
D21*
X94070000Y-82520000D03*
X155200000Y-87400000D03*
X142262500Y-88900000D03*
X116925000Y-89050000D03*
X115550000Y-89175000D03*
X112075000Y-88500000D03*
X106850000Y-80837052D03*
X123314163Y-83964163D03*
X123400000Y-85675000D03*
X117000000Y-84950000D03*
X99070000Y-81330000D03*
X122575000Y-81550000D03*
X140300000Y-85174010D03*
X130640000Y-88840002D03*
X120355931Y-81248990D03*
X118970626Y-81248990D03*
X119671581Y-81248990D03*
X102230000Y-84719998D03*
X101849996Y-87900000D03*
D22*
X97330000Y-88320000D03*
X102946177Y-86195990D03*
X93820000Y-86100000D03*
X95290000Y-84090000D03*
X89450000Y-86500000D03*
X91000000Y-86650000D03*
X109800000Y-89350000D03*
X115600000Y-87264021D03*
X130269990Y-87430509D03*
D21*
X104500000Y-88900961D03*
X112500000Y-86450000D03*
D22*
X119650000Y-86614012D03*
X130123424Y-80653152D03*
X135010002Y-88310000D03*
X104680000Y-80850000D03*
X154800000Y-81650000D03*
X103360000Y-81210000D03*
X153850000Y-81029000D03*
X134534782Y-81029010D03*
X103596593Y-82935791D03*
X90710000Y-84525000D03*
X90334124Y-88535876D03*
X90710000Y-85475000D03*
X91005876Y-87864124D03*
X89400000Y-85750000D03*
X100550000Y-87350000D03*
X93425000Y-88525000D03*
X103630000Y-82150000D03*
X132050000Y-81214024D03*
D23*
X128760000Y-89025000D02*
X128760000Y-87025000D01*
X128760000Y-87025000D02*
X129475000Y-87025000D01*
X129475000Y-87025000D02*
X129500000Y-87000000D01*
D24*
X126250000Y-84680000D02*
X126750000Y-84180000D01*
X126750000Y-83964976D02*
X126750000Y-83470002D01*
X126750000Y-84180000D02*
X126750000Y-83964976D01*
X125000000Y-84680000D02*
X126250000Y-84680000D01*
D25*
X126575000Y-87240000D02*
X127790000Y-86025000D01*
X125000000Y-87240000D02*
X126575000Y-87240000D01*
X125000000Y-87240000D02*
X123315000Y-87240000D01*
X120106001Y-86156001D02*
X119924999Y-85974999D01*
X119924999Y-85974999D02*
X119700000Y-85750000D01*
X122231001Y-86156001D02*
X120106001Y-86156001D01*
X123315000Y-87240000D02*
X122231001Y-86156001D01*
X126935000Y-87880000D02*
X127790000Y-87025000D01*
X125000000Y-87880000D02*
X126935000Y-87880000D01*
X126215000Y-86600000D02*
X127790000Y-85025000D01*
X125000000Y-86600000D02*
X126215000Y-86600000D01*
X123300000Y-86600000D02*
X122325000Y-85625000D01*
X125000000Y-86600000D02*
X123300000Y-86600000D01*
X122325000Y-85625000D02*
X121074264Y-85625000D01*
X121074264Y-85625000D02*
X120650000Y-85625000D01*
X100440000Y-83210000D02*
X102260000Y-83210000D01*
X102260000Y-83210000D02*
X104150000Y-85100000D01*
X102749997Y-88250001D02*
X102449998Y-88550000D01*
X104150000Y-85100000D02*
X104150000Y-86849998D01*
X104150000Y-86849998D02*
X102749997Y-88250001D01*
D23*
X155200000Y-87400000D02*
X155200000Y-88350000D01*
X155200000Y-88350000D02*
X154550000Y-89000000D01*
X155371000Y-87075000D02*
X155250000Y-87196000D01*
X155850000Y-87075000D02*
X155371000Y-87075000D01*
X155250000Y-87196000D02*
X155250000Y-87350000D01*
X155250000Y-87350000D02*
X155200000Y-87300000D01*
X155850000Y-86396000D02*
X155850000Y-82925000D01*
X155850000Y-87075000D02*
X155850000Y-86396000D01*
X154550000Y-89000000D02*
X142350000Y-89000000D01*
X142350000Y-89000000D02*
X142250000Y-88900000D01*
D25*
X125000000Y-83400000D02*
X123750000Y-83400000D01*
X123750000Y-83400000D02*
X123625000Y-83400000D01*
X125000000Y-85320000D02*
X123630000Y-85320000D01*
X123630000Y-85320000D02*
X123625000Y-85325000D01*
D23*
X131134974Y-88840002D02*
X130640000Y-88840002D01*
X135925940Y-89145990D02*
X131440962Y-89145990D01*
X142262500Y-88900000D02*
X136171930Y-88900000D01*
X136171930Y-88900000D02*
X135925940Y-89145990D01*
D24*
X128760000Y-86025000D02*
X128760000Y-85025000D01*
D23*
X131197486Y-88902514D02*
X131134974Y-88840002D01*
X131440962Y-89145990D02*
X131197486Y-88902514D01*
D24*
X131550000Y-87000000D02*
X131550000Y-88450000D01*
X128760000Y-86025000D02*
X130575000Y-86025000D01*
X131550000Y-88450000D02*
X131150000Y-88850000D01*
X130575000Y-86025000D02*
X131550000Y-87000000D01*
D23*
X141575000Y-83899010D02*
X140300000Y-85174010D01*
X141575000Y-82925000D02*
X141575000Y-83899010D01*
X141575000Y-86449010D02*
X141575000Y-87075000D01*
X140300000Y-85174010D02*
X141575000Y-86449010D01*
X142100000Y-87075000D02*
X141575000Y-87075000D01*
X142262500Y-87237500D02*
X142100000Y-87075000D01*
X142262500Y-88900000D02*
X142262500Y-87237500D01*
D25*
X99454010Y-86195990D02*
X102946177Y-86195990D01*
X97330000Y-88320000D02*
X99454010Y-86195990D01*
X88060000Y-83300000D02*
X88000000Y-83240000D01*
X93820000Y-86100000D02*
X93050000Y-86100000D01*
X90250000Y-83300000D02*
X88060000Y-83300000D01*
X93050000Y-86100000D02*
X90250000Y-83300000D01*
X88000000Y-86240000D02*
X89190000Y-86240000D01*
X89190000Y-86240000D02*
X89450000Y-86500000D01*
X94250000Y-86650000D02*
X91000000Y-86650000D01*
X95290000Y-84090000D02*
X95290000Y-85610000D01*
X95290000Y-85610000D02*
X94250000Y-86650000D01*
X111885979Y-87264021D02*
X115175736Y-87264021D01*
X115175736Y-87264021D02*
X115600000Y-87264021D01*
X109800000Y-89350000D02*
X111885979Y-87264021D01*
X127130000Y-80840000D02*
X127265000Y-80975000D01*
X125000000Y-80840000D02*
X127130000Y-80840000D01*
X127900832Y-81309168D02*
X128235000Y-80975000D01*
X127635990Y-81574010D02*
X127900832Y-81309168D01*
X126344010Y-81574010D02*
X127635990Y-81574010D01*
X126250000Y-81480000D02*
X126344010Y-81574010D01*
X125000000Y-81480000D02*
X126250000Y-81480000D01*
X127160000Y-82120000D02*
X127240000Y-82200000D01*
X125000000Y-82120000D02*
X127160000Y-82120000D01*
X126250000Y-82760000D02*
X125000000Y-82760000D01*
X127610990Y-82799010D02*
X126289010Y-82799010D01*
X126289010Y-82799010D02*
X126250000Y-82760000D01*
X128210000Y-82200000D02*
X127610990Y-82799010D01*
X127295000Y-88520000D02*
X127790000Y-88025000D01*
X125000000Y-88520000D02*
X127295000Y-88520000D01*
X127655000Y-89160000D02*
X127790000Y-89025000D01*
X125000000Y-89160000D02*
X127655000Y-89160000D01*
D24*
X104500000Y-88900961D02*
X109599039Y-88900961D01*
X109599039Y-88900961D02*
X111750000Y-86750000D01*
X111750000Y-86750000D02*
X111900000Y-86600000D01*
X112000000Y-86500000D02*
X111750000Y-86750000D01*
X112500000Y-86450000D02*
X112050000Y-86450000D01*
X112050000Y-86450000D02*
X112000000Y-86500000D01*
X119874999Y-86839011D02*
X119650000Y-86614012D01*
X123476128Y-89611010D02*
X121715118Y-87850000D01*
X130269990Y-88390126D02*
X129049106Y-89611010D01*
X130269990Y-87430509D02*
X130269990Y-88390126D01*
X129049106Y-89611010D02*
X123476128Y-89611010D01*
X121715118Y-87850000D02*
X120885988Y-87850000D01*
X120885988Y-87850000D02*
X119874999Y-86839011D01*
D25*
X134910000Y-88209998D02*
X135010002Y-88310000D01*
X130123424Y-80653152D02*
X134910000Y-85439728D01*
X134910000Y-85439728D02*
X134910000Y-88209998D01*
X153700000Y-86396000D02*
X153700000Y-82925000D01*
X153700000Y-87075000D02*
X153700000Y-86396000D01*
X153850000Y-82775000D02*
X153700000Y-82925000D01*
X153850000Y-81029000D02*
X153850000Y-82775000D01*
X90710000Y-84525000D02*
X90425000Y-84240000D01*
X88831000Y-85240000D02*
X89100000Y-84971000D01*
X88000000Y-85240000D02*
X88831000Y-85240000D01*
X88831000Y-84240000D02*
X88000000Y-84240000D01*
X89100000Y-84971000D02*
X89100000Y-84509000D01*
X89100000Y-84509000D02*
X89100000Y-84500000D01*
X90425000Y-84240000D02*
X89360000Y-84240000D01*
X89100000Y-84250000D02*
X89090000Y-84240000D01*
X89100000Y-84509000D02*
X89100000Y-84250000D01*
X89360000Y-84240000D02*
X89090000Y-84240000D01*
X89090000Y-84240000D02*
X88000000Y-84240000D01*
X90334124Y-88149796D02*
X90334124Y-88535876D01*
X90437000Y-84798000D02*
X90437000Y-85063000D01*
X90710000Y-84525000D02*
X90437000Y-84798000D01*
X90437000Y-85063000D02*
X90070000Y-85430000D01*
X90070000Y-85430000D02*
X90070000Y-87885672D01*
X90070000Y-87885672D02*
X90334124Y-88149796D01*
X90390000Y-87634328D02*
X90619796Y-87864124D01*
X90710000Y-85475000D02*
X90390000Y-85795000D01*
X90619796Y-87864124D02*
X91005876Y-87864124D01*
X90390000Y-85795000D02*
X90390000Y-87634328D01*
X88000000Y-85740000D02*
X89390000Y-85740000D01*
X89390000Y-85740000D02*
X89400000Y-85750000D01*
X86900000Y-85009000D02*
X87169000Y-84740000D01*
X87169000Y-84740000D02*
X88000000Y-84740000D01*
X86900000Y-85471000D02*
X86900000Y-85009000D01*
X88000000Y-85740000D02*
X87169000Y-85740000D01*
X87169000Y-85740000D02*
X86900000Y-85471000D01*
X100550000Y-87350000D02*
X98600000Y-89300000D01*
X98600000Y-89300000D02*
X94200000Y-89300000D01*
X93350000Y-88450000D02*
X93425000Y-88525000D01*
X94200000Y-89300000D02*
X93425000Y-88525000D01*
D23*
X139425000Y-87075000D02*
X139425000Y-82925000D01*
D25*
X139425000Y-82925000D02*
X138850000Y-83500000D01*
X134335976Y-83500000D02*
X132050000Y-81214024D01*
X138850000Y-83500000D02*
X134335976Y-83500000D01*
D23*
G36*
X104431319Y-80384751D02*
G01*
X104345332Y-80442206D01*
X104272206Y-80515332D01*
X104214751Y-80601319D01*
X104175176Y-80696863D01*
X104155000Y-80798292D01*
X104155000Y-80901708D01*
X104175176Y-81003137D01*
X104214751Y-81098681D01*
X104272206Y-81184668D01*
X104345332Y-81257794D01*
X104431319Y-81315249D01*
X104526863Y-81354824D01*
X104628292Y-81375000D01*
X104731708Y-81375000D01*
X104833137Y-81354824D01*
X104928681Y-81315249D01*
X105014668Y-81257794D01*
X105087794Y-81184668D01*
X105145249Y-81098681D01*
X105184824Y-81003137D01*
X105205000Y-80901708D01*
X105205000Y-80798292D01*
X105184824Y-80696863D01*
X105145249Y-80601319D01*
X105087794Y-80515332D01*
X105014668Y-80442206D01*
X104928681Y-80384751D01*
X104905140Y-80375000D01*
X124500000Y-80375000D01*
X124500000Y-80378549D01*
X124000000Y-80378549D01*
X123941190Y-80384341D01*
X123884640Y-80401496D01*
X123832523Y-80429353D01*
X123786842Y-80466842D01*
X123749353Y-80512523D01*
X123721496Y-80564640D01*
X123704341Y-80621190D01*
X123698549Y-80680000D01*
X123698549Y-81000000D01*
X123704341Y-81058810D01*
X123721496Y-81115360D01*
X123745356Y-81160000D01*
X123721496Y-81204640D01*
X123704341Y-81261190D01*
X123698549Y-81320000D01*
X123698549Y-81640000D01*
X123704341Y-81698810D01*
X123721496Y-81755360D01*
X123745356Y-81800000D01*
X123721496Y-81844640D01*
X123704341Y-81901190D01*
X123698549Y-81960000D01*
X123698549Y-82280000D01*
X123704341Y-82338810D01*
X123721496Y-82395360D01*
X123745356Y-82440000D01*
X123721496Y-82484640D01*
X123704341Y-82541190D01*
X123698549Y-82600000D01*
X123698549Y-82920000D01*
X123704341Y-82978810D01*
X123721496Y-83035360D01*
X123749353Y-83087477D01*
X123786842Y-83133158D01*
X123832523Y-83170647D01*
X123884640Y-83198504D01*
X123941190Y-83215659D01*
X124000000Y-83221451D01*
X124500000Y-83221451D01*
X124500000Y-83578549D01*
X124000000Y-83578549D01*
X123941190Y-83584341D01*
X123884640Y-83601496D01*
X123832523Y-83629353D01*
X123786842Y-83666842D01*
X123749353Y-83712523D01*
X123721496Y-83764640D01*
X123704341Y-83821190D01*
X123698549Y-83880000D01*
X123698549Y-84200000D01*
X123704341Y-84258810D01*
X123721496Y-84315360D01*
X123745356Y-84360000D01*
X123721496Y-84404640D01*
X123704341Y-84461190D01*
X123698549Y-84520000D01*
X123698549Y-84840000D01*
X123704341Y-84898810D01*
X123721496Y-84955360D01*
X123749353Y-85007477D01*
X123786842Y-85053158D01*
X123832523Y-85090647D01*
X123884640Y-85118504D01*
X123941190Y-85135659D01*
X124000000Y-85141451D01*
X124500000Y-85141451D01*
X124500000Y-85498549D01*
X124000000Y-85498549D01*
X123941190Y-85504341D01*
X123884640Y-85521496D01*
X123832523Y-85549353D01*
X123786842Y-85586842D01*
X123749353Y-85632523D01*
X123721496Y-85684640D01*
X123704341Y-85741190D01*
X123698549Y-85800000D01*
X123698549Y-86120000D01*
X123704341Y-86178810D01*
X123721496Y-86235360D01*
X123727718Y-86247000D01*
X123446217Y-86247000D01*
X122586874Y-85387658D01*
X122575816Y-85374184D01*
X122522065Y-85330071D01*
X122460741Y-85297293D01*
X122394200Y-85277108D01*
X122342341Y-85272000D01*
X122342333Y-85272000D01*
X122325000Y-85270293D01*
X122307667Y-85272000D01*
X121039462Y-85272000D01*
X120984668Y-85217206D01*
X120898681Y-85159751D01*
X120803137Y-85120176D01*
X120701708Y-85100000D01*
X120598292Y-85100000D01*
X120496863Y-85120176D01*
X120401319Y-85159751D01*
X120315332Y-85217206D01*
X120242206Y-85290332D01*
X120184751Y-85376319D01*
X120145326Y-85471502D01*
X120107794Y-85415332D01*
X120034668Y-85342206D01*
X119948681Y-85284751D01*
X119853137Y-85245176D01*
X119751708Y-85225000D01*
X119648292Y-85225000D01*
X119546863Y-85245176D01*
X119451319Y-85284751D01*
X119365332Y-85342206D01*
X119292206Y-85415332D01*
X119234751Y-85501319D01*
X119195176Y-85596863D01*
X119175000Y-85698292D01*
X119175000Y-85801708D01*
X119195176Y-85903137D01*
X119234751Y-85998681D01*
X119292206Y-86084668D01*
X119365332Y-86157794D01*
X119376568Y-86165301D01*
X119315332Y-86206218D01*
X119242206Y-86279344D01*
X119184751Y-86365331D01*
X119145176Y-86460875D01*
X119125000Y-86562304D01*
X119125000Y-86665720D01*
X119145176Y-86767149D01*
X119184751Y-86862693D01*
X119242206Y-86948680D01*
X119315332Y-87021806D01*
X119401319Y-87079261D01*
X119496863Y-87118836D01*
X119598292Y-87139012D01*
X119641842Y-87139012D01*
X120606311Y-88103481D01*
X120618119Y-88117869D01*
X120675525Y-88164981D01*
X120741018Y-88199988D01*
X120812083Y-88221545D01*
X120867469Y-88227000D01*
X120867478Y-88227000D01*
X120885987Y-88228823D01*
X120904496Y-88227000D01*
X121342332Y-88227000D01*
X121333760Y-88228705D01*
X121189487Y-88288465D01*
X121059645Y-88375223D01*
X120949223Y-88485645D01*
X120862465Y-88615487D01*
X120802705Y-88759760D01*
X120772240Y-88912920D01*
X120772240Y-89069080D01*
X120802705Y-89222240D01*
X120862465Y-89366513D01*
X120949223Y-89496355D01*
X121059645Y-89606777D01*
X121086918Y-89625000D01*
X120379456Y-89625000D01*
X120406713Y-89584207D01*
X120451942Y-89475014D01*
X120475000Y-89359095D01*
X120475000Y-89240905D01*
X120451942Y-89124986D01*
X120406713Y-89015793D01*
X120341050Y-88917522D01*
X120257478Y-88833950D01*
X120159207Y-88768287D01*
X120050014Y-88723058D01*
X119934095Y-88700000D01*
X119815905Y-88700000D01*
X119699986Y-88723058D01*
X119590793Y-88768287D01*
X119492522Y-88833950D01*
X119408950Y-88917522D01*
X119343287Y-89015793D01*
X119298058Y-89124986D01*
X119275000Y-89240905D01*
X119275000Y-89359095D01*
X119298058Y-89475014D01*
X119343287Y-89584207D01*
X119370544Y-89625000D01*
X110247663Y-89625000D01*
X110265249Y-89598681D01*
X110304824Y-89503137D01*
X110325000Y-89401708D01*
X110325000Y-89324216D01*
X112032196Y-87617021D01*
X115210538Y-87617021D01*
X115265332Y-87671815D01*
X115351319Y-87729270D01*
X115446863Y-87768845D01*
X115548292Y-87789021D01*
X115651708Y-87789021D01*
X115714908Y-87776449D01*
X115690970Y-87896795D01*
X115690970Y-88053205D01*
X115721484Y-88206610D01*
X115781340Y-88351114D01*
X115868237Y-88481165D01*
X115978835Y-88591763D01*
X116108886Y-88678660D01*
X116253390Y-88738516D01*
X116406795Y-88769030D01*
X116563205Y-88769030D01*
X116716610Y-88738516D01*
X116861114Y-88678660D01*
X116991165Y-88591763D01*
X117101763Y-88481165D01*
X117188660Y-88351114D01*
X117248516Y-88206610D01*
X117279030Y-88053205D01*
X117279030Y-87896795D01*
X117248516Y-87743390D01*
X117188660Y-87598886D01*
X117101763Y-87468835D01*
X116991165Y-87358237D01*
X116861114Y-87271340D01*
X116716610Y-87211484D01*
X116563205Y-87180970D01*
X116406795Y-87180970D01*
X116253390Y-87211484D01*
X116125000Y-87264665D01*
X116125000Y-87212313D01*
X116104824Y-87110884D01*
X116065249Y-87015340D01*
X116007794Y-86929353D01*
X115934668Y-86856227D01*
X115848681Y-86798772D01*
X115753137Y-86759197D01*
X115651708Y-86739021D01*
X115548292Y-86739021D01*
X115446863Y-86759197D01*
X115351319Y-86798772D01*
X115265332Y-86856227D01*
X115210538Y-86911021D01*
X112887507Y-86911021D01*
X112966050Y-86832478D01*
X113031713Y-86734207D01*
X113076942Y-86625014D01*
X113100000Y-86509095D01*
X113100000Y-86390905D01*
X113076942Y-86274986D01*
X113031713Y-86165793D01*
X112966050Y-86067522D01*
X112882478Y-85983950D01*
X112784207Y-85918287D01*
X112675014Y-85873058D01*
X112559095Y-85850000D01*
X112440905Y-85850000D01*
X112324986Y-85873058D01*
X112215793Y-85918287D01*
X112117522Y-85983950D01*
X112033950Y-86067522D01*
X112030206Y-86073126D01*
X111976095Y-86078455D01*
X111905030Y-86100012D01*
X111839537Y-86135019D01*
X111782131Y-86182131D01*
X111770323Y-86196519D01*
X111720326Y-86246516D01*
X111720322Y-86246521D01*
X111646520Y-86320323D01*
X111646516Y-86320326D01*
X111496521Y-86470321D01*
X111496515Y-86470326D01*
X110902021Y-87064821D01*
X110881713Y-87015793D01*
X110816050Y-86917522D01*
X110732478Y-86833950D01*
X110634207Y-86768287D01*
X110525014Y-86723058D01*
X110409095Y-86700000D01*
X110290905Y-86700000D01*
X110174986Y-86723058D01*
X110065793Y-86768287D01*
X109967522Y-86833950D01*
X109883950Y-86917522D01*
X109818287Y-87015793D01*
X109773058Y-87124986D01*
X109750000Y-87240905D01*
X109750000Y-87359095D01*
X109773058Y-87475014D01*
X109818287Y-87584207D01*
X109883950Y-87682478D01*
X109967522Y-87766050D01*
X110065793Y-87831713D01*
X110114821Y-87852021D01*
X109442881Y-88523961D01*
X104969710Y-88523961D01*
X104966050Y-88518483D01*
X104882478Y-88434911D01*
X104784207Y-88369248D01*
X104675014Y-88324019D01*
X104559095Y-88300961D01*
X104440905Y-88300961D01*
X104324986Y-88324019D01*
X104215793Y-88369248D01*
X104117522Y-88434911D01*
X104033950Y-88518483D01*
X103968287Y-88616754D01*
X103923058Y-88725947D01*
X103900000Y-88841866D01*
X103900000Y-88960056D01*
X103923058Y-89075975D01*
X103968287Y-89185168D01*
X104033950Y-89283439D01*
X104117522Y-89367011D01*
X104215793Y-89432674D01*
X104324986Y-89477903D01*
X104440905Y-89500961D01*
X104559095Y-89500961D01*
X104675014Y-89477903D01*
X104784207Y-89432674D01*
X104882478Y-89367011D01*
X104966050Y-89283439D01*
X104969710Y-89277961D01*
X109279044Y-89277961D01*
X109275000Y-89298292D01*
X109275000Y-89401708D01*
X109295176Y-89503137D01*
X109334751Y-89598681D01*
X109352337Y-89625000D01*
X98740805Y-89625000D01*
X98797065Y-89594929D01*
X98850816Y-89550816D01*
X98861874Y-89537342D01*
X100524218Y-87875000D01*
X100601708Y-87875000D01*
X100703137Y-87854824D01*
X100798681Y-87815249D01*
X100884668Y-87757794D01*
X100957794Y-87684668D01*
X101015249Y-87598681D01*
X101054824Y-87503137D01*
X101075000Y-87401708D01*
X101075000Y-87298292D01*
X101054824Y-87196863D01*
X101015249Y-87101319D01*
X100957794Y-87015332D01*
X100884668Y-86942206D01*
X100798681Y-86884751D01*
X100703137Y-86845176D01*
X100601708Y-86825000D01*
X100498292Y-86825000D01*
X100396863Y-86845176D01*
X100301319Y-86884751D01*
X100215332Y-86942206D01*
X100142206Y-87015332D01*
X100084751Y-87101319D01*
X100045176Y-87196863D01*
X100025000Y-87298292D01*
X100025000Y-87375782D01*
X98453784Y-88947000D01*
X94346217Y-88947000D01*
X93950000Y-88550784D01*
X93950000Y-88473292D01*
X93929824Y-88371863D01*
X93890249Y-88276319D01*
X93884886Y-88268292D01*
X96805000Y-88268292D01*
X96805000Y-88371708D01*
X96825176Y-88473137D01*
X96864751Y-88568681D01*
X96922206Y-88654668D01*
X96995332Y-88727794D01*
X97081319Y-88785249D01*
X97176863Y-88824824D01*
X97278292Y-88845000D01*
X97381708Y-88845000D01*
X97483137Y-88824824D01*
X97578681Y-88785249D01*
X97664668Y-88727794D01*
X97737794Y-88654668D01*
X97795249Y-88568681D01*
X97834824Y-88473137D01*
X97855000Y-88371708D01*
X97855000Y-88294216D01*
X99600227Y-86548990D01*
X102556715Y-86548990D01*
X102611509Y-86603784D01*
X102697496Y-86661239D01*
X102793040Y-86700814D01*
X102894469Y-86720990D01*
X102997885Y-86720990D01*
X103099314Y-86700814D01*
X103194858Y-86661239D01*
X103280845Y-86603784D01*
X103353971Y-86530658D01*
X103411426Y-86444671D01*
X103451001Y-86349127D01*
X103471177Y-86247698D01*
X103471177Y-86144282D01*
X103451001Y-86042853D01*
X103411426Y-85947309D01*
X103353971Y-85861322D01*
X103280845Y-85788196D01*
X103194858Y-85730741D01*
X103099314Y-85691166D01*
X102997885Y-85670990D01*
X102894469Y-85670990D01*
X102793040Y-85691166D01*
X102697496Y-85730741D01*
X102611509Y-85788196D01*
X102556715Y-85842990D01*
X99471343Y-85842990D01*
X99454010Y-85841283D01*
X99436677Y-85842990D01*
X99436669Y-85842990D01*
X99392435Y-85847347D01*
X99384809Y-85848098D01*
X99318269Y-85868283D01*
X99256945Y-85901061D01*
X99203194Y-85945174D01*
X99192141Y-85958642D01*
X97355784Y-87795000D01*
X97278292Y-87795000D01*
X97176863Y-87815176D01*
X97081319Y-87854751D01*
X96995332Y-87912206D01*
X96922206Y-87985332D01*
X96864751Y-88071319D01*
X96825176Y-88166863D01*
X96805000Y-88268292D01*
X93884886Y-88268292D01*
X93832794Y-88190332D01*
X93759668Y-88117206D01*
X93673681Y-88059751D01*
X93625000Y-88039587D01*
X93625000Y-87500905D01*
X95620000Y-87500905D01*
X95620000Y-87619095D01*
X95643058Y-87735014D01*
X95688287Y-87844207D01*
X95753950Y-87942478D01*
X95837522Y-88026050D01*
X95935793Y-88091713D01*
X96044986Y-88136942D01*
X96160905Y-88160000D01*
X96279095Y-88160000D01*
X96395014Y-88136942D01*
X96504207Y-88091713D01*
X96602478Y-88026050D01*
X96686050Y-87942478D01*
X96751713Y-87844207D01*
X96796942Y-87735014D01*
X96820000Y-87619095D01*
X96820000Y-87500905D01*
X96796942Y-87384986D01*
X96751713Y-87275793D01*
X96686050Y-87177522D01*
X96602478Y-87093950D01*
X96504207Y-87028287D01*
X96395014Y-86983058D01*
X96279095Y-86960000D01*
X96160905Y-86960000D01*
X96044986Y-86983058D01*
X95935793Y-87028287D01*
X95837522Y-87093950D01*
X95753950Y-87177522D01*
X95688287Y-87275793D01*
X95643058Y-87384986D01*
X95620000Y-87500905D01*
X93625000Y-87500905D01*
X93625000Y-87003000D01*
X94232667Y-87003000D01*
X94250000Y-87004707D01*
X94267333Y-87003000D01*
X94267341Y-87003000D01*
X94319200Y-86997892D01*
X94385741Y-86977707D01*
X94447065Y-86944929D01*
X94500816Y-86900816D01*
X94511874Y-86887342D01*
X95527347Y-85871870D01*
X95540816Y-85860816D01*
X95558509Y-85839258D01*
X95584928Y-85807066D01*
X95585995Y-85805071D01*
X95617707Y-85745741D01*
X95619088Y-85741190D01*
X95637892Y-85679201D01*
X95638701Y-85670990D01*
X95643000Y-85627341D01*
X95643000Y-85627334D01*
X95644707Y-85610001D01*
X95643000Y-85592668D01*
X95643000Y-84610905D01*
X97230000Y-84610905D01*
X97230000Y-84729095D01*
X97253058Y-84845014D01*
X97298287Y-84954207D01*
X97363950Y-85052478D01*
X97447522Y-85136050D01*
X97545793Y-85201713D01*
X97654986Y-85246942D01*
X97770905Y-85270000D01*
X97889095Y-85270000D01*
X98005014Y-85246942D01*
X98114207Y-85201713D01*
X98212478Y-85136050D01*
X98296050Y-85052478D01*
X98361713Y-84954207D01*
X98406942Y-84845014D01*
X98430000Y-84729095D01*
X98430000Y-84630905D01*
X98660000Y-84630905D01*
X98660000Y-84749095D01*
X98683058Y-84865014D01*
X98728287Y-84974207D01*
X98793950Y-85072478D01*
X98877522Y-85156050D01*
X98975793Y-85221713D01*
X99084986Y-85266942D01*
X99200905Y-85290000D01*
X99319095Y-85290000D01*
X99435014Y-85266942D01*
X99544207Y-85221713D01*
X99642478Y-85156050D01*
X99726050Y-85072478D01*
X99791713Y-84974207D01*
X99836942Y-84865014D01*
X99860000Y-84749095D01*
X99860000Y-84630905D01*
X99836942Y-84514986D01*
X99791713Y-84405793D01*
X99726050Y-84307522D01*
X99642478Y-84223950D01*
X99544207Y-84158287D01*
X99435014Y-84113058D01*
X99319095Y-84090000D01*
X99200905Y-84090000D01*
X99084986Y-84113058D01*
X98975793Y-84158287D01*
X98877522Y-84223950D01*
X98793950Y-84307522D01*
X98728287Y-84405793D01*
X98683058Y-84514986D01*
X98660000Y-84630905D01*
X98430000Y-84630905D01*
X98430000Y-84610905D01*
X98406942Y-84494986D01*
X98361713Y-84385793D01*
X98296050Y-84287522D01*
X98212478Y-84203950D01*
X98114207Y-84138287D01*
X98005014Y-84093058D01*
X97889095Y-84070000D01*
X97770905Y-84070000D01*
X97654986Y-84093058D01*
X97545793Y-84138287D01*
X97447522Y-84203950D01*
X97363950Y-84287522D01*
X97298287Y-84385793D01*
X97253058Y-84494986D01*
X97230000Y-84610905D01*
X95643000Y-84610905D01*
X95643000Y-84479462D01*
X95697794Y-84424668D01*
X95755249Y-84338681D01*
X95794824Y-84243137D01*
X95815000Y-84141708D01*
X95815000Y-84038292D01*
X95794824Y-83936863D01*
X95755249Y-83841319D01*
X95697794Y-83755332D01*
X95624668Y-83682206D01*
X95538681Y-83624751D01*
X95443137Y-83585176D01*
X95341708Y-83565000D01*
X95238292Y-83565000D01*
X95136863Y-83585176D01*
X95041319Y-83624751D01*
X94955332Y-83682206D01*
X94882206Y-83755332D01*
X94824751Y-83841319D01*
X94785176Y-83936863D01*
X94765000Y-84038292D01*
X94765000Y-84141708D01*
X94785176Y-84243137D01*
X94824751Y-84338681D01*
X94882206Y-84424668D01*
X94937000Y-84479462D01*
X94937001Y-85463782D01*
X94345000Y-86055784D01*
X94345000Y-86048292D01*
X94324824Y-85946863D01*
X94285249Y-85851319D01*
X94227794Y-85765332D01*
X94154668Y-85692206D01*
X94068681Y-85634751D01*
X93973137Y-85595176D01*
X93871708Y-85575000D01*
X93768292Y-85575000D01*
X93666863Y-85595176D01*
X93625000Y-85612516D01*
X93625000Y-83158292D01*
X99915000Y-83158292D01*
X99915000Y-83261708D01*
X99935176Y-83363137D01*
X99974751Y-83458681D01*
X100032206Y-83544668D01*
X100105332Y-83617794D01*
X100191319Y-83675249D01*
X100286863Y-83714824D01*
X100388292Y-83735000D01*
X100491708Y-83735000D01*
X100593137Y-83714824D01*
X100688681Y-83675249D01*
X100774668Y-83617794D01*
X100829462Y-83563000D01*
X102113784Y-83563000D01*
X103797000Y-85246217D01*
X103797001Y-86703780D01*
X102512655Y-87988127D01*
X102512650Y-87988131D01*
X102475781Y-88025000D01*
X102398290Y-88025000D01*
X102296861Y-88045176D01*
X102201317Y-88084751D01*
X102115330Y-88142206D01*
X102042204Y-88215332D01*
X101984749Y-88301319D01*
X101945174Y-88396863D01*
X101924998Y-88498292D01*
X101924998Y-88601708D01*
X101945174Y-88703137D01*
X101984749Y-88798681D01*
X102042204Y-88884668D01*
X102115330Y-88957794D01*
X102201317Y-89015249D01*
X102296861Y-89054824D01*
X102398290Y-89075000D01*
X102501706Y-89075000D01*
X102603135Y-89054824D01*
X102698679Y-89015249D01*
X102784666Y-88957794D01*
X102857792Y-88884668D01*
X102915247Y-88798681D01*
X102954822Y-88703137D01*
X102974998Y-88601708D01*
X102974998Y-88524217D01*
X103011867Y-88487348D01*
X103011871Y-88487343D01*
X104258309Y-87240905D01*
X105150000Y-87240905D01*
X105150000Y-87359095D01*
X105173058Y-87475014D01*
X105218287Y-87584207D01*
X105283950Y-87682478D01*
X105367522Y-87766050D01*
X105465793Y-87831713D01*
X105574986Y-87876942D01*
X105690905Y-87900000D01*
X105809095Y-87900000D01*
X105925014Y-87876942D01*
X106034207Y-87831713D01*
X106132478Y-87766050D01*
X106216050Y-87682478D01*
X106281713Y-87584207D01*
X106326942Y-87475014D01*
X106350000Y-87359095D01*
X106350000Y-87240905D01*
X106326942Y-87124986D01*
X106281713Y-87015793D01*
X106216050Y-86917522D01*
X106132478Y-86833950D01*
X106034207Y-86768287D01*
X105925014Y-86723058D01*
X105809095Y-86700000D01*
X105690905Y-86700000D01*
X105574986Y-86723058D01*
X105465793Y-86768287D01*
X105367522Y-86833950D01*
X105283950Y-86917522D01*
X105218287Y-87015793D01*
X105173058Y-87124986D01*
X105150000Y-87240905D01*
X104258309Y-87240905D01*
X104387347Y-87111868D01*
X104400816Y-87100814D01*
X104444929Y-87047063D01*
X104477707Y-86985739D01*
X104478928Y-86981713D01*
X104497892Y-86919199D01*
X104498866Y-86909314D01*
X104503000Y-86867339D01*
X104503000Y-86867332D01*
X104504707Y-86849999D01*
X104503000Y-86832666D01*
X104503000Y-85117333D01*
X104504707Y-85100000D01*
X104503000Y-85082667D01*
X104503000Y-85082659D01*
X104497892Y-85030800D01*
X104477707Y-84964259D01*
X104444929Y-84902935D01*
X104427086Y-84881194D01*
X104411870Y-84862653D01*
X104411865Y-84862648D01*
X104400815Y-84849184D01*
X104390728Y-84840905D01*
X117300000Y-84840905D01*
X117300000Y-84959095D01*
X117323058Y-85075014D01*
X117368287Y-85184207D01*
X117433950Y-85282478D01*
X117517522Y-85366050D01*
X117615793Y-85431713D01*
X117724986Y-85476942D01*
X117840905Y-85500000D01*
X117959095Y-85500000D01*
X118075014Y-85476942D01*
X118184207Y-85431713D01*
X118252619Y-85386002D01*
X118302595Y-85419395D01*
X118411788Y-85464624D01*
X118527707Y-85487682D01*
X118645897Y-85487682D01*
X118761816Y-85464624D01*
X118871009Y-85419395D01*
X118969280Y-85353732D01*
X119052852Y-85270160D01*
X119118515Y-85171889D01*
X119163744Y-85062696D01*
X119186802Y-84946777D01*
X119186802Y-84828587D01*
X119163744Y-84712668D01*
X119118515Y-84603475D01*
X119052852Y-84505204D01*
X118969280Y-84421632D01*
X118871009Y-84355969D01*
X118761816Y-84310740D01*
X118645897Y-84287682D01*
X118527707Y-84287682D01*
X118411788Y-84310740D01*
X118302595Y-84355969D01*
X118234183Y-84401680D01*
X118184207Y-84368287D01*
X118075014Y-84323058D01*
X117959095Y-84300000D01*
X117840905Y-84300000D01*
X117724986Y-84323058D01*
X117615793Y-84368287D01*
X117517522Y-84433950D01*
X117433950Y-84517522D01*
X117368287Y-84615793D01*
X117323058Y-84724986D01*
X117300000Y-84840905D01*
X104390728Y-84840905D01*
X104387352Y-84838135D01*
X102521874Y-82972658D01*
X102510816Y-82959184D01*
X102457065Y-82915071D01*
X102395741Y-82882293D01*
X102329200Y-82862108D01*
X102277341Y-82857000D01*
X102277333Y-82857000D01*
X102260000Y-82855293D01*
X102242667Y-82857000D01*
X100829462Y-82857000D01*
X100774668Y-82802206D01*
X100688681Y-82744751D01*
X100593137Y-82705176D01*
X100491708Y-82685000D01*
X100388292Y-82685000D01*
X100286863Y-82705176D01*
X100191319Y-82744751D01*
X100105332Y-82802206D01*
X100032206Y-82875332D01*
X99974751Y-82961319D01*
X99935176Y-83056863D01*
X99915000Y-83158292D01*
X93625000Y-83158292D01*
X93625000Y-81250905D01*
X95640000Y-81250905D01*
X95640000Y-81369095D01*
X95663058Y-81485014D01*
X95708287Y-81594207D01*
X95773950Y-81692478D01*
X95857522Y-81776050D01*
X95955793Y-81841713D01*
X96064986Y-81886942D01*
X96180905Y-81910000D01*
X96299095Y-81910000D01*
X96415014Y-81886942D01*
X96524207Y-81841713D01*
X96622478Y-81776050D01*
X96706050Y-81692478D01*
X96771713Y-81594207D01*
X96816942Y-81485014D01*
X96840000Y-81369095D01*
X96840000Y-81280905D01*
X99610000Y-81280905D01*
X99610000Y-81399095D01*
X99633058Y-81515014D01*
X99678287Y-81624207D01*
X99743950Y-81722478D01*
X99827522Y-81806050D01*
X99925793Y-81871713D01*
X100034986Y-81916942D01*
X100150905Y-81940000D01*
X100269095Y-81940000D01*
X100385014Y-81916942D01*
X100494207Y-81871713D01*
X100592478Y-81806050D01*
X100676050Y-81722478D01*
X100741713Y-81624207D01*
X100786942Y-81515014D01*
X100810000Y-81399095D01*
X100810000Y-81280905D01*
X100786942Y-81164986D01*
X100784170Y-81158292D01*
X102835000Y-81158292D01*
X102835000Y-81261708D01*
X102855176Y-81363137D01*
X102894751Y-81458681D01*
X102952206Y-81544668D01*
X103025332Y-81617794D01*
X103111319Y-81675249D01*
X103206863Y-81714824D01*
X103306616Y-81734667D01*
X103295332Y-81742206D01*
X103222206Y-81815332D01*
X103164751Y-81901319D01*
X103125176Y-81996863D01*
X103105000Y-82098292D01*
X103105000Y-82201708D01*
X103125176Y-82303137D01*
X103164751Y-82398681D01*
X103222206Y-82484668D01*
X103264089Y-82526551D01*
X103261925Y-82527997D01*
X103188799Y-82601123D01*
X103131344Y-82687110D01*
X103091769Y-82782654D01*
X103071593Y-82884083D01*
X103071593Y-82987499D01*
X103091769Y-83088928D01*
X103131344Y-83184472D01*
X103188799Y-83270459D01*
X103261925Y-83343585D01*
X103347912Y-83401040D01*
X103443456Y-83440615D01*
X103544885Y-83460791D01*
X103648301Y-83460791D01*
X103749730Y-83440615D01*
X103845274Y-83401040D01*
X103931261Y-83343585D01*
X104004387Y-83270459D01*
X104061842Y-83184472D01*
X104101417Y-83088928D01*
X104121593Y-82987499D01*
X104121593Y-82884083D01*
X104101417Y-82782654D01*
X104061842Y-82687110D01*
X104051689Y-82671915D01*
X105155086Y-82671915D01*
X105155086Y-82790105D01*
X105178144Y-82906024D01*
X105223373Y-83015217D01*
X105289036Y-83113488D01*
X105372608Y-83197060D01*
X105470879Y-83262723D01*
X105580072Y-83307952D01*
X105695991Y-83331010D01*
X105814181Y-83331010D01*
X105930100Y-83307952D01*
X106039293Y-83262723D01*
X106137564Y-83197060D01*
X106221136Y-83113488D01*
X106286799Y-83015217D01*
X106332028Y-82906024D01*
X106355086Y-82790105D01*
X106355086Y-82671915D01*
X106348918Y-82640905D01*
X109750000Y-82640905D01*
X109750000Y-82759095D01*
X109773058Y-82875014D01*
X109818287Y-82984207D01*
X109883950Y-83082478D01*
X109967522Y-83166050D01*
X110065793Y-83231713D01*
X110174986Y-83276942D01*
X110290905Y-83300000D01*
X110409095Y-83300000D01*
X110525014Y-83276942D01*
X110634207Y-83231713D01*
X110732478Y-83166050D01*
X110816050Y-83082478D01*
X110881713Y-82984207D01*
X110926942Y-82875014D01*
X110950000Y-82759095D01*
X110950000Y-82640905D01*
X110926942Y-82524986D01*
X110881713Y-82415793D01*
X110816050Y-82317522D01*
X110732478Y-82233950D01*
X110634207Y-82168287D01*
X110568101Y-82140905D01*
X115700000Y-82140905D01*
X115700000Y-82259095D01*
X115723058Y-82375014D01*
X115768287Y-82484207D01*
X115833950Y-82582478D01*
X115917522Y-82666050D01*
X116015793Y-82731713D01*
X116124986Y-82776942D01*
X116240905Y-82800000D01*
X116359095Y-82800000D01*
X116475014Y-82776942D01*
X116584207Y-82731713D01*
X116682478Y-82666050D01*
X116766050Y-82582478D01*
X116831713Y-82484207D01*
X116876942Y-82375014D01*
X116900000Y-82259095D01*
X116900000Y-82140905D01*
X117300000Y-82140905D01*
X117300000Y-82259095D01*
X117323058Y-82375014D01*
X117368287Y-82484207D01*
X117433950Y-82582478D01*
X117517522Y-82666050D01*
X117615793Y-82731713D01*
X117724986Y-82776942D01*
X117840905Y-82800000D01*
X117959095Y-82800000D01*
X118075014Y-82776942D01*
X118184207Y-82731713D01*
X118282478Y-82666050D01*
X118366050Y-82582478D01*
X118431713Y-82484207D01*
X118476942Y-82375014D01*
X118500000Y-82259095D01*
X118500000Y-82140905D01*
X118476942Y-82024986D01*
X118431713Y-81915793D01*
X118366050Y-81817522D01*
X118282478Y-81733950D01*
X118184207Y-81668287D01*
X118075014Y-81623058D01*
X117959095Y-81600000D01*
X117840905Y-81600000D01*
X117724986Y-81623058D01*
X117615793Y-81668287D01*
X117517522Y-81733950D01*
X117433950Y-81817522D01*
X117368287Y-81915793D01*
X117323058Y-82024986D01*
X117300000Y-82140905D01*
X116900000Y-82140905D01*
X116876942Y-82024986D01*
X116831713Y-81915793D01*
X116766050Y-81817522D01*
X116682478Y-81733950D01*
X116584207Y-81668287D01*
X116475014Y-81623058D01*
X116359095Y-81600000D01*
X116240905Y-81600000D01*
X116124986Y-81623058D01*
X116015793Y-81668287D01*
X115917522Y-81733950D01*
X115833950Y-81817522D01*
X115768287Y-81915793D01*
X115723058Y-82024986D01*
X115700000Y-82140905D01*
X110568101Y-82140905D01*
X110525014Y-82123058D01*
X110409095Y-82100000D01*
X110290905Y-82100000D01*
X110174986Y-82123058D01*
X110065793Y-82168287D01*
X109967522Y-82233950D01*
X109883950Y-82317522D01*
X109818287Y-82415793D01*
X109773058Y-82524986D01*
X109750000Y-82640905D01*
X106348918Y-82640905D01*
X106332028Y-82555996D01*
X106286799Y-82446803D01*
X106221136Y-82348532D01*
X106137564Y-82264960D01*
X106039293Y-82199297D01*
X105930100Y-82154068D01*
X105814181Y-82131010D01*
X105695991Y-82131010D01*
X105580072Y-82154068D01*
X105470879Y-82199297D01*
X105372608Y-82264960D01*
X105289036Y-82348532D01*
X105223373Y-82446803D01*
X105178144Y-82555996D01*
X105155086Y-82671915D01*
X104051689Y-82671915D01*
X104004387Y-82601123D01*
X103962504Y-82559240D01*
X103964668Y-82557794D01*
X104037794Y-82484668D01*
X104095249Y-82398681D01*
X104134824Y-82303137D01*
X104155000Y-82201708D01*
X104155000Y-82098292D01*
X104134824Y-81996863D01*
X104095249Y-81901319D01*
X104037794Y-81815332D01*
X103964668Y-81742206D01*
X103878681Y-81684751D01*
X103783137Y-81645176D01*
X103683384Y-81625333D01*
X103694668Y-81617794D01*
X103767794Y-81544668D01*
X103825249Y-81458681D01*
X103864824Y-81363137D01*
X103885000Y-81261708D01*
X103885000Y-81158292D01*
X103864824Y-81056863D01*
X103825249Y-80961319D01*
X103767794Y-80875332D01*
X103694668Y-80802206D01*
X103608681Y-80744751D01*
X103513137Y-80705176D01*
X103411708Y-80685000D01*
X103308292Y-80685000D01*
X103206863Y-80705176D01*
X103111319Y-80744751D01*
X103025332Y-80802206D01*
X102952206Y-80875332D01*
X102894751Y-80961319D01*
X102855176Y-81056863D01*
X102835000Y-81158292D01*
X100784170Y-81158292D01*
X100741713Y-81055793D01*
X100676050Y-80957522D01*
X100592478Y-80873950D01*
X100494207Y-80808287D01*
X100385014Y-80763058D01*
X100269095Y-80740000D01*
X100150905Y-80740000D01*
X100034986Y-80763058D01*
X99925793Y-80808287D01*
X99827522Y-80873950D01*
X99743950Y-80957522D01*
X99678287Y-81055793D01*
X99633058Y-81164986D01*
X99610000Y-81280905D01*
X96840000Y-81280905D01*
X96840000Y-81250905D01*
X96816942Y-81134986D01*
X96771713Y-81025793D01*
X96706050Y-80927522D01*
X96622478Y-80843950D01*
X96524207Y-80778287D01*
X96415014Y-80733058D01*
X96299095Y-80710000D01*
X96180905Y-80710000D01*
X96064986Y-80733058D01*
X95955793Y-80778287D01*
X95857522Y-80843950D01*
X95773950Y-80927522D01*
X95708287Y-81025793D01*
X95663058Y-81134986D01*
X95640000Y-81250905D01*
X93625000Y-81250905D01*
X93625000Y-80375000D01*
X104454860Y-80375000D01*
X104431319Y-80384751D01*
X104431319Y-80384751D01*
G37*
X104431319Y-80384751D02*
X104345332Y-80442206D01*
X104272206Y-80515332D01*
X104214751Y-80601319D01*
X104175176Y-80696863D01*
X104155000Y-80798292D01*
X104155000Y-80901708D01*
X104175176Y-81003137D01*
X104214751Y-81098681D01*
X104272206Y-81184668D01*
X104345332Y-81257794D01*
X104431319Y-81315249D01*
X104526863Y-81354824D01*
X104628292Y-81375000D01*
X104731708Y-81375000D01*
X104833137Y-81354824D01*
X104928681Y-81315249D01*
X105014668Y-81257794D01*
X105087794Y-81184668D01*
X105145249Y-81098681D01*
X105184824Y-81003137D01*
X105205000Y-80901708D01*
X105205000Y-80798292D01*
X105184824Y-80696863D01*
X105145249Y-80601319D01*
X105087794Y-80515332D01*
X105014668Y-80442206D01*
X104928681Y-80384751D01*
X104905140Y-80375000D01*
X124500000Y-80375000D01*
X124500000Y-80378549D01*
X124000000Y-80378549D01*
X123941190Y-80384341D01*
X123884640Y-80401496D01*
X123832523Y-80429353D01*
X123786842Y-80466842D01*
X123749353Y-80512523D01*
X123721496Y-80564640D01*
X123704341Y-80621190D01*
X123698549Y-80680000D01*
X123698549Y-81000000D01*
X123704341Y-81058810D01*
X123721496Y-81115360D01*
X123745356Y-81160000D01*
X123721496Y-81204640D01*
X123704341Y-81261190D01*
X123698549Y-81320000D01*
X123698549Y-81640000D01*
X123704341Y-81698810D01*
X123721496Y-81755360D01*
X123745356Y-81800000D01*
X123721496Y-81844640D01*
X123704341Y-81901190D01*
X123698549Y-81960000D01*
X123698549Y-82280000D01*
X123704341Y-82338810D01*
X123721496Y-82395360D01*
X123745356Y-82440000D01*
X123721496Y-82484640D01*
X123704341Y-82541190D01*
X123698549Y-82600000D01*
X123698549Y-82920000D01*
X123704341Y-82978810D01*
X123721496Y-83035360D01*
X123749353Y-83087477D01*
X123786842Y-83133158D01*
X123832523Y-83170647D01*
X123884640Y-83198504D01*
X123941190Y-83215659D01*
X124000000Y-83221451D01*
X124500000Y-83221451D01*
X124500000Y-83578549D01*
X124000000Y-83578549D01*
X123941190Y-83584341D01*
X123884640Y-83601496D01*
X123832523Y-83629353D01*
X123786842Y-83666842D01*
X123749353Y-83712523D01*
X123721496Y-83764640D01*
X123704341Y-83821190D01*
X123698549Y-83880000D01*
X123698549Y-84200000D01*
X123704341Y-84258810D01*
X123721496Y-84315360D01*
X123745356Y-84360000D01*
X123721496Y-84404640D01*
X123704341Y-84461190D01*
X123698549Y-84520000D01*
X123698549Y-84840000D01*
X123704341Y-84898810D01*
X123721496Y-84955360D01*
X123749353Y-85007477D01*
X123786842Y-85053158D01*
X123832523Y-85090647D01*
X123884640Y-85118504D01*
X123941190Y-85135659D01*
X124000000Y-85141451D01*
X124500000Y-85141451D01*
X124500000Y-85498549D01*
X124000000Y-85498549D01*
X123941190Y-85504341D01*
X123884640Y-85521496D01*
X123832523Y-85549353D01*
X123786842Y-85586842D01*
X123749353Y-85632523D01*
X123721496Y-85684640D01*
X123704341Y-85741190D01*
X123698549Y-85800000D01*
X123698549Y-86120000D01*
X123704341Y-86178810D01*
X123721496Y-86235360D01*
X123727718Y-86247000D01*
X123446217Y-86247000D01*
X122586874Y-85387658D01*
X122575816Y-85374184D01*
X122522065Y-85330071D01*
X122460741Y-85297293D01*
X122394200Y-85277108D01*
X122342341Y-85272000D01*
X122342333Y-85272000D01*
X122325000Y-85270293D01*
X122307667Y-85272000D01*
X121039462Y-85272000D01*
X120984668Y-85217206D01*
X120898681Y-85159751D01*
X120803137Y-85120176D01*
X120701708Y-85100000D01*
X120598292Y-85100000D01*
X120496863Y-85120176D01*
X120401319Y-85159751D01*
X120315332Y-85217206D01*
X120242206Y-85290332D01*
X120184751Y-85376319D01*
X120145326Y-85471502D01*
X120107794Y-85415332D01*
X120034668Y-85342206D01*
X119948681Y-85284751D01*
X119853137Y-85245176D01*
X119751708Y-85225000D01*
X119648292Y-85225000D01*
X119546863Y-85245176D01*
X119451319Y-85284751D01*
X119365332Y-85342206D01*
X119292206Y-85415332D01*
X119234751Y-85501319D01*
X119195176Y-85596863D01*
X119175000Y-85698292D01*
X119175000Y-85801708D01*
X119195176Y-85903137D01*
X119234751Y-85998681D01*
X119292206Y-86084668D01*
X119365332Y-86157794D01*
X119376568Y-86165301D01*
X119315332Y-86206218D01*
X119242206Y-86279344D01*
X119184751Y-86365331D01*
X119145176Y-86460875D01*
X119125000Y-86562304D01*
X119125000Y-86665720D01*
X119145176Y-86767149D01*
X119184751Y-86862693D01*
X119242206Y-86948680D01*
X119315332Y-87021806D01*
X119401319Y-87079261D01*
X119496863Y-87118836D01*
X119598292Y-87139012D01*
X119641842Y-87139012D01*
X120606311Y-88103481D01*
X120618119Y-88117869D01*
X120675525Y-88164981D01*
X120741018Y-88199988D01*
X120812083Y-88221545D01*
X120867469Y-88227000D01*
X120867478Y-88227000D01*
X120885987Y-88228823D01*
X120904496Y-88227000D01*
X121342332Y-88227000D01*
X121333760Y-88228705D01*
X121189487Y-88288465D01*
X121059645Y-88375223D01*
X120949223Y-88485645D01*
X120862465Y-88615487D01*
X120802705Y-88759760D01*
X120772240Y-88912920D01*
X120772240Y-89069080D01*
X120802705Y-89222240D01*
X120862465Y-89366513D01*
X120949223Y-89496355D01*
X121059645Y-89606777D01*
X121086918Y-89625000D01*
X120379456Y-89625000D01*
X120406713Y-89584207D01*
X120451942Y-89475014D01*
X120475000Y-89359095D01*
X120475000Y-89240905D01*
X120451942Y-89124986D01*
X120406713Y-89015793D01*
X120341050Y-88917522D01*
X120257478Y-88833950D01*
X120159207Y-88768287D01*
X120050014Y-88723058D01*
X119934095Y-88700000D01*
X119815905Y-88700000D01*
X119699986Y-88723058D01*
X119590793Y-88768287D01*
X119492522Y-88833950D01*
X119408950Y-88917522D01*
X119343287Y-89015793D01*
X119298058Y-89124986D01*
X119275000Y-89240905D01*
X119275000Y-89359095D01*
X119298058Y-89475014D01*
X119343287Y-89584207D01*
X119370544Y-89625000D01*
X110247663Y-89625000D01*
X110265249Y-89598681D01*
X110304824Y-89503137D01*
X110325000Y-89401708D01*
X110325000Y-89324216D01*
X112032196Y-87617021D01*
X115210538Y-87617021D01*
X115265332Y-87671815D01*
X115351319Y-87729270D01*
X115446863Y-87768845D01*
X115548292Y-87789021D01*
X115651708Y-87789021D01*
X115714908Y-87776449D01*
X115690970Y-87896795D01*
X115690970Y-88053205D01*
X115721484Y-88206610D01*
X115781340Y-88351114D01*
X115868237Y-88481165D01*
X115978835Y-88591763D01*
X116108886Y-88678660D01*
X116253390Y-88738516D01*
X116406795Y-88769030D01*
X116563205Y-88769030D01*
X116716610Y-88738516D01*
X116861114Y-88678660D01*
X116991165Y-88591763D01*
X117101763Y-88481165D01*
X117188660Y-88351114D01*
X117248516Y-88206610D01*
X117279030Y-88053205D01*
X117279030Y-87896795D01*
X117248516Y-87743390D01*
X117188660Y-87598886D01*
X117101763Y-87468835D01*
X116991165Y-87358237D01*
X116861114Y-87271340D01*
X116716610Y-87211484D01*
X116563205Y-87180970D01*
X116406795Y-87180970D01*
X116253390Y-87211484D01*
X116125000Y-87264665D01*
X116125000Y-87212313D01*
X116104824Y-87110884D01*
X116065249Y-87015340D01*
X116007794Y-86929353D01*
X115934668Y-86856227D01*
X115848681Y-86798772D01*
X115753137Y-86759197D01*
X115651708Y-86739021D01*
X115548292Y-86739021D01*
X115446863Y-86759197D01*
X115351319Y-86798772D01*
X115265332Y-86856227D01*
X115210538Y-86911021D01*
X112887507Y-86911021D01*
X112966050Y-86832478D01*
X113031713Y-86734207D01*
X113076942Y-86625014D01*
X113100000Y-86509095D01*
X113100000Y-86390905D01*
X113076942Y-86274986D01*
X113031713Y-86165793D01*
X112966050Y-86067522D01*
X112882478Y-85983950D01*
X112784207Y-85918287D01*
X112675014Y-85873058D01*
X112559095Y-85850000D01*
X112440905Y-85850000D01*
X112324986Y-85873058D01*
X112215793Y-85918287D01*
X112117522Y-85983950D01*
X112033950Y-86067522D01*
X112030206Y-86073126D01*
X111976095Y-86078455D01*
X111905030Y-86100012D01*
X111839537Y-86135019D01*
X111782131Y-86182131D01*
X111770323Y-86196519D01*
X111720326Y-86246516D01*
X111720322Y-86246521D01*
X111646520Y-86320323D01*
X111646516Y-86320326D01*
X111496521Y-86470321D01*
X111496515Y-86470326D01*
X110902021Y-87064821D01*
X110881713Y-87015793D01*
X110816050Y-86917522D01*
X110732478Y-86833950D01*
X110634207Y-86768287D01*
X110525014Y-86723058D01*
X110409095Y-86700000D01*
X110290905Y-86700000D01*
X110174986Y-86723058D01*
X110065793Y-86768287D01*
X109967522Y-86833950D01*
X109883950Y-86917522D01*
X109818287Y-87015793D01*
X109773058Y-87124986D01*
X109750000Y-87240905D01*
X109750000Y-87359095D01*
X109773058Y-87475014D01*
X109818287Y-87584207D01*
X109883950Y-87682478D01*
X109967522Y-87766050D01*
X110065793Y-87831713D01*
X110114821Y-87852021D01*
X109442881Y-88523961D01*
X104969710Y-88523961D01*
X104966050Y-88518483D01*
X104882478Y-88434911D01*
X104784207Y-88369248D01*
X104675014Y-88324019D01*
X104559095Y-88300961D01*
X104440905Y-88300961D01*
X104324986Y-88324019D01*
X104215793Y-88369248D01*
X104117522Y-88434911D01*
X104033950Y-88518483D01*
X103968287Y-88616754D01*
X103923058Y-88725947D01*
X103900000Y-88841866D01*
X103900000Y-88960056D01*
X103923058Y-89075975D01*
X103968287Y-89185168D01*
X104033950Y-89283439D01*
X104117522Y-89367011D01*
X104215793Y-89432674D01*
X104324986Y-89477903D01*
X104440905Y-89500961D01*
X104559095Y-89500961D01*
X104675014Y-89477903D01*
X104784207Y-89432674D01*
X104882478Y-89367011D01*
X104966050Y-89283439D01*
X104969710Y-89277961D01*
X109279044Y-89277961D01*
X109275000Y-89298292D01*
X109275000Y-89401708D01*
X109295176Y-89503137D01*
X109334751Y-89598681D01*
X109352337Y-89625000D01*
X98740805Y-89625000D01*
X98797065Y-89594929D01*
X98850816Y-89550816D01*
X98861874Y-89537342D01*
X100524218Y-87875000D01*
X100601708Y-87875000D01*
X100703137Y-87854824D01*
X100798681Y-87815249D01*
X100884668Y-87757794D01*
X100957794Y-87684668D01*
X101015249Y-87598681D01*
X101054824Y-87503137D01*
X101075000Y-87401708D01*
X101075000Y-87298292D01*
X101054824Y-87196863D01*
X101015249Y-87101319D01*
X100957794Y-87015332D01*
X100884668Y-86942206D01*
X100798681Y-86884751D01*
X100703137Y-86845176D01*
X100601708Y-86825000D01*
X100498292Y-86825000D01*
X100396863Y-86845176D01*
X100301319Y-86884751D01*
X100215332Y-86942206D01*
X100142206Y-87015332D01*
X100084751Y-87101319D01*
X100045176Y-87196863D01*
X100025000Y-87298292D01*
X100025000Y-87375782D01*
X98453784Y-88947000D01*
X94346217Y-88947000D01*
X93950000Y-88550784D01*
X93950000Y-88473292D01*
X93929824Y-88371863D01*
X93890249Y-88276319D01*
X93884886Y-88268292D01*
X96805000Y-88268292D01*
X96805000Y-88371708D01*
X96825176Y-88473137D01*
X96864751Y-88568681D01*
X96922206Y-88654668D01*
X96995332Y-88727794D01*
X97081319Y-88785249D01*
X97176863Y-88824824D01*
X97278292Y-88845000D01*
X97381708Y-88845000D01*
X97483137Y-88824824D01*
X97578681Y-88785249D01*
X97664668Y-88727794D01*
X97737794Y-88654668D01*
X97795249Y-88568681D01*
X97834824Y-88473137D01*
X97855000Y-88371708D01*
X97855000Y-88294216D01*
X99600227Y-86548990D01*
X102556715Y-86548990D01*
X102611509Y-86603784D01*
X102697496Y-86661239D01*
X102793040Y-86700814D01*
X102894469Y-86720990D01*
X102997885Y-86720990D01*
X103099314Y-86700814D01*
X103194858Y-86661239D01*
X103280845Y-86603784D01*
X103353971Y-86530658D01*
X103411426Y-86444671D01*
X103451001Y-86349127D01*
X103471177Y-86247698D01*
X103471177Y-86144282D01*
X103451001Y-86042853D01*
X103411426Y-85947309D01*
X103353971Y-85861322D01*
X103280845Y-85788196D01*
X103194858Y-85730741D01*
X103099314Y-85691166D01*
X102997885Y-85670990D01*
X102894469Y-85670990D01*
X102793040Y-85691166D01*
X102697496Y-85730741D01*
X102611509Y-85788196D01*
X102556715Y-85842990D01*
X99471343Y-85842990D01*
X99454010Y-85841283D01*
X99436677Y-85842990D01*
X99436669Y-85842990D01*
X99392435Y-85847347D01*
X99384809Y-85848098D01*
X99318269Y-85868283D01*
X99256945Y-85901061D01*
X99203194Y-85945174D01*
X99192141Y-85958642D01*
X97355784Y-87795000D01*
X97278292Y-87795000D01*
X97176863Y-87815176D01*
X97081319Y-87854751D01*
X96995332Y-87912206D01*
X96922206Y-87985332D01*
X96864751Y-88071319D01*
X96825176Y-88166863D01*
X96805000Y-88268292D01*
X93884886Y-88268292D01*
X93832794Y-88190332D01*
X93759668Y-88117206D01*
X93673681Y-88059751D01*
X93625000Y-88039587D01*
X93625000Y-87500905D01*
X95620000Y-87500905D01*
X95620000Y-87619095D01*
X95643058Y-87735014D01*
X95688287Y-87844207D01*
X95753950Y-87942478D01*
X95837522Y-88026050D01*
X95935793Y-88091713D01*
X96044986Y-88136942D01*
X96160905Y-88160000D01*
X96279095Y-88160000D01*
X96395014Y-88136942D01*
X96504207Y-88091713D01*
X96602478Y-88026050D01*
X96686050Y-87942478D01*
X96751713Y-87844207D01*
X96796942Y-87735014D01*
X96820000Y-87619095D01*
X96820000Y-87500905D01*
X96796942Y-87384986D01*
X96751713Y-87275793D01*
X96686050Y-87177522D01*
X96602478Y-87093950D01*
X96504207Y-87028287D01*
X96395014Y-86983058D01*
X96279095Y-86960000D01*
X96160905Y-86960000D01*
X96044986Y-86983058D01*
X95935793Y-87028287D01*
X95837522Y-87093950D01*
X95753950Y-87177522D01*
X95688287Y-87275793D01*
X95643058Y-87384986D01*
X95620000Y-87500905D01*
X93625000Y-87500905D01*
X93625000Y-87003000D01*
X94232667Y-87003000D01*
X94250000Y-87004707D01*
X94267333Y-87003000D01*
X94267341Y-87003000D01*
X94319200Y-86997892D01*
X94385741Y-86977707D01*
X94447065Y-86944929D01*
X94500816Y-86900816D01*
X94511874Y-86887342D01*
X95527347Y-85871870D01*
X95540816Y-85860816D01*
X95558509Y-85839258D01*
X95584928Y-85807066D01*
X95585995Y-85805071D01*
X95617707Y-85745741D01*
X95619088Y-85741190D01*
X95637892Y-85679201D01*
X95638701Y-85670990D01*
X95643000Y-85627341D01*
X95643000Y-85627334D01*
X95644707Y-85610001D01*
X95643000Y-85592668D01*
X95643000Y-84610905D01*
X97230000Y-84610905D01*
X97230000Y-84729095D01*
X97253058Y-84845014D01*
X97298287Y-84954207D01*
X97363950Y-85052478D01*
X97447522Y-85136050D01*
X97545793Y-85201713D01*
X97654986Y-85246942D01*
X97770905Y-85270000D01*
X97889095Y-85270000D01*
X98005014Y-85246942D01*
X98114207Y-85201713D01*
X98212478Y-85136050D01*
X98296050Y-85052478D01*
X98361713Y-84954207D01*
X98406942Y-84845014D01*
X98430000Y-84729095D01*
X98430000Y-84630905D01*
X98660000Y-84630905D01*
X98660000Y-84749095D01*
X98683058Y-84865014D01*
X98728287Y-84974207D01*
X98793950Y-85072478D01*
X98877522Y-85156050D01*
X98975793Y-85221713D01*
X99084986Y-85266942D01*
X99200905Y-85290000D01*
X99319095Y-85290000D01*
X99435014Y-85266942D01*
X99544207Y-85221713D01*
X99642478Y-85156050D01*
X99726050Y-85072478D01*
X99791713Y-84974207D01*
X99836942Y-84865014D01*
X99860000Y-84749095D01*
X99860000Y-84630905D01*
X99836942Y-84514986D01*
X99791713Y-84405793D01*
X99726050Y-84307522D01*
X99642478Y-84223950D01*
X99544207Y-84158287D01*
X99435014Y-84113058D01*
X99319095Y-84090000D01*
X99200905Y-84090000D01*
X99084986Y-84113058D01*
X98975793Y-84158287D01*
X98877522Y-84223950D01*
X98793950Y-84307522D01*
X98728287Y-84405793D01*
X98683058Y-84514986D01*
X98660000Y-84630905D01*
X98430000Y-84630905D01*
X98430000Y-84610905D01*
X98406942Y-84494986D01*
X98361713Y-84385793D01*
X98296050Y-84287522D01*
X98212478Y-84203950D01*
X98114207Y-84138287D01*
X98005014Y-84093058D01*
X97889095Y-84070000D01*
X97770905Y-84070000D01*
X97654986Y-84093058D01*
X97545793Y-84138287D01*
X97447522Y-84203950D01*
X97363950Y-84287522D01*
X97298287Y-84385793D01*
X97253058Y-84494986D01*
X97230000Y-84610905D01*
X95643000Y-84610905D01*
X95643000Y-84479462D01*
X95697794Y-84424668D01*
X95755249Y-84338681D01*
X95794824Y-84243137D01*
X95815000Y-84141708D01*
X95815000Y-84038292D01*
X95794824Y-83936863D01*
X95755249Y-83841319D01*
X95697794Y-83755332D01*
X95624668Y-83682206D01*
X95538681Y-83624751D01*
X95443137Y-83585176D01*
X95341708Y-83565000D01*
X95238292Y-83565000D01*
X95136863Y-83585176D01*
X95041319Y-83624751D01*
X94955332Y-83682206D01*
X94882206Y-83755332D01*
X94824751Y-83841319D01*
X94785176Y-83936863D01*
X94765000Y-84038292D01*
X94765000Y-84141708D01*
X94785176Y-84243137D01*
X94824751Y-84338681D01*
X94882206Y-84424668D01*
X94937000Y-84479462D01*
X94937001Y-85463782D01*
X94345000Y-86055784D01*
X94345000Y-86048292D01*
X94324824Y-85946863D01*
X94285249Y-85851319D01*
X94227794Y-85765332D01*
X94154668Y-85692206D01*
X94068681Y-85634751D01*
X93973137Y-85595176D01*
X93871708Y-85575000D01*
X93768292Y-85575000D01*
X93666863Y-85595176D01*
X93625000Y-85612516D01*
X93625000Y-83158292D01*
X99915000Y-83158292D01*
X99915000Y-83261708D01*
X99935176Y-83363137D01*
X99974751Y-83458681D01*
X100032206Y-83544668D01*
X100105332Y-83617794D01*
X100191319Y-83675249D01*
X100286863Y-83714824D01*
X100388292Y-83735000D01*
X100491708Y-83735000D01*
X100593137Y-83714824D01*
X100688681Y-83675249D01*
X100774668Y-83617794D01*
X100829462Y-83563000D01*
X102113784Y-83563000D01*
X103797000Y-85246217D01*
X103797001Y-86703780D01*
X102512655Y-87988127D01*
X102512650Y-87988131D01*
X102475781Y-88025000D01*
X102398290Y-88025000D01*
X102296861Y-88045176D01*
X102201317Y-88084751D01*
X102115330Y-88142206D01*
X102042204Y-88215332D01*
X101984749Y-88301319D01*
X101945174Y-88396863D01*
X101924998Y-88498292D01*
X101924998Y-88601708D01*
X101945174Y-88703137D01*
X101984749Y-88798681D01*
X102042204Y-88884668D01*
X102115330Y-88957794D01*
X102201317Y-89015249D01*
X102296861Y-89054824D01*
X102398290Y-89075000D01*
X102501706Y-89075000D01*
X102603135Y-89054824D01*
X102698679Y-89015249D01*
X102784666Y-88957794D01*
X102857792Y-88884668D01*
X102915247Y-88798681D01*
X102954822Y-88703137D01*
X102974998Y-88601708D01*
X102974998Y-88524217D01*
X103011867Y-88487348D01*
X103011871Y-88487343D01*
X104258309Y-87240905D01*
X105150000Y-87240905D01*
X105150000Y-87359095D01*
X105173058Y-87475014D01*
X105218287Y-87584207D01*
X105283950Y-87682478D01*
X105367522Y-87766050D01*
X105465793Y-87831713D01*
X105574986Y-87876942D01*
X105690905Y-87900000D01*
X105809095Y-87900000D01*
X105925014Y-87876942D01*
X106034207Y-87831713D01*
X106132478Y-87766050D01*
X106216050Y-87682478D01*
X106281713Y-87584207D01*
X106326942Y-87475014D01*
X106350000Y-87359095D01*
X106350000Y-87240905D01*
X106326942Y-87124986D01*
X106281713Y-87015793D01*
X106216050Y-86917522D01*
X106132478Y-86833950D01*
X106034207Y-86768287D01*
X105925014Y-86723058D01*
X105809095Y-86700000D01*
X105690905Y-86700000D01*
X105574986Y-86723058D01*
X105465793Y-86768287D01*
X105367522Y-86833950D01*
X105283950Y-86917522D01*
X105218287Y-87015793D01*
X105173058Y-87124986D01*
X105150000Y-87240905D01*
X104258309Y-87240905D01*
X104387347Y-87111868D01*
X104400816Y-87100814D01*
X104444929Y-87047063D01*
X104477707Y-86985739D01*
X104478928Y-86981713D01*
X104497892Y-86919199D01*
X104498866Y-86909314D01*
X104503000Y-86867339D01*
X104503000Y-86867332D01*
X104504707Y-86849999D01*
X104503000Y-86832666D01*
X104503000Y-85117333D01*
X104504707Y-85100000D01*
X104503000Y-85082667D01*
X104503000Y-85082659D01*
X104497892Y-85030800D01*
X104477707Y-84964259D01*
X104444929Y-84902935D01*
X104427086Y-84881194D01*
X104411870Y-84862653D01*
X104411865Y-84862648D01*
X104400815Y-84849184D01*
X104390728Y-84840905D01*
X117300000Y-84840905D01*
X117300000Y-84959095D01*
X117323058Y-85075014D01*
X117368287Y-85184207D01*
X117433950Y-85282478D01*
X117517522Y-85366050D01*
X117615793Y-85431713D01*
X117724986Y-85476942D01*
X117840905Y-85500000D01*
X117959095Y-85500000D01*
X118075014Y-85476942D01*
X118184207Y-85431713D01*
X118252619Y-85386002D01*
X118302595Y-85419395D01*
X118411788Y-85464624D01*
X118527707Y-85487682D01*
X118645897Y-85487682D01*
X118761816Y-85464624D01*
X118871009Y-85419395D01*
X118969280Y-85353732D01*
X119052852Y-85270160D01*
X119118515Y-85171889D01*
X119163744Y-85062696D01*
X119186802Y-84946777D01*
X119186802Y-84828587D01*
X119163744Y-84712668D01*
X119118515Y-84603475D01*
X119052852Y-84505204D01*
X118969280Y-84421632D01*
X118871009Y-84355969D01*
X118761816Y-84310740D01*
X118645897Y-84287682D01*
X118527707Y-84287682D01*
X118411788Y-84310740D01*
X118302595Y-84355969D01*
X118234183Y-84401680D01*
X118184207Y-84368287D01*
X118075014Y-84323058D01*
X117959095Y-84300000D01*
X117840905Y-84300000D01*
X117724986Y-84323058D01*
X117615793Y-84368287D01*
X117517522Y-84433950D01*
X117433950Y-84517522D01*
X117368287Y-84615793D01*
X117323058Y-84724986D01*
X117300000Y-84840905D01*
X104390728Y-84840905D01*
X104387352Y-84838135D01*
X102521874Y-82972658D01*
X102510816Y-82959184D01*
X102457065Y-82915071D01*
X102395741Y-82882293D01*
X102329200Y-82862108D01*
X102277341Y-82857000D01*
X102277333Y-82857000D01*
X102260000Y-82855293D01*
X102242667Y-82857000D01*
X100829462Y-82857000D01*
X100774668Y-82802206D01*
X100688681Y-82744751D01*
X100593137Y-82705176D01*
X100491708Y-82685000D01*
X100388292Y-82685000D01*
X100286863Y-82705176D01*
X100191319Y-82744751D01*
X100105332Y-82802206D01*
X100032206Y-82875332D01*
X99974751Y-82961319D01*
X99935176Y-83056863D01*
X99915000Y-83158292D01*
X93625000Y-83158292D01*
X93625000Y-81250905D01*
X95640000Y-81250905D01*
X95640000Y-81369095D01*
X95663058Y-81485014D01*
X95708287Y-81594207D01*
X95773950Y-81692478D01*
X95857522Y-81776050D01*
X95955793Y-81841713D01*
X96064986Y-81886942D01*
X96180905Y-81910000D01*
X96299095Y-81910000D01*
X96415014Y-81886942D01*
X96524207Y-81841713D01*
X96622478Y-81776050D01*
X96706050Y-81692478D01*
X96771713Y-81594207D01*
X96816942Y-81485014D01*
X96840000Y-81369095D01*
X96840000Y-81280905D01*
X99610000Y-81280905D01*
X99610000Y-81399095D01*
X99633058Y-81515014D01*
X99678287Y-81624207D01*
X99743950Y-81722478D01*
X99827522Y-81806050D01*
X99925793Y-81871713D01*
X100034986Y-81916942D01*
X100150905Y-81940000D01*
X100269095Y-81940000D01*
X100385014Y-81916942D01*
X100494207Y-81871713D01*
X100592478Y-81806050D01*
X100676050Y-81722478D01*
X100741713Y-81624207D01*
X100786942Y-81515014D01*
X100810000Y-81399095D01*
X100810000Y-81280905D01*
X100786942Y-81164986D01*
X100784170Y-81158292D01*
X102835000Y-81158292D01*
X102835000Y-81261708D01*
X102855176Y-81363137D01*
X102894751Y-81458681D01*
X102952206Y-81544668D01*
X103025332Y-81617794D01*
X103111319Y-81675249D01*
X103206863Y-81714824D01*
X103306616Y-81734667D01*
X103295332Y-81742206D01*
X103222206Y-81815332D01*
X103164751Y-81901319D01*
X103125176Y-81996863D01*
X103105000Y-82098292D01*
X103105000Y-82201708D01*
X103125176Y-82303137D01*
X103164751Y-82398681D01*
X103222206Y-82484668D01*
X103264089Y-82526551D01*
X103261925Y-82527997D01*
X103188799Y-82601123D01*
X103131344Y-82687110D01*
X103091769Y-82782654D01*
X103071593Y-82884083D01*
X103071593Y-82987499D01*
X103091769Y-83088928D01*
X103131344Y-83184472D01*
X103188799Y-83270459D01*
X103261925Y-83343585D01*
X103347912Y-83401040D01*
X103443456Y-83440615D01*
X103544885Y-83460791D01*
X103648301Y-83460791D01*
X103749730Y-83440615D01*
X103845274Y-83401040D01*
X103931261Y-83343585D01*
X104004387Y-83270459D01*
X104061842Y-83184472D01*
X104101417Y-83088928D01*
X104121593Y-82987499D01*
X104121593Y-82884083D01*
X104101417Y-82782654D01*
X104061842Y-82687110D01*
X104051689Y-82671915D01*
X105155086Y-82671915D01*
X105155086Y-82790105D01*
X105178144Y-82906024D01*
X105223373Y-83015217D01*
X105289036Y-83113488D01*
X105372608Y-83197060D01*
X105470879Y-83262723D01*
X105580072Y-83307952D01*
X105695991Y-83331010D01*
X105814181Y-83331010D01*
X105930100Y-83307952D01*
X106039293Y-83262723D01*
X106137564Y-83197060D01*
X106221136Y-83113488D01*
X106286799Y-83015217D01*
X106332028Y-82906024D01*
X106355086Y-82790105D01*
X106355086Y-82671915D01*
X106348918Y-82640905D01*
X109750000Y-82640905D01*
X109750000Y-82759095D01*
X109773058Y-82875014D01*
X109818287Y-82984207D01*
X109883950Y-83082478D01*
X109967522Y-83166050D01*
X110065793Y-83231713D01*
X110174986Y-83276942D01*
X110290905Y-83300000D01*
X110409095Y-83300000D01*
X110525014Y-83276942D01*
X110634207Y-83231713D01*
X110732478Y-83166050D01*
X110816050Y-83082478D01*
X110881713Y-82984207D01*
X110926942Y-82875014D01*
X110950000Y-82759095D01*
X110950000Y-82640905D01*
X110926942Y-82524986D01*
X110881713Y-82415793D01*
X110816050Y-82317522D01*
X110732478Y-82233950D01*
X110634207Y-82168287D01*
X110568101Y-82140905D01*
X115700000Y-82140905D01*
X115700000Y-82259095D01*
X115723058Y-82375014D01*
X115768287Y-82484207D01*
X115833950Y-82582478D01*
X115917522Y-82666050D01*
X116015793Y-82731713D01*
X116124986Y-82776942D01*
X116240905Y-82800000D01*
X116359095Y-82800000D01*
X116475014Y-82776942D01*
X116584207Y-82731713D01*
X116682478Y-82666050D01*
X116766050Y-82582478D01*
X116831713Y-82484207D01*
X116876942Y-82375014D01*
X116900000Y-82259095D01*
X116900000Y-82140905D01*
X117300000Y-82140905D01*
X117300000Y-82259095D01*
X117323058Y-82375014D01*
X117368287Y-82484207D01*
X117433950Y-82582478D01*
X117517522Y-82666050D01*
X117615793Y-82731713D01*
X117724986Y-82776942D01*
X117840905Y-82800000D01*
X117959095Y-82800000D01*
X118075014Y-82776942D01*
X118184207Y-82731713D01*
X118282478Y-82666050D01*
X118366050Y-82582478D01*
X118431713Y-82484207D01*
X118476942Y-82375014D01*
X118500000Y-82259095D01*
X118500000Y-82140905D01*
X118476942Y-82024986D01*
X118431713Y-81915793D01*
X118366050Y-81817522D01*
X118282478Y-81733950D01*
X118184207Y-81668287D01*
X118075014Y-81623058D01*
X117959095Y-81600000D01*
X117840905Y-81600000D01*
X117724986Y-81623058D01*
X117615793Y-81668287D01*
X117517522Y-81733950D01*
X117433950Y-81817522D01*
X117368287Y-81915793D01*
X117323058Y-82024986D01*
X117300000Y-82140905D01*
X116900000Y-82140905D01*
X116876942Y-82024986D01*
X116831713Y-81915793D01*
X116766050Y-81817522D01*
X116682478Y-81733950D01*
X116584207Y-81668287D01*
X116475014Y-81623058D01*
X116359095Y-81600000D01*
X116240905Y-81600000D01*
X116124986Y-81623058D01*
X116015793Y-81668287D01*
X115917522Y-81733950D01*
X115833950Y-81817522D01*
X115768287Y-81915793D01*
X115723058Y-82024986D01*
X115700000Y-82140905D01*
X110568101Y-82140905D01*
X110525014Y-82123058D01*
X110409095Y-82100000D01*
X110290905Y-82100000D01*
X110174986Y-82123058D01*
X110065793Y-82168287D01*
X109967522Y-82233950D01*
X109883950Y-82317522D01*
X109818287Y-82415793D01*
X109773058Y-82524986D01*
X109750000Y-82640905D01*
X106348918Y-82640905D01*
X106332028Y-82555996D01*
X106286799Y-82446803D01*
X106221136Y-82348532D01*
X106137564Y-82264960D01*
X106039293Y-82199297D01*
X105930100Y-82154068D01*
X105814181Y-82131010D01*
X105695991Y-82131010D01*
X105580072Y-82154068D01*
X105470879Y-82199297D01*
X105372608Y-82264960D01*
X105289036Y-82348532D01*
X105223373Y-82446803D01*
X105178144Y-82555996D01*
X105155086Y-82671915D01*
X104051689Y-82671915D01*
X104004387Y-82601123D01*
X103962504Y-82559240D01*
X103964668Y-82557794D01*
X104037794Y-82484668D01*
X104095249Y-82398681D01*
X104134824Y-82303137D01*
X104155000Y-82201708D01*
X104155000Y-82098292D01*
X104134824Y-81996863D01*
X104095249Y-81901319D01*
X104037794Y-81815332D01*
X103964668Y-81742206D01*
X103878681Y-81684751D01*
X103783137Y-81645176D01*
X103683384Y-81625333D01*
X103694668Y-81617794D01*
X103767794Y-81544668D01*
X103825249Y-81458681D01*
X103864824Y-81363137D01*
X103885000Y-81261708D01*
X103885000Y-81158292D01*
X103864824Y-81056863D01*
X103825249Y-80961319D01*
X103767794Y-80875332D01*
X103694668Y-80802206D01*
X103608681Y-80744751D01*
X103513137Y-80705176D01*
X103411708Y-80685000D01*
X103308292Y-80685000D01*
X103206863Y-80705176D01*
X103111319Y-80744751D01*
X103025332Y-80802206D01*
X102952206Y-80875332D01*
X102894751Y-80961319D01*
X102855176Y-81056863D01*
X102835000Y-81158292D01*
X100784170Y-81158292D01*
X100741713Y-81055793D01*
X100676050Y-80957522D01*
X100592478Y-80873950D01*
X100494207Y-80808287D01*
X100385014Y-80763058D01*
X100269095Y-80740000D01*
X100150905Y-80740000D01*
X100034986Y-80763058D01*
X99925793Y-80808287D01*
X99827522Y-80873950D01*
X99743950Y-80957522D01*
X99678287Y-81055793D01*
X99633058Y-81164986D01*
X99610000Y-81280905D01*
X96840000Y-81280905D01*
X96840000Y-81250905D01*
X96816942Y-81134986D01*
X96771713Y-81025793D01*
X96706050Y-80927522D01*
X96622478Y-80843950D01*
X96524207Y-80778287D01*
X96415014Y-80733058D01*
X96299095Y-80710000D01*
X96180905Y-80710000D01*
X96064986Y-80733058D01*
X95955793Y-80778287D01*
X95857522Y-80843950D01*
X95773950Y-80927522D01*
X95708287Y-81025793D01*
X95663058Y-81134986D01*
X95640000Y-81250905D01*
X93625000Y-81250905D01*
X93625000Y-80375000D01*
X104454860Y-80375000D01*
X104431319Y-80384751D01*
D24*
G36*
X88653000Y-89694000D02*
G01*
X85957000Y-89694000D01*
X85957000Y-88737000D01*
X87100000Y-88737000D01*
X87115022Y-88735520D01*
X87129467Y-88731139D01*
X87142779Y-88724023D01*
X87154447Y-88714447D01*
X87324447Y-88544447D01*
X87334023Y-88532779D01*
X87341139Y-88519467D01*
X87345520Y-88505022D01*
X87347000Y-88490000D01*
X87347000Y-87971000D01*
X88653000Y-87971000D01*
X88653000Y-89694000D01*
X88653000Y-89694000D01*
G37*
X88653000Y-89694000D02*
X85957000Y-89694000D01*
X85957000Y-88737000D01*
X87100000Y-88737000D01*
X87115022Y-88735520D01*
X87129467Y-88731139D01*
X87142779Y-88724023D01*
X87154447Y-88714447D01*
X87324447Y-88544447D01*
X87334023Y-88532779D01*
X87341139Y-88519467D01*
X87345520Y-88505022D01*
X87347000Y-88490000D01*
X87347000Y-87971000D01*
X88653000Y-87971000D01*
X88653000Y-89694000D01*
G36*
X88653000Y-82009000D02*
G01*
X87347000Y-82009000D01*
X87347000Y-81490000D01*
X87345520Y-81474978D01*
X87341139Y-81460533D01*
X87334023Y-81447221D01*
X87324447Y-81435553D01*
X87144447Y-81255553D01*
X87132779Y-81245977D01*
X87119467Y-81238861D01*
X87105022Y-81234480D01*
X87090000Y-81233000D01*
X85957000Y-81233000D01*
X85957000Y-80306000D01*
X88653000Y-80306000D01*
X88653000Y-82009000D01*
X88653000Y-82009000D01*
G37*
X88653000Y-82009000D02*
X87347000Y-82009000D01*
X87347000Y-81490000D01*
X87345520Y-81474978D01*
X87341139Y-81460533D01*
X87334023Y-81447221D01*
X87324447Y-81435553D01*
X87144447Y-81255553D01*
X87132779Y-81245977D01*
X87119467Y-81238861D01*
X87105022Y-81234480D01*
X87090000Y-81233000D01*
X85957000Y-81233000D01*
X85957000Y-80306000D01*
X88653000Y-80306000D01*
X88653000Y-82009000D01*
G36*
X86062279Y-82363365D02*
G01*
X86123127Y-82454429D01*
X86200571Y-82531873D01*
X86291635Y-82592721D01*
X86392821Y-82634633D01*
X86500239Y-82656000D01*
X86609761Y-82656000D01*
X86717179Y-82634633D01*
X86818365Y-82592721D01*
X86909429Y-82531873D01*
X86986873Y-82454429D01*
X87047721Y-82363365D01*
X87066926Y-82317000D01*
X87227550Y-82317000D01*
X87229716Y-82317657D01*
X87275000Y-82322117D01*
X88725000Y-82322117D01*
X88770284Y-82317657D01*
X88772450Y-82317000D01*
X90682548Y-82317000D01*
X90658679Y-82352722D01*
X90618651Y-82449358D01*
X90598245Y-82551946D01*
X90598245Y-82656544D01*
X90618651Y-82759132D01*
X90658679Y-82855768D01*
X90703000Y-82922098D01*
X90703000Y-83351365D01*
X90460691Y-83109056D01*
X90451790Y-83098210D01*
X90408545Y-83062720D01*
X90359208Y-83036349D01*
X90305674Y-83020109D01*
X90263952Y-83016000D01*
X90263949Y-83016000D01*
X90250000Y-83014626D01*
X90236051Y-83016000D01*
X88943946Y-83016000D01*
X88939448Y-83001173D01*
X88917998Y-82961043D01*
X88889132Y-82925868D01*
X88853957Y-82897002D01*
X88813827Y-82875552D01*
X88770284Y-82862343D01*
X88725000Y-82857883D01*
X87275000Y-82857883D01*
X87229716Y-82862343D01*
X87186173Y-82875552D01*
X87146043Y-82897002D01*
X87110868Y-82925868D01*
X87082002Y-82961043D01*
X87060552Y-83001173D01*
X87047343Y-83044716D01*
X87042883Y-83090000D01*
X87042883Y-83390000D01*
X87047343Y-83435284D01*
X87060552Y-83478827D01*
X87066524Y-83490000D01*
X87060552Y-83501173D01*
X87047343Y-83544716D01*
X87042883Y-83590000D01*
X87042883Y-83890000D01*
X87047343Y-83935284D01*
X87060552Y-83978827D01*
X87066524Y-83990000D01*
X87060552Y-84001173D01*
X87047343Y-84044716D01*
X87042883Y-84090000D01*
X87042883Y-84390000D01*
X87047343Y-84435284D01*
X87059800Y-84476347D01*
X87059792Y-84476349D01*
X87010455Y-84502720D01*
X87010453Y-84502721D01*
X87010454Y-84502721D01*
X86983307Y-84525000D01*
X86967210Y-84538210D01*
X86958317Y-84549046D01*
X86709051Y-84798314D01*
X86698211Y-84807210D01*
X86689317Y-84818048D01*
X86662720Y-84850455D01*
X86636349Y-84899793D01*
X86620110Y-84953326D01*
X86614626Y-85009000D01*
X86616001Y-85022959D01*
X86616000Y-85457050D01*
X86614626Y-85471000D01*
X86616000Y-85484949D01*
X86616000Y-85484951D01*
X86620109Y-85526673D01*
X86636349Y-85580207D01*
X86662720Y-85629545D01*
X86698210Y-85672790D01*
X86709055Y-85681690D01*
X86958317Y-85930954D01*
X86967210Y-85941790D01*
X86978045Y-85950682D01*
X86978046Y-85950683D01*
X86982851Y-85954626D01*
X87010455Y-85977280D01*
X87059792Y-86003651D01*
X87059800Y-86003653D01*
X87047343Y-86044716D01*
X87042883Y-86090000D01*
X87042883Y-86390000D01*
X87047343Y-86435284D01*
X87060552Y-86478827D01*
X87066524Y-86490000D01*
X87060552Y-86501173D01*
X87047343Y-86544716D01*
X87042883Y-86590000D01*
X87042883Y-86890000D01*
X87047343Y-86935284D01*
X87060552Y-86978827D01*
X87082002Y-87018957D01*
X87110868Y-87054132D01*
X87146043Y-87082998D01*
X87186173Y-87104448D01*
X87229716Y-87117657D01*
X87275000Y-87122117D01*
X88725000Y-87122117D01*
X88770284Y-87117657D01*
X88813827Y-87104448D01*
X88853957Y-87082998D01*
X88889132Y-87054132D01*
X88917998Y-87018957D01*
X88939448Y-86978827D01*
X88952657Y-86935284D01*
X88957117Y-86890000D01*
X88957117Y-86590000D01*
X88952657Y-86544716D01*
X88946373Y-86524000D01*
X88994000Y-86524000D01*
X88994000Y-86544912D01*
X89011524Y-86633010D01*
X89045898Y-86715997D01*
X89095802Y-86790683D01*
X89159317Y-86854198D01*
X89234003Y-86904102D01*
X89316990Y-86938476D01*
X89405088Y-86956000D01*
X89494912Y-86956000D01*
X89583010Y-86938476D01*
X89665997Y-86904102D01*
X89740683Y-86854198D01*
X89786001Y-86808880D01*
X89786001Y-87663000D01*
X88772450Y-87663000D01*
X88770284Y-87662343D01*
X88725000Y-87657883D01*
X87275000Y-87657883D01*
X87229716Y-87662343D01*
X87227550Y-87663000D01*
X87066926Y-87663000D01*
X87047721Y-87616635D01*
X86986873Y-87525571D01*
X86909429Y-87448127D01*
X86818365Y-87387279D01*
X86717179Y-87345367D01*
X86609761Y-87324000D01*
X86500239Y-87324000D01*
X86392821Y-87345367D01*
X86291635Y-87387279D01*
X86200571Y-87448127D01*
X86123127Y-87525571D01*
X86062279Y-87616635D01*
X86043074Y-87663000D01*
X83707000Y-87663000D01*
X83707000Y-82317000D01*
X86043074Y-82317000D01*
X86062279Y-82363365D01*
X86062279Y-82363365D01*
G37*
X86062279Y-82363365D02*
X86123127Y-82454429D01*
X86200571Y-82531873D01*
X86291635Y-82592721D01*
X86392821Y-82634633D01*
X86500239Y-82656000D01*
X86609761Y-82656000D01*
X86717179Y-82634633D01*
X86818365Y-82592721D01*
X86909429Y-82531873D01*
X86986873Y-82454429D01*
X87047721Y-82363365D01*
X87066926Y-82317000D01*
X87227550Y-82317000D01*
X87229716Y-82317657D01*
X87275000Y-82322117D01*
X88725000Y-82322117D01*
X88770284Y-82317657D01*
X88772450Y-82317000D01*
X90682548Y-82317000D01*
X90658679Y-82352722D01*
X90618651Y-82449358D01*
X90598245Y-82551946D01*
X90598245Y-82656544D01*
X90618651Y-82759132D01*
X90658679Y-82855768D01*
X90703000Y-82922098D01*
X90703000Y-83351365D01*
X90460691Y-83109056D01*
X90451790Y-83098210D01*
X90408545Y-83062720D01*
X90359208Y-83036349D01*
X90305674Y-83020109D01*
X90263952Y-83016000D01*
X90263949Y-83016000D01*
X90250000Y-83014626D01*
X90236051Y-83016000D01*
X88943946Y-83016000D01*
X88939448Y-83001173D01*
X88917998Y-82961043D01*
X88889132Y-82925868D01*
X88853957Y-82897002D01*
X88813827Y-82875552D01*
X88770284Y-82862343D01*
X88725000Y-82857883D01*
X87275000Y-82857883D01*
X87229716Y-82862343D01*
X87186173Y-82875552D01*
X87146043Y-82897002D01*
X87110868Y-82925868D01*
X87082002Y-82961043D01*
X87060552Y-83001173D01*
X87047343Y-83044716D01*
X87042883Y-83090000D01*
X87042883Y-83390000D01*
X87047343Y-83435284D01*
X87060552Y-83478827D01*
X87066524Y-83490000D01*
X87060552Y-83501173D01*
X87047343Y-83544716D01*
X87042883Y-83590000D01*
X87042883Y-83890000D01*
X87047343Y-83935284D01*
X87060552Y-83978827D01*
X87066524Y-83990000D01*
X87060552Y-84001173D01*
X87047343Y-84044716D01*
X87042883Y-84090000D01*
X87042883Y-84390000D01*
X87047343Y-84435284D01*
X87059800Y-84476347D01*
X87059792Y-84476349D01*
X87010455Y-84502720D01*
X87010453Y-84502721D01*
X87010454Y-84502721D01*
X86983307Y-84525000D01*
X86967210Y-84538210D01*
X86958317Y-84549046D01*
X86709051Y-84798314D01*
X86698211Y-84807210D01*
X86689317Y-84818048D01*
X86662720Y-84850455D01*
X86636349Y-84899793D01*
X86620110Y-84953326D01*
X86614626Y-85009000D01*
X86616001Y-85022959D01*
X86616000Y-85457050D01*
X86614626Y-85471000D01*
X86616000Y-85484949D01*
X86616000Y-85484951D01*
X86620109Y-85526673D01*
X86636349Y-85580207D01*
X86662720Y-85629545D01*
X86698210Y-85672790D01*
X86709055Y-85681690D01*
X86958317Y-85930954D01*
X86967210Y-85941790D01*
X86978045Y-85950682D01*
X86978046Y-85950683D01*
X86982851Y-85954626D01*
X87010455Y-85977280D01*
X87059792Y-86003651D01*
X87059800Y-86003653D01*
X87047343Y-86044716D01*
X87042883Y-86090000D01*
X87042883Y-86390000D01*
X87047343Y-86435284D01*
X87060552Y-86478827D01*
X87066524Y-86490000D01*
X87060552Y-86501173D01*
X87047343Y-86544716D01*
X87042883Y-86590000D01*
X87042883Y-86890000D01*
X87047343Y-86935284D01*
X87060552Y-86978827D01*
X87082002Y-87018957D01*
X87110868Y-87054132D01*
X87146043Y-87082998D01*
X87186173Y-87104448D01*
X87229716Y-87117657D01*
X87275000Y-87122117D01*
X88725000Y-87122117D01*
X88770284Y-87117657D01*
X88813827Y-87104448D01*
X88853957Y-87082998D01*
X88889132Y-87054132D01*
X88917998Y-87018957D01*
X88939448Y-86978827D01*
X88952657Y-86935284D01*
X88957117Y-86890000D01*
X88957117Y-86590000D01*
X88952657Y-86544716D01*
X88946373Y-86524000D01*
X88994000Y-86524000D01*
X88994000Y-86544912D01*
X89011524Y-86633010D01*
X89045898Y-86715997D01*
X89095802Y-86790683D01*
X89159317Y-86854198D01*
X89234003Y-86904102D01*
X89316990Y-86938476D01*
X89405088Y-86956000D01*
X89494912Y-86956000D01*
X89583010Y-86938476D01*
X89665997Y-86904102D01*
X89740683Y-86854198D01*
X89786001Y-86808880D01*
X89786001Y-87663000D01*
X88772450Y-87663000D01*
X88770284Y-87662343D01*
X88725000Y-87657883D01*
X87275000Y-87657883D01*
X87229716Y-87662343D01*
X87227550Y-87663000D01*
X87066926Y-87663000D01*
X87047721Y-87616635D01*
X86986873Y-87525571D01*
X86909429Y-87448127D01*
X86818365Y-87387279D01*
X86717179Y-87345367D01*
X86609761Y-87324000D01*
X86500239Y-87324000D01*
X86392821Y-87345367D01*
X86291635Y-87387279D01*
X86200571Y-87448127D01*
X86123127Y-87525571D01*
X86062279Y-87616635D01*
X86043074Y-87663000D01*
X83707000Y-87663000D01*
X83707000Y-82317000D01*
X86043074Y-82317000D01*
X86062279Y-82363365D01*
M02*
