G04 #@! TF.GenerationSoftware,KiCad,Pcbnew,6.0.0-d3dd2cf0fa~116~ubuntu20.04.1*
G04 #@! TF.CreationDate,2022-01-09T18:53:20+01:00*
G04 #@! TF.ProjectId,TS100C,54533130-3043-42e6-9b69-6361645f7063,rev?*
G04 #@! TF.SameCoordinates,Original*
G04 #@! TF.FileFunction,Paste,Top*
G04 #@! TF.FilePolarity,Positive*
%FSLAX46Y46*%
G04 Gerber Fmt 4.6, Leading zero omitted, Abs format (unit mm)*
G04 Created by KiCad (PCBNEW 6.0.0-d3dd2cf0fa~116~ubuntu20.04.1) date 2022-01-09 18:53:20*
%MOMM*%
%LPD*%
G01*
G04 APERTURE LIST*
G04 Aperture macros list*
%AMRoundRect*
0 Rectangle with rounded corners*
0 $1 Rounding radius*
0 $2 $3 $4 $5 $6 $7 $8 $9 X,Y pos of 4 corners*
0 Add a 4 corners polygon primitive as box body*
4,1,4,$2,$3,$4,$5,$6,$7,$8,$9,$2,$3,0*
0 Add four circle primitives for the rounded corners*
1,1,$1+$1,$2,$3*
1,1,$1+$1,$4,$5*
1,1,$1+$1,$6,$7*
1,1,$1+$1,$8,$9*
0 Add four rect primitives between the rounded corners*
20,1,$1+$1,$2,$3,$4,$5,0*
20,1,$1+$1,$4,$5,$6,$7,0*
20,1,$1+$1,$6,$7,$8,$9,0*
20,1,$1+$1,$8,$9,$2,$3,0*%
%AMOutline4P*
0 Free polygon, 4 corners , with rotation*
0 The origin of the aperture is its center*
0 number of corners: always 4*
0 $1 to $8 corner X, Y*
0 $9 Rotation angle, in degrees counterclockwise*
0 create outline with 4 corners*
4,1,4,$1,$2,$3,$4,$5,$6,$7,$8,$1,$2,$9*%
G04 Aperture macros list end*
G04 #@! TA.AperFunction,Profile*
%ADD10C,0.150000*%
G04 #@! TD*
%ADD11C,0.150000*%
%ADD12RoundRect,0.147500X-0.172500X0.147500X-0.172500X-0.147500X0.172500X-0.147500X0.172500X0.147500X0*%
%ADD13RoundRect,0.147500X0.172500X-0.147500X0.172500X0.147500X-0.172500X0.147500X-0.172500X-0.147500X0*%
%ADD14RoundRect,0.147500X-0.147500X-0.172500X0.147500X-0.172500X0.147500X0.172500X-0.147500X0.172500X0*%
%ADD15R,1.500000X1.000000*%
%ADD16R,1.800000X1.000000*%
%ADD17Outline4P,-1.100000X-0.425000X1.100000X-0.425000X0.500000X0.425000X-0.500000X0.425000X90.000000*%
%ADD18R,1.840000X2.200000*%
%ADD19Outline4P,-1.100000X-0.500000X1.100000X-0.500000X0.400000X0.500000X-0.400000X0.500000X270.000000*%
%ADD20R,0.650000X1.060000*%
%ADD21R,0.900000X0.800000*%
%ADD22RoundRect,0.250000X-0.315000X0.315000X-0.315000X-0.315000X0.315000X-0.315000X0.315000X0.315000X0*%
%ADD23RoundRect,0.062500X-0.062500X0.375000X-0.062500X-0.375000X0.062500X-0.375000X0.062500X0.375000X0*%
%ADD24RoundRect,0.062500X-0.375000X0.062500X-0.375000X-0.062500X0.375000X-0.062500X0.375000X0.062500X0*%
%ADD25R,1.100000X1.100000*%
%ADD26RoundRect,0.218750X0.256250X-0.218750X0.256250X0.218750X-0.256250X0.218750X-0.256250X-0.218750X0*%
%ADD27RoundRect,0.218750X-0.218750X-0.256250X0.218750X-0.256250X0.218750X0.256250X-0.218750X0.256250X0*%
%ADD28RoundRect,0.218750X-0.256250X0.218750X-0.256250X-0.218750X0.256250X-0.218750X0.256250X0.218750X0*%
%ADD29RoundRect,0.147500X0.147500X0.172500X-0.147500X0.172500X-0.147500X-0.172500X0.147500X-0.172500X0*%
%ADD30R,0.800000X0.900000*%
%ADD31R,0.700000X0.420000*%
%ADD32RoundRect,0.250000X-0.295000X-0.295000X0.295000X-0.295000X0.295000X0.295000X-0.295000X0.295000X0*%
%ADD33RoundRect,0.062500X-0.350000X-0.062500X0.350000X-0.062500X0.350000X0.062500X-0.350000X0.062500X0*%
%ADD34RoundRect,0.062500X-0.062500X-0.350000X0.062500X-0.350000X0.062500X0.350000X-0.062500X0.350000X0*%
%ADD35RoundRect,0.243750X-0.243750X-0.456250X0.243750X-0.456250X0.243750X0.456250X-0.243750X0.456250X0*%
G04 APERTURE END LIST*
D10*
X130000000Y-80000000D02*
X131000000Y-80500000D01*
X131000000Y-80500000D02*
X164000000Y-80500000D01*
X80000000Y-80000000D02*
X80000000Y-90000000D01*
X164000000Y-80500000D02*
X164000000Y-89500000D01*
X130000000Y-90000000D02*
X80000000Y-90000000D01*
X130000000Y-90000000D02*
X131000000Y-89500000D01*
X131000000Y-89500000D02*
X164000000Y-89500000D01*
X80000000Y-80000000D02*
X130000000Y-80000000D01*
D11*
X143250000Y-82250000D02*
X144250000Y-82250000D01*
X144250000Y-82250000D02*
X144250000Y-83250000D01*
X144250000Y-83250000D02*
X143250000Y-83250000D01*
X143250000Y-83250000D02*
X143250000Y-82250000D01*
G36*
X144250000Y-83250000D02*
G01*
X143250000Y-83250000D01*
X143250000Y-82250000D01*
X144250000Y-82250000D01*
X144250000Y-83250000D01*
G37*
X144250000Y-83250000D02*
X143250000Y-83250000D01*
X143250000Y-82250000D01*
X144250000Y-82250000D01*
X144250000Y-83250000D01*
D12*
X101400000Y-81090000D03*
X101400000Y-82060000D03*
D13*
X131650000Y-88440000D03*
X131650000Y-87470000D03*
D14*
X130745000Y-86280000D03*
X131715000Y-86280000D03*
X101270000Y-83210000D03*
X102240000Y-83210000D03*
D12*
X113200000Y-83965000D03*
X113200000Y-84935000D03*
D13*
X102230000Y-85690000D03*
X102230000Y-84720000D03*
D14*
X94165000Y-81000000D03*
X95135000Y-81000000D03*
D13*
X103310000Y-85195000D03*
X103310000Y-84225000D03*
D15*
X119913500Y-84450000D03*
D16*
X119767000Y-82950000D03*
D17*
X115766500Y-82950000D03*
D18*
X117100000Y-82950000D03*
D19*
X118509700Y-82950000D03*
D15*
X119913500Y-81450000D03*
D20*
X91920000Y-86100000D03*
X92870000Y-86100000D03*
X93820000Y-86100000D03*
X93820000Y-83900000D03*
X92870000Y-83900000D03*
X91920000Y-83900000D03*
D21*
X133010000Y-86340000D03*
X133010000Y-88240000D03*
X135010000Y-87290000D03*
D22*
X108750000Y-85700000D03*
X110150000Y-84300000D03*
X105950000Y-87100000D03*
X108750000Y-84300000D03*
X107350000Y-84300000D03*
X108750000Y-87100000D03*
X108750000Y-82900000D03*
X107350000Y-87100000D03*
X107350000Y-82900000D03*
X110150000Y-82900000D03*
X110150000Y-87100000D03*
X105950000Y-82900000D03*
X105950000Y-85700000D03*
X107350000Y-85700000D03*
X105950000Y-84300000D03*
X110150000Y-85700000D03*
D23*
X110800000Y-81562500D03*
X110300000Y-81562500D03*
X109800000Y-81562500D03*
X109300000Y-81562500D03*
X108800000Y-81562500D03*
X108300000Y-81562500D03*
X107800000Y-81562500D03*
X107300000Y-81562500D03*
X106800000Y-81562500D03*
X106300000Y-81562500D03*
X105800000Y-81562500D03*
X105300000Y-81562500D03*
D24*
X104612500Y-82250000D03*
X104612500Y-82750000D03*
X104612500Y-83250000D03*
X104612500Y-83750000D03*
X104612500Y-84250000D03*
X104612500Y-84750000D03*
X104612500Y-85250000D03*
X104612500Y-85750000D03*
X104612500Y-86250000D03*
X104612500Y-86750000D03*
X104612500Y-87250000D03*
X104612500Y-87750000D03*
D23*
X105300000Y-88437500D03*
X105800000Y-88437500D03*
X106300000Y-88437500D03*
X106800000Y-88437500D03*
X107300000Y-88437500D03*
X107800000Y-88437500D03*
X108300000Y-88437500D03*
X108800000Y-88437500D03*
X109300000Y-88437500D03*
X109800000Y-88437500D03*
X110300000Y-88437500D03*
X110800000Y-88437500D03*
D24*
X111487500Y-87750000D03*
X111487500Y-87250000D03*
X111487500Y-86750000D03*
X111487500Y-86250000D03*
X111487500Y-85750000D03*
X111487500Y-85250000D03*
X111487500Y-84750000D03*
X111487500Y-84250000D03*
X111487500Y-83750000D03*
X111487500Y-83250000D03*
X111487500Y-82750000D03*
X111487500Y-82250000D03*
D25*
X147400000Y-83350000D03*
X147400000Y-86150000D03*
D26*
X121950000Y-84587500D03*
X121950000Y-83012500D03*
D27*
X143062500Y-88100000D03*
X144637500Y-88100000D03*
D28*
X114350000Y-87412500D03*
X114350000Y-88987500D03*
X114250000Y-81575000D03*
X114250000Y-83150000D03*
D12*
X112900000Y-88265000D03*
X112900000Y-89235000D03*
D13*
X98140000Y-82240000D03*
X98140000Y-81270000D03*
D12*
X123250000Y-82065000D03*
X123250000Y-83035000D03*
D29*
X92905000Y-82595000D03*
X91935000Y-82595000D03*
D12*
X112900000Y-81965000D03*
X112900000Y-82935000D03*
X102450000Y-81090000D03*
X102450000Y-82060000D03*
D14*
X114550000Y-84950000D03*
X115520000Y-84950000D03*
X102515000Y-87350000D03*
X103485000Y-87350000D03*
D29*
X144335000Y-86750000D03*
X143365000Y-86750000D03*
D12*
X137750000Y-85415000D03*
X137750000Y-86385000D03*
X136600000Y-86465000D03*
X136600000Y-87435000D03*
D29*
X136585000Y-88600000D03*
X135615000Y-88600000D03*
D20*
X139400000Y-87850000D03*
X140350000Y-87850000D03*
X141300000Y-87850000D03*
X141300000Y-85650000D03*
X139400000Y-85650000D03*
D14*
X143365000Y-85600000D03*
X144335000Y-85600000D03*
D12*
X137750000Y-87465000D03*
X137750000Y-88435000D03*
D14*
X155200000Y-86600000D03*
X156170000Y-86600000D03*
X156365000Y-81550000D03*
X157335000Y-81550000D03*
D30*
X155550000Y-85150000D03*
X157450000Y-85150000D03*
X156500000Y-83150000D03*
D14*
X134850000Y-84980000D03*
X135820000Y-84980000D03*
D31*
X141750000Y-81775000D03*
X141750000Y-82425000D03*
X141750000Y-83075000D03*
X141750000Y-83725000D03*
D13*
X97150000Y-82240000D03*
X97150000Y-81270000D03*
D29*
X96090000Y-82380000D03*
X95120000Y-82380000D03*
D13*
X95400000Y-87610000D03*
X95400000Y-86640000D03*
D32*
X99255000Y-84675000D03*
X99255000Y-86025000D03*
X97905000Y-84675000D03*
X97905000Y-86025000D03*
D33*
X96617500Y-84100000D03*
X96617500Y-84600000D03*
X96617500Y-85100000D03*
X96617500Y-85600000D03*
X96617500Y-86100000D03*
X96617500Y-86600000D03*
D34*
X97330000Y-87312500D03*
X97830000Y-87312500D03*
X98330000Y-87312500D03*
X98830000Y-87312500D03*
X99330000Y-87312500D03*
X99830000Y-87312500D03*
D33*
X100542500Y-86600000D03*
X100542500Y-86100000D03*
X100542500Y-85600000D03*
X100542500Y-85100000D03*
X100542500Y-84600000D03*
X100542500Y-84100000D03*
D34*
X99830000Y-83387500D03*
X99330000Y-83387500D03*
X98830000Y-83387500D03*
X98330000Y-83387500D03*
X97830000Y-83387500D03*
X97330000Y-83387500D03*
D29*
X100450000Y-82240000D03*
X99480000Y-82240000D03*
D14*
X127885000Y-85960000D03*
X128855000Y-85960000D03*
D13*
X127620000Y-84410000D03*
X127620000Y-83440000D03*
D29*
X132910000Y-82520000D03*
X131940000Y-82520000D03*
D14*
X132275000Y-84720000D03*
X133245000Y-84720000D03*
D35*
X138385000Y-82000000D03*
X140260000Y-82000000D03*
D20*
X130900000Y-82520000D03*
X129950000Y-82520000D03*
X129000000Y-82520000D03*
X129000000Y-84720000D03*
X130900000Y-84720000D03*
D29*
X93285000Y-87800000D03*
X92315000Y-87800000D03*
M02*
