G04 #@! TF.GenerationSoftware,KiCad,Pcbnew,5.1.2*
G04 #@! TF.CreationDate,2019-07-25T15:36:57+02:00*
G04 #@! TF.ProjectId,TS100C,54533130-3043-42e6-9b69-6361645f7063,rev?*
G04 #@! TF.SameCoordinates,Original*
G04 #@! TF.FileFunction,Copper,L3,Inr*
G04 #@! TF.FilePolarity,Positive*
%FSLAX46Y46*%
G04 Gerber Fmt 4.6, Leading zero omitted, Abs format (unit mm)*
G04 Created by KiCad (PCBNEW 5.1.2) date 2019-07-25 15:36:57*
%MOMM*%
%LPD*%
G04 APERTURE LIST*
%ADD10C,0.150000*%
%ADD11O,2.100000X1.000000*%
%ADD12O,1.600000X1.000000*%
%ADD13R,5.000000X3.960000*%
%ADD14C,2.000000*%
%ADD15C,0.600000*%
%ADD16C,0.450000*%
%ADD17C,0.106000*%
%ADD18C,0.154000*%
G04 APERTURE END LIST*
D10*
X131000000Y-80500000D02*
X164000000Y-80500000D01*
X130000000Y-80000000D02*
X131000000Y-80500000D01*
X130000000Y-90000000D02*
X131000000Y-89500000D01*
X131000000Y-89500000D02*
X164000000Y-89500000D01*
X80000000Y-80000000D02*
X80000000Y-90000000D01*
X130000000Y-90000000D02*
X80000000Y-90000000D01*
X164000000Y-80500000D02*
X164000000Y-89500000D01*
X80000000Y-80000000D02*
X130000000Y-80000000D01*
D11*
X87085000Y-89310000D03*
X87085000Y-80670000D03*
D12*
X82905000Y-89310000D03*
X82905000Y-80670000D03*
D13*
X161000000Y-85000000D03*
D14*
X152000000Y-87400000D03*
X152000000Y-82600000D03*
D15*
X99260000Y-84690000D03*
X97830000Y-84670000D03*
X117900000Y-82200000D03*
X116300000Y-82200000D03*
X110350000Y-82700000D03*
X110350000Y-87300000D03*
X105750000Y-87300000D03*
X156504168Y-84150000D03*
X146450000Y-88400000D03*
X147200000Y-88400000D03*
X147950000Y-88400000D03*
X148700000Y-88400000D03*
X142300000Y-85050000D03*
X136950000Y-85300000D03*
X119875000Y-89300000D03*
X105755086Y-82731010D03*
X129500000Y-87000000D03*
X140650000Y-86775000D03*
X96240000Y-81310000D03*
X91129245Y-82604245D03*
X100210000Y-81340000D03*
X96220000Y-87560000D03*
X92870000Y-85010000D03*
X134060000Y-88280000D03*
X126750000Y-83470002D03*
D16*
X119700000Y-85750000D03*
D15*
X137300000Y-82170000D03*
X136500000Y-82170000D03*
X135700000Y-82170000D03*
X134900000Y-82170000D03*
X136500000Y-82930979D03*
X134900000Y-82930979D03*
X137300000Y-82930979D03*
X117900000Y-84900000D03*
X118586802Y-84887682D03*
X86710000Y-86960000D03*
X85860000Y-87140000D03*
X86650000Y-83050000D03*
X85910000Y-82730000D03*
X85910000Y-83590000D03*
X89340000Y-87300000D03*
X84140000Y-82710000D03*
X85040000Y-82710000D03*
X84140000Y-83610000D03*
X85040000Y-83610000D03*
X84140000Y-84510000D03*
X85040000Y-84510000D03*
X84140000Y-85410000D03*
X85040000Y-85410000D03*
X84140000Y-86310000D03*
X85040000Y-86310000D03*
X84140000Y-87210000D03*
X85040000Y-87210000D03*
X130860000Y-87900000D03*
X135700000Y-82930979D03*
X89350000Y-82732990D03*
X90200345Y-82733095D03*
D16*
X120650000Y-85625000D03*
X100440000Y-83210000D03*
X102449998Y-88550000D03*
D15*
X94070000Y-82520000D03*
X155200000Y-87400000D03*
X142262500Y-88900000D03*
X116925000Y-89050000D03*
X115550000Y-89175000D03*
X112075000Y-88500000D03*
X106850000Y-80837052D03*
X123314163Y-83964163D03*
X123400000Y-85675000D03*
X117000000Y-84950000D03*
X99070000Y-81330000D03*
X122575000Y-81550000D03*
X140300000Y-85174010D03*
X130640000Y-88840002D03*
X120355931Y-81248990D03*
X118970626Y-81248990D03*
X119671581Y-81248990D03*
X102230000Y-84719998D03*
X101849996Y-87900000D03*
D16*
X97330000Y-88320000D03*
X102946177Y-86195990D03*
X93820000Y-86100000D03*
X95290000Y-84090000D03*
X89450000Y-86500000D03*
X91000000Y-86650000D03*
X109800000Y-89350000D03*
X115600000Y-87264021D03*
X130269990Y-87430509D03*
D15*
X104500000Y-88900961D03*
X112500000Y-86450000D03*
D16*
X119650000Y-86614012D03*
X130123424Y-80653152D03*
X135010002Y-88310000D03*
X104680000Y-80850000D03*
X154800000Y-81650000D03*
X103360000Y-81210000D03*
X153850000Y-81029000D03*
X134534782Y-81029010D03*
X103596593Y-82935791D03*
X90710000Y-84525000D03*
X90334124Y-88535876D03*
X90710000Y-85475000D03*
X91005876Y-87864124D03*
X89400000Y-85750000D03*
X100550000Y-87350000D03*
X93425000Y-88525000D03*
X103630000Y-82150000D03*
X132050000Y-81214024D03*
D17*
X88910000Y-80870000D02*
X89305000Y-80475000D01*
X89305000Y-80475000D02*
X90425000Y-80475000D01*
X88910000Y-89130000D02*
X89380000Y-89130000D01*
X89380000Y-89130000D02*
X89650000Y-89400000D01*
X89650000Y-89400000D02*
X90300000Y-89400000D01*
X154650000Y-81600000D02*
X154800000Y-81750000D01*
X153100000Y-81600000D02*
X154650000Y-81600000D01*
X131484667Y-81089989D02*
X131792638Y-80782018D01*
X131792638Y-80782018D02*
X133532018Y-80782018D01*
X128970128Y-80306010D02*
X129754107Y-81089989D01*
X143739988Y-81560012D02*
X144050000Y-81250000D01*
X144050000Y-81250000D02*
X152750000Y-81250000D01*
X103360000Y-81210000D02*
X104263990Y-80306010D01*
X104263990Y-80306010D02*
X128970128Y-80306010D01*
X133532018Y-80782018D02*
X134310012Y-81560012D01*
X134310012Y-81560012D02*
X143739988Y-81560012D01*
X129754107Y-81089989D02*
X131484667Y-81089989D01*
X152750000Y-81250000D02*
X153100000Y-81600000D01*
X153850000Y-81029000D02*
X153425736Y-81029000D01*
X153425736Y-81029000D02*
X153246736Y-80850000D01*
X153246736Y-80850000D02*
X143900000Y-80850000D01*
X143720990Y-81029010D02*
X134959046Y-81029010D01*
X143900000Y-80850000D02*
X143720990Y-81029010D01*
X134959046Y-81029010D02*
X134534782Y-81029010D01*
X104380000Y-81400000D02*
X107290000Y-81400000D01*
X103630000Y-82150000D02*
X104380000Y-81400000D01*
X131914024Y-81350000D02*
X132050000Y-81214024D01*
X107290000Y-81400000D02*
X108090000Y-80600000D01*
X129554786Y-81350000D02*
X131914024Y-81350000D01*
X108090000Y-80600000D02*
X128804786Y-80600000D01*
X128804786Y-80600000D02*
X129554786Y-81350000D01*
D18*
G36*
X103412796Y-80755568D02*
G01*
X103404912Y-80754000D01*
X103315088Y-80754000D01*
X103226990Y-80771524D01*
X103144003Y-80805898D01*
X103069317Y-80855802D01*
X103005802Y-80919317D01*
X102955898Y-80994003D01*
X102921524Y-81076990D01*
X102904000Y-81165088D01*
X102904000Y-81254912D01*
X102921524Y-81343010D01*
X102955898Y-81425997D01*
X103005802Y-81500683D01*
X103069317Y-81564198D01*
X103144003Y-81614102D01*
X103226990Y-81648476D01*
X103315088Y-81666000D01*
X103404912Y-81666000D01*
X103493010Y-81648476D01*
X103575997Y-81614102D01*
X103650683Y-81564198D01*
X103714198Y-81500683D01*
X103764102Y-81425997D01*
X103798476Y-81343010D01*
X103816000Y-81254912D01*
X103816000Y-81165088D01*
X103814432Y-81157204D01*
X104238266Y-80733370D01*
X104224000Y-80805088D01*
X104224000Y-80894912D01*
X104241524Y-80983010D01*
X104275898Y-81065997D01*
X104314123Y-81123204D01*
X104270792Y-81136349D01*
X104221454Y-81162720D01*
X104205586Y-81175743D01*
X104178210Y-81198210D01*
X104169316Y-81209048D01*
X103682796Y-81695568D01*
X103674912Y-81694000D01*
X103585088Y-81694000D01*
X103496990Y-81711524D01*
X103414003Y-81745898D01*
X103339317Y-81795802D01*
X103275802Y-81859317D01*
X103225898Y-81934003D01*
X103191524Y-82016990D01*
X103174000Y-82105088D01*
X103174000Y-82194912D01*
X103191524Y-82283010D01*
X103225898Y-82365997D01*
X103275802Y-82440683D01*
X103339317Y-82504198D01*
X103380528Y-82531734D01*
X103305910Y-82581593D01*
X103242395Y-82645108D01*
X103192491Y-82719794D01*
X103158117Y-82802781D01*
X103140593Y-82890879D01*
X103140593Y-82980703D01*
X103158117Y-83068801D01*
X103192491Y-83151788D01*
X103242395Y-83226474D01*
X103305910Y-83289989D01*
X103380596Y-83339893D01*
X103463583Y-83374267D01*
X103551681Y-83391791D01*
X103641505Y-83391791D01*
X103729603Y-83374267D01*
X103812590Y-83339893D01*
X103887276Y-83289989D01*
X103950791Y-83226474D01*
X104000695Y-83151788D01*
X104035069Y-83068801D01*
X104052593Y-82980703D01*
X104052593Y-82890879D01*
X104035069Y-82802781D01*
X104000695Y-82719794D01*
X103950791Y-82645108D01*
X103887276Y-82581593D01*
X103846065Y-82554057D01*
X103920683Y-82504198D01*
X103984198Y-82440683D01*
X104034102Y-82365997D01*
X104068476Y-82283010D01*
X104086000Y-82194912D01*
X104086000Y-82105088D01*
X104084432Y-82097204D01*
X104497636Y-81684000D01*
X107276051Y-81684000D01*
X107290000Y-81685374D01*
X107303949Y-81684000D01*
X107303952Y-81684000D01*
X107345674Y-81679891D01*
X107399208Y-81663651D01*
X107448545Y-81637280D01*
X107491790Y-81601790D01*
X107500691Y-81590944D01*
X108207636Y-80884000D01*
X118584669Y-80884000D01*
X118558172Y-80910497D01*
X118500060Y-80997467D01*
X118460032Y-81094103D01*
X118439626Y-81196691D01*
X118439626Y-81301289D01*
X118460032Y-81403877D01*
X118500060Y-81500513D01*
X118558172Y-81587483D01*
X118632133Y-81661444D01*
X118719103Y-81719556D01*
X118815739Y-81759584D01*
X118918327Y-81779990D01*
X119022925Y-81779990D01*
X119125513Y-81759584D01*
X119222149Y-81719556D01*
X119309119Y-81661444D01*
X119321104Y-81649460D01*
X119333088Y-81661444D01*
X119420058Y-81719556D01*
X119516694Y-81759584D01*
X119619282Y-81779990D01*
X119723880Y-81779990D01*
X119826468Y-81759584D01*
X119923104Y-81719556D01*
X120010074Y-81661444D01*
X120013756Y-81657762D01*
X120017438Y-81661444D01*
X120104408Y-81719556D01*
X120201044Y-81759584D01*
X120303632Y-81779990D01*
X120408230Y-81779990D01*
X120510818Y-81759584D01*
X120607454Y-81719556D01*
X120694424Y-81661444D01*
X120768385Y-81587483D01*
X120826497Y-81500513D01*
X120827661Y-81497701D01*
X122044000Y-81497701D01*
X122044000Y-81602299D01*
X122064406Y-81704887D01*
X122104434Y-81801523D01*
X122162546Y-81888493D01*
X122236507Y-81962454D01*
X122323477Y-82020566D01*
X122420113Y-82060594D01*
X122522701Y-82081000D01*
X122627299Y-82081000D01*
X122729887Y-82060594D01*
X122826523Y-82020566D01*
X122913493Y-81962454D01*
X122987454Y-81888493D01*
X123045566Y-81801523D01*
X123085594Y-81704887D01*
X123106000Y-81602299D01*
X123106000Y-81497701D01*
X123085594Y-81395113D01*
X123045566Y-81298477D01*
X122987454Y-81211507D01*
X122913493Y-81137546D01*
X122826523Y-81079434D01*
X122729887Y-81039406D01*
X122627299Y-81019000D01*
X122522701Y-81019000D01*
X122420113Y-81039406D01*
X122323477Y-81079434D01*
X122236507Y-81137546D01*
X122162546Y-81211507D01*
X122104434Y-81298477D01*
X122064406Y-81395113D01*
X122044000Y-81497701D01*
X120827661Y-81497701D01*
X120866525Y-81403877D01*
X120886931Y-81301289D01*
X120886931Y-81196691D01*
X120866525Y-81094103D01*
X120826497Y-80997467D01*
X120768385Y-80910497D01*
X120741888Y-80884000D01*
X128687151Y-80884000D01*
X129344099Y-81540949D01*
X129352996Y-81551790D01*
X129369540Y-81565367D01*
X129396240Y-81587280D01*
X129433657Y-81607279D01*
X129445578Y-81613651D01*
X129499112Y-81629891D01*
X129540834Y-81634000D01*
X129540836Y-81634000D01*
X129554785Y-81635374D01*
X129568734Y-81634000D01*
X131872327Y-81634000D01*
X131916990Y-81652500D01*
X132005088Y-81670024D01*
X132094912Y-81670024D01*
X132183010Y-81652500D01*
X132265997Y-81618126D01*
X132340683Y-81568222D01*
X132404198Y-81504707D01*
X132454102Y-81430021D01*
X132488476Y-81347034D01*
X132506000Y-81258936D01*
X132506000Y-81169112D01*
X132488476Y-81081014D01*
X132482265Y-81066018D01*
X133414383Y-81066018D01*
X134099330Y-81750967D01*
X134108222Y-81761802D01*
X134119057Y-81770694D01*
X134119059Y-81770696D01*
X134151466Y-81797292D01*
X134185126Y-81815283D01*
X134200804Y-81823663D01*
X134254338Y-81839903D01*
X134296060Y-81844012D01*
X134296063Y-81844012D01*
X134310012Y-81845386D01*
X134323961Y-81844012D01*
X134479190Y-81844012D01*
X134429434Y-81918477D01*
X134389406Y-82015113D01*
X134369000Y-82117701D01*
X134369000Y-82222299D01*
X134389406Y-82324887D01*
X134429434Y-82421523D01*
X134487546Y-82508493D01*
X134529543Y-82550490D01*
X134487546Y-82592486D01*
X134429434Y-82679456D01*
X134389406Y-82776092D01*
X134369000Y-82878680D01*
X134369000Y-82983278D01*
X134389406Y-83085866D01*
X134429434Y-83182502D01*
X134487546Y-83269472D01*
X134561507Y-83343433D01*
X134648477Y-83401545D01*
X134745113Y-83441573D01*
X134847701Y-83461979D01*
X134952299Y-83461979D01*
X135054887Y-83441573D01*
X135151523Y-83401545D01*
X135238493Y-83343433D01*
X135300000Y-83281926D01*
X135361507Y-83343433D01*
X135448477Y-83401545D01*
X135545113Y-83441573D01*
X135647701Y-83461979D01*
X135752299Y-83461979D01*
X135854887Y-83441573D01*
X135951523Y-83401545D01*
X136038493Y-83343433D01*
X136100000Y-83281926D01*
X136161507Y-83343433D01*
X136248477Y-83401545D01*
X136345113Y-83441573D01*
X136447701Y-83461979D01*
X136552299Y-83461979D01*
X136654887Y-83441573D01*
X136751523Y-83401545D01*
X136838493Y-83343433D01*
X136900000Y-83281926D01*
X136961507Y-83343433D01*
X137048477Y-83401545D01*
X137145113Y-83441573D01*
X137247701Y-83461979D01*
X137352299Y-83461979D01*
X137454887Y-83441573D01*
X137551523Y-83401545D01*
X137638493Y-83343433D01*
X137712454Y-83269472D01*
X137770566Y-83182502D01*
X137810594Y-83085866D01*
X137831000Y-82983278D01*
X137831000Y-82878680D01*
X137810594Y-82776092D01*
X137770566Y-82679456D01*
X137712454Y-82592486D01*
X137670458Y-82550490D01*
X137712454Y-82508493D01*
X137770566Y-82421523D01*
X137810594Y-82324887D01*
X137831000Y-82222299D01*
X137831000Y-82117701D01*
X137810594Y-82015113D01*
X137770566Y-81918477D01*
X137720810Y-81844012D01*
X143726039Y-81844012D01*
X143739988Y-81845386D01*
X143753937Y-81844012D01*
X143753940Y-81844012D01*
X143795662Y-81839903D01*
X143849196Y-81823663D01*
X143898533Y-81797292D01*
X143941778Y-81761802D01*
X143950679Y-81750956D01*
X144167636Y-81534000D01*
X151379640Y-81534000D01*
X151215283Y-81643820D01*
X151043820Y-81815283D01*
X150909102Y-82016903D01*
X150816307Y-82240931D01*
X150769000Y-82478757D01*
X150769000Y-82721243D01*
X150816307Y-82959069D01*
X150909102Y-83183097D01*
X151043820Y-83384717D01*
X151215283Y-83556180D01*
X151416903Y-83690898D01*
X151640931Y-83783693D01*
X151878757Y-83831000D01*
X152121243Y-83831000D01*
X152359069Y-83783693D01*
X152583097Y-83690898D01*
X152784717Y-83556180D01*
X152956180Y-83384717D01*
X153090898Y-83183097D01*
X153158454Y-83020000D01*
X158167398Y-83020000D01*
X158169000Y-83994250D01*
X158251750Y-84077000D01*
X160077000Y-84077000D01*
X160077000Y-82771750D01*
X159994250Y-82689000D01*
X158500000Y-82687398D01*
X158435113Y-82693789D01*
X158372719Y-82712716D01*
X158315216Y-82743452D01*
X158264815Y-82784815D01*
X158223452Y-82835216D01*
X158192716Y-82892719D01*
X158173789Y-82955113D01*
X158167398Y-83020000D01*
X153158454Y-83020000D01*
X153183693Y-82959069D01*
X153231000Y-82721243D01*
X153231000Y-82478757D01*
X153183693Y-82240931D01*
X153090898Y-82016903D01*
X152987224Y-81861744D01*
X152990792Y-81863651D01*
X153044326Y-81879891D01*
X153086048Y-81884000D01*
X153086051Y-81884000D01*
X153100000Y-81885374D01*
X153113949Y-81884000D01*
X154407927Y-81884000D01*
X154445802Y-81940683D01*
X154509317Y-82004198D01*
X154584003Y-82054102D01*
X154666990Y-82088476D01*
X154755088Y-82106000D01*
X154844912Y-82106000D01*
X154933010Y-82088476D01*
X155015997Y-82054102D01*
X155090683Y-82004198D01*
X155154198Y-81940683D01*
X155204102Y-81865997D01*
X155238476Y-81783010D01*
X155256000Y-81694912D01*
X155256000Y-81605088D01*
X155238476Y-81516990D01*
X155204102Y-81434003D01*
X155154198Y-81359317D01*
X155090683Y-81295802D01*
X155015997Y-81245898D01*
X154933010Y-81211524D01*
X154844912Y-81194000D01*
X154755088Y-81194000D01*
X154666990Y-81211524D01*
X154584003Y-81245898D01*
X154509317Y-81295802D01*
X154489119Y-81316000D01*
X154206659Y-81316000D01*
X154254102Y-81244997D01*
X154288476Y-81162010D01*
X154306000Y-81073912D01*
X154306000Y-80984088D01*
X154288476Y-80895990D01*
X154254102Y-80813003D01*
X154249423Y-80806000D01*
X163694000Y-80806000D01*
X163694000Y-82751016D01*
X163684784Y-82743452D01*
X163627281Y-82712716D01*
X163564887Y-82693789D01*
X163500000Y-82687398D01*
X162005750Y-82689000D01*
X161923000Y-82771750D01*
X161923000Y-84077000D01*
X161943000Y-84077000D01*
X161943000Y-85923000D01*
X161923000Y-85923000D01*
X161923000Y-87228250D01*
X162005750Y-87311000D01*
X163500000Y-87312602D01*
X163564887Y-87306211D01*
X163627281Y-87287284D01*
X163684784Y-87256548D01*
X163694001Y-87248984D01*
X163694001Y-89194000D01*
X142704684Y-89194000D01*
X142733066Y-89151523D01*
X142773094Y-89054887D01*
X142793500Y-88952299D01*
X142793500Y-88847701D01*
X142773094Y-88745113D01*
X142733066Y-88648477D01*
X142674954Y-88561507D01*
X142600993Y-88487546D01*
X142514023Y-88429434D01*
X142417387Y-88389406D01*
X142314799Y-88369000D01*
X142210201Y-88369000D01*
X142107613Y-88389406D01*
X142010977Y-88429434D01*
X141924007Y-88487546D01*
X141850046Y-88561507D01*
X141791934Y-88648477D01*
X141751906Y-88745113D01*
X141731500Y-88847701D01*
X141731500Y-88952299D01*
X141751906Y-89054887D01*
X141791934Y-89151523D01*
X141820316Y-89194000D01*
X131036949Y-89194000D01*
X131052454Y-89178495D01*
X131110566Y-89091525D01*
X131150594Y-88994889D01*
X131171000Y-88892301D01*
X131171000Y-88787703D01*
X131150594Y-88685115D01*
X131110566Y-88588479D01*
X131052454Y-88501509D01*
X130978493Y-88427548D01*
X130967289Y-88420062D01*
X131014887Y-88410594D01*
X131111523Y-88370566D01*
X131198493Y-88312454D01*
X131245859Y-88265088D01*
X134554002Y-88265088D01*
X134554002Y-88354912D01*
X134571526Y-88443010D01*
X134605900Y-88525997D01*
X134655804Y-88600683D01*
X134719319Y-88664198D01*
X134794005Y-88714102D01*
X134876992Y-88748476D01*
X134965090Y-88766000D01*
X135054914Y-88766000D01*
X135143012Y-88748476D01*
X135225999Y-88714102D01*
X135300685Y-88664198D01*
X135364200Y-88600683D01*
X135414104Y-88525997D01*
X135448478Y-88443010D01*
X135466002Y-88354912D01*
X135466002Y-88265088D01*
X135448478Y-88176990D01*
X135414104Y-88094003D01*
X135364200Y-88019317D01*
X135300685Y-87955802D01*
X135225999Y-87905898D01*
X135143012Y-87871524D01*
X135054914Y-87854000D01*
X134965090Y-87854000D01*
X134876992Y-87871524D01*
X134794005Y-87905898D01*
X134719319Y-87955802D01*
X134655804Y-88019317D01*
X134605900Y-88094003D01*
X134571526Y-88176990D01*
X134554002Y-88265088D01*
X131245859Y-88265088D01*
X131272454Y-88238493D01*
X131330566Y-88151523D01*
X131370594Y-88054887D01*
X131391000Y-87952299D01*
X131391000Y-87847701D01*
X131370594Y-87745113D01*
X131330566Y-87648477D01*
X131272454Y-87561507D01*
X131198493Y-87487546D01*
X131111523Y-87429434D01*
X131014887Y-87389406D01*
X130912299Y-87369000D01*
X130807701Y-87369000D01*
X130725924Y-87385266D01*
X130708466Y-87297499D01*
X130700703Y-87278757D01*
X150769000Y-87278757D01*
X150769000Y-87521243D01*
X150816307Y-87759069D01*
X150909102Y-87983097D01*
X151043820Y-88184717D01*
X151215283Y-88356180D01*
X151416903Y-88490898D01*
X151640931Y-88583693D01*
X151878757Y-88631000D01*
X152121243Y-88631000D01*
X152359069Y-88583693D01*
X152583097Y-88490898D01*
X152784717Y-88356180D01*
X152956180Y-88184717D01*
X153090898Y-87983097D01*
X153183693Y-87759069D01*
X153231000Y-87521243D01*
X153231000Y-87347701D01*
X154669000Y-87347701D01*
X154669000Y-87452299D01*
X154689406Y-87554887D01*
X154729434Y-87651523D01*
X154787546Y-87738493D01*
X154861507Y-87812454D01*
X154948477Y-87870566D01*
X155045113Y-87910594D01*
X155147701Y-87931000D01*
X155252299Y-87931000D01*
X155354887Y-87910594D01*
X155451523Y-87870566D01*
X155538493Y-87812454D01*
X155612454Y-87738493D01*
X155670566Y-87651523D01*
X155710594Y-87554887D01*
X155731000Y-87452299D01*
X155731000Y-87347701D01*
X155710594Y-87245113D01*
X155670566Y-87148477D01*
X155612454Y-87061507D01*
X155538493Y-86987546D01*
X155527200Y-86980000D01*
X158167398Y-86980000D01*
X158173789Y-87044887D01*
X158192716Y-87107281D01*
X158223452Y-87164784D01*
X158264815Y-87215185D01*
X158315216Y-87256548D01*
X158372719Y-87287284D01*
X158435113Y-87306211D01*
X158500000Y-87312602D01*
X159994250Y-87311000D01*
X160077000Y-87228250D01*
X160077000Y-85923000D01*
X158251750Y-85923000D01*
X158169000Y-86005750D01*
X158167398Y-86980000D01*
X155527200Y-86980000D01*
X155451523Y-86929434D01*
X155354887Y-86889406D01*
X155252299Y-86869000D01*
X155147701Y-86869000D01*
X155045113Y-86889406D01*
X154948477Y-86929434D01*
X154861507Y-86987546D01*
X154787546Y-87061507D01*
X154729434Y-87148477D01*
X154689406Y-87245113D01*
X154669000Y-87347701D01*
X153231000Y-87347701D01*
X153231000Y-87278757D01*
X153183693Y-87040931D01*
X153090898Y-86816903D01*
X152956180Y-86615283D01*
X152784717Y-86443820D01*
X152583097Y-86309102D01*
X152359069Y-86216307D01*
X152121243Y-86169000D01*
X151878757Y-86169000D01*
X151640931Y-86216307D01*
X151416903Y-86309102D01*
X151215283Y-86443820D01*
X151043820Y-86615283D01*
X150909102Y-86816903D01*
X150816307Y-87040931D01*
X150769000Y-87278757D01*
X130700703Y-87278757D01*
X130674092Y-87214512D01*
X130624188Y-87139826D01*
X130560673Y-87076311D01*
X130485987Y-87026407D01*
X130403000Y-86992033D01*
X130314902Y-86974509D01*
X130225078Y-86974509D01*
X130136980Y-86992033D01*
X130053993Y-87026407D01*
X129979307Y-87076311D01*
X129915792Y-87139826D01*
X129865888Y-87214512D01*
X129831514Y-87297499D01*
X129813990Y-87385597D01*
X129813990Y-87475421D01*
X129831514Y-87563519D01*
X129865888Y-87646506D01*
X129915792Y-87721192D01*
X129979307Y-87784707D01*
X130053993Y-87834611D01*
X130136980Y-87868985D01*
X130225078Y-87886509D01*
X130314902Y-87886509D01*
X130329000Y-87883705D01*
X130329000Y-87952299D01*
X130349406Y-88054887D01*
X130389434Y-88151523D01*
X130447546Y-88238493D01*
X130521507Y-88312454D01*
X130532711Y-88319940D01*
X130485113Y-88329408D01*
X130388477Y-88369436D01*
X130301507Y-88427548D01*
X130227546Y-88501509D01*
X130169434Y-88588479D01*
X130129406Y-88685115D01*
X130109000Y-88787703D01*
X130109000Y-88892301D01*
X130129406Y-88994889D01*
X130169434Y-89091525D01*
X130227546Y-89178495D01*
X130301507Y-89252456D01*
X130388477Y-89310568D01*
X130485113Y-89350596D01*
X130577727Y-89369018D01*
X129927765Y-89694000D01*
X121740651Y-89694000D01*
X121776113Y-89686946D01*
X121907829Y-89632388D01*
X122026370Y-89553181D01*
X122127181Y-89452370D01*
X122206388Y-89333829D01*
X122260946Y-89202113D01*
X122288760Y-89062284D01*
X122288760Y-88919716D01*
X122260946Y-88779887D01*
X122206388Y-88648171D01*
X122127181Y-88529630D01*
X122026370Y-88428819D01*
X121907829Y-88349612D01*
X121776113Y-88295054D01*
X121636284Y-88267240D01*
X121493716Y-88267240D01*
X121353887Y-88295054D01*
X121222171Y-88349612D01*
X121103630Y-88428819D01*
X121002819Y-88529630D01*
X120923612Y-88648171D01*
X120869054Y-88779887D01*
X120841240Y-88919716D01*
X120841240Y-89062284D01*
X120869054Y-89202113D01*
X120923612Y-89333829D01*
X121002819Y-89452370D01*
X121103630Y-89553181D01*
X121222171Y-89632388D01*
X121353887Y-89686946D01*
X121389349Y-89694000D01*
X115662627Y-89694000D01*
X115704887Y-89685594D01*
X115801523Y-89645566D01*
X115888493Y-89587454D01*
X115962454Y-89513493D01*
X116020566Y-89426523D01*
X116060594Y-89329887D01*
X116081000Y-89227299D01*
X116081000Y-89122701D01*
X116060594Y-89020113D01*
X116020566Y-88923477D01*
X115962454Y-88836507D01*
X115888493Y-88762546D01*
X115801523Y-88704434D01*
X115704887Y-88664406D01*
X115602299Y-88644000D01*
X115497701Y-88644000D01*
X115395113Y-88664406D01*
X115298477Y-88704434D01*
X115211507Y-88762546D01*
X115137546Y-88836507D01*
X115079434Y-88923477D01*
X115039406Y-89020113D01*
X115019000Y-89122701D01*
X115019000Y-89227299D01*
X115039406Y-89329887D01*
X115079434Y-89426523D01*
X115137546Y-89513493D01*
X115211507Y-89587454D01*
X115298477Y-89645566D01*
X115395113Y-89685594D01*
X115437373Y-89694000D01*
X110100881Y-89694000D01*
X110154198Y-89640683D01*
X110204102Y-89565997D01*
X110238476Y-89483010D01*
X110256000Y-89394912D01*
X110256000Y-89305088D01*
X110238476Y-89216990D01*
X110204102Y-89134003D01*
X110154198Y-89059317D01*
X110090683Y-88995802D01*
X110015997Y-88945898D01*
X109933010Y-88911524D01*
X109844912Y-88894000D01*
X109755088Y-88894000D01*
X109666990Y-88911524D01*
X109584003Y-88945898D01*
X109509317Y-88995802D01*
X109445802Y-89059317D01*
X109395898Y-89134003D01*
X109361524Y-89216990D01*
X109344000Y-89305088D01*
X109344000Y-89394912D01*
X109361524Y-89483010D01*
X109395898Y-89565997D01*
X109445802Y-89640683D01*
X109499119Y-89694000D01*
X80306000Y-89694000D01*
X80306000Y-88780313D01*
X81964693Y-88780313D01*
X81987789Y-88887000D01*
X82182000Y-88887000D01*
X82182000Y-88772444D01*
X83628000Y-88772444D01*
X83628000Y-88887000D01*
X83822211Y-88887000D01*
X83845307Y-88780313D01*
X85894693Y-88780313D01*
X85917789Y-88887000D01*
X86162000Y-88887000D01*
X86162000Y-88804257D01*
X88008000Y-88804257D01*
X88008000Y-88887000D01*
X88252211Y-88887000D01*
X88275307Y-88780313D01*
X88008000Y-88804257D01*
X86162000Y-88804257D01*
X85894693Y-88780313D01*
X83845307Y-88780313D01*
X83719829Y-88763503D01*
X83628000Y-88772444D01*
X82182000Y-88772444D01*
X82090171Y-88763503D01*
X81964693Y-88780313D01*
X80306000Y-88780313D01*
X80306000Y-88490964D01*
X89878124Y-88490964D01*
X89878124Y-88580788D01*
X89895648Y-88668886D01*
X89930022Y-88751873D01*
X89979926Y-88826559D01*
X90043441Y-88890074D01*
X90118127Y-88939978D01*
X90201114Y-88974352D01*
X90289212Y-88991876D01*
X90379036Y-88991876D01*
X90467134Y-88974352D01*
X90550121Y-88939978D01*
X90624807Y-88890074D01*
X90688322Y-88826559D01*
X90738226Y-88751873D01*
X90772600Y-88668886D01*
X90790124Y-88580788D01*
X90790124Y-88490964D01*
X90787961Y-88480088D01*
X92969000Y-88480088D01*
X92969000Y-88569912D01*
X92986524Y-88658010D01*
X93020898Y-88740997D01*
X93070802Y-88815683D01*
X93134317Y-88879198D01*
X93209003Y-88929102D01*
X93291990Y-88963476D01*
X93380088Y-88981000D01*
X93469912Y-88981000D01*
X93558010Y-88963476D01*
X93640997Y-88929102D01*
X93715683Y-88879198D01*
X93779198Y-88815683D01*
X93829102Y-88740997D01*
X93863476Y-88658010D01*
X93881000Y-88569912D01*
X93881000Y-88480088D01*
X93863476Y-88391990D01*
X93829102Y-88309003D01*
X93806441Y-88275088D01*
X96874000Y-88275088D01*
X96874000Y-88364912D01*
X96891524Y-88453010D01*
X96925898Y-88535997D01*
X96975802Y-88610683D01*
X97039317Y-88674198D01*
X97114003Y-88724102D01*
X97196990Y-88758476D01*
X97285088Y-88776000D01*
X97374912Y-88776000D01*
X97463010Y-88758476D01*
X97545997Y-88724102D01*
X97620683Y-88674198D01*
X97684198Y-88610683D01*
X97734102Y-88535997D01*
X97768476Y-88453010D01*
X97786000Y-88364912D01*
X97786000Y-88275088D01*
X97768476Y-88186990D01*
X97734102Y-88104003D01*
X97684198Y-88029317D01*
X97620683Y-87965802D01*
X97545997Y-87915898D01*
X97463010Y-87881524D01*
X97374912Y-87864000D01*
X97285088Y-87864000D01*
X97196990Y-87881524D01*
X97114003Y-87915898D01*
X97039317Y-87965802D01*
X96975802Y-88029317D01*
X96925898Y-88104003D01*
X96891524Y-88186990D01*
X96874000Y-88275088D01*
X93806441Y-88275088D01*
X93779198Y-88234317D01*
X93715683Y-88170802D01*
X93640997Y-88120898D01*
X93558010Y-88086524D01*
X93469912Y-88069000D01*
X93380088Y-88069000D01*
X93291990Y-88086524D01*
X93209003Y-88120898D01*
X93134317Y-88170802D01*
X93070802Y-88234317D01*
X93020898Y-88309003D01*
X92986524Y-88391990D01*
X92969000Y-88480088D01*
X90787961Y-88480088D01*
X90772600Y-88402866D01*
X90738226Y-88319879D01*
X90688322Y-88245193D01*
X90624807Y-88181678D01*
X90550121Y-88131774D01*
X90467134Y-88097400D01*
X90379036Y-88079876D01*
X90289212Y-88079876D01*
X90201114Y-88097400D01*
X90118127Y-88131774D01*
X90043441Y-88181678D01*
X89979926Y-88245193D01*
X89930022Y-88319879D01*
X89895648Y-88402866D01*
X89878124Y-88490964D01*
X80306000Y-88490964D01*
X80306000Y-82657701D01*
X83609000Y-82657701D01*
X83609000Y-82762299D01*
X83629406Y-82864887D01*
X83669434Y-82961523D01*
X83727546Y-83048493D01*
X83801507Y-83122454D01*
X83857698Y-83160000D01*
X83801507Y-83197546D01*
X83727546Y-83271507D01*
X83669434Y-83358477D01*
X83629406Y-83455113D01*
X83609000Y-83557701D01*
X83609000Y-83662299D01*
X83629406Y-83764887D01*
X83669434Y-83861523D01*
X83727546Y-83948493D01*
X83801507Y-84022454D01*
X83857698Y-84060000D01*
X83801507Y-84097546D01*
X83727546Y-84171507D01*
X83669434Y-84258477D01*
X83629406Y-84355113D01*
X83609000Y-84457701D01*
X83609000Y-84562299D01*
X83629406Y-84664887D01*
X83669434Y-84761523D01*
X83727546Y-84848493D01*
X83801507Y-84922454D01*
X83857698Y-84960000D01*
X83801507Y-84997546D01*
X83727546Y-85071507D01*
X83669434Y-85158477D01*
X83629406Y-85255113D01*
X83609000Y-85357701D01*
X83609000Y-85462299D01*
X83629406Y-85564887D01*
X83669434Y-85661523D01*
X83727546Y-85748493D01*
X83801507Y-85822454D01*
X83857698Y-85860000D01*
X83801507Y-85897546D01*
X83727546Y-85971507D01*
X83669434Y-86058477D01*
X83629406Y-86155113D01*
X83609000Y-86257701D01*
X83609000Y-86362299D01*
X83629406Y-86464887D01*
X83669434Y-86561523D01*
X83727546Y-86648493D01*
X83801507Y-86722454D01*
X83857698Y-86760000D01*
X83801507Y-86797546D01*
X83727546Y-86871507D01*
X83669434Y-86958477D01*
X83629406Y-87055113D01*
X83609000Y-87157701D01*
X83609000Y-87262299D01*
X83629406Y-87364887D01*
X83669434Y-87461523D01*
X83727546Y-87548493D01*
X83801507Y-87622454D01*
X83888477Y-87680566D01*
X83985113Y-87720594D01*
X84087701Y-87741000D01*
X84192299Y-87741000D01*
X84294887Y-87720594D01*
X84391523Y-87680566D01*
X84478493Y-87622454D01*
X84552454Y-87548493D01*
X84590000Y-87492302D01*
X84627546Y-87548493D01*
X84701507Y-87622454D01*
X84788477Y-87680566D01*
X84885113Y-87720594D01*
X84987701Y-87741000D01*
X85092299Y-87741000D01*
X85194887Y-87720594D01*
X85291523Y-87680566D01*
X85378493Y-87622454D01*
X85452454Y-87548493D01*
X85478526Y-87509473D01*
X85521507Y-87552454D01*
X85608477Y-87610566D01*
X85705113Y-87650594D01*
X85807701Y-87671000D01*
X85912299Y-87671000D01*
X86014887Y-87650594D01*
X86055115Y-87633931D01*
X86020367Y-87717821D01*
X85999000Y-87825239D01*
X85999000Y-87934761D01*
X86020367Y-88042179D01*
X86062279Y-88143365D01*
X86123127Y-88234429D01*
X86200571Y-88311873D01*
X86291635Y-88372721D01*
X86392821Y-88414633D01*
X86500239Y-88436000D01*
X86609761Y-88436000D01*
X86717179Y-88414633D01*
X86818365Y-88372721D01*
X86909429Y-88311873D01*
X86986873Y-88234429D01*
X87047721Y-88143365D01*
X87089633Y-88042179D01*
X87111000Y-87934761D01*
X87111000Y-87825239D01*
X87089633Y-87717821D01*
X87047721Y-87616635D01*
X86986873Y-87525571D01*
X86912269Y-87450967D01*
X86961523Y-87430566D01*
X87048493Y-87372454D01*
X87122454Y-87298493D01*
X87156392Y-87247701D01*
X88809000Y-87247701D01*
X88809000Y-87352299D01*
X88829406Y-87454887D01*
X88869434Y-87551523D01*
X88927546Y-87638493D01*
X89001507Y-87712454D01*
X89088477Y-87770566D01*
X89185113Y-87810594D01*
X89287701Y-87831000D01*
X89392299Y-87831000D01*
X89451561Y-87819212D01*
X90549876Y-87819212D01*
X90549876Y-87909036D01*
X90567400Y-87997134D01*
X90601774Y-88080121D01*
X90651678Y-88154807D01*
X90715193Y-88218322D01*
X90789879Y-88268226D01*
X90872866Y-88302600D01*
X90960964Y-88320124D01*
X91050788Y-88320124D01*
X91138886Y-88302600D01*
X91221873Y-88268226D01*
X91296559Y-88218322D01*
X91360074Y-88154807D01*
X91409978Y-88080121D01*
X91444352Y-87997134D01*
X91461876Y-87909036D01*
X91461876Y-87847701D01*
X101318996Y-87847701D01*
X101318996Y-87952299D01*
X101339402Y-88054887D01*
X101379430Y-88151523D01*
X101437542Y-88238493D01*
X101511503Y-88312454D01*
X101598473Y-88370566D01*
X101695109Y-88410594D01*
X101797697Y-88431000D01*
X101902295Y-88431000D01*
X102004883Y-88410594D01*
X102016095Y-88405950D01*
X102011522Y-88416990D01*
X101993998Y-88505088D01*
X101993998Y-88594912D01*
X102011522Y-88683010D01*
X102045896Y-88765997D01*
X102095800Y-88840683D01*
X102159315Y-88904198D01*
X102234001Y-88954102D01*
X102316988Y-88988476D01*
X102405086Y-89006000D01*
X102494910Y-89006000D01*
X102583008Y-88988476D01*
X102665995Y-88954102D01*
X102740681Y-88904198D01*
X102796217Y-88848662D01*
X103969000Y-88848662D01*
X103969000Y-88953260D01*
X103989406Y-89055848D01*
X104029434Y-89152484D01*
X104087546Y-89239454D01*
X104161507Y-89313415D01*
X104248477Y-89371527D01*
X104345113Y-89411555D01*
X104447701Y-89431961D01*
X104552299Y-89431961D01*
X104654887Y-89411555D01*
X104751523Y-89371527D01*
X104838493Y-89313415D01*
X104912454Y-89239454D01*
X104970566Y-89152484D01*
X105010594Y-89055848D01*
X105031000Y-88953260D01*
X105031000Y-88848662D01*
X105010594Y-88746074D01*
X104970566Y-88649438D01*
X104912454Y-88562468D01*
X104838493Y-88488507D01*
X104777424Y-88447701D01*
X111544000Y-88447701D01*
X111544000Y-88552299D01*
X111564406Y-88654887D01*
X111604434Y-88751523D01*
X111662546Y-88838493D01*
X111736507Y-88912454D01*
X111823477Y-88970566D01*
X111920113Y-89010594D01*
X112022701Y-89031000D01*
X112127299Y-89031000D01*
X112229887Y-89010594D01*
X112326523Y-88970566D01*
X112413493Y-88912454D01*
X112487454Y-88838493D01*
X112545566Y-88751523D01*
X112585594Y-88654887D01*
X112606000Y-88552299D01*
X112606000Y-88447701D01*
X112585594Y-88345113D01*
X112545566Y-88248477D01*
X112487454Y-88161507D01*
X112413493Y-88087546D01*
X112326523Y-88029434D01*
X112229887Y-87989406D01*
X112127299Y-87969000D01*
X112022701Y-87969000D01*
X111920113Y-87989406D01*
X111823477Y-88029434D01*
X111736507Y-88087546D01*
X111662546Y-88161507D01*
X111604434Y-88248477D01*
X111564406Y-88345113D01*
X111544000Y-88447701D01*
X104777424Y-88447701D01*
X104751523Y-88430395D01*
X104654887Y-88390367D01*
X104552299Y-88369961D01*
X104447701Y-88369961D01*
X104345113Y-88390367D01*
X104248477Y-88430395D01*
X104161507Y-88488507D01*
X104087546Y-88562468D01*
X104029434Y-88649438D01*
X103989406Y-88746074D01*
X103969000Y-88848662D01*
X102796217Y-88848662D01*
X102804196Y-88840683D01*
X102854100Y-88765997D01*
X102888474Y-88683010D01*
X102905998Y-88594912D01*
X102905998Y-88505088D01*
X102888474Y-88416990D01*
X102854100Y-88334003D01*
X102804196Y-88259317D01*
X102740681Y-88195802D01*
X102665995Y-88145898D01*
X102583008Y-88111524D01*
X102494910Y-88094000D01*
X102405086Y-88094000D01*
X102338939Y-88107158D01*
X102360590Y-88054887D01*
X102380996Y-87952299D01*
X102380996Y-87847701D01*
X102360590Y-87745113D01*
X102320562Y-87648477D01*
X102262450Y-87561507D01*
X102188489Y-87487546D01*
X102101519Y-87429434D01*
X102004883Y-87389406D01*
X101902295Y-87369000D01*
X101797697Y-87369000D01*
X101695109Y-87389406D01*
X101598473Y-87429434D01*
X101511503Y-87487546D01*
X101437542Y-87561507D01*
X101379430Y-87648477D01*
X101339402Y-87745113D01*
X101318996Y-87847701D01*
X91461876Y-87847701D01*
X91461876Y-87819212D01*
X91444352Y-87731114D01*
X91409978Y-87648127D01*
X91360074Y-87573441D01*
X91296559Y-87509926D01*
X91221873Y-87460022D01*
X91138886Y-87425648D01*
X91050788Y-87408124D01*
X90960964Y-87408124D01*
X90872866Y-87425648D01*
X90789879Y-87460022D01*
X90715193Y-87509926D01*
X90651678Y-87573441D01*
X90601774Y-87648127D01*
X90567400Y-87731114D01*
X90549876Y-87819212D01*
X89451561Y-87819212D01*
X89494887Y-87810594D01*
X89591523Y-87770566D01*
X89678493Y-87712454D01*
X89752454Y-87638493D01*
X89810566Y-87551523D01*
X89850594Y-87454887D01*
X89871000Y-87352299D01*
X89871000Y-87305088D01*
X100094000Y-87305088D01*
X100094000Y-87394912D01*
X100111524Y-87483010D01*
X100145898Y-87565997D01*
X100195802Y-87640683D01*
X100259317Y-87704198D01*
X100334003Y-87754102D01*
X100416990Y-87788476D01*
X100505088Y-87806000D01*
X100594912Y-87806000D01*
X100683010Y-87788476D01*
X100765997Y-87754102D01*
X100840683Y-87704198D01*
X100904198Y-87640683D01*
X100954102Y-87565997D01*
X100988476Y-87483010D01*
X101006000Y-87394912D01*
X101006000Y-87305088D01*
X100988898Y-87219109D01*
X115144000Y-87219109D01*
X115144000Y-87308933D01*
X115161524Y-87397031D01*
X115195898Y-87480018D01*
X115245802Y-87554704D01*
X115309317Y-87618219D01*
X115384003Y-87668123D01*
X115466990Y-87702497D01*
X115555088Y-87720021D01*
X115644912Y-87720021D01*
X115733010Y-87702497D01*
X115815997Y-87668123D01*
X115831690Y-87657637D01*
X115787833Y-87763517D01*
X115759970Y-87903591D01*
X115759970Y-88046409D01*
X115787833Y-88186483D01*
X115842487Y-88318430D01*
X115921833Y-88437180D01*
X116022820Y-88538167D01*
X116141570Y-88617513D01*
X116273517Y-88672167D01*
X116413591Y-88700030D01*
X116524023Y-88700030D01*
X116512546Y-88711507D01*
X116454434Y-88798477D01*
X116414406Y-88895113D01*
X116394000Y-88997701D01*
X116394000Y-89102299D01*
X116414406Y-89204887D01*
X116454434Y-89301523D01*
X116512546Y-89388493D01*
X116586507Y-89462454D01*
X116673477Y-89520566D01*
X116770113Y-89560594D01*
X116872701Y-89581000D01*
X116977299Y-89581000D01*
X117079887Y-89560594D01*
X117176523Y-89520566D01*
X117263493Y-89462454D01*
X117337454Y-89388493D01*
X117395566Y-89301523D01*
X117435594Y-89204887D01*
X117456000Y-89102299D01*
X117456000Y-88997701D01*
X117435594Y-88895113D01*
X117395566Y-88798477D01*
X117337454Y-88711507D01*
X117263493Y-88637546D01*
X117176523Y-88579434D01*
X117079887Y-88539406D01*
X116977299Y-88519000D01*
X116966347Y-88519000D01*
X117048167Y-88437180D01*
X117127513Y-88318430D01*
X117182167Y-88186483D01*
X117210030Y-88046409D01*
X117210030Y-87903591D01*
X117182167Y-87763517D01*
X117127513Y-87631570D01*
X117048167Y-87512820D01*
X116947180Y-87411833D01*
X116828430Y-87332487D01*
X116696483Y-87277833D01*
X116556409Y-87249970D01*
X116413591Y-87249970D01*
X116273517Y-87277833D01*
X116141570Y-87332487D01*
X116035990Y-87403033D01*
X116038476Y-87397031D01*
X116056000Y-87308933D01*
X116056000Y-87219109D01*
X116038476Y-87131011D01*
X116004102Y-87048024D01*
X115954198Y-86973338D01*
X115890683Y-86909823D01*
X115815997Y-86859919D01*
X115733010Y-86825545D01*
X115644912Y-86808021D01*
X115555088Y-86808021D01*
X115466990Y-86825545D01*
X115384003Y-86859919D01*
X115309317Y-86909823D01*
X115245802Y-86973338D01*
X115195898Y-87048024D01*
X115161524Y-87131011D01*
X115144000Y-87219109D01*
X100988898Y-87219109D01*
X100988476Y-87216990D01*
X100954102Y-87134003D01*
X100904198Y-87059317D01*
X100840683Y-86995802D01*
X100765997Y-86945898D01*
X100683010Y-86911524D01*
X100594912Y-86894000D01*
X100505088Y-86894000D01*
X100416990Y-86911524D01*
X100334003Y-86945898D01*
X100259317Y-86995802D01*
X100195802Y-87059317D01*
X100145898Y-87134003D01*
X100111524Y-87216990D01*
X100094000Y-87305088D01*
X89871000Y-87305088D01*
X89871000Y-87247701D01*
X89850594Y-87145113D01*
X89810566Y-87048477D01*
X89752454Y-86961507D01*
X89683412Y-86892465D01*
X89740683Y-86854198D01*
X89804198Y-86790683D01*
X89854102Y-86715997D01*
X89888476Y-86633010D01*
X89894030Y-86605088D01*
X90544000Y-86605088D01*
X90544000Y-86694912D01*
X90561524Y-86783010D01*
X90595898Y-86865997D01*
X90645802Y-86940683D01*
X90709317Y-87004198D01*
X90784003Y-87054102D01*
X90866990Y-87088476D01*
X90955088Y-87106000D01*
X91044912Y-87106000D01*
X91133010Y-87088476D01*
X91215997Y-87054102D01*
X91290683Y-87004198D01*
X91354198Y-86940683D01*
X91404102Y-86865997D01*
X91438476Y-86783010D01*
X91456000Y-86694912D01*
X91456000Y-86605088D01*
X91438476Y-86516990D01*
X91404102Y-86434003D01*
X91354198Y-86359317D01*
X91290683Y-86295802D01*
X91215997Y-86245898D01*
X91133010Y-86211524D01*
X91044912Y-86194000D01*
X90955088Y-86194000D01*
X90866990Y-86211524D01*
X90784003Y-86245898D01*
X90709317Y-86295802D01*
X90645802Y-86359317D01*
X90595898Y-86434003D01*
X90561524Y-86516990D01*
X90544000Y-86605088D01*
X89894030Y-86605088D01*
X89906000Y-86544912D01*
X89906000Y-86455088D01*
X89888476Y-86366990D01*
X89854102Y-86284003D01*
X89804198Y-86209317D01*
X89740683Y-86145802D01*
X89684551Y-86108295D01*
X89690683Y-86104198D01*
X89739793Y-86055088D01*
X93364000Y-86055088D01*
X93364000Y-86144912D01*
X93381524Y-86233010D01*
X93415898Y-86315997D01*
X93465802Y-86390683D01*
X93529317Y-86454198D01*
X93604003Y-86504102D01*
X93686990Y-86538476D01*
X93775088Y-86556000D01*
X93864912Y-86556000D01*
X93953010Y-86538476D01*
X94035997Y-86504102D01*
X94110683Y-86454198D01*
X94174198Y-86390683D01*
X94224102Y-86315997D01*
X94258476Y-86233010D01*
X94274773Y-86151078D01*
X102490177Y-86151078D01*
X102490177Y-86240902D01*
X102507701Y-86329000D01*
X102542075Y-86411987D01*
X102591979Y-86486673D01*
X102655494Y-86550188D01*
X102730180Y-86600092D01*
X102813167Y-86634466D01*
X102901265Y-86651990D01*
X102991089Y-86651990D01*
X103079187Y-86634466D01*
X103162174Y-86600092D01*
X103236860Y-86550188D01*
X103300375Y-86486673D01*
X103350279Y-86411987D01*
X103356196Y-86397701D01*
X111969000Y-86397701D01*
X111969000Y-86502299D01*
X111989406Y-86604887D01*
X112029434Y-86701523D01*
X112087546Y-86788493D01*
X112161507Y-86862454D01*
X112248477Y-86920566D01*
X112345113Y-86960594D01*
X112447701Y-86981000D01*
X112552299Y-86981000D01*
X112654887Y-86960594D01*
X112751523Y-86920566D01*
X112838493Y-86862454D01*
X112912454Y-86788493D01*
X112970566Y-86701523D01*
X113010594Y-86604887D01*
X113017712Y-86569100D01*
X119194000Y-86569100D01*
X119194000Y-86658924D01*
X119211524Y-86747022D01*
X119245898Y-86830009D01*
X119295802Y-86904695D01*
X119359317Y-86968210D01*
X119434003Y-87018114D01*
X119516990Y-87052488D01*
X119605088Y-87070012D01*
X119694912Y-87070012D01*
X119783010Y-87052488D01*
X119865997Y-87018114D01*
X119940683Y-86968210D01*
X120004198Y-86904695D01*
X120015543Y-86887716D01*
X120841240Y-86887716D01*
X120841240Y-87030284D01*
X120869054Y-87170113D01*
X120923612Y-87301829D01*
X121002819Y-87420370D01*
X121103630Y-87521181D01*
X121222171Y-87600388D01*
X121353887Y-87654946D01*
X121493716Y-87682760D01*
X121636284Y-87682760D01*
X121776113Y-87654946D01*
X121907829Y-87600388D01*
X122026370Y-87521181D01*
X122127181Y-87420370D01*
X122206388Y-87301829D01*
X122260946Y-87170113D01*
X122288760Y-87030284D01*
X122288760Y-86887716D01*
X122260946Y-86747887D01*
X122206388Y-86616171D01*
X122127181Y-86497630D01*
X122026370Y-86396819D01*
X121907829Y-86317612D01*
X121776113Y-86263054D01*
X121636284Y-86235240D01*
X121493716Y-86235240D01*
X121353887Y-86263054D01*
X121222171Y-86317612D01*
X121103630Y-86396819D01*
X121002819Y-86497630D01*
X120923612Y-86616171D01*
X120869054Y-86747887D01*
X120841240Y-86887716D01*
X120015543Y-86887716D01*
X120054102Y-86830009D01*
X120088476Y-86747022D01*
X120106000Y-86658924D01*
X120106000Y-86569100D01*
X120088476Y-86481002D01*
X120054102Y-86398015D01*
X120004198Y-86323329D01*
X119940683Y-86259814D01*
X119865997Y-86209910D01*
X119820336Y-86190997D01*
X119833010Y-86188476D01*
X119915997Y-86154102D01*
X119990683Y-86104198D01*
X120054198Y-86040683D01*
X120104102Y-85965997D01*
X120138476Y-85883010D01*
X120156000Y-85794912D01*
X120156000Y-85705088D01*
X120138476Y-85616990D01*
X120123191Y-85580088D01*
X120194000Y-85580088D01*
X120194000Y-85669912D01*
X120211524Y-85758010D01*
X120245898Y-85840997D01*
X120295802Y-85915683D01*
X120359317Y-85979198D01*
X120434003Y-86029102D01*
X120516990Y-86063476D01*
X120605088Y-86081000D01*
X120694912Y-86081000D01*
X120783010Y-86063476D01*
X120865997Y-86029102D01*
X120940683Y-85979198D01*
X121004198Y-85915683D01*
X121054102Y-85840997D01*
X121088476Y-85758010D01*
X121106000Y-85669912D01*
X121106000Y-85622701D01*
X122869000Y-85622701D01*
X122869000Y-85727299D01*
X122889406Y-85829887D01*
X122929434Y-85926523D01*
X122987546Y-86013493D01*
X123061507Y-86087454D01*
X123148477Y-86145566D01*
X123245113Y-86185594D01*
X123347701Y-86206000D01*
X123452299Y-86206000D01*
X123554887Y-86185594D01*
X123651523Y-86145566D01*
X123738493Y-86087454D01*
X123812454Y-86013493D01*
X123870566Y-85926523D01*
X123910594Y-85829887D01*
X123931000Y-85727299D01*
X123931000Y-85622701D01*
X123910594Y-85520113D01*
X123870566Y-85423477D01*
X123812454Y-85336507D01*
X123738493Y-85262546D01*
X123651523Y-85204434D01*
X123554887Y-85164406D01*
X123452299Y-85144000D01*
X123347701Y-85144000D01*
X123245113Y-85164406D01*
X123148477Y-85204434D01*
X123061507Y-85262546D01*
X122987546Y-85336507D01*
X122929434Y-85423477D01*
X122889406Y-85520113D01*
X122869000Y-85622701D01*
X121106000Y-85622701D01*
X121106000Y-85580088D01*
X121088476Y-85491990D01*
X121054102Y-85409003D01*
X121004198Y-85334317D01*
X120940683Y-85270802D01*
X120865997Y-85220898D01*
X120783010Y-85186524D01*
X120694912Y-85169000D01*
X120605088Y-85169000D01*
X120516990Y-85186524D01*
X120434003Y-85220898D01*
X120359317Y-85270802D01*
X120295802Y-85334317D01*
X120245898Y-85409003D01*
X120211524Y-85491990D01*
X120194000Y-85580088D01*
X120123191Y-85580088D01*
X120104102Y-85534003D01*
X120054198Y-85459317D01*
X119990683Y-85395802D01*
X119915997Y-85345898D01*
X119833010Y-85311524D01*
X119744912Y-85294000D01*
X119655088Y-85294000D01*
X119566990Y-85311524D01*
X119484003Y-85345898D01*
X119409317Y-85395802D01*
X119345802Y-85459317D01*
X119295898Y-85534003D01*
X119261524Y-85616990D01*
X119244000Y-85705088D01*
X119244000Y-85794912D01*
X119261524Y-85883010D01*
X119295898Y-85965997D01*
X119345802Y-86040683D01*
X119409317Y-86104198D01*
X119484003Y-86154102D01*
X119529664Y-86173015D01*
X119516990Y-86175536D01*
X119434003Y-86209910D01*
X119359317Y-86259814D01*
X119295802Y-86323329D01*
X119245898Y-86398015D01*
X119211524Y-86481002D01*
X119194000Y-86569100D01*
X113017712Y-86569100D01*
X113031000Y-86502299D01*
X113031000Y-86397701D01*
X113010594Y-86295113D01*
X112970566Y-86198477D01*
X112912454Y-86111507D01*
X112838493Y-86037546D01*
X112751523Y-85979434D01*
X112654887Y-85939406D01*
X112552299Y-85919000D01*
X112447701Y-85919000D01*
X112345113Y-85939406D01*
X112248477Y-85979434D01*
X112161507Y-86037546D01*
X112087546Y-86111507D01*
X112029434Y-86198477D01*
X111989406Y-86295113D01*
X111969000Y-86397701D01*
X103356196Y-86397701D01*
X103384653Y-86329000D01*
X103402177Y-86240902D01*
X103402177Y-86151078D01*
X103384653Y-86062980D01*
X103350279Y-85979993D01*
X103300375Y-85905307D01*
X103236860Y-85841792D01*
X103162174Y-85791888D01*
X103079187Y-85757514D01*
X102991089Y-85739990D01*
X102901265Y-85739990D01*
X102813167Y-85757514D01*
X102730180Y-85791888D01*
X102655494Y-85841792D01*
X102591979Y-85905307D01*
X102542075Y-85979993D01*
X102507701Y-86062980D01*
X102490177Y-86151078D01*
X94274773Y-86151078D01*
X94276000Y-86144912D01*
X94276000Y-86055088D01*
X94258476Y-85966990D01*
X94224102Y-85884003D01*
X94174198Y-85809317D01*
X94110683Y-85745802D01*
X94035997Y-85695898D01*
X93953010Y-85661524D01*
X93864912Y-85644000D01*
X93775088Y-85644000D01*
X93686990Y-85661524D01*
X93604003Y-85695898D01*
X93529317Y-85745802D01*
X93465802Y-85809317D01*
X93415898Y-85884003D01*
X93381524Y-85966990D01*
X93364000Y-86055088D01*
X89739793Y-86055088D01*
X89754198Y-86040683D01*
X89804102Y-85965997D01*
X89838476Y-85883010D01*
X89856000Y-85794912D01*
X89856000Y-85705088D01*
X89838476Y-85616990D01*
X89804102Y-85534003D01*
X89754198Y-85459317D01*
X89724969Y-85430088D01*
X90254000Y-85430088D01*
X90254000Y-85519912D01*
X90271524Y-85608010D01*
X90305898Y-85690997D01*
X90355802Y-85765683D01*
X90419317Y-85829198D01*
X90494003Y-85879102D01*
X90576990Y-85913476D01*
X90665088Y-85931000D01*
X90754912Y-85931000D01*
X90843010Y-85913476D01*
X90925997Y-85879102D01*
X91000683Y-85829198D01*
X91064198Y-85765683D01*
X91114102Y-85690997D01*
X91148476Y-85608010D01*
X91166000Y-85519912D01*
X91166000Y-85430088D01*
X91148476Y-85341990D01*
X91114102Y-85259003D01*
X91064198Y-85184317D01*
X91000683Y-85120802D01*
X90925997Y-85070898D01*
X90843010Y-85036524D01*
X90754912Y-85019000D01*
X90665088Y-85019000D01*
X90576990Y-85036524D01*
X90494003Y-85070898D01*
X90419317Y-85120802D01*
X90355802Y-85184317D01*
X90305898Y-85259003D01*
X90271524Y-85341990D01*
X90254000Y-85430088D01*
X89724969Y-85430088D01*
X89690683Y-85395802D01*
X89615997Y-85345898D01*
X89533010Y-85311524D01*
X89444912Y-85294000D01*
X89355088Y-85294000D01*
X89266990Y-85311524D01*
X89184003Y-85345898D01*
X89109317Y-85395802D01*
X89045802Y-85459317D01*
X88995898Y-85534003D01*
X88961524Y-85616990D01*
X88944000Y-85705088D01*
X88944000Y-85794912D01*
X88961524Y-85883010D01*
X88995898Y-85965997D01*
X89045802Y-86040683D01*
X89109317Y-86104198D01*
X89165449Y-86141705D01*
X89159317Y-86145802D01*
X89095802Y-86209317D01*
X89045898Y-86284003D01*
X89011524Y-86366990D01*
X88994000Y-86455088D01*
X88994000Y-86544912D01*
X89011524Y-86633010D01*
X89045898Y-86715997D01*
X89095802Y-86790683D01*
X89121058Y-86815939D01*
X89088477Y-86829434D01*
X89001507Y-86887546D01*
X88927546Y-86961507D01*
X88869434Y-87048477D01*
X88829406Y-87145113D01*
X88809000Y-87247701D01*
X87156392Y-87247701D01*
X87180566Y-87211523D01*
X87220594Y-87114887D01*
X87241000Y-87012299D01*
X87241000Y-86907701D01*
X87220594Y-86805113D01*
X87180566Y-86708477D01*
X87122454Y-86621507D01*
X87048493Y-86547546D01*
X86961523Y-86489434D01*
X86864887Y-86449406D01*
X86762299Y-86429000D01*
X86657701Y-86429000D01*
X86555113Y-86449406D01*
X86458477Y-86489434D01*
X86371507Y-86547546D01*
X86297546Y-86621507D01*
X86239434Y-86708477D01*
X86221857Y-86750910D01*
X86198493Y-86727546D01*
X86111523Y-86669434D01*
X86014887Y-86629406D01*
X85912299Y-86609000D01*
X85807701Y-86609000D01*
X85705113Y-86629406D01*
X85608477Y-86669434D01*
X85521507Y-86727546D01*
X85447546Y-86801507D01*
X85421474Y-86840527D01*
X85378493Y-86797546D01*
X85322302Y-86760000D01*
X85378493Y-86722454D01*
X85452454Y-86648493D01*
X85510566Y-86561523D01*
X85550594Y-86464887D01*
X85571000Y-86362299D01*
X85571000Y-86257701D01*
X85550594Y-86155113D01*
X85510566Y-86058477D01*
X85452454Y-85971507D01*
X85378493Y-85897546D01*
X85322302Y-85860000D01*
X85378493Y-85822454D01*
X85452454Y-85748493D01*
X85510566Y-85661523D01*
X85550594Y-85564887D01*
X85571000Y-85462299D01*
X85571000Y-85357701D01*
X85550594Y-85255113D01*
X85510566Y-85158477D01*
X85452454Y-85071507D01*
X85378493Y-84997546D01*
X85322302Y-84960000D01*
X85378493Y-84922454D01*
X85452454Y-84848493D01*
X85510566Y-84761523D01*
X85550594Y-84664887D01*
X85571000Y-84562299D01*
X85571000Y-84480088D01*
X90254000Y-84480088D01*
X90254000Y-84569912D01*
X90271524Y-84658010D01*
X90305898Y-84740997D01*
X90355802Y-84815683D01*
X90419317Y-84879198D01*
X90494003Y-84929102D01*
X90576990Y-84963476D01*
X90665088Y-84981000D01*
X90754912Y-84981000D01*
X90843010Y-84963476D01*
X90925997Y-84929102D01*
X91000683Y-84879198D01*
X91064198Y-84815683D01*
X91114102Y-84740997D01*
X91144462Y-84667699D01*
X101699000Y-84667699D01*
X101699000Y-84772297D01*
X101719406Y-84874885D01*
X101759434Y-84971521D01*
X101817546Y-85058491D01*
X101891507Y-85132452D01*
X101978477Y-85190564D01*
X102075113Y-85230592D01*
X102177701Y-85250998D01*
X102282299Y-85250998D01*
X102384887Y-85230592D01*
X102481523Y-85190564D01*
X102568493Y-85132452D01*
X102642454Y-85058491D01*
X102700566Y-84971521D01*
X102731143Y-84897701D01*
X116469000Y-84897701D01*
X116469000Y-85002299D01*
X116489406Y-85104887D01*
X116529434Y-85201523D01*
X116587546Y-85288493D01*
X116661507Y-85362454D01*
X116748477Y-85420566D01*
X116845113Y-85460594D01*
X116947701Y-85481000D01*
X117052299Y-85481000D01*
X117154887Y-85460594D01*
X117251523Y-85420566D01*
X117338493Y-85362454D01*
X117412454Y-85288493D01*
X117466705Y-85207302D01*
X117487546Y-85238493D01*
X117561507Y-85312454D01*
X117648477Y-85370566D01*
X117745113Y-85410594D01*
X117847701Y-85431000D01*
X117952299Y-85431000D01*
X118054887Y-85410594D01*
X118151523Y-85370566D01*
X118238493Y-85312454D01*
X118249809Y-85301138D01*
X118335279Y-85358248D01*
X118431915Y-85398276D01*
X118534503Y-85418682D01*
X118639101Y-85418682D01*
X118741689Y-85398276D01*
X118838325Y-85358248D01*
X118925295Y-85300136D01*
X118999256Y-85226175D01*
X119057368Y-85139205D01*
X119064614Y-85121711D01*
X139769000Y-85121711D01*
X139769000Y-85226309D01*
X139789406Y-85328897D01*
X139829434Y-85425533D01*
X139887546Y-85512503D01*
X139961507Y-85586464D01*
X140048477Y-85644576D01*
X140145113Y-85684604D01*
X140247701Y-85705010D01*
X140352299Y-85705010D01*
X140454887Y-85684604D01*
X140551523Y-85644576D01*
X140638493Y-85586464D01*
X140712454Y-85512503D01*
X140770566Y-85425533D01*
X140810594Y-85328897D01*
X140831000Y-85226309D01*
X140831000Y-85121711D01*
X140810594Y-85019123D01*
X140770566Y-84922487D01*
X140712454Y-84835517D01*
X140638493Y-84761556D01*
X140551523Y-84703444D01*
X140454887Y-84663416D01*
X140352299Y-84643010D01*
X140247701Y-84643010D01*
X140145113Y-84663416D01*
X140048477Y-84703444D01*
X139961507Y-84761556D01*
X139887546Y-84835517D01*
X139829434Y-84922487D01*
X139789406Y-85019123D01*
X139769000Y-85121711D01*
X119064614Y-85121711D01*
X119097396Y-85042569D01*
X119117802Y-84939981D01*
X119117802Y-84835383D01*
X119097396Y-84732795D01*
X119057368Y-84636159D01*
X118999256Y-84549189D01*
X118925295Y-84475228D01*
X118838325Y-84417116D01*
X118741689Y-84377088D01*
X118639101Y-84356682D01*
X118534503Y-84356682D01*
X118431915Y-84377088D01*
X118335279Y-84417116D01*
X118248309Y-84475228D01*
X118236993Y-84486544D01*
X118151523Y-84429434D01*
X118054887Y-84389406D01*
X117952299Y-84369000D01*
X117847701Y-84369000D01*
X117745113Y-84389406D01*
X117648477Y-84429434D01*
X117561507Y-84487546D01*
X117487546Y-84561507D01*
X117433295Y-84642698D01*
X117412454Y-84611507D01*
X117338493Y-84537546D01*
X117251523Y-84479434D01*
X117154887Y-84439406D01*
X117052299Y-84419000D01*
X116947701Y-84419000D01*
X116845113Y-84439406D01*
X116748477Y-84479434D01*
X116661507Y-84537546D01*
X116587546Y-84611507D01*
X116529434Y-84698477D01*
X116489406Y-84795113D01*
X116469000Y-84897701D01*
X102731143Y-84897701D01*
X102740594Y-84874885D01*
X102761000Y-84772297D01*
X102761000Y-84667699D01*
X102740594Y-84565111D01*
X102700566Y-84468475D01*
X102642454Y-84381505D01*
X102568493Y-84307544D01*
X102481523Y-84249432D01*
X102384887Y-84209404D01*
X102282299Y-84188998D01*
X102177701Y-84188998D01*
X102075113Y-84209404D01*
X101978477Y-84249432D01*
X101891507Y-84307544D01*
X101817546Y-84381505D01*
X101759434Y-84468475D01*
X101719406Y-84565111D01*
X101699000Y-84667699D01*
X91144462Y-84667699D01*
X91148476Y-84658010D01*
X91166000Y-84569912D01*
X91166000Y-84480088D01*
X91148476Y-84391990D01*
X91114102Y-84309003D01*
X91064198Y-84234317D01*
X91000683Y-84170802D01*
X90925997Y-84120898D01*
X90843010Y-84086524D01*
X90754912Y-84069000D01*
X90665088Y-84069000D01*
X90576990Y-84086524D01*
X90494003Y-84120898D01*
X90419317Y-84170802D01*
X90355802Y-84234317D01*
X90305898Y-84309003D01*
X90271524Y-84391990D01*
X90254000Y-84480088D01*
X85571000Y-84480088D01*
X85571000Y-84457701D01*
X85550594Y-84355113D01*
X85510566Y-84258477D01*
X85452454Y-84171507D01*
X85378493Y-84097546D01*
X85322302Y-84060000D01*
X85378493Y-84022454D01*
X85452454Y-83948493D01*
X85481682Y-83904751D01*
X85497546Y-83928493D01*
X85571507Y-84002454D01*
X85658477Y-84060566D01*
X85755113Y-84100594D01*
X85857701Y-84121000D01*
X85962299Y-84121000D01*
X86064887Y-84100594D01*
X86161523Y-84060566D01*
X86184687Y-84045088D01*
X94834000Y-84045088D01*
X94834000Y-84134912D01*
X94851524Y-84223010D01*
X94885898Y-84305997D01*
X94935802Y-84380683D01*
X94999317Y-84444198D01*
X95074003Y-84494102D01*
X95156990Y-84528476D01*
X95245088Y-84546000D01*
X95334912Y-84546000D01*
X95423010Y-84528476D01*
X95505997Y-84494102D01*
X95580683Y-84444198D01*
X95644198Y-84380683D01*
X95694102Y-84305997D01*
X95728476Y-84223010D01*
X95746000Y-84134912D01*
X95746000Y-84045088D01*
X95728476Y-83956990D01*
X95709785Y-83911864D01*
X122783163Y-83911864D01*
X122783163Y-84016462D01*
X122803569Y-84119050D01*
X122843597Y-84215686D01*
X122901709Y-84302656D01*
X122975670Y-84376617D01*
X123062640Y-84434729D01*
X123159276Y-84474757D01*
X123261864Y-84495163D01*
X123366462Y-84495163D01*
X123469050Y-84474757D01*
X123565686Y-84434729D01*
X123652656Y-84376617D01*
X123726617Y-84302656D01*
X123784729Y-84215686D01*
X123824757Y-84119050D01*
X123845163Y-84016462D01*
X123845163Y-83911864D01*
X123824757Y-83809276D01*
X123784729Y-83712640D01*
X123726617Y-83625670D01*
X123652656Y-83551709D01*
X123565686Y-83493597D01*
X123469050Y-83453569D01*
X123366462Y-83433163D01*
X123261864Y-83433163D01*
X123159276Y-83453569D01*
X123062640Y-83493597D01*
X122975670Y-83551709D01*
X122901709Y-83625670D01*
X122843597Y-83712640D01*
X122803569Y-83809276D01*
X122783163Y-83911864D01*
X95709785Y-83911864D01*
X95694102Y-83874003D01*
X95644198Y-83799317D01*
X95580683Y-83735802D01*
X95505997Y-83685898D01*
X95423010Y-83651524D01*
X95334912Y-83634000D01*
X95245088Y-83634000D01*
X95156990Y-83651524D01*
X95074003Y-83685898D01*
X94999317Y-83735802D01*
X94935802Y-83799317D01*
X94885898Y-83874003D01*
X94851524Y-83956990D01*
X94834000Y-84045088D01*
X86184687Y-84045088D01*
X86248493Y-84002454D01*
X86322454Y-83928493D01*
X86380566Y-83841523D01*
X86420594Y-83744887D01*
X86441000Y-83642299D01*
X86441000Y-83538180D01*
X86495113Y-83560594D01*
X86597701Y-83581000D01*
X86702299Y-83581000D01*
X86804887Y-83560594D01*
X86901523Y-83520566D01*
X86988493Y-83462454D01*
X87062454Y-83388493D01*
X87120566Y-83301523D01*
X87160594Y-83204887D01*
X87181000Y-83102299D01*
X87181000Y-82997701D01*
X87160594Y-82895113D01*
X87120566Y-82798477D01*
X87062454Y-82711507D01*
X87031638Y-82680691D01*
X88819000Y-82680691D01*
X88819000Y-82785289D01*
X88839406Y-82887877D01*
X88879434Y-82984513D01*
X88937546Y-83071483D01*
X89011507Y-83145444D01*
X89098477Y-83203556D01*
X89195113Y-83243584D01*
X89297701Y-83263990D01*
X89402299Y-83263990D01*
X89504887Y-83243584D01*
X89601523Y-83203556D01*
X89688493Y-83145444D01*
X89762454Y-83071483D01*
X89775137Y-83052501D01*
X89787891Y-83071588D01*
X89861852Y-83145549D01*
X89948822Y-83203661D01*
X90045458Y-83243689D01*
X90148046Y-83264095D01*
X90252644Y-83264095D01*
X90355232Y-83243689D01*
X90451868Y-83203661D01*
X90509596Y-83165088D01*
X99984000Y-83165088D01*
X99984000Y-83254912D01*
X100001524Y-83343010D01*
X100035898Y-83425997D01*
X100085802Y-83500683D01*
X100149317Y-83564198D01*
X100224003Y-83614102D01*
X100306990Y-83648476D01*
X100395088Y-83666000D01*
X100484912Y-83666000D01*
X100573010Y-83648476D01*
X100655997Y-83614102D01*
X100730683Y-83564198D01*
X100794198Y-83500683D01*
X100844102Y-83425997D01*
X100878476Y-83343010D01*
X100896000Y-83254912D01*
X100896000Y-83165088D01*
X100878476Y-83076990D01*
X100844102Y-82994003D01*
X100794198Y-82919317D01*
X100730683Y-82855802D01*
X100655997Y-82805898D01*
X100573010Y-82771524D01*
X100484912Y-82754000D01*
X100395088Y-82754000D01*
X100306990Y-82771524D01*
X100224003Y-82805898D01*
X100149317Y-82855802D01*
X100085802Y-82919317D01*
X100035898Y-82994003D01*
X100001524Y-83076990D01*
X99984000Y-83165088D01*
X90509596Y-83165088D01*
X90538838Y-83145549D01*
X90612799Y-83071588D01*
X90670911Y-82984618D01*
X90710939Y-82887982D01*
X90731345Y-82785394D01*
X90731345Y-82680796D01*
X90710939Y-82578208D01*
X90670911Y-82481572D01*
X90661643Y-82467701D01*
X93539000Y-82467701D01*
X93539000Y-82572299D01*
X93559406Y-82674887D01*
X93599434Y-82771523D01*
X93657546Y-82858493D01*
X93731507Y-82932454D01*
X93818477Y-82990566D01*
X93915113Y-83030594D01*
X94017701Y-83051000D01*
X94122299Y-83051000D01*
X94224887Y-83030594D01*
X94321523Y-82990566D01*
X94408493Y-82932454D01*
X94482454Y-82858493D01*
X94540566Y-82771523D01*
X94580594Y-82674887D01*
X94601000Y-82572299D01*
X94601000Y-82467701D01*
X94580594Y-82365113D01*
X94540566Y-82268477D01*
X94482454Y-82181507D01*
X94408493Y-82107546D01*
X94321523Y-82049434D01*
X94224887Y-82009406D01*
X94122299Y-81989000D01*
X94017701Y-81989000D01*
X93915113Y-82009406D01*
X93818477Y-82049434D01*
X93731507Y-82107546D01*
X93657546Y-82181507D01*
X93599434Y-82268477D01*
X93559406Y-82365113D01*
X93539000Y-82467701D01*
X90661643Y-82467701D01*
X90612799Y-82394602D01*
X90538838Y-82320641D01*
X90451868Y-82262529D01*
X90355232Y-82222501D01*
X90252644Y-82202095D01*
X90148046Y-82202095D01*
X90045458Y-82222501D01*
X89948822Y-82262529D01*
X89861852Y-82320641D01*
X89787891Y-82394602D01*
X89775208Y-82413584D01*
X89762454Y-82394497D01*
X89688493Y-82320536D01*
X89601523Y-82262424D01*
X89504887Y-82222396D01*
X89402299Y-82201990D01*
X89297701Y-82201990D01*
X89195113Y-82222396D01*
X89098477Y-82262424D01*
X89011507Y-82320536D01*
X88937546Y-82394497D01*
X88879434Y-82481467D01*
X88839406Y-82578103D01*
X88819000Y-82680691D01*
X87031638Y-82680691D01*
X86988493Y-82637546D01*
X86901523Y-82579434D01*
X86862463Y-82563255D01*
X86909429Y-82531873D01*
X86986873Y-82454429D01*
X87047721Y-82363365D01*
X87089633Y-82262179D01*
X87111000Y-82154761D01*
X87111000Y-82045239D01*
X87089633Y-81937821D01*
X87047721Y-81836635D01*
X86986873Y-81745571D01*
X86909429Y-81668127D01*
X86818365Y-81607279D01*
X86717179Y-81565367D01*
X86609761Y-81544000D01*
X86500239Y-81544000D01*
X86392821Y-81565367D01*
X86291635Y-81607279D01*
X86200571Y-81668127D01*
X86123127Y-81745571D01*
X86062279Y-81836635D01*
X86020367Y-81937821D01*
X85999000Y-82045239D01*
X85999000Y-82154761D01*
X86009674Y-82208424D01*
X85962299Y-82199000D01*
X85857701Y-82199000D01*
X85755113Y-82219406D01*
X85658477Y-82259434D01*
X85571507Y-82317546D01*
X85497546Y-82391507D01*
X85481682Y-82415249D01*
X85452454Y-82371507D01*
X85378493Y-82297546D01*
X85291523Y-82239434D01*
X85194887Y-82199406D01*
X85092299Y-82179000D01*
X84987701Y-82179000D01*
X84885113Y-82199406D01*
X84788477Y-82239434D01*
X84701507Y-82297546D01*
X84627546Y-82371507D01*
X84590000Y-82427698D01*
X84552454Y-82371507D01*
X84478493Y-82297546D01*
X84391523Y-82239434D01*
X84294887Y-82199406D01*
X84192299Y-82179000D01*
X84087701Y-82179000D01*
X83985113Y-82199406D01*
X83888477Y-82239434D01*
X83801507Y-82297546D01*
X83727546Y-82371507D01*
X83669434Y-82458477D01*
X83629406Y-82555113D01*
X83609000Y-82657701D01*
X80306000Y-82657701D01*
X80306000Y-81277701D01*
X98539000Y-81277701D01*
X98539000Y-81382299D01*
X98559406Y-81484887D01*
X98599434Y-81581523D01*
X98657546Y-81668493D01*
X98731507Y-81742454D01*
X98818477Y-81800566D01*
X98915113Y-81840594D01*
X99017701Y-81861000D01*
X99122299Y-81861000D01*
X99224887Y-81840594D01*
X99321523Y-81800566D01*
X99408493Y-81742454D01*
X99482454Y-81668493D01*
X99540566Y-81581523D01*
X99580594Y-81484887D01*
X99601000Y-81382299D01*
X99601000Y-81277701D01*
X99580594Y-81175113D01*
X99540566Y-81078477D01*
X99482454Y-80991507D01*
X99408493Y-80917546D01*
X99321523Y-80859434D01*
X99224887Y-80819406D01*
X99122299Y-80799000D01*
X99017701Y-80799000D01*
X98915113Y-80819406D01*
X98818477Y-80859434D01*
X98731507Y-80917546D01*
X98657546Y-80991507D01*
X98599434Y-81078477D01*
X98559406Y-81175113D01*
X98539000Y-81277701D01*
X80306000Y-81277701D01*
X80306000Y-81199687D01*
X81964693Y-81199687D01*
X82090171Y-81216497D01*
X82182000Y-81207556D01*
X82182000Y-81093000D01*
X83628000Y-81093000D01*
X83628000Y-81207556D01*
X83719829Y-81216497D01*
X83845307Y-81199687D01*
X85894693Y-81199687D01*
X86162000Y-81175743D01*
X86162000Y-81093000D01*
X88008000Y-81093000D01*
X88008000Y-81175743D01*
X88275307Y-81199687D01*
X88252211Y-81093000D01*
X88008000Y-81093000D01*
X86162000Y-81093000D01*
X85917789Y-81093000D01*
X85894693Y-81199687D01*
X83845307Y-81199687D01*
X83822211Y-81093000D01*
X83628000Y-81093000D01*
X82182000Y-81093000D01*
X81987789Y-81093000D01*
X81964693Y-81199687D01*
X80306000Y-81199687D01*
X80306000Y-80306000D01*
X103862364Y-80306000D01*
X103412796Y-80755568D01*
X103412796Y-80755568D01*
G37*
X103412796Y-80755568D02*
X103404912Y-80754000D01*
X103315088Y-80754000D01*
X103226990Y-80771524D01*
X103144003Y-80805898D01*
X103069317Y-80855802D01*
X103005802Y-80919317D01*
X102955898Y-80994003D01*
X102921524Y-81076990D01*
X102904000Y-81165088D01*
X102904000Y-81254912D01*
X102921524Y-81343010D01*
X102955898Y-81425997D01*
X103005802Y-81500683D01*
X103069317Y-81564198D01*
X103144003Y-81614102D01*
X103226990Y-81648476D01*
X103315088Y-81666000D01*
X103404912Y-81666000D01*
X103493010Y-81648476D01*
X103575997Y-81614102D01*
X103650683Y-81564198D01*
X103714198Y-81500683D01*
X103764102Y-81425997D01*
X103798476Y-81343010D01*
X103816000Y-81254912D01*
X103816000Y-81165088D01*
X103814432Y-81157204D01*
X104238266Y-80733370D01*
X104224000Y-80805088D01*
X104224000Y-80894912D01*
X104241524Y-80983010D01*
X104275898Y-81065997D01*
X104314123Y-81123204D01*
X104270792Y-81136349D01*
X104221454Y-81162720D01*
X104205586Y-81175743D01*
X104178210Y-81198210D01*
X104169316Y-81209048D01*
X103682796Y-81695568D01*
X103674912Y-81694000D01*
X103585088Y-81694000D01*
X103496990Y-81711524D01*
X103414003Y-81745898D01*
X103339317Y-81795802D01*
X103275802Y-81859317D01*
X103225898Y-81934003D01*
X103191524Y-82016990D01*
X103174000Y-82105088D01*
X103174000Y-82194912D01*
X103191524Y-82283010D01*
X103225898Y-82365997D01*
X103275802Y-82440683D01*
X103339317Y-82504198D01*
X103380528Y-82531734D01*
X103305910Y-82581593D01*
X103242395Y-82645108D01*
X103192491Y-82719794D01*
X103158117Y-82802781D01*
X103140593Y-82890879D01*
X103140593Y-82980703D01*
X103158117Y-83068801D01*
X103192491Y-83151788D01*
X103242395Y-83226474D01*
X103305910Y-83289989D01*
X103380596Y-83339893D01*
X103463583Y-83374267D01*
X103551681Y-83391791D01*
X103641505Y-83391791D01*
X103729603Y-83374267D01*
X103812590Y-83339893D01*
X103887276Y-83289989D01*
X103950791Y-83226474D01*
X104000695Y-83151788D01*
X104035069Y-83068801D01*
X104052593Y-82980703D01*
X104052593Y-82890879D01*
X104035069Y-82802781D01*
X104000695Y-82719794D01*
X103950791Y-82645108D01*
X103887276Y-82581593D01*
X103846065Y-82554057D01*
X103920683Y-82504198D01*
X103984198Y-82440683D01*
X104034102Y-82365997D01*
X104068476Y-82283010D01*
X104086000Y-82194912D01*
X104086000Y-82105088D01*
X104084432Y-82097204D01*
X104497636Y-81684000D01*
X107276051Y-81684000D01*
X107290000Y-81685374D01*
X107303949Y-81684000D01*
X107303952Y-81684000D01*
X107345674Y-81679891D01*
X107399208Y-81663651D01*
X107448545Y-81637280D01*
X107491790Y-81601790D01*
X107500691Y-81590944D01*
X108207636Y-80884000D01*
X118584669Y-80884000D01*
X118558172Y-80910497D01*
X118500060Y-80997467D01*
X118460032Y-81094103D01*
X118439626Y-81196691D01*
X118439626Y-81301289D01*
X118460032Y-81403877D01*
X118500060Y-81500513D01*
X118558172Y-81587483D01*
X118632133Y-81661444D01*
X118719103Y-81719556D01*
X118815739Y-81759584D01*
X118918327Y-81779990D01*
X119022925Y-81779990D01*
X119125513Y-81759584D01*
X119222149Y-81719556D01*
X119309119Y-81661444D01*
X119321104Y-81649460D01*
X119333088Y-81661444D01*
X119420058Y-81719556D01*
X119516694Y-81759584D01*
X119619282Y-81779990D01*
X119723880Y-81779990D01*
X119826468Y-81759584D01*
X119923104Y-81719556D01*
X120010074Y-81661444D01*
X120013756Y-81657762D01*
X120017438Y-81661444D01*
X120104408Y-81719556D01*
X120201044Y-81759584D01*
X120303632Y-81779990D01*
X120408230Y-81779990D01*
X120510818Y-81759584D01*
X120607454Y-81719556D01*
X120694424Y-81661444D01*
X120768385Y-81587483D01*
X120826497Y-81500513D01*
X120827661Y-81497701D01*
X122044000Y-81497701D01*
X122044000Y-81602299D01*
X122064406Y-81704887D01*
X122104434Y-81801523D01*
X122162546Y-81888493D01*
X122236507Y-81962454D01*
X122323477Y-82020566D01*
X122420113Y-82060594D01*
X122522701Y-82081000D01*
X122627299Y-82081000D01*
X122729887Y-82060594D01*
X122826523Y-82020566D01*
X122913493Y-81962454D01*
X122987454Y-81888493D01*
X123045566Y-81801523D01*
X123085594Y-81704887D01*
X123106000Y-81602299D01*
X123106000Y-81497701D01*
X123085594Y-81395113D01*
X123045566Y-81298477D01*
X122987454Y-81211507D01*
X122913493Y-81137546D01*
X122826523Y-81079434D01*
X122729887Y-81039406D01*
X122627299Y-81019000D01*
X122522701Y-81019000D01*
X122420113Y-81039406D01*
X122323477Y-81079434D01*
X122236507Y-81137546D01*
X122162546Y-81211507D01*
X122104434Y-81298477D01*
X122064406Y-81395113D01*
X122044000Y-81497701D01*
X120827661Y-81497701D01*
X120866525Y-81403877D01*
X120886931Y-81301289D01*
X120886931Y-81196691D01*
X120866525Y-81094103D01*
X120826497Y-80997467D01*
X120768385Y-80910497D01*
X120741888Y-80884000D01*
X128687151Y-80884000D01*
X129344099Y-81540949D01*
X129352996Y-81551790D01*
X129369540Y-81565367D01*
X129396240Y-81587280D01*
X129433657Y-81607279D01*
X129445578Y-81613651D01*
X129499112Y-81629891D01*
X129540834Y-81634000D01*
X129540836Y-81634000D01*
X129554785Y-81635374D01*
X129568734Y-81634000D01*
X131872327Y-81634000D01*
X131916990Y-81652500D01*
X132005088Y-81670024D01*
X132094912Y-81670024D01*
X132183010Y-81652500D01*
X132265997Y-81618126D01*
X132340683Y-81568222D01*
X132404198Y-81504707D01*
X132454102Y-81430021D01*
X132488476Y-81347034D01*
X132506000Y-81258936D01*
X132506000Y-81169112D01*
X132488476Y-81081014D01*
X132482265Y-81066018D01*
X133414383Y-81066018D01*
X134099330Y-81750967D01*
X134108222Y-81761802D01*
X134119057Y-81770694D01*
X134119059Y-81770696D01*
X134151466Y-81797292D01*
X134185126Y-81815283D01*
X134200804Y-81823663D01*
X134254338Y-81839903D01*
X134296060Y-81844012D01*
X134296063Y-81844012D01*
X134310012Y-81845386D01*
X134323961Y-81844012D01*
X134479190Y-81844012D01*
X134429434Y-81918477D01*
X134389406Y-82015113D01*
X134369000Y-82117701D01*
X134369000Y-82222299D01*
X134389406Y-82324887D01*
X134429434Y-82421523D01*
X134487546Y-82508493D01*
X134529543Y-82550490D01*
X134487546Y-82592486D01*
X134429434Y-82679456D01*
X134389406Y-82776092D01*
X134369000Y-82878680D01*
X134369000Y-82983278D01*
X134389406Y-83085866D01*
X134429434Y-83182502D01*
X134487546Y-83269472D01*
X134561507Y-83343433D01*
X134648477Y-83401545D01*
X134745113Y-83441573D01*
X134847701Y-83461979D01*
X134952299Y-83461979D01*
X135054887Y-83441573D01*
X135151523Y-83401545D01*
X135238493Y-83343433D01*
X135300000Y-83281926D01*
X135361507Y-83343433D01*
X135448477Y-83401545D01*
X135545113Y-83441573D01*
X135647701Y-83461979D01*
X135752299Y-83461979D01*
X135854887Y-83441573D01*
X135951523Y-83401545D01*
X136038493Y-83343433D01*
X136100000Y-83281926D01*
X136161507Y-83343433D01*
X136248477Y-83401545D01*
X136345113Y-83441573D01*
X136447701Y-83461979D01*
X136552299Y-83461979D01*
X136654887Y-83441573D01*
X136751523Y-83401545D01*
X136838493Y-83343433D01*
X136900000Y-83281926D01*
X136961507Y-83343433D01*
X137048477Y-83401545D01*
X137145113Y-83441573D01*
X137247701Y-83461979D01*
X137352299Y-83461979D01*
X137454887Y-83441573D01*
X137551523Y-83401545D01*
X137638493Y-83343433D01*
X137712454Y-83269472D01*
X137770566Y-83182502D01*
X137810594Y-83085866D01*
X137831000Y-82983278D01*
X137831000Y-82878680D01*
X137810594Y-82776092D01*
X137770566Y-82679456D01*
X137712454Y-82592486D01*
X137670458Y-82550490D01*
X137712454Y-82508493D01*
X137770566Y-82421523D01*
X137810594Y-82324887D01*
X137831000Y-82222299D01*
X137831000Y-82117701D01*
X137810594Y-82015113D01*
X137770566Y-81918477D01*
X137720810Y-81844012D01*
X143726039Y-81844012D01*
X143739988Y-81845386D01*
X143753937Y-81844012D01*
X143753940Y-81844012D01*
X143795662Y-81839903D01*
X143849196Y-81823663D01*
X143898533Y-81797292D01*
X143941778Y-81761802D01*
X143950679Y-81750956D01*
X144167636Y-81534000D01*
X151379640Y-81534000D01*
X151215283Y-81643820D01*
X151043820Y-81815283D01*
X150909102Y-82016903D01*
X150816307Y-82240931D01*
X150769000Y-82478757D01*
X150769000Y-82721243D01*
X150816307Y-82959069D01*
X150909102Y-83183097D01*
X151043820Y-83384717D01*
X151215283Y-83556180D01*
X151416903Y-83690898D01*
X151640931Y-83783693D01*
X151878757Y-83831000D01*
X152121243Y-83831000D01*
X152359069Y-83783693D01*
X152583097Y-83690898D01*
X152784717Y-83556180D01*
X152956180Y-83384717D01*
X153090898Y-83183097D01*
X153158454Y-83020000D01*
X158167398Y-83020000D01*
X158169000Y-83994250D01*
X158251750Y-84077000D01*
X160077000Y-84077000D01*
X160077000Y-82771750D01*
X159994250Y-82689000D01*
X158500000Y-82687398D01*
X158435113Y-82693789D01*
X158372719Y-82712716D01*
X158315216Y-82743452D01*
X158264815Y-82784815D01*
X158223452Y-82835216D01*
X158192716Y-82892719D01*
X158173789Y-82955113D01*
X158167398Y-83020000D01*
X153158454Y-83020000D01*
X153183693Y-82959069D01*
X153231000Y-82721243D01*
X153231000Y-82478757D01*
X153183693Y-82240931D01*
X153090898Y-82016903D01*
X152987224Y-81861744D01*
X152990792Y-81863651D01*
X153044326Y-81879891D01*
X153086048Y-81884000D01*
X153086051Y-81884000D01*
X153100000Y-81885374D01*
X153113949Y-81884000D01*
X154407927Y-81884000D01*
X154445802Y-81940683D01*
X154509317Y-82004198D01*
X154584003Y-82054102D01*
X154666990Y-82088476D01*
X154755088Y-82106000D01*
X154844912Y-82106000D01*
X154933010Y-82088476D01*
X155015997Y-82054102D01*
X155090683Y-82004198D01*
X155154198Y-81940683D01*
X155204102Y-81865997D01*
X155238476Y-81783010D01*
X155256000Y-81694912D01*
X155256000Y-81605088D01*
X155238476Y-81516990D01*
X155204102Y-81434003D01*
X155154198Y-81359317D01*
X155090683Y-81295802D01*
X155015997Y-81245898D01*
X154933010Y-81211524D01*
X154844912Y-81194000D01*
X154755088Y-81194000D01*
X154666990Y-81211524D01*
X154584003Y-81245898D01*
X154509317Y-81295802D01*
X154489119Y-81316000D01*
X154206659Y-81316000D01*
X154254102Y-81244997D01*
X154288476Y-81162010D01*
X154306000Y-81073912D01*
X154306000Y-80984088D01*
X154288476Y-80895990D01*
X154254102Y-80813003D01*
X154249423Y-80806000D01*
X163694000Y-80806000D01*
X163694000Y-82751016D01*
X163684784Y-82743452D01*
X163627281Y-82712716D01*
X163564887Y-82693789D01*
X163500000Y-82687398D01*
X162005750Y-82689000D01*
X161923000Y-82771750D01*
X161923000Y-84077000D01*
X161943000Y-84077000D01*
X161943000Y-85923000D01*
X161923000Y-85923000D01*
X161923000Y-87228250D01*
X162005750Y-87311000D01*
X163500000Y-87312602D01*
X163564887Y-87306211D01*
X163627281Y-87287284D01*
X163684784Y-87256548D01*
X163694001Y-87248984D01*
X163694001Y-89194000D01*
X142704684Y-89194000D01*
X142733066Y-89151523D01*
X142773094Y-89054887D01*
X142793500Y-88952299D01*
X142793500Y-88847701D01*
X142773094Y-88745113D01*
X142733066Y-88648477D01*
X142674954Y-88561507D01*
X142600993Y-88487546D01*
X142514023Y-88429434D01*
X142417387Y-88389406D01*
X142314799Y-88369000D01*
X142210201Y-88369000D01*
X142107613Y-88389406D01*
X142010977Y-88429434D01*
X141924007Y-88487546D01*
X141850046Y-88561507D01*
X141791934Y-88648477D01*
X141751906Y-88745113D01*
X141731500Y-88847701D01*
X141731500Y-88952299D01*
X141751906Y-89054887D01*
X141791934Y-89151523D01*
X141820316Y-89194000D01*
X131036949Y-89194000D01*
X131052454Y-89178495D01*
X131110566Y-89091525D01*
X131150594Y-88994889D01*
X131171000Y-88892301D01*
X131171000Y-88787703D01*
X131150594Y-88685115D01*
X131110566Y-88588479D01*
X131052454Y-88501509D01*
X130978493Y-88427548D01*
X130967289Y-88420062D01*
X131014887Y-88410594D01*
X131111523Y-88370566D01*
X131198493Y-88312454D01*
X131245859Y-88265088D01*
X134554002Y-88265088D01*
X134554002Y-88354912D01*
X134571526Y-88443010D01*
X134605900Y-88525997D01*
X134655804Y-88600683D01*
X134719319Y-88664198D01*
X134794005Y-88714102D01*
X134876992Y-88748476D01*
X134965090Y-88766000D01*
X135054914Y-88766000D01*
X135143012Y-88748476D01*
X135225999Y-88714102D01*
X135300685Y-88664198D01*
X135364200Y-88600683D01*
X135414104Y-88525997D01*
X135448478Y-88443010D01*
X135466002Y-88354912D01*
X135466002Y-88265088D01*
X135448478Y-88176990D01*
X135414104Y-88094003D01*
X135364200Y-88019317D01*
X135300685Y-87955802D01*
X135225999Y-87905898D01*
X135143012Y-87871524D01*
X135054914Y-87854000D01*
X134965090Y-87854000D01*
X134876992Y-87871524D01*
X134794005Y-87905898D01*
X134719319Y-87955802D01*
X134655804Y-88019317D01*
X134605900Y-88094003D01*
X134571526Y-88176990D01*
X134554002Y-88265088D01*
X131245859Y-88265088D01*
X131272454Y-88238493D01*
X131330566Y-88151523D01*
X131370594Y-88054887D01*
X131391000Y-87952299D01*
X131391000Y-87847701D01*
X131370594Y-87745113D01*
X131330566Y-87648477D01*
X131272454Y-87561507D01*
X131198493Y-87487546D01*
X131111523Y-87429434D01*
X131014887Y-87389406D01*
X130912299Y-87369000D01*
X130807701Y-87369000D01*
X130725924Y-87385266D01*
X130708466Y-87297499D01*
X130700703Y-87278757D01*
X150769000Y-87278757D01*
X150769000Y-87521243D01*
X150816307Y-87759069D01*
X150909102Y-87983097D01*
X151043820Y-88184717D01*
X151215283Y-88356180D01*
X151416903Y-88490898D01*
X151640931Y-88583693D01*
X151878757Y-88631000D01*
X152121243Y-88631000D01*
X152359069Y-88583693D01*
X152583097Y-88490898D01*
X152784717Y-88356180D01*
X152956180Y-88184717D01*
X153090898Y-87983097D01*
X153183693Y-87759069D01*
X153231000Y-87521243D01*
X153231000Y-87347701D01*
X154669000Y-87347701D01*
X154669000Y-87452299D01*
X154689406Y-87554887D01*
X154729434Y-87651523D01*
X154787546Y-87738493D01*
X154861507Y-87812454D01*
X154948477Y-87870566D01*
X155045113Y-87910594D01*
X155147701Y-87931000D01*
X155252299Y-87931000D01*
X155354887Y-87910594D01*
X155451523Y-87870566D01*
X155538493Y-87812454D01*
X155612454Y-87738493D01*
X155670566Y-87651523D01*
X155710594Y-87554887D01*
X155731000Y-87452299D01*
X155731000Y-87347701D01*
X155710594Y-87245113D01*
X155670566Y-87148477D01*
X155612454Y-87061507D01*
X155538493Y-86987546D01*
X155527200Y-86980000D01*
X158167398Y-86980000D01*
X158173789Y-87044887D01*
X158192716Y-87107281D01*
X158223452Y-87164784D01*
X158264815Y-87215185D01*
X158315216Y-87256548D01*
X158372719Y-87287284D01*
X158435113Y-87306211D01*
X158500000Y-87312602D01*
X159994250Y-87311000D01*
X160077000Y-87228250D01*
X160077000Y-85923000D01*
X158251750Y-85923000D01*
X158169000Y-86005750D01*
X158167398Y-86980000D01*
X155527200Y-86980000D01*
X155451523Y-86929434D01*
X155354887Y-86889406D01*
X155252299Y-86869000D01*
X155147701Y-86869000D01*
X155045113Y-86889406D01*
X154948477Y-86929434D01*
X154861507Y-86987546D01*
X154787546Y-87061507D01*
X154729434Y-87148477D01*
X154689406Y-87245113D01*
X154669000Y-87347701D01*
X153231000Y-87347701D01*
X153231000Y-87278757D01*
X153183693Y-87040931D01*
X153090898Y-86816903D01*
X152956180Y-86615283D01*
X152784717Y-86443820D01*
X152583097Y-86309102D01*
X152359069Y-86216307D01*
X152121243Y-86169000D01*
X151878757Y-86169000D01*
X151640931Y-86216307D01*
X151416903Y-86309102D01*
X151215283Y-86443820D01*
X151043820Y-86615283D01*
X150909102Y-86816903D01*
X150816307Y-87040931D01*
X150769000Y-87278757D01*
X130700703Y-87278757D01*
X130674092Y-87214512D01*
X130624188Y-87139826D01*
X130560673Y-87076311D01*
X130485987Y-87026407D01*
X130403000Y-86992033D01*
X130314902Y-86974509D01*
X130225078Y-86974509D01*
X130136980Y-86992033D01*
X130053993Y-87026407D01*
X129979307Y-87076311D01*
X129915792Y-87139826D01*
X129865888Y-87214512D01*
X129831514Y-87297499D01*
X129813990Y-87385597D01*
X129813990Y-87475421D01*
X129831514Y-87563519D01*
X129865888Y-87646506D01*
X129915792Y-87721192D01*
X129979307Y-87784707D01*
X130053993Y-87834611D01*
X130136980Y-87868985D01*
X130225078Y-87886509D01*
X130314902Y-87886509D01*
X130329000Y-87883705D01*
X130329000Y-87952299D01*
X130349406Y-88054887D01*
X130389434Y-88151523D01*
X130447546Y-88238493D01*
X130521507Y-88312454D01*
X130532711Y-88319940D01*
X130485113Y-88329408D01*
X130388477Y-88369436D01*
X130301507Y-88427548D01*
X130227546Y-88501509D01*
X130169434Y-88588479D01*
X130129406Y-88685115D01*
X130109000Y-88787703D01*
X130109000Y-88892301D01*
X130129406Y-88994889D01*
X130169434Y-89091525D01*
X130227546Y-89178495D01*
X130301507Y-89252456D01*
X130388477Y-89310568D01*
X130485113Y-89350596D01*
X130577727Y-89369018D01*
X129927765Y-89694000D01*
X121740651Y-89694000D01*
X121776113Y-89686946D01*
X121907829Y-89632388D01*
X122026370Y-89553181D01*
X122127181Y-89452370D01*
X122206388Y-89333829D01*
X122260946Y-89202113D01*
X122288760Y-89062284D01*
X122288760Y-88919716D01*
X122260946Y-88779887D01*
X122206388Y-88648171D01*
X122127181Y-88529630D01*
X122026370Y-88428819D01*
X121907829Y-88349612D01*
X121776113Y-88295054D01*
X121636284Y-88267240D01*
X121493716Y-88267240D01*
X121353887Y-88295054D01*
X121222171Y-88349612D01*
X121103630Y-88428819D01*
X121002819Y-88529630D01*
X120923612Y-88648171D01*
X120869054Y-88779887D01*
X120841240Y-88919716D01*
X120841240Y-89062284D01*
X120869054Y-89202113D01*
X120923612Y-89333829D01*
X121002819Y-89452370D01*
X121103630Y-89553181D01*
X121222171Y-89632388D01*
X121353887Y-89686946D01*
X121389349Y-89694000D01*
X115662627Y-89694000D01*
X115704887Y-89685594D01*
X115801523Y-89645566D01*
X115888493Y-89587454D01*
X115962454Y-89513493D01*
X116020566Y-89426523D01*
X116060594Y-89329887D01*
X116081000Y-89227299D01*
X116081000Y-89122701D01*
X116060594Y-89020113D01*
X116020566Y-88923477D01*
X115962454Y-88836507D01*
X115888493Y-88762546D01*
X115801523Y-88704434D01*
X115704887Y-88664406D01*
X115602299Y-88644000D01*
X115497701Y-88644000D01*
X115395113Y-88664406D01*
X115298477Y-88704434D01*
X115211507Y-88762546D01*
X115137546Y-88836507D01*
X115079434Y-88923477D01*
X115039406Y-89020113D01*
X115019000Y-89122701D01*
X115019000Y-89227299D01*
X115039406Y-89329887D01*
X115079434Y-89426523D01*
X115137546Y-89513493D01*
X115211507Y-89587454D01*
X115298477Y-89645566D01*
X115395113Y-89685594D01*
X115437373Y-89694000D01*
X110100881Y-89694000D01*
X110154198Y-89640683D01*
X110204102Y-89565997D01*
X110238476Y-89483010D01*
X110256000Y-89394912D01*
X110256000Y-89305088D01*
X110238476Y-89216990D01*
X110204102Y-89134003D01*
X110154198Y-89059317D01*
X110090683Y-88995802D01*
X110015997Y-88945898D01*
X109933010Y-88911524D01*
X109844912Y-88894000D01*
X109755088Y-88894000D01*
X109666990Y-88911524D01*
X109584003Y-88945898D01*
X109509317Y-88995802D01*
X109445802Y-89059317D01*
X109395898Y-89134003D01*
X109361524Y-89216990D01*
X109344000Y-89305088D01*
X109344000Y-89394912D01*
X109361524Y-89483010D01*
X109395898Y-89565997D01*
X109445802Y-89640683D01*
X109499119Y-89694000D01*
X80306000Y-89694000D01*
X80306000Y-88780313D01*
X81964693Y-88780313D01*
X81987789Y-88887000D01*
X82182000Y-88887000D01*
X82182000Y-88772444D01*
X83628000Y-88772444D01*
X83628000Y-88887000D01*
X83822211Y-88887000D01*
X83845307Y-88780313D01*
X85894693Y-88780313D01*
X85917789Y-88887000D01*
X86162000Y-88887000D01*
X86162000Y-88804257D01*
X88008000Y-88804257D01*
X88008000Y-88887000D01*
X88252211Y-88887000D01*
X88275307Y-88780313D01*
X88008000Y-88804257D01*
X86162000Y-88804257D01*
X85894693Y-88780313D01*
X83845307Y-88780313D01*
X83719829Y-88763503D01*
X83628000Y-88772444D01*
X82182000Y-88772444D01*
X82090171Y-88763503D01*
X81964693Y-88780313D01*
X80306000Y-88780313D01*
X80306000Y-88490964D01*
X89878124Y-88490964D01*
X89878124Y-88580788D01*
X89895648Y-88668886D01*
X89930022Y-88751873D01*
X89979926Y-88826559D01*
X90043441Y-88890074D01*
X90118127Y-88939978D01*
X90201114Y-88974352D01*
X90289212Y-88991876D01*
X90379036Y-88991876D01*
X90467134Y-88974352D01*
X90550121Y-88939978D01*
X90624807Y-88890074D01*
X90688322Y-88826559D01*
X90738226Y-88751873D01*
X90772600Y-88668886D01*
X90790124Y-88580788D01*
X90790124Y-88490964D01*
X90787961Y-88480088D01*
X92969000Y-88480088D01*
X92969000Y-88569912D01*
X92986524Y-88658010D01*
X93020898Y-88740997D01*
X93070802Y-88815683D01*
X93134317Y-88879198D01*
X93209003Y-88929102D01*
X93291990Y-88963476D01*
X93380088Y-88981000D01*
X93469912Y-88981000D01*
X93558010Y-88963476D01*
X93640997Y-88929102D01*
X93715683Y-88879198D01*
X93779198Y-88815683D01*
X93829102Y-88740997D01*
X93863476Y-88658010D01*
X93881000Y-88569912D01*
X93881000Y-88480088D01*
X93863476Y-88391990D01*
X93829102Y-88309003D01*
X93806441Y-88275088D01*
X96874000Y-88275088D01*
X96874000Y-88364912D01*
X96891524Y-88453010D01*
X96925898Y-88535997D01*
X96975802Y-88610683D01*
X97039317Y-88674198D01*
X97114003Y-88724102D01*
X97196990Y-88758476D01*
X97285088Y-88776000D01*
X97374912Y-88776000D01*
X97463010Y-88758476D01*
X97545997Y-88724102D01*
X97620683Y-88674198D01*
X97684198Y-88610683D01*
X97734102Y-88535997D01*
X97768476Y-88453010D01*
X97786000Y-88364912D01*
X97786000Y-88275088D01*
X97768476Y-88186990D01*
X97734102Y-88104003D01*
X97684198Y-88029317D01*
X97620683Y-87965802D01*
X97545997Y-87915898D01*
X97463010Y-87881524D01*
X97374912Y-87864000D01*
X97285088Y-87864000D01*
X97196990Y-87881524D01*
X97114003Y-87915898D01*
X97039317Y-87965802D01*
X96975802Y-88029317D01*
X96925898Y-88104003D01*
X96891524Y-88186990D01*
X96874000Y-88275088D01*
X93806441Y-88275088D01*
X93779198Y-88234317D01*
X93715683Y-88170802D01*
X93640997Y-88120898D01*
X93558010Y-88086524D01*
X93469912Y-88069000D01*
X93380088Y-88069000D01*
X93291990Y-88086524D01*
X93209003Y-88120898D01*
X93134317Y-88170802D01*
X93070802Y-88234317D01*
X93020898Y-88309003D01*
X92986524Y-88391990D01*
X92969000Y-88480088D01*
X90787961Y-88480088D01*
X90772600Y-88402866D01*
X90738226Y-88319879D01*
X90688322Y-88245193D01*
X90624807Y-88181678D01*
X90550121Y-88131774D01*
X90467134Y-88097400D01*
X90379036Y-88079876D01*
X90289212Y-88079876D01*
X90201114Y-88097400D01*
X90118127Y-88131774D01*
X90043441Y-88181678D01*
X89979926Y-88245193D01*
X89930022Y-88319879D01*
X89895648Y-88402866D01*
X89878124Y-88490964D01*
X80306000Y-88490964D01*
X80306000Y-82657701D01*
X83609000Y-82657701D01*
X83609000Y-82762299D01*
X83629406Y-82864887D01*
X83669434Y-82961523D01*
X83727546Y-83048493D01*
X83801507Y-83122454D01*
X83857698Y-83160000D01*
X83801507Y-83197546D01*
X83727546Y-83271507D01*
X83669434Y-83358477D01*
X83629406Y-83455113D01*
X83609000Y-83557701D01*
X83609000Y-83662299D01*
X83629406Y-83764887D01*
X83669434Y-83861523D01*
X83727546Y-83948493D01*
X83801507Y-84022454D01*
X83857698Y-84060000D01*
X83801507Y-84097546D01*
X83727546Y-84171507D01*
X83669434Y-84258477D01*
X83629406Y-84355113D01*
X83609000Y-84457701D01*
X83609000Y-84562299D01*
X83629406Y-84664887D01*
X83669434Y-84761523D01*
X83727546Y-84848493D01*
X83801507Y-84922454D01*
X83857698Y-84960000D01*
X83801507Y-84997546D01*
X83727546Y-85071507D01*
X83669434Y-85158477D01*
X83629406Y-85255113D01*
X83609000Y-85357701D01*
X83609000Y-85462299D01*
X83629406Y-85564887D01*
X83669434Y-85661523D01*
X83727546Y-85748493D01*
X83801507Y-85822454D01*
X83857698Y-85860000D01*
X83801507Y-85897546D01*
X83727546Y-85971507D01*
X83669434Y-86058477D01*
X83629406Y-86155113D01*
X83609000Y-86257701D01*
X83609000Y-86362299D01*
X83629406Y-86464887D01*
X83669434Y-86561523D01*
X83727546Y-86648493D01*
X83801507Y-86722454D01*
X83857698Y-86760000D01*
X83801507Y-86797546D01*
X83727546Y-86871507D01*
X83669434Y-86958477D01*
X83629406Y-87055113D01*
X83609000Y-87157701D01*
X83609000Y-87262299D01*
X83629406Y-87364887D01*
X83669434Y-87461523D01*
X83727546Y-87548493D01*
X83801507Y-87622454D01*
X83888477Y-87680566D01*
X83985113Y-87720594D01*
X84087701Y-87741000D01*
X84192299Y-87741000D01*
X84294887Y-87720594D01*
X84391523Y-87680566D01*
X84478493Y-87622454D01*
X84552454Y-87548493D01*
X84590000Y-87492302D01*
X84627546Y-87548493D01*
X84701507Y-87622454D01*
X84788477Y-87680566D01*
X84885113Y-87720594D01*
X84987701Y-87741000D01*
X85092299Y-87741000D01*
X85194887Y-87720594D01*
X85291523Y-87680566D01*
X85378493Y-87622454D01*
X85452454Y-87548493D01*
X85478526Y-87509473D01*
X85521507Y-87552454D01*
X85608477Y-87610566D01*
X85705113Y-87650594D01*
X85807701Y-87671000D01*
X85912299Y-87671000D01*
X86014887Y-87650594D01*
X86055115Y-87633931D01*
X86020367Y-87717821D01*
X85999000Y-87825239D01*
X85999000Y-87934761D01*
X86020367Y-88042179D01*
X86062279Y-88143365D01*
X86123127Y-88234429D01*
X86200571Y-88311873D01*
X86291635Y-88372721D01*
X86392821Y-88414633D01*
X86500239Y-88436000D01*
X86609761Y-88436000D01*
X86717179Y-88414633D01*
X86818365Y-88372721D01*
X86909429Y-88311873D01*
X86986873Y-88234429D01*
X87047721Y-88143365D01*
X87089633Y-88042179D01*
X87111000Y-87934761D01*
X87111000Y-87825239D01*
X87089633Y-87717821D01*
X87047721Y-87616635D01*
X86986873Y-87525571D01*
X86912269Y-87450967D01*
X86961523Y-87430566D01*
X87048493Y-87372454D01*
X87122454Y-87298493D01*
X87156392Y-87247701D01*
X88809000Y-87247701D01*
X88809000Y-87352299D01*
X88829406Y-87454887D01*
X88869434Y-87551523D01*
X88927546Y-87638493D01*
X89001507Y-87712454D01*
X89088477Y-87770566D01*
X89185113Y-87810594D01*
X89287701Y-87831000D01*
X89392299Y-87831000D01*
X89451561Y-87819212D01*
X90549876Y-87819212D01*
X90549876Y-87909036D01*
X90567400Y-87997134D01*
X90601774Y-88080121D01*
X90651678Y-88154807D01*
X90715193Y-88218322D01*
X90789879Y-88268226D01*
X90872866Y-88302600D01*
X90960964Y-88320124D01*
X91050788Y-88320124D01*
X91138886Y-88302600D01*
X91221873Y-88268226D01*
X91296559Y-88218322D01*
X91360074Y-88154807D01*
X91409978Y-88080121D01*
X91444352Y-87997134D01*
X91461876Y-87909036D01*
X91461876Y-87847701D01*
X101318996Y-87847701D01*
X101318996Y-87952299D01*
X101339402Y-88054887D01*
X101379430Y-88151523D01*
X101437542Y-88238493D01*
X101511503Y-88312454D01*
X101598473Y-88370566D01*
X101695109Y-88410594D01*
X101797697Y-88431000D01*
X101902295Y-88431000D01*
X102004883Y-88410594D01*
X102016095Y-88405950D01*
X102011522Y-88416990D01*
X101993998Y-88505088D01*
X101993998Y-88594912D01*
X102011522Y-88683010D01*
X102045896Y-88765997D01*
X102095800Y-88840683D01*
X102159315Y-88904198D01*
X102234001Y-88954102D01*
X102316988Y-88988476D01*
X102405086Y-89006000D01*
X102494910Y-89006000D01*
X102583008Y-88988476D01*
X102665995Y-88954102D01*
X102740681Y-88904198D01*
X102796217Y-88848662D01*
X103969000Y-88848662D01*
X103969000Y-88953260D01*
X103989406Y-89055848D01*
X104029434Y-89152484D01*
X104087546Y-89239454D01*
X104161507Y-89313415D01*
X104248477Y-89371527D01*
X104345113Y-89411555D01*
X104447701Y-89431961D01*
X104552299Y-89431961D01*
X104654887Y-89411555D01*
X104751523Y-89371527D01*
X104838493Y-89313415D01*
X104912454Y-89239454D01*
X104970566Y-89152484D01*
X105010594Y-89055848D01*
X105031000Y-88953260D01*
X105031000Y-88848662D01*
X105010594Y-88746074D01*
X104970566Y-88649438D01*
X104912454Y-88562468D01*
X104838493Y-88488507D01*
X104777424Y-88447701D01*
X111544000Y-88447701D01*
X111544000Y-88552299D01*
X111564406Y-88654887D01*
X111604434Y-88751523D01*
X111662546Y-88838493D01*
X111736507Y-88912454D01*
X111823477Y-88970566D01*
X111920113Y-89010594D01*
X112022701Y-89031000D01*
X112127299Y-89031000D01*
X112229887Y-89010594D01*
X112326523Y-88970566D01*
X112413493Y-88912454D01*
X112487454Y-88838493D01*
X112545566Y-88751523D01*
X112585594Y-88654887D01*
X112606000Y-88552299D01*
X112606000Y-88447701D01*
X112585594Y-88345113D01*
X112545566Y-88248477D01*
X112487454Y-88161507D01*
X112413493Y-88087546D01*
X112326523Y-88029434D01*
X112229887Y-87989406D01*
X112127299Y-87969000D01*
X112022701Y-87969000D01*
X111920113Y-87989406D01*
X111823477Y-88029434D01*
X111736507Y-88087546D01*
X111662546Y-88161507D01*
X111604434Y-88248477D01*
X111564406Y-88345113D01*
X111544000Y-88447701D01*
X104777424Y-88447701D01*
X104751523Y-88430395D01*
X104654887Y-88390367D01*
X104552299Y-88369961D01*
X104447701Y-88369961D01*
X104345113Y-88390367D01*
X104248477Y-88430395D01*
X104161507Y-88488507D01*
X104087546Y-88562468D01*
X104029434Y-88649438D01*
X103989406Y-88746074D01*
X103969000Y-88848662D01*
X102796217Y-88848662D01*
X102804196Y-88840683D01*
X102854100Y-88765997D01*
X102888474Y-88683010D01*
X102905998Y-88594912D01*
X102905998Y-88505088D01*
X102888474Y-88416990D01*
X102854100Y-88334003D01*
X102804196Y-88259317D01*
X102740681Y-88195802D01*
X102665995Y-88145898D01*
X102583008Y-88111524D01*
X102494910Y-88094000D01*
X102405086Y-88094000D01*
X102338939Y-88107158D01*
X102360590Y-88054887D01*
X102380996Y-87952299D01*
X102380996Y-87847701D01*
X102360590Y-87745113D01*
X102320562Y-87648477D01*
X102262450Y-87561507D01*
X102188489Y-87487546D01*
X102101519Y-87429434D01*
X102004883Y-87389406D01*
X101902295Y-87369000D01*
X101797697Y-87369000D01*
X101695109Y-87389406D01*
X101598473Y-87429434D01*
X101511503Y-87487546D01*
X101437542Y-87561507D01*
X101379430Y-87648477D01*
X101339402Y-87745113D01*
X101318996Y-87847701D01*
X91461876Y-87847701D01*
X91461876Y-87819212D01*
X91444352Y-87731114D01*
X91409978Y-87648127D01*
X91360074Y-87573441D01*
X91296559Y-87509926D01*
X91221873Y-87460022D01*
X91138886Y-87425648D01*
X91050788Y-87408124D01*
X90960964Y-87408124D01*
X90872866Y-87425648D01*
X90789879Y-87460022D01*
X90715193Y-87509926D01*
X90651678Y-87573441D01*
X90601774Y-87648127D01*
X90567400Y-87731114D01*
X90549876Y-87819212D01*
X89451561Y-87819212D01*
X89494887Y-87810594D01*
X89591523Y-87770566D01*
X89678493Y-87712454D01*
X89752454Y-87638493D01*
X89810566Y-87551523D01*
X89850594Y-87454887D01*
X89871000Y-87352299D01*
X89871000Y-87305088D01*
X100094000Y-87305088D01*
X100094000Y-87394912D01*
X100111524Y-87483010D01*
X100145898Y-87565997D01*
X100195802Y-87640683D01*
X100259317Y-87704198D01*
X100334003Y-87754102D01*
X100416990Y-87788476D01*
X100505088Y-87806000D01*
X100594912Y-87806000D01*
X100683010Y-87788476D01*
X100765997Y-87754102D01*
X100840683Y-87704198D01*
X100904198Y-87640683D01*
X100954102Y-87565997D01*
X100988476Y-87483010D01*
X101006000Y-87394912D01*
X101006000Y-87305088D01*
X100988898Y-87219109D01*
X115144000Y-87219109D01*
X115144000Y-87308933D01*
X115161524Y-87397031D01*
X115195898Y-87480018D01*
X115245802Y-87554704D01*
X115309317Y-87618219D01*
X115384003Y-87668123D01*
X115466990Y-87702497D01*
X115555088Y-87720021D01*
X115644912Y-87720021D01*
X115733010Y-87702497D01*
X115815997Y-87668123D01*
X115831690Y-87657637D01*
X115787833Y-87763517D01*
X115759970Y-87903591D01*
X115759970Y-88046409D01*
X115787833Y-88186483D01*
X115842487Y-88318430D01*
X115921833Y-88437180D01*
X116022820Y-88538167D01*
X116141570Y-88617513D01*
X116273517Y-88672167D01*
X116413591Y-88700030D01*
X116524023Y-88700030D01*
X116512546Y-88711507D01*
X116454434Y-88798477D01*
X116414406Y-88895113D01*
X116394000Y-88997701D01*
X116394000Y-89102299D01*
X116414406Y-89204887D01*
X116454434Y-89301523D01*
X116512546Y-89388493D01*
X116586507Y-89462454D01*
X116673477Y-89520566D01*
X116770113Y-89560594D01*
X116872701Y-89581000D01*
X116977299Y-89581000D01*
X117079887Y-89560594D01*
X117176523Y-89520566D01*
X117263493Y-89462454D01*
X117337454Y-89388493D01*
X117395566Y-89301523D01*
X117435594Y-89204887D01*
X117456000Y-89102299D01*
X117456000Y-88997701D01*
X117435594Y-88895113D01*
X117395566Y-88798477D01*
X117337454Y-88711507D01*
X117263493Y-88637546D01*
X117176523Y-88579434D01*
X117079887Y-88539406D01*
X116977299Y-88519000D01*
X116966347Y-88519000D01*
X117048167Y-88437180D01*
X117127513Y-88318430D01*
X117182167Y-88186483D01*
X117210030Y-88046409D01*
X117210030Y-87903591D01*
X117182167Y-87763517D01*
X117127513Y-87631570D01*
X117048167Y-87512820D01*
X116947180Y-87411833D01*
X116828430Y-87332487D01*
X116696483Y-87277833D01*
X116556409Y-87249970D01*
X116413591Y-87249970D01*
X116273517Y-87277833D01*
X116141570Y-87332487D01*
X116035990Y-87403033D01*
X116038476Y-87397031D01*
X116056000Y-87308933D01*
X116056000Y-87219109D01*
X116038476Y-87131011D01*
X116004102Y-87048024D01*
X115954198Y-86973338D01*
X115890683Y-86909823D01*
X115815997Y-86859919D01*
X115733010Y-86825545D01*
X115644912Y-86808021D01*
X115555088Y-86808021D01*
X115466990Y-86825545D01*
X115384003Y-86859919D01*
X115309317Y-86909823D01*
X115245802Y-86973338D01*
X115195898Y-87048024D01*
X115161524Y-87131011D01*
X115144000Y-87219109D01*
X100988898Y-87219109D01*
X100988476Y-87216990D01*
X100954102Y-87134003D01*
X100904198Y-87059317D01*
X100840683Y-86995802D01*
X100765997Y-86945898D01*
X100683010Y-86911524D01*
X100594912Y-86894000D01*
X100505088Y-86894000D01*
X100416990Y-86911524D01*
X100334003Y-86945898D01*
X100259317Y-86995802D01*
X100195802Y-87059317D01*
X100145898Y-87134003D01*
X100111524Y-87216990D01*
X100094000Y-87305088D01*
X89871000Y-87305088D01*
X89871000Y-87247701D01*
X89850594Y-87145113D01*
X89810566Y-87048477D01*
X89752454Y-86961507D01*
X89683412Y-86892465D01*
X89740683Y-86854198D01*
X89804198Y-86790683D01*
X89854102Y-86715997D01*
X89888476Y-86633010D01*
X89894030Y-86605088D01*
X90544000Y-86605088D01*
X90544000Y-86694912D01*
X90561524Y-86783010D01*
X90595898Y-86865997D01*
X90645802Y-86940683D01*
X90709317Y-87004198D01*
X90784003Y-87054102D01*
X90866990Y-87088476D01*
X90955088Y-87106000D01*
X91044912Y-87106000D01*
X91133010Y-87088476D01*
X91215997Y-87054102D01*
X91290683Y-87004198D01*
X91354198Y-86940683D01*
X91404102Y-86865997D01*
X91438476Y-86783010D01*
X91456000Y-86694912D01*
X91456000Y-86605088D01*
X91438476Y-86516990D01*
X91404102Y-86434003D01*
X91354198Y-86359317D01*
X91290683Y-86295802D01*
X91215997Y-86245898D01*
X91133010Y-86211524D01*
X91044912Y-86194000D01*
X90955088Y-86194000D01*
X90866990Y-86211524D01*
X90784003Y-86245898D01*
X90709317Y-86295802D01*
X90645802Y-86359317D01*
X90595898Y-86434003D01*
X90561524Y-86516990D01*
X90544000Y-86605088D01*
X89894030Y-86605088D01*
X89906000Y-86544912D01*
X89906000Y-86455088D01*
X89888476Y-86366990D01*
X89854102Y-86284003D01*
X89804198Y-86209317D01*
X89740683Y-86145802D01*
X89684551Y-86108295D01*
X89690683Y-86104198D01*
X89739793Y-86055088D01*
X93364000Y-86055088D01*
X93364000Y-86144912D01*
X93381524Y-86233010D01*
X93415898Y-86315997D01*
X93465802Y-86390683D01*
X93529317Y-86454198D01*
X93604003Y-86504102D01*
X93686990Y-86538476D01*
X93775088Y-86556000D01*
X93864912Y-86556000D01*
X93953010Y-86538476D01*
X94035997Y-86504102D01*
X94110683Y-86454198D01*
X94174198Y-86390683D01*
X94224102Y-86315997D01*
X94258476Y-86233010D01*
X94274773Y-86151078D01*
X102490177Y-86151078D01*
X102490177Y-86240902D01*
X102507701Y-86329000D01*
X102542075Y-86411987D01*
X102591979Y-86486673D01*
X102655494Y-86550188D01*
X102730180Y-86600092D01*
X102813167Y-86634466D01*
X102901265Y-86651990D01*
X102991089Y-86651990D01*
X103079187Y-86634466D01*
X103162174Y-86600092D01*
X103236860Y-86550188D01*
X103300375Y-86486673D01*
X103350279Y-86411987D01*
X103356196Y-86397701D01*
X111969000Y-86397701D01*
X111969000Y-86502299D01*
X111989406Y-86604887D01*
X112029434Y-86701523D01*
X112087546Y-86788493D01*
X112161507Y-86862454D01*
X112248477Y-86920566D01*
X112345113Y-86960594D01*
X112447701Y-86981000D01*
X112552299Y-86981000D01*
X112654887Y-86960594D01*
X112751523Y-86920566D01*
X112838493Y-86862454D01*
X112912454Y-86788493D01*
X112970566Y-86701523D01*
X113010594Y-86604887D01*
X113017712Y-86569100D01*
X119194000Y-86569100D01*
X119194000Y-86658924D01*
X119211524Y-86747022D01*
X119245898Y-86830009D01*
X119295802Y-86904695D01*
X119359317Y-86968210D01*
X119434003Y-87018114D01*
X119516990Y-87052488D01*
X119605088Y-87070012D01*
X119694912Y-87070012D01*
X119783010Y-87052488D01*
X119865997Y-87018114D01*
X119940683Y-86968210D01*
X120004198Y-86904695D01*
X120015543Y-86887716D01*
X120841240Y-86887716D01*
X120841240Y-87030284D01*
X120869054Y-87170113D01*
X120923612Y-87301829D01*
X121002819Y-87420370D01*
X121103630Y-87521181D01*
X121222171Y-87600388D01*
X121353887Y-87654946D01*
X121493716Y-87682760D01*
X121636284Y-87682760D01*
X121776113Y-87654946D01*
X121907829Y-87600388D01*
X122026370Y-87521181D01*
X122127181Y-87420370D01*
X122206388Y-87301829D01*
X122260946Y-87170113D01*
X122288760Y-87030284D01*
X122288760Y-86887716D01*
X122260946Y-86747887D01*
X122206388Y-86616171D01*
X122127181Y-86497630D01*
X122026370Y-86396819D01*
X121907829Y-86317612D01*
X121776113Y-86263054D01*
X121636284Y-86235240D01*
X121493716Y-86235240D01*
X121353887Y-86263054D01*
X121222171Y-86317612D01*
X121103630Y-86396819D01*
X121002819Y-86497630D01*
X120923612Y-86616171D01*
X120869054Y-86747887D01*
X120841240Y-86887716D01*
X120015543Y-86887716D01*
X120054102Y-86830009D01*
X120088476Y-86747022D01*
X120106000Y-86658924D01*
X120106000Y-86569100D01*
X120088476Y-86481002D01*
X120054102Y-86398015D01*
X120004198Y-86323329D01*
X119940683Y-86259814D01*
X119865997Y-86209910D01*
X119820336Y-86190997D01*
X119833010Y-86188476D01*
X119915997Y-86154102D01*
X119990683Y-86104198D01*
X120054198Y-86040683D01*
X120104102Y-85965997D01*
X120138476Y-85883010D01*
X120156000Y-85794912D01*
X120156000Y-85705088D01*
X120138476Y-85616990D01*
X120123191Y-85580088D01*
X120194000Y-85580088D01*
X120194000Y-85669912D01*
X120211524Y-85758010D01*
X120245898Y-85840997D01*
X120295802Y-85915683D01*
X120359317Y-85979198D01*
X120434003Y-86029102D01*
X120516990Y-86063476D01*
X120605088Y-86081000D01*
X120694912Y-86081000D01*
X120783010Y-86063476D01*
X120865997Y-86029102D01*
X120940683Y-85979198D01*
X121004198Y-85915683D01*
X121054102Y-85840997D01*
X121088476Y-85758010D01*
X121106000Y-85669912D01*
X121106000Y-85622701D01*
X122869000Y-85622701D01*
X122869000Y-85727299D01*
X122889406Y-85829887D01*
X122929434Y-85926523D01*
X122987546Y-86013493D01*
X123061507Y-86087454D01*
X123148477Y-86145566D01*
X123245113Y-86185594D01*
X123347701Y-86206000D01*
X123452299Y-86206000D01*
X123554887Y-86185594D01*
X123651523Y-86145566D01*
X123738493Y-86087454D01*
X123812454Y-86013493D01*
X123870566Y-85926523D01*
X123910594Y-85829887D01*
X123931000Y-85727299D01*
X123931000Y-85622701D01*
X123910594Y-85520113D01*
X123870566Y-85423477D01*
X123812454Y-85336507D01*
X123738493Y-85262546D01*
X123651523Y-85204434D01*
X123554887Y-85164406D01*
X123452299Y-85144000D01*
X123347701Y-85144000D01*
X123245113Y-85164406D01*
X123148477Y-85204434D01*
X123061507Y-85262546D01*
X122987546Y-85336507D01*
X122929434Y-85423477D01*
X122889406Y-85520113D01*
X122869000Y-85622701D01*
X121106000Y-85622701D01*
X121106000Y-85580088D01*
X121088476Y-85491990D01*
X121054102Y-85409003D01*
X121004198Y-85334317D01*
X120940683Y-85270802D01*
X120865997Y-85220898D01*
X120783010Y-85186524D01*
X120694912Y-85169000D01*
X120605088Y-85169000D01*
X120516990Y-85186524D01*
X120434003Y-85220898D01*
X120359317Y-85270802D01*
X120295802Y-85334317D01*
X120245898Y-85409003D01*
X120211524Y-85491990D01*
X120194000Y-85580088D01*
X120123191Y-85580088D01*
X120104102Y-85534003D01*
X120054198Y-85459317D01*
X119990683Y-85395802D01*
X119915997Y-85345898D01*
X119833010Y-85311524D01*
X119744912Y-85294000D01*
X119655088Y-85294000D01*
X119566990Y-85311524D01*
X119484003Y-85345898D01*
X119409317Y-85395802D01*
X119345802Y-85459317D01*
X119295898Y-85534003D01*
X119261524Y-85616990D01*
X119244000Y-85705088D01*
X119244000Y-85794912D01*
X119261524Y-85883010D01*
X119295898Y-85965997D01*
X119345802Y-86040683D01*
X119409317Y-86104198D01*
X119484003Y-86154102D01*
X119529664Y-86173015D01*
X119516990Y-86175536D01*
X119434003Y-86209910D01*
X119359317Y-86259814D01*
X119295802Y-86323329D01*
X119245898Y-86398015D01*
X119211524Y-86481002D01*
X119194000Y-86569100D01*
X113017712Y-86569100D01*
X113031000Y-86502299D01*
X113031000Y-86397701D01*
X113010594Y-86295113D01*
X112970566Y-86198477D01*
X112912454Y-86111507D01*
X112838493Y-86037546D01*
X112751523Y-85979434D01*
X112654887Y-85939406D01*
X112552299Y-85919000D01*
X112447701Y-85919000D01*
X112345113Y-85939406D01*
X112248477Y-85979434D01*
X112161507Y-86037546D01*
X112087546Y-86111507D01*
X112029434Y-86198477D01*
X111989406Y-86295113D01*
X111969000Y-86397701D01*
X103356196Y-86397701D01*
X103384653Y-86329000D01*
X103402177Y-86240902D01*
X103402177Y-86151078D01*
X103384653Y-86062980D01*
X103350279Y-85979993D01*
X103300375Y-85905307D01*
X103236860Y-85841792D01*
X103162174Y-85791888D01*
X103079187Y-85757514D01*
X102991089Y-85739990D01*
X102901265Y-85739990D01*
X102813167Y-85757514D01*
X102730180Y-85791888D01*
X102655494Y-85841792D01*
X102591979Y-85905307D01*
X102542075Y-85979993D01*
X102507701Y-86062980D01*
X102490177Y-86151078D01*
X94274773Y-86151078D01*
X94276000Y-86144912D01*
X94276000Y-86055088D01*
X94258476Y-85966990D01*
X94224102Y-85884003D01*
X94174198Y-85809317D01*
X94110683Y-85745802D01*
X94035997Y-85695898D01*
X93953010Y-85661524D01*
X93864912Y-85644000D01*
X93775088Y-85644000D01*
X93686990Y-85661524D01*
X93604003Y-85695898D01*
X93529317Y-85745802D01*
X93465802Y-85809317D01*
X93415898Y-85884003D01*
X93381524Y-85966990D01*
X93364000Y-86055088D01*
X89739793Y-86055088D01*
X89754198Y-86040683D01*
X89804102Y-85965997D01*
X89838476Y-85883010D01*
X89856000Y-85794912D01*
X89856000Y-85705088D01*
X89838476Y-85616990D01*
X89804102Y-85534003D01*
X89754198Y-85459317D01*
X89724969Y-85430088D01*
X90254000Y-85430088D01*
X90254000Y-85519912D01*
X90271524Y-85608010D01*
X90305898Y-85690997D01*
X90355802Y-85765683D01*
X90419317Y-85829198D01*
X90494003Y-85879102D01*
X90576990Y-85913476D01*
X90665088Y-85931000D01*
X90754912Y-85931000D01*
X90843010Y-85913476D01*
X90925997Y-85879102D01*
X91000683Y-85829198D01*
X91064198Y-85765683D01*
X91114102Y-85690997D01*
X91148476Y-85608010D01*
X91166000Y-85519912D01*
X91166000Y-85430088D01*
X91148476Y-85341990D01*
X91114102Y-85259003D01*
X91064198Y-85184317D01*
X91000683Y-85120802D01*
X90925997Y-85070898D01*
X90843010Y-85036524D01*
X90754912Y-85019000D01*
X90665088Y-85019000D01*
X90576990Y-85036524D01*
X90494003Y-85070898D01*
X90419317Y-85120802D01*
X90355802Y-85184317D01*
X90305898Y-85259003D01*
X90271524Y-85341990D01*
X90254000Y-85430088D01*
X89724969Y-85430088D01*
X89690683Y-85395802D01*
X89615997Y-85345898D01*
X89533010Y-85311524D01*
X89444912Y-85294000D01*
X89355088Y-85294000D01*
X89266990Y-85311524D01*
X89184003Y-85345898D01*
X89109317Y-85395802D01*
X89045802Y-85459317D01*
X88995898Y-85534003D01*
X88961524Y-85616990D01*
X88944000Y-85705088D01*
X88944000Y-85794912D01*
X88961524Y-85883010D01*
X88995898Y-85965997D01*
X89045802Y-86040683D01*
X89109317Y-86104198D01*
X89165449Y-86141705D01*
X89159317Y-86145802D01*
X89095802Y-86209317D01*
X89045898Y-86284003D01*
X89011524Y-86366990D01*
X88994000Y-86455088D01*
X88994000Y-86544912D01*
X89011524Y-86633010D01*
X89045898Y-86715997D01*
X89095802Y-86790683D01*
X89121058Y-86815939D01*
X89088477Y-86829434D01*
X89001507Y-86887546D01*
X88927546Y-86961507D01*
X88869434Y-87048477D01*
X88829406Y-87145113D01*
X88809000Y-87247701D01*
X87156392Y-87247701D01*
X87180566Y-87211523D01*
X87220594Y-87114887D01*
X87241000Y-87012299D01*
X87241000Y-86907701D01*
X87220594Y-86805113D01*
X87180566Y-86708477D01*
X87122454Y-86621507D01*
X87048493Y-86547546D01*
X86961523Y-86489434D01*
X86864887Y-86449406D01*
X86762299Y-86429000D01*
X86657701Y-86429000D01*
X86555113Y-86449406D01*
X86458477Y-86489434D01*
X86371507Y-86547546D01*
X86297546Y-86621507D01*
X86239434Y-86708477D01*
X86221857Y-86750910D01*
X86198493Y-86727546D01*
X86111523Y-86669434D01*
X86014887Y-86629406D01*
X85912299Y-86609000D01*
X85807701Y-86609000D01*
X85705113Y-86629406D01*
X85608477Y-86669434D01*
X85521507Y-86727546D01*
X85447546Y-86801507D01*
X85421474Y-86840527D01*
X85378493Y-86797546D01*
X85322302Y-86760000D01*
X85378493Y-86722454D01*
X85452454Y-86648493D01*
X85510566Y-86561523D01*
X85550594Y-86464887D01*
X85571000Y-86362299D01*
X85571000Y-86257701D01*
X85550594Y-86155113D01*
X85510566Y-86058477D01*
X85452454Y-85971507D01*
X85378493Y-85897546D01*
X85322302Y-85860000D01*
X85378493Y-85822454D01*
X85452454Y-85748493D01*
X85510566Y-85661523D01*
X85550594Y-85564887D01*
X85571000Y-85462299D01*
X85571000Y-85357701D01*
X85550594Y-85255113D01*
X85510566Y-85158477D01*
X85452454Y-85071507D01*
X85378493Y-84997546D01*
X85322302Y-84960000D01*
X85378493Y-84922454D01*
X85452454Y-84848493D01*
X85510566Y-84761523D01*
X85550594Y-84664887D01*
X85571000Y-84562299D01*
X85571000Y-84480088D01*
X90254000Y-84480088D01*
X90254000Y-84569912D01*
X90271524Y-84658010D01*
X90305898Y-84740997D01*
X90355802Y-84815683D01*
X90419317Y-84879198D01*
X90494003Y-84929102D01*
X90576990Y-84963476D01*
X90665088Y-84981000D01*
X90754912Y-84981000D01*
X90843010Y-84963476D01*
X90925997Y-84929102D01*
X91000683Y-84879198D01*
X91064198Y-84815683D01*
X91114102Y-84740997D01*
X91144462Y-84667699D01*
X101699000Y-84667699D01*
X101699000Y-84772297D01*
X101719406Y-84874885D01*
X101759434Y-84971521D01*
X101817546Y-85058491D01*
X101891507Y-85132452D01*
X101978477Y-85190564D01*
X102075113Y-85230592D01*
X102177701Y-85250998D01*
X102282299Y-85250998D01*
X102384887Y-85230592D01*
X102481523Y-85190564D01*
X102568493Y-85132452D01*
X102642454Y-85058491D01*
X102700566Y-84971521D01*
X102731143Y-84897701D01*
X116469000Y-84897701D01*
X116469000Y-85002299D01*
X116489406Y-85104887D01*
X116529434Y-85201523D01*
X116587546Y-85288493D01*
X116661507Y-85362454D01*
X116748477Y-85420566D01*
X116845113Y-85460594D01*
X116947701Y-85481000D01*
X117052299Y-85481000D01*
X117154887Y-85460594D01*
X117251523Y-85420566D01*
X117338493Y-85362454D01*
X117412454Y-85288493D01*
X117466705Y-85207302D01*
X117487546Y-85238493D01*
X117561507Y-85312454D01*
X117648477Y-85370566D01*
X117745113Y-85410594D01*
X117847701Y-85431000D01*
X117952299Y-85431000D01*
X118054887Y-85410594D01*
X118151523Y-85370566D01*
X118238493Y-85312454D01*
X118249809Y-85301138D01*
X118335279Y-85358248D01*
X118431915Y-85398276D01*
X118534503Y-85418682D01*
X118639101Y-85418682D01*
X118741689Y-85398276D01*
X118838325Y-85358248D01*
X118925295Y-85300136D01*
X118999256Y-85226175D01*
X119057368Y-85139205D01*
X119064614Y-85121711D01*
X139769000Y-85121711D01*
X139769000Y-85226309D01*
X139789406Y-85328897D01*
X139829434Y-85425533D01*
X139887546Y-85512503D01*
X139961507Y-85586464D01*
X140048477Y-85644576D01*
X140145113Y-85684604D01*
X140247701Y-85705010D01*
X140352299Y-85705010D01*
X140454887Y-85684604D01*
X140551523Y-85644576D01*
X140638493Y-85586464D01*
X140712454Y-85512503D01*
X140770566Y-85425533D01*
X140810594Y-85328897D01*
X140831000Y-85226309D01*
X140831000Y-85121711D01*
X140810594Y-85019123D01*
X140770566Y-84922487D01*
X140712454Y-84835517D01*
X140638493Y-84761556D01*
X140551523Y-84703444D01*
X140454887Y-84663416D01*
X140352299Y-84643010D01*
X140247701Y-84643010D01*
X140145113Y-84663416D01*
X140048477Y-84703444D01*
X139961507Y-84761556D01*
X139887546Y-84835517D01*
X139829434Y-84922487D01*
X139789406Y-85019123D01*
X139769000Y-85121711D01*
X119064614Y-85121711D01*
X119097396Y-85042569D01*
X119117802Y-84939981D01*
X119117802Y-84835383D01*
X119097396Y-84732795D01*
X119057368Y-84636159D01*
X118999256Y-84549189D01*
X118925295Y-84475228D01*
X118838325Y-84417116D01*
X118741689Y-84377088D01*
X118639101Y-84356682D01*
X118534503Y-84356682D01*
X118431915Y-84377088D01*
X118335279Y-84417116D01*
X118248309Y-84475228D01*
X118236993Y-84486544D01*
X118151523Y-84429434D01*
X118054887Y-84389406D01*
X117952299Y-84369000D01*
X117847701Y-84369000D01*
X117745113Y-84389406D01*
X117648477Y-84429434D01*
X117561507Y-84487546D01*
X117487546Y-84561507D01*
X117433295Y-84642698D01*
X117412454Y-84611507D01*
X117338493Y-84537546D01*
X117251523Y-84479434D01*
X117154887Y-84439406D01*
X117052299Y-84419000D01*
X116947701Y-84419000D01*
X116845113Y-84439406D01*
X116748477Y-84479434D01*
X116661507Y-84537546D01*
X116587546Y-84611507D01*
X116529434Y-84698477D01*
X116489406Y-84795113D01*
X116469000Y-84897701D01*
X102731143Y-84897701D01*
X102740594Y-84874885D01*
X102761000Y-84772297D01*
X102761000Y-84667699D01*
X102740594Y-84565111D01*
X102700566Y-84468475D01*
X102642454Y-84381505D01*
X102568493Y-84307544D01*
X102481523Y-84249432D01*
X102384887Y-84209404D01*
X102282299Y-84188998D01*
X102177701Y-84188998D01*
X102075113Y-84209404D01*
X101978477Y-84249432D01*
X101891507Y-84307544D01*
X101817546Y-84381505D01*
X101759434Y-84468475D01*
X101719406Y-84565111D01*
X101699000Y-84667699D01*
X91144462Y-84667699D01*
X91148476Y-84658010D01*
X91166000Y-84569912D01*
X91166000Y-84480088D01*
X91148476Y-84391990D01*
X91114102Y-84309003D01*
X91064198Y-84234317D01*
X91000683Y-84170802D01*
X90925997Y-84120898D01*
X90843010Y-84086524D01*
X90754912Y-84069000D01*
X90665088Y-84069000D01*
X90576990Y-84086524D01*
X90494003Y-84120898D01*
X90419317Y-84170802D01*
X90355802Y-84234317D01*
X90305898Y-84309003D01*
X90271524Y-84391990D01*
X90254000Y-84480088D01*
X85571000Y-84480088D01*
X85571000Y-84457701D01*
X85550594Y-84355113D01*
X85510566Y-84258477D01*
X85452454Y-84171507D01*
X85378493Y-84097546D01*
X85322302Y-84060000D01*
X85378493Y-84022454D01*
X85452454Y-83948493D01*
X85481682Y-83904751D01*
X85497546Y-83928493D01*
X85571507Y-84002454D01*
X85658477Y-84060566D01*
X85755113Y-84100594D01*
X85857701Y-84121000D01*
X85962299Y-84121000D01*
X86064887Y-84100594D01*
X86161523Y-84060566D01*
X86184687Y-84045088D01*
X94834000Y-84045088D01*
X94834000Y-84134912D01*
X94851524Y-84223010D01*
X94885898Y-84305997D01*
X94935802Y-84380683D01*
X94999317Y-84444198D01*
X95074003Y-84494102D01*
X95156990Y-84528476D01*
X95245088Y-84546000D01*
X95334912Y-84546000D01*
X95423010Y-84528476D01*
X95505997Y-84494102D01*
X95580683Y-84444198D01*
X95644198Y-84380683D01*
X95694102Y-84305997D01*
X95728476Y-84223010D01*
X95746000Y-84134912D01*
X95746000Y-84045088D01*
X95728476Y-83956990D01*
X95709785Y-83911864D01*
X122783163Y-83911864D01*
X122783163Y-84016462D01*
X122803569Y-84119050D01*
X122843597Y-84215686D01*
X122901709Y-84302656D01*
X122975670Y-84376617D01*
X123062640Y-84434729D01*
X123159276Y-84474757D01*
X123261864Y-84495163D01*
X123366462Y-84495163D01*
X123469050Y-84474757D01*
X123565686Y-84434729D01*
X123652656Y-84376617D01*
X123726617Y-84302656D01*
X123784729Y-84215686D01*
X123824757Y-84119050D01*
X123845163Y-84016462D01*
X123845163Y-83911864D01*
X123824757Y-83809276D01*
X123784729Y-83712640D01*
X123726617Y-83625670D01*
X123652656Y-83551709D01*
X123565686Y-83493597D01*
X123469050Y-83453569D01*
X123366462Y-83433163D01*
X123261864Y-83433163D01*
X123159276Y-83453569D01*
X123062640Y-83493597D01*
X122975670Y-83551709D01*
X122901709Y-83625670D01*
X122843597Y-83712640D01*
X122803569Y-83809276D01*
X122783163Y-83911864D01*
X95709785Y-83911864D01*
X95694102Y-83874003D01*
X95644198Y-83799317D01*
X95580683Y-83735802D01*
X95505997Y-83685898D01*
X95423010Y-83651524D01*
X95334912Y-83634000D01*
X95245088Y-83634000D01*
X95156990Y-83651524D01*
X95074003Y-83685898D01*
X94999317Y-83735802D01*
X94935802Y-83799317D01*
X94885898Y-83874003D01*
X94851524Y-83956990D01*
X94834000Y-84045088D01*
X86184687Y-84045088D01*
X86248493Y-84002454D01*
X86322454Y-83928493D01*
X86380566Y-83841523D01*
X86420594Y-83744887D01*
X86441000Y-83642299D01*
X86441000Y-83538180D01*
X86495113Y-83560594D01*
X86597701Y-83581000D01*
X86702299Y-83581000D01*
X86804887Y-83560594D01*
X86901523Y-83520566D01*
X86988493Y-83462454D01*
X87062454Y-83388493D01*
X87120566Y-83301523D01*
X87160594Y-83204887D01*
X87181000Y-83102299D01*
X87181000Y-82997701D01*
X87160594Y-82895113D01*
X87120566Y-82798477D01*
X87062454Y-82711507D01*
X87031638Y-82680691D01*
X88819000Y-82680691D01*
X88819000Y-82785289D01*
X88839406Y-82887877D01*
X88879434Y-82984513D01*
X88937546Y-83071483D01*
X89011507Y-83145444D01*
X89098477Y-83203556D01*
X89195113Y-83243584D01*
X89297701Y-83263990D01*
X89402299Y-83263990D01*
X89504887Y-83243584D01*
X89601523Y-83203556D01*
X89688493Y-83145444D01*
X89762454Y-83071483D01*
X89775137Y-83052501D01*
X89787891Y-83071588D01*
X89861852Y-83145549D01*
X89948822Y-83203661D01*
X90045458Y-83243689D01*
X90148046Y-83264095D01*
X90252644Y-83264095D01*
X90355232Y-83243689D01*
X90451868Y-83203661D01*
X90509596Y-83165088D01*
X99984000Y-83165088D01*
X99984000Y-83254912D01*
X100001524Y-83343010D01*
X100035898Y-83425997D01*
X100085802Y-83500683D01*
X100149317Y-83564198D01*
X100224003Y-83614102D01*
X100306990Y-83648476D01*
X100395088Y-83666000D01*
X100484912Y-83666000D01*
X100573010Y-83648476D01*
X100655997Y-83614102D01*
X100730683Y-83564198D01*
X100794198Y-83500683D01*
X100844102Y-83425997D01*
X100878476Y-83343010D01*
X100896000Y-83254912D01*
X100896000Y-83165088D01*
X100878476Y-83076990D01*
X100844102Y-82994003D01*
X100794198Y-82919317D01*
X100730683Y-82855802D01*
X100655997Y-82805898D01*
X100573010Y-82771524D01*
X100484912Y-82754000D01*
X100395088Y-82754000D01*
X100306990Y-82771524D01*
X100224003Y-82805898D01*
X100149317Y-82855802D01*
X100085802Y-82919317D01*
X100035898Y-82994003D01*
X100001524Y-83076990D01*
X99984000Y-83165088D01*
X90509596Y-83165088D01*
X90538838Y-83145549D01*
X90612799Y-83071588D01*
X90670911Y-82984618D01*
X90710939Y-82887982D01*
X90731345Y-82785394D01*
X90731345Y-82680796D01*
X90710939Y-82578208D01*
X90670911Y-82481572D01*
X90661643Y-82467701D01*
X93539000Y-82467701D01*
X93539000Y-82572299D01*
X93559406Y-82674887D01*
X93599434Y-82771523D01*
X93657546Y-82858493D01*
X93731507Y-82932454D01*
X93818477Y-82990566D01*
X93915113Y-83030594D01*
X94017701Y-83051000D01*
X94122299Y-83051000D01*
X94224887Y-83030594D01*
X94321523Y-82990566D01*
X94408493Y-82932454D01*
X94482454Y-82858493D01*
X94540566Y-82771523D01*
X94580594Y-82674887D01*
X94601000Y-82572299D01*
X94601000Y-82467701D01*
X94580594Y-82365113D01*
X94540566Y-82268477D01*
X94482454Y-82181507D01*
X94408493Y-82107546D01*
X94321523Y-82049434D01*
X94224887Y-82009406D01*
X94122299Y-81989000D01*
X94017701Y-81989000D01*
X93915113Y-82009406D01*
X93818477Y-82049434D01*
X93731507Y-82107546D01*
X93657546Y-82181507D01*
X93599434Y-82268477D01*
X93559406Y-82365113D01*
X93539000Y-82467701D01*
X90661643Y-82467701D01*
X90612799Y-82394602D01*
X90538838Y-82320641D01*
X90451868Y-82262529D01*
X90355232Y-82222501D01*
X90252644Y-82202095D01*
X90148046Y-82202095D01*
X90045458Y-82222501D01*
X89948822Y-82262529D01*
X89861852Y-82320641D01*
X89787891Y-82394602D01*
X89775208Y-82413584D01*
X89762454Y-82394497D01*
X89688493Y-82320536D01*
X89601523Y-82262424D01*
X89504887Y-82222396D01*
X89402299Y-82201990D01*
X89297701Y-82201990D01*
X89195113Y-82222396D01*
X89098477Y-82262424D01*
X89011507Y-82320536D01*
X88937546Y-82394497D01*
X88879434Y-82481467D01*
X88839406Y-82578103D01*
X88819000Y-82680691D01*
X87031638Y-82680691D01*
X86988493Y-82637546D01*
X86901523Y-82579434D01*
X86862463Y-82563255D01*
X86909429Y-82531873D01*
X86986873Y-82454429D01*
X87047721Y-82363365D01*
X87089633Y-82262179D01*
X87111000Y-82154761D01*
X87111000Y-82045239D01*
X87089633Y-81937821D01*
X87047721Y-81836635D01*
X86986873Y-81745571D01*
X86909429Y-81668127D01*
X86818365Y-81607279D01*
X86717179Y-81565367D01*
X86609761Y-81544000D01*
X86500239Y-81544000D01*
X86392821Y-81565367D01*
X86291635Y-81607279D01*
X86200571Y-81668127D01*
X86123127Y-81745571D01*
X86062279Y-81836635D01*
X86020367Y-81937821D01*
X85999000Y-82045239D01*
X85999000Y-82154761D01*
X86009674Y-82208424D01*
X85962299Y-82199000D01*
X85857701Y-82199000D01*
X85755113Y-82219406D01*
X85658477Y-82259434D01*
X85571507Y-82317546D01*
X85497546Y-82391507D01*
X85481682Y-82415249D01*
X85452454Y-82371507D01*
X85378493Y-82297546D01*
X85291523Y-82239434D01*
X85194887Y-82199406D01*
X85092299Y-82179000D01*
X84987701Y-82179000D01*
X84885113Y-82199406D01*
X84788477Y-82239434D01*
X84701507Y-82297546D01*
X84627546Y-82371507D01*
X84590000Y-82427698D01*
X84552454Y-82371507D01*
X84478493Y-82297546D01*
X84391523Y-82239434D01*
X84294887Y-82199406D01*
X84192299Y-82179000D01*
X84087701Y-82179000D01*
X83985113Y-82199406D01*
X83888477Y-82239434D01*
X83801507Y-82297546D01*
X83727546Y-82371507D01*
X83669434Y-82458477D01*
X83629406Y-82555113D01*
X83609000Y-82657701D01*
X80306000Y-82657701D01*
X80306000Y-81277701D01*
X98539000Y-81277701D01*
X98539000Y-81382299D01*
X98559406Y-81484887D01*
X98599434Y-81581523D01*
X98657546Y-81668493D01*
X98731507Y-81742454D01*
X98818477Y-81800566D01*
X98915113Y-81840594D01*
X99017701Y-81861000D01*
X99122299Y-81861000D01*
X99224887Y-81840594D01*
X99321523Y-81800566D01*
X99408493Y-81742454D01*
X99482454Y-81668493D01*
X99540566Y-81581523D01*
X99580594Y-81484887D01*
X99601000Y-81382299D01*
X99601000Y-81277701D01*
X99580594Y-81175113D01*
X99540566Y-81078477D01*
X99482454Y-80991507D01*
X99408493Y-80917546D01*
X99321523Y-80859434D01*
X99224887Y-80819406D01*
X99122299Y-80799000D01*
X99017701Y-80799000D01*
X98915113Y-80819406D01*
X98818477Y-80859434D01*
X98731507Y-80917546D01*
X98657546Y-80991507D01*
X98599434Y-81078477D01*
X98559406Y-81175113D01*
X98539000Y-81277701D01*
X80306000Y-81277701D01*
X80306000Y-81199687D01*
X81964693Y-81199687D01*
X82090171Y-81216497D01*
X82182000Y-81207556D01*
X82182000Y-81093000D01*
X83628000Y-81093000D01*
X83628000Y-81207556D01*
X83719829Y-81216497D01*
X83845307Y-81199687D01*
X85894693Y-81199687D01*
X86162000Y-81175743D01*
X86162000Y-81093000D01*
X88008000Y-81093000D01*
X88008000Y-81175743D01*
X88275307Y-81199687D01*
X88252211Y-81093000D01*
X88008000Y-81093000D01*
X86162000Y-81093000D01*
X85917789Y-81093000D01*
X85894693Y-81199687D01*
X83845307Y-81199687D01*
X83822211Y-81093000D01*
X83628000Y-81093000D01*
X82182000Y-81093000D01*
X81987789Y-81093000D01*
X81964693Y-81199687D01*
X80306000Y-81199687D01*
X80306000Y-80306000D01*
X103862364Y-80306000D01*
X103412796Y-80755568D01*
M02*
