G04 #@! TF.GenerationSoftware,KiCad,Pcbnew,5.1.2*
G04 #@! TF.CreationDate,2019-07-25T15:36:57+02:00*
G04 #@! TF.ProjectId,TS100C,54533130-3043-42e6-9b69-6361645f7063,rev?*
G04 #@! TF.SameCoordinates,Original*
G04 #@! TF.FileFunction,Soldermask,Top*
G04 #@! TF.FilePolarity,Negative*
%FSLAX46Y46*%
G04 Gerber Fmt 4.6, Leading zero omitted, Abs format (unit mm)*
G04 Created by KiCad (PCBNEW 5.1.2) date 2019-07-25 15:36:57*
%MOMM*%
%LPD*%
G04 APERTURE LIST*
%ADD10C,0.100000*%
%ADD11C,0.150000*%
G04 APERTURE END LIST*
D10*
G36*
X154500000Y-87500000D02*
G01*
X149500000Y-87500000D01*
X149500000Y-82500000D01*
X154500000Y-82500000D01*
X154500000Y-87500000D01*
G37*
X154500000Y-87500000D02*
X149500000Y-87500000D01*
X149500000Y-82500000D01*
X154500000Y-82500000D01*
X154500000Y-87500000D01*
D11*
X131000000Y-80500000D02*
X164000000Y-80500000D01*
X130000000Y-80000000D02*
X131000000Y-80500000D01*
X130000000Y-90000000D02*
X131000000Y-89500000D01*
X131000000Y-89500000D02*
X164000000Y-89500000D01*
X80000000Y-80000000D02*
X80000000Y-90000000D01*
X130000000Y-90000000D02*
X80000000Y-90000000D01*
X164000000Y-80500000D02*
X164000000Y-89500000D01*
X80000000Y-80000000D02*
X130000000Y-80000000D01*
D10*
G36*
X87752621Y-88718682D02*
G01*
X87865721Y-88752990D01*
X87969955Y-88808704D01*
X88061317Y-88883683D01*
X88136296Y-88975045D01*
X88192010Y-89079279D01*
X88226318Y-89192379D01*
X88237903Y-89310000D01*
X88226318Y-89427621D01*
X88192010Y-89540721D01*
X88136296Y-89644955D01*
X88061317Y-89736317D01*
X87969955Y-89811296D01*
X87865721Y-89867010D01*
X87752621Y-89901318D01*
X87664474Y-89910000D01*
X86505526Y-89910000D01*
X86417379Y-89901318D01*
X86304279Y-89867010D01*
X86200045Y-89811296D01*
X86108683Y-89736317D01*
X86033704Y-89644955D01*
X85977990Y-89540721D01*
X85943682Y-89427621D01*
X85932097Y-89310000D01*
X85943682Y-89192379D01*
X85977990Y-89079279D01*
X86033704Y-88975045D01*
X86108683Y-88883683D01*
X86200045Y-88808704D01*
X86304279Y-88752990D01*
X86417379Y-88718682D01*
X86505526Y-88710000D01*
X87664474Y-88710000D01*
X87752621Y-88718682D01*
X87752621Y-88718682D01*
G37*
G36*
X83322621Y-88718682D02*
G01*
X83435721Y-88752990D01*
X83539955Y-88808704D01*
X83631317Y-88883683D01*
X83706296Y-88975045D01*
X83762010Y-89079279D01*
X83796318Y-89192379D01*
X83807903Y-89310000D01*
X83796318Y-89427621D01*
X83762010Y-89540721D01*
X83706296Y-89644955D01*
X83631317Y-89736317D01*
X83539955Y-89811296D01*
X83435721Y-89867010D01*
X83322621Y-89901318D01*
X83234474Y-89910000D01*
X82575526Y-89910000D01*
X82487379Y-89901318D01*
X82374279Y-89867010D01*
X82270045Y-89811296D01*
X82178683Y-89736317D01*
X82103704Y-89644955D01*
X82047990Y-89540721D01*
X82013682Y-89427621D01*
X82002097Y-89310000D01*
X82013682Y-89192379D01*
X82047990Y-89079279D01*
X82103704Y-88975045D01*
X82178683Y-88883683D01*
X82270045Y-88808704D01*
X82374279Y-88752990D01*
X82487379Y-88718682D01*
X82575526Y-88710000D01*
X83234474Y-88710000D01*
X83322621Y-88718682D01*
X83322621Y-88718682D01*
G37*
G36*
X113191946Y-88843421D02*
G01*
X113221703Y-88852447D01*
X113249129Y-88867107D01*
X113273166Y-88886834D01*
X113292893Y-88910871D01*
X113307553Y-88938297D01*
X113316579Y-88968054D01*
X113320000Y-89002781D01*
X113320000Y-89467219D01*
X113316579Y-89501946D01*
X113307553Y-89531703D01*
X113292893Y-89559129D01*
X113273166Y-89583166D01*
X113249129Y-89602893D01*
X113221703Y-89617553D01*
X113191946Y-89626579D01*
X113157219Y-89630000D01*
X112642781Y-89630000D01*
X112608054Y-89626579D01*
X112578297Y-89617553D01*
X112550871Y-89602893D01*
X112526834Y-89583166D01*
X112507107Y-89559129D01*
X112492447Y-89531703D01*
X112483421Y-89501946D01*
X112480000Y-89467219D01*
X112480000Y-89002781D01*
X112483421Y-88968054D01*
X112492447Y-88938297D01*
X112507107Y-88910871D01*
X112526834Y-88886834D01*
X112550871Y-88867107D01*
X112578297Y-88852447D01*
X112608054Y-88843421D01*
X112642781Y-88840000D01*
X113157219Y-88840000D01*
X113191946Y-88843421D01*
X113191946Y-88843421D01*
G37*
G36*
X121663650Y-88406250D02*
G01*
X121737903Y-88421020D01*
X121845780Y-88465704D01*
X121942858Y-88530569D01*
X122025431Y-88613142D01*
X122090296Y-88710220D01*
X122134755Y-88817553D01*
X122134980Y-88818098D01*
X122156797Y-88927775D01*
X122157760Y-88932619D01*
X122157760Y-89049381D01*
X122134980Y-89163903D01*
X122090296Y-89271780D01*
X122025431Y-89368858D01*
X121942858Y-89451431D01*
X121845780Y-89516296D01*
X121737903Y-89560980D01*
X121681728Y-89572154D01*
X121623382Y-89583760D01*
X121506618Y-89583760D01*
X121448272Y-89572154D01*
X121392097Y-89560980D01*
X121284220Y-89516296D01*
X121187142Y-89451431D01*
X121104569Y-89368858D01*
X121039704Y-89271780D01*
X120995020Y-89163903D01*
X120972240Y-89049381D01*
X120972240Y-88932619D01*
X120973204Y-88927775D01*
X120995020Y-88818098D01*
X120995246Y-88817553D01*
X121039704Y-88710220D01*
X121104569Y-88613142D01*
X121187142Y-88530569D01*
X121284220Y-88465704D01*
X121392097Y-88421020D01*
X121466350Y-88406250D01*
X121506618Y-88398240D01*
X121623382Y-88398240D01*
X121663650Y-88406250D01*
X121663650Y-88406250D01*
G37*
G36*
X114739594Y-88454789D02*
G01*
X114782722Y-88467872D01*
X114822461Y-88489113D01*
X114857298Y-88517702D01*
X114885887Y-88552539D01*
X114907128Y-88592278D01*
X114920211Y-88635406D01*
X114925000Y-88684031D01*
X114925000Y-89290969D01*
X114920211Y-89339594D01*
X114907128Y-89382722D01*
X114885887Y-89422461D01*
X114857298Y-89457298D01*
X114822461Y-89485887D01*
X114782722Y-89507128D01*
X114739594Y-89520211D01*
X114690969Y-89525000D01*
X114009031Y-89525000D01*
X113960406Y-89520211D01*
X113917278Y-89507128D01*
X113877539Y-89485887D01*
X113842702Y-89457298D01*
X113814113Y-89422461D01*
X113792872Y-89382722D01*
X113779789Y-89339594D01*
X113775000Y-89290969D01*
X113775000Y-88684031D01*
X113779789Y-88635406D01*
X113792872Y-88592278D01*
X113814113Y-88552539D01*
X113842702Y-88517702D01*
X113877539Y-88489113D01*
X113917278Y-88467872D01*
X113960406Y-88454789D01*
X114009031Y-88450000D01*
X114690969Y-88450000D01*
X114739594Y-88454789D01*
X114739594Y-88454789D01*
G37*
G36*
X120381555Y-88125139D02*
G01*
X120438637Y-88136493D01*
X120528253Y-88173614D01*
X120608906Y-88227504D01*
X120677496Y-88296094D01*
X120731386Y-88376747D01*
X120768507Y-88466363D01*
X120774261Y-88495293D01*
X120787430Y-88561498D01*
X120787430Y-88658502D01*
X120784148Y-88675000D01*
X120768507Y-88753637D01*
X120731386Y-88843253D01*
X120677496Y-88923906D01*
X120608906Y-88992496D01*
X120528253Y-89046386D01*
X120438637Y-89083507D01*
X120381555Y-89094861D01*
X120343502Y-89102430D01*
X120246498Y-89102430D01*
X120208445Y-89094861D01*
X120151363Y-89083507D01*
X120061747Y-89046386D01*
X119981094Y-88992496D01*
X119912504Y-88923906D01*
X119858614Y-88843253D01*
X119821493Y-88753637D01*
X119805852Y-88675000D01*
X119802570Y-88658502D01*
X119802570Y-88561498D01*
X119815739Y-88495293D01*
X119821493Y-88466363D01*
X119858614Y-88376747D01*
X119912504Y-88296094D01*
X119981094Y-88227504D01*
X120061747Y-88173614D01*
X120151363Y-88136493D01*
X120208445Y-88125139D01*
X120246498Y-88117570D01*
X120343502Y-88117570D01*
X120381555Y-88125139D01*
X120381555Y-88125139D01*
G37*
G36*
X117841555Y-88125139D02*
G01*
X117898637Y-88136493D01*
X117988253Y-88173614D01*
X118068906Y-88227504D01*
X118137496Y-88296094D01*
X118191386Y-88376747D01*
X118228507Y-88466363D01*
X118234261Y-88495293D01*
X118247430Y-88561498D01*
X118247430Y-88658502D01*
X118244148Y-88675000D01*
X118228507Y-88753637D01*
X118191386Y-88843253D01*
X118137496Y-88923906D01*
X118068906Y-88992496D01*
X117988253Y-89046386D01*
X117898637Y-89083507D01*
X117841555Y-89094861D01*
X117803502Y-89102430D01*
X117706498Y-89102430D01*
X117668445Y-89094861D01*
X117611363Y-89083507D01*
X117521747Y-89046386D01*
X117441094Y-88992496D01*
X117372504Y-88923906D01*
X117318614Y-88843253D01*
X117281493Y-88753637D01*
X117265852Y-88675000D01*
X117262570Y-88658502D01*
X117262570Y-88561498D01*
X117275739Y-88495293D01*
X117281493Y-88466363D01*
X117318614Y-88376747D01*
X117372504Y-88296094D01*
X117441094Y-88227504D01*
X117521747Y-88173614D01*
X117611363Y-88136493D01*
X117668445Y-88125139D01*
X117706498Y-88117570D01*
X117803502Y-88117570D01*
X117841555Y-88125139D01*
X117841555Y-88125139D01*
G37*
G36*
X119111555Y-88125139D02*
G01*
X119168637Y-88136493D01*
X119258253Y-88173614D01*
X119338906Y-88227504D01*
X119407496Y-88296094D01*
X119461386Y-88376747D01*
X119498507Y-88466363D01*
X119504261Y-88495293D01*
X119517430Y-88561498D01*
X119517430Y-88658502D01*
X119514148Y-88675000D01*
X119498507Y-88753637D01*
X119461386Y-88843253D01*
X119407496Y-88923906D01*
X119338906Y-88992496D01*
X119258253Y-89046386D01*
X119168637Y-89083507D01*
X119111555Y-89094861D01*
X119073502Y-89102430D01*
X118976498Y-89102430D01*
X118938445Y-89094861D01*
X118881363Y-89083507D01*
X118791747Y-89046386D01*
X118711094Y-88992496D01*
X118642504Y-88923906D01*
X118588614Y-88843253D01*
X118551493Y-88753637D01*
X118535852Y-88675000D01*
X118532570Y-88658502D01*
X118532570Y-88561498D01*
X118545739Y-88495293D01*
X118551493Y-88466363D01*
X118588614Y-88376747D01*
X118642504Y-88296094D01*
X118711094Y-88227504D01*
X118791747Y-88173614D01*
X118881363Y-88136493D01*
X118938445Y-88125139D01*
X118976498Y-88117570D01*
X119073502Y-88117570D01*
X119111555Y-88125139D01*
X119111555Y-88125139D01*
G37*
G36*
X136851946Y-88183421D02*
G01*
X136881703Y-88192447D01*
X136909129Y-88207107D01*
X136933166Y-88226834D01*
X136952893Y-88250871D01*
X136967553Y-88278297D01*
X136976579Y-88308054D01*
X136980000Y-88342781D01*
X136980000Y-88857219D01*
X136976579Y-88891946D01*
X136967553Y-88921703D01*
X136952893Y-88949129D01*
X136933166Y-88973166D01*
X136909129Y-88992893D01*
X136881703Y-89007553D01*
X136851946Y-89016579D01*
X136817219Y-89020000D01*
X136352781Y-89020000D01*
X136318054Y-89016579D01*
X136288297Y-89007553D01*
X136260871Y-88992893D01*
X136236834Y-88973166D01*
X136217107Y-88949129D01*
X136202447Y-88921703D01*
X136193421Y-88891946D01*
X136190000Y-88857219D01*
X136190000Y-88342781D01*
X136193421Y-88308054D01*
X136202447Y-88278297D01*
X136217107Y-88250871D01*
X136236834Y-88226834D01*
X136260871Y-88207107D01*
X136288297Y-88192447D01*
X136318054Y-88183421D01*
X136352781Y-88180000D01*
X136817219Y-88180000D01*
X136851946Y-88183421D01*
X136851946Y-88183421D01*
G37*
G36*
X135881946Y-88183421D02*
G01*
X135911703Y-88192447D01*
X135939129Y-88207107D01*
X135963166Y-88226834D01*
X135982893Y-88250871D01*
X135997553Y-88278297D01*
X136006579Y-88308054D01*
X136010000Y-88342781D01*
X136010000Y-88857219D01*
X136006579Y-88891946D01*
X135997553Y-88921703D01*
X135982893Y-88949129D01*
X135963166Y-88973166D01*
X135939129Y-88992893D01*
X135911703Y-89007553D01*
X135881946Y-89016579D01*
X135847219Y-89020000D01*
X135382781Y-89020000D01*
X135348054Y-89016579D01*
X135318297Y-89007553D01*
X135290871Y-88992893D01*
X135266834Y-88973166D01*
X135247107Y-88949129D01*
X135232447Y-88921703D01*
X135223421Y-88891946D01*
X135220000Y-88857219D01*
X135220000Y-88342781D01*
X135223421Y-88308054D01*
X135232447Y-88278297D01*
X135247107Y-88250871D01*
X135266834Y-88226834D01*
X135290871Y-88207107D01*
X135318297Y-88192447D01*
X135348054Y-88183421D01*
X135382781Y-88180000D01*
X135847219Y-88180000D01*
X135881946Y-88183421D01*
X135881946Y-88183421D01*
G37*
G36*
X105465364Y-81026787D02*
G01*
X105479175Y-81030976D01*
X105491905Y-81037780D01*
X105501151Y-81045369D01*
X105513702Y-81053756D01*
X105527647Y-81059532D01*
X105542452Y-81062477D01*
X105557546Y-81062477D01*
X105572351Y-81059533D01*
X105586296Y-81053757D01*
X105598849Y-81045369D01*
X105608095Y-81037780D01*
X105620825Y-81030976D01*
X105634636Y-81026787D01*
X105652779Y-81025000D01*
X105947221Y-81025000D01*
X105965364Y-81026787D01*
X105979175Y-81030976D01*
X105991905Y-81037780D01*
X106001151Y-81045369D01*
X106013702Y-81053756D01*
X106027647Y-81059532D01*
X106042452Y-81062477D01*
X106057546Y-81062477D01*
X106072351Y-81059533D01*
X106086296Y-81053757D01*
X106098849Y-81045369D01*
X106108095Y-81037780D01*
X106120825Y-81030976D01*
X106134636Y-81026787D01*
X106152779Y-81025000D01*
X106447221Y-81025000D01*
X106465364Y-81026787D01*
X106479175Y-81030976D01*
X106491905Y-81037780D01*
X106501151Y-81045369D01*
X106513702Y-81053756D01*
X106527647Y-81059532D01*
X106542452Y-81062477D01*
X106557546Y-81062477D01*
X106572351Y-81059533D01*
X106586296Y-81053757D01*
X106598849Y-81045369D01*
X106608095Y-81037780D01*
X106620825Y-81030976D01*
X106634636Y-81026787D01*
X106652779Y-81025000D01*
X106947221Y-81025000D01*
X106965364Y-81026787D01*
X106979175Y-81030976D01*
X106991905Y-81037780D01*
X107001151Y-81045369D01*
X107013702Y-81053756D01*
X107027647Y-81059532D01*
X107042452Y-81062477D01*
X107057546Y-81062477D01*
X107072351Y-81059533D01*
X107086296Y-81053757D01*
X107098849Y-81045369D01*
X107108095Y-81037780D01*
X107120825Y-81030976D01*
X107134636Y-81026787D01*
X107152779Y-81025000D01*
X107447221Y-81025000D01*
X107465364Y-81026787D01*
X107479175Y-81030976D01*
X107491905Y-81037780D01*
X107501151Y-81045369D01*
X107513702Y-81053756D01*
X107527647Y-81059532D01*
X107542452Y-81062477D01*
X107557546Y-81062477D01*
X107572351Y-81059533D01*
X107586296Y-81053757D01*
X107598849Y-81045369D01*
X107608095Y-81037780D01*
X107620825Y-81030976D01*
X107634636Y-81026787D01*
X107652779Y-81025000D01*
X107947221Y-81025000D01*
X107965364Y-81026787D01*
X107979175Y-81030976D01*
X107991905Y-81037780D01*
X108001151Y-81045369D01*
X108013702Y-81053756D01*
X108027647Y-81059532D01*
X108042452Y-81062477D01*
X108057546Y-81062477D01*
X108072351Y-81059533D01*
X108086296Y-81053757D01*
X108098849Y-81045369D01*
X108108095Y-81037780D01*
X108120825Y-81030976D01*
X108134636Y-81026787D01*
X108152779Y-81025000D01*
X108447221Y-81025000D01*
X108465364Y-81026787D01*
X108479175Y-81030976D01*
X108491905Y-81037780D01*
X108501151Y-81045369D01*
X108513702Y-81053756D01*
X108527647Y-81059532D01*
X108542452Y-81062477D01*
X108557546Y-81062477D01*
X108572351Y-81059533D01*
X108586296Y-81053757D01*
X108598849Y-81045369D01*
X108608095Y-81037780D01*
X108620825Y-81030976D01*
X108634636Y-81026787D01*
X108652779Y-81025000D01*
X108947221Y-81025000D01*
X108965364Y-81026787D01*
X108979175Y-81030976D01*
X108991905Y-81037780D01*
X109001151Y-81045369D01*
X109013702Y-81053756D01*
X109027647Y-81059532D01*
X109042452Y-81062477D01*
X109057546Y-81062477D01*
X109072351Y-81059533D01*
X109086296Y-81053757D01*
X109098849Y-81045369D01*
X109108095Y-81037780D01*
X109120825Y-81030976D01*
X109134636Y-81026787D01*
X109152779Y-81025000D01*
X109447221Y-81025000D01*
X109465364Y-81026787D01*
X109479175Y-81030976D01*
X109491905Y-81037780D01*
X109501151Y-81045369D01*
X109513702Y-81053756D01*
X109527647Y-81059532D01*
X109542452Y-81062477D01*
X109557546Y-81062477D01*
X109572351Y-81059533D01*
X109586296Y-81053757D01*
X109598849Y-81045369D01*
X109608095Y-81037780D01*
X109620825Y-81030976D01*
X109634636Y-81026787D01*
X109652779Y-81025000D01*
X109947221Y-81025000D01*
X109965364Y-81026787D01*
X109979175Y-81030976D01*
X109991905Y-81037780D01*
X110001151Y-81045369D01*
X110013702Y-81053756D01*
X110027647Y-81059532D01*
X110042452Y-81062477D01*
X110057546Y-81062477D01*
X110072351Y-81059533D01*
X110086296Y-81053757D01*
X110098849Y-81045369D01*
X110108095Y-81037780D01*
X110120825Y-81030976D01*
X110134636Y-81026787D01*
X110152779Y-81025000D01*
X110447221Y-81025000D01*
X110465364Y-81026787D01*
X110479175Y-81030976D01*
X110491905Y-81037780D01*
X110501151Y-81045369D01*
X110513702Y-81053756D01*
X110527647Y-81059532D01*
X110542452Y-81062477D01*
X110557546Y-81062477D01*
X110572351Y-81059533D01*
X110586296Y-81053757D01*
X110598849Y-81045369D01*
X110608095Y-81037780D01*
X110620825Y-81030976D01*
X110634636Y-81026787D01*
X110652779Y-81025000D01*
X110947221Y-81025000D01*
X110965364Y-81026787D01*
X110979175Y-81030976D01*
X110991904Y-81037780D01*
X111003062Y-81046938D01*
X111012220Y-81058096D01*
X111019024Y-81070825D01*
X111023213Y-81084636D01*
X111025000Y-81102779D01*
X111025000Y-81948001D01*
X111026480Y-81963023D01*
X111030861Y-81977467D01*
X111037977Y-81990779D01*
X111047552Y-82002448D01*
X111059221Y-82012023D01*
X111072533Y-82019139D01*
X111086977Y-82023520D01*
X111101999Y-82025000D01*
X111947221Y-82025000D01*
X111965364Y-82026787D01*
X111979175Y-82030976D01*
X111991904Y-82037780D01*
X112003062Y-82046938D01*
X112012220Y-82058096D01*
X112019024Y-82070825D01*
X112023213Y-82084636D01*
X112025000Y-82102779D01*
X112025000Y-82397221D01*
X112023213Y-82415364D01*
X112019024Y-82429175D01*
X112012220Y-82441905D01*
X112004631Y-82451151D01*
X111996244Y-82463702D01*
X111990468Y-82477647D01*
X111987523Y-82492452D01*
X111987523Y-82507546D01*
X111990467Y-82522351D01*
X111996243Y-82536296D01*
X112004631Y-82548849D01*
X112012220Y-82558095D01*
X112019024Y-82570825D01*
X112023213Y-82584636D01*
X112025000Y-82602774D01*
X112025000Y-82897221D01*
X112023213Y-82915364D01*
X112019024Y-82929175D01*
X112012220Y-82941905D01*
X112004631Y-82951151D01*
X111996244Y-82963702D01*
X111990468Y-82977647D01*
X111987523Y-82992452D01*
X111987523Y-83007546D01*
X111990467Y-83022351D01*
X111996243Y-83036296D01*
X112004631Y-83048849D01*
X112012220Y-83058095D01*
X112019024Y-83070825D01*
X112023213Y-83084636D01*
X112025000Y-83102779D01*
X112025000Y-83397221D01*
X112023213Y-83415364D01*
X112019024Y-83429175D01*
X112012220Y-83441905D01*
X112004631Y-83451151D01*
X111996244Y-83463702D01*
X111990468Y-83477647D01*
X111987523Y-83492452D01*
X111987523Y-83507546D01*
X111990467Y-83522351D01*
X111996243Y-83536296D01*
X112004631Y-83548849D01*
X112012220Y-83558095D01*
X112019024Y-83570825D01*
X112023213Y-83584636D01*
X112025000Y-83602779D01*
X112025000Y-83897221D01*
X112023213Y-83915364D01*
X112019024Y-83929175D01*
X112012220Y-83941905D01*
X112004631Y-83951151D01*
X111996244Y-83963702D01*
X111990468Y-83977647D01*
X111987523Y-83992452D01*
X111987523Y-84007546D01*
X111990467Y-84022351D01*
X111996243Y-84036296D01*
X112004631Y-84048849D01*
X112012220Y-84058095D01*
X112019024Y-84070825D01*
X112023213Y-84084636D01*
X112025000Y-84102779D01*
X112025000Y-84397221D01*
X112023213Y-84415364D01*
X112019024Y-84429175D01*
X112012220Y-84441905D01*
X112004631Y-84451151D01*
X111996244Y-84463702D01*
X111990468Y-84477647D01*
X111987523Y-84492452D01*
X111987523Y-84507546D01*
X111990467Y-84522351D01*
X111996243Y-84536296D01*
X112004631Y-84548849D01*
X112012220Y-84558095D01*
X112019024Y-84570825D01*
X112023213Y-84584636D01*
X112025000Y-84602779D01*
X112025000Y-84897221D01*
X112023213Y-84915364D01*
X112019024Y-84929175D01*
X112012220Y-84941905D01*
X112004631Y-84951151D01*
X111996244Y-84963702D01*
X111990468Y-84977647D01*
X111987523Y-84992452D01*
X111987523Y-85007546D01*
X111990467Y-85022351D01*
X111996243Y-85036296D01*
X112004631Y-85048849D01*
X112012220Y-85058095D01*
X112019024Y-85070825D01*
X112023213Y-85084636D01*
X112025000Y-85102779D01*
X112025000Y-85397221D01*
X112023213Y-85415364D01*
X112019024Y-85429175D01*
X112012220Y-85441905D01*
X112004631Y-85451151D01*
X111996244Y-85463702D01*
X111990468Y-85477647D01*
X111987523Y-85492452D01*
X111987523Y-85507546D01*
X111990467Y-85522351D01*
X111996243Y-85536296D01*
X112004631Y-85548849D01*
X112012220Y-85558095D01*
X112019024Y-85570825D01*
X112023213Y-85584636D01*
X112025000Y-85602779D01*
X112025000Y-85897221D01*
X112023213Y-85915364D01*
X112019024Y-85929175D01*
X112012220Y-85941905D01*
X112004631Y-85951151D01*
X111996244Y-85963702D01*
X111990468Y-85977647D01*
X111987523Y-85992452D01*
X111987523Y-86007546D01*
X111990467Y-86022351D01*
X111996243Y-86036296D01*
X112004631Y-86048849D01*
X112012220Y-86058095D01*
X112019024Y-86070825D01*
X112023213Y-86084636D01*
X112025000Y-86102779D01*
X112025000Y-86397221D01*
X112023213Y-86415364D01*
X112019024Y-86429175D01*
X112012220Y-86441905D01*
X112004631Y-86451151D01*
X111996244Y-86463702D01*
X111990468Y-86477647D01*
X111987523Y-86492452D01*
X111987523Y-86507546D01*
X111990467Y-86522351D01*
X111996243Y-86536296D01*
X112004631Y-86548849D01*
X112012220Y-86558095D01*
X112019024Y-86570825D01*
X112023213Y-86584636D01*
X112025000Y-86602779D01*
X112025000Y-86897221D01*
X112023213Y-86915364D01*
X112019024Y-86929175D01*
X112012220Y-86941905D01*
X112004631Y-86951151D01*
X111996244Y-86963702D01*
X111990468Y-86977647D01*
X111987523Y-86992452D01*
X111987523Y-87007546D01*
X111990467Y-87022351D01*
X111996243Y-87036296D01*
X112004631Y-87048849D01*
X112012220Y-87058095D01*
X112019024Y-87070825D01*
X112023213Y-87084636D01*
X112025000Y-87102779D01*
X112025000Y-87397221D01*
X112023213Y-87415364D01*
X112019024Y-87429175D01*
X112012220Y-87441905D01*
X112004631Y-87451151D01*
X111996244Y-87463702D01*
X111990468Y-87477647D01*
X111987523Y-87492452D01*
X111987523Y-87507546D01*
X111990467Y-87522351D01*
X111996243Y-87536296D01*
X112004631Y-87548849D01*
X112012220Y-87558095D01*
X112019024Y-87570825D01*
X112023213Y-87584636D01*
X112025000Y-87602779D01*
X112025000Y-87897221D01*
X112023213Y-87915364D01*
X112019024Y-87929175D01*
X112012220Y-87941904D01*
X112003062Y-87953062D01*
X111991904Y-87962220D01*
X111979175Y-87969024D01*
X111965364Y-87973213D01*
X111947221Y-87975000D01*
X111101999Y-87975000D01*
X111086977Y-87976480D01*
X111072533Y-87980861D01*
X111059221Y-87987977D01*
X111047552Y-87997552D01*
X111037977Y-88009221D01*
X111030861Y-88022533D01*
X111026480Y-88036977D01*
X111025000Y-88051999D01*
X111025000Y-88897221D01*
X111023213Y-88915364D01*
X111019024Y-88929175D01*
X111012220Y-88941904D01*
X111003062Y-88953062D01*
X110991904Y-88962220D01*
X110979175Y-88969024D01*
X110965364Y-88973213D01*
X110947221Y-88975000D01*
X110652779Y-88975000D01*
X110634636Y-88973213D01*
X110620825Y-88969024D01*
X110608095Y-88962220D01*
X110598849Y-88954631D01*
X110586298Y-88946244D01*
X110572353Y-88940468D01*
X110557548Y-88937523D01*
X110542454Y-88937523D01*
X110527649Y-88940467D01*
X110513704Y-88946243D01*
X110501151Y-88954631D01*
X110491905Y-88962220D01*
X110479175Y-88969024D01*
X110465364Y-88973213D01*
X110447221Y-88975000D01*
X110152779Y-88975000D01*
X110134636Y-88973213D01*
X110120825Y-88969024D01*
X110108095Y-88962220D01*
X110098849Y-88954631D01*
X110086298Y-88946244D01*
X110072353Y-88940468D01*
X110057548Y-88937523D01*
X110042454Y-88937523D01*
X110027649Y-88940467D01*
X110013704Y-88946243D01*
X110001151Y-88954631D01*
X109991905Y-88962220D01*
X109979175Y-88969024D01*
X109965364Y-88973213D01*
X109947221Y-88975000D01*
X109652779Y-88975000D01*
X109634636Y-88973213D01*
X109620825Y-88969024D01*
X109608095Y-88962220D01*
X109598849Y-88954631D01*
X109586298Y-88946244D01*
X109572353Y-88940468D01*
X109557548Y-88937523D01*
X109542454Y-88937523D01*
X109527649Y-88940467D01*
X109513704Y-88946243D01*
X109501151Y-88954631D01*
X109491905Y-88962220D01*
X109479175Y-88969024D01*
X109465364Y-88973213D01*
X109447221Y-88975000D01*
X109152779Y-88975000D01*
X109134636Y-88973213D01*
X109120825Y-88969024D01*
X109108095Y-88962220D01*
X109098849Y-88954631D01*
X109086298Y-88946244D01*
X109072353Y-88940468D01*
X109057548Y-88937523D01*
X109042454Y-88937523D01*
X109027649Y-88940467D01*
X109013704Y-88946243D01*
X109001151Y-88954631D01*
X108991905Y-88962220D01*
X108979175Y-88969024D01*
X108965364Y-88973213D01*
X108947221Y-88975000D01*
X108652779Y-88975000D01*
X108634636Y-88973213D01*
X108620825Y-88969024D01*
X108608095Y-88962220D01*
X108598849Y-88954631D01*
X108586298Y-88946244D01*
X108572353Y-88940468D01*
X108557548Y-88937523D01*
X108542454Y-88937523D01*
X108527649Y-88940467D01*
X108513704Y-88946243D01*
X108501151Y-88954631D01*
X108491905Y-88962220D01*
X108479175Y-88969024D01*
X108465364Y-88973213D01*
X108447221Y-88975000D01*
X108152779Y-88975000D01*
X108134636Y-88973213D01*
X108120825Y-88969024D01*
X108108095Y-88962220D01*
X108098849Y-88954631D01*
X108086298Y-88946244D01*
X108072353Y-88940468D01*
X108057548Y-88937523D01*
X108042454Y-88937523D01*
X108027649Y-88940467D01*
X108013704Y-88946243D01*
X108001151Y-88954631D01*
X107991905Y-88962220D01*
X107979175Y-88969024D01*
X107965364Y-88973213D01*
X107947221Y-88975000D01*
X107652779Y-88975000D01*
X107634636Y-88973213D01*
X107620825Y-88969024D01*
X107608095Y-88962220D01*
X107598849Y-88954631D01*
X107586298Y-88946244D01*
X107572353Y-88940468D01*
X107557548Y-88937523D01*
X107542454Y-88937523D01*
X107527649Y-88940467D01*
X107513704Y-88946243D01*
X107501151Y-88954631D01*
X107491905Y-88962220D01*
X107479175Y-88969024D01*
X107465364Y-88973213D01*
X107447221Y-88975000D01*
X107152779Y-88975000D01*
X107134636Y-88973213D01*
X107120825Y-88969024D01*
X107108095Y-88962220D01*
X107098849Y-88954631D01*
X107086298Y-88946244D01*
X107072353Y-88940468D01*
X107057548Y-88937523D01*
X107042454Y-88937523D01*
X107027649Y-88940467D01*
X107013704Y-88946243D01*
X107001151Y-88954631D01*
X106991905Y-88962220D01*
X106979175Y-88969024D01*
X106965364Y-88973213D01*
X106947221Y-88975000D01*
X106652779Y-88975000D01*
X106634636Y-88973213D01*
X106620825Y-88969024D01*
X106608095Y-88962220D01*
X106598849Y-88954631D01*
X106586298Y-88946244D01*
X106572353Y-88940468D01*
X106557548Y-88937523D01*
X106542454Y-88937523D01*
X106527649Y-88940467D01*
X106513704Y-88946243D01*
X106501151Y-88954631D01*
X106491905Y-88962220D01*
X106479175Y-88969024D01*
X106465364Y-88973213D01*
X106447221Y-88975000D01*
X106152779Y-88975000D01*
X106134636Y-88973213D01*
X106120825Y-88969024D01*
X106108095Y-88962220D01*
X106098849Y-88954631D01*
X106086298Y-88946244D01*
X106072353Y-88940468D01*
X106057548Y-88937523D01*
X106042454Y-88937523D01*
X106027649Y-88940467D01*
X106013704Y-88946243D01*
X106001151Y-88954631D01*
X105991905Y-88962220D01*
X105979175Y-88969024D01*
X105965364Y-88973213D01*
X105947221Y-88975000D01*
X105652779Y-88975000D01*
X105634636Y-88973213D01*
X105620825Y-88969024D01*
X105608095Y-88962220D01*
X105598849Y-88954631D01*
X105586298Y-88946244D01*
X105572353Y-88940468D01*
X105557548Y-88937523D01*
X105542454Y-88937523D01*
X105527649Y-88940467D01*
X105513704Y-88946243D01*
X105501151Y-88954631D01*
X105491905Y-88962220D01*
X105479175Y-88969024D01*
X105465364Y-88973213D01*
X105447221Y-88975000D01*
X105152779Y-88975000D01*
X105134636Y-88973213D01*
X105120825Y-88969024D01*
X105108096Y-88962220D01*
X105096938Y-88953062D01*
X105087780Y-88941904D01*
X105080976Y-88929175D01*
X105076787Y-88915364D01*
X105075000Y-88897221D01*
X105075000Y-88051999D01*
X105073520Y-88036977D01*
X105069139Y-88022533D01*
X105062023Y-88009221D01*
X105052448Y-87997552D01*
X105040779Y-87987977D01*
X105027467Y-87980861D01*
X105013023Y-87976480D01*
X104998001Y-87975000D01*
X104152779Y-87975000D01*
X104134636Y-87973213D01*
X104120825Y-87969024D01*
X104108096Y-87962220D01*
X104096938Y-87953062D01*
X104087780Y-87941904D01*
X104080976Y-87929175D01*
X104076787Y-87915364D01*
X104075000Y-87897221D01*
X104075000Y-87602779D01*
X104076787Y-87584636D01*
X104080976Y-87570825D01*
X104087780Y-87558095D01*
X104095369Y-87548849D01*
X104103756Y-87536298D01*
X104109532Y-87522353D01*
X104112477Y-87507548D01*
X104112477Y-87492454D01*
X104109533Y-87477649D01*
X104103757Y-87463704D01*
X104095369Y-87451151D01*
X104087780Y-87441905D01*
X104080976Y-87429175D01*
X104076787Y-87415364D01*
X104075000Y-87397221D01*
X104075000Y-87102779D01*
X104076787Y-87084636D01*
X104080976Y-87070825D01*
X104087780Y-87058095D01*
X104095369Y-87048849D01*
X104103756Y-87036298D01*
X104109532Y-87022353D01*
X104112477Y-87007548D01*
X104112477Y-86992454D01*
X104109533Y-86977649D01*
X104103757Y-86963704D01*
X104095369Y-86951151D01*
X104087780Y-86941905D01*
X104080976Y-86929175D01*
X104076787Y-86915364D01*
X104075000Y-86897221D01*
X104075000Y-86602779D01*
X104076787Y-86584636D01*
X104080976Y-86570825D01*
X104087780Y-86558095D01*
X104095369Y-86548849D01*
X104103756Y-86536298D01*
X104109532Y-86522353D01*
X104112477Y-86507548D01*
X104112477Y-86492454D01*
X104109533Y-86477649D01*
X104103757Y-86463704D01*
X104095369Y-86451151D01*
X104087780Y-86441905D01*
X104080976Y-86429175D01*
X104076787Y-86415364D01*
X104075000Y-86397221D01*
X104075000Y-86102779D01*
X104076787Y-86084636D01*
X104080976Y-86070825D01*
X104087780Y-86058095D01*
X104095369Y-86048849D01*
X104103756Y-86036298D01*
X104109532Y-86022353D01*
X104112477Y-86007548D01*
X104112477Y-85992454D01*
X104109533Y-85977649D01*
X104103757Y-85963704D01*
X104095369Y-85951151D01*
X104087780Y-85941905D01*
X104080976Y-85929175D01*
X104076787Y-85915364D01*
X104075000Y-85897221D01*
X104075000Y-85602779D01*
X104076787Y-85584636D01*
X104080976Y-85570825D01*
X104087780Y-85558095D01*
X104095369Y-85548849D01*
X104103756Y-85536298D01*
X104109532Y-85522353D01*
X104112477Y-85507548D01*
X104112477Y-85492454D01*
X104109533Y-85477649D01*
X104103757Y-85463704D01*
X104095369Y-85451151D01*
X104087780Y-85441905D01*
X104080976Y-85429175D01*
X104076787Y-85415364D01*
X104075000Y-85397221D01*
X104075000Y-85102779D01*
X104076787Y-85084636D01*
X104080976Y-85070825D01*
X104087780Y-85058095D01*
X104095369Y-85048849D01*
X104103756Y-85036298D01*
X104109532Y-85022353D01*
X104112477Y-85007548D01*
X104112477Y-84992454D01*
X104109533Y-84977649D01*
X104103757Y-84963704D01*
X104095369Y-84951151D01*
X104087780Y-84941905D01*
X104080976Y-84929175D01*
X104076787Y-84915364D01*
X104075000Y-84897221D01*
X104075000Y-84602779D01*
X104076787Y-84584636D01*
X104080976Y-84570825D01*
X104087780Y-84558095D01*
X104095369Y-84548849D01*
X104103756Y-84536298D01*
X104109532Y-84522353D01*
X104112477Y-84507548D01*
X104112477Y-84492454D01*
X104109533Y-84477649D01*
X104103757Y-84463704D01*
X104095369Y-84451151D01*
X104087780Y-84441905D01*
X104080976Y-84429175D01*
X104076787Y-84415364D01*
X104075000Y-84397221D01*
X104075000Y-84102779D01*
X104076787Y-84084636D01*
X104080976Y-84070825D01*
X104087780Y-84058095D01*
X104095369Y-84048849D01*
X104103756Y-84036298D01*
X104109532Y-84022353D01*
X104112477Y-84007548D01*
X104112477Y-83992454D01*
X104109533Y-83977649D01*
X104103757Y-83963704D01*
X104095369Y-83951151D01*
X104087780Y-83941905D01*
X104080976Y-83929175D01*
X104076787Y-83915364D01*
X104075000Y-83897221D01*
X104075000Y-83602779D01*
X104076787Y-83584636D01*
X104080976Y-83570825D01*
X104087780Y-83558095D01*
X104095369Y-83548849D01*
X104103756Y-83536298D01*
X104109532Y-83522353D01*
X104112477Y-83507548D01*
X104112477Y-83492454D01*
X104109533Y-83477649D01*
X104103757Y-83463704D01*
X104095369Y-83451151D01*
X104087780Y-83441905D01*
X104080976Y-83429175D01*
X104076787Y-83415364D01*
X104075000Y-83397221D01*
X104075000Y-83102779D01*
X104076787Y-83084636D01*
X104080976Y-83070825D01*
X104087780Y-83058095D01*
X104095369Y-83048849D01*
X104103756Y-83036298D01*
X104109532Y-83022353D01*
X104112477Y-83007548D01*
X104112477Y-82992454D01*
X104109533Y-82977649D01*
X104103757Y-82963704D01*
X104095369Y-82951151D01*
X104087780Y-82941905D01*
X104080976Y-82929175D01*
X104076787Y-82915364D01*
X104075000Y-82897221D01*
X104075000Y-82602774D01*
X104076787Y-82584636D01*
X104080976Y-82570825D01*
X104087780Y-82558095D01*
X104095369Y-82548849D01*
X104103756Y-82536298D01*
X104109532Y-82522353D01*
X104112477Y-82507548D01*
X104112477Y-82492454D01*
X104109533Y-82477649D01*
X104103757Y-82463704D01*
X104095369Y-82451151D01*
X104087780Y-82441905D01*
X104080976Y-82429175D01*
X104076787Y-82415364D01*
X104075000Y-82397221D01*
X104075000Y-82102779D01*
X104076787Y-82084636D01*
X104080976Y-82070825D01*
X104087780Y-82058096D01*
X104096938Y-82046938D01*
X104108096Y-82037780D01*
X104120825Y-82030976D01*
X104134636Y-82026787D01*
X104152779Y-82025000D01*
X104998001Y-82025000D01*
X105013023Y-82023520D01*
X105027467Y-82019139D01*
X105040779Y-82012023D01*
X105052448Y-82002448D01*
X105062023Y-81990779D01*
X105069139Y-81977467D01*
X105073520Y-81963023D01*
X105075000Y-81948001D01*
X105075000Y-81102779D01*
X105076787Y-81084636D01*
X105080976Y-81070825D01*
X105087780Y-81058096D01*
X105096938Y-81046938D01*
X105108096Y-81037780D01*
X105120825Y-81030976D01*
X105134636Y-81026787D01*
X105152779Y-81025000D01*
X105447221Y-81025000D01*
X105465364Y-81026787D01*
X105465364Y-81026787D01*
G37*
G36*
X131941946Y-88048421D02*
G01*
X131971703Y-88057447D01*
X131999129Y-88072107D01*
X132023166Y-88091834D01*
X132042893Y-88115871D01*
X132057553Y-88143297D01*
X132066579Y-88173054D01*
X132070000Y-88207781D01*
X132070000Y-88672219D01*
X132066579Y-88706946D01*
X132057553Y-88736703D01*
X132042893Y-88764129D01*
X132023166Y-88788166D01*
X131999129Y-88807893D01*
X131971703Y-88822553D01*
X131941946Y-88831579D01*
X131907219Y-88835000D01*
X131392781Y-88835000D01*
X131358054Y-88831579D01*
X131328297Y-88822553D01*
X131300871Y-88807893D01*
X131276834Y-88788166D01*
X131257107Y-88764129D01*
X131242447Y-88736703D01*
X131233421Y-88706946D01*
X131230000Y-88672219D01*
X131230000Y-88207781D01*
X131233421Y-88173054D01*
X131242447Y-88143297D01*
X131257107Y-88115871D01*
X131276834Y-88091834D01*
X131300871Y-88072107D01*
X131328297Y-88057447D01*
X131358054Y-88048421D01*
X131392781Y-88045000D01*
X131907219Y-88045000D01*
X131941946Y-88048421D01*
X131941946Y-88048421D01*
G37*
G36*
X138041946Y-88043421D02*
G01*
X138071703Y-88052447D01*
X138099129Y-88067107D01*
X138123166Y-88086834D01*
X138142893Y-88110871D01*
X138157553Y-88138297D01*
X138166579Y-88168054D01*
X138170000Y-88202781D01*
X138170000Y-88667219D01*
X138166579Y-88701946D01*
X138157553Y-88731703D01*
X138142893Y-88759129D01*
X138123166Y-88783166D01*
X138099129Y-88802893D01*
X138071703Y-88817553D01*
X138041946Y-88826579D01*
X138007219Y-88830000D01*
X137492781Y-88830000D01*
X137458054Y-88826579D01*
X137428297Y-88817553D01*
X137400871Y-88802893D01*
X137376834Y-88783166D01*
X137357107Y-88759129D01*
X137342447Y-88731703D01*
X137333421Y-88701946D01*
X137330000Y-88667219D01*
X137330000Y-88202781D01*
X137333421Y-88168054D01*
X137342447Y-88138297D01*
X137357107Y-88110871D01*
X137376834Y-88086834D01*
X137400871Y-88067107D01*
X137428297Y-88052447D01*
X137458054Y-88043421D01*
X137492781Y-88040000D01*
X138007219Y-88040000D01*
X138041946Y-88043421D01*
X138041946Y-88043421D01*
G37*
G36*
X133560000Y-88740000D02*
G01*
X132460000Y-88740000D01*
X132460000Y-87740000D01*
X133560000Y-87740000D01*
X133560000Y-88740000D01*
X133560000Y-88740000D01*
G37*
G36*
X144989594Y-87529789D02*
G01*
X145032722Y-87542872D01*
X145072461Y-87564113D01*
X145107298Y-87592702D01*
X145135887Y-87627539D01*
X145157128Y-87667278D01*
X145170211Y-87710406D01*
X145175000Y-87759031D01*
X145175000Y-88440969D01*
X145170211Y-88489594D01*
X145157128Y-88532722D01*
X145135887Y-88572461D01*
X145107298Y-88607298D01*
X145072461Y-88635887D01*
X145032722Y-88657128D01*
X144989594Y-88670211D01*
X144940969Y-88675000D01*
X144334031Y-88675000D01*
X144285406Y-88670211D01*
X144242278Y-88657128D01*
X144202539Y-88635887D01*
X144167702Y-88607298D01*
X144139113Y-88572461D01*
X144117872Y-88532722D01*
X144104789Y-88489594D01*
X144100000Y-88440969D01*
X144100000Y-87759031D01*
X144104789Y-87710406D01*
X144117872Y-87667278D01*
X144139113Y-87627539D01*
X144167702Y-87592702D01*
X144202539Y-87564113D01*
X144242278Y-87542872D01*
X144285406Y-87529789D01*
X144334031Y-87525000D01*
X144940969Y-87525000D01*
X144989594Y-87529789D01*
X144989594Y-87529789D01*
G37*
G36*
X143414594Y-87529789D02*
G01*
X143457722Y-87542872D01*
X143497461Y-87564113D01*
X143532298Y-87592702D01*
X143560887Y-87627539D01*
X143582128Y-87667278D01*
X143595211Y-87710406D01*
X143600000Y-87759031D01*
X143600000Y-88440969D01*
X143595211Y-88489594D01*
X143582128Y-88532722D01*
X143560887Y-88572461D01*
X143532298Y-88607298D01*
X143497461Y-88635887D01*
X143457722Y-88657128D01*
X143414594Y-88670211D01*
X143365969Y-88675000D01*
X142759031Y-88675000D01*
X142710406Y-88670211D01*
X142667278Y-88657128D01*
X142627539Y-88635887D01*
X142592702Y-88607298D01*
X142564113Y-88572461D01*
X142542872Y-88532722D01*
X142529789Y-88489594D01*
X142525000Y-88440969D01*
X142525000Y-87759031D01*
X142529789Y-87710406D01*
X142542872Y-87667278D01*
X142564113Y-87627539D01*
X142592702Y-87592702D01*
X142627539Y-87564113D01*
X142667278Y-87542872D01*
X142710406Y-87529789D01*
X142759031Y-87525000D01*
X143365969Y-87525000D01*
X143414594Y-87529789D01*
X143414594Y-87529789D01*
G37*
G36*
X113191946Y-87873421D02*
G01*
X113221703Y-87882447D01*
X113249129Y-87897107D01*
X113273166Y-87916834D01*
X113292893Y-87940871D01*
X113307553Y-87968297D01*
X113316579Y-87998054D01*
X113320000Y-88032781D01*
X113320000Y-88497219D01*
X113316579Y-88531946D01*
X113307553Y-88561703D01*
X113292893Y-88589129D01*
X113273166Y-88613166D01*
X113249129Y-88632893D01*
X113221703Y-88647553D01*
X113191946Y-88656579D01*
X113157219Y-88660000D01*
X112642781Y-88660000D01*
X112608054Y-88656579D01*
X112578297Y-88647553D01*
X112550871Y-88632893D01*
X112526834Y-88613166D01*
X112507107Y-88589129D01*
X112492447Y-88561703D01*
X112483421Y-88531946D01*
X112480000Y-88497219D01*
X112480000Y-88032781D01*
X112483421Y-87998054D01*
X112492447Y-87968297D01*
X112507107Y-87940871D01*
X112526834Y-87916834D01*
X112550871Y-87897107D01*
X112578297Y-87882447D01*
X112608054Y-87873421D01*
X112642781Y-87870000D01*
X113157219Y-87870000D01*
X113191946Y-87873421D01*
X113191946Y-87873421D01*
G37*
G36*
X116658272Y-87403798D02*
G01*
X116766379Y-87448578D01*
X116863672Y-87513587D01*
X116946413Y-87596328D01*
X117011422Y-87693621D01*
X117056202Y-87801728D01*
X117079030Y-87916493D01*
X117079030Y-88033507D01*
X117056202Y-88148272D01*
X117011422Y-88256379D01*
X116946413Y-88353672D01*
X116863672Y-88436413D01*
X116766379Y-88501422D01*
X116658272Y-88546202D01*
X116543507Y-88569030D01*
X116426493Y-88569030D01*
X116311728Y-88546202D01*
X116203621Y-88501422D01*
X116106328Y-88436413D01*
X116023587Y-88353672D01*
X115958578Y-88256379D01*
X115913798Y-88148272D01*
X115890970Y-88033507D01*
X115890970Y-87916493D01*
X115913798Y-87801728D01*
X115958578Y-87693621D01*
X116023587Y-87596328D01*
X116106328Y-87513587D01*
X116203621Y-87448578D01*
X116311728Y-87403798D01*
X116426493Y-87380970D01*
X116543507Y-87380970D01*
X116658272Y-87403798D01*
X116658272Y-87403798D01*
G37*
G36*
X152223153Y-86322838D02*
G01*
X152320860Y-86342273D01*
X152521048Y-86425194D01*
X152701204Y-86545570D01*
X152854430Y-86698796D01*
X152974806Y-86878952D01*
X153057727Y-87079140D01*
X153072810Y-87154966D01*
X153100000Y-87291659D01*
X153100000Y-87508341D01*
X153078674Y-87615552D01*
X153057727Y-87720860D01*
X152974806Y-87921048D01*
X152854430Y-88101204D01*
X152701204Y-88254430D01*
X152521048Y-88374806D01*
X152320860Y-88457727D01*
X152235851Y-88474636D01*
X152108341Y-88500000D01*
X151891659Y-88500000D01*
X151764149Y-88474636D01*
X151679140Y-88457727D01*
X151478952Y-88374806D01*
X151298796Y-88254430D01*
X151145570Y-88101204D01*
X151025194Y-87921048D01*
X150942273Y-87720860D01*
X150921326Y-87615552D01*
X150900000Y-87508341D01*
X150900000Y-87291659D01*
X150927190Y-87154966D01*
X150942273Y-87079140D01*
X151025194Y-86878952D01*
X151145570Y-86698796D01*
X151298796Y-86545570D01*
X151478952Y-86425194D01*
X151679140Y-86342273D01*
X151776847Y-86322838D01*
X151891659Y-86300000D01*
X152108341Y-86300000D01*
X152223153Y-86322838D01*
X152223153Y-86322838D01*
G37*
G36*
X141725000Y-88480000D02*
G01*
X138975000Y-88480000D01*
X138975000Y-87220000D01*
X141725000Y-87220000D01*
X141725000Y-88480000D01*
X141725000Y-88480000D01*
G37*
G36*
X86678966Y-87471332D02*
G01*
X86756313Y-87503370D01*
X86825919Y-87549879D01*
X86885121Y-87609081D01*
X86931630Y-87678687D01*
X86963668Y-87756034D01*
X86980000Y-87838139D01*
X86980000Y-87921861D01*
X86963668Y-88003966D01*
X86931630Y-88081313D01*
X86885121Y-88150919D01*
X86825919Y-88210121D01*
X86756313Y-88256630D01*
X86678966Y-88288668D01*
X86596861Y-88305000D01*
X86513139Y-88305000D01*
X86431034Y-88288668D01*
X86353687Y-88256630D01*
X86284081Y-88210121D01*
X86224879Y-88150919D01*
X86178370Y-88081313D01*
X86146332Y-88003966D01*
X86130000Y-87921861D01*
X86130000Y-87838139D01*
X86146332Y-87756034D01*
X86178370Y-87678687D01*
X86224879Y-87609081D01*
X86284081Y-87549879D01*
X86353687Y-87503370D01*
X86431034Y-87471332D01*
X86513139Y-87455000D01*
X86596861Y-87455000D01*
X86678966Y-87471332D01*
X86678966Y-87471332D01*
G37*
G36*
X92581946Y-87383421D02*
G01*
X92611703Y-87392447D01*
X92639129Y-87407107D01*
X92663166Y-87426834D01*
X92682893Y-87450871D01*
X92697553Y-87478297D01*
X92706579Y-87508054D01*
X92710000Y-87542781D01*
X92710000Y-88057219D01*
X92706579Y-88091946D01*
X92697553Y-88121703D01*
X92682893Y-88149129D01*
X92663166Y-88173166D01*
X92639129Y-88192893D01*
X92611703Y-88207553D01*
X92581946Y-88216579D01*
X92547219Y-88220000D01*
X92082781Y-88220000D01*
X92048054Y-88216579D01*
X92018297Y-88207553D01*
X91990871Y-88192893D01*
X91966834Y-88173166D01*
X91947107Y-88149129D01*
X91932447Y-88121703D01*
X91923421Y-88091946D01*
X91920000Y-88057219D01*
X91920000Y-87542781D01*
X91923421Y-87508054D01*
X91932447Y-87478297D01*
X91947107Y-87450871D01*
X91966834Y-87426834D01*
X91990871Y-87407107D01*
X92018297Y-87392447D01*
X92048054Y-87383421D01*
X92082781Y-87380000D01*
X92547219Y-87380000D01*
X92581946Y-87383421D01*
X92581946Y-87383421D01*
G37*
G36*
X93551946Y-87383421D02*
G01*
X93581703Y-87392447D01*
X93609129Y-87407107D01*
X93633166Y-87426834D01*
X93652893Y-87450871D01*
X93667553Y-87478297D01*
X93676579Y-87508054D01*
X93680000Y-87542781D01*
X93680000Y-88057219D01*
X93676579Y-88091946D01*
X93667553Y-88121703D01*
X93652893Y-88149129D01*
X93633166Y-88173166D01*
X93609129Y-88192893D01*
X93581703Y-88207553D01*
X93551946Y-88216579D01*
X93517219Y-88220000D01*
X93052781Y-88220000D01*
X93018054Y-88216579D01*
X92988297Y-88207553D01*
X92960871Y-88192893D01*
X92936834Y-88173166D01*
X92917107Y-88149129D01*
X92902447Y-88121703D01*
X92893421Y-88091946D01*
X92890000Y-88057219D01*
X92890000Y-87542781D01*
X92893421Y-87508054D01*
X92902447Y-87478297D01*
X92917107Y-87450871D01*
X92936834Y-87426834D01*
X92960871Y-87407107D01*
X92988297Y-87392447D01*
X93018054Y-87383421D01*
X93052781Y-87380000D01*
X93517219Y-87380000D01*
X93551946Y-87383421D01*
X93551946Y-87383421D01*
G37*
G36*
X95691946Y-87218421D02*
G01*
X95721703Y-87227447D01*
X95749129Y-87242107D01*
X95773166Y-87261834D01*
X95792893Y-87285871D01*
X95807553Y-87313297D01*
X95816579Y-87343054D01*
X95820000Y-87377781D01*
X95820000Y-87842219D01*
X95816579Y-87876946D01*
X95807553Y-87906703D01*
X95792893Y-87934129D01*
X95773166Y-87958166D01*
X95749129Y-87977893D01*
X95721703Y-87992553D01*
X95691946Y-88001579D01*
X95657219Y-88005000D01*
X95142781Y-88005000D01*
X95108054Y-88001579D01*
X95078297Y-87992553D01*
X95050871Y-87977893D01*
X95026834Y-87958166D01*
X95007107Y-87934129D01*
X94992447Y-87906703D01*
X94983421Y-87876946D01*
X94980000Y-87842219D01*
X94980000Y-87377781D01*
X94983421Y-87343054D01*
X94992447Y-87313297D01*
X95007107Y-87285871D01*
X95026834Y-87261834D01*
X95050871Y-87242107D01*
X95078297Y-87227447D01*
X95108054Y-87218421D01*
X95142781Y-87215000D01*
X95657219Y-87215000D01*
X95691946Y-87218421D01*
X95691946Y-87218421D01*
G37*
G36*
X114739594Y-86879789D02*
G01*
X114782722Y-86892872D01*
X114822461Y-86914113D01*
X114857298Y-86942702D01*
X114885887Y-86977539D01*
X114907128Y-87017278D01*
X114920211Y-87060406D01*
X114925000Y-87109031D01*
X114925000Y-87715969D01*
X114920211Y-87764594D01*
X114907128Y-87807722D01*
X114885887Y-87847461D01*
X114857298Y-87882298D01*
X114822461Y-87910887D01*
X114782722Y-87932128D01*
X114739594Y-87945211D01*
X114690969Y-87950000D01*
X114009031Y-87950000D01*
X113960406Y-87945211D01*
X113917278Y-87932128D01*
X113877539Y-87910887D01*
X113842702Y-87882298D01*
X113814113Y-87847461D01*
X113792872Y-87807722D01*
X113779789Y-87764594D01*
X113775000Y-87715969D01*
X113775000Y-87109031D01*
X113779789Y-87060406D01*
X113792872Y-87017278D01*
X113814113Y-86977539D01*
X113842702Y-86942702D01*
X113877539Y-86914113D01*
X113917278Y-86892872D01*
X113960406Y-86879789D01*
X114009031Y-86875000D01*
X114690969Y-86875000D01*
X114739594Y-86879789D01*
X114739594Y-86879789D01*
G37*
G36*
X131941946Y-87078421D02*
G01*
X131971703Y-87087447D01*
X131999129Y-87102107D01*
X132023166Y-87121834D01*
X132042893Y-87145871D01*
X132057553Y-87173297D01*
X132066579Y-87203054D01*
X132070000Y-87237781D01*
X132070000Y-87702219D01*
X132066579Y-87736946D01*
X132057553Y-87766703D01*
X132042893Y-87794129D01*
X132023166Y-87818166D01*
X131999129Y-87837893D01*
X131971703Y-87852553D01*
X131941946Y-87861579D01*
X131907219Y-87865000D01*
X131392781Y-87865000D01*
X131358054Y-87861579D01*
X131328297Y-87852553D01*
X131300871Y-87837893D01*
X131276834Y-87818166D01*
X131257107Y-87794129D01*
X131242447Y-87766703D01*
X131233421Y-87736946D01*
X131230000Y-87702219D01*
X131230000Y-87237781D01*
X131233421Y-87203054D01*
X131242447Y-87173297D01*
X131257107Y-87145871D01*
X131276834Y-87121834D01*
X131300871Y-87102107D01*
X131328297Y-87087447D01*
X131358054Y-87078421D01*
X131392781Y-87075000D01*
X131907219Y-87075000D01*
X131941946Y-87078421D01*
X131941946Y-87078421D01*
G37*
G36*
X138041946Y-87073421D02*
G01*
X138071703Y-87082447D01*
X138099129Y-87097107D01*
X138123166Y-87116834D01*
X138142893Y-87140871D01*
X138157553Y-87168297D01*
X138166579Y-87198054D01*
X138170000Y-87232781D01*
X138170000Y-87697219D01*
X138166579Y-87731946D01*
X138157553Y-87761703D01*
X138142893Y-87789129D01*
X138123166Y-87813166D01*
X138099129Y-87832893D01*
X138071703Y-87847553D01*
X138041946Y-87856579D01*
X138007219Y-87860000D01*
X137492781Y-87860000D01*
X137458054Y-87856579D01*
X137428297Y-87847553D01*
X137400871Y-87832893D01*
X137376834Y-87813166D01*
X137357107Y-87789129D01*
X137342447Y-87761703D01*
X137333421Y-87731946D01*
X137330000Y-87697219D01*
X137330000Y-87232781D01*
X137333421Y-87198054D01*
X137342447Y-87168297D01*
X137357107Y-87140871D01*
X137376834Y-87116834D01*
X137400871Y-87097107D01*
X137428297Y-87082447D01*
X137458054Y-87073421D01*
X137492781Y-87070000D01*
X138007219Y-87070000D01*
X138041946Y-87073421D01*
X138041946Y-87073421D01*
G37*
G36*
X117841555Y-86855139D02*
G01*
X117898637Y-86866493D01*
X117988253Y-86903614D01*
X118068906Y-86957504D01*
X118137496Y-87026094D01*
X118191386Y-87106747D01*
X118228507Y-87196363D01*
X118238834Y-87248285D01*
X118247430Y-87291498D01*
X118247430Y-87388502D01*
X118243729Y-87407107D01*
X118228507Y-87483637D01*
X118191386Y-87573253D01*
X118137496Y-87653906D01*
X118068906Y-87722496D01*
X117988253Y-87776386D01*
X117898637Y-87813507D01*
X117849839Y-87823213D01*
X117803502Y-87832430D01*
X117706498Y-87832430D01*
X117660161Y-87823213D01*
X117611363Y-87813507D01*
X117521747Y-87776386D01*
X117441094Y-87722496D01*
X117372504Y-87653906D01*
X117318614Y-87573253D01*
X117281493Y-87483637D01*
X117266271Y-87407107D01*
X117262570Y-87388502D01*
X117262570Y-87291498D01*
X117271166Y-87248285D01*
X117281493Y-87196363D01*
X117318614Y-87106747D01*
X117372504Y-87026094D01*
X117441094Y-86957504D01*
X117521747Y-86903614D01*
X117611363Y-86866493D01*
X117668445Y-86855139D01*
X117706498Y-86847570D01*
X117803502Y-86847570D01*
X117841555Y-86855139D01*
X117841555Y-86855139D01*
G37*
G36*
X120381555Y-86855139D02*
G01*
X120438637Y-86866493D01*
X120528253Y-86903614D01*
X120608906Y-86957504D01*
X120677496Y-87026094D01*
X120731386Y-87106747D01*
X120768507Y-87196363D01*
X120778834Y-87248285D01*
X120787430Y-87291498D01*
X120787430Y-87388502D01*
X120783729Y-87407107D01*
X120768507Y-87483637D01*
X120731386Y-87573253D01*
X120677496Y-87653906D01*
X120608906Y-87722496D01*
X120528253Y-87776386D01*
X120438637Y-87813507D01*
X120389839Y-87823213D01*
X120343502Y-87832430D01*
X120246498Y-87832430D01*
X120200161Y-87823213D01*
X120151363Y-87813507D01*
X120061747Y-87776386D01*
X119981094Y-87722496D01*
X119912504Y-87653906D01*
X119858614Y-87573253D01*
X119821493Y-87483637D01*
X119806271Y-87407107D01*
X119802570Y-87388502D01*
X119802570Y-87291498D01*
X119811166Y-87248285D01*
X119821493Y-87196363D01*
X119858614Y-87106747D01*
X119912504Y-87026094D01*
X119981094Y-86957504D01*
X120061747Y-86903614D01*
X120151363Y-86866493D01*
X120208445Y-86855139D01*
X120246498Y-86847570D01*
X120343502Y-86847570D01*
X120381555Y-86855139D01*
X120381555Y-86855139D01*
G37*
G36*
X119111555Y-86855139D02*
G01*
X119168637Y-86866493D01*
X119258253Y-86903614D01*
X119338906Y-86957504D01*
X119407496Y-87026094D01*
X119461386Y-87106747D01*
X119498507Y-87196363D01*
X119508834Y-87248285D01*
X119517430Y-87291498D01*
X119517430Y-87388502D01*
X119513729Y-87407107D01*
X119498507Y-87483637D01*
X119461386Y-87573253D01*
X119407496Y-87653906D01*
X119338906Y-87722496D01*
X119258253Y-87776386D01*
X119168637Y-87813507D01*
X119119839Y-87823213D01*
X119073502Y-87832430D01*
X118976498Y-87832430D01*
X118930161Y-87823213D01*
X118881363Y-87813507D01*
X118791747Y-87776386D01*
X118711094Y-87722496D01*
X118642504Y-87653906D01*
X118588614Y-87573253D01*
X118551493Y-87483637D01*
X118536271Y-87407107D01*
X118532570Y-87388502D01*
X118532570Y-87291498D01*
X118541166Y-87248285D01*
X118551493Y-87196363D01*
X118588614Y-87106747D01*
X118642504Y-87026094D01*
X118711094Y-86957504D01*
X118791747Y-86903614D01*
X118881363Y-86866493D01*
X118938445Y-86855139D01*
X118976498Y-86847570D01*
X119073502Y-86847570D01*
X119111555Y-86855139D01*
X119111555Y-86855139D01*
G37*
G36*
X136891946Y-87043421D02*
G01*
X136921703Y-87052447D01*
X136949129Y-87067107D01*
X136973166Y-87086834D01*
X136992893Y-87110871D01*
X137007553Y-87138297D01*
X137016579Y-87168054D01*
X137020000Y-87202781D01*
X137020000Y-87667219D01*
X137016579Y-87701946D01*
X137007553Y-87731703D01*
X136992893Y-87759129D01*
X136973166Y-87783166D01*
X136949129Y-87802893D01*
X136921703Y-87817553D01*
X136891946Y-87826579D01*
X136857219Y-87830000D01*
X136342781Y-87830000D01*
X136308054Y-87826579D01*
X136278297Y-87817553D01*
X136250871Y-87802893D01*
X136226834Y-87783166D01*
X136207107Y-87759129D01*
X136192447Y-87731703D01*
X136183421Y-87701946D01*
X136180000Y-87667219D01*
X136180000Y-87202781D01*
X136183421Y-87168054D01*
X136192447Y-87138297D01*
X136207107Y-87110871D01*
X136226834Y-87086834D01*
X136250871Y-87067107D01*
X136278297Y-87052447D01*
X136308054Y-87043421D01*
X136342781Y-87040000D01*
X136857219Y-87040000D01*
X136891946Y-87043421D01*
X136891946Y-87043421D01*
G37*
G36*
X97495364Y-82876787D02*
G01*
X97509175Y-82880976D01*
X97521905Y-82887780D01*
X97531151Y-82895369D01*
X97543702Y-82903756D01*
X97557647Y-82909532D01*
X97572452Y-82912477D01*
X97587546Y-82912477D01*
X97602351Y-82909533D01*
X97616296Y-82903757D01*
X97628849Y-82895369D01*
X97638095Y-82887780D01*
X97650825Y-82880976D01*
X97664636Y-82876787D01*
X97682779Y-82875000D01*
X97977221Y-82875000D01*
X97995364Y-82876787D01*
X98009175Y-82880976D01*
X98021905Y-82887780D01*
X98031151Y-82895369D01*
X98043702Y-82903756D01*
X98057647Y-82909532D01*
X98072452Y-82912477D01*
X98087546Y-82912477D01*
X98102351Y-82909533D01*
X98116296Y-82903757D01*
X98128849Y-82895369D01*
X98138095Y-82887780D01*
X98150825Y-82880976D01*
X98164636Y-82876787D01*
X98182779Y-82875000D01*
X98477221Y-82875000D01*
X98495364Y-82876787D01*
X98509175Y-82880976D01*
X98521905Y-82887780D01*
X98531151Y-82895369D01*
X98543702Y-82903756D01*
X98557647Y-82909532D01*
X98572452Y-82912477D01*
X98587546Y-82912477D01*
X98602351Y-82909533D01*
X98616296Y-82903757D01*
X98628849Y-82895369D01*
X98638095Y-82887780D01*
X98650825Y-82880976D01*
X98664636Y-82876787D01*
X98682779Y-82875000D01*
X98977221Y-82875000D01*
X98995364Y-82876787D01*
X99009175Y-82880976D01*
X99021905Y-82887780D01*
X99031151Y-82895369D01*
X99043702Y-82903756D01*
X99057647Y-82909532D01*
X99072452Y-82912477D01*
X99087546Y-82912477D01*
X99102351Y-82909533D01*
X99116296Y-82903757D01*
X99128849Y-82895369D01*
X99138095Y-82887780D01*
X99150825Y-82880976D01*
X99164636Y-82876787D01*
X99182779Y-82875000D01*
X99477221Y-82875000D01*
X99495364Y-82876787D01*
X99509175Y-82880976D01*
X99521905Y-82887780D01*
X99531151Y-82895369D01*
X99543702Y-82903756D01*
X99557647Y-82909532D01*
X99572452Y-82912477D01*
X99587546Y-82912477D01*
X99602351Y-82909533D01*
X99616296Y-82903757D01*
X99628849Y-82895369D01*
X99638095Y-82887780D01*
X99650825Y-82880976D01*
X99664636Y-82876787D01*
X99682779Y-82875000D01*
X99977221Y-82875000D01*
X99995364Y-82876787D01*
X100009175Y-82880976D01*
X100021904Y-82887780D01*
X100033062Y-82896938D01*
X100042220Y-82908096D01*
X100049024Y-82920825D01*
X100053213Y-82934636D01*
X100055000Y-82952779D01*
X100055000Y-83798001D01*
X100056480Y-83813023D01*
X100060861Y-83827467D01*
X100067977Y-83840779D01*
X100077552Y-83852448D01*
X100089221Y-83862023D01*
X100102533Y-83869139D01*
X100116977Y-83873520D01*
X100131999Y-83875000D01*
X100977221Y-83875000D01*
X100995364Y-83876787D01*
X101009175Y-83880976D01*
X101021904Y-83887780D01*
X101033062Y-83896938D01*
X101042220Y-83908096D01*
X101049024Y-83920825D01*
X101053213Y-83934636D01*
X101055000Y-83952779D01*
X101055000Y-84247221D01*
X101053213Y-84265364D01*
X101049024Y-84279175D01*
X101042220Y-84291905D01*
X101034631Y-84301151D01*
X101026244Y-84313702D01*
X101020468Y-84327647D01*
X101017523Y-84342452D01*
X101017523Y-84357546D01*
X101020467Y-84372351D01*
X101026243Y-84386296D01*
X101034631Y-84398849D01*
X101042220Y-84408095D01*
X101049024Y-84420825D01*
X101053213Y-84434636D01*
X101055000Y-84452779D01*
X101055000Y-84747221D01*
X101053213Y-84765364D01*
X101049024Y-84779175D01*
X101042220Y-84791905D01*
X101034631Y-84801151D01*
X101026244Y-84813702D01*
X101020468Y-84827647D01*
X101017523Y-84842452D01*
X101017523Y-84857546D01*
X101020467Y-84872351D01*
X101026243Y-84886296D01*
X101034631Y-84898849D01*
X101042220Y-84908095D01*
X101049024Y-84920825D01*
X101053213Y-84934636D01*
X101055000Y-84952779D01*
X101055000Y-85247221D01*
X101053213Y-85265364D01*
X101049024Y-85279175D01*
X101042220Y-85291905D01*
X101034631Y-85301151D01*
X101026244Y-85313702D01*
X101020468Y-85327647D01*
X101017523Y-85342452D01*
X101017523Y-85357546D01*
X101020467Y-85372351D01*
X101026243Y-85386296D01*
X101034631Y-85398849D01*
X101042220Y-85408095D01*
X101049024Y-85420825D01*
X101053213Y-85434636D01*
X101055000Y-85452779D01*
X101055000Y-85747221D01*
X101053213Y-85765364D01*
X101049024Y-85779175D01*
X101042220Y-85791905D01*
X101034631Y-85801151D01*
X101026244Y-85813702D01*
X101020468Y-85827647D01*
X101017523Y-85842452D01*
X101017523Y-85857546D01*
X101020467Y-85872351D01*
X101026243Y-85886296D01*
X101034631Y-85898849D01*
X101042220Y-85908095D01*
X101049024Y-85920825D01*
X101053213Y-85934636D01*
X101055000Y-85952774D01*
X101055000Y-86247221D01*
X101053213Y-86265364D01*
X101049024Y-86279175D01*
X101042220Y-86291905D01*
X101034631Y-86301151D01*
X101026244Y-86313702D01*
X101020468Y-86327647D01*
X101017523Y-86342452D01*
X101017523Y-86357546D01*
X101020467Y-86372351D01*
X101026243Y-86386296D01*
X101034631Y-86398849D01*
X101042220Y-86408095D01*
X101049024Y-86420825D01*
X101053213Y-86434636D01*
X101055000Y-86452779D01*
X101055000Y-86747221D01*
X101053213Y-86765364D01*
X101049024Y-86779175D01*
X101042220Y-86791904D01*
X101033062Y-86803062D01*
X101021904Y-86812220D01*
X101009175Y-86819024D01*
X100995364Y-86823213D01*
X100977221Y-86825000D01*
X100131999Y-86825000D01*
X100116977Y-86826480D01*
X100102533Y-86830861D01*
X100089221Y-86837977D01*
X100077552Y-86847552D01*
X100067977Y-86859221D01*
X100060861Y-86872533D01*
X100056480Y-86886977D01*
X100055000Y-86901999D01*
X100055000Y-87747221D01*
X100053213Y-87765364D01*
X100049024Y-87779175D01*
X100042220Y-87791904D01*
X100033062Y-87803062D01*
X100021904Y-87812220D01*
X100009175Y-87819024D01*
X99995364Y-87823213D01*
X99977221Y-87825000D01*
X99682779Y-87825000D01*
X99664636Y-87823213D01*
X99650825Y-87819024D01*
X99638095Y-87812220D01*
X99628849Y-87804631D01*
X99616298Y-87796244D01*
X99602353Y-87790468D01*
X99587548Y-87787523D01*
X99572454Y-87787523D01*
X99557649Y-87790467D01*
X99543704Y-87796243D01*
X99531151Y-87804631D01*
X99521905Y-87812220D01*
X99509175Y-87819024D01*
X99495364Y-87823213D01*
X99477221Y-87825000D01*
X99182779Y-87825000D01*
X99164636Y-87823213D01*
X99150825Y-87819024D01*
X99138095Y-87812220D01*
X99128849Y-87804631D01*
X99116298Y-87796244D01*
X99102353Y-87790468D01*
X99087548Y-87787523D01*
X99072454Y-87787523D01*
X99057649Y-87790467D01*
X99043704Y-87796243D01*
X99031151Y-87804631D01*
X99021905Y-87812220D01*
X99009175Y-87819024D01*
X98995364Y-87823213D01*
X98977221Y-87825000D01*
X98682779Y-87825000D01*
X98664636Y-87823213D01*
X98650825Y-87819024D01*
X98638095Y-87812220D01*
X98628849Y-87804631D01*
X98616298Y-87796244D01*
X98602353Y-87790468D01*
X98587548Y-87787523D01*
X98572454Y-87787523D01*
X98557649Y-87790467D01*
X98543704Y-87796243D01*
X98531151Y-87804631D01*
X98521905Y-87812220D01*
X98509175Y-87819024D01*
X98495364Y-87823213D01*
X98477221Y-87825000D01*
X98182779Y-87825000D01*
X98164636Y-87823213D01*
X98150825Y-87819024D01*
X98138095Y-87812220D01*
X98128849Y-87804631D01*
X98116298Y-87796244D01*
X98102353Y-87790468D01*
X98087548Y-87787523D01*
X98072454Y-87787523D01*
X98057649Y-87790467D01*
X98043704Y-87796243D01*
X98031151Y-87804631D01*
X98021905Y-87812220D01*
X98009175Y-87819024D01*
X97995364Y-87823213D01*
X97977221Y-87825000D01*
X97682779Y-87825000D01*
X97664636Y-87823213D01*
X97650825Y-87819024D01*
X97638095Y-87812220D01*
X97628849Y-87804631D01*
X97616298Y-87796244D01*
X97602353Y-87790468D01*
X97587548Y-87787523D01*
X97572454Y-87787523D01*
X97557649Y-87790467D01*
X97543704Y-87796243D01*
X97531151Y-87804631D01*
X97521905Y-87812220D01*
X97509175Y-87819024D01*
X97495364Y-87823213D01*
X97477221Y-87825000D01*
X97182779Y-87825000D01*
X97164636Y-87823213D01*
X97150825Y-87819024D01*
X97138096Y-87812220D01*
X97126938Y-87803062D01*
X97117780Y-87791904D01*
X97110976Y-87779175D01*
X97106787Y-87765364D01*
X97105000Y-87747221D01*
X97105000Y-86901999D01*
X97103520Y-86886977D01*
X97099139Y-86872533D01*
X97092023Y-86859221D01*
X97082448Y-86847552D01*
X97070779Y-86837977D01*
X97057467Y-86830861D01*
X97043023Y-86826480D01*
X97028001Y-86825000D01*
X96182779Y-86825000D01*
X96164636Y-86823213D01*
X96150825Y-86819024D01*
X96138096Y-86812220D01*
X96126938Y-86803062D01*
X96117780Y-86791904D01*
X96110976Y-86779175D01*
X96106787Y-86765364D01*
X96105000Y-86747221D01*
X96105000Y-86452779D01*
X96106787Y-86434636D01*
X96110976Y-86420825D01*
X96117780Y-86408095D01*
X96125369Y-86398849D01*
X96133756Y-86386298D01*
X96139532Y-86372353D01*
X96142477Y-86357548D01*
X96142477Y-86342454D01*
X96139533Y-86327649D01*
X96133757Y-86313704D01*
X96125369Y-86301151D01*
X96117780Y-86291905D01*
X96110976Y-86279175D01*
X96106787Y-86265364D01*
X96105000Y-86247221D01*
X96105000Y-85952774D01*
X96106787Y-85934636D01*
X96110976Y-85920825D01*
X96117780Y-85908095D01*
X96125369Y-85898849D01*
X96133756Y-85886298D01*
X96139532Y-85872353D01*
X96142477Y-85857548D01*
X96142477Y-85842454D01*
X96139533Y-85827649D01*
X96133757Y-85813704D01*
X96125369Y-85801151D01*
X96117780Y-85791905D01*
X96110976Y-85779175D01*
X96106787Y-85765364D01*
X96105000Y-85747221D01*
X96105000Y-85452779D01*
X96106787Y-85434636D01*
X96110976Y-85420825D01*
X96117780Y-85408095D01*
X96125369Y-85398849D01*
X96133756Y-85386298D01*
X96139532Y-85372353D01*
X96142477Y-85357548D01*
X96142477Y-85342454D01*
X96139533Y-85327649D01*
X96133757Y-85313704D01*
X96125369Y-85301151D01*
X96117780Y-85291905D01*
X96110976Y-85279175D01*
X96106787Y-85265364D01*
X96105000Y-85247221D01*
X96105000Y-84952779D01*
X96106787Y-84934636D01*
X96110976Y-84920825D01*
X96117780Y-84908095D01*
X96125369Y-84898849D01*
X96133756Y-84886298D01*
X96139532Y-84872353D01*
X96142477Y-84857548D01*
X96142477Y-84842454D01*
X96139533Y-84827649D01*
X96133757Y-84813704D01*
X96125369Y-84801151D01*
X96117780Y-84791905D01*
X96110976Y-84779175D01*
X96106787Y-84765364D01*
X96105000Y-84747221D01*
X96105000Y-84452779D01*
X96106787Y-84434636D01*
X96110976Y-84420825D01*
X96117780Y-84408095D01*
X96125369Y-84398849D01*
X96133756Y-84386298D01*
X96139532Y-84372353D01*
X96142477Y-84357548D01*
X96142477Y-84342454D01*
X96139533Y-84327649D01*
X96133757Y-84313704D01*
X96125369Y-84301151D01*
X96117780Y-84291905D01*
X96110976Y-84279175D01*
X96106787Y-84265364D01*
X96105000Y-84247221D01*
X96105000Y-83952779D01*
X96106787Y-83934636D01*
X96110976Y-83920825D01*
X96117780Y-83908096D01*
X96126938Y-83896938D01*
X96138096Y-83887780D01*
X96150825Y-83880976D01*
X96164636Y-83876787D01*
X96182779Y-83875000D01*
X97028001Y-83875000D01*
X97043023Y-83873520D01*
X97057467Y-83869139D01*
X97070779Y-83862023D01*
X97082448Y-83852448D01*
X97092023Y-83840779D01*
X97099139Y-83827467D01*
X97103520Y-83813023D01*
X97105000Y-83798001D01*
X97105000Y-82952779D01*
X97106787Y-82934636D01*
X97110976Y-82920825D01*
X97117780Y-82908096D01*
X97126938Y-82896938D01*
X97138096Y-82887780D01*
X97150825Y-82880976D01*
X97164636Y-82876787D01*
X97182779Y-82875000D01*
X97477221Y-82875000D01*
X97495364Y-82876787D01*
X97495364Y-82876787D01*
G37*
G36*
X135560000Y-87790000D02*
G01*
X134460000Y-87790000D01*
X134460000Y-86790000D01*
X135560000Y-86790000D01*
X135560000Y-87790000D01*
X135560000Y-87790000D01*
G37*
G36*
X102781946Y-86933421D02*
G01*
X102811703Y-86942447D01*
X102839129Y-86957107D01*
X102863166Y-86976834D01*
X102882893Y-87000871D01*
X102897553Y-87028297D01*
X102906579Y-87058054D01*
X102910000Y-87092781D01*
X102910000Y-87607219D01*
X102906579Y-87641946D01*
X102897553Y-87671703D01*
X102882893Y-87699129D01*
X102863166Y-87723166D01*
X102839129Y-87742893D01*
X102811703Y-87757553D01*
X102781946Y-87766579D01*
X102747219Y-87770000D01*
X102282781Y-87770000D01*
X102248054Y-87766579D01*
X102218297Y-87757553D01*
X102190871Y-87742893D01*
X102166834Y-87723166D01*
X102147107Y-87699129D01*
X102132447Y-87671703D01*
X102123421Y-87641946D01*
X102120000Y-87607219D01*
X102120000Y-87092781D01*
X102123421Y-87058054D01*
X102132447Y-87028297D01*
X102147107Y-87000871D01*
X102166834Y-86976834D01*
X102190871Y-86957107D01*
X102218297Y-86942447D01*
X102248054Y-86933421D01*
X102282781Y-86930000D01*
X102747219Y-86930000D01*
X102781946Y-86933421D01*
X102781946Y-86933421D01*
G37*
G36*
X103751946Y-86933421D02*
G01*
X103781703Y-86942447D01*
X103809129Y-86957107D01*
X103833166Y-86976834D01*
X103852893Y-87000871D01*
X103867553Y-87028297D01*
X103876579Y-87058054D01*
X103880000Y-87092781D01*
X103880000Y-87607219D01*
X103876579Y-87641946D01*
X103867553Y-87671703D01*
X103852893Y-87699129D01*
X103833166Y-87723166D01*
X103809129Y-87742893D01*
X103781703Y-87757553D01*
X103751946Y-87766579D01*
X103717219Y-87770000D01*
X103252781Y-87770000D01*
X103218054Y-87766579D01*
X103188297Y-87757553D01*
X103160871Y-87742893D01*
X103136834Y-87723166D01*
X103117107Y-87699129D01*
X103102447Y-87671703D01*
X103093421Y-87641946D01*
X103090000Y-87607219D01*
X103090000Y-87092781D01*
X103093421Y-87058054D01*
X103102447Y-87028297D01*
X103117107Y-87000871D01*
X103136834Y-86976834D01*
X103160871Y-86957107D01*
X103188297Y-86942447D01*
X103218054Y-86933421D01*
X103252781Y-86930000D01*
X103717219Y-86930000D01*
X103751946Y-86933421D01*
X103751946Y-86933421D01*
G37*
G36*
X121654103Y-86372351D02*
G01*
X121737903Y-86389020D01*
X121845780Y-86433704D01*
X121942858Y-86498569D01*
X122025431Y-86581142D01*
X122090296Y-86678220D01*
X122134980Y-86786097D01*
X122138947Y-86806040D01*
X122157760Y-86900618D01*
X122157760Y-87017382D01*
X122155589Y-87028297D01*
X122134980Y-87131903D01*
X122090296Y-87239780D01*
X122025431Y-87336858D01*
X121942858Y-87419431D01*
X121845780Y-87484296D01*
X121737903Y-87528980D01*
X121701123Y-87536296D01*
X121623382Y-87551760D01*
X121506618Y-87551760D01*
X121428877Y-87536296D01*
X121392097Y-87528980D01*
X121284220Y-87484296D01*
X121187142Y-87419431D01*
X121104569Y-87336858D01*
X121039704Y-87239780D01*
X120995020Y-87131903D01*
X120974411Y-87028297D01*
X120972240Y-87017382D01*
X120972240Y-86900618D01*
X120991053Y-86806040D01*
X120995020Y-86786097D01*
X121039704Y-86678220D01*
X121104569Y-86581142D01*
X121187142Y-86498569D01*
X121284220Y-86433704D01*
X121392097Y-86389020D01*
X121475897Y-86372351D01*
X121506618Y-86366240D01*
X121623382Y-86366240D01*
X121654103Y-86372351D01*
X121654103Y-86372351D01*
G37*
G36*
X144601946Y-86333421D02*
G01*
X144631703Y-86342447D01*
X144659129Y-86357107D01*
X144683166Y-86376834D01*
X144702893Y-86400871D01*
X144717553Y-86428297D01*
X144726579Y-86458054D01*
X144730000Y-86492781D01*
X144730000Y-87007219D01*
X144726579Y-87041946D01*
X144717553Y-87071703D01*
X144702893Y-87099129D01*
X144683166Y-87123166D01*
X144659129Y-87142893D01*
X144631703Y-87157553D01*
X144601946Y-87166579D01*
X144567219Y-87170000D01*
X144102781Y-87170000D01*
X144068054Y-87166579D01*
X144038297Y-87157553D01*
X144010871Y-87142893D01*
X143986834Y-87123166D01*
X143967107Y-87099129D01*
X143952447Y-87071703D01*
X143943421Y-87041946D01*
X143940000Y-87007219D01*
X143940000Y-86492781D01*
X143943421Y-86458054D01*
X143952447Y-86428297D01*
X143967107Y-86400871D01*
X143986834Y-86376834D01*
X144010871Y-86357107D01*
X144038297Y-86342447D01*
X144068054Y-86333421D01*
X144102781Y-86330000D01*
X144567219Y-86330000D01*
X144601946Y-86333421D01*
X144601946Y-86333421D01*
G37*
G36*
X143631946Y-86333421D02*
G01*
X143661703Y-86342447D01*
X143689129Y-86357107D01*
X143713166Y-86376834D01*
X143732893Y-86400871D01*
X143747553Y-86428297D01*
X143756579Y-86458054D01*
X143760000Y-86492781D01*
X143760000Y-87007219D01*
X143756579Y-87041946D01*
X143747553Y-87071703D01*
X143732893Y-87099129D01*
X143713166Y-87123166D01*
X143689129Y-87142893D01*
X143661703Y-87157553D01*
X143631946Y-87166579D01*
X143597219Y-87170000D01*
X143132781Y-87170000D01*
X143098054Y-87166579D01*
X143068297Y-87157553D01*
X143040871Y-87142893D01*
X143016834Y-87123166D01*
X142997107Y-87099129D01*
X142982447Y-87071703D01*
X142973421Y-87041946D01*
X142970000Y-87007219D01*
X142970000Y-86492781D01*
X142973421Y-86458054D01*
X142982447Y-86428297D01*
X142997107Y-86400871D01*
X143016834Y-86376834D01*
X143040871Y-86357107D01*
X143068297Y-86342447D01*
X143098054Y-86333421D01*
X143132781Y-86330000D01*
X143597219Y-86330000D01*
X143631946Y-86333421D01*
X143631946Y-86333421D01*
G37*
G36*
X163600000Y-87080000D02*
G01*
X158400000Y-87080000D01*
X158400000Y-82920000D01*
X163600000Y-82920000D01*
X163600000Y-87080000D01*
X163600000Y-87080000D01*
G37*
G36*
X95691946Y-86248421D02*
G01*
X95721703Y-86257447D01*
X95749129Y-86272107D01*
X95773166Y-86291834D01*
X95792893Y-86315871D01*
X95807553Y-86343297D01*
X95816579Y-86373054D01*
X95820000Y-86407781D01*
X95820000Y-86872219D01*
X95816579Y-86906946D01*
X95807553Y-86936703D01*
X95792893Y-86964129D01*
X95773166Y-86988166D01*
X95749129Y-87007893D01*
X95721703Y-87022553D01*
X95691946Y-87031579D01*
X95657219Y-87035000D01*
X95142781Y-87035000D01*
X95108054Y-87031579D01*
X95078297Y-87022553D01*
X95050871Y-87007893D01*
X95026834Y-86988166D01*
X95007107Y-86964129D01*
X94992447Y-86936703D01*
X94983421Y-86906946D01*
X94980000Y-86872219D01*
X94980000Y-86407781D01*
X94983421Y-86373054D01*
X94992447Y-86343297D01*
X95007107Y-86315871D01*
X95026834Y-86291834D01*
X95050871Y-86272107D01*
X95078297Y-86257447D01*
X95108054Y-86248421D01*
X95142781Y-86245000D01*
X95657219Y-86245000D01*
X95691946Y-86248421D01*
X95691946Y-86248421D01*
G37*
G36*
X155466946Y-86183421D02*
G01*
X155496703Y-86192447D01*
X155524129Y-86207107D01*
X155548166Y-86226834D01*
X155567893Y-86250871D01*
X155582553Y-86278297D01*
X155591579Y-86308054D01*
X155595000Y-86342781D01*
X155595000Y-86857219D01*
X155591579Y-86891946D01*
X155582553Y-86921703D01*
X155567893Y-86949129D01*
X155548166Y-86973166D01*
X155524129Y-86992893D01*
X155496703Y-87007553D01*
X155466946Y-87016579D01*
X155432219Y-87020000D01*
X154967781Y-87020000D01*
X154933054Y-87016579D01*
X154903297Y-87007553D01*
X154875871Y-86992893D01*
X154851834Y-86973166D01*
X154832107Y-86949129D01*
X154817447Y-86921703D01*
X154808421Y-86891946D01*
X154805000Y-86857219D01*
X154805000Y-86342781D01*
X154808421Y-86308054D01*
X154817447Y-86278297D01*
X154832107Y-86250871D01*
X154851834Y-86226834D01*
X154875871Y-86207107D01*
X154903297Y-86192447D01*
X154933054Y-86183421D01*
X154967781Y-86180000D01*
X155432219Y-86180000D01*
X155466946Y-86183421D01*
X155466946Y-86183421D01*
G37*
G36*
X156436946Y-86183421D02*
G01*
X156466703Y-86192447D01*
X156494129Y-86207107D01*
X156518166Y-86226834D01*
X156537893Y-86250871D01*
X156552553Y-86278297D01*
X156561579Y-86308054D01*
X156565000Y-86342781D01*
X156565000Y-86857219D01*
X156561579Y-86891946D01*
X156552553Y-86921703D01*
X156537893Y-86949129D01*
X156518166Y-86973166D01*
X156494129Y-86992893D01*
X156466703Y-87007553D01*
X156436946Y-87016579D01*
X156402219Y-87020000D01*
X155937781Y-87020000D01*
X155903054Y-87016579D01*
X155873297Y-87007553D01*
X155845871Y-86992893D01*
X155821834Y-86973166D01*
X155802107Y-86949129D01*
X155787447Y-86921703D01*
X155778421Y-86891946D01*
X155775000Y-86857219D01*
X155775000Y-86342781D01*
X155778421Y-86308054D01*
X155787447Y-86278297D01*
X155802107Y-86250871D01*
X155821834Y-86226834D01*
X155845871Y-86207107D01*
X155873297Y-86192447D01*
X155903054Y-86183421D01*
X155937781Y-86180000D01*
X156402219Y-86180000D01*
X156436946Y-86183421D01*
X156436946Y-86183421D01*
G37*
G36*
X136891946Y-86073421D02*
G01*
X136921703Y-86082447D01*
X136949129Y-86097107D01*
X136973166Y-86116834D01*
X136992893Y-86140871D01*
X137007553Y-86168297D01*
X137016579Y-86198054D01*
X137020000Y-86232781D01*
X137020000Y-86697219D01*
X137016579Y-86731946D01*
X137007553Y-86761703D01*
X136992893Y-86789129D01*
X136973166Y-86813166D01*
X136949129Y-86832893D01*
X136921703Y-86847553D01*
X136891946Y-86856579D01*
X136857219Y-86860000D01*
X136342781Y-86860000D01*
X136308054Y-86856579D01*
X136278297Y-86847553D01*
X136250871Y-86832893D01*
X136226834Y-86813166D01*
X136207107Y-86789129D01*
X136192447Y-86761703D01*
X136183421Y-86731946D01*
X136180000Y-86697219D01*
X136180000Y-86232781D01*
X136183421Y-86198054D01*
X136192447Y-86168297D01*
X136207107Y-86140871D01*
X136226834Y-86116834D01*
X136250871Y-86097107D01*
X136278297Y-86082447D01*
X136308054Y-86073421D01*
X136342781Y-86070000D01*
X136857219Y-86070000D01*
X136891946Y-86073421D01*
X136891946Y-86073421D01*
G37*
G36*
X133560000Y-86840000D02*
G01*
X132460000Y-86840000D01*
X132460000Y-85840000D01*
X133560000Y-85840000D01*
X133560000Y-86840000D01*
X133560000Y-86840000D01*
G37*
G36*
X148050000Y-86800000D02*
G01*
X146750000Y-86800000D01*
X146750000Y-85500000D01*
X148050000Y-85500000D01*
X148050000Y-86800000D01*
X148050000Y-86800000D01*
G37*
G36*
X138041946Y-85993421D02*
G01*
X138071703Y-86002447D01*
X138099129Y-86017107D01*
X138123166Y-86036834D01*
X138142893Y-86060871D01*
X138157553Y-86088297D01*
X138166579Y-86118054D01*
X138170000Y-86152781D01*
X138170000Y-86617219D01*
X138166579Y-86651946D01*
X138157553Y-86681703D01*
X138142893Y-86709129D01*
X138123166Y-86733166D01*
X138099129Y-86752893D01*
X138071703Y-86767553D01*
X138041946Y-86776579D01*
X138007219Y-86780000D01*
X137492781Y-86780000D01*
X137458054Y-86776579D01*
X137428297Y-86767553D01*
X137400871Y-86752893D01*
X137376834Y-86733166D01*
X137357107Y-86709129D01*
X137342447Y-86681703D01*
X137333421Y-86651946D01*
X137330000Y-86617219D01*
X137330000Y-86152781D01*
X137333421Y-86118054D01*
X137342447Y-86088297D01*
X137357107Y-86060871D01*
X137376834Y-86036834D01*
X137400871Y-86017107D01*
X137428297Y-86002447D01*
X137458054Y-85993421D01*
X137492781Y-85990000D01*
X138007219Y-85990000D01*
X138041946Y-85993421D01*
X138041946Y-85993421D01*
G37*
G36*
X94245000Y-86730000D02*
G01*
X91495000Y-86730000D01*
X91495000Y-85470000D01*
X94245000Y-85470000D01*
X94245000Y-86730000D01*
X94245000Y-86730000D01*
G37*
G36*
X131981946Y-85863421D02*
G01*
X132011703Y-85872447D01*
X132039129Y-85887107D01*
X132063166Y-85906834D01*
X132082893Y-85930871D01*
X132097553Y-85958297D01*
X132106579Y-85988054D01*
X132110000Y-86022781D01*
X132110000Y-86537219D01*
X132106579Y-86571946D01*
X132097553Y-86601703D01*
X132082893Y-86629129D01*
X132063166Y-86653166D01*
X132039129Y-86672893D01*
X132011703Y-86687553D01*
X131981946Y-86696579D01*
X131947219Y-86700000D01*
X131482781Y-86700000D01*
X131448054Y-86696579D01*
X131418297Y-86687553D01*
X131390871Y-86672893D01*
X131366834Y-86653166D01*
X131347107Y-86629129D01*
X131332447Y-86601703D01*
X131323421Y-86571946D01*
X131320000Y-86537219D01*
X131320000Y-86022781D01*
X131323421Y-85988054D01*
X131332447Y-85958297D01*
X131347107Y-85930871D01*
X131366834Y-85906834D01*
X131390871Y-85887107D01*
X131418297Y-85872447D01*
X131448054Y-85863421D01*
X131482781Y-85860000D01*
X131947219Y-85860000D01*
X131981946Y-85863421D01*
X131981946Y-85863421D01*
G37*
G36*
X131011946Y-85863421D02*
G01*
X131041703Y-85872447D01*
X131069129Y-85887107D01*
X131093166Y-85906834D01*
X131112893Y-85930871D01*
X131127553Y-85958297D01*
X131136579Y-85988054D01*
X131140000Y-86022781D01*
X131140000Y-86537219D01*
X131136579Y-86571946D01*
X131127553Y-86601703D01*
X131112893Y-86629129D01*
X131093166Y-86653166D01*
X131069129Y-86672893D01*
X131041703Y-86687553D01*
X131011946Y-86696579D01*
X130977219Y-86700000D01*
X130512781Y-86700000D01*
X130478054Y-86696579D01*
X130448297Y-86687553D01*
X130420871Y-86672893D01*
X130396834Y-86653166D01*
X130377107Y-86629129D01*
X130362447Y-86601703D01*
X130353421Y-86571946D01*
X130350000Y-86537219D01*
X130350000Y-86022781D01*
X130353421Y-85988054D01*
X130362447Y-85958297D01*
X130377107Y-85930871D01*
X130396834Y-85906834D01*
X130420871Y-85887107D01*
X130448297Y-85872447D01*
X130478054Y-85863421D01*
X130512781Y-85860000D01*
X130977219Y-85860000D01*
X131011946Y-85863421D01*
X131011946Y-85863421D01*
G37*
G36*
X129121946Y-85543421D02*
G01*
X129151703Y-85552447D01*
X129179129Y-85567107D01*
X129203166Y-85586834D01*
X129222893Y-85610871D01*
X129237553Y-85638297D01*
X129246579Y-85668054D01*
X129250000Y-85702781D01*
X129250000Y-86217219D01*
X129246579Y-86251946D01*
X129237553Y-86281703D01*
X129222893Y-86309129D01*
X129203166Y-86333166D01*
X129179129Y-86352893D01*
X129151703Y-86367553D01*
X129121946Y-86376579D01*
X129087219Y-86380000D01*
X128622781Y-86380000D01*
X128588054Y-86376579D01*
X128558297Y-86367553D01*
X128530871Y-86352893D01*
X128506834Y-86333166D01*
X128487107Y-86309129D01*
X128472447Y-86281703D01*
X128463421Y-86251946D01*
X128460000Y-86217219D01*
X128460000Y-85702781D01*
X128463421Y-85668054D01*
X128472447Y-85638297D01*
X128487107Y-85610871D01*
X128506834Y-85586834D01*
X128530871Y-85567107D01*
X128558297Y-85552447D01*
X128588054Y-85543421D01*
X128622781Y-85540000D01*
X129087219Y-85540000D01*
X129121946Y-85543421D01*
X129121946Y-85543421D01*
G37*
G36*
X128151946Y-85543421D02*
G01*
X128181703Y-85552447D01*
X128209129Y-85567107D01*
X128233166Y-85586834D01*
X128252893Y-85610871D01*
X128267553Y-85638297D01*
X128276579Y-85668054D01*
X128280000Y-85702781D01*
X128280000Y-86217219D01*
X128276579Y-86251946D01*
X128267553Y-86281703D01*
X128252893Y-86309129D01*
X128233166Y-86333166D01*
X128209129Y-86352893D01*
X128181703Y-86367553D01*
X128151946Y-86376579D01*
X128117219Y-86380000D01*
X127652781Y-86380000D01*
X127618054Y-86376579D01*
X127588297Y-86367553D01*
X127560871Y-86352893D01*
X127536834Y-86333166D01*
X127517107Y-86309129D01*
X127502447Y-86281703D01*
X127493421Y-86251946D01*
X127490000Y-86217219D01*
X127490000Y-85702781D01*
X127493421Y-85668054D01*
X127502447Y-85638297D01*
X127517107Y-85610871D01*
X127536834Y-85586834D01*
X127560871Y-85567107D01*
X127588297Y-85552447D01*
X127618054Y-85543421D01*
X127652781Y-85540000D01*
X128117219Y-85540000D01*
X128151946Y-85543421D01*
X128151946Y-85543421D01*
G37*
G36*
X141725000Y-86280000D02*
G01*
X140875000Y-86280000D01*
X140875000Y-85020000D01*
X141725000Y-85020000D01*
X141725000Y-86280000D01*
X141725000Y-86280000D01*
G37*
G36*
X139825000Y-86280000D02*
G01*
X138975000Y-86280000D01*
X138975000Y-85020000D01*
X139825000Y-85020000D01*
X139825000Y-86280000D01*
X139825000Y-86280000D01*
G37*
G36*
X102521946Y-85298421D02*
G01*
X102551703Y-85307447D01*
X102579129Y-85322107D01*
X102603166Y-85341834D01*
X102622893Y-85365871D01*
X102637553Y-85393297D01*
X102646579Y-85423054D01*
X102650000Y-85457781D01*
X102650000Y-85922219D01*
X102646579Y-85956946D01*
X102637553Y-85986703D01*
X102622893Y-86014129D01*
X102603166Y-86038166D01*
X102579129Y-86057893D01*
X102551703Y-86072553D01*
X102521946Y-86081579D01*
X102487219Y-86085000D01*
X101972781Y-86085000D01*
X101938054Y-86081579D01*
X101908297Y-86072553D01*
X101880871Y-86057893D01*
X101856834Y-86038166D01*
X101837107Y-86014129D01*
X101822447Y-85986703D01*
X101813421Y-85956946D01*
X101810000Y-85922219D01*
X101810000Y-85457781D01*
X101813421Y-85423054D01*
X101822447Y-85393297D01*
X101837107Y-85365871D01*
X101856834Y-85341834D01*
X101880871Y-85322107D01*
X101908297Y-85307447D01*
X101938054Y-85298421D01*
X101972781Y-85295000D01*
X102487219Y-85295000D01*
X102521946Y-85298421D01*
X102521946Y-85298421D01*
G37*
G36*
X144601946Y-85183421D02*
G01*
X144631703Y-85192447D01*
X144659129Y-85207107D01*
X144683166Y-85226834D01*
X144702893Y-85250871D01*
X144717553Y-85278297D01*
X144726579Y-85308054D01*
X144730000Y-85342781D01*
X144730000Y-85857219D01*
X144726579Y-85891946D01*
X144717553Y-85921703D01*
X144702893Y-85949129D01*
X144683166Y-85973166D01*
X144659129Y-85992893D01*
X144631703Y-86007553D01*
X144601946Y-86016579D01*
X144567219Y-86020000D01*
X144102781Y-86020000D01*
X144068054Y-86016579D01*
X144038297Y-86007553D01*
X144010871Y-85992893D01*
X143986834Y-85973166D01*
X143967107Y-85949129D01*
X143952447Y-85921703D01*
X143943421Y-85891946D01*
X143940000Y-85857219D01*
X143940000Y-85342781D01*
X143943421Y-85308054D01*
X143952447Y-85278297D01*
X143967107Y-85250871D01*
X143986834Y-85226834D01*
X144010871Y-85207107D01*
X144038297Y-85192447D01*
X144068054Y-85183421D01*
X144102781Y-85180000D01*
X144567219Y-85180000D01*
X144601946Y-85183421D01*
X144601946Y-85183421D01*
G37*
G36*
X143631946Y-85183421D02*
G01*
X143661703Y-85192447D01*
X143689129Y-85207107D01*
X143713166Y-85226834D01*
X143732893Y-85250871D01*
X143747553Y-85278297D01*
X143756579Y-85308054D01*
X143760000Y-85342781D01*
X143760000Y-85857219D01*
X143756579Y-85891946D01*
X143747553Y-85921703D01*
X143732893Y-85949129D01*
X143713166Y-85973166D01*
X143689129Y-85992893D01*
X143661703Y-86007553D01*
X143631946Y-86016579D01*
X143597219Y-86020000D01*
X143132781Y-86020000D01*
X143098054Y-86016579D01*
X143068297Y-86007553D01*
X143040871Y-85992893D01*
X143016834Y-85973166D01*
X142997107Y-85949129D01*
X142982447Y-85921703D01*
X142973421Y-85891946D01*
X142970000Y-85857219D01*
X142970000Y-85342781D01*
X142973421Y-85308054D01*
X142982447Y-85278297D01*
X142997107Y-85250871D01*
X143016834Y-85226834D01*
X143040871Y-85207107D01*
X143068297Y-85192447D01*
X143098054Y-85183421D01*
X143132781Y-85180000D01*
X143597219Y-85180000D01*
X143631946Y-85183421D01*
X143631946Y-85183421D01*
G37*
G36*
X138041946Y-85023421D02*
G01*
X138071703Y-85032447D01*
X138099129Y-85047107D01*
X138123166Y-85066834D01*
X138142893Y-85090871D01*
X138157553Y-85118297D01*
X138166579Y-85148054D01*
X138170000Y-85182781D01*
X138170000Y-85647219D01*
X138166579Y-85681946D01*
X138157553Y-85711703D01*
X138142893Y-85739129D01*
X138123166Y-85763166D01*
X138099129Y-85782893D01*
X138071703Y-85797553D01*
X138041946Y-85806579D01*
X138007219Y-85810000D01*
X137492781Y-85810000D01*
X137458054Y-85806579D01*
X137428297Y-85797553D01*
X137400871Y-85782893D01*
X137376834Y-85763166D01*
X137357107Y-85739129D01*
X137342447Y-85711703D01*
X137333421Y-85681946D01*
X137330000Y-85647219D01*
X137330000Y-85182781D01*
X137333421Y-85148054D01*
X137342447Y-85118297D01*
X137357107Y-85090871D01*
X137376834Y-85066834D01*
X137400871Y-85047107D01*
X137428297Y-85032447D01*
X137458054Y-85023421D01*
X137492781Y-85020000D01*
X138007219Y-85020000D01*
X138041946Y-85023421D01*
X138041946Y-85023421D01*
G37*
G36*
X156050000Y-85700000D02*
G01*
X155050000Y-85700000D01*
X155050000Y-84600000D01*
X156050000Y-84600000D01*
X156050000Y-85700000D01*
X156050000Y-85700000D01*
G37*
G36*
X157950000Y-85700000D02*
G01*
X156950000Y-85700000D01*
X156950000Y-84600000D01*
X157950000Y-84600000D01*
X157950000Y-85700000D01*
X157950000Y-85700000D01*
G37*
G36*
X103601946Y-84803421D02*
G01*
X103631703Y-84812447D01*
X103659129Y-84827107D01*
X103683166Y-84846834D01*
X103702893Y-84870871D01*
X103717553Y-84898297D01*
X103726579Y-84928054D01*
X103730000Y-84962781D01*
X103730000Y-85427219D01*
X103726579Y-85461946D01*
X103717553Y-85491703D01*
X103702893Y-85519129D01*
X103683166Y-85543166D01*
X103659129Y-85562893D01*
X103631703Y-85577553D01*
X103601946Y-85586579D01*
X103567219Y-85590000D01*
X103052781Y-85590000D01*
X103018054Y-85586579D01*
X102988297Y-85577553D01*
X102960871Y-85562893D01*
X102936834Y-85543166D01*
X102917107Y-85519129D01*
X102902447Y-85491703D01*
X102893421Y-85461946D01*
X102890000Y-85427219D01*
X102890000Y-84962781D01*
X102893421Y-84928054D01*
X102902447Y-84898297D01*
X102917107Y-84870871D01*
X102936834Y-84846834D01*
X102960871Y-84827107D01*
X102988297Y-84812447D01*
X103018054Y-84803421D01*
X103052781Y-84800000D01*
X103567219Y-84800000D01*
X103601946Y-84803421D01*
X103601946Y-84803421D01*
G37*
G36*
X136086946Y-84563421D02*
G01*
X136116703Y-84572447D01*
X136144129Y-84587107D01*
X136168166Y-84606834D01*
X136187893Y-84630871D01*
X136202553Y-84658297D01*
X136211579Y-84688054D01*
X136215000Y-84722781D01*
X136215000Y-85237219D01*
X136211579Y-85271946D01*
X136202553Y-85301703D01*
X136187893Y-85329129D01*
X136168166Y-85353166D01*
X136144129Y-85372893D01*
X136116703Y-85387553D01*
X136086946Y-85396579D01*
X136052219Y-85400000D01*
X135587781Y-85400000D01*
X135553054Y-85396579D01*
X135523297Y-85387553D01*
X135495871Y-85372893D01*
X135471834Y-85353166D01*
X135452107Y-85329129D01*
X135437447Y-85301703D01*
X135428421Y-85271946D01*
X135425000Y-85237219D01*
X135425000Y-84722781D01*
X135428421Y-84688054D01*
X135437447Y-84658297D01*
X135452107Y-84630871D01*
X135471834Y-84606834D01*
X135495871Y-84587107D01*
X135523297Y-84572447D01*
X135553054Y-84563421D01*
X135587781Y-84560000D01*
X136052219Y-84560000D01*
X136086946Y-84563421D01*
X136086946Y-84563421D01*
G37*
G36*
X135116946Y-84563421D02*
G01*
X135146703Y-84572447D01*
X135174129Y-84587107D01*
X135198166Y-84606834D01*
X135217893Y-84630871D01*
X135232553Y-84658297D01*
X135241579Y-84688054D01*
X135245000Y-84722781D01*
X135245000Y-85237219D01*
X135241579Y-85271946D01*
X135232553Y-85301703D01*
X135217893Y-85329129D01*
X135198166Y-85353166D01*
X135174129Y-85372893D01*
X135146703Y-85387553D01*
X135116946Y-85396579D01*
X135082219Y-85400000D01*
X134617781Y-85400000D01*
X134583054Y-85396579D01*
X134553297Y-85387553D01*
X134525871Y-85372893D01*
X134501834Y-85353166D01*
X134482107Y-85329129D01*
X134467447Y-85301703D01*
X134458421Y-85271946D01*
X134455000Y-85237219D01*
X134455000Y-84722781D01*
X134458421Y-84688054D01*
X134467447Y-84658297D01*
X134482107Y-84630871D01*
X134501834Y-84606834D01*
X134525871Y-84587107D01*
X134553297Y-84572447D01*
X134583054Y-84563421D01*
X134617781Y-84560000D01*
X135082219Y-84560000D01*
X135116946Y-84563421D01*
X135116946Y-84563421D01*
G37*
G36*
X114816946Y-84533421D02*
G01*
X114846703Y-84542447D01*
X114874129Y-84557107D01*
X114898166Y-84576834D01*
X114917893Y-84600871D01*
X114932553Y-84628297D01*
X114941579Y-84658054D01*
X114945000Y-84692781D01*
X114945000Y-85207219D01*
X114941579Y-85241946D01*
X114932553Y-85271703D01*
X114917893Y-85299129D01*
X114898166Y-85323166D01*
X114874129Y-85342893D01*
X114846703Y-85357553D01*
X114816946Y-85366579D01*
X114782219Y-85370000D01*
X114317781Y-85370000D01*
X114283054Y-85366579D01*
X114253297Y-85357553D01*
X114225871Y-85342893D01*
X114201834Y-85323166D01*
X114182107Y-85299129D01*
X114167447Y-85271703D01*
X114158421Y-85241946D01*
X114155000Y-85207219D01*
X114155000Y-84692781D01*
X114158421Y-84658054D01*
X114167447Y-84628297D01*
X114182107Y-84600871D01*
X114201834Y-84576834D01*
X114225871Y-84557107D01*
X114253297Y-84542447D01*
X114283054Y-84533421D01*
X114317781Y-84530000D01*
X114782219Y-84530000D01*
X114816946Y-84533421D01*
X114816946Y-84533421D01*
G37*
G36*
X115786946Y-84533421D02*
G01*
X115816703Y-84542447D01*
X115844129Y-84557107D01*
X115868166Y-84576834D01*
X115887893Y-84600871D01*
X115902553Y-84628297D01*
X115911579Y-84658054D01*
X115915000Y-84692781D01*
X115915000Y-85207219D01*
X115911579Y-85241946D01*
X115902553Y-85271703D01*
X115887893Y-85299129D01*
X115868166Y-85323166D01*
X115844129Y-85342893D01*
X115816703Y-85357553D01*
X115786946Y-85366579D01*
X115752219Y-85370000D01*
X115287781Y-85370000D01*
X115253054Y-85366579D01*
X115223297Y-85357553D01*
X115195871Y-85342893D01*
X115171834Y-85323166D01*
X115152107Y-85299129D01*
X115137447Y-85271703D01*
X115128421Y-85241946D01*
X115125000Y-85207219D01*
X115125000Y-84692781D01*
X115128421Y-84658054D01*
X115137447Y-84628297D01*
X115152107Y-84600871D01*
X115171834Y-84576834D01*
X115195871Y-84557107D01*
X115223297Y-84542447D01*
X115253054Y-84533421D01*
X115287781Y-84530000D01*
X115752219Y-84530000D01*
X115786946Y-84533421D01*
X115786946Y-84533421D01*
G37*
G36*
X131325000Y-85350000D02*
G01*
X130475000Y-85350000D01*
X130475000Y-84090000D01*
X131325000Y-84090000D01*
X131325000Y-85350000D01*
X131325000Y-85350000D01*
G37*
G36*
X129425000Y-85350000D02*
G01*
X128575000Y-85350000D01*
X128575000Y-84090000D01*
X129425000Y-84090000D01*
X129425000Y-85350000D01*
X129425000Y-85350000D01*
G37*
G36*
X113491946Y-84543421D02*
G01*
X113521703Y-84552447D01*
X113549129Y-84567107D01*
X113573166Y-84586834D01*
X113592893Y-84610871D01*
X113607553Y-84638297D01*
X113616579Y-84668054D01*
X113620000Y-84702781D01*
X113620000Y-85167219D01*
X113616579Y-85201946D01*
X113607553Y-85231703D01*
X113592893Y-85259129D01*
X113573166Y-85283166D01*
X113549129Y-85302893D01*
X113521703Y-85317553D01*
X113491946Y-85326579D01*
X113457219Y-85330000D01*
X112942781Y-85330000D01*
X112908054Y-85326579D01*
X112878297Y-85317553D01*
X112850871Y-85302893D01*
X112826834Y-85283166D01*
X112807107Y-85259129D01*
X112792447Y-85231703D01*
X112783421Y-85201946D01*
X112780000Y-85167219D01*
X112780000Y-84702781D01*
X112783421Y-84668054D01*
X112792447Y-84638297D01*
X112807107Y-84610871D01*
X112826834Y-84586834D01*
X112850871Y-84567107D01*
X112878297Y-84552447D01*
X112908054Y-84543421D01*
X112942781Y-84540000D01*
X113457219Y-84540000D01*
X113491946Y-84543421D01*
X113491946Y-84543421D01*
G37*
G36*
X132541946Y-84303421D02*
G01*
X132571703Y-84312447D01*
X132599129Y-84327107D01*
X132623166Y-84346834D01*
X132642893Y-84370871D01*
X132657553Y-84398297D01*
X132666579Y-84428054D01*
X132670000Y-84462781D01*
X132670000Y-84977219D01*
X132666579Y-85011946D01*
X132657553Y-85041703D01*
X132642893Y-85069129D01*
X132623166Y-85093166D01*
X132599129Y-85112893D01*
X132571703Y-85127553D01*
X132541946Y-85136579D01*
X132507219Y-85140000D01*
X132042781Y-85140000D01*
X132008054Y-85136579D01*
X131978297Y-85127553D01*
X131950871Y-85112893D01*
X131926834Y-85093166D01*
X131907107Y-85069129D01*
X131892447Y-85041703D01*
X131883421Y-85011946D01*
X131880000Y-84977219D01*
X131880000Y-84462781D01*
X131883421Y-84428054D01*
X131892447Y-84398297D01*
X131907107Y-84370871D01*
X131926834Y-84346834D01*
X131950871Y-84327107D01*
X131978297Y-84312447D01*
X132008054Y-84303421D01*
X132042781Y-84300000D01*
X132507219Y-84300000D01*
X132541946Y-84303421D01*
X132541946Y-84303421D01*
G37*
G36*
X133511946Y-84303421D02*
G01*
X133541703Y-84312447D01*
X133569129Y-84327107D01*
X133593166Y-84346834D01*
X133612893Y-84370871D01*
X133627553Y-84398297D01*
X133636579Y-84428054D01*
X133640000Y-84462781D01*
X133640000Y-84977219D01*
X133636579Y-85011946D01*
X133627553Y-85041703D01*
X133612893Y-85069129D01*
X133593166Y-85093166D01*
X133569129Y-85112893D01*
X133541703Y-85127553D01*
X133511946Y-85136579D01*
X133477219Y-85140000D01*
X133012781Y-85140000D01*
X132978054Y-85136579D01*
X132948297Y-85127553D01*
X132920871Y-85112893D01*
X132896834Y-85093166D01*
X132877107Y-85069129D01*
X132862447Y-85041703D01*
X132853421Y-85011946D01*
X132850000Y-84977219D01*
X132850000Y-84462781D01*
X132853421Y-84428054D01*
X132862447Y-84398297D01*
X132877107Y-84370871D01*
X132896834Y-84346834D01*
X132920871Y-84327107D01*
X132948297Y-84312447D01*
X132978054Y-84303421D01*
X133012781Y-84300000D01*
X133477219Y-84300000D01*
X133511946Y-84303421D01*
X133511946Y-84303421D01*
G37*
G36*
X122339594Y-84054789D02*
G01*
X122382722Y-84067872D01*
X122422461Y-84089113D01*
X122457298Y-84117702D01*
X122485887Y-84152539D01*
X122507128Y-84192278D01*
X122520211Y-84235406D01*
X122525000Y-84284031D01*
X122525000Y-84890969D01*
X122520211Y-84939594D01*
X122507128Y-84982722D01*
X122485887Y-85022461D01*
X122457298Y-85057298D01*
X122422461Y-85085887D01*
X122382722Y-85107128D01*
X122339594Y-85120211D01*
X122290969Y-85125000D01*
X121609031Y-85125000D01*
X121560406Y-85120211D01*
X121517278Y-85107128D01*
X121477539Y-85085887D01*
X121442702Y-85057298D01*
X121414113Y-85022461D01*
X121392872Y-84982722D01*
X121379789Y-84939594D01*
X121375000Y-84890969D01*
X121375000Y-84284031D01*
X121379789Y-84235406D01*
X121392872Y-84192278D01*
X121414113Y-84152539D01*
X121442702Y-84117702D01*
X121477539Y-84089113D01*
X121517278Y-84067872D01*
X121560406Y-84054789D01*
X121609031Y-84050000D01*
X122290969Y-84050000D01*
X122339594Y-84054789D01*
X122339594Y-84054789D01*
G37*
G36*
X102521946Y-84328421D02*
G01*
X102551703Y-84337447D01*
X102579129Y-84352107D01*
X102603166Y-84371834D01*
X102622893Y-84395871D01*
X102637553Y-84423297D01*
X102646579Y-84453054D01*
X102650000Y-84487781D01*
X102650000Y-84952219D01*
X102646579Y-84986946D01*
X102637553Y-85016703D01*
X102622893Y-85044129D01*
X102603166Y-85068166D01*
X102579129Y-85087893D01*
X102551703Y-85102553D01*
X102521946Y-85111579D01*
X102487219Y-85115000D01*
X101972781Y-85115000D01*
X101938054Y-85111579D01*
X101908297Y-85102553D01*
X101880871Y-85087893D01*
X101856834Y-85068166D01*
X101837107Y-85044129D01*
X101822447Y-85016703D01*
X101813421Y-84986946D01*
X101810000Y-84952219D01*
X101810000Y-84487781D01*
X101813421Y-84453054D01*
X101822447Y-84423297D01*
X101837107Y-84395871D01*
X101856834Y-84371834D01*
X101880871Y-84352107D01*
X101908297Y-84337447D01*
X101938054Y-84328421D01*
X101972781Y-84325000D01*
X102487219Y-84325000D01*
X102521946Y-84328421D01*
X102521946Y-84328421D01*
G37*
G36*
X120763500Y-85050000D02*
G01*
X119063500Y-85050000D01*
X119063500Y-83850000D01*
X120763500Y-83850000D01*
X120763500Y-85050000D01*
X120763500Y-85050000D01*
G37*
G36*
X127911946Y-84018421D02*
G01*
X127941703Y-84027447D01*
X127969129Y-84042107D01*
X127993166Y-84061834D01*
X128012893Y-84085871D01*
X128027553Y-84113297D01*
X128036579Y-84143054D01*
X128040000Y-84177781D01*
X128040000Y-84642219D01*
X128036579Y-84676946D01*
X128027553Y-84706703D01*
X128012893Y-84734129D01*
X127993166Y-84758166D01*
X127969129Y-84777893D01*
X127941703Y-84792553D01*
X127911946Y-84801579D01*
X127877219Y-84805000D01*
X127362781Y-84805000D01*
X127328054Y-84801579D01*
X127298297Y-84792553D01*
X127270871Y-84777893D01*
X127246834Y-84758166D01*
X127227107Y-84734129D01*
X127212447Y-84706703D01*
X127203421Y-84676946D01*
X127200000Y-84642219D01*
X127200000Y-84177781D01*
X127203421Y-84143054D01*
X127212447Y-84113297D01*
X127227107Y-84085871D01*
X127246834Y-84061834D01*
X127270871Y-84042107D01*
X127298297Y-84027447D01*
X127328054Y-84018421D01*
X127362781Y-84015000D01*
X127877219Y-84015000D01*
X127911946Y-84018421D01*
X127911946Y-84018421D01*
G37*
G36*
X103601946Y-83833421D02*
G01*
X103631703Y-83842447D01*
X103659129Y-83857107D01*
X103683166Y-83876834D01*
X103702893Y-83900871D01*
X103717553Y-83928297D01*
X103726579Y-83958054D01*
X103730000Y-83992781D01*
X103730000Y-84457219D01*
X103726579Y-84491946D01*
X103717553Y-84521703D01*
X103702893Y-84549129D01*
X103683166Y-84573166D01*
X103659129Y-84592893D01*
X103631703Y-84607553D01*
X103601946Y-84616579D01*
X103567219Y-84620000D01*
X103052781Y-84620000D01*
X103018054Y-84616579D01*
X102988297Y-84607553D01*
X102960871Y-84592893D01*
X102936834Y-84573166D01*
X102917107Y-84549129D01*
X102902447Y-84521703D01*
X102893421Y-84491946D01*
X102890000Y-84457219D01*
X102890000Y-83992781D01*
X102893421Y-83958054D01*
X102902447Y-83928297D01*
X102917107Y-83900871D01*
X102936834Y-83876834D01*
X102960871Y-83857107D01*
X102988297Y-83842447D01*
X103018054Y-83833421D01*
X103052781Y-83830000D01*
X103567219Y-83830000D01*
X103601946Y-83833421D01*
X103601946Y-83833421D01*
G37*
G36*
X94245000Y-84530000D02*
G01*
X91495000Y-84530000D01*
X91495000Y-83270000D01*
X94245000Y-83270000D01*
X94245000Y-84530000D01*
X94245000Y-84530000D01*
G37*
G36*
X113491946Y-83573421D02*
G01*
X113521703Y-83582447D01*
X113549129Y-83597107D01*
X113565258Y-83610344D01*
X113577808Y-83618730D01*
X113591754Y-83624507D01*
X113606558Y-83627452D01*
X113621653Y-83627452D01*
X113633702Y-83625056D01*
X113631012Y-83627746D01*
X113622626Y-83640296D01*
X113616849Y-83654242D01*
X113613905Y-83669046D01*
X113613905Y-83684141D01*
X113616488Y-83697131D01*
X113620000Y-83732781D01*
X113620000Y-84197219D01*
X113616579Y-84231946D01*
X113607553Y-84261703D01*
X113592893Y-84289129D01*
X113573166Y-84313166D01*
X113549129Y-84332893D01*
X113521703Y-84347553D01*
X113491946Y-84356579D01*
X113457219Y-84360000D01*
X112942781Y-84360000D01*
X112908054Y-84356579D01*
X112878297Y-84347553D01*
X112850871Y-84332893D01*
X112826834Y-84313166D01*
X112807107Y-84289129D01*
X112792447Y-84261703D01*
X112783421Y-84231946D01*
X112780000Y-84197219D01*
X112780000Y-83732781D01*
X112783421Y-83698054D01*
X112792447Y-83668297D01*
X112807107Y-83640871D01*
X112826834Y-83616834D01*
X112850871Y-83597107D01*
X112878297Y-83582447D01*
X112908054Y-83573421D01*
X112942781Y-83570000D01*
X113457219Y-83570000D01*
X113491946Y-83573421D01*
X113491946Y-83573421D01*
G37*
G36*
X116291500Y-81673001D02*
G01*
X116292980Y-81688023D01*
X116297361Y-81702467D01*
X116304477Y-81715779D01*
X116314052Y-81727448D01*
X116325721Y-81737023D01*
X116339033Y-81744139D01*
X116353477Y-81748520D01*
X116368499Y-81750000D01*
X117832701Y-81750000D01*
X117847723Y-81748520D01*
X117862167Y-81744139D01*
X117875479Y-81737023D01*
X117887148Y-81727448D01*
X117896723Y-81715779D01*
X117903839Y-81702467D01*
X117908220Y-81688023D01*
X117909700Y-81673001D01*
X117909700Y-81657934D01*
X118021341Y-81736083D01*
X118034493Y-81743483D01*
X118048839Y-81748177D01*
X118065494Y-81750000D01*
X118120000Y-81750000D01*
X118120000Y-81765054D01*
X118121480Y-81780076D01*
X118125861Y-81794520D01*
X118132977Y-81807832D01*
X118142552Y-81819501D01*
X118152843Y-81828134D01*
X118223860Y-81877846D01*
X118875466Y-82333970D01*
X118878481Y-82336081D01*
X118891636Y-82343483D01*
X118905982Y-82348177D01*
X118922637Y-82350000D01*
X120767000Y-82350000D01*
X120767000Y-83550000D01*
X118922637Y-83550000D01*
X118907615Y-83551480D01*
X118893171Y-83555861D01*
X118878483Y-83563918D01*
X118451937Y-83862500D01*
X118152843Y-84071866D01*
X118141385Y-84081692D01*
X118132064Y-84093565D01*
X118125239Y-84107029D01*
X118121172Y-84121565D01*
X118120000Y-84134946D01*
X118120000Y-84150000D01*
X118065494Y-84150000D01*
X118050472Y-84151480D01*
X118036028Y-84155861D01*
X118021341Y-84163918D01*
X117909700Y-84242066D01*
X117909700Y-84226999D01*
X117908220Y-84211977D01*
X117903839Y-84197533D01*
X117896723Y-84184221D01*
X117887148Y-84172552D01*
X117875479Y-84162977D01*
X117862167Y-84155861D01*
X117847723Y-84151480D01*
X117832701Y-84150000D01*
X116368499Y-84150000D01*
X116353477Y-84151480D01*
X116339033Y-84155861D01*
X116325721Y-84162977D01*
X116314052Y-84172552D01*
X116304477Y-84184221D01*
X116297361Y-84197533D01*
X116292980Y-84211977D01*
X116291500Y-84226999D01*
X116291500Y-84242992D01*
X116179726Y-84164093D01*
X116166600Y-84156639D01*
X116152273Y-84151889D01*
X116135322Y-84150000D01*
X116080000Y-84150000D01*
X116080000Y-84133596D01*
X116078520Y-84118574D01*
X116074139Y-84104130D01*
X116067023Y-84090818D01*
X116057448Y-84079149D01*
X116047405Y-84070690D01*
X115241500Y-83501816D01*
X115241500Y-82398184D01*
X116047405Y-81829310D01*
X116058824Y-81819438D01*
X116068098Y-81807529D01*
X116074870Y-81794039D01*
X116078880Y-81779487D01*
X116080000Y-81766404D01*
X116080000Y-81750000D01*
X116135322Y-81750000D01*
X116150344Y-81748520D01*
X116164788Y-81744139D01*
X116179726Y-81735907D01*
X116291500Y-81657008D01*
X116291500Y-81673001D01*
X116291500Y-81673001D01*
G37*
G36*
X145099998Y-81464516D02*
G01*
X145100000Y-81464516D01*
X145113026Y-81465799D01*
X145119604Y-81466447D01*
X145138449Y-81472163D01*
X145138451Y-81472164D01*
X145138454Y-81472165D01*
X145155826Y-81481451D01*
X145171053Y-81493947D01*
X145183549Y-81509174D01*
X145192835Y-81526546D01*
X145192836Y-81526549D01*
X145192837Y-81526551D01*
X145198553Y-81545396D01*
X145200856Y-81568779D01*
X145200856Y-81981221D01*
X145198553Y-82004604D01*
X145193883Y-82020001D01*
X145192835Y-82023454D01*
X145183549Y-82040826D01*
X145175068Y-82051161D01*
X145166688Y-82063700D01*
X145160911Y-82077646D01*
X145157966Y-82092450D01*
X145157965Y-82107544D01*
X145160910Y-82122349D01*
X145166686Y-82136294D01*
X145175068Y-82148839D01*
X145183549Y-82159174D01*
X145192835Y-82176546D01*
X145192836Y-82176549D01*
X145192837Y-82176551D01*
X145198553Y-82195396D01*
X145198839Y-82198297D01*
X145199823Y-82208285D01*
X145200856Y-82218779D01*
X145200856Y-82631221D01*
X145198553Y-82654604D01*
X145192887Y-82673285D01*
X145192835Y-82673454D01*
X145183549Y-82690826D01*
X145175068Y-82701161D01*
X145166688Y-82713700D01*
X145160911Y-82727646D01*
X145157966Y-82742450D01*
X145157965Y-82757544D01*
X145160910Y-82772349D01*
X145166686Y-82786294D01*
X145175068Y-82798839D01*
X145183549Y-82809174D01*
X145192835Y-82826546D01*
X145192836Y-82826549D01*
X145192837Y-82826551D01*
X145198553Y-82845396D01*
X145200856Y-82868779D01*
X145200856Y-83281221D01*
X145198553Y-83304604D01*
X145195106Y-83315969D01*
X145192835Y-83323454D01*
X145183549Y-83340826D01*
X145175068Y-83351161D01*
X145166688Y-83363700D01*
X145160911Y-83377646D01*
X145157966Y-83392450D01*
X145157965Y-83407544D01*
X145160910Y-83422349D01*
X145166686Y-83436294D01*
X145175068Y-83448839D01*
X145183549Y-83459174D01*
X145192835Y-83476546D01*
X145192836Y-83476549D01*
X145192837Y-83476551D01*
X145198553Y-83495396D01*
X145200856Y-83518779D01*
X145200856Y-83931221D01*
X145200484Y-83934998D01*
X145200484Y-83935000D01*
X145199553Y-83944448D01*
X145198553Y-83954604D01*
X145195793Y-83963704D01*
X145192835Y-83973454D01*
X145183549Y-83990826D01*
X145171053Y-84006053D01*
X145155826Y-84018549D01*
X145138454Y-84027835D01*
X145138451Y-84027836D01*
X145138449Y-84027837D01*
X145119604Y-84033553D01*
X145113026Y-84034201D01*
X145100000Y-84035484D01*
X145099998Y-84035484D01*
X145096221Y-84035856D01*
X142853779Y-84035856D01*
X142850002Y-84035484D01*
X142850000Y-84035484D01*
X142836974Y-84034201D01*
X142830396Y-84033553D01*
X142811551Y-84027837D01*
X142811549Y-84027836D01*
X142811546Y-84027835D01*
X142794174Y-84018549D01*
X142778947Y-84006053D01*
X142766451Y-83990826D01*
X142757165Y-83973454D01*
X142754208Y-83963704D01*
X142751447Y-83954604D01*
X142750447Y-83944448D01*
X142749516Y-83935000D01*
X142749516Y-83934998D01*
X142749144Y-83931221D01*
X142749144Y-81568779D01*
X142751447Y-81545396D01*
X142757163Y-81526551D01*
X142757164Y-81526549D01*
X142757165Y-81526546D01*
X142766451Y-81509174D01*
X142778947Y-81493947D01*
X142794174Y-81481451D01*
X142811546Y-81472165D01*
X142811549Y-81472164D01*
X142811551Y-81472163D01*
X142830396Y-81466447D01*
X142836974Y-81465799D01*
X142850000Y-81464516D01*
X142850002Y-81464516D01*
X142853779Y-81464144D01*
X145096221Y-81464144D01*
X145099998Y-81464516D01*
X145099998Y-81464516D01*
G37*
G36*
X142200000Y-84035000D02*
G01*
X141300000Y-84035000D01*
X141300000Y-81465000D01*
X142200000Y-81465000D01*
X142200000Y-84035000D01*
X142200000Y-84035000D01*
G37*
G36*
X148050000Y-84000000D02*
G01*
X146750000Y-84000000D01*
X146750000Y-82700000D01*
X148050000Y-82700000D01*
X148050000Y-84000000D01*
X148050000Y-84000000D01*
G37*
G36*
X127911946Y-83048421D02*
G01*
X127941703Y-83057447D01*
X127969129Y-83072107D01*
X127993166Y-83091834D01*
X128012893Y-83115871D01*
X128027553Y-83143297D01*
X128036579Y-83173054D01*
X128040000Y-83207781D01*
X128040000Y-83672219D01*
X128036579Y-83706946D01*
X128027553Y-83736703D01*
X128012893Y-83764129D01*
X127993166Y-83788166D01*
X127969129Y-83807893D01*
X127941703Y-83822553D01*
X127911946Y-83831579D01*
X127877219Y-83835000D01*
X127362781Y-83835000D01*
X127328054Y-83831579D01*
X127298297Y-83822553D01*
X127270871Y-83807893D01*
X127246834Y-83788166D01*
X127227107Y-83764129D01*
X127212447Y-83736703D01*
X127203421Y-83706946D01*
X127200000Y-83672219D01*
X127200000Y-83207781D01*
X127203421Y-83173054D01*
X127212447Y-83143297D01*
X127227107Y-83115871D01*
X127246834Y-83091834D01*
X127270871Y-83072107D01*
X127298297Y-83057447D01*
X127328054Y-83048421D01*
X127362781Y-83045000D01*
X127877219Y-83045000D01*
X127911946Y-83048421D01*
X127911946Y-83048421D01*
G37*
G36*
X157000000Y-83700000D02*
G01*
X156000000Y-83700000D01*
X156000000Y-82600000D01*
X157000000Y-82600000D01*
X157000000Y-83700000D01*
X157000000Y-83700000D01*
G37*
G36*
X152235851Y-81525364D02*
G01*
X152320860Y-81542273D01*
X152521048Y-81625194D01*
X152701204Y-81745570D01*
X152854430Y-81898796D01*
X152974806Y-82078952D01*
X153057727Y-82279140D01*
X153071335Y-82347553D01*
X153100000Y-82491659D01*
X153100000Y-82708341D01*
X153078171Y-82818080D01*
X153057727Y-82920860D01*
X152974806Y-83121048D01*
X152854430Y-83301204D01*
X152701204Y-83454430D01*
X152521048Y-83574806D01*
X152320860Y-83657727D01*
X152263955Y-83669046D01*
X152108341Y-83700000D01*
X151891659Y-83700000D01*
X151736045Y-83669046D01*
X151679140Y-83657727D01*
X151478952Y-83574806D01*
X151298796Y-83454430D01*
X151145570Y-83301204D01*
X151025194Y-83121048D01*
X150942273Y-82920860D01*
X150921829Y-82818080D01*
X150900000Y-82708341D01*
X150900000Y-82491659D01*
X150928665Y-82347553D01*
X150942273Y-82279140D01*
X151025194Y-82078952D01*
X151145570Y-81898796D01*
X151298796Y-81745570D01*
X151478952Y-81625194D01*
X151679140Y-81542273D01*
X151764149Y-81525364D01*
X151891659Y-81500000D01*
X152108341Y-81500000D01*
X152235851Y-81525364D01*
X152235851Y-81525364D01*
G37*
G36*
X114639594Y-82617289D02*
G01*
X114682722Y-82630372D01*
X114722461Y-82651613D01*
X114757298Y-82680202D01*
X114785887Y-82715039D01*
X114807128Y-82754778D01*
X114820211Y-82797906D01*
X114825000Y-82846531D01*
X114825000Y-83453469D01*
X114820211Y-83502094D01*
X114807128Y-83545222D01*
X114785887Y-83584961D01*
X114757298Y-83619798D01*
X114722461Y-83648387D01*
X114682722Y-83669628D01*
X114639594Y-83682711D01*
X114590969Y-83687500D01*
X113909031Y-83687500D01*
X113860406Y-83682711D01*
X113817278Y-83669628D01*
X113777536Y-83648385D01*
X113739380Y-83617072D01*
X113726830Y-83608686D01*
X113712884Y-83602909D01*
X113698080Y-83599965D01*
X113682985Y-83599965D01*
X113670938Y-83602361D01*
X113673627Y-83599673D01*
X113682013Y-83587123D01*
X113687790Y-83573177D01*
X113690735Y-83558373D01*
X113690735Y-83543278D01*
X113687791Y-83528473D01*
X113679789Y-83502094D01*
X113675000Y-83453469D01*
X113675000Y-82846531D01*
X113679789Y-82797906D01*
X113692872Y-82754778D01*
X113714113Y-82715039D01*
X113742702Y-82680202D01*
X113777539Y-82651613D01*
X113817278Y-82630372D01*
X113860406Y-82617289D01*
X113909031Y-82612500D01*
X114590969Y-82612500D01*
X114639594Y-82617289D01*
X114639594Y-82617289D01*
G37*
G36*
X102506946Y-82793421D02*
G01*
X102536703Y-82802447D01*
X102564129Y-82817107D01*
X102588166Y-82836834D01*
X102607893Y-82860871D01*
X102622553Y-82888297D01*
X102631579Y-82918054D01*
X102635000Y-82952781D01*
X102635000Y-83467219D01*
X102631579Y-83501946D01*
X102622553Y-83531703D01*
X102607893Y-83559129D01*
X102588166Y-83583166D01*
X102564129Y-83602893D01*
X102536703Y-83617553D01*
X102506946Y-83626579D01*
X102472219Y-83630000D01*
X102007781Y-83630000D01*
X101973054Y-83626579D01*
X101943297Y-83617553D01*
X101915871Y-83602893D01*
X101891834Y-83583166D01*
X101872107Y-83559129D01*
X101857447Y-83531703D01*
X101848421Y-83501946D01*
X101845000Y-83467219D01*
X101845000Y-82952781D01*
X101848421Y-82918054D01*
X101857447Y-82888297D01*
X101872107Y-82860871D01*
X101891834Y-82836834D01*
X101915871Y-82817107D01*
X101943297Y-82802447D01*
X101973054Y-82793421D01*
X102007781Y-82790000D01*
X102472219Y-82790000D01*
X102506946Y-82793421D01*
X102506946Y-82793421D01*
G37*
G36*
X101536946Y-82793421D02*
G01*
X101566703Y-82802447D01*
X101594129Y-82817107D01*
X101618166Y-82836834D01*
X101637893Y-82860871D01*
X101652553Y-82888297D01*
X101661579Y-82918054D01*
X101665000Y-82952781D01*
X101665000Y-83467219D01*
X101661579Y-83501946D01*
X101652553Y-83531703D01*
X101637893Y-83559129D01*
X101618166Y-83583166D01*
X101594129Y-83602893D01*
X101566703Y-83617553D01*
X101536946Y-83626579D01*
X101502219Y-83630000D01*
X101037781Y-83630000D01*
X101003054Y-83626579D01*
X100973297Y-83617553D01*
X100945871Y-83602893D01*
X100921834Y-83583166D01*
X100902107Y-83559129D01*
X100887447Y-83531703D01*
X100878421Y-83501946D01*
X100875000Y-83467219D01*
X100875000Y-82952781D01*
X100878421Y-82918054D01*
X100887447Y-82888297D01*
X100902107Y-82860871D01*
X100921834Y-82836834D01*
X100945871Y-82817107D01*
X100973297Y-82802447D01*
X101003054Y-82793421D01*
X101037781Y-82790000D01*
X101502219Y-82790000D01*
X101536946Y-82793421D01*
X101536946Y-82793421D01*
G37*
G36*
X122339594Y-82479789D02*
G01*
X122382722Y-82492872D01*
X122422461Y-82514113D01*
X122457298Y-82542702D01*
X122485887Y-82577539D01*
X122507128Y-82617278D01*
X122520211Y-82660406D01*
X122525000Y-82709031D01*
X122525000Y-83315969D01*
X122520211Y-83364594D01*
X122507128Y-83407722D01*
X122485887Y-83447461D01*
X122457298Y-83482298D01*
X122422461Y-83510887D01*
X122382722Y-83532128D01*
X122339594Y-83545211D01*
X122290969Y-83550000D01*
X121609031Y-83550000D01*
X121560406Y-83545211D01*
X121517278Y-83532128D01*
X121477539Y-83510887D01*
X121442702Y-83482298D01*
X121414113Y-83447461D01*
X121392872Y-83407722D01*
X121379789Y-83364594D01*
X121375000Y-83315969D01*
X121375000Y-82709031D01*
X121379789Y-82660406D01*
X121392872Y-82617278D01*
X121414113Y-82577539D01*
X121442702Y-82542702D01*
X121477539Y-82514113D01*
X121517278Y-82492872D01*
X121560406Y-82479789D01*
X121609031Y-82475000D01*
X122290969Y-82475000D01*
X122339594Y-82479789D01*
X122339594Y-82479789D01*
G37*
G36*
X123541946Y-82643421D02*
G01*
X123571703Y-82652447D01*
X123599129Y-82667107D01*
X123623166Y-82686834D01*
X123642893Y-82710871D01*
X123657553Y-82738297D01*
X123666579Y-82768054D01*
X123670000Y-82802781D01*
X123670000Y-83267219D01*
X123666579Y-83301946D01*
X123657553Y-83331703D01*
X123642893Y-83359129D01*
X123623166Y-83383166D01*
X123599129Y-83402893D01*
X123571703Y-83417553D01*
X123541946Y-83426579D01*
X123507219Y-83430000D01*
X122992781Y-83430000D01*
X122958054Y-83426579D01*
X122928297Y-83417553D01*
X122900871Y-83402893D01*
X122876834Y-83383166D01*
X122857107Y-83359129D01*
X122842447Y-83331703D01*
X122833421Y-83301946D01*
X122830000Y-83267219D01*
X122830000Y-82802781D01*
X122833421Y-82768054D01*
X122842447Y-82738297D01*
X122857107Y-82710871D01*
X122876834Y-82686834D01*
X122900871Y-82667107D01*
X122928297Y-82652447D01*
X122958054Y-82643421D01*
X122992781Y-82640000D01*
X123507219Y-82640000D01*
X123541946Y-82643421D01*
X123541946Y-82643421D01*
G37*
G36*
X113191946Y-82543421D02*
G01*
X113221703Y-82552447D01*
X113249129Y-82567107D01*
X113273166Y-82586834D01*
X113292893Y-82610871D01*
X113307553Y-82638297D01*
X113316579Y-82668054D01*
X113320000Y-82702781D01*
X113320000Y-83167219D01*
X113316579Y-83201946D01*
X113307553Y-83231703D01*
X113292893Y-83259129D01*
X113273166Y-83283166D01*
X113249129Y-83302893D01*
X113221703Y-83317553D01*
X113191946Y-83326579D01*
X113157219Y-83330000D01*
X112642781Y-83330000D01*
X112608054Y-83326579D01*
X112578297Y-83317553D01*
X112550871Y-83302893D01*
X112526834Y-83283166D01*
X112507107Y-83259129D01*
X112492447Y-83231703D01*
X112483421Y-83201946D01*
X112480000Y-83167219D01*
X112480000Y-82702781D01*
X112483421Y-82668054D01*
X112492447Y-82638297D01*
X112507107Y-82610871D01*
X112526834Y-82586834D01*
X112550871Y-82567107D01*
X112578297Y-82552447D01*
X112608054Y-82543421D01*
X112642781Y-82540000D01*
X113157219Y-82540000D01*
X113191946Y-82543421D01*
X113191946Y-82543421D01*
G37*
G36*
X131325000Y-83150000D02*
G01*
X128575000Y-83150000D01*
X128575000Y-81890000D01*
X131325000Y-81890000D01*
X131325000Y-83150000D01*
X131325000Y-83150000D01*
G37*
G36*
X92201946Y-82178421D02*
G01*
X92231703Y-82187447D01*
X92259129Y-82202107D01*
X92283166Y-82221834D01*
X92302893Y-82245871D01*
X92317553Y-82273297D01*
X92326579Y-82303054D01*
X92330000Y-82337781D01*
X92330000Y-82852219D01*
X92326579Y-82886946D01*
X92317553Y-82916703D01*
X92302893Y-82944129D01*
X92283166Y-82968166D01*
X92259129Y-82987893D01*
X92231703Y-83002553D01*
X92201946Y-83011579D01*
X92167219Y-83015000D01*
X91702781Y-83015000D01*
X91668054Y-83011579D01*
X91638297Y-83002553D01*
X91610871Y-82987893D01*
X91586834Y-82968166D01*
X91567107Y-82944129D01*
X91552447Y-82916703D01*
X91543421Y-82886946D01*
X91540000Y-82852219D01*
X91540000Y-82337781D01*
X91543421Y-82303054D01*
X91552447Y-82273297D01*
X91567107Y-82245871D01*
X91586834Y-82221834D01*
X91610871Y-82202107D01*
X91638297Y-82187447D01*
X91668054Y-82178421D01*
X91702781Y-82175000D01*
X92167219Y-82175000D01*
X92201946Y-82178421D01*
X92201946Y-82178421D01*
G37*
G36*
X93171946Y-82178421D02*
G01*
X93201703Y-82187447D01*
X93229129Y-82202107D01*
X93253166Y-82221834D01*
X93272893Y-82245871D01*
X93287553Y-82273297D01*
X93296579Y-82303054D01*
X93300000Y-82337781D01*
X93300000Y-82852219D01*
X93296579Y-82886946D01*
X93287553Y-82916703D01*
X93272893Y-82944129D01*
X93253166Y-82968166D01*
X93229129Y-82987893D01*
X93201703Y-83002553D01*
X93171946Y-83011579D01*
X93137219Y-83015000D01*
X92672781Y-83015000D01*
X92638054Y-83011579D01*
X92608297Y-83002553D01*
X92580871Y-82987893D01*
X92556834Y-82968166D01*
X92537107Y-82944129D01*
X92522447Y-82916703D01*
X92513421Y-82886946D01*
X92510000Y-82852219D01*
X92510000Y-82337781D01*
X92513421Y-82303054D01*
X92522447Y-82273297D01*
X92537107Y-82245871D01*
X92556834Y-82221834D01*
X92580871Y-82202107D01*
X92608297Y-82187447D01*
X92638054Y-82178421D01*
X92672781Y-82175000D01*
X93137219Y-82175000D01*
X93171946Y-82178421D01*
X93171946Y-82178421D01*
G37*
G36*
X133176946Y-82103421D02*
G01*
X133206703Y-82112447D01*
X133234129Y-82127107D01*
X133258166Y-82146834D01*
X133277893Y-82170871D01*
X133292553Y-82198297D01*
X133301579Y-82228054D01*
X133305000Y-82262781D01*
X133305000Y-82777219D01*
X133301579Y-82811946D01*
X133292553Y-82841703D01*
X133277893Y-82869129D01*
X133258166Y-82893166D01*
X133234129Y-82912893D01*
X133206703Y-82927553D01*
X133176946Y-82936579D01*
X133142219Y-82940000D01*
X132677781Y-82940000D01*
X132643054Y-82936579D01*
X132613297Y-82927553D01*
X132585871Y-82912893D01*
X132561834Y-82893166D01*
X132542107Y-82869129D01*
X132527447Y-82841703D01*
X132518421Y-82811946D01*
X132515000Y-82777219D01*
X132515000Y-82262781D01*
X132518421Y-82228054D01*
X132527447Y-82198297D01*
X132542107Y-82170871D01*
X132561834Y-82146834D01*
X132585871Y-82127107D01*
X132613297Y-82112447D01*
X132643054Y-82103421D01*
X132677781Y-82100000D01*
X133142219Y-82100000D01*
X133176946Y-82103421D01*
X133176946Y-82103421D01*
G37*
G36*
X132206946Y-82103421D02*
G01*
X132236703Y-82112447D01*
X132264129Y-82127107D01*
X132288166Y-82146834D01*
X132307893Y-82170871D01*
X132322553Y-82198297D01*
X132331579Y-82228054D01*
X132335000Y-82262781D01*
X132335000Y-82777219D01*
X132331579Y-82811946D01*
X132322553Y-82841703D01*
X132307893Y-82869129D01*
X132288166Y-82893166D01*
X132264129Y-82912893D01*
X132236703Y-82927553D01*
X132206946Y-82936579D01*
X132172219Y-82940000D01*
X131707781Y-82940000D01*
X131673054Y-82936579D01*
X131643297Y-82927553D01*
X131615871Y-82912893D01*
X131591834Y-82893166D01*
X131572107Y-82869129D01*
X131557447Y-82841703D01*
X131548421Y-82811946D01*
X131545000Y-82777219D01*
X131545000Y-82262781D01*
X131548421Y-82228054D01*
X131557447Y-82198297D01*
X131572107Y-82170871D01*
X131591834Y-82146834D01*
X131615871Y-82127107D01*
X131643297Y-82112447D01*
X131673054Y-82103421D01*
X131707781Y-82100000D01*
X132172219Y-82100000D01*
X132206946Y-82103421D01*
X132206946Y-82103421D01*
G37*
G36*
X96356946Y-81963421D02*
G01*
X96386703Y-81972447D01*
X96414129Y-81987107D01*
X96438166Y-82006834D01*
X96457893Y-82030871D01*
X96472553Y-82058297D01*
X96481579Y-82088054D01*
X96485000Y-82122781D01*
X96485000Y-82637219D01*
X96481579Y-82671946D01*
X96472553Y-82701703D01*
X96457893Y-82729129D01*
X96438166Y-82753166D01*
X96414129Y-82772893D01*
X96386703Y-82787553D01*
X96356946Y-82796579D01*
X96322219Y-82800000D01*
X95857781Y-82800000D01*
X95823054Y-82796579D01*
X95793297Y-82787553D01*
X95765871Y-82772893D01*
X95741834Y-82753166D01*
X95722107Y-82729129D01*
X95707447Y-82701703D01*
X95698421Y-82671946D01*
X95695000Y-82637219D01*
X95695000Y-82122781D01*
X95698421Y-82088054D01*
X95707447Y-82058297D01*
X95722107Y-82030871D01*
X95741834Y-82006834D01*
X95765871Y-81987107D01*
X95793297Y-81972447D01*
X95823054Y-81963421D01*
X95857781Y-81960000D01*
X96322219Y-81960000D01*
X96356946Y-81963421D01*
X96356946Y-81963421D01*
G37*
G36*
X95386946Y-81963421D02*
G01*
X95416703Y-81972447D01*
X95444129Y-81987107D01*
X95468166Y-82006834D01*
X95487893Y-82030871D01*
X95502553Y-82058297D01*
X95511579Y-82088054D01*
X95515000Y-82122781D01*
X95515000Y-82637219D01*
X95511579Y-82671946D01*
X95502553Y-82701703D01*
X95487893Y-82729129D01*
X95468166Y-82753166D01*
X95444129Y-82772893D01*
X95416703Y-82787553D01*
X95386946Y-82796579D01*
X95352219Y-82800000D01*
X94887781Y-82800000D01*
X94853054Y-82796579D01*
X94823297Y-82787553D01*
X94795871Y-82772893D01*
X94771834Y-82753166D01*
X94752107Y-82729129D01*
X94737447Y-82701703D01*
X94728421Y-82671946D01*
X94725000Y-82637219D01*
X94725000Y-82122781D01*
X94728421Y-82088054D01*
X94737447Y-82058297D01*
X94752107Y-82030871D01*
X94771834Y-82006834D01*
X94795871Y-81987107D01*
X94823297Y-81972447D01*
X94853054Y-81963421D01*
X94887781Y-81960000D01*
X95352219Y-81960000D01*
X95386946Y-81963421D01*
X95386946Y-81963421D01*
G37*
G36*
X140641975Y-81205270D02*
G01*
X140689786Y-81219773D01*
X140733855Y-81243328D01*
X140772476Y-81275024D01*
X140804172Y-81313645D01*
X140827727Y-81357714D01*
X140842230Y-81405525D01*
X140847500Y-81459030D01*
X140847500Y-82540970D01*
X140842230Y-82594475D01*
X140827727Y-82642286D01*
X140804172Y-82686355D01*
X140772476Y-82724976D01*
X140733855Y-82756672D01*
X140689786Y-82780227D01*
X140641975Y-82794730D01*
X140588470Y-82800000D01*
X139931530Y-82800000D01*
X139878025Y-82794730D01*
X139830214Y-82780227D01*
X139786145Y-82756672D01*
X139747524Y-82724976D01*
X139715828Y-82686355D01*
X139692273Y-82642286D01*
X139677770Y-82594475D01*
X139672500Y-82540970D01*
X139672500Y-81459030D01*
X139677770Y-81405525D01*
X139692273Y-81357714D01*
X139715828Y-81313645D01*
X139747524Y-81275024D01*
X139786145Y-81243328D01*
X139830214Y-81219773D01*
X139878025Y-81205270D01*
X139931530Y-81200000D01*
X140588470Y-81200000D01*
X140641975Y-81205270D01*
X140641975Y-81205270D01*
G37*
G36*
X138766975Y-81205270D02*
G01*
X138814786Y-81219773D01*
X138858855Y-81243328D01*
X138897476Y-81275024D01*
X138929172Y-81313645D01*
X138952727Y-81357714D01*
X138967230Y-81405525D01*
X138972500Y-81459030D01*
X138972500Y-82540970D01*
X138967230Y-82594475D01*
X138952727Y-82642286D01*
X138929172Y-82686355D01*
X138897476Y-82724976D01*
X138858855Y-82756672D01*
X138814786Y-82780227D01*
X138766975Y-82794730D01*
X138713470Y-82800000D01*
X138056530Y-82800000D01*
X138003025Y-82794730D01*
X137955214Y-82780227D01*
X137911145Y-82756672D01*
X137872524Y-82724976D01*
X137840828Y-82686355D01*
X137817273Y-82642286D01*
X137802770Y-82594475D01*
X137797500Y-82540970D01*
X137797500Y-81459030D01*
X137802770Y-81405525D01*
X137817273Y-81357714D01*
X137840828Y-81313645D01*
X137872524Y-81275024D01*
X137911145Y-81243328D01*
X137955214Y-81219773D01*
X138003025Y-81205270D01*
X138056530Y-81200000D01*
X138713470Y-81200000D01*
X138766975Y-81205270D01*
X138766975Y-81205270D01*
G37*
G36*
X99746946Y-81823421D02*
G01*
X99776703Y-81832447D01*
X99804129Y-81847107D01*
X99828166Y-81866834D01*
X99847893Y-81890871D01*
X99862553Y-81918297D01*
X99871579Y-81948054D01*
X99875000Y-81982781D01*
X99875000Y-82497219D01*
X99871579Y-82531946D01*
X99862553Y-82561703D01*
X99847893Y-82589129D01*
X99828166Y-82613166D01*
X99804129Y-82632893D01*
X99776703Y-82647553D01*
X99746946Y-82656579D01*
X99712219Y-82660000D01*
X99247781Y-82660000D01*
X99213054Y-82656579D01*
X99183297Y-82647553D01*
X99155871Y-82632893D01*
X99131834Y-82613166D01*
X99112107Y-82589129D01*
X99097447Y-82561703D01*
X99088421Y-82531946D01*
X99085000Y-82497219D01*
X99085000Y-81982781D01*
X99088421Y-81948054D01*
X99097447Y-81918297D01*
X99112107Y-81890871D01*
X99131834Y-81866834D01*
X99155871Y-81847107D01*
X99183297Y-81832447D01*
X99213054Y-81823421D01*
X99247781Y-81820000D01*
X99712219Y-81820000D01*
X99746946Y-81823421D01*
X99746946Y-81823421D01*
G37*
G36*
X101691946Y-81668421D02*
G01*
X101721703Y-81677447D01*
X101749129Y-81692107D01*
X101773166Y-81711834D01*
X101792893Y-81735871D01*
X101807553Y-81763297D01*
X101816579Y-81793054D01*
X101820000Y-81827781D01*
X101820000Y-82292219D01*
X101816579Y-82326946D01*
X101807553Y-82356703D01*
X101792893Y-82384129D01*
X101773166Y-82408166D01*
X101749129Y-82427893D01*
X101721703Y-82442553D01*
X101691946Y-82451579D01*
X101657219Y-82455000D01*
X101142781Y-82455000D01*
X101108054Y-82451579D01*
X101078297Y-82442553D01*
X101050871Y-82427893D01*
X101026834Y-82408166D01*
X101007105Y-82384127D01*
X100989906Y-82351950D01*
X100981520Y-82339399D01*
X100970846Y-82328726D01*
X100958296Y-82320340D01*
X100944350Y-82314563D01*
X100929546Y-82311619D01*
X100914452Y-82311619D01*
X100899647Y-82314564D01*
X100885702Y-82320340D01*
X100873151Y-82328726D01*
X100862478Y-82339400D01*
X100854092Y-82351950D01*
X100848315Y-82365896D01*
X100845000Y-82388247D01*
X100845000Y-82497219D01*
X100841579Y-82531946D01*
X100832553Y-82561703D01*
X100817893Y-82589129D01*
X100798166Y-82613166D01*
X100774129Y-82632893D01*
X100746703Y-82647553D01*
X100716946Y-82656579D01*
X100682219Y-82660000D01*
X100217781Y-82660000D01*
X100183054Y-82656579D01*
X100153297Y-82647553D01*
X100125871Y-82632893D01*
X100101834Y-82613166D01*
X100082107Y-82589129D01*
X100067447Y-82561703D01*
X100058421Y-82531946D01*
X100055000Y-82497219D01*
X100055000Y-81982781D01*
X100058421Y-81948054D01*
X100067447Y-81918297D01*
X100082107Y-81890871D01*
X100101834Y-81866834D01*
X100125871Y-81847107D01*
X100153297Y-81832447D01*
X100183054Y-81823421D01*
X100217781Y-81820000D01*
X100682219Y-81820000D01*
X100716946Y-81823421D01*
X100746703Y-81832447D01*
X100774129Y-81847107D01*
X100798166Y-81866834D01*
X100817895Y-81890873D01*
X100835094Y-81923050D01*
X100843480Y-81935601D01*
X100854154Y-81946274D01*
X100866704Y-81954660D01*
X100880650Y-81960437D01*
X100895454Y-81963381D01*
X100910548Y-81963381D01*
X100925353Y-81960436D01*
X100939298Y-81954660D01*
X100951849Y-81946274D01*
X100962522Y-81935600D01*
X100970908Y-81923050D01*
X100976685Y-81909104D01*
X100980000Y-81886753D01*
X100980000Y-81827781D01*
X100983421Y-81793054D01*
X100992447Y-81763297D01*
X101007107Y-81735871D01*
X101026834Y-81711834D01*
X101050871Y-81692107D01*
X101078297Y-81677447D01*
X101108054Y-81668421D01*
X101142781Y-81665000D01*
X101657219Y-81665000D01*
X101691946Y-81668421D01*
X101691946Y-81668421D01*
G37*
G36*
X97441946Y-81848421D02*
G01*
X97471703Y-81857447D01*
X97499129Y-81872107D01*
X97523166Y-81891834D01*
X97542893Y-81915871D01*
X97557553Y-81943297D01*
X97566579Y-81973054D01*
X97568372Y-81991253D01*
X97571317Y-82006057D01*
X97577093Y-82020003D01*
X97585479Y-82032553D01*
X97596153Y-82043226D01*
X97608704Y-82051612D01*
X97622649Y-82057389D01*
X97637453Y-82060333D01*
X97652548Y-82060333D01*
X97667352Y-82057388D01*
X97681298Y-82051612D01*
X97693848Y-82043226D01*
X97704521Y-82032552D01*
X97712907Y-82020001D01*
X97718684Y-82006056D01*
X97721628Y-81991253D01*
X97723421Y-81973054D01*
X97732447Y-81943297D01*
X97747107Y-81915871D01*
X97766834Y-81891834D01*
X97790871Y-81872107D01*
X97818297Y-81857447D01*
X97848054Y-81848421D01*
X97882781Y-81845000D01*
X98397219Y-81845000D01*
X98431946Y-81848421D01*
X98461703Y-81857447D01*
X98489129Y-81872107D01*
X98513166Y-81891834D01*
X98532893Y-81915871D01*
X98547553Y-81943297D01*
X98556579Y-81973054D01*
X98560000Y-82007781D01*
X98560000Y-82472219D01*
X98556579Y-82506946D01*
X98547553Y-82536703D01*
X98532893Y-82564129D01*
X98513166Y-82588166D01*
X98489129Y-82607893D01*
X98461703Y-82622553D01*
X98431946Y-82631579D01*
X98397219Y-82635000D01*
X97882781Y-82635000D01*
X97848054Y-82631579D01*
X97818297Y-82622553D01*
X97790871Y-82607893D01*
X97766834Y-82588166D01*
X97747107Y-82564129D01*
X97732447Y-82536703D01*
X97723421Y-82506946D01*
X97721628Y-82488747D01*
X97718683Y-82473943D01*
X97712907Y-82459997D01*
X97704521Y-82447447D01*
X97693847Y-82436774D01*
X97681296Y-82428388D01*
X97667351Y-82422611D01*
X97652547Y-82419667D01*
X97637452Y-82419667D01*
X97622648Y-82422612D01*
X97608702Y-82428388D01*
X97596152Y-82436774D01*
X97585479Y-82447448D01*
X97577093Y-82459999D01*
X97571316Y-82473944D01*
X97568372Y-82488747D01*
X97566579Y-82506946D01*
X97557553Y-82536703D01*
X97542893Y-82564129D01*
X97523166Y-82588166D01*
X97499129Y-82607893D01*
X97471703Y-82622553D01*
X97441946Y-82631579D01*
X97407219Y-82635000D01*
X96892781Y-82635000D01*
X96858054Y-82631579D01*
X96828297Y-82622553D01*
X96800871Y-82607893D01*
X96776834Y-82588166D01*
X96757107Y-82564129D01*
X96742447Y-82536703D01*
X96733421Y-82506946D01*
X96730000Y-82472219D01*
X96730000Y-82007781D01*
X96733421Y-81973054D01*
X96742447Y-81943297D01*
X96757107Y-81915871D01*
X96776834Y-81891834D01*
X96800871Y-81872107D01*
X96828297Y-81857447D01*
X96858054Y-81848421D01*
X96892781Y-81845000D01*
X97407219Y-81845000D01*
X97441946Y-81848421D01*
X97441946Y-81848421D01*
G37*
G36*
X86678966Y-81691332D02*
G01*
X86756313Y-81723370D01*
X86825919Y-81769879D01*
X86885121Y-81829081D01*
X86931630Y-81898687D01*
X86963668Y-81976034D01*
X86980000Y-82058139D01*
X86980000Y-82141861D01*
X86963668Y-82223966D01*
X86931630Y-82301313D01*
X86885121Y-82370919D01*
X86825919Y-82430121D01*
X86756313Y-82476630D01*
X86678966Y-82508668D01*
X86596861Y-82525000D01*
X86513139Y-82525000D01*
X86431034Y-82508668D01*
X86353687Y-82476630D01*
X86284081Y-82430121D01*
X86224879Y-82370919D01*
X86178370Y-82301313D01*
X86146332Y-82223966D01*
X86130000Y-82141861D01*
X86130000Y-82058139D01*
X86146332Y-81976034D01*
X86178370Y-81898687D01*
X86224879Y-81829081D01*
X86284081Y-81769879D01*
X86353687Y-81723370D01*
X86431034Y-81691332D01*
X86513139Y-81675000D01*
X86596861Y-81675000D01*
X86678966Y-81691332D01*
X86678966Y-81691332D01*
G37*
G36*
X123541946Y-81673421D02*
G01*
X123571703Y-81682447D01*
X123599129Y-81697107D01*
X123623166Y-81716834D01*
X123642893Y-81740871D01*
X123657553Y-81768297D01*
X123666579Y-81798054D01*
X123670000Y-81832781D01*
X123670000Y-82297219D01*
X123666579Y-82331946D01*
X123657553Y-82361703D01*
X123642893Y-82389129D01*
X123623166Y-82413166D01*
X123599129Y-82432893D01*
X123571703Y-82447553D01*
X123541946Y-82456579D01*
X123507219Y-82460000D01*
X122992781Y-82460000D01*
X122958054Y-82456579D01*
X122928297Y-82447553D01*
X122900871Y-82432893D01*
X122876834Y-82413166D01*
X122857107Y-82389129D01*
X122842447Y-82361703D01*
X122833421Y-82331946D01*
X122830000Y-82297219D01*
X122830000Y-81832781D01*
X122833421Y-81798054D01*
X122842447Y-81768297D01*
X122857107Y-81740871D01*
X122876834Y-81716834D01*
X122900871Y-81697107D01*
X122928297Y-81682447D01*
X122958054Y-81673421D01*
X122992781Y-81670000D01*
X123507219Y-81670000D01*
X123541946Y-81673421D01*
X123541946Y-81673421D01*
G37*
G36*
X102741946Y-81668421D02*
G01*
X102771703Y-81677447D01*
X102799129Y-81692107D01*
X102823166Y-81711834D01*
X102842893Y-81735871D01*
X102857553Y-81763297D01*
X102866579Y-81793054D01*
X102870000Y-81827781D01*
X102870000Y-82292219D01*
X102866579Y-82326946D01*
X102857553Y-82356703D01*
X102842893Y-82384129D01*
X102823166Y-82408166D01*
X102799129Y-82427893D01*
X102771703Y-82442553D01*
X102741946Y-82451579D01*
X102707219Y-82455000D01*
X102192781Y-82455000D01*
X102158054Y-82451579D01*
X102128297Y-82442553D01*
X102100871Y-82427893D01*
X102076834Y-82408166D01*
X102057107Y-82384129D01*
X102042447Y-82356703D01*
X102033421Y-82326946D01*
X102030000Y-82292219D01*
X102030000Y-81827781D01*
X102033421Y-81793054D01*
X102042447Y-81763297D01*
X102057107Y-81735871D01*
X102076834Y-81711834D01*
X102100871Y-81692107D01*
X102128297Y-81677447D01*
X102158054Y-81668421D01*
X102192781Y-81665000D01*
X102707219Y-81665000D01*
X102741946Y-81668421D01*
X102741946Y-81668421D01*
G37*
G36*
X113191946Y-81573421D02*
G01*
X113221703Y-81582447D01*
X113249129Y-81597107D01*
X113273166Y-81616834D01*
X113292893Y-81640871D01*
X113307553Y-81668297D01*
X113316579Y-81698054D01*
X113320000Y-81732781D01*
X113320000Y-82197219D01*
X113316579Y-82231946D01*
X113307553Y-82261703D01*
X113292893Y-82289129D01*
X113273166Y-82313166D01*
X113249129Y-82332893D01*
X113221703Y-82347553D01*
X113191946Y-82356579D01*
X113157219Y-82360000D01*
X112642781Y-82360000D01*
X112608054Y-82356579D01*
X112578297Y-82347553D01*
X112550871Y-82332893D01*
X112526834Y-82313166D01*
X112507107Y-82289129D01*
X112492447Y-82261703D01*
X112483421Y-82231946D01*
X112480000Y-82197219D01*
X112480000Y-81732781D01*
X112483421Y-81698054D01*
X112492447Y-81668297D01*
X112507107Y-81640871D01*
X112526834Y-81616834D01*
X112550871Y-81597107D01*
X112578297Y-81582447D01*
X112608054Y-81573421D01*
X112642781Y-81570000D01*
X113157219Y-81570000D01*
X113191946Y-81573421D01*
X113191946Y-81573421D01*
G37*
G36*
X114639594Y-81042289D02*
G01*
X114682722Y-81055372D01*
X114722461Y-81076613D01*
X114757298Y-81105202D01*
X114785887Y-81140039D01*
X114807128Y-81179778D01*
X114820211Y-81222906D01*
X114825000Y-81271531D01*
X114825000Y-81878469D01*
X114820211Y-81927094D01*
X114807128Y-81970222D01*
X114785887Y-82009961D01*
X114757298Y-82044798D01*
X114722461Y-82073387D01*
X114682722Y-82094628D01*
X114639594Y-82107711D01*
X114590969Y-82112500D01*
X113909031Y-82112500D01*
X113860406Y-82107711D01*
X113817278Y-82094628D01*
X113777539Y-82073387D01*
X113742702Y-82044798D01*
X113714113Y-82009961D01*
X113692872Y-81970222D01*
X113679789Y-81927094D01*
X113675000Y-81878469D01*
X113675000Y-81271531D01*
X113679789Y-81222906D01*
X113692872Y-81179778D01*
X113714113Y-81140039D01*
X113742702Y-81105202D01*
X113777539Y-81076613D01*
X113817278Y-81055372D01*
X113860406Y-81042289D01*
X113909031Y-81037500D01*
X114590969Y-81037500D01*
X114639594Y-81042289D01*
X114639594Y-81042289D01*
G37*
G36*
X120763500Y-82050000D02*
G01*
X119063500Y-82050000D01*
X119063500Y-80850000D01*
X120763500Y-80850000D01*
X120763500Y-82050000D01*
X120763500Y-82050000D01*
G37*
G36*
X156631946Y-81133421D02*
G01*
X156661703Y-81142447D01*
X156689129Y-81157107D01*
X156713166Y-81176834D01*
X156732893Y-81200871D01*
X156747553Y-81228297D01*
X156756579Y-81258054D01*
X156760000Y-81292781D01*
X156760000Y-81807219D01*
X156756579Y-81841946D01*
X156747553Y-81871703D01*
X156732893Y-81899129D01*
X156713166Y-81923166D01*
X156689129Y-81942893D01*
X156661703Y-81957553D01*
X156631946Y-81966579D01*
X156597219Y-81970000D01*
X156132781Y-81970000D01*
X156098054Y-81966579D01*
X156068297Y-81957553D01*
X156040871Y-81942893D01*
X156016834Y-81923166D01*
X155997107Y-81899129D01*
X155982447Y-81871703D01*
X155973421Y-81841946D01*
X155970000Y-81807219D01*
X155970000Y-81292781D01*
X155973421Y-81258054D01*
X155982447Y-81228297D01*
X155997107Y-81200871D01*
X156016834Y-81176834D01*
X156040871Y-81157107D01*
X156068297Y-81142447D01*
X156098054Y-81133421D01*
X156132781Y-81130000D01*
X156597219Y-81130000D01*
X156631946Y-81133421D01*
X156631946Y-81133421D01*
G37*
G36*
X157601946Y-81133421D02*
G01*
X157631703Y-81142447D01*
X157659129Y-81157107D01*
X157683166Y-81176834D01*
X157702893Y-81200871D01*
X157717553Y-81228297D01*
X157726579Y-81258054D01*
X157730000Y-81292781D01*
X157730000Y-81807219D01*
X157726579Y-81841946D01*
X157717553Y-81871703D01*
X157702893Y-81899129D01*
X157683166Y-81923166D01*
X157659129Y-81942893D01*
X157631703Y-81957553D01*
X157601946Y-81966579D01*
X157567219Y-81970000D01*
X157102781Y-81970000D01*
X157068054Y-81966579D01*
X157038297Y-81957553D01*
X157010871Y-81942893D01*
X156986834Y-81923166D01*
X156967107Y-81899129D01*
X156952447Y-81871703D01*
X156943421Y-81841946D01*
X156940000Y-81807219D01*
X156940000Y-81292781D01*
X156943421Y-81258054D01*
X156952447Y-81228297D01*
X156967107Y-81200871D01*
X156986834Y-81176834D01*
X157010871Y-81157107D01*
X157038297Y-81142447D01*
X157068054Y-81133421D01*
X157102781Y-81130000D01*
X157567219Y-81130000D01*
X157601946Y-81133421D01*
X157601946Y-81133421D01*
G37*
G36*
X97441946Y-80878421D02*
G01*
X97471703Y-80887447D01*
X97499129Y-80902107D01*
X97523166Y-80921834D01*
X97542893Y-80945871D01*
X97557553Y-80973297D01*
X97566579Y-81003054D01*
X97568372Y-81021253D01*
X97571317Y-81036057D01*
X97577093Y-81050003D01*
X97585479Y-81062553D01*
X97596153Y-81073226D01*
X97608704Y-81081612D01*
X97622649Y-81087389D01*
X97637453Y-81090333D01*
X97652548Y-81090333D01*
X97667352Y-81087388D01*
X97681298Y-81081612D01*
X97693848Y-81073226D01*
X97704521Y-81062552D01*
X97712907Y-81050001D01*
X97718684Y-81036056D01*
X97721628Y-81021253D01*
X97723421Y-81003054D01*
X97732447Y-80973297D01*
X97747107Y-80945871D01*
X97766834Y-80921834D01*
X97790871Y-80902107D01*
X97818297Y-80887447D01*
X97848054Y-80878421D01*
X97882781Y-80875000D01*
X98397219Y-80875000D01*
X98431946Y-80878421D01*
X98461703Y-80887447D01*
X98489129Y-80902107D01*
X98513166Y-80921834D01*
X98532893Y-80945871D01*
X98547553Y-80973297D01*
X98556579Y-81003054D01*
X98560000Y-81037781D01*
X98560000Y-81502219D01*
X98556579Y-81536946D01*
X98547553Y-81566703D01*
X98532893Y-81594129D01*
X98513166Y-81618166D01*
X98489129Y-81637893D01*
X98461703Y-81652553D01*
X98431946Y-81661579D01*
X98397219Y-81665000D01*
X97882781Y-81665000D01*
X97848054Y-81661579D01*
X97818297Y-81652553D01*
X97790871Y-81637893D01*
X97766834Y-81618166D01*
X97747107Y-81594129D01*
X97732447Y-81566703D01*
X97723421Y-81536946D01*
X97721628Y-81518747D01*
X97718683Y-81503943D01*
X97712907Y-81489997D01*
X97704521Y-81477447D01*
X97693847Y-81466774D01*
X97681296Y-81458388D01*
X97667351Y-81452611D01*
X97652547Y-81449667D01*
X97637452Y-81449667D01*
X97622648Y-81452612D01*
X97608702Y-81458388D01*
X97596152Y-81466774D01*
X97585479Y-81477448D01*
X97577093Y-81489999D01*
X97571316Y-81503944D01*
X97568372Y-81518747D01*
X97566579Y-81536946D01*
X97557553Y-81566703D01*
X97542893Y-81594129D01*
X97523166Y-81618166D01*
X97499129Y-81637893D01*
X97471703Y-81652553D01*
X97441946Y-81661579D01*
X97407219Y-81665000D01*
X96892781Y-81665000D01*
X96858054Y-81661579D01*
X96828297Y-81652553D01*
X96800871Y-81637893D01*
X96776834Y-81618166D01*
X96757107Y-81594129D01*
X96742447Y-81566703D01*
X96733421Y-81536946D01*
X96730000Y-81502219D01*
X96730000Y-81037781D01*
X96733421Y-81003054D01*
X96742447Y-80973297D01*
X96757107Y-80945871D01*
X96776834Y-80921834D01*
X96800871Y-80902107D01*
X96828297Y-80887447D01*
X96858054Y-80878421D01*
X96892781Y-80875000D01*
X97407219Y-80875000D01*
X97441946Y-80878421D01*
X97441946Y-80878421D01*
G37*
G36*
X102741946Y-80698421D02*
G01*
X102771703Y-80707447D01*
X102799129Y-80722107D01*
X102823166Y-80741834D01*
X102842893Y-80765871D01*
X102857553Y-80793297D01*
X102866579Y-80823054D01*
X102870000Y-80857781D01*
X102870000Y-81322219D01*
X102866579Y-81356946D01*
X102857553Y-81386703D01*
X102842893Y-81414129D01*
X102823166Y-81438166D01*
X102799129Y-81457893D01*
X102771703Y-81472553D01*
X102741946Y-81481579D01*
X102707219Y-81485000D01*
X102192781Y-81485000D01*
X102158054Y-81481579D01*
X102128297Y-81472553D01*
X102100871Y-81457893D01*
X102076834Y-81438166D01*
X102057107Y-81414129D01*
X102042447Y-81386703D01*
X102033421Y-81356946D01*
X102030000Y-81322219D01*
X102030000Y-80857781D01*
X102033421Y-80823054D01*
X102042447Y-80793297D01*
X102057107Y-80765871D01*
X102076834Y-80741834D01*
X102100871Y-80722107D01*
X102128297Y-80707447D01*
X102158054Y-80698421D01*
X102192781Y-80695000D01*
X102707219Y-80695000D01*
X102741946Y-80698421D01*
X102741946Y-80698421D01*
G37*
G36*
X101691946Y-80698421D02*
G01*
X101721703Y-80707447D01*
X101749129Y-80722107D01*
X101773166Y-80741834D01*
X101792893Y-80765871D01*
X101807553Y-80793297D01*
X101816579Y-80823054D01*
X101820000Y-80857781D01*
X101820000Y-81322219D01*
X101816579Y-81356946D01*
X101807553Y-81386703D01*
X101792893Y-81414129D01*
X101773166Y-81438166D01*
X101749129Y-81457893D01*
X101721703Y-81472553D01*
X101691946Y-81481579D01*
X101657219Y-81485000D01*
X101142781Y-81485000D01*
X101108054Y-81481579D01*
X101078297Y-81472553D01*
X101050871Y-81457893D01*
X101026834Y-81438166D01*
X101007107Y-81414129D01*
X100992447Y-81386703D01*
X100983421Y-81356946D01*
X100980000Y-81322219D01*
X100980000Y-80857781D01*
X100983421Y-80823054D01*
X100992447Y-80793297D01*
X101007107Y-80765871D01*
X101026834Y-80741834D01*
X101050871Y-80722107D01*
X101078297Y-80707447D01*
X101108054Y-80698421D01*
X101142781Y-80695000D01*
X101657219Y-80695000D01*
X101691946Y-80698421D01*
X101691946Y-80698421D01*
G37*
G36*
X94431946Y-80583421D02*
G01*
X94461703Y-80592447D01*
X94489129Y-80607107D01*
X94513166Y-80626834D01*
X94532893Y-80650871D01*
X94547553Y-80678297D01*
X94556579Y-80708054D01*
X94560000Y-80742781D01*
X94560000Y-81257219D01*
X94556579Y-81291946D01*
X94547553Y-81321703D01*
X94532893Y-81349129D01*
X94513166Y-81373166D01*
X94489129Y-81392893D01*
X94461703Y-81407553D01*
X94431946Y-81416579D01*
X94397219Y-81420000D01*
X93932781Y-81420000D01*
X93898054Y-81416579D01*
X93868297Y-81407553D01*
X93840871Y-81392893D01*
X93816834Y-81373166D01*
X93797107Y-81349129D01*
X93782447Y-81321703D01*
X93773421Y-81291946D01*
X93770000Y-81257219D01*
X93770000Y-80742781D01*
X93773421Y-80708054D01*
X93782447Y-80678297D01*
X93797107Y-80650871D01*
X93816834Y-80626834D01*
X93840871Y-80607107D01*
X93868297Y-80592447D01*
X93898054Y-80583421D01*
X93932781Y-80580000D01*
X94397219Y-80580000D01*
X94431946Y-80583421D01*
X94431946Y-80583421D01*
G37*
G36*
X95401946Y-80583421D02*
G01*
X95431703Y-80592447D01*
X95459129Y-80607107D01*
X95483166Y-80626834D01*
X95502893Y-80650871D01*
X95517553Y-80678297D01*
X95526579Y-80708054D01*
X95530000Y-80742781D01*
X95530000Y-81257219D01*
X95526579Y-81291946D01*
X95517553Y-81321703D01*
X95502893Y-81349129D01*
X95483166Y-81373166D01*
X95459129Y-81392893D01*
X95431703Y-81407553D01*
X95401946Y-81416579D01*
X95367219Y-81420000D01*
X94902781Y-81420000D01*
X94868054Y-81416579D01*
X94838297Y-81407553D01*
X94810871Y-81392893D01*
X94786834Y-81373166D01*
X94767107Y-81349129D01*
X94752447Y-81321703D01*
X94743421Y-81291946D01*
X94740000Y-81257219D01*
X94740000Y-80742781D01*
X94743421Y-80708054D01*
X94752447Y-80678297D01*
X94767107Y-80650871D01*
X94786834Y-80626834D01*
X94810871Y-80607107D01*
X94838297Y-80592447D01*
X94868054Y-80583421D01*
X94902781Y-80580000D01*
X95367219Y-80580000D01*
X95401946Y-80583421D01*
X95401946Y-80583421D01*
G37*
G36*
X83322621Y-80078682D02*
G01*
X83435721Y-80112990D01*
X83539955Y-80168704D01*
X83631317Y-80243683D01*
X83706296Y-80335045D01*
X83762010Y-80439279D01*
X83796318Y-80552379D01*
X83807903Y-80670000D01*
X83796318Y-80787621D01*
X83762010Y-80900721D01*
X83706296Y-81004955D01*
X83631317Y-81096317D01*
X83539955Y-81171296D01*
X83435721Y-81227010D01*
X83322621Y-81261318D01*
X83234474Y-81270000D01*
X82575526Y-81270000D01*
X82487379Y-81261318D01*
X82374279Y-81227010D01*
X82270045Y-81171296D01*
X82178683Y-81096317D01*
X82103704Y-81004955D01*
X82047990Y-80900721D01*
X82013682Y-80787621D01*
X82002097Y-80670000D01*
X82013682Y-80552379D01*
X82047990Y-80439279D01*
X82103704Y-80335045D01*
X82178683Y-80243683D01*
X82270045Y-80168704D01*
X82374279Y-80112990D01*
X82487379Y-80078682D01*
X82575526Y-80070000D01*
X83234474Y-80070000D01*
X83322621Y-80078682D01*
X83322621Y-80078682D01*
G37*
G36*
X87752621Y-80078682D02*
G01*
X87865721Y-80112990D01*
X87969955Y-80168704D01*
X88061317Y-80243683D01*
X88136296Y-80335045D01*
X88192010Y-80439279D01*
X88226318Y-80552379D01*
X88237903Y-80670000D01*
X88226318Y-80787621D01*
X88192010Y-80900721D01*
X88136296Y-81004955D01*
X88061317Y-81096317D01*
X87969955Y-81171296D01*
X87865721Y-81227010D01*
X87752621Y-81261318D01*
X87664474Y-81270000D01*
X86505526Y-81270000D01*
X86417379Y-81261318D01*
X86304279Y-81227010D01*
X86200045Y-81171296D01*
X86108683Y-81096317D01*
X86033704Y-81004955D01*
X85977990Y-80900721D01*
X85943682Y-80787621D01*
X85932097Y-80670000D01*
X85943682Y-80552379D01*
X85977990Y-80439279D01*
X86033704Y-80335045D01*
X86108683Y-80243683D01*
X86200045Y-80168704D01*
X86304279Y-80112990D01*
X86417379Y-80078682D01*
X86505526Y-80070000D01*
X87664474Y-80070000D01*
X87752621Y-80078682D01*
X87752621Y-80078682D01*
G37*
M02*
