G04 #@! TF.GenerationSoftware,KiCad,Pcbnew,6.0.0-d3dd2cf0fa~116~ubuntu20.04.1*
G04 #@! TF.CreationDate,2022-01-09T18:53:19+01:00*
G04 #@! TF.ProjectId,TS100C,54533130-3043-42e6-9b69-6361645f7063,rev?*
G04 #@! TF.SameCoordinates,Original*
G04 #@! TF.FileFunction,Copper,L1,Top*
G04 #@! TF.FilePolarity,Positive*
%FSLAX46Y46*%
G04 Gerber Fmt 4.6, Leading zero omitted, Abs format (unit mm)*
G04 Created by KiCad (PCBNEW 6.0.0-d3dd2cf0fa~116~ubuntu20.04.1) date 2022-01-09 18:53:19*
%MOMM*%
%LPD*%
G01*
G04 APERTURE LIST*
G04 Aperture macros list*
%AMRoundRect*
0 Rectangle with rounded corners*
0 $1 Rounding radius*
0 $2 $3 $4 $5 $6 $7 $8 $9 X,Y pos of 4 corners*
0 Add a 4 corners polygon primitive as box body*
4,1,4,$2,$3,$4,$5,$6,$7,$8,$9,$2,$3,0*
0 Add four circle primitives for the rounded corners*
1,1,$1+$1,$2,$3*
1,1,$1+$1,$4,$5*
1,1,$1+$1,$6,$7*
1,1,$1+$1,$8,$9*
0 Add four rect primitives between the rounded corners*
20,1,$1+$1,$2,$3,$4,$5,0*
20,1,$1+$1,$4,$5,$6,$7,0*
20,1,$1+$1,$6,$7,$8,$9,0*
20,1,$1+$1,$8,$9,$2,$3,0*%
%AMOutline4P*
0 Free polygon, 4 corners , with rotation*
0 The origin of the aperture is its center*
0 number of corners: always 4*
0 $1 to $8 corner X, Y*
0 $9 Rotation angle, in degrees counterclockwise*
0 create outline with 4 corners*
4,1,4,$1,$2,$3,$4,$5,$6,$7,$8,$1,$2,$9*%
%AMFreePoly0*
4,1,17,1.395000,0.765000,0.855000,0.765000,0.855000,0.535000,1.395000,0.535000,1.395000,0.115000,0.855000,0.115000,0.855000,-0.115000,1.395000,-0.115000,1.395000,-0.535000,0.855000,-0.535000,0.855000,-0.765000,1.395000,-0.765000,1.395000,-1.185000,-0.855000,-1.185000,-0.855000,1.185000,1.395000,1.185000,1.395000,0.765000,1.395000,0.765000,$1*%
G04 Aperture macros list end*
G04 #@! TA.AperFunction,Profile*
%ADD10C,0.150000*%
G04 #@! TD*
G04 #@! TA.AperFunction,ComponentPad*
%ADD11O,3.000000X2.000000*%
G04 #@! TD*
G04 #@! TA.AperFunction,SMDPad,CuDef*
%ADD12RoundRect,0.147500X-0.172500X0.147500X-0.172500X-0.147500X0.172500X-0.147500X0.172500X0.147500X0*%
G04 #@! TD*
G04 #@! TA.AperFunction,SMDPad,CuDef*
%ADD13RoundRect,0.147500X0.172500X-0.147500X0.172500X0.147500X-0.172500X0.147500X-0.172500X-0.147500X0*%
G04 #@! TD*
G04 #@! TA.AperFunction,SMDPad,CuDef*
%ADD14RoundRect,0.147500X-0.147500X-0.172500X0.147500X-0.172500X0.147500X0.172500X-0.147500X0.172500X0*%
G04 #@! TD*
G04 #@! TA.AperFunction,SMDPad,CuDef*
%ADD15R,1.500000X1.000000*%
G04 #@! TD*
G04 #@! TA.AperFunction,SMDPad,CuDef*
%ADD16R,1.800000X1.000000*%
G04 #@! TD*
G04 #@! TA.AperFunction,SMDPad,CuDef*
%ADD17Outline4P,-1.100000X-0.425000X1.100000X-0.425000X0.500000X0.425000X-0.500000X0.425000X90.000000*%
G04 #@! TD*
G04 #@! TA.AperFunction,SMDPad,CuDef*
%ADD18R,1.840000X2.200000*%
G04 #@! TD*
G04 #@! TA.AperFunction,SMDPad,CuDef*
%ADD19Outline4P,-1.100000X-0.500000X1.100000X-0.500000X0.400000X0.500000X-0.400000X0.500000X270.000000*%
G04 #@! TD*
G04 #@! TA.AperFunction,SMDPad,CuDef*
%ADD20R,0.650000X1.060000*%
G04 #@! TD*
G04 #@! TA.AperFunction,SMDPad,CuDef*
%ADD21R,0.900000X0.800000*%
G04 #@! TD*
G04 #@! TA.AperFunction,SMDPad,CuDef*
%ADD22RoundRect,0.062500X-0.062500X0.375000X-0.062500X-0.375000X0.062500X-0.375000X0.062500X0.375000X0*%
G04 #@! TD*
G04 #@! TA.AperFunction,SMDPad,CuDef*
%ADD23RoundRect,0.062500X-0.375000X0.062500X-0.375000X-0.062500X0.375000X-0.062500X0.375000X0.062500X0*%
G04 #@! TD*
G04 #@! TA.AperFunction,SMDPad,CuDef*
%ADD24RoundRect,0.250001X-2.549999X2.549999X-2.549999X-2.549999X2.549999X-2.549999X2.549999X2.549999X0*%
G04 #@! TD*
G04 #@! TA.AperFunction,SMDPad,CuDef*
%ADD25R,1.100000X1.100000*%
G04 #@! TD*
G04 #@! TA.AperFunction,SMDPad,CuDef*
%ADD26RoundRect,0.218750X0.256250X-0.218750X0.256250X0.218750X-0.256250X0.218750X-0.256250X-0.218750X0*%
G04 #@! TD*
G04 #@! TA.AperFunction,SMDPad,CuDef*
%ADD27RoundRect,0.218750X-0.218750X-0.256250X0.218750X-0.256250X0.218750X0.256250X-0.218750X0.256250X0*%
G04 #@! TD*
G04 #@! TA.AperFunction,SMDPad,CuDef*
%ADD28RoundRect,0.218750X-0.256250X0.218750X-0.256250X-0.218750X0.256250X-0.218750X0.256250X0.218750X0*%
G04 #@! TD*
G04 #@! TA.AperFunction,SMDPad,CuDef*
%ADD29RoundRect,0.147500X0.147500X0.172500X-0.147500X0.172500X-0.147500X-0.172500X0.147500X-0.172500X0*%
G04 #@! TD*
G04 #@! TA.AperFunction,ConnectorPad*
%ADD30C,0.784860*%
G04 #@! TD*
G04 #@! TA.AperFunction,ComponentPad*
%ADD31R,5.000000X3.960000*%
G04 #@! TD*
G04 #@! TA.AperFunction,SMDPad,CuDef*
%ADD32R,0.800000X0.900000*%
G04 #@! TD*
G04 #@! TA.AperFunction,SMDPad,CuDef*
%ADD33R,0.700000X0.420000*%
G04 #@! TD*
G04 #@! TA.AperFunction,SMDPad,CuDef*
%ADD34FreePoly0,0.000000*%
G04 #@! TD*
G04 #@! TA.AperFunction,SMDPad,CuDef*
%ADD35RoundRect,0.062500X-0.350000X-0.062500X0.350000X-0.062500X0.350000X0.062500X-0.350000X0.062500X0*%
G04 #@! TD*
G04 #@! TA.AperFunction,SMDPad,CuDef*
%ADD36RoundRect,0.062500X-0.062500X-0.350000X0.062500X-0.350000X0.062500X0.350000X-0.062500X0.350000X0*%
G04 #@! TD*
G04 #@! TA.AperFunction,SMDPad,CuDef*
%ADD37RoundRect,0.250001X-1.099999X-1.099999X1.099999X-1.099999X1.099999X1.099999X-1.099999X1.099999X0*%
G04 #@! TD*
G04 #@! TA.AperFunction,SMDPad,CuDef*
%ADD38RoundRect,0.243750X-0.243750X-0.456250X0.243750X-0.456250X0.243750X0.456250X-0.243750X0.456250X0*%
G04 #@! TD*
G04 #@! TA.AperFunction,ComponentPad*
%ADD39O,1.600000X1.000000*%
G04 #@! TD*
G04 #@! TA.AperFunction,ComponentPad*
%ADD40O,2.100000X1.000000*%
G04 #@! TD*
G04 #@! TA.AperFunction,ViaPad*
%ADD41C,0.600000*%
G04 #@! TD*
G04 #@! TA.AperFunction,ViaPad*
%ADD42C,0.450000*%
G04 #@! TD*
G04 #@! TA.AperFunction,Conductor*
%ADD43C,0.154000*%
G04 #@! TD*
G04 #@! TA.AperFunction,Conductor*
%ADD44C,0.106000*%
G04 #@! TD*
G04 #@! TA.AperFunction,Conductor*
%ADD45C,0.200000*%
G04 #@! TD*
G04 APERTURE END LIST*
D10*
X130000000Y-80000000D02*
X131000000Y-80500000D01*
X131000000Y-80500000D02*
X164000000Y-80500000D01*
X80000000Y-80000000D02*
X80000000Y-90000000D01*
X164000000Y-80500000D02*
X164000000Y-89500000D01*
X130000000Y-90000000D02*
X80000000Y-90000000D01*
X130000000Y-90000000D02*
X131000000Y-89500000D01*
X131000000Y-89500000D02*
X164000000Y-89500000D01*
X80000000Y-80000000D02*
X130000000Y-80000000D01*
D11*
X150750000Y-85000000D03*
D12*
X101400000Y-81090000D03*
X101400000Y-82060000D03*
D13*
X131650000Y-88440000D03*
X131650000Y-87470000D03*
D14*
X130745000Y-86280000D03*
X131715000Y-86280000D03*
X101270000Y-83210000D03*
X102240000Y-83210000D03*
D12*
X113200000Y-83965000D03*
X113200000Y-84935000D03*
D13*
X102230000Y-85690000D03*
X102230000Y-84720000D03*
D14*
X94165000Y-81000000D03*
X95135000Y-81000000D03*
D13*
X103310000Y-85195000D03*
X103310000Y-84225000D03*
D15*
X119913500Y-84450000D03*
D16*
X119767000Y-82950000D03*
D17*
X115766500Y-82950000D03*
D18*
X117100000Y-82950000D03*
D19*
X118509700Y-82950000D03*
D15*
X119913500Y-81450000D03*
D20*
X91920000Y-86100000D03*
X92870000Y-86100000D03*
X93820000Y-86100000D03*
X93820000Y-83900000D03*
X92870000Y-83900000D03*
X91920000Y-83900000D03*
D21*
X133010000Y-86340000D03*
X133010000Y-88240000D03*
X135010000Y-87290000D03*
D22*
X110800000Y-81562500D03*
X110300000Y-81562500D03*
X109800000Y-81562500D03*
X109300000Y-81562500D03*
X108800000Y-81562500D03*
X108300000Y-81562500D03*
X107800000Y-81562500D03*
X107300000Y-81562500D03*
X106800000Y-81562500D03*
X106300000Y-81562500D03*
X105800000Y-81562500D03*
X105300000Y-81562500D03*
D23*
X104612500Y-82250000D03*
X104612500Y-82750000D03*
X104612500Y-83250000D03*
X104612500Y-83750000D03*
X104612500Y-84250000D03*
X104612500Y-84750000D03*
X104612500Y-85250000D03*
X104612500Y-85750000D03*
X104612500Y-86250000D03*
X104612500Y-86750000D03*
X104612500Y-87250000D03*
X104612500Y-87750000D03*
D22*
X105300000Y-88437500D03*
X105800000Y-88437500D03*
X106300000Y-88437500D03*
X106800000Y-88437500D03*
X107300000Y-88437500D03*
X107800000Y-88437500D03*
X108300000Y-88437500D03*
X108800000Y-88437500D03*
X109300000Y-88437500D03*
X109800000Y-88437500D03*
X110300000Y-88437500D03*
X110800000Y-88437500D03*
D23*
X111487500Y-87750000D03*
X111487500Y-87250000D03*
X111487500Y-86750000D03*
X111487500Y-86250000D03*
X111487500Y-85750000D03*
X111487500Y-85250000D03*
X111487500Y-84750000D03*
X111487500Y-84250000D03*
X111487500Y-83750000D03*
X111487500Y-83250000D03*
X111487500Y-82750000D03*
X111487500Y-82250000D03*
D24*
X108050000Y-85000000D03*
D25*
X147400000Y-83350000D03*
X147400000Y-86150000D03*
D26*
X121950000Y-84587500D03*
X121950000Y-83012500D03*
D27*
X143062500Y-88100000D03*
X144637500Y-88100000D03*
D28*
X114350000Y-87412500D03*
X114350000Y-88987500D03*
X114250000Y-81575000D03*
X114250000Y-83150000D03*
D12*
X112900000Y-88265000D03*
X112900000Y-89235000D03*
D13*
X98140000Y-82240000D03*
X98140000Y-81270000D03*
D12*
X123250000Y-82065000D03*
X123250000Y-83035000D03*
D29*
X92905000Y-82595000D03*
X91935000Y-82595000D03*
D12*
X112900000Y-81965000D03*
X112900000Y-82935000D03*
X102450000Y-81090000D03*
X102450000Y-82060000D03*
D30*
X117755000Y-88610000D03*
X117755000Y-87340000D03*
X119025000Y-88610000D03*
X119025000Y-87340000D03*
X120295000Y-88610000D03*
X120295000Y-87340000D03*
D14*
X114550000Y-84950000D03*
X115520000Y-84950000D03*
X102515000Y-87350000D03*
X103485000Y-87350000D03*
D31*
X161000000Y-85000000D03*
D29*
X144335000Y-86750000D03*
X143365000Y-86750000D03*
D12*
X137750000Y-85415000D03*
X137750000Y-86385000D03*
X136600000Y-86465000D03*
X136600000Y-87435000D03*
D29*
X136585000Y-88600000D03*
X135615000Y-88600000D03*
D20*
X139400000Y-87850000D03*
X140350000Y-87850000D03*
X141300000Y-87850000D03*
X141300000Y-85650000D03*
X139400000Y-85650000D03*
D14*
X143365000Y-85600000D03*
X144335000Y-85600000D03*
D12*
X137750000Y-87465000D03*
X137750000Y-88435000D03*
D14*
X155200000Y-86600000D03*
X156170000Y-86600000D03*
X156365000Y-81550000D03*
X157335000Y-81550000D03*
D32*
X155550000Y-85150000D03*
X157450000Y-85150000D03*
X156500000Y-83150000D03*
D14*
X134850000Y-84980000D03*
X135820000Y-84980000D03*
D33*
X141750000Y-81775000D03*
X141750000Y-82425000D03*
X141750000Y-83075000D03*
X141750000Y-83725000D03*
D34*
X143705000Y-82750000D03*
D13*
X97150000Y-82240000D03*
X97150000Y-81270000D03*
D29*
X96090000Y-82380000D03*
X95120000Y-82380000D03*
D13*
X95400000Y-87610000D03*
X95400000Y-86640000D03*
D35*
X96617500Y-84100000D03*
X96617500Y-84600000D03*
X96617500Y-85100000D03*
X96617500Y-85600000D03*
X96617500Y-86100000D03*
X96617500Y-86600000D03*
D36*
X97330000Y-87312500D03*
X97830000Y-87312500D03*
X98330000Y-87312500D03*
X98830000Y-87312500D03*
X99330000Y-87312500D03*
X99830000Y-87312500D03*
D35*
X100542500Y-86600000D03*
X100542500Y-86100000D03*
X100542500Y-85600000D03*
X100542500Y-85100000D03*
X100542500Y-84600000D03*
X100542500Y-84100000D03*
D36*
X99830000Y-83387500D03*
X99330000Y-83387500D03*
X98830000Y-83387500D03*
X98330000Y-83387500D03*
X97830000Y-83387500D03*
X97330000Y-83387500D03*
D37*
X98580000Y-85350000D03*
D29*
X100450000Y-82240000D03*
X99480000Y-82240000D03*
D14*
X127885000Y-85960000D03*
X128855000Y-85960000D03*
D13*
X127620000Y-84410000D03*
X127620000Y-83440000D03*
D29*
X132910000Y-82520000D03*
X131940000Y-82520000D03*
D14*
X132275000Y-84720000D03*
X133245000Y-84720000D03*
D38*
X138385000Y-82000000D03*
X140260000Y-82000000D03*
D20*
X130900000Y-82520000D03*
X129950000Y-82520000D03*
X129000000Y-82520000D03*
X129000000Y-84720000D03*
X130900000Y-84720000D03*
D29*
X93285000Y-87800000D03*
X92315000Y-87800000D03*
D39*
X82905000Y-89310000D03*
D40*
X87085000Y-80670000D03*
D39*
X82905000Y-80670000D03*
D40*
X87085000Y-89310000D03*
D41*
X147950000Y-88400000D03*
X110350000Y-82700000D03*
X129500000Y-87000000D03*
X140650000Y-86775000D03*
X96240000Y-81310000D03*
X92870000Y-85010000D03*
X110350000Y-87300000D03*
X119669245Y-89159009D03*
X147200000Y-88400000D03*
X117900000Y-82200000D03*
X134060000Y-88280000D03*
X96220000Y-87560000D03*
X105750000Y-87300000D03*
X136950000Y-85300000D03*
X142300000Y-85050000D03*
X116300000Y-82200000D03*
X99260000Y-84690000D03*
X105755086Y-82731010D03*
X97830000Y-84670000D03*
X91129245Y-82604245D03*
X148700000Y-88400000D03*
X100210000Y-81340000D03*
X156504168Y-84150000D03*
X126750000Y-83470002D03*
X146450000Y-88400000D03*
D42*
X119700000Y-85750000D03*
D41*
X85040000Y-82710000D03*
X84140000Y-83610000D03*
X85040000Y-83610000D03*
X84140000Y-84510000D03*
X85040000Y-84510000D03*
X84140000Y-85410000D03*
X85040000Y-85410000D03*
X84140000Y-86310000D03*
X85040000Y-86310000D03*
X84140000Y-87210000D03*
X85040000Y-87210000D03*
X117900000Y-84900000D03*
X84140000Y-82710000D03*
X137300000Y-82930979D03*
X134900000Y-82930979D03*
X134900000Y-82170000D03*
X135700000Y-82170000D03*
X130860000Y-87900000D03*
X85910000Y-83590000D03*
X85910000Y-82730000D03*
X86650000Y-83050000D03*
X136500000Y-82170000D03*
X137300000Y-82170000D03*
X89350000Y-82732990D03*
X89340000Y-87300000D03*
X136500000Y-82930979D03*
X85860000Y-87140000D03*
X86710000Y-86960000D03*
X135700000Y-82930979D03*
X118586802Y-84887682D03*
X90200345Y-82733095D03*
D42*
X120650000Y-85625000D03*
X102449998Y-88550000D03*
X100440000Y-83210000D03*
D41*
X94070000Y-82520000D03*
X99070000Y-81330000D03*
X130640000Y-88840002D03*
X142262500Y-88900000D03*
X118970626Y-81248990D03*
X112075000Y-88500000D03*
X123400000Y-85675000D03*
X106850000Y-80837052D03*
X122575000Y-81550000D03*
X115550000Y-89175000D03*
X119671581Y-81248990D03*
X101849996Y-87900000D03*
X116925000Y-89050000D03*
X102230000Y-84719998D03*
X123314163Y-83964163D03*
X117000000Y-84950000D03*
X120355931Y-81248990D03*
X140300000Y-85174010D03*
X155200000Y-87400000D03*
D42*
X102946177Y-86195990D03*
X97330000Y-88320000D03*
X93820000Y-86100000D03*
X91000000Y-86650000D03*
X95290000Y-84090000D03*
X89450000Y-86500000D03*
X109800000Y-89350000D03*
X115600000Y-87264021D03*
D41*
X112500000Y-86450000D03*
D42*
X130269990Y-87430509D03*
X119650000Y-86614012D03*
D41*
X104500000Y-88900961D03*
D42*
X130123424Y-80653152D03*
X135010002Y-88310000D03*
X104680000Y-80850000D03*
X103360000Y-81210000D03*
X154800000Y-81650000D03*
X134534782Y-81029010D03*
X103596593Y-82935791D03*
X153850000Y-81029000D03*
X90710000Y-84525000D03*
X90334124Y-88535876D03*
X91005876Y-87864124D03*
X90710000Y-85475000D03*
X89400000Y-85750000D03*
X100550000Y-87350000D03*
X93425000Y-88525000D03*
X132050000Y-81214024D03*
X103630000Y-82150000D03*
D43*
X127620000Y-83440000D02*
X128080000Y-83440000D01*
D44*
X115980000Y-82950000D02*
X117100000Y-82950000D01*
X107300000Y-81562500D02*
X107300000Y-84250000D01*
X114102500Y-89235000D02*
X114350000Y-88987500D01*
X100450000Y-82240000D02*
X100450000Y-81580000D01*
D43*
X156504168Y-83950000D02*
X156504168Y-83154168D01*
X156170000Y-86600000D02*
X156504168Y-86265832D01*
D44*
X121987500Y-83050000D02*
X121950000Y-83012500D01*
X115800000Y-83130000D02*
X115980000Y-82950000D01*
D43*
X128080000Y-83440000D02*
X129000000Y-82520000D01*
D44*
X96090000Y-82380000D02*
X96090000Y-81460000D01*
X103485000Y-87350000D02*
X103585000Y-87250000D01*
X110300000Y-87250000D02*
X108050000Y-85000000D01*
X104612500Y-87250000D02*
X105800000Y-87250000D01*
D43*
X156504168Y-83950000D02*
X156504168Y-84150000D01*
X156504168Y-86265832D02*
X156504168Y-84150000D01*
D44*
X110300000Y-82750000D02*
X111487500Y-82750000D01*
X98140000Y-81270000D02*
X97150000Y-81270000D01*
X134020000Y-88240000D02*
X134060000Y-88280000D01*
X87085000Y-89310000D02*
X87085000Y-89105000D01*
D45*
X129500000Y-87000000D02*
X129500000Y-86605000D01*
D44*
X112900000Y-89235000D02*
X114102500Y-89235000D01*
X96280000Y-81270000D02*
X96240000Y-81310000D01*
X113200000Y-83235000D02*
X112900000Y-82935000D01*
X110300000Y-88975000D02*
X110560000Y-89235000D01*
X105800000Y-87250000D02*
X108050000Y-85000000D01*
X100542500Y-86600000D02*
X99830000Y-86600000D01*
D43*
X156504168Y-83154168D02*
X156500000Y-83150000D01*
D44*
X110300000Y-88437500D02*
X110300000Y-87250000D01*
X100450000Y-81580000D02*
X100210000Y-81340000D01*
X97150000Y-81270000D02*
X96280000Y-81270000D01*
X99830000Y-86600000D02*
X98580000Y-85350000D01*
X100450000Y-82240000D02*
X101220000Y-82240000D01*
X98830000Y-85600000D02*
X98580000Y-85350000D01*
X108050000Y-85000000D02*
X110300000Y-82750000D01*
X91935000Y-82595000D02*
X91138490Y-82595000D01*
X91138490Y-82595000D02*
X91129245Y-82604245D01*
X133010000Y-88240000D02*
X134020000Y-88240000D01*
X92870000Y-86100000D02*
X92870000Y-85010000D01*
X113200000Y-83965000D02*
X113200000Y-83235000D01*
D45*
X129500000Y-86605000D02*
X128855000Y-85960000D01*
D44*
X95400000Y-87610000D02*
X96170000Y-87610000D01*
X99830000Y-87312500D02*
X99830000Y-86600000D01*
X107300000Y-84250000D02*
X108050000Y-85000000D01*
D43*
X126780002Y-83440000D02*
X126750000Y-83470002D01*
D44*
X96090000Y-81460000D02*
X96240000Y-81310000D01*
X119745991Y-89159009D02*
X119669245Y-89159009D01*
X110560000Y-89235000D02*
X112480000Y-89235000D01*
X96170000Y-87610000D02*
X96220000Y-87560000D01*
X112480000Y-89235000D02*
X112900000Y-89235000D01*
X103585000Y-87250000D02*
X104612500Y-87250000D01*
D43*
X129950000Y-82520000D02*
X129000000Y-82520000D01*
D44*
X110300000Y-88437500D02*
X110300000Y-88975000D01*
X120295000Y-88610000D02*
X119745991Y-89159009D01*
X98830000Y-87312500D02*
X98830000Y-85600000D01*
X102450000Y-82060000D02*
X101400000Y-82060000D01*
D43*
X127620000Y-83440000D02*
X126780002Y-83440000D01*
D44*
X123300000Y-83050000D02*
X121987500Y-83050000D01*
X101220000Y-82240000D02*
X101400000Y-82060000D01*
X111487500Y-84750000D02*
X112025000Y-84750000D01*
X119475001Y-85525001D02*
X119700000Y-85750000D01*
X112800000Y-85525000D02*
X119475001Y-85525001D01*
X112025000Y-84750000D02*
X112800000Y-85525000D01*
X138590000Y-83800000D02*
X134190000Y-83800000D01*
X139010000Y-83380000D02*
X138590000Y-83800000D01*
X91933440Y-81000000D02*
X90500344Y-82433096D01*
X97330000Y-83387500D02*
X96127500Y-83387500D01*
X96127500Y-83387500D02*
X95120000Y-82380000D01*
X94165000Y-81000000D02*
X91933440Y-81000000D01*
X94165000Y-81425000D02*
X95120000Y-82380000D01*
X139010000Y-82625000D02*
X139010000Y-83380000D01*
X131650000Y-88440000D02*
X131400000Y-88440000D01*
X131400000Y-88440000D02*
X130860000Y-87900000D01*
X92315000Y-87800000D02*
X91850000Y-87800000D01*
X135805000Y-83035979D02*
X135700000Y-82930979D01*
X94165000Y-81000000D02*
X94165000Y-81425000D01*
X91350000Y-87300000D02*
X89340000Y-87300000D01*
X91850000Y-87800000D02*
X91350000Y-87300000D01*
X90500344Y-82433096D02*
X90200345Y-82733095D01*
X134190000Y-83800000D02*
X132910000Y-82520000D01*
X138385000Y-82000000D02*
X139010000Y-82625000D01*
D45*
X135010000Y-87290000D02*
X135010000Y-85140000D01*
X135010000Y-85140000D02*
X134850000Y-84980000D01*
X131650000Y-87470000D02*
X134830000Y-87470000D01*
X134830000Y-87470000D02*
X135010000Y-87290000D01*
D44*
X112025000Y-85250000D02*
X112638978Y-85863978D01*
X120425001Y-85849999D02*
X120650000Y-85625000D01*
X119174614Y-85863978D02*
X119492638Y-86182002D01*
X111487500Y-85250000D02*
X112025000Y-85250000D01*
X120092998Y-86182002D02*
X120425001Y-85849999D01*
X119492638Y-86182002D02*
X120092998Y-86182002D01*
X112638978Y-85863978D02*
X119174614Y-85863978D01*
D43*
X131775000Y-86340000D02*
X131715000Y-86280000D01*
X133010000Y-86340000D02*
X131775000Y-86340000D01*
D44*
X100600000Y-83210000D02*
X100440000Y-83210000D01*
X100007500Y-83210000D02*
X99830000Y-83387500D01*
X104860895Y-88437500D02*
X104748396Y-88325001D01*
X102674997Y-88325001D02*
X102449998Y-88550000D01*
X100440000Y-83210000D02*
X100007500Y-83210000D01*
X104748396Y-88325001D02*
X102674997Y-88325001D01*
X101270000Y-83210000D02*
X100600000Y-83210000D01*
X105300000Y-88437500D02*
X104860895Y-88437500D01*
D45*
X126490002Y-88840002D02*
X130145026Y-88840002D01*
X117365000Y-88610000D02*
X116925000Y-89050000D01*
D44*
X92870000Y-83900000D02*
X92870000Y-82630000D01*
X115520000Y-84950000D02*
X117000000Y-84950000D01*
D45*
X124050000Y-86400000D02*
X126490002Y-88840002D01*
X117755000Y-88610000D02*
X117365000Y-88610000D01*
D44*
X92870000Y-82630000D02*
X92905000Y-82595000D01*
D45*
X98330000Y-83387500D02*
X98330000Y-82630000D01*
X116800000Y-89175000D02*
X116925000Y-89050000D01*
D44*
X93300000Y-82595000D02*
X93315000Y-82580000D01*
X120470000Y-81450000D02*
X120870000Y-81850000D01*
D45*
X115550000Y-89175000D02*
X116800000Y-89175000D01*
D44*
X119913500Y-81450000D02*
X120470000Y-81450000D01*
X98330000Y-82630000D02*
X98330000Y-82430000D01*
D45*
X130630026Y-88650000D02*
X130630026Y-88830028D01*
X140300000Y-85325000D02*
X140300000Y-85174010D01*
D44*
X116370000Y-84950000D02*
X117000000Y-84950000D01*
D45*
X106800000Y-81562500D02*
X106800000Y-80887052D01*
D44*
X93315000Y-82580000D02*
X94220000Y-82580000D01*
X111487500Y-82250000D02*
X110800000Y-81562500D01*
D45*
X104075000Y-87750000D02*
X103925000Y-87900000D01*
D44*
X122080026Y-81713473D02*
X122575000Y-81713473D01*
D45*
X142262500Y-88900000D02*
X143062500Y-88100000D01*
X139400000Y-85650000D02*
X139975000Y-85650000D01*
D44*
X92905000Y-82595000D02*
X93300000Y-82595000D01*
D45*
X155550000Y-85150000D02*
X155550000Y-86250000D01*
X130145026Y-88840002D02*
X130640000Y-88840002D01*
D44*
X120870000Y-81850000D02*
X121943499Y-81850000D01*
D45*
X104612500Y-87750000D02*
X104075000Y-87750000D01*
D44*
X121943499Y-81850000D02*
X122080026Y-81713473D01*
D45*
X155200000Y-86600000D02*
X155200000Y-87400000D01*
D44*
X102274260Y-87900000D02*
X101849996Y-87900000D01*
D45*
X130630026Y-88830028D02*
X130640000Y-88840002D01*
X106800000Y-80887052D02*
X106850000Y-80837052D01*
D44*
X103925000Y-87900000D02*
X102274260Y-87900000D01*
D45*
X155550000Y-86250000D02*
X155200000Y-86600000D01*
D44*
X98330000Y-82430000D02*
X98140000Y-82240000D01*
D45*
X139975000Y-85650000D02*
X140300000Y-85325000D01*
D44*
X102580071Y-86750000D02*
X102632051Y-86750000D01*
X102050000Y-86750000D02*
X101053038Y-87746962D01*
X102350000Y-86750000D02*
X102230000Y-86630000D01*
X104612500Y-86750000D02*
X102632051Y-86750000D01*
X101053038Y-87746962D02*
X101046962Y-87746962D01*
X98065000Y-88060000D02*
X100733924Y-88060000D01*
X102230000Y-86630000D02*
X102230000Y-85690000D01*
X100733924Y-88060000D02*
X101046962Y-87746962D01*
X102580071Y-86750000D02*
X102350000Y-86750000D01*
X97830000Y-87312500D02*
X97830000Y-87825000D01*
X97830000Y-87825000D02*
X98065000Y-88060000D01*
X101046962Y-87746962D02*
X101154002Y-87639922D01*
X102350000Y-86750000D02*
X102050000Y-86750000D01*
X104612500Y-86250000D02*
X103000187Y-86250000D01*
X103000187Y-86250000D02*
X102946177Y-86195990D01*
X97330000Y-87312500D02*
X97330000Y-88320000D01*
X102946177Y-86195990D02*
X103310000Y-85832167D01*
X103310000Y-85832167D02*
X103310000Y-85195000D01*
X94310000Y-85610000D02*
X93820000Y-86100000D01*
X96617500Y-85610000D02*
X94310000Y-85610000D01*
X93820000Y-86100000D02*
X93820000Y-86530000D01*
X96617500Y-85600000D02*
X96617500Y-86100000D01*
X96617500Y-84600000D02*
X96617500Y-84100000D01*
X91000000Y-86650000D02*
X89600000Y-86650000D01*
X95290000Y-84090000D02*
X94010000Y-84090000D01*
X94010000Y-84090000D02*
X93820000Y-83900000D01*
X96617500Y-84110000D02*
X96597500Y-84090000D01*
X96597500Y-84090000D02*
X95290000Y-84090000D01*
X89600000Y-86650000D02*
X89450000Y-86500000D01*
X119315761Y-89690761D02*
X121984239Y-89690761D01*
X121984239Y-89690761D02*
X122575000Y-89100000D01*
X108125000Y-80700000D02*
X107800000Y-81025000D01*
X122575000Y-89100000D02*
X122575000Y-85525000D01*
X124530000Y-83570000D02*
X124530000Y-81145592D01*
X119025000Y-88610000D02*
X119200000Y-88785000D01*
X124530000Y-81145592D02*
X124084408Y-80700000D01*
X119200000Y-88785000D02*
X119000000Y-88985000D01*
X119000000Y-88985000D02*
X119000000Y-89375000D01*
X107800000Y-81025000D02*
X107800000Y-81562500D01*
X119000000Y-89375000D02*
X119315761Y-89690761D01*
X122575000Y-85525000D02*
X124530000Y-83570000D01*
X124084408Y-80700000D02*
X108125000Y-80700000D01*
X115730000Y-87170000D02*
X115635979Y-87264021D01*
X117360000Y-87170000D02*
X115730000Y-87170000D01*
X109800000Y-89350000D02*
X109800000Y-88437500D01*
X117755000Y-87340000D02*
X117530000Y-87340000D01*
X117530000Y-87340000D02*
X117360000Y-87170000D01*
X115635979Y-87264021D02*
X115600000Y-87264021D01*
X112025000Y-87750000D02*
X111487500Y-87750000D01*
X113295000Y-86480000D02*
X112025000Y-87750000D01*
X118165000Y-86480000D02*
X113295000Y-86480000D01*
X119025000Y-87340000D02*
X118165000Y-86480000D01*
D43*
X142925000Y-86750000D02*
X142970000Y-86750000D01*
X141300000Y-87850000D02*
X141825000Y-87850000D01*
X142970000Y-86750000D02*
X143365000Y-86750000D01*
X141825000Y-87850000D02*
X142925000Y-86750000D01*
D44*
X137750000Y-87465000D02*
X137750000Y-86385000D01*
X138084168Y-86719168D02*
X139705832Y-86719168D01*
X140775000Y-85650000D02*
X141300000Y-85650000D01*
X136600000Y-86465000D02*
X137670000Y-86465000D01*
X139705832Y-86719168D02*
X140775000Y-85650000D01*
X137750000Y-86385000D02*
X138084168Y-86719168D01*
X137670000Y-86465000D02*
X137750000Y-86385000D01*
D43*
X136600000Y-88585000D02*
X136585000Y-88600000D01*
X137750000Y-88435000D02*
X138815000Y-88435000D01*
X137585000Y-88600000D02*
X137750000Y-88435000D01*
X138815000Y-88435000D02*
X139400000Y-87850000D01*
X136600000Y-87435000D02*
X136600000Y-88585000D01*
X136585000Y-88600000D02*
X137585000Y-88600000D01*
D44*
X102450000Y-81090000D02*
X103061001Y-80478999D01*
X100765000Y-80990000D02*
X100865000Y-81090000D01*
X95135000Y-81000000D02*
X95479168Y-80655832D01*
X104001001Y-81075119D02*
X104488382Y-81562500D01*
X101400000Y-81090000D02*
X102450000Y-81090000D01*
X104001001Y-80755119D02*
X104001001Y-81075119D01*
X105075000Y-81562500D02*
X105300000Y-81562500D01*
X100865000Y-81090000D02*
X101400000Y-81090000D01*
X100430832Y-80655832D02*
X100765000Y-80990000D01*
X103061001Y-80478999D02*
X103724881Y-80478999D01*
X104488382Y-81562500D02*
X105075000Y-81562500D01*
X103724881Y-80478999D02*
X104001001Y-80755119D01*
X95479168Y-80655832D02*
X100430832Y-80655832D01*
D43*
X104606010Y-89106010D02*
X104500000Y-89000000D01*
X119204012Y-86614012D02*
X119331802Y-86614012D01*
X112500000Y-86450000D02*
X112799999Y-86150001D01*
X107300000Y-88975000D02*
X107168990Y-89106010D01*
X130745000Y-86280000D02*
X130745000Y-86955499D01*
X118740001Y-86150001D02*
X119204012Y-86614012D01*
X104500000Y-89000000D02*
X104500000Y-88900961D01*
X112799999Y-86150001D02*
X118740001Y-86150001D01*
X107300000Y-88437500D02*
X107300000Y-88975000D01*
X119331802Y-86614012D02*
X119650000Y-86614012D01*
X130745000Y-86955499D02*
X130269990Y-87430509D01*
X107168990Y-89106010D02*
X104606010Y-89106010D01*
D44*
X135615000Y-88600000D02*
X135300002Y-88600000D01*
X105800000Y-81025000D02*
X105625000Y-80850000D01*
X130153152Y-80653152D02*
X130123424Y-80653152D01*
X105104264Y-80850000D02*
X104680000Y-80850000D01*
X105800000Y-81562500D02*
X105800000Y-81025000D01*
X135300002Y-88600000D02*
X135010002Y-88310000D01*
X105625000Y-80850000D02*
X105104264Y-80850000D01*
X103950000Y-83250000D02*
X103800000Y-83400000D01*
X103360000Y-81410000D02*
X103360000Y-81210000D01*
X104612500Y-83250000D02*
X103950000Y-83250000D01*
X103800000Y-83400000D02*
X103270000Y-83400000D01*
X154900000Y-81550000D02*
X154800000Y-81650000D01*
X103029186Y-83159186D02*
X103029186Y-81740814D01*
X103029186Y-81740814D02*
X103360000Y-81410000D01*
X156365000Y-81550000D02*
X154900000Y-81550000D01*
X103270000Y-83400000D02*
X103029186Y-83159186D01*
X157450000Y-85150000D02*
X157450000Y-81665000D01*
X157450000Y-81665000D02*
X157335000Y-81550000D01*
D45*
X141750000Y-84135000D02*
X141315000Y-84570000D01*
X136230000Y-84570000D02*
X135820000Y-84980000D01*
X141315000Y-84570000D02*
X136230000Y-84570000D01*
X141750000Y-83725000D02*
X141750000Y-84135000D01*
D44*
X104612500Y-82750000D02*
X103900000Y-82750000D01*
X103714209Y-82935791D02*
X103596593Y-82935791D01*
X103900000Y-82750000D02*
X103714209Y-82935791D01*
X91920000Y-84105000D02*
X91920000Y-83900000D01*
X90334124Y-88535876D02*
X90885876Y-88535876D01*
X108557010Y-89717990D02*
X109300000Y-88975000D01*
X90925000Y-84740000D02*
X90710000Y-84525000D01*
X91000000Y-84740000D02*
X90925000Y-84740000D01*
X109300000Y-88975000D02*
X109300000Y-88437500D01*
X91000000Y-84740000D02*
X91285000Y-84740000D01*
X91285000Y-84740000D02*
X91920000Y-84105000D01*
X90885876Y-88535876D02*
X92067990Y-89717990D01*
X92067990Y-89717990D02*
X108557010Y-89717990D01*
X108317021Y-89457979D02*
X108800000Y-88975000D01*
X91005876Y-88255876D02*
X92207979Y-89457979D01*
X90945000Y-85240000D02*
X90710000Y-85475000D01*
X89400000Y-85750000D02*
X90435000Y-85750000D01*
X91265000Y-85240000D02*
X91920000Y-85895000D01*
X91060000Y-85240000D02*
X91265000Y-85240000D01*
X91005876Y-87864124D02*
X91005876Y-88255876D01*
X108800000Y-88975000D02*
X108800000Y-88437500D01*
X92207979Y-89457979D02*
X108317021Y-89457979D01*
X91060000Y-85240000D02*
X90945000Y-85240000D01*
X91920000Y-85895000D02*
X91920000Y-86100000D01*
X90435000Y-85750000D02*
X90710000Y-85475000D01*
X98830000Y-83387500D02*
X98830000Y-82890000D01*
X98830000Y-82890000D02*
X99480000Y-82240000D01*
X97830000Y-82920000D02*
X97150000Y-82240000D01*
X97830000Y-83387500D02*
X97830000Y-82920000D01*
X95400000Y-86640000D02*
X96577500Y-86640000D01*
X96577500Y-86640000D02*
X96617500Y-86600000D01*
X139640000Y-82620000D02*
X140260000Y-82000000D01*
X133579168Y-84385832D02*
X133245000Y-84720000D01*
X139640000Y-83420000D02*
X139640000Y-82620000D01*
X138905989Y-84154011D02*
X133810989Y-84154011D01*
X139640000Y-83420000D02*
X138905989Y-84154011D01*
X133810989Y-84154011D02*
X133579168Y-84385832D01*
X106300000Y-81562500D02*
X106300000Y-81025000D01*
X106595119Y-80306051D02*
X106581170Y-80320000D01*
X106318999Y-81006001D02*
X106318999Y-80582171D01*
X126720000Y-84480000D02*
X125580000Y-83340000D01*
X127550000Y-84480000D02*
X126720000Y-84480000D01*
X124290000Y-80320000D02*
X122770000Y-80320000D01*
X107840000Y-80320000D02*
X107118830Y-80320000D01*
X127900000Y-85300000D02*
X127620000Y-85020000D01*
X125580000Y-83340000D02*
X125580000Y-81610000D01*
X127885000Y-85960000D02*
X127900000Y-85945000D01*
X106300000Y-81025000D02*
X106318999Y-81006001D01*
X127900000Y-85945000D02*
X127900000Y-85300000D01*
X125580000Y-81610000D02*
X124290000Y-80320000D01*
X106318999Y-80582171D02*
X106595119Y-80306051D01*
X107104881Y-80306051D02*
X106595119Y-80306051D01*
X107118830Y-80320000D02*
X107104881Y-80306051D01*
X127630000Y-84400000D02*
X127620000Y-84410000D01*
X128680000Y-84400000D02*
X127630000Y-84400000D01*
X122770000Y-80320000D02*
X122760000Y-80330000D01*
X129000000Y-84720000D02*
X128680000Y-84400000D01*
X127620000Y-84410000D02*
X127550000Y-84480000D01*
X127620000Y-85020000D02*
X127620000Y-84410000D01*
X122770000Y-80320000D02*
X107840000Y-80320000D01*
X131940000Y-82520000D02*
X130900000Y-82520000D01*
X132275000Y-84720000D02*
X130920000Y-84720000D01*
X100542500Y-84100000D02*
X101000000Y-84100000D01*
X101000000Y-84100000D02*
X101300000Y-84400000D01*
X93285000Y-87800000D02*
X93285000Y-88385000D01*
X93285000Y-88385000D02*
X93425000Y-88525000D01*
X100800000Y-87350000D02*
X100550000Y-87350000D01*
X101300000Y-86850000D02*
X100800000Y-87350000D01*
X101300000Y-84400000D02*
X101300000Y-86850000D01*
X111487500Y-84250000D02*
X112515000Y-84250000D01*
X112515000Y-84250000D02*
X113200000Y-84935000D01*
X113215000Y-84950000D02*
X113200000Y-84935000D01*
X114550000Y-84950000D02*
X113215000Y-84950000D01*
X104612500Y-82250000D02*
X103730000Y-82250000D01*
X103730000Y-82250000D02*
X103630000Y-82150000D01*
G04 #@! TA.AperFunction,Conductor*
G36*
X142122121Y-80774002D02*
G01*
X142168614Y-80827658D01*
X142180000Y-80880000D01*
X142180000Y-83134500D01*
X142159998Y-83202621D01*
X142106342Y-83249114D01*
X142054000Y-83260500D01*
X141435027Y-83260501D01*
X141374934Y-83260501D01*
X141339182Y-83267612D01*
X141312874Y-83272844D01*
X141312872Y-83272845D01*
X141300699Y-83275266D01*
X141290379Y-83282161D01*
X141290378Y-83282162D01*
X141229985Y-83322516D01*
X141216516Y-83331516D01*
X141209623Y-83341832D01*
X141200846Y-83350609D01*
X141198177Y-83347940D01*
X141160381Y-83379528D01*
X141110090Y-83390000D01*
X140393296Y-83390000D01*
X140325175Y-83369998D01*
X140302881Y-83351756D01*
X139385585Y-82406663D01*
X139352493Y-82343850D01*
X139350000Y-82318907D01*
X139350000Y-80880000D01*
X139370002Y-80811879D01*
X139423658Y-80765386D01*
X139476000Y-80754000D01*
X142054000Y-80754000D01*
X142122121Y-80774002D01*
G37*
G04 #@! TD.AperFunction*
G04 #@! TA.AperFunction,Conductor*
G36*
X124545945Y-84009301D02*
G01*
X124589210Y-84052566D01*
X124600000Y-84097511D01*
X124600000Y-89701000D01*
X124581093Y-89759191D01*
X124531593Y-89795155D01*
X124501000Y-89800000D01*
X122649000Y-89800000D01*
X122590809Y-89781093D01*
X122554845Y-89731593D01*
X122550000Y-89701000D01*
X122550000Y-89524511D01*
X122568907Y-89466320D01*
X122578996Y-89454507D01*
X122729708Y-89303795D01*
X122744704Y-89291489D01*
X122757763Y-89282763D01*
X122813791Y-89198911D01*
X122828500Y-89124965D01*
X122833466Y-89100000D01*
X122830402Y-89084596D01*
X122828500Y-89065282D01*
X122828500Y-85671011D01*
X122847407Y-85612820D01*
X122857496Y-85601007D01*
X124430996Y-84027507D01*
X124485513Y-83999730D01*
X124545945Y-84009301D01*
G37*
G04 #@! TD.AperFunction*
G04 #@! TA.AperFunction,Conductor*
G36*
X115352845Y-86752407D02*
G01*
X115388809Y-86801907D01*
X115388809Y-86863093D01*
X115353063Y-86912292D01*
X115346780Y-86915493D01*
X115251472Y-87010801D01*
X115247937Y-87017738D01*
X115247936Y-87017740D01*
X115197468Y-87116790D01*
X115190281Y-87130895D01*
X115189062Y-87138589D01*
X115189062Y-87138590D01*
X115183253Y-87175270D01*
X115169196Y-87264021D01*
X115170415Y-87271717D01*
X115180704Y-87336677D01*
X115190281Y-87397147D01*
X115193817Y-87404086D01*
X115193817Y-87404087D01*
X115244471Y-87503500D01*
X115251472Y-87517241D01*
X115346780Y-87612549D01*
X115353717Y-87616084D01*
X115353719Y-87616085D01*
X115400000Y-87639666D01*
X115466874Y-87673740D01*
X115474568Y-87674959D01*
X115474569Y-87674959D01*
X115554459Y-87687612D01*
X115589526Y-87693166D01*
X115592304Y-87693606D01*
X115600000Y-87694825D01*
X115607696Y-87693606D01*
X115607697Y-87693606D01*
X115645542Y-87687612D01*
X115705974Y-87697183D01*
X115749239Y-87740448D01*
X115758810Y-87800880D01*
X115755779Y-87814090D01*
X115747248Y-87842257D01*
X115741633Y-87932763D01*
X115737122Y-88005486D01*
X115736498Y-88015537D01*
X115765899Y-88186643D01*
X115768150Y-88191932D01*
X115768151Y-88191937D01*
X115792096Y-88248210D01*
X115800000Y-88286972D01*
X115800000Y-89701000D01*
X115781093Y-89759191D01*
X115731593Y-89795155D01*
X115701000Y-89800000D01*
X114773627Y-89800000D01*
X114715436Y-89781093D01*
X114679472Y-89731593D01*
X114679472Y-89670407D01*
X114715436Y-89620907D01*
X114736723Y-89610061D01*
X114737420Y-89609951D01*
X114744360Y-89606415D01*
X114848812Y-89553194D01*
X114848814Y-89553193D01*
X114855751Y-89549658D01*
X114949658Y-89455751D01*
X114961809Y-89431905D01*
X115006415Y-89344360D01*
X115006415Y-89344359D01*
X115009951Y-89337420D01*
X115025500Y-89239246D01*
X115025500Y-88735754D01*
X115023984Y-88726183D01*
X115011170Y-88645275D01*
X115011170Y-88645273D01*
X115009951Y-88637580D01*
X114965327Y-88550000D01*
X114953194Y-88526188D01*
X114953193Y-88526186D01*
X114949658Y-88519249D01*
X114855751Y-88425342D01*
X114848814Y-88421807D01*
X114848812Y-88421806D01*
X114744360Y-88368585D01*
X114744359Y-88368585D01*
X114737420Y-88365049D01*
X114729727Y-88363830D01*
X114729725Y-88363830D01*
X114643092Y-88350109D01*
X114643090Y-88350109D01*
X114639246Y-88349500D01*
X114060754Y-88349500D01*
X114056910Y-88350109D01*
X114056908Y-88350109D01*
X113970275Y-88363830D01*
X113970273Y-88363830D01*
X113962580Y-88365049D01*
X113955641Y-88368585D01*
X113955640Y-88368585D01*
X113851188Y-88421806D01*
X113851186Y-88421807D01*
X113844249Y-88425342D01*
X113750342Y-88519249D01*
X113746807Y-88526186D01*
X113746806Y-88526188D01*
X113734673Y-88550000D01*
X113690049Y-88637580D01*
X113688830Y-88645273D01*
X113688830Y-88645275D01*
X113676016Y-88726183D01*
X113674500Y-88735754D01*
X113674500Y-88882500D01*
X113655593Y-88940691D01*
X113606093Y-88976655D01*
X113575500Y-88981500D01*
X113469847Y-88981500D01*
X113411656Y-88962593D01*
X113380980Y-88926131D01*
X113369026Y-88901782D01*
X113359372Y-88882120D01*
X113350765Y-88873528D01*
X113283170Y-88806050D01*
X113283167Y-88806048D01*
X113277379Y-88800270D01*
X113173294Y-88749392D01*
X113123771Y-88742167D01*
X113109031Y-88740017D01*
X113109029Y-88740017D01*
X113105486Y-88739500D01*
X112694514Y-88739500D01*
X112690931Y-88740028D01*
X112690924Y-88740028D01*
X112633729Y-88748448D01*
X112633727Y-88748449D01*
X112626116Y-88749569D01*
X112522120Y-88800628D01*
X112516339Y-88806419D01*
X112446050Y-88876830D01*
X112446048Y-88876833D01*
X112440270Y-88882621D01*
X112436678Y-88889970D01*
X112436677Y-88889971D01*
X112419078Y-88925976D01*
X112376537Y-88969952D01*
X112330135Y-88981500D01*
X110799000Y-88981500D01*
X110740809Y-88962593D01*
X110704845Y-88913093D01*
X110700000Y-88882500D01*
X110700000Y-88149000D01*
X110718907Y-88090809D01*
X110768407Y-88054845D01*
X110799000Y-88050000D01*
X110950000Y-88050000D01*
X110950000Y-88051124D01*
X110992044Y-88051123D01*
X110999340Y-88053814D01*
X111001774Y-88054822D01*
X111009883Y-88060240D01*
X111086599Y-88075500D01*
X111487417Y-88075500D01*
X111888400Y-88075499D01*
X111965117Y-88060240D01*
X112033691Y-88014420D01*
X112069377Y-87999638D01*
X112123911Y-87988791D01*
X112207763Y-87932763D01*
X112216489Y-87919704D01*
X112228795Y-87904708D01*
X113371007Y-86762496D01*
X113425524Y-86734719D01*
X113441011Y-86733500D01*
X115294654Y-86733500D01*
X115352845Y-86752407D01*
G37*
G04 #@! TD.AperFunction*
G04 #@! TA.AperFunction,Conductor*
G36*
X95971518Y-85882407D02*
G01*
X96007482Y-85931907D01*
X96010424Y-85981815D01*
X96005448Y-86006828D01*
X96005447Y-86006838D01*
X96004500Y-86011599D01*
X96004501Y-86188400D01*
X96003618Y-86188400D01*
X95991442Y-86243881D01*
X95945703Y-86284521D01*
X95884812Y-86290515D01*
X95836091Y-86263880D01*
X95783169Y-86211050D01*
X95777379Y-86205270D01*
X95673294Y-86154392D01*
X95623771Y-86147167D01*
X95609031Y-86145017D01*
X95609029Y-86145017D01*
X95605486Y-86144500D01*
X95194514Y-86144500D01*
X95190931Y-86145028D01*
X95190924Y-86145028D01*
X95133729Y-86153448D01*
X95133727Y-86153449D01*
X95126116Y-86154569D01*
X95119210Y-86157960D01*
X95119209Y-86157960D01*
X95099613Y-86167581D01*
X95022120Y-86205628D01*
X95016339Y-86211419D01*
X94946050Y-86281830D01*
X94946048Y-86281833D01*
X94940270Y-86287621D01*
X94889392Y-86391706D01*
X94879500Y-86459514D01*
X94879500Y-86820486D01*
X94880028Y-86824069D01*
X94880028Y-86824076D01*
X94888448Y-86881271D01*
X94889569Y-86888884D01*
X94892960Y-86895790D01*
X94892960Y-86895791D01*
X94906193Y-86922743D01*
X94940628Y-86992880D01*
X94946419Y-86998661D01*
X95002755Y-87054899D01*
X95030580Y-87109391D01*
X95021061Y-87169831D01*
X95002877Y-87194905D01*
X94940270Y-87257621D01*
X94889392Y-87361706D01*
X94884222Y-87397147D01*
X94880506Y-87422621D01*
X94879500Y-87429514D01*
X94879500Y-87790486D01*
X94880028Y-87794069D01*
X94880028Y-87794076D01*
X94888266Y-87850035D01*
X94889569Y-87858884D01*
X94940628Y-87962880D01*
X94946419Y-87968661D01*
X95016830Y-88038950D01*
X95016833Y-88038952D01*
X95022621Y-88044730D01*
X95126706Y-88095608D01*
X95176229Y-88102833D01*
X95190969Y-88104983D01*
X95190971Y-88104983D01*
X95194514Y-88105500D01*
X95605486Y-88105500D01*
X95609069Y-88104972D01*
X95609076Y-88104972D01*
X95666271Y-88096552D01*
X95666273Y-88096551D01*
X95673884Y-88095431D01*
X95777880Y-88044372D01*
X95826911Y-87995256D01*
X95881402Y-87967430D01*
X95941843Y-87976949D01*
X95951828Y-87982784D01*
X96002313Y-88016390D01*
X96073344Y-88038581D01*
X96132425Y-88057039D01*
X96132426Y-88057039D01*
X96139157Y-88059142D01*
X96210828Y-88060456D01*
X96275445Y-88061641D01*
X96275447Y-88061641D01*
X96282499Y-88061770D01*
X96289302Y-88059915D01*
X96289304Y-88059915D01*
X96396491Y-88030692D01*
X96420817Y-88024060D01*
X96542991Y-87949045D01*
X96552826Y-87938180D01*
X96634468Y-87847982D01*
X96639200Y-87842754D01*
X96695099Y-87727379D01*
X96698634Y-87720082D01*
X96701710Y-87713733D01*
X96704495Y-87697183D01*
X96724862Y-87576124D01*
X96724862Y-87576120D01*
X96725496Y-87572354D01*
X96725647Y-87560000D01*
X96705323Y-87418082D01*
X96679691Y-87361706D01*
X96648905Y-87293996D01*
X96648904Y-87293995D01*
X96645984Y-87287572D01*
X96585582Y-87217472D01*
X96557005Y-87184307D01*
X96557004Y-87184306D01*
X96552400Y-87178963D01*
X96442262Y-87107575D01*
X96403716Y-87060059D01*
X96400460Y-86998960D01*
X96433739Y-86947617D01*
X96496109Y-86925500D01*
X96800405Y-86925499D01*
X96905500Y-86925499D01*
X96963691Y-86944406D01*
X96999655Y-86993906D01*
X97004500Y-87024499D01*
X97004501Y-87354802D01*
X97004501Y-87688400D01*
X97005779Y-87694825D01*
X97012354Y-87727880D01*
X97019760Y-87765117D01*
X97025175Y-87773221D01*
X97025177Y-87773226D01*
X97059815Y-87825065D01*
X97076500Y-87880066D01*
X97076500Y-87930744D01*
X97057593Y-87988935D01*
X97047504Y-88000748D01*
X96981472Y-88066780D01*
X96977937Y-88073717D01*
X96977936Y-88073719D01*
X96939579Y-88149000D01*
X96920281Y-88186874D01*
X96919062Y-88194568D01*
X96919062Y-88194569D01*
X96909205Y-88256807D01*
X96899196Y-88320000D01*
X96900415Y-88327696D01*
X96916753Y-88430848D01*
X96920281Y-88453126D01*
X96923817Y-88460065D01*
X96923817Y-88460066D01*
X96969641Y-88550000D01*
X96981472Y-88573220D01*
X97076780Y-88668528D01*
X97083717Y-88672063D01*
X97083719Y-88672064D01*
X97176963Y-88719574D01*
X97196874Y-88729719D01*
X97204568Y-88730938D01*
X97204569Y-88730938D01*
X97293022Y-88744947D01*
X97322203Y-88749569D01*
X97322304Y-88749585D01*
X97330000Y-88750804D01*
X97337696Y-88749585D01*
X97337798Y-88749569D01*
X97366978Y-88744947D01*
X97455431Y-88730938D01*
X97455432Y-88730938D01*
X97463126Y-88729719D01*
X97483037Y-88719574D01*
X97576281Y-88672064D01*
X97576283Y-88672063D01*
X97583220Y-88668528D01*
X97678528Y-88573220D01*
X97690360Y-88550000D01*
X97736183Y-88460066D01*
X97736183Y-88460065D01*
X97739719Y-88453126D01*
X97740938Y-88445431D01*
X97759295Y-88329530D01*
X97787073Y-88275013D01*
X97841589Y-88247236D01*
X97902021Y-88256807D01*
X97912078Y-88262702D01*
X97957981Y-88293374D01*
X97957983Y-88293375D01*
X97966089Y-88298791D01*
X98040035Y-88313500D01*
X98065000Y-88318466D01*
X98080404Y-88315402D01*
X98099718Y-88313500D01*
X100699206Y-88313500D01*
X100718520Y-88315402D01*
X100733924Y-88318466D01*
X100758889Y-88313500D01*
X100764902Y-88312304D01*
X100823274Y-88300693D01*
X100823275Y-88300693D01*
X100832835Y-88298791D01*
X100850524Y-88286972D01*
X100908580Y-88248180D01*
X100916687Y-88242763D01*
X100925413Y-88229704D01*
X100937719Y-88214708D01*
X101189432Y-87962995D01*
X101204435Y-87950683D01*
X101206887Y-87949045D01*
X101235801Y-87929725D01*
X101244527Y-87916666D01*
X101256833Y-87901670D01*
X102126007Y-87032496D01*
X102180524Y-87004719D01*
X102196011Y-87003500D01*
X102315282Y-87003500D01*
X102334596Y-87005402D01*
X102350000Y-87008466D01*
X102359562Y-87006564D01*
X102365404Y-87005402D01*
X102384718Y-87003500D01*
X102895581Y-87003500D01*
X102953772Y-87022407D01*
X102989736Y-87071907D01*
X102993544Y-87116790D01*
X102990368Y-87138561D01*
X102989500Y-87144514D01*
X102989500Y-87555486D01*
X102990028Y-87559069D01*
X102990028Y-87559076D01*
X102997900Y-87612549D01*
X102999569Y-87623884D01*
X103002960Y-87630790D01*
X103002960Y-87630791D01*
X103021838Y-87669241D01*
X103050628Y-87727880D01*
X103056419Y-87733661D01*
X103126830Y-87803950D01*
X103126833Y-87803952D01*
X103132621Y-87809730D01*
X103236706Y-87860608D01*
X103286229Y-87867833D01*
X103300969Y-87869983D01*
X103300971Y-87869983D01*
X103304514Y-87870500D01*
X103665486Y-87870500D01*
X103669069Y-87869972D01*
X103669076Y-87869972D01*
X103726271Y-87861552D01*
X103726273Y-87861551D01*
X103733884Y-87860431D01*
X103752541Y-87851271D01*
X103830536Y-87812978D01*
X103830537Y-87812977D01*
X103837880Y-87809372D01*
X103843491Y-87803751D01*
X103901690Y-87785288D01*
X103959748Y-87804601D01*
X103995366Y-87854351D01*
X104000000Y-87884286D01*
X104000000Y-87972501D01*
X103981093Y-88030692D01*
X103931593Y-88066656D01*
X103901000Y-88071501D01*
X102709715Y-88071501D01*
X102690401Y-88069599D01*
X102684559Y-88068437D01*
X102674997Y-88066535D01*
X102576087Y-88086209D01*
X102567979Y-88091627D01*
X102567978Y-88091627D01*
X102544235Y-88107492D01*
X102485347Y-88124100D01*
X102473749Y-88122957D01*
X102457697Y-88120415D01*
X102457694Y-88120415D01*
X102449998Y-88119196D01*
X102442302Y-88120415D01*
X102324567Y-88139062D01*
X102324566Y-88139062D01*
X102316872Y-88140281D01*
X102309933Y-88143817D01*
X102309932Y-88143817D01*
X102203717Y-88197936D01*
X102203715Y-88197937D01*
X102196778Y-88201472D01*
X102101470Y-88296780D01*
X102097935Y-88303717D01*
X102097934Y-88303719D01*
X102085717Y-88327696D01*
X102040279Y-88416874D01*
X102019194Y-88550000D01*
X102020413Y-88557696D01*
X102037419Y-88665066D01*
X102040279Y-88683126D01*
X102043815Y-88690065D01*
X102043815Y-88690066D01*
X102074763Y-88750804D01*
X102101470Y-88803220D01*
X102196778Y-88898528D01*
X102203715Y-88902063D01*
X102203717Y-88902064D01*
X102279527Y-88940691D01*
X102316872Y-88959719D01*
X102324566Y-88960938D01*
X102324567Y-88960938D01*
X102442302Y-88979585D01*
X102449998Y-88980804D01*
X102457694Y-88979585D01*
X102575429Y-88960938D01*
X102575430Y-88960938D01*
X102583124Y-88959719D01*
X102620469Y-88940691D01*
X102696279Y-88902064D01*
X102696281Y-88902063D01*
X102703218Y-88898528D01*
X102798526Y-88803220D01*
X102825234Y-88750804D01*
X102856181Y-88690066D01*
X102856181Y-88690065D01*
X102859717Y-88683126D01*
X102862578Y-88665066D01*
X102863061Y-88662013D01*
X102890839Y-88607497D01*
X102945356Y-88579720D01*
X102960842Y-88578501D01*
X103942584Y-88578501D01*
X104000775Y-88597408D01*
X104036739Y-88646908D01*
X104036739Y-88708094D01*
X104032200Y-88719573D01*
X104016447Y-88753124D01*
X104015362Y-88760093D01*
X104015361Y-88760096D01*
X104008149Y-88806419D01*
X103994391Y-88894784D01*
X104012980Y-89036940D01*
X104015821Y-89043396D01*
X104015821Y-89043397D01*
X104025594Y-89065607D01*
X104031724Y-89126484D01*
X104000901Y-89179338D01*
X103944897Y-89203981D01*
X103934978Y-89204479D01*
X93624000Y-89204479D01*
X93565809Y-89185572D01*
X93529845Y-89136072D01*
X93525000Y-89105479D01*
X93525000Y-89012265D01*
X93543907Y-88954074D01*
X93579055Y-88924055D01*
X93671281Y-88877064D01*
X93671283Y-88877063D01*
X93678220Y-88873528D01*
X93773528Y-88778220D01*
X93787498Y-88750804D01*
X93831183Y-88665066D01*
X93831183Y-88665065D01*
X93834719Y-88658126D01*
X93836755Y-88645275D01*
X93854585Y-88532696D01*
X93855804Y-88525000D01*
X93840020Y-88425342D01*
X93835938Y-88399569D01*
X93835938Y-88399568D01*
X93834719Y-88391874D01*
X93813439Y-88350109D01*
X93777064Y-88278719D01*
X93777063Y-88278717D01*
X93773528Y-88271780D01*
X93756378Y-88254630D01*
X93728601Y-88200113D01*
X93737439Y-88141150D01*
X93746332Y-88122957D01*
X93770608Y-88073294D01*
X93779197Y-88014421D01*
X93779983Y-88009031D01*
X93779983Y-88009029D01*
X93780500Y-88005486D01*
X93780500Y-87594514D01*
X93776676Y-87568533D01*
X93771552Y-87533729D01*
X93771551Y-87533727D01*
X93770431Y-87526116D01*
X93763989Y-87512994D01*
X93722978Y-87429465D01*
X93719372Y-87422120D01*
X93708894Y-87411660D01*
X93643170Y-87346050D01*
X93643167Y-87346048D01*
X93637379Y-87340270D01*
X93580523Y-87312478D01*
X93536548Y-87269938D01*
X93525000Y-87223536D01*
X93525000Y-86929500D01*
X93543907Y-86871309D01*
X93593407Y-86835345D01*
X93624000Y-86830500D01*
X94164748Y-86830500D01*
X94190995Y-86825279D01*
X94213666Y-86820770D01*
X94213668Y-86820769D01*
X94223231Y-86818867D01*
X94289552Y-86774552D01*
X94333867Y-86708231D01*
X94345500Y-86649748D01*
X94345500Y-85974011D01*
X94364407Y-85915820D01*
X94374496Y-85904007D01*
X94386007Y-85892496D01*
X94440524Y-85864719D01*
X94456011Y-85863500D01*
X95913327Y-85863500D01*
X95971518Y-85882407D01*
G37*
G04 #@! TD.AperFunction*
G04 #@! TA.AperFunction,Conductor*
G36*
X101969804Y-82398939D02*
G01*
X101994878Y-82417123D01*
X102066830Y-82488950D01*
X102066833Y-82488952D01*
X102072621Y-82494730D01*
X102176706Y-82545608D01*
X102221386Y-82552126D01*
X102240969Y-82554983D01*
X102240971Y-82554983D01*
X102244514Y-82555500D01*
X102655486Y-82555500D01*
X102662272Y-82554501D01*
X102722594Y-82564734D01*
X102765383Y-82608470D01*
X102775686Y-82652446D01*
X102775686Y-83124468D01*
X102773784Y-83143782D01*
X102770720Y-83159186D01*
X102775686Y-83184151D01*
X102790395Y-83258097D01*
X102795811Y-83266202D01*
X102795811Y-83266203D01*
X102811844Y-83290198D01*
X102846423Y-83341949D01*
X102859482Y-83350675D01*
X102874478Y-83362981D01*
X103066205Y-83554708D01*
X103078511Y-83569704D01*
X103087237Y-83582763D01*
X103171089Y-83638791D01*
X103245035Y-83653500D01*
X103270000Y-83658466D01*
X103285404Y-83655402D01*
X103304718Y-83653500D01*
X103765282Y-83653500D01*
X103784596Y-83655402D01*
X103800000Y-83658466D01*
X103824965Y-83653500D01*
X103825216Y-83653450D01*
X103856185Y-83647290D01*
X103916947Y-83654482D01*
X103961877Y-83696014D01*
X103974500Y-83744387D01*
X103974501Y-83789760D01*
X103974501Y-83838400D01*
X103989760Y-83915117D01*
X104009728Y-83945001D01*
X104026336Y-84003886D01*
X104009728Y-84054999D01*
X103989760Y-84084883D01*
X103974500Y-84161599D01*
X103974501Y-84338400D01*
X103989760Y-84415117D01*
X104009728Y-84445001D01*
X104026336Y-84503886D01*
X104009728Y-84554999D01*
X103989760Y-84584883D01*
X103974500Y-84661599D01*
X103974500Y-84666458D01*
X103974501Y-84833647D01*
X103955594Y-84891838D01*
X103906094Y-84927802D01*
X103844909Y-84927803D01*
X103795409Y-84891839D01*
X103786634Y-84877279D01*
X103772978Y-84849465D01*
X103769372Y-84842120D01*
X103700357Y-84773225D01*
X103693170Y-84766050D01*
X103693167Y-84766048D01*
X103687379Y-84760270D01*
X103583294Y-84709392D01*
X103533771Y-84702167D01*
X103519031Y-84700017D01*
X103519029Y-84700017D01*
X103515486Y-84699500D01*
X103104514Y-84699500D01*
X103100931Y-84700028D01*
X103100924Y-84700028D01*
X103043729Y-84708448D01*
X103043727Y-84708449D01*
X103036116Y-84709569D01*
X102932120Y-84760628D01*
X102926339Y-84766419D01*
X102856050Y-84836830D01*
X102856048Y-84836833D01*
X102850270Y-84842621D01*
X102799392Y-84946706D01*
X102789500Y-85014514D01*
X102789500Y-85198361D01*
X102770593Y-85256552D01*
X102721093Y-85292516D01*
X102659907Y-85292516D01*
X102620558Y-85268426D01*
X102613170Y-85261050D01*
X102613167Y-85261048D01*
X102607379Y-85255270D01*
X102503294Y-85204392D01*
X102453771Y-85197167D01*
X102439031Y-85195017D01*
X102439029Y-85195017D01*
X102435486Y-85194500D01*
X102024514Y-85194500D01*
X102020931Y-85195028D01*
X102020924Y-85195028D01*
X101963729Y-85203448D01*
X101963727Y-85203449D01*
X101956116Y-85204569D01*
X101852120Y-85255628D01*
X101846339Y-85261419D01*
X101776050Y-85331830D01*
X101776048Y-85331833D01*
X101770270Y-85337621D01*
X101753852Y-85371208D01*
X101741443Y-85396595D01*
X101698902Y-85440571D01*
X101638637Y-85451144D01*
X101583667Y-85424274D01*
X101554989Y-85370225D01*
X101553500Y-85353119D01*
X101553500Y-84434718D01*
X101555402Y-84415403D01*
X101556564Y-84409562D01*
X101558466Y-84400000D01*
X101548466Y-84349728D01*
X101538791Y-84301089D01*
X101482763Y-84217237D01*
X101469704Y-84208511D01*
X101454708Y-84196205D01*
X101203795Y-83945292D01*
X101191489Y-83930296D01*
X101182763Y-83917237D01*
X101174652Y-83911817D01*
X101174649Y-83911815D01*
X101174642Y-83911807D01*
X101167759Y-83904923D01*
X101168574Y-83904108D01*
X101136770Y-83863765D01*
X101134368Y-83802627D01*
X101168361Y-83751753D01*
X101229651Y-83730500D01*
X101450486Y-83730500D01*
X101454069Y-83729972D01*
X101454076Y-83729972D01*
X101511271Y-83721552D01*
X101511273Y-83721551D01*
X101518884Y-83720431D01*
X101622880Y-83669372D01*
X101628661Y-83663581D01*
X101698950Y-83593170D01*
X101698952Y-83593167D01*
X101704730Y-83587379D01*
X101755608Y-83483294D01*
X101765500Y-83415486D01*
X101765500Y-83004514D01*
X101758146Y-82954555D01*
X101756552Y-82943729D01*
X101756551Y-82943727D01*
X101755431Y-82936116D01*
X101704372Y-82832120D01*
X101693322Y-82821089D01*
X101628170Y-82756050D01*
X101628167Y-82756048D01*
X101622379Y-82750270D01*
X101615028Y-82746677D01*
X101615027Y-82746676D01*
X101599350Y-82739013D01*
X101555373Y-82696473D01*
X101544800Y-82636208D01*
X101571670Y-82581238D01*
X101628406Y-82552126D01*
X101666271Y-82546552D01*
X101666273Y-82546551D01*
X101673884Y-82545431D01*
X101777880Y-82494372D01*
X101854872Y-82417245D01*
X101909363Y-82389420D01*
X101969804Y-82398939D01*
G37*
G04 #@! TD.AperFunction*
G04 #@! TA.AperFunction,Conductor*
G36*
X113827190Y-84029000D02*
G01*
X114828782Y-84029000D01*
X114886973Y-84047907D01*
X114898786Y-84057996D01*
X115333490Y-84492700D01*
X115334472Y-84493582D01*
X115334474Y-84493584D01*
X115352714Y-84509969D01*
X115352724Y-84509978D01*
X115353712Y-84510865D01*
X115374686Y-84527768D01*
X115462509Y-84573709D01*
X115530630Y-84593711D01*
X115602190Y-84604000D01*
X117172347Y-84604000D01*
X117230538Y-84622907D01*
X117266502Y-84672407D01*
X117270953Y-84711824D01*
X117269332Y-84729935D01*
X117269332Y-84729940D01*
X117268899Y-84734779D01*
X117276488Y-84805369D01*
X117277362Y-84808792D01*
X117277362Y-84808794D01*
X117290654Y-84860871D01*
X117292882Y-84872430D01*
X117300172Y-84927803D01*
X117301393Y-84937080D01*
X117301393Y-84962922D01*
X117300611Y-84968863D01*
X117300608Y-84968879D01*
X117290994Y-85041899D01*
X117291626Y-85112697D01*
X117292140Y-85116126D01*
X117298389Y-85157830D01*
X117288314Y-85218180D01*
X117244690Y-85261082D01*
X117200482Y-85271501D01*
X116142631Y-85271500D01*
X115143066Y-85271500D01*
X115084875Y-85252593D01*
X115048911Y-85203093D01*
X115045480Y-85162667D01*
X115044723Y-85162612D01*
X115044983Y-85159031D01*
X115045500Y-85155486D01*
X115045500Y-84744514D01*
X115044779Y-84739612D01*
X115036552Y-84683729D01*
X115036551Y-84683727D01*
X115035431Y-84676116D01*
X115020778Y-84646270D01*
X114995333Y-84594446D01*
X114984372Y-84572120D01*
X114960700Y-84548489D01*
X114908170Y-84496050D01*
X114908167Y-84496048D01*
X114902379Y-84490270D01*
X114798294Y-84439392D01*
X114748771Y-84432167D01*
X114734031Y-84430017D01*
X114734029Y-84430017D01*
X114730486Y-84429500D01*
X114369514Y-84429500D01*
X114365931Y-84430028D01*
X114365924Y-84430028D01*
X114308729Y-84438448D01*
X114308727Y-84438449D01*
X114301116Y-84439569D01*
X114294210Y-84442960D01*
X114294209Y-84442960D01*
X114279758Y-84450055D01*
X114197120Y-84490628D01*
X114191339Y-84496419D01*
X114121050Y-84566830D01*
X114121048Y-84566833D01*
X114115270Y-84572621D01*
X114086978Y-84630500D01*
X114081857Y-84640977D01*
X114039315Y-84684952D01*
X113992914Y-84696500D01*
X113777212Y-84696500D01*
X113719021Y-84677593D01*
X113688345Y-84641131D01*
X113670114Y-84604000D01*
X113659372Y-84582120D01*
X113650946Y-84573709D01*
X113597245Y-84520101D01*
X113569420Y-84465609D01*
X113578939Y-84405169D01*
X113597124Y-84380094D01*
X113614781Y-84362407D01*
X113659730Y-84317379D01*
X113710608Y-84213294D01*
X113720500Y-84145486D01*
X113720500Y-84127450D01*
X113739407Y-84069259D01*
X113788907Y-84033295D01*
X113825781Y-84028797D01*
X113827190Y-84029000D01*
G37*
G04 #@! TD.AperFunction*
G04 #@! TA.AperFunction,Conductor*
G36*
X123996588Y-80972407D02*
G01*
X124008401Y-80982496D01*
X124247504Y-81221599D01*
X124275281Y-81276116D01*
X124276500Y-81291603D01*
X124276500Y-83423989D01*
X124257593Y-83482180D01*
X124247504Y-83493993D01*
X123123004Y-84618493D01*
X123068487Y-84646270D01*
X123008055Y-84636699D01*
X122964790Y-84593434D01*
X122954000Y-84548489D01*
X122954000Y-84109072D01*
X122953181Y-84088697D01*
X122951559Y-84068542D01*
X122927504Y-83979295D01*
X122896863Y-83915251D01*
X122873758Y-83876308D01*
X122868574Y-83871482D01*
X122864334Y-83866220D01*
X122842545Y-83809046D01*
X122858522Y-83749984D01*
X122864337Y-83741981D01*
X122874714Y-83729105D01*
X122874719Y-83729097D01*
X122877768Y-83725314D01*
X122905145Y-83672978D01*
X122921455Y-83641800D01*
X122921455Y-83641799D01*
X122923709Y-83637491D01*
X122934577Y-83600476D01*
X122969112Y-83549970D01*
X123026739Y-83529407D01*
X123037366Y-83530028D01*
X123037388Y-83529723D01*
X123040969Y-83529983D01*
X123044514Y-83530500D01*
X123455486Y-83530500D01*
X123459069Y-83529972D01*
X123459076Y-83529972D01*
X123516271Y-83521552D01*
X123516273Y-83521551D01*
X123523884Y-83520431D01*
X123627880Y-83469372D01*
X123673184Y-83423989D01*
X123703950Y-83393170D01*
X123703952Y-83393167D01*
X123709730Y-83387379D01*
X123760608Y-83283294D01*
X123770500Y-83215486D01*
X123770500Y-82854514D01*
X123769296Y-82846329D01*
X123761552Y-82793729D01*
X123761551Y-82793727D01*
X123760431Y-82786116D01*
X123757034Y-82779196D01*
X123730723Y-82725608D01*
X123709372Y-82682120D01*
X123687488Y-82660274D01*
X123633170Y-82606050D01*
X123633167Y-82606048D01*
X123627379Y-82600270D01*
X123523294Y-82549392D01*
X123472897Y-82542040D01*
X123459031Y-82540017D01*
X123459029Y-82540017D01*
X123455486Y-82539500D01*
X123044514Y-82539500D01*
X123042411Y-82539810D01*
X122983338Y-82525286D01*
X122943856Y-82478544D01*
X122941049Y-82470740D01*
X122926571Y-82424501D01*
X122920050Y-82403675D01*
X122917464Y-82398939D01*
X122887716Y-82344461D01*
X122887714Y-82344458D01*
X122886024Y-82341363D01*
X122842700Y-82283490D01*
X122616510Y-82057300D01*
X122614978Y-82055924D01*
X122597286Y-82040031D01*
X122597276Y-82040022D01*
X122596288Y-82039135D01*
X122575314Y-82022232D01*
X122530385Y-81998729D01*
X122491800Y-81978545D01*
X122491799Y-81978545D01*
X122487491Y-81976291D01*
X122419370Y-81956289D01*
X122347810Y-81946000D01*
X120723593Y-81946000D01*
X120698696Y-81947223D01*
X120697499Y-81947341D01*
X120697484Y-81947342D01*
X120675351Y-81949522D01*
X120675337Y-81949524D01*
X120674116Y-81949644D01*
X120673304Y-81949764D01*
X120661349Y-81950499D01*
X119913374Y-81950500D01*
X119165658Y-81950500D01*
X119153698Y-81949766D01*
X119152877Y-81949644D01*
X119139298Y-81948307D01*
X119078998Y-81919788D01*
X118566510Y-81407300D01*
X118557093Y-81398841D01*
X118547286Y-81390031D01*
X118547276Y-81390022D01*
X118546288Y-81389135D01*
X118525314Y-81372232D01*
X118437491Y-81326291D01*
X118369370Y-81306289D01*
X118297810Y-81296000D01*
X115677190Y-81296000D01*
X115675886Y-81296070D01*
X115675882Y-81296070D01*
X115651364Y-81297384D01*
X115651357Y-81297385D01*
X115650043Y-81297455D01*
X115648735Y-81297596D01*
X115648730Y-81297596D01*
X115639180Y-81298623D01*
X115623260Y-81300334D01*
X115618619Y-81301787D01*
X115618615Y-81301788D01*
X115595583Y-81309000D01*
X115528675Y-81329950D01*
X115524408Y-81332280D01*
X115469461Y-81362284D01*
X115469458Y-81362286D01*
X115466363Y-81363976D01*
X115408490Y-81407300D01*
X114898786Y-81917004D01*
X114844269Y-81944781D01*
X114828782Y-81946000D01*
X114789417Y-81946000D01*
X114726463Y-81953925D01*
X114723467Y-81954691D01*
X114723459Y-81954693D01*
X114696877Y-81961494D01*
X114673096Y-81967578D01*
X114673133Y-81967722D01*
X114658173Y-81973413D01*
X114651474Y-81974510D01*
X114651470Y-81974511D01*
X114646678Y-81975296D01*
X114641848Y-81977107D01*
X114641838Y-81977111D01*
X114638322Y-81978429D01*
X114638294Y-81978441D01*
X114638294Y-81978440D01*
X114583788Y-81998873D01*
X114583785Y-81998874D01*
X114583761Y-81998883D01*
X114583722Y-81998897D01*
X114566827Y-82005232D01*
X114564895Y-82005956D01*
X114562913Y-82006699D01*
X114528160Y-82012999D01*
X114249955Y-82013000D01*
X113971842Y-82013000D01*
X113937090Y-82006700D01*
X113916732Y-81999068D01*
X113861707Y-81978440D01*
X113861844Y-81978074D01*
X113861813Y-81978068D01*
X113861678Y-81978429D01*
X113858162Y-81977111D01*
X113858152Y-81977107D01*
X113853322Y-81975296D01*
X113846614Y-81974196D01*
X113826703Y-81968362D01*
X113826904Y-81967578D01*
X113819353Y-81965646D01*
X113819350Y-81965645D01*
X113776541Y-81954693D01*
X113776533Y-81954691D01*
X113773537Y-81953925D01*
X113710583Y-81946000D01*
X113556304Y-81946000D01*
X113553078Y-81946429D01*
X113553072Y-81946429D01*
X113520376Y-81950774D01*
X113489980Y-81954812D01*
X113426461Y-81971994D01*
X113424627Y-81972648D01*
X113424625Y-81972649D01*
X113395340Y-81983098D01*
X113395338Y-81983099D01*
X113388920Y-81985389D01*
X113383364Y-81989335D01*
X113383363Y-81989336D01*
X113364660Y-82002621D01*
X113308123Y-82042780D01*
X113259375Y-82094396D01*
X113217721Y-82153486D01*
X113207007Y-82174514D01*
X113200846Y-82186605D01*
X113182640Y-82211664D01*
X113171664Y-82222640D01*
X113146606Y-82240845D01*
X113132778Y-82247891D01*
X113103318Y-82257463D01*
X113091845Y-82259280D01*
X113076360Y-82260499D01*
X112899978Y-82260500D01*
X112723648Y-82260500D01*
X112708162Y-82259281D01*
X112696682Y-82257463D01*
X112667226Y-82247893D01*
X112653390Y-82240843D01*
X112628337Y-82222641D01*
X112612996Y-82207300D01*
X112605512Y-82200577D01*
X112593772Y-82190031D01*
X112593762Y-82190022D01*
X112592774Y-82189135D01*
X112571800Y-82172232D01*
X112483977Y-82126291D01*
X112415856Y-82106289D01*
X112344296Y-82096000D01*
X112302190Y-82096000D01*
X112300886Y-82096070D01*
X112300882Y-82096070D01*
X112276364Y-82097384D01*
X112276357Y-82097385D01*
X112275043Y-82097455D01*
X112273735Y-82097596D01*
X112273730Y-82097596D01*
X112264180Y-82098623D01*
X112248260Y-82100334D01*
X112243619Y-82101787D01*
X112243615Y-82101788D01*
X112203838Y-82114243D01*
X112153675Y-82129950D01*
X112149408Y-82132280D01*
X112094461Y-82162284D01*
X112094458Y-82162286D01*
X112091363Y-82163976D01*
X112033490Y-82207300D01*
X111982646Y-82258144D01*
X111954190Y-82292055D01*
X111929091Y-82327898D01*
X111926478Y-82332424D01*
X111882577Y-82372651D01*
X111874374Y-82376476D01*
X111871674Y-82377735D01*
X111865065Y-82380222D01*
X111865116Y-82380349D01*
X111859278Y-82382693D01*
X111859239Y-82382558D01*
X111855928Y-82383523D01*
X111851607Y-82385773D01*
X111847090Y-82387587D01*
X111846967Y-82387280D01*
X111836054Y-82391637D01*
X111831266Y-82393012D01*
X111831264Y-82393013D01*
X111827715Y-82394032D01*
X111824794Y-82395366D01*
X111824809Y-82395399D01*
X111821532Y-82396610D01*
X111821625Y-82396814D01*
X111780590Y-82415554D01*
X111739464Y-82424500D01*
X111587960Y-82424500D01*
X111149000Y-82424501D01*
X111090809Y-82405594D01*
X111054845Y-82356094D01*
X111050000Y-82325501D01*
X111050000Y-82000000D01*
X110799000Y-82000000D01*
X110740809Y-81981093D01*
X110704845Y-81931593D01*
X110700000Y-81901000D01*
X110700000Y-81052500D01*
X110718907Y-80994309D01*
X110768407Y-80958345D01*
X110799000Y-80953500D01*
X123938397Y-80953500D01*
X123996588Y-80972407D01*
G37*
G04 #@! TD.AperFunction*
G04 #@! TA.AperFunction,Conductor*
G36*
X93704093Y-81327145D02*
G01*
X93712867Y-81341705D01*
X93730628Y-81377880D01*
X93736419Y-81383661D01*
X93806830Y-81453950D01*
X93806833Y-81453952D01*
X93812621Y-81459730D01*
X93831025Y-81468726D01*
X93893619Y-81499323D01*
X93932458Y-81533265D01*
X93970775Y-81590609D01*
X93982237Y-81607763D01*
X93995296Y-81616489D01*
X94010292Y-81628795D01*
X94595504Y-82214008D01*
X94623281Y-82268525D01*
X94624500Y-82284012D01*
X94624500Y-82585486D01*
X94625028Y-82589069D01*
X94625028Y-82589076D01*
X94631967Y-82636208D01*
X94634569Y-82653884D01*
X94685628Y-82757880D01*
X94691419Y-82763661D01*
X94761830Y-82833950D01*
X94761833Y-82833952D01*
X94767621Y-82839730D01*
X94871706Y-82890608D01*
X94921229Y-82897833D01*
X94935969Y-82899983D01*
X94935971Y-82899983D01*
X94939514Y-82900500D01*
X95240989Y-82900500D01*
X95299180Y-82919407D01*
X95310993Y-82929496D01*
X95923705Y-83542208D01*
X95936011Y-83557204D01*
X95944737Y-83570263D01*
X96028589Y-83626291D01*
X96087728Y-83638055D01*
X96141111Y-83667950D01*
X96166727Y-83723515D01*
X96154790Y-83783525D01*
X96123426Y-83817460D01*
X96119913Y-83819808D01*
X96064900Y-83836500D01*
X95679256Y-83836500D01*
X95621065Y-83817593D01*
X95609252Y-83807504D01*
X95543220Y-83741472D01*
X95536283Y-83737937D01*
X95536281Y-83737936D01*
X95430066Y-83683817D01*
X95430065Y-83683817D01*
X95423126Y-83680281D01*
X95415432Y-83679062D01*
X95415431Y-83679062D01*
X95297696Y-83660415D01*
X95290000Y-83659196D01*
X95282304Y-83660415D01*
X95164569Y-83679062D01*
X95164568Y-83679062D01*
X95156874Y-83680281D01*
X95149935Y-83683817D01*
X95149934Y-83683817D01*
X95043719Y-83737936D01*
X95043717Y-83737937D01*
X95036780Y-83741472D01*
X94970748Y-83807504D01*
X94916231Y-83835281D01*
X94900744Y-83836500D01*
X94444500Y-83836500D01*
X94386309Y-83817593D01*
X94350345Y-83768093D01*
X94345500Y-83737500D01*
X94345500Y-83350252D01*
X94333867Y-83291769D01*
X94289552Y-83225448D01*
X94223231Y-83181133D01*
X94213668Y-83179231D01*
X94213666Y-83179230D01*
X94190995Y-83174721D01*
X94164748Y-83169500D01*
X93624000Y-83169500D01*
X93565809Y-83150593D01*
X93529845Y-83101093D01*
X93525000Y-83070500D01*
X93525000Y-81385336D01*
X93543907Y-81327145D01*
X93593407Y-81291181D01*
X93654593Y-81291181D01*
X93704093Y-81327145D01*
G37*
G04 #@! TD.AperFunction*
G04 #@! TA.AperFunction,Conductor*
G36*
X99763825Y-80928239D02*
G01*
X99799789Y-80977739D01*
X99799789Y-81038925D01*
X99789886Y-81059547D01*
X99787377Y-81062388D01*
X99726447Y-81192163D01*
X99725362Y-81199132D01*
X99725361Y-81199135D01*
X99722811Y-81215516D01*
X99704391Y-81333823D01*
X99705306Y-81340820D01*
X99705306Y-81340821D01*
X99710087Y-81377379D01*
X99722980Y-81475979D01*
X99725821Y-81482435D01*
X99725821Y-81482436D01*
X99738670Y-81511638D01*
X99768751Y-81580000D01*
X99769764Y-81582303D01*
X99775894Y-81643180D01*
X99745070Y-81696035D01*
X99689067Y-81720677D01*
X99667618Y-81720199D01*
X99667612Y-81720277D01*
X99666052Y-81720164D01*
X99664853Y-81720137D01*
X99660486Y-81719500D01*
X99299514Y-81719500D01*
X99295931Y-81720028D01*
X99295924Y-81720028D01*
X99238729Y-81728448D01*
X99238727Y-81728449D01*
X99231116Y-81729569D01*
X99127120Y-81780628D01*
X99121339Y-81786419D01*
X99051050Y-81856830D01*
X99051048Y-81856833D01*
X99045270Y-81862621D01*
X98994392Y-81966706D01*
X98984500Y-82034514D01*
X98984500Y-82335989D01*
X98965593Y-82394180D01*
X98955504Y-82405992D01*
X98675295Y-82686202D01*
X98660299Y-82698509D01*
X98647237Y-82707237D01*
X98641820Y-82715344D01*
X98599156Y-82779196D01*
X98591209Y-82791089D01*
X98589308Y-82800648D01*
X98589305Y-82800654D01*
X98585394Y-82820316D01*
X98555497Y-82873699D01*
X98499931Y-82899314D01*
X98488297Y-82900000D01*
X98169849Y-82900000D01*
X98111658Y-82881093D01*
X98087534Y-82856002D01*
X98082113Y-82847889D01*
X98082825Y-82847413D01*
X98070298Y-82828665D01*
X98068791Y-82821089D01*
X98012763Y-82737237D01*
X97999704Y-82728511D01*
X97984708Y-82716205D01*
X97699496Y-82430993D01*
X97671719Y-82376476D01*
X97670500Y-82360989D01*
X97670500Y-82059514D01*
X97668558Y-82046316D01*
X97661552Y-81998729D01*
X97661551Y-81998727D01*
X97660431Y-81991116D01*
X97656495Y-81983098D01*
X97619385Y-81907514D01*
X97609372Y-81887120D01*
X97594994Y-81872767D01*
X97547245Y-81825101D01*
X97519420Y-81770609D01*
X97528939Y-81710169D01*
X97547124Y-81685094D01*
X97574925Y-81657245D01*
X97629418Y-81629420D01*
X97689858Y-81638940D01*
X97714928Y-81657120D01*
X97762621Y-81704730D01*
X97866706Y-81755608D01*
X97916229Y-81762833D01*
X97930969Y-81764983D01*
X97930971Y-81764983D01*
X97934514Y-81765500D01*
X98345486Y-81765500D01*
X98349069Y-81764972D01*
X98349076Y-81764972D01*
X98406271Y-81756552D01*
X98406273Y-81756551D01*
X98413884Y-81755431D01*
X98517880Y-81704372D01*
X98524688Y-81697552D01*
X98593950Y-81628170D01*
X98593952Y-81628167D01*
X98599730Y-81622379D01*
X98650608Y-81518294D01*
X98658678Y-81462978D01*
X98659983Y-81454031D01*
X98659983Y-81454029D01*
X98660500Y-81450486D01*
X98660500Y-81089514D01*
X98652220Y-81033269D01*
X98650672Y-81022750D01*
X98660902Y-80962426D01*
X98704637Y-80919637D01*
X98748616Y-80909332D01*
X99705634Y-80909332D01*
X99763825Y-80928239D01*
G37*
G04 #@! TD.AperFunction*
G04 #@! TA.AperFunction,Conductor*
G36*
X107033302Y-80561453D02*
G01*
X107093865Y-80573500D01*
X107118830Y-80578466D01*
X107134234Y-80575402D01*
X107153548Y-80573500D01*
X107653989Y-80573500D01*
X107712180Y-80592407D01*
X107748144Y-80641907D01*
X107748144Y-80703093D01*
X107723993Y-80742504D01*
X107645292Y-80821205D01*
X107630296Y-80833511D01*
X107617237Y-80842237D01*
X107577285Y-80902030D01*
X107529236Y-80939909D01*
X107468888Y-80942280D01*
X107465117Y-80939760D01*
X107388401Y-80924500D01*
X107383542Y-80924500D01*
X107300001Y-80924501D01*
X107211600Y-80924501D01*
X107206834Y-80925449D01*
X107144444Y-80937858D01*
X107144443Y-80937859D01*
X107134883Y-80939760D01*
X107126778Y-80945176D01*
X107126777Y-80945176D01*
X107110355Y-80956149D01*
X107051467Y-80972758D01*
X107000000Y-80954911D01*
X107000000Y-80950000D01*
X106671499Y-80950000D01*
X106613308Y-80931093D01*
X106577344Y-80881593D01*
X106572499Y-80851000D01*
X106572499Y-80728182D01*
X106591406Y-80669991D01*
X106601495Y-80658178D01*
X106671126Y-80588547D01*
X106725643Y-80560770D01*
X106741130Y-80559551D01*
X107013988Y-80559551D01*
X107033302Y-80561453D01*
G37*
G04 #@! TD.AperFunction*
G04 #@! TA.AperFunction,Conductor*
G36*
X134346886Y-87844502D02*
G01*
X134367860Y-87861405D01*
X134369623Y-87863168D01*
X134376516Y-87873484D01*
X134460699Y-87929734D01*
X134483966Y-87934362D01*
X134546876Y-87967268D01*
X134582008Y-88028963D01*
X134578209Y-88099858D01*
X134573441Y-88111489D01*
X134552647Y-88155780D01*
X134546738Y-88168366D01*
X134543640Y-88188265D01*
X134526988Y-88295209D01*
X134526988Y-88295213D01*
X134525607Y-88304082D01*
X134543416Y-88440273D01*
X134598734Y-88565992D01*
X134604512Y-88572865D01*
X134604512Y-88572866D01*
X134655304Y-88633291D01*
X134687113Y-88671132D01*
X134801449Y-88747240D01*
X134932551Y-88788199D01*
X134941523Y-88788363D01*
X134941526Y-88788364D01*
X134957743Y-88788661D01*
X135025485Y-88809909D01*
X135070986Y-88864408D01*
X135075298Y-88879208D01*
X135075794Y-88879047D01*
X135078859Y-88888479D01*
X135080410Y-88898273D01*
X135138221Y-89011735D01*
X135157391Y-89030905D01*
X135191417Y-89093217D01*
X135186352Y-89164032D01*
X135143805Y-89220868D01*
X135077285Y-89245679D01*
X135068296Y-89246000D01*
X132426000Y-89246000D01*
X132357879Y-89225998D01*
X132311386Y-89172342D01*
X132300000Y-89120000D01*
X132300000Y-87950500D01*
X132320002Y-87882379D01*
X132373658Y-87835886D01*
X132426000Y-87824500D01*
X134278765Y-87824500D01*
X134346886Y-87844502D01*
G37*
G04 #@! TD.AperFunction*
G04 #@! TA.AperFunction,Conductor*
G36*
X148990586Y-85274002D02*
G01*
X149037079Y-85327658D01*
X149042893Y-85342945D01*
X149083800Y-85475917D01*
X149086370Y-85480897D01*
X149086372Y-85480901D01*
X149135115Y-85575338D01*
X149186509Y-85674912D01*
X149219964Y-85718511D01*
X149245563Y-85784730D01*
X149246000Y-85795213D01*
X149246000Y-88874000D01*
X149246360Y-88877347D01*
X149246360Y-88877351D01*
X149246543Y-88879047D01*
X149251804Y-88927990D01*
X149252522Y-88931290D01*
X149252522Y-88931291D01*
X149261191Y-88971141D01*
X149263190Y-88980332D01*
X149263641Y-88981976D01*
X149263642Y-88981980D01*
X149264121Y-88983725D01*
X149270384Y-89006555D01*
X149274282Y-89013399D01*
X149274283Y-89013403D01*
X149277329Y-89018752D01*
X149296481Y-89052383D01*
X149299480Y-89057650D01*
X149315807Y-89126744D01*
X149292188Y-89193696D01*
X149236121Y-89237251D01*
X149189988Y-89246000D01*
X142907942Y-89246000D01*
X142839821Y-89225998D01*
X142793328Y-89172342D01*
X142783224Y-89102068D01*
X142791533Y-89071782D01*
X142799568Y-89052383D01*
X142802728Y-89044754D01*
X142816644Y-88939053D01*
X142845367Y-88874126D01*
X142904632Y-88835035D01*
X142941566Y-88829500D01*
X143310854Y-88829499D01*
X143326052Y-88829499D01*
X143383919Y-88823214D01*
X143471428Y-88790408D01*
X143502449Y-88778779D01*
X143502452Y-88778778D01*
X143510853Y-88775628D01*
X143619330Y-88694330D01*
X143700628Y-88585853D01*
X143711156Y-88557772D01*
X143740573Y-88479301D01*
X143748214Y-88458919D01*
X143754500Y-88401053D01*
X143754499Y-87798948D01*
X143748214Y-87741081D01*
X143743490Y-87728479D01*
X143709961Y-87639042D01*
X143704778Y-87568235D01*
X143738699Y-87505866D01*
X143800954Y-87471736D01*
X143863441Y-87473916D01*
X143889955Y-87481701D01*
X143930858Y-87493711D01*
X143935317Y-87494352D01*
X143935321Y-87494353D01*
X143957057Y-87497478D01*
X144002418Y-87504000D01*
X144874000Y-87504000D01*
X144877347Y-87503640D01*
X144877351Y-87503640D01*
X144924626Y-87498558D01*
X144924633Y-87498557D01*
X144927990Y-87498196D01*
X144931291Y-87497478D01*
X144978678Y-87487170D01*
X144978685Y-87487168D01*
X144980332Y-87486810D01*
X145006555Y-87479616D01*
X145047320Y-87456403D01*
X145087298Y-87433638D01*
X145087302Y-87433635D01*
X145092676Y-87430575D01*
X145146332Y-87384082D01*
X145177773Y-87351498D01*
X145223709Y-87263681D01*
X145243711Y-87195560D01*
X145254000Y-87124000D01*
X145254000Y-86157400D01*
X145274002Y-86089279D01*
X145290905Y-86068305D01*
X146068305Y-85290905D01*
X146130617Y-85256879D01*
X146157400Y-85254000D01*
X148922465Y-85254000D01*
X148990586Y-85274002D01*
G37*
G04 #@! TD.AperFunction*
G04 #@! TA.AperFunction,Conductor*
G36*
X142376218Y-84145109D02*
G01*
X142423661Y-84197926D01*
X142436000Y-84252306D01*
X142436000Y-84374000D01*
X142436360Y-84377347D01*
X142436360Y-84377351D01*
X142440139Y-84412500D01*
X142441804Y-84427990D01*
X142453190Y-84480332D01*
X142460384Y-84506555D01*
X142464284Y-84513403D01*
X142506362Y-84587298D01*
X142506365Y-84587302D01*
X142509425Y-84592676D01*
X142555918Y-84646332D01*
X142588502Y-84677773D01*
X142676319Y-84723709D01*
X142744440Y-84743711D01*
X142748899Y-84744352D01*
X142748903Y-84744353D01*
X142780220Y-84748856D01*
X142816000Y-84754000D01*
X143092600Y-84754000D01*
X143160721Y-84774002D01*
X143181695Y-84790905D01*
X143483597Y-85092807D01*
X143514745Y-85144251D01*
X143529950Y-85192811D01*
X143532916Y-85198243D01*
X143532917Y-85198245D01*
X143561820Y-85251175D01*
X143563976Y-85255123D01*
X143566671Y-85258723D01*
X143604603Y-85309394D01*
X143604607Y-85309398D01*
X143607300Y-85312996D01*
X143619614Y-85325310D01*
X143642787Y-85357204D01*
X143645951Y-85363414D01*
X143658132Y-85400908D01*
X143658948Y-85406061D01*
X143660499Y-85425768D01*
X143660500Y-85774225D01*
X143658950Y-85793930D01*
X143658133Y-85799090D01*
X143645931Y-85836624D01*
X143645169Y-85838118D01*
X143645104Y-85838246D01*
X143645102Y-85838251D01*
X143645100Y-85838254D01*
X143642782Y-85842804D01*
X143619612Y-85874692D01*
X143607300Y-85887004D01*
X143589135Y-85907226D01*
X143572232Y-85928200D01*
X143569361Y-85933689D01*
X143530956Y-86007106D01*
X143526291Y-86016023D01*
X143506289Y-86084144D01*
X143504353Y-86083576D01*
X143474280Y-86138618D01*
X143411959Y-86172627D01*
X143385208Y-86175500D01*
X143199141Y-86175501D01*
X143185864Y-86175501D01*
X143091727Y-86190410D01*
X142978265Y-86248221D01*
X142888221Y-86338265D01*
X142871860Y-86370377D01*
X142867630Y-86378678D01*
X142818883Y-86430294D01*
X142812724Y-86433183D01*
X142809871Y-86433686D01*
X142802157Y-86438140D01*
X142798436Y-86439885D01*
X142796796Y-86440481D01*
X142793385Y-86442072D01*
X142782741Y-86444924D01*
X142773712Y-86451246D01*
X142773710Y-86451247D01*
X142751210Y-86467001D01*
X142741949Y-86472901D01*
X142708629Y-86492139D01*
X142683888Y-86521624D01*
X142676473Y-86529715D01*
X142021664Y-87184524D01*
X141959352Y-87218550D01*
X141888537Y-87213485D01*
X141827805Y-87165432D01*
X141808484Y-87136516D01*
X141724301Y-87080266D01*
X141650067Y-87065500D01*
X141300057Y-87065500D01*
X140949934Y-87065501D01*
X140914182Y-87072612D01*
X140887874Y-87077844D01*
X140887872Y-87077845D01*
X140875699Y-87080266D01*
X140865379Y-87087161D01*
X140865378Y-87087162D01*
X140852903Y-87095498D01*
X140791516Y-87136516D01*
X140735266Y-87220699D01*
X140720500Y-87294933D01*
X140720501Y-88405066D01*
X140727504Y-88440273D01*
X140732684Y-88466318D01*
X140735266Y-88479301D01*
X140791516Y-88563484D01*
X140875699Y-88619734D01*
X140949933Y-88634500D01*
X141020071Y-88634500D01*
X141594493Y-88634499D01*
X141662614Y-88654501D01*
X141709107Y-88708157D01*
X141719415Y-88776945D01*
X141712496Y-88829500D01*
X141703215Y-88900000D01*
X141704293Y-88908188D01*
X141720449Y-89030905D01*
X141722272Y-89044754D01*
X141725432Y-89052383D01*
X141733467Y-89071782D01*
X141741056Y-89142372D01*
X141709277Y-89205859D01*
X141648219Y-89242086D01*
X141617058Y-89246000D01*
X137131704Y-89246000D01*
X137063583Y-89225998D01*
X137017090Y-89172342D01*
X137006986Y-89102068D01*
X137036480Y-89037488D01*
X137042609Y-89030905D01*
X137061779Y-89011735D01*
X137067606Y-89000299D01*
X137070048Y-88997713D01*
X137072110Y-88994875D01*
X137072477Y-88995141D01*
X137116351Y-88948684D01*
X137179873Y-88931500D01*
X137346721Y-88931500D01*
X137403923Y-88945233D01*
X137442890Y-88965088D01*
X137442893Y-88965089D01*
X137451727Y-88969590D01*
X137545863Y-88984500D01*
X137749979Y-88984500D01*
X137954136Y-88984499D01*
X138048273Y-88969590D01*
X138161735Y-88911779D01*
X138251779Y-88821735D01*
X138254237Y-88816910D01*
X138308480Y-88775084D01*
X138354192Y-88766500D01*
X138795020Y-88766500D01*
X138806002Y-88766979D01*
X138844338Y-88770333D01*
X138854989Y-88767479D01*
X138854990Y-88767479D01*
X138881503Y-88760375D01*
X138892233Y-88757996D01*
X138907829Y-88755246D01*
X138919270Y-88753229D01*
X138919272Y-88753228D01*
X138930129Y-88751314D01*
X138939676Y-88745802D01*
X138943210Y-88744516D01*
X138946614Y-88742928D01*
X138957259Y-88740076D01*
X138966288Y-88733754D01*
X138966290Y-88733753D01*
X138988790Y-88717999D01*
X138998051Y-88712099D01*
X139031371Y-88692861D01*
X139042577Y-88679506D01*
X139101686Y-88640182D01*
X139139096Y-88634500D01*
X139682489Y-88634499D01*
X139750066Y-88634499D01*
X139785818Y-88627388D01*
X139812126Y-88622156D01*
X139812128Y-88622155D01*
X139824301Y-88619734D01*
X139834621Y-88612839D01*
X139834622Y-88612838D01*
X139898168Y-88570377D01*
X139908484Y-88563484D01*
X139964734Y-88479301D01*
X139979500Y-88405067D01*
X139979499Y-87294934D01*
X139964734Y-87220699D01*
X139947937Y-87195560D01*
X139915377Y-87146832D01*
X139908484Y-87136516D01*
X139903020Y-87132865D01*
X139870930Y-87074099D01*
X139875995Y-87003284D01*
X139908281Y-86955647D01*
X139915964Y-86950911D01*
X139923004Y-86941653D01*
X139923006Y-86941651D01*
X139933030Y-86928468D01*
X139944231Y-86915639D01*
X140564741Y-86295130D01*
X140627053Y-86261105D01*
X140697869Y-86266170D01*
X140758600Y-86314222D01*
X140791516Y-86363484D01*
X140801832Y-86370377D01*
X140863628Y-86411668D01*
X140875699Y-86419734D01*
X140949933Y-86434500D01*
X141299943Y-86434500D01*
X141650066Y-86434499D01*
X141685818Y-86427388D01*
X141712126Y-86422156D01*
X141712128Y-86422155D01*
X141724301Y-86419734D01*
X141734621Y-86412839D01*
X141734622Y-86412838D01*
X141798168Y-86370377D01*
X141808484Y-86363484D01*
X141864734Y-86279301D01*
X141879500Y-86205067D01*
X141879499Y-85094934D01*
X141872388Y-85059182D01*
X141867156Y-85032874D01*
X141867155Y-85032872D01*
X141864734Y-85020699D01*
X141849673Y-84998158D01*
X141815377Y-84946832D01*
X141808484Y-84936516D01*
X141724301Y-84880266D01*
X141726234Y-84877374D01*
X141687074Y-84845817D01*
X141664653Y-84778454D01*
X141682211Y-84709662D01*
X141701478Y-84684861D01*
X141964423Y-84421916D01*
X141979900Y-84409416D01*
X141983132Y-84406475D01*
X141991882Y-84400825D01*
X142011009Y-84376562D01*
X142014559Y-84372567D01*
X142014460Y-84372483D01*
X142017818Y-84368520D01*
X142021494Y-84364844D01*
X142024517Y-84360614D01*
X142031854Y-84350348D01*
X142035415Y-84345605D01*
X142058497Y-84316325D01*
X142058499Y-84316321D01*
X142064946Y-84308143D01*
X142067779Y-84300075D01*
X142072753Y-84293115D01*
X142080656Y-84266688D01*
X142119337Y-84207154D01*
X142176792Y-84179211D01*
X142199301Y-84174734D01*
X142209621Y-84167839D01*
X142209622Y-84167838D01*
X142239998Y-84147541D01*
X142307751Y-84126326D01*
X142376218Y-84145109D01*
G37*
G04 #@! TD.AperFunction*
G04 #@! TA.AperFunction,Conductor*
G36*
X138768991Y-84944502D02*
G01*
X138815484Y-84998158D01*
X138824449Y-85075081D01*
X138820500Y-85094933D01*
X138820501Y-86205066D01*
X138829085Y-86248221D01*
X138831644Y-86261088D01*
X138825315Y-86331802D01*
X138781760Y-86387869D01*
X138708065Y-86411668D01*
X138450499Y-86411668D01*
X138382378Y-86391666D01*
X138335885Y-86338010D01*
X138324499Y-86285668D01*
X138324499Y-86205864D01*
X138309590Y-86111727D01*
X138251779Y-85998265D01*
X138161735Y-85908221D01*
X138095930Y-85874692D01*
X138057110Y-85854912D01*
X138057107Y-85854911D01*
X138048273Y-85850410D01*
X137954137Y-85835500D01*
X137750021Y-85835500D01*
X137545864Y-85835501D01*
X137451727Y-85850410D01*
X137338265Y-85908221D01*
X137248221Y-85998265D01*
X137243717Y-86007106D01*
X137240757Y-86011179D01*
X137184534Y-86054532D01*
X137113798Y-86060607D01*
X137049726Y-86026212D01*
X137011735Y-85988221D01*
X136953566Y-85958583D01*
X136907110Y-85934912D01*
X136907107Y-85934911D01*
X136898273Y-85930410D01*
X136804137Y-85915500D01*
X136600021Y-85915500D01*
X136395864Y-85915501D01*
X136301727Y-85930410D01*
X136188265Y-85988221D01*
X136098221Y-86078265D01*
X136076182Y-86121520D01*
X136044912Y-86182890D01*
X136044911Y-86182893D01*
X136040410Y-86191727D01*
X136025500Y-86285863D01*
X136025501Y-86644136D01*
X136040410Y-86738273D01*
X136098221Y-86851735D01*
X136107391Y-86860905D01*
X136109172Y-86864167D01*
X136111062Y-86866768D01*
X136110726Y-86867012D01*
X136141417Y-86923217D01*
X136136352Y-86994032D01*
X136107391Y-87039095D01*
X136098221Y-87048265D01*
X136074155Y-87095498D01*
X136044912Y-87152890D01*
X136044911Y-87152893D01*
X136040410Y-87161727D01*
X136025500Y-87255863D01*
X136025501Y-87614136D01*
X136040410Y-87708273D01*
X136098221Y-87821735D01*
X136188265Y-87911779D01*
X136188019Y-87912025D01*
X136227265Y-87962921D01*
X136233339Y-88033657D01*
X136200206Y-88096449D01*
X136198216Y-88098172D01*
X136198265Y-88098221D01*
X136189095Y-88107391D01*
X136184978Y-88109639D01*
X136183878Y-88110592D01*
X136183199Y-88111085D01*
X136182952Y-88110745D01*
X136126783Y-88141417D01*
X136055968Y-88136352D01*
X136010905Y-88107391D01*
X136001735Y-88098221D01*
X135931500Y-88062435D01*
X135897110Y-88044912D01*
X135897107Y-88044911D01*
X135888273Y-88040410D01*
X135794137Y-88025500D01*
X135777640Y-88025500D01*
X135709519Y-88005498D01*
X135663026Y-87951842D01*
X135652922Y-87881568D01*
X135672875Y-87829498D01*
X135692839Y-87799620D01*
X135699734Y-87789301D01*
X135714500Y-87715067D01*
X135714499Y-86864934D01*
X135699734Y-86790699D01*
X135682607Y-86765066D01*
X135650377Y-86716832D01*
X135643484Y-86706516D01*
X135559301Y-86650266D01*
X135503578Y-86639182D01*
X135491136Y-86636707D01*
X135491134Y-86636707D01*
X135485067Y-86635500D01*
X135478880Y-86635500D01*
X135478149Y-86635428D01*
X135412317Y-86608845D01*
X135371308Y-86550891D01*
X135364500Y-86510035D01*
X135364500Y-85652174D01*
X135384502Y-85584053D01*
X135438158Y-85537560D01*
X135508432Y-85527456D01*
X135529437Y-85532341D01*
X135537891Y-85535088D01*
X135546727Y-85539590D01*
X135640863Y-85554500D01*
X135819981Y-85554500D01*
X135999136Y-85554499D01*
X136093273Y-85539590D01*
X136206735Y-85481779D01*
X136296779Y-85391735D01*
X136326417Y-85333566D01*
X136350088Y-85287110D01*
X136350089Y-85287107D01*
X136354590Y-85278273D01*
X136369500Y-85184137D01*
X136369499Y-85050499D01*
X136389501Y-84982380D01*
X136443156Y-84935887D01*
X136495499Y-84924500D01*
X138700870Y-84924500D01*
X138768991Y-84944502D01*
G37*
G04 #@! TD.AperFunction*
G04 #@! TA.AperFunction,Conductor*
G36*
X120695126Y-83961598D02*
G01*
X120712549Y-83969839D01*
X120712554Y-83969841D01*
X120716751Y-83971826D01*
X120786754Y-83993062D01*
X120791343Y-83993743D01*
X120791344Y-83993743D01*
X120855891Y-84003318D01*
X120855892Y-84003318D01*
X120860489Y-84004000D01*
X122447810Y-84004000D01*
X122474957Y-84002545D01*
X122476628Y-84002365D01*
X122476645Y-84002364D01*
X122490599Y-84000864D01*
X122501740Y-83999666D01*
X122536350Y-83988829D01*
X122607335Y-83987562D01*
X122667737Y-84024873D01*
X122698378Y-84088917D01*
X122700000Y-84109072D01*
X122700000Y-84912940D01*
X122679998Y-84981061D01*
X122663095Y-85002035D01*
X122452035Y-85213095D01*
X122389723Y-85247121D01*
X122362940Y-85250000D01*
X120990365Y-85250000D01*
X120921832Y-85229732D01*
X120860727Y-85190125D01*
X120860725Y-85190124D01*
X120853196Y-85185244D01*
X120721603Y-85145890D01*
X120712627Y-85145835D01*
X120712626Y-85145835D01*
X120655080Y-85145484D01*
X120584255Y-85145051D01*
X120452192Y-85182795D01*
X120376485Y-85230563D01*
X120309251Y-85250000D01*
X119647977Y-85250000D01*
X119604302Y-85240757D01*
X119601740Y-85238999D01*
X119590424Y-85236313D01*
X119590421Y-85236312D01*
X119576986Y-85233124D01*
X119559393Y-85227560D01*
X119535763Y-85218133D01*
X119529318Y-85217501D01*
X119525899Y-85217501D01*
X119525657Y-85217473D01*
X119523167Y-85217351D01*
X119523175Y-85217182D01*
X119510076Y-85215649D01*
X119501603Y-85215235D01*
X119490282Y-85212548D01*
X119478753Y-85214117D01*
X119478752Y-85214117D01*
X119462346Y-85216350D01*
X119445354Y-85217501D01*
X117667743Y-85217501D01*
X117599622Y-85197499D01*
X117553129Y-85143843D01*
X117542821Y-85075055D01*
X117552435Y-85002035D01*
X117559285Y-84950000D01*
X117540228Y-84805246D01*
X117529033Y-84778218D01*
X117521444Y-84707628D01*
X117553223Y-84644141D01*
X117614281Y-84607914D01*
X117645442Y-84604000D01*
X117821215Y-84604000D01*
X117822184Y-84603968D01*
X117822201Y-84603968D01*
X117836827Y-84603489D01*
X117836838Y-84603488D01*
X117837829Y-84603456D01*
X117854275Y-84602378D01*
X117870814Y-84600749D01*
X117883561Y-84599071D01*
X117916439Y-84599071D01*
X117929186Y-84600749D01*
X117945725Y-84602378D01*
X117962171Y-84603456D01*
X117963162Y-84603488D01*
X117963173Y-84603489D01*
X117977799Y-84603968D01*
X117977816Y-84603968D01*
X117978785Y-84604000D01*
X118297810Y-84604000D01*
X118324957Y-84602545D01*
X118326628Y-84602365D01*
X118326645Y-84602364D01*
X118341665Y-84600749D01*
X118351740Y-84599666D01*
X118446325Y-84570050D01*
X118451757Y-84567084D01*
X118451759Y-84567083D01*
X118504689Y-84538180D01*
X118504691Y-84538179D01*
X118508637Y-84536024D01*
X118542245Y-84510865D01*
X118562908Y-84495397D01*
X118562912Y-84495393D01*
X118566510Y-84492700D01*
X119055109Y-84004101D01*
X119101940Y-83976028D01*
X119101483Y-83974842D01*
X119105812Y-83973172D01*
X119110250Y-83971826D01*
X119114440Y-83969844D01*
X119114446Y-83969842D01*
X119131874Y-83961599D01*
X119185747Y-83949501D01*
X119913626Y-83949500D01*
X120641253Y-83949500D01*
X120695126Y-83961598D01*
G37*
G04 #@! TD.AperFunction*
G04 #@! TA.AperFunction,Conductor*
G36*
X118365931Y-81570002D02*
G01*
X118386905Y-81586905D01*
X119000000Y-82200000D01*
X119103400Y-82200000D01*
X119127981Y-82202421D01*
X119138433Y-82204500D01*
X119913374Y-82204500D01*
X120688566Y-82204499D01*
X120699013Y-82202421D01*
X120723593Y-82200000D01*
X122347810Y-82200000D01*
X122415931Y-82220002D01*
X122436905Y-82236905D01*
X122663095Y-82463095D01*
X122697121Y-82525407D01*
X122700000Y-82552190D01*
X122700000Y-83497810D01*
X122679998Y-83565931D01*
X122663095Y-83586905D01*
X122536905Y-83713095D01*
X122474593Y-83747121D01*
X122447810Y-83750000D01*
X120860489Y-83750000D01*
X120790486Y-83728764D01*
X120773121Y-83717161D01*
X120773118Y-83717160D01*
X120762801Y-83710266D01*
X120750632Y-83707845D01*
X120750631Y-83707845D01*
X120694635Y-83696707D01*
X120688567Y-83695500D01*
X119913626Y-83695500D01*
X119138434Y-83695501D01*
X119064199Y-83710266D01*
X119053879Y-83717161D01*
X119053878Y-83717162D01*
X119036514Y-83728764D01*
X118985321Y-83744294D01*
X118985498Y-83744896D01*
X118968115Y-83750000D01*
X118950000Y-83750000D01*
X118386905Y-84313095D01*
X118324593Y-84347121D01*
X118297810Y-84350000D01*
X117978785Y-84350000D01*
X117962339Y-84348922D01*
X117908188Y-84341793D01*
X117900000Y-84340715D01*
X117891812Y-84341793D01*
X117837661Y-84348922D01*
X117821215Y-84350000D01*
X115602190Y-84350000D01*
X115534069Y-84329998D01*
X115513095Y-84313095D01*
X114975000Y-83775000D01*
X113827190Y-83775000D01*
X113759069Y-83754998D01*
X113738095Y-83738095D01*
X113400000Y-83400000D01*
X112602190Y-83400000D01*
X112534069Y-83379998D01*
X112513095Y-83363095D01*
X112150000Y-83000000D01*
X112139349Y-83000000D01*
X112119903Y-82989381D01*
X112091195Y-82967889D01*
X112047129Y-82923823D01*
X112037136Y-82919163D01*
X111954549Y-82880652D01*
X111954546Y-82880651D01*
X111945811Y-82876578D01*
X111933232Y-82874922D01*
X111930034Y-82873507D01*
X111927000Y-82872623D01*
X111927118Y-82872217D01*
X111868305Y-82846200D01*
X111829213Y-82786935D01*
X111828368Y-82715943D01*
X111866038Y-82655765D01*
X111927141Y-82627860D01*
X111927000Y-82627377D01*
X111930311Y-82626412D01*
X111933232Y-82625078D01*
X111945811Y-82623422D01*
X111954546Y-82619349D01*
X111954549Y-82619348D01*
X112037136Y-82580837D01*
X112037137Y-82580836D01*
X112047129Y-82576177D01*
X112126177Y-82497129D01*
X112137152Y-82473592D01*
X112162251Y-82437749D01*
X112213095Y-82386905D01*
X112275407Y-82352879D01*
X112302190Y-82350000D01*
X112344296Y-82350000D01*
X112412417Y-82370002D01*
X112433391Y-82386905D01*
X112488265Y-82441779D01*
X112530101Y-82463095D01*
X112592890Y-82495088D01*
X112592893Y-82495089D01*
X112601727Y-82499590D01*
X112695863Y-82514500D01*
X112899979Y-82514500D01*
X113104136Y-82514499D01*
X113198273Y-82499590D01*
X113311735Y-82441779D01*
X113401779Y-82351735D01*
X113444037Y-82268798D01*
X113492785Y-82217182D01*
X113556304Y-82200000D01*
X113710583Y-82200000D01*
X113763950Y-82213653D01*
X113764147Y-82213128D01*
X113768977Y-82214939D01*
X113768979Y-82214940D01*
X113772544Y-82216276D01*
X113772546Y-82216277D01*
X113827571Y-82236905D01*
X113891081Y-82260714D01*
X113898934Y-82261567D01*
X113898938Y-82261568D01*
X113945548Y-82266631D01*
X113945552Y-82266631D01*
X113948947Y-82267000D01*
X114249955Y-82267000D01*
X114551052Y-82266999D01*
X114608919Y-82260714D01*
X114672948Y-82236710D01*
X114727454Y-82216277D01*
X114727456Y-82216276D01*
X114731021Y-82214940D01*
X114731023Y-82214939D01*
X114735853Y-82213128D01*
X114736050Y-82213653D01*
X114789417Y-82200000D01*
X114975000Y-82200000D01*
X115588095Y-81586905D01*
X115650407Y-81552879D01*
X115677190Y-81550000D01*
X118297810Y-81550000D01*
X118365931Y-81570002D01*
G37*
G04 #@! TD.AperFunction*
G04 #@! TA.AperFunction,Conductor*
G36*
X139038121Y-80774002D02*
G01*
X139084614Y-80827658D01*
X139096000Y-80880000D01*
X139096000Y-82318907D01*
X139097259Y-82344168D01*
X139099752Y-82369111D01*
X139126104Y-82456697D01*
X139127772Y-82462241D01*
X139126710Y-82462561D01*
X139133390Y-82527221D01*
X139099024Y-82592986D01*
X138336979Y-83362651D01*
X138274836Y-83396986D01*
X138247441Y-83400000D01*
X134576000Y-83400000D01*
X134507879Y-83379998D01*
X134461386Y-83326342D01*
X134450000Y-83274000D01*
X134450000Y-81635405D01*
X134470002Y-81567284D01*
X134523658Y-81520791D01*
X134578310Y-81509426D01*
X134594658Y-81509726D01*
X134603891Y-81507209D01*
X134718509Y-81475961D01*
X134727173Y-81473599D01*
X134844221Y-81401731D01*
X134936394Y-81299900D01*
X134996281Y-81176293D01*
X135019068Y-81040846D01*
X135019213Y-81029010D01*
X135018366Y-81023092D01*
X135000431Y-80897863D01*
X135010573Y-80827594D01*
X135057096Y-80773964D01*
X135125158Y-80754000D01*
X138970000Y-80754000D01*
X139038121Y-80774002D01*
G37*
G04 #@! TD.AperFunction*
G04 #@! TA.AperFunction,Conductor*
G36*
X153320112Y-81020002D02*
G01*
X153366605Y-81073658D01*
X153376927Y-81109661D01*
X153383414Y-81159273D01*
X153438732Y-81284992D01*
X153527111Y-81390132D01*
X153641447Y-81466240D01*
X153772549Y-81507199D01*
X153909876Y-81509716D01*
X153919109Y-81507199D01*
X154033727Y-81475951D01*
X154042391Y-81473589D01*
X154062463Y-81461265D01*
X154141457Y-81412763D01*
X154209974Y-81394165D01*
X154277669Y-81415562D01*
X154323050Y-81470162D01*
X154331885Y-81539523D01*
X154316986Y-81635209D01*
X154316986Y-81635213D01*
X154315605Y-81644082D01*
X154316769Y-81652984D01*
X154316769Y-81652987D01*
X154324509Y-81712177D01*
X154333414Y-81780273D01*
X154388732Y-81905992D01*
X154394510Y-81912865D01*
X154394510Y-81912866D01*
X154470451Y-82003209D01*
X154498972Y-82068225D01*
X154500000Y-82084284D01*
X154500000Y-88874000D01*
X154479998Y-88942121D01*
X154426342Y-88988614D01*
X154374000Y-89000000D01*
X149626000Y-89000000D01*
X149557879Y-88979998D01*
X149511386Y-88926342D01*
X149500000Y-88874000D01*
X149500000Y-86250000D01*
X152500000Y-86250000D01*
X152500000Y-81750000D01*
X148750000Y-81750000D01*
X148750000Y-85000000D01*
X146000000Y-85000000D01*
X145000000Y-86000000D01*
X145000000Y-87124000D01*
X144979998Y-87192121D01*
X144926342Y-87238614D01*
X144874000Y-87250000D01*
X144002418Y-87250000D01*
X143934297Y-87229998D01*
X143887804Y-87176342D01*
X143877700Y-87106068D01*
X143890150Y-87066801D01*
X143899590Y-87048273D01*
X143914500Y-86954137D01*
X143914499Y-86545864D01*
X143899590Y-86451727D01*
X143841779Y-86338265D01*
X143786905Y-86283391D01*
X143752879Y-86221079D01*
X143750000Y-86194296D01*
X143750000Y-86155704D01*
X143770002Y-86087583D01*
X143786905Y-86066609D01*
X143841779Y-86011735D01*
X143871417Y-85953566D01*
X143895088Y-85907110D01*
X143895089Y-85907107D01*
X143899590Y-85898273D01*
X143914500Y-85804137D01*
X143914499Y-85395864D01*
X143899590Y-85301727D01*
X143841779Y-85188265D01*
X143786905Y-85133391D01*
X143752879Y-85071079D01*
X143750000Y-85044296D01*
X143750000Y-85000000D01*
X143250000Y-84500000D01*
X142816000Y-84500000D01*
X142747879Y-84479998D01*
X142701386Y-84426342D01*
X142690000Y-84374000D01*
X142690000Y-81126000D01*
X142710002Y-81057879D01*
X142763658Y-81011386D01*
X142816000Y-81000000D01*
X153251991Y-81000000D01*
X153320112Y-81020002D01*
G37*
G04 #@! TD.AperFunction*
G04 #@! TA.AperFunction,Conductor*
G36*
X152500000Y-86250000D02*
G01*
X149500000Y-86250000D01*
X149500000Y-85000000D01*
X148750000Y-85000000D01*
X148750000Y-81750000D01*
X152500000Y-81750000D01*
X152500000Y-86250000D01*
G37*
G04 #@! TD.AperFunction*
M02*
