M48
; DRILL file {KiCad 6.0.0-d3dd2cf0fa~116~ubuntu20.04.1} date Sun 09 Jan 2022 06:53:23 PM CET
; FORMAT={-:-/ absolute / metric / decimal}
; #@! TF.CreationDate,2022-01-09T18:53:23+01:00
; #@! TF.GenerationSoftware,Kicad,Pcbnew,6.0.0-d3dd2cf0fa~116~ubuntu20.04.1
; #@! TF.FileFunction,Plated,1,4,PTH
FMAT,2
METRIC
; #@! TA.AperFunction,Plated,PTH,ViaDrill
T1C0.200
; #@! TA.AperFunction,Plated,PTH,ViaDrill
T2C0.300
; #@! TA.AperFunction,Plated,PTH,ComponentDrill
T3C0.600
; #@! TA.AperFunction,Plated,PTH,ComponentDrill
T4C1.700
%
G90
G05
T1
X89.4Y-85.75
X89.45Y-86.5
X90.334Y-88.536
X90.71Y-84.525
X90.71Y-85.475
X91.0Y-86.65
X91.006Y-87.864
X93.425Y-88.525
X93.82Y-86.1
X95.29Y-84.09
X97.33Y-88.32
X100.44Y-83.21
X100.55Y-87.35
X102.45Y-88.55
X102.946Y-86.196
X103.36Y-81.21
X103.597Y-82.936
X103.63Y-82.15
X104.68Y-80.85
X109.8Y-89.35
X115.6Y-87.264
X119.65Y-86.614
X119.7Y-85.75
X120.65Y-85.625
X130.123Y-80.653
X130.27Y-87.431
X132.05Y-81.214
X134.535Y-81.029
X135.01Y-88.31
X153.85Y-81.029
X154.8Y-81.65
T2
X84.14Y-82.71
X84.14Y-83.61
X84.14Y-84.51
X84.14Y-85.41
X84.14Y-86.31
X84.14Y-87.21
X85.04Y-82.71
X85.04Y-83.61
X85.04Y-84.51
X85.04Y-85.41
X85.04Y-86.31
X85.04Y-87.21
X85.86Y-87.14
X85.91Y-82.73
X85.91Y-83.59
X86.65Y-83.05
X86.71Y-86.96
X89.34Y-87.3
X89.35Y-82.733
X90.2Y-82.733
X91.129Y-82.604
X92.87Y-85.01
X94.07Y-82.52
X96.22Y-87.56
X96.24Y-81.31
X97.83Y-84.67
X99.07Y-81.33
X99.26Y-84.69
X100.21Y-81.34
X101.85Y-87.9
X102.23Y-84.72
X104.5Y-88.901
X105.75Y-87.3
X105.755Y-82.731
X106.85Y-80.837
X110.35Y-82.7
X110.35Y-87.3
X112.075Y-88.5
X112.5Y-86.45
X115.55Y-89.175
X116.3Y-82.2
X116.925Y-89.05
X117.0Y-84.95
X117.9Y-82.2
X117.9Y-84.9
X118.587Y-84.888
X118.971Y-81.249
X119.669Y-89.159
X119.672Y-81.249
X120.356Y-81.249
X122.575Y-81.55
X123.314Y-83.964
X123.4Y-85.675
X126.75Y-83.47
X129.5Y-87.0
X130.64Y-88.84
X130.86Y-87.9
X134.06Y-88.28
X134.9Y-82.17
X134.9Y-82.931
X135.7Y-82.17
X135.7Y-82.931
X136.5Y-82.17
X136.5Y-82.931
X136.95Y-85.3
X137.3Y-82.17
X137.3Y-82.931
X140.3Y-85.174
X140.65Y-86.775
X142.262Y-88.9
X142.3Y-85.05
X146.45Y-88.4
X147.2Y-88.4
X147.95Y-88.4
X148.7Y-88.4
X155.2Y-87.4
X156.504Y-84.15
T4
X161.0Y-85.0
T3
X82.605Y-80.67G85X83.205Y-80.67
G05
X82.605Y-89.31G85X83.205Y-89.31
G05
X86.535Y-80.67G85X87.635Y-80.67
G05
X86.535Y-89.31G85X87.635Y-89.31
G05
T4
X150.35Y-85.0G85X151.15Y-85.0
G05
T0
M30
