G04 #@! TF.GenerationSoftware,KiCad,Pcbnew,6.0.0-d3dd2cf0fa~116~ubuntu20.04.1*
G04 #@! TF.CreationDate,2022-01-09T18:53:20+01:00*
G04 #@! TF.ProjectId,TS100C,54533130-3043-42e6-9b69-6361645f7063,rev?*
G04 #@! TF.SameCoordinates,Original*
G04 #@! TF.FileFunction,Copper,L3,Inr*
G04 #@! TF.FilePolarity,Positive*
%FSLAX46Y46*%
G04 Gerber Fmt 4.6, Leading zero omitted, Abs format (unit mm)*
G04 Created by KiCad (PCBNEW 6.0.0-d3dd2cf0fa~116~ubuntu20.04.1) date 2022-01-09 18:53:20*
%MOMM*%
%LPD*%
G01*
G04 APERTURE LIST*
G04 #@! TA.AperFunction,Profile*
%ADD10C,0.150000*%
G04 #@! TD*
G04 #@! TA.AperFunction,ComponentPad*
%ADD11O,3.000000X2.000000*%
G04 #@! TD*
G04 #@! TA.AperFunction,ComponentPad*
%ADD12R,5.000000X3.960000*%
G04 #@! TD*
G04 #@! TA.AperFunction,ComponentPad*
%ADD13O,1.600000X1.000000*%
G04 #@! TD*
G04 #@! TA.AperFunction,ComponentPad*
%ADD14O,2.100000X1.000000*%
G04 #@! TD*
G04 #@! TA.AperFunction,ViaPad*
%ADD15C,0.600000*%
G04 #@! TD*
G04 #@! TA.AperFunction,ViaPad*
%ADD16C,0.450000*%
G04 #@! TD*
G04 #@! TA.AperFunction,Conductor*
%ADD17C,0.106000*%
G04 #@! TD*
G04 APERTURE END LIST*
D10*
X130000000Y-80000000D02*
X131000000Y-80500000D01*
X131000000Y-80500000D02*
X164000000Y-80500000D01*
X80000000Y-80000000D02*
X80000000Y-90000000D01*
X164000000Y-80500000D02*
X164000000Y-89500000D01*
X130000000Y-90000000D02*
X80000000Y-90000000D01*
X130000000Y-90000000D02*
X131000000Y-89500000D01*
X131000000Y-89500000D02*
X164000000Y-89500000D01*
X80000000Y-80000000D02*
X130000000Y-80000000D01*
D11*
X150750000Y-85000000D03*
D12*
X161000000Y-85000000D03*
D13*
X82905000Y-89310000D03*
D14*
X87085000Y-80670000D03*
D13*
X82905000Y-80670000D03*
D14*
X87085000Y-89310000D03*
D15*
X147950000Y-88400000D03*
X110350000Y-82700000D03*
X129500000Y-87000000D03*
X140650000Y-86775000D03*
X96240000Y-81310000D03*
X92870000Y-85010000D03*
X110350000Y-87300000D03*
X119669245Y-89159009D03*
X147200000Y-88400000D03*
X117900000Y-82200000D03*
X134060000Y-88280000D03*
X96220000Y-87560000D03*
X105750000Y-87300000D03*
X136950000Y-85300000D03*
X142300000Y-85050000D03*
X116300000Y-82200000D03*
X99260000Y-84690000D03*
X105755086Y-82731010D03*
X97830000Y-84670000D03*
X91129245Y-82604245D03*
X148700000Y-88400000D03*
X100210000Y-81340000D03*
X156504168Y-84150000D03*
X126750000Y-83470002D03*
X146450000Y-88400000D03*
D16*
X119700000Y-85750000D03*
D15*
X85040000Y-82710000D03*
X84140000Y-83610000D03*
X85040000Y-83610000D03*
X84140000Y-84510000D03*
X85040000Y-84510000D03*
X84140000Y-85410000D03*
X85040000Y-85410000D03*
X84140000Y-86310000D03*
X85040000Y-86310000D03*
X84140000Y-87210000D03*
X85040000Y-87210000D03*
X117900000Y-84900000D03*
X84140000Y-82710000D03*
X137300000Y-82930979D03*
X134900000Y-82930979D03*
X134900000Y-82170000D03*
X135700000Y-82170000D03*
X130860000Y-87900000D03*
X85910000Y-83590000D03*
X85910000Y-82730000D03*
X86650000Y-83050000D03*
X136500000Y-82170000D03*
X137300000Y-82170000D03*
X89350000Y-82732990D03*
X89340000Y-87300000D03*
X136500000Y-82930979D03*
X85860000Y-87140000D03*
X86710000Y-86960000D03*
X135700000Y-82930979D03*
X118586802Y-84887682D03*
X90200345Y-82733095D03*
D16*
X120650000Y-85625000D03*
X102449998Y-88550000D03*
X100440000Y-83210000D03*
D15*
X94070000Y-82520000D03*
X99070000Y-81330000D03*
X130640000Y-88840002D03*
X142262500Y-88900000D03*
X118970626Y-81248990D03*
X112075000Y-88500000D03*
X123400000Y-85675000D03*
X106850000Y-80837052D03*
X122575000Y-81550000D03*
X115550000Y-89175000D03*
X119671581Y-81248990D03*
X101849996Y-87900000D03*
X116925000Y-89050000D03*
X102230000Y-84719998D03*
X123314163Y-83964163D03*
X117000000Y-84950000D03*
X120355931Y-81248990D03*
X140300000Y-85174010D03*
X155200000Y-87400000D03*
D16*
X102946177Y-86195990D03*
X97330000Y-88320000D03*
X93820000Y-86100000D03*
X91000000Y-86650000D03*
X95290000Y-84090000D03*
X89450000Y-86500000D03*
X109800000Y-89350000D03*
X115600000Y-87264021D03*
D15*
X112500000Y-86450000D03*
D16*
X130269990Y-87430509D03*
X119650000Y-86614012D03*
D15*
X104500000Y-88900961D03*
D16*
X130123424Y-80653152D03*
X135010002Y-88310000D03*
X104680000Y-80850000D03*
X103360000Y-81210000D03*
X154800000Y-81650000D03*
X134534782Y-81029010D03*
X103596593Y-82935791D03*
X153850000Y-81029000D03*
X90710000Y-84525000D03*
X90334124Y-88535876D03*
X91005876Y-87864124D03*
X90710000Y-85475000D03*
X89400000Y-85750000D03*
X100550000Y-87350000D03*
X93425000Y-88525000D03*
X132050000Y-81214024D03*
X103630000Y-82150000D03*
D17*
X88910000Y-80870000D02*
X89305000Y-80475000D01*
X89650000Y-89400000D02*
X90300000Y-89400000D01*
X89380000Y-89130000D02*
X89650000Y-89400000D01*
X89305000Y-80475000D02*
X90425000Y-80475000D01*
X88910000Y-89130000D02*
X89380000Y-89130000D01*
X131484667Y-81089989D02*
X131792638Y-80782018D01*
X128970128Y-80306010D02*
X129754107Y-81089989D01*
X153100000Y-81600000D02*
X154650000Y-81600000D01*
X152750000Y-81250000D02*
X153100000Y-81600000D01*
X133532018Y-80782018D02*
X134310012Y-81560012D01*
X154650000Y-81600000D02*
X154800000Y-81750000D01*
X104263990Y-80306010D02*
X128970128Y-80306010D01*
X144050000Y-81250000D02*
X152750000Y-81250000D01*
X131792638Y-80782018D02*
X133532018Y-80782018D01*
X143739988Y-81560012D02*
X144050000Y-81250000D01*
X134310012Y-81560012D02*
X143739988Y-81560012D01*
X129754107Y-81089989D02*
X131484667Y-81089989D01*
X103360000Y-81210000D02*
X104263990Y-80306010D01*
X134959046Y-81029010D02*
X134534782Y-81029010D01*
X153850000Y-81029000D02*
X153425736Y-81029000D01*
X143900000Y-80850000D02*
X143720990Y-81029010D01*
X153425736Y-81029000D02*
X153246736Y-80850000D01*
X143720990Y-81029010D02*
X134959046Y-81029010D01*
X153246736Y-80850000D02*
X143900000Y-80850000D01*
X107290000Y-81400000D02*
X108090000Y-80600000D01*
X129554786Y-81350000D02*
X131914024Y-81350000D01*
X131914024Y-81350000D02*
X132050000Y-81214024D01*
X104380000Y-81400000D02*
X107290000Y-81400000D01*
X128804786Y-80600000D02*
X129554786Y-81350000D01*
X108090000Y-80600000D02*
X128804786Y-80600000D01*
X103630000Y-82150000D02*
X104380000Y-81400000D01*
G04 #@! TA.AperFunction,Conductor*
G36*
X82043165Y-80166589D02*
G01*
X82048328Y-80170000D01*
X83759839Y-80170000D01*
X83791206Y-80158583D01*
X83817200Y-80154000D01*
X85931272Y-80154000D01*
X85973165Y-80166589D01*
X85978328Y-80170000D01*
X88189839Y-80170000D01*
X88221206Y-80158583D01*
X88247200Y-80154000D01*
X103939071Y-80154000D01*
X103987923Y-80171781D01*
X104013916Y-80216803D01*
X104004889Y-80268000D01*
X103992811Y-80283740D01*
X103465751Y-80810800D01*
X103418635Y-80832771D01*
X103400122Y-80832124D01*
X103360000Y-80825769D01*
X103241266Y-80844575D01*
X103134155Y-80899151D01*
X103049151Y-80984155D01*
X102994575Y-81091266D01*
X102986567Y-81141824D01*
X102982105Y-81170000D01*
X102975769Y-81210000D01*
X102976705Y-81215910D01*
X102982027Y-81249512D01*
X102994575Y-81328734D01*
X103049151Y-81435845D01*
X103134155Y-81520849D01*
X103241266Y-81575425D01*
X103252157Y-81577150D01*
X103341451Y-81591293D01*
X103360000Y-81594231D01*
X103378550Y-81591293D01*
X103467843Y-81577150D01*
X103478734Y-81575425D01*
X103585845Y-81520849D01*
X103670849Y-81435845D01*
X103725425Y-81328734D01*
X103737973Y-81249512D01*
X103743295Y-81215910D01*
X103744231Y-81210000D01*
X103737876Y-81169879D01*
X103747795Y-81118847D01*
X103759200Y-81104249D01*
X104183505Y-80679944D01*
X104230621Y-80657973D01*
X104280837Y-80671428D01*
X104310655Y-80714014D01*
X104312309Y-80745573D01*
X104296777Y-80843639D01*
X104295769Y-80850000D01*
X104314575Y-80968734D01*
X104369151Y-81075845D01*
X104371999Y-81078693D01*
X104386082Y-81127805D01*
X104364937Y-81175298D01*
X104326266Y-81194306D01*
X104326592Y-81195242D01*
X104318944Y-81197905D01*
X104318676Y-81198037D01*
X104318514Y-81198055D01*
X104318509Y-81198057D01*
X104310005Y-81199003D01*
X104302754Y-81203543D01*
X104299324Y-81204737D01*
X104296047Y-81206314D01*
X104287702Y-81208218D01*
X104263262Y-81227692D01*
X104256247Y-81232660D01*
X104249946Y-81236605D01*
X104244611Y-81241940D01*
X104238234Y-81247637D01*
X104235881Y-81249512D01*
X104213664Y-81267216D01*
X104209945Y-81274926D01*
X104205945Y-81279937D01*
X104200289Y-81286262D01*
X103735751Y-81750800D01*
X103688635Y-81772771D01*
X103670122Y-81772124D01*
X103630000Y-81765769D01*
X103624090Y-81766705D01*
X103599745Y-81770561D01*
X103511266Y-81784575D01*
X103404155Y-81839151D01*
X103319151Y-81924155D01*
X103264575Y-82031266D01*
X103245769Y-82150000D01*
X103264575Y-82268734D01*
X103319151Y-82375845D01*
X103404155Y-82460849D01*
X103415579Y-82466670D01*
X103451033Y-82504690D01*
X103453753Y-82556606D01*
X103422466Y-82598125D01*
X103415601Y-82602088D01*
X103370748Y-82624942D01*
X103285744Y-82709946D01*
X103231168Y-82817057D01*
X103212362Y-82935791D01*
X103213298Y-82941701D01*
X103215994Y-82958723D01*
X103231168Y-83054525D01*
X103285744Y-83161636D01*
X103370748Y-83246640D01*
X103477859Y-83301216D01*
X103596593Y-83320022D01*
X103715327Y-83301216D01*
X103822438Y-83246640D01*
X103907442Y-83161636D01*
X103962018Y-83054525D01*
X103977192Y-82958723D01*
X103979888Y-82941701D01*
X103980824Y-82935791D01*
X103962018Y-82817057D01*
X103907442Y-82709946D01*
X103822438Y-82624942D01*
X103811014Y-82619121D01*
X103775560Y-82581101D01*
X103772840Y-82529185D01*
X103804127Y-82487666D01*
X103810992Y-82483703D01*
X103855845Y-82460849D01*
X103940849Y-82375845D01*
X103995425Y-82268734D01*
X104014231Y-82150000D01*
X104007876Y-82109879D01*
X104017795Y-82058847D01*
X104029200Y-82044249D01*
X104443689Y-81629760D01*
X104490805Y-81607789D01*
X104497429Y-81607500D01*
X107243577Y-81607500D01*
X107252181Y-81607989D01*
X107257835Y-81608633D01*
X107265907Y-81611468D01*
X107274409Y-81610522D01*
X107274410Y-81610522D01*
X107297374Y-81607966D01*
X107305780Y-81607500D01*
X107313392Y-81607500D01*
X107317547Y-81606552D01*
X107317549Y-81606552D01*
X107320459Y-81605888D01*
X107328951Y-81604452D01*
X107335462Y-81603727D01*
X107359994Y-81600997D01*
X107367248Y-81596456D01*
X107370687Y-81595258D01*
X107373955Y-81593685D01*
X107382298Y-81591782D01*
X107406740Y-81572304D01*
X107413760Y-81567335D01*
X107420054Y-81563395D01*
X107425389Y-81558060D01*
X107431766Y-81552363D01*
X107449641Y-81538119D01*
X107456336Y-81532784D01*
X107460055Y-81525074D01*
X107464055Y-81520063D01*
X107469711Y-81513738D01*
X108153689Y-80829760D01*
X108200805Y-80807789D01*
X108207429Y-80807500D01*
X118585594Y-80807500D01*
X118634446Y-80825281D01*
X118660439Y-80870303D01*
X118651412Y-80921500D01*
X118642561Y-80933806D01*
X118586845Y-80996893D01*
X118584545Y-81001792D01*
X118584543Y-81001795D01*
X118571771Y-81029000D01*
X118531516Y-81114741D01*
X118511486Y-81243380D01*
X118512188Y-81248748D01*
X118512188Y-81248749D01*
X118513687Y-81260209D01*
X118528367Y-81372471D01*
X118580800Y-81491635D01*
X118664572Y-81591293D01*
X118772946Y-81663434D01*
X118778114Y-81665049D01*
X118778117Y-81665050D01*
X118892046Y-81700643D01*
X118892048Y-81700643D01*
X118897213Y-81702257D01*
X118962297Y-81703450D01*
X119021969Y-81704544D01*
X119021970Y-81704544D01*
X119027381Y-81704643D01*
X119032599Y-81703220D01*
X119032602Y-81703220D01*
X119111017Y-81681841D01*
X119152986Y-81670399D01*
X119157598Y-81667567D01*
X119157601Y-81667566D01*
X119219999Y-81629253D01*
X119263932Y-81602278D01*
X119267563Y-81598266D01*
X119271734Y-81594804D01*
X119273415Y-81596829D01*
X119310659Y-81577150D01*
X119361482Y-81588090D01*
X119365164Y-81590861D01*
X119365527Y-81591293D01*
X119473901Y-81663434D01*
X119479069Y-81665049D01*
X119479072Y-81665050D01*
X119593001Y-81700643D01*
X119593003Y-81700643D01*
X119598168Y-81702257D01*
X119663252Y-81703450D01*
X119722924Y-81704544D01*
X119722925Y-81704544D01*
X119728336Y-81704643D01*
X119733554Y-81703220D01*
X119733557Y-81703220D01*
X119811972Y-81681841D01*
X119853941Y-81670399D01*
X119858553Y-81667567D01*
X119858556Y-81667566D01*
X119920954Y-81629253D01*
X119964887Y-81602278D01*
X119966825Y-81600137D01*
X120014786Y-81582966D01*
X120056496Y-81595699D01*
X120158251Y-81663434D01*
X120163419Y-81665049D01*
X120163422Y-81665050D01*
X120277351Y-81700643D01*
X120277353Y-81700643D01*
X120282518Y-81702257D01*
X120347602Y-81703450D01*
X120407274Y-81704544D01*
X120407275Y-81704544D01*
X120412686Y-81704643D01*
X120417904Y-81703220D01*
X120417907Y-81703220D01*
X120496322Y-81681841D01*
X120538291Y-81670399D01*
X120542903Y-81667567D01*
X120542906Y-81667566D01*
X120605304Y-81629253D01*
X120649237Y-81602278D01*
X120701634Y-81544390D01*
X122115860Y-81544390D01*
X122116562Y-81549758D01*
X122116562Y-81549759D01*
X122118860Y-81567331D01*
X122132741Y-81673481D01*
X122185174Y-81792645D01*
X122268946Y-81892303D01*
X122377320Y-81964444D01*
X122382488Y-81966059D01*
X122382491Y-81966060D01*
X122496420Y-82001653D01*
X122496422Y-82001653D01*
X122501587Y-82003267D01*
X122566671Y-82004460D01*
X122626343Y-82005554D01*
X122626344Y-82005554D01*
X122631755Y-82005653D01*
X122636973Y-82004230D01*
X122636976Y-82004230D01*
X122710787Y-81984106D01*
X122757360Y-81971409D01*
X122761972Y-81968577D01*
X122761975Y-81968576D01*
X122836837Y-81922610D01*
X122868306Y-81903288D01*
X122955672Y-81806767D01*
X122958034Y-81801892D01*
X122958036Y-81801889D01*
X123010074Y-81694481D01*
X123012437Y-81689604D01*
X123015105Y-81673750D01*
X123033549Y-81564119D01*
X123034037Y-81561219D01*
X123034174Y-81550000D01*
X123032974Y-81541620D01*
X123016486Y-81426485D01*
X123016485Y-81426482D01*
X123015718Y-81421125D01*
X123009416Y-81407265D01*
X122964074Y-81307540D01*
X122964072Y-81307538D01*
X122961832Y-81302610D01*
X122876850Y-81203983D01*
X122864717Y-81196119D01*
X122772142Y-81136115D01*
X122772140Y-81136114D01*
X122767601Y-81133172D01*
X122642870Y-81095870D01*
X122587531Y-81095532D01*
X122518098Y-81095107D01*
X122518097Y-81095107D01*
X122512683Y-81095074D01*
X122387505Y-81130850D01*
X122277400Y-81200321D01*
X122191219Y-81297903D01*
X122188919Y-81302802D01*
X122188917Y-81302805D01*
X122171521Y-81339859D01*
X122135890Y-81415751D01*
X122115860Y-81544390D01*
X120701634Y-81544390D01*
X120736603Y-81505757D01*
X120738965Y-81500882D01*
X120738967Y-81500879D01*
X120791005Y-81393471D01*
X120793368Y-81388594D01*
X120795703Y-81374719D01*
X120813875Y-81266705D01*
X120814968Y-81260209D01*
X120815105Y-81248990D01*
X120814689Y-81246083D01*
X120797417Y-81125475D01*
X120797416Y-81125472D01*
X120796649Y-81120115D01*
X120786219Y-81097176D01*
X120745005Y-81006530D01*
X120745003Y-81006528D01*
X120742763Y-81001600D01*
X120739229Y-80997498D01*
X120739226Y-80997494D01*
X120683749Y-80933109D01*
X120665331Y-80884494D01*
X120682470Y-80835414D01*
X120727149Y-80808834D01*
X120741324Y-80807500D01*
X128687357Y-80807500D01*
X128736209Y-80825281D01*
X128741097Y-80829760D01*
X129375237Y-81463900D01*
X129380975Y-81470329D01*
X129384514Y-81474778D01*
X129388219Y-81482494D01*
X129412953Y-81502274D01*
X129419218Y-81507881D01*
X129424602Y-81513265D01*
X129428214Y-81515535D01*
X129430734Y-81517119D01*
X129437754Y-81522108D01*
X129444609Y-81527590D01*
X129462153Y-81541620D01*
X129470496Y-81543538D01*
X129473778Y-81545125D01*
X129477197Y-81546322D01*
X129484440Y-81550875D01*
X129502662Y-81552935D01*
X129515479Y-81554384D01*
X129523974Y-81555836D01*
X129531210Y-81557500D01*
X129538758Y-81557500D01*
X129547295Y-81557981D01*
X129549887Y-81558274D01*
X129570009Y-81560549D01*
X129570010Y-81560549D01*
X129578511Y-81561510D01*
X129586588Y-81558689D01*
X129592965Y-81557974D01*
X129601436Y-81557500D01*
X131867601Y-81557500D01*
X131876208Y-81557989D01*
X131879226Y-81558333D01*
X131905117Y-81566126D01*
X131931266Y-81579449D01*
X131953471Y-81582966D01*
X132040997Y-81596829D01*
X132050000Y-81598255D01*
X132059004Y-81596829D01*
X132146529Y-81582966D01*
X132168734Y-81579449D01*
X132275845Y-81524873D01*
X132360849Y-81439869D01*
X132415425Y-81332758D01*
X132430654Y-81236605D01*
X132433295Y-81219934D01*
X132434231Y-81214024D01*
X132429932Y-81186881D01*
X132416361Y-81101198D01*
X132416361Y-81101197D01*
X132415425Y-81095290D01*
X132412710Y-81089962D01*
X132412398Y-81089001D01*
X132414214Y-81037046D01*
X132449001Y-80998413D01*
X132484679Y-80989518D01*
X133414589Y-80989518D01*
X133463441Y-81007299D01*
X133468329Y-81011778D01*
X133799932Y-81343382D01*
X134130467Y-81673917D01*
X134136205Y-81680346D01*
X134139740Y-81684790D01*
X134143445Y-81692506D01*
X134168174Y-81712282D01*
X134174439Y-81717889D01*
X134179828Y-81723278D01*
X134183438Y-81725547D01*
X134183442Y-81725550D01*
X134185960Y-81727132D01*
X134192984Y-81732123D01*
X134217379Y-81751632D01*
X134225722Y-81753550D01*
X134229004Y-81755137D01*
X134232423Y-81756334D01*
X134239666Y-81760887D01*
X134248167Y-81761848D01*
X134270705Y-81764396D01*
X134279200Y-81765848D01*
X134286436Y-81767512D01*
X134293984Y-81767512D01*
X134302521Y-81767993D01*
X134306815Y-81768478D01*
X134325235Y-81770561D01*
X134325236Y-81770561D01*
X134333737Y-81771522D01*
X134341814Y-81768701D01*
X134348191Y-81767986D01*
X134356662Y-81767512D01*
X134480522Y-81767512D01*
X134529374Y-81785293D01*
X134555367Y-81830315D01*
X134546340Y-81881512D01*
X134537487Y-81893821D01*
X134529126Y-81903288D01*
X134516219Y-81917903D01*
X134513919Y-81922802D01*
X134513917Y-81922805D01*
X134492428Y-81968576D01*
X134460890Y-82035751D01*
X134440860Y-82164390D01*
X134441562Y-82169758D01*
X134441562Y-82169759D01*
X134441729Y-82171039D01*
X134457741Y-82293481D01*
X134510174Y-82412645D01*
X134513656Y-82416788D01*
X134513659Y-82416792D01*
X134585646Y-82502430D01*
X134603470Y-82551266D01*
X134584435Y-82601641D01*
X134516219Y-82678882D01*
X134513919Y-82683781D01*
X134513917Y-82683784D01*
X134499131Y-82715279D01*
X134460890Y-82796730D01*
X134440860Y-82925369D01*
X134441562Y-82930737D01*
X134441562Y-82930738D01*
X134442996Y-82941701D01*
X134457741Y-83054460D01*
X134510174Y-83173624D01*
X134593946Y-83273282D01*
X134702320Y-83345423D01*
X134707488Y-83347038D01*
X134707491Y-83347039D01*
X134821420Y-83382632D01*
X134821422Y-83382632D01*
X134826587Y-83384246D01*
X134891671Y-83385439D01*
X134951343Y-83386533D01*
X134951344Y-83386533D01*
X134956755Y-83386632D01*
X134961973Y-83385209D01*
X134961976Y-83385209D01*
X135036734Y-83364827D01*
X135082360Y-83352388D01*
X135086972Y-83349556D01*
X135086975Y-83349555D01*
X135164177Y-83302152D01*
X135193306Y-83284267D01*
X135243660Y-83228636D01*
X135289625Y-83204351D01*
X135340448Y-83215293D01*
X135358181Y-83230736D01*
X135390457Y-83269133D01*
X135390463Y-83269138D01*
X135393946Y-83273282D01*
X135502320Y-83345423D01*
X135507488Y-83347038D01*
X135507491Y-83347039D01*
X135621420Y-83382632D01*
X135621422Y-83382632D01*
X135626587Y-83384246D01*
X135691671Y-83385439D01*
X135751343Y-83386533D01*
X135751344Y-83386533D01*
X135756755Y-83386632D01*
X135761973Y-83385209D01*
X135761976Y-83385209D01*
X135836734Y-83364827D01*
X135882360Y-83352388D01*
X135886972Y-83349556D01*
X135886975Y-83349555D01*
X135964177Y-83302152D01*
X135993306Y-83284267D01*
X136043660Y-83228636D01*
X136089625Y-83204351D01*
X136140448Y-83215293D01*
X136158181Y-83230736D01*
X136190457Y-83269133D01*
X136190463Y-83269138D01*
X136193946Y-83273282D01*
X136302320Y-83345423D01*
X136307488Y-83347038D01*
X136307491Y-83347039D01*
X136421420Y-83382632D01*
X136421422Y-83382632D01*
X136426587Y-83384246D01*
X136491671Y-83385439D01*
X136551343Y-83386533D01*
X136551344Y-83386533D01*
X136556755Y-83386632D01*
X136561973Y-83385209D01*
X136561976Y-83385209D01*
X136636734Y-83364827D01*
X136682360Y-83352388D01*
X136686972Y-83349556D01*
X136686975Y-83349555D01*
X136764177Y-83302152D01*
X136793306Y-83284267D01*
X136843660Y-83228636D01*
X136889625Y-83204351D01*
X136940448Y-83215293D01*
X136958181Y-83230736D01*
X136990457Y-83269133D01*
X136990463Y-83269138D01*
X136993946Y-83273282D01*
X137102320Y-83345423D01*
X137107488Y-83347038D01*
X137107491Y-83347039D01*
X137221420Y-83382632D01*
X137221422Y-83382632D01*
X137226587Y-83384246D01*
X137291671Y-83385439D01*
X137351343Y-83386533D01*
X137351344Y-83386533D01*
X137356755Y-83386632D01*
X137361973Y-83385209D01*
X137361976Y-83385209D01*
X137436734Y-83364827D01*
X137482360Y-83352388D01*
X137486972Y-83349556D01*
X137486975Y-83349555D01*
X137564177Y-83302152D01*
X137593306Y-83284267D01*
X137680672Y-83187746D01*
X137683034Y-83182871D01*
X137683036Y-83182868D01*
X137729833Y-83086278D01*
X137737437Y-83070583D01*
X137738665Y-83063288D01*
X137758549Y-82945098D01*
X137759037Y-82942198D01*
X137759174Y-82930979D01*
X137758758Y-82928072D01*
X137741486Y-82807464D01*
X137741485Y-82807461D01*
X137740718Y-82802104D01*
X137732894Y-82784896D01*
X137689074Y-82688519D01*
X137689072Y-82688517D01*
X137686832Y-82683589D01*
X137683298Y-82679487D01*
X137683295Y-82679483D01*
X137614272Y-82599377D01*
X137595854Y-82550762D01*
X137615500Y-82498768D01*
X137680672Y-82426767D01*
X137683034Y-82421892D01*
X137683036Y-82421889D01*
X137735074Y-82314481D01*
X137737437Y-82309604D01*
X137739707Y-82296115D01*
X137758549Y-82184119D01*
X137759037Y-82181219D01*
X137759174Y-82170000D01*
X137757605Y-82159041D01*
X137741486Y-82046485D01*
X137741485Y-82046482D01*
X137740718Y-82041125D01*
X137738275Y-82035751D01*
X137689074Y-81927540D01*
X137689072Y-81927538D01*
X137686832Y-81922610D01*
X137683298Y-81918508D01*
X137683295Y-81918504D01*
X137661424Y-81893121D01*
X137643006Y-81844506D01*
X137660146Y-81795426D01*
X137704824Y-81768846D01*
X137718999Y-81767512D01*
X143693565Y-81767512D01*
X143702169Y-81768001D01*
X143707823Y-81768645D01*
X143715895Y-81771480D01*
X143724397Y-81770534D01*
X143724398Y-81770534D01*
X143747362Y-81767978D01*
X143755768Y-81767512D01*
X143763380Y-81767512D01*
X143767535Y-81766564D01*
X143767537Y-81766564D01*
X143770447Y-81765900D01*
X143778939Y-81764464D01*
X143785450Y-81763739D01*
X143809982Y-81761009D01*
X143817236Y-81756468D01*
X143820675Y-81755270D01*
X143823943Y-81753697D01*
X143832286Y-81751794D01*
X143856728Y-81732316D01*
X143863748Y-81727347D01*
X143870042Y-81723407D01*
X143875377Y-81718072D01*
X143881754Y-81712375D01*
X143899629Y-81698131D01*
X143906324Y-81692796D01*
X143910043Y-81685086D01*
X143914043Y-81680075D01*
X143919699Y-81673750D01*
X144113689Y-81479760D01*
X144160805Y-81457789D01*
X144167429Y-81457500D01*
X152632571Y-81457500D01*
X152681423Y-81475281D01*
X152686311Y-81479760D01*
X152920451Y-81713900D01*
X152926189Y-81720329D01*
X152929728Y-81724778D01*
X152933433Y-81732494D01*
X152958167Y-81752274D01*
X152964432Y-81757881D01*
X152969816Y-81763265D01*
X152975041Y-81766549D01*
X152975948Y-81767119D01*
X152982968Y-81772108D01*
X152994904Y-81781653D01*
X153007367Y-81791620D01*
X153015710Y-81793538D01*
X153018992Y-81795125D01*
X153022411Y-81796322D01*
X153029654Y-81800875D01*
X153060693Y-81804384D01*
X153069188Y-81805836D01*
X153076424Y-81807500D01*
X153083972Y-81807500D01*
X153092510Y-81807981D01*
X153115223Y-81810549D01*
X153115224Y-81810549D01*
X153123725Y-81811510D01*
X153131802Y-81808689D01*
X153138179Y-81807974D01*
X153146650Y-81807500D01*
X154407755Y-81807500D01*
X154456607Y-81825281D01*
X154475469Y-81848994D01*
X154489151Y-81875845D01*
X154574155Y-81960849D01*
X154681266Y-82015425D01*
X154800000Y-82034231D01*
X154918734Y-82015425D01*
X155025845Y-81960849D01*
X155110849Y-81875845D01*
X155165425Y-81768734D01*
X155179425Y-81680346D01*
X155183295Y-81655910D01*
X155184231Y-81650000D01*
X155165425Y-81531266D01*
X155110849Y-81424155D01*
X155025845Y-81339151D01*
X154918734Y-81284575D01*
X154800000Y-81265769D01*
X154681266Y-81284575D01*
X154574155Y-81339151D01*
X154543066Y-81370240D01*
X154495950Y-81392211D01*
X154489326Y-81392500D01*
X154206674Y-81392500D01*
X154157822Y-81374719D01*
X154131829Y-81329697D01*
X154140856Y-81278500D01*
X154152934Y-81262760D01*
X154160849Y-81254845D01*
X154215425Y-81147734D01*
X154227656Y-81070512D01*
X154233295Y-81034910D01*
X154234231Y-81029000D01*
X154215425Y-80910266D01*
X154160849Y-80803155D01*
X154141434Y-80783740D01*
X154119463Y-80736624D01*
X154132918Y-80686408D01*
X154175504Y-80656590D01*
X154195174Y-80654000D01*
X163770000Y-80654000D01*
X163818852Y-80671781D01*
X163844845Y-80716803D01*
X163846000Y-80730000D01*
X163846000Y-82830099D01*
X163828219Y-82878951D01*
X163783197Y-82904944D01*
X163732000Y-82895917D01*
X163706808Y-82872322D01*
X163687282Y-82843099D01*
X163676901Y-82832718D01*
X163605330Y-82784896D01*
X163591765Y-82779277D01*
X163528675Y-82766728D01*
X163521286Y-82766000D01*
X162013400Y-82766000D01*
X162003135Y-82769736D01*
X162000000Y-82775166D01*
X162000000Y-87220599D01*
X162003736Y-87230864D01*
X162009166Y-87233999D01*
X163521283Y-87233999D01*
X163528677Y-87233271D01*
X163591765Y-87220723D01*
X163605329Y-87215105D01*
X163676901Y-87167282D01*
X163687282Y-87156901D01*
X163706808Y-87127678D01*
X163748733Y-87096937D01*
X163800608Y-87100337D01*
X163838162Y-87136287D01*
X163846000Y-87169901D01*
X163846000Y-89270000D01*
X163828219Y-89318852D01*
X163783197Y-89344845D01*
X163770000Y-89346000D01*
X142643189Y-89346000D01*
X142594337Y-89328219D01*
X142568344Y-89283197D01*
X142577371Y-89232000D01*
X142586843Y-89218999D01*
X142639535Y-89160785D01*
X142643172Y-89156767D01*
X142645534Y-89151892D01*
X142645536Y-89151889D01*
X142696789Y-89046102D01*
X142699937Y-89039604D01*
X142701655Y-89029396D01*
X142717950Y-88932540D01*
X142721537Y-88911219D01*
X142721674Y-88900000D01*
X142721258Y-88897093D01*
X142703986Y-88776485D01*
X142703985Y-88776482D01*
X142703218Y-88771125D01*
X142696624Y-88756622D01*
X142651574Y-88657540D01*
X142651572Y-88657538D01*
X142649332Y-88652610D01*
X142564350Y-88553983D01*
X142552895Y-88546558D01*
X142459642Y-88486115D01*
X142459640Y-88486114D01*
X142455101Y-88483172D01*
X142362571Y-88455500D01*
X142335553Y-88447420D01*
X142330370Y-88445870D01*
X142275031Y-88445532D01*
X142205598Y-88445107D01*
X142205597Y-88445107D01*
X142200183Y-88445074D01*
X142075005Y-88480850D01*
X141964900Y-88550321D01*
X141961316Y-88554379D01*
X141959821Y-88556072D01*
X141878719Y-88647903D01*
X141876419Y-88652802D01*
X141876417Y-88652805D01*
X141860663Y-88686361D01*
X141823390Y-88765751D01*
X141803360Y-88894390D01*
X141804062Y-88899758D01*
X141804062Y-88899759D01*
X141806233Y-88916361D01*
X141820241Y-89023481D01*
X141872674Y-89142645D01*
X141888730Y-89161746D01*
X141938620Y-89221097D01*
X141956443Y-89269934D01*
X141938705Y-89318801D01*
X141893706Y-89344834D01*
X141880443Y-89346000D01*
X131037323Y-89346000D01*
X131028665Y-89344595D01*
X131019043Y-89344018D01*
X131009552Y-89340854D01*
X130986490Y-89345573D01*
X130983949Y-89346000D01*
X130979724Y-89346000D01*
X130966783Y-89349468D01*
X130962375Y-89350508D01*
X130960666Y-89350858D01*
X130957318Y-89351543D01*
X130905893Y-89343921D01*
X130871399Y-89305026D01*
X130869975Y-89253059D01*
X130902311Y-89212321D01*
X130925752Y-89197928D01*
X130933306Y-89193290D01*
X131020672Y-89096769D01*
X131023034Y-89091894D01*
X131023036Y-89091891D01*
X131073713Y-88987292D01*
X131077437Y-88979606D01*
X131081707Y-88954230D01*
X131098549Y-88854121D01*
X131099037Y-88851221D01*
X131099174Y-88840002D01*
X131098758Y-88837095D01*
X131081486Y-88716487D01*
X131081485Y-88716484D01*
X131080718Y-88711127D01*
X131072298Y-88692608D01*
X131029074Y-88597542D01*
X131029072Y-88597540D01*
X131026832Y-88592612D01*
X130941850Y-88493985D01*
X130929708Y-88486115D01*
X130926760Y-88484204D01*
X130895437Y-88442712D01*
X130898113Y-88390794D01*
X130933535Y-88352742D01*
X130948103Y-88347106D01*
X131042360Y-88321409D01*
X131046972Y-88318577D01*
X131046975Y-88318576D01*
X131060942Y-88310000D01*
X134625771Y-88310000D01*
X134626707Y-88315910D01*
X134631648Y-88347105D01*
X134644577Y-88428734D01*
X134699153Y-88535845D01*
X134784157Y-88620849D01*
X134891268Y-88675425D01*
X135010002Y-88694231D01*
X135128736Y-88675425D01*
X135235847Y-88620849D01*
X135320851Y-88535845D01*
X135375427Y-88428734D01*
X135388356Y-88347105D01*
X135393297Y-88315910D01*
X135394233Y-88310000D01*
X135375427Y-88191266D01*
X135320851Y-88084155D01*
X135235847Y-87999151D01*
X135128736Y-87944575D01*
X135064893Y-87934463D01*
X135015912Y-87926705D01*
X135010002Y-87925769D01*
X135004092Y-87926705D01*
X134955111Y-87934463D01*
X134891268Y-87944575D01*
X134784157Y-87999151D01*
X134699153Y-88084155D01*
X134644577Y-88191266D01*
X134625771Y-88310000D01*
X131060942Y-88310000D01*
X131119733Y-88273902D01*
X131153306Y-88253288D01*
X131240672Y-88156767D01*
X131243034Y-88151892D01*
X131243036Y-88151889D01*
X131295074Y-88044481D01*
X131297437Y-88039604D01*
X131307979Y-87976948D01*
X131318549Y-87914119D01*
X131319037Y-87911219D01*
X131319174Y-87900000D01*
X131314883Y-87870034D01*
X131301486Y-87776485D01*
X131301485Y-87776482D01*
X131300718Y-87771125D01*
X131293036Y-87754230D01*
X131249074Y-87657540D01*
X131249072Y-87657538D01*
X131246832Y-87652610D01*
X131161850Y-87553983D01*
X131145419Y-87543333D01*
X131057142Y-87486115D01*
X131057140Y-87486114D01*
X131052601Y-87483172D01*
X130950524Y-87452645D01*
X130933053Y-87447420D01*
X130927870Y-87445870D01*
X130872531Y-87445532D01*
X130803098Y-87445107D01*
X130803097Y-87445107D01*
X130797683Y-87445074D01*
X130792474Y-87446563D01*
X130792472Y-87446563D01*
X130745162Y-87460084D01*
X130693305Y-87456412D01*
X130655940Y-87420266D01*
X130649214Y-87398899D01*
X130648631Y-87395213D01*
X130648501Y-87394390D01*
X154740860Y-87394390D01*
X154757741Y-87523481D01*
X154810174Y-87642645D01*
X154893946Y-87742303D01*
X155002320Y-87814444D01*
X155007488Y-87816059D01*
X155007491Y-87816060D01*
X155121420Y-87851653D01*
X155121422Y-87851653D01*
X155126587Y-87853267D01*
X155191671Y-87854460D01*
X155251343Y-87855554D01*
X155251344Y-87855554D01*
X155256755Y-87855653D01*
X155261973Y-87854230D01*
X155261976Y-87854230D01*
X155335787Y-87834106D01*
X155382360Y-87821409D01*
X155386972Y-87818577D01*
X155386975Y-87818576D01*
X155455526Y-87776485D01*
X155493306Y-87753288D01*
X155580672Y-87656767D01*
X155583034Y-87651892D01*
X155583036Y-87651889D01*
X155631485Y-87551889D01*
X155637437Y-87539604D01*
X155639731Y-87525973D01*
X155656075Y-87428824D01*
X155659037Y-87411219D01*
X155659174Y-87400000D01*
X155658758Y-87397093D01*
X155641486Y-87276485D01*
X155641485Y-87276482D01*
X155640718Y-87271125D01*
X155634474Y-87257392D01*
X155589074Y-87157540D01*
X155589072Y-87157538D01*
X155586832Y-87152610D01*
X155501850Y-87053983D01*
X155486207Y-87043844D01*
X155420543Y-87001283D01*
X158246001Y-87001283D01*
X158246729Y-87008677D01*
X158259277Y-87071765D01*
X158264895Y-87085329D01*
X158312718Y-87156901D01*
X158323099Y-87167282D01*
X158394670Y-87215104D01*
X158408235Y-87220723D01*
X158471325Y-87233272D01*
X158478714Y-87234000D01*
X159986600Y-87234000D01*
X159996865Y-87230264D01*
X160000000Y-87224834D01*
X160000000Y-86013400D01*
X159996264Y-86003135D01*
X159990834Y-86000000D01*
X158259401Y-86000000D01*
X158249136Y-86003736D01*
X158246001Y-86009166D01*
X158246001Y-87001283D01*
X155420543Y-87001283D01*
X155397142Y-86986115D01*
X155397140Y-86986114D01*
X155392601Y-86983172D01*
X155315118Y-86960000D01*
X155273053Y-86947420D01*
X155267870Y-86945870D01*
X155212531Y-86945532D01*
X155143098Y-86945107D01*
X155143097Y-86945107D01*
X155137683Y-86945074D01*
X155056508Y-86968274D01*
X155022138Y-86978097D01*
X155012505Y-86980850D01*
X154902400Y-87050321D01*
X154816219Y-87147903D01*
X154813919Y-87152802D01*
X154813917Y-87152805D01*
X154805891Y-87169901D01*
X154760890Y-87265751D01*
X154740860Y-87394390D01*
X130648501Y-87394390D01*
X130635415Y-87311775D01*
X130580839Y-87204664D01*
X130495835Y-87119660D01*
X130388724Y-87065084D01*
X130321137Y-87054379D01*
X130275900Y-87047214D01*
X130269990Y-87046278D01*
X130264080Y-87047214D01*
X130218843Y-87054379D01*
X130151256Y-87065084D01*
X130044145Y-87119660D01*
X129959141Y-87204664D01*
X129904565Y-87311775D01*
X129885759Y-87430509D01*
X129886695Y-87436419D01*
X129887229Y-87439792D01*
X129904565Y-87549243D01*
X129959141Y-87656354D01*
X130044145Y-87741358D01*
X130151256Y-87795934D01*
X130157166Y-87796870D01*
X130249168Y-87811442D01*
X130269990Y-87814740D01*
X130313874Y-87807789D01*
X130364905Y-87817708D01*
X130397622Y-87858109D01*
X130401757Y-87883780D01*
X130401693Y-87889041D01*
X130400860Y-87894390D01*
X130417741Y-88023481D01*
X130470174Y-88142645D01*
X130553946Y-88242303D01*
X130574217Y-88255797D01*
X130605028Y-88297665D01*
X130601719Y-88349547D01*
X130565835Y-88387163D01*
X130552987Y-88392134D01*
X130466280Y-88416915D01*
X130452505Y-88420852D01*
X130342400Y-88490323D01*
X130338816Y-88494381D01*
X130326546Y-88508274D01*
X130256219Y-88587905D01*
X130253919Y-88592804D01*
X130253917Y-88592807D01*
X130234966Y-88633172D01*
X130200890Y-88705753D01*
X130180860Y-88834392D01*
X130181562Y-88839760D01*
X130181562Y-88839761D01*
X130181919Y-88842494D01*
X130197741Y-88963483D01*
X130250174Y-89082647D01*
X130333946Y-89182305D01*
X130442320Y-89254446D01*
X130447488Y-89256061D01*
X130447491Y-89256062D01*
X130561420Y-89291655D01*
X130561422Y-89291655D01*
X130566587Y-89293269D01*
X130631671Y-89294462D01*
X130691343Y-89295556D01*
X130691344Y-89295556D01*
X130696755Y-89295655D01*
X130701973Y-89294232D01*
X130701976Y-89294232D01*
X130764935Y-89277067D01*
X130816743Y-89281372D01*
X130853664Y-89317972D01*
X130858420Y-89369741D01*
X130828788Y-89412456D01*
X130818913Y-89418367D01*
X130399112Y-89628267D01*
X129979694Y-89837976D01*
X129945706Y-89846000D01*
X121820076Y-89846000D01*
X121771224Y-89828219D01*
X121745231Y-89783197D01*
X121754258Y-89732000D01*
X121794145Y-89698561D01*
X121811154Y-89692387D01*
X121900067Y-89660113D01*
X121945002Y-89630653D01*
X122041316Y-89567507D01*
X122041317Y-89567506D01*
X122045010Y-89565085D01*
X122164203Y-89439261D01*
X122219051Y-89344834D01*
X122249036Y-89293211D01*
X122249037Y-89293209D01*
X122251254Y-89289392D01*
X122280000Y-89194481D01*
X122300213Y-89127743D01*
X122300213Y-89127741D01*
X122301493Y-89123516D01*
X122303153Y-89096769D01*
X122310113Y-88984575D01*
X122312225Y-88950532D01*
X122309264Y-88933295D01*
X122287435Y-88806264D01*
X122282874Y-88779718D01*
X122277121Y-88766196D01*
X122216743Y-88624301D01*
X122216742Y-88624300D01*
X122215014Y-88620238D01*
X122112287Y-88480647D01*
X121980201Y-88368432D01*
X121825843Y-88289613D01*
X121657493Y-88248418D01*
X121654110Y-88248208D01*
X121654109Y-88248208D01*
X121647729Y-88247812D01*
X121647720Y-88247812D01*
X121646564Y-88247740D01*
X121521600Y-88247740D01*
X121392849Y-88262751D01*
X121229933Y-88321887D01*
X121226238Y-88324309D01*
X121226237Y-88324310D01*
X121092776Y-88411810D01*
X121084990Y-88416915D01*
X121079392Y-88422824D01*
X121011607Y-88494381D01*
X120965797Y-88542739D01*
X120939211Y-88588510D01*
X120882375Y-88686361D01*
X120878746Y-88692608D01*
X120877466Y-88696833D01*
X120877466Y-88696834D01*
X120830081Y-88853288D01*
X120828507Y-88858484D01*
X120828234Y-88862889D01*
X120828233Y-88862893D01*
X120823866Y-88933295D01*
X120817775Y-89031468D01*
X120818523Y-89035820D01*
X120818523Y-89035824D01*
X120837044Y-89143606D01*
X120847126Y-89202282D01*
X120848854Y-89206344D01*
X120848855Y-89206346D01*
X120908828Y-89347290D01*
X120914986Y-89361762D01*
X121017713Y-89501353D01*
X121149799Y-89613568D01*
X121304157Y-89692387D01*
X121308448Y-89693437D01*
X121319650Y-89696178D01*
X121362875Y-89725060D01*
X121377423Y-89774970D01*
X121356486Y-89822555D01*
X121309860Y-89845548D01*
X121301586Y-89846000D01*
X109979028Y-89846000D01*
X109930176Y-89828219D01*
X109904183Y-89783197D01*
X109913210Y-89732000D01*
X109944523Y-89702285D01*
X110025845Y-89660849D01*
X110110849Y-89575845D01*
X110165425Y-89468734D01*
X110184231Y-89350000D01*
X110179290Y-89318801D01*
X110166361Y-89237176D01*
X110165425Y-89231266D01*
X110133897Y-89169390D01*
X115090860Y-89169390D01*
X115107741Y-89298481D01*
X115160174Y-89417645D01*
X115243946Y-89517303D01*
X115352320Y-89589444D01*
X115357488Y-89591059D01*
X115357491Y-89591060D01*
X115471420Y-89626653D01*
X115471422Y-89626653D01*
X115476587Y-89628267D01*
X115541671Y-89629460D01*
X115601343Y-89630554D01*
X115601344Y-89630554D01*
X115606755Y-89630653D01*
X115611973Y-89629230D01*
X115611976Y-89629230D01*
X115685787Y-89609106D01*
X115732360Y-89596409D01*
X115736972Y-89593577D01*
X115736975Y-89593576D01*
X115799373Y-89555263D01*
X115843306Y-89528288D01*
X115930672Y-89431767D01*
X115933034Y-89426892D01*
X115933036Y-89426889D01*
X115985074Y-89319481D01*
X115987437Y-89314604D01*
X115989049Y-89305026D01*
X116008467Y-89189604D01*
X116009037Y-89186219D01*
X116009174Y-89175000D01*
X116008371Y-89169390D01*
X115991486Y-89051485D01*
X115991485Y-89051482D01*
X115990718Y-89046125D01*
X115962307Y-88983639D01*
X115939074Y-88932540D01*
X115939072Y-88932538D01*
X115936832Y-88927610D01*
X115851850Y-88828983D01*
X115811161Y-88802610D01*
X115747142Y-88761115D01*
X115747140Y-88761114D01*
X115742601Y-88758172D01*
X115617870Y-88720870D01*
X115562531Y-88720532D01*
X115493098Y-88720107D01*
X115493097Y-88720107D01*
X115487683Y-88720074D01*
X115362505Y-88755850D01*
X115252400Y-88825321D01*
X115166219Y-88922903D01*
X115163919Y-88927802D01*
X115163917Y-88927805D01*
X115145654Y-88966705D01*
X115110890Y-89040751D01*
X115090860Y-89169390D01*
X110133897Y-89169390D01*
X110110849Y-89124155D01*
X110025845Y-89039151D01*
X109918734Y-88984575D01*
X109800000Y-88965769D01*
X109681266Y-88984575D01*
X109574155Y-89039151D01*
X109489151Y-89124155D01*
X109434575Y-89231266D01*
X109433639Y-89237176D01*
X109420711Y-89318801D01*
X109415769Y-89350000D01*
X109434575Y-89468734D01*
X109489151Y-89575845D01*
X109574155Y-89660849D01*
X109655477Y-89702285D01*
X109690930Y-89740305D01*
X109693651Y-89792221D01*
X109662364Y-89833739D01*
X109620972Y-89846000D01*
X88262603Y-89846000D01*
X88213751Y-89828219D01*
X88209543Y-89821808D01*
X88191670Y-89810000D01*
X85980159Y-89810000D01*
X85963672Y-89816001D01*
X85933381Y-89841417D01*
X85907388Y-89846000D01*
X83832603Y-89846000D01*
X83783751Y-89828219D01*
X83779543Y-89821808D01*
X83761670Y-89810000D01*
X82050159Y-89810000D01*
X82033672Y-89816001D01*
X82003381Y-89841417D01*
X81977388Y-89846000D01*
X80230000Y-89846000D01*
X80181148Y-89828219D01*
X80155155Y-89783197D01*
X80154000Y-89770000D01*
X80154000Y-88808296D01*
X82045749Y-88808296D01*
X82048328Y-88810000D01*
X82391600Y-88810000D01*
X82401865Y-88806264D01*
X82405000Y-88800834D01*
X82405000Y-88796600D01*
X83405000Y-88796600D01*
X83408736Y-88806865D01*
X83414166Y-88810000D01*
X83759841Y-88810000D01*
X83768060Y-88807009D01*
X83767121Y-88801684D01*
X83762809Y-88795824D01*
X83756836Y-88789419D01*
X83629567Y-88681296D01*
X83622264Y-88676426D01*
X83473549Y-88600488D01*
X83465322Y-88597428D01*
X83418016Y-88585852D01*
X83407158Y-88587041D01*
X83405344Y-88588936D01*
X83405000Y-88590572D01*
X83405000Y-88796600D01*
X82405000Y-88796600D01*
X82405000Y-88593834D01*
X82401264Y-88583569D01*
X82400935Y-88583379D01*
X82395608Y-88583843D01*
X82269246Y-88629710D01*
X82261396Y-88633641D01*
X82121748Y-88725198D01*
X82115016Y-88730827D01*
X82049230Y-88800272D01*
X82045749Y-88808296D01*
X80154000Y-88808296D01*
X80154000Y-87204390D01*
X83680860Y-87204390D01*
X83681562Y-87209758D01*
X83681562Y-87209759D01*
X83684465Y-87231955D01*
X83697741Y-87333481D01*
X83750174Y-87452645D01*
X83833946Y-87552303D01*
X83942320Y-87624444D01*
X83947488Y-87626059D01*
X83947491Y-87626060D01*
X84061420Y-87661653D01*
X84061422Y-87661653D01*
X84066587Y-87663267D01*
X84131671Y-87664460D01*
X84191343Y-87665554D01*
X84191344Y-87665554D01*
X84196755Y-87665653D01*
X84201973Y-87664230D01*
X84201976Y-87664230D01*
X84312680Y-87634048D01*
X84322360Y-87631409D01*
X84326972Y-87628577D01*
X84326975Y-87628576D01*
X84390181Y-87589767D01*
X84433306Y-87563288D01*
X84520672Y-87466767D01*
X84523036Y-87461888D01*
X84526059Y-87457406D01*
X84528011Y-87458723D01*
X84558831Y-87428824D01*
X84610683Y-87425078D01*
X84648808Y-87453793D01*
X84650174Y-87452645D01*
X84733946Y-87552303D01*
X84842320Y-87624444D01*
X84847488Y-87626059D01*
X84847491Y-87626060D01*
X84961420Y-87661653D01*
X84961422Y-87661653D01*
X84966587Y-87663267D01*
X85031671Y-87664460D01*
X85091343Y-87665554D01*
X85091344Y-87665554D01*
X85096755Y-87665653D01*
X85101973Y-87664230D01*
X85101976Y-87664230D01*
X85212680Y-87634048D01*
X85222360Y-87631409D01*
X85226972Y-87628577D01*
X85226975Y-87628576D01*
X85290181Y-87589767D01*
X85333306Y-87563288D01*
X85376989Y-87515028D01*
X85417040Y-87470780D01*
X85417041Y-87470778D01*
X85420672Y-87466767D01*
X85421380Y-87467408D01*
X85459386Y-87439792D01*
X85511246Y-87443416D01*
X85538514Y-87463945D01*
X85546545Y-87473499D01*
X85553946Y-87482303D01*
X85662320Y-87554444D01*
X85667488Y-87556059D01*
X85667491Y-87556060D01*
X85781420Y-87591653D01*
X85781422Y-87591653D01*
X85786587Y-87593267D01*
X85851671Y-87594460D01*
X85911343Y-87595554D01*
X85911344Y-87595554D01*
X85916755Y-87595653D01*
X85921975Y-87594230D01*
X85927353Y-87593560D01*
X85927702Y-87596365D01*
X85969125Y-87599816D01*
X86006038Y-87636424D01*
X86010783Y-87688194D01*
X86007506Y-87697913D01*
X85996218Y-87725162D01*
X85996216Y-87725170D01*
X85994313Y-87729764D01*
X85993664Y-87734695D01*
X85993663Y-87734698D01*
X85982248Y-87821409D01*
X85974534Y-87880000D01*
X85975184Y-87884937D01*
X85993424Y-88023481D01*
X85994313Y-88030236D01*
X86020789Y-88094155D01*
X86047500Y-88158639D01*
X86052302Y-88170233D01*
X86144549Y-88290451D01*
X86264767Y-88382698D01*
X86301440Y-88397888D01*
X86372695Y-88427404D01*
X86411024Y-88462527D01*
X86417809Y-88514069D01*
X86389877Y-88557914D01*
X86361094Y-88571581D01*
X86356207Y-88572736D01*
X86199246Y-88629710D01*
X86191396Y-88633641D01*
X86051748Y-88725198D01*
X86045016Y-88730827D01*
X85979230Y-88800272D01*
X85975749Y-88808296D01*
X85978328Y-88810000D01*
X86571600Y-88810000D01*
X86581865Y-88806264D01*
X86585000Y-88800834D01*
X86585000Y-88796600D01*
X87585000Y-88796600D01*
X87588736Y-88806865D01*
X87594166Y-88810000D01*
X88189841Y-88810000D01*
X88198060Y-88807009D01*
X88197121Y-88801684D01*
X88192809Y-88795824D01*
X88186836Y-88789419D01*
X88059567Y-88681296D01*
X88052264Y-88676426D01*
X87903549Y-88600488D01*
X87895322Y-88597428D01*
X87732123Y-88557494D01*
X87725446Y-88556478D01*
X87718905Y-88556072D01*
X87716576Y-88556000D01*
X87598400Y-88556000D01*
X87588135Y-88559736D01*
X87585000Y-88565166D01*
X87585000Y-88796600D01*
X86585000Y-88796600D01*
X86585000Y-88569402D01*
X86578179Y-88550662D01*
X86578179Y-88535876D01*
X89949893Y-88535876D01*
X89950829Y-88541786D01*
X89953672Y-88559736D01*
X89968699Y-88654610D01*
X90023275Y-88761721D01*
X90108279Y-88846725D01*
X90215390Y-88901301D01*
X90265457Y-88909231D01*
X90326150Y-88918844D01*
X90334124Y-88920107D01*
X90342099Y-88918844D01*
X90402791Y-88909231D01*
X90452858Y-88901301D01*
X90559969Y-88846725D01*
X90644973Y-88761721D01*
X90699549Y-88654610D01*
X90714576Y-88559736D01*
X90717419Y-88541786D01*
X90718355Y-88535876D01*
X90716632Y-88525000D01*
X93040769Y-88525000D01*
X93041705Y-88530910D01*
X93044893Y-88551039D01*
X93059575Y-88643734D01*
X93114151Y-88750845D01*
X93199155Y-88835849D01*
X93306266Y-88890425D01*
X93312176Y-88891361D01*
X93418958Y-88908274D01*
X93425000Y-88909231D01*
X93431043Y-88908274D01*
X93537824Y-88891361D01*
X93543734Y-88890425D01*
X93650845Y-88835849D01*
X93735849Y-88750845D01*
X93790425Y-88643734D01*
X93805107Y-88551039D01*
X93808295Y-88530910D01*
X93809231Y-88525000D01*
X93803652Y-88489773D01*
X93795575Y-88438782D01*
X93790425Y-88406266D01*
X93746470Y-88320000D01*
X96945769Y-88320000D01*
X96964575Y-88438734D01*
X97019151Y-88545845D01*
X97104155Y-88630849D01*
X97211266Y-88685425D01*
X97330000Y-88704231D01*
X97448734Y-88685425D01*
X97555845Y-88630849D01*
X97640849Y-88545845D01*
X97695425Y-88438734D01*
X97714231Y-88320000D01*
X97695425Y-88201266D01*
X97640849Y-88094155D01*
X97555845Y-88009151D01*
X97448734Y-87954575D01*
X97330000Y-87935769D01*
X97211266Y-87954575D01*
X97104155Y-88009151D01*
X97019151Y-88094155D01*
X96964575Y-88201266D01*
X96945769Y-88320000D01*
X93746470Y-88320000D01*
X93735849Y-88299155D01*
X93650845Y-88214151D01*
X93543734Y-88159575D01*
X93467068Y-88147432D01*
X93430910Y-88141705D01*
X93425000Y-88140769D01*
X93419090Y-88141705D01*
X93382932Y-88147432D01*
X93306266Y-88159575D01*
X93199155Y-88214151D01*
X93114151Y-88299155D01*
X93059575Y-88406266D01*
X93054425Y-88438782D01*
X93046349Y-88489773D01*
X93040769Y-88525000D01*
X90716632Y-88525000D01*
X90699549Y-88417142D01*
X90644973Y-88310031D01*
X90559969Y-88225027D01*
X90452858Y-88170451D01*
X90384191Y-88159575D01*
X90340034Y-88152581D01*
X90334124Y-88151645D01*
X90328214Y-88152581D01*
X90284057Y-88159575D01*
X90215390Y-88170451D01*
X90108279Y-88225027D01*
X90023275Y-88310031D01*
X89968699Y-88417142D01*
X89949893Y-88535876D01*
X86578179Y-88535876D01*
X86578179Y-88498675D01*
X86611596Y-88458850D01*
X86639675Y-88449318D01*
X86658568Y-88446831D01*
X86700302Y-88441337D01*
X86700305Y-88441336D01*
X86705236Y-88440687D01*
X86834454Y-88387163D01*
X86840632Y-88384604D01*
X86840633Y-88384603D01*
X86845233Y-88382698D01*
X86965451Y-88290451D01*
X87057698Y-88170233D01*
X87062501Y-88158639D01*
X87089211Y-88094155D01*
X87115687Y-88030236D01*
X87116577Y-88023481D01*
X87134816Y-87884937D01*
X87135466Y-87880000D01*
X87133376Y-87864124D01*
X90621645Y-87864124D01*
X90622581Y-87870034D01*
X90626439Y-87894390D01*
X90640451Y-87982858D01*
X90695027Y-88089969D01*
X90780031Y-88174973D01*
X90887142Y-88229549D01*
X91005876Y-88248355D01*
X91124610Y-88229549D01*
X91231721Y-88174973D01*
X91316725Y-88089969D01*
X91371301Y-87982858D01*
X91385313Y-87894390D01*
X101390856Y-87894390D01*
X101407737Y-88023481D01*
X101460170Y-88142645D01*
X101543942Y-88242303D01*
X101652316Y-88314444D01*
X101657484Y-88316059D01*
X101657487Y-88316060D01*
X101771416Y-88351653D01*
X101771418Y-88351653D01*
X101776583Y-88353267D01*
X101841667Y-88354460D01*
X101901339Y-88355554D01*
X101901340Y-88355554D01*
X101906751Y-88355653D01*
X101911969Y-88354230D01*
X101911972Y-88354230D01*
X101994141Y-88331828D01*
X102045949Y-88336133D01*
X102082870Y-88372733D01*
X102086356Y-88427767D01*
X102084573Y-88431266D01*
X102083638Y-88437171D01*
X102083637Y-88437173D01*
X102072376Y-88508274D01*
X102065767Y-88550000D01*
X102066703Y-88555910D01*
X102071934Y-88588936D01*
X102084573Y-88668734D01*
X102139149Y-88775845D01*
X102224153Y-88860849D01*
X102331264Y-88915425D01*
X102367252Y-88921125D01*
X102439322Y-88932540D01*
X102449998Y-88934231D01*
X102460675Y-88932540D01*
X102532744Y-88921125D01*
X102568732Y-88915425D01*
X102608129Y-88895351D01*
X104040860Y-88895351D01*
X104057741Y-89024442D01*
X104110174Y-89143606D01*
X104193946Y-89243264D01*
X104302320Y-89315405D01*
X104307488Y-89317020D01*
X104307491Y-89317021D01*
X104421420Y-89352614D01*
X104421422Y-89352614D01*
X104426587Y-89354228D01*
X104491671Y-89355421D01*
X104551343Y-89356515D01*
X104551344Y-89356515D01*
X104556755Y-89356614D01*
X104561973Y-89355191D01*
X104561976Y-89355191D01*
X104660906Y-89328219D01*
X104682360Y-89322370D01*
X104686972Y-89319538D01*
X104686975Y-89319537D01*
X104767760Y-89269934D01*
X104793306Y-89254249D01*
X104880672Y-89157728D01*
X104883034Y-89152853D01*
X104883036Y-89152850D01*
X104932866Y-89050000D01*
X104937437Y-89040565D01*
X104938498Y-89034262D01*
X104955327Y-88934231D01*
X104959037Y-88912180D01*
X104959174Y-88900961D01*
X104958233Y-88894390D01*
X104941486Y-88777446D01*
X104941485Y-88777443D01*
X104940718Y-88772086D01*
X104933687Y-88756622D01*
X104889074Y-88658501D01*
X104889072Y-88658499D01*
X104886832Y-88653571D01*
X104801850Y-88554944D01*
X104778075Y-88539534D01*
X104708426Y-88494390D01*
X111615860Y-88494390D01*
X111632741Y-88623481D01*
X111685174Y-88742645D01*
X111768946Y-88842303D01*
X111877320Y-88914444D01*
X111882488Y-88916059D01*
X111882491Y-88916060D01*
X111996420Y-88951653D01*
X111996422Y-88951653D01*
X112001587Y-88953267D01*
X112066671Y-88954460D01*
X112126343Y-88955554D01*
X112126344Y-88955554D01*
X112131755Y-88955653D01*
X112136973Y-88954230D01*
X112136976Y-88954230D01*
X112216532Y-88932540D01*
X112257360Y-88921409D01*
X112261972Y-88918577D01*
X112261975Y-88918576D01*
X112324373Y-88880263D01*
X112368306Y-88853288D01*
X112455672Y-88756767D01*
X112458034Y-88751892D01*
X112458036Y-88751889D01*
X112507853Y-88649066D01*
X112512437Y-88639604D01*
X112515136Y-88623566D01*
X112533549Y-88514119D01*
X112534037Y-88511219D01*
X112534174Y-88500000D01*
X112533371Y-88494390D01*
X112516486Y-88376485D01*
X112516485Y-88376482D01*
X112515718Y-88371125D01*
X112508036Y-88354230D01*
X112464074Y-88257540D01*
X112464072Y-88257538D01*
X112461832Y-88252610D01*
X112376850Y-88153983D01*
X112365748Y-88146787D01*
X112272142Y-88086115D01*
X112272140Y-88086114D01*
X112267601Y-88083172D01*
X112142870Y-88045870D01*
X112087531Y-88045532D01*
X112018098Y-88045107D01*
X112018097Y-88045107D01*
X112012683Y-88045074D01*
X111928694Y-88069078D01*
X111893702Y-88079079D01*
X111887505Y-88080850D01*
X111777400Y-88150321D01*
X111773816Y-88154379D01*
X111759814Y-88170233D01*
X111691219Y-88247903D01*
X111688919Y-88252802D01*
X111688917Y-88252805D01*
X111664653Y-88304488D01*
X111635890Y-88365751D01*
X111615860Y-88494390D01*
X104708426Y-88494390D01*
X104697142Y-88487076D01*
X104697140Y-88487075D01*
X104692601Y-88484133D01*
X104567870Y-88446831D01*
X104512531Y-88446493D01*
X104443098Y-88446068D01*
X104443097Y-88446068D01*
X104437683Y-88446035D01*
X104379979Y-88462527D01*
X104326578Y-88477789D01*
X104312505Y-88481811D01*
X104202400Y-88551282D01*
X104198816Y-88555340D01*
X104195545Y-88559044D01*
X104116219Y-88648864D01*
X104113919Y-88653763D01*
X104113917Y-88653766D01*
X104102734Y-88677586D01*
X104060890Y-88766712D01*
X104040860Y-88895351D01*
X102608129Y-88895351D01*
X102675843Y-88860849D01*
X102760847Y-88775845D01*
X102815423Y-88668734D01*
X102828062Y-88588936D01*
X102833293Y-88555910D01*
X102834229Y-88550000D01*
X102826775Y-88502935D01*
X102816359Y-88437176D01*
X102815423Y-88431266D01*
X102760847Y-88324155D01*
X102675843Y-88239151D01*
X102568732Y-88184575D01*
X102503127Y-88174184D01*
X102455908Y-88166705D01*
X102449998Y-88165769D01*
X102351450Y-88181378D01*
X102300420Y-88171459D01*
X102267703Y-88131058D01*
X102268610Y-88079079D01*
X102271167Y-88073177D01*
X102285070Y-88044481D01*
X102287433Y-88039604D01*
X102297975Y-87976948D01*
X102308545Y-87914119D01*
X102309033Y-87911219D01*
X102309170Y-87900000D01*
X102304879Y-87870034D01*
X102291482Y-87776485D01*
X102291481Y-87776482D01*
X102290714Y-87771125D01*
X102283032Y-87754230D01*
X102239070Y-87657540D01*
X102239068Y-87657538D01*
X102236828Y-87652610D01*
X102151846Y-87553983D01*
X102135415Y-87543333D01*
X102047138Y-87486115D01*
X102047136Y-87486114D01*
X102042597Y-87483172D01*
X101940520Y-87452645D01*
X101923049Y-87447420D01*
X101917866Y-87445870D01*
X101862527Y-87445532D01*
X101793094Y-87445107D01*
X101793093Y-87445107D01*
X101787679Y-87445074D01*
X101721651Y-87463945D01*
X101671931Y-87478155D01*
X101662501Y-87480850D01*
X101552396Y-87550321D01*
X101548812Y-87554379D01*
X101542603Y-87561409D01*
X101466215Y-87647903D01*
X101463915Y-87652802D01*
X101463913Y-87652805D01*
X101441391Y-87700776D01*
X101410886Y-87765751D01*
X101390856Y-87894390D01*
X91385313Y-87894390D01*
X91389171Y-87870034D01*
X91390107Y-87864124D01*
X91371301Y-87745390D01*
X91316725Y-87638279D01*
X91231721Y-87553275D01*
X91124610Y-87498699D01*
X91065243Y-87489296D01*
X91011786Y-87480829D01*
X91005876Y-87479893D01*
X90999966Y-87480829D01*
X90946509Y-87489296D01*
X90887142Y-87498699D01*
X90780031Y-87553275D01*
X90695027Y-87638279D01*
X90640451Y-87745390D01*
X90621645Y-87864124D01*
X87133376Y-87864124D01*
X87127752Y-87821409D01*
X87116337Y-87734698D01*
X87116336Y-87734695D01*
X87115687Y-87729764D01*
X87061957Y-87600048D01*
X87059604Y-87594368D01*
X87059603Y-87594367D01*
X87057698Y-87589767D01*
X86974123Y-87480850D01*
X86968482Y-87473499D01*
X86965451Y-87469549D01*
X86960562Y-87465797D01*
X86956803Y-87462913D01*
X86928869Y-87419068D01*
X86935653Y-87367526D01*
X86963301Y-87337851D01*
X86998694Y-87316120D01*
X86998695Y-87316119D01*
X87003306Y-87313288D01*
X87020412Y-87294390D01*
X88880860Y-87294390D01*
X88897741Y-87423481D01*
X88950174Y-87542645D01*
X89033946Y-87642303D01*
X89142320Y-87714444D01*
X89147488Y-87716059D01*
X89147491Y-87716060D01*
X89261420Y-87751653D01*
X89261422Y-87751653D01*
X89266587Y-87753267D01*
X89331671Y-87754460D01*
X89391343Y-87755554D01*
X89391344Y-87755554D01*
X89396755Y-87755653D01*
X89401973Y-87754230D01*
X89401976Y-87754230D01*
X89491714Y-87729764D01*
X89522360Y-87721409D01*
X89526972Y-87718577D01*
X89526975Y-87718576D01*
X89596156Y-87676098D01*
X89633306Y-87653288D01*
X89720672Y-87556767D01*
X89723034Y-87551892D01*
X89723036Y-87551889D01*
X89775074Y-87444481D01*
X89777437Y-87439604D01*
X89784286Y-87398899D01*
X89792513Y-87350000D01*
X100165769Y-87350000D01*
X100166705Y-87355910D01*
X100171953Y-87389041D01*
X100184575Y-87468734D01*
X100239151Y-87575845D01*
X100324155Y-87660849D01*
X100431266Y-87715425D01*
X100550000Y-87734231D01*
X100668734Y-87715425D01*
X100775845Y-87660849D01*
X100860849Y-87575845D01*
X100915425Y-87468734D01*
X100928047Y-87389041D01*
X100933295Y-87355910D01*
X100934231Y-87350000D01*
X100926777Y-87302935D01*
X100920613Y-87264021D01*
X115215769Y-87264021D01*
X115216705Y-87269931D01*
X115217417Y-87274424D01*
X115234575Y-87382755D01*
X115289151Y-87489866D01*
X115374155Y-87574870D01*
X115481266Y-87629446D01*
X115533328Y-87637692D01*
X115590751Y-87646787D01*
X115600000Y-87648252D01*
X115696609Y-87632950D01*
X115747639Y-87642869D01*
X115780356Y-87683270D01*
X115781234Y-87730044D01*
X115755866Y-87813804D01*
X115747248Y-87842257D01*
X115736498Y-88015537D01*
X115737246Y-88019889D01*
X115737246Y-88019893D01*
X115758177Y-88141705D01*
X115765899Y-88186643D01*
X115767627Y-88190705D01*
X115767628Y-88190707D01*
X115829508Y-88336133D01*
X115833875Y-88346395D01*
X115936778Y-88486225D01*
X115940136Y-88489078D01*
X115940139Y-88489081D01*
X116012625Y-88550662D01*
X116069089Y-88598632D01*
X116223711Y-88677586D01*
X116392348Y-88718851D01*
X116395731Y-88719061D01*
X116395732Y-88719061D01*
X116402128Y-88719458D01*
X116402137Y-88719458D01*
X116403293Y-88719530D01*
X116458374Y-88719530D01*
X116507226Y-88737311D01*
X116533219Y-88782333D01*
X116527169Y-88827829D01*
X116485890Y-88915751D01*
X116465860Y-89044390D01*
X116482741Y-89173481D01*
X116535174Y-89292645D01*
X116618946Y-89392303D01*
X116727320Y-89464444D01*
X116732488Y-89466059D01*
X116732491Y-89466060D01*
X116846420Y-89501653D01*
X116846422Y-89501653D01*
X116851587Y-89503267D01*
X116916671Y-89504460D01*
X116976343Y-89505554D01*
X116976344Y-89505554D01*
X116981755Y-89505653D01*
X116986973Y-89504230D01*
X116986976Y-89504230D01*
X117097614Y-89474066D01*
X117107360Y-89471409D01*
X117111972Y-89468577D01*
X117111975Y-89468576D01*
X117203374Y-89412456D01*
X117218306Y-89403288D01*
X117305672Y-89306767D01*
X117308034Y-89301892D01*
X117308036Y-89301889D01*
X117360074Y-89194481D01*
X117362437Y-89189604D01*
X117364363Y-89178160D01*
X117383549Y-89064119D01*
X117384037Y-89061219D01*
X117384174Y-89050000D01*
X117383616Y-89046102D01*
X117366486Y-88926485D01*
X117366485Y-88926482D01*
X117365718Y-88921125D01*
X117363126Y-88915425D01*
X117314074Y-88807540D01*
X117314072Y-88807538D01*
X117311832Y-88802610D01*
X117226850Y-88703983D01*
X117198218Y-88685425D01*
X117122142Y-88636115D01*
X117122140Y-88636114D01*
X117117601Y-88633172D01*
X117112418Y-88631622D01*
X117112416Y-88631621D01*
X117056346Y-88614853D01*
X117014636Y-88583821D01*
X117002632Y-88533238D01*
X117022947Y-88489773D01*
X117082187Y-88427237D01*
X117082190Y-88427233D01*
X117085227Y-88424027D01*
X117129907Y-88347105D01*
X117170209Y-88277721D01*
X117170210Y-88277719D01*
X117172427Y-88273902D01*
X117180145Y-88248418D01*
X117221472Y-88111970D01*
X117221472Y-88111968D01*
X117222752Y-88107743D01*
X117233502Y-87934463D01*
X117232009Y-87925769D01*
X117211214Y-87804754D01*
X117204101Y-87763357D01*
X117200218Y-87754230D01*
X117137854Y-87607668D01*
X117137853Y-87607667D01*
X117136125Y-87603605D01*
X117033222Y-87463775D01*
X117029864Y-87460922D01*
X117029861Y-87460919D01*
X116904277Y-87354228D01*
X116900911Y-87351368D01*
X116746289Y-87272414D01*
X116577652Y-87231149D01*
X116574269Y-87230939D01*
X116574268Y-87230939D01*
X116567872Y-87230542D01*
X116567863Y-87230542D01*
X116566707Y-87230470D01*
X116441522Y-87230470D01*
X116312555Y-87245506D01*
X116149360Y-87304743D01*
X116145665Y-87307165D01*
X116145664Y-87307166D01*
X116100965Y-87336472D01*
X116050362Y-87348387D01*
X116003939Y-87324988D01*
X115983295Y-87272914D01*
X115983295Y-87269931D01*
X115984231Y-87264021D01*
X115981299Y-87245506D01*
X115967366Y-87157540D01*
X115965425Y-87145287D01*
X115910849Y-87038176D01*
X115872141Y-86999468D01*
X120817775Y-86999468D01*
X120818523Y-87003820D01*
X120818523Y-87003824D01*
X120834063Y-87094262D01*
X120847126Y-87170282D01*
X120848854Y-87174344D01*
X120848855Y-87174346D01*
X120913257Y-87325699D01*
X120914986Y-87329762D01*
X120953984Y-87382755D01*
X121008466Y-87456787D01*
X121017713Y-87469353D01*
X121021077Y-87472211D01*
X121028074Y-87478155D01*
X121149799Y-87581568D01*
X121153732Y-87583576D01*
X121153733Y-87583577D01*
X121185990Y-87600048D01*
X121304157Y-87660387D01*
X121472507Y-87701582D01*
X121475890Y-87701792D01*
X121475891Y-87701792D01*
X121482271Y-87702188D01*
X121482280Y-87702188D01*
X121483436Y-87702260D01*
X121608400Y-87702260D01*
X121737151Y-87687249D01*
X121900067Y-87628113D01*
X121943228Y-87599816D01*
X122041316Y-87535507D01*
X122041317Y-87535506D01*
X122045010Y-87533085D01*
X122104027Y-87470785D01*
X122161167Y-87410466D01*
X122164203Y-87407261D01*
X122224626Y-87303235D01*
X122249036Y-87261211D01*
X122249037Y-87261209D01*
X122251254Y-87257392D01*
X122252534Y-87253166D01*
X122300213Y-87095743D01*
X122300213Y-87095741D01*
X122301493Y-87091516D01*
X122302140Y-87081102D01*
X122308451Y-86979362D01*
X122312225Y-86918532D01*
X122309768Y-86904230D01*
X122285095Y-86760644D01*
X122282874Y-86747718D01*
X122276504Y-86732746D01*
X122216743Y-86592301D01*
X122216742Y-86592300D01*
X122215014Y-86588238D01*
X122112287Y-86448647D01*
X122088115Y-86428111D01*
X122067796Y-86410849D01*
X121980201Y-86336432D01*
X121956088Y-86324119D01*
X121868683Y-86279488D01*
X121825843Y-86257613D01*
X121657493Y-86216418D01*
X121654110Y-86216208D01*
X121654109Y-86216208D01*
X121647729Y-86215812D01*
X121647720Y-86215812D01*
X121646564Y-86215740D01*
X121521600Y-86215740D01*
X121392849Y-86230751D01*
X121229933Y-86289887D01*
X121226238Y-86292309D01*
X121226237Y-86292310D01*
X121182143Y-86321219D01*
X121084990Y-86384915D01*
X121081953Y-86388121D01*
X120970372Y-86505910D01*
X120965797Y-86510739D01*
X120926476Y-86578435D01*
X120884908Y-86650000D01*
X120878746Y-86660608D01*
X120877466Y-86664833D01*
X120877466Y-86664834D01*
X120831190Y-86817627D01*
X120828507Y-86826484D01*
X120828234Y-86830889D01*
X120828233Y-86830893D01*
X120823843Y-86901653D01*
X120817775Y-86999468D01*
X115872141Y-86999468D01*
X115825845Y-86953172D01*
X115718734Y-86898596D01*
X115621353Y-86883172D01*
X115605910Y-86880726D01*
X115600000Y-86879790D01*
X115594090Y-86880726D01*
X115578647Y-86883172D01*
X115481266Y-86898596D01*
X115374155Y-86953172D01*
X115289151Y-87038176D01*
X115234575Y-87145287D01*
X115232634Y-87157540D01*
X115218702Y-87245506D01*
X115215769Y-87264021D01*
X100920613Y-87264021D01*
X100917680Y-87245506D01*
X100915425Y-87231266D01*
X100860849Y-87124155D01*
X100775845Y-87039151D01*
X100668734Y-86984575D01*
X100550000Y-86965769D01*
X100431266Y-86984575D01*
X100324155Y-87039151D01*
X100239151Y-87124155D01*
X100184575Y-87231266D01*
X100182320Y-87245506D01*
X100173224Y-87302935D01*
X100165769Y-87350000D01*
X89792513Y-87350000D01*
X89798549Y-87314119D01*
X89799037Y-87311219D01*
X89799174Y-87300000D01*
X89796253Y-87279604D01*
X89781486Y-87176485D01*
X89781485Y-87176482D01*
X89780718Y-87171125D01*
X89770435Y-87148508D01*
X89729074Y-87057540D01*
X89729072Y-87057538D01*
X89726832Y-87052610D01*
X89641850Y-86953983D01*
X89637308Y-86951039D01*
X89634816Y-86948865D01*
X89609691Y-86903352D01*
X89619699Y-86852338D01*
X89650271Y-86823879D01*
X89675845Y-86810849D01*
X89760849Y-86725845D01*
X89799494Y-86650000D01*
X90615769Y-86650000D01*
X90616705Y-86655910D01*
X90621445Y-86685837D01*
X90634575Y-86768734D01*
X90689151Y-86875845D01*
X90774155Y-86960849D01*
X90881266Y-87015425D01*
X91000000Y-87034231D01*
X91118734Y-87015425D01*
X91225845Y-86960849D01*
X91310849Y-86875845D01*
X91365425Y-86768734D01*
X91378555Y-86685837D01*
X91383295Y-86655910D01*
X91384231Y-86650000D01*
X91365425Y-86531266D01*
X91310849Y-86424155D01*
X91225845Y-86339151D01*
X91118734Y-86284575D01*
X91000000Y-86265769D01*
X90881266Y-86284575D01*
X90774155Y-86339151D01*
X90689151Y-86424155D01*
X90634575Y-86531266D01*
X90615769Y-86650000D01*
X89799494Y-86650000D01*
X89815425Y-86618734D01*
X89832530Y-86510739D01*
X89833295Y-86505910D01*
X89834231Y-86500000D01*
X89826777Y-86452935D01*
X89816361Y-86387176D01*
X89815425Y-86381266D01*
X89760849Y-86274155D01*
X89675845Y-86189151D01*
X89650928Y-86176455D01*
X89615475Y-86138434D01*
X89613461Y-86100000D01*
X93435769Y-86100000D01*
X93436705Y-86105910D01*
X93440169Y-86127778D01*
X93454575Y-86218734D01*
X93509151Y-86325845D01*
X93594155Y-86410849D01*
X93701266Y-86465425D01*
X93820000Y-86484231D01*
X93938734Y-86465425D01*
X94045845Y-86410849D01*
X94130849Y-86325845D01*
X94185425Y-86218734D01*
X94189027Y-86195990D01*
X102561946Y-86195990D01*
X102562882Y-86201900D01*
X102565309Y-86217224D01*
X102580752Y-86314724D01*
X102635328Y-86421835D01*
X102720332Y-86506839D01*
X102827443Y-86561415D01*
X102833353Y-86562351D01*
X102934901Y-86578435D01*
X102946177Y-86580221D01*
X102957454Y-86578435D01*
X103059001Y-86562351D01*
X103064911Y-86561415D01*
X103172022Y-86506839D01*
X103234471Y-86444390D01*
X112040860Y-86444390D01*
X112057741Y-86573481D01*
X112110174Y-86692645D01*
X112193946Y-86792303D01*
X112302320Y-86864444D01*
X112307488Y-86866059D01*
X112307491Y-86866060D01*
X112421420Y-86901653D01*
X112421422Y-86901653D01*
X112426587Y-86903267D01*
X112491671Y-86904460D01*
X112551343Y-86905554D01*
X112551344Y-86905554D01*
X112556755Y-86905653D01*
X112561973Y-86904230D01*
X112561976Y-86904230D01*
X112651619Y-86879790D01*
X112682360Y-86871409D01*
X112686972Y-86868577D01*
X112686975Y-86868576D01*
X112749373Y-86830263D01*
X112793306Y-86803288D01*
X112880672Y-86706767D01*
X112883034Y-86701892D01*
X112883036Y-86701889D01*
X112925611Y-86614012D01*
X119265769Y-86614012D01*
X119284575Y-86732746D01*
X119339151Y-86839857D01*
X119424155Y-86924861D01*
X119531266Y-86979437D01*
X119580860Y-86987292D01*
X119626419Y-86994508D01*
X119650000Y-86998243D01*
X119673582Y-86994508D01*
X119719140Y-86987292D01*
X119768734Y-86979437D01*
X119875845Y-86924861D01*
X119960849Y-86839857D01*
X120015425Y-86732746D01*
X120034231Y-86614012D01*
X120015425Y-86495278D01*
X119960849Y-86388167D01*
X119875845Y-86303163D01*
X119789628Y-86259233D01*
X119754173Y-86221212D01*
X119751452Y-86169297D01*
X119782739Y-86127778D01*
X119807196Y-86118390D01*
X119807137Y-86118209D01*
X119810595Y-86117086D01*
X119812242Y-86116453D01*
X119818734Y-86115425D01*
X119925845Y-86060849D01*
X120010849Y-85975845D01*
X120065425Y-85868734D01*
X120084231Y-85750000D01*
X120082303Y-85737824D01*
X120066361Y-85637176D01*
X120065425Y-85631266D01*
X120062232Y-85625000D01*
X120265769Y-85625000D01*
X120266705Y-85630910D01*
X120269363Y-85647692D01*
X120284575Y-85743734D01*
X120339151Y-85850845D01*
X120424155Y-85935849D01*
X120531266Y-85990425D01*
X120565644Y-85995870D01*
X120615307Y-86003736D01*
X120650000Y-86009231D01*
X120684694Y-86003736D01*
X120734356Y-85995870D01*
X120768734Y-85990425D01*
X120875845Y-85935849D01*
X120960849Y-85850845D01*
X121015425Y-85743734D01*
X121027200Y-85669390D01*
X122940860Y-85669390D01*
X122957741Y-85798481D01*
X123010174Y-85917645D01*
X123093946Y-86017303D01*
X123202320Y-86089444D01*
X123207488Y-86091059D01*
X123207491Y-86091060D01*
X123321420Y-86126653D01*
X123321422Y-86126653D01*
X123326587Y-86128267D01*
X123391671Y-86129460D01*
X123451343Y-86130554D01*
X123451344Y-86130554D01*
X123456755Y-86130653D01*
X123461973Y-86129230D01*
X123461976Y-86129230D01*
X123551659Y-86104779D01*
X123582360Y-86096409D01*
X123586972Y-86093577D01*
X123586975Y-86093576D01*
X123680558Y-86036115D01*
X123693306Y-86028288D01*
X123780672Y-85931767D01*
X123783034Y-85926892D01*
X123783036Y-85926889D01*
X123830157Y-85829629D01*
X123837437Y-85814604D01*
X123841008Y-85793382D01*
X123854065Y-85715769D01*
X123859037Y-85686219D01*
X123859174Y-85675000D01*
X123858758Y-85672093D01*
X123841486Y-85551485D01*
X123841485Y-85551482D01*
X123840718Y-85546125D01*
X123834969Y-85533481D01*
X123789074Y-85432540D01*
X123789072Y-85432538D01*
X123786832Y-85427610D01*
X123701850Y-85328983D01*
X123666789Y-85306258D01*
X123597142Y-85261115D01*
X123597140Y-85261114D01*
X123592601Y-85258172D01*
X123467870Y-85220870D01*
X123412531Y-85220532D01*
X123343098Y-85220107D01*
X123343097Y-85220107D01*
X123337683Y-85220074D01*
X123212505Y-85255850D01*
X123102400Y-85325321D01*
X123098816Y-85329379D01*
X123077719Y-85353267D01*
X123016219Y-85422903D01*
X123013919Y-85427802D01*
X123013917Y-85427805D01*
X122991760Y-85475000D01*
X122960890Y-85540751D01*
X122940860Y-85669390D01*
X121027200Y-85669390D01*
X121030637Y-85647692D01*
X121033295Y-85630910D01*
X121034231Y-85625000D01*
X121015425Y-85506266D01*
X120960849Y-85399155D01*
X120875845Y-85314151D01*
X120768734Y-85259575D01*
X120676233Y-85244924D01*
X120655910Y-85241705D01*
X120650000Y-85240769D01*
X120644090Y-85241705D01*
X120623767Y-85244924D01*
X120531266Y-85259575D01*
X120424155Y-85314151D01*
X120339151Y-85399155D01*
X120284575Y-85506266D01*
X120265769Y-85625000D01*
X120062232Y-85625000D01*
X120010849Y-85524155D01*
X119925845Y-85439151D01*
X119818734Y-85384575D01*
X119759367Y-85375172D01*
X119705910Y-85366705D01*
X119700000Y-85365769D01*
X119694090Y-85366705D01*
X119640633Y-85375172D01*
X119581266Y-85384575D01*
X119474155Y-85439151D01*
X119389151Y-85524155D01*
X119334575Y-85631266D01*
X119333639Y-85637176D01*
X119317698Y-85737824D01*
X119315769Y-85750000D01*
X119334575Y-85868734D01*
X119389151Y-85975845D01*
X119474155Y-86060849D01*
X119524384Y-86086442D01*
X119560372Y-86104779D01*
X119595827Y-86142800D01*
X119598548Y-86194715D01*
X119567261Y-86236234D01*
X119542804Y-86245622D01*
X119542863Y-86245803D01*
X119539405Y-86246926D01*
X119537758Y-86247559D01*
X119531266Y-86248587D01*
X119424155Y-86303163D01*
X119339151Y-86388167D01*
X119284575Y-86495278D01*
X119265769Y-86614012D01*
X112925611Y-86614012D01*
X112935074Y-86594481D01*
X112937437Y-86589604D01*
X112944489Y-86547692D01*
X112958549Y-86464119D01*
X112959037Y-86461219D01*
X112959174Y-86450000D01*
X112958371Y-86444390D01*
X112941486Y-86326485D01*
X112941485Y-86326482D01*
X112940718Y-86321125D01*
X112935550Y-86309759D01*
X112889074Y-86207540D01*
X112889072Y-86207538D01*
X112886832Y-86202610D01*
X112801850Y-86103983D01*
X112768607Y-86082436D01*
X112697142Y-86036115D01*
X112697140Y-86036114D01*
X112692601Y-86033172D01*
X112609417Y-86008295D01*
X112573053Y-85997420D01*
X112567870Y-85995870D01*
X112512531Y-85995532D01*
X112443098Y-85995107D01*
X112443097Y-85995107D01*
X112437683Y-85995074D01*
X112359905Y-86017303D01*
X112335511Y-86024275D01*
X112312505Y-86030850D01*
X112202400Y-86100321D01*
X112198816Y-86104379D01*
X112178151Y-86127778D01*
X112116219Y-86197903D01*
X112113919Y-86202802D01*
X112113917Y-86202805D01*
X112088678Y-86256563D01*
X112060890Y-86315751D01*
X112040860Y-86444390D01*
X103234471Y-86444390D01*
X103257026Y-86421835D01*
X103311602Y-86314724D01*
X103327045Y-86217224D01*
X103329472Y-86201900D01*
X103330408Y-86195990D01*
X103323837Y-86154500D01*
X103314636Y-86096409D01*
X103311602Y-86077256D01*
X103257026Y-85970145D01*
X103172022Y-85885141D01*
X103064911Y-85830565D01*
X102994931Y-85819481D01*
X102952087Y-85812695D01*
X102946177Y-85811759D01*
X102940267Y-85812695D01*
X102897423Y-85819481D01*
X102827443Y-85830565D01*
X102720332Y-85885141D01*
X102635328Y-85970145D01*
X102580752Y-86077256D01*
X102577718Y-86096409D01*
X102568518Y-86154500D01*
X102561946Y-86195990D01*
X94189027Y-86195990D01*
X94199831Y-86127778D01*
X94203295Y-86105910D01*
X94204231Y-86100000D01*
X94185425Y-85981266D01*
X94130849Y-85874155D01*
X94045845Y-85789151D01*
X93938734Y-85734575D01*
X93820000Y-85715769D01*
X93701266Y-85734575D01*
X93594155Y-85789151D01*
X93509151Y-85874155D01*
X93454575Y-85981266D01*
X93435769Y-86100000D01*
X89613461Y-86100000D01*
X89612755Y-86086518D01*
X89631694Y-86055000D01*
X89710849Y-85975845D01*
X89765425Y-85868734D01*
X89784231Y-85750000D01*
X89782303Y-85737824D01*
X89766361Y-85637176D01*
X89765425Y-85631266D01*
X89710849Y-85524155D01*
X89661694Y-85475000D01*
X90325769Y-85475000D01*
X90326705Y-85480910D01*
X90333417Y-85523285D01*
X90344575Y-85593734D01*
X90399151Y-85700845D01*
X90484155Y-85785849D01*
X90591266Y-85840425D01*
X90710000Y-85859231D01*
X90828734Y-85840425D01*
X90935845Y-85785849D01*
X91020849Y-85700845D01*
X91075425Y-85593734D01*
X91086583Y-85523285D01*
X91093295Y-85480910D01*
X91094231Y-85475000D01*
X91075425Y-85356266D01*
X91020849Y-85249155D01*
X90935845Y-85164151D01*
X90828734Y-85109575D01*
X90769367Y-85100172D01*
X90715910Y-85091705D01*
X90710000Y-85090769D01*
X90704090Y-85091705D01*
X90650633Y-85100172D01*
X90591266Y-85109575D01*
X90484155Y-85164151D01*
X90399151Y-85249155D01*
X90344575Y-85356266D01*
X90325769Y-85475000D01*
X89661694Y-85475000D01*
X89625845Y-85439151D01*
X89518734Y-85384575D01*
X89459367Y-85375172D01*
X89405910Y-85366705D01*
X89400000Y-85365769D01*
X89394090Y-85366705D01*
X89340633Y-85375172D01*
X89281266Y-85384575D01*
X89174155Y-85439151D01*
X89089151Y-85524155D01*
X89034575Y-85631266D01*
X89033639Y-85637176D01*
X89017698Y-85737824D01*
X89015769Y-85750000D01*
X89034575Y-85868734D01*
X89089151Y-85975845D01*
X89174155Y-86060849D01*
X89199072Y-86073545D01*
X89234525Y-86111566D01*
X89237245Y-86163482D01*
X89218306Y-86195000D01*
X89139151Y-86274155D01*
X89084575Y-86381266D01*
X89083639Y-86387176D01*
X89073224Y-86452935D01*
X89065769Y-86500000D01*
X89066705Y-86505910D01*
X89067470Y-86510739D01*
X89084575Y-86618734D01*
X89139151Y-86725845D01*
X89172911Y-86759605D01*
X89194882Y-86806721D01*
X89181427Y-86856937D01*
X89152493Y-86880830D01*
X89152505Y-86880850D01*
X89147926Y-86883739D01*
X89147924Y-86883740D01*
X89072167Y-86931539D01*
X89042400Y-86950321D01*
X89038816Y-86954379D01*
X89023944Y-86971219D01*
X88956219Y-87047903D01*
X88953919Y-87052802D01*
X88953917Y-87052805D01*
X88929656Y-87104481D01*
X88900890Y-87165751D01*
X88880860Y-87294390D01*
X87020412Y-87294390D01*
X87090672Y-87216767D01*
X87093034Y-87211892D01*
X87093036Y-87211889D01*
X87145074Y-87104481D01*
X87147437Y-87099604D01*
X87155113Y-87053983D01*
X87168549Y-86974119D01*
X87169037Y-86971219D01*
X87169174Y-86960000D01*
X87168369Y-86954379D01*
X87151486Y-86836485D01*
X87151485Y-86836482D01*
X87150718Y-86831125D01*
X87144581Y-86817627D01*
X87099074Y-86717540D01*
X87099072Y-86717538D01*
X87096832Y-86712610D01*
X87011850Y-86613983D01*
X86981762Y-86594481D01*
X86907142Y-86546115D01*
X86907140Y-86546114D01*
X86902601Y-86543172D01*
X86777870Y-86505870D01*
X86722531Y-86505532D01*
X86653098Y-86505107D01*
X86653097Y-86505107D01*
X86647683Y-86505074D01*
X86522505Y-86540850D01*
X86412400Y-86610321D01*
X86326219Y-86707903D01*
X86323919Y-86712802D01*
X86323917Y-86712805D01*
X86317330Y-86726836D01*
X86302041Y-86759402D01*
X86291918Y-86780963D01*
X86255062Y-86817627D01*
X86203261Y-86822023D01*
X86169972Y-86801062D01*
X86169465Y-86801644D01*
X86165752Y-86798405D01*
X86165552Y-86798279D01*
X86165384Y-86798084D01*
X86165383Y-86798083D01*
X86161850Y-86793983D01*
X86151743Y-86787432D01*
X86057142Y-86726115D01*
X86057140Y-86726114D01*
X86052601Y-86723172D01*
X85964374Y-86696787D01*
X85933053Y-86687420D01*
X85927870Y-86685870D01*
X85872531Y-86685532D01*
X85803098Y-86685107D01*
X85803097Y-86685107D01*
X85797683Y-86685074D01*
X85672505Y-86720850D01*
X85562400Y-86790321D01*
X85558816Y-86794379D01*
X85476310Y-86887800D01*
X85430644Y-86912646D01*
X85379692Y-86902326D01*
X85361770Y-86887101D01*
X85345383Y-86868083D01*
X85345382Y-86868082D01*
X85341850Y-86863983D01*
X85279762Y-86823740D01*
X85248439Y-86782249D01*
X85251115Y-86730331D01*
X85281332Y-86695200D01*
X85333306Y-86663288D01*
X85420672Y-86566767D01*
X85423034Y-86561892D01*
X85423036Y-86561889D01*
X85469772Y-86465425D01*
X85477437Y-86449604D01*
X85480822Y-86429488D01*
X85496477Y-86336434D01*
X85499037Y-86321219D01*
X85499174Y-86310000D01*
X85495399Y-86283639D01*
X85481486Y-86186485D01*
X85481485Y-86186482D01*
X85480718Y-86181125D01*
X85461604Y-86139086D01*
X85429074Y-86067540D01*
X85429072Y-86067538D01*
X85426832Y-86062610D01*
X85341850Y-85963983D01*
X85279762Y-85923740D01*
X85248439Y-85882249D01*
X85251115Y-85830331D01*
X85281332Y-85795200D01*
X85333306Y-85763288D01*
X85420672Y-85666767D01*
X85423034Y-85661892D01*
X85423036Y-85661889D01*
X85475074Y-85554481D01*
X85477437Y-85549604D01*
X85478927Y-85540751D01*
X85498549Y-85424119D01*
X85499037Y-85421219D01*
X85499174Y-85410000D01*
X85498758Y-85407093D01*
X85481486Y-85286485D01*
X85481485Y-85286482D01*
X85480718Y-85281125D01*
X85468607Y-85254488D01*
X85429074Y-85167540D01*
X85429072Y-85167538D01*
X85426832Y-85162610D01*
X85341850Y-85063983D01*
X85279762Y-85023740D01*
X85248439Y-84982249D01*
X85251115Y-84930331D01*
X85281332Y-84895200D01*
X85333306Y-84863288D01*
X85420672Y-84766767D01*
X85423034Y-84761892D01*
X85423036Y-84761889D01*
X85475074Y-84654481D01*
X85477437Y-84649604D01*
X85485113Y-84603983D01*
X85494907Y-84545765D01*
X85498401Y-84525000D01*
X90325769Y-84525000D01*
X90326705Y-84530910D01*
X90330360Y-84553983D01*
X90344575Y-84643734D01*
X90399151Y-84750845D01*
X90484155Y-84835849D01*
X90591266Y-84890425D01*
X90597176Y-84891361D01*
X90687025Y-84905592D01*
X90710000Y-84909231D01*
X90732976Y-84905592D01*
X90822824Y-84891361D01*
X90828734Y-84890425D01*
X90935845Y-84835849D01*
X91020849Y-84750845D01*
X91039425Y-84714388D01*
X101770860Y-84714388D01*
X101787741Y-84843479D01*
X101840174Y-84962643D01*
X101923946Y-85062301D01*
X102032320Y-85134442D01*
X102037488Y-85136057D01*
X102037491Y-85136058D01*
X102151420Y-85171651D01*
X102151422Y-85171651D01*
X102156587Y-85173265D01*
X102221671Y-85174458D01*
X102281343Y-85175552D01*
X102281344Y-85175552D01*
X102286755Y-85175651D01*
X102291973Y-85174228D01*
X102291976Y-85174228D01*
X102386464Y-85148467D01*
X102412360Y-85141407D01*
X102416972Y-85138575D01*
X102416975Y-85138574D01*
X102488905Y-85094408D01*
X102523306Y-85073286D01*
X102610672Y-84976765D01*
X102613034Y-84971890D01*
X102613036Y-84971887D01*
X102626358Y-84944390D01*
X116540860Y-84944390D01*
X116541562Y-84949758D01*
X116541562Y-84949759D01*
X116543247Y-84962643D01*
X116557741Y-85073481D01*
X116610174Y-85192645D01*
X116693946Y-85292303D01*
X116802320Y-85364444D01*
X116807488Y-85366059D01*
X116807491Y-85366060D01*
X116921420Y-85401653D01*
X116921422Y-85401653D01*
X116926587Y-85403267D01*
X116991671Y-85404460D01*
X117051343Y-85405554D01*
X117051344Y-85405554D01*
X117056755Y-85405653D01*
X117061973Y-85404230D01*
X117061976Y-85404230D01*
X117137501Y-85383639D01*
X117182360Y-85371409D01*
X117186972Y-85368577D01*
X117186975Y-85368576D01*
X117268723Y-85318382D01*
X117293306Y-85303288D01*
X117380672Y-85206767D01*
X117396606Y-85173879D01*
X117433905Y-85137669D01*
X117485756Y-85133906D01*
X117523176Y-85158114D01*
X117590457Y-85238154D01*
X117590463Y-85238159D01*
X117593946Y-85242303D01*
X117702320Y-85314444D01*
X117707488Y-85316059D01*
X117707491Y-85316060D01*
X117821420Y-85351653D01*
X117821422Y-85351653D01*
X117826587Y-85353267D01*
X117891671Y-85354460D01*
X117951343Y-85355554D01*
X117951344Y-85355554D01*
X117956755Y-85355653D01*
X117961973Y-85354230D01*
X117961976Y-85354230D01*
X118041528Y-85332541D01*
X118082360Y-85321409D01*
X118086972Y-85318577D01*
X118086975Y-85318576D01*
X118164705Y-85270849D01*
X118193306Y-85253288D01*
X118196937Y-85249276D01*
X118201108Y-85245814D01*
X118202348Y-85247308D01*
X118241354Y-85226691D01*
X118293858Y-85238712D01*
X118309431Y-85249078D01*
X118389122Y-85302126D01*
X118394290Y-85303741D01*
X118394293Y-85303742D01*
X118508222Y-85339335D01*
X118508224Y-85339335D01*
X118513389Y-85340949D01*
X118578473Y-85342142D01*
X118638145Y-85343236D01*
X118638146Y-85343236D01*
X118643557Y-85343335D01*
X118648775Y-85341912D01*
X118648778Y-85341912D01*
X118723980Y-85321409D01*
X118769162Y-85309091D01*
X118773774Y-85306259D01*
X118773777Y-85306258D01*
X118845382Y-85262292D01*
X118880108Y-85240970D01*
X118945795Y-85168400D01*
X139840860Y-85168400D01*
X139857741Y-85297491D01*
X139910174Y-85416655D01*
X139993946Y-85516313D01*
X140102320Y-85588454D01*
X140107488Y-85590069D01*
X140107491Y-85590070D01*
X140221420Y-85625663D01*
X140221422Y-85625663D01*
X140226587Y-85627277D01*
X140291671Y-85628470D01*
X140351343Y-85629564D01*
X140351344Y-85629564D01*
X140356755Y-85629663D01*
X140361973Y-85628240D01*
X140361976Y-85628240D01*
X140435787Y-85608116D01*
X140482360Y-85595419D01*
X140486972Y-85592587D01*
X140486975Y-85592586D01*
X140562643Y-85546125D01*
X140593306Y-85527298D01*
X140680672Y-85430777D01*
X140683034Y-85425902D01*
X140683036Y-85425899D01*
X140735074Y-85318491D01*
X140737437Y-85313614D01*
X140739175Y-85303288D01*
X140755413Y-85206767D01*
X140759037Y-85185229D01*
X140759174Y-85174010D01*
X140758368Y-85168382D01*
X140747282Y-85090969D01*
X149094128Y-85090969D01*
X149094719Y-85094408D01*
X149127724Y-85286485D01*
X149130061Y-85300087D01*
X149203501Y-85499154D01*
X149311988Y-85681505D01*
X149314280Y-85684118D01*
X149314281Y-85684120D01*
X149366874Y-85744090D01*
X149451890Y-85841032D01*
X149454630Y-85843192D01*
X149454631Y-85843193D01*
X149615783Y-85970236D01*
X149615788Y-85970239D01*
X149618520Y-85972393D01*
X149806299Y-86071188D01*
X150008938Y-86134109D01*
X150012395Y-86134518D01*
X150012399Y-86134519D01*
X150178991Y-86154237D01*
X150178997Y-86154237D01*
X150181216Y-86154500D01*
X151303827Y-86154500D01*
X151305554Y-86154341D01*
X151305561Y-86154341D01*
X151457823Y-86140350D01*
X151457826Y-86140350D01*
X151461292Y-86140031D01*
X151665508Y-86082436D01*
X151855809Y-85988590D01*
X151872758Y-85975934D01*
X151931904Y-85931767D01*
X152025821Y-85861636D01*
X152169850Y-85705826D01*
X152283074Y-85526377D01*
X152361700Y-85329300D01*
X152362380Y-85325882D01*
X152402415Y-85124610D01*
X152402415Y-85124607D01*
X152403094Y-85121195D01*
X152403259Y-85108639D01*
X152404913Y-84982249D01*
X152405872Y-84909031D01*
X152391318Y-84824331D01*
X152370529Y-84703344D01*
X152370528Y-84703339D01*
X152369939Y-84699913D01*
X152296499Y-84500846D01*
X152188012Y-84318495D01*
X152177154Y-84306113D01*
X152085721Y-84201855D01*
X152048110Y-84158968D01*
X152021974Y-84138364D01*
X151884217Y-84029764D01*
X151884212Y-84029761D01*
X151881480Y-84027607D01*
X151803538Y-83986600D01*
X158246000Y-83986600D01*
X158249736Y-83996865D01*
X158255166Y-84000000D01*
X159986600Y-84000000D01*
X159996865Y-83996264D01*
X160000000Y-83990834D01*
X160000000Y-82779401D01*
X159996264Y-82769136D01*
X159990834Y-82766001D01*
X158478717Y-82766001D01*
X158471323Y-82766729D01*
X158408235Y-82779277D01*
X158394671Y-82784895D01*
X158323099Y-82832718D01*
X158312718Y-82843099D01*
X158264896Y-82914670D01*
X158259277Y-82928235D01*
X158246728Y-82991325D01*
X158246000Y-82998714D01*
X158246000Y-83986600D01*
X151803538Y-83986600D01*
X151693701Y-83928812D01*
X151491062Y-83865891D01*
X151487605Y-83865482D01*
X151487601Y-83865481D01*
X151321009Y-83845763D01*
X151321003Y-83845763D01*
X151318784Y-83845500D01*
X150196173Y-83845500D01*
X150194446Y-83845659D01*
X150194439Y-83845659D01*
X150042177Y-83859650D01*
X150042174Y-83859650D01*
X150038708Y-83859969D01*
X149834492Y-83917564D01*
X149831372Y-83919103D01*
X149831371Y-83919103D01*
X149736407Y-83965934D01*
X149644191Y-84011410D01*
X149474179Y-84138364D01*
X149330150Y-84294174D01*
X149216926Y-84473623D01*
X149138300Y-84670700D01*
X149137620Y-84674117D01*
X149137620Y-84674118D01*
X149099756Y-84864479D01*
X149096906Y-84878805D01*
X149096860Y-84882287D01*
X149096860Y-84882291D01*
X149096308Y-84924444D01*
X149094128Y-85090969D01*
X140747282Y-85090969D01*
X140741486Y-85050495D01*
X140741485Y-85050492D01*
X140740718Y-85045135D01*
X140734820Y-85032163D01*
X140689074Y-84931550D01*
X140689072Y-84931548D01*
X140686832Y-84926620D01*
X140601850Y-84827993D01*
X140507389Y-84766767D01*
X140497142Y-84760125D01*
X140497140Y-84760124D01*
X140492601Y-84757182D01*
X140367870Y-84719880D01*
X140312531Y-84719542D01*
X140243098Y-84719117D01*
X140243097Y-84719117D01*
X140237683Y-84719084D01*
X140112505Y-84754860D01*
X140002400Y-84824331D01*
X139916219Y-84921913D01*
X139913919Y-84926812D01*
X139913917Y-84926815D01*
X139911694Y-84931550D01*
X139860890Y-85039761D01*
X139840860Y-85168400D01*
X118945795Y-85168400D01*
X118967474Y-85144449D01*
X118969836Y-85139574D01*
X118969838Y-85139571D01*
X119021876Y-85032163D01*
X119024239Y-85027286D01*
X119029979Y-84993172D01*
X119042650Y-84917854D01*
X119045839Y-84898901D01*
X119045976Y-84887682D01*
X119041908Y-84859275D01*
X119028288Y-84764167D01*
X119028287Y-84764164D01*
X119027520Y-84758807D01*
X119016294Y-84734117D01*
X118975876Y-84645222D01*
X118975874Y-84645220D01*
X118973634Y-84640292D01*
X118888652Y-84541665D01*
X118880089Y-84536115D01*
X118783944Y-84473797D01*
X118783942Y-84473796D01*
X118779403Y-84470854D01*
X118695751Y-84445837D01*
X118659855Y-84435102D01*
X118654672Y-84433552D01*
X118599333Y-84433214D01*
X118529900Y-84432789D01*
X118529899Y-84432789D01*
X118524485Y-84432756D01*
X118399307Y-84468532D01*
X118357188Y-84495107D01*
X118296859Y-84533172D01*
X118289202Y-84538003D01*
X118285618Y-84542061D01*
X118284550Y-84542970D01*
X118235824Y-84561090D01*
X118193957Y-84548867D01*
X118097142Y-84486115D01*
X118097140Y-84486114D01*
X118092601Y-84483172D01*
X117967870Y-84445870D01*
X117912531Y-84445532D01*
X117843098Y-84445107D01*
X117843097Y-84445107D01*
X117837683Y-84445074D01*
X117772015Y-84463842D01*
X117726438Y-84476868D01*
X117712505Y-84480850D01*
X117602400Y-84550321D01*
X117598816Y-84554379D01*
X117572487Y-84584191D01*
X117516219Y-84647903D01*
X117513917Y-84652806D01*
X117503790Y-84674376D01*
X117466934Y-84711040D01*
X117415133Y-84715436D01*
X117377420Y-84691687D01*
X117362282Y-84674118D01*
X117301850Y-84603983D01*
X117207718Y-84542970D01*
X117197142Y-84536115D01*
X117197140Y-84536114D01*
X117192601Y-84533172D01*
X117067870Y-84495870D01*
X117012531Y-84495532D01*
X116943098Y-84495107D01*
X116943097Y-84495107D01*
X116937683Y-84495074D01*
X116812505Y-84530850D01*
X116702400Y-84600321D01*
X116616219Y-84697903D01*
X116613919Y-84702802D01*
X116613917Y-84702805D01*
X116593867Y-84745512D01*
X116560890Y-84815751D01*
X116540860Y-84944390D01*
X102626358Y-84944390D01*
X102665074Y-84864479D01*
X102667437Y-84859602D01*
X102669363Y-84848158D01*
X102688549Y-84734117D01*
X102689037Y-84731217D01*
X102689174Y-84719998D01*
X102686010Y-84697903D01*
X102671486Y-84596483D01*
X102671485Y-84596480D01*
X102670718Y-84591123D01*
X102657063Y-84561090D01*
X102619074Y-84477538D01*
X102619072Y-84477536D01*
X102616832Y-84472608D01*
X102531850Y-84373981D01*
X102521743Y-84367430D01*
X102427142Y-84306113D01*
X102427140Y-84306112D01*
X102422601Y-84303170D01*
X102297870Y-84265868D01*
X102242531Y-84265530D01*
X102173098Y-84265105D01*
X102173097Y-84265105D01*
X102167683Y-84265072D01*
X102159048Y-84267540D01*
X102048429Y-84299155D01*
X102042505Y-84300848D01*
X101932400Y-84370319D01*
X101928816Y-84374377D01*
X101921431Y-84382739D01*
X101846219Y-84467901D01*
X101843919Y-84472800D01*
X101843917Y-84472803D01*
X101826567Y-84509759D01*
X101790890Y-84585749D01*
X101770860Y-84714388D01*
X91039425Y-84714388D01*
X91075425Y-84643734D01*
X91089640Y-84553983D01*
X91093295Y-84530910D01*
X91094231Y-84525000D01*
X91086608Y-84476868D01*
X91079992Y-84435102D01*
X91075425Y-84406266D01*
X91020849Y-84299155D01*
X90935845Y-84214151D01*
X90828734Y-84159575D01*
X90710000Y-84140769D01*
X90591266Y-84159575D01*
X90484155Y-84214151D01*
X90399151Y-84299155D01*
X90344575Y-84406266D01*
X90340008Y-84435102D01*
X90333393Y-84476868D01*
X90325769Y-84525000D01*
X85498401Y-84525000D01*
X85499037Y-84521219D01*
X85499174Y-84510000D01*
X85497435Y-84497856D01*
X85481486Y-84386485D01*
X85481485Y-84386482D01*
X85480718Y-84381125D01*
X85453055Y-84320283D01*
X85429074Y-84267540D01*
X85429072Y-84267538D01*
X85426832Y-84262610D01*
X85341850Y-84163983D01*
X85279762Y-84123740D01*
X85254290Y-84090000D01*
X94905769Y-84090000D01*
X94906705Y-84095910D01*
X94908722Y-84108644D01*
X94924575Y-84208734D01*
X94979151Y-84315845D01*
X95064155Y-84400849D01*
X95171266Y-84455425D01*
X95177176Y-84456361D01*
X95267524Y-84470671D01*
X95290000Y-84474231D01*
X95312477Y-84470671D01*
X95402824Y-84456361D01*
X95408734Y-84455425D01*
X95515845Y-84400849D01*
X95600849Y-84315845D01*
X95655425Y-84208734D01*
X95671278Y-84108644D01*
X95673295Y-84095910D01*
X95674231Y-84090000D01*
X95655425Y-83971266D01*
X95648947Y-83958553D01*
X122855023Y-83958553D01*
X122855725Y-83963921D01*
X122855725Y-83963922D01*
X122856140Y-83967098D01*
X122871904Y-84087644D01*
X122924337Y-84206808D01*
X123008109Y-84306466D01*
X123116483Y-84378607D01*
X123121651Y-84380222D01*
X123121654Y-84380223D01*
X123235583Y-84415816D01*
X123235585Y-84415816D01*
X123240750Y-84417430D01*
X123305834Y-84418623D01*
X123365506Y-84419717D01*
X123365507Y-84419717D01*
X123370918Y-84419816D01*
X123376136Y-84418393D01*
X123376139Y-84418393D01*
X123456007Y-84396618D01*
X123496523Y-84385572D01*
X123501135Y-84382740D01*
X123501138Y-84382739D01*
X123563536Y-84344426D01*
X123607469Y-84317451D01*
X123694835Y-84220930D01*
X123697197Y-84216055D01*
X123697199Y-84216052D01*
X123749237Y-84108644D01*
X123751600Y-84103767D01*
X123764414Y-84027607D01*
X123772712Y-83978282D01*
X123773200Y-83975382D01*
X123773337Y-83964163D01*
X123772534Y-83958553D01*
X123755649Y-83840648D01*
X123755648Y-83840645D01*
X123754881Y-83835288D01*
X123729357Y-83779151D01*
X123703237Y-83721703D01*
X123703235Y-83721701D01*
X123700995Y-83716773D01*
X123616013Y-83618146D01*
X123585354Y-83598274D01*
X123511305Y-83550278D01*
X123511303Y-83550277D01*
X123506764Y-83547335D01*
X123382033Y-83510033D01*
X123326694Y-83509695D01*
X123257261Y-83509270D01*
X123257260Y-83509270D01*
X123251846Y-83509237D01*
X123126668Y-83545013D01*
X123016563Y-83614484D01*
X122930382Y-83712066D01*
X122928082Y-83716965D01*
X122928080Y-83716968D01*
X122919858Y-83734481D01*
X122875053Y-83829914D01*
X122855023Y-83958553D01*
X95648947Y-83958553D01*
X95600849Y-83864155D01*
X95515845Y-83779151D01*
X95408734Y-83724575D01*
X95290000Y-83705769D01*
X95171266Y-83724575D01*
X95064155Y-83779151D01*
X94979151Y-83864155D01*
X94924575Y-83971266D01*
X94905769Y-84090000D01*
X85254290Y-84090000D01*
X85248439Y-84082249D01*
X85251115Y-84030331D01*
X85281332Y-83995200D01*
X85333306Y-83963288D01*
X85420672Y-83866767D01*
X85421815Y-83864408D01*
X85462936Y-83834531D01*
X85514796Y-83838157D01*
X85542061Y-83858684D01*
X85600457Y-83928154D01*
X85600463Y-83928159D01*
X85603946Y-83932303D01*
X85712320Y-84004444D01*
X85717488Y-84006059D01*
X85717491Y-84006060D01*
X85831420Y-84041653D01*
X85831422Y-84041653D01*
X85836587Y-84043267D01*
X85901671Y-84044460D01*
X85961343Y-84045554D01*
X85961344Y-84045554D01*
X85966755Y-84045653D01*
X85971973Y-84044230D01*
X85971976Y-84044230D01*
X86084712Y-84013494D01*
X86092360Y-84011409D01*
X86096972Y-84008577D01*
X86096975Y-84008576D01*
X86174042Y-83961256D01*
X86203306Y-83943288D01*
X86290672Y-83846767D01*
X86293034Y-83841892D01*
X86293036Y-83841889D01*
X86345074Y-83734481D01*
X86347437Y-83729604D01*
X86348767Y-83721703D01*
X86365499Y-83622246D01*
X86369037Y-83601219D01*
X86369174Y-83590000D01*
X86363532Y-83550604D01*
X86374207Y-83499726D01*
X86415089Y-83467613D01*
X86461426Y-83467289D01*
X86462464Y-83467613D01*
X86571420Y-83501653D01*
X86571422Y-83501653D01*
X86576587Y-83503267D01*
X86641671Y-83504460D01*
X86701343Y-83505554D01*
X86701344Y-83505554D01*
X86706755Y-83505653D01*
X86711973Y-83504230D01*
X86711976Y-83504230D01*
X86796722Y-83481125D01*
X86832360Y-83471409D01*
X86836972Y-83468577D01*
X86836975Y-83468576D01*
X86899373Y-83430263D01*
X86943306Y-83403288D01*
X87030672Y-83306767D01*
X87033034Y-83301892D01*
X87033036Y-83301889D01*
X87077555Y-83210000D01*
X100055769Y-83210000D01*
X100074575Y-83328734D01*
X100129151Y-83435845D01*
X100214155Y-83520849D01*
X100321266Y-83575425D01*
X100327176Y-83576361D01*
X100431818Y-83592935D01*
X100440000Y-83594231D01*
X100448183Y-83592935D01*
X100552824Y-83576361D01*
X100558734Y-83575425D01*
X100665845Y-83520849D01*
X100750849Y-83435845D01*
X100805425Y-83328734D01*
X100824231Y-83210000D01*
X100821161Y-83190614D01*
X100806361Y-83097176D01*
X100805425Y-83091266D01*
X100750849Y-82984155D01*
X100665845Y-82899151D01*
X100558734Y-82844575D01*
X100440000Y-82825769D01*
X100321266Y-82844575D01*
X100214155Y-82899151D01*
X100129151Y-82984155D01*
X100074575Y-83091266D01*
X100073639Y-83097176D01*
X100058840Y-83190614D01*
X100055769Y-83210000D01*
X87077555Y-83210000D01*
X87085074Y-83194481D01*
X87087437Y-83189604D01*
X87088571Y-83182868D01*
X87104327Y-83089215D01*
X87109037Y-83061219D01*
X87109174Y-83050000D01*
X87102280Y-83001861D01*
X87091486Y-82926485D01*
X87091485Y-82926482D01*
X87090718Y-82921125D01*
X87079257Y-82895917D01*
X87039074Y-82807540D01*
X87039072Y-82807538D01*
X87036832Y-82802610D01*
X86972010Y-82727380D01*
X88890860Y-82727380D01*
X88907741Y-82856471D01*
X88960174Y-82975635D01*
X89043946Y-83075293D01*
X89152320Y-83147434D01*
X89157488Y-83149049D01*
X89157491Y-83149050D01*
X89271420Y-83184643D01*
X89271422Y-83184643D01*
X89276587Y-83186257D01*
X89341671Y-83187450D01*
X89401343Y-83188544D01*
X89401344Y-83188544D01*
X89406755Y-83188643D01*
X89411973Y-83187220D01*
X89411976Y-83187220D01*
X89505815Y-83161636D01*
X89532360Y-83154399D01*
X89536972Y-83151567D01*
X89536975Y-83151566D01*
X89599373Y-83113253D01*
X89643306Y-83086278D01*
X89719716Y-83001861D01*
X89765682Y-82977574D01*
X89816504Y-82988516D01*
X89834238Y-83003959D01*
X89890802Y-83071249D01*
X89890808Y-83071254D01*
X89894291Y-83075398D01*
X90002665Y-83147539D01*
X90007833Y-83149154D01*
X90007836Y-83149155D01*
X90121765Y-83184748D01*
X90121767Y-83184748D01*
X90126932Y-83186362D01*
X90192016Y-83187555D01*
X90251688Y-83188649D01*
X90251689Y-83188649D01*
X90257100Y-83188748D01*
X90262318Y-83187325D01*
X90262321Y-83187325D01*
X90356545Y-83161636D01*
X90382705Y-83154504D01*
X90387317Y-83151672D01*
X90387320Y-83151671D01*
X90449718Y-83113358D01*
X90493651Y-83086383D01*
X90581017Y-82989862D01*
X90583379Y-82984987D01*
X90583381Y-82984984D01*
X90635419Y-82877576D01*
X90637782Y-82872699D01*
X90640229Y-82858158D01*
X90658894Y-82747214D01*
X90659382Y-82744314D01*
X90659519Y-82733095D01*
X90655598Y-82705715D01*
X90641831Y-82609580D01*
X90641830Y-82609577D01*
X90641063Y-82604220D01*
X90630551Y-82581101D01*
X90600220Y-82514390D01*
X93610860Y-82514390D01*
X93611562Y-82519758D01*
X93611562Y-82519759D01*
X93612676Y-82528274D01*
X93627741Y-82643481D01*
X93680174Y-82762645D01*
X93763946Y-82862303D01*
X93872320Y-82934444D01*
X93877488Y-82936059D01*
X93877491Y-82936060D01*
X93991420Y-82971653D01*
X93991422Y-82971653D01*
X93996587Y-82973267D01*
X94061671Y-82974460D01*
X94121343Y-82975554D01*
X94121344Y-82975554D01*
X94126755Y-82975653D01*
X94131973Y-82974230D01*
X94131976Y-82974230D01*
X94229314Y-82947692D01*
X94252360Y-82941409D01*
X94256972Y-82938577D01*
X94256975Y-82938576D01*
X94326451Y-82895917D01*
X94363306Y-82873288D01*
X94450672Y-82776767D01*
X94453034Y-82771892D01*
X94453036Y-82771889D01*
X94505074Y-82664481D01*
X94507437Y-82659604D01*
X94509512Y-82647274D01*
X94528549Y-82534119D01*
X94529037Y-82531219D01*
X94529174Y-82520000D01*
X94527241Y-82506501D01*
X94511486Y-82396485D01*
X94511485Y-82396482D01*
X94510718Y-82391125D01*
X94508275Y-82385751D01*
X94459074Y-82277540D01*
X94459072Y-82277538D01*
X94456832Y-82272610D01*
X94371850Y-82173983D01*
X94343967Y-82155910D01*
X94267142Y-82106115D01*
X94267140Y-82106114D01*
X94262601Y-82103172D01*
X94137870Y-82065870D01*
X94082531Y-82065532D01*
X94013098Y-82065107D01*
X94013097Y-82065107D01*
X94007683Y-82065074D01*
X93882505Y-82100850D01*
X93772400Y-82170321D01*
X93686219Y-82267903D01*
X93683919Y-82272802D01*
X93683917Y-82272805D01*
X93664351Y-82314481D01*
X93630890Y-82385751D01*
X93610860Y-82514390D01*
X90600220Y-82514390D01*
X90589419Y-82490635D01*
X90589417Y-82490633D01*
X90587177Y-82485705D01*
X90502195Y-82387078D01*
X90487313Y-82377432D01*
X90397487Y-82319210D01*
X90397485Y-82319209D01*
X90392946Y-82316267D01*
X90268215Y-82278965D01*
X90212876Y-82278627D01*
X90143443Y-82278202D01*
X90143442Y-82278202D01*
X90138028Y-82278169D01*
X90083546Y-82293740D01*
X90018424Y-82312352D01*
X90012850Y-82313945D01*
X89902745Y-82383416D01*
X89899161Y-82387474D01*
X89831871Y-82463666D01*
X89786205Y-82488512D01*
X89735253Y-82478192D01*
X89717331Y-82462967D01*
X89655383Y-82391073D01*
X89655382Y-82391072D01*
X89651850Y-82386973D01*
X89637130Y-82377432D01*
X89547142Y-82319105D01*
X89547140Y-82319104D01*
X89542601Y-82316162D01*
X89417870Y-82278860D01*
X89362531Y-82278522D01*
X89293098Y-82278097D01*
X89293097Y-82278097D01*
X89287683Y-82278064D01*
X89234821Y-82293172D01*
X89172967Y-82310850D01*
X89162505Y-82313840D01*
X89052400Y-82383311D01*
X89048816Y-82387369D01*
X89046287Y-82390233D01*
X88966219Y-82480893D01*
X88963919Y-82485792D01*
X88963917Y-82485795D01*
X88946315Y-82523288D01*
X88910890Y-82598741D01*
X88890860Y-82727380D01*
X86972010Y-82727380D01*
X86951850Y-82703983D01*
X86912822Y-82678686D01*
X86881500Y-82637197D01*
X86884174Y-82585278D01*
X86907893Y-82554617D01*
X86961501Y-82513482D01*
X86965451Y-82510451D01*
X87057698Y-82390233D01*
X87061719Y-82380527D01*
X87087160Y-82319105D01*
X87115687Y-82250236D01*
X87124392Y-82184119D01*
X87134816Y-82104937D01*
X87135466Y-82100000D01*
X87127066Y-82036196D01*
X87116337Y-81954698D01*
X87116336Y-81954695D01*
X87115687Y-81949764D01*
X87064124Y-81825281D01*
X87059604Y-81814368D01*
X87059603Y-81814367D01*
X87057698Y-81809767D01*
X86971821Y-81697850D01*
X86968482Y-81693499D01*
X86965451Y-81689549D01*
X86953458Y-81680346D01*
X86863694Y-81611468D01*
X86845233Y-81597302D01*
X86840299Y-81595258D01*
X86794677Y-81576361D01*
X86705236Y-81539313D01*
X86700305Y-81538664D01*
X86700302Y-81538663D01*
X86649551Y-81531982D01*
X86639471Y-81530655D01*
X86593358Y-81506650D01*
X86573463Y-81458620D01*
X86583572Y-81417307D01*
X86585000Y-81414833D01*
X86585000Y-81410600D01*
X87585000Y-81410600D01*
X87588736Y-81420865D01*
X87594166Y-81424000D01*
X87676826Y-81424000D01*
X87681209Y-81423745D01*
X87805254Y-81409283D01*
X87813789Y-81407265D01*
X87970754Y-81350290D01*
X87978604Y-81346359D01*
X88012112Y-81324390D01*
X98610860Y-81324390D01*
X98611562Y-81329758D01*
X98611562Y-81329759D01*
X98613440Y-81344119D01*
X98627741Y-81453481D01*
X98680174Y-81572645D01*
X98763946Y-81672303D01*
X98872320Y-81744444D01*
X98877488Y-81746059D01*
X98877491Y-81746060D01*
X98991420Y-81781653D01*
X98991422Y-81781653D01*
X98996587Y-81783267D01*
X99061671Y-81784460D01*
X99121343Y-81785554D01*
X99121344Y-81785554D01*
X99126755Y-81785653D01*
X99131973Y-81784230D01*
X99131976Y-81784230D01*
X99217595Y-81760887D01*
X99252360Y-81751409D01*
X99256972Y-81748577D01*
X99256975Y-81748576D01*
X99328687Y-81704544D01*
X99363306Y-81683288D01*
X99450672Y-81586767D01*
X99453034Y-81581892D01*
X99453036Y-81581889D01*
X99502516Y-81479760D01*
X99507437Y-81469604D01*
X99509474Y-81457500D01*
X99524154Y-81370240D01*
X99529037Y-81341219D01*
X99529174Y-81330000D01*
X99528371Y-81324390D01*
X99511486Y-81206485D01*
X99511485Y-81206482D01*
X99510718Y-81201125D01*
X99507618Y-81194306D01*
X99459074Y-81087540D01*
X99459072Y-81087538D01*
X99456832Y-81082610D01*
X99371850Y-80983983D01*
X99356550Y-80974066D01*
X99267142Y-80916115D01*
X99267140Y-80916114D01*
X99262601Y-80913172D01*
X99137870Y-80875870D01*
X99082531Y-80875532D01*
X99013098Y-80875107D01*
X99013097Y-80875107D01*
X99007683Y-80875074D01*
X98932946Y-80896434D01*
X98903170Y-80904944D01*
X98882505Y-80910850D01*
X98772400Y-80980321D01*
X98768816Y-80984379D01*
X98764081Y-80989740D01*
X98686219Y-81077903D01*
X98683919Y-81082802D01*
X98683917Y-81082805D01*
X98660004Y-81133740D01*
X98630890Y-81195751D01*
X98610860Y-81324390D01*
X88012112Y-81324390D01*
X88118252Y-81254802D01*
X88124984Y-81249173D01*
X88190770Y-81179728D01*
X88194251Y-81171704D01*
X88191672Y-81170000D01*
X87598400Y-81170000D01*
X87588135Y-81173736D01*
X87585000Y-81179166D01*
X87585000Y-81410600D01*
X86585000Y-81410600D01*
X86585000Y-81183400D01*
X86581264Y-81173135D01*
X86575834Y-81170000D01*
X85980159Y-81170000D01*
X85971940Y-81172991D01*
X85972879Y-81178316D01*
X85977191Y-81184176D01*
X85983164Y-81190581D01*
X86110433Y-81298704D01*
X86117736Y-81303574D01*
X86266451Y-81379512D01*
X86274678Y-81382572D01*
X86368807Y-81405605D01*
X86412033Y-81434487D01*
X86426580Y-81484397D01*
X86405643Y-81531982D01*
X86379827Y-81549642D01*
X86269368Y-81595396D01*
X86264767Y-81597302D01*
X86246306Y-81611468D01*
X86156543Y-81680346D01*
X86144549Y-81689549D01*
X86141518Y-81693499D01*
X86138179Y-81697850D01*
X86052302Y-81809767D01*
X86050397Y-81814367D01*
X86050396Y-81814368D01*
X86045876Y-81825281D01*
X85994313Y-81949764D01*
X85993664Y-81954695D01*
X85993663Y-81954698D01*
X85982934Y-82036196D01*
X85974534Y-82100000D01*
X85975184Y-82104937D01*
X85986322Y-82189539D01*
X85975070Y-82240294D01*
X85933826Y-82271941D01*
X85910507Y-82275458D01*
X85853098Y-82275107D01*
X85853097Y-82275107D01*
X85847683Y-82275074D01*
X85722505Y-82310850D01*
X85612400Y-82380321D01*
X85608816Y-82384379D01*
X85540254Y-82462011D01*
X85494588Y-82486857D01*
X85443636Y-82476537D01*
X85425714Y-82461312D01*
X85345383Y-82368083D01*
X85345382Y-82368082D01*
X85341850Y-82363983D01*
X85268071Y-82316162D01*
X85237142Y-82296115D01*
X85237140Y-82296114D01*
X85232601Y-82293172D01*
X85107870Y-82255870D01*
X85052531Y-82255532D01*
X84983098Y-82255107D01*
X84983097Y-82255107D01*
X84977683Y-82255074D01*
X84911231Y-82274066D01*
X84862089Y-82288111D01*
X84852505Y-82290850D01*
X84742400Y-82360321D01*
X84738816Y-82364379D01*
X84659803Y-82453844D01*
X84659801Y-82453847D01*
X84656219Y-82457903D01*
X84653918Y-82462804D01*
X84653501Y-82463439D01*
X84611819Y-82494508D01*
X84559918Y-82491516D01*
X84527421Y-82463906D01*
X84526832Y-82462610D01*
X84441850Y-82363983D01*
X84368071Y-82316162D01*
X84337142Y-82296115D01*
X84337140Y-82296114D01*
X84332601Y-82293172D01*
X84207870Y-82255870D01*
X84152531Y-82255532D01*
X84083098Y-82255107D01*
X84083097Y-82255107D01*
X84077683Y-82255074D01*
X84011231Y-82274066D01*
X83962089Y-82288111D01*
X83952505Y-82290850D01*
X83842400Y-82360321D01*
X83838816Y-82364379D01*
X83824555Y-82380527D01*
X83756219Y-82457903D01*
X83753919Y-82462802D01*
X83753917Y-82462805D01*
X83732210Y-82509041D01*
X83700890Y-82575751D01*
X83680860Y-82704390D01*
X83681562Y-82709758D01*
X83681562Y-82709759D01*
X83685696Y-82741369D01*
X83697741Y-82833481D01*
X83750174Y-82952645D01*
X83833946Y-83052303D01*
X83900887Y-83096863D01*
X83931700Y-83138733D01*
X83928390Y-83190614D01*
X83899328Y-83224402D01*
X83842400Y-83260321D01*
X83838816Y-83264379D01*
X83834614Y-83269137D01*
X83756219Y-83357903D01*
X83753919Y-83362802D01*
X83753917Y-83362805D01*
X83743399Y-83385209D01*
X83700890Y-83475751D01*
X83680860Y-83604390D01*
X83697741Y-83733481D01*
X83750174Y-83852645D01*
X83833946Y-83952303D01*
X83900887Y-83996863D01*
X83931700Y-84038733D01*
X83928390Y-84090614D01*
X83899328Y-84124402D01*
X83842400Y-84160321D01*
X83756219Y-84257903D01*
X83753919Y-84262802D01*
X83753917Y-84262805D01*
X83731519Y-84310512D01*
X83700890Y-84375751D01*
X83680860Y-84504390D01*
X83681562Y-84509758D01*
X83681562Y-84509759D01*
X83685349Y-84538721D01*
X83697741Y-84633481D01*
X83750174Y-84752645D01*
X83833946Y-84852303D01*
X83900887Y-84896863D01*
X83931700Y-84938733D01*
X83928390Y-84990614D01*
X83899328Y-85024402D01*
X83842400Y-85060321D01*
X83838816Y-85064379D01*
X83828449Y-85076118D01*
X83756219Y-85157903D01*
X83753919Y-85162802D01*
X83753917Y-85162805D01*
X83739908Y-85192645D01*
X83700890Y-85275751D01*
X83680860Y-85404390D01*
X83681562Y-85409758D01*
X83681562Y-85409759D01*
X83683061Y-85421219D01*
X83697741Y-85533481D01*
X83750174Y-85652645D01*
X83833946Y-85752303D01*
X83900887Y-85796863D01*
X83931700Y-85838733D01*
X83928390Y-85890614D01*
X83899328Y-85924402D01*
X83887655Y-85931767D01*
X83842400Y-85960321D01*
X83756219Y-86057903D01*
X83753919Y-86062802D01*
X83753917Y-86062805D01*
X83730488Y-86112708D01*
X83700890Y-86175751D01*
X83680860Y-86304390D01*
X83697741Y-86433481D01*
X83750174Y-86552645D01*
X83833946Y-86652303D01*
X83900887Y-86696863D01*
X83931700Y-86738733D01*
X83928390Y-86790614D01*
X83899328Y-86824402D01*
X83871416Y-86842013D01*
X83842400Y-86860321D01*
X83838816Y-86864379D01*
X83818041Y-86887903D01*
X83756219Y-86957903D01*
X83753919Y-86962802D01*
X83753917Y-86962805D01*
X83736704Y-86999468D01*
X83700890Y-87075751D01*
X83680860Y-87204390D01*
X80154000Y-87204390D01*
X80154000Y-81172991D01*
X82041940Y-81172991D01*
X82042879Y-81178316D01*
X82047191Y-81184176D01*
X82053164Y-81190581D01*
X82180433Y-81298704D01*
X82187736Y-81303574D01*
X82336451Y-81379512D01*
X82344678Y-81382572D01*
X82391984Y-81394148D01*
X82402842Y-81392959D01*
X82404656Y-81391064D01*
X82405000Y-81389428D01*
X82405000Y-81386166D01*
X83405000Y-81386166D01*
X83408736Y-81396431D01*
X83409065Y-81396621D01*
X83414392Y-81396157D01*
X83540754Y-81350290D01*
X83548604Y-81346359D01*
X83688252Y-81254802D01*
X83694984Y-81249173D01*
X83760770Y-81179728D01*
X83764251Y-81171704D01*
X83761672Y-81170000D01*
X83418400Y-81170000D01*
X83408135Y-81173736D01*
X83405000Y-81179166D01*
X83405000Y-81386166D01*
X82405000Y-81386166D01*
X82405000Y-81183400D01*
X82401264Y-81173135D01*
X82395834Y-81170000D01*
X82050159Y-81170000D01*
X82041940Y-81172991D01*
X80154000Y-81172991D01*
X80154000Y-80230000D01*
X80171781Y-80181148D01*
X80216803Y-80155155D01*
X80230000Y-80154000D01*
X82001272Y-80154000D01*
X82043165Y-80166589D01*
G37*
G04 #@! TD.AperFunction*
M02*
