G04 #@! TF.GenerationSoftware,KiCad,Pcbnew,6.0.0-d3dd2cf0fa~116~ubuntu20.04.1*
G04 #@! TF.CreationDate,2022-01-09T18:53:19+01:00*
G04 #@! TF.ProjectId,TS100C,54533130-3043-42e6-9b69-6361645f7063,rev?*
G04 #@! TF.SameCoordinates,Original*
G04 #@! TF.FileFunction,Copper,L2,Inr*
G04 #@! TF.FilePolarity,Positive*
%FSLAX46Y46*%
G04 Gerber Fmt 4.6, Leading zero omitted, Abs format (unit mm)*
G04 Created by KiCad (PCBNEW 6.0.0-d3dd2cf0fa~116~ubuntu20.04.1) date 2022-01-09 18:53:19*
%MOMM*%
%LPD*%
G01*
G04 APERTURE LIST*
G04 #@! TA.AperFunction,Profile*
%ADD10C,0.150000*%
G04 #@! TD*
G04 #@! TA.AperFunction,ComponentPad*
%ADD11O,3.000000X2.000000*%
G04 #@! TD*
G04 #@! TA.AperFunction,ComponentPad*
%ADD12R,5.000000X3.960000*%
G04 #@! TD*
G04 #@! TA.AperFunction,ComponentPad*
%ADD13O,1.600000X1.000000*%
G04 #@! TD*
G04 #@! TA.AperFunction,ComponentPad*
%ADD14O,2.100000X1.000000*%
G04 #@! TD*
G04 #@! TA.AperFunction,ViaPad*
%ADD15C,0.600000*%
G04 #@! TD*
G04 #@! TA.AperFunction,ViaPad*
%ADD16C,0.450000*%
G04 #@! TD*
G04 #@! TA.AperFunction,Conductor*
%ADD17C,0.106000*%
G04 #@! TD*
G04 APERTURE END LIST*
D10*
X130000000Y-80000000D02*
X131000000Y-80500000D01*
X131000000Y-80500000D02*
X164000000Y-80500000D01*
X80000000Y-80000000D02*
X80000000Y-90000000D01*
X164000000Y-80500000D02*
X164000000Y-89500000D01*
X130000000Y-90000000D02*
X80000000Y-90000000D01*
X130000000Y-90000000D02*
X131000000Y-89500000D01*
X131000000Y-89500000D02*
X164000000Y-89500000D01*
X80000000Y-80000000D02*
X130000000Y-80000000D01*
D11*
X150750000Y-85000000D03*
D12*
X161000000Y-85000000D03*
D13*
X82905000Y-89310000D03*
D14*
X87085000Y-80670000D03*
D13*
X82905000Y-80670000D03*
D14*
X87085000Y-89310000D03*
D15*
X147950000Y-88400000D03*
X110350000Y-82700000D03*
X129500000Y-87000000D03*
X140650000Y-86775000D03*
X96240000Y-81310000D03*
X92870000Y-85010000D03*
X110350000Y-87300000D03*
X119669245Y-89159009D03*
X147200000Y-88400000D03*
X117900000Y-82200000D03*
X134060000Y-88280000D03*
X96220000Y-87560000D03*
X105750000Y-87300000D03*
X136950000Y-85300000D03*
X142300000Y-85050000D03*
X116300000Y-82200000D03*
X99260000Y-84690000D03*
X105755086Y-82731010D03*
X97830000Y-84670000D03*
X91129245Y-82604245D03*
X148700000Y-88400000D03*
X100210000Y-81340000D03*
X156504168Y-84150000D03*
X126750000Y-83470002D03*
X146450000Y-88400000D03*
D16*
X119700000Y-85750000D03*
D15*
X85040000Y-82710000D03*
X84140000Y-83610000D03*
X85040000Y-83610000D03*
X84140000Y-84510000D03*
X85040000Y-84510000D03*
X84140000Y-85410000D03*
X85040000Y-85410000D03*
X84140000Y-86310000D03*
X85040000Y-86310000D03*
X84140000Y-87210000D03*
X85040000Y-87210000D03*
X117900000Y-84900000D03*
X84140000Y-82710000D03*
X137300000Y-82930979D03*
X134900000Y-82930979D03*
X134900000Y-82170000D03*
X135700000Y-82170000D03*
X130860000Y-87900000D03*
X85910000Y-83590000D03*
X85910000Y-82730000D03*
X86650000Y-83050000D03*
X136500000Y-82170000D03*
X137300000Y-82170000D03*
X89350000Y-82732990D03*
X89340000Y-87300000D03*
X136500000Y-82930979D03*
X85860000Y-87140000D03*
X86710000Y-86960000D03*
X135700000Y-82930979D03*
X118586802Y-84887682D03*
X90200345Y-82733095D03*
D16*
X120650000Y-85625000D03*
X102449998Y-88550000D03*
X100440000Y-83210000D03*
D15*
X94070000Y-82520000D03*
X99070000Y-81330000D03*
X130640000Y-88840002D03*
X142262500Y-88900000D03*
X118970626Y-81248990D03*
X112075000Y-88500000D03*
X123400000Y-85675000D03*
X106850000Y-80837052D03*
X122575000Y-81550000D03*
X115550000Y-89175000D03*
X119671581Y-81248990D03*
X101849996Y-87900000D03*
X116925000Y-89050000D03*
X102230000Y-84719998D03*
X123314163Y-83964163D03*
X117000000Y-84950000D03*
X120355931Y-81248990D03*
X140300000Y-85174010D03*
X155200000Y-87400000D03*
D16*
X102946177Y-86195990D03*
X97330000Y-88320000D03*
X93820000Y-86100000D03*
X91000000Y-86650000D03*
X95290000Y-84090000D03*
X89450000Y-86500000D03*
X109800000Y-89350000D03*
X115600000Y-87264021D03*
D15*
X112500000Y-86450000D03*
D16*
X130269990Y-87430509D03*
X119650000Y-86614012D03*
D15*
X104500000Y-88900961D03*
D16*
X130123424Y-80653152D03*
X135010002Y-88310000D03*
X104680000Y-80850000D03*
X103360000Y-81210000D03*
X154800000Y-81650000D03*
X134534782Y-81029010D03*
X103596593Y-82935791D03*
X153850000Y-81029000D03*
X90710000Y-84525000D03*
X90334124Y-88535876D03*
X91005876Y-87864124D03*
X90710000Y-85475000D03*
X89400000Y-85750000D03*
X100550000Y-87350000D03*
X93425000Y-88525000D03*
X132050000Y-81214024D03*
X103630000Y-82150000D03*
D17*
X130100000Y-80650000D02*
X129800000Y-80350000D01*
X107100001Y-81399999D02*
X105229999Y-81399999D01*
X105229999Y-81399999D02*
X104979999Y-81149999D01*
X108150000Y-80350000D02*
X107100001Y-81399999D01*
X104979999Y-81149999D02*
X104680000Y-80850000D01*
X129800000Y-80350000D02*
X108150000Y-80350000D01*
X103821592Y-82710792D02*
X103596593Y-82935791D01*
X131728628Y-80782010D02*
X131410638Y-81100000D01*
X129550000Y-81100000D02*
X129140000Y-80690000D01*
X129140000Y-80690000D02*
X108430000Y-80690000D01*
X108430000Y-80690000D02*
X107089999Y-82030001D01*
X104502383Y-82030001D02*
X103821592Y-82710792D01*
X107089999Y-82030001D02*
X104502383Y-82030001D01*
X134287782Y-80782010D02*
X131728628Y-80782010D01*
X134534782Y-81029010D02*
X134287782Y-80782010D01*
X131410638Y-81100000D02*
X129550000Y-81100000D01*
G04 #@! TA.AperFunction,Conductor*
G36*
X85999782Y-80171781D02*
G01*
X86025775Y-80216803D01*
X86016748Y-80268000D01*
X86009489Y-80278444D01*
X85977995Y-80316514D01*
X85907586Y-80466141D01*
X85906691Y-80470833D01*
X85906690Y-80470836D01*
X85894562Y-80534418D01*
X85876600Y-80628577D01*
X85876900Y-80633347D01*
X85876900Y-80633348D01*
X85878118Y-80652710D01*
X85886983Y-80793616D01*
X85888460Y-80798163D01*
X85888461Y-80798166D01*
X85936606Y-80946340D01*
X85936608Y-80946344D01*
X85938084Y-80950887D01*
X85940646Y-80954924D01*
X86022461Y-81083844D01*
X86026691Y-81090510D01*
X86030173Y-81093780D01*
X86030174Y-81093781D01*
X86047274Y-81109839D01*
X86147237Y-81203710D01*
X86151432Y-81206016D01*
X86151433Y-81206017D01*
X86176748Y-81219934D01*
X86292147Y-81283375D01*
X86296781Y-81284565D01*
X86296784Y-81284566D01*
X86439538Y-81321219D01*
X86452317Y-81324500D01*
X87676178Y-81324500D01*
X87799061Y-81308976D01*
X87810644Y-81304390D01*
X95780860Y-81304390D01*
X95781562Y-81309758D01*
X95781562Y-81309759D01*
X95785267Y-81338090D01*
X95797741Y-81433481D01*
X95850174Y-81552645D01*
X95933946Y-81652303D01*
X96042320Y-81724444D01*
X96047488Y-81726059D01*
X96047491Y-81726060D01*
X96161420Y-81761653D01*
X96161422Y-81761653D01*
X96166587Y-81763267D01*
X96231671Y-81764460D01*
X96291343Y-81765554D01*
X96291344Y-81765554D01*
X96296755Y-81765653D01*
X96301973Y-81764230D01*
X96301976Y-81764230D01*
X96375787Y-81744106D01*
X96422360Y-81731409D01*
X96426972Y-81728577D01*
X96426975Y-81728576D01*
X96502337Y-81682303D01*
X96533306Y-81663288D01*
X96620672Y-81566767D01*
X96623034Y-81561892D01*
X96623036Y-81561889D01*
X96675074Y-81454481D01*
X96677437Y-81449604D01*
X96682229Y-81421125D01*
X96698503Y-81324390D01*
X98610860Y-81324390D01*
X98611562Y-81329758D01*
X98611562Y-81329759D01*
X98612676Y-81338274D01*
X98627741Y-81453481D01*
X98680174Y-81572645D01*
X98763946Y-81672303D01*
X98872320Y-81744444D01*
X98877488Y-81746059D01*
X98877491Y-81746060D01*
X98991420Y-81781653D01*
X98991422Y-81781653D01*
X98996587Y-81783267D01*
X99061671Y-81784460D01*
X99121343Y-81785554D01*
X99121344Y-81785554D01*
X99126755Y-81785653D01*
X99131973Y-81784230D01*
X99131976Y-81784230D01*
X99208502Y-81763366D01*
X99252360Y-81751409D01*
X99256972Y-81748577D01*
X99256975Y-81748576D01*
X99328687Y-81704544D01*
X99363306Y-81683288D01*
X99450672Y-81586767D01*
X99453034Y-81581892D01*
X99453036Y-81581889D01*
X99505074Y-81474481D01*
X99507437Y-81469604D01*
X99509982Y-81454481D01*
X99523779Y-81372471D01*
X99529037Y-81341219D01*
X99529120Y-81334390D01*
X99750860Y-81334390D01*
X99767741Y-81463481D01*
X99820174Y-81582645D01*
X99903946Y-81682303D01*
X100012320Y-81754444D01*
X100017488Y-81756059D01*
X100017491Y-81756060D01*
X100131420Y-81791653D01*
X100131422Y-81791653D01*
X100136587Y-81793267D01*
X100201671Y-81794460D01*
X100261343Y-81795554D01*
X100261344Y-81795554D01*
X100266755Y-81795653D01*
X100271973Y-81794230D01*
X100271976Y-81794230D01*
X100345787Y-81774106D01*
X100392360Y-81761409D01*
X100396972Y-81758577D01*
X100396975Y-81758576D01*
X100459373Y-81720263D01*
X100503306Y-81693288D01*
X100590672Y-81596767D01*
X100593034Y-81591892D01*
X100593036Y-81591889D01*
X100645074Y-81484481D01*
X100647437Y-81479604D01*
X100649120Y-81469604D01*
X100668549Y-81354119D01*
X100669037Y-81351219D01*
X100669174Y-81340000D01*
X100668371Y-81334390D01*
X100651486Y-81216485D01*
X100651485Y-81216482D01*
X100650718Y-81211125D01*
X100650207Y-81210000D01*
X102975769Y-81210000D01*
X102976705Y-81215910D01*
X102980209Y-81238031D01*
X102994575Y-81328734D01*
X103049151Y-81435845D01*
X103134155Y-81520849D01*
X103241266Y-81575425D01*
X103252157Y-81577150D01*
X103344532Y-81591781D01*
X103360000Y-81594231D01*
X103375469Y-81591781D01*
X103467843Y-81577150D01*
X103478734Y-81575425D01*
X103585845Y-81520849D01*
X103670849Y-81435845D01*
X103725425Y-81328734D01*
X103739791Y-81238031D01*
X103743295Y-81215910D01*
X103744231Y-81210000D01*
X103725425Y-81091266D01*
X103670849Y-80984155D01*
X103585845Y-80899151D01*
X103478734Y-80844575D01*
X103360000Y-80825769D01*
X103241266Y-80844575D01*
X103134155Y-80899151D01*
X103049151Y-80984155D01*
X102994575Y-81091266D01*
X102975769Y-81210000D01*
X100650207Y-81210000D01*
X100634165Y-81174718D01*
X100599074Y-81097540D01*
X100599072Y-81097538D01*
X100596832Y-81092610D01*
X100511850Y-80993983D01*
X100490772Y-80980321D01*
X100407142Y-80926115D01*
X100407140Y-80926114D01*
X100402601Y-80923172D01*
X100302287Y-80893172D01*
X100283053Y-80887420D01*
X100277870Y-80885870D01*
X100222531Y-80885532D01*
X100153098Y-80885107D01*
X100153097Y-80885107D01*
X100147683Y-80885074D01*
X100078159Y-80904944D01*
X100041991Y-80915281D01*
X100022505Y-80920850D01*
X99912400Y-80990321D01*
X99826219Y-81087903D01*
X99823919Y-81092802D01*
X99823917Y-81092805D01*
X99805693Y-81131622D01*
X99770890Y-81205751D01*
X99750860Y-81334390D01*
X99529120Y-81334390D01*
X99529174Y-81330000D01*
X99528723Y-81326848D01*
X99511486Y-81206485D01*
X99511485Y-81206482D01*
X99510718Y-81201125D01*
X99504062Y-81186485D01*
X99459074Y-81087540D01*
X99459072Y-81087538D01*
X99456832Y-81082610D01*
X99371850Y-80983983D01*
X99356550Y-80974066D01*
X99267142Y-80916115D01*
X99267140Y-80916114D01*
X99262601Y-80913172D01*
X99168757Y-80885107D01*
X99143053Y-80877420D01*
X99137870Y-80875870D01*
X99082531Y-80875532D01*
X99013098Y-80875107D01*
X99013097Y-80875107D01*
X99007683Y-80875074D01*
X98952484Y-80890850D01*
X98903170Y-80904944D01*
X98882505Y-80910850D01*
X98772400Y-80980321D01*
X98686219Y-81077903D01*
X98683919Y-81082802D01*
X98683917Y-81082805D01*
X98660004Y-81133740D01*
X98630890Y-81195751D01*
X98610860Y-81324390D01*
X96698503Y-81324390D01*
X96698549Y-81324119D01*
X96699037Y-81321219D01*
X96699174Y-81310000D01*
X96698758Y-81307093D01*
X96681486Y-81186485D01*
X96681485Y-81186482D01*
X96680718Y-81181125D01*
X96676046Y-81170849D01*
X96629074Y-81067540D01*
X96629072Y-81067538D01*
X96626832Y-81062610D01*
X96541850Y-80963983D01*
X96486904Y-80928369D01*
X96437142Y-80896115D01*
X96437140Y-80896114D01*
X96432601Y-80893172D01*
X96307870Y-80855870D01*
X96252531Y-80855532D01*
X96183098Y-80855107D01*
X96183097Y-80855107D01*
X96177683Y-80855074D01*
X96099496Y-80877420D01*
X96069930Y-80885870D01*
X96052505Y-80890850D01*
X95942400Y-80960321D01*
X95938816Y-80964379D01*
X95917882Y-80988083D01*
X95856219Y-81057903D01*
X95853919Y-81062802D01*
X95853917Y-81062805D01*
X95835893Y-81101197D01*
X95800890Y-81175751D01*
X95780860Y-81304390D01*
X87810644Y-81304390D01*
X87952814Y-81248101D01*
X87971905Y-81234231D01*
X88018421Y-81200435D01*
X88086597Y-81150902D01*
X88103186Y-81130850D01*
X88188956Y-81027172D01*
X88188957Y-81027170D01*
X88192005Y-81023486D01*
X88262414Y-80873859D01*
X88265714Y-80856563D01*
X88282607Y-80768000D01*
X88293400Y-80711423D01*
X88283017Y-80546384D01*
X88279129Y-80534418D01*
X88233394Y-80393660D01*
X88233392Y-80393656D01*
X88231916Y-80389113D01*
X88156784Y-80270723D01*
X88145621Y-80219948D01*
X88169706Y-80173877D01*
X88220953Y-80154000D01*
X107869070Y-80154000D01*
X107917922Y-80171781D01*
X107943915Y-80216803D01*
X107934888Y-80268000D01*
X107922810Y-80283740D01*
X107424164Y-80782386D01*
X107377048Y-80804357D01*
X107326832Y-80790902D01*
X107297014Y-80748316D01*
X107295195Y-80739437D01*
X107290718Y-80708177D01*
X107286046Y-80697901D01*
X107239074Y-80594592D01*
X107239072Y-80594590D01*
X107236832Y-80589662D01*
X107151850Y-80491035D01*
X107123334Y-80472552D01*
X107047142Y-80423167D01*
X107047140Y-80423166D01*
X107042601Y-80420224D01*
X106917870Y-80382922D01*
X106862531Y-80382584D01*
X106793098Y-80382159D01*
X106793097Y-80382159D01*
X106787683Y-80382126D01*
X106662505Y-80417902D01*
X106552400Y-80487373D01*
X106466219Y-80584955D01*
X106463919Y-80589854D01*
X106463917Y-80589857D01*
X106461694Y-80594592D01*
X106410890Y-80702803D01*
X106390860Y-80831442D01*
X106391562Y-80836810D01*
X106391562Y-80836811D01*
X106394060Y-80855910D01*
X106407741Y-80960533D01*
X106459253Y-81077603D01*
X106459253Y-81077605D01*
X106460174Y-81079697D01*
X106459735Y-81079890D01*
X106469707Y-81127206D01*
X106445222Y-81173066D01*
X106394465Y-81192499D01*
X105347428Y-81192499D01*
X105298576Y-81174718D01*
X105293688Y-81170239D01*
X105143397Y-81019948D01*
X105143395Y-81019945D01*
X105079199Y-80955750D01*
X105057229Y-80908635D01*
X105057876Y-80890121D01*
X105058676Y-80885074D01*
X105064231Y-80850000D01*
X105063224Y-80843639D01*
X105050923Y-80765976D01*
X105045425Y-80731266D01*
X104990849Y-80624155D01*
X104905845Y-80539151D01*
X104798734Y-80484575D01*
X104711991Y-80470836D01*
X104685910Y-80466705D01*
X104680000Y-80465769D01*
X104674090Y-80466705D01*
X104648009Y-80470836D01*
X104561266Y-80484575D01*
X104454155Y-80539151D01*
X104369151Y-80624155D01*
X104314575Y-80731266D01*
X104309077Y-80765976D01*
X104296777Y-80843639D01*
X104295769Y-80850000D01*
X104296705Y-80855909D01*
X104296705Y-80855910D01*
X104301445Y-80885837D01*
X104314575Y-80968734D01*
X104369151Y-81075845D01*
X104454155Y-81160849D01*
X104561266Y-81215425D01*
X104680000Y-81234231D01*
X104720121Y-81227876D01*
X104771153Y-81237795D01*
X104785746Y-81249195D01*
X104849815Y-81313265D01*
X104849818Y-81313267D01*
X105050450Y-81513899D01*
X105056188Y-81520328D01*
X105059727Y-81524777D01*
X105063432Y-81532493D01*
X105088166Y-81552273D01*
X105094431Y-81557880D01*
X105099815Y-81563264D01*
X105105947Y-81567118D01*
X105112967Y-81572107D01*
X105125199Y-81581889D01*
X105137366Y-81591619D01*
X105145709Y-81593537D01*
X105148991Y-81595124D01*
X105152410Y-81596321D01*
X105159653Y-81600874D01*
X105168154Y-81601835D01*
X105190692Y-81604383D01*
X105199187Y-81605835D01*
X105206423Y-81607499D01*
X105213971Y-81607499D01*
X105222509Y-81607980D01*
X105245222Y-81610548D01*
X105245223Y-81610548D01*
X105253724Y-81611509D01*
X105261801Y-81608688D01*
X105268178Y-81607973D01*
X105276649Y-81607499D01*
X107035572Y-81607499D01*
X107084424Y-81625280D01*
X107110417Y-81670302D01*
X107101390Y-81721499D01*
X107089312Y-81737239D01*
X107026310Y-81800241D01*
X106979194Y-81822212D01*
X106972570Y-81822501D01*
X104548806Y-81822501D01*
X104540202Y-81822012D01*
X104534548Y-81821368D01*
X104526476Y-81818533D01*
X104517974Y-81819479D01*
X104517973Y-81819479D01*
X104495009Y-81822035D01*
X104486603Y-81822501D01*
X104478991Y-81822501D01*
X104474836Y-81823449D01*
X104474834Y-81823449D01*
X104471924Y-81824113D01*
X104463432Y-81825549D01*
X104456921Y-81826274D01*
X104432389Y-81829004D01*
X104425135Y-81833545D01*
X104421696Y-81834743D01*
X104418428Y-81836316D01*
X104410085Y-81838219D01*
X104398524Y-81847432D01*
X104385658Y-81857684D01*
X104378626Y-81862663D01*
X104372329Y-81866605D01*
X104366989Y-81871945D01*
X104360612Y-81877642D01*
X104336047Y-81897217D01*
X104332329Y-81904926D01*
X104328335Y-81909929D01*
X104322679Y-81916255D01*
X104129915Y-82109019D01*
X104082799Y-82130990D01*
X104032583Y-82117535D01*
X104002765Y-82074949D01*
X104001111Y-82067167D01*
X104001016Y-82066563D01*
X103995425Y-82031266D01*
X103940849Y-81924155D01*
X103855845Y-81839151D01*
X103748734Y-81784575D01*
X103630000Y-81765769D01*
X103511266Y-81784575D01*
X103404155Y-81839151D01*
X103319151Y-81924155D01*
X103264575Y-82031266D01*
X103245769Y-82150000D01*
X103264575Y-82268734D01*
X103319151Y-82375845D01*
X103404155Y-82460849D01*
X103415579Y-82466670D01*
X103451033Y-82504690D01*
X103453753Y-82556606D01*
X103422466Y-82598125D01*
X103415601Y-82602088D01*
X103370748Y-82624942D01*
X103285744Y-82709946D01*
X103231168Y-82817057D01*
X103212362Y-82935791D01*
X103231168Y-83054525D01*
X103285744Y-83161636D01*
X103370748Y-83246640D01*
X103477859Y-83301216D01*
X103596593Y-83320022D01*
X103715327Y-83301216D01*
X103822438Y-83246640D01*
X103907442Y-83161636D01*
X103962018Y-83054525D01*
X103980824Y-82935791D01*
X103974469Y-82895670D01*
X103984388Y-82844638D01*
X103995793Y-82830040D01*
X104566072Y-82259761D01*
X104613188Y-82237790D01*
X104619812Y-82237501D01*
X105422565Y-82237501D01*
X105471417Y-82255282D01*
X105497410Y-82300304D01*
X105488383Y-82351501D01*
X105466031Y-82374748D01*
X105466188Y-82374933D01*
X105464347Y-82376499D01*
X105463121Y-82377775D01*
X105462108Y-82378414D01*
X105457486Y-82381331D01*
X105453902Y-82385389D01*
X105427573Y-82415201D01*
X105371305Y-82478913D01*
X105369005Y-82483812D01*
X105369003Y-82483815D01*
X105352128Y-82519759D01*
X105315976Y-82596761D01*
X105295946Y-82725400D01*
X105296648Y-82730768D01*
X105296648Y-82730769D01*
X105298526Y-82745129D01*
X105312827Y-82854491D01*
X105365260Y-82973655D01*
X105449032Y-83073313D01*
X105557406Y-83145454D01*
X105562574Y-83147069D01*
X105562577Y-83147070D01*
X105676506Y-83182663D01*
X105676508Y-83182663D01*
X105681673Y-83184277D01*
X105746757Y-83185470D01*
X105806429Y-83186564D01*
X105806430Y-83186564D01*
X105811841Y-83186663D01*
X105817059Y-83185240D01*
X105817062Y-83185240D01*
X105890873Y-83165116D01*
X105937446Y-83152419D01*
X105942058Y-83149587D01*
X105942061Y-83149586D01*
X106037043Y-83091266D01*
X106048392Y-83084298D01*
X106135758Y-82987777D01*
X106138120Y-82982902D01*
X106138122Y-82982899D01*
X106190160Y-82875491D01*
X106192523Y-82870614D01*
X106193463Y-82865030D01*
X106213635Y-82745129D01*
X106214123Y-82742229D01*
X106214260Y-82731010D01*
X106212691Y-82720051D01*
X106209016Y-82694390D01*
X109890860Y-82694390D01*
X109907741Y-82823481D01*
X109960174Y-82942645D01*
X110043946Y-83042303D01*
X110152320Y-83114444D01*
X110157488Y-83116059D01*
X110157491Y-83116060D01*
X110271420Y-83151653D01*
X110271422Y-83151653D01*
X110276587Y-83153267D01*
X110341671Y-83154460D01*
X110401343Y-83155554D01*
X110401344Y-83155554D01*
X110406755Y-83155653D01*
X110411973Y-83154230D01*
X110411976Y-83154230D01*
X110485787Y-83134106D01*
X110532360Y-83121409D01*
X110536972Y-83118577D01*
X110536975Y-83118576D01*
X110617443Y-83069168D01*
X110643306Y-83053288D01*
X110730672Y-82956767D01*
X110733034Y-82951892D01*
X110733036Y-82951889D01*
X110784998Y-82844638D01*
X110787437Y-82839604D01*
X110791231Y-82817057D01*
X110808549Y-82714119D01*
X110809037Y-82711219D01*
X110809174Y-82700000D01*
X110807605Y-82689041D01*
X110791486Y-82576485D01*
X110791485Y-82576482D01*
X110790718Y-82571125D01*
X110753173Y-82488550D01*
X110739074Y-82457540D01*
X110739072Y-82457538D01*
X110736832Y-82452610D01*
X110651850Y-82353983D01*
X110542601Y-82283172D01*
X110417870Y-82245870D01*
X110362531Y-82245532D01*
X110293098Y-82245107D01*
X110293097Y-82245107D01*
X110287683Y-82245074D01*
X110225577Y-82262824D01*
X110176396Y-82276880D01*
X110162505Y-82280850D01*
X110052400Y-82350321D01*
X110048816Y-82354379D01*
X110028594Y-82377276D01*
X109966219Y-82447903D01*
X109963919Y-82452802D01*
X109963917Y-82452805D01*
X109947135Y-82488550D01*
X109910890Y-82565751D01*
X109890860Y-82694390D01*
X106209016Y-82694390D01*
X106196572Y-82607495D01*
X106196571Y-82607492D01*
X106195804Y-82602135D01*
X106184142Y-82576485D01*
X106144160Y-82488550D01*
X106144158Y-82488548D01*
X106141918Y-82483620D01*
X106056936Y-82384993D01*
X106045030Y-82377276D01*
X106013707Y-82335785D01*
X106016383Y-82283867D01*
X106051804Y-82245815D01*
X106086367Y-82237501D01*
X107043576Y-82237501D01*
X107052180Y-82237990D01*
X107057834Y-82238634D01*
X107065906Y-82241469D01*
X107074408Y-82240523D01*
X107074409Y-82240523D01*
X107097373Y-82237967D01*
X107105779Y-82237501D01*
X107113391Y-82237501D01*
X107117546Y-82236553D01*
X107117548Y-82236553D01*
X107120458Y-82235889D01*
X107128950Y-82234453D01*
X107135461Y-82233728D01*
X107159993Y-82230998D01*
X107167247Y-82226457D01*
X107170686Y-82225259D01*
X107173954Y-82223686D01*
X107182297Y-82221783D01*
X107206739Y-82202305D01*
X107213759Y-82197336D01*
X107218465Y-82194390D01*
X115840860Y-82194390D01*
X115857741Y-82323481D01*
X115910174Y-82442645D01*
X115993946Y-82542303D01*
X116102320Y-82614444D01*
X116107488Y-82616059D01*
X116107491Y-82616060D01*
X116221420Y-82651653D01*
X116221422Y-82651653D01*
X116226587Y-82653267D01*
X116291671Y-82654460D01*
X116351343Y-82655554D01*
X116351344Y-82655554D01*
X116356755Y-82655653D01*
X116361973Y-82654230D01*
X116361976Y-82654230D01*
X116453882Y-82629173D01*
X116482360Y-82621409D01*
X116486972Y-82618577D01*
X116486975Y-82618576D01*
X116555526Y-82576485D01*
X116593306Y-82553288D01*
X116680672Y-82456767D01*
X116683034Y-82451892D01*
X116683036Y-82451889D01*
X116735074Y-82344481D01*
X116737437Y-82339604D01*
X116746815Y-82283867D01*
X116758549Y-82214119D01*
X116759037Y-82211219D01*
X116759174Y-82200000D01*
X116758758Y-82197093D01*
X116758371Y-82194390D01*
X117440860Y-82194390D01*
X117457741Y-82323481D01*
X117510174Y-82442645D01*
X117593946Y-82542303D01*
X117702320Y-82614444D01*
X117707488Y-82616059D01*
X117707491Y-82616060D01*
X117821420Y-82651653D01*
X117821422Y-82651653D01*
X117826587Y-82653267D01*
X117891671Y-82654460D01*
X117951343Y-82655554D01*
X117951344Y-82655554D01*
X117956755Y-82655653D01*
X117961973Y-82654230D01*
X117961976Y-82654230D01*
X118053882Y-82629173D01*
X118082360Y-82621409D01*
X118086972Y-82618577D01*
X118086975Y-82618576D01*
X118155526Y-82576485D01*
X118193306Y-82553288D01*
X118280672Y-82456767D01*
X118283034Y-82451892D01*
X118283036Y-82451889D01*
X118335074Y-82344481D01*
X118337437Y-82339604D01*
X118346815Y-82283867D01*
X118358549Y-82214119D01*
X118359037Y-82211219D01*
X118359174Y-82200000D01*
X118358758Y-82197093D01*
X118341486Y-82076485D01*
X118341485Y-82076482D01*
X118340718Y-82071125D01*
X118320171Y-82025934D01*
X118289074Y-81957540D01*
X118289072Y-81957538D01*
X118286832Y-81952610D01*
X118201850Y-81853983D01*
X118174775Y-81836434D01*
X118097142Y-81786115D01*
X118097140Y-81786114D01*
X118092601Y-81783172D01*
X118010357Y-81758576D01*
X117973053Y-81747420D01*
X117967870Y-81745870D01*
X117912531Y-81745532D01*
X117843098Y-81745107D01*
X117843097Y-81745107D01*
X117837683Y-81745074D01*
X117712505Y-81780850D01*
X117602400Y-81850321D01*
X117598816Y-81854379D01*
X117585333Y-81869646D01*
X117516219Y-81947903D01*
X117513919Y-81952802D01*
X117513917Y-81952805D01*
X117508453Y-81964444D01*
X117460890Y-82065751D01*
X117440860Y-82194390D01*
X116758371Y-82194390D01*
X116741486Y-82076485D01*
X116741485Y-82076482D01*
X116740718Y-82071125D01*
X116720171Y-82025934D01*
X116689074Y-81957540D01*
X116689072Y-81957538D01*
X116686832Y-81952610D01*
X116601850Y-81853983D01*
X116574775Y-81836434D01*
X116497142Y-81786115D01*
X116497140Y-81786114D01*
X116492601Y-81783172D01*
X116410357Y-81758576D01*
X116373053Y-81747420D01*
X116367870Y-81745870D01*
X116312531Y-81745532D01*
X116243098Y-81745107D01*
X116243097Y-81745107D01*
X116237683Y-81745074D01*
X116112505Y-81780850D01*
X116002400Y-81850321D01*
X115998816Y-81854379D01*
X115985333Y-81869646D01*
X115916219Y-81947903D01*
X115913919Y-81952802D01*
X115913917Y-81952805D01*
X115908453Y-81964444D01*
X115860890Y-82065751D01*
X115840860Y-82194390D01*
X107218465Y-82194390D01*
X107220053Y-82193396D01*
X107225388Y-82188061D01*
X107231765Y-82182364D01*
X107249640Y-82168120D01*
X107256335Y-82162785D01*
X107260054Y-82155075D01*
X107264054Y-82150064D01*
X107269710Y-82143739D01*
X108493690Y-80919760D01*
X108540806Y-80897789D01*
X108547430Y-80897500D01*
X118513869Y-80897500D01*
X118562721Y-80915281D01*
X118588714Y-80960303D01*
X118582664Y-81005798D01*
X118531516Y-81114741D01*
X118511486Y-81243380D01*
X118512188Y-81248748D01*
X118512188Y-81248749D01*
X118512992Y-81254898D01*
X118528367Y-81372471D01*
X118580800Y-81491635D01*
X118664572Y-81591293D01*
X118772946Y-81663434D01*
X118778114Y-81665049D01*
X118778117Y-81665050D01*
X118892046Y-81700643D01*
X118892048Y-81700643D01*
X118897213Y-81702257D01*
X118962297Y-81703450D01*
X119021969Y-81704544D01*
X119021970Y-81704544D01*
X119027381Y-81704643D01*
X119032599Y-81703220D01*
X119032602Y-81703220D01*
X119124526Y-81678158D01*
X119152986Y-81670399D01*
X119157598Y-81667567D01*
X119157601Y-81667566D01*
X119219999Y-81629253D01*
X119263932Y-81602278D01*
X119267563Y-81598266D01*
X119271734Y-81594804D01*
X119273415Y-81596829D01*
X119310659Y-81577150D01*
X119361482Y-81588090D01*
X119365164Y-81590861D01*
X119365527Y-81591293D01*
X119473901Y-81663434D01*
X119479069Y-81665049D01*
X119479072Y-81665050D01*
X119593001Y-81700643D01*
X119593003Y-81700643D01*
X119598168Y-81702257D01*
X119663252Y-81703450D01*
X119722924Y-81704544D01*
X119722925Y-81704544D01*
X119728336Y-81704643D01*
X119733554Y-81703220D01*
X119733557Y-81703220D01*
X119825481Y-81678158D01*
X119853941Y-81670399D01*
X119858553Y-81667567D01*
X119858556Y-81667566D01*
X119920954Y-81629253D01*
X119964887Y-81602278D01*
X119966825Y-81600137D01*
X120014786Y-81582966D01*
X120056496Y-81595699D01*
X120158251Y-81663434D01*
X120163419Y-81665049D01*
X120163422Y-81665050D01*
X120277351Y-81700643D01*
X120277353Y-81700643D01*
X120282518Y-81702257D01*
X120347602Y-81703450D01*
X120407274Y-81704544D01*
X120407275Y-81704544D01*
X120412686Y-81704643D01*
X120417904Y-81703220D01*
X120417907Y-81703220D01*
X120509831Y-81678158D01*
X120538291Y-81670399D01*
X120542903Y-81667567D01*
X120542906Y-81667566D01*
X120605304Y-81629253D01*
X120649237Y-81602278D01*
X120701634Y-81544390D01*
X122115860Y-81544390D01*
X122116562Y-81549758D01*
X122116562Y-81549759D01*
X122119555Y-81572645D01*
X122132741Y-81673481D01*
X122185174Y-81792645D01*
X122268946Y-81892303D01*
X122377320Y-81964444D01*
X122382488Y-81966059D01*
X122382491Y-81966060D01*
X122496420Y-82001653D01*
X122496422Y-82001653D01*
X122501587Y-82003267D01*
X122566671Y-82004460D01*
X122626343Y-82005554D01*
X122626344Y-82005554D01*
X122631755Y-82005653D01*
X122636973Y-82004230D01*
X122636976Y-82004230D01*
X122710787Y-81984106D01*
X122757360Y-81971409D01*
X122761972Y-81968577D01*
X122761975Y-81968576D01*
X122834321Y-81924155D01*
X122868306Y-81903288D01*
X122955672Y-81806767D01*
X122958034Y-81801892D01*
X122958036Y-81801889D01*
X123010074Y-81694481D01*
X123012437Y-81689604D01*
X123013666Y-81682303D01*
X123030970Y-81579449D01*
X123034037Y-81561219D01*
X123034174Y-81550000D01*
X123033371Y-81544390D01*
X123016486Y-81426485D01*
X123016485Y-81426482D01*
X123015718Y-81421125D01*
X123003583Y-81394435D01*
X122964074Y-81307540D01*
X122964072Y-81307538D01*
X122961832Y-81302610D01*
X122876850Y-81203983D01*
X122864836Y-81196196D01*
X122772142Y-81136115D01*
X122772140Y-81136114D01*
X122767601Y-81133172D01*
X122642870Y-81095870D01*
X122587531Y-81095532D01*
X122518098Y-81095107D01*
X122518097Y-81095107D01*
X122512683Y-81095074D01*
X122387505Y-81130850D01*
X122277400Y-81200321D01*
X122273816Y-81204379D01*
X122260078Y-81219934D01*
X122191219Y-81297903D01*
X122188919Y-81302802D01*
X122188917Y-81302805D01*
X122172351Y-81338090D01*
X122135890Y-81415751D01*
X122115860Y-81544390D01*
X120701634Y-81544390D01*
X120736603Y-81505757D01*
X120738965Y-81500882D01*
X120738967Y-81500879D01*
X120783065Y-81409860D01*
X120793368Y-81388594D01*
X120802488Y-81334390D01*
X120814480Y-81263109D01*
X120814968Y-81260209D01*
X120815105Y-81248990D01*
X120813536Y-81238031D01*
X120797417Y-81125475D01*
X120797416Y-81125472D01*
X120796649Y-81120115D01*
X120744289Y-81004956D01*
X120740255Y-80953126D01*
X120770480Y-80910829D01*
X120813473Y-80897500D01*
X129022571Y-80897500D01*
X129071423Y-80915281D01*
X129076311Y-80919760D01*
X129370453Y-81213902D01*
X129376192Y-81220331D01*
X129379727Y-81224775D01*
X129383433Y-81232494D01*
X129408162Y-81252270D01*
X129414427Y-81257877D01*
X129419816Y-81263266D01*
X129423426Y-81265535D01*
X129423430Y-81265538D01*
X129425948Y-81267120D01*
X129432972Y-81272111D01*
X129457367Y-81291620D01*
X129465710Y-81293538D01*
X129468992Y-81295125D01*
X129472411Y-81296322D01*
X129479654Y-81300875D01*
X129488155Y-81301836D01*
X129510693Y-81304384D01*
X129519188Y-81305836D01*
X129526424Y-81307500D01*
X129533972Y-81307500D01*
X129542509Y-81307981D01*
X129546803Y-81308466D01*
X129565223Y-81310549D01*
X129565224Y-81310549D01*
X129573725Y-81311510D01*
X129581802Y-81308689D01*
X129588179Y-81307974D01*
X129596650Y-81307500D01*
X131364215Y-81307500D01*
X131372819Y-81307989D01*
X131378473Y-81308633D01*
X131386545Y-81311468D01*
X131395047Y-81310522D01*
X131395048Y-81310522D01*
X131418012Y-81307966D01*
X131426418Y-81307500D01*
X131434030Y-81307500D01*
X131438185Y-81306552D01*
X131438187Y-81306552D01*
X131441097Y-81305888D01*
X131449589Y-81304452D01*
X131456100Y-81303727D01*
X131480632Y-81300997D01*
X131487886Y-81296456D01*
X131491325Y-81295258D01*
X131494593Y-81293685D01*
X131502936Y-81291782D01*
X131527378Y-81272304D01*
X131534398Y-81267335D01*
X131540692Y-81263395D01*
X131546027Y-81258060D01*
X131552404Y-81252363D01*
X131556436Y-81249150D01*
X131605722Y-81232611D01*
X131654108Y-81251622D01*
X131678863Y-81296697D01*
X131683207Y-81324119D01*
X131684575Y-81332758D01*
X131739151Y-81439869D01*
X131824155Y-81524873D01*
X131931266Y-81579449D01*
X131953471Y-81582966D01*
X132040997Y-81596829D01*
X132050000Y-81598255D01*
X132059004Y-81596829D01*
X132146529Y-81582966D01*
X132168734Y-81579449D01*
X132275845Y-81524873D01*
X132360849Y-81439869D01*
X132415425Y-81332758D01*
X132428660Y-81249200D01*
X132433295Y-81219934D01*
X132434231Y-81214024D01*
X132428169Y-81175751D01*
X132416361Y-81101197D01*
X132416360Y-81101195D01*
X132415425Y-81095290D01*
X132412710Y-81089962D01*
X132412396Y-81088995D01*
X132414210Y-81037039D01*
X132448997Y-80998406D01*
X132484676Y-80989510D01*
X134079385Y-80989510D01*
X134128237Y-81007291D01*
X134154449Y-81053621D01*
X134169357Y-81147744D01*
X134223933Y-81254855D01*
X134308937Y-81339859D01*
X134416048Y-81394435D01*
X134421958Y-81395371D01*
X134519680Y-81410849D01*
X134534782Y-81413241D01*
X134549885Y-81410849D01*
X134647606Y-81395371D01*
X134653516Y-81394435D01*
X134760627Y-81339859D01*
X134845631Y-81254855D01*
X134900207Y-81147744D01*
X134919013Y-81029010D01*
X134900207Y-80910276D01*
X134845631Y-80803165D01*
X134826206Y-80783740D01*
X134804235Y-80736624D01*
X134817690Y-80686408D01*
X134860276Y-80656590D01*
X134879946Y-80654000D01*
X142224000Y-80654000D01*
X142272852Y-80671781D01*
X142298845Y-80716803D01*
X142300000Y-80730000D01*
X142300000Y-84521013D01*
X142282219Y-84569865D01*
X142237529Y-84594537D01*
X142237683Y-84595074D01*
X142232480Y-84596561D01*
X142229433Y-84597432D01*
X142112505Y-84630850D01*
X142002400Y-84700321D01*
X141998816Y-84704379D01*
X141987589Y-84717091D01*
X141916219Y-84797903D01*
X141913919Y-84802802D01*
X141913917Y-84802805D01*
X141897342Y-84838109D01*
X141860890Y-84915751D01*
X141840860Y-85044390D01*
X141857741Y-85173481D01*
X141910174Y-85292645D01*
X141993946Y-85392303D01*
X142102320Y-85464444D01*
X142107488Y-85466059D01*
X142107491Y-85466060D01*
X142221419Y-85501653D01*
X142221423Y-85501654D01*
X142226587Y-85503267D01*
X142231997Y-85503366D01*
X142236152Y-85504039D01*
X142281533Y-85529402D01*
X142300000Y-85579061D01*
X142300000Y-88369218D01*
X142282219Y-88418070D01*
X142237197Y-88444063D01*
X142223537Y-88445217D01*
X142211319Y-88445142D01*
X142205597Y-88445107D01*
X142205596Y-88445107D01*
X142200183Y-88445074D01*
X142075005Y-88480850D01*
X141964900Y-88550321D01*
X141878719Y-88647903D01*
X141876419Y-88652802D01*
X141876417Y-88652805D01*
X141855844Y-88696625D01*
X141823390Y-88765751D01*
X141803360Y-88894390D01*
X141804062Y-88899758D01*
X141804062Y-88899759D01*
X141806233Y-88916361D01*
X141820241Y-89023481D01*
X141872674Y-89142645D01*
X141888730Y-89161746D01*
X141938620Y-89221097D01*
X141956443Y-89269934D01*
X141938705Y-89318801D01*
X141893706Y-89344834D01*
X141880443Y-89346000D01*
X131037323Y-89346000D01*
X131028665Y-89344595D01*
X131019043Y-89344018D01*
X131009552Y-89340854D01*
X130986490Y-89345573D01*
X130983949Y-89346000D01*
X130979724Y-89346000D01*
X130966783Y-89349468D01*
X130962375Y-89350508D01*
X130960666Y-89350858D01*
X130957318Y-89351543D01*
X130905893Y-89343921D01*
X130871399Y-89305026D01*
X130869975Y-89253059D01*
X130902311Y-89212321D01*
X130925752Y-89197928D01*
X130933306Y-89193290D01*
X131020672Y-89096769D01*
X131023034Y-89091894D01*
X131023036Y-89091891D01*
X131073713Y-88987292D01*
X131077437Y-88979606D01*
X131081707Y-88954230D01*
X131098549Y-88854121D01*
X131099037Y-88851221D01*
X131099174Y-88840002D01*
X131098758Y-88837095D01*
X131081486Y-88716487D01*
X131081485Y-88716484D01*
X131080718Y-88711127D01*
X131076947Y-88702833D01*
X131029074Y-88597542D01*
X131029072Y-88597540D01*
X131026832Y-88592612D01*
X130941850Y-88493985D01*
X130929878Y-88486225D01*
X130837142Y-88426117D01*
X130837140Y-88426116D01*
X130832601Y-88423174D01*
X130748795Y-88398111D01*
X130713053Y-88387422D01*
X130707870Y-88385872D01*
X130652531Y-88385534D01*
X130583098Y-88385109D01*
X130583097Y-88385109D01*
X130577683Y-88385076D01*
X130452505Y-88420852D01*
X130342400Y-88490323D01*
X130338816Y-88494381D01*
X130326546Y-88508274D01*
X130256219Y-88587905D01*
X130253919Y-88592804D01*
X130253917Y-88592807D01*
X130234966Y-88633172D01*
X130200890Y-88705753D01*
X130180860Y-88834392D01*
X130181562Y-88839760D01*
X130181562Y-88839761D01*
X130181919Y-88842494D01*
X130197741Y-88963483D01*
X130250174Y-89082647D01*
X130333946Y-89182305D01*
X130442320Y-89254446D01*
X130447488Y-89256061D01*
X130447491Y-89256062D01*
X130561420Y-89291655D01*
X130561422Y-89291655D01*
X130566587Y-89293269D01*
X130631671Y-89294462D01*
X130691343Y-89295556D01*
X130691344Y-89295556D01*
X130696755Y-89295655D01*
X130701973Y-89294232D01*
X130701976Y-89294232D01*
X130764935Y-89277067D01*
X130816743Y-89281372D01*
X130853664Y-89317972D01*
X130858420Y-89369741D01*
X130828788Y-89412456D01*
X130818913Y-89418367D01*
X130399112Y-89628267D01*
X129979694Y-89837976D01*
X129945706Y-89846000D01*
X121820076Y-89846000D01*
X121771224Y-89828219D01*
X121745231Y-89783197D01*
X121754258Y-89732000D01*
X121794145Y-89698561D01*
X121811154Y-89692387D01*
X121900067Y-89660113D01*
X121945002Y-89630653D01*
X122041316Y-89567507D01*
X122041317Y-89567506D01*
X122045010Y-89565085D01*
X122164203Y-89439261D01*
X122215154Y-89351543D01*
X122249036Y-89293211D01*
X122249037Y-89293209D01*
X122251254Y-89289392D01*
X122280000Y-89194481D01*
X122300213Y-89127743D01*
X122300213Y-89127741D01*
X122301493Y-89123516D01*
X122302840Y-89101816D01*
X122310113Y-88984575D01*
X122312225Y-88950532D01*
X122309264Y-88933295D01*
X122289296Y-88817092D01*
X122282874Y-88779718D01*
X122277017Y-88765952D01*
X122216743Y-88624301D01*
X122216742Y-88624300D01*
X122215014Y-88620238D01*
X122112287Y-88480647D01*
X121980201Y-88368432D01*
X121825843Y-88289613D01*
X121763632Y-88274390D01*
X133600860Y-88274390D01*
X133601562Y-88279758D01*
X133601562Y-88279759D01*
X133603357Y-88293482D01*
X133617741Y-88403481D01*
X133670174Y-88522645D01*
X133753946Y-88622303D01*
X133862320Y-88694444D01*
X133867488Y-88696059D01*
X133867491Y-88696060D01*
X133981420Y-88731653D01*
X133981422Y-88731653D01*
X133986587Y-88733267D01*
X134051671Y-88734460D01*
X134111343Y-88735554D01*
X134111344Y-88735554D01*
X134116755Y-88735653D01*
X134121973Y-88734230D01*
X134121976Y-88734230D01*
X134217880Y-88708083D01*
X134242360Y-88701409D01*
X134246972Y-88698577D01*
X134246975Y-88698576D01*
X134321837Y-88652610D01*
X134353306Y-88633288D01*
X134440672Y-88536767D01*
X134443034Y-88531892D01*
X134443036Y-88531889D01*
X134495075Y-88424480D01*
X134495076Y-88424478D01*
X134497437Y-88419604D01*
X134497888Y-88416921D01*
X134528997Y-88376672D01*
X134579791Y-88365598D01*
X134625820Y-88389765D01*
X134641887Y-88417426D01*
X134643641Y-88422824D01*
X134644577Y-88428734D01*
X134647293Y-88434065D01*
X134647294Y-88434067D01*
X134658050Y-88455176D01*
X134699153Y-88535845D01*
X134784157Y-88620849D01*
X134891268Y-88675425D01*
X135010002Y-88694231D01*
X135128736Y-88675425D01*
X135235847Y-88620849D01*
X135320851Y-88535845D01*
X135375427Y-88428734D01*
X135387905Y-88349952D01*
X135393297Y-88315910D01*
X135394233Y-88310000D01*
X135375427Y-88191266D01*
X135320851Y-88084155D01*
X135235847Y-87999151D01*
X135128736Y-87944575D01*
X135038742Y-87930321D01*
X135015912Y-87926705D01*
X135010002Y-87925769D01*
X135004092Y-87926705D01*
X134981262Y-87930321D01*
X134891268Y-87944575D01*
X134784157Y-87999151D01*
X134699153Y-88084155D01*
X134645699Y-88189064D01*
X134607681Y-88224516D01*
X134555765Y-88227237D01*
X134514246Y-88195951D01*
X134502753Y-88165334D01*
X134501485Y-88156484D01*
X134500718Y-88151125D01*
X134472912Y-88089969D01*
X134449074Y-88037540D01*
X134449072Y-88037538D01*
X134446832Y-88032610D01*
X134361850Y-87933983D01*
X134317605Y-87905305D01*
X134257142Y-87866115D01*
X134257140Y-87866114D01*
X134252601Y-87863172D01*
X134127870Y-87825870D01*
X134072531Y-87825532D01*
X134003098Y-87825107D01*
X134003097Y-87825107D01*
X133997683Y-87825074D01*
X133872505Y-87860850D01*
X133762400Y-87930321D01*
X133758816Y-87934379D01*
X133756762Y-87936705D01*
X133676219Y-88027903D01*
X133673919Y-88032802D01*
X133673917Y-88032805D01*
X133650004Y-88083740D01*
X133620890Y-88145751D01*
X133600860Y-88274390D01*
X121763632Y-88274390D01*
X121657493Y-88248418D01*
X121654110Y-88248208D01*
X121654109Y-88248208D01*
X121647729Y-88247812D01*
X121647720Y-88247812D01*
X121646564Y-88247740D01*
X121521600Y-88247740D01*
X121392849Y-88262751D01*
X121229933Y-88321887D01*
X121226238Y-88324309D01*
X121226237Y-88324310D01*
X121097924Y-88408435D01*
X121084990Y-88416915D01*
X121080529Y-88421624D01*
X121011607Y-88494381D01*
X120965797Y-88542739D01*
X120939211Y-88588510D01*
X120882375Y-88686361D01*
X120878746Y-88692608D01*
X120877466Y-88696833D01*
X120877466Y-88696834D01*
X120830081Y-88853288D01*
X120828507Y-88858484D01*
X120828234Y-88862889D01*
X120828233Y-88862893D01*
X120823866Y-88933295D01*
X120817775Y-89031468D01*
X120818523Y-89035820D01*
X120818523Y-89035824D01*
X120837044Y-89143606D01*
X120847126Y-89202282D01*
X120848854Y-89206344D01*
X120848855Y-89206346D01*
X120908556Y-89346651D01*
X120914986Y-89361762D01*
X121017713Y-89501353D01*
X121021077Y-89504211D01*
X121033928Y-89515129D01*
X121149799Y-89613568D01*
X121304157Y-89692387D01*
X121308448Y-89693437D01*
X121319650Y-89696178D01*
X121362875Y-89725060D01*
X121377423Y-89774970D01*
X121356486Y-89822555D01*
X121309860Y-89845548D01*
X121301586Y-89846000D01*
X109979028Y-89846000D01*
X109930176Y-89828219D01*
X109904183Y-89783197D01*
X109913210Y-89732000D01*
X109944523Y-89702285D01*
X110025845Y-89660849D01*
X110110849Y-89575845D01*
X110165425Y-89468734D01*
X110184231Y-89350000D01*
X110179290Y-89318801D01*
X110166361Y-89237176D01*
X110165425Y-89231266D01*
X110133897Y-89169390D01*
X115090860Y-89169390D01*
X115107741Y-89298481D01*
X115160174Y-89417645D01*
X115243946Y-89517303D01*
X115352320Y-89589444D01*
X115357488Y-89591059D01*
X115357491Y-89591060D01*
X115471420Y-89626653D01*
X115471422Y-89626653D01*
X115476587Y-89628267D01*
X115541671Y-89629460D01*
X115601343Y-89630554D01*
X115601344Y-89630554D01*
X115606755Y-89630653D01*
X115611973Y-89629230D01*
X115611976Y-89629230D01*
X115685787Y-89609106D01*
X115732360Y-89596409D01*
X115736972Y-89593577D01*
X115736975Y-89593576D01*
X115799373Y-89555263D01*
X115843306Y-89528288D01*
X115930672Y-89431767D01*
X115933034Y-89426892D01*
X115933036Y-89426889D01*
X115985074Y-89319481D01*
X115987437Y-89314604D01*
X115989049Y-89305026D01*
X116008467Y-89189604D01*
X116009037Y-89186219D01*
X116009174Y-89175000D01*
X116008371Y-89169390D01*
X115991486Y-89051485D01*
X115991485Y-89051482D01*
X115990718Y-89046125D01*
X115985761Y-89035223D01*
X115939074Y-88932540D01*
X115939072Y-88932538D01*
X115936832Y-88927610D01*
X115851850Y-88828983D01*
X115811161Y-88802610D01*
X115747142Y-88761115D01*
X115747140Y-88761114D01*
X115742601Y-88758172D01*
X115617870Y-88720870D01*
X115562531Y-88720532D01*
X115493098Y-88720107D01*
X115493097Y-88720107D01*
X115487683Y-88720074D01*
X115362505Y-88755850D01*
X115252400Y-88825321D01*
X115166219Y-88922903D01*
X115163919Y-88927802D01*
X115163917Y-88927805D01*
X115145654Y-88966705D01*
X115110890Y-89040751D01*
X115090860Y-89169390D01*
X110133897Y-89169390D01*
X110110849Y-89124155D01*
X110025845Y-89039151D01*
X109918734Y-88984575D01*
X109800000Y-88965769D01*
X109681266Y-88984575D01*
X109574155Y-89039151D01*
X109489151Y-89124155D01*
X109434575Y-89231266D01*
X109433639Y-89237176D01*
X109420711Y-89318801D01*
X109415769Y-89350000D01*
X109434575Y-89468734D01*
X109489151Y-89575845D01*
X109574155Y-89660849D01*
X109655477Y-89702285D01*
X109690930Y-89740305D01*
X109693651Y-89792221D01*
X109662364Y-89833739D01*
X109620972Y-89846000D01*
X88202524Y-89846000D01*
X88153672Y-89828219D01*
X88127679Y-89783197D01*
X88136706Y-89732000D01*
X88143965Y-89721556D01*
X88188956Y-89667172D01*
X88188957Y-89667170D01*
X88192005Y-89663486D01*
X88262414Y-89513859D01*
X88263478Y-89508284D01*
X88289201Y-89373436D01*
X88293400Y-89351423D01*
X88292986Y-89344834D01*
X88287299Y-89254446D01*
X88283017Y-89186384D01*
X88281539Y-89181834D01*
X88233394Y-89033660D01*
X88233392Y-89033656D01*
X88231916Y-89029113D01*
X88205376Y-88987292D01*
X88145870Y-88893525D01*
X88145869Y-88893523D01*
X88143309Y-88889490D01*
X88107774Y-88856120D01*
X88093060Y-88842303D01*
X88022763Y-88776290D01*
X88015075Y-88772063D01*
X87944685Y-88733366D01*
X87877853Y-88696625D01*
X87873219Y-88695435D01*
X87873216Y-88695434D01*
X87722318Y-88656690D01*
X87722317Y-88656690D01*
X87717683Y-88655500D01*
X86493822Y-88655500D01*
X86370939Y-88671024D01*
X86217186Y-88731899D01*
X86213315Y-88734711D01*
X86213314Y-88734712D01*
X86166151Y-88768978D01*
X86083403Y-88829098D01*
X86080356Y-88832781D01*
X86080355Y-88832782D01*
X85982944Y-88950532D01*
X85977995Y-88956514D01*
X85928725Y-89061219D01*
X85914292Y-89091891D01*
X85907586Y-89106141D01*
X85906691Y-89110833D01*
X85906690Y-89110836D01*
X85894451Y-89175000D01*
X85876600Y-89268577D01*
X85876900Y-89273347D01*
X85876900Y-89273348D01*
X85878375Y-89296787D01*
X85886983Y-89433616D01*
X85888460Y-89438163D01*
X85888461Y-89438166D01*
X85936606Y-89586340D01*
X85936608Y-89586344D01*
X85938084Y-89590887D01*
X86023233Y-89725060D01*
X86025909Y-89729277D01*
X86037072Y-89780051D01*
X86012987Y-89826123D01*
X85961740Y-89846000D01*
X83772524Y-89846000D01*
X83723672Y-89828219D01*
X83697679Y-89783197D01*
X83706706Y-89732000D01*
X83713965Y-89721556D01*
X83758956Y-89667172D01*
X83758957Y-89667170D01*
X83762005Y-89663486D01*
X83832414Y-89513859D01*
X83833478Y-89508284D01*
X83859201Y-89373436D01*
X83863400Y-89351423D01*
X83862986Y-89344834D01*
X83857299Y-89254446D01*
X83853017Y-89186384D01*
X83851539Y-89181834D01*
X83803394Y-89033660D01*
X83803392Y-89033656D01*
X83801916Y-89029113D01*
X83775376Y-88987292D01*
X83715870Y-88893525D01*
X83715869Y-88893523D01*
X83713309Y-88889490D01*
X83682810Y-88860849D01*
X83643974Y-88824380D01*
X83620535Y-88777977D01*
X83620000Y-88768978D01*
X83620000Y-88535876D01*
X89949893Y-88535876D01*
X89950829Y-88541786D01*
X89957487Y-88583821D01*
X89968699Y-88654610D01*
X90023275Y-88761721D01*
X90108279Y-88846725D01*
X90215390Y-88901301D01*
X90265457Y-88909231D01*
X90326150Y-88918844D01*
X90334124Y-88920107D01*
X90342099Y-88918844D01*
X90402791Y-88909231D01*
X90452858Y-88901301D01*
X90559969Y-88846725D01*
X90644973Y-88761721D01*
X90699549Y-88654610D01*
X90710761Y-88583821D01*
X90717419Y-88541786D01*
X90718355Y-88535876D01*
X90716632Y-88525000D01*
X93040769Y-88525000D01*
X93041705Y-88530910D01*
X93044932Y-88551282D01*
X93059575Y-88643734D01*
X93114151Y-88750845D01*
X93199155Y-88835849D01*
X93306266Y-88890425D01*
X93331300Y-88894390D01*
X93410359Y-88906912D01*
X93425000Y-88909231D01*
X93439642Y-88906912D01*
X93518700Y-88894390D01*
X93543734Y-88890425D01*
X93650845Y-88835849D01*
X93735849Y-88750845D01*
X93790425Y-88643734D01*
X93805068Y-88551282D01*
X93808295Y-88530910D01*
X93809231Y-88525000D01*
X93803652Y-88489773D01*
X93795575Y-88438782D01*
X93790425Y-88406266D01*
X93746470Y-88320000D01*
X96945769Y-88320000D01*
X96964575Y-88438734D01*
X97019151Y-88545845D01*
X97104155Y-88630849D01*
X97211266Y-88685425D01*
X97217176Y-88686361D01*
X97321174Y-88702833D01*
X97330000Y-88704231D01*
X97338827Y-88702833D01*
X97442824Y-88686361D01*
X97448734Y-88685425D01*
X97555845Y-88630849D01*
X97640849Y-88545845D01*
X97695425Y-88438734D01*
X97714231Y-88320000D01*
X97707896Y-88280000D01*
X97701925Y-88242303D01*
X97695425Y-88201266D01*
X97640849Y-88094155D01*
X97555845Y-88009151D01*
X97448734Y-87954575D01*
X97330000Y-87935769D01*
X97211266Y-87954575D01*
X97104155Y-88009151D01*
X97019151Y-88094155D01*
X96964575Y-88201266D01*
X96958075Y-88242303D01*
X96952105Y-88280000D01*
X96945769Y-88320000D01*
X93746470Y-88320000D01*
X93735849Y-88299155D01*
X93650845Y-88214151D01*
X93543734Y-88159575D01*
X93467068Y-88147432D01*
X93430910Y-88141705D01*
X93425000Y-88140769D01*
X93419090Y-88141705D01*
X93382932Y-88147432D01*
X93306266Y-88159575D01*
X93199155Y-88214151D01*
X93114151Y-88299155D01*
X93059575Y-88406266D01*
X93054425Y-88438782D01*
X93046349Y-88489773D01*
X93040769Y-88525000D01*
X90716632Y-88525000D01*
X90699549Y-88417142D01*
X90644973Y-88310031D01*
X90559969Y-88225027D01*
X90452858Y-88170451D01*
X90384191Y-88159575D01*
X90340034Y-88152581D01*
X90334124Y-88151645D01*
X90328214Y-88152581D01*
X90284057Y-88159575D01*
X90215390Y-88170451D01*
X90108279Y-88225027D01*
X90023275Y-88310031D01*
X89968699Y-88417142D01*
X89949893Y-88535876D01*
X83620000Y-88535876D01*
X83620000Y-87880000D01*
X85974534Y-87880000D01*
X85975184Y-87884937D01*
X85993424Y-88023481D01*
X85994313Y-88030236D01*
X86020789Y-88094155D01*
X86047500Y-88158639D01*
X86052302Y-88170233D01*
X86144549Y-88290451D01*
X86264767Y-88382698D01*
X86269367Y-88384603D01*
X86269368Y-88384604D01*
X86281828Y-88389765D01*
X86404764Y-88440687D01*
X86409695Y-88441336D01*
X86409698Y-88441337D01*
X86474405Y-88449855D01*
X86517280Y-88455500D01*
X86592720Y-88455500D01*
X86635595Y-88449855D01*
X86700302Y-88441337D01*
X86700305Y-88441336D01*
X86705236Y-88440687D01*
X86828172Y-88389765D01*
X86840632Y-88384604D01*
X86840633Y-88384603D01*
X86845233Y-88382698D01*
X86965451Y-88290451D01*
X87057698Y-88170233D01*
X87062501Y-88158639D01*
X87089211Y-88094155D01*
X87115687Y-88030236D01*
X87116577Y-88023481D01*
X87134816Y-87884937D01*
X87135466Y-87880000D01*
X87133376Y-87864124D01*
X90621645Y-87864124D01*
X90622581Y-87870034D01*
X90626439Y-87894390D01*
X90640451Y-87982858D01*
X90695027Y-88089969D01*
X90780031Y-88174973D01*
X90887142Y-88229549D01*
X91005876Y-88248355D01*
X91124610Y-88229549D01*
X91231721Y-88174973D01*
X91316725Y-88089969D01*
X91371301Y-87982858D01*
X91385313Y-87894390D01*
X91389171Y-87870034D01*
X91390107Y-87864124D01*
X91371301Y-87745390D01*
X91316725Y-87638279D01*
X91232836Y-87554390D01*
X95760860Y-87554390D01*
X95761562Y-87559758D01*
X95761562Y-87559759D01*
X95765486Y-87589767D01*
X95777741Y-87683481D01*
X95830174Y-87802645D01*
X95913946Y-87902303D01*
X96022320Y-87974444D01*
X96027488Y-87976059D01*
X96027491Y-87976060D01*
X96141420Y-88011653D01*
X96141422Y-88011653D01*
X96146587Y-88013267D01*
X96211671Y-88014460D01*
X96271343Y-88015554D01*
X96271344Y-88015554D01*
X96276755Y-88015653D01*
X96281973Y-88014230D01*
X96281976Y-88014230D01*
X96355787Y-87994106D01*
X96402360Y-87981409D01*
X96406972Y-87978577D01*
X96406975Y-87978576D01*
X96479601Y-87933983D01*
X96513306Y-87913288D01*
X96530412Y-87894390D01*
X101390856Y-87894390D01*
X101407737Y-88023481D01*
X101460170Y-88142645D01*
X101543942Y-88242303D01*
X101652316Y-88314444D01*
X101657484Y-88316059D01*
X101657487Y-88316060D01*
X101771416Y-88351653D01*
X101771418Y-88351653D01*
X101776583Y-88353267D01*
X101841667Y-88354460D01*
X101901339Y-88355554D01*
X101901340Y-88355554D01*
X101906751Y-88355653D01*
X101911969Y-88354230D01*
X101911972Y-88354230D01*
X101994141Y-88331828D01*
X102045949Y-88336133D01*
X102082870Y-88372733D01*
X102086356Y-88427767D01*
X102084573Y-88431266D01*
X102083638Y-88437171D01*
X102083637Y-88437173D01*
X102067068Y-88541786D01*
X102065767Y-88550000D01*
X102066703Y-88555910D01*
X102072516Y-88592612D01*
X102084573Y-88668734D01*
X102139149Y-88775845D01*
X102224153Y-88860849D01*
X102331264Y-88915425D01*
X102367252Y-88921125D01*
X102439322Y-88932540D01*
X102449998Y-88934231D01*
X102460675Y-88932540D01*
X102532744Y-88921125D01*
X102568732Y-88915425D01*
X102608129Y-88895351D01*
X104040860Y-88895351D01*
X104057741Y-89024442D01*
X104110174Y-89143606D01*
X104193946Y-89243264D01*
X104302320Y-89315405D01*
X104307488Y-89317020D01*
X104307491Y-89317021D01*
X104421420Y-89352614D01*
X104421422Y-89352614D01*
X104426587Y-89354228D01*
X104491671Y-89355421D01*
X104551343Y-89356515D01*
X104551344Y-89356515D01*
X104556755Y-89356614D01*
X104561973Y-89355191D01*
X104561976Y-89355191D01*
X104635787Y-89335067D01*
X104682360Y-89322370D01*
X104686972Y-89319538D01*
X104686975Y-89319537D01*
X104767760Y-89269934D01*
X104793306Y-89254249D01*
X104880672Y-89157728D01*
X104883034Y-89152853D01*
X104883036Y-89152850D01*
X104932866Y-89050000D01*
X104937437Y-89040565D01*
X104939710Y-89027058D01*
X104955327Y-88934231D01*
X104959037Y-88912180D01*
X104959174Y-88900961D01*
X104958109Y-88893525D01*
X104941486Y-88777446D01*
X104941485Y-88777443D01*
X104940718Y-88772086D01*
X104933687Y-88756622D01*
X104889074Y-88658501D01*
X104889072Y-88658499D01*
X104886832Y-88653571D01*
X104801850Y-88554944D01*
X104773806Y-88536767D01*
X104708426Y-88494390D01*
X111615860Y-88494390D01*
X111632741Y-88623481D01*
X111685174Y-88742645D01*
X111768946Y-88842303D01*
X111877320Y-88914444D01*
X111882488Y-88916059D01*
X111882491Y-88916060D01*
X111996420Y-88951653D01*
X111996422Y-88951653D01*
X112001587Y-88953267D01*
X112066671Y-88954460D01*
X112126343Y-88955554D01*
X112126344Y-88955554D01*
X112131755Y-88955653D01*
X112136973Y-88954230D01*
X112136976Y-88954230D01*
X112216532Y-88932540D01*
X112257360Y-88921409D01*
X112261972Y-88918577D01*
X112261975Y-88918576D01*
X112324373Y-88880263D01*
X112368306Y-88853288D01*
X112455672Y-88756767D01*
X112458034Y-88751892D01*
X112458036Y-88751889D01*
X112507853Y-88649066D01*
X112512437Y-88639604D01*
X112515136Y-88623566D01*
X112533549Y-88514119D01*
X112534037Y-88511219D01*
X112534174Y-88500000D01*
X112533371Y-88494390D01*
X112516486Y-88376485D01*
X112516485Y-88376482D01*
X112515718Y-88371125D01*
X112508036Y-88354230D01*
X112464074Y-88257540D01*
X112464072Y-88257538D01*
X112461832Y-88252610D01*
X112376850Y-88153983D01*
X112364836Y-88146196D01*
X112272142Y-88086115D01*
X112272140Y-88086114D01*
X112267601Y-88083172D01*
X112142870Y-88045870D01*
X112087531Y-88045532D01*
X112018098Y-88045107D01*
X112018097Y-88045107D01*
X112012683Y-88045074D01*
X111928694Y-88069078D01*
X111893702Y-88079079D01*
X111887505Y-88080850D01*
X111777400Y-88150321D01*
X111773816Y-88154379D01*
X111759814Y-88170233D01*
X111691219Y-88247903D01*
X111688919Y-88252802D01*
X111688917Y-88252805D01*
X111664653Y-88304488D01*
X111635890Y-88365751D01*
X111615860Y-88494390D01*
X104708426Y-88494390D01*
X104697142Y-88487076D01*
X104697140Y-88487075D01*
X104692601Y-88484133D01*
X104567870Y-88446831D01*
X104512531Y-88446493D01*
X104443098Y-88446068D01*
X104443097Y-88446068D01*
X104437683Y-88446035D01*
X104404566Y-88455500D01*
X104326578Y-88477789D01*
X104312505Y-88481811D01*
X104202400Y-88551282D01*
X104116219Y-88648864D01*
X104113919Y-88653763D01*
X104113917Y-88653766D01*
X104103678Y-88675576D01*
X104060890Y-88766712D01*
X104040860Y-88895351D01*
X102608129Y-88895351D01*
X102675843Y-88860849D01*
X102760847Y-88775845D01*
X102815423Y-88668734D01*
X102827480Y-88592612D01*
X102833293Y-88555910D01*
X102834229Y-88550000D01*
X102832770Y-88540785D01*
X102816359Y-88437176D01*
X102815423Y-88431266D01*
X102760847Y-88324155D01*
X102675843Y-88239151D01*
X102568732Y-88184575D01*
X102503127Y-88174184D01*
X102455908Y-88166705D01*
X102449998Y-88165769D01*
X102351450Y-88181378D01*
X102300420Y-88171459D01*
X102267703Y-88131058D01*
X102268610Y-88079079D01*
X102271167Y-88073177D01*
X102285070Y-88044481D01*
X102287433Y-88039604D01*
X102291848Y-88013366D01*
X102308545Y-87914119D01*
X102309033Y-87911219D01*
X102309170Y-87900000D01*
X102304879Y-87870034D01*
X102291482Y-87776485D01*
X102291481Y-87776482D01*
X102290714Y-87771125D01*
X102283032Y-87754230D01*
X102239070Y-87657540D01*
X102239068Y-87657538D01*
X102236828Y-87652610D01*
X102151846Y-87553983D01*
X102135415Y-87543333D01*
X102047138Y-87486115D01*
X102047136Y-87486114D01*
X102042597Y-87483172D01*
X101917866Y-87445870D01*
X101862527Y-87445532D01*
X101793094Y-87445107D01*
X101793093Y-87445107D01*
X101787679Y-87445074D01*
X101662501Y-87480850D01*
X101552396Y-87550321D01*
X101548812Y-87554379D01*
X101534564Y-87570512D01*
X101466215Y-87647903D01*
X101463915Y-87652802D01*
X101463913Y-87652805D01*
X101449610Y-87683270D01*
X101410886Y-87765751D01*
X101390856Y-87894390D01*
X96530412Y-87894390D01*
X96600672Y-87816767D01*
X96603034Y-87811892D01*
X96603036Y-87811889D01*
X96651088Y-87712708D01*
X96657437Y-87699604D01*
X96663859Y-87661437D01*
X96678549Y-87574119D01*
X96679037Y-87571219D01*
X96679174Y-87560000D01*
X96678369Y-87554379D01*
X96661486Y-87436485D01*
X96661485Y-87436482D01*
X96660718Y-87431125D01*
X96657751Y-87424599D01*
X96623833Y-87350000D01*
X100165769Y-87350000D01*
X100166705Y-87355910D01*
X100173678Y-87399934D01*
X100184575Y-87468734D01*
X100239151Y-87575845D01*
X100324155Y-87660849D01*
X100431266Y-87715425D01*
X100550000Y-87734231D01*
X100668734Y-87715425D01*
X100775845Y-87660849D01*
X100860849Y-87575845D01*
X100915425Y-87468734D01*
X100926322Y-87399934D01*
X100933295Y-87355910D01*
X100934231Y-87350000D01*
X100926777Y-87302935D01*
X100925423Y-87294390D01*
X105290860Y-87294390D01*
X105307741Y-87423481D01*
X105360174Y-87542645D01*
X105443946Y-87642303D01*
X105552320Y-87714444D01*
X105557488Y-87716059D01*
X105557491Y-87716060D01*
X105671420Y-87751653D01*
X105671422Y-87751653D01*
X105676587Y-87753267D01*
X105741671Y-87754460D01*
X105801343Y-87755554D01*
X105801344Y-87755554D01*
X105806755Y-87755653D01*
X105811973Y-87754230D01*
X105811976Y-87754230D01*
X105901714Y-87729764D01*
X105932360Y-87721409D01*
X105936972Y-87718577D01*
X105936975Y-87718576D01*
X106006156Y-87676098D01*
X106043306Y-87653288D01*
X106130672Y-87556767D01*
X106133034Y-87551892D01*
X106133036Y-87551889D01*
X106185074Y-87444481D01*
X106187437Y-87439604D01*
X106188868Y-87431102D01*
X106207949Y-87317685D01*
X106209037Y-87311219D01*
X106209078Y-87307903D01*
X106209138Y-87302935D01*
X106209174Y-87300000D01*
X106208371Y-87294390D01*
X109890860Y-87294390D01*
X109907741Y-87423481D01*
X109960174Y-87542645D01*
X110043946Y-87642303D01*
X110152320Y-87714444D01*
X110157488Y-87716059D01*
X110157491Y-87716060D01*
X110271420Y-87751653D01*
X110271422Y-87751653D01*
X110276587Y-87753267D01*
X110341671Y-87754460D01*
X110401343Y-87755554D01*
X110401344Y-87755554D01*
X110406755Y-87755653D01*
X110411973Y-87754230D01*
X110411976Y-87754230D01*
X110501714Y-87729764D01*
X110532360Y-87721409D01*
X110536972Y-87718577D01*
X110536975Y-87718576D01*
X110606156Y-87676098D01*
X110643306Y-87653288D01*
X110730672Y-87556767D01*
X110733034Y-87551892D01*
X110733036Y-87551889D01*
X110785074Y-87444481D01*
X110787437Y-87439604D01*
X110788868Y-87431102D01*
X110807949Y-87317685D01*
X110809037Y-87311219D01*
X110809078Y-87307903D01*
X110809138Y-87302935D01*
X110809174Y-87300000D01*
X110807605Y-87289041D01*
X110804022Y-87264021D01*
X115215769Y-87264021D01*
X115216705Y-87269931D01*
X115217417Y-87274424D01*
X115234575Y-87382755D01*
X115289151Y-87489866D01*
X115374155Y-87574870D01*
X115481266Y-87629446D01*
X115536270Y-87638158D01*
X115581394Y-87645305D01*
X115600000Y-87648252D01*
X115696609Y-87632950D01*
X115747639Y-87642869D01*
X115780356Y-87683270D01*
X115781234Y-87730044D01*
X115751742Y-87827420D01*
X115747248Y-87842257D01*
X115736498Y-88015537D01*
X115737246Y-88019889D01*
X115737246Y-88019893D01*
X115758030Y-88140849D01*
X115765899Y-88186643D01*
X115767627Y-88190705D01*
X115767628Y-88190707D01*
X115829508Y-88336133D01*
X115833875Y-88346395D01*
X115936778Y-88486225D01*
X115940136Y-88489078D01*
X115940139Y-88489081D01*
X116013355Y-88551282D01*
X116069089Y-88598632D01*
X116223711Y-88677586D01*
X116392348Y-88718851D01*
X116395731Y-88719061D01*
X116395732Y-88719061D01*
X116402128Y-88719458D01*
X116402137Y-88719458D01*
X116403293Y-88719530D01*
X116458374Y-88719530D01*
X116507226Y-88737311D01*
X116533219Y-88782333D01*
X116527169Y-88827829D01*
X116485890Y-88915751D01*
X116465860Y-89044390D01*
X116482741Y-89173481D01*
X116535174Y-89292645D01*
X116618946Y-89392303D01*
X116727320Y-89464444D01*
X116732488Y-89466059D01*
X116732491Y-89466060D01*
X116846420Y-89501653D01*
X116846422Y-89501653D01*
X116851587Y-89503267D01*
X116916671Y-89504460D01*
X116976343Y-89505554D01*
X116976344Y-89505554D01*
X116981755Y-89505653D01*
X116986973Y-89504230D01*
X116986976Y-89504230D01*
X117097614Y-89474066D01*
X117107360Y-89471409D01*
X117111972Y-89468577D01*
X117111975Y-89468576D01*
X117203374Y-89412456D01*
X117218306Y-89403288D01*
X117305672Y-89306767D01*
X117308034Y-89301892D01*
X117308036Y-89301889D01*
X117360074Y-89194481D01*
X117362437Y-89189604D01*
X117364363Y-89178160D01*
X117368529Y-89153399D01*
X119210105Y-89153399D01*
X119210807Y-89158767D01*
X119210807Y-89158768D01*
X119213343Y-89178160D01*
X119226986Y-89282490D01*
X119279419Y-89401654D01*
X119363191Y-89501312D01*
X119471565Y-89573453D01*
X119476733Y-89575068D01*
X119476736Y-89575069D01*
X119590665Y-89610662D01*
X119590667Y-89610662D01*
X119595832Y-89612276D01*
X119660916Y-89613469D01*
X119720588Y-89614563D01*
X119720589Y-89614563D01*
X119726000Y-89614662D01*
X119731218Y-89613239D01*
X119731221Y-89613239D01*
X119829883Y-89586340D01*
X119851605Y-89580418D01*
X119856217Y-89577586D01*
X119856220Y-89577585D01*
X119943043Y-89524275D01*
X119962551Y-89512297D01*
X120049917Y-89415776D01*
X120052279Y-89410901D01*
X120052281Y-89410898D01*
X120104319Y-89303490D01*
X120106682Y-89298613D01*
X120128282Y-89170228D01*
X120128419Y-89159009D01*
X120126850Y-89148050D01*
X120110731Y-89035494D01*
X120110730Y-89035491D01*
X120109963Y-89030134D01*
X120104933Y-89019072D01*
X120058319Y-88916549D01*
X120058317Y-88916547D01*
X120056077Y-88911619D01*
X119971095Y-88812992D01*
X119960988Y-88806441D01*
X119866387Y-88745124D01*
X119866385Y-88745123D01*
X119861846Y-88742181D01*
X119786105Y-88719530D01*
X119742298Y-88706429D01*
X119737115Y-88704879D01*
X119681776Y-88704541D01*
X119612343Y-88704116D01*
X119612342Y-88704116D01*
X119606928Y-88704083D01*
X119545767Y-88721563D01*
X119496467Y-88735653D01*
X119481750Y-88739859D01*
X119371645Y-88809330D01*
X119285464Y-88906912D01*
X119283164Y-88911811D01*
X119283162Y-88911814D01*
X119263654Y-88953366D01*
X119230135Y-89024760D01*
X119210105Y-89153399D01*
X117368529Y-89153399D01*
X117383549Y-89064119D01*
X117384037Y-89061219D01*
X117384174Y-89050000D01*
X117383616Y-89046102D01*
X117366486Y-88926485D01*
X117366485Y-88926482D01*
X117365718Y-88921125D01*
X117363126Y-88915425D01*
X117314074Y-88807540D01*
X117314072Y-88807538D01*
X117311832Y-88802610D01*
X117226850Y-88703983D01*
X117209300Y-88692608D01*
X117122142Y-88636115D01*
X117122140Y-88636114D01*
X117117601Y-88633172D01*
X117112418Y-88631622D01*
X117112416Y-88631621D01*
X117056346Y-88614853D01*
X117014636Y-88583821D01*
X117002632Y-88533238D01*
X117022947Y-88489773D01*
X117082187Y-88427237D01*
X117082190Y-88427233D01*
X117085227Y-88424027D01*
X117128827Y-88348965D01*
X117170209Y-88277721D01*
X117170210Y-88277719D01*
X117172427Y-88273902D01*
X117180145Y-88248418D01*
X117221472Y-88111970D01*
X117221472Y-88111968D01*
X117222752Y-88107743D01*
X117233502Y-87934463D01*
X117232009Y-87925769D01*
X117210001Y-87797692D01*
X117204101Y-87763357D01*
X117200218Y-87754230D01*
X117137854Y-87607668D01*
X117137853Y-87607667D01*
X117136125Y-87603605D01*
X117033222Y-87463775D01*
X117029864Y-87460922D01*
X117029861Y-87460919D01*
X116930899Y-87376845D01*
X116900911Y-87351368D01*
X116746289Y-87272414D01*
X116577652Y-87231149D01*
X116574269Y-87230939D01*
X116574268Y-87230939D01*
X116567872Y-87230542D01*
X116567863Y-87230542D01*
X116566707Y-87230470D01*
X116441522Y-87230470D01*
X116312555Y-87245506D01*
X116149360Y-87304743D01*
X116145665Y-87307165D01*
X116145664Y-87307166D01*
X116100965Y-87336472D01*
X116050362Y-87348387D01*
X116003939Y-87324988D01*
X115983295Y-87272914D01*
X115983295Y-87269931D01*
X115984231Y-87264021D01*
X115981299Y-87245506D01*
X115966361Y-87151197D01*
X115965425Y-87145287D01*
X115910849Y-87038176D01*
X115872141Y-86999468D01*
X120817775Y-86999468D01*
X120818523Y-87003820D01*
X120818523Y-87003824D01*
X120834318Y-87095743D01*
X120847126Y-87170282D01*
X120848854Y-87174344D01*
X120848855Y-87174346D01*
X120913257Y-87325699D01*
X120914986Y-87329762D01*
X120982018Y-87420849D01*
X121000942Y-87446563D01*
X121017713Y-87469353D01*
X121021077Y-87472211D01*
X121029494Y-87479362D01*
X121149799Y-87581568D01*
X121153732Y-87583576D01*
X121153733Y-87583577D01*
X121174866Y-87594368D01*
X121304157Y-87660387D01*
X121472507Y-87701582D01*
X121475890Y-87701792D01*
X121475891Y-87701792D01*
X121482271Y-87702188D01*
X121482280Y-87702188D01*
X121483436Y-87702260D01*
X121608400Y-87702260D01*
X121737151Y-87687249D01*
X121900067Y-87628113D01*
X121986846Y-87571219D01*
X122041316Y-87535507D01*
X122041317Y-87535506D01*
X122045010Y-87533085D01*
X122120622Y-87453267D01*
X122161167Y-87410466D01*
X122164203Y-87407261D01*
X122223750Y-87304743D01*
X122249036Y-87261211D01*
X122249037Y-87261209D01*
X122251254Y-87257392D01*
X122252534Y-87253166D01*
X122300213Y-87095743D01*
X122300213Y-87095741D01*
X122301493Y-87091516D01*
X122302965Y-87067801D01*
X122307519Y-86994390D01*
X129040860Y-86994390D01*
X129057741Y-87123481D01*
X129110174Y-87242645D01*
X129193946Y-87342303D01*
X129302320Y-87414444D01*
X129307488Y-87416059D01*
X129307491Y-87416060D01*
X129421420Y-87451653D01*
X129421422Y-87451653D01*
X129426587Y-87453267D01*
X129491671Y-87454460D01*
X129551343Y-87455554D01*
X129551344Y-87455554D01*
X129556755Y-87455653D01*
X129561973Y-87454230D01*
X129561976Y-87454230D01*
X129646722Y-87431125D01*
X129682360Y-87421409D01*
X129686972Y-87418577D01*
X129686975Y-87418576D01*
X129770929Y-87367028D01*
X129821863Y-87356619D01*
X129867572Y-87381385D01*
X129885891Y-87429675D01*
X129885759Y-87430509D01*
X129886695Y-87436419D01*
X129887972Y-87444481D01*
X129904565Y-87549243D01*
X129959141Y-87656354D01*
X130044145Y-87741358D01*
X130151256Y-87795934D01*
X130269990Y-87814740D01*
X130388724Y-87795934D01*
X130495835Y-87741358D01*
X130580839Y-87656354D01*
X130635415Y-87549243D01*
X130652008Y-87444481D01*
X130653285Y-87436419D01*
X130654221Y-87430509D01*
X130651933Y-87416060D01*
X130636351Y-87317685D01*
X130635415Y-87311775D01*
X130580839Y-87204664D01*
X130495835Y-87119660D01*
X130388724Y-87065084D01*
X130309968Y-87052610D01*
X130275900Y-87047214D01*
X130269990Y-87046278D01*
X130264080Y-87047214D01*
X130230012Y-87052610D01*
X130151256Y-87065084D01*
X130065594Y-87108731D01*
X130013995Y-87115066D01*
X129970396Y-87086752D01*
X129955196Y-87037036D01*
X129956146Y-87028402D01*
X129958549Y-87014124D01*
X129958550Y-87014114D01*
X129959037Y-87011219D01*
X129959174Y-87000000D01*
X129958758Y-86997093D01*
X129941486Y-86876485D01*
X129941485Y-86876482D01*
X129940718Y-86871125D01*
X129926501Y-86839857D01*
X129894462Y-86769390D01*
X140190860Y-86769390D01*
X140207741Y-86898481D01*
X140260174Y-87017645D01*
X140343946Y-87117303D01*
X140452320Y-87189444D01*
X140457488Y-87191059D01*
X140457491Y-87191060D01*
X140571420Y-87226653D01*
X140571422Y-87226653D01*
X140576587Y-87228267D01*
X140641671Y-87229460D01*
X140701343Y-87230554D01*
X140701344Y-87230554D01*
X140706755Y-87230653D01*
X140711973Y-87229230D01*
X140711976Y-87229230D01*
X140817600Y-87200433D01*
X140832360Y-87196409D01*
X140836972Y-87193577D01*
X140836975Y-87193576D01*
X140921589Y-87141622D01*
X140943306Y-87128288D01*
X141030672Y-87031767D01*
X141033034Y-87026892D01*
X141033036Y-87026889D01*
X141081151Y-86927578D01*
X141087437Y-86914604D01*
X141089183Y-86904230D01*
X141108549Y-86789119D01*
X141109037Y-86786219D01*
X141109174Y-86775000D01*
X141107605Y-86764041D01*
X141091486Y-86651485D01*
X141091485Y-86651482D01*
X141090718Y-86646125D01*
X141067237Y-86594481D01*
X141039074Y-86532540D01*
X141039072Y-86532538D01*
X141036832Y-86527610D01*
X140951850Y-86428983D01*
X140928064Y-86413566D01*
X140847142Y-86361115D01*
X140847140Y-86361114D01*
X140842601Y-86358172D01*
X140736646Y-86326485D01*
X140723053Y-86322420D01*
X140717870Y-86320870D01*
X140659319Y-86320512D01*
X140593098Y-86320107D01*
X140593097Y-86320107D01*
X140587683Y-86320074D01*
X140462505Y-86355850D01*
X140352400Y-86425321D01*
X140266219Y-86522903D01*
X140263919Y-86527802D01*
X140263917Y-86527805D01*
X140239013Y-86580850D01*
X140210890Y-86640751D01*
X140190860Y-86769390D01*
X129894462Y-86769390D01*
X129889074Y-86757540D01*
X129889072Y-86757538D01*
X129886832Y-86752610D01*
X129801850Y-86653983D01*
X129791743Y-86647432D01*
X129697142Y-86586115D01*
X129697140Y-86586114D01*
X129692601Y-86583172D01*
X129567870Y-86545870D01*
X129512531Y-86545532D01*
X129443098Y-86545107D01*
X129443097Y-86545107D01*
X129437683Y-86545074D01*
X129380507Y-86561415D01*
X129317981Y-86579285D01*
X129312505Y-86580850D01*
X129202400Y-86650321D01*
X129116219Y-86747903D01*
X129113919Y-86752802D01*
X129113917Y-86752805D01*
X129098230Y-86786219D01*
X129060890Y-86865751D01*
X129040860Y-86994390D01*
X122307519Y-86994390D01*
X122309431Y-86963566D01*
X122312225Y-86918532D01*
X122310633Y-86909262D01*
X122283748Y-86752805D01*
X122282874Y-86747718D01*
X122276504Y-86732746D01*
X122216743Y-86592301D01*
X122216742Y-86592300D01*
X122215014Y-86588238D01*
X122112287Y-86448647D01*
X121980201Y-86336432D01*
X121948231Y-86320107D01*
X121868683Y-86279488D01*
X121825843Y-86257613D01*
X121657493Y-86216418D01*
X121654110Y-86216208D01*
X121654109Y-86216208D01*
X121647729Y-86215812D01*
X121647720Y-86215812D01*
X121646564Y-86215740D01*
X121521600Y-86215740D01*
X121392849Y-86230751D01*
X121229933Y-86289887D01*
X121226238Y-86292309D01*
X121226237Y-86292310D01*
X121175087Y-86325845D01*
X121084990Y-86384915D01*
X121081953Y-86388121D01*
X120970372Y-86505910D01*
X120965797Y-86510739D01*
X120926476Y-86578435D01*
X120884908Y-86650000D01*
X120878746Y-86660608D01*
X120877466Y-86664833D01*
X120877466Y-86664834D01*
X120834675Y-86806120D01*
X120828507Y-86826484D01*
X120828234Y-86830889D01*
X120828233Y-86830893D01*
X120823843Y-86901653D01*
X120817775Y-86999468D01*
X115872141Y-86999468D01*
X115825845Y-86953172D01*
X115718734Y-86898596D01*
X115624939Y-86883740D01*
X115605910Y-86880726D01*
X115600000Y-86879790D01*
X115594090Y-86880726D01*
X115575061Y-86883740D01*
X115481266Y-86898596D01*
X115374155Y-86953172D01*
X115289151Y-87038176D01*
X115234575Y-87145287D01*
X115233639Y-87151197D01*
X115218702Y-87245506D01*
X115215769Y-87264021D01*
X110804022Y-87264021D01*
X110791486Y-87176485D01*
X110791485Y-87176482D01*
X110790718Y-87171125D01*
X110778267Y-87143740D01*
X110739074Y-87057540D01*
X110739072Y-87057538D01*
X110736832Y-87052610D01*
X110651850Y-86953983D01*
X110600392Y-86920630D01*
X110547142Y-86886115D01*
X110547140Y-86886114D01*
X110542601Y-86883172D01*
X110417870Y-86845870D01*
X110362531Y-86845532D01*
X110293098Y-86845107D01*
X110293097Y-86845107D01*
X110287683Y-86845074D01*
X110162505Y-86880850D01*
X110052400Y-86950321D01*
X109966219Y-87047903D01*
X109963919Y-87052802D01*
X109963917Y-87052805D01*
X109947813Y-87087107D01*
X109910890Y-87165751D01*
X109890860Y-87294390D01*
X106208371Y-87294390D01*
X106207605Y-87289041D01*
X106191486Y-87176485D01*
X106191485Y-87176482D01*
X106190718Y-87171125D01*
X106178267Y-87143740D01*
X106139074Y-87057540D01*
X106139072Y-87057538D01*
X106136832Y-87052610D01*
X106051850Y-86953983D01*
X106000392Y-86920630D01*
X105947142Y-86886115D01*
X105947140Y-86886114D01*
X105942601Y-86883172D01*
X105817870Y-86845870D01*
X105762531Y-86845532D01*
X105693098Y-86845107D01*
X105693097Y-86845107D01*
X105687683Y-86845074D01*
X105562505Y-86880850D01*
X105452400Y-86950321D01*
X105366219Y-87047903D01*
X105363919Y-87052802D01*
X105363917Y-87052805D01*
X105347813Y-87087107D01*
X105310890Y-87165751D01*
X105290860Y-87294390D01*
X100925423Y-87294390D01*
X100917680Y-87245506D01*
X100915425Y-87231266D01*
X100860849Y-87124155D01*
X100775845Y-87039151D01*
X100668734Y-86984575D01*
X100550000Y-86965769D01*
X100431266Y-86984575D01*
X100324155Y-87039151D01*
X100239151Y-87124155D01*
X100184575Y-87231266D01*
X100182320Y-87245506D01*
X100173224Y-87302935D01*
X100165769Y-87350000D01*
X96623833Y-87350000D01*
X96609074Y-87317540D01*
X96609072Y-87317538D01*
X96606832Y-87312610D01*
X96521850Y-87213983D01*
X96511743Y-87207432D01*
X96417142Y-87146115D01*
X96417140Y-87146114D01*
X96412601Y-87143172D01*
X96287870Y-87105870D01*
X96232531Y-87105532D01*
X96163098Y-87105107D01*
X96163097Y-87105107D01*
X96157683Y-87105074D01*
X96032505Y-87140850D01*
X95922400Y-87210321D01*
X95918816Y-87214379D01*
X95904531Y-87230554D01*
X95836219Y-87307903D01*
X95833919Y-87312802D01*
X95833917Y-87312805D01*
X95825956Y-87329762D01*
X95780890Y-87425751D01*
X95760860Y-87554390D01*
X91232836Y-87554390D01*
X91231721Y-87553275D01*
X91124610Y-87498699D01*
X91065243Y-87489296D01*
X91011786Y-87480829D01*
X91005876Y-87479893D01*
X90999966Y-87480829D01*
X90946509Y-87489296D01*
X90887142Y-87498699D01*
X90780031Y-87553275D01*
X90695027Y-87638279D01*
X90640451Y-87745390D01*
X90621645Y-87864124D01*
X87133376Y-87864124D01*
X87124522Y-87796870D01*
X87116337Y-87734698D01*
X87116336Y-87734695D01*
X87115687Y-87729764D01*
X87057698Y-87589767D01*
X86974123Y-87480850D01*
X86968482Y-87473499D01*
X86965451Y-87469549D01*
X86845233Y-87377302D01*
X86705236Y-87319313D01*
X86700305Y-87318664D01*
X86700302Y-87318663D01*
X86635595Y-87310145D01*
X86592720Y-87304500D01*
X86517280Y-87304500D01*
X86474405Y-87310145D01*
X86409698Y-87318663D01*
X86409695Y-87318664D01*
X86404764Y-87319313D01*
X86264767Y-87377302D01*
X86144549Y-87469549D01*
X86141518Y-87473499D01*
X86135877Y-87480850D01*
X86052302Y-87589767D01*
X85994313Y-87729764D01*
X85993664Y-87734695D01*
X85993663Y-87734698D01*
X85985478Y-87796870D01*
X85974534Y-87880000D01*
X83620000Y-87880000D01*
X83620000Y-85750000D01*
X89015769Y-85750000D01*
X89034575Y-85868734D01*
X89089151Y-85975845D01*
X89174155Y-86060849D01*
X89199072Y-86073545D01*
X89234525Y-86111566D01*
X89237245Y-86163482D01*
X89218306Y-86195000D01*
X89139151Y-86274155D01*
X89084575Y-86381266D01*
X89076937Y-86429488D01*
X89073224Y-86452935D01*
X89065769Y-86500000D01*
X89066705Y-86505910D01*
X89067470Y-86510739D01*
X89084575Y-86618734D01*
X89139151Y-86725845D01*
X89224155Y-86810849D01*
X89331266Y-86865425D01*
X89367254Y-86871125D01*
X89443314Y-86883172D01*
X89450000Y-86884231D01*
X89456687Y-86883172D01*
X89532746Y-86871125D01*
X89568734Y-86865425D01*
X89675845Y-86810849D01*
X89760849Y-86725845D01*
X89799494Y-86650000D01*
X90615769Y-86650000D01*
X90616705Y-86655910D01*
X90621739Y-86687692D01*
X90634575Y-86768734D01*
X90689151Y-86875845D01*
X90774155Y-86960849D01*
X90881266Y-87015425D01*
X91000000Y-87034231D01*
X91118734Y-87015425D01*
X91225845Y-86960849D01*
X91310849Y-86875845D01*
X91365425Y-86768734D01*
X91378261Y-86687692D01*
X91383295Y-86655910D01*
X91384231Y-86650000D01*
X91365425Y-86531266D01*
X91310849Y-86424155D01*
X91225845Y-86339151D01*
X91118734Y-86284575D01*
X91000000Y-86265769D01*
X90881266Y-86284575D01*
X90774155Y-86339151D01*
X90689151Y-86424155D01*
X90634575Y-86531266D01*
X90615769Y-86650000D01*
X89799494Y-86650000D01*
X89815425Y-86618734D01*
X89832530Y-86510739D01*
X89833295Y-86505910D01*
X89834231Y-86500000D01*
X89826777Y-86452935D01*
X89823063Y-86429488D01*
X89815425Y-86381266D01*
X89760849Y-86274155D01*
X89675845Y-86189151D01*
X89650928Y-86176455D01*
X89615475Y-86138434D01*
X89613461Y-86100000D01*
X93435769Y-86100000D01*
X93436705Y-86105910D01*
X93440169Y-86127778D01*
X93454575Y-86218734D01*
X93509151Y-86325845D01*
X93594155Y-86410849D01*
X93701266Y-86465425D01*
X93820000Y-86484231D01*
X93938734Y-86465425D01*
X94045845Y-86410849D01*
X94130849Y-86325845D01*
X94185425Y-86218734D01*
X94189027Y-86195990D01*
X102561946Y-86195990D01*
X102562882Y-86201900D01*
X102565309Y-86217224D01*
X102580752Y-86314724D01*
X102635328Y-86421835D01*
X102720332Y-86506839D01*
X102827443Y-86561415D01*
X102833353Y-86562351D01*
X102934901Y-86578435D01*
X102946177Y-86580221D01*
X102957454Y-86578435D01*
X103059001Y-86562351D01*
X103064911Y-86561415D01*
X103172022Y-86506839D01*
X103234471Y-86444390D01*
X112040860Y-86444390D01*
X112057741Y-86573481D01*
X112110174Y-86692645D01*
X112193946Y-86792303D01*
X112302320Y-86864444D01*
X112307488Y-86866059D01*
X112307491Y-86866060D01*
X112421420Y-86901653D01*
X112421422Y-86901653D01*
X112426587Y-86903267D01*
X112491671Y-86904460D01*
X112551343Y-86905554D01*
X112551344Y-86905554D01*
X112556755Y-86905653D01*
X112561973Y-86904230D01*
X112561976Y-86904230D01*
X112653189Y-86879362D01*
X112682360Y-86871409D01*
X112686972Y-86868577D01*
X112686975Y-86868576D01*
X112749373Y-86830263D01*
X112793306Y-86803288D01*
X112880672Y-86706767D01*
X112883034Y-86701892D01*
X112883036Y-86701889D01*
X112925611Y-86614012D01*
X119265769Y-86614012D01*
X119284575Y-86732746D01*
X119339151Y-86839857D01*
X119424155Y-86924861D01*
X119531266Y-86979437D01*
X119580860Y-86987292D01*
X119625674Y-86994390D01*
X119650000Y-86998243D01*
X119674327Y-86994390D01*
X119719140Y-86987292D01*
X119768734Y-86979437D01*
X119875845Y-86924861D01*
X119960849Y-86839857D01*
X120015425Y-86732746D01*
X120034231Y-86614012D01*
X120029813Y-86586115D01*
X120020546Y-86527610D01*
X120015425Y-86495278D01*
X119960849Y-86388167D01*
X119875845Y-86303163D01*
X119789628Y-86259233D01*
X119754173Y-86221212D01*
X119751452Y-86169297D01*
X119782739Y-86127778D01*
X119807196Y-86118390D01*
X119807137Y-86118209D01*
X119810595Y-86117086D01*
X119812242Y-86116453D01*
X119818734Y-86115425D01*
X119925845Y-86060849D01*
X120010849Y-85975845D01*
X120065425Y-85868734D01*
X120084231Y-85750000D01*
X120082303Y-85737824D01*
X120066361Y-85637176D01*
X120065425Y-85631266D01*
X120062232Y-85625000D01*
X120265769Y-85625000D01*
X120266705Y-85630910D01*
X120267853Y-85638158D01*
X120284575Y-85743734D01*
X120339151Y-85850845D01*
X120424155Y-85935849D01*
X120531266Y-85990425D01*
X120650000Y-86009231D01*
X120768734Y-85990425D01*
X120875845Y-85935849D01*
X120960849Y-85850845D01*
X121015425Y-85743734D01*
X121027200Y-85669390D01*
X122940860Y-85669390D01*
X122957741Y-85798481D01*
X123010174Y-85917645D01*
X123093946Y-86017303D01*
X123202320Y-86089444D01*
X123207488Y-86091059D01*
X123207491Y-86091060D01*
X123321420Y-86126653D01*
X123321422Y-86126653D01*
X123326587Y-86128267D01*
X123391671Y-86129460D01*
X123451343Y-86130554D01*
X123451344Y-86130554D01*
X123456755Y-86130653D01*
X123461973Y-86129230D01*
X123461976Y-86129230D01*
X123551659Y-86104779D01*
X123582360Y-86096409D01*
X123586972Y-86093577D01*
X123586975Y-86093576D01*
X123680558Y-86036115D01*
X123693306Y-86028288D01*
X123780672Y-85931767D01*
X123783034Y-85926892D01*
X123783036Y-85926889D01*
X123835074Y-85819481D01*
X123837437Y-85814604D01*
X123841008Y-85793382D01*
X123856576Y-85700845D01*
X123859037Y-85686219D01*
X123859174Y-85675000D01*
X123857605Y-85664041D01*
X123841486Y-85551485D01*
X123841485Y-85551482D01*
X123840718Y-85546125D01*
X123836046Y-85535849D01*
X123789074Y-85432540D01*
X123789072Y-85432538D01*
X123786832Y-85427610D01*
X123701850Y-85328983D01*
X123678967Y-85314151D01*
X123648479Y-85294390D01*
X136490860Y-85294390D01*
X136491562Y-85299758D01*
X136491562Y-85299759D01*
X136492675Y-85308272D01*
X136507741Y-85423481D01*
X136560174Y-85542645D01*
X136643946Y-85642303D01*
X136752320Y-85714444D01*
X136757488Y-85716059D01*
X136757491Y-85716060D01*
X136871420Y-85751653D01*
X136871422Y-85751653D01*
X136876587Y-85753267D01*
X136941671Y-85754460D01*
X137001343Y-85755554D01*
X137001344Y-85755554D01*
X137006755Y-85755653D01*
X137011973Y-85754230D01*
X137011976Y-85754230D01*
X137087501Y-85733639D01*
X137132360Y-85721409D01*
X137136972Y-85718577D01*
X137136975Y-85718576D01*
X137203164Y-85677935D01*
X137243306Y-85653288D01*
X137330672Y-85556767D01*
X137333034Y-85551892D01*
X137333036Y-85551889D01*
X137385074Y-85444481D01*
X137387437Y-85439604D01*
X137388626Y-85432540D01*
X137402938Y-85347471D01*
X137409037Y-85311219D01*
X137409174Y-85300000D01*
X137407478Y-85288158D01*
X137391486Y-85176485D01*
X137391485Y-85176482D01*
X137390718Y-85171125D01*
X137389479Y-85168400D01*
X139840860Y-85168400D01*
X139857741Y-85297491D01*
X139910174Y-85416655D01*
X139993946Y-85516313D01*
X140102320Y-85588454D01*
X140107488Y-85590069D01*
X140107491Y-85590070D01*
X140221420Y-85625663D01*
X140221422Y-85625663D01*
X140226587Y-85627277D01*
X140291671Y-85628470D01*
X140351343Y-85629564D01*
X140351344Y-85629564D01*
X140356755Y-85629663D01*
X140361973Y-85628240D01*
X140361976Y-85628240D01*
X140435787Y-85608116D01*
X140482360Y-85595419D01*
X140486972Y-85592587D01*
X140486975Y-85592586D01*
X140562643Y-85546125D01*
X140593306Y-85527298D01*
X140680672Y-85430777D01*
X140683034Y-85425902D01*
X140683036Y-85425899D01*
X140735074Y-85318491D01*
X140737437Y-85313614D01*
X140739175Y-85303288D01*
X140758549Y-85188129D01*
X140759037Y-85185229D01*
X140759174Y-85174010D01*
X140758368Y-85168382D01*
X140741486Y-85050495D01*
X140741485Y-85050492D01*
X140740718Y-85045135D01*
X140727155Y-85015305D01*
X140689074Y-84931550D01*
X140689072Y-84931548D01*
X140686832Y-84926620D01*
X140601850Y-84827993D01*
X140565237Y-84804262D01*
X140497142Y-84760125D01*
X140497140Y-84760124D01*
X140492601Y-84757182D01*
X140367870Y-84719880D01*
X140312531Y-84719542D01*
X140243098Y-84719117D01*
X140243097Y-84719117D01*
X140237683Y-84719084D01*
X140112505Y-84754860D01*
X140002400Y-84824331D01*
X139998816Y-84828389D01*
X139982765Y-84846563D01*
X139916219Y-84921913D01*
X139913919Y-84926812D01*
X139913917Y-84926815D01*
X139895152Y-84966785D01*
X139860890Y-85039761D01*
X139840860Y-85168400D01*
X137389479Y-85168400D01*
X137386046Y-85160849D01*
X137339074Y-85057540D01*
X137339072Y-85057538D01*
X137336832Y-85052610D01*
X137251850Y-84953983D01*
X137209935Y-84926815D01*
X137147142Y-84886115D01*
X137147140Y-84886114D01*
X137142601Y-84883172D01*
X137017870Y-84845870D01*
X136962531Y-84845532D01*
X136893098Y-84845107D01*
X136893097Y-84845107D01*
X136887683Y-84845074D01*
X136762505Y-84880850D01*
X136652400Y-84950321D01*
X136566219Y-85047903D01*
X136563919Y-85052802D01*
X136563917Y-85052805D01*
X136544351Y-85094481D01*
X136510890Y-85165751D01*
X136490860Y-85294390D01*
X123648479Y-85294390D01*
X123597142Y-85261115D01*
X123597140Y-85261114D01*
X123592601Y-85258172D01*
X123467870Y-85220870D01*
X123412531Y-85220532D01*
X123343098Y-85220107D01*
X123343097Y-85220107D01*
X123337683Y-85220074D01*
X123212505Y-85255850D01*
X123102400Y-85325321D01*
X123016219Y-85422903D01*
X123013919Y-85427802D01*
X123013917Y-85427805D01*
X122996148Y-85465653D01*
X122960890Y-85540751D01*
X122940860Y-85669390D01*
X121027200Y-85669390D01*
X121032147Y-85638158D01*
X121033295Y-85630910D01*
X121034231Y-85625000D01*
X121015425Y-85506266D01*
X120960849Y-85399155D01*
X120875845Y-85314151D01*
X120768734Y-85259575D01*
X120650000Y-85240769D01*
X120531266Y-85259575D01*
X120424155Y-85314151D01*
X120339151Y-85399155D01*
X120284575Y-85506266D01*
X120265769Y-85625000D01*
X120062232Y-85625000D01*
X120010849Y-85524155D01*
X119925845Y-85439151D01*
X119818734Y-85384575D01*
X119759367Y-85375172D01*
X119705910Y-85366705D01*
X119700000Y-85365769D01*
X119694090Y-85366705D01*
X119640633Y-85375172D01*
X119581266Y-85384575D01*
X119474155Y-85439151D01*
X119389151Y-85524155D01*
X119334575Y-85631266D01*
X119333639Y-85637176D01*
X119317698Y-85737824D01*
X119315769Y-85750000D01*
X119334575Y-85868734D01*
X119389151Y-85975845D01*
X119474155Y-86060849D01*
X119524384Y-86086442D01*
X119560372Y-86104779D01*
X119595827Y-86142800D01*
X119598548Y-86194715D01*
X119567261Y-86236234D01*
X119542804Y-86245622D01*
X119542863Y-86245803D01*
X119539405Y-86246926D01*
X119537758Y-86247559D01*
X119531266Y-86248587D01*
X119424155Y-86303163D01*
X119339151Y-86388167D01*
X119284575Y-86495278D01*
X119279454Y-86527610D01*
X119270188Y-86586115D01*
X119265769Y-86614012D01*
X112925611Y-86614012D01*
X112935074Y-86594481D01*
X112937437Y-86589604D01*
X112944679Y-86546563D01*
X112958549Y-86464119D01*
X112959037Y-86461219D01*
X112959174Y-86450000D01*
X112957605Y-86439041D01*
X112941486Y-86326485D01*
X112941485Y-86326482D01*
X112940718Y-86321125D01*
X112936046Y-86310849D01*
X112889074Y-86207540D01*
X112889072Y-86207538D01*
X112886832Y-86202610D01*
X112801850Y-86103983D01*
X112692601Y-86033172D01*
X112567870Y-85995870D01*
X112512531Y-85995532D01*
X112443098Y-85995107D01*
X112443097Y-85995107D01*
X112437683Y-85995074D01*
X112391424Y-86008295D01*
X112335511Y-86024275D01*
X112312505Y-86030850D01*
X112202400Y-86100321D01*
X112198816Y-86104379D01*
X112178151Y-86127778D01*
X112116219Y-86197903D01*
X112113919Y-86202802D01*
X112113917Y-86202805D01*
X112088678Y-86256563D01*
X112060890Y-86315751D01*
X112040860Y-86444390D01*
X103234471Y-86444390D01*
X103257026Y-86421835D01*
X103311602Y-86314724D01*
X103327045Y-86217224D01*
X103329472Y-86201900D01*
X103330408Y-86195990D01*
X103311602Y-86077256D01*
X103257026Y-85970145D01*
X103172022Y-85885141D01*
X103064911Y-85830565D01*
X102994931Y-85819481D01*
X102952087Y-85812695D01*
X102946177Y-85811759D01*
X102940267Y-85812695D01*
X102897423Y-85819481D01*
X102827443Y-85830565D01*
X102720332Y-85885141D01*
X102635328Y-85970145D01*
X102580752Y-86077256D01*
X102561946Y-86195990D01*
X94189027Y-86195990D01*
X94199831Y-86127778D01*
X94203295Y-86105910D01*
X94204231Y-86100000D01*
X94185425Y-85981266D01*
X94130849Y-85874155D01*
X94045845Y-85789151D01*
X93938734Y-85734575D01*
X93879367Y-85725172D01*
X93825910Y-85716705D01*
X93820000Y-85715769D01*
X93814090Y-85716705D01*
X93760633Y-85725172D01*
X93701266Y-85734575D01*
X93594155Y-85789151D01*
X93509151Y-85874155D01*
X93454575Y-85981266D01*
X93435769Y-86100000D01*
X89613461Y-86100000D01*
X89612755Y-86086518D01*
X89631694Y-86055000D01*
X89710849Y-85975845D01*
X89765425Y-85868734D01*
X89784231Y-85750000D01*
X89782303Y-85737824D01*
X89766361Y-85637176D01*
X89765425Y-85631266D01*
X89710849Y-85524155D01*
X89661694Y-85475000D01*
X90325769Y-85475000D01*
X90326705Y-85480910D01*
X90330246Y-85503267D01*
X90344575Y-85593734D01*
X90399151Y-85700845D01*
X90484155Y-85785849D01*
X90591266Y-85840425D01*
X90710000Y-85859231D01*
X90828734Y-85840425D01*
X90935845Y-85785849D01*
X91020849Y-85700845D01*
X91075425Y-85593734D01*
X91089754Y-85503267D01*
X91093295Y-85480910D01*
X91094231Y-85475000D01*
X91075425Y-85356266D01*
X91020849Y-85249155D01*
X90935845Y-85164151D01*
X90828734Y-85109575D01*
X90733436Y-85094481D01*
X90715910Y-85091705D01*
X90710000Y-85090769D01*
X90704090Y-85091705D01*
X90686564Y-85094481D01*
X90591266Y-85109575D01*
X90484155Y-85164151D01*
X90399151Y-85249155D01*
X90344575Y-85356266D01*
X90325769Y-85475000D01*
X89661694Y-85475000D01*
X89625845Y-85439151D01*
X89518734Y-85384575D01*
X89459367Y-85375172D01*
X89405910Y-85366705D01*
X89400000Y-85365769D01*
X89394090Y-85366705D01*
X89340633Y-85375172D01*
X89281266Y-85384575D01*
X89174155Y-85439151D01*
X89089151Y-85524155D01*
X89034575Y-85631266D01*
X89033639Y-85637176D01*
X89017698Y-85737824D01*
X89015769Y-85750000D01*
X83620000Y-85750000D01*
X83620000Y-85004390D01*
X92410860Y-85004390D01*
X92427741Y-85133481D01*
X92480174Y-85252645D01*
X92563946Y-85352303D01*
X92672320Y-85424444D01*
X92677488Y-85426059D01*
X92677491Y-85426060D01*
X92791420Y-85461653D01*
X92791422Y-85461653D01*
X92796587Y-85463267D01*
X92860798Y-85464444D01*
X92921343Y-85465554D01*
X92921344Y-85465554D01*
X92926755Y-85465653D01*
X92931973Y-85464230D01*
X92931976Y-85464230D01*
X93022301Y-85439604D01*
X93052360Y-85431409D01*
X93056972Y-85428577D01*
X93056975Y-85428576D01*
X93147760Y-85372833D01*
X93163306Y-85363288D01*
X93250672Y-85266767D01*
X93253034Y-85261892D01*
X93253036Y-85261889D01*
X93305074Y-85154481D01*
X93307437Y-85149604D01*
X93311852Y-85123366D01*
X93327172Y-85032303D01*
X93329037Y-85021219D01*
X93329174Y-85010000D01*
X93324990Y-84980783D01*
X93311486Y-84886485D01*
X93311485Y-84886482D01*
X93310718Y-84881125D01*
X93306046Y-84870849D01*
X93259074Y-84767540D01*
X93259072Y-84767538D01*
X93256832Y-84762610D01*
X93172201Y-84664390D01*
X97370860Y-84664390D01*
X97387741Y-84793481D01*
X97440174Y-84912645D01*
X97523946Y-85012303D01*
X97632320Y-85084444D01*
X97637488Y-85086059D01*
X97637491Y-85086060D01*
X97751420Y-85121653D01*
X97751422Y-85121653D01*
X97756587Y-85123267D01*
X97821671Y-85124460D01*
X97881343Y-85125554D01*
X97881344Y-85125554D01*
X97886755Y-85125653D01*
X97891973Y-85124230D01*
X97891976Y-85124230D01*
X97965787Y-85104106D01*
X98012360Y-85091409D01*
X98016972Y-85088577D01*
X98016975Y-85088576D01*
X98082231Y-85048508D01*
X98123306Y-85023288D01*
X98210672Y-84926767D01*
X98213034Y-84921892D01*
X98213036Y-84921889D01*
X98260335Y-84824262D01*
X98267437Y-84809604D01*
X98275344Y-84762610D01*
X98288503Y-84684390D01*
X98800860Y-84684390D01*
X98817741Y-84813481D01*
X98870174Y-84932645D01*
X98953946Y-85032303D01*
X99062320Y-85104444D01*
X99067488Y-85106059D01*
X99067491Y-85106060D01*
X99181420Y-85141653D01*
X99181422Y-85141653D01*
X99186587Y-85143267D01*
X99251671Y-85144460D01*
X99311343Y-85145554D01*
X99311344Y-85145554D01*
X99316755Y-85145653D01*
X99321973Y-85144230D01*
X99321976Y-85144230D01*
X99398502Y-85123366D01*
X99442360Y-85111409D01*
X99446972Y-85108577D01*
X99446975Y-85108576D01*
X99537806Y-85052805D01*
X99553306Y-85043288D01*
X99640672Y-84946767D01*
X99643034Y-84941892D01*
X99643036Y-84941889D01*
X99695074Y-84834481D01*
X99697437Y-84829604D01*
X99698868Y-84821102D01*
X99715781Y-84720573D01*
X99716822Y-84714388D01*
X101770860Y-84714388D01*
X101787741Y-84843479D01*
X101840174Y-84962643D01*
X101923946Y-85062301D01*
X102032320Y-85134442D01*
X102037488Y-85136057D01*
X102037491Y-85136058D01*
X102151420Y-85171651D01*
X102151422Y-85171651D01*
X102156587Y-85173265D01*
X102221671Y-85174458D01*
X102281343Y-85175552D01*
X102281344Y-85175552D01*
X102286755Y-85175651D01*
X102291973Y-85174228D01*
X102291976Y-85174228D01*
X102382294Y-85149604D01*
X102412360Y-85141407D01*
X102416972Y-85138575D01*
X102416975Y-85138574D01*
X102479373Y-85100261D01*
X102523306Y-85073286D01*
X102610672Y-84976765D01*
X102613034Y-84971890D01*
X102613036Y-84971887D01*
X102626358Y-84944390D01*
X116540860Y-84944390D01*
X116541562Y-84949758D01*
X116541562Y-84949759D01*
X116541696Y-84950785D01*
X116557741Y-85073481D01*
X116610174Y-85192645D01*
X116693946Y-85292303D01*
X116802320Y-85364444D01*
X116807488Y-85366059D01*
X116807491Y-85366060D01*
X116921420Y-85401653D01*
X116921422Y-85401653D01*
X116926587Y-85403267D01*
X116991671Y-85404460D01*
X117051343Y-85405554D01*
X117051344Y-85405554D01*
X117056755Y-85405653D01*
X117061973Y-85404230D01*
X117061976Y-85404230D01*
X117137501Y-85383639D01*
X117182360Y-85371409D01*
X117186972Y-85368577D01*
X117186975Y-85368576D01*
X117268723Y-85318382D01*
X117293306Y-85303288D01*
X117380672Y-85206767D01*
X117383034Y-85201892D01*
X117383036Y-85201889D01*
X117430247Y-85104444D01*
X117437437Y-85089604D01*
X117440183Y-85073286D01*
X117457242Y-84971887D01*
X117459037Y-84961219D01*
X117459174Y-84950000D01*
X117458371Y-84944390D01*
X117441486Y-84826485D01*
X117441485Y-84826482D01*
X117440718Y-84821125D01*
X117437697Y-84814481D01*
X117389074Y-84707540D01*
X117389072Y-84707538D01*
X117386832Y-84702610D01*
X117301850Y-84603983D01*
X117288105Y-84595074D01*
X117197142Y-84536115D01*
X117197140Y-84536114D01*
X117192601Y-84533172D01*
X117067870Y-84495870D01*
X117012531Y-84495532D01*
X116943098Y-84495107D01*
X116943097Y-84495107D01*
X116937683Y-84495074D01*
X116812505Y-84530850D01*
X116702400Y-84600321D01*
X116616219Y-84697903D01*
X116613919Y-84702802D01*
X116613917Y-84702805D01*
X116593867Y-84745512D01*
X116560890Y-84815751D01*
X116540860Y-84944390D01*
X102626358Y-84944390D01*
X102665074Y-84864479D01*
X102667437Y-84859602D01*
X102669748Y-84845870D01*
X102682938Y-84767469D01*
X102689037Y-84731217D01*
X102689174Y-84719998D01*
X102687390Y-84707540D01*
X102671486Y-84596483D01*
X102671485Y-84596480D01*
X102670718Y-84591123D01*
X102666046Y-84580847D01*
X102619074Y-84477538D01*
X102619072Y-84477536D01*
X102616832Y-84472608D01*
X102531850Y-84373981D01*
X102491894Y-84348083D01*
X102427142Y-84306113D01*
X102427140Y-84306112D01*
X102422601Y-84303170D01*
X102297870Y-84265868D01*
X102242531Y-84265530D01*
X102173098Y-84265105D01*
X102173097Y-84265105D01*
X102167683Y-84265072D01*
X102083694Y-84289076D01*
X102048429Y-84299155D01*
X102042505Y-84300848D01*
X101932400Y-84370319D01*
X101928816Y-84374377D01*
X101925545Y-84378081D01*
X101846219Y-84467901D01*
X101843919Y-84472800D01*
X101843917Y-84472803D01*
X101832762Y-84496563D01*
X101790890Y-84585749D01*
X101770860Y-84714388D01*
X99716822Y-84714388D01*
X99719037Y-84701219D01*
X99719078Y-84697903D01*
X99719138Y-84692935D01*
X99719174Y-84690000D01*
X99718332Y-84684119D01*
X99701486Y-84566485D01*
X99701485Y-84566482D01*
X99700718Y-84561125D01*
X99694062Y-84546485D01*
X99649074Y-84447540D01*
X99649072Y-84447538D01*
X99646832Y-84442610D01*
X99561850Y-84343983D01*
X99537319Y-84328083D01*
X99457142Y-84276115D01*
X99457140Y-84276114D01*
X99452601Y-84273172D01*
X99327870Y-84235870D01*
X99272531Y-84235532D01*
X99203098Y-84235107D01*
X99203097Y-84235107D01*
X99197683Y-84235074D01*
X99142484Y-84250850D01*
X99089937Y-84265868D01*
X99072505Y-84270850D01*
X98962400Y-84340321D01*
X98876219Y-84437903D01*
X98873919Y-84442802D01*
X98873917Y-84442805D01*
X98849378Y-84495074D01*
X98820890Y-84555751D01*
X98800860Y-84684390D01*
X98288503Y-84684390D01*
X98288549Y-84684119D01*
X98289037Y-84681219D01*
X98289174Y-84670000D01*
X98288369Y-84664379D01*
X98271486Y-84546485D01*
X98271485Y-84546482D01*
X98270718Y-84541125D01*
X98266397Y-84531622D01*
X98219074Y-84427540D01*
X98219072Y-84427538D01*
X98216832Y-84422610D01*
X98131850Y-84323983D01*
X98121743Y-84317432D01*
X98027142Y-84256115D01*
X98027140Y-84256114D01*
X98022601Y-84253172D01*
X97897870Y-84215870D01*
X97842531Y-84215532D01*
X97773098Y-84215107D01*
X97773097Y-84215107D01*
X97767683Y-84215074D01*
X97642505Y-84250850D01*
X97532400Y-84320321D01*
X97446219Y-84417903D01*
X97443919Y-84422802D01*
X97443917Y-84422805D01*
X97428163Y-84456361D01*
X97390890Y-84535751D01*
X97370860Y-84664390D01*
X93172201Y-84664390D01*
X93171850Y-84663983D01*
X93148836Y-84649066D01*
X93067142Y-84596115D01*
X93067140Y-84596114D01*
X93062601Y-84593172D01*
X92937870Y-84555870D01*
X92882531Y-84555532D01*
X92813098Y-84555107D01*
X92813097Y-84555107D01*
X92807683Y-84555074D01*
X92682505Y-84590850D01*
X92572400Y-84660321D01*
X92568816Y-84664379D01*
X92555867Y-84679041D01*
X92486219Y-84757903D01*
X92483919Y-84762802D01*
X92483917Y-84762805D01*
X92469515Y-84793481D01*
X92430890Y-84875751D01*
X92410860Y-85004390D01*
X83620000Y-85004390D01*
X83620000Y-84525000D01*
X90325769Y-84525000D01*
X90344575Y-84643734D01*
X90399151Y-84750845D01*
X90484155Y-84835849D01*
X90591266Y-84890425D01*
X90710000Y-84909231D01*
X90828734Y-84890425D01*
X90935845Y-84835849D01*
X91020849Y-84750845D01*
X91075425Y-84643734D01*
X91094231Y-84525000D01*
X91075425Y-84406266D01*
X91020849Y-84299155D01*
X90935845Y-84214151D01*
X90828734Y-84159575D01*
X90710000Y-84140769D01*
X90591266Y-84159575D01*
X90484155Y-84214151D01*
X90399151Y-84299155D01*
X90344575Y-84406266D01*
X90325769Y-84525000D01*
X83620000Y-84525000D01*
X83620000Y-84090000D01*
X94905769Y-84090000D01*
X94906705Y-84095910D01*
X94908722Y-84108644D01*
X94924575Y-84208734D01*
X94979151Y-84315845D01*
X95064155Y-84400849D01*
X95171266Y-84455425D01*
X95177176Y-84456361D01*
X95253855Y-84468506D01*
X95290000Y-84474231D01*
X95326146Y-84468506D01*
X95402824Y-84456361D01*
X95408734Y-84455425D01*
X95515845Y-84400849D01*
X95600849Y-84315845D01*
X95655425Y-84208734D01*
X95671278Y-84108644D01*
X95673295Y-84095910D01*
X95674231Y-84090000D01*
X95655425Y-83971266D01*
X95648947Y-83958553D01*
X122855023Y-83958553D01*
X122871904Y-84087644D01*
X122924337Y-84206808D01*
X123008109Y-84306466D01*
X123116483Y-84378607D01*
X123121651Y-84380222D01*
X123121654Y-84380223D01*
X123235583Y-84415816D01*
X123235585Y-84415816D01*
X123240750Y-84417430D01*
X123305834Y-84418623D01*
X123365506Y-84419717D01*
X123365507Y-84419717D01*
X123370918Y-84419816D01*
X123376136Y-84418393D01*
X123376139Y-84418393D01*
X123456007Y-84396618D01*
X123496523Y-84385572D01*
X123501135Y-84382740D01*
X123501138Y-84382739D01*
X123569052Y-84341039D01*
X123607469Y-84317451D01*
X123694835Y-84220930D01*
X123697197Y-84216055D01*
X123697199Y-84216052D01*
X123749237Y-84108644D01*
X123751600Y-84103767D01*
X123773200Y-83975382D01*
X123773337Y-83964163D01*
X123771768Y-83953204D01*
X123755649Y-83840648D01*
X123755648Y-83840645D01*
X123754881Y-83835288D01*
X123752438Y-83829914D01*
X123703237Y-83721703D01*
X123703235Y-83721701D01*
X123700995Y-83716773D01*
X123616013Y-83618146D01*
X123602837Y-83609606D01*
X123511305Y-83550278D01*
X123511303Y-83550277D01*
X123506764Y-83547335D01*
X123382033Y-83510033D01*
X123326694Y-83509695D01*
X123257261Y-83509270D01*
X123257260Y-83509270D01*
X123251846Y-83509237D01*
X123126668Y-83545013D01*
X123016563Y-83614484D01*
X122930382Y-83712066D01*
X122928082Y-83716965D01*
X122928080Y-83716968D01*
X122902718Y-83770990D01*
X122875053Y-83829914D01*
X122855023Y-83958553D01*
X95648947Y-83958553D01*
X95600849Y-83864155D01*
X95515845Y-83779151D01*
X95408734Y-83724575D01*
X95290000Y-83705769D01*
X95171266Y-83724575D01*
X95064155Y-83779151D01*
X94979151Y-83864155D01*
X94924575Y-83971266D01*
X94905769Y-84090000D01*
X83620000Y-84090000D01*
X83620000Y-83210000D01*
X100055769Y-83210000D01*
X100074575Y-83328734D01*
X100129151Y-83435845D01*
X100214155Y-83520849D01*
X100321266Y-83575425D01*
X100440000Y-83594231D01*
X100558734Y-83575425D01*
X100665845Y-83520849D01*
X100722302Y-83464392D01*
X126290860Y-83464392D01*
X126307741Y-83593483D01*
X126360174Y-83712647D01*
X126443946Y-83812305D01*
X126552320Y-83884446D01*
X126557488Y-83886061D01*
X126557491Y-83886062D01*
X126671420Y-83921655D01*
X126671422Y-83921655D01*
X126676587Y-83923269D01*
X126741671Y-83924462D01*
X126801343Y-83925556D01*
X126801344Y-83925556D01*
X126806755Y-83925655D01*
X126811973Y-83924232D01*
X126811976Y-83924232D01*
X126885787Y-83904108D01*
X126932360Y-83891411D01*
X126936972Y-83888579D01*
X126936975Y-83888578D01*
X126999373Y-83850265D01*
X127043306Y-83823290D01*
X127130672Y-83726769D01*
X127133034Y-83721894D01*
X127133036Y-83721891D01*
X127181313Y-83622246D01*
X127187437Y-83609606D01*
X127198175Y-83545785D01*
X127208549Y-83484121D01*
X127209037Y-83481221D01*
X127209174Y-83470002D01*
X127207605Y-83459043D01*
X127191486Y-83346487D01*
X127191485Y-83346484D01*
X127190718Y-83341127D01*
X127181122Y-83320022D01*
X127139074Y-83227542D01*
X127139072Y-83227540D01*
X127136832Y-83222612D01*
X127051850Y-83123985D01*
X127032498Y-83111442D01*
X126947142Y-83056117D01*
X126947140Y-83056116D01*
X126942601Y-83053174D01*
X126817870Y-83015872D01*
X126762531Y-83015534D01*
X126693098Y-83015109D01*
X126693097Y-83015109D01*
X126687683Y-83015076D01*
X126645689Y-83027078D01*
X126568023Y-83049275D01*
X126562505Y-83050852D01*
X126452400Y-83120323D01*
X126366219Y-83217905D01*
X126363919Y-83222804D01*
X126363917Y-83222807D01*
X126352728Y-83246640D01*
X126310890Y-83335753D01*
X126290860Y-83464392D01*
X100722302Y-83464392D01*
X100750849Y-83435845D01*
X100805425Y-83328734D01*
X100824231Y-83210000D01*
X100820173Y-83184376D01*
X100806361Y-83097176D01*
X100805425Y-83091266D01*
X100750849Y-82984155D01*
X100665845Y-82899151D01*
X100558734Y-82844575D01*
X100493622Y-82834262D01*
X100445910Y-82826705D01*
X100440000Y-82825769D01*
X100434090Y-82826705D01*
X100386378Y-82834262D01*
X100321266Y-82844575D01*
X100214155Y-82899151D01*
X100129151Y-82984155D01*
X100074575Y-83091266D01*
X100073639Y-83097176D01*
X100059828Y-83184376D01*
X100055769Y-83210000D01*
X83620000Y-83210000D01*
X83620000Y-82100000D01*
X85974534Y-82100000D01*
X85975184Y-82104937D01*
X85993638Y-82245107D01*
X85994313Y-82250236D01*
X86022428Y-82318111D01*
X86050296Y-82385389D01*
X86052302Y-82390233D01*
X86144549Y-82510451D01*
X86264767Y-82602698D01*
X86269367Y-82604603D01*
X86269368Y-82604604D01*
X86302588Y-82618364D01*
X86404764Y-82660687D01*
X86409695Y-82661336D01*
X86409698Y-82661337D01*
X86474405Y-82669855D01*
X86517280Y-82675500D01*
X86592720Y-82675500D01*
X86635595Y-82669855D01*
X86700302Y-82661337D01*
X86700305Y-82661336D01*
X86705236Y-82660687D01*
X86807412Y-82618364D01*
X86840632Y-82604604D01*
X86840633Y-82604603D01*
X86845233Y-82602698D01*
X86850528Y-82598635D01*
X90670105Y-82598635D01*
X90670807Y-82604003D01*
X90670807Y-82604004D01*
X90671222Y-82607180D01*
X90686986Y-82727726D01*
X90739419Y-82846890D01*
X90823191Y-82946548D01*
X90931565Y-83018689D01*
X90936733Y-83020304D01*
X90936736Y-83020305D01*
X91050665Y-83055898D01*
X91050667Y-83055898D01*
X91055832Y-83057512D01*
X91120916Y-83058705D01*
X91180588Y-83059799D01*
X91180589Y-83059799D01*
X91186000Y-83059898D01*
X91191218Y-83058475D01*
X91191221Y-83058475D01*
X91265741Y-83038158D01*
X91311605Y-83025654D01*
X91316217Y-83022822D01*
X91316220Y-83022821D01*
X91389548Y-82977797D01*
X91422551Y-82957533D01*
X91509917Y-82861012D01*
X91512279Y-82856137D01*
X91512281Y-82856134D01*
X91564319Y-82748726D01*
X91566682Y-82743849D01*
X91568349Y-82733945D01*
X91584472Y-82638111D01*
X91588282Y-82615464D01*
X91588419Y-82604245D01*
X91588003Y-82601338D01*
X91575551Y-82514390D01*
X93610860Y-82514390D01*
X93627741Y-82643481D01*
X93680174Y-82762645D01*
X93763946Y-82862303D01*
X93872320Y-82934444D01*
X93877488Y-82936059D01*
X93877491Y-82936060D01*
X93991420Y-82971653D01*
X93991422Y-82971653D01*
X93996587Y-82973267D01*
X94061671Y-82974460D01*
X94121343Y-82975554D01*
X94121344Y-82975554D01*
X94126755Y-82975653D01*
X94131973Y-82974230D01*
X94131976Y-82974230D01*
X94222499Y-82949550D01*
X94252360Y-82941409D01*
X94256972Y-82938577D01*
X94256975Y-82938576D01*
X94326853Y-82895670D01*
X94363306Y-82873288D01*
X94450672Y-82776767D01*
X94453034Y-82771892D01*
X94453036Y-82771889D01*
X94505074Y-82664481D01*
X94507437Y-82659604D01*
X94513624Y-82622833D01*
X94527172Y-82542303D01*
X94529037Y-82531219D01*
X94529174Y-82520000D01*
X94527241Y-82506501D01*
X94511486Y-82396485D01*
X94511485Y-82396482D01*
X94510718Y-82391125D01*
X94508275Y-82385751D01*
X94459074Y-82277540D01*
X94459072Y-82277538D01*
X94456832Y-82272610D01*
X94371850Y-82173983D01*
X94366200Y-82170321D01*
X94267142Y-82106115D01*
X94267140Y-82106114D01*
X94262601Y-82103172D01*
X94173365Y-82076485D01*
X94143053Y-82067420D01*
X94137870Y-82065870D01*
X94082531Y-82065532D01*
X94013098Y-82065107D01*
X94013097Y-82065107D01*
X94007683Y-82065074D01*
X93882505Y-82100850D01*
X93772400Y-82170321D01*
X93686219Y-82267903D01*
X93683919Y-82272802D01*
X93683917Y-82272805D01*
X93671007Y-82300304D01*
X93630890Y-82385751D01*
X93610860Y-82514390D01*
X91575551Y-82514390D01*
X91570731Y-82480730D01*
X91570730Y-82480727D01*
X91569963Y-82475370D01*
X91559287Y-82451889D01*
X91518319Y-82361785D01*
X91518317Y-82361783D01*
X91516077Y-82356855D01*
X91431095Y-82258228D01*
X91411944Y-82245815D01*
X91326387Y-82190360D01*
X91326383Y-82190358D01*
X91321846Y-82187417D01*
X91197115Y-82150115D01*
X91141776Y-82149777D01*
X91072343Y-82149352D01*
X91072342Y-82149352D01*
X91066928Y-82149319D01*
X90993443Y-82170321D01*
X90951306Y-82182364D01*
X90941750Y-82185095D01*
X90831645Y-82254566D01*
X90745464Y-82352148D01*
X90743164Y-82357047D01*
X90743162Y-82357050D01*
X90725728Y-82394184D01*
X90690135Y-82469996D01*
X90670105Y-82598635D01*
X86850528Y-82598635D01*
X86965451Y-82510451D01*
X87057698Y-82390233D01*
X87059705Y-82385389D01*
X87087572Y-82318111D01*
X87115687Y-82250236D01*
X87116363Y-82245107D01*
X87134816Y-82104937D01*
X87135466Y-82100000D01*
X87131665Y-82071125D01*
X87116337Y-81954698D01*
X87116336Y-81954695D01*
X87115687Y-81949764D01*
X87068356Y-81835497D01*
X87059604Y-81814368D01*
X87059603Y-81814367D01*
X87057698Y-81809767D01*
X86970493Y-81696120D01*
X86968482Y-81693499D01*
X86965451Y-81689549D01*
X86845233Y-81597302D01*
X86839203Y-81594804D01*
X86794677Y-81576361D01*
X86705236Y-81539313D01*
X86700305Y-81538664D01*
X86700302Y-81538663D01*
X86635595Y-81530145D01*
X86592720Y-81524500D01*
X86517280Y-81524500D01*
X86474405Y-81530145D01*
X86409698Y-81538663D01*
X86409695Y-81538664D01*
X86404764Y-81539313D01*
X86315323Y-81576361D01*
X86270798Y-81594804D01*
X86264767Y-81597302D01*
X86144549Y-81689549D01*
X86141518Y-81693499D01*
X86139507Y-81696120D01*
X86052302Y-81809767D01*
X86050397Y-81814367D01*
X86050396Y-81814368D01*
X86041644Y-81835497D01*
X85994313Y-81949764D01*
X85993664Y-81954695D01*
X85993663Y-81954698D01*
X85978335Y-82071125D01*
X85974534Y-82100000D01*
X83620000Y-82100000D01*
X83620000Y-81216215D01*
X83637781Y-81167363D01*
X83651332Y-81154727D01*
X83652729Y-81153712D01*
X83656597Y-81150902D01*
X83673186Y-81130850D01*
X83758956Y-81027172D01*
X83758957Y-81027170D01*
X83762005Y-81023486D01*
X83832414Y-80873859D01*
X83835714Y-80856563D01*
X83852607Y-80768000D01*
X83863400Y-80711423D01*
X83853017Y-80546384D01*
X83849129Y-80534418D01*
X83803394Y-80393660D01*
X83803392Y-80393656D01*
X83801916Y-80389113D01*
X83726784Y-80270723D01*
X83715621Y-80219948D01*
X83739706Y-80173877D01*
X83790953Y-80154000D01*
X85950930Y-80154000D01*
X85999782Y-80171781D01*
G37*
G04 #@! TD.AperFunction*
M02*
