G04 #@! TF.GenerationSoftware,KiCad,Pcbnew,6.0.0-d3dd2cf0fa~116~ubuntu20.04.1*
G04 #@! TF.CreationDate,2022-01-09T18:53:20+01:00*
G04 #@! TF.ProjectId,TS100C,54533130-3043-42e6-9b69-6361645f7063,rev?*
G04 #@! TF.SameCoordinates,Original*
G04 #@! TF.FileFunction,Soldermask,Bot*
G04 #@! TF.FilePolarity,Negative*
%FSLAX46Y46*%
G04 Gerber Fmt 4.6, Leading zero omitted, Abs format (unit mm)*
G04 Created by KiCad (PCBNEW 6.0.0-d3dd2cf0fa~116~ubuntu20.04.1) date 2022-01-09 18:53:20*
%MOMM*%
%LPD*%
G01*
G04 APERTURE LIST*
G04 Aperture macros list*
%AMRoundRect*
0 Rectangle with rounded corners*
0 $1 Rounding radius*
0 $2 $3 $4 $5 $6 $7 $8 $9 X,Y pos of 4 corners*
0 Add a 4 corners polygon primitive as box body*
4,1,4,$2,$3,$4,$5,$6,$7,$8,$9,$2,$3,0*
0 Add four circle primitives for the rounded corners*
1,1,$1+$1,$2,$3*
1,1,$1+$1,$4,$5*
1,1,$1+$1,$6,$7*
1,1,$1+$1,$8,$9*
0 Add four rect primitives between the rounded corners*
20,1,$1+$1,$2,$3,$4,$5,0*
20,1,$1+$1,$4,$5,$6,$7,0*
20,1,$1+$1,$6,$7,$8,$9,0*
20,1,$1+$1,$8,$9,$2,$3,0*%
G04 Aperture macros list end*
G04 #@! TA.AperFunction,Profile*
%ADD10C,0.150000*%
G04 #@! TD*
%ADD11O,3.000000X2.000000*%
%ADD12C,0.988060*%
%ADD13C,0.985520*%
%ADD14R,5.000000X3.960000*%
%ADD15RoundRect,0.147500X-0.147500X-0.172500X0.147500X-0.172500X0.147500X0.172500X-0.147500X0.172500X0*%
%ADD16RoundRect,0.147500X0.147500X0.172500X-0.147500X0.172500X-0.147500X-0.172500X0.147500X-0.172500X0*%
%ADD17R,0.650000X1.050000*%
%ADD18R,2.000000X0.320000*%
%ADD19C,0.650000*%
%ADD20R,1.450000X0.600000*%
%ADD21R,1.450000X0.300000*%
%ADD22O,1.600000X1.000000*%
%ADD23O,2.100000X1.000000*%
G04 APERTURE END LIST*
D10*
X130000000Y-80000000D02*
X131000000Y-80500000D01*
X131000000Y-80500000D02*
X164000000Y-80500000D01*
X80000000Y-80000000D02*
X80000000Y-90000000D01*
X164000000Y-80500000D02*
X164000000Y-89500000D01*
X130000000Y-90000000D02*
X80000000Y-90000000D01*
X130000000Y-90000000D02*
X131000000Y-89500000D01*
X131000000Y-89500000D02*
X164000000Y-89500000D01*
X80000000Y-80000000D02*
X130000000Y-80000000D01*
D11*
X150750000Y-85000000D03*
D12*
X116485000Y-87975000D03*
D13*
X121565000Y-86959000D03*
X121565000Y-88991000D03*
D14*
X161000000Y-85000000D03*
D15*
X127790000Y-86025000D03*
X128760000Y-86025000D03*
X127790000Y-87025000D03*
X128760000Y-87025000D03*
X127790000Y-85025000D03*
X128760000Y-85025000D03*
X127790000Y-89025000D03*
X128760000Y-89025000D03*
D16*
X128235000Y-80975000D03*
X127265000Y-80975000D03*
D15*
X127240000Y-82200000D03*
X128210000Y-82200000D03*
D17*
X141575000Y-87075000D03*
X141575000Y-82925000D03*
X139425000Y-82925000D03*
X139425000Y-87075000D03*
X155850000Y-87075000D03*
X155850000Y-82925000D03*
X153700000Y-87075000D03*
X153700000Y-82925000D03*
D18*
X125000000Y-81060000D03*
X125000000Y-81666153D03*
X125000000Y-82272306D03*
X125000000Y-82878459D03*
X125000000Y-83484612D03*
X125000000Y-84090765D03*
X125000000Y-84696918D03*
X125000000Y-85303071D03*
X125000000Y-85909224D03*
X125000000Y-86515377D03*
X125000000Y-87121530D03*
X125000000Y-87727683D03*
X125000000Y-88333836D03*
X125000000Y-88940000D03*
D15*
X127790000Y-88025000D03*
X128760000Y-88025000D03*
D19*
X86555000Y-82100000D03*
X86555000Y-87880000D03*
D20*
X88000000Y-88190000D03*
X88000000Y-87390000D03*
D21*
X88000000Y-86240000D03*
X88000000Y-85240000D03*
X88000000Y-84740000D03*
X88000000Y-83740000D03*
D20*
X88000000Y-81790000D03*
X88000000Y-82590000D03*
D21*
X88000000Y-83240000D03*
X88000000Y-84240000D03*
X88000000Y-85740000D03*
X88000000Y-86740000D03*
D22*
X82905000Y-89310000D03*
D23*
X87085000Y-80670000D03*
D22*
X82905000Y-80670000D03*
D23*
X87085000Y-89310000D03*
D15*
X127790000Y-84025000D03*
X128760000Y-84025000D03*
M02*
