M48
; DRILL file {KiCad 5.1.4+dfsg1-1} date Mo 13 Apr 2020 21:52:37 CEST
; FORMAT={-:-/ absolute / inch / decimal}
; #@! TF.CreationDate,2020-04-13T21:52:37+02:00
; #@! TF.GenerationSoftware,Kicad,Pcbnew,5.1.4+dfsg1-1
; #@! TF.FileFunction,Plated,1,2,PTH
FMAT,2
INCH
T1C0.0118
T2C0.0157
T3C0.0236
%
G90
G05
T1
X3.1713Y-4.0768
X3.3366Y-4.5
X3.3898Y-4.498
X3.6122Y-4.5654
X3.7258Y-4.3171
X3.7303Y-4.3465
X3.748Y-4.0276
X3.7795Y-4.7028
X3.7795Y-4.5945
X3.7874Y-4.0748
X3.7913Y-4.0236
X3.8346Y-4.0197
X3.8366Y-4.0571
X3.8425Y-4.0925
X3.8917Y-4.0276
T2
X2.6417Y-4.4252
X2.7165Y-4.4252
X3.2283Y-4.311
X3.2283Y-4.3898
X3.248Y-4.0748
X3.248Y-4.1535
X3.2795Y-4.2244
X3.2874Y-4.1535
X3.2913Y-4.189
X3.3228Y-4.2953
X3.3228Y-4.3661
X3.3701Y-4.4441
X3.3937Y-4.2953
X3.3937Y-4.3661
X3.4921Y-4.2362
X3.5039Y-4.1929
X3.5197Y-4.3307
X3.5236Y-4.4685
X3.5591Y-4.2087
X3.5591Y-4.3189
X3.5591Y-4.4291
X3.5925Y-4.1732
T3
X3.7388Y-4.1606G85X3.6955Y-4.1606
G05
X3.7388Y-4.5008G85X3.6955Y-4.5008
G05
X3.8935Y-4.1606G85X3.8699Y-4.1606
G05
X3.8935Y-4.5008G85X3.8699Y-4.5008
G05
T0
M30
