G04 #@! TF.GenerationSoftware,KiCad,Pcbnew,5.1.4+dfsg1-1*
G04 #@! TF.CreationDate,2020-04-13T21:52:35+02:00*
G04 #@! TF.ProjectId,OtterIron_PRO_Top,4f747465-7249-4726-9f6e-5f50524f5f54,rev?*
G04 #@! TF.SameCoordinates,Original*
G04 #@! TF.FileFunction,Legend,Bot*
G04 #@! TF.FilePolarity,Positive*
%FSLAX46Y46*%
G04 Gerber Fmt 4.6, Leading zero omitted, Abs format (unit mm)*
G04 Created by KiCad (PCBNEW 5.1.4+dfsg1-1) date 2020-04-13 21:52:35*
%MOMM*%
%LPD*%
G04 APERTURE LIST*
%ADD10C,0.120000*%
%ADD11C,0.150000*%
%ADD12C,0.100000*%
G04 APERTURE END LIST*
D10*
X66150000Y-110700000D02*
X66850000Y-110700000D01*
X63450000Y-109500000D02*
X64150000Y-109500000D01*
X82050000Y-107200000D02*
X82750000Y-107200000D01*
X64850000Y-110700000D02*
X65550000Y-110700000D01*
X62700000Y-111850000D02*
X62700000Y-112550000D01*
X87850000Y-112900000D02*
X88550000Y-112900000D01*
X88050000Y-106600000D02*
X87350000Y-106600000D01*
X86050000Y-106000000D02*
X86750000Y-106000000D01*
X85150000Y-106000000D02*
X84450000Y-106000000D01*
X62700000Y-114250000D02*
X62700000Y-114950000D01*
X62150000Y-105600000D02*
X62850000Y-105600000D01*
X62700000Y-113050000D02*
X62700000Y-113750000D01*
X62850000Y-108000000D02*
X62150000Y-108000000D01*
X86935000Y-107890000D02*
X87410000Y-107890000D01*
X83190000Y-112110000D02*
X83190000Y-111635000D01*
X83665000Y-112110000D02*
X83190000Y-112110000D01*
X87410000Y-112110000D02*
X87410000Y-111635000D01*
X86935000Y-112110000D02*
X87410000Y-112110000D01*
X83190000Y-107890000D02*
X83190000Y-108365000D01*
X83665000Y-107890000D02*
X83190000Y-107890000D01*
X92010000Y-109100000D02*
X92010000Y-111550000D01*
X88790000Y-110900000D02*
X88790000Y-109100000D01*
X83750000Y-120250000D02*
X87250000Y-120250000D01*
X87250000Y-117150000D02*
X83750000Y-117150000D01*
X86450000Y-120900000D02*
X86450000Y-120250000D01*
X84550000Y-120900000D02*
X86450000Y-120900000D01*
X84550000Y-120250000D02*
X84550000Y-120900000D01*
X87250000Y-99750000D02*
X83750000Y-99750000D01*
X83750000Y-102850000D02*
X87250000Y-102850000D01*
X84550000Y-99100000D02*
X84550000Y-99750000D01*
X86450000Y-99100000D02*
X84550000Y-99100000D01*
X86450000Y-99750000D02*
X86450000Y-99100000D01*
D11*
X93000000Y-114000000D02*
X93000000Y-114500000D01*
X93000000Y-105500000D02*
X93000000Y-106000000D01*
X95500000Y-105500000D02*
X97500000Y-105500000D01*
X97500000Y-114500000D02*
X95500000Y-114500000D01*
D12*
X67071428Y-109226190D02*
X67238095Y-108988095D01*
X67357142Y-109226190D02*
X67357142Y-108726190D01*
X67166666Y-108726190D01*
X67119047Y-108750000D01*
X67095238Y-108773809D01*
X67071428Y-108821428D01*
X67071428Y-108892857D01*
X67095238Y-108940476D01*
X67119047Y-108964285D01*
X67166666Y-108988095D01*
X67357142Y-108988095D01*
X66595238Y-109226190D02*
X66880952Y-109226190D01*
X66738095Y-109226190D02*
X66738095Y-108726190D01*
X66785714Y-108797619D01*
X66833333Y-108845238D01*
X66880952Y-108869047D01*
X66285714Y-108726190D02*
X66238095Y-108726190D01*
X66190476Y-108750000D01*
X66166666Y-108773809D01*
X66142857Y-108821428D01*
X66119047Y-108916666D01*
X66119047Y-109035714D01*
X66142857Y-109130952D01*
X66166666Y-109178571D01*
X66190476Y-109202380D01*
X66238095Y-109226190D01*
X66285714Y-109226190D01*
X66333333Y-109202380D01*
X66357142Y-109178571D01*
X66380952Y-109130952D01*
X66404761Y-109035714D01*
X66404761Y-108916666D01*
X66380952Y-108821428D01*
X66357142Y-108773809D01*
X66333333Y-108750000D01*
X66285714Y-108726190D01*
X64321428Y-107976190D02*
X64488095Y-107738095D01*
X64607142Y-107976190D02*
X64607142Y-107476190D01*
X64416666Y-107476190D01*
X64369047Y-107500000D01*
X64345238Y-107523809D01*
X64321428Y-107571428D01*
X64321428Y-107642857D01*
X64345238Y-107690476D01*
X64369047Y-107714285D01*
X64416666Y-107738095D01*
X64607142Y-107738095D01*
X64130952Y-107523809D02*
X64107142Y-107500000D01*
X64059523Y-107476190D01*
X63940476Y-107476190D01*
X63892857Y-107500000D01*
X63869047Y-107523809D01*
X63845238Y-107571428D01*
X63845238Y-107619047D01*
X63869047Y-107690476D01*
X64154761Y-107976190D01*
X63845238Y-107976190D01*
X63416666Y-107642857D02*
X63416666Y-107976190D01*
X63535714Y-107452380D02*
X63654761Y-107809523D01*
X63345238Y-107809523D01*
X82821428Y-105726190D02*
X82988095Y-105488095D01*
X83107142Y-105726190D02*
X83107142Y-105226190D01*
X82916666Y-105226190D01*
X82869047Y-105250000D01*
X82845238Y-105273809D01*
X82821428Y-105321428D01*
X82821428Y-105392857D01*
X82845238Y-105440476D01*
X82869047Y-105464285D01*
X82916666Y-105488095D01*
X83107142Y-105488095D01*
X82630952Y-105273809D02*
X82607142Y-105250000D01*
X82559523Y-105226190D01*
X82440476Y-105226190D01*
X82392857Y-105250000D01*
X82369047Y-105273809D01*
X82345238Y-105321428D01*
X82345238Y-105369047D01*
X82369047Y-105440476D01*
X82654761Y-105726190D01*
X82345238Y-105726190D01*
X82178571Y-105226190D02*
X81869047Y-105226190D01*
X82035714Y-105416666D01*
X81964285Y-105416666D01*
X81916666Y-105440476D01*
X81892857Y-105464285D01*
X81869047Y-105511904D01*
X81869047Y-105630952D01*
X81892857Y-105678571D01*
X81916666Y-105702380D01*
X81964285Y-105726190D01*
X82107142Y-105726190D01*
X82154761Y-105702380D01*
X82178571Y-105678571D01*
X65571428Y-109226190D02*
X65738095Y-108988095D01*
X65857142Y-109226190D02*
X65857142Y-108726190D01*
X65666666Y-108726190D01*
X65619047Y-108750000D01*
X65595238Y-108773809D01*
X65571428Y-108821428D01*
X65571428Y-108892857D01*
X65595238Y-108940476D01*
X65619047Y-108964285D01*
X65666666Y-108988095D01*
X65857142Y-108988095D01*
X65095238Y-109226190D02*
X65380952Y-109226190D01*
X65238095Y-109226190D02*
X65238095Y-108726190D01*
X65285714Y-108797619D01*
X65333333Y-108845238D01*
X65380952Y-108869047D01*
X64928571Y-108726190D02*
X64619047Y-108726190D01*
X64785714Y-108916666D01*
X64714285Y-108916666D01*
X64666666Y-108940476D01*
X64642857Y-108964285D01*
X64619047Y-109011904D01*
X64619047Y-109130952D01*
X64642857Y-109178571D01*
X64666666Y-109202380D01*
X64714285Y-109226190D01*
X64857142Y-109226190D01*
X64904761Y-109202380D01*
X64928571Y-109178571D01*
X65071428Y-112476190D02*
X65238095Y-112238095D01*
X65357142Y-112476190D02*
X65357142Y-111976190D01*
X65166666Y-111976190D01*
X65119047Y-112000000D01*
X65095238Y-112023809D01*
X65071428Y-112071428D01*
X65071428Y-112142857D01*
X65095238Y-112190476D01*
X65119047Y-112214285D01*
X65166666Y-112238095D01*
X65357142Y-112238095D01*
X64595238Y-112476190D02*
X64880952Y-112476190D01*
X64738095Y-112476190D02*
X64738095Y-111976190D01*
X64785714Y-112047619D01*
X64833333Y-112095238D01*
X64880952Y-112119047D01*
X64119047Y-112476190D02*
X64404761Y-112476190D01*
X64261904Y-112476190D02*
X64261904Y-111976190D01*
X64309523Y-112047619D01*
X64357142Y-112095238D01*
X64404761Y-112119047D01*
X88333333Y-114726190D02*
X88500000Y-114488095D01*
X88619047Y-114726190D02*
X88619047Y-114226190D01*
X88428571Y-114226190D01*
X88380952Y-114250000D01*
X88357142Y-114273809D01*
X88333333Y-114321428D01*
X88333333Y-114392857D01*
X88357142Y-114440476D01*
X88380952Y-114464285D01*
X88428571Y-114488095D01*
X88619047Y-114488095D01*
X88166666Y-114226190D02*
X87833333Y-114226190D01*
X88047619Y-114726190D01*
X88321428Y-105178571D02*
X88345238Y-105202380D01*
X88416666Y-105226190D01*
X88464285Y-105226190D01*
X88535714Y-105202380D01*
X88583333Y-105154761D01*
X88607142Y-105107142D01*
X88630952Y-105011904D01*
X88630952Y-104940476D01*
X88607142Y-104845238D01*
X88583333Y-104797619D01*
X88535714Y-104750000D01*
X88464285Y-104726190D01*
X88416666Y-104726190D01*
X88345238Y-104750000D01*
X88321428Y-104773809D01*
X88130952Y-104773809D02*
X88107142Y-104750000D01*
X88059523Y-104726190D01*
X87940476Y-104726190D01*
X87892857Y-104750000D01*
X87869047Y-104773809D01*
X87845238Y-104821428D01*
X87845238Y-104869047D01*
X87869047Y-104940476D01*
X88154761Y-105226190D01*
X87845238Y-105226190D01*
X87369047Y-105226190D02*
X87654761Y-105226190D01*
X87511904Y-105226190D02*
X87511904Y-104726190D01*
X87559523Y-104797619D01*
X87607142Y-104845238D01*
X87654761Y-104869047D01*
X86821428Y-104678571D02*
X86845238Y-104702380D01*
X86916666Y-104726190D01*
X86964285Y-104726190D01*
X87035714Y-104702380D01*
X87083333Y-104654761D01*
X87107142Y-104607142D01*
X87130952Y-104511904D01*
X87130952Y-104440476D01*
X87107142Y-104345238D01*
X87083333Y-104297619D01*
X87035714Y-104250000D01*
X86964285Y-104226190D01*
X86916666Y-104226190D01*
X86845238Y-104250000D01*
X86821428Y-104273809D01*
X86630952Y-104273809D02*
X86607142Y-104250000D01*
X86559523Y-104226190D01*
X86440476Y-104226190D01*
X86392857Y-104250000D01*
X86369047Y-104273809D01*
X86345238Y-104321428D01*
X86345238Y-104369047D01*
X86369047Y-104440476D01*
X86654761Y-104726190D01*
X86345238Y-104726190D01*
X86035714Y-104226190D02*
X85988095Y-104226190D01*
X85940476Y-104250000D01*
X85916666Y-104273809D01*
X85892857Y-104321428D01*
X85869047Y-104416666D01*
X85869047Y-104535714D01*
X85892857Y-104630952D01*
X85916666Y-104678571D01*
X85940476Y-104702380D01*
X85988095Y-104726190D01*
X86035714Y-104726190D01*
X86083333Y-104702380D01*
X86107142Y-104678571D01*
X86130952Y-104630952D01*
X86154761Y-104535714D01*
X86154761Y-104416666D01*
X86130952Y-104321428D01*
X86107142Y-104273809D01*
X86083333Y-104250000D01*
X86035714Y-104226190D01*
X85071428Y-104678571D02*
X85095238Y-104702380D01*
X85166666Y-104726190D01*
X85214285Y-104726190D01*
X85285714Y-104702380D01*
X85333333Y-104654761D01*
X85357142Y-104607142D01*
X85380952Y-104511904D01*
X85380952Y-104440476D01*
X85357142Y-104345238D01*
X85333333Y-104297619D01*
X85285714Y-104250000D01*
X85214285Y-104226190D01*
X85166666Y-104226190D01*
X85095238Y-104250000D01*
X85071428Y-104273809D01*
X84595238Y-104726190D02*
X84880952Y-104726190D01*
X84738095Y-104726190D02*
X84738095Y-104226190D01*
X84785714Y-104297619D01*
X84833333Y-104345238D01*
X84880952Y-104369047D01*
X84357142Y-104726190D02*
X84261904Y-104726190D01*
X84214285Y-104702380D01*
X84190476Y-104678571D01*
X84142857Y-104607142D01*
X84119047Y-104511904D01*
X84119047Y-104321428D01*
X84142857Y-104273809D01*
X84166666Y-104250000D01*
X84214285Y-104226190D01*
X84309523Y-104226190D01*
X84357142Y-104250000D01*
X84380952Y-104273809D01*
X84404761Y-104321428D01*
X84404761Y-104440476D01*
X84380952Y-104488095D01*
X84357142Y-104511904D01*
X84309523Y-104535714D01*
X84214285Y-104535714D01*
X84166666Y-104511904D01*
X84142857Y-104488095D01*
X84119047Y-104440476D01*
X65071428Y-114928571D02*
X65095238Y-114952380D01*
X65166666Y-114976190D01*
X65214285Y-114976190D01*
X65285714Y-114952380D01*
X65333333Y-114904761D01*
X65357142Y-114857142D01*
X65380952Y-114761904D01*
X65380952Y-114690476D01*
X65357142Y-114595238D01*
X65333333Y-114547619D01*
X65285714Y-114500000D01*
X65214285Y-114476190D01*
X65166666Y-114476190D01*
X65095238Y-114500000D01*
X65071428Y-114523809D01*
X64595238Y-114976190D02*
X64880952Y-114976190D01*
X64738095Y-114976190D02*
X64738095Y-114476190D01*
X64785714Y-114547619D01*
X64833333Y-114595238D01*
X64880952Y-114619047D01*
X64142857Y-114476190D02*
X64380952Y-114476190D01*
X64404761Y-114714285D01*
X64380952Y-114690476D01*
X64333333Y-114666666D01*
X64214285Y-114666666D01*
X64166666Y-114690476D01*
X64142857Y-114714285D01*
X64119047Y-114761904D01*
X64119047Y-114880952D01*
X64142857Y-114928571D01*
X64166666Y-114952380D01*
X64214285Y-114976190D01*
X64333333Y-114976190D01*
X64380952Y-114952380D01*
X64404761Y-114928571D01*
X64321428Y-105778571D02*
X64345238Y-105802380D01*
X64416666Y-105826190D01*
X64464285Y-105826190D01*
X64535714Y-105802380D01*
X64583333Y-105754761D01*
X64607142Y-105707142D01*
X64630952Y-105611904D01*
X64630952Y-105540476D01*
X64607142Y-105445238D01*
X64583333Y-105397619D01*
X64535714Y-105350000D01*
X64464285Y-105326190D01*
X64416666Y-105326190D01*
X64345238Y-105350000D01*
X64321428Y-105373809D01*
X63845238Y-105826190D02*
X64130952Y-105826190D01*
X63988095Y-105826190D02*
X63988095Y-105326190D01*
X64035714Y-105397619D01*
X64083333Y-105445238D01*
X64130952Y-105469047D01*
X63416666Y-105492857D02*
X63416666Y-105826190D01*
X63535714Y-105302380D02*
X63654761Y-105659523D01*
X63345238Y-105659523D01*
X65071428Y-113678571D02*
X65095238Y-113702380D01*
X65166666Y-113726190D01*
X65214285Y-113726190D01*
X65285714Y-113702380D01*
X65333333Y-113654761D01*
X65357142Y-113607142D01*
X65380952Y-113511904D01*
X65380952Y-113440476D01*
X65357142Y-113345238D01*
X65333333Y-113297619D01*
X65285714Y-113250000D01*
X65214285Y-113226190D01*
X65166666Y-113226190D01*
X65095238Y-113250000D01*
X65071428Y-113273809D01*
X64595238Y-113726190D02*
X64880952Y-113726190D01*
X64738095Y-113726190D02*
X64738095Y-113226190D01*
X64785714Y-113297619D01*
X64833333Y-113345238D01*
X64880952Y-113369047D01*
X64428571Y-113226190D02*
X64119047Y-113226190D01*
X64285714Y-113416666D01*
X64214285Y-113416666D01*
X64166666Y-113440476D01*
X64142857Y-113464285D01*
X64119047Y-113511904D01*
X64119047Y-113630952D01*
X64142857Y-113678571D01*
X64166666Y-113702380D01*
X64214285Y-113726190D01*
X64357142Y-113726190D01*
X64404761Y-113702380D01*
X64428571Y-113678571D01*
X64321428Y-107178571D02*
X64345238Y-107202380D01*
X64416666Y-107226190D01*
X64464285Y-107226190D01*
X64535714Y-107202380D01*
X64583333Y-107154761D01*
X64607142Y-107107142D01*
X64630952Y-107011904D01*
X64630952Y-106940476D01*
X64607142Y-106845238D01*
X64583333Y-106797619D01*
X64535714Y-106750000D01*
X64464285Y-106726190D01*
X64416666Y-106726190D01*
X64345238Y-106750000D01*
X64321428Y-106773809D01*
X63845238Y-107226190D02*
X64130952Y-107226190D01*
X63988095Y-107226190D02*
X63988095Y-106726190D01*
X64035714Y-106797619D01*
X64083333Y-106845238D01*
X64130952Y-106869047D01*
X63654761Y-106773809D02*
X63630952Y-106750000D01*
X63583333Y-106726190D01*
X63464285Y-106726190D01*
X63416666Y-106750000D01*
X63392857Y-106773809D01*
X63369047Y-106821428D01*
X63369047Y-106869047D01*
X63392857Y-106940476D01*
X63678571Y-107226190D01*
X63369047Y-107226190D01*
X82380952Y-109726190D02*
X82380952Y-110130952D01*
X82357142Y-110178571D01*
X82333333Y-110202380D01*
X82285714Y-110226190D01*
X82190476Y-110226190D01*
X82142857Y-110202380D01*
X82119047Y-110178571D01*
X82095238Y-110130952D01*
X82095238Y-109726190D01*
X81904761Y-109726190D02*
X81595238Y-109726190D01*
X81761904Y-109916666D01*
X81690476Y-109916666D01*
X81642857Y-109940476D01*
X81619047Y-109964285D01*
X81595238Y-110011904D01*
X81595238Y-110130952D01*
X81619047Y-110178571D01*
X81642857Y-110202380D01*
X81690476Y-110226190D01*
X81833333Y-110226190D01*
X81880952Y-110202380D01*
X81904761Y-110178571D01*
X91630952Y-111976190D02*
X91630952Y-112380952D01*
X91607142Y-112428571D01*
X91583333Y-112452380D01*
X91535714Y-112476190D01*
X91440476Y-112476190D01*
X91392857Y-112452380D01*
X91369047Y-112428571D01*
X91345238Y-112380952D01*
X91345238Y-111976190D01*
X90845238Y-112476190D02*
X91130952Y-112476190D01*
X90988095Y-112476190D02*
X90988095Y-111976190D01*
X91035714Y-112047619D01*
X91083333Y-112095238D01*
X91130952Y-112119047D01*
X86166666Y-116702380D02*
X86095238Y-116726190D01*
X85976190Y-116726190D01*
X85928571Y-116702380D01*
X85904761Y-116678571D01*
X85880952Y-116630952D01*
X85880952Y-116583333D01*
X85904761Y-116535714D01*
X85928571Y-116511904D01*
X85976190Y-116488095D01*
X86071428Y-116464285D01*
X86119047Y-116440476D01*
X86142857Y-116416666D01*
X86166666Y-116369047D01*
X86166666Y-116321428D01*
X86142857Y-116273809D01*
X86119047Y-116250000D01*
X86071428Y-116226190D01*
X85952380Y-116226190D01*
X85880952Y-116250000D01*
X85714285Y-116226190D02*
X85595238Y-116726190D01*
X85500000Y-116369047D01*
X85404761Y-116726190D01*
X85285714Y-116226190D01*
X85119047Y-116273809D02*
X85095238Y-116250000D01*
X85047619Y-116226190D01*
X84928571Y-116226190D01*
X84880952Y-116250000D01*
X84857142Y-116273809D01*
X84833333Y-116321428D01*
X84833333Y-116369047D01*
X84857142Y-116440476D01*
X85142857Y-116726190D01*
X84833333Y-116726190D01*
X86166666Y-103702380D02*
X86095238Y-103726190D01*
X85976190Y-103726190D01*
X85928571Y-103702380D01*
X85904761Y-103678571D01*
X85880952Y-103630952D01*
X85880952Y-103583333D01*
X85904761Y-103535714D01*
X85928571Y-103511904D01*
X85976190Y-103488095D01*
X86071428Y-103464285D01*
X86119047Y-103440476D01*
X86142857Y-103416666D01*
X86166666Y-103369047D01*
X86166666Y-103321428D01*
X86142857Y-103273809D01*
X86119047Y-103250000D01*
X86071428Y-103226190D01*
X85952380Y-103226190D01*
X85880952Y-103250000D01*
X85714285Y-103226190D02*
X85595238Y-103726190D01*
X85500000Y-103369047D01*
X85404761Y-103726190D01*
X85285714Y-103226190D01*
X84833333Y-103726190D02*
X85119047Y-103726190D01*
X84976190Y-103726190D02*
X84976190Y-103226190D01*
X85023809Y-103297619D01*
X85071428Y-103345238D01*
X85119047Y-103369047D01*
M02*
