G04 #@! TF.GenerationSoftware,KiCad,Pcbnew,5.1.4+dfsg1-1*
G04 #@! TF.CreationDate,2020-04-13T21:52:35+02:00*
G04 #@! TF.ProjectId,OtterIron_PRO_Top,4f747465-7249-4726-9f6e-5f50524f5f54,rev?*
G04 #@! TF.SameCoordinates,Original*
G04 #@! TF.FileFunction,Copper,L2,Bot*
G04 #@! TF.FilePolarity,Positive*
%FSLAX46Y46*%
G04 Gerber Fmt 4.6, Leading zero omitted, Abs format (unit mm)*
G04 Created by KiCad (PCBNEW 5.1.4+dfsg1-1) date 2020-04-13 21:52:35*
%MOMM*%
%LPD*%
G04 APERTURE LIST*
%ADD10R,0.900000X0.600000*%
%ADD11R,4.000000X0.320000*%
%ADD12R,0.600000X0.900000*%
%ADD13R,0.250000X0.825000*%
%ADD14R,0.825000X0.250000*%
%ADD15R,2.650000X2.650000*%
%ADD16R,0.650000X1.060000*%
%ADD17R,1.400000X1.050000*%
%ADD18R,1.450000X0.600000*%
%ADD19O,2.100000X1.000000*%
%ADD20O,1.600000X1.000000*%
%ADD21R,1.450000X0.300000*%
%ADD22C,0.700000*%
%ADD23C,0.600000*%
%ADD24C,0.154000*%
%ADD25C,0.800000*%
%ADD26C,0.500000*%
%ADD27C,0.200000*%
%ADD28C,0.300000*%
%ADD29C,0.100000*%
%ADD30C,0.254000*%
G04 APERTURE END LIST*
D10*
X66500000Y-109950000D03*
X66500000Y-111450000D03*
D11*
X58700000Y-106069223D03*
X58700000Y-106675376D03*
X58700000Y-107281529D03*
X58700000Y-107887682D03*
X58700000Y-108493835D03*
X58700000Y-109099988D03*
X58700000Y-109706141D03*
X58700000Y-110312294D03*
X58700000Y-110918447D03*
X58700000Y-111524600D03*
X58700000Y-112130753D03*
X58700000Y-112736906D03*
X58700000Y-113343059D03*
X58700000Y-113949223D03*
D10*
X63800000Y-108750000D03*
X63800000Y-110250000D03*
X82400000Y-106450000D03*
X82400000Y-107950000D03*
X65200000Y-109950000D03*
X65200000Y-111450000D03*
D12*
X63450000Y-112200000D03*
X61950000Y-112200000D03*
D10*
X88200000Y-112150000D03*
X88200000Y-113650000D03*
X87700000Y-107350000D03*
X87700000Y-105850000D03*
X86400000Y-105250000D03*
X86400000Y-106750000D03*
X84800000Y-106750000D03*
X84800000Y-105250000D03*
D12*
X63450000Y-114600000D03*
X61950000Y-114600000D03*
D10*
X62500000Y-104850000D03*
X62500000Y-106350000D03*
D12*
X63450000Y-113400000D03*
X61950000Y-113400000D03*
D10*
X62500000Y-108750000D03*
X62500000Y-107250000D03*
D13*
X86550000Y-108037500D03*
X86050000Y-108037500D03*
X85550000Y-108037500D03*
X85050000Y-108037500D03*
X84550000Y-108037500D03*
X84050000Y-108037500D03*
D14*
X83337500Y-108750000D03*
X83337500Y-109250000D03*
X83337500Y-109750000D03*
X83337500Y-110250000D03*
X83337500Y-110750000D03*
X83337500Y-111250000D03*
D13*
X84050000Y-111962500D03*
X84550000Y-111962500D03*
X85050000Y-111962500D03*
X85550000Y-111962500D03*
X86050000Y-111962500D03*
X86550000Y-111962500D03*
D14*
X87262500Y-111250000D03*
X87262500Y-110750000D03*
X87262500Y-110250000D03*
X87262500Y-109750000D03*
X87262500Y-109250000D03*
X87262500Y-108750000D03*
D15*
X85300000Y-110000000D03*
D16*
X90400000Y-108900000D03*
X91350000Y-108900000D03*
X89450000Y-108900000D03*
X89450000Y-111100000D03*
X90400000Y-111100000D03*
X91350000Y-111100000D03*
D17*
X87300000Y-119420000D03*
X83700000Y-119420000D03*
X87300000Y-117980000D03*
X83700000Y-117980000D03*
X83700000Y-100580000D03*
X87300000Y-100580000D03*
X83700000Y-102020000D03*
X87300000Y-102020000D03*
D18*
X93500000Y-107600000D03*
X93500000Y-112400000D03*
X93500000Y-113200000D03*
X93500000Y-106800000D03*
D19*
X94415000Y-105680000D03*
X94415000Y-114320000D03*
D20*
X98595000Y-105680000D03*
X98595000Y-114320000D03*
D18*
X93500000Y-113200000D03*
X93500000Y-112400000D03*
D21*
X93500000Y-111750000D03*
X93500000Y-111250000D03*
X93500000Y-110750000D03*
X93500000Y-110250000D03*
X93500000Y-109750000D03*
X93500000Y-109250000D03*
X93500000Y-108750000D03*
X93500000Y-108250000D03*
D18*
X93500000Y-107600000D03*
X93500000Y-106800000D03*
D22*
X84400000Y-110900000D03*
X86200000Y-110900000D03*
X86200000Y-109100000D03*
X84400000Y-109100000D03*
X89400000Y-110000000D03*
X89500000Y-113500000D03*
X89000000Y-106500000D03*
X83500000Y-105500000D03*
X82500000Y-105500000D03*
X91250000Y-106000000D03*
X82000000Y-111500000D03*
X82000000Y-109500000D03*
X82500000Y-103500000D03*
D23*
X86100000Y-114250000D03*
X84750000Y-114300000D03*
X97400000Y-102100000D03*
X97450000Y-103050000D03*
X98850000Y-102300000D03*
D22*
X88700000Y-107600000D03*
X83300000Y-107300000D03*
D23*
X96300000Y-102200000D03*
X95200000Y-102300000D03*
X96200000Y-103500000D03*
X97600000Y-103950000D03*
D22*
X90400000Y-109700000D03*
X90400000Y-106900000D03*
X90400000Y-112500000D03*
D23*
X96000002Y-116700000D03*
X94635348Y-109654756D03*
X94750000Y-110400000D03*
X91750000Y-115960979D03*
D22*
X67100000Y-112400000D03*
X85600000Y-112879002D03*
X69000002Y-112400000D03*
X83600000Y-106400000D03*
D23*
X80550000Y-103550000D03*
X96000000Y-119450000D03*
D24*
X85050000Y-110250000D02*
X85300000Y-110000000D01*
X85050000Y-111962500D02*
X85050000Y-110250000D01*
X84050000Y-111962500D02*
X84050000Y-111250000D01*
X83337500Y-111250000D02*
X84050000Y-111250000D01*
X89620802Y-110000000D02*
X89400000Y-110000000D01*
X90400000Y-111100000D02*
X90400000Y-110779198D01*
X90400000Y-110779198D02*
X89620802Y-110000000D01*
D25*
X98595000Y-105680000D02*
X98595000Y-114320000D01*
D24*
X86550000Y-107950000D02*
X86550000Y-108037500D01*
X86900000Y-107600000D02*
X86550000Y-107950000D01*
X87700000Y-107600000D02*
X86900000Y-107600000D01*
X93500000Y-107600000D02*
X88700000Y-107600000D01*
X88700000Y-107600000D02*
X87700000Y-107600000D01*
X82550000Y-106450000D02*
X83300000Y-107200000D01*
X82400000Y-106450000D02*
X82550000Y-106450000D01*
X83300000Y-107200000D02*
X83300000Y-107300000D01*
D26*
X92275000Y-107600000D02*
X92200000Y-107525000D01*
X93500000Y-107600000D02*
X92275000Y-107600000D01*
X92200000Y-107525000D02*
X92200000Y-105800000D01*
X92200000Y-105800000D02*
X93500000Y-104500000D01*
X93500000Y-104500000D02*
X95300000Y-104500000D01*
X95300000Y-104500000D02*
X96000000Y-105200000D01*
X96000000Y-105200000D02*
X96000000Y-106700000D01*
X92547798Y-112400000D02*
X92200000Y-112747798D01*
X93500000Y-112400000D02*
X92547798Y-112400000D01*
X92200000Y-112747798D02*
X92200000Y-114200000D01*
X92200000Y-114200000D02*
X93500000Y-115500000D01*
X93500000Y-115500000D02*
X95300000Y-115500000D01*
X95300000Y-115500000D02*
X95900000Y-114900000D01*
X95900000Y-114900000D02*
X95900000Y-113400000D01*
D24*
X85800000Y-118500000D02*
X86320000Y-117980000D01*
X86320000Y-117980000D02*
X87300000Y-117980000D01*
X85137000Y-118500000D02*
X85800000Y-118500000D01*
X83700000Y-117980000D02*
X84617000Y-117980000D01*
X84617000Y-117980000D02*
X85137000Y-118500000D01*
X86320000Y-102020000D02*
X87300000Y-102020000D01*
X85800000Y-101500000D02*
X86320000Y-102020000D01*
X83700000Y-102020000D02*
X84680000Y-102020000D01*
X85200000Y-101500000D02*
X85800000Y-101500000D01*
X84680000Y-102020000D02*
X85200000Y-101500000D01*
D27*
X64550000Y-109450000D02*
X65050000Y-109950000D01*
X65050000Y-109950000D02*
X65200000Y-109950000D01*
X60900000Y-110312294D02*
X61762294Y-109450000D01*
X58700000Y-110312294D02*
X60900000Y-110312294D01*
X63800000Y-109400000D02*
X63750000Y-109450000D01*
X63800000Y-108750000D02*
X63800000Y-109400000D01*
X61762294Y-109450000D02*
X63750000Y-109450000D01*
X63750000Y-109450000D02*
X64550000Y-109450000D01*
X65200000Y-109950000D02*
X66500000Y-109950000D01*
X61753082Y-109450000D02*
X61762294Y-109450000D01*
X58700000Y-108493835D02*
X60796917Y-108493835D01*
X60796917Y-108493835D02*
X61753082Y-109450000D01*
X83550000Y-102170000D02*
X83700000Y-102020000D01*
X90400000Y-108900000D02*
X90400000Y-109700000D01*
D28*
X85550000Y-104450000D02*
X85554001Y-104454001D01*
X85554001Y-104454001D02*
X85554001Y-107395999D01*
D27*
X85550000Y-107400000D02*
X85550000Y-108037500D01*
X85554001Y-107395999D02*
X85550000Y-107400000D01*
D28*
X90400000Y-106900000D02*
X87950000Y-104450000D01*
D24*
X87300000Y-104400000D02*
X87350000Y-104450000D01*
X87300000Y-102020000D02*
X87300000Y-104400000D01*
D28*
X87950000Y-104450000D02*
X87350000Y-104450000D01*
X87350000Y-104450000D02*
X85550000Y-104450000D01*
X90400000Y-112500000D02*
X90400000Y-113324264D01*
X93775736Y-116700000D02*
X95575738Y-116700000D01*
X95575738Y-116700000D02*
X96000002Y-116700000D01*
X90400000Y-113324264D02*
X93775736Y-116700000D01*
D24*
X87475000Y-117980000D02*
X87300000Y-117980000D01*
X87545000Y-118050000D02*
X87475000Y-117980000D01*
X92550000Y-118050000D02*
X87545000Y-118050000D01*
X96000002Y-116700000D02*
X93900000Y-116700000D01*
X93900000Y-116700000D02*
X92550000Y-118050000D01*
D28*
X82100000Y-104450000D02*
X85550000Y-104450000D01*
X66500000Y-109950000D02*
X76600000Y-109950000D01*
X76600000Y-109950000D02*
X82100000Y-104450000D01*
D27*
X58700000Y-107887682D02*
X61487682Y-107887682D01*
X62350000Y-108750000D02*
X62500000Y-108750000D01*
X61487682Y-107887682D02*
X62350000Y-108750000D01*
X62468471Y-107281529D02*
X62500000Y-107250000D01*
X58700000Y-107281529D02*
X62468471Y-107281529D01*
X61893059Y-113343059D02*
X61950000Y-113400000D01*
X58700000Y-113343059D02*
X61893059Y-113343059D01*
X62350000Y-104850000D02*
X62500000Y-104850000D01*
X58700000Y-106069223D02*
X61130777Y-106069223D01*
X61130777Y-106069223D02*
X62350000Y-104850000D01*
X61950000Y-106350000D02*
X62500000Y-106350000D01*
X58700000Y-106675376D02*
X61624624Y-106675376D01*
X61624624Y-106675376D02*
X61950000Y-106350000D01*
X61299223Y-113949223D02*
X61950000Y-114600000D01*
X58700000Y-113949223D02*
X61299223Y-113949223D01*
D24*
X85050000Y-107000000D02*
X84800000Y-106750000D01*
X85050000Y-108037500D02*
X85050000Y-107000000D01*
X86050000Y-107100000D02*
X86400000Y-106750000D01*
X86050000Y-108037500D02*
X86050000Y-107100000D01*
X89450000Y-111784000D02*
X89450000Y-111100000D01*
X89527001Y-111861001D02*
X89450000Y-111784000D01*
X92621000Y-111750000D02*
X92509999Y-111861001D01*
X92509999Y-111861001D02*
X89527001Y-111861001D01*
X93500000Y-111750000D02*
X92621000Y-111750000D01*
X89100000Y-110750000D02*
X89450000Y-111100000D01*
X87262500Y-110750000D02*
X89100000Y-110750000D01*
X87262500Y-110250000D02*
X87262500Y-110750000D01*
X94540104Y-109750000D02*
X94635348Y-109654756D01*
X93500000Y-109750000D02*
X94540104Y-109750000D01*
X92621000Y-110750000D02*
X92400000Y-110529000D01*
X93500000Y-110750000D02*
X92621000Y-110750000D01*
X92621000Y-109750000D02*
X93500000Y-109750000D01*
X92400000Y-109971000D02*
X92621000Y-109750000D01*
X92400000Y-110529000D02*
X92400000Y-109971000D01*
X91350000Y-110900000D02*
X91350000Y-111100000D01*
X92400000Y-110529000D02*
X91721000Y-110529000D01*
X91721000Y-110529000D02*
X91350000Y-110900000D01*
X91350000Y-109105000D02*
X91350000Y-108900000D01*
X94600000Y-110250000D02*
X93500000Y-110250000D01*
X94750000Y-110400000D02*
X94600000Y-110250000D01*
X93500000Y-109250000D02*
X92621000Y-109250000D01*
X94750000Y-110400000D02*
X95300000Y-109850000D01*
X95300000Y-109850000D02*
X95300000Y-109350000D01*
X95300000Y-109350000D02*
X95050000Y-109100000D01*
X94290802Y-109250000D02*
X93500000Y-109250000D01*
X94440802Y-109100000D02*
X94290802Y-109250000D01*
X95050000Y-109100000D02*
X94440802Y-109100000D01*
X91600000Y-109250000D02*
X92600000Y-109250000D01*
X91500000Y-108900000D02*
X91500000Y-109150000D01*
X91500000Y-109150000D02*
X91600000Y-109250000D01*
X89300000Y-108750000D02*
X89450000Y-108900000D01*
X87262500Y-108750000D02*
X89300000Y-108750000D01*
X92009999Y-108138999D02*
X89527001Y-108138999D01*
X89450000Y-108216000D02*
X89450000Y-108900000D01*
X89527001Y-108138999D02*
X89450000Y-108216000D01*
X92621000Y-108750000D02*
X92009999Y-108138999D01*
X93500000Y-108750000D02*
X92621000Y-108750000D01*
X87262500Y-109250000D02*
X87262500Y-108750000D01*
D27*
X60900000Y-110918447D02*
X61568447Y-110250000D01*
X63150000Y-110250000D02*
X63800000Y-110250000D01*
X61568447Y-110250000D02*
X63150000Y-110250000D01*
X58700000Y-110918447D02*
X60900000Y-110918447D01*
X66350000Y-111450000D02*
X66500000Y-111450000D01*
X61546152Y-110895999D02*
X65795999Y-110895999D01*
X60917551Y-111524600D02*
X61546152Y-110895999D01*
X65795999Y-110895999D02*
X66350000Y-111450000D01*
X58700000Y-111524600D02*
X60917551Y-111524600D01*
X86550000Y-112950000D02*
X86550000Y-111962500D01*
D24*
X86550000Y-112950000D02*
X86550000Y-113165802D01*
X86550000Y-113165802D02*
X89345177Y-115960979D01*
X91325736Y-115960979D02*
X91750000Y-115960979D01*
X89345177Y-115960979D02*
X91325736Y-115960979D01*
D27*
X86000000Y-113500000D02*
X86550000Y-112950000D01*
X69200000Y-113500000D02*
X86000000Y-113500000D01*
X66500000Y-111450000D02*
X67150000Y-111450000D01*
X67150000Y-111450000D02*
X69200000Y-113500000D01*
X61580753Y-111450000D02*
X64550000Y-111450000D01*
X60900000Y-112130753D02*
X61580753Y-111450000D01*
X64550000Y-111450000D02*
X65200000Y-111450000D01*
X58700000Y-112130753D02*
X60900000Y-112130753D01*
X65250000Y-111450000D02*
X65200000Y-111450000D01*
X67100000Y-112400000D02*
X66200000Y-112400000D01*
X66200000Y-112400000D02*
X65250000Y-111450000D01*
X86050000Y-111962500D02*
X86050000Y-112850000D01*
X86050000Y-112850000D02*
X85800000Y-113100000D01*
D24*
X85800000Y-113100000D02*
X85800000Y-113079002D01*
X85800000Y-113079002D02*
X85600000Y-112879002D01*
D27*
X69700002Y-113100000D02*
X69350001Y-112749999D01*
X85800000Y-113100000D02*
X69700002Y-113100000D01*
X69350001Y-112749999D02*
X69000002Y-112400000D01*
X61413094Y-112736906D02*
X61950000Y-112200000D01*
X58700000Y-112736906D02*
X61413094Y-112736906D01*
D24*
X84050000Y-108037500D02*
X84050000Y-106850000D01*
X84050000Y-106850000D02*
X83600000Y-106400000D01*
X87300000Y-111250000D02*
X88200000Y-112150000D01*
X87262500Y-111250000D02*
X87300000Y-111250000D01*
D27*
X83200000Y-108750000D02*
X82400000Y-107950000D01*
X83337500Y-108750000D02*
X83200000Y-108750000D01*
D24*
X86283000Y-100580000D02*
X87300000Y-100580000D01*
X85763000Y-101100000D02*
X86283000Y-100580000D01*
X85237000Y-101100000D02*
X85763000Y-101100000D01*
X83700000Y-100580000D02*
X84717000Y-100580000D01*
X84717000Y-100580000D02*
X85237000Y-101100000D01*
X80555000Y-103550000D02*
X80550000Y-103550000D01*
X83700000Y-100580000D02*
X83525000Y-100580000D01*
X83525000Y-100580000D02*
X80555000Y-103550000D01*
X86320000Y-119420000D02*
X87300000Y-119420000D01*
X85800000Y-118900000D02*
X86320000Y-119420000D01*
X83700000Y-119420000D02*
X84617000Y-119420000D01*
X85137000Y-118900000D02*
X85800000Y-118900000D01*
X84617000Y-119420000D02*
X85137000Y-118900000D01*
X87300000Y-119420000D02*
X95970000Y-119420000D01*
X95970000Y-119420000D02*
X96000000Y-119450000D01*
D29*
G36*
X95196000Y-105166710D02*
G01*
X95196000Y-106215500D01*
X94815007Y-106596493D01*
X94790696Y-106601329D01*
X94694424Y-106641206D01*
X94607782Y-106699099D01*
X94534099Y-106772782D01*
X94476206Y-106859424D01*
X94436329Y-106955696D01*
X94431493Y-106980007D01*
X94415500Y-106996000D01*
X92750000Y-106996000D01*
X92750000Y-106020710D01*
X93720710Y-105050000D01*
X95079290Y-105050000D01*
X95196000Y-105166710D01*
X95196000Y-105166710D01*
G37*
X95196000Y-105166710D02*
X95196000Y-106215500D01*
X94815007Y-106596493D01*
X94790696Y-106601329D01*
X94694424Y-106641206D01*
X94607782Y-106699099D01*
X94534099Y-106772782D01*
X94476206Y-106859424D01*
X94436329Y-106955696D01*
X94431493Y-106980007D01*
X94415500Y-106996000D01*
X92750000Y-106996000D01*
X92750000Y-106020710D01*
X93720710Y-105050000D01*
X95079290Y-105050000D01*
X95196000Y-105166710D01*
G36*
X94431493Y-113019993D02*
G01*
X94436329Y-113044304D01*
X94476206Y-113140576D01*
X94534099Y-113227218D01*
X94607782Y-113300901D01*
X94694424Y-113358794D01*
X94790696Y-113398671D01*
X94815007Y-113403507D01*
X95255750Y-113844250D01*
X95286664Y-113869620D01*
X95312971Y-113883681D01*
X95446001Y-114016711D01*
X95446000Y-114583290D01*
X95079290Y-114950000D01*
X93720710Y-114950000D01*
X92750000Y-113979290D01*
X92750000Y-113004000D01*
X94415500Y-113004000D01*
X94431493Y-113019993D01*
X94431493Y-113019993D01*
G37*
X94431493Y-113019993D02*
X94436329Y-113044304D01*
X94476206Y-113140576D01*
X94534099Y-113227218D01*
X94607782Y-113300901D01*
X94694424Y-113358794D01*
X94790696Y-113398671D01*
X94815007Y-113403507D01*
X95255750Y-113844250D01*
X95286664Y-113869620D01*
X95312971Y-113883681D01*
X95446001Y-114016711D01*
X95446000Y-114583290D01*
X95079290Y-114950000D01*
X93720710Y-114950000D01*
X92750000Y-113979290D01*
X92750000Y-113004000D01*
X94415500Y-113004000D01*
X94431493Y-113019993D01*
G36*
X97750000Y-113650000D02*
G01*
X95420710Y-113650000D01*
X95148856Y-113378146D01*
X95195576Y-113358794D01*
X95282218Y-113300901D01*
X95355901Y-113227218D01*
X95413794Y-113140576D01*
X95453671Y-113044304D01*
X95474000Y-112942102D01*
X95474000Y-112837898D01*
X95453671Y-112735696D01*
X95413794Y-112639424D01*
X95355901Y-112552782D01*
X95282218Y-112479099D01*
X95195576Y-112421206D01*
X95099304Y-112381329D01*
X94997102Y-112361000D01*
X94892898Y-112361000D01*
X94790696Y-112381329D01*
X94694424Y-112421206D01*
X94607782Y-112479099D01*
X94534099Y-112552782D01*
X94476206Y-112639424D01*
X94436329Y-112735696D01*
X94433484Y-112750000D01*
X94363792Y-112750000D01*
X94338885Y-112729560D01*
X94303445Y-112710617D01*
X94264991Y-112698952D01*
X94225000Y-112695013D01*
X92775000Y-112695013D01*
X92750000Y-112697475D01*
X92750000Y-112102525D01*
X92775000Y-112104987D01*
X94225000Y-112104987D01*
X94264991Y-112101048D01*
X94303445Y-112089383D01*
X94338885Y-112070440D01*
X94369948Y-112044948D01*
X94395440Y-112013885D01*
X94414383Y-111978445D01*
X94426048Y-111939991D01*
X94429987Y-111900000D01*
X94429987Y-111600000D01*
X94426048Y-111560009D01*
X94414383Y-111521555D01*
X94402862Y-111500000D01*
X94414383Y-111478445D01*
X94426048Y-111439991D01*
X94429987Y-111400000D01*
X94429987Y-111100000D01*
X94426048Y-111060009D01*
X94414383Y-111021555D01*
X94402862Y-111000000D01*
X94414383Y-110978445D01*
X94426048Y-110939991D01*
X94429987Y-110900000D01*
X94429987Y-110792331D01*
X94511266Y-110846639D01*
X94602989Y-110884632D01*
X94700360Y-110904000D01*
X94799640Y-110904000D01*
X94897011Y-110884632D01*
X94988734Y-110846639D01*
X95071282Y-110791483D01*
X95141483Y-110721282D01*
X95196639Y-110638734D01*
X95234632Y-110547011D01*
X95254000Y-110449640D01*
X95254000Y-110350360D01*
X95244549Y-110302845D01*
X95488940Y-110058454D01*
X95499658Y-110049658D01*
X95519004Y-110026085D01*
X95534773Y-110006871D01*
X95555015Y-109969000D01*
X95560866Y-109958054D01*
X95576934Y-109905086D01*
X95581000Y-109863799D01*
X95581000Y-109863790D01*
X95582358Y-109850001D01*
X95581000Y-109836212D01*
X95581000Y-109363788D01*
X95582358Y-109349999D01*
X95581000Y-109336210D01*
X95581000Y-109336201D01*
X95576934Y-109294914D01*
X95560866Y-109241946D01*
X95542750Y-109208054D01*
X95534773Y-109193129D01*
X95508454Y-109161060D01*
X95499658Y-109150342D01*
X95488940Y-109141546D01*
X95258458Y-108911065D01*
X95249658Y-108900342D01*
X95206870Y-108865227D01*
X95158054Y-108839134D01*
X95105086Y-108823066D01*
X95063799Y-108819000D01*
X95063797Y-108819000D01*
X95050000Y-108817641D01*
X95036203Y-108819000D01*
X94454598Y-108819000D01*
X94440801Y-108817641D01*
X94429987Y-108818706D01*
X94429987Y-108600000D01*
X94426048Y-108560009D01*
X94414383Y-108521555D01*
X94402862Y-108500000D01*
X94414383Y-108478445D01*
X94426048Y-108439991D01*
X94429987Y-108400000D01*
X94429987Y-108100000D01*
X94426048Y-108060009D01*
X94414383Y-108021555D01*
X94395440Y-107986115D01*
X94369948Y-107955052D01*
X94338885Y-107929560D01*
X94303445Y-107910617D01*
X94264991Y-107898952D01*
X94225000Y-107895013D01*
X92775000Y-107895013D01*
X92750000Y-107897475D01*
X92750000Y-107302525D01*
X92775000Y-107304987D01*
X94225000Y-107304987D01*
X94264991Y-107301048D01*
X94303445Y-107289383D01*
X94338885Y-107270440D01*
X94363792Y-107250000D01*
X94433484Y-107250000D01*
X94436329Y-107264304D01*
X94476206Y-107360576D01*
X94534099Y-107447218D01*
X94607782Y-107520901D01*
X94694424Y-107578794D01*
X94790696Y-107618671D01*
X94892898Y-107639000D01*
X94997102Y-107639000D01*
X95099304Y-107618671D01*
X95195576Y-107578794D01*
X95282218Y-107520901D01*
X95355901Y-107447218D01*
X95413794Y-107360576D01*
X95453671Y-107264304D01*
X95474000Y-107162102D01*
X95474000Y-107057898D01*
X95453671Y-106955696D01*
X95413794Y-106859424D01*
X95355901Y-106772782D01*
X95282218Y-106699099D01*
X95195576Y-106641206D01*
X95148856Y-106621854D01*
X95420710Y-106350000D01*
X97750000Y-106350000D01*
X97750000Y-113650000D01*
X97750000Y-113650000D01*
G37*
X97750000Y-113650000D02*
X95420710Y-113650000D01*
X95148856Y-113378146D01*
X95195576Y-113358794D01*
X95282218Y-113300901D01*
X95355901Y-113227218D01*
X95413794Y-113140576D01*
X95453671Y-113044304D01*
X95474000Y-112942102D01*
X95474000Y-112837898D01*
X95453671Y-112735696D01*
X95413794Y-112639424D01*
X95355901Y-112552782D01*
X95282218Y-112479099D01*
X95195576Y-112421206D01*
X95099304Y-112381329D01*
X94997102Y-112361000D01*
X94892898Y-112361000D01*
X94790696Y-112381329D01*
X94694424Y-112421206D01*
X94607782Y-112479099D01*
X94534099Y-112552782D01*
X94476206Y-112639424D01*
X94436329Y-112735696D01*
X94433484Y-112750000D01*
X94363792Y-112750000D01*
X94338885Y-112729560D01*
X94303445Y-112710617D01*
X94264991Y-112698952D01*
X94225000Y-112695013D01*
X92775000Y-112695013D01*
X92750000Y-112697475D01*
X92750000Y-112102525D01*
X92775000Y-112104987D01*
X94225000Y-112104987D01*
X94264991Y-112101048D01*
X94303445Y-112089383D01*
X94338885Y-112070440D01*
X94369948Y-112044948D01*
X94395440Y-112013885D01*
X94414383Y-111978445D01*
X94426048Y-111939991D01*
X94429987Y-111900000D01*
X94429987Y-111600000D01*
X94426048Y-111560009D01*
X94414383Y-111521555D01*
X94402862Y-111500000D01*
X94414383Y-111478445D01*
X94426048Y-111439991D01*
X94429987Y-111400000D01*
X94429987Y-111100000D01*
X94426048Y-111060009D01*
X94414383Y-111021555D01*
X94402862Y-111000000D01*
X94414383Y-110978445D01*
X94426048Y-110939991D01*
X94429987Y-110900000D01*
X94429987Y-110792331D01*
X94511266Y-110846639D01*
X94602989Y-110884632D01*
X94700360Y-110904000D01*
X94799640Y-110904000D01*
X94897011Y-110884632D01*
X94988734Y-110846639D01*
X95071282Y-110791483D01*
X95141483Y-110721282D01*
X95196639Y-110638734D01*
X95234632Y-110547011D01*
X95254000Y-110449640D01*
X95254000Y-110350360D01*
X95244549Y-110302845D01*
X95488940Y-110058454D01*
X95499658Y-110049658D01*
X95519004Y-110026085D01*
X95534773Y-110006871D01*
X95555015Y-109969000D01*
X95560866Y-109958054D01*
X95576934Y-109905086D01*
X95581000Y-109863799D01*
X95581000Y-109863790D01*
X95582358Y-109850001D01*
X95581000Y-109836212D01*
X95581000Y-109363788D01*
X95582358Y-109349999D01*
X95581000Y-109336210D01*
X95581000Y-109336201D01*
X95576934Y-109294914D01*
X95560866Y-109241946D01*
X95542750Y-109208054D01*
X95534773Y-109193129D01*
X95508454Y-109161060D01*
X95499658Y-109150342D01*
X95488940Y-109141546D01*
X95258458Y-108911065D01*
X95249658Y-108900342D01*
X95206870Y-108865227D01*
X95158054Y-108839134D01*
X95105086Y-108823066D01*
X95063799Y-108819000D01*
X95063797Y-108819000D01*
X95050000Y-108817641D01*
X95036203Y-108819000D01*
X94454598Y-108819000D01*
X94440801Y-108817641D01*
X94429987Y-108818706D01*
X94429987Y-108600000D01*
X94426048Y-108560009D01*
X94414383Y-108521555D01*
X94402862Y-108500000D01*
X94414383Y-108478445D01*
X94426048Y-108439991D01*
X94429987Y-108400000D01*
X94429987Y-108100000D01*
X94426048Y-108060009D01*
X94414383Y-108021555D01*
X94395440Y-107986115D01*
X94369948Y-107955052D01*
X94338885Y-107929560D01*
X94303445Y-107910617D01*
X94264991Y-107898952D01*
X94225000Y-107895013D01*
X92775000Y-107895013D01*
X92750000Y-107897475D01*
X92750000Y-107302525D01*
X92775000Y-107304987D01*
X94225000Y-107304987D01*
X94264991Y-107301048D01*
X94303445Y-107289383D01*
X94338885Y-107270440D01*
X94363792Y-107250000D01*
X94433484Y-107250000D01*
X94436329Y-107264304D01*
X94476206Y-107360576D01*
X94534099Y-107447218D01*
X94607782Y-107520901D01*
X94694424Y-107578794D01*
X94790696Y-107618671D01*
X94892898Y-107639000D01*
X94997102Y-107639000D01*
X95099304Y-107618671D01*
X95195576Y-107578794D01*
X95282218Y-107520901D01*
X95355901Y-107447218D01*
X95413794Y-107360576D01*
X95453671Y-107264304D01*
X95474000Y-107162102D01*
X95474000Y-107057898D01*
X95453671Y-106955696D01*
X95413794Y-106859424D01*
X95355901Y-106772782D01*
X95282218Y-106699099D01*
X95195576Y-106641206D01*
X95148856Y-106621854D01*
X95420710Y-106350000D01*
X97750000Y-106350000D01*
X97750000Y-113650000D01*
G36*
X82886115Y-99884560D02*
G01*
X82855052Y-99910052D01*
X82829560Y-99941115D01*
X82810617Y-99976555D01*
X82798952Y-100015009D01*
X82795013Y-100055000D01*
X82795013Y-100912593D01*
X80651326Y-103056281D01*
X80599640Y-103046000D01*
X80500360Y-103046000D01*
X80402989Y-103065368D01*
X80311266Y-103103361D01*
X80228718Y-103158517D01*
X80158517Y-103228718D01*
X80103361Y-103311266D01*
X80065368Y-103402989D01*
X80046000Y-103500360D01*
X80046000Y-103599640D01*
X80065368Y-103697011D01*
X80103361Y-103788734D01*
X80158517Y-103871282D01*
X80228718Y-103941483D01*
X80311266Y-103996639D01*
X80402989Y-104034632D01*
X80500360Y-104054000D01*
X80599640Y-104054000D01*
X80697011Y-104034632D01*
X80788734Y-103996639D01*
X80871282Y-103941483D01*
X80941483Y-103871282D01*
X80996639Y-103788734D01*
X81034632Y-103697011D01*
X81054000Y-103599640D01*
X81054000Y-103500360D01*
X81045378Y-103457015D01*
X82795013Y-101707381D01*
X82795013Y-102545000D01*
X82798952Y-102584991D01*
X82810617Y-102623445D01*
X82829560Y-102658885D01*
X82855052Y-102689948D01*
X82886115Y-102715440D01*
X82921555Y-102734383D01*
X82960009Y-102746048D01*
X83000000Y-102749987D01*
X84400000Y-102749987D01*
X84439991Y-102746048D01*
X84478445Y-102734383D01*
X84513885Y-102715440D01*
X84544948Y-102689948D01*
X84570440Y-102658885D01*
X84589383Y-102623445D01*
X84601048Y-102584991D01*
X84604987Y-102545000D01*
X84604987Y-102301000D01*
X84666203Y-102301000D01*
X84680000Y-102302359D01*
X84693797Y-102301000D01*
X84693799Y-102301000D01*
X84735086Y-102296934D01*
X84788054Y-102280866D01*
X84836870Y-102254773D01*
X84879658Y-102219658D01*
X84888458Y-102208935D01*
X84946000Y-102151393D01*
X84946000Y-102254564D01*
X84967289Y-102361596D01*
X85009051Y-102462418D01*
X85069680Y-102553155D01*
X85146845Y-102630320D01*
X85237582Y-102690949D01*
X85338404Y-102732711D01*
X85445436Y-102754000D01*
X85554564Y-102754000D01*
X85661596Y-102732711D01*
X85762418Y-102690949D01*
X85853155Y-102630320D01*
X85930320Y-102553155D01*
X85990949Y-102462418D01*
X86032711Y-102361596D01*
X86054000Y-102254564D01*
X86054000Y-102151394D01*
X86111546Y-102208940D01*
X86120342Y-102219658D01*
X86131060Y-102228454D01*
X86163129Y-102254773D01*
X86189222Y-102268720D01*
X86211946Y-102280866D01*
X86264914Y-102296934D01*
X86306201Y-102301000D01*
X86306202Y-102301000D01*
X86319999Y-102302359D01*
X86333796Y-102301000D01*
X86395013Y-102301000D01*
X86395013Y-102545000D01*
X86398952Y-102584991D01*
X86410617Y-102623445D01*
X86429560Y-102658885D01*
X86455052Y-102689948D01*
X86486115Y-102715440D01*
X86521555Y-102734383D01*
X86560009Y-102746048D01*
X86600000Y-102749987D01*
X87019000Y-102749987D01*
X87019001Y-104096000D01*
X85567374Y-104096000D01*
X85550000Y-104094289D01*
X85532626Y-104096000D01*
X82117374Y-104096000D01*
X82100000Y-104094289D01*
X82082626Y-104096000D01*
X82082618Y-104096000D01*
X82030604Y-104101123D01*
X81963875Y-104121365D01*
X81902377Y-104154236D01*
X81891444Y-104163209D01*
X81861975Y-104187393D01*
X81861971Y-104187397D01*
X81848474Y-104198474D01*
X81837397Y-104211971D01*
X76453370Y-109596000D01*
X67146798Y-109596000D01*
X67139383Y-109571555D01*
X67120440Y-109536115D01*
X67094948Y-109505052D01*
X67063885Y-109479560D01*
X67028445Y-109460617D01*
X66989991Y-109448952D01*
X66950000Y-109445013D01*
X66050000Y-109445013D01*
X66010009Y-109448952D01*
X65971555Y-109460617D01*
X65936115Y-109479560D01*
X65905052Y-109505052D01*
X65879560Y-109536115D01*
X65860617Y-109571555D01*
X65850000Y-109606554D01*
X65839383Y-109571555D01*
X65820440Y-109536115D01*
X65794948Y-109505052D01*
X65763885Y-109479560D01*
X65728445Y-109460617D01*
X65689991Y-109448952D01*
X65650000Y-109445013D01*
X64974933Y-109445013D01*
X64775519Y-109245599D01*
X64766000Y-109234000D01*
X64719710Y-109196011D01*
X64666898Y-109167783D01*
X64609594Y-109150400D01*
X64564924Y-109146000D01*
X64550000Y-109144530D01*
X64535076Y-109146000D01*
X64430000Y-109146000D01*
X64439383Y-109128445D01*
X64451048Y-109089991D01*
X64454987Y-109050000D01*
X64454987Y-108450000D01*
X64451048Y-108410009D01*
X64439383Y-108371555D01*
X64420440Y-108336115D01*
X64394948Y-108305052D01*
X64363885Y-108279560D01*
X64328445Y-108260617D01*
X64289991Y-108248952D01*
X64250000Y-108245013D01*
X63350000Y-108245013D01*
X63310009Y-108248952D01*
X63271555Y-108260617D01*
X63236115Y-108279560D01*
X63205052Y-108305052D01*
X63179560Y-108336115D01*
X63160617Y-108371555D01*
X63150000Y-108406554D01*
X63139383Y-108371555D01*
X63120440Y-108336115D01*
X63094948Y-108305052D01*
X63063885Y-108279560D01*
X63028445Y-108260617D01*
X62989991Y-108248952D01*
X62950000Y-108245013D01*
X62274934Y-108245013D01*
X61713201Y-107683281D01*
X61703682Y-107671682D01*
X61657392Y-107633693D01*
X61604580Y-107605465D01*
X61547276Y-107588082D01*
X61521357Y-107585529D01*
X61848513Y-107585529D01*
X61848952Y-107589991D01*
X61860617Y-107628445D01*
X61879560Y-107663885D01*
X61905052Y-107694948D01*
X61936115Y-107720440D01*
X61971555Y-107739383D01*
X62010009Y-107751048D01*
X62050000Y-107754987D01*
X62950000Y-107754987D01*
X62989991Y-107751048D01*
X63028445Y-107739383D01*
X63063885Y-107720440D01*
X63094948Y-107694948D01*
X63120440Y-107663885D01*
X63139383Y-107628445D01*
X63151048Y-107589991D01*
X63154987Y-107550000D01*
X63154987Y-106950000D01*
X63151048Y-106910009D01*
X63139383Y-106871555D01*
X63120440Y-106836115D01*
X63094948Y-106805052D01*
X63088792Y-106800000D01*
X63094948Y-106794948D01*
X63120440Y-106763885D01*
X63139383Y-106728445D01*
X63151048Y-106689991D01*
X63154987Y-106650000D01*
X63154987Y-106050000D01*
X63151048Y-106010009D01*
X63139383Y-105971555D01*
X63120440Y-105936115D01*
X63094948Y-105905052D01*
X63063885Y-105879560D01*
X63028445Y-105860617D01*
X62989991Y-105848952D01*
X62950000Y-105845013D01*
X62050000Y-105845013D01*
X62010009Y-105848952D01*
X61971555Y-105860617D01*
X61936115Y-105879560D01*
X61905052Y-105905052D01*
X61879560Y-105936115D01*
X61860617Y-105971555D01*
X61848952Y-106010009D01*
X61845013Y-106050000D01*
X61845013Y-106064170D01*
X61833102Y-106067783D01*
X61780290Y-106096011D01*
X61734000Y-106134000D01*
X61724485Y-106145594D01*
X61498704Y-106371376D01*
X61164452Y-106371376D01*
X61190371Y-106368823D01*
X61195428Y-106367289D01*
X61247675Y-106351440D01*
X61300487Y-106323212D01*
X61346777Y-106285223D01*
X61356296Y-106273624D01*
X62274934Y-105354987D01*
X62950000Y-105354987D01*
X62989991Y-105351048D01*
X63028445Y-105339383D01*
X63063885Y-105320440D01*
X63094948Y-105294948D01*
X63120440Y-105263885D01*
X63139383Y-105228445D01*
X63151048Y-105189991D01*
X63154987Y-105150000D01*
X63154987Y-104550000D01*
X63151048Y-104510009D01*
X63139383Y-104471555D01*
X63120440Y-104436115D01*
X63094948Y-104405052D01*
X63063885Y-104379560D01*
X63028445Y-104360617D01*
X62989991Y-104348952D01*
X62950000Y-104345013D01*
X62050000Y-104345013D01*
X62010009Y-104348952D01*
X61971555Y-104360617D01*
X61936115Y-104379560D01*
X61905052Y-104405052D01*
X61879560Y-104436115D01*
X61860617Y-104471555D01*
X61848952Y-104510009D01*
X61845013Y-104550000D01*
X61845013Y-104925066D01*
X61004857Y-105765223D01*
X60845726Y-105765223D01*
X60844948Y-105764275D01*
X60813885Y-105738783D01*
X60778445Y-105719840D01*
X60739991Y-105708175D01*
X60700000Y-105704236D01*
X56700000Y-105704236D01*
X56660009Y-105708175D01*
X56621555Y-105719840D01*
X56586115Y-105738783D01*
X56555052Y-105764275D01*
X56529560Y-105795338D01*
X56510617Y-105830778D01*
X56498952Y-105869232D01*
X56495013Y-105909223D01*
X56495013Y-106229223D01*
X56498952Y-106269214D01*
X56510617Y-106307668D01*
X56529560Y-106343108D01*
X56553516Y-106372299D01*
X56529560Y-106401491D01*
X56510617Y-106436931D01*
X56498952Y-106475385D01*
X56495013Y-106515376D01*
X56495013Y-106835376D01*
X56498952Y-106875367D01*
X56510617Y-106913821D01*
X56529560Y-106949261D01*
X56553516Y-106978452D01*
X56529560Y-107007644D01*
X56510617Y-107043084D01*
X56498952Y-107081538D01*
X56495013Y-107121529D01*
X56495013Y-107441529D01*
X56498952Y-107481520D01*
X56510617Y-107519974D01*
X56529560Y-107555414D01*
X56553516Y-107584605D01*
X56529560Y-107613797D01*
X56510617Y-107649237D01*
X56498952Y-107687691D01*
X56495013Y-107727682D01*
X56495013Y-108047682D01*
X56498952Y-108087673D01*
X56510617Y-108126127D01*
X56529560Y-108161567D01*
X56553516Y-108190758D01*
X56529560Y-108219950D01*
X56510617Y-108255390D01*
X56498952Y-108293844D01*
X56495013Y-108333835D01*
X56495013Y-108653835D01*
X56498952Y-108693826D01*
X56510617Y-108732280D01*
X56529560Y-108767720D01*
X56553516Y-108796911D01*
X56529560Y-108826103D01*
X56510617Y-108861543D01*
X56498952Y-108899997D01*
X56495013Y-108939988D01*
X56495013Y-109259988D01*
X56498952Y-109299979D01*
X56510617Y-109338433D01*
X56529560Y-109373873D01*
X56555052Y-109404936D01*
X56586115Y-109430428D01*
X56621555Y-109449371D01*
X56660009Y-109461036D01*
X56700000Y-109464975D01*
X60700000Y-109464975D01*
X60739991Y-109461036D01*
X60778445Y-109449371D01*
X60813885Y-109430428D01*
X60844948Y-109404936D01*
X60870440Y-109373873D01*
X60889383Y-109338433D01*
X60901048Y-109299979D01*
X60904987Y-109259988D01*
X60904987Y-109031825D01*
X61327767Y-109454606D01*
X60805175Y-109977199D01*
X60778445Y-109962911D01*
X60739991Y-109951246D01*
X60700000Y-109947307D01*
X56700000Y-109947307D01*
X56660009Y-109951246D01*
X56621555Y-109962911D01*
X56586115Y-109981854D01*
X56555052Y-110007346D01*
X56529560Y-110038409D01*
X56510617Y-110073849D01*
X56498952Y-110112303D01*
X56495013Y-110152294D01*
X56495013Y-110472294D01*
X56498952Y-110512285D01*
X56510617Y-110550739D01*
X56529560Y-110586179D01*
X56553516Y-110615370D01*
X56529560Y-110644562D01*
X56510617Y-110680002D01*
X56498952Y-110718456D01*
X56495013Y-110758447D01*
X56495013Y-111078447D01*
X56498952Y-111118438D01*
X56510617Y-111156892D01*
X56529560Y-111192332D01*
X56553516Y-111221524D01*
X56529560Y-111250715D01*
X56510617Y-111286155D01*
X56498952Y-111324609D01*
X56495013Y-111364600D01*
X56495013Y-111684600D01*
X56498952Y-111724591D01*
X56510617Y-111763045D01*
X56529560Y-111798485D01*
X56553516Y-111827677D01*
X56529560Y-111856868D01*
X56510617Y-111892308D01*
X56498952Y-111930762D01*
X56495013Y-111970753D01*
X56495013Y-112290753D01*
X56498952Y-112330744D01*
X56510617Y-112369198D01*
X56529560Y-112404638D01*
X56553516Y-112433829D01*
X56529560Y-112463021D01*
X56510617Y-112498461D01*
X56498952Y-112536915D01*
X56495013Y-112576906D01*
X56495013Y-112896906D01*
X56498952Y-112936897D01*
X56510617Y-112975351D01*
X56529560Y-113010791D01*
X56553516Y-113039982D01*
X56529560Y-113069174D01*
X56510617Y-113104614D01*
X56498952Y-113143068D01*
X56495013Y-113183059D01*
X56495013Y-113503059D01*
X56498952Y-113543050D01*
X56510617Y-113581504D01*
X56529560Y-113616944D01*
X56553521Y-113646141D01*
X56529560Y-113675338D01*
X56510617Y-113710778D01*
X56498952Y-113749232D01*
X56495013Y-113789223D01*
X56495013Y-114109223D01*
X56498952Y-114149214D01*
X56510617Y-114187668D01*
X56529560Y-114223108D01*
X56555052Y-114254171D01*
X56586115Y-114279663D01*
X56621555Y-114298606D01*
X56660009Y-114310271D01*
X56700000Y-114314210D01*
X60700000Y-114314210D01*
X60739991Y-114310271D01*
X60778445Y-114298606D01*
X60813885Y-114279663D01*
X60844948Y-114254171D01*
X60845726Y-114253223D01*
X61173303Y-114253223D01*
X61445013Y-114524934D01*
X61445013Y-115050000D01*
X61448952Y-115089991D01*
X61460617Y-115128445D01*
X61479560Y-115163885D01*
X61505052Y-115194948D01*
X61536115Y-115220440D01*
X61571555Y-115239383D01*
X61610009Y-115251048D01*
X61650000Y-115254987D01*
X62250000Y-115254987D01*
X62289991Y-115251048D01*
X62328445Y-115239383D01*
X62363885Y-115220440D01*
X62394948Y-115194948D01*
X62420440Y-115163885D01*
X62439383Y-115128445D01*
X62451048Y-115089991D01*
X62454987Y-115050000D01*
X62454987Y-114150000D01*
X62451048Y-114110009D01*
X62439383Y-114071555D01*
X62420440Y-114036115D01*
X62394948Y-114005052D01*
X62388792Y-114000000D01*
X62394948Y-113994948D01*
X62420440Y-113963885D01*
X62439383Y-113928445D01*
X62451048Y-113889991D01*
X62454987Y-113850000D01*
X62454987Y-112950000D01*
X62451048Y-112910009D01*
X62439383Y-112871555D01*
X62420440Y-112836115D01*
X62394948Y-112805052D01*
X62388792Y-112800000D01*
X62394948Y-112794948D01*
X62420440Y-112763885D01*
X62439383Y-112728445D01*
X62451048Y-112689991D01*
X62454987Y-112650000D01*
X62454987Y-111754000D01*
X64545407Y-111754000D01*
X64548952Y-111789991D01*
X64560617Y-111828445D01*
X64579560Y-111863885D01*
X64605052Y-111894948D01*
X64636115Y-111920440D01*
X64671555Y-111939383D01*
X64710009Y-111951048D01*
X64750000Y-111954987D01*
X65325067Y-111954987D01*
X65974485Y-112604406D01*
X65984000Y-112616000D01*
X66030290Y-112653989D01*
X66064706Y-112672384D01*
X66083101Y-112682217D01*
X66140405Y-112699600D01*
X66200000Y-112705470D01*
X66214924Y-112704000D01*
X66636835Y-112704000D01*
X66669680Y-112753155D01*
X66746845Y-112830320D01*
X66837582Y-112890949D01*
X66938404Y-112932711D01*
X67045436Y-112954000D01*
X67154564Y-112954000D01*
X67261596Y-112932711D01*
X67362418Y-112890949D01*
X67453155Y-112830320D01*
X67530320Y-112753155D01*
X67590949Y-112662418D01*
X67632711Y-112561596D01*
X67654000Y-112454564D01*
X67654000Y-112383920D01*
X68974486Y-113704407D01*
X68984000Y-113716000D01*
X69030290Y-113753989D01*
X69064706Y-113772384D01*
X69083101Y-113782217D01*
X69140405Y-113799600D01*
X69200000Y-113805470D01*
X69214924Y-113804000D01*
X85985076Y-113804000D01*
X86000000Y-113805470D01*
X86059594Y-113799600D01*
X86116898Y-113782217D01*
X86169710Y-113753989D01*
X86216000Y-113716000D01*
X86225519Y-113704401D01*
X86458362Y-113471558D01*
X89136723Y-116149919D01*
X89145519Y-116160637D01*
X89156237Y-116169433D01*
X89188306Y-116195752D01*
X89195717Y-116199713D01*
X89237123Y-116221845D01*
X89290091Y-116237913D01*
X89331378Y-116241979D01*
X89331387Y-116241979D01*
X89345176Y-116243337D01*
X89358965Y-116241979D01*
X91331602Y-116241979D01*
X91358517Y-116282261D01*
X91428718Y-116352462D01*
X91511266Y-116407618D01*
X91602989Y-116445611D01*
X91700360Y-116464979D01*
X91799640Y-116464979D01*
X91897011Y-116445611D01*
X91988734Y-116407618D01*
X92071282Y-116352462D01*
X92141483Y-116282261D01*
X92196639Y-116199713D01*
X92234632Y-116107990D01*
X92254000Y-116010619D01*
X92254000Y-115911339D01*
X92234632Y-115813968D01*
X92196639Y-115722245D01*
X92141483Y-115639697D01*
X92071282Y-115569496D01*
X91988734Y-115514340D01*
X91897011Y-115476347D01*
X91799640Y-115456979D01*
X91700360Y-115456979D01*
X91602989Y-115476347D01*
X91511266Y-115514340D01*
X91428718Y-115569496D01*
X91358517Y-115639697D01*
X91331602Y-115679979D01*
X89461571Y-115679979D01*
X86836004Y-113054413D01*
X86845255Y-113023917D01*
X86849600Y-113009595D01*
X86851168Y-112993676D01*
X86854000Y-112964924D01*
X86854000Y-112964917D01*
X86855469Y-112950001D01*
X86854000Y-112935085D01*
X86854000Y-112472870D01*
X86864383Y-112453445D01*
X86876048Y-112414991D01*
X86879987Y-112375000D01*
X86879987Y-111579987D01*
X87232594Y-111579987D01*
X87545013Y-111892406D01*
X87545013Y-112450000D01*
X87548952Y-112489991D01*
X87560617Y-112528445D01*
X87579560Y-112563885D01*
X87605052Y-112594948D01*
X87636115Y-112620440D01*
X87671555Y-112639383D01*
X87710009Y-112651048D01*
X87750000Y-112654987D01*
X88650000Y-112654987D01*
X88689991Y-112651048D01*
X88728445Y-112639383D01*
X88763885Y-112620440D01*
X88794948Y-112594948D01*
X88820440Y-112563885D01*
X88839383Y-112528445D01*
X88851048Y-112489991D01*
X88854987Y-112450000D01*
X88854987Y-111850000D01*
X88851048Y-111810009D01*
X88839383Y-111771555D01*
X88820440Y-111736115D01*
X88794948Y-111705052D01*
X88763885Y-111679560D01*
X88728445Y-111660617D01*
X88689991Y-111648952D01*
X88650000Y-111645013D01*
X88092407Y-111645013D01*
X87872868Y-111425474D01*
X87876048Y-111414991D01*
X87879987Y-111375000D01*
X87879987Y-111125000D01*
X87876048Y-111085009D01*
X87864383Y-111046555D01*
X87856069Y-111031000D01*
X88920013Y-111031000D01*
X88920013Y-111630000D01*
X88923952Y-111669991D01*
X88935617Y-111708445D01*
X88954560Y-111743885D01*
X88980052Y-111774948D01*
X89011115Y-111800440D01*
X89046555Y-111819383D01*
X89085009Y-111831048D01*
X89125000Y-111834987D01*
X89172662Y-111834987D01*
X89173066Y-111839085D01*
X89189134Y-111892053D01*
X89215227Y-111940870D01*
X89250342Y-111983658D01*
X89261065Y-111992458D01*
X89318543Y-112049936D01*
X89327343Y-112060659D01*
X89370131Y-112095774D01*
X89418947Y-112121867D01*
X89471915Y-112137935D01*
X89513202Y-112142001D01*
X89513204Y-112142001D01*
X89527001Y-112143360D01*
X89540798Y-112142001D01*
X89974524Y-112142001D01*
X89969680Y-112146845D01*
X89909051Y-112237582D01*
X89867289Y-112338404D01*
X89846000Y-112445436D01*
X89846000Y-112554564D01*
X89867289Y-112661596D01*
X89909051Y-112762418D01*
X89969680Y-112853155D01*
X90046001Y-112929476D01*
X90046001Y-113306880D01*
X90044289Y-113324264D01*
X90051123Y-113393660D01*
X90071125Y-113459594D01*
X90071366Y-113460389D01*
X90104237Y-113521887D01*
X90148475Y-113575790D01*
X90161977Y-113586871D01*
X93388856Y-116813751D01*
X92433607Y-117769000D01*
X88204987Y-117769000D01*
X88204987Y-117455000D01*
X88201048Y-117415009D01*
X88189383Y-117376555D01*
X88170440Y-117341115D01*
X88144948Y-117310052D01*
X88113885Y-117284560D01*
X88078445Y-117265617D01*
X88039991Y-117253952D01*
X88000000Y-117250013D01*
X86600000Y-117250013D01*
X86560009Y-117253952D01*
X86521555Y-117265617D01*
X86486115Y-117284560D01*
X86455052Y-117310052D01*
X86429560Y-117341115D01*
X86410617Y-117376555D01*
X86398952Y-117415009D01*
X86395013Y-117455000D01*
X86395013Y-117699000D01*
X86333796Y-117699000D01*
X86319999Y-117697641D01*
X86306202Y-117699000D01*
X86306201Y-117699000D01*
X86264914Y-117703066D01*
X86211946Y-117719134D01*
X86189222Y-117731280D01*
X86163129Y-117745227D01*
X86134162Y-117769000D01*
X86120342Y-117780342D01*
X86111546Y-117791060D01*
X86054000Y-117848606D01*
X86054000Y-117745436D01*
X86032711Y-117638404D01*
X85990949Y-117537582D01*
X85930320Y-117446845D01*
X85853155Y-117369680D01*
X85762418Y-117309051D01*
X85661596Y-117267289D01*
X85554564Y-117246000D01*
X85445436Y-117246000D01*
X85338404Y-117267289D01*
X85237582Y-117309051D01*
X85146845Y-117369680D01*
X85069680Y-117446845D01*
X85009051Y-117537582D01*
X84967289Y-117638404D01*
X84946000Y-117745436D01*
X84946000Y-117854564D01*
X84960163Y-117925770D01*
X84825458Y-117791065D01*
X84816658Y-117780342D01*
X84773870Y-117745227D01*
X84725054Y-117719134D01*
X84672086Y-117703066D01*
X84630799Y-117699000D01*
X84630797Y-117699000D01*
X84617000Y-117697641D01*
X84604987Y-117698824D01*
X84604987Y-117455000D01*
X84601048Y-117415009D01*
X84589383Y-117376555D01*
X84570440Y-117341115D01*
X84544948Y-117310052D01*
X84513885Y-117284560D01*
X84478445Y-117265617D01*
X84439991Y-117253952D01*
X84400000Y-117250013D01*
X83000000Y-117250013D01*
X82960009Y-117253952D01*
X82921555Y-117265617D01*
X82886115Y-117284560D01*
X82855052Y-117310052D01*
X82829560Y-117341115D01*
X82810617Y-117376555D01*
X82798952Y-117415009D01*
X82795013Y-117455000D01*
X82795013Y-118505000D01*
X82798952Y-118544991D01*
X82810617Y-118583445D01*
X82829560Y-118618885D01*
X82855052Y-118649948D01*
X82886115Y-118675440D01*
X82921555Y-118694383D01*
X82940072Y-118700000D01*
X82921555Y-118705617D01*
X82886115Y-118724560D01*
X82855052Y-118750052D01*
X82829560Y-118781115D01*
X82810617Y-118816555D01*
X82798952Y-118855009D01*
X82795013Y-118895000D01*
X82795013Y-119945000D01*
X82798952Y-119984991D01*
X82810617Y-120023445D01*
X82829560Y-120058885D01*
X82855052Y-120089948D01*
X82886115Y-120115440D01*
X82904001Y-120125000D01*
X50125000Y-120125000D01*
X50125000Y-114625000D01*
X51243866Y-114625000D01*
X51250000Y-114625604D01*
X51256133Y-114625000D01*
X51256134Y-114625000D01*
X51274504Y-114623191D01*
X51298067Y-114616043D01*
X51319782Y-114604436D01*
X51338815Y-114588815D01*
X51354436Y-114569782D01*
X51366043Y-114548067D01*
X51373191Y-114524504D01*
X51375604Y-114500000D01*
X51375000Y-114493866D01*
X51375000Y-105506133D01*
X51375604Y-105500000D01*
X51373191Y-105475496D01*
X51366043Y-105451933D01*
X51354436Y-105430218D01*
X51338815Y-105411185D01*
X51319782Y-105395564D01*
X51298067Y-105383957D01*
X51274504Y-105376809D01*
X51256134Y-105375000D01*
X51250000Y-105374396D01*
X51243867Y-105375000D01*
X50125000Y-105375000D01*
X50125000Y-99875000D01*
X82904001Y-99875000D01*
X82886115Y-99884560D01*
X82886115Y-99884560D01*
G37*
X82886115Y-99884560D02*
X82855052Y-99910052D01*
X82829560Y-99941115D01*
X82810617Y-99976555D01*
X82798952Y-100015009D01*
X82795013Y-100055000D01*
X82795013Y-100912593D01*
X80651326Y-103056281D01*
X80599640Y-103046000D01*
X80500360Y-103046000D01*
X80402989Y-103065368D01*
X80311266Y-103103361D01*
X80228718Y-103158517D01*
X80158517Y-103228718D01*
X80103361Y-103311266D01*
X80065368Y-103402989D01*
X80046000Y-103500360D01*
X80046000Y-103599640D01*
X80065368Y-103697011D01*
X80103361Y-103788734D01*
X80158517Y-103871282D01*
X80228718Y-103941483D01*
X80311266Y-103996639D01*
X80402989Y-104034632D01*
X80500360Y-104054000D01*
X80599640Y-104054000D01*
X80697011Y-104034632D01*
X80788734Y-103996639D01*
X80871282Y-103941483D01*
X80941483Y-103871282D01*
X80996639Y-103788734D01*
X81034632Y-103697011D01*
X81054000Y-103599640D01*
X81054000Y-103500360D01*
X81045378Y-103457015D01*
X82795013Y-101707381D01*
X82795013Y-102545000D01*
X82798952Y-102584991D01*
X82810617Y-102623445D01*
X82829560Y-102658885D01*
X82855052Y-102689948D01*
X82886115Y-102715440D01*
X82921555Y-102734383D01*
X82960009Y-102746048D01*
X83000000Y-102749987D01*
X84400000Y-102749987D01*
X84439991Y-102746048D01*
X84478445Y-102734383D01*
X84513885Y-102715440D01*
X84544948Y-102689948D01*
X84570440Y-102658885D01*
X84589383Y-102623445D01*
X84601048Y-102584991D01*
X84604987Y-102545000D01*
X84604987Y-102301000D01*
X84666203Y-102301000D01*
X84680000Y-102302359D01*
X84693797Y-102301000D01*
X84693799Y-102301000D01*
X84735086Y-102296934D01*
X84788054Y-102280866D01*
X84836870Y-102254773D01*
X84879658Y-102219658D01*
X84888458Y-102208935D01*
X84946000Y-102151393D01*
X84946000Y-102254564D01*
X84967289Y-102361596D01*
X85009051Y-102462418D01*
X85069680Y-102553155D01*
X85146845Y-102630320D01*
X85237582Y-102690949D01*
X85338404Y-102732711D01*
X85445436Y-102754000D01*
X85554564Y-102754000D01*
X85661596Y-102732711D01*
X85762418Y-102690949D01*
X85853155Y-102630320D01*
X85930320Y-102553155D01*
X85990949Y-102462418D01*
X86032711Y-102361596D01*
X86054000Y-102254564D01*
X86054000Y-102151394D01*
X86111546Y-102208940D01*
X86120342Y-102219658D01*
X86131060Y-102228454D01*
X86163129Y-102254773D01*
X86189222Y-102268720D01*
X86211946Y-102280866D01*
X86264914Y-102296934D01*
X86306201Y-102301000D01*
X86306202Y-102301000D01*
X86319999Y-102302359D01*
X86333796Y-102301000D01*
X86395013Y-102301000D01*
X86395013Y-102545000D01*
X86398952Y-102584991D01*
X86410617Y-102623445D01*
X86429560Y-102658885D01*
X86455052Y-102689948D01*
X86486115Y-102715440D01*
X86521555Y-102734383D01*
X86560009Y-102746048D01*
X86600000Y-102749987D01*
X87019000Y-102749987D01*
X87019001Y-104096000D01*
X85567374Y-104096000D01*
X85550000Y-104094289D01*
X85532626Y-104096000D01*
X82117374Y-104096000D01*
X82100000Y-104094289D01*
X82082626Y-104096000D01*
X82082618Y-104096000D01*
X82030604Y-104101123D01*
X81963875Y-104121365D01*
X81902377Y-104154236D01*
X81891444Y-104163209D01*
X81861975Y-104187393D01*
X81861971Y-104187397D01*
X81848474Y-104198474D01*
X81837397Y-104211971D01*
X76453370Y-109596000D01*
X67146798Y-109596000D01*
X67139383Y-109571555D01*
X67120440Y-109536115D01*
X67094948Y-109505052D01*
X67063885Y-109479560D01*
X67028445Y-109460617D01*
X66989991Y-109448952D01*
X66950000Y-109445013D01*
X66050000Y-109445013D01*
X66010009Y-109448952D01*
X65971555Y-109460617D01*
X65936115Y-109479560D01*
X65905052Y-109505052D01*
X65879560Y-109536115D01*
X65860617Y-109571555D01*
X65850000Y-109606554D01*
X65839383Y-109571555D01*
X65820440Y-109536115D01*
X65794948Y-109505052D01*
X65763885Y-109479560D01*
X65728445Y-109460617D01*
X65689991Y-109448952D01*
X65650000Y-109445013D01*
X64974933Y-109445013D01*
X64775519Y-109245599D01*
X64766000Y-109234000D01*
X64719710Y-109196011D01*
X64666898Y-109167783D01*
X64609594Y-109150400D01*
X64564924Y-109146000D01*
X64550000Y-109144530D01*
X64535076Y-109146000D01*
X64430000Y-109146000D01*
X64439383Y-109128445D01*
X64451048Y-109089991D01*
X64454987Y-109050000D01*
X64454987Y-108450000D01*
X64451048Y-108410009D01*
X64439383Y-108371555D01*
X64420440Y-108336115D01*
X64394948Y-108305052D01*
X64363885Y-108279560D01*
X64328445Y-108260617D01*
X64289991Y-108248952D01*
X64250000Y-108245013D01*
X63350000Y-108245013D01*
X63310009Y-108248952D01*
X63271555Y-108260617D01*
X63236115Y-108279560D01*
X63205052Y-108305052D01*
X63179560Y-108336115D01*
X63160617Y-108371555D01*
X63150000Y-108406554D01*
X63139383Y-108371555D01*
X63120440Y-108336115D01*
X63094948Y-108305052D01*
X63063885Y-108279560D01*
X63028445Y-108260617D01*
X62989991Y-108248952D01*
X62950000Y-108245013D01*
X62274934Y-108245013D01*
X61713201Y-107683281D01*
X61703682Y-107671682D01*
X61657392Y-107633693D01*
X61604580Y-107605465D01*
X61547276Y-107588082D01*
X61521357Y-107585529D01*
X61848513Y-107585529D01*
X61848952Y-107589991D01*
X61860617Y-107628445D01*
X61879560Y-107663885D01*
X61905052Y-107694948D01*
X61936115Y-107720440D01*
X61971555Y-107739383D01*
X62010009Y-107751048D01*
X62050000Y-107754987D01*
X62950000Y-107754987D01*
X62989991Y-107751048D01*
X63028445Y-107739383D01*
X63063885Y-107720440D01*
X63094948Y-107694948D01*
X63120440Y-107663885D01*
X63139383Y-107628445D01*
X63151048Y-107589991D01*
X63154987Y-107550000D01*
X63154987Y-106950000D01*
X63151048Y-106910009D01*
X63139383Y-106871555D01*
X63120440Y-106836115D01*
X63094948Y-106805052D01*
X63088792Y-106800000D01*
X63094948Y-106794948D01*
X63120440Y-106763885D01*
X63139383Y-106728445D01*
X63151048Y-106689991D01*
X63154987Y-106650000D01*
X63154987Y-106050000D01*
X63151048Y-106010009D01*
X63139383Y-105971555D01*
X63120440Y-105936115D01*
X63094948Y-105905052D01*
X63063885Y-105879560D01*
X63028445Y-105860617D01*
X62989991Y-105848952D01*
X62950000Y-105845013D01*
X62050000Y-105845013D01*
X62010009Y-105848952D01*
X61971555Y-105860617D01*
X61936115Y-105879560D01*
X61905052Y-105905052D01*
X61879560Y-105936115D01*
X61860617Y-105971555D01*
X61848952Y-106010009D01*
X61845013Y-106050000D01*
X61845013Y-106064170D01*
X61833102Y-106067783D01*
X61780290Y-106096011D01*
X61734000Y-106134000D01*
X61724485Y-106145594D01*
X61498704Y-106371376D01*
X61164452Y-106371376D01*
X61190371Y-106368823D01*
X61195428Y-106367289D01*
X61247675Y-106351440D01*
X61300487Y-106323212D01*
X61346777Y-106285223D01*
X61356296Y-106273624D01*
X62274934Y-105354987D01*
X62950000Y-105354987D01*
X62989991Y-105351048D01*
X63028445Y-105339383D01*
X63063885Y-105320440D01*
X63094948Y-105294948D01*
X63120440Y-105263885D01*
X63139383Y-105228445D01*
X63151048Y-105189991D01*
X63154987Y-105150000D01*
X63154987Y-104550000D01*
X63151048Y-104510009D01*
X63139383Y-104471555D01*
X63120440Y-104436115D01*
X63094948Y-104405052D01*
X63063885Y-104379560D01*
X63028445Y-104360617D01*
X62989991Y-104348952D01*
X62950000Y-104345013D01*
X62050000Y-104345013D01*
X62010009Y-104348952D01*
X61971555Y-104360617D01*
X61936115Y-104379560D01*
X61905052Y-104405052D01*
X61879560Y-104436115D01*
X61860617Y-104471555D01*
X61848952Y-104510009D01*
X61845013Y-104550000D01*
X61845013Y-104925066D01*
X61004857Y-105765223D01*
X60845726Y-105765223D01*
X60844948Y-105764275D01*
X60813885Y-105738783D01*
X60778445Y-105719840D01*
X60739991Y-105708175D01*
X60700000Y-105704236D01*
X56700000Y-105704236D01*
X56660009Y-105708175D01*
X56621555Y-105719840D01*
X56586115Y-105738783D01*
X56555052Y-105764275D01*
X56529560Y-105795338D01*
X56510617Y-105830778D01*
X56498952Y-105869232D01*
X56495013Y-105909223D01*
X56495013Y-106229223D01*
X56498952Y-106269214D01*
X56510617Y-106307668D01*
X56529560Y-106343108D01*
X56553516Y-106372299D01*
X56529560Y-106401491D01*
X56510617Y-106436931D01*
X56498952Y-106475385D01*
X56495013Y-106515376D01*
X56495013Y-106835376D01*
X56498952Y-106875367D01*
X56510617Y-106913821D01*
X56529560Y-106949261D01*
X56553516Y-106978452D01*
X56529560Y-107007644D01*
X56510617Y-107043084D01*
X56498952Y-107081538D01*
X56495013Y-107121529D01*
X56495013Y-107441529D01*
X56498952Y-107481520D01*
X56510617Y-107519974D01*
X56529560Y-107555414D01*
X56553516Y-107584605D01*
X56529560Y-107613797D01*
X56510617Y-107649237D01*
X56498952Y-107687691D01*
X56495013Y-107727682D01*
X56495013Y-108047682D01*
X56498952Y-108087673D01*
X56510617Y-108126127D01*
X56529560Y-108161567D01*
X56553516Y-108190758D01*
X56529560Y-108219950D01*
X56510617Y-108255390D01*
X56498952Y-108293844D01*
X56495013Y-108333835D01*
X56495013Y-108653835D01*
X56498952Y-108693826D01*
X56510617Y-108732280D01*
X56529560Y-108767720D01*
X56553516Y-108796911D01*
X56529560Y-108826103D01*
X56510617Y-108861543D01*
X56498952Y-108899997D01*
X56495013Y-108939988D01*
X56495013Y-109259988D01*
X56498952Y-109299979D01*
X56510617Y-109338433D01*
X56529560Y-109373873D01*
X56555052Y-109404936D01*
X56586115Y-109430428D01*
X56621555Y-109449371D01*
X56660009Y-109461036D01*
X56700000Y-109464975D01*
X60700000Y-109464975D01*
X60739991Y-109461036D01*
X60778445Y-109449371D01*
X60813885Y-109430428D01*
X60844948Y-109404936D01*
X60870440Y-109373873D01*
X60889383Y-109338433D01*
X60901048Y-109299979D01*
X60904987Y-109259988D01*
X60904987Y-109031825D01*
X61327767Y-109454606D01*
X60805175Y-109977199D01*
X60778445Y-109962911D01*
X60739991Y-109951246D01*
X60700000Y-109947307D01*
X56700000Y-109947307D01*
X56660009Y-109951246D01*
X56621555Y-109962911D01*
X56586115Y-109981854D01*
X56555052Y-110007346D01*
X56529560Y-110038409D01*
X56510617Y-110073849D01*
X56498952Y-110112303D01*
X56495013Y-110152294D01*
X56495013Y-110472294D01*
X56498952Y-110512285D01*
X56510617Y-110550739D01*
X56529560Y-110586179D01*
X56553516Y-110615370D01*
X56529560Y-110644562D01*
X56510617Y-110680002D01*
X56498952Y-110718456D01*
X56495013Y-110758447D01*
X56495013Y-111078447D01*
X56498952Y-111118438D01*
X56510617Y-111156892D01*
X56529560Y-111192332D01*
X56553516Y-111221524D01*
X56529560Y-111250715D01*
X56510617Y-111286155D01*
X56498952Y-111324609D01*
X56495013Y-111364600D01*
X56495013Y-111684600D01*
X56498952Y-111724591D01*
X56510617Y-111763045D01*
X56529560Y-111798485D01*
X56553516Y-111827677D01*
X56529560Y-111856868D01*
X56510617Y-111892308D01*
X56498952Y-111930762D01*
X56495013Y-111970753D01*
X56495013Y-112290753D01*
X56498952Y-112330744D01*
X56510617Y-112369198D01*
X56529560Y-112404638D01*
X56553516Y-112433829D01*
X56529560Y-112463021D01*
X56510617Y-112498461D01*
X56498952Y-112536915D01*
X56495013Y-112576906D01*
X56495013Y-112896906D01*
X56498952Y-112936897D01*
X56510617Y-112975351D01*
X56529560Y-113010791D01*
X56553516Y-113039982D01*
X56529560Y-113069174D01*
X56510617Y-113104614D01*
X56498952Y-113143068D01*
X56495013Y-113183059D01*
X56495013Y-113503059D01*
X56498952Y-113543050D01*
X56510617Y-113581504D01*
X56529560Y-113616944D01*
X56553521Y-113646141D01*
X56529560Y-113675338D01*
X56510617Y-113710778D01*
X56498952Y-113749232D01*
X56495013Y-113789223D01*
X56495013Y-114109223D01*
X56498952Y-114149214D01*
X56510617Y-114187668D01*
X56529560Y-114223108D01*
X56555052Y-114254171D01*
X56586115Y-114279663D01*
X56621555Y-114298606D01*
X56660009Y-114310271D01*
X56700000Y-114314210D01*
X60700000Y-114314210D01*
X60739991Y-114310271D01*
X60778445Y-114298606D01*
X60813885Y-114279663D01*
X60844948Y-114254171D01*
X60845726Y-114253223D01*
X61173303Y-114253223D01*
X61445013Y-114524934D01*
X61445013Y-115050000D01*
X61448952Y-115089991D01*
X61460617Y-115128445D01*
X61479560Y-115163885D01*
X61505052Y-115194948D01*
X61536115Y-115220440D01*
X61571555Y-115239383D01*
X61610009Y-115251048D01*
X61650000Y-115254987D01*
X62250000Y-115254987D01*
X62289991Y-115251048D01*
X62328445Y-115239383D01*
X62363885Y-115220440D01*
X62394948Y-115194948D01*
X62420440Y-115163885D01*
X62439383Y-115128445D01*
X62451048Y-115089991D01*
X62454987Y-115050000D01*
X62454987Y-114150000D01*
X62451048Y-114110009D01*
X62439383Y-114071555D01*
X62420440Y-114036115D01*
X62394948Y-114005052D01*
X62388792Y-114000000D01*
X62394948Y-113994948D01*
X62420440Y-113963885D01*
X62439383Y-113928445D01*
X62451048Y-113889991D01*
X62454987Y-113850000D01*
X62454987Y-112950000D01*
X62451048Y-112910009D01*
X62439383Y-112871555D01*
X62420440Y-112836115D01*
X62394948Y-112805052D01*
X62388792Y-112800000D01*
X62394948Y-112794948D01*
X62420440Y-112763885D01*
X62439383Y-112728445D01*
X62451048Y-112689991D01*
X62454987Y-112650000D01*
X62454987Y-111754000D01*
X64545407Y-111754000D01*
X64548952Y-111789991D01*
X64560617Y-111828445D01*
X64579560Y-111863885D01*
X64605052Y-111894948D01*
X64636115Y-111920440D01*
X64671555Y-111939383D01*
X64710009Y-111951048D01*
X64750000Y-111954987D01*
X65325067Y-111954987D01*
X65974485Y-112604406D01*
X65984000Y-112616000D01*
X66030290Y-112653989D01*
X66064706Y-112672384D01*
X66083101Y-112682217D01*
X66140405Y-112699600D01*
X66200000Y-112705470D01*
X66214924Y-112704000D01*
X66636835Y-112704000D01*
X66669680Y-112753155D01*
X66746845Y-112830320D01*
X66837582Y-112890949D01*
X66938404Y-112932711D01*
X67045436Y-112954000D01*
X67154564Y-112954000D01*
X67261596Y-112932711D01*
X67362418Y-112890949D01*
X67453155Y-112830320D01*
X67530320Y-112753155D01*
X67590949Y-112662418D01*
X67632711Y-112561596D01*
X67654000Y-112454564D01*
X67654000Y-112383920D01*
X68974486Y-113704407D01*
X68984000Y-113716000D01*
X69030290Y-113753989D01*
X69064706Y-113772384D01*
X69083101Y-113782217D01*
X69140405Y-113799600D01*
X69200000Y-113805470D01*
X69214924Y-113804000D01*
X85985076Y-113804000D01*
X86000000Y-113805470D01*
X86059594Y-113799600D01*
X86116898Y-113782217D01*
X86169710Y-113753989D01*
X86216000Y-113716000D01*
X86225519Y-113704401D01*
X86458362Y-113471558D01*
X89136723Y-116149919D01*
X89145519Y-116160637D01*
X89156237Y-116169433D01*
X89188306Y-116195752D01*
X89195717Y-116199713D01*
X89237123Y-116221845D01*
X89290091Y-116237913D01*
X89331378Y-116241979D01*
X89331387Y-116241979D01*
X89345176Y-116243337D01*
X89358965Y-116241979D01*
X91331602Y-116241979D01*
X91358517Y-116282261D01*
X91428718Y-116352462D01*
X91511266Y-116407618D01*
X91602989Y-116445611D01*
X91700360Y-116464979D01*
X91799640Y-116464979D01*
X91897011Y-116445611D01*
X91988734Y-116407618D01*
X92071282Y-116352462D01*
X92141483Y-116282261D01*
X92196639Y-116199713D01*
X92234632Y-116107990D01*
X92254000Y-116010619D01*
X92254000Y-115911339D01*
X92234632Y-115813968D01*
X92196639Y-115722245D01*
X92141483Y-115639697D01*
X92071282Y-115569496D01*
X91988734Y-115514340D01*
X91897011Y-115476347D01*
X91799640Y-115456979D01*
X91700360Y-115456979D01*
X91602989Y-115476347D01*
X91511266Y-115514340D01*
X91428718Y-115569496D01*
X91358517Y-115639697D01*
X91331602Y-115679979D01*
X89461571Y-115679979D01*
X86836004Y-113054413D01*
X86845255Y-113023917D01*
X86849600Y-113009595D01*
X86851168Y-112993676D01*
X86854000Y-112964924D01*
X86854000Y-112964917D01*
X86855469Y-112950001D01*
X86854000Y-112935085D01*
X86854000Y-112472870D01*
X86864383Y-112453445D01*
X86876048Y-112414991D01*
X86879987Y-112375000D01*
X86879987Y-111579987D01*
X87232594Y-111579987D01*
X87545013Y-111892406D01*
X87545013Y-112450000D01*
X87548952Y-112489991D01*
X87560617Y-112528445D01*
X87579560Y-112563885D01*
X87605052Y-112594948D01*
X87636115Y-112620440D01*
X87671555Y-112639383D01*
X87710009Y-112651048D01*
X87750000Y-112654987D01*
X88650000Y-112654987D01*
X88689991Y-112651048D01*
X88728445Y-112639383D01*
X88763885Y-112620440D01*
X88794948Y-112594948D01*
X88820440Y-112563885D01*
X88839383Y-112528445D01*
X88851048Y-112489991D01*
X88854987Y-112450000D01*
X88854987Y-111850000D01*
X88851048Y-111810009D01*
X88839383Y-111771555D01*
X88820440Y-111736115D01*
X88794948Y-111705052D01*
X88763885Y-111679560D01*
X88728445Y-111660617D01*
X88689991Y-111648952D01*
X88650000Y-111645013D01*
X88092407Y-111645013D01*
X87872868Y-111425474D01*
X87876048Y-111414991D01*
X87879987Y-111375000D01*
X87879987Y-111125000D01*
X87876048Y-111085009D01*
X87864383Y-111046555D01*
X87856069Y-111031000D01*
X88920013Y-111031000D01*
X88920013Y-111630000D01*
X88923952Y-111669991D01*
X88935617Y-111708445D01*
X88954560Y-111743885D01*
X88980052Y-111774948D01*
X89011115Y-111800440D01*
X89046555Y-111819383D01*
X89085009Y-111831048D01*
X89125000Y-111834987D01*
X89172662Y-111834987D01*
X89173066Y-111839085D01*
X89189134Y-111892053D01*
X89215227Y-111940870D01*
X89250342Y-111983658D01*
X89261065Y-111992458D01*
X89318543Y-112049936D01*
X89327343Y-112060659D01*
X89370131Y-112095774D01*
X89418947Y-112121867D01*
X89471915Y-112137935D01*
X89513202Y-112142001D01*
X89513204Y-112142001D01*
X89527001Y-112143360D01*
X89540798Y-112142001D01*
X89974524Y-112142001D01*
X89969680Y-112146845D01*
X89909051Y-112237582D01*
X89867289Y-112338404D01*
X89846000Y-112445436D01*
X89846000Y-112554564D01*
X89867289Y-112661596D01*
X89909051Y-112762418D01*
X89969680Y-112853155D01*
X90046001Y-112929476D01*
X90046001Y-113306880D01*
X90044289Y-113324264D01*
X90051123Y-113393660D01*
X90071125Y-113459594D01*
X90071366Y-113460389D01*
X90104237Y-113521887D01*
X90148475Y-113575790D01*
X90161977Y-113586871D01*
X93388856Y-116813751D01*
X92433607Y-117769000D01*
X88204987Y-117769000D01*
X88204987Y-117455000D01*
X88201048Y-117415009D01*
X88189383Y-117376555D01*
X88170440Y-117341115D01*
X88144948Y-117310052D01*
X88113885Y-117284560D01*
X88078445Y-117265617D01*
X88039991Y-117253952D01*
X88000000Y-117250013D01*
X86600000Y-117250013D01*
X86560009Y-117253952D01*
X86521555Y-117265617D01*
X86486115Y-117284560D01*
X86455052Y-117310052D01*
X86429560Y-117341115D01*
X86410617Y-117376555D01*
X86398952Y-117415009D01*
X86395013Y-117455000D01*
X86395013Y-117699000D01*
X86333796Y-117699000D01*
X86319999Y-117697641D01*
X86306202Y-117699000D01*
X86306201Y-117699000D01*
X86264914Y-117703066D01*
X86211946Y-117719134D01*
X86189222Y-117731280D01*
X86163129Y-117745227D01*
X86134162Y-117769000D01*
X86120342Y-117780342D01*
X86111546Y-117791060D01*
X86054000Y-117848606D01*
X86054000Y-117745436D01*
X86032711Y-117638404D01*
X85990949Y-117537582D01*
X85930320Y-117446845D01*
X85853155Y-117369680D01*
X85762418Y-117309051D01*
X85661596Y-117267289D01*
X85554564Y-117246000D01*
X85445436Y-117246000D01*
X85338404Y-117267289D01*
X85237582Y-117309051D01*
X85146845Y-117369680D01*
X85069680Y-117446845D01*
X85009051Y-117537582D01*
X84967289Y-117638404D01*
X84946000Y-117745436D01*
X84946000Y-117854564D01*
X84960163Y-117925770D01*
X84825458Y-117791065D01*
X84816658Y-117780342D01*
X84773870Y-117745227D01*
X84725054Y-117719134D01*
X84672086Y-117703066D01*
X84630799Y-117699000D01*
X84630797Y-117699000D01*
X84617000Y-117697641D01*
X84604987Y-117698824D01*
X84604987Y-117455000D01*
X84601048Y-117415009D01*
X84589383Y-117376555D01*
X84570440Y-117341115D01*
X84544948Y-117310052D01*
X84513885Y-117284560D01*
X84478445Y-117265617D01*
X84439991Y-117253952D01*
X84400000Y-117250013D01*
X83000000Y-117250013D01*
X82960009Y-117253952D01*
X82921555Y-117265617D01*
X82886115Y-117284560D01*
X82855052Y-117310052D01*
X82829560Y-117341115D01*
X82810617Y-117376555D01*
X82798952Y-117415009D01*
X82795013Y-117455000D01*
X82795013Y-118505000D01*
X82798952Y-118544991D01*
X82810617Y-118583445D01*
X82829560Y-118618885D01*
X82855052Y-118649948D01*
X82886115Y-118675440D01*
X82921555Y-118694383D01*
X82940072Y-118700000D01*
X82921555Y-118705617D01*
X82886115Y-118724560D01*
X82855052Y-118750052D01*
X82829560Y-118781115D01*
X82810617Y-118816555D01*
X82798952Y-118855009D01*
X82795013Y-118895000D01*
X82795013Y-119945000D01*
X82798952Y-119984991D01*
X82810617Y-120023445D01*
X82829560Y-120058885D01*
X82855052Y-120089948D01*
X82886115Y-120115440D01*
X82904001Y-120125000D01*
X50125000Y-120125000D01*
X50125000Y-114625000D01*
X51243866Y-114625000D01*
X51250000Y-114625604D01*
X51256133Y-114625000D01*
X51256134Y-114625000D01*
X51274504Y-114623191D01*
X51298067Y-114616043D01*
X51319782Y-114604436D01*
X51338815Y-114588815D01*
X51354436Y-114569782D01*
X51366043Y-114548067D01*
X51373191Y-114524504D01*
X51375604Y-114500000D01*
X51375000Y-114493866D01*
X51375000Y-105506133D01*
X51375604Y-105500000D01*
X51373191Y-105475496D01*
X51366043Y-105451933D01*
X51354436Y-105430218D01*
X51338815Y-105411185D01*
X51319782Y-105395564D01*
X51298067Y-105383957D01*
X51274504Y-105376809D01*
X51256134Y-105375000D01*
X51250000Y-105374396D01*
X51243867Y-105375000D01*
X50125000Y-105375000D01*
X50125000Y-99875000D01*
X82904001Y-99875000D01*
X82886115Y-99884560D01*
G36*
X99875000Y-120125000D02*
G01*
X88095999Y-120125000D01*
X88113885Y-120115440D01*
X88144948Y-120089948D01*
X88170440Y-120058885D01*
X88189383Y-120023445D01*
X88201048Y-119984991D01*
X88204987Y-119945000D01*
X88204987Y-119701000D01*
X95561557Y-119701000D01*
X95608517Y-119771282D01*
X95678718Y-119841483D01*
X95761266Y-119896639D01*
X95852989Y-119934632D01*
X95950360Y-119954000D01*
X96049640Y-119954000D01*
X96147011Y-119934632D01*
X96238734Y-119896639D01*
X96321282Y-119841483D01*
X96391483Y-119771282D01*
X96446639Y-119688734D01*
X96484632Y-119597011D01*
X96504000Y-119499640D01*
X96504000Y-119400360D01*
X96484632Y-119302989D01*
X96446639Y-119211266D01*
X96391483Y-119128718D01*
X96321282Y-119058517D01*
X96238734Y-119003361D01*
X96147011Y-118965368D01*
X96049640Y-118946000D01*
X95950360Y-118946000D01*
X95852989Y-118965368D01*
X95761266Y-119003361D01*
X95678718Y-119058517D01*
X95608517Y-119128718D01*
X95601647Y-119139000D01*
X88204987Y-119139000D01*
X88204987Y-118895000D01*
X88201048Y-118855009D01*
X88189383Y-118816555D01*
X88170440Y-118781115D01*
X88144948Y-118750052D01*
X88113885Y-118724560D01*
X88078445Y-118705617D01*
X88059928Y-118700000D01*
X88078445Y-118694383D01*
X88113885Y-118675440D01*
X88144948Y-118649948D01*
X88170440Y-118618885D01*
X88189383Y-118583445D01*
X88201048Y-118544991D01*
X88204987Y-118505000D01*
X88204987Y-118331000D01*
X92536203Y-118331000D01*
X92550000Y-118332359D01*
X92563797Y-118331000D01*
X92563799Y-118331000D01*
X92605086Y-118326934D01*
X92658054Y-118310866D01*
X92706870Y-118284773D01*
X92749658Y-118249658D01*
X92758458Y-118238935D01*
X93943394Y-117054000D01*
X95641237Y-117054000D01*
X95678720Y-117091483D01*
X95761268Y-117146639D01*
X95852991Y-117184632D01*
X95950362Y-117204000D01*
X96049642Y-117204000D01*
X96147013Y-117184632D01*
X96238736Y-117146639D01*
X96321284Y-117091483D01*
X96391485Y-117021282D01*
X96446641Y-116938734D01*
X96484634Y-116847011D01*
X96504002Y-116749640D01*
X96504002Y-116650360D01*
X96484634Y-116552989D01*
X96446641Y-116461266D01*
X96391485Y-116378718D01*
X96321284Y-116308517D01*
X96238736Y-116253361D01*
X96147013Y-116215368D01*
X96049642Y-116196000D01*
X95950362Y-116196000D01*
X95852991Y-116215368D01*
X95761268Y-116253361D01*
X95678720Y-116308517D01*
X95641237Y-116346000D01*
X93922367Y-116346000D01*
X93530367Y-115954000D01*
X95277712Y-115954000D01*
X95300000Y-115956195D01*
X95322288Y-115954000D01*
X95322295Y-115954000D01*
X95388999Y-115947430D01*
X95474579Y-115921470D01*
X95553449Y-115879313D01*
X95622579Y-115822579D01*
X95636794Y-115805258D01*
X96205264Y-115236789D01*
X96222579Y-115222579D01*
X96279313Y-115153449D01*
X96321470Y-115074579D01*
X96347430Y-114988999D01*
X96354000Y-114922295D01*
X96354000Y-114922289D01*
X96356195Y-114900001D01*
X96354000Y-114877713D01*
X96354000Y-113904000D01*
X97800000Y-113904000D01*
X97839798Y-113900080D01*
X97878067Y-113888471D01*
X97913336Y-113869620D01*
X97944250Y-113844250D01*
X97969620Y-113813336D01*
X97988471Y-113778067D01*
X98000080Y-113739798D01*
X98004000Y-113700000D01*
X98004000Y-104484500D01*
X99875001Y-102613499D01*
X99875000Y-120125000D01*
X99875000Y-120125000D01*
G37*
X99875000Y-120125000D02*
X88095999Y-120125000D01*
X88113885Y-120115440D01*
X88144948Y-120089948D01*
X88170440Y-120058885D01*
X88189383Y-120023445D01*
X88201048Y-119984991D01*
X88204987Y-119945000D01*
X88204987Y-119701000D01*
X95561557Y-119701000D01*
X95608517Y-119771282D01*
X95678718Y-119841483D01*
X95761266Y-119896639D01*
X95852989Y-119934632D01*
X95950360Y-119954000D01*
X96049640Y-119954000D01*
X96147011Y-119934632D01*
X96238734Y-119896639D01*
X96321282Y-119841483D01*
X96391483Y-119771282D01*
X96446639Y-119688734D01*
X96484632Y-119597011D01*
X96504000Y-119499640D01*
X96504000Y-119400360D01*
X96484632Y-119302989D01*
X96446639Y-119211266D01*
X96391483Y-119128718D01*
X96321282Y-119058517D01*
X96238734Y-119003361D01*
X96147011Y-118965368D01*
X96049640Y-118946000D01*
X95950360Y-118946000D01*
X95852989Y-118965368D01*
X95761266Y-119003361D01*
X95678718Y-119058517D01*
X95608517Y-119128718D01*
X95601647Y-119139000D01*
X88204987Y-119139000D01*
X88204987Y-118895000D01*
X88201048Y-118855009D01*
X88189383Y-118816555D01*
X88170440Y-118781115D01*
X88144948Y-118750052D01*
X88113885Y-118724560D01*
X88078445Y-118705617D01*
X88059928Y-118700000D01*
X88078445Y-118694383D01*
X88113885Y-118675440D01*
X88144948Y-118649948D01*
X88170440Y-118618885D01*
X88189383Y-118583445D01*
X88201048Y-118544991D01*
X88204987Y-118505000D01*
X88204987Y-118331000D01*
X92536203Y-118331000D01*
X92550000Y-118332359D01*
X92563797Y-118331000D01*
X92563799Y-118331000D01*
X92605086Y-118326934D01*
X92658054Y-118310866D01*
X92706870Y-118284773D01*
X92749658Y-118249658D01*
X92758458Y-118238935D01*
X93943394Y-117054000D01*
X95641237Y-117054000D01*
X95678720Y-117091483D01*
X95761268Y-117146639D01*
X95852991Y-117184632D01*
X95950362Y-117204000D01*
X96049642Y-117204000D01*
X96147013Y-117184632D01*
X96238736Y-117146639D01*
X96321284Y-117091483D01*
X96391485Y-117021282D01*
X96446641Y-116938734D01*
X96484634Y-116847011D01*
X96504002Y-116749640D01*
X96504002Y-116650360D01*
X96484634Y-116552989D01*
X96446641Y-116461266D01*
X96391485Y-116378718D01*
X96321284Y-116308517D01*
X96238736Y-116253361D01*
X96147013Y-116215368D01*
X96049642Y-116196000D01*
X95950362Y-116196000D01*
X95852991Y-116215368D01*
X95761268Y-116253361D01*
X95678720Y-116308517D01*
X95641237Y-116346000D01*
X93922367Y-116346000D01*
X93530367Y-115954000D01*
X95277712Y-115954000D01*
X95300000Y-115956195D01*
X95322288Y-115954000D01*
X95322295Y-115954000D01*
X95388999Y-115947430D01*
X95474579Y-115921470D01*
X95553449Y-115879313D01*
X95622579Y-115822579D01*
X95636794Y-115805258D01*
X96205264Y-115236789D01*
X96222579Y-115222579D01*
X96279313Y-115153449D01*
X96321470Y-115074579D01*
X96347430Y-114988999D01*
X96354000Y-114922295D01*
X96354000Y-114922289D01*
X96356195Y-114900001D01*
X96354000Y-114877713D01*
X96354000Y-113904000D01*
X97800000Y-113904000D01*
X97839798Y-113900080D01*
X97878067Y-113888471D01*
X97913336Y-113869620D01*
X97944250Y-113844250D01*
X97969620Y-113813336D01*
X97988471Y-113778067D01*
X98000080Y-113739798D01*
X98004000Y-113700000D01*
X98004000Y-104484500D01*
X99875001Y-102613499D01*
X99875000Y-120125000D01*
G36*
X85200002Y-106245013D02*
G01*
X84350000Y-106245013D01*
X84310009Y-106248952D01*
X84271555Y-106260617D01*
X84236115Y-106279560D01*
X84205052Y-106305052D01*
X84179560Y-106336115D01*
X84160617Y-106371555D01*
X84154000Y-106393368D01*
X84154000Y-106345436D01*
X84132711Y-106238404D01*
X84090949Y-106137582D01*
X84030320Y-106046845D01*
X83953155Y-105969680D01*
X83862418Y-105909051D01*
X83761596Y-105867289D01*
X83654564Y-105846000D01*
X83545436Y-105846000D01*
X83438404Y-105867289D01*
X83337582Y-105909051D01*
X83246845Y-105969680D01*
X83169680Y-106046845D01*
X83109051Y-106137582D01*
X83067289Y-106238404D01*
X83054987Y-106300253D01*
X83054987Y-106150000D01*
X83051048Y-106110009D01*
X83039383Y-106071555D01*
X83020440Y-106036115D01*
X82994948Y-106005052D01*
X82963885Y-105979560D01*
X82928445Y-105960617D01*
X82889991Y-105948952D01*
X82850000Y-105945013D01*
X81950000Y-105945013D01*
X81910009Y-105948952D01*
X81871555Y-105960617D01*
X81836115Y-105979560D01*
X81805052Y-106005052D01*
X81779560Y-106036115D01*
X81760617Y-106071555D01*
X81748952Y-106110009D01*
X81745013Y-106150000D01*
X81745013Y-106750000D01*
X81748952Y-106789991D01*
X81760617Y-106828445D01*
X81779560Y-106863885D01*
X81805052Y-106894948D01*
X81836115Y-106920440D01*
X81871555Y-106939383D01*
X81910009Y-106951048D01*
X81950000Y-106954987D01*
X82657594Y-106954987D01*
X82788882Y-107086275D01*
X82767289Y-107138404D01*
X82746000Y-107245436D01*
X82746000Y-107354564D01*
X82763991Y-107445013D01*
X81950000Y-107445013D01*
X81910009Y-107448952D01*
X81871555Y-107460617D01*
X81836115Y-107479560D01*
X81805052Y-107505052D01*
X81779560Y-107536115D01*
X81760617Y-107571555D01*
X81748952Y-107610009D01*
X81745013Y-107650000D01*
X81745013Y-108250000D01*
X81748952Y-108289991D01*
X81760617Y-108328445D01*
X81779560Y-108363885D01*
X81805052Y-108394948D01*
X81836115Y-108420440D01*
X81871555Y-108439383D01*
X81910009Y-108451048D01*
X81950000Y-108454987D01*
X82475067Y-108454987D01*
X82720013Y-108699934D01*
X82720013Y-108875000D01*
X82723952Y-108914991D01*
X82735617Y-108953445D01*
X82754560Y-108988885D01*
X82763682Y-109000000D01*
X82754560Y-109011115D01*
X82735617Y-109046555D01*
X82723952Y-109085009D01*
X82720013Y-109125000D01*
X82720013Y-109375000D01*
X82723952Y-109414991D01*
X82735617Y-109453445D01*
X82754560Y-109488885D01*
X82763682Y-109500000D01*
X82754560Y-109511115D01*
X82735617Y-109546555D01*
X82723952Y-109585009D01*
X82720013Y-109625000D01*
X82720013Y-109875000D01*
X82723952Y-109914991D01*
X82735617Y-109953445D01*
X82754560Y-109988885D01*
X82763682Y-110000000D01*
X82754560Y-110011115D01*
X82735617Y-110046555D01*
X82723952Y-110085009D01*
X82720013Y-110125000D01*
X82720013Y-110375000D01*
X82723952Y-110414991D01*
X82735617Y-110453445D01*
X82754560Y-110488885D01*
X82763682Y-110500000D01*
X82754560Y-110511115D01*
X82735617Y-110546555D01*
X82723952Y-110585009D01*
X82720013Y-110625000D01*
X82720013Y-110875000D01*
X82723952Y-110914991D01*
X82735617Y-110953445D01*
X82754560Y-110988885D01*
X82780052Y-111019948D01*
X82811115Y-111045440D01*
X82846555Y-111064383D01*
X82885009Y-111076048D01*
X82925000Y-111079987D01*
X83750000Y-111079987D01*
X83789991Y-111076048D01*
X83828445Y-111064383D01*
X83863885Y-111045440D01*
X83894948Y-111019948D01*
X83920440Y-110988885D01*
X83939383Y-110953445D01*
X83951048Y-110914991D01*
X83954987Y-110875000D01*
X83954987Y-110625000D01*
X83951048Y-110585009D01*
X83939383Y-110546555D01*
X83920440Y-110511115D01*
X83911318Y-110500000D01*
X83920440Y-110488885D01*
X83939383Y-110453445D01*
X83951048Y-110414991D01*
X83954987Y-110375000D01*
X83954987Y-110125000D01*
X83951048Y-110085009D01*
X83939383Y-110046555D01*
X83920440Y-110011115D01*
X83911318Y-110000000D01*
X83920440Y-109988885D01*
X83939383Y-109953445D01*
X83951048Y-109914991D01*
X83954987Y-109875000D01*
X83954987Y-109625000D01*
X83951048Y-109585009D01*
X83939383Y-109546555D01*
X83920440Y-109511115D01*
X83911318Y-109500000D01*
X83920440Y-109488885D01*
X83939383Y-109453445D01*
X83951048Y-109414991D01*
X83954987Y-109375000D01*
X83954987Y-109125000D01*
X83951048Y-109085009D01*
X83939383Y-109046555D01*
X83920440Y-109011115D01*
X83911318Y-109000000D01*
X83920440Y-108988885D01*
X83939383Y-108953445D01*
X83951048Y-108914991D01*
X83954987Y-108875000D01*
X83954987Y-108654987D01*
X84175000Y-108654987D01*
X84214991Y-108651048D01*
X84253445Y-108639383D01*
X84288885Y-108620440D01*
X84300000Y-108611318D01*
X84311115Y-108620440D01*
X84346555Y-108639383D01*
X84385009Y-108651048D01*
X84425000Y-108654987D01*
X84675000Y-108654987D01*
X84714991Y-108651048D01*
X84753445Y-108639383D01*
X84788885Y-108620440D01*
X84800000Y-108611318D01*
X84811115Y-108620440D01*
X84846555Y-108639383D01*
X84885009Y-108651048D01*
X84925000Y-108654987D01*
X85175000Y-108654987D01*
X85214991Y-108651048D01*
X85253445Y-108639383D01*
X85288885Y-108620440D01*
X85300000Y-108611318D01*
X85311115Y-108620440D01*
X85346555Y-108639383D01*
X85385009Y-108651048D01*
X85425000Y-108654987D01*
X85675000Y-108654987D01*
X85714991Y-108651048D01*
X85753445Y-108639383D01*
X85788885Y-108620440D01*
X85800000Y-108611318D01*
X85811115Y-108620440D01*
X85846555Y-108639383D01*
X85885009Y-108651048D01*
X85925000Y-108654987D01*
X86175000Y-108654987D01*
X86214991Y-108651048D01*
X86253445Y-108639383D01*
X86288885Y-108620440D01*
X86300000Y-108611318D01*
X86311115Y-108620440D01*
X86346555Y-108639383D01*
X86385009Y-108651048D01*
X86425000Y-108654987D01*
X86645013Y-108654987D01*
X86645013Y-108875000D01*
X86648952Y-108914991D01*
X86660617Y-108953445D01*
X86679560Y-108988885D01*
X86688682Y-109000000D01*
X86679560Y-109011115D01*
X86660617Y-109046555D01*
X86648952Y-109085009D01*
X86645013Y-109125000D01*
X86645013Y-109375000D01*
X86648952Y-109414991D01*
X86660617Y-109453445D01*
X86679560Y-109488885D01*
X86688682Y-109500000D01*
X86679560Y-109511115D01*
X86660617Y-109546555D01*
X86648952Y-109585009D01*
X86645013Y-109625000D01*
X86645013Y-109875000D01*
X86648952Y-109914991D01*
X86660617Y-109953445D01*
X86679560Y-109988885D01*
X86688682Y-110000000D01*
X86679560Y-110011115D01*
X86660617Y-110046555D01*
X86648952Y-110085009D01*
X86645013Y-110125000D01*
X86645013Y-110375000D01*
X86648952Y-110414991D01*
X86660617Y-110453445D01*
X86679560Y-110488885D01*
X86688682Y-110500000D01*
X86679560Y-110511115D01*
X86660617Y-110546555D01*
X86648952Y-110585009D01*
X86645013Y-110625000D01*
X86645013Y-110875000D01*
X86648952Y-110914991D01*
X86660617Y-110953445D01*
X86679560Y-110988885D01*
X86688682Y-111000000D01*
X86679560Y-111011115D01*
X86660617Y-111046555D01*
X86648952Y-111085009D01*
X86645013Y-111125000D01*
X86645013Y-111345013D01*
X86425000Y-111345013D01*
X86385009Y-111348952D01*
X86346555Y-111360617D01*
X86311115Y-111379560D01*
X86300000Y-111388682D01*
X86288885Y-111379560D01*
X86253445Y-111360617D01*
X86214991Y-111348952D01*
X86175000Y-111345013D01*
X85925000Y-111345013D01*
X85885009Y-111348952D01*
X85846555Y-111360617D01*
X85811115Y-111379560D01*
X85800000Y-111388682D01*
X85788885Y-111379560D01*
X85753445Y-111360617D01*
X85714991Y-111348952D01*
X85675000Y-111345013D01*
X85425000Y-111345013D01*
X85385009Y-111348952D01*
X85346555Y-111360617D01*
X85311115Y-111379560D01*
X85280052Y-111405052D01*
X85254560Y-111436115D01*
X85235617Y-111471555D01*
X85223952Y-111510009D01*
X85220013Y-111550000D01*
X85220013Y-112375000D01*
X85223952Y-112414991D01*
X85235617Y-112453445D01*
X85237869Y-112457658D01*
X85169680Y-112525847D01*
X85109051Y-112616584D01*
X85067289Y-112717406D01*
X85051656Y-112796000D01*
X69825923Y-112796000D01*
X69575518Y-112545596D01*
X69575514Y-112545591D01*
X69542469Y-112512546D01*
X69554002Y-112454564D01*
X69554002Y-112345436D01*
X69532713Y-112238404D01*
X69490951Y-112137582D01*
X69430322Y-112046845D01*
X69353157Y-111969680D01*
X69262420Y-111909051D01*
X69161598Y-111867289D01*
X69054566Y-111846000D01*
X68945438Y-111846000D01*
X68838406Y-111867289D01*
X68737584Y-111909051D01*
X68646847Y-111969680D01*
X68569682Y-112046845D01*
X68509053Y-112137582D01*
X68467291Y-112238404D01*
X68450872Y-112320952D01*
X67679920Y-111550000D01*
X84220013Y-111550000D01*
X84220013Y-112375000D01*
X84223952Y-112414991D01*
X84235617Y-112453445D01*
X84254560Y-112488885D01*
X84280052Y-112519948D01*
X84311115Y-112545440D01*
X84346555Y-112564383D01*
X84385009Y-112576048D01*
X84425000Y-112579987D01*
X84675000Y-112579987D01*
X84714991Y-112576048D01*
X84753445Y-112564383D01*
X84788885Y-112545440D01*
X84819948Y-112519948D01*
X84845440Y-112488885D01*
X84864383Y-112453445D01*
X84876048Y-112414991D01*
X84879987Y-112375000D01*
X84879987Y-111550000D01*
X84876048Y-111510009D01*
X84864383Y-111471555D01*
X84845440Y-111436115D01*
X84819948Y-111405052D01*
X84788885Y-111379560D01*
X84753445Y-111360617D01*
X84714991Y-111348952D01*
X84675000Y-111345013D01*
X84425000Y-111345013D01*
X84385009Y-111348952D01*
X84346555Y-111360617D01*
X84311115Y-111379560D01*
X84280052Y-111405052D01*
X84254560Y-111436115D01*
X84235617Y-111471555D01*
X84223952Y-111510009D01*
X84220013Y-111550000D01*
X67679920Y-111550000D01*
X67375519Y-111245599D01*
X67366000Y-111234000D01*
X67319710Y-111196011D01*
X67266898Y-111167783D01*
X67209594Y-111150400D01*
X67164924Y-111146000D01*
X67154492Y-111144972D01*
X67151048Y-111110009D01*
X67139383Y-111071555D01*
X67120440Y-111036115D01*
X67094948Y-111005052D01*
X67063885Y-110979560D01*
X67028445Y-110960617D01*
X66989991Y-110948952D01*
X66950000Y-110945013D01*
X66274933Y-110945013D01*
X66021518Y-110691598D01*
X66011999Y-110679999D01*
X65965709Y-110642010D01*
X65912897Y-110613782D01*
X65855593Y-110596399D01*
X65810923Y-110591999D01*
X65795999Y-110590529D01*
X65781075Y-110591999D01*
X64450439Y-110591999D01*
X64451048Y-110589991D01*
X64454987Y-110550000D01*
X64454987Y-109950000D01*
X64451048Y-109910009D01*
X64439383Y-109871555D01*
X64420440Y-109836115D01*
X64394948Y-109805052D01*
X64363885Y-109779560D01*
X64328445Y-109760617D01*
X64306632Y-109754000D01*
X64424080Y-109754000D01*
X64545013Y-109874933D01*
X64545013Y-110250000D01*
X64548952Y-110289991D01*
X64560617Y-110328445D01*
X64579560Y-110363885D01*
X64605052Y-110394948D01*
X64636115Y-110420440D01*
X64671555Y-110439383D01*
X64710009Y-110451048D01*
X64750000Y-110454987D01*
X65650000Y-110454987D01*
X65689991Y-110451048D01*
X65728445Y-110439383D01*
X65763885Y-110420440D01*
X65794948Y-110394948D01*
X65820440Y-110363885D01*
X65839383Y-110328445D01*
X65850000Y-110293446D01*
X65860617Y-110328445D01*
X65879560Y-110363885D01*
X65905052Y-110394948D01*
X65936115Y-110420440D01*
X65971555Y-110439383D01*
X66010009Y-110451048D01*
X66050000Y-110454987D01*
X66950000Y-110454987D01*
X66989991Y-110451048D01*
X67028445Y-110439383D01*
X67063885Y-110420440D01*
X67094948Y-110394948D01*
X67120440Y-110363885D01*
X67139383Y-110328445D01*
X67146798Y-110304000D01*
X76582626Y-110304000D01*
X76600000Y-110305711D01*
X76617374Y-110304000D01*
X76617382Y-110304000D01*
X76669396Y-110298877D01*
X76736125Y-110278635D01*
X76797623Y-110245764D01*
X76851526Y-110201526D01*
X76862612Y-110188018D01*
X82246632Y-104804000D01*
X85200001Y-104804000D01*
X85200002Y-106245013D01*
X85200002Y-106245013D01*
G37*
X85200002Y-106245013D02*
X84350000Y-106245013D01*
X84310009Y-106248952D01*
X84271555Y-106260617D01*
X84236115Y-106279560D01*
X84205052Y-106305052D01*
X84179560Y-106336115D01*
X84160617Y-106371555D01*
X84154000Y-106393368D01*
X84154000Y-106345436D01*
X84132711Y-106238404D01*
X84090949Y-106137582D01*
X84030320Y-106046845D01*
X83953155Y-105969680D01*
X83862418Y-105909051D01*
X83761596Y-105867289D01*
X83654564Y-105846000D01*
X83545436Y-105846000D01*
X83438404Y-105867289D01*
X83337582Y-105909051D01*
X83246845Y-105969680D01*
X83169680Y-106046845D01*
X83109051Y-106137582D01*
X83067289Y-106238404D01*
X83054987Y-106300253D01*
X83054987Y-106150000D01*
X83051048Y-106110009D01*
X83039383Y-106071555D01*
X83020440Y-106036115D01*
X82994948Y-106005052D01*
X82963885Y-105979560D01*
X82928445Y-105960617D01*
X82889991Y-105948952D01*
X82850000Y-105945013D01*
X81950000Y-105945013D01*
X81910009Y-105948952D01*
X81871555Y-105960617D01*
X81836115Y-105979560D01*
X81805052Y-106005052D01*
X81779560Y-106036115D01*
X81760617Y-106071555D01*
X81748952Y-106110009D01*
X81745013Y-106150000D01*
X81745013Y-106750000D01*
X81748952Y-106789991D01*
X81760617Y-106828445D01*
X81779560Y-106863885D01*
X81805052Y-106894948D01*
X81836115Y-106920440D01*
X81871555Y-106939383D01*
X81910009Y-106951048D01*
X81950000Y-106954987D01*
X82657594Y-106954987D01*
X82788882Y-107086275D01*
X82767289Y-107138404D01*
X82746000Y-107245436D01*
X82746000Y-107354564D01*
X82763991Y-107445013D01*
X81950000Y-107445013D01*
X81910009Y-107448952D01*
X81871555Y-107460617D01*
X81836115Y-107479560D01*
X81805052Y-107505052D01*
X81779560Y-107536115D01*
X81760617Y-107571555D01*
X81748952Y-107610009D01*
X81745013Y-107650000D01*
X81745013Y-108250000D01*
X81748952Y-108289991D01*
X81760617Y-108328445D01*
X81779560Y-108363885D01*
X81805052Y-108394948D01*
X81836115Y-108420440D01*
X81871555Y-108439383D01*
X81910009Y-108451048D01*
X81950000Y-108454987D01*
X82475067Y-108454987D01*
X82720013Y-108699934D01*
X82720013Y-108875000D01*
X82723952Y-108914991D01*
X82735617Y-108953445D01*
X82754560Y-108988885D01*
X82763682Y-109000000D01*
X82754560Y-109011115D01*
X82735617Y-109046555D01*
X82723952Y-109085009D01*
X82720013Y-109125000D01*
X82720013Y-109375000D01*
X82723952Y-109414991D01*
X82735617Y-109453445D01*
X82754560Y-109488885D01*
X82763682Y-109500000D01*
X82754560Y-109511115D01*
X82735617Y-109546555D01*
X82723952Y-109585009D01*
X82720013Y-109625000D01*
X82720013Y-109875000D01*
X82723952Y-109914991D01*
X82735617Y-109953445D01*
X82754560Y-109988885D01*
X82763682Y-110000000D01*
X82754560Y-110011115D01*
X82735617Y-110046555D01*
X82723952Y-110085009D01*
X82720013Y-110125000D01*
X82720013Y-110375000D01*
X82723952Y-110414991D01*
X82735617Y-110453445D01*
X82754560Y-110488885D01*
X82763682Y-110500000D01*
X82754560Y-110511115D01*
X82735617Y-110546555D01*
X82723952Y-110585009D01*
X82720013Y-110625000D01*
X82720013Y-110875000D01*
X82723952Y-110914991D01*
X82735617Y-110953445D01*
X82754560Y-110988885D01*
X82780052Y-111019948D01*
X82811115Y-111045440D01*
X82846555Y-111064383D01*
X82885009Y-111076048D01*
X82925000Y-111079987D01*
X83750000Y-111079987D01*
X83789991Y-111076048D01*
X83828445Y-111064383D01*
X83863885Y-111045440D01*
X83894948Y-111019948D01*
X83920440Y-110988885D01*
X83939383Y-110953445D01*
X83951048Y-110914991D01*
X83954987Y-110875000D01*
X83954987Y-110625000D01*
X83951048Y-110585009D01*
X83939383Y-110546555D01*
X83920440Y-110511115D01*
X83911318Y-110500000D01*
X83920440Y-110488885D01*
X83939383Y-110453445D01*
X83951048Y-110414991D01*
X83954987Y-110375000D01*
X83954987Y-110125000D01*
X83951048Y-110085009D01*
X83939383Y-110046555D01*
X83920440Y-110011115D01*
X83911318Y-110000000D01*
X83920440Y-109988885D01*
X83939383Y-109953445D01*
X83951048Y-109914991D01*
X83954987Y-109875000D01*
X83954987Y-109625000D01*
X83951048Y-109585009D01*
X83939383Y-109546555D01*
X83920440Y-109511115D01*
X83911318Y-109500000D01*
X83920440Y-109488885D01*
X83939383Y-109453445D01*
X83951048Y-109414991D01*
X83954987Y-109375000D01*
X83954987Y-109125000D01*
X83951048Y-109085009D01*
X83939383Y-109046555D01*
X83920440Y-109011115D01*
X83911318Y-109000000D01*
X83920440Y-108988885D01*
X83939383Y-108953445D01*
X83951048Y-108914991D01*
X83954987Y-108875000D01*
X83954987Y-108654987D01*
X84175000Y-108654987D01*
X84214991Y-108651048D01*
X84253445Y-108639383D01*
X84288885Y-108620440D01*
X84300000Y-108611318D01*
X84311115Y-108620440D01*
X84346555Y-108639383D01*
X84385009Y-108651048D01*
X84425000Y-108654987D01*
X84675000Y-108654987D01*
X84714991Y-108651048D01*
X84753445Y-108639383D01*
X84788885Y-108620440D01*
X84800000Y-108611318D01*
X84811115Y-108620440D01*
X84846555Y-108639383D01*
X84885009Y-108651048D01*
X84925000Y-108654987D01*
X85175000Y-108654987D01*
X85214991Y-108651048D01*
X85253445Y-108639383D01*
X85288885Y-108620440D01*
X85300000Y-108611318D01*
X85311115Y-108620440D01*
X85346555Y-108639383D01*
X85385009Y-108651048D01*
X85425000Y-108654987D01*
X85675000Y-108654987D01*
X85714991Y-108651048D01*
X85753445Y-108639383D01*
X85788885Y-108620440D01*
X85800000Y-108611318D01*
X85811115Y-108620440D01*
X85846555Y-108639383D01*
X85885009Y-108651048D01*
X85925000Y-108654987D01*
X86175000Y-108654987D01*
X86214991Y-108651048D01*
X86253445Y-108639383D01*
X86288885Y-108620440D01*
X86300000Y-108611318D01*
X86311115Y-108620440D01*
X86346555Y-108639383D01*
X86385009Y-108651048D01*
X86425000Y-108654987D01*
X86645013Y-108654987D01*
X86645013Y-108875000D01*
X86648952Y-108914991D01*
X86660617Y-108953445D01*
X86679560Y-108988885D01*
X86688682Y-109000000D01*
X86679560Y-109011115D01*
X86660617Y-109046555D01*
X86648952Y-109085009D01*
X86645013Y-109125000D01*
X86645013Y-109375000D01*
X86648952Y-109414991D01*
X86660617Y-109453445D01*
X86679560Y-109488885D01*
X86688682Y-109500000D01*
X86679560Y-109511115D01*
X86660617Y-109546555D01*
X86648952Y-109585009D01*
X86645013Y-109625000D01*
X86645013Y-109875000D01*
X86648952Y-109914991D01*
X86660617Y-109953445D01*
X86679560Y-109988885D01*
X86688682Y-110000000D01*
X86679560Y-110011115D01*
X86660617Y-110046555D01*
X86648952Y-110085009D01*
X86645013Y-110125000D01*
X86645013Y-110375000D01*
X86648952Y-110414991D01*
X86660617Y-110453445D01*
X86679560Y-110488885D01*
X86688682Y-110500000D01*
X86679560Y-110511115D01*
X86660617Y-110546555D01*
X86648952Y-110585009D01*
X86645013Y-110625000D01*
X86645013Y-110875000D01*
X86648952Y-110914991D01*
X86660617Y-110953445D01*
X86679560Y-110988885D01*
X86688682Y-111000000D01*
X86679560Y-111011115D01*
X86660617Y-111046555D01*
X86648952Y-111085009D01*
X86645013Y-111125000D01*
X86645013Y-111345013D01*
X86425000Y-111345013D01*
X86385009Y-111348952D01*
X86346555Y-111360617D01*
X86311115Y-111379560D01*
X86300000Y-111388682D01*
X86288885Y-111379560D01*
X86253445Y-111360617D01*
X86214991Y-111348952D01*
X86175000Y-111345013D01*
X85925000Y-111345013D01*
X85885009Y-111348952D01*
X85846555Y-111360617D01*
X85811115Y-111379560D01*
X85800000Y-111388682D01*
X85788885Y-111379560D01*
X85753445Y-111360617D01*
X85714991Y-111348952D01*
X85675000Y-111345013D01*
X85425000Y-111345013D01*
X85385009Y-111348952D01*
X85346555Y-111360617D01*
X85311115Y-111379560D01*
X85280052Y-111405052D01*
X85254560Y-111436115D01*
X85235617Y-111471555D01*
X85223952Y-111510009D01*
X85220013Y-111550000D01*
X85220013Y-112375000D01*
X85223952Y-112414991D01*
X85235617Y-112453445D01*
X85237869Y-112457658D01*
X85169680Y-112525847D01*
X85109051Y-112616584D01*
X85067289Y-112717406D01*
X85051656Y-112796000D01*
X69825923Y-112796000D01*
X69575518Y-112545596D01*
X69575514Y-112545591D01*
X69542469Y-112512546D01*
X69554002Y-112454564D01*
X69554002Y-112345436D01*
X69532713Y-112238404D01*
X69490951Y-112137582D01*
X69430322Y-112046845D01*
X69353157Y-111969680D01*
X69262420Y-111909051D01*
X69161598Y-111867289D01*
X69054566Y-111846000D01*
X68945438Y-111846000D01*
X68838406Y-111867289D01*
X68737584Y-111909051D01*
X68646847Y-111969680D01*
X68569682Y-112046845D01*
X68509053Y-112137582D01*
X68467291Y-112238404D01*
X68450872Y-112320952D01*
X67679920Y-111550000D01*
X84220013Y-111550000D01*
X84220013Y-112375000D01*
X84223952Y-112414991D01*
X84235617Y-112453445D01*
X84254560Y-112488885D01*
X84280052Y-112519948D01*
X84311115Y-112545440D01*
X84346555Y-112564383D01*
X84385009Y-112576048D01*
X84425000Y-112579987D01*
X84675000Y-112579987D01*
X84714991Y-112576048D01*
X84753445Y-112564383D01*
X84788885Y-112545440D01*
X84819948Y-112519948D01*
X84845440Y-112488885D01*
X84864383Y-112453445D01*
X84876048Y-112414991D01*
X84879987Y-112375000D01*
X84879987Y-111550000D01*
X84876048Y-111510009D01*
X84864383Y-111471555D01*
X84845440Y-111436115D01*
X84819948Y-111405052D01*
X84788885Y-111379560D01*
X84753445Y-111360617D01*
X84714991Y-111348952D01*
X84675000Y-111345013D01*
X84425000Y-111345013D01*
X84385009Y-111348952D01*
X84346555Y-111360617D01*
X84311115Y-111379560D01*
X84280052Y-111405052D01*
X84254560Y-111436115D01*
X84235617Y-111471555D01*
X84223952Y-111510009D01*
X84220013Y-111550000D01*
X67679920Y-111550000D01*
X67375519Y-111245599D01*
X67366000Y-111234000D01*
X67319710Y-111196011D01*
X67266898Y-111167783D01*
X67209594Y-111150400D01*
X67164924Y-111146000D01*
X67154492Y-111144972D01*
X67151048Y-111110009D01*
X67139383Y-111071555D01*
X67120440Y-111036115D01*
X67094948Y-111005052D01*
X67063885Y-110979560D01*
X67028445Y-110960617D01*
X66989991Y-110948952D01*
X66950000Y-110945013D01*
X66274933Y-110945013D01*
X66021518Y-110691598D01*
X66011999Y-110679999D01*
X65965709Y-110642010D01*
X65912897Y-110613782D01*
X65855593Y-110596399D01*
X65810923Y-110591999D01*
X65795999Y-110590529D01*
X65781075Y-110591999D01*
X64450439Y-110591999D01*
X64451048Y-110589991D01*
X64454987Y-110550000D01*
X64454987Y-109950000D01*
X64451048Y-109910009D01*
X64439383Y-109871555D01*
X64420440Y-109836115D01*
X64394948Y-109805052D01*
X64363885Y-109779560D01*
X64328445Y-109760617D01*
X64306632Y-109754000D01*
X64424080Y-109754000D01*
X64545013Y-109874933D01*
X64545013Y-110250000D01*
X64548952Y-110289991D01*
X64560617Y-110328445D01*
X64579560Y-110363885D01*
X64605052Y-110394948D01*
X64636115Y-110420440D01*
X64671555Y-110439383D01*
X64710009Y-110451048D01*
X64750000Y-110454987D01*
X65650000Y-110454987D01*
X65689991Y-110451048D01*
X65728445Y-110439383D01*
X65763885Y-110420440D01*
X65794948Y-110394948D01*
X65820440Y-110363885D01*
X65839383Y-110328445D01*
X65850000Y-110293446D01*
X65860617Y-110328445D01*
X65879560Y-110363885D01*
X65905052Y-110394948D01*
X65936115Y-110420440D01*
X65971555Y-110439383D01*
X66010009Y-110451048D01*
X66050000Y-110454987D01*
X66950000Y-110454987D01*
X66989991Y-110451048D01*
X67028445Y-110439383D01*
X67063885Y-110420440D01*
X67094948Y-110394948D01*
X67120440Y-110363885D01*
X67139383Y-110328445D01*
X67146798Y-110304000D01*
X76582626Y-110304000D01*
X76600000Y-110305711D01*
X76617374Y-110304000D01*
X76617382Y-110304000D01*
X76669396Y-110298877D01*
X76736125Y-110278635D01*
X76797623Y-110245764D01*
X76851526Y-110201526D01*
X76862612Y-110188018D01*
X82246632Y-104804000D01*
X85200001Y-104804000D01*
X85200002Y-106245013D01*
G36*
X88920013Y-109430000D02*
G01*
X88923952Y-109469991D01*
X88935617Y-109508445D01*
X88954560Y-109543885D01*
X88980052Y-109574948D01*
X89011115Y-109600440D01*
X89046555Y-109619383D01*
X89085009Y-109631048D01*
X89125000Y-109634987D01*
X89775000Y-109634987D01*
X89814991Y-109631048D01*
X89851037Y-109620114D01*
X89846000Y-109645436D01*
X89846000Y-109754564D01*
X89867289Y-109861596D01*
X89909051Y-109962418D01*
X89969680Y-110053155D01*
X90046845Y-110130320D01*
X90137582Y-110190949D01*
X90238404Y-110232711D01*
X90345436Y-110254000D01*
X90454564Y-110254000D01*
X90561596Y-110232711D01*
X90662418Y-110190949D01*
X90753155Y-110130320D01*
X90830320Y-110053155D01*
X90890949Y-109962418D01*
X90932711Y-109861596D01*
X90954000Y-109754564D01*
X90954000Y-109645436D01*
X90948963Y-109620114D01*
X90985009Y-109631048D01*
X91025000Y-109634987D01*
X91675000Y-109634987D01*
X91714991Y-109631048D01*
X91753445Y-109619383D01*
X91788885Y-109600440D01*
X91819948Y-109574948D01*
X91845440Y-109543885D01*
X91852327Y-109531000D01*
X92444910Y-109531000D01*
X92432060Y-109541546D01*
X92421342Y-109550342D01*
X92412546Y-109561060D01*
X92211060Y-109762546D01*
X92200343Y-109771342D01*
X92191547Y-109782060D01*
X92191546Y-109782061D01*
X92165227Y-109814130D01*
X92149425Y-109843695D01*
X92139135Y-109862946D01*
X92124859Y-109910009D01*
X92123067Y-109915915D01*
X92117641Y-109971000D01*
X92119001Y-109984806D01*
X92119001Y-110248000D01*
X91734788Y-110248000D01*
X91720999Y-110246642D01*
X91707210Y-110248000D01*
X91707201Y-110248000D01*
X91665914Y-110252066D01*
X91612946Y-110268134D01*
X91593302Y-110278634D01*
X91564129Y-110294227D01*
X91545405Y-110309594D01*
X91521342Y-110329342D01*
X91512546Y-110340060D01*
X91487593Y-110365013D01*
X91025000Y-110365013D01*
X90985009Y-110368952D01*
X90946555Y-110380617D01*
X90911115Y-110399560D01*
X90880052Y-110425052D01*
X90854560Y-110456115D01*
X90835617Y-110491555D01*
X90823952Y-110530009D01*
X90820013Y-110570000D01*
X90820013Y-111580001D01*
X89979987Y-111580001D01*
X89979987Y-110570000D01*
X89976048Y-110530009D01*
X89964383Y-110491555D01*
X89945440Y-110456115D01*
X89919948Y-110425052D01*
X89888885Y-110399560D01*
X89853445Y-110380617D01*
X89814991Y-110368952D01*
X89775000Y-110365013D01*
X89125000Y-110365013D01*
X89085009Y-110368952D01*
X89046555Y-110380617D01*
X89011115Y-110399560D01*
X88980052Y-110425052D01*
X88954560Y-110456115D01*
X88947673Y-110469000D01*
X87856069Y-110469000D01*
X87864383Y-110453445D01*
X87876048Y-110414991D01*
X87879987Y-110375000D01*
X87879987Y-110125000D01*
X87876048Y-110085009D01*
X87864383Y-110046555D01*
X87845440Y-110011115D01*
X87836318Y-110000000D01*
X87845440Y-109988885D01*
X87864383Y-109953445D01*
X87876048Y-109914991D01*
X87879987Y-109875000D01*
X87879987Y-109625000D01*
X87876048Y-109585009D01*
X87864383Y-109546555D01*
X87845440Y-109511115D01*
X87836318Y-109500000D01*
X87845440Y-109488885D01*
X87864383Y-109453445D01*
X87876048Y-109414991D01*
X87879987Y-109375000D01*
X87879987Y-109125000D01*
X87876048Y-109085009D01*
X87864383Y-109046555D01*
X87856069Y-109031000D01*
X88920013Y-109031000D01*
X88920013Y-109430000D01*
X88920013Y-109430000D01*
G37*
X88920013Y-109430000D02*
X88923952Y-109469991D01*
X88935617Y-109508445D01*
X88954560Y-109543885D01*
X88980052Y-109574948D01*
X89011115Y-109600440D01*
X89046555Y-109619383D01*
X89085009Y-109631048D01*
X89125000Y-109634987D01*
X89775000Y-109634987D01*
X89814991Y-109631048D01*
X89851037Y-109620114D01*
X89846000Y-109645436D01*
X89846000Y-109754564D01*
X89867289Y-109861596D01*
X89909051Y-109962418D01*
X89969680Y-110053155D01*
X90046845Y-110130320D01*
X90137582Y-110190949D01*
X90238404Y-110232711D01*
X90345436Y-110254000D01*
X90454564Y-110254000D01*
X90561596Y-110232711D01*
X90662418Y-110190949D01*
X90753155Y-110130320D01*
X90830320Y-110053155D01*
X90890949Y-109962418D01*
X90932711Y-109861596D01*
X90954000Y-109754564D01*
X90954000Y-109645436D01*
X90948963Y-109620114D01*
X90985009Y-109631048D01*
X91025000Y-109634987D01*
X91675000Y-109634987D01*
X91714991Y-109631048D01*
X91753445Y-109619383D01*
X91788885Y-109600440D01*
X91819948Y-109574948D01*
X91845440Y-109543885D01*
X91852327Y-109531000D01*
X92444910Y-109531000D01*
X92432060Y-109541546D01*
X92421342Y-109550342D01*
X92412546Y-109561060D01*
X92211060Y-109762546D01*
X92200343Y-109771342D01*
X92191547Y-109782060D01*
X92191546Y-109782061D01*
X92165227Y-109814130D01*
X92149425Y-109843695D01*
X92139135Y-109862946D01*
X92124859Y-109910009D01*
X92123067Y-109915915D01*
X92117641Y-109971000D01*
X92119001Y-109984806D01*
X92119001Y-110248000D01*
X91734788Y-110248000D01*
X91720999Y-110246642D01*
X91707210Y-110248000D01*
X91707201Y-110248000D01*
X91665914Y-110252066D01*
X91612946Y-110268134D01*
X91593302Y-110278634D01*
X91564129Y-110294227D01*
X91545405Y-110309594D01*
X91521342Y-110329342D01*
X91512546Y-110340060D01*
X91487593Y-110365013D01*
X91025000Y-110365013D01*
X90985009Y-110368952D01*
X90946555Y-110380617D01*
X90911115Y-110399560D01*
X90880052Y-110425052D01*
X90854560Y-110456115D01*
X90835617Y-110491555D01*
X90823952Y-110530009D01*
X90820013Y-110570000D01*
X90820013Y-111580001D01*
X89979987Y-111580001D01*
X89979987Y-110570000D01*
X89976048Y-110530009D01*
X89964383Y-110491555D01*
X89945440Y-110456115D01*
X89919948Y-110425052D01*
X89888885Y-110399560D01*
X89853445Y-110380617D01*
X89814991Y-110368952D01*
X89775000Y-110365013D01*
X89125000Y-110365013D01*
X89085009Y-110368952D01*
X89046555Y-110380617D01*
X89011115Y-110399560D01*
X88980052Y-110425052D01*
X88954560Y-110456115D01*
X88947673Y-110469000D01*
X87856069Y-110469000D01*
X87864383Y-110453445D01*
X87876048Y-110414991D01*
X87879987Y-110375000D01*
X87879987Y-110125000D01*
X87876048Y-110085009D01*
X87864383Y-110046555D01*
X87845440Y-110011115D01*
X87836318Y-110000000D01*
X87845440Y-109988885D01*
X87864383Y-109953445D01*
X87876048Y-109914991D01*
X87879987Y-109875000D01*
X87879987Y-109625000D01*
X87876048Y-109585009D01*
X87864383Y-109546555D01*
X87845440Y-109511115D01*
X87836318Y-109500000D01*
X87845440Y-109488885D01*
X87864383Y-109453445D01*
X87876048Y-109414991D01*
X87879987Y-109375000D01*
X87879987Y-109125000D01*
X87876048Y-109085009D01*
X87864383Y-109046555D01*
X87856069Y-109031000D01*
X88920013Y-109031000D01*
X88920013Y-109430000D01*
G36*
X94196000Y-102600000D02*
G01*
X94199920Y-102639798D01*
X94211529Y-102678067D01*
X94230380Y-102713336D01*
X94255750Y-102744250D01*
X95196000Y-103684500D01*
X95196000Y-104046000D01*
X93522288Y-104046000D01*
X93500000Y-104043805D01*
X93477712Y-104046000D01*
X93477705Y-104046000D01*
X93419421Y-104051741D01*
X93411000Y-104052570D01*
X93325421Y-104078530D01*
X93246551Y-104120687D01*
X93177421Y-104177421D01*
X93163210Y-104194737D01*
X91894738Y-105463210D01*
X91877422Y-105477421D01*
X91863211Y-105494737D01*
X91863209Y-105494739D01*
X91853858Y-105506133D01*
X91820688Y-105546551D01*
X91819878Y-105548067D01*
X91778530Y-105625422D01*
X91752570Y-105711001D01*
X91743805Y-105800000D01*
X91746001Y-105822298D01*
X91746000Y-107319000D01*
X90764475Y-107319000D01*
X90830320Y-107253155D01*
X90890949Y-107162418D01*
X90932711Y-107061596D01*
X90954000Y-106954564D01*
X90954000Y-106845436D01*
X90932711Y-106738404D01*
X90890949Y-106637582D01*
X90830320Y-106546845D01*
X90753155Y-106469680D01*
X90662418Y-106409051D01*
X90561596Y-106367289D01*
X90454564Y-106346000D01*
X90346632Y-106346000D01*
X88212612Y-104211982D01*
X88201526Y-104198474D01*
X88147623Y-104154236D01*
X88086125Y-104121365D01*
X88019396Y-104101123D01*
X87967382Y-104096000D01*
X87967374Y-104096000D01*
X87950000Y-104094289D01*
X87932626Y-104096000D01*
X87581000Y-104096000D01*
X87581000Y-102749987D01*
X88000000Y-102749987D01*
X88039991Y-102746048D01*
X88078445Y-102734383D01*
X88113885Y-102715440D01*
X88144948Y-102689948D01*
X88170440Y-102658885D01*
X88189383Y-102623445D01*
X88201048Y-102584991D01*
X88204987Y-102545000D01*
X88204987Y-101495000D01*
X88201048Y-101455009D01*
X88189383Y-101416555D01*
X88170440Y-101381115D01*
X88144948Y-101350052D01*
X88113885Y-101324560D01*
X88078445Y-101305617D01*
X88059928Y-101300000D01*
X88078445Y-101294383D01*
X88113885Y-101275440D01*
X88144948Y-101249948D01*
X88170440Y-101218885D01*
X88189383Y-101183445D01*
X88201048Y-101144991D01*
X88204987Y-101105000D01*
X88204987Y-100055000D01*
X88201048Y-100015009D01*
X88189383Y-99976555D01*
X88170440Y-99941115D01*
X88144948Y-99910052D01*
X88113885Y-99884560D01*
X88095999Y-99875000D01*
X94196000Y-99875000D01*
X94196000Y-102600000D01*
X94196000Y-102600000D01*
G37*
X94196000Y-102600000D02*
X94199920Y-102639798D01*
X94211529Y-102678067D01*
X94230380Y-102713336D01*
X94255750Y-102744250D01*
X95196000Y-103684500D01*
X95196000Y-104046000D01*
X93522288Y-104046000D01*
X93500000Y-104043805D01*
X93477712Y-104046000D01*
X93477705Y-104046000D01*
X93419421Y-104051741D01*
X93411000Y-104052570D01*
X93325421Y-104078530D01*
X93246551Y-104120687D01*
X93177421Y-104177421D01*
X93163210Y-104194737D01*
X91894738Y-105463210D01*
X91877422Y-105477421D01*
X91863211Y-105494737D01*
X91863209Y-105494739D01*
X91853858Y-105506133D01*
X91820688Y-105546551D01*
X91819878Y-105548067D01*
X91778530Y-105625422D01*
X91752570Y-105711001D01*
X91743805Y-105800000D01*
X91746001Y-105822298D01*
X91746000Y-107319000D01*
X90764475Y-107319000D01*
X90830320Y-107253155D01*
X90890949Y-107162418D01*
X90932711Y-107061596D01*
X90954000Y-106954564D01*
X90954000Y-106845436D01*
X90932711Y-106738404D01*
X90890949Y-106637582D01*
X90830320Y-106546845D01*
X90753155Y-106469680D01*
X90662418Y-106409051D01*
X90561596Y-106367289D01*
X90454564Y-106346000D01*
X90346632Y-106346000D01*
X88212612Y-104211982D01*
X88201526Y-104198474D01*
X88147623Y-104154236D01*
X88086125Y-104121365D01*
X88019396Y-104101123D01*
X87967382Y-104096000D01*
X87967374Y-104096000D01*
X87950000Y-104094289D01*
X87932626Y-104096000D01*
X87581000Y-104096000D01*
X87581000Y-102749987D01*
X88000000Y-102749987D01*
X88039991Y-102746048D01*
X88078445Y-102734383D01*
X88113885Y-102715440D01*
X88144948Y-102689948D01*
X88170440Y-102658885D01*
X88189383Y-102623445D01*
X88201048Y-102584991D01*
X88204987Y-102545000D01*
X88204987Y-101495000D01*
X88201048Y-101455009D01*
X88189383Y-101416555D01*
X88170440Y-101381115D01*
X88144948Y-101350052D01*
X88113885Y-101324560D01*
X88078445Y-101305617D01*
X88059928Y-101300000D01*
X88078445Y-101294383D01*
X88113885Y-101275440D01*
X88144948Y-101249948D01*
X88170440Y-101218885D01*
X88189383Y-101183445D01*
X88201048Y-101144991D01*
X88204987Y-101105000D01*
X88204987Y-100055000D01*
X88201048Y-100015009D01*
X88189383Y-99976555D01*
X88170440Y-99941115D01*
X88144948Y-99910052D01*
X88113885Y-99884560D01*
X88095999Y-99875000D01*
X94196000Y-99875000D01*
X94196000Y-102600000D01*
G36*
X89846000Y-106846632D02*
G01*
X89846000Y-106954564D01*
X89867289Y-107061596D01*
X89909051Y-107162418D01*
X89969680Y-107253155D01*
X90035525Y-107319000D01*
X89178533Y-107319000D01*
X89130320Y-107246845D01*
X89053155Y-107169680D01*
X88962418Y-107109051D01*
X88861596Y-107067289D01*
X88754564Y-107046000D01*
X88645436Y-107046000D01*
X88538404Y-107067289D01*
X88437582Y-107109051D01*
X88354987Y-107164240D01*
X88354987Y-107050000D01*
X88351048Y-107010009D01*
X88339383Y-106971555D01*
X88320440Y-106936115D01*
X88294948Y-106905052D01*
X88263885Y-106879560D01*
X88228445Y-106860617D01*
X88189991Y-106848952D01*
X88150000Y-106845013D01*
X87250000Y-106845013D01*
X87210009Y-106848952D01*
X87171555Y-106860617D01*
X87136115Y-106879560D01*
X87105052Y-106905052D01*
X87079560Y-106936115D01*
X87060617Y-106971555D01*
X87054987Y-106990114D01*
X87054987Y-106450000D01*
X87051048Y-106410009D01*
X87039383Y-106371555D01*
X87020440Y-106336115D01*
X86994948Y-106305052D01*
X86963885Y-106279560D01*
X86928445Y-106260617D01*
X86889991Y-106248952D01*
X86850000Y-106245013D01*
X85950000Y-106245013D01*
X85910009Y-106248952D01*
X85908001Y-106249561D01*
X85908001Y-104804000D01*
X87803370Y-104804000D01*
X89846000Y-106846632D01*
X89846000Y-106846632D01*
G37*
X89846000Y-106846632D02*
X89846000Y-106954564D01*
X89867289Y-107061596D01*
X89909051Y-107162418D01*
X89969680Y-107253155D01*
X90035525Y-107319000D01*
X89178533Y-107319000D01*
X89130320Y-107246845D01*
X89053155Y-107169680D01*
X88962418Y-107109051D01*
X88861596Y-107067289D01*
X88754564Y-107046000D01*
X88645436Y-107046000D01*
X88538404Y-107067289D01*
X88437582Y-107109051D01*
X88354987Y-107164240D01*
X88354987Y-107050000D01*
X88351048Y-107010009D01*
X88339383Y-106971555D01*
X88320440Y-106936115D01*
X88294948Y-106905052D01*
X88263885Y-106879560D01*
X88228445Y-106860617D01*
X88189991Y-106848952D01*
X88150000Y-106845013D01*
X87250000Y-106845013D01*
X87210009Y-106848952D01*
X87171555Y-106860617D01*
X87136115Y-106879560D01*
X87105052Y-106905052D01*
X87079560Y-106936115D01*
X87060617Y-106971555D01*
X87054987Y-106990114D01*
X87054987Y-106450000D01*
X87051048Y-106410009D01*
X87039383Y-106371555D01*
X87020440Y-106336115D01*
X86994948Y-106305052D01*
X86963885Y-106279560D01*
X86928445Y-106260617D01*
X86889991Y-106248952D01*
X86850000Y-106245013D01*
X85950000Y-106245013D01*
X85910009Y-106248952D01*
X85908001Y-106249561D01*
X85908001Y-104804000D01*
X87803370Y-104804000D01*
X89846000Y-106846632D01*
D30*
G36*
X99798001Y-102222393D02*
G01*
X97710197Y-104310197D01*
X97694403Y-104329443D01*
X97682667Y-104351399D01*
X97675440Y-104375224D01*
X97673000Y-104400000D01*
X97673000Y-105206813D01*
X97642481Y-105244001D01*
X97569960Y-105379678D01*
X97525301Y-105526897D01*
X97510222Y-105680000D01*
X97525301Y-105833103D01*
X97569960Y-105980322D01*
X97642481Y-106115999D01*
X97673000Y-106153187D01*
X97673000Y-106473000D01*
X95527000Y-106473000D01*
X95527000Y-106226297D01*
X95617519Y-106115999D01*
X95690040Y-105980322D01*
X95734699Y-105833103D01*
X95749778Y-105680000D01*
X95734699Y-105526897D01*
X95690040Y-105379678D01*
X95617519Y-105244001D01*
X95527000Y-105133703D01*
X95527000Y-103600000D01*
X95524560Y-103575224D01*
X95517333Y-103551399D01*
X95505597Y-103529443D01*
X95489803Y-103510197D01*
X94527000Y-102547394D01*
X94527000Y-99952000D01*
X99798001Y-99952000D01*
X99798001Y-102222393D01*
X99798001Y-102222393D01*
G37*
X99798001Y-102222393D02*
X97710197Y-104310197D01*
X97694403Y-104329443D01*
X97682667Y-104351399D01*
X97675440Y-104375224D01*
X97673000Y-104400000D01*
X97673000Y-105206813D01*
X97642481Y-105244001D01*
X97569960Y-105379678D01*
X97525301Y-105526897D01*
X97510222Y-105680000D01*
X97525301Y-105833103D01*
X97569960Y-105980322D01*
X97642481Y-106115999D01*
X97673000Y-106153187D01*
X97673000Y-106473000D01*
X95527000Y-106473000D01*
X95527000Y-106226297D01*
X95617519Y-106115999D01*
X95690040Y-105980322D01*
X95734699Y-105833103D01*
X95749778Y-105680000D01*
X95734699Y-105526897D01*
X95690040Y-105379678D01*
X95617519Y-105244001D01*
X95527000Y-105133703D01*
X95527000Y-103600000D01*
X95524560Y-103575224D01*
X95517333Y-103551399D01*
X95505597Y-103529443D01*
X95489803Y-103510197D01*
X94527000Y-102547394D01*
X94527000Y-99952000D01*
X99798001Y-99952000D01*
X99798001Y-102222393D01*
M02*
