G04 #@! TF.GenerationSoftware,KiCad,Pcbnew,5.1.4+dfsg1-1*
G04 #@! TF.CreationDate,2020-04-13T21:52:35+02:00*
G04 #@! TF.ProjectId,OtterIron_PRO_Top,4f747465-7249-4726-9f6e-5f50524f5f54,rev?*
G04 #@! TF.SameCoordinates,Original*
G04 #@! TF.FileFunction,Soldermask,Bot*
G04 #@! TF.FilePolarity,Negative*
%FSLAX46Y46*%
G04 Gerber Fmt 4.6, Leading zero omitted, Abs format (unit mm)*
G04 Created by KiCad (PCBNEW 5.1.4+dfsg1-1) date 2020-04-13 21:52:35*
%MOMM*%
%LPD*%
G04 APERTURE LIST*
%ADD10R,0.900000X0.600000*%
%ADD11R,4.000000X0.320000*%
%ADD12R,0.600000X0.900000*%
%ADD13R,0.250000X0.825000*%
%ADD14R,0.825000X0.250000*%
%ADD15R,2.650000X2.650000*%
%ADD16R,0.650000X1.060000*%
%ADD17C,0.700000*%
%ADD18R,1.400000X1.050000*%
%ADD19R,1.450000X0.600000*%
%ADD20O,2.100000X1.000000*%
%ADD21O,1.600000X1.000000*%
%ADD22C,0.650000*%
%ADD23R,1.450000X0.300000*%
G04 APERTURE END LIST*
D10*
X66500000Y-109950000D03*
X66500000Y-111450000D03*
D11*
X58700000Y-106069223D03*
X58700000Y-106675376D03*
X58700000Y-107281529D03*
X58700000Y-107887682D03*
X58700000Y-108493835D03*
X58700000Y-109099988D03*
X58700000Y-109706141D03*
X58700000Y-110312294D03*
X58700000Y-110918447D03*
X58700000Y-111524600D03*
X58700000Y-112130753D03*
X58700000Y-112736906D03*
X58700000Y-113343059D03*
X58700000Y-113949223D03*
D10*
X63800000Y-108750000D03*
X63800000Y-110250000D03*
X82400000Y-106450000D03*
X82400000Y-107950000D03*
X65200000Y-109950000D03*
X65200000Y-111450000D03*
D12*
X63450000Y-112200000D03*
X61950000Y-112200000D03*
D10*
X88200000Y-112150000D03*
X88200000Y-113650000D03*
X87700000Y-107350000D03*
X87700000Y-105850000D03*
X86400000Y-105250000D03*
X86400000Y-106750000D03*
X84800000Y-106750000D03*
X84800000Y-105250000D03*
D12*
X63450000Y-114600000D03*
X61950000Y-114600000D03*
D10*
X62500000Y-104850000D03*
X62500000Y-106350000D03*
D12*
X63450000Y-113400000D03*
X61950000Y-113400000D03*
D10*
X62500000Y-108750000D03*
X62500000Y-107250000D03*
D13*
X86550000Y-108037500D03*
X86050000Y-108037500D03*
X85550000Y-108037500D03*
X85050000Y-108037500D03*
X84550000Y-108037500D03*
X84050000Y-108037500D03*
D14*
X83337500Y-108750000D03*
X83337500Y-109250000D03*
X83337500Y-109750000D03*
X83337500Y-110250000D03*
X83337500Y-110750000D03*
X83337500Y-111250000D03*
D13*
X84050000Y-111962500D03*
X84550000Y-111962500D03*
X85050000Y-111962500D03*
X85550000Y-111962500D03*
X86050000Y-111962500D03*
X86550000Y-111962500D03*
D14*
X87262500Y-111250000D03*
X87262500Y-110750000D03*
X87262500Y-110250000D03*
X87262500Y-109750000D03*
X87262500Y-109250000D03*
X87262500Y-108750000D03*
D15*
X85300000Y-110000000D03*
D16*
X90400000Y-108900000D03*
X91350000Y-108900000D03*
X89450000Y-108900000D03*
X89450000Y-111100000D03*
X90400000Y-111100000D03*
X91350000Y-111100000D03*
D17*
X85500000Y-119600000D03*
X85500000Y-117800000D03*
D18*
X87300000Y-119420000D03*
X83700000Y-119420000D03*
X87300000Y-117980000D03*
X83700000Y-117980000D03*
D17*
X85500000Y-100400000D03*
X85500000Y-102200000D03*
D18*
X83700000Y-100580000D03*
X87300000Y-100580000D03*
X83700000Y-102020000D03*
X87300000Y-102020000D03*
D19*
X93500000Y-107600000D03*
X93500000Y-112400000D03*
X93500000Y-113200000D03*
X93500000Y-106800000D03*
D20*
X94415000Y-105680000D03*
X94415000Y-114320000D03*
D21*
X98595000Y-105680000D03*
X98595000Y-114320000D03*
D22*
X94945000Y-112890000D03*
X94945000Y-107110000D03*
D19*
X93500000Y-113200000D03*
X93500000Y-112400000D03*
D23*
X93500000Y-111750000D03*
X93500000Y-111250000D03*
X93500000Y-110750000D03*
X93500000Y-110250000D03*
X93500000Y-109750000D03*
X93500000Y-109250000D03*
X93500000Y-108750000D03*
X93500000Y-108250000D03*
D19*
X93500000Y-107600000D03*
X93500000Y-106800000D03*
M02*
