G04 #@! TF.GenerationSoftware,KiCad,Pcbnew,5.1.4+dfsg1-1*
G04 #@! TF.CreationDate,2019-12-23T21:30:56+01:00*
G04 #@! TF.ProjectId,noname,6e6f6e61-6d65-42e6-9b69-6361645f7063,rev?*
G04 #@! TF.SameCoordinates,Original*
G04 #@! TF.FileFunction,Soldermask,Top*
G04 #@! TF.FilePolarity,Negative*
%FSLAX46Y46*%
G04 Gerber Fmt 4.6, Leading zero omitted, Abs format (unit mm)*
G04 Created by KiCad (PCBNEW 5.1.4+dfsg1-1) date 2019-12-23 21:30:56*
%MOMM*%
%LPD*%
G04 APERTURE LIST*
%ADD10C,0.150000*%
G04 APERTURE END LIST*
D10*
G36*
X12622321Y-11885047D02*
G01*
X12682889Y-11897095D01*
X12739942Y-11920727D01*
X12796997Y-11944360D01*
X12899687Y-12012975D01*
X12987025Y-12100313D01*
X13055640Y-12203003D01*
X13102905Y-12317112D01*
X13127000Y-12438245D01*
X13127000Y-12561755D01*
X13102905Y-12682888D01*
X13055640Y-12796997D01*
X12987025Y-12899687D01*
X12899687Y-12987025D01*
X12796997Y-13055640D01*
X12739943Y-13079272D01*
X12682889Y-13102905D01*
X12622321Y-13114953D01*
X12561755Y-13127000D01*
X12438245Y-13127000D01*
X12377678Y-13114952D01*
X12317111Y-13102905D01*
X12260058Y-13079273D01*
X12203003Y-13055640D01*
X12100313Y-12987025D01*
X12012975Y-12899687D01*
X11944360Y-12796997D01*
X11897095Y-12682888D01*
X11873000Y-12561755D01*
X11873000Y-12438245D01*
X11897095Y-12317112D01*
X11944360Y-12203003D01*
X12012975Y-12100313D01*
X12100313Y-12012975D01*
X12203003Y-11944360D01*
X12260058Y-11920727D01*
X12317111Y-11897095D01*
X12377679Y-11885047D01*
X12438245Y-11873000D01*
X12561755Y-11873000D01*
X12622321Y-11885047D01*
X12622321Y-11885047D01*
G37*
M02*
