G04 #@! TF.GenerationSoftware,KiCad,Pcbnew,5.1.5-52549c5~84~ubuntu19.10.1*
G04 #@! TF.CreationDate,2020-03-01T18:50:15+01:00*
G04 #@! TF.ProjectId,C245_conn,43323435-5f63-46f6-9e6e-2e6b69636164,rev?*
G04 #@! TF.SameCoordinates,Original*
G04 #@! TF.FileFunction,Soldermask,Top*
G04 #@! TF.FilePolarity,Negative*
%FSLAX46Y46*%
G04 Gerber Fmt 4.6, Leading zero omitted, Abs format (unit mm)*
G04 Created by KiCad (PCBNEW 5.1.5-52549c5~84~ubuntu19.10.1) date 2020-03-01 18:50:15*
%MOMM*%
%LPD*%
G04 APERTURE LIST*
%ADD10C,0.100000*%
G04 APERTURE END LIST*
D10*
G36*
X107629487Y-116198996D02*
G01*
X107866253Y-116297068D01*
X107866255Y-116297069D01*
X108079339Y-116439447D01*
X108260553Y-116620661D01*
X108402932Y-116833747D01*
X108501004Y-117070513D01*
X108551000Y-117321861D01*
X108551000Y-117578139D01*
X108501004Y-117829487D01*
X108402932Y-118066253D01*
X108402931Y-118066255D01*
X108260553Y-118279339D01*
X108079339Y-118460553D01*
X107866255Y-118602931D01*
X107866254Y-118602932D01*
X107866253Y-118602932D01*
X107629487Y-118701004D01*
X107378139Y-118751000D01*
X107121861Y-118751000D01*
X106870513Y-118701004D01*
X106633747Y-118602932D01*
X106633746Y-118602932D01*
X106633745Y-118602931D01*
X106420661Y-118460553D01*
X106239447Y-118279339D01*
X106097069Y-118066255D01*
X106097068Y-118066253D01*
X105998996Y-117829487D01*
X105949000Y-117578139D01*
X105949000Y-117321861D01*
X105998996Y-117070513D01*
X106097068Y-116833747D01*
X106239447Y-116620661D01*
X106420661Y-116439447D01*
X106633745Y-116297069D01*
X106633747Y-116297068D01*
X106870513Y-116198996D01*
X107121861Y-116149000D01*
X107378139Y-116149000D01*
X107629487Y-116198996D01*
G37*
G36*
X122129487Y-116198996D02*
G01*
X122366253Y-116297068D01*
X122366255Y-116297069D01*
X122579339Y-116439447D01*
X122760553Y-116620661D01*
X122902932Y-116833747D01*
X123001004Y-117070513D01*
X123051000Y-117321861D01*
X123051000Y-117578139D01*
X123001004Y-117829487D01*
X122902932Y-118066253D01*
X122902931Y-118066255D01*
X122760553Y-118279339D01*
X122579339Y-118460553D01*
X122366255Y-118602931D01*
X122366254Y-118602932D01*
X122366253Y-118602932D01*
X122129487Y-118701004D01*
X121878139Y-118751000D01*
X121621861Y-118751000D01*
X121370513Y-118701004D01*
X121133747Y-118602932D01*
X121133746Y-118602932D01*
X121133745Y-118602931D01*
X120920661Y-118460553D01*
X120739447Y-118279339D01*
X120597069Y-118066255D01*
X120597068Y-118066253D01*
X120498996Y-117829487D01*
X120449000Y-117578139D01*
X120449000Y-117321861D01*
X120498996Y-117070513D01*
X120597068Y-116833747D01*
X120739447Y-116620661D01*
X120920661Y-116439447D01*
X121133745Y-116297069D01*
X121133747Y-116297068D01*
X121370513Y-116198996D01*
X121621861Y-116149000D01*
X121878139Y-116149000D01*
X122129487Y-116198996D01*
G37*
G36*
X104213512Y-113703927D02*
G01*
X104362812Y-113733624D01*
X104526784Y-113801544D01*
X104674354Y-113900147D01*
X104799853Y-114025646D01*
X104898456Y-114173216D01*
X104966376Y-114337188D01*
X105001000Y-114511259D01*
X105001000Y-114688741D01*
X104966376Y-114862812D01*
X104898456Y-115026784D01*
X104799853Y-115174354D01*
X104674354Y-115299853D01*
X104526784Y-115398456D01*
X104362812Y-115466376D01*
X104213512Y-115496073D01*
X104188742Y-115501000D01*
X104011258Y-115501000D01*
X103986488Y-115496073D01*
X103837188Y-115466376D01*
X103673216Y-115398456D01*
X103525646Y-115299853D01*
X103400147Y-115174354D01*
X103301544Y-115026784D01*
X103233624Y-114862812D01*
X103199000Y-114688741D01*
X103199000Y-114511259D01*
X103233624Y-114337188D01*
X103301544Y-114173216D01*
X103400147Y-114025646D01*
X103525646Y-113900147D01*
X103673216Y-113801544D01*
X103837188Y-113733624D01*
X103986488Y-113703927D01*
X104011258Y-113699000D01*
X104188742Y-113699000D01*
X104213512Y-113703927D01*
G37*
G36*
X114696217Y-112206665D02*
G01*
X114966995Y-112260525D01*
X115258358Y-112381212D01*
X115520578Y-112556422D01*
X115743578Y-112779422D01*
X115918788Y-113041642D01*
X116039475Y-113333005D01*
X116101000Y-113642315D01*
X116101000Y-113957685D01*
X116039475Y-114266995D01*
X115918788Y-114558358D01*
X115743578Y-114820578D01*
X115520578Y-115043578D01*
X115258358Y-115218788D01*
X114966995Y-115339475D01*
X114696217Y-115393335D01*
X114657686Y-115401000D01*
X114342314Y-115401000D01*
X114303783Y-115393335D01*
X114033005Y-115339475D01*
X113741642Y-115218788D01*
X113479422Y-115043578D01*
X113256422Y-114820578D01*
X113081212Y-114558358D01*
X112960525Y-114266995D01*
X112899000Y-113957685D01*
X112899000Y-113642315D01*
X112960525Y-113333005D01*
X113081212Y-113041642D01*
X113256422Y-112779422D01*
X113479422Y-112556422D01*
X113741642Y-112381212D01*
X114033005Y-112260525D01*
X114303783Y-112206665D01*
X114342314Y-112199000D01*
X114657686Y-112199000D01*
X114696217Y-112206665D01*
G37*
G36*
X111546217Y-110406665D02*
G01*
X111816995Y-110460525D01*
X112108358Y-110581212D01*
X112370578Y-110756422D01*
X112593578Y-110979422D01*
X112768788Y-111241642D01*
X112889475Y-111533005D01*
X112951000Y-111842315D01*
X112951000Y-112157685D01*
X112889475Y-112466995D01*
X112768788Y-112758358D01*
X112593578Y-113020578D01*
X112370578Y-113243578D01*
X112108358Y-113418788D01*
X111816995Y-113539475D01*
X111546217Y-113593335D01*
X111507686Y-113601000D01*
X111192314Y-113601000D01*
X111153783Y-113593335D01*
X110883005Y-113539475D01*
X110591642Y-113418788D01*
X110329422Y-113243578D01*
X110106422Y-113020578D01*
X109931212Y-112758358D01*
X109810525Y-112466995D01*
X109749000Y-112157685D01*
X109749000Y-111842315D01*
X109810525Y-111533005D01*
X109931212Y-111241642D01*
X110106422Y-110979422D01*
X110329422Y-110756422D01*
X110591642Y-110581212D01*
X110883005Y-110460525D01*
X111153783Y-110406665D01*
X111192314Y-110399000D01*
X111507686Y-110399000D01*
X111546217Y-110406665D01*
G37*
G36*
X117846217Y-110406665D02*
G01*
X118116995Y-110460525D01*
X118408358Y-110581212D01*
X118670578Y-110756422D01*
X118893578Y-110979422D01*
X119068788Y-111241642D01*
X119189475Y-111533005D01*
X119251000Y-111842315D01*
X119251000Y-112157685D01*
X119189475Y-112466995D01*
X119068788Y-112758358D01*
X118893578Y-113020578D01*
X118670578Y-113243578D01*
X118408358Y-113418788D01*
X118116995Y-113539475D01*
X117846217Y-113593335D01*
X117807686Y-113601000D01*
X117492314Y-113601000D01*
X117453783Y-113593335D01*
X117183005Y-113539475D01*
X116891642Y-113418788D01*
X116629422Y-113243578D01*
X116406422Y-113020578D01*
X116231212Y-112758358D01*
X116110525Y-112466995D01*
X116049000Y-112157685D01*
X116049000Y-111842315D01*
X116110525Y-111533005D01*
X116231212Y-111241642D01*
X116406422Y-110979422D01*
X116629422Y-110756422D01*
X116891642Y-110581212D01*
X117183005Y-110460525D01*
X117453783Y-110406665D01*
X117492314Y-110399000D01*
X117807686Y-110399000D01*
X117846217Y-110406665D01*
G37*
G36*
X104213512Y-111163927D02*
G01*
X104362812Y-111193624D01*
X104526784Y-111261544D01*
X104674354Y-111360147D01*
X104799853Y-111485646D01*
X104898456Y-111633216D01*
X104966376Y-111797188D01*
X105001000Y-111971259D01*
X105001000Y-112148741D01*
X104966376Y-112322812D01*
X104898456Y-112486784D01*
X104799853Y-112634354D01*
X104674354Y-112759853D01*
X104526784Y-112858456D01*
X104362812Y-112926376D01*
X104213512Y-112956073D01*
X104188742Y-112961000D01*
X104011258Y-112961000D01*
X103986488Y-112956073D01*
X103837188Y-112926376D01*
X103673216Y-112858456D01*
X103525646Y-112759853D01*
X103400147Y-112634354D01*
X103301544Y-112486784D01*
X103233624Y-112322812D01*
X103199000Y-112148741D01*
X103199000Y-111971259D01*
X103233624Y-111797188D01*
X103301544Y-111633216D01*
X103400147Y-111485646D01*
X103525646Y-111360147D01*
X103673216Y-111261544D01*
X103837188Y-111193624D01*
X103986488Y-111163927D01*
X104011258Y-111159000D01*
X104188742Y-111159000D01*
X104213512Y-111163927D01*
G37*
G36*
X114696217Y-108606665D02*
G01*
X114966995Y-108660525D01*
X115258358Y-108781212D01*
X115520578Y-108956422D01*
X115743578Y-109179422D01*
X115918788Y-109441642D01*
X116039475Y-109733005D01*
X116101000Y-110042315D01*
X116101000Y-110357685D01*
X116039475Y-110666995D01*
X115918788Y-110958358D01*
X115743578Y-111220578D01*
X115520578Y-111443578D01*
X115258358Y-111618788D01*
X114966995Y-111739475D01*
X114696217Y-111793335D01*
X114657686Y-111801000D01*
X114342314Y-111801000D01*
X114303783Y-111793335D01*
X114033005Y-111739475D01*
X113741642Y-111618788D01*
X113479422Y-111443578D01*
X113256422Y-111220578D01*
X113081212Y-110958358D01*
X112960525Y-110666995D01*
X112899000Y-110357685D01*
X112899000Y-110042315D01*
X112960525Y-109733005D01*
X113081212Y-109441642D01*
X113256422Y-109179422D01*
X113479422Y-108956422D01*
X113741642Y-108781212D01*
X114033005Y-108660525D01*
X114303783Y-108606665D01*
X114342314Y-108599000D01*
X114657686Y-108599000D01*
X114696217Y-108606665D01*
G37*
G36*
X104213512Y-108623927D02*
G01*
X104362812Y-108653624D01*
X104526784Y-108721544D01*
X104674354Y-108820147D01*
X104799853Y-108945646D01*
X104898456Y-109093216D01*
X104966376Y-109257188D01*
X104996073Y-109406488D01*
X104998876Y-109420578D01*
X105001000Y-109431259D01*
X105001000Y-109608741D01*
X104966376Y-109782812D01*
X104898456Y-109946784D01*
X104799853Y-110094354D01*
X104674354Y-110219853D01*
X104526784Y-110318456D01*
X104362812Y-110386376D01*
X104213512Y-110416073D01*
X104188742Y-110421000D01*
X104011258Y-110421000D01*
X103986488Y-110416073D01*
X103837188Y-110386376D01*
X103673216Y-110318456D01*
X103525646Y-110219853D01*
X103400147Y-110094354D01*
X103301544Y-109946784D01*
X103233624Y-109782812D01*
X103199000Y-109608741D01*
X103199000Y-109431259D01*
X103201125Y-109420578D01*
X103203927Y-109406488D01*
X103233624Y-109257188D01*
X103301544Y-109093216D01*
X103400147Y-108945646D01*
X103525646Y-108820147D01*
X103673216Y-108721544D01*
X103837188Y-108653624D01*
X103986488Y-108623927D01*
X104011258Y-108619000D01*
X104188742Y-108619000D01*
X104213512Y-108623927D01*
G37*
G36*
X111546217Y-106806665D02*
G01*
X111816995Y-106860525D01*
X112108358Y-106981212D01*
X112370578Y-107156422D01*
X112593578Y-107379422D01*
X112768788Y-107641642D01*
X112889475Y-107933005D01*
X112951000Y-108242315D01*
X112951000Y-108557685D01*
X112889475Y-108866995D01*
X112768788Y-109158358D01*
X112593578Y-109420578D01*
X112370578Y-109643578D01*
X112108358Y-109818788D01*
X111816995Y-109939475D01*
X111546217Y-109993335D01*
X111507686Y-110001000D01*
X111192314Y-110001000D01*
X111153783Y-109993335D01*
X110883005Y-109939475D01*
X110591642Y-109818788D01*
X110329422Y-109643578D01*
X110106422Y-109420578D01*
X109931212Y-109158358D01*
X109810525Y-108866995D01*
X109749000Y-108557685D01*
X109749000Y-108242315D01*
X109810525Y-107933005D01*
X109931212Y-107641642D01*
X110106422Y-107379422D01*
X110329422Y-107156422D01*
X110591642Y-106981212D01*
X110883005Y-106860525D01*
X111153783Y-106806665D01*
X111192314Y-106799000D01*
X111507686Y-106799000D01*
X111546217Y-106806665D01*
G37*
G36*
X117846217Y-106806665D02*
G01*
X118116995Y-106860525D01*
X118408358Y-106981212D01*
X118670578Y-107156422D01*
X118893578Y-107379422D01*
X119068788Y-107641642D01*
X119189475Y-107933005D01*
X119251000Y-108242315D01*
X119251000Y-108557685D01*
X119189475Y-108866995D01*
X119068788Y-109158358D01*
X118893578Y-109420578D01*
X118670578Y-109643578D01*
X118408358Y-109818788D01*
X118116995Y-109939475D01*
X117846217Y-109993335D01*
X117807686Y-110001000D01*
X117492314Y-110001000D01*
X117453783Y-109993335D01*
X117183005Y-109939475D01*
X116891642Y-109818788D01*
X116629422Y-109643578D01*
X116406422Y-109420578D01*
X116231212Y-109158358D01*
X116110525Y-108866995D01*
X116049000Y-108557685D01*
X116049000Y-108242315D01*
X116110525Y-107933005D01*
X116231212Y-107641642D01*
X116406422Y-107379422D01*
X116629422Y-107156422D01*
X116891642Y-106981212D01*
X117183005Y-106860525D01*
X117453783Y-106806665D01*
X117492314Y-106799000D01*
X117807686Y-106799000D01*
X117846217Y-106806665D01*
G37*
G36*
X104213512Y-106083927D02*
G01*
X104362812Y-106113624D01*
X104526784Y-106181544D01*
X104674354Y-106280147D01*
X104799853Y-106405646D01*
X104898456Y-106553216D01*
X104966376Y-106717188D01*
X105001000Y-106891259D01*
X105001000Y-107068741D01*
X104966376Y-107242812D01*
X104898456Y-107406784D01*
X104799853Y-107554354D01*
X104674354Y-107679853D01*
X104526784Y-107778456D01*
X104362812Y-107846376D01*
X104213512Y-107876073D01*
X104188742Y-107881000D01*
X104011258Y-107881000D01*
X103986488Y-107876073D01*
X103837188Y-107846376D01*
X103673216Y-107778456D01*
X103525646Y-107679853D01*
X103400147Y-107554354D01*
X103301544Y-107406784D01*
X103233624Y-107242812D01*
X103199000Y-107068741D01*
X103199000Y-106891259D01*
X103233624Y-106717188D01*
X103301544Y-106553216D01*
X103400147Y-106405646D01*
X103525646Y-106280147D01*
X103673216Y-106181544D01*
X103837188Y-106113624D01*
X103986488Y-106083927D01*
X104011258Y-106079000D01*
X104188742Y-106079000D01*
X104213512Y-106083927D01*
G37*
G36*
X104213512Y-103543927D02*
G01*
X104362812Y-103573624D01*
X104526784Y-103641544D01*
X104674354Y-103740147D01*
X104799853Y-103865646D01*
X104898456Y-104013216D01*
X104966376Y-104177188D01*
X105001000Y-104351259D01*
X105001000Y-104528741D01*
X104966376Y-104702812D01*
X104898456Y-104866784D01*
X104799853Y-105014354D01*
X104674354Y-105139853D01*
X104526784Y-105238456D01*
X104362812Y-105306376D01*
X104213512Y-105336073D01*
X104188742Y-105341000D01*
X104011258Y-105341000D01*
X103986488Y-105336073D01*
X103837188Y-105306376D01*
X103673216Y-105238456D01*
X103525646Y-105139853D01*
X103400147Y-105014354D01*
X103301544Y-104866784D01*
X103233624Y-104702812D01*
X103199000Y-104528741D01*
X103199000Y-104351259D01*
X103233624Y-104177188D01*
X103301544Y-104013216D01*
X103400147Y-103865646D01*
X103525646Y-103740147D01*
X103673216Y-103641544D01*
X103837188Y-103573624D01*
X103986488Y-103543927D01*
X104011258Y-103539000D01*
X104188742Y-103539000D01*
X104213512Y-103543927D01*
G37*
G36*
X122129487Y-101698996D02*
G01*
X122366253Y-101797068D01*
X122366255Y-101797069D01*
X122579339Y-101939447D01*
X122760553Y-102120661D01*
X122902932Y-102333747D01*
X123001004Y-102570513D01*
X123051000Y-102821861D01*
X123051000Y-103078139D01*
X123001004Y-103329487D01*
X122902932Y-103566253D01*
X122902931Y-103566255D01*
X122760553Y-103779339D01*
X122579339Y-103960553D01*
X122366255Y-104102931D01*
X122366254Y-104102932D01*
X122366253Y-104102932D01*
X122129487Y-104201004D01*
X121878139Y-104251000D01*
X121621861Y-104251000D01*
X121370513Y-104201004D01*
X121133747Y-104102932D01*
X121133746Y-104102932D01*
X121133745Y-104102931D01*
X120920661Y-103960553D01*
X120739447Y-103779339D01*
X120597069Y-103566255D01*
X120597068Y-103566253D01*
X120498996Y-103329487D01*
X120449000Y-103078139D01*
X120449000Y-102821861D01*
X120498996Y-102570513D01*
X120597068Y-102333747D01*
X120739447Y-102120661D01*
X120920661Y-101939447D01*
X121133745Y-101797069D01*
X121133747Y-101797068D01*
X121370513Y-101698996D01*
X121621861Y-101649000D01*
X121878139Y-101649000D01*
X122129487Y-101698996D01*
G37*
G36*
X107629487Y-101698996D02*
G01*
X107866253Y-101797068D01*
X107866255Y-101797069D01*
X108079339Y-101939447D01*
X108260553Y-102120661D01*
X108402932Y-102333747D01*
X108501004Y-102570513D01*
X108551000Y-102821861D01*
X108551000Y-103078139D01*
X108501004Y-103329487D01*
X108402932Y-103566253D01*
X108402931Y-103566255D01*
X108260553Y-103779339D01*
X108079339Y-103960553D01*
X107866255Y-104102931D01*
X107866254Y-104102932D01*
X107866253Y-104102932D01*
X107629487Y-104201004D01*
X107378139Y-104251000D01*
X107121861Y-104251000D01*
X106870513Y-104201004D01*
X106633747Y-104102932D01*
X106633746Y-104102932D01*
X106633745Y-104102931D01*
X106420661Y-103960553D01*
X106239447Y-103779339D01*
X106097069Y-103566255D01*
X106097068Y-103566253D01*
X105998996Y-103329487D01*
X105949000Y-103078139D01*
X105949000Y-102821861D01*
X105998996Y-102570513D01*
X106097068Y-102333747D01*
X106239447Y-102120661D01*
X106420661Y-101939447D01*
X106633745Y-101797069D01*
X106633747Y-101797068D01*
X106870513Y-101698996D01*
X107121861Y-101649000D01*
X107378139Y-101649000D01*
X107629487Y-101698996D01*
G37*
G36*
X105001000Y-102801000D02*
G01*
X103199000Y-102801000D01*
X103199000Y-100999000D01*
X105001000Y-100999000D01*
X105001000Y-102801000D01*
G37*
M02*
