G04 #@! TF.GenerationSoftware,KiCad,Pcbnew,5.1.5-52549c5~84~ubuntu19.10.1*
G04 #@! TF.CreationDate,2020-03-01T18:50:15+01:00*
G04 #@! TF.ProjectId,C245_conn,43323435-5f63-46f6-9e6e-2e6b69636164,rev?*
G04 #@! TF.SameCoordinates,Original*
G04 #@! TF.FileFunction,Legend,Top*
G04 #@! TF.FilePolarity,Positive*
%FSLAX46Y46*%
G04 Gerber Fmt 4.6, Leading zero omitted, Abs format (unit mm)*
G04 Created by KiCad (PCBNEW 5.1.5-52549c5~84~ubuntu19.10.1) date 2020-03-01 18:50:15*
%MOMM*%
%LPD*%
G04 APERTURE LIST*
%ADD10C,0.120000*%
%ADD11C,0.010000*%
G04 APERTURE END LIST*
D10*
X120750000Y-110200000D02*
G75*
G03X120750000Y-110200000I-6250000J0D01*
G01*
X121750000Y-100100000D02*
G75*
G02X124600000Y-102950000I0J-2850000D01*
G01*
X104400000Y-102950000D02*
G75*
G02X107250000Y-100100000I2850000J0D01*
G01*
X107250000Y-120300000D02*
G75*
G02X104400000Y-117450000I0J2850000D01*
G01*
X124600000Y-117450000D02*
G75*
G02X121750000Y-120300000I-2850000J0D01*
G01*
X104400000Y-102950000D02*
X104400000Y-117450000D01*
X124600000Y-102950000D02*
X124600000Y-117450000D01*
X121750000Y-120300000D02*
X107250000Y-120300000D01*
X121750000Y-100100000D02*
X107250000Y-100100000D01*
X117000000Y-100100000D02*
X117000000Y-104450000D01*
X112000000Y-100100000D02*
X112000000Y-104450000D01*
D11*
G36*
X101474222Y-108309112D02*
G01*
X101474222Y-107730556D01*
X101685889Y-107730556D01*
X101685889Y-108309112D01*
X101474222Y-108309112D01*
G37*
X101474222Y-108309112D02*
X101474222Y-107730556D01*
X101685889Y-107730556D01*
X101685889Y-108309112D01*
X101474222Y-108309112D01*
G36*
X101474222Y-117001556D02*
G01*
X101474222Y-117199112D01*
X101290778Y-117199112D01*
X101290778Y-117001556D01*
X100881555Y-117001556D01*
X100881555Y-116789889D01*
X101290778Y-116789889D01*
X101290778Y-116070223D01*
X101370636Y-116070223D01*
X101407037Y-116071673D01*
X101440870Y-116077505D01*
X101474222Y-116088545D01*
X101474222Y-116281483D01*
X101474222Y-116789889D01*
X101858750Y-116789382D01*
X102243278Y-116788874D01*
X102200944Y-116752814D01*
X102082410Y-116657713D01*
X101949631Y-116561177D01*
X101811133Y-116468911D01*
X101675446Y-116386619D01*
X101562416Y-116325620D01*
X101474222Y-116281483D01*
X101474222Y-116088545D01*
X101478425Y-116089937D01*
X101525990Y-116111188D01*
X101589856Y-116143476D01*
X101613920Y-116156059D01*
X101774572Y-116246315D01*
X101940389Y-116350181D01*
X102103731Y-116462366D01*
X102256959Y-116577576D01*
X102392434Y-116690520D01*
X102416139Y-116711835D01*
X102504333Y-116792257D01*
X102504333Y-117001556D01*
X101474222Y-117001556D01*
G37*
X101474222Y-117001556D02*
X101474222Y-117199112D01*
X101290778Y-117199112D01*
X101290778Y-117001556D01*
X100881555Y-117001556D01*
X100881555Y-116789889D01*
X101290778Y-116789889D01*
X101290778Y-116070223D01*
X101370636Y-116070223D01*
X101407037Y-116071673D01*
X101440870Y-116077505D01*
X101474222Y-116088545D01*
X101474222Y-116281483D01*
X101474222Y-116789889D01*
X101858750Y-116789382D01*
X102243278Y-116788874D01*
X102200944Y-116752814D01*
X102082410Y-116657713D01*
X101949631Y-116561177D01*
X101811133Y-116468911D01*
X101675446Y-116386619D01*
X101562416Y-116325620D01*
X101474222Y-116281483D01*
X101474222Y-116088545D01*
X101478425Y-116089937D01*
X101525990Y-116111188D01*
X101589856Y-116143476D01*
X101613920Y-116156059D01*
X101774572Y-116246315D01*
X101940389Y-116350181D01*
X102103731Y-116462366D01*
X102256959Y-116577576D01*
X102392434Y-116690520D01*
X102416139Y-116711835D01*
X102504333Y-116792257D01*
X102504333Y-117001556D01*
X101474222Y-117001556D01*
G36*
X102543120Y-115296062D02*
G01*
X102526202Y-115403729D01*
X102494181Y-115503629D01*
X102448450Y-115587927D01*
X102433776Y-115607187D01*
X102369155Y-115664960D01*
X102286296Y-115708054D01*
X102192084Y-115734651D01*
X102093401Y-115742937D01*
X101997130Y-115731093D01*
X101980740Y-115726728D01*
X101910761Y-115700197D01*
X101836477Y-115659219D01*
X101754974Y-115601712D01*
X101663334Y-115525593D01*
X101558643Y-115428780D01*
X101545027Y-115415637D01*
X101440918Y-115316099D01*
X101353493Y-115235600D01*
X101280532Y-115172222D01*
X101219814Y-115124047D01*
X101169120Y-115089158D01*
X101162112Y-115084874D01*
X101133781Y-115067852D01*
X101111569Y-115056525D01*
X101094731Y-115053520D01*
X101082526Y-115061463D01*
X101074210Y-115082980D01*
X101069041Y-115120698D01*
X101066275Y-115177244D01*
X101065169Y-115255243D01*
X101064981Y-115357321D01*
X101065000Y-115428167D01*
X101065000Y-115802112D01*
X100881555Y-115802112D01*
X100881555Y-114810622D01*
X100987824Y-114817442D01*
X101047888Y-114823447D01*
X101099312Y-114834909D01*
X101153389Y-114855120D01*
X101212480Y-114882926D01*
X101252437Y-114903798D01*
X101290159Y-114926437D01*
X101329214Y-114953705D01*
X101373171Y-114988464D01*
X101425598Y-115033576D01*
X101490066Y-115091905D01*
X101570142Y-115166312D01*
X101595710Y-115190290D01*
X101690993Y-115278894D01*
X101769540Y-115349430D01*
X101834455Y-115403896D01*
X101888843Y-115444295D01*
X101935809Y-115472626D01*
X101978457Y-115490891D01*
X102019893Y-115501090D01*
X102063221Y-115505224D01*
X102085090Y-115505640D01*
X102174577Y-115494703D01*
X102247126Y-115461859D01*
X102301823Y-115407551D01*
X102308883Y-115396856D01*
X102326512Y-115363503D01*
X102336621Y-115328000D01*
X102341062Y-115280990D01*
X102341783Y-115230612D01*
X102339990Y-115166896D01*
X102333354Y-115119780D01*
X102319435Y-115077743D01*
X102301461Y-115040112D01*
X102273472Y-114991008D01*
X102243742Y-114946623D01*
X102226121Y-114924854D01*
X102190830Y-114887208D01*
X102270259Y-114834471D01*
X102349687Y-114781733D01*
X102383365Y-114813372D01*
X102417350Y-114855060D01*
X102453906Y-114915853D01*
X102488745Y-114987480D01*
X102517582Y-115061668D01*
X102526063Y-115088770D01*
X102543538Y-115188464D01*
X102543120Y-115296062D01*
G37*
X102543120Y-115296062D02*
X102526202Y-115403729D01*
X102494181Y-115503629D01*
X102448450Y-115587927D01*
X102433776Y-115607187D01*
X102369155Y-115664960D01*
X102286296Y-115708054D01*
X102192084Y-115734651D01*
X102093401Y-115742937D01*
X101997130Y-115731093D01*
X101980740Y-115726728D01*
X101910761Y-115700197D01*
X101836477Y-115659219D01*
X101754974Y-115601712D01*
X101663334Y-115525593D01*
X101558643Y-115428780D01*
X101545027Y-115415637D01*
X101440918Y-115316099D01*
X101353493Y-115235600D01*
X101280532Y-115172222D01*
X101219814Y-115124047D01*
X101169120Y-115089158D01*
X101162112Y-115084874D01*
X101133781Y-115067852D01*
X101111569Y-115056525D01*
X101094731Y-115053520D01*
X101082526Y-115061463D01*
X101074210Y-115082980D01*
X101069041Y-115120698D01*
X101066275Y-115177244D01*
X101065169Y-115255243D01*
X101064981Y-115357321D01*
X101065000Y-115428167D01*
X101065000Y-115802112D01*
X100881555Y-115802112D01*
X100881555Y-114810622D01*
X100987824Y-114817442D01*
X101047888Y-114823447D01*
X101099312Y-114834909D01*
X101153389Y-114855120D01*
X101212480Y-114882926D01*
X101252437Y-114903798D01*
X101290159Y-114926437D01*
X101329214Y-114953705D01*
X101373171Y-114988464D01*
X101425598Y-115033576D01*
X101490066Y-115091905D01*
X101570142Y-115166312D01*
X101595710Y-115190290D01*
X101690993Y-115278894D01*
X101769540Y-115349430D01*
X101834455Y-115403896D01*
X101888843Y-115444295D01*
X101935809Y-115472626D01*
X101978457Y-115490891D01*
X102019893Y-115501090D01*
X102063221Y-115505224D01*
X102085090Y-115505640D01*
X102174577Y-115494703D01*
X102247126Y-115461859D01*
X102301823Y-115407551D01*
X102308883Y-115396856D01*
X102326512Y-115363503D01*
X102336621Y-115328000D01*
X102341062Y-115280990D01*
X102341783Y-115230612D01*
X102339990Y-115166896D01*
X102333354Y-115119780D01*
X102319435Y-115077743D01*
X102301461Y-115040112D01*
X102273472Y-114991008D01*
X102243742Y-114946623D01*
X102226121Y-114924854D01*
X102190830Y-114887208D01*
X102270259Y-114834471D01*
X102349687Y-114781733D01*
X102383365Y-114813372D01*
X102417350Y-114855060D01*
X102453906Y-114915853D01*
X102488745Y-114987480D01*
X102517582Y-115061668D01*
X102526063Y-115088770D01*
X102543538Y-115188464D01*
X102543120Y-115296062D01*
G36*
X102120863Y-111983862D02*
G01*
X102117259Y-112059404D01*
X102111540Y-112114913D01*
X102102254Y-112158571D01*
X102087948Y-112198559D01*
X102079321Y-112217889D01*
X102021777Y-112309997D01*
X101945071Y-112383087D01*
X101855379Y-112432880D01*
X101832269Y-112441558D01*
X101808825Y-112448513D01*
X101781615Y-112453982D01*
X101747209Y-112458200D01*
X101702175Y-112461402D01*
X101643084Y-112463824D01*
X101566504Y-112465701D01*
X101469004Y-112467269D01*
X101347153Y-112468762D01*
X101329583Y-112468960D01*
X100881555Y-112473990D01*
X100881555Y-112260223D01*
X101223750Y-112259943D01*
X101375187Y-112258888D01*
X101501146Y-112255609D01*
X101604324Y-112249530D01*
X101687417Y-112240075D01*
X101753122Y-112226668D01*
X101804135Y-112208733D01*
X101843152Y-112185694D01*
X101872870Y-112156976D01*
X101895986Y-112122002D01*
X101899323Y-112115647D01*
X101914424Y-112080842D01*
X101923453Y-112043590D01*
X101927663Y-111995527D01*
X101928307Y-111928287D01*
X101928250Y-111922579D01*
X101926701Y-111859148D01*
X101923773Y-111802294D01*
X101919984Y-111760836D01*
X101918116Y-111749465D01*
X101909424Y-111709889D01*
X100881555Y-111709889D01*
X100881555Y-111484112D01*
X102064550Y-111484112D01*
X102079757Y-111555021D01*
X102105518Y-111695175D01*
X102119090Y-111823298D01*
X102121703Y-111952191D01*
X102120863Y-111983862D01*
G37*
X102120863Y-111983862D02*
X102117259Y-112059404D01*
X102111540Y-112114913D01*
X102102254Y-112158571D01*
X102087948Y-112198559D01*
X102079321Y-112217889D01*
X102021777Y-112309997D01*
X101945071Y-112383087D01*
X101855379Y-112432880D01*
X101832269Y-112441558D01*
X101808825Y-112448513D01*
X101781615Y-112453982D01*
X101747209Y-112458200D01*
X101702175Y-112461402D01*
X101643084Y-112463824D01*
X101566504Y-112465701D01*
X101469004Y-112467269D01*
X101347153Y-112468762D01*
X101329583Y-112468960D01*
X100881555Y-112473990D01*
X100881555Y-112260223D01*
X101223750Y-112259943D01*
X101375187Y-112258888D01*
X101501146Y-112255609D01*
X101604324Y-112249530D01*
X101687417Y-112240075D01*
X101753122Y-112226668D01*
X101804135Y-112208733D01*
X101843152Y-112185694D01*
X101872870Y-112156976D01*
X101895986Y-112122002D01*
X101899323Y-112115647D01*
X101914424Y-112080842D01*
X101923453Y-112043590D01*
X101927663Y-111995527D01*
X101928307Y-111928287D01*
X101928250Y-111922579D01*
X101926701Y-111859148D01*
X101923773Y-111802294D01*
X101919984Y-111760836D01*
X101918116Y-111749465D01*
X101909424Y-111709889D01*
X100881555Y-111709889D01*
X100881555Y-111484112D01*
X102064550Y-111484112D01*
X102079757Y-111555021D01*
X102105518Y-111695175D01*
X102119090Y-111823298D01*
X102121703Y-111952191D01*
X102120863Y-111983862D01*
G36*
X102118793Y-109722488D02*
G01*
X102107211Y-109809904D01*
X102096041Y-109856353D01*
X102084801Y-109879570D01*
X102070929Y-109884434D01*
X102068406Y-109883867D01*
X102039293Y-109877020D01*
X101999313Y-109868946D01*
X101996333Y-109868389D01*
X101942431Y-109857304D01*
X101912545Y-109848007D01*
X101902660Y-109839011D01*
X101903956Y-109834171D01*
X101909298Y-109815702D01*
X101917089Y-109777171D01*
X101925759Y-109726449D01*
X101926847Y-109719511D01*
X101935318Y-109641572D01*
X101933361Y-109570780D01*
X101925301Y-109512824D01*
X101907674Y-109409778D01*
X100881555Y-109409778D01*
X100881555Y-109198112D01*
X102050589Y-109198112D01*
X102065903Y-109244512D01*
X102094441Y-109354702D01*
X102113252Y-109477707D01*
X102121611Y-109603608D01*
X102118793Y-109722488D01*
G37*
X102118793Y-109722488D02*
X102107211Y-109809904D01*
X102096041Y-109856353D01*
X102084801Y-109879570D01*
X102070929Y-109884434D01*
X102068406Y-109883867D01*
X102039293Y-109877020D01*
X101999313Y-109868946D01*
X101996333Y-109868389D01*
X101942431Y-109857304D01*
X101912545Y-109848007D01*
X101902660Y-109839011D01*
X101903956Y-109834171D01*
X101909298Y-109815702D01*
X101917089Y-109777171D01*
X101925759Y-109726449D01*
X101926847Y-109719511D01*
X101935318Y-109641572D01*
X101933361Y-109570780D01*
X101925301Y-109512824D01*
X101907674Y-109409778D01*
X100881555Y-109409778D01*
X100881555Y-109198112D01*
X102050589Y-109198112D01*
X102065903Y-109244512D01*
X102094441Y-109354702D01*
X102113252Y-109477707D01*
X102121611Y-109603608D01*
X102118793Y-109722488D01*
G36*
X100881555Y-108803000D02*
G01*
X100881555Y-108577223D01*
X102504333Y-108577223D01*
X102504333Y-108803000D01*
X100881555Y-108803000D01*
G37*
X100881555Y-108803000D02*
X100881555Y-108577223D01*
X102504333Y-108577223D01*
X102504333Y-108803000D01*
X100881555Y-108803000D01*
G36*
X102121370Y-107506390D02*
G01*
X102116123Y-107568223D01*
X102108552Y-107626387D01*
X102099618Y-107674546D01*
X102090283Y-107706366D01*
X102082580Y-107715829D01*
X102050188Y-107711136D01*
X102008084Y-107702101D01*
X101965004Y-107691020D01*
X101929681Y-107680193D01*
X101910850Y-107671915D01*
X101909723Y-107670362D01*
X101911659Y-107652010D01*
X101917259Y-107613829D01*
X101925346Y-107563793D01*
X101926047Y-107559625D01*
X101934751Y-107490038D01*
X101934723Y-107425595D01*
X101925928Y-107350536D01*
X101925562Y-107348168D01*
X101908216Y-107236667D01*
X100881555Y-107236667D01*
X100881555Y-107025000D01*
X102050589Y-107025000D01*
X102065903Y-107071401D01*
X102086587Y-107148847D01*
X102104251Y-107242338D01*
X102117037Y-107339718D01*
X102123089Y-107428834D01*
X102123333Y-107447222D01*
X102121370Y-107506390D01*
G37*
X102121370Y-107506390D02*
X102116123Y-107568223D01*
X102108552Y-107626387D01*
X102099618Y-107674546D01*
X102090283Y-107706366D01*
X102082580Y-107715829D01*
X102050188Y-107711136D01*
X102008084Y-107702101D01*
X101965004Y-107691020D01*
X101929681Y-107680193D01*
X101910850Y-107671915D01*
X101909723Y-107670362D01*
X101911659Y-107652010D01*
X101917259Y-107613829D01*
X101925346Y-107563793D01*
X101926047Y-107559625D01*
X101934751Y-107490038D01*
X101934723Y-107425595D01*
X101925928Y-107350536D01*
X101925562Y-107348168D01*
X101908216Y-107236667D01*
X100881555Y-107236667D01*
X100881555Y-107025000D01*
X102050589Y-107025000D01*
X102065903Y-107071401D01*
X102086587Y-107148847D01*
X102104251Y-107242338D01*
X102117037Y-107339718D01*
X102123089Y-107428834D01*
X102123333Y-107447222D01*
X102121370Y-107506390D01*
G36*
X102122407Y-106283595D02*
G01*
X102093964Y-106398404D01*
X102043946Y-106495221D01*
X101972766Y-106573750D01*
X101880835Y-106633694D01*
X101768565Y-106674756D01*
X101636367Y-106696639D01*
X101544083Y-106700445D01*
X101431889Y-106700445D01*
X101431889Y-106284167D01*
X101432099Y-106161939D01*
X101432136Y-106065224D01*
X101431107Y-105991322D01*
X101428123Y-105937534D01*
X101422292Y-105901158D01*
X101412722Y-105879495D01*
X101398522Y-105869846D01*
X101378801Y-105869509D01*
X101352669Y-105875786D01*
X101319232Y-105885975D01*
X101302102Y-105890967D01*
X101216152Y-105927414D01*
X101142916Y-105982677D01*
X101088313Y-106051679D01*
X101069596Y-106090398D01*
X101055245Y-106147622D01*
X101046895Y-106223137D01*
X101044525Y-106307661D01*
X101048115Y-106391911D01*
X101057643Y-106466607D01*
X101070533Y-106516021D01*
X101082124Y-106554856D01*
X101085148Y-106582400D01*
X101082912Y-106588901D01*
X101063847Y-106596183D01*
X101026111Y-106604060D01*
X100992720Y-106608920D01*
X100913385Y-106618579D01*
X100888496Y-106550151D01*
X100875833Y-106503379D01*
X100866805Y-106440608D01*
X100860880Y-106357236D01*
X100858478Y-106291223D01*
X100856905Y-106208390D01*
X100857736Y-106146754D01*
X100861555Y-106099350D01*
X100868948Y-106059211D01*
X100880500Y-106019370D01*
X100881599Y-106016056D01*
X100932234Y-105905535D01*
X101003714Y-105813548D01*
X101095119Y-105740656D01*
X101205533Y-105687421D01*
X101334039Y-105654407D01*
X101479720Y-105642175D01*
X101491682Y-105642112D01*
X101632385Y-105653355D01*
X101637103Y-105654565D01*
X101637103Y-105876166D01*
X101612276Y-105877216D01*
X101611805Y-105877475D01*
X101608651Y-105892804D01*
X101605871Y-105932110D01*
X101603615Y-105991149D01*
X101602031Y-106065676D01*
X101601268Y-106151447D01*
X101601222Y-106179167D01*
X101601222Y-106474667D01*
X101645446Y-106474667D01*
X101723054Y-106463594D01*
X101797793Y-106433329D01*
X101862246Y-106388300D01*
X101908999Y-106332939D01*
X101920475Y-106310370D01*
X101940386Y-106228237D01*
X101936168Y-106142729D01*
X101909822Y-106060826D01*
X101863346Y-105989507D01*
X101816429Y-105947125D01*
X101776210Y-105923767D01*
X101727378Y-105902269D01*
X101678240Y-105885460D01*
X101637103Y-105876166D01*
X101637103Y-105654565D01*
X101759148Y-105685886D01*
X101870200Y-105737907D01*
X101963774Y-105807618D01*
X102038103Y-105893222D01*
X102091417Y-105992921D01*
X102121948Y-106104915D01*
X102127928Y-106227407D01*
X102122407Y-106283595D01*
G37*
X102122407Y-106283595D02*
X102093964Y-106398404D01*
X102043946Y-106495221D01*
X101972766Y-106573750D01*
X101880835Y-106633694D01*
X101768565Y-106674756D01*
X101636367Y-106696639D01*
X101544083Y-106700445D01*
X101431889Y-106700445D01*
X101431889Y-106284167D01*
X101432099Y-106161939D01*
X101432136Y-106065224D01*
X101431107Y-105991322D01*
X101428123Y-105937534D01*
X101422292Y-105901158D01*
X101412722Y-105879495D01*
X101398522Y-105869846D01*
X101378801Y-105869509D01*
X101352669Y-105875786D01*
X101319232Y-105885975D01*
X101302102Y-105890967D01*
X101216152Y-105927414D01*
X101142916Y-105982677D01*
X101088313Y-106051679D01*
X101069596Y-106090398D01*
X101055245Y-106147622D01*
X101046895Y-106223137D01*
X101044525Y-106307661D01*
X101048115Y-106391911D01*
X101057643Y-106466607D01*
X101070533Y-106516021D01*
X101082124Y-106554856D01*
X101085148Y-106582400D01*
X101082912Y-106588901D01*
X101063847Y-106596183D01*
X101026111Y-106604060D01*
X100992720Y-106608920D01*
X100913385Y-106618579D01*
X100888496Y-106550151D01*
X100875833Y-106503379D01*
X100866805Y-106440608D01*
X100860880Y-106357236D01*
X100858478Y-106291223D01*
X100856905Y-106208390D01*
X100857736Y-106146754D01*
X100861555Y-106099350D01*
X100868948Y-106059211D01*
X100880500Y-106019370D01*
X100881599Y-106016056D01*
X100932234Y-105905535D01*
X101003714Y-105813548D01*
X101095119Y-105740656D01*
X101205533Y-105687421D01*
X101334039Y-105654407D01*
X101479720Y-105642175D01*
X101491682Y-105642112D01*
X101632385Y-105653355D01*
X101637103Y-105654565D01*
X101637103Y-105876166D01*
X101612276Y-105877216D01*
X101611805Y-105877475D01*
X101608651Y-105892804D01*
X101605871Y-105932110D01*
X101603615Y-105991149D01*
X101602031Y-106065676D01*
X101601268Y-106151447D01*
X101601222Y-106179167D01*
X101601222Y-106474667D01*
X101645446Y-106474667D01*
X101723054Y-106463594D01*
X101797793Y-106433329D01*
X101862246Y-106388300D01*
X101908999Y-106332939D01*
X101920475Y-106310370D01*
X101940386Y-106228237D01*
X101936168Y-106142729D01*
X101909822Y-106060826D01*
X101863346Y-105989507D01*
X101816429Y-105947125D01*
X101776210Y-105923767D01*
X101727378Y-105902269D01*
X101678240Y-105885460D01*
X101637103Y-105876166D01*
X101637103Y-105654565D01*
X101759148Y-105685886D01*
X101870200Y-105737907D01*
X101963774Y-105807618D01*
X102038103Y-105893222D01*
X102091417Y-105992921D01*
X102121948Y-106104915D01*
X102127928Y-106227407D01*
X102122407Y-106283595D01*
G36*
X102462177Y-104984890D02*
G01*
X102420946Y-104989681D01*
X102353278Y-104992384D01*
X102285611Y-104993000D01*
X102095111Y-104993000D01*
X102095111Y-105460014D01*
X102006916Y-105455813D01*
X101918722Y-105451612D01*
X101914845Y-105222306D01*
X101910967Y-104993000D01*
X101562067Y-104993310D01*
X101451723Y-104993599D01*
X101365735Y-104994417D01*
X101300239Y-104996019D01*
X101251370Y-104998663D01*
X101215265Y-105002604D01*
X101188058Y-105008099D01*
X101165886Y-105015404D01*
X101154294Y-105020350D01*
X101104139Y-105048975D01*
X101071621Y-105084411D01*
X101053639Y-105132739D01*
X101047091Y-105200039D01*
X101046944Y-105230822D01*
X101051306Y-105302684D01*
X101061708Y-105363334D01*
X101070691Y-105391186D01*
X101084864Y-105425496D01*
X101092685Y-105446969D01*
X101093222Y-105449483D01*
X101080849Y-105455882D01*
X101049298Y-105465721D01*
X101026194Y-105471741D01*
X100981632Y-105482901D01*
X100945998Y-105492240D01*
X100935961Y-105495061D01*
X100916566Y-105487728D01*
X100898784Y-105457164D01*
X100883253Y-105408345D01*
X100870610Y-105346247D01*
X100861491Y-105275844D01*
X100856536Y-105202112D01*
X100856382Y-105130026D01*
X100861665Y-105064561D01*
X100873024Y-105010692D01*
X100873649Y-105008741D01*
X100908904Y-104939422D01*
X100964358Y-104875711D01*
X101032171Y-104826433D01*
X101038601Y-104823013D01*
X101067191Y-104810107D01*
X101100319Y-104799304D01*
X101140592Y-104790428D01*
X101190617Y-104783301D01*
X101253000Y-104777746D01*
X101330346Y-104773584D01*
X101425263Y-104770640D01*
X101540357Y-104768735D01*
X101678234Y-104767692D01*
X101841500Y-104767334D01*
X101856682Y-104767329D01*
X102443753Y-104767223D01*
X102459932Y-104865191D01*
X102468008Y-104916097D01*
X102473807Y-104956477D01*
X102476109Y-104977815D01*
X102476111Y-104978080D01*
X102462177Y-104984890D01*
G37*
X102462177Y-104984890D02*
X102420946Y-104989681D01*
X102353278Y-104992384D01*
X102285611Y-104993000D01*
X102095111Y-104993000D01*
X102095111Y-105460014D01*
X102006916Y-105455813D01*
X101918722Y-105451612D01*
X101914845Y-105222306D01*
X101910967Y-104993000D01*
X101562067Y-104993310D01*
X101451723Y-104993599D01*
X101365735Y-104994417D01*
X101300239Y-104996019D01*
X101251370Y-104998663D01*
X101215265Y-105002604D01*
X101188058Y-105008099D01*
X101165886Y-105015404D01*
X101154294Y-105020350D01*
X101104139Y-105048975D01*
X101071621Y-105084411D01*
X101053639Y-105132739D01*
X101047091Y-105200039D01*
X101046944Y-105230822D01*
X101051306Y-105302684D01*
X101061708Y-105363334D01*
X101070691Y-105391186D01*
X101084864Y-105425496D01*
X101092685Y-105446969D01*
X101093222Y-105449483D01*
X101080849Y-105455882D01*
X101049298Y-105465721D01*
X101026194Y-105471741D01*
X100981632Y-105482901D01*
X100945998Y-105492240D01*
X100935961Y-105495061D01*
X100916566Y-105487728D01*
X100898784Y-105457164D01*
X100883253Y-105408345D01*
X100870610Y-105346247D01*
X100861491Y-105275844D01*
X100856536Y-105202112D01*
X100856382Y-105130026D01*
X100861665Y-105064561D01*
X100873024Y-105010692D01*
X100873649Y-105008741D01*
X100908904Y-104939422D01*
X100964358Y-104875711D01*
X101032171Y-104826433D01*
X101038601Y-104823013D01*
X101067191Y-104810107D01*
X101100319Y-104799304D01*
X101140592Y-104790428D01*
X101190617Y-104783301D01*
X101253000Y-104777746D01*
X101330346Y-104773584D01*
X101425263Y-104770640D01*
X101540357Y-104768735D01*
X101678234Y-104767692D01*
X101841500Y-104767334D01*
X101856682Y-104767329D01*
X102443753Y-104767223D01*
X102459932Y-104865191D01*
X102468008Y-104916097D01*
X102473807Y-104956477D01*
X102476109Y-104977815D01*
X102476111Y-104978080D01*
X102462177Y-104984890D01*
G36*
X102462177Y-104039446D02*
G01*
X102420946Y-104044236D01*
X102353278Y-104046939D01*
X102285611Y-104047556D01*
X102095111Y-104047556D01*
X102095111Y-104499112D01*
X101911666Y-104499112D01*
X101911666Y-104046220D01*
X101548305Y-104050416D01*
X101428648Y-104052045D01*
X101333750Y-104054272D01*
X101260149Y-104057718D01*
X101204381Y-104063005D01*
X101162984Y-104070755D01*
X101132494Y-104081589D01*
X101109449Y-104096129D01*
X101090385Y-104114998D01*
X101074262Y-104135530D01*
X101058926Y-104162015D01*
X101050352Y-104195002D01*
X101047023Y-104242710D01*
X101046933Y-104283697D01*
X101051312Y-104357040D01*
X101061790Y-104418247D01*
X101070691Y-104445742D01*
X101084864Y-104480052D01*
X101092685Y-104501525D01*
X101093222Y-104504039D01*
X101080849Y-104510437D01*
X101049298Y-104520276D01*
X101026194Y-104526297D01*
X100981632Y-104537456D01*
X100945998Y-104546795D01*
X100935961Y-104549617D01*
X100916455Y-104542325D01*
X100898627Y-104511784D01*
X100883105Y-104462948D01*
X100870517Y-104400770D01*
X100861490Y-104330204D01*
X100856651Y-104256204D01*
X100856629Y-104183723D01*
X100862050Y-104117714D01*
X100873542Y-104063133D01*
X100874112Y-104061334D01*
X100913972Y-103981953D01*
X100976743Y-103917663D01*
X101060756Y-103869693D01*
X101164338Y-103839271D01*
X101179712Y-103836578D01*
X101215013Y-103833189D01*
X101275349Y-103830114D01*
X101357534Y-103827424D01*
X101458382Y-103825188D01*
X101574707Y-103823474D01*
X101703323Y-103822353D01*
X101841045Y-103821892D01*
X101856682Y-103821885D01*
X102443753Y-103821778D01*
X102459932Y-103919746D01*
X102468008Y-103970653D01*
X102473807Y-104011032D01*
X102476109Y-104032371D01*
X102476111Y-104032635D01*
X102462177Y-104039446D01*
G37*
X102462177Y-104039446D02*
X102420946Y-104044236D01*
X102353278Y-104046939D01*
X102285611Y-104047556D01*
X102095111Y-104047556D01*
X102095111Y-104499112D01*
X101911666Y-104499112D01*
X101911666Y-104046220D01*
X101548305Y-104050416D01*
X101428648Y-104052045D01*
X101333750Y-104054272D01*
X101260149Y-104057718D01*
X101204381Y-104063005D01*
X101162984Y-104070755D01*
X101132494Y-104081589D01*
X101109449Y-104096129D01*
X101090385Y-104114998D01*
X101074262Y-104135530D01*
X101058926Y-104162015D01*
X101050352Y-104195002D01*
X101047023Y-104242710D01*
X101046933Y-104283697D01*
X101051312Y-104357040D01*
X101061790Y-104418247D01*
X101070691Y-104445742D01*
X101084864Y-104480052D01*
X101092685Y-104501525D01*
X101093222Y-104504039D01*
X101080849Y-104510437D01*
X101049298Y-104520276D01*
X101026194Y-104526297D01*
X100981632Y-104537456D01*
X100945998Y-104546795D01*
X100935961Y-104549617D01*
X100916455Y-104542325D01*
X100898627Y-104511784D01*
X100883105Y-104462948D01*
X100870517Y-104400770D01*
X100861490Y-104330204D01*
X100856651Y-104256204D01*
X100856629Y-104183723D01*
X100862050Y-104117714D01*
X100873542Y-104063133D01*
X100874112Y-104061334D01*
X100913972Y-103981953D01*
X100976743Y-103917663D01*
X101060756Y-103869693D01*
X101164338Y-103839271D01*
X101179712Y-103836578D01*
X101215013Y-103833189D01*
X101275349Y-103830114D01*
X101357534Y-103827424D01*
X101458382Y-103825188D01*
X101574707Y-103823474D01*
X101703323Y-103822353D01*
X101841045Y-103821892D01*
X101856682Y-103821885D01*
X102443753Y-103821778D01*
X102459932Y-103919746D01*
X102468008Y-103970653D01*
X102473807Y-104011032D01*
X102476109Y-104032371D01*
X102476111Y-104032635D01*
X102462177Y-104039446D01*
G36*
X102320889Y-118398556D02*
G01*
X102320889Y-118102223D01*
X102320493Y-117998198D01*
X102319196Y-117919636D01*
X102316836Y-117863787D01*
X102313248Y-117827901D01*
X102308271Y-117809229D01*
X102303250Y-117804841D01*
X102283428Y-117803339D01*
X102241061Y-117799930D01*
X102181725Y-117795069D01*
X102110999Y-117789211D01*
X102084542Y-117787005D01*
X101883473Y-117770218D01*
X101877694Y-117812748D01*
X101860089Y-117931483D01*
X101842060Y-118026777D01*
X101821957Y-118103383D01*
X101798129Y-118166054D01*
X101768926Y-118219546D01*
X101732696Y-118268610D01*
X101710645Y-118293828D01*
X101627118Y-118368960D01*
X101535031Y-118418895D01*
X101429373Y-118446056D01*
X101385618Y-118450834D01*
X101262542Y-118447830D01*
X101152174Y-118420141D01*
X101056054Y-118369000D01*
X100975722Y-118295641D01*
X100912720Y-118201297D01*
X100868587Y-118087203D01*
X100854516Y-118025548D01*
X100845940Y-117956824D01*
X100841797Y-117876329D01*
X100842311Y-117796557D01*
X100847704Y-117729999D01*
X100849067Y-117721223D01*
X100857628Y-117679576D01*
X100870337Y-117627706D01*
X100885149Y-117572818D01*
X100900018Y-117522117D01*
X100912900Y-117482806D01*
X100921751Y-117462092D01*
X100922999Y-117460717D01*
X100940974Y-117460511D01*
X100976521Y-117465912D01*
X101020062Y-117474829D01*
X101062015Y-117485174D01*
X101092801Y-117494856D01*
X101102306Y-117499825D01*
X101101744Y-117516021D01*
X101092522Y-117550448D01*
X101078820Y-117589721D01*
X101054550Y-117677291D01*
X101041070Y-117777838D01*
X101038940Y-117880333D01*
X101048723Y-117973751D01*
X101057398Y-118010710D01*
X101095278Y-118097093D01*
X101151365Y-118162633D01*
X101223306Y-118205794D01*
X101308750Y-118225039D01*
X101381849Y-118222649D01*
X101463653Y-118202494D01*
X101531202Y-118164490D01*
X101585839Y-118106763D01*
X101628906Y-118027439D01*
X101661745Y-117924643D01*
X101685370Y-117798834D01*
X101692886Y-117734883D01*
X101698100Y-117669243D01*
X101699720Y-117625333D01*
X101700000Y-117550610D01*
X101745861Y-117558187D01*
X101792539Y-117564340D01*
X101861677Y-117571414D01*
X101947547Y-117578955D01*
X102044420Y-117586505D01*
X102146567Y-117593610D01*
X102248260Y-117599813D01*
X102310305Y-117603092D01*
X102504333Y-117612627D01*
X102504333Y-118398556D01*
X102320889Y-118398556D01*
G37*
X102320889Y-118398556D02*
X102320889Y-118102223D01*
X102320493Y-117998198D01*
X102319196Y-117919636D01*
X102316836Y-117863787D01*
X102313248Y-117827901D01*
X102308271Y-117809229D01*
X102303250Y-117804841D01*
X102283428Y-117803339D01*
X102241061Y-117799930D01*
X102181725Y-117795069D01*
X102110999Y-117789211D01*
X102084542Y-117787005D01*
X101883473Y-117770218D01*
X101877694Y-117812748D01*
X101860089Y-117931483D01*
X101842060Y-118026777D01*
X101821957Y-118103383D01*
X101798129Y-118166054D01*
X101768926Y-118219546D01*
X101732696Y-118268610D01*
X101710645Y-118293828D01*
X101627118Y-118368960D01*
X101535031Y-118418895D01*
X101429373Y-118446056D01*
X101385618Y-118450834D01*
X101262542Y-118447830D01*
X101152174Y-118420141D01*
X101056054Y-118369000D01*
X100975722Y-118295641D01*
X100912720Y-118201297D01*
X100868587Y-118087203D01*
X100854516Y-118025548D01*
X100845940Y-117956824D01*
X100841797Y-117876329D01*
X100842311Y-117796557D01*
X100847704Y-117729999D01*
X100849067Y-117721223D01*
X100857628Y-117679576D01*
X100870337Y-117627706D01*
X100885149Y-117572818D01*
X100900018Y-117522117D01*
X100912900Y-117482806D01*
X100921751Y-117462092D01*
X100922999Y-117460717D01*
X100940974Y-117460511D01*
X100976521Y-117465912D01*
X101020062Y-117474829D01*
X101062015Y-117485174D01*
X101092801Y-117494856D01*
X101102306Y-117499825D01*
X101101744Y-117516021D01*
X101092522Y-117550448D01*
X101078820Y-117589721D01*
X101054550Y-117677291D01*
X101041070Y-117777838D01*
X101038940Y-117880333D01*
X101048723Y-117973751D01*
X101057398Y-118010710D01*
X101095278Y-118097093D01*
X101151365Y-118162633D01*
X101223306Y-118205794D01*
X101308750Y-118225039D01*
X101381849Y-118222649D01*
X101463653Y-118202494D01*
X101531202Y-118164490D01*
X101585839Y-118106763D01*
X101628906Y-118027439D01*
X101661745Y-117924643D01*
X101685370Y-117798834D01*
X101692886Y-117734883D01*
X101698100Y-117669243D01*
X101699720Y-117625333D01*
X101700000Y-117550610D01*
X101745861Y-117558187D01*
X101792539Y-117564340D01*
X101861677Y-117571414D01*
X101947547Y-117578955D01*
X102044420Y-117586505D01*
X102146567Y-117593610D01*
X102248260Y-117599813D01*
X102310305Y-117603092D01*
X102504333Y-117612627D01*
X102504333Y-118398556D01*
X102320889Y-118398556D01*
G36*
X102534531Y-114263395D02*
G01*
X102507450Y-114397706D01*
X102488654Y-114455344D01*
X102466190Y-114513040D01*
X102447361Y-114547780D01*
X102426156Y-114563127D01*
X102396562Y-114562647D01*
X102352565Y-114549905D01*
X102337627Y-114544889D01*
X102289170Y-114526982D01*
X102263594Y-114512713D01*
X102256359Y-114499046D01*
X102258109Y-114491708D01*
X102310738Y-114342647D01*
X102339233Y-114207590D01*
X102343676Y-114086047D01*
X102336557Y-114028282D01*
X102301959Y-113907707D01*
X102245898Y-113805435D01*
X102168231Y-113721274D01*
X102068813Y-113655033D01*
X102047363Y-113644415D01*
X101950960Y-113606215D01*
X101852266Y-113583195D01*
X101741185Y-113573301D01*
X101694176Y-113572556D01*
X101540768Y-113582613D01*
X101406565Y-113612331D01*
X101292228Y-113661031D01*
X101198422Y-113728035D01*
X101125809Y-113812663D01*
X101075052Y-113914236D01*
X101046814Y-114032076D01*
X101041758Y-114165503D01*
X101047722Y-114234574D01*
X101059245Y-114304850D01*
X101075689Y-114376638D01*
X101093898Y-114436565D01*
X101097788Y-114446730D01*
X101132231Y-114532004D01*
X101040777Y-114560251D01*
X100992883Y-114573445D01*
X100955488Y-114580805D01*
X100936795Y-114580756D01*
X100925366Y-114562415D01*
X100910382Y-114522891D01*
X100893719Y-114468696D01*
X100877249Y-114406343D01*
X100862849Y-114342343D01*
X100853745Y-114292223D01*
X100842626Y-114179619D01*
X100842047Y-114061384D01*
X100851786Y-113950304D01*
X100860550Y-113901003D01*
X100894496Y-113794261D01*
X100947431Y-113688307D01*
X101013592Y-113593494D01*
X101059061Y-113544525D01*
X101145339Y-113477442D01*
X101250214Y-113419029D01*
X101364343Y-113373968D01*
X101439349Y-113353995D01*
X101524991Y-113341396D01*
X101627016Y-113334900D01*
X101734647Y-113334521D01*
X101837108Y-113340273D01*
X101923624Y-113352172D01*
X101929245Y-113353329D01*
X102067335Y-113395677D01*
X102193317Y-113460300D01*
X102304160Y-113544562D01*
X102396835Y-113645827D01*
X102468309Y-113761461D01*
X102505786Y-113854778D01*
X102533966Y-113982564D01*
X102543458Y-114121892D01*
X102534531Y-114263395D01*
G37*
X102534531Y-114263395D02*
X102507450Y-114397706D01*
X102488654Y-114455344D01*
X102466190Y-114513040D01*
X102447361Y-114547780D01*
X102426156Y-114563127D01*
X102396562Y-114562647D01*
X102352565Y-114549905D01*
X102337627Y-114544889D01*
X102289170Y-114526982D01*
X102263594Y-114512713D01*
X102256359Y-114499046D01*
X102258109Y-114491708D01*
X102310738Y-114342647D01*
X102339233Y-114207590D01*
X102343676Y-114086047D01*
X102336557Y-114028282D01*
X102301959Y-113907707D01*
X102245898Y-113805435D01*
X102168231Y-113721274D01*
X102068813Y-113655033D01*
X102047363Y-113644415D01*
X101950960Y-113606215D01*
X101852266Y-113583195D01*
X101741185Y-113573301D01*
X101694176Y-113572556D01*
X101540768Y-113582613D01*
X101406565Y-113612331D01*
X101292228Y-113661031D01*
X101198422Y-113728035D01*
X101125809Y-113812663D01*
X101075052Y-113914236D01*
X101046814Y-114032076D01*
X101041758Y-114165503D01*
X101047722Y-114234574D01*
X101059245Y-114304850D01*
X101075689Y-114376638D01*
X101093898Y-114436565D01*
X101097788Y-114446730D01*
X101132231Y-114532004D01*
X101040777Y-114560251D01*
X100992883Y-114573445D01*
X100955488Y-114580805D01*
X100936795Y-114580756D01*
X100925366Y-114562415D01*
X100910382Y-114522891D01*
X100893719Y-114468696D01*
X100877249Y-114406343D01*
X100862849Y-114342343D01*
X100853745Y-114292223D01*
X100842626Y-114179619D01*
X100842047Y-114061384D01*
X100851786Y-113950304D01*
X100860550Y-113901003D01*
X100894496Y-113794261D01*
X100947431Y-113688307D01*
X101013592Y-113593494D01*
X101059061Y-113544525D01*
X101145339Y-113477442D01*
X101250214Y-113419029D01*
X101364343Y-113373968D01*
X101439349Y-113353995D01*
X101524991Y-113341396D01*
X101627016Y-113334900D01*
X101734647Y-113334521D01*
X101837108Y-113340273D01*
X101923624Y-113352172D01*
X101929245Y-113353329D01*
X102067335Y-113395677D01*
X102193317Y-113460300D01*
X102304160Y-113544562D01*
X102396835Y-113645827D01*
X102468309Y-113761461D01*
X102505786Y-113854778D01*
X102533966Y-113982564D01*
X102543458Y-114121892D01*
X102534531Y-114263395D01*
G36*
X102114051Y-110730389D02*
G01*
X102076979Y-110845933D01*
X102016362Y-110947192D01*
X101933408Y-111032559D01*
X101829323Y-111100427D01*
X101718268Y-111145314D01*
X101639653Y-111162314D01*
X101545179Y-111171759D01*
X101445842Y-111173417D01*
X101352641Y-111167058D01*
X101283722Y-111154457D01*
X101159705Y-111108396D01*
X101053805Y-111042293D01*
X100967691Y-110957917D01*
X100903033Y-110857032D01*
X100861499Y-110741405D01*
X100852838Y-110698416D01*
X100844114Y-110639171D01*
X100841392Y-110594538D01*
X100845014Y-110551496D01*
X100855321Y-110497024D01*
X100858517Y-110482223D01*
X100897526Y-110365968D01*
X100959595Y-110264577D01*
X101042890Y-110179619D01*
X101145576Y-110112664D01*
X101265818Y-110065281D01*
X101372283Y-110042682D01*
X101503336Y-110034543D01*
X101503336Y-110264785D01*
X101399913Y-110268523D01*
X101306836Y-110283805D01*
X101288619Y-110288824D01*
X101198049Y-110329146D01*
X101125721Y-110387910D01*
X101073731Y-110461375D01*
X101044179Y-110545803D01*
X101039161Y-110637452D01*
X101052884Y-110709097D01*
X101090141Y-110785267D01*
X101151952Y-110850960D01*
X101231093Y-110901131D01*
X101267924Y-110918202D01*
X101300516Y-110929539D01*
X101336185Y-110936305D01*
X101382246Y-110939659D01*
X101446013Y-110940762D01*
X101481278Y-110940834D01*
X101567823Y-110939518D01*
X101633688Y-110934400D01*
X101686341Y-110923725D01*
X101733248Y-110905735D01*
X101781878Y-110878676D01*
X101803129Y-110865151D01*
X101865060Y-110808807D01*
X101909045Y-110735380D01*
X101932884Y-110651205D01*
X101934381Y-110562618D01*
X101924860Y-110514222D01*
X101890495Y-110440333D01*
X101833704Y-110374103D01*
X101760201Y-110321016D01*
X101692944Y-110291609D01*
X101605037Y-110272508D01*
X101503336Y-110264785D01*
X101503336Y-110034543D01*
X101514825Y-110033829D01*
X101647669Y-110047690D01*
X101768659Y-110082665D01*
X101875642Y-110137156D01*
X101966462Y-110209565D01*
X102038965Y-110298292D01*
X102090997Y-110401740D01*
X102120402Y-110518309D01*
X102126370Y-110602167D01*
X102114051Y-110730389D01*
G37*
X102114051Y-110730389D02*
X102076979Y-110845933D01*
X102016362Y-110947192D01*
X101933408Y-111032559D01*
X101829323Y-111100427D01*
X101718268Y-111145314D01*
X101639653Y-111162314D01*
X101545179Y-111171759D01*
X101445842Y-111173417D01*
X101352641Y-111167058D01*
X101283722Y-111154457D01*
X101159705Y-111108396D01*
X101053805Y-111042293D01*
X100967691Y-110957917D01*
X100903033Y-110857032D01*
X100861499Y-110741405D01*
X100852838Y-110698416D01*
X100844114Y-110639171D01*
X100841392Y-110594538D01*
X100845014Y-110551496D01*
X100855321Y-110497024D01*
X100858517Y-110482223D01*
X100897526Y-110365968D01*
X100959595Y-110264577D01*
X101042890Y-110179619D01*
X101145576Y-110112664D01*
X101265818Y-110065281D01*
X101372283Y-110042682D01*
X101503336Y-110034543D01*
X101503336Y-110264785D01*
X101399913Y-110268523D01*
X101306836Y-110283805D01*
X101288619Y-110288824D01*
X101198049Y-110329146D01*
X101125721Y-110387910D01*
X101073731Y-110461375D01*
X101044179Y-110545803D01*
X101039161Y-110637452D01*
X101052884Y-110709097D01*
X101090141Y-110785267D01*
X101151952Y-110850960D01*
X101231093Y-110901131D01*
X101267924Y-110918202D01*
X101300516Y-110929539D01*
X101336185Y-110936305D01*
X101382246Y-110939659D01*
X101446013Y-110940762D01*
X101481278Y-110940834D01*
X101567823Y-110939518D01*
X101633688Y-110934400D01*
X101686341Y-110923725D01*
X101733248Y-110905735D01*
X101781878Y-110878676D01*
X101803129Y-110865151D01*
X101865060Y-110808807D01*
X101909045Y-110735380D01*
X101932884Y-110651205D01*
X101934381Y-110562618D01*
X101924860Y-110514222D01*
X101890495Y-110440333D01*
X101833704Y-110374103D01*
X101760201Y-110321016D01*
X101692944Y-110291609D01*
X101605037Y-110272508D01*
X101503336Y-110264785D01*
X101503336Y-110034543D01*
X101514825Y-110033829D01*
X101647669Y-110047690D01*
X101768659Y-110082665D01*
X101875642Y-110137156D01*
X101966462Y-110209565D01*
X102038965Y-110298292D01*
X102090997Y-110401740D01*
X102120402Y-110518309D01*
X102126370Y-110602167D01*
X102114051Y-110730389D01*
G36*
X102541830Y-102791667D02*
G01*
X102521280Y-102937017D01*
X102478496Y-103066287D01*
X102412295Y-103182195D01*
X102329526Y-103279528D01*
X102219402Y-103370197D01*
X102092784Y-103438342D01*
X101949401Y-103484063D01*
X101788979Y-103507457D01*
X101692944Y-103510844D01*
X101522993Y-103499741D01*
X101370229Y-103466367D01*
X101234383Y-103410624D01*
X101115180Y-103332411D01*
X101056363Y-103279528D01*
X100993605Y-103210495D01*
X100945520Y-103140966D01*
X100905899Y-103060815D01*
X100878796Y-102989901D01*
X100860070Y-102915012D01*
X100848416Y-102823210D01*
X100844306Y-102725021D01*
X100848215Y-102630974D01*
X100859321Y-102557063D01*
X100904556Y-102417121D01*
X100972295Y-102294124D01*
X101062220Y-102188415D01*
X101174014Y-102100337D01*
X101307357Y-102030234D01*
X101370040Y-102006119D01*
X101416095Y-101990855D01*
X101456276Y-101980210D01*
X101497433Y-101973364D01*
X101546419Y-101969495D01*
X101610084Y-101967780D01*
X101692944Y-101967399D01*
X101754794Y-101967690D01*
X101754794Y-102201804D01*
X101621405Y-102202599D01*
X101493825Y-102221506D01*
X101375793Y-102257283D01*
X101271048Y-102308687D01*
X101183329Y-102374477D01*
X101116375Y-102453411D01*
X101098895Y-102483231D01*
X101063226Y-102577284D01*
X101045035Y-102684888D01*
X101045058Y-102796874D01*
X101064030Y-102904074D01*
X101064882Y-102907058D01*
X101103312Y-102992714D01*
X101165473Y-103073350D01*
X101246888Y-103144872D01*
X101343080Y-103203184D01*
X101425299Y-103236800D01*
X101495685Y-103252772D01*
X101584170Y-103262398D01*
X101682293Y-103265760D01*
X101781589Y-103262940D01*
X101873596Y-103254022D01*
X101949850Y-103239087D01*
X101974027Y-103231453D01*
X102094867Y-103175696D01*
X102191252Y-103105981D01*
X102263506Y-103021868D01*
X102311952Y-102922912D01*
X102336912Y-102808671D01*
X102340719Y-102728167D01*
X102327294Y-102605299D01*
X102289990Y-102497120D01*
X102229457Y-102404363D01*
X102146346Y-102327763D01*
X102041308Y-102268052D01*
X101914993Y-102225965D01*
X101890254Y-102220362D01*
X101754794Y-102201804D01*
X101754794Y-101967690D01*
X101777464Y-101967797D01*
X101840633Y-101969541D01*
X101889320Y-101973461D01*
X101930391Y-101980386D01*
X101970715Y-101991143D01*
X102016962Y-102006493D01*
X102158216Y-102069007D01*
X102279079Y-102150379D01*
X102378537Y-102249096D01*
X102455581Y-102363644D01*
X102509197Y-102492512D01*
X102538377Y-102634185D01*
X102542107Y-102787152D01*
X102541830Y-102791667D01*
G37*
X102541830Y-102791667D02*
X102521280Y-102937017D01*
X102478496Y-103066287D01*
X102412295Y-103182195D01*
X102329526Y-103279528D01*
X102219402Y-103370197D01*
X102092784Y-103438342D01*
X101949401Y-103484063D01*
X101788979Y-103507457D01*
X101692944Y-103510844D01*
X101522993Y-103499741D01*
X101370229Y-103466367D01*
X101234383Y-103410624D01*
X101115180Y-103332411D01*
X101056363Y-103279528D01*
X100993605Y-103210495D01*
X100945520Y-103140966D01*
X100905899Y-103060815D01*
X100878796Y-102989901D01*
X100860070Y-102915012D01*
X100848416Y-102823210D01*
X100844306Y-102725021D01*
X100848215Y-102630974D01*
X100859321Y-102557063D01*
X100904556Y-102417121D01*
X100972295Y-102294124D01*
X101062220Y-102188415D01*
X101174014Y-102100337D01*
X101307357Y-102030234D01*
X101370040Y-102006119D01*
X101416095Y-101990855D01*
X101456276Y-101980210D01*
X101497433Y-101973364D01*
X101546419Y-101969495D01*
X101610084Y-101967780D01*
X101692944Y-101967399D01*
X101754794Y-101967690D01*
X101754794Y-102201804D01*
X101621405Y-102202599D01*
X101493825Y-102221506D01*
X101375793Y-102257283D01*
X101271048Y-102308687D01*
X101183329Y-102374477D01*
X101116375Y-102453411D01*
X101098895Y-102483231D01*
X101063226Y-102577284D01*
X101045035Y-102684888D01*
X101045058Y-102796874D01*
X101064030Y-102904074D01*
X101064882Y-102907058D01*
X101103312Y-102992714D01*
X101165473Y-103073350D01*
X101246888Y-103144872D01*
X101343080Y-103203184D01*
X101425299Y-103236800D01*
X101495685Y-103252772D01*
X101584170Y-103262398D01*
X101682293Y-103265760D01*
X101781589Y-103262940D01*
X101873596Y-103254022D01*
X101949850Y-103239087D01*
X101974027Y-103231453D01*
X102094867Y-103175696D01*
X102191252Y-103105981D01*
X102263506Y-103021868D01*
X102311952Y-102922912D01*
X102336912Y-102808671D01*
X102340719Y-102728167D01*
X102327294Y-102605299D01*
X102289990Y-102497120D01*
X102229457Y-102404363D01*
X102146346Y-102327763D01*
X102041308Y-102268052D01*
X101914993Y-102225965D01*
X101890254Y-102220362D01*
X101754794Y-102201804D01*
X101754794Y-101967690D01*
X101777464Y-101967797D01*
X101840633Y-101969541D01*
X101889320Y-101973461D01*
X101930391Y-101980386D01*
X101970715Y-101991143D01*
X102016962Y-102006493D01*
X102158216Y-102069007D01*
X102279079Y-102150379D01*
X102378537Y-102249096D01*
X102455581Y-102363644D01*
X102509197Y-102492512D01*
X102538377Y-102634185D01*
X102542107Y-102787152D01*
X102541830Y-102791667D01*
M02*
