G04 #@! TF.GenerationSoftware,KiCad,Pcbnew,5.1.2*
G04 #@! TF.CreationDate,2019-05-22T21:34:43+02:00*
G04 #@! TF.ProjectId,TS100C,54533130-3043-42e6-9b69-6361645f7063,rev?*
G04 #@! TF.SameCoordinates,Original*
G04 #@! TF.FileFunction,Copper,L3,Inr*
G04 #@! TF.FilePolarity,Positive*
%FSLAX46Y46*%
G04 Gerber Fmt 4.6, Leading zero omitted, Abs format (unit mm)*
G04 Created by KiCad (PCBNEW 5.1.2) date 2019-05-22 21:34:43*
%MOMM*%
%LPD*%
G04 APERTURE LIST*
%ADD10C,0.150000*%
%ADD11O,2.100000X1.000000*%
%ADD12O,1.600000X1.000000*%
%ADD13R,5.000000X3.960000*%
%ADD14C,2.000000*%
%ADD15C,0.600000*%
%ADD16C,0.700000*%
%ADD17C,0.250000*%
%ADD18C,0.154000*%
%ADD19C,0.254000*%
G04 APERTURE END LIST*
D10*
X131000000Y-80500000D02*
X164000000Y-80500000D01*
X130000000Y-80000000D02*
X131000000Y-80500000D01*
X130000000Y-90000000D02*
X131000000Y-89500000D01*
X131000000Y-89500000D02*
X164000000Y-89500000D01*
X80000000Y-80000000D02*
X80000000Y-90000000D01*
X130000000Y-90000000D02*
X80000000Y-90000000D01*
X164000000Y-80500000D02*
X164000000Y-89500000D01*
X80000000Y-80000000D02*
X130000000Y-80000000D01*
D11*
X87085000Y-80670000D03*
X87085000Y-89310000D03*
D12*
X82905000Y-80670000D03*
X82905000Y-89310000D03*
D13*
X161000000Y-85000000D03*
D14*
X152000000Y-87400000D03*
X152000000Y-82600000D03*
D15*
X99260000Y-84690000D03*
X97830000Y-84670000D03*
D16*
X94070000Y-82520000D03*
D15*
X117900000Y-82200000D03*
X116300000Y-82200000D03*
X110350000Y-82700000D03*
X110350000Y-87300000D03*
X105750000Y-87300000D03*
X156504168Y-84150000D03*
X146450000Y-88400000D03*
X147200000Y-88400000D03*
X147950000Y-88400000D03*
X148700000Y-88400000D03*
X142300000Y-85050000D03*
X136950000Y-85300000D03*
X119875000Y-89300000D03*
X105755086Y-82731010D03*
X112750000Y-84800000D03*
X129500000Y-87000000D03*
D16*
X140650000Y-86775000D03*
X96240000Y-81310000D03*
D15*
X91129245Y-82604245D03*
X100210000Y-81340000D03*
X96220000Y-87560000D03*
X92870000Y-85010000D03*
X134060000Y-88280000D03*
D16*
X126750000Y-83470002D03*
D15*
X114800000Y-84099996D03*
X119825000Y-85525000D03*
D16*
X137300000Y-82170000D03*
X136500000Y-82170000D03*
X135700000Y-82170000D03*
X134900000Y-82170000D03*
X136500000Y-82930979D03*
X134900000Y-82930979D03*
X137300000Y-82930979D03*
D15*
X117900000Y-84900000D03*
X118586802Y-84887682D03*
D16*
X86710000Y-86960000D03*
X85860000Y-87140000D03*
X86650000Y-83050000D03*
X85910000Y-82730000D03*
X85910000Y-83590000D03*
X89350000Y-82800000D03*
X90200000Y-82750000D03*
X89340000Y-87300000D03*
X84140000Y-82710000D03*
X85040000Y-82710000D03*
X84140000Y-83610000D03*
X85040000Y-83610000D03*
X84140000Y-84510000D03*
X85040000Y-84510000D03*
X84140000Y-85410000D03*
X85040000Y-85410000D03*
X84140000Y-86310000D03*
X85040000Y-86310000D03*
X84140000Y-87210000D03*
X85040000Y-87210000D03*
D15*
X130860000Y-87900000D03*
D16*
X135700000Y-82930979D03*
D15*
X120650000Y-85625000D03*
X100440000Y-83210000D03*
X101490000Y-88320000D03*
X155200000Y-87400000D03*
X142262500Y-88900000D03*
X116925000Y-89050000D03*
X115550000Y-89175000D03*
X112075000Y-88500000D03*
X106850000Y-80837052D03*
X101700000Y-87450000D03*
D16*
X123314163Y-83964163D03*
X123400000Y-85675000D03*
D15*
X117000000Y-84950000D03*
D16*
X99070000Y-81330000D03*
D15*
X101640000Y-84160000D03*
D16*
X122575000Y-81713473D03*
X140300000Y-85174010D03*
X130640000Y-88840002D03*
D15*
X120355931Y-81248990D03*
X118970626Y-81248990D03*
X119671581Y-81248990D03*
X97330000Y-88320000D03*
X103240000Y-86100000D03*
X95290000Y-84090000D03*
X89820000Y-83810000D03*
X109800000Y-89350000D03*
X115600000Y-87264021D03*
X119650000Y-86600000D03*
X130269990Y-87430509D03*
X130123424Y-80653152D03*
X135010002Y-88310000D03*
X104680000Y-80850000D03*
X154800000Y-81650000D03*
X103360000Y-81210000D03*
X153850000Y-81029000D03*
X134534782Y-81029010D03*
X103596593Y-82935791D03*
D16*
X86810000Y-84730000D03*
X86320000Y-85890000D03*
D15*
X90710000Y-84525000D03*
X90334124Y-88535876D03*
X90710000Y-85475000D03*
X91005876Y-87864124D03*
X113237705Y-84176000D03*
X132080000Y-81350000D03*
X121290000Y-81231010D03*
X103630000Y-82150000D03*
D17*
X88910000Y-80870000D02*
X89305000Y-80475000D01*
X89305000Y-80475000D02*
X90425000Y-80475000D01*
X88910000Y-89130000D02*
X89380000Y-89130000D01*
X89380000Y-89130000D02*
X89650000Y-89400000D01*
X89650000Y-89400000D02*
X90300000Y-89400000D01*
D18*
X153100000Y-81600000D02*
X154650000Y-81600000D01*
X152750000Y-81250000D02*
X153100000Y-81600000D01*
X144050000Y-81250000D02*
X152750000Y-81250000D01*
X143739988Y-81560012D02*
X144050000Y-81250000D01*
X133525894Y-81560012D02*
X143739988Y-81560012D01*
X103360000Y-81160000D02*
X104213990Y-80306010D01*
X132784881Y-80818999D02*
X133525894Y-81560012D01*
X103360000Y-81210000D02*
X103360000Y-81160000D01*
X104213990Y-80306010D02*
X128970128Y-80306010D01*
X131825119Y-80818999D02*
X132784881Y-80818999D01*
X128970128Y-80306010D02*
X129853116Y-81188998D01*
X154650000Y-81600000D02*
X154800000Y-81750000D01*
X131455120Y-81188998D02*
X131825119Y-80818999D01*
X129853116Y-81188998D02*
X131455120Y-81188998D01*
X153850000Y-81029000D02*
X153425736Y-81029000D01*
X153425736Y-81029000D02*
X153246736Y-80850000D01*
X153246736Y-80850000D02*
X143900000Y-80850000D01*
X143720990Y-81029010D02*
X134959046Y-81029010D01*
X143900000Y-80850000D02*
X143720990Y-81029010D01*
X134959046Y-81029010D02*
X134534782Y-81029010D01*
X131910000Y-81520000D02*
X132080000Y-81350000D01*
X129724786Y-81520000D02*
X131910000Y-81520000D01*
X129337249Y-81132463D02*
X129724786Y-81520000D01*
X121410000Y-81290000D02*
X121567537Y-81132463D01*
X121567537Y-81132463D02*
X129337249Y-81132463D01*
X121410000Y-81290000D02*
X121348990Y-81290000D01*
X121348990Y-81290000D02*
X121290000Y-81231010D01*
X108040000Y-80650000D02*
X106540000Y-82150000D01*
X104054264Y-82150000D02*
X103630000Y-82150000D01*
X106540000Y-82150000D02*
X104054264Y-82150000D01*
X120770000Y-80650000D02*
X108040000Y-80650000D01*
X121410000Y-81290000D02*
X120770000Y-80650000D01*
D19*
G36*
X103343291Y-80529000D02*
G01*
X103292927Y-80529000D01*
X103161360Y-80555171D01*
X103037426Y-80606506D01*
X102925888Y-80681033D01*
X102831033Y-80775888D01*
X102756506Y-80887426D01*
X102705171Y-81011360D01*
X102679000Y-81142927D01*
X102679000Y-81277073D01*
X102705171Y-81408640D01*
X102756506Y-81532574D01*
X102831033Y-81644112D01*
X102925888Y-81738967D01*
X103036312Y-81812750D01*
X103026506Y-81827426D01*
X102975171Y-81951360D01*
X102949000Y-82082927D01*
X102949000Y-82217073D01*
X102975171Y-82348640D01*
X103026506Y-82472574D01*
X103056790Y-82517897D01*
X102993099Y-82613217D01*
X102941764Y-82737151D01*
X102915593Y-82868718D01*
X102915593Y-83002864D01*
X102941764Y-83134431D01*
X102993099Y-83258365D01*
X103067626Y-83369903D01*
X103162481Y-83464758D01*
X103274019Y-83539285D01*
X103397953Y-83590620D01*
X103529520Y-83616791D01*
X103663666Y-83616791D01*
X103795233Y-83590620D01*
X103919167Y-83539285D01*
X104030705Y-83464758D01*
X104125560Y-83369903D01*
X104200087Y-83258365D01*
X104251422Y-83134431D01*
X104277593Y-83002864D01*
X104277593Y-82868718D01*
X104251422Y-82737151D01*
X104200087Y-82613217D01*
X104196601Y-82608000D01*
X106517501Y-82608000D01*
X106540000Y-82610216D01*
X106562499Y-82608000D01*
X106629784Y-82601373D01*
X106716117Y-82575184D01*
X106795682Y-82532656D01*
X106865422Y-82475422D01*
X106879769Y-82457940D01*
X108229709Y-81108000D01*
X118304329Y-81108000D01*
X118289626Y-81181917D01*
X118289626Y-81316063D01*
X118315797Y-81447630D01*
X118367132Y-81571564D01*
X118441659Y-81683102D01*
X118536514Y-81777957D01*
X118648052Y-81852484D01*
X118771986Y-81903819D01*
X118903553Y-81929990D01*
X119037699Y-81929990D01*
X119169266Y-81903819D01*
X119293200Y-81852484D01*
X119321104Y-81833840D01*
X119349007Y-81852484D01*
X119472941Y-81903819D01*
X119604508Y-81929990D01*
X119738654Y-81929990D01*
X119870221Y-81903819D01*
X119994155Y-81852484D01*
X120013756Y-81839387D01*
X120033357Y-81852484D01*
X120157291Y-81903819D01*
X120288858Y-81929990D01*
X120423004Y-81929990D01*
X120554571Y-81903819D01*
X120678505Y-81852484D01*
X120790043Y-81777957D01*
X120831956Y-81736045D01*
X120855888Y-81759977D01*
X120967426Y-81834504D01*
X121091360Y-81885839D01*
X121222927Y-81912010D01*
X121357073Y-81912010D01*
X121488640Y-81885839D01*
X121612574Y-81834504D01*
X121724112Y-81759977D01*
X121818967Y-81665122D01*
X121847914Y-81621800D01*
X121844000Y-81641476D01*
X121844000Y-81785470D01*
X121872092Y-81926698D01*
X121927196Y-82059731D01*
X122007195Y-82179458D01*
X122109015Y-82281278D01*
X122228742Y-82361277D01*
X122361775Y-82416381D01*
X122503003Y-82444473D01*
X122646997Y-82444473D01*
X122788225Y-82416381D01*
X122921258Y-82361277D01*
X123040985Y-82281278D01*
X123142805Y-82179458D01*
X123222804Y-82059731D01*
X123277908Y-81926698D01*
X123306000Y-81785470D01*
X123306000Y-81641476D01*
X123295853Y-81590463D01*
X129147540Y-81590463D01*
X129385021Y-81827945D01*
X129399364Y-81845422D01*
X129469104Y-81902656D01*
X129548669Y-81945184D01*
X129608812Y-81963428D01*
X129635001Y-81971373D01*
X129724785Y-81980216D01*
X129747285Y-81978000D01*
X131816589Y-81978000D01*
X131881360Y-82004829D01*
X132012927Y-82031000D01*
X132147073Y-82031000D01*
X132278640Y-82004829D01*
X132402574Y-81953494D01*
X132514112Y-81878967D01*
X132608967Y-81784112D01*
X132683494Y-81672574D01*
X132734829Y-81548640D01*
X132756727Y-81438554D01*
X133186129Y-81867957D01*
X133200472Y-81885434D01*
X133254764Y-81929990D01*
X133270212Y-81942668D01*
X133349777Y-81985196D01*
X133436110Y-82011385D01*
X133525894Y-82020228D01*
X133548393Y-82018012D01*
X134184911Y-82018012D01*
X134169000Y-82098003D01*
X134169000Y-82241997D01*
X134197092Y-82383225D01*
X134252196Y-82516258D01*
X134275069Y-82550490D01*
X134252196Y-82584721D01*
X134197092Y-82717754D01*
X134169000Y-82858982D01*
X134169000Y-83002976D01*
X134197092Y-83144204D01*
X134252196Y-83277237D01*
X134332195Y-83396964D01*
X134434015Y-83498784D01*
X134553742Y-83578783D01*
X134686775Y-83633887D01*
X134828003Y-83661979D01*
X134971997Y-83661979D01*
X135113225Y-83633887D01*
X135246258Y-83578783D01*
X135300000Y-83542874D01*
X135353742Y-83578783D01*
X135486775Y-83633887D01*
X135628003Y-83661979D01*
X135771997Y-83661979D01*
X135913225Y-83633887D01*
X136046258Y-83578783D01*
X136100000Y-83542874D01*
X136153742Y-83578783D01*
X136286775Y-83633887D01*
X136428003Y-83661979D01*
X136571997Y-83661979D01*
X136713225Y-83633887D01*
X136846258Y-83578783D01*
X136900000Y-83542874D01*
X136953742Y-83578783D01*
X137086775Y-83633887D01*
X137228003Y-83661979D01*
X137371997Y-83661979D01*
X137513225Y-83633887D01*
X137646258Y-83578783D01*
X137765985Y-83498784D01*
X137867805Y-83396964D01*
X137947804Y-83277237D01*
X138002908Y-83144204D01*
X138031000Y-83002976D01*
X138031000Y-82858982D01*
X138002908Y-82717754D01*
X137947804Y-82584721D01*
X137924931Y-82550489D01*
X137947804Y-82516258D01*
X138002908Y-82383225D01*
X138031000Y-82241997D01*
X138031000Y-82098003D01*
X138015089Y-82018012D01*
X143717489Y-82018012D01*
X143739988Y-82020228D01*
X143762487Y-82018012D01*
X143829772Y-82011385D01*
X143916105Y-81985196D01*
X143995670Y-81942668D01*
X144065410Y-81885434D01*
X144079757Y-81867952D01*
X144239709Y-81708000D01*
X150938971Y-81708000D01*
X150927307Y-81719664D01*
X150776174Y-81945851D01*
X150672071Y-82197177D01*
X150619000Y-82463983D01*
X150619000Y-82736017D01*
X150672071Y-83002823D01*
X150776174Y-83254149D01*
X150927307Y-83480336D01*
X151119664Y-83672693D01*
X151345851Y-83823826D01*
X151597177Y-83927929D01*
X151863983Y-83981000D01*
X152136017Y-83981000D01*
X152402823Y-83927929D01*
X152654149Y-83823826D01*
X152880336Y-83672693D01*
X153072693Y-83480336D01*
X153223826Y-83254149D01*
X153320814Y-83020000D01*
X158117157Y-83020000D01*
X158119000Y-84031750D01*
X158214250Y-84127000D01*
X160127000Y-84127000D01*
X160127000Y-82734250D01*
X160031750Y-82639000D01*
X158500000Y-82637157D01*
X158425311Y-82644513D01*
X158353492Y-82666299D01*
X158287304Y-82701678D01*
X158229289Y-82749289D01*
X158181678Y-82807304D01*
X158146299Y-82873492D01*
X158124513Y-82945311D01*
X158117157Y-83020000D01*
X153320814Y-83020000D01*
X153327929Y-83002823D01*
X153381000Y-82736017D01*
X153381000Y-82463983D01*
X153327929Y-82197177D01*
X153270280Y-82058000D01*
X154253586Y-82058000D01*
X154271033Y-82084112D01*
X154365888Y-82178967D01*
X154477426Y-82253494D01*
X154601360Y-82304829D01*
X154732927Y-82331000D01*
X154867073Y-82331000D01*
X154998640Y-82304829D01*
X155122574Y-82253494D01*
X155234112Y-82178967D01*
X155328967Y-82084112D01*
X155403494Y-81972574D01*
X155454829Y-81848640D01*
X155481000Y-81717073D01*
X155481000Y-81582927D01*
X155454829Y-81451360D01*
X155403494Y-81327426D01*
X155328967Y-81215888D01*
X155234112Y-81121033D01*
X155122574Y-81046506D01*
X154998640Y-80995171D01*
X154867073Y-80969000D01*
X154732927Y-80969000D01*
X154601360Y-80995171D01*
X154531000Y-81024315D01*
X154531000Y-80961927D01*
X154529821Y-80956000D01*
X163544000Y-80956000D01*
X163544000Y-82641491D01*
X163500000Y-82637157D01*
X161968250Y-82639000D01*
X161873000Y-82734250D01*
X161873000Y-84127000D01*
X161893000Y-84127000D01*
X161893000Y-85873000D01*
X161873000Y-85873000D01*
X161873000Y-87265750D01*
X161968250Y-87361000D01*
X163500000Y-87362843D01*
X163544001Y-87358509D01*
X163544001Y-89044000D01*
X142928198Y-89044000D01*
X142943500Y-88967073D01*
X142943500Y-88832927D01*
X142917329Y-88701360D01*
X142865994Y-88577426D01*
X142791467Y-88465888D01*
X142696612Y-88371033D01*
X142585074Y-88296506D01*
X142461140Y-88245171D01*
X142329573Y-88219000D01*
X142195427Y-88219000D01*
X142063860Y-88245171D01*
X141939926Y-88296506D01*
X141828388Y-88371033D01*
X141733533Y-88465888D01*
X141659006Y-88577426D01*
X141607671Y-88701360D01*
X141581500Y-88832927D01*
X141581500Y-88967073D01*
X141596802Y-89044000D01*
X131344743Y-89044000D01*
X131371000Y-88911999D01*
X131371000Y-88768005D01*
X131342908Y-88626777D01*
X131287804Y-88493744D01*
X131259828Y-88451875D01*
X131294112Y-88428967D01*
X131388967Y-88334112D01*
X131449894Y-88242927D01*
X134329002Y-88242927D01*
X134329002Y-88377073D01*
X134355173Y-88508640D01*
X134406508Y-88632574D01*
X134481035Y-88744112D01*
X134575890Y-88838967D01*
X134687428Y-88913494D01*
X134811362Y-88964829D01*
X134942929Y-88991000D01*
X135077075Y-88991000D01*
X135208642Y-88964829D01*
X135332576Y-88913494D01*
X135444114Y-88838967D01*
X135538969Y-88744112D01*
X135613496Y-88632574D01*
X135664831Y-88508640D01*
X135691002Y-88377073D01*
X135691002Y-88242927D01*
X135664831Y-88111360D01*
X135613496Y-87987426D01*
X135538969Y-87875888D01*
X135444114Y-87781033D01*
X135332576Y-87706506D01*
X135208642Y-87655171D01*
X135077075Y-87629000D01*
X134942929Y-87629000D01*
X134811362Y-87655171D01*
X134687428Y-87706506D01*
X134575890Y-87781033D01*
X134481035Y-87875888D01*
X134406508Y-87987426D01*
X134355173Y-88111360D01*
X134329002Y-88242927D01*
X131449894Y-88242927D01*
X131463494Y-88222574D01*
X131514829Y-88098640D01*
X131541000Y-87967073D01*
X131541000Y-87832927D01*
X131514829Y-87701360D01*
X131463494Y-87577426D01*
X131388967Y-87465888D01*
X131294112Y-87371033D01*
X131182574Y-87296506D01*
X131104057Y-87263983D01*
X150619000Y-87263983D01*
X150619000Y-87536017D01*
X150672071Y-87802823D01*
X150776174Y-88054149D01*
X150927307Y-88280336D01*
X151119664Y-88472693D01*
X151345851Y-88623826D01*
X151597177Y-88727929D01*
X151863983Y-88781000D01*
X152136017Y-88781000D01*
X152402823Y-88727929D01*
X152654149Y-88623826D01*
X152880336Y-88472693D01*
X153072693Y-88280336D01*
X153223826Y-88054149D01*
X153327929Y-87802823D01*
X153381000Y-87536017D01*
X153381000Y-87332927D01*
X154519000Y-87332927D01*
X154519000Y-87467073D01*
X154545171Y-87598640D01*
X154596506Y-87722574D01*
X154671033Y-87834112D01*
X154765888Y-87928967D01*
X154877426Y-88003494D01*
X155001360Y-88054829D01*
X155132927Y-88081000D01*
X155267073Y-88081000D01*
X155398640Y-88054829D01*
X155522574Y-88003494D01*
X155634112Y-87928967D01*
X155728967Y-87834112D01*
X155803494Y-87722574D01*
X155854829Y-87598640D01*
X155881000Y-87467073D01*
X155881000Y-87332927D01*
X155854829Y-87201360D01*
X155803494Y-87077426D01*
X155738397Y-86980000D01*
X158117157Y-86980000D01*
X158124513Y-87054689D01*
X158146299Y-87126508D01*
X158181678Y-87192696D01*
X158229289Y-87250711D01*
X158287304Y-87298322D01*
X158353492Y-87333701D01*
X158425311Y-87355487D01*
X158500000Y-87362843D01*
X160031750Y-87361000D01*
X160127000Y-87265750D01*
X160127000Y-85873000D01*
X158214250Y-85873000D01*
X158119000Y-85968250D01*
X158117157Y-86980000D01*
X155738397Y-86980000D01*
X155728967Y-86965888D01*
X155634112Y-86871033D01*
X155522574Y-86796506D01*
X155398640Y-86745171D01*
X155267073Y-86719000D01*
X155132927Y-86719000D01*
X155001360Y-86745171D01*
X154877426Y-86796506D01*
X154765888Y-86871033D01*
X154671033Y-86965888D01*
X154596506Y-87077426D01*
X154545171Y-87201360D01*
X154519000Y-87332927D01*
X153381000Y-87332927D01*
X153381000Y-87263983D01*
X153327929Y-86997177D01*
X153223826Y-86745851D01*
X153072693Y-86519664D01*
X152880336Y-86327307D01*
X152654149Y-86176174D01*
X152402823Y-86072071D01*
X152136017Y-86019000D01*
X151863983Y-86019000D01*
X151597177Y-86072071D01*
X151345851Y-86176174D01*
X151119664Y-86327307D01*
X150927307Y-86519664D01*
X150776174Y-86745851D01*
X150672071Y-86997177D01*
X150619000Y-87263983D01*
X131104057Y-87263983D01*
X131058640Y-87245171D01*
X130927073Y-87219000D01*
X130919489Y-87219000D01*
X130873484Y-87107935D01*
X130798957Y-86996397D01*
X130704102Y-86901542D01*
X130592564Y-86827015D01*
X130468630Y-86775680D01*
X130337063Y-86749509D01*
X130202917Y-86749509D01*
X130071350Y-86775680D01*
X129947416Y-86827015D01*
X129835878Y-86901542D01*
X129741023Y-86996397D01*
X129666496Y-87107935D01*
X129615161Y-87231869D01*
X129588990Y-87363436D01*
X129588990Y-87497582D01*
X129615161Y-87629149D01*
X129666496Y-87753083D01*
X129741023Y-87864621D01*
X129835878Y-87959476D01*
X129947416Y-88034003D01*
X130071350Y-88085338D01*
X130202917Y-88111509D01*
X130210501Y-88111509D01*
X130254723Y-88218270D01*
X130174015Y-88272197D01*
X130072195Y-88374017D01*
X129992196Y-88493744D01*
X129937092Y-88626777D01*
X129909000Y-88768005D01*
X129909000Y-88911999D01*
X129937092Y-89053227D01*
X129992196Y-89186260D01*
X130072195Y-89305987D01*
X130170924Y-89404716D01*
X129892355Y-89544000D01*
X122246360Y-89544000D01*
X122339316Y-89404881D01*
X122405182Y-89245866D01*
X122438760Y-89077058D01*
X122438760Y-88904942D01*
X122405182Y-88736134D01*
X122339316Y-88577119D01*
X122243694Y-88434010D01*
X122121990Y-88312306D01*
X121978881Y-88216684D01*
X121819866Y-88150818D01*
X121651058Y-88117240D01*
X121478942Y-88117240D01*
X121310134Y-88150818D01*
X121151119Y-88216684D01*
X121008010Y-88312306D01*
X120886306Y-88434010D01*
X120790684Y-88577119D01*
X120724818Y-88736134D01*
X120691240Y-88904942D01*
X120691240Y-89077058D01*
X120724818Y-89245866D01*
X120790684Y-89404881D01*
X120883640Y-89544000D01*
X117394079Y-89544000D01*
X117453967Y-89484112D01*
X117528494Y-89372574D01*
X117579829Y-89248640D01*
X117606000Y-89117073D01*
X117606000Y-88982927D01*
X117579829Y-88851360D01*
X117528494Y-88727426D01*
X117453967Y-88615888D01*
X117359112Y-88521033D01*
X117247574Y-88446506D01*
X117227810Y-88438319D01*
X117260442Y-88389482D01*
X117326403Y-88230237D01*
X117360030Y-88061183D01*
X117360030Y-87888817D01*
X117326403Y-87719763D01*
X117260442Y-87560518D01*
X117164680Y-87417201D01*
X117042799Y-87295320D01*
X116899482Y-87199558D01*
X116740237Y-87133597D01*
X116571183Y-87099970D01*
X116398817Y-87099970D01*
X116266928Y-87126204D01*
X116254829Y-87065381D01*
X116203494Y-86941447D01*
X116128967Y-86829909D01*
X116034112Y-86735054D01*
X115922574Y-86660527D01*
X115798640Y-86609192D01*
X115667073Y-86583021D01*
X115532927Y-86583021D01*
X115401360Y-86609192D01*
X115277426Y-86660527D01*
X115165888Y-86735054D01*
X115071033Y-86829909D01*
X114996506Y-86941447D01*
X114945171Y-87065381D01*
X114919000Y-87196948D01*
X114919000Y-87331094D01*
X114945171Y-87462661D01*
X114996506Y-87586595D01*
X115071033Y-87698133D01*
X115165888Y-87792988D01*
X115277426Y-87867515D01*
X115401360Y-87918850D01*
X115532927Y-87945021D01*
X115609970Y-87945021D01*
X115609970Y-88061183D01*
X115643597Y-88230237D01*
X115709558Y-88389482D01*
X115805320Y-88532799D01*
X115823841Y-88551320D01*
X115748640Y-88520171D01*
X115617073Y-88494000D01*
X115482927Y-88494000D01*
X115351360Y-88520171D01*
X115227426Y-88571506D01*
X115115888Y-88646033D01*
X115021033Y-88740888D01*
X114946506Y-88852426D01*
X114895171Y-88976360D01*
X114869000Y-89107927D01*
X114869000Y-89242073D01*
X114895171Y-89373640D01*
X114946506Y-89497574D01*
X114977527Y-89544000D01*
X110455752Y-89544000D01*
X110481000Y-89417073D01*
X110481000Y-89282927D01*
X110454829Y-89151360D01*
X110403494Y-89027426D01*
X110328967Y-88915888D01*
X110234112Y-88821033D01*
X110122574Y-88746506D01*
X109998640Y-88695171D01*
X109867073Y-88669000D01*
X109732927Y-88669000D01*
X109601360Y-88695171D01*
X109477426Y-88746506D01*
X109365888Y-88821033D01*
X109271033Y-88915888D01*
X109196506Y-89027426D01*
X109145171Y-89151360D01*
X109119000Y-89282927D01*
X109119000Y-89417073D01*
X109144248Y-89544000D01*
X80456000Y-89544000D01*
X80456000Y-88816735D01*
X81875034Y-88816735D01*
X81913426Y-88937000D01*
X82232000Y-88937000D01*
X82232000Y-88680561D01*
X83578000Y-88680561D01*
X83578000Y-88937000D01*
X83896574Y-88937000D01*
X83934966Y-88816735D01*
X85805034Y-88816735D01*
X85843426Y-88937000D01*
X86212000Y-88937000D01*
X86212000Y-88702243D01*
X87958000Y-88702243D01*
X87958000Y-88937000D01*
X88326574Y-88937000D01*
X88364966Y-88816735D01*
X88181359Y-88762241D01*
X88063998Y-88666177D01*
X87958000Y-88702243D01*
X86212000Y-88702243D01*
X86106002Y-88666177D01*
X85988641Y-88762241D01*
X85805034Y-88816735D01*
X83934966Y-88816735D01*
X83805773Y-88759205D01*
X83686774Y-88652583D01*
X83578000Y-88680561D01*
X82232000Y-88680561D01*
X82123226Y-88652583D01*
X82004227Y-88759205D01*
X81875034Y-88816735D01*
X80456000Y-88816735D01*
X80456000Y-82638003D01*
X83409000Y-82638003D01*
X83409000Y-82781997D01*
X83437092Y-82923225D01*
X83492196Y-83056258D01*
X83561514Y-83160000D01*
X83492196Y-83263742D01*
X83437092Y-83396775D01*
X83409000Y-83538003D01*
X83409000Y-83681997D01*
X83437092Y-83823225D01*
X83492196Y-83956258D01*
X83561514Y-84060000D01*
X83492196Y-84163742D01*
X83437092Y-84296775D01*
X83409000Y-84438003D01*
X83409000Y-84581997D01*
X83437092Y-84723225D01*
X83492196Y-84856258D01*
X83561514Y-84960000D01*
X83492196Y-85063742D01*
X83437092Y-85196775D01*
X83409000Y-85338003D01*
X83409000Y-85481997D01*
X83437092Y-85623225D01*
X83492196Y-85756258D01*
X83561514Y-85860000D01*
X83492196Y-85963742D01*
X83437092Y-86096775D01*
X83409000Y-86238003D01*
X83409000Y-86381997D01*
X83437092Y-86523225D01*
X83492196Y-86656258D01*
X83561514Y-86760000D01*
X83492196Y-86863742D01*
X83437092Y-86996775D01*
X83409000Y-87138003D01*
X83409000Y-87281997D01*
X83437092Y-87423225D01*
X83492196Y-87556258D01*
X83572195Y-87675985D01*
X83674015Y-87777805D01*
X83793742Y-87857804D01*
X83926775Y-87912908D01*
X84068003Y-87941000D01*
X84211997Y-87941000D01*
X84353225Y-87912908D01*
X84486258Y-87857804D01*
X84590000Y-87788486D01*
X84693742Y-87857804D01*
X84826775Y-87912908D01*
X84968003Y-87941000D01*
X85111997Y-87941000D01*
X85253225Y-87912908D01*
X85386258Y-87857804D01*
X85502381Y-87780213D01*
X85513742Y-87787804D01*
X85646775Y-87842908D01*
X85788003Y-87871000D01*
X85849000Y-87871000D01*
X85849000Y-87949535D01*
X85876131Y-88085933D01*
X85929351Y-88214416D01*
X86006614Y-88330049D01*
X86104951Y-88428386D01*
X86220584Y-88505649D01*
X86349067Y-88558869D01*
X86485465Y-88586000D01*
X86624535Y-88586000D01*
X86760933Y-88558869D01*
X86889416Y-88505649D01*
X86944560Y-88468803D01*
X89653124Y-88468803D01*
X89653124Y-88602949D01*
X89679295Y-88734516D01*
X89730630Y-88858450D01*
X89805157Y-88969988D01*
X89900012Y-89064843D01*
X90011550Y-89139370D01*
X90135484Y-89190705D01*
X90267051Y-89216876D01*
X90401197Y-89216876D01*
X90532764Y-89190705D01*
X90656698Y-89139370D01*
X90768236Y-89064843D01*
X90863091Y-88969988D01*
X90937618Y-88858450D01*
X90988953Y-88734516D01*
X91015124Y-88602949D01*
X91015124Y-88545124D01*
X91072949Y-88545124D01*
X91204516Y-88518953D01*
X91328450Y-88467618D01*
X91439988Y-88393091D01*
X91534843Y-88298236D01*
X91565117Y-88252927D01*
X96649000Y-88252927D01*
X96649000Y-88387073D01*
X96675171Y-88518640D01*
X96726506Y-88642574D01*
X96801033Y-88754112D01*
X96895888Y-88848967D01*
X97007426Y-88923494D01*
X97131360Y-88974829D01*
X97262927Y-89001000D01*
X97397073Y-89001000D01*
X97528640Y-88974829D01*
X97652574Y-88923494D01*
X97764112Y-88848967D01*
X97858967Y-88754112D01*
X97933494Y-88642574D01*
X97984829Y-88518640D01*
X98011000Y-88387073D01*
X98011000Y-88252927D01*
X100809000Y-88252927D01*
X100809000Y-88387073D01*
X100835171Y-88518640D01*
X100886506Y-88642574D01*
X100961033Y-88754112D01*
X101055888Y-88848967D01*
X101167426Y-88923494D01*
X101291360Y-88974829D01*
X101422927Y-89001000D01*
X101557073Y-89001000D01*
X101688640Y-88974829D01*
X101812574Y-88923494D01*
X101924112Y-88848967D01*
X102018967Y-88754112D01*
X102093494Y-88642574D01*
X102144829Y-88518640D01*
X102161878Y-88432927D01*
X111394000Y-88432927D01*
X111394000Y-88567073D01*
X111420171Y-88698640D01*
X111471506Y-88822574D01*
X111546033Y-88934112D01*
X111640888Y-89028967D01*
X111752426Y-89103494D01*
X111876360Y-89154829D01*
X112007927Y-89181000D01*
X112142073Y-89181000D01*
X112273640Y-89154829D01*
X112397574Y-89103494D01*
X112509112Y-89028967D01*
X112603967Y-88934112D01*
X112678494Y-88822574D01*
X112729829Y-88698640D01*
X112756000Y-88567073D01*
X112756000Y-88432927D01*
X112729829Y-88301360D01*
X112678494Y-88177426D01*
X112603967Y-88065888D01*
X112509112Y-87971033D01*
X112397574Y-87896506D01*
X112273640Y-87845171D01*
X112142073Y-87819000D01*
X112007927Y-87819000D01*
X111876360Y-87845171D01*
X111752426Y-87896506D01*
X111640888Y-87971033D01*
X111546033Y-88065888D01*
X111471506Y-88177426D01*
X111420171Y-88301360D01*
X111394000Y-88432927D01*
X102161878Y-88432927D01*
X102171000Y-88387073D01*
X102171000Y-88252927D01*
X102144829Y-88121360D01*
X102096310Y-88004225D01*
X102134112Y-87978967D01*
X102228967Y-87884112D01*
X102303494Y-87772574D01*
X102354829Y-87648640D01*
X102381000Y-87517073D01*
X102381000Y-87382927D01*
X102354829Y-87251360D01*
X102303494Y-87127426D01*
X102228967Y-87015888D01*
X102134112Y-86921033D01*
X102022574Y-86846506D01*
X101898640Y-86795171D01*
X101767073Y-86769000D01*
X101632927Y-86769000D01*
X101501360Y-86795171D01*
X101377426Y-86846506D01*
X101265888Y-86921033D01*
X101171033Y-87015888D01*
X101096506Y-87127426D01*
X101045171Y-87251360D01*
X101019000Y-87382927D01*
X101019000Y-87517073D01*
X101045171Y-87648640D01*
X101093690Y-87765775D01*
X101055888Y-87791033D01*
X100961033Y-87885888D01*
X100886506Y-87997426D01*
X100835171Y-88121360D01*
X100809000Y-88252927D01*
X98011000Y-88252927D01*
X97984829Y-88121360D01*
X97933494Y-87997426D01*
X97858967Y-87885888D01*
X97764112Y-87791033D01*
X97652574Y-87716506D01*
X97528640Y-87665171D01*
X97397073Y-87639000D01*
X97262927Y-87639000D01*
X97131360Y-87665171D01*
X97007426Y-87716506D01*
X96895888Y-87791033D01*
X96801033Y-87885888D01*
X96726506Y-87997426D01*
X96675171Y-88121360D01*
X96649000Y-88252927D01*
X91565117Y-88252927D01*
X91609370Y-88186698D01*
X91660705Y-88062764D01*
X91686876Y-87931197D01*
X91686876Y-87797051D01*
X91660705Y-87665484D01*
X91609370Y-87541550D01*
X91534843Y-87430012D01*
X91439988Y-87335157D01*
X91328450Y-87260630D01*
X91204516Y-87209295D01*
X91072949Y-87183124D01*
X90938803Y-87183124D01*
X90807236Y-87209295D01*
X90683302Y-87260630D01*
X90571764Y-87335157D01*
X90476909Y-87430012D01*
X90402382Y-87541550D01*
X90351047Y-87665484D01*
X90324876Y-87797051D01*
X90324876Y-87854876D01*
X90267051Y-87854876D01*
X90135484Y-87881047D01*
X90011550Y-87932382D01*
X89900012Y-88006909D01*
X89805157Y-88101764D01*
X89730630Y-88213302D01*
X89679295Y-88337236D01*
X89653124Y-88468803D01*
X86944560Y-88468803D01*
X87005049Y-88428386D01*
X87103386Y-88330049D01*
X87180649Y-88214416D01*
X87233869Y-88085933D01*
X87261000Y-87949535D01*
X87261000Y-87810465D01*
X87233869Y-87674067D01*
X87180649Y-87545584D01*
X87170997Y-87531138D01*
X87175985Y-87527805D01*
X87277805Y-87425985D01*
X87357804Y-87306258D01*
X87390218Y-87228003D01*
X88609000Y-87228003D01*
X88609000Y-87371997D01*
X88637092Y-87513225D01*
X88692196Y-87646258D01*
X88772195Y-87765985D01*
X88874015Y-87867805D01*
X88993742Y-87947804D01*
X89126775Y-88002908D01*
X89268003Y-88031000D01*
X89411997Y-88031000D01*
X89553225Y-88002908D01*
X89686258Y-87947804D01*
X89805985Y-87867805D01*
X89907805Y-87765985D01*
X89987804Y-87646258D01*
X90042908Y-87513225D01*
X90071000Y-87371997D01*
X90071000Y-87228003D01*
X90042908Y-87086775D01*
X89987804Y-86953742D01*
X89907805Y-86834015D01*
X89805985Y-86732195D01*
X89686258Y-86652196D01*
X89553225Y-86597092D01*
X89411997Y-86569000D01*
X89268003Y-86569000D01*
X89126775Y-86597092D01*
X88993742Y-86652196D01*
X88874015Y-86732195D01*
X88772195Y-86834015D01*
X88692196Y-86953742D01*
X88637092Y-87086775D01*
X88609000Y-87228003D01*
X87390218Y-87228003D01*
X87412908Y-87173225D01*
X87441000Y-87031997D01*
X87441000Y-86888003D01*
X87412908Y-86746775D01*
X87357804Y-86613742D01*
X87277805Y-86494015D01*
X87175985Y-86392195D01*
X87056258Y-86312196D01*
X86947237Y-86267038D01*
X86967804Y-86236258D01*
X87022908Y-86103225D01*
X87051000Y-85961997D01*
X87051000Y-85818003D01*
X87022908Y-85676775D01*
X86967804Y-85543742D01*
X86908937Y-85455641D01*
X87023225Y-85432908D01*
X87156258Y-85377804D01*
X87275985Y-85297805D01*
X87377805Y-85195985D01*
X87457804Y-85076258D01*
X87512908Y-84943225D01*
X87541000Y-84801997D01*
X87541000Y-84658003D01*
X87512908Y-84516775D01*
X87457804Y-84383742D01*
X87377805Y-84264015D01*
X87275985Y-84162195D01*
X87156258Y-84082196D01*
X87023225Y-84027092D01*
X86881997Y-83999000D01*
X86738003Y-83999000D01*
X86596775Y-84027092D01*
X86463742Y-84082196D01*
X86427132Y-84106658D01*
X86477805Y-84055985D01*
X86557804Y-83936258D01*
X86612908Y-83803225D01*
X86617329Y-83781000D01*
X86721997Y-83781000D01*
X86863225Y-83752908D01*
X86996258Y-83697804D01*
X87115985Y-83617805D01*
X87217805Y-83515985D01*
X87297804Y-83396258D01*
X87352908Y-83263225D01*
X87381000Y-83121997D01*
X87381000Y-82978003D01*
X87352908Y-82836775D01*
X87307854Y-82728003D01*
X88619000Y-82728003D01*
X88619000Y-82871997D01*
X88647092Y-83013225D01*
X88702196Y-83146258D01*
X88782195Y-83265985D01*
X88884015Y-83367805D01*
X89003742Y-83447804D01*
X89136775Y-83502908D01*
X89204512Y-83516382D01*
X89165171Y-83611360D01*
X89139000Y-83742927D01*
X89139000Y-83877073D01*
X89165171Y-84008640D01*
X89216506Y-84132574D01*
X89291033Y-84244112D01*
X89385888Y-84338967D01*
X89497426Y-84413494D01*
X89621360Y-84464829D01*
X89752927Y-84491000D01*
X89887073Y-84491000D01*
X90018640Y-84464829D01*
X90029000Y-84460538D01*
X90029000Y-84592073D01*
X90055171Y-84723640D01*
X90106506Y-84847574D01*
X90181033Y-84959112D01*
X90221921Y-85000000D01*
X90181033Y-85040888D01*
X90106506Y-85152426D01*
X90055171Y-85276360D01*
X90029000Y-85407927D01*
X90029000Y-85542073D01*
X90055171Y-85673640D01*
X90106506Y-85797574D01*
X90181033Y-85909112D01*
X90275888Y-86003967D01*
X90387426Y-86078494D01*
X90511360Y-86129829D01*
X90642927Y-86156000D01*
X90777073Y-86156000D01*
X90908640Y-86129829D01*
X91032574Y-86078494D01*
X91100770Y-86032927D01*
X102559000Y-86032927D01*
X102559000Y-86167073D01*
X102585171Y-86298640D01*
X102636506Y-86422574D01*
X102711033Y-86534112D01*
X102805888Y-86628967D01*
X102917426Y-86703494D01*
X103041360Y-86754829D01*
X103172927Y-86781000D01*
X103307073Y-86781000D01*
X103438640Y-86754829D01*
X103562574Y-86703494D01*
X103674112Y-86628967D01*
X103768967Y-86534112D01*
X103769758Y-86532927D01*
X118969000Y-86532927D01*
X118969000Y-86667073D01*
X118995171Y-86798640D01*
X119046506Y-86922574D01*
X119121033Y-87034112D01*
X119215888Y-87128967D01*
X119327426Y-87203494D01*
X119451360Y-87254829D01*
X119582927Y-87281000D01*
X119717073Y-87281000D01*
X119848640Y-87254829D01*
X119972574Y-87203494D01*
X120084112Y-87128967D01*
X120178967Y-87034112D01*
X120253494Y-86922574D01*
X120274052Y-86872942D01*
X120691240Y-86872942D01*
X120691240Y-87045058D01*
X120724818Y-87213866D01*
X120790684Y-87372881D01*
X120886306Y-87515990D01*
X121008010Y-87637694D01*
X121151119Y-87733316D01*
X121310134Y-87799182D01*
X121478942Y-87832760D01*
X121651058Y-87832760D01*
X121819866Y-87799182D01*
X121978881Y-87733316D01*
X122121990Y-87637694D01*
X122243694Y-87515990D01*
X122339316Y-87372881D01*
X122405182Y-87213866D01*
X122438760Y-87045058D01*
X122438760Y-86872942D01*
X122405182Y-86704134D01*
X122339316Y-86545119D01*
X122243694Y-86402010D01*
X122121990Y-86280306D01*
X121978881Y-86184684D01*
X121819866Y-86118818D01*
X121651058Y-86085240D01*
X121478942Y-86085240D01*
X121310134Y-86118818D01*
X121151119Y-86184684D01*
X121008010Y-86280306D01*
X120886306Y-86402010D01*
X120790684Y-86545119D01*
X120724818Y-86704134D01*
X120691240Y-86872942D01*
X120274052Y-86872942D01*
X120304829Y-86798640D01*
X120331000Y-86667073D01*
X120331000Y-86532927D01*
X120304829Y-86401360D01*
X120253494Y-86277426D01*
X120178967Y-86165888D01*
X120143331Y-86130252D01*
X120147574Y-86128494D01*
X120173255Y-86111334D01*
X120215888Y-86153967D01*
X120327426Y-86228494D01*
X120451360Y-86279829D01*
X120582927Y-86306000D01*
X120717073Y-86306000D01*
X120848640Y-86279829D01*
X120972574Y-86228494D01*
X121084112Y-86153967D01*
X121178967Y-86059112D01*
X121253494Y-85947574D01*
X121304829Y-85823640D01*
X121331000Y-85692073D01*
X121331000Y-85603003D01*
X122669000Y-85603003D01*
X122669000Y-85746997D01*
X122697092Y-85888225D01*
X122752196Y-86021258D01*
X122832195Y-86140985D01*
X122934015Y-86242805D01*
X123053742Y-86322804D01*
X123186775Y-86377908D01*
X123328003Y-86406000D01*
X123471997Y-86406000D01*
X123613225Y-86377908D01*
X123746258Y-86322804D01*
X123865985Y-86242805D01*
X123967805Y-86140985D01*
X124047804Y-86021258D01*
X124102908Y-85888225D01*
X124131000Y-85746997D01*
X124131000Y-85603003D01*
X124102908Y-85461775D01*
X124047804Y-85328742D01*
X123967805Y-85209015D01*
X123865985Y-85107195D01*
X123858230Y-85102013D01*
X139569000Y-85102013D01*
X139569000Y-85246007D01*
X139597092Y-85387235D01*
X139652196Y-85520268D01*
X139732195Y-85639995D01*
X139834015Y-85741815D01*
X139953742Y-85821814D01*
X140086775Y-85876918D01*
X140228003Y-85905010D01*
X140371997Y-85905010D01*
X140513225Y-85876918D01*
X140646258Y-85821814D01*
X140765985Y-85741815D01*
X140867805Y-85639995D01*
X140947804Y-85520268D01*
X141002908Y-85387235D01*
X141031000Y-85246007D01*
X141031000Y-85102013D01*
X141002908Y-84960785D01*
X140947804Y-84827752D01*
X140867805Y-84708025D01*
X140765985Y-84606205D01*
X140646258Y-84526206D01*
X140513225Y-84471102D01*
X140371997Y-84443010D01*
X140228003Y-84443010D01*
X140086775Y-84471102D01*
X139953742Y-84526206D01*
X139834015Y-84606205D01*
X139732195Y-84708025D01*
X139652196Y-84827752D01*
X139597092Y-84960785D01*
X139569000Y-85102013D01*
X123858230Y-85102013D01*
X123746258Y-85027196D01*
X123613225Y-84972092D01*
X123471997Y-84944000D01*
X123328003Y-84944000D01*
X123186775Y-84972092D01*
X123053742Y-85027196D01*
X122934015Y-85107195D01*
X122832195Y-85209015D01*
X122752196Y-85328742D01*
X122697092Y-85461775D01*
X122669000Y-85603003D01*
X121331000Y-85603003D01*
X121331000Y-85557927D01*
X121304829Y-85426360D01*
X121253494Y-85302426D01*
X121178967Y-85190888D01*
X121084112Y-85096033D01*
X120972574Y-85021506D01*
X120848640Y-84970171D01*
X120717073Y-84944000D01*
X120582927Y-84944000D01*
X120451360Y-84970171D01*
X120327426Y-85021506D01*
X120301745Y-85038666D01*
X120259112Y-84996033D01*
X120147574Y-84921506D01*
X120023640Y-84870171D01*
X119892073Y-84844000D01*
X119757927Y-84844000D01*
X119626360Y-84870171D01*
X119502426Y-84921506D01*
X119390888Y-84996033D01*
X119296033Y-85090888D01*
X119221506Y-85202426D01*
X119170171Y-85326360D01*
X119144000Y-85457927D01*
X119144000Y-85592073D01*
X119170171Y-85723640D01*
X119221506Y-85847574D01*
X119296033Y-85959112D01*
X119331669Y-85994748D01*
X119327426Y-85996506D01*
X119215888Y-86071033D01*
X119121033Y-86165888D01*
X119046506Y-86277426D01*
X118995171Y-86401360D01*
X118969000Y-86532927D01*
X103769758Y-86532927D01*
X103843494Y-86422574D01*
X103894829Y-86298640D01*
X103921000Y-86167073D01*
X103921000Y-86032927D01*
X103894829Y-85901360D01*
X103843494Y-85777426D01*
X103768967Y-85665888D01*
X103674112Y-85571033D01*
X103562574Y-85496506D01*
X103438640Y-85445171D01*
X103307073Y-85419000D01*
X103172927Y-85419000D01*
X103041360Y-85445171D01*
X102917426Y-85496506D01*
X102805888Y-85571033D01*
X102711033Y-85665888D01*
X102636506Y-85777426D01*
X102585171Y-85901360D01*
X102559000Y-86032927D01*
X91100770Y-86032927D01*
X91144112Y-86003967D01*
X91238967Y-85909112D01*
X91313494Y-85797574D01*
X91364829Y-85673640D01*
X91391000Y-85542073D01*
X91391000Y-85407927D01*
X91364829Y-85276360D01*
X91313494Y-85152426D01*
X91238967Y-85040888D01*
X91198079Y-85000000D01*
X91238967Y-84959112D01*
X91289871Y-84882927D01*
X116319000Y-84882927D01*
X116319000Y-85017073D01*
X116345171Y-85148640D01*
X116396506Y-85272574D01*
X116471033Y-85384112D01*
X116565888Y-85478967D01*
X116677426Y-85553494D01*
X116801360Y-85604829D01*
X116932927Y-85631000D01*
X117067073Y-85631000D01*
X117198640Y-85604829D01*
X117322574Y-85553494D01*
X117434112Y-85478967D01*
X117476813Y-85436266D01*
X117577426Y-85503494D01*
X117701360Y-85554829D01*
X117832927Y-85581000D01*
X117967073Y-85581000D01*
X118098640Y-85554829D01*
X118222574Y-85503494D01*
X118252619Y-85483419D01*
X118264228Y-85491176D01*
X118388162Y-85542511D01*
X118519729Y-85568682D01*
X118653875Y-85568682D01*
X118785442Y-85542511D01*
X118909376Y-85491176D01*
X119020914Y-85416649D01*
X119115769Y-85321794D01*
X119190296Y-85210256D01*
X119241631Y-85086322D01*
X119267802Y-84954755D01*
X119267802Y-84820609D01*
X119241631Y-84689042D01*
X119190296Y-84565108D01*
X119115769Y-84453570D01*
X119020914Y-84358715D01*
X118909376Y-84284188D01*
X118785442Y-84232853D01*
X118653875Y-84206682D01*
X118519729Y-84206682D01*
X118388162Y-84232853D01*
X118264228Y-84284188D01*
X118234183Y-84304263D01*
X118222574Y-84296506D01*
X118098640Y-84245171D01*
X117967073Y-84219000D01*
X117832927Y-84219000D01*
X117701360Y-84245171D01*
X117577426Y-84296506D01*
X117465888Y-84371033D01*
X117423187Y-84413734D01*
X117322574Y-84346506D01*
X117198640Y-84295171D01*
X117067073Y-84269000D01*
X116932927Y-84269000D01*
X116801360Y-84295171D01*
X116677426Y-84346506D01*
X116565888Y-84421033D01*
X116471033Y-84515888D01*
X116396506Y-84627426D01*
X116345171Y-84751360D01*
X116319000Y-84882927D01*
X91289871Y-84882927D01*
X91313494Y-84847574D01*
X91364829Y-84723640D01*
X91391000Y-84592073D01*
X91391000Y-84457927D01*
X91364829Y-84326360D01*
X91313494Y-84202426D01*
X91238967Y-84090888D01*
X91171006Y-84022927D01*
X94609000Y-84022927D01*
X94609000Y-84157073D01*
X94635171Y-84288640D01*
X94686506Y-84412574D01*
X94761033Y-84524112D01*
X94855888Y-84618967D01*
X94967426Y-84693494D01*
X95091360Y-84744829D01*
X95222927Y-84771000D01*
X95357073Y-84771000D01*
X95488640Y-84744829D01*
X95612574Y-84693494D01*
X95724112Y-84618967D01*
X95818967Y-84524112D01*
X95893494Y-84412574D01*
X95944829Y-84288640D01*
X95971000Y-84157073D01*
X95971000Y-84092927D01*
X100959000Y-84092927D01*
X100959000Y-84227073D01*
X100985171Y-84358640D01*
X101036506Y-84482574D01*
X101111033Y-84594112D01*
X101205888Y-84688967D01*
X101317426Y-84763494D01*
X101441360Y-84814829D01*
X101572927Y-84841000D01*
X101707073Y-84841000D01*
X101838640Y-84814829D01*
X101962574Y-84763494D01*
X102074112Y-84688967D01*
X102168967Y-84594112D01*
X102243494Y-84482574D01*
X102294829Y-84358640D01*
X102321000Y-84227073D01*
X102321000Y-84108927D01*
X112556705Y-84108927D01*
X112556705Y-84243073D01*
X112582876Y-84374640D01*
X112634211Y-84498574D01*
X112708738Y-84610112D01*
X112803593Y-84704967D01*
X112915131Y-84779494D01*
X113039065Y-84830829D01*
X113170632Y-84857000D01*
X113304778Y-84857000D01*
X113436345Y-84830829D01*
X113560279Y-84779494D01*
X113671817Y-84704967D01*
X113766672Y-84610112D01*
X113841199Y-84498574D01*
X113892534Y-84374640D01*
X113918705Y-84243073D01*
X113918705Y-84108927D01*
X113903587Y-84032923D01*
X114119000Y-84032923D01*
X114119000Y-84167069D01*
X114145171Y-84298636D01*
X114196506Y-84422570D01*
X114271033Y-84534108D01*
X114365888Y-84628963D01*
X114477426Y-84703490D01*
X114601360Y-84754825D01*
X114732927Y-84780996D01*
X114867073Y-84780996D01*
X114998640Y-84754825D01*
X115122574Y-84703490D01*
X115234112Y-84628963D01*
X115328967Y-84534108D01*
X115403494Y-84422570D01*
X115454829Y-84298636D01*
X115481000Y-84167069D01*
X115481000Y-84032923D01*
X115454829Y-83901356D01*
X115451023Y-83892166D01*
X122583163Y-83892166D01*
X122583163Y-84036160D01*
X122611255Y-84177388D01*
X122666359Y-84310421D01*
X122746358Y-84430148D01*
X122848178Y-84531968D01*
X122967905Y-84611967D01*
X123100938Y-84667071D01*
X123242166Y-84695163D01*
X123386160Y-84695163D01*
X123527388Y-84667071D01*
X123660421Y-84611967D01*
X123780148Y-84531968D01*
X123881968Y-84430148D01*
X123961967Y-84310421D01*
X124017071Y-84177388D01*
X124045163Y-84036160D01*
X124045163Y-83892166D01*
X124017071Y-83750938D01*
X123961967Y-83617905D01*
X123881968Y-83498178D01*
X123780148Y-83396358D01*
X123660421Y-83316359D01*
X123527388Y-83261255D01*
X123386160Y-83233163D01*
X123242166Y-83233163D01*
X123100938Y-83261255D01*
X122967905Y-83316359D01*
X122848178Y-83396358D01*
X122746358Y-83498178D01*
X122666359Y-83617905D01*
X122611255Y-83750938D01*
X122583163Y-83892166D01*
X115451023Y-83892166D01*
X115403494Y-83777422D01*
X115328967Y-83665884D01*
X115234112Y-83571029D01*
X115122574Y-83496502D01*
X114998640Y-83445167D01*
X114867073Y-83418996D01*
X114732927Y-83418996D01*
X114601360Y-83445167D01*
X114477426Y-83496502D01*
X114365888Y-83571029D01*
X114271033Y-83665884D01*
X114196506Y-83777422D01*
X114145171Y-83901356D01*
X114119000Y-84032923D01*
X113903587Y-84032923D01*
X113892534Y-83977360D01*
X113841199Y-83853426D01*
X113766672Y-83741888D01*
X113671817Y-83647033D01*
X113560279Y-83572506D01*
X113436345Y-83521171D01*
X113304778Y-83495000D01*
X113170632Y-83495000D01*
X113039065Y-83521171D01*
X112915131Y-83572506D01*
X112803593Y-83647033D01*
X112708738Y-83741888D01*
X112634211Y-83853426D01*
X112582876Y-83977360D01*
X112556705Y-84108927D01*
X102321000Y-84108927D01*
X102321000Y-84092927D01*
X102294829Y-83961360D01*
X102243494Y-83837426D01*
X102168967Y-83725888D01*
X102074112Y-83631033D01*
X101962574Y-83556506D01*
X101838640Y-83505171D01*
X101707073Y-83479000D01*
X101572927Y-83479000D01*
X101441360Y-83505171D01*
X101317426Y-83556506D01*
X101205888Y-83631033D01*
X101111033Y-83725888D01*
X101036506Y-83837426D01*
X100985171Y-83961360D01*
X100959000Y-84092927D01*
X95971000Y-84092927D01*
X95971000Y-84022927D01*
X95944829Y-83891360D01*
X95893494Y-83767426D01*
X95818967Y-83655888D01*
X95724112Y-83561033D01*
X95612574Y-83486506D01*
X95488640Y-83435171D01*
X95357073Y-83409000D01*
X95222927Y-83409000D01*
X95091360Y-83435171D01*
X94967426Y-83486506D01*
X94855888Y-83561033D01*
X94761033Y-83655888D01*
X94686506Y-83767426D01*
X94635171Y-83891360D01*
X94609000Y-84022927D01*
X91171006Y-84022927D01*
X91144112Y-83996033D01*
X91032574Y-83921506D01*
X90908640Y-83870171D01*
X90777073Y-83844000D01*
X90642927Y-83844000D01*
X90511360Y-83870171D01*
X90501000Y-83874462D01*
X90501000Y-83742927D01*
X90474829Y-83611360D01*
X90423494Y-83487426D01*
X90401931Y-83455155D01*
X90413225Y-83452908D01*
X90546258Y-83397804D01*
X90665985Y-83317805D01*
X90767805Y-83215985D01*
X90847804Y-83096258D01*
X90902908Y-82963225D01*
X90931000Y-82821997D01*
X90931000Y-82678003D01*
X90902908Y-82536775D01*
X90866138Y-82448003D01*
X93339000Y-82448003D01*
X93339000Y-82591997D01*
X93367092Y-82733225D01*
X93422196Y-82866258D01*
X93502195Y-82985985D01*
X93604015Y-83087805D01*
X93723742Y-83167804D01*
X93856775Y-83222908D01*
X93998003Y-83251000D01*
X94141997Y-83251000D01*
X94283225Y-83222908D01*
X94416258Y-83167804D01*
X94453489Y-83142927D01*
X99759000Y-83142927D01*
X99759000Y-83277073D01*
X99785171Y-83408640D01*
X99836506Y-83532574D01*
X99911033Y-83644112D01*
X100005888Y-83738967D01*
X100117426Y-83813494D01*
X100241360Y-83864829D01*
X100372927Y-83891000D01*
X100507073Y-83891000D01*
X100638640Y-83864829D01*
X100762574Y-83813494D01*
X100874112Y-83738967D01*
X100968967Y-83644112D01*
X101043494Y-83532574D01*
X101094829Y-83408640D01*
X101121000Y-83277073D01*
X101121000Y-83142927D01*
X101094829Y-83011360D01*
X101043494Y-82887426D01*
X100968967Y-82775888D01*
X100874112Y-82681033D01*
X100762574Y-82606506D01*
X100638640Y-82555171D01*
X100507073Y-82529000D01*
X100372927Y-82529000D01*
X100241360Y-82555171D01*
X100117426Y-82606506D01*
X100005888Y-82681033D01*
X99911033Y-82775888D01*
X99836506Y-82887426D01*
X99785171Y-83011360D01*
X99759000Y-83142927D01*
X94453489Y-83142927D01*
X94535985Y-83087805D01*
X94637805Y-82985985D01*
X94717804Y-82866258D01*
X94772908Y-82733225D01*
X94801000Y-82591997D01*
X94801000Y-82448003D01*
X94772908Y-82306775D01*
X94717804Y-82173742D01*
X94637805Y-82054015D01*
X94535985Y-81952195D01*
X94416258Y-81872196D01*
X94283225Y-81817092D01*
X94141997Y-81789000D01*
X93998003Y-81789000D01*
X93856775Y-81817092D01*
X93723742Y-81872196D01*
X93604015Y-81952195D01*
X93502195Y-82054015D01*
X93422196Y-82173742D01*
X93367092Y-82306775D01*
X93339000Y-82448003D01*
X90866138Y-82448003D01*
X90847804Y-82403742D01*
X90767805Y-82284015D01*
X90665985Y-82182195D01*
X90546258Y-82102196D01*
X90413225Y-82047092D01*
X90271997Y-82019000D01*
X90128003Y-82019000D01*
X89986775Y-82047092D01*
X89853742Y-82102196D01*
X89737585Y-82179810D01*
X89696258Y-82152196D01*
X89563225Y-82097092D01*
X89421997Y-82069000D01*
X89278003Y-82069000D01*
X89136775Y-82097092D01*
X89003742Y-82152196D01*
X88884015Y-82232195D01*
X88782195Y-82334015D01*
X88702196Y-82453742D01*
X88647092Y-82586775D01*
X88619000Y-82728003D01*
X87307854Y-82728003D01*
X87297804Y-82703742D01*
X87217805Y-82584015D01*
X87135611Y-82501821D01*
X87180649Y-82434416D01*
X87233869Y-82305933D01*
X87261000Y-82169535D01*
X87261000Y-82030465D01*
X87233869Y-81894067D01*
X87180649Y-81765584D01*
X87103386Y-81649951D01*
X87005049Y-81551614D01*
X86889416Y-81474351D01*
X86760933Y-81421131D01*
X86624535Y-81394000D01*
X86485465Y-81394000D01*
X86349067Y-81421131D01*
X86220584Y-81474351D01*
X86104951Y-81551614D01*
X86006614Y-81649951D01*
X85929351Y-81765584D01*
X85876131Y-81894067D01*
X85855259Y-81999000D01*
X85838003Y-81999000D01*
X85696775Y-82027092D01*
X85563742Y-82082196D01*
X85489966Y-82131491D01*
X85386258Y-82062196D01*
X85253225Y-82007092D01*
X85111997Y-81979000D01*
X84968003Y-81979000D01*
X84826775Y-82007092D01*
X84693742Y-82062196D01*
X84590000Y-82131514D01*
X84486258Y-82062196D01*
X84353225Y-82007092D01*
X84211997Y-81979000D01*
X84068003Y-81979000D01*
X83926775Y-82007092D01*
X83793742Y-82062196D01*
X83674015Y-82142195D01*
X83572195Y-82244015D01*
X83492196Y-82363742D01*
X83437092Y-82496775D01*
X83409000Y-82638003D01*
X80456000Y-82638003D01*
X80456000Y-81163265D01*
X81875034Y-81163265D01*
X82004227Y-81220795D01*
X82123226Y-81327417D01*
X82232000Y-81299439D01*
X82232000Y-81043000D01*
X83578000Y-81043000D01*
X83578000Y-81299439D01*
X83686774Y-81327417D01*
X83805773Y-81220795D01*
X83934966Y-81163265D01*
X85805034Y-81163265D01*
X85988641Y-81217759D01*
X86106002Y-81313823D01*
X86212000Y-81277757D01*
X86212000Y-81043000D01*
X87958000Y-81043000D01*
X87958000Y-81277757D01*
X88063998Y-81313823D01*
X88132193Y-81258003D01*
X98339000Y-81258003D01*
X98339000Y-81401997D01*
X98367092Y-81543225D01*
X98422196Y-81676258D01*
X98502195Y-81795985D01*
X98604015Y-81897805D01*
X98723742Y-81977804D01*
X98856775Y-82032908D01*
X98998003Y-82061000D01*
X99141997Y-82061000D01*
X99283225Y-82032908D01*
X99416258Y-81977804D01*
X99535985Y-81897805D01*
X99637805Y-81795985D01*
X99717804Y-81676258D01*
X99772908Y-81543225D01*
X99801000Y-81401997D01*
X99801000Y-81258003D01*
X99772908Y-81116775D01*
X99717804Y-80983742D01*
X99637805Y-80864015D01*
X99535985Y-80762195D01*
X99416258Y-80682196D01*
X99283225Y-80627092D01*
X99141997Y-80599000D01*
X98998003Y-80599000D01*
X98856775Y-80627092D01*
X98723742Y-80682196D01*
X98604015Y-80762195D01*
X98502195Y-80864015D01*
X98422196Y-80983742D01*
X98367092Y-81116775D01*
X98339000Y-81258003D01*
X88132193Y-81258003D01*
X88181359Y-81217759D01*
X88364966Y-81163265D01*
X88326574Y-81043000D01*
X87958000Y-81043000D01*
X86212000Y-81043000D01*
X85843426Y-81043000D01*
X85805034Y-81163265D01*
X83934966Y-81163265D01*
X83896574Y-81043000D01*
X83578000Y-81043000D01*
X82232000Y-81043000D01*
X81913426Y-81043000D01*
X81875034Y-81163265D01*
X80456000Y-81163265D01*
X80456000Y-80456000D01*
X103416291Y-80456000D01*
X103343291Y-80529000D01*
X103343291Y-80529000D01*
G37*
X103343291Y-80529000D02*
X103292927Y-80529000D01*
X103161360Y-80555171D01*
X103037426Y-80606506D01*
X102925888Y-80681033D01*
X102831033Y-80775888D01*
X102756506Y-80887426D01*
X102705171Y-81011360D01*
X102679000Y-81142927D01*
X102679000Y-81277073D01*
X102705171Y-81408640D01*
X102756506Y-81532574D01*
X102831033Y-81644112D01*
X102925888Y-81738967D01*
X103036312Y-81812750D01*
X103026506Y-81827426D01*
X102975171Y-81951360D01*
X102949000Y-82082927D01*
X102949000Y-82217073D01*
X102975171Y-82348640D01*
X103026506Y-82472574D01*
X103056790Y-82517897D01*
X102993099Y-82613217D01*
X102941764Y-82737151D01*
X102915593Y-82868718D01*
X102915593Y-83002864D01*
X102941764Y-83134431D01*
X102993099Y-83258365D01*
X103067626Y-83369903D01*
X103162481Y-83464758D01*
X103274019Y-83539285D01*
X103397953Y-83590620D01*
X103529520Y-83616791D01*
X103663666Y-83616791D01*
X103795233Y-83590620D01*
X103919167Y-83539285D01*
X104030705Y-83464758D01*
X104125560Y-83369903D01*
X104200087Y-83258365D01*
X104251422Y-83134431D01*
X104277593Y-83002864D01*
X104277593Y-82868718D01*
X104251422Y-82737151D01*
X104200087Y-82613217D01*
X104196601Y-82608000D01*
X106517501Y-82608000D01*
X106540000Y-82610216D01*
X106562499Y-82608000D01*
X106629784Y-82601373D01*
X106716117Y-82575184D01*
X106795682Y-82532656D01*
X106865422Y-82475422D01*
X106879769Y-82457940D01*
X108229709Y-81108000D01*
X118304329Y-81108000D01*
X118289626Y-81181917D01*
X118289626Y-81316063D01*
X118315797Y-81447630D01*
X118367132Y-81571564D01*
X118441659Y-81683102D01*
X118536514Y-81777957D01*
X118648052Y-81852484D01*
X118771986Y-81903819D01*
X118903553Y-81929990D01*
X119037699Y-81929990D01*
X119169266Y-81903819D01*
X119293200Y-81852484D01*
X119321104Y-81833840D01*
X119349007Y-81852484D01*
X119472941Y-81903819D01*
X119604508Y-81929990D01*
X119738654Y-81929990D01*
X119870221Y-81903819D01*
X119994155Y-81852484D01*
X120013756Y-81839387D01*
X120033357Y-81852484D01*
X120157291Y-81903819D01*
X120288858Y-81929990D01*
X120423004Y-81929990D01*
X120554571Y-81903819D01*
X120678505Y-81852484D01*
X120790043Y-81777957D01*
X120831956Y-81736045D01*
X120855888Y-81759977D01*
X120967426Y-81834504D01*
X121091360Y-81885839D01*
X121222927Y-81912010D01*
X121357073Y-81912010D01*
X121488640Y-81885839D01*
X121612574Y-81834504D01*
X121724112Y-81759977D01*
X121818967Y-81665122D01*
X121847914Y-81621800D01*
X121844000Y-81641476D01*
X121844000Y-81785470D01*
X121872092Y-81926698D01*
X121927196Y-82059731D01*
X122007195Y-82179458D01*
X122109015Y-82281278D01*
X122228742Y-82361277D01*
X122361775Y-82416381D01*
X122503003Y-82444473D01*
X122646997Y-82444473D01*
X122788225Y-82416381D01*
X122921258Y-82361277D01*
X123040985Y-82281278D01*
X123142805Y-82179458D01*
X123222804Y-82059731D01*
X123277908Y-81926698D01*
X123306000Y-81785470D01*
X123306000Y-81641476D01*
X123295853Y-81590463D01*
X129147540Y-81590463D01*
X129385021Y-81827945D01*
X129399364Y-81845422D01*
X129469104Y-81902656D01*
X129548669Y-81945184D01*
X129608812Y-81963428D01*
X129635001Y-81971373D01*
X129724785Y-81980216D01*
X129747285Y-81978000D01*
X131816589Y-81978000D01*
X131881360Y-82004829D01*
X132012927Y-82031000D01*
X132147073Y-82031000D01*
X132278640Y-82004829D01*
X132402574Y-81953494D01*
X132514112Y-81878967D01*
X132608967Y-81784112D01*
X132683494Y-81672574D01*
X132734829Y-81548640D01*
X132756727Y-81438554D01*
X133186129Y-81867957D01*
X133200472Y-81885434D01*
X133254764Y-81929990D01*
X133270212Y-81942668D01*
X133349777Y-81985196D01*
X133436110Y-82011385D01*
X133525894Y-82020228D01*
X133548393Y-82018012D01*
X134184911Y-82018012D01*
X134169000Y-82098003D01*
X134169000Y-82241997D01*
X134197092Y-82383225D01*
X134252196Y-82516258D01*
X134275069Y-82550490D01*
X134252196Y-82584721D01*
X134197092Y-82717754D01*
X134169000Y-82858982D01*
X134169000Y-83002976D01*
X134197092Y-83144204D01*
X134252196Y-83277237D01*
X134332195Y-83396964D01*
X134434015Y-83498784D01*
X134553742Y-83578783D01*
X134686775Y-83633887D01*
X134828003Y-83661979D01*
X134971997Y-83661979D01*
X135113225Y-83633887D01*
X135246258Y-83578783D01*
X135300000Y-83542874D01*
X135353742Y-83578783D01*
X135486775Y-83633887D01*
X135628003Y-83661979D01*
X135771997Y-83661979D01*
X135913225Y-83633887D01*
X136046258Y-83578783D01*
X136100000Y-83542874D01*
X136153742Y-83578783D01*
X136286775Y-83633887D01*
X136428003Y-83661979D01*
X136571997Y-83661979D01*
X136713225Y-83633887D01*
X136846258Y-83578783D01*
X136900000Y-83542874D01*
X136953742Y-83578783D01*
X137086775Y-83633887D01*
X137228003Y-83661979D01*
X137371997Y-83661979D01*
X137513225Y-83633887D01*
X137646258Y-83578783D01*
X137765985Y-83498784D01*
X137867805Y-83396964D01*
X137947804Y-83277237D01*
X138002908Y-83144204D01*
X138031000Y-83002976D01*
X138031000Y-82858982D01*
X138002908Y-82717754D01*
X137947804Y-82584721D01*
X137924931Y-82550489D01*
X137947804Y-82516258D01*
X138002908Y-82383225D01*
X138031000Y-82241997D01*
X138031000Y-82098003D01*
X138015089Y-82018012D01*
X143717489Y-82018012D01*
X143739988Y-82020228D01*
X143762487Y-82018012D01*
X143829772Y-82011385D01*
X143916105Y-81985196D01*
X143995670Y-81942668D01*
X144065410Y-81885434D01*
X144079757Y-81867952D01*
X144239709Y-81708000D01*
X150938971Y-81708000D01*
X150927307Y-81719664D01*
X150776174Y-81945851D01*
X150672071Y-82197177D01*
X150619000Y-82463983D01*
X150619000Y-82736017D01*
X150672071Y-83002823D01*
X150776174Y-83254149D01*
X150927307Y-83480336D01*
X151119664Y-83672693D01*
X151345851Y-83823826D01*
X151597177Y-83927929D01*
X151863983Y-83981000D01*
X152136017Y-83981000D01*
X152402823Y-83927929D01*
X152654149Y-83823826D01*
X152880336Y-83672693D01*
X153072693Y-83480336D01*
X153223826Y-83254149D01*
X153320814Y-83020000D01*
X158117157Y-83020000D01*
X158119000Y-84031750D01*
X158214250Y-84127000D01*
X160127000Y-84127000D01*
X160127000Y-82734250D01*
X160031750Y-82639000D01*
X158500000Y-82637157D01*
X158425311Y-82644513D01*
X158353492Y-82666299D01*
X158287304Y-82701678D01*
X158229289Y-82749289D01*
X158181678Y-82807304D01*
X158146299Y-82873492D01*
X158124513Y-82945311D01*
X158117157Y-83020000D01*
X153320814Y-83020000D01*
X153327929Y-83002823D01*
X153381000Y-82736017D01*
X153381000Y-82463983D01*
X153327929Y-82197177D01*
X153270280Y-82058000D01*
X154253586Y-82058000D01*
X154271033Y-82084112D01*
X154365888Y-82178967D01*
X154477426Y-82253494D01*
X154601360Y-82304829D01*
X154732927Y-82331000D01*
X154867073Y-82331000D01*
X154998640Y-82304829D01*
X155122574Y-82253494D01*
X155234112Y-82178967D01*
X155328967Y-82084112D01*
X155403494Y-81972574D01*
X155454829Y-81848640D01*
X155481000Y-81717073D01*
X155481000Y-81582927D01*
X155454829Y-81451360D01*
X155403494Y-81327426D01*
X155328967Y-81215888D01*
X155234112Y-81121033D01*
X155122574Y-81046506D01*
X154998640Y-80995171D01*
X154867073Y-80969000D01*
X154732927Y-80969000D01*
X154601360Y-80995171D01*
X154531000Y-81024315D01*
X154531000Y-80961927D01*
X154529821Y-80956000D01*
X163544000Y-80956000D01*
X163544000Y-82641491D01*
X163500000Y-82637157D01*
X161968250Y-82639000D01*
X161873000Y-82734250D01*
X161873000Y-84127000D01*
X161893000Y-84127000D01*
X161893000Y-85873000D01*
X161873000Y-85873000D01*
X161873000Y-87265750D01*
X161968250Y-87361000D01*
X163500000Y-87362843D01*
X163544001Y-87358509D01*
X163544001Y-89044000D01*
X142928198Y-89044000D01*
X142943500Y-88967073D01*
X142943500Y-88832927D01*
X142917329Y-88701360D01*
X142865994Y-88577426D01*
X142791467Y-88465888D01*
X142696612Y-88371033D01*
X142585074Y-88296506D01*
X142461140Y-88245171D01*
X142329573Y-88219000D01*
X142195427Y-88219000D01*
X142063860Y-88245171D01*
X141939926Y-88296506D01*
X141828388Y-88371033D01*
X141733533Y-88465888D01*
X141659006Y-88577426D01*
X141607671Y-88701360D01*
X141581500Y-88832927D01*
X141581500Y-88967073D01*
X141596802Y-89044000D01*
X131344743Y-89044000D01*
X131371000Y-88911999D01*
X131371000Y-88768005D01*
X131342908Y-88626777D01*
X131287804Y-88493744D01*
X131259828Y-88451875D01*
X131294112Y-88428967D01*
X131388967Y-88334112D01*
X131449894Y-88242927D01*
X134329002Y-88242927D01*
X134329002Y-88377073D01*
X134355173Y-88508640D01*
X134406508Y-88632574D01*
X134481035Y-88744112D01*
X134575890Y-88838967D01*
X134687428Y-88913494D01*
X134811362Y-88964829D01*
X134942929Y-88991000D01*
X135077075Y-88991000D01*
X135208642Y-88964829D01*
X135332576Y-88913494D01*
X135444114Y-88838967D01*
X135538969Y-88744112D01*
X135613496Y-88632574D01*
X135664831Y-88508640D01*
X135691002Y-88377073D01*
X135691002Y-88242927D01*
X135664831Y-88111360D01*
X135613496Y-87987426D01*
X135538969Y-87875888D01*
X135444114Y-87781033D01*
X135332576Y-87706506D01*
X135208642Y-87655171D01*
X135077075Y-87629000D01*
X134942929Y-87629000D01*
X134811362Y-87655171D01*
X134687428Y-87706506D01*
X134575890Y-87781033D01*
X134481035Y-87875888D01*
X134406508Y-87987426D01*
X134355173Y-88111360D01*
X134329002Y-88242927D01*
X131449894Y-88242927D01*
X131463494Y-88222574D01*
X131514829Y-88098640D01*
X131541000Y-87967073D01*
X131541000Y-87832927D01*
X131514829Y-87701360D01*
X131463494Y-87577426D01*
X131388967Y-87465888D01*
X131294112Y-87371033D01*
X131182574Y-87296506D01*
X131104057Y-87263983D01*
X150619000Y-87263983D01*
X150619000Y-87536017D01*
X150672071Y-87802823D01*
X150776174Y-88054149D01*
X150927307Y-88280336D01*
X151119664Y-88472693D01*
X151345851Y-88623826D01*
X151597177Y-88727929D01*
X151863983Y-88781000D01*
X152136017Y-88781000D01*
X152402823Y-88727929D01*
X152654149Y-88623826D01*
X152880336Y-88472693D01*
X153072693Y-88280336D01*
X153223826Y-88054149D01*
X153327929Y-87802823D01*
X153381000Y-87536017D01*
X153381000Y-87332927D01*
X154519000Y-87332927D01*
X154519000Y-87467073D01*
X154545171Y-87598640D01*
X154596506Y-87722574D01*
X154671033Y-87834112D01*
X154765888Y-87928967D01*
X154877426Y-88003494D01*
X155001360Y-88054829D01*
X155132927Y-88081000D01*
X155267073Y-88081000D01*
X155398640Y-88054829D01*
X155522574Y-88003494D01*
X155634112Y-87928967D01*
X155728967Y-87834112D01*
X155803494Y-87722574D01*
X155854829Y-87598640D01*
X155881000Y-87467073D01*
X155881000Y-87332927D01*
X155854829Y-87201360D01*
X155803494Y-87077426D01*
X155738397Y-86980000D01*
X158117157Y-86980000D01*
X158124513Y-87054689D01*
X158146299Y-87126508D01*
X158181678Y-87192696D01*
X158229289Y-87250711D01*
X158287304Y-87298322D01*
X158353492Y-87333701D01*
X158425311Y-87355487D01*
X158500000Y-87362843D01*
X160031750Y-87361000D01*
X160127000Y-87265750D01*
X160127000Y-85873000D01*
X158214250Y-85873000D01*
X158119000Y-85968250D01*
X158117157Y-86980000D01*
X155738397Y-86980000D01*
X155728967Y-86965888D01*
X155634112Y-86871033D01*
X155522574Y-86796506D01*
X155398640Y-86745171D01*
X155267073Y-86719000D01*
X155132927Y-86719000D01*
X155001360Y-86745171D01*
X154877426Y-86796506D01*
X154765888Y-86871033D01*
X154671033Y-86965888D01*
X154596506Y-87077426D01*
X154545171Y-87201360D01*
X154519000Y-87332927D01*
X153381000Y-87332927D01*
X153381000Y-87263983D01*
X153327929Y-86997177D01*
X153223826Y-86745851D01*
X153072693Y-86519664D01*
X152880336Y-86327307D01*
X152654149Y-86176174D01*
X152402823Y-86072071D01*
X152136017Y-86019000D01*
X151863983Y-86019000D01*
X151597177Y-86072071D01*
X151345851Y-86176174D01*
X151119664Y-86327307D01*
X150927307Y-86519664D01*
X150776174Y-86745851D01*
X150672071Y-86997177D01*
X150619000Y-87263983D01*
X131104057Y-87263983D01*
X131058640Y-87245171D01*
X130927073Y-87219000D01*
X130919489Y-87219000D01*
X130873484Y-87107935D01*
X130798957Y-86996397D01*
X130704102Y-86901542D01*
X130592564Y-86827015D01*
X130468630Y-86775680D01*
X130337063Y-86749509D01*
X130202917Y-86749509D01*
X130071350Y-86775680D01*
X129947416Y-86827015D01*
X129835878Y-86901542D01*
X129741023Y-86996397D01*
X129666496Y-87107935D01*
X129615161Y-87231869D01*
X129588990Y-87363436D01*
X129588990Y-87497582D01*
X129615161Y-87629149D01*
X129666496Y-87753083D01*
X129741023Y-87864621D01*
X129835878Y-87959476D01*
X129947416Y-88034003D01*
X130071350Y-88085338D01*
X130202917Y-88111509D01*
X130210501Y-88111509D01*
X130254723Y-88218270D01*
X130174015Y-88272197D01*
X130072195Y-88374017D01*
X129992196Y-88493744D01*
X129937092Y-88626777D01*
X129909000Y-88768005D01*
X129909000Y-88911999D01*
X129937092Y-89053227D01*
X129992196Y-89186260D01*
X130072195Y-89305987D01*
X130170924Y-89404716D01*
X129892355Y-89544000D01*
X122246360Y-89544000D01*
X122339316Y-89404881D01*
X122405182Y-89245866D01*
X122438760Y-89077058D01*
X122438760Y-88904942D01*
X122405182Y-88736134D01*
X122339316Y-88577119D01*
X122243694Y-88434010D01*
X122121990Y-88312306D01*
X121978881Y-88216684D01*
X121819866Y-88150818D01*
X121651058Y-88117240D01*
X121478942Y-88117240D01*
X121310134Y-88150818D01*
X121151119Y-88216684D01*
X121008010Y-88312306D01*
X120886306Y-88434010D01*
X120790684Y-88577119D01*
X120724818Y-88736134D01*
X120691240Y-88904942D01*
X120691240Y-89077058D01*
X120724818Y-89245866D01*
X120790684Y-89404881D01*
X120883640Y-89544000D01*
X117394079Y-89544000D01*
X117453967Y-89484112D01*
X117528494Y-89372574D01*
X117579829Y-89248640D01*
X117606000Y-89117073D01*
X117606000Y-88982927D01*
X117579829Y-88851360D01*
X117528494Y-88727426D01*
X117453967Y-88615888D01*
X117359112Y-88521033D01*
X117247574Y-88446506D01*
X117227810Y-88438319D01*
X117260442Y-88389482D01*
X117326403Y-88230237D01*
X117360030Y-88061183D01*
X117360030Y-87888817D01*
X117326403Y-87719763D01*
X117260442Y-87560518D01*
X117164680Y-87417201D01*
X117042799Y-87295320D01*
X116899482Y-87199558D01*
X116740237Y-87133597D01*
X116571183Y-87099970D01*
X116398817Y-87099970D01*
X116266928Y-87126204D01*
X116254829Y-87065381D01*
X116203494Y-86941447D01*
X116128967Y-86829909D01*
X116034112Y-86735054D01*
X115922574Y-86660527D01*
X115798640Y-86609192D01*
X115667073Y-86583021D01*
X115532927Y-86583021D01*
X115401360Y-86609192D01*
X115277426Y-86660527D01*
X115165888Y-86735054D01*
X115071033Y-86829909D01*
X114996506Y-86941447D01*
X114945171Y-87065381D01*
X114919000Y-87196948D01*
X114919000Y-87331094D01*
X114945171Y-87462661D01*
X114996506Y-87586595D01*
X115071033Y-87698133D01*
X115165888Y-87792988D01*
X115277426Y-87867515D01*
X115401360Y-87918850D01*
X115532927Y-87945021D01*
X115609970Y-87945021D01*
X115609970Y-88061183D01*
X115643597Y-88230237D01*
X115709558Y-88389482D01*
X115805320Y-88532799D01*
X115823841Y-88551320D01*
X115748640Y-88520171D01*
X115617073Y-88494000D01*
X115482927Y-88494000D01*
X115351360Y-88520171D01*
X115227426Y-88571506D01*
X115115888Y-88646033D01*
X115021033Y-88740888D01*
X114946506Y-88852426D01*
X114895171Y-88976360D01*
X114869000Y-89107927D01*
X114869000Y-89242073D01*
X114895171Y-89373640D01*
X114946506Y-89497574D01*
X114977527Y-89544000D01*
X110455752Y-89544000D01*
X110481000Y-89417073D01*
X110481000Y-89282927D01*
X110454829Y-89151360D01*
X110403494Y-89027426D01*
X110328967Y-88915888D01*
X110234112Y-88821033D01*
X110122574Y-88746506D01*
X109998640Y-88695171D01*
X109867073Y-88669000D01*
X109732927Y-88669000D01*
X109601360Y-88695171D01*
X109477426Y-88746506D01*
X109365888Y-88821033D01*
X109271033Y-88915888D01*
X109196506Y-89027426D01*
X109145171Y-89151360D01*
X109119000Y-89282927D01*
X109119000Y-89417073D01*
X109144248Y-89544000D01*
X80456000Y-89544000D01*
X80456000Y-88816735D01*
X81875034Y-88816735D01*
X81913426Y-88937000D01*
X82232000Y-88937000D01*
X82232000Y-88680561D01*
X83578000Y-88680561D01*
X83578000Y-88937000D01*
X83896574Y-88937000D01*
X83934966Y-88816735D01*
X85805034Y-88816735D01*
X85843426Y-88937000D01*
X86212000Y-88937000D01*
X86212000Y-88702243D01*
X87958000Y-88702243D01*
X87958000Y-88937000D01*
X88326574Y-88937000D01*
X88364966Y-88816735D01*
X88181359Y-88762241D01*
X88063998Y-88666177D01*
X87958000Y-88702243D01*
X86212000Y-88702243D01*
X86106002Y-88666177D01*
X85988641Y-88762241D01*
X85805034Y-88816735D01*
X83934966Y-88816735D01*
X83805773Y-88759205D01*
X83686774Y-88652583D01*
X83578000Y-88680561D01*
X82232000Y-88680561D01*
X82123226Y-88652583D01*
X82004227Y-88759205D01*
X81875034Y-88816735D01*
X80456000Y-88816735D01*
X80456000Y-82638003D01*
X83409000Y-82638003D01*
X83409000Y-82781997D01*
X83437092Y-82923225D01*
X83492196Y-83056258D01*
X83561514Y-83160000D01*
X83492196Y-83263742D01*
X83437092Y-83396775D01*
X83409000Y-83538003D01*
X83409000Y-83681997D01*
X83437092Y-83823225D01*
X83492196Y-83956258D01*
X83561514Y-84060000D01*
X83492196Y-84163742D01*
X83437092Y-84296775D01*
X83409000Y-84438003D01*
X83409000Y-84581997D01*
X83437092Y-84723225D01*
X83492196Y-84856258D01*
X83561514Y-84960000D01*
X83492196Y-85063742D01*
X83437092Y-85196775D01*
X83409000Y-85338003D01*
X83409000Y-85481997D01*
X83437092Y-85623225D01*
X83492196Y-85756258D01*
X83561514Y-85860000D01*
X83492196Y-85963742D01*
X83437092Y-86096775D01*
X83409000Y-86238003D01*
X83409000Y-86381997D01*
X83437092Y-86523225D01*
X83492196Y-86656258D01*
X83561514Y-86760000D01*
X83492196Y-86863742D01*
X83437092Y-86996775D01*
X83409000Y-87138003D01*
X83409000Y-87281997D01*
X83437092Y-87423225D01*
X83492196Y-87556258D01*
X83572195Y-87675985D01*
X83674015Y-87777805D01*
X83793742Y-87857804D01*
X83926775Y-87912908D01*
X84068003Y-87941000D01*
X84211997Y-87941000D01*
X84353225Y-87912908D01*
X84486258Y-87857804D01*
X84590000Y-87788486D01*
X84693742Y-87857804D01*
X84826775Y-87912908D01*
X84968003Y-87941000D01*
X85111997Y-87941000D01*
X85253225Y-87912908D01*
X85386258Y-87857804D01*
X85502381Y-87780213D01*
X85513742Y-87787804D01*
X85646775Y-87842908D01*
X85788003Y-87871000D01*
X85849000Y-87871000D01*
X85849000Y-87949535D01*
X85876131Y-88085933D01*
X85929351Y-88214416D01*
X86006614Y-88330049D01*
X86104951Y-88428386D01*
X86220584Y-88505649D01*
X86349067Y-88558869D01*
X86485465Y-88586000D01*
X86624535Y-88586000D01*
X86760933Y-88558869D01*
X86889416Y-88505649D01*
X86944560Y-88468803D01*
X89653124Y-88468803D01*
X89653124Y-88602949D01*
X89679295Y-88734516D01*
X89730630Y-88858450D01*
X89805157Y-88969988D01*
X89900012Y-89064843D01*
X90011550Y-89139370D01*
X90135484Y-89190705D01*
X90267051Y-89216876D01*
X90401197Y-89216876D01*
X90532764Y-89190705D01*
X90656698Y-89139370D01*
X90768236Y-89064843D01*
X90863091Y-88969988D01*
X90937618Y-88858450D01*
X90988953Y-88734516D01*
X91015124Y-88602949D01*
X91015124Y-88545124D01*
X91072949Y-88545124D01*
X91204516Y-88518953D01*
X91328450Y-88467618D01*
X91439988Y-88393091D01*
X91534843Y-88298236D01*
X91565117Y-88252927D01*
X96649000Y-88252927D01*
X96649000Y-88387073D01*
X96675171Y-88518640D01*
X96726506Y-88642574D01*
X96801033Y-88754112D01*
X96895888Y-88848967D01*
X97007426Y-88923494D01*
X97131360Y-88974829D01*
X97262927Y-89001000D01*
X97397073Y-89001000D01*
X97528640Y-88974829D01*
X97652574Y-88923494D01*
X97764112Y-88848967D01*
X97858967Y-88754112D01*
X97933494Y-88642574D01*
X97984829Y-88518640D01*
X98011000Y-88387073D01*
X98011000Y-88252927D01*
X100809000Y-88252927D01*
X100809000Y-88387073D01*
X100835171Y-88518640D01*
X100886506Y-88642574D01*
X100961033Y-88754112D01*
X101055888Y-88848967D01*
X101167426Y-88923494D01*
X101291360Y-88974829D01*
X101422927Y-89001000D01*
X101557073Y-89001000D01*
X101688640Y-88974829D01*
X101812574Y-88923494D01*
X101924112Y-88848967D01*
X102018967Y-88754112D01*
X102093494Y-88642574D01*
X102144829Y-88518640D01*
X102161878Y-88432927D01*
X111394000Y-88432927D01*
X111394000Y-88567073D01*
X111420171Y-88698640D01*
X111471506Y-88822574D01*
X111546033Y-88934112D01*
X111640888Y-89028967D01*
X111752426Y-89103494D01*
X111876360Y-89154829D01*
X112007927Y-89181000D01*
X112142073Y-89181000D01*
X112273640Y-89154829D01*
X112397574Y-89103494D01*
X112509112Y-89028967D01*
X112603967Y-88934112D01*
X112678494Y-88822574D01*
X112729829Y-88698640D01*
X112756000Y-88567073D01*
X112756000Y-88432927D01*
X112729829Y-88301360D01*
X112678494Y-88177426D01*
X112603967Y-88065888D01*
X112509112Y-87971033D01*
X112397574Y-87896506D01*
X112273640Y-87845171D01*
X112142073Y-87819000D01*
X112007927Y-87819000D01*
X111876360Y-87845171D01*
X111752426Y-87896506D01*
X111640888Y-87971033D01*
X111546033Y-88065888D01*
X111471506Y-88177426D01*
X111420171Y-88301360D01*
X111394000Y-88432927D01*
X102161878Y-88432927D01*
X102171000Y-88387073D01*
X102171000Y-88252927D01*
X102144829Y-88121360D01*
X102096310Y-88004225D01*
X102134112Y-87978967D01*
X102228967Y-87884112D01*
X102303494Y-87772574D01*
X102354829Y-87648640D01*
X102381000Y-87517073D01*
X102381000Y-87382927D01*
X102354829Y-87251360D01*
X102303494Y-87127426D01*
X102228967Y-87015888D01*
X102134112Y-86921033D01*
X102022574Y-86846506D01*
X101898640Y-86795171D01*
X101767073Y-86769000D01*
X101632927Y-86769000D01*
X101501360Y-86795171D01*
X101377426Y-86846506D01*
X101265888Y-86921033D01*
X101171033Y-87015888D01*
X101096506Y-87127426D01*
X101045171Y-87251360D01*
X101019000Y-87382927D01*
X101019000Y-87517073D01*
X101045171Y-87648640D01*
X101093690Y-87765775D01*
X101055888Y-87791033D01*
X100961033Y-87885888D01*
X100886506Y-87997426D01*
X100835171Y-88121360D01*
X100809000Y-88252927D01*
X98011000Y-88252927D01*
X97984829Y-88121360D01*
X97933494Y-87997426D01*
X97858967Y-87885888D01*
X97764112Y-87791033D01*
X97652574Y-87716506D01*
X97528640Y-87665171D01*
X97397073Y-87639000D01*
X97262927Y-87639000D01*
X97131360Y-87665171D01*
X97007426Y-87716506D01*
X96895888Y-87791033D01*
X96801033Y-87885888D01*
X96726506Y-87997426D01*
X96675171Y-88121360D01*
X96649000Y-88252927D01*
X91565117Y-88252927D01*
X91609370Y-88186698D01*
X91660705Y-88062764D01*
X91686876Y-87931197D01*
X91686876Y-87797051D01*
X91660705Y-87665484D01*
X91609370Y-87541550D01*
X91534843Y-87430012D01*
X91439988Y-87335157D01*
X91328450Y-87260630D01*
X91204516Y-87209295D01*
X91072949Y-87183124D01*
X90938803Y-87183124D01*
X90807236Y-87209295D01*
X90683302Y-87260630D01*
X90571764Y-87335157D01*
X90476909Y-87430012D01*
X90402382Y-87541550D01*
X90351047Y-87665484D01*
X90324876Y-87797051D01*
X90324876Y-87854876D01*
X90267051Y-87854876D01*
X90135484Y-87881047D01*
X90011550Y-87932382D01*
X89900012Y-88006909D01*
X89805157Y-88101764D01*
X89730630Y-88213302D01*
X89679295Y-88337236D01*
X89653124Y-88468803D01*
X86944560Y-88468803D01*
X87005049Y-88428386D01*
X87103386Y-88330049D01*
X87180649Y-88214416D01*
X87233869Y-88085933D01*
X87261000Y-87949535D01*
X87261000Y-87810465D01*
X87233869Y-87674067D01*
X87180649Y-87545584D01*
X87170997Y-87531138D01*
X87175985Y-87527805D01*
X87277805Y-87425985D01*
X87357804Y-87306258D01*
X87390218Y-87228003D01*
X88609000Y-87228003D01*
X88609000Y-87371997D01*
X88637092Y-87513225D01*
X88692196Y-87646258D01*
X88772195Y-87765985D01*
X88874015Y-87867805D01*
X88993742Y-87947804D01*
X89126775Y-88002908D01*
X89268003Y-88031000D01*
X89411997Y-88031000D01*
X89553225Y-88002908D01*
X89686258Y-87947804D01*
X89805985Y-87867805D01*
X89907805Y-87765985D01*
X89987804Y-87646258D01*
X90042908Y-87513225D01*
X90071000Y-87371997D01*
X90071000Y-87228003D01*
X90042908Y-87086775D01*
X89987804Y-86953742D01*
X89907805Y-86834015D01*
X89805985Y-86732195D01*
X89686258Y-86652196D01*
X89553225Y-86597092D01*
X89411997Y-86569000D01*
X89268003Y-86569000D01*
X89126775Y-86597092D01*
X88993742Y-86652196D01*
X88874015Y-86732195D01*
X88772195Y-86834015D01*
X88692196Y-86953742D01*
X88637092Y-87086775D01*
X88609000Y-87228003D01*
X87390218Y-87228003D01*
X87412908Y-87173225D01*
X87441000Y-87031997D01*
X87441000Y-86888003D01*
X87412908Y-86746775D01*
X87357804Y-86613742D01*
X87277805Y-86494015D01*
X87175985Y-86392195D01*
X87056258Y-86312196D01*
X86947237Y-86267038D01*
X86967804Y-86236258D01*
X87022908Y-86103225D01*
X87051000Y-85961997D01*
X87051000Y-85818003D01*
X87022908Y-85676775D01*
X86967804Y-85543742D01*
X86908937Y-85455641D01*
X87023225Y-85432908D01*
X87156258Y-85377804D01*
X87275985Y-85297805D01*
X87377805Y-85195985D01*
X87457804Y-85076258D01*
X87512908Y-84943225D01*
X87541000Y-84801997D01*
X87541000Y-84658003D01*
X87512908Y-84516775D01*
X87457804Y-84383742D01*
X87377805Y-84264015D01*
X87275985Y-84162195D01*
X87156258Y-84082196D01*
X87023225Y-84027092D01*
X86881997Y-83999000D01*
X86738003Y-83999000D01*
X86596775Y-84027092D01*
X86463742Y-84082196D01*
X86427132Y-84106658D01*
X86477805Y-84055985D01*
X86557804Y-83936258D01*
X86612908Y-83803225D01*
X86617329Y-83781000D01*
X86721997Y-83781000D01*
X86863225Y-83752908D01*
X86996258Y-83697804D01*
X87115985Y-83617805D01*
X87217805Y-83515985D01*
X87297804Y-83396258D01*
X87352908Y-83263225D01*
X87381000Y-83121997D01*
X87381000Y-82978003D01*
X87352908Y-82836775D01*
X87307854Y-82728003D01*
X88619000Y-82728003D01*
X88619000Y-82871997D01*
X88647092Y-83013225D01*
X88702196Y-83146258D01*
X88782195Y-83265985D01*
X88884015Y-83367805D01*
X89003742Y-83447804D01*
X89136775Y-83502908D01*
X89204512Y-83516382D01*
X89165171Y-83611360D01*
X89139000Y-83742927D01*
X89139000Y-83877073D01*
X89165171Y-84008640D01*
X89216506Y-84132574D01*
X89291033Y-84244112D01*
X89385888Y-84338967D01*
X89497426Y-84413494D01*
X89621360Y-84464829D01*
X89752927Y-84491000D01*
X89887073Y-84491000D01*
X90018640Y-84464829D01*
X90029000Y-84460538D01*
X90029000Y-84592073D01*
X90055171Y-84723640D01*
X90106506Y-84847574D01*
X90181033Y-84959112D01*
X90221921Y-85000000D01*
X90181033Y-85040888D01*
X90106506Y-85152426D01*
X90055171Y-85276360D01*
X90029000Y-85407927D01*
X90029000Y-85542073D01*
X90055171Y-85673640D01*
X90106506Y-85797574D01*
X90181033Y-85909112D01*
X90275888Y-86003967D01*
X90387426Y-86078494D01*
X90511360Y-86129829D01*
X90642927Y-86156000D01*
X90777073Y-86156000D01*
X90908640Y-86129829D01*
X91032574Y-86078494D01*
X91100770Y-86032927D01*
X102559000Y-86032927D01*
X102559000Y-86167073D01*
X102585171Y-86298640D01*
X102636506Y-86422574D01*
X102711033Y-86534112D01*
X102805888Y-86628967D01*
X102917426Y-86703494D01*
X103041360Y-86754829D01*
X103172927Y-86781000D01*
X103307073Y-86781000D01*
X103438640Y-86754829D01*
X103562574Y-86703494D01*
X103674112Y-86628967D01*
X103768967Y-86534112D01*
X103769758Y-86532927D01*
X118969000Y-86532927D01*
X118969000Y-86667073D01*
X118995171Y-86798640D01*
X119046506Y-86922574D01*
X119121033Y-87034112D01*
X119215888Y-87128967D01*
X119327426Y-87203494D01*
X119451360Y-87254829D01*
X119582927Y-87281000D01*
X119717073Y-87281000D01*
X119848640Y-87254829D01*
X119972574Y-87203494D01*
X120084112Y-87128967D01*
X120178967Y-87034112D01*
X120253494Y-86922574D01*
X120274052Y-86872942D01*
X120691240Y-86872942D01*
X120691240Y-87045058D01*
X120724818Y-87213866D01*
X120790684Y-87372881D01*
X120886306Y-87515990D01*
X121008010Y-87637694D01*
X121151119Y-87733316D01*
X121310134Y-87799182D01*
X121478942Y-87832760D01*
X121651058Y-87832760D01*
X121819866Y-87799182D01*
X121978881Y-87733316D01*
X122121990Y-87637694D01*
X122243694Y-87515990D01*
X122339316Y-87372881D01*
X122405182Y-87213866D01*
X122438760Y-87045058D01*
X122438760Y-86872942D01*
X122405182Y-86704134D01*
X122339316Y-86545119D01*
X122243694Y-86402010D01*
X122121990Y-86280306D01*
X121978881Y-86184684D01*
X121819866Y-86118818D01*
X121651058Y-86085240D01*
X121478942Y-86085240D01*
X121310134Y-86118818D01*
X121151119Y-86184684D01*
X121008010Y-86280306D01*
X120886306Y-86402010D01*
X120790684Y-86545119D01*
X120724818Y-86704134D01*
X120691240Y-86872942D01*
X120274052Y-86872942D01*
X120304829Y-86798640D01*
X120331000Y-86667073D01*
X120331000Y-86532927D01*
X120304829Y-86401360D01*
X120253494Y-86277426D01*
X120178967Y-86165888D01*
X120143331Y-86130252D01*
X120147574Y-86128494D01*
X120173255Y-86111334D01*
X120215888Y-86153967D01*
X120327426Y-86228494D01*
X120451360Y-86279829D01*
X120582927Y-86306000D01*
X120717073Y-86306000D01*
X120848640Y-86279829D01*
X120972574Y-86228494D01*
X121084112Y-86153967D01*
X121178967Y-86059112D01*
X121253494Y-85947574D01*
X121304829Y-85823640D01*
X121331000Y-85692073D01*
X121331000Y-85603003D01*
X122669000Y-85603003D01*
X122669000Y-85746997D01*
X122697092Y-85888225D01*
X122752196Y-86021258D01*
X122832195Y-86140985D01*
X122934015Y-86242805D01*
X123053742Y-86322804D01*
X123186775Y-86377908D01*
X123328003Y-86406000D01*
X123471997Y-86406000D01*
X123613225Y-86377908D01*
X123746258Y-86322804D01*
X123865985Y-86242805D01*
X123967805Y-86140985D01*
X124047804Y-86021258D01*
X124102908Y-85888225D01*
X124131000Y-85746997D01*
X124131000Y-85603003D01*
X124102908Y-85461775D01*
X124047804Y-85328742D01*
X123967805Y-85209015D01*
X123865985Y-85107195D01*
X123858230Y-85102013D01*
X139569000Y-85102013D01*
X139569000Y-85246007D01*
X139597092Y-85387235D01*
X139652196Y-85520268D01*
X139732195Y-85639995D01*
X139834015Y-85741815D01*
X139953742Y-85821814D01*
X140086775Y-85876918D01*
X140228003Y-85905010D01*
X140371997Y-85905010D01*
X140513225Y-85876918D01*
X140646258Y-85821814D01*
X140765985Y-85741815D01*
X140867805Y-85639995D01*
X140947804Y-85520268D01*
X141002908Y-85387235D01*
X141031000Y-85246007D01*
X141031000Y-85102013D01*
X141002908Y-84960785D01*
X140947804Y-84827752D01*
X140867805Y-84708025D01*
X140765985Y-84606205D01*
X140646258Y-84526206D01*
X140513225Y-84471102D01*
X140371997Y-84443010D01*
X140228003Y-84443010D01*
X140086775Y-84471102D01*
X139953742Y-84526206D01*
X139834015Y-84606205D01*
X139732195Y-84708025D01*
X139652196Y-84827752D01*
X139597092Y-84960785D01*
X139569000Y-85102013D01*
X123858230Y-85102013D01*
X123746258Y-85027196D01*
X123613225Y-84972092D01*
X123471997Y-84944000D01*
X123328003Y-84944000D01*
X123186775Y-84972092D01*
X123053742Y-85027196D01*
X122934015Y-85107195D01*
X122832195Y-85209015D01*
X122752196Y-85328742D01*
X122697092Y-85461775D01*
X122669000Y-85603003D01*
X121331000Y-85603003D01*
X121331000Y-85557927D01*
X121304829Y-85426360D01*
X121253494Y-85302426D01*
X121178967Y-85190888D01*
X121084112Y-85096033D01*
X120972574Y-85021506D01*
X120848640Y-84970171D01*
X120717073Y-84944000D01*
X120582927Y-84944000D01*
X120451360Y-84970171D01*
X120327426Y-85021506D01*
X120301745Y-85038666D01*
X120259112Y-84996033D01*
X120147574Y-84921506D01*
X120023640Y-84870171D01*
X119892073Y-84844000D01*
X119757927Y-84844000D01*
X119626360Y-84870171D01*
X119502426Y-84921506D01*
X119390888Y-84996033D01*
X119296033Y-85090888D01*
X119221506Y-85202426D01*
X119170171Y-85326360D01*
X119144000Y-85457927D01*
X119144000Y-85592073D01*
X119170171Y-85723640D01*
X119221506Y-85847574D01*
X119296033Y-85959112D01*
X119331669Y-85994748D01*
X119327426Y-85996506D01*
X119215888Y-86071033D01*
X119121033Y-86165888D01*
X119046506Y-86277426D01*
X118995171Y-86401360D01*
X118969000Y-86532927D01*
X103769758Y-86532927D01*
X103843494Y-86422574D01*
X103894829Y-86298640D01*
X103921000Y-86167073D01*
X103921000Y-86032927D01*
X103894829Y-85901360D01*
X103843494Y-85777426D01*
X103768967Y-85665888D01*
X103674112Y-85571033D01*
X103562574Y-85496506D01*
X103438640Y-85445171D01*
X103307073Y-85419000D01*
X103172927Y-85419000D01*
X103041360Y-85445171D01*
X102917426Y-85496506D01*
X102805888Y-85571033D01*
X102711033Y-85665888D01*
X102636506Y-85777426D01*
X102585171Y-85901360D01*
X102559000Y-86032927D01*
X91100770Y-86032927D01*
X91144112Y-86003967D01*
X91238967Y-85909112D01*
X91313494Y-85797574D01*
X91364829Y-85673640D01*
X91391000Y-85542073D01*
X91391000Y-85407927D01*
X91364829Y-85276360D01*
X91313494Y-85152426D01*
X91238967Y-85040888D01*
X91198079Y-85000000D01*
X91238967Y-84959112D01*
X91289871Y-84882927D01*
X116319000Y-84882927D01*
X116319000Y-85017073D01*
X116345171Y-85148640D01*
X116396506Y-85272574D01*
X116471033Y-85384112D01*
X116565888Y-85478967D01*
X116677426Y-85553494D01*
X116801360Y-85604829D01*
X116932927Y-85631000D01*
X117067073Y-85631000D01*
X117198640Y-85604829D01*
X117322574Y-85553494D01*
X117434112Y-85478967D01*
X117476813Y-85436266D01*
X117577426Y-85503494D01*
X117701360Y-85554829D01*
X117832927Y-85581000D01*
X117967073Y-85581000D01*
X118098640Y-85554829D01*
X118222574Y-85503494D01*
X118252619Y-85483419D01*
X118264228Y-85491176D01*
X118388162Y-85542511D01*
X118519729Y-85568682D01*
X118653875Y-85568682D01*
X118785442Y-85542511D01*
X118909376Y-85491176D01*
X119020914Y-85416649D01*
X119115769Y-85321794D01*
X119190296Y-85210256D01*
X119241631Y-85086322D01*
X119267802Y-84954755D01*
X119267802Y-84820609D01*
X119241631Y-84689042D01*
X119190296Y-84565108D01*
X119115769Y-84453570D01*
X119020914Y-84358715D01*
X118909376Y-84284188D01*
X118785442Y-84232853D01*
X118653875Y-84206682D01*
X118519729Y-84206682D01*
X118388162Y-84232853D01*
X118264228Y-84284188D01*
X118234183Y-84304263D01*
X118222574Y-84296506D01*
X118098640Y-84245171D01*
X117967073Y-84219000D01*
X117832927Y-84219000D01*
X117701360Y-84245171D01*
X117577426Y-84296506D01*
X117465888Y-84371033D01*
X117423187Y-84413734D01*
X117322574Y-84346506D01*
X117198640Y-84295171D01*
X117067073Y-84269000D01*
X116932927Y-84269000D01*
X116801360Y-84295171D01*
X116677426Y-84346506D01*
X116565888Y-84421033D01*
X116471033Y-84515888D01*
X116396506Y-84627426D01*
X116345171Y-84751360D01*
X116319000Y-84882927D01*
X91289871Y-84882927D01*
X91313494Y-84847574D01*
X91364829Y-84723640D01*
X91391000Y-84592073D01*
X91391000Y-84457927D01*
X91364829Y-84326360D01*
X91313494Y-84202426D01*
X91238967Y-84090888D01*
X91171006Y-84022927D01*
X94609000Y-84022927D01*
X94609000Y-84157073D01*
X94635171Y-84288640D01*
X94686506Y-84412574D01*
X94761033Y-84524112D01*
X94855888Y-84618967D01*
X94967426Y-84693494D01*
X95091360Y-84744829D01*
X95222927Y-84771000D01*
X95357073Y-84771000D01*
X95488640Y-84744829D01*
X95612574Y-84693494D01*
X95724112Y-84618967D01*
X95818967Y-84524112D01*
X95893494Y-84412574D01*
X95944829Y-84288640D01*
X95971000Y-84157073D01*
X95971000Y-84092927D01*
X100959000Y-84092927D01*
X100959000Y-84227073D01*
X100985171Y-84358640D01*
X101036506Y-84482574D01*
X101111033Y-84594112D01*
X101205888Y-84688967D01*
X101317426Y-84763494D01*
X101441360Y-84814829D01*
X101572927Y-84841000D01*
X101707073Y-84841000D01*
X101838640Y-84814829D01*
X101962574Y-84763494D01*
X102074112Y-84688967D01*
X102168967Y-84594112D01*
X102243494Y-84482574D01*
X102294829Y-84358640D01*
X102321000Y-84227073D01*
X102321000Y-84108927D01*
X112556705Y-84108927D01*
X112556705Y-84243073D01*
X112582876Y-84374640D01*
X112634211Y-84498574D01*
X112708738Y-84610112D01*
X112803593Y-84704967D01*
X112915131Y-84779494D01*
X113039065Y-84830829D01*
X113170632Y-84857000D01*
X113304778Y-84857000D01*
X113436345Y-84830829D01*
X113560279Y-84779494D01*
X113671817Y-84704967D01*
X113766672Y-84610112D01*
X113841199Y-84498574D01*
X113892534Y-84374640D01*
X113918705Y-84243073D01*
X113918705Y-84108927D01*
X113903587Y-84032923D01*
X114119000Y-84032923D01*
X114119000Y-84167069D01*
X114145171Y-84298636D01*
X114196506Y-84422570D01*
X114271033Y-84534108D01*
X114365888Y-84628963D01*
X114477426Y-84703490D01*
X114601360Y-84754825D01*
X114732927Y-84780996D01*
X114867073Y-84780996D01*
X114998640Y-84754825D01*
X115122574Y-84703490D01*
X115234112Y-84628963D01*
X115328967Y-84534108D01*
X115403494Y-84422570D01*
X115454829Y-84298636D01*
X115481000Y-84167069D01*
X115481000Y-84032923D01*
X115454829Y-83901356D01*
X115451023Y-83892166D01*
X122583163Y-83892166D01*
X122583163Y-84036160D01*
X122611255Y-84177388D01*
X122666359Y-84310421D01*
X122746358Y-84430148D01*
X122848178Y-84531968D01*
X122967905Y-84611967D01*
X123100938Y-84667071D01*
X123242166Y-84695163D01*
X123386160Y-84695163D01*
X123527388Y-84667071D01*
X123660421Y-84611967D01*
X123780148Y-84531968D01*
X123881968Y-84430148D01*
X123961967Y-84310421D01*
X124017071Y-84177388D01*
X124045163Y-84036160D01*
X124045163Y-83892166D01*
X124017071Y-83750938D01*
X123961967Y-83617905D01*
X123881968Y-83498178D01*
X123780148Y-83396358D01*
X123660421Y-83316359D01*
X123527388Y-83261255D01*
X123386160Y-83233163D01*
X123242166Y-83233163D01*
X123100938Y-83261255D01*
X122967905Y-83316359D01*
X122848178Y-83396358D01*
X122746358Y-83498178D01*
X122666359Y-83617905D01*
X122611255Y-83750938D01*
X122583163Y-83892166D01*
X115451023Y-83892166D01*
X115403494Y-83777422D01*
X115328967Y-83665884D01*
X115234112Y-83571029D01*
X115122574Y-83496502D01*
X114998640Y-83445167D01*
X114867073Y-83418996D01*
X114732927Y-83418996D01*
X114601360Y-83445167D01*
X114477426Y-83496502D01*
X114365888Y-83571029D01*
X114271033Y-83665884D01*
X114196506Y-83777422D01*
X114145171Y-83901356D01*
X114119000Y-84032923D01*
X113903587Y-84032923D01*
X113892534Y-83977360D01*
X113841199Y-83853426D01*
X113766672Y-83741888D01*
X113671817Y-83647033D01*
X113560279Y-83572506D01*
X113436345Y-83521171D01*
X113304778Y-83495000D01*
X113170632Y-83495000D01*
X113039065Y-83521171D01*
X112915131Y-83572506D01*
X112803593Y-83647033D01*
X112708738Y-83741888D01*
X112634211Y-83853426D01*
X112582876Y-83977360D01*
X112556705Y-84108927D01*
X102321000Y-84108927D01*
X102321000Y-84092927D01*
X102294829Y-83961360D01*
X102243494Y-83837426D01*
X102168967Y-83725888D01*
X102074112Y-83631033D01*
X101962574Y-83556506D01*
X101838640Y-83505171D01*
X101707073Y-83479000D01*
X101572927Y-83479000D01*
X101441360Y-83505171D01*
X101317426Y-83556506D01*
X101205888Y-83631033D01*
X101111033Y-83725888D01*
X101036506Y-83837426D01*
X100985171Y-83961360D01*
X100959000Y-84092927D01*
X95971000Y-84092927D01*
X95971000Y-84022927D01*
X95944829Y-83891360D01*
X95893494Y-83767426D01*
X95818967Y-83655888D01*
X95724112Y-83561033D01*
X95612574Y-83486506D01*
X95488640Y-83435171D01*
X95357073Y-83409000D01*
X95222927Y-83409000D01*
X95091360Y-83435171D01*
X94967426Y-83486506D01*
X94855888Y-83561033D01*
X94761033Y-83655888D01*
X94686506Y-83767426D01*
X94635171Y-83891360D01*
X94609000Y-84022927D01*
X91171006Y-84022927D01*
X91144112Y-83996033D01*
X91032574Y-83921506D01*
X90908640Y-83870171D01*
X90777073Y-83844000D01*
X90642927Y-83844000D01*
X90511360Y-83870171D01*
X90501000Y-83874462D01*
X90501000Y-83742927D01*
X90474829Y-83611360D01*
X90423494Y-83487426D01*
X90401931Y-83455155D01*
X90413225Y-83452908D01*
X90546258Y-83397804D01*
X90665985Y-83317805D01*
X90767805Y-83215985D01*
X90847804Y-83096258D01*
X90902908Y-82963225D01*
X90931000Y-82821997D01*
X90931000Y-82678003D01*
X90902908Y-82536775D01*
X90866138Y-82448003D01*
X93339000Y-82448003D01*
X93339000Y-82591997D01*
X93367092Y-82733225D01*
X93422196Y-82866258D01*
X93502195Y-82985985D01*
X93604015Y-83087805D01*
X93723742Y-83167804D01*
X93856775Y-83222908D01*
X93998003Y-83251000D01*
X94141997Y-83251000D01*
X94283225Y-83222908D01*
X94416258Y-83167804D01*
X94453489Y-83142927D01*
X99759000Y-83142927D01*
X99759000Y-83277073D01*
X99785171Y-83408640D01*
X99836506Y-83532574D01*
X99911033Y-83644112D01*
X100005888Y-83738967D01*
X100117426Y-83813494D01*
X100241360Y-83864829D01*
X100372927Y-83891000D01*
X100507073Y-83891000D01*
X100638640Y-83864829D01*
X100762574Y-83813494D01*
X100874112Y-83738967D01*
X100968967Y-83644112D01*
X101043494Y-83532574D01*
X101094829Y-83408640D01*
X101121000Y-83277073D01*
X101121000Y-83142927D01*
X101094829Y-83011360D01*
X101043494Y-82887426D01*
X100968967Y-82775888D01*
X100874112Y-82681033D01*
X100762574Y-82606506D01*
X100638640Y-82555171D01*
X100507073Y-82529000D01*
X100372927Y-82529000D01*
X100241360Y-82555171D01*
X100117426Y-82606506D01*
X100005888Y-82681033D01*
X99911033Y-82775888D01*
X99836506Y-82887426D01*
X99785171Y-83011360D01*
X99759000Y-83142927D01*
X94453489Y-83142927D01*
X94535985Y-83087805D01*
X94637805Y-82985985D01*
X94717804Y-82866258D01*
X94772908Y-82733225D01*
X94801000Y-82591997D01*
X94801000Y-82448003D01*
X94772908Y-82306775D01*
X94717804Y-82173742D01*
X94637805Y-82054015D01*
X94535985Y-81952195D01*
X94416258Y-81872196D01*
X94283225Y-81817092D01*
X94141997Y-81789000D01*
X93998003Y-81789000D01*
X93856775Y-81817092D01*
X93723742Y-81872196D01*
X93604015Y-81952195D01*
X93502195Y-82054015D01*
X93422196Y-82173742D01*
X93367092Y-82306775D01*
X93339000Y-82448003D01*
X90866138Y-82448003D01*
X90847804Y-82403742D01*
X90767805Y-82284015D01*
X90665985Y-82182195D01*
X90546258Y-82102196D01*
X90413225Y-82047092D01*
X90271997Y-82019000D01*
X90128003Y-82019000D01*
X89986775Y-82047092D01*
X89853742Y-82102196D01*
X89737585Y-82179810D01*
X89696258Y-82152196D01*
X89563225Y-82097092D01*
X89421997Y-82069000D01*
X89278003Y-82069000D01*
X89136775Y-82097092D01*
X89003742Y-82152196D01*
X88884015Y-82232195D01*
X88782195Y-82334015D01*
X88702196Y-82453742D01*
X88647092Y-82586775D01*
X88619000Y-82728003D01*
X87307854Y-82728003D01*
X87297804Y-82703742D01*
X87217805Y-82584015D01*
X87135611Y-82501821D01*
X87180649Y-82434416D01*
X87233869Y-82305933D01*
X87261000Y-82169535D01*
X87261000Y-82030465D01*
X87233869Y-81894067D01*
X87180649Y-81765584D01*
X87103386Y-81649951D01*
X87005049Y-81551614D01*
X86889416Y-81474351D01*
X86760933Y-81421131D01*
X86624535Y-81394000D01*
X86485465Y-81394000D01*
X86349067Y-81421131D01*
X86220584Y-81474351D01*
X86104951Y-81551614D01*
X86006614Y-81649951D01*
X85929351Y-81765584D01*
X85876131Y-81894067D01*
X85855259Y-81999000D01*
X85838003Y-81999000D01*
X85696775Y-82027092D01*
X85563742Y-82082196D01*
X85489966Y-82131491D01*
X85386258Y-82062196D01*
X85253225Y-82007092D01*
X85111997Y-81979000D01*
X84968003Y-81979000D01*
X84826775Y-82007092D01*
X84693742Y-82062196D01*
X84590000Y-82131514D01*
X84486258Y-82062196D01*
X84353225Y-82007092D01*
X84211997Y-81979000D01*
X84068003Y-81979000D01*
X83926775Y-82007092D01*
X83793742Y-82062196D01*
X83674015Y-82142195D01*
X83572195Y-82244015D01*
X83492196Y-82363742D01*
X83437092Y-82496775D01*
X83409000Y-82638003D01*
X80456000Y-82638003D01*
X80456000Y-81163265D01*
X81875034Y-81163265D01*
X82004227Y-81220795D01*
X82123226Y-81327417D01*
X82232000Y-81299439D01*
X82232000Y-81043000D01*
X83578000Y-81043000D01*
X83578000Y-81299439D01*
X83686774Y-81327417D01*
X83805773Y-81220795D01*
X83934966Y-81163265D01*
X85805034Y-81163265D01*
X85988641Y-81217759D01*
X86106002Y-81313823D01*
X86212000Y-81277757D01*
X86212000Y-81043000D01*
X87958000Y-81043000D01*
X87958000Y-81277757D01*
X88063998Y-81313823D01*
X88132193Y-81258003D01*
X98339000Y-81258003D01*
X98339000Y-81401997D01*
X98367092Y-81543225D01*
X98422196Y-81676258D01*
X98502195Y-81795985D01*
X98604015Y-81897805D01*
X98723742Y-81977804D01*
X98856775Y-82032908D01*
X98998003Y-82061000D01*
X99141997Y-82061000D01*
X99283225Y-82032908D01*
X99416258Y-81977804D01*
X99535985Y-81897805D01*
X99637805Y-81795985D01*
X99717804Y-81676258D01*
X99772908Y-81543225D01*
X99801000Y-81401997D01*
X99801000Y-81258003D01*
X99772908Y-81116775D01*
X99717804Y-80983742D01*
X99637805Y-80864015D01*
X99535985Y-80762195D01*
X99416258Y-80682196D01*
X99283225Y-80627092D01*
X99141997Y-80599000D01*
X98998003Y-80599000D01*
X98856775Y-80627092D01*
X98723742Y-80682196D01*
X98604015Y-80762195D01*
X98502195Y-80864015D01*
X98422196Y-80983742D01*
X98367092Y-81116775D01*
X98339000Y-81258003D01*
X88132193Y-81258003D01*
X88181359Y-81217759D01*
X88364966Y-81163265D01*
X88326574Y-81043000D01*
X87958000Y-81043000D01*
X86212000Y-81043000D01*
X85843426Y-81043000D01*
X85805034Y-81163265D01*
X83934966Y-81163265D01*
X83896574Y-81043000D01*
X83578000Y-81043000D01*
X82232000Y-81043000D01*
X81913426Y-81043000D01*
X81875034Y-81163265D01*
X80456000Y-81163265D01*
X80456000Y-80456000D01*
X103416291Y-80456000D01*
X103343291Y-80529000D01*
M02*
