G04 #@! TF.GenerationSoftware,KiCad,Pcbnew,5.1.2*
G04 #@! TF.CreationDate,2019-07-22T13:38:30+02:00*
G04 #@! TF.ProjectId,TS100C,54533130-3043-42e6-9b69-6361645f7063,rev?*
G04 #@! TF.SameCoordinates,Original*
G04 #@! TF.FileFunction,Soldermask,Bot*
G04 #@! TF.FilePolarity,Negative*
%FSLAX46Y46*%
G04 Gerber Fmt 4.6, Leading zero omitted, Abs format (unit mm)*
G04 Created by KiCad (PCBNEW 5.1.2) date 2019-07-22 13:38:30*
%MOMM*%
%LPD*%
G04 APERTURE LIST*
%ADD10C,0.150000*%
%ADD11C,0.100000*%
G04 APERTURE END LIST*
D10*
X131000000Y-80500000D02*
X164000000Y-80500000D01*
X130000000Y-80000000D02*
X131000000Y-80500000D01*
X130000000Y-90000000D02*
X131000000Y-89500000D01*
X131000000Y-89500000D02*
X164000000Y-89500000D01*
X80000000Y-80000000D02*
X80000000Y-90000000D01*
X130000000Y-90000000D02*
X80000000Y-90000000D01*
X164000000Y-80500000D02*
X164000000Y-89500000D01*
X80000000Y-80000000D02*
X130000000Y-80000000D01*
D11*
G36*
X87752621Y-88718682D02*
G01*
X87865721Y-88752990D01*
X87969955Y-88808704D01*
X88061317Y-88883683D01*
X88136296Y-88975045D01*
X88192010Y-89079279D01*
X88226318Y-89192379D01*
X88237903Y-89310000D01*
X88226318Y-89427621D01*
X88192010Y-89540721D01*
X88136296Y-89644955D01*
X88061317Y-89736317D01*
X87969955Y-89811296D01*
X87865721Y-89867010D01*
X87752621Y-89901318D01*
X87664474Y-89910000D01*
X86505526Y-89910000D01*
X86417379Y-89901318D01*
X86304279Y-89867010D01*
X86200045Y-89811296D01*
X86108683Y-89736317D01*
X86033704Y-89644955D01*
X85977990Y-89540721D01*
X85943682Y-89427621D01*
X85932097Y-89310000D01*
X85943682Y-89192379D01*
X85977990Y-89079279D01*
X86033704Y-88975045D01*
X86108683Y-88883683D01*
X86200045Y-88808704D01*
X86304279Y-88752990D01*
X86417379Y-88718682D01*
X86505526Y-88710000D01*
X87664474Y-88710000D01*
X87752621Y-88718682D01*
X87752621Y-88718682D01*
G37*
G36*
X83322621Y-88718682D02*
G01*
X83435721Y-88752990D01*
X83539955Y-88808704D01*
X83631317Y-88883683D01*
X83706296Y-88975045D01*
X83762010Y-89079279D01*
X83796318Y-89192379D01*
X83807903Y-89310000D01*
X83796318Y-89427621D01*
X83762010Y-89540721D01*
X83706296Y-89644955D01*
X83631317Y-89736317D01*
X83539955Y-89811296D01*
X83435721Y-89867010D01*
X83322621Y-89901318D01*
X83234474Y-89910000D01*
X82575526Y-89910000D01*
X82487379Y-89901318D01*
X82374279Y-89867010D01*
X82270045Y-89811296D01*
X82178683Y-89736317D01*
X82103704Y-89644955D01*
X82047990Y-89540721D01*
X82013682Y-89427621D01*
X82002097Y-89310000D01*
X82013682Y-89192379D01*
X82047990Y-89079279D01*
X82103704Y-88975045D01*
X82178683Y-88883683D01*
X82270045Y-88808704D01*
X82374279Y-88752990D01*
X82487379Y-88718682D01*
X82575526Y-88710000D01*
X83234474Y-88710000D01*
X83322621Y-88718682D01*
X83322621Y-88718682D01*
G37*
G36*
X121680642Y-88409630D02*
G01*
X121737903Y-88421020D01*
X121845780Y-88465704D01*
X121942858Y-88530569D01*
X122025431Y-88613142D01*
X122090296Y-88710220D01*
X122134980Y-88818097D01*
X122157760Y-88932619D01*
X122157760Y-89049381D01*
X122134980Y-89163903D01*
X122090296Y-89271780D01*
X122025431Y-89368858D01*
X121942858Y-89451431D01*
X121845780Y-89516296D01*
X121737903Y-89560980D01*
X121680642Y-89572370D01*
X121623382Y-89583760D01*
X121506618Y-89583760D01*
X121449358Y-89572370D01*
X121392097Y-89560980D01*
X121284220Y-89516296D01*
X121187142Y-89451431D01*
X121104569Y-89368858D01*
X121039704Y-89271780D01*
X120995020Y-89163903D01*
X120972240Y-89049381D01*
X120972240Y-88932619D01*
X120995020Y-88818097D01*
X121039704Y-88710220D01*
X121104569Y-88613142D01*
X121187142Y-88530569D01*
X121284220Y-88465704D01*
X121392097Y-88421020D01*
X121449358Y-88409630D01*
X121506618Y-88398240D01*
X121623382Y-88398240D01*
X121680642Y-88409630D01*
X121680642Y-88409630D01*
G37*
G36*
X129026946Y-88608421D02*
G01*
X129056703Y-88617447D01*
X129084129Y-88632107D01*
X129108166Y-88651834D01*
X129127893Y-88675871D01*
X129142553Y-88703297D01*
X129151579Y-88733054D01*
X129155000Y-88767781D01*
X129155000Y-89282219D01*
X129151579Y-89316946D01*
X129142553Y-89346703D01*
X129127893Y-89374129D01*
X129108166Y-89398166D01*
X129084129Y-89417893D01*
X129056703Y-89432553D01*
X129026946Y-89441579D01*
X128992219Y-89445000D01*
X128527781Y-89445000D01*
X128493054Y-89441579D01*
X128463297Y-89432553D01*
X128435871Y-89417893D01*
X128411834Y-89398166D01*
X128392107Y-89374129D01*
X128377447Y-89346703D01*
X128368421Y-89316946D01*
X128365000Y-89282219D01*
X128365000Y-88767781D01*
X128368421Y-88733054D01*
X128377447Y-88703297D01*
X128392107Y-88675871D01*
X128411834Y-88651834D01*
X128435871Y-88632107D01*
X128463297Y-88617447D01*
X128493054Y-88608421D01*
X128527781Y-88605000D01*
X128992219Y-88605000D01*
X129026946Y-88608421D01*
X129026946Y-88608421D01*
G37*
G36*
X128056946Y-88608421D02*
G01*
X128086703Y-88617447D01*
X128114129Y-88632107D01*
X128138166Y-88651834D01*
X128157893Y-88675871D01*
X128172553Y-88703297D01*
X128181579Y-88733054D01*
X128185000Y-88767781D01*
X128185000Y-89282219D01*
X128181579Y-89316946D01*
X128172553Y-89346703D01*
X128157893Y-89374129D01*
X128138166Y-89398166D01*
X128114129Y-89417893D01*
X128086703Y-89432553D01*
X128056946Y-89441579D01*
X128022219Y-89445000D01*
X127557781Y-89445000D01*
X127523054Y-89441579D01*
X127493297Y-89432553D01*
X127465871Y-89417893D01*
X127441834Y-89398166D01*
X127422107Y-89374129D01*
X127407447Y-89346703D01*
X127398421Y-89316946D01*
X127395000Y-89282219D01*
X127395000Y-88767781D01*
X127398421Y-88733054D01*
X127407447Y-88703297D01*
X127422107Y-88675871D01*
X127441834Y-88651834D01*
X127465871Y-88632107D01*
X127493297Y-88617447D01*
X127523054Y-88608421D01*
X127557781Y-88605000D01*
X128022219Y-88605000D01*
X128056946Y-88608421D01*
X128056946Y-88608421D01*
G37*
G36*
X126100000Y-89420000D02*
G01*
X123900000Y-89420000D01*
X123900000Y-80580000D01*
X126100000Y-80580000D01*
X126100000Y-89420000D01*
X126100000Y-89420000D01*
G37*
G36*
X116658272Y-87403798D02*
G01*
X116766379Y-87448578D01*
X116863672Y-87513587D01*
X116946413Y-87596328D01*
X117011422Y-87693621D01*
X117056202Y-87801728D01*
X117079030Y-87916493D01*
X117079030Y-88033507D01*
X117056202Y-88148272D01*
X117011422Y-88256379D01*
X116946413Y-88353672D01*
X116863672Y-88436413D01*
X116766379Y-88501422D01*
X116658272Y-88546202D01*
X116543507Y-88569030D01*
X116426493Y-88569030D01*
X116311728Y-88546202D01*
X116203621Y-88501422D01*
X116106328Y-88436413D01*
X116023587Y-88353672D01*
X115958578Y-88256379D01*
X115913798Y-88148272D01*
X115890970Y-88033507D01*
X115890970Y-87916493D01*
X115913798Y-87801728D01*
X115958578Y-87693621D01*
X116023587Y-87596328D01*
X116106328Y-87513587D01*
X116203621Y-87448578D01*
X116311728Y-87403798D01*
X116426493Y-87380970D01*
X116543507Y-87380970D01*
X116658272Y-87403798D01*
X116658272Y-87403798D01*
G37*
G36*
X152224370Y-86323080D02*
G01*
X152320860Y-86342273D01*
X152521048Y-86425194D01*
X152701204Y-86545570D01*
X152854430Y-86698796D01*
X152974806Y-86878952D01*
X153057727Y-87079140D01*
X153057727Y-87079142D01*
X153100000Y-87291659D01*
X153100000Y-87508341D01*
X153079961Y-87609081D01*
X153057727Y-87720860D01*
X152974806Y-87921048D01*
X152854430Y-88101204D01*
X152701204Y-88254430D01*
X152521048Y-88374806D01*
X152320860Y-88457727D01*
X152235851Y-88474636D01*
X152108341Y-88500000D01*
X151891659Y-88500000D01*
X151764149Y-88474636D01*
X151679140Y-88457727D01*
X151478952Y-88374806D01*
X151298796Y-88254430D01*
X151145570Y-88101204D01*
X151025194Y-87921048D01*
X150942273Y-87720860D01*
X150920039Y-87609081D01*
X150900000Y-87508341D01*
X150900000Y-87291659D01*
X150942273Y-87079142D01*
X150942273Y-87079140D01*
X151025194Y-86878952D01*
X151145570Y-86698796D01*
X151298796Y-86545570D01*
X151478952Y-86425194D01*
X151679140Y-86342273D01*
X151775630Y-86323080D01*
X151891659Y-86300000D01*
X152108341Y-86300000D01*
X152224370Y-86323080D01*
X152224370Y-86323080D01*
G37*
G36*
X128056946Y-87608421D02*
G01*
X128086703Y-87617447D01*
X128114129Y-87632107D01*
X128138166Y-87651834D01*
X128157893Y-87675871D01*
X128172553Y-87703297D01*
X128181579Y-87733054D01*
X128185000Y-87767781D01*
X128185000Y-88282219D01*
X128181579Y-88316946D01*
X128172553Y-88346703D01*
X128157893Y-88374129D01*
X128138166Y-88398166D01*
X128114129Y-88417893D01*
X128086703Y-88432553D01*
X128056946Y-88441579D01*
X128022219Y-88445000D01*
X127557781Y-88445000D01*
X127523054Y-88441579D01*
X127493297Y-88432553D01*
X127465871Y-88417893D01*
X127441834Y-88398166D01*
X127422107Y-88374129D01*
X127407447Y-88346703D01*
X127398421Y-88316946D01*
X127395000Y-88282219D01*
X127395000Y-87767781D01*
X127398421Y-87733054D01*
X127407447Y-87703297D01*
X127422107Y-87675871D01*
X127441834Y-87651834D01*
X127465871Y-87632107D01*
X127493297Y-87617447D01*
X127523054Y-87608421D01*
X127557781Y-87605000D01*
X128022219Y-87605000D01*
X128056946Y-87608421D01*
X128056946Y-87608421D01*
G37*
G36*
X129026946Y-87608421D02*
G01*
X129056703Y-87617447D01*
X129084129Y-87632107D01*
X129108166Y-87651834D01*
X129127893Y-87675871D01*
X129142553Y-87703297D01*
X129151579Y-87733054D01*
X129155000Y-87767781D01*
X129155000Y-88282219D01*
X129151579Y-88316946D01*
X129142553Y-88346703D01*
X129127893Y-88374129D01*
X129108166Y-88398166D01*
X129084129Y-88417893D01*
X129056703Y-88432553D01*
X129026946Y-88441579D01*
X128992219Y-88445000D01*
X128527781Y-88445000D01*
X128493054Y-88441579D01*
X128463297Y-88432553D01*
X128435871Y-88417893D01*
X128411834Y-88398166D01*
X128392107Y-88374129D01*
X128377447Y-88346703D01*
X128368421Y-88316946D01*
X128365000Y-88282219D01*
X128365000Y-87767781D01*
X128368421Y-87733054D01*
X128377447Y-87703297D01*
X128392107Y-87675871D01*
X128411834Y-87651834D01*
X128435871Y-87632107D01*
X128463297Y-87617447D01*
X128493054Y-87608421D01*
X128527781Y-87605000D01*
X128992219Y-87605000D01*
X129026946Y-87608421D01*
X129026946Y-87608421D01*
G37*
G36*
X86678966Y-87471332D02*
G01*
X86756313Y-87503370D01*
X86825919Y-87549879D01*
X86885121Y-87609081D01*
X86931630Y-87678687D01*
X86963668Y-87756034D01*
X86980000Y-87838139D01*
X86980000Y-87921861D01*
X86963668Y-88003966D01*
X86931630Y-88081313D01*
X86885121Y-88150919D01*
X86825919Y-88210121D01*
X86756313Y-88256630D01*
X86678966Y-88288668D01*
X86596861Y-88305000D01*
X86513139Y-88305000D01*
X86431034Y-88288668D01*
X86353687Y-88256630D01*
X86284081Y-88210121D01*
X86224879Y-88150919D01*
X86178370Y-88081313D01*
X86146332Y-88003966D01*
X86130000Y-87921861D01*
X86130000Y-87838139D01*
X86146332Y-87756034D01*
X86178370Y-87678687D01*
X86224879Y-87609081D01*
X86284081Y-87549879D01*
X86353687Y-87503370D01*
X86431034Y-87471332D01*
X86513139Y-87455000D01*
X86596861Y-87455000D01*
X86678966Y-87471332D01*
X86678966Y-87471332D01*
G37*
G36*
X154125000Y-87700000D02*
G01*
X153275000Y-87700000D01*
X153275000Y-86450000D01*
X154125000Y-86450000D01*
X154125000Y-87700000D01*
X154125000Y-87700000D01*
G37*
G36*
X156275000Y-87700000D02*
G01*
X155425000Y-87700000D01*
X155425000Y-86450000D01*
X156275000Y-86450000D01*
X156275000Y-87700000D01*
X156275000Y-87700000D01*
G37*
G36*
X121680642Y-86377630D02*
G01*
X121737903Y-86389020D01*
X121845780Y-86433704D01*
X121942858Y-86498569D01*
X122025431Y-86581142D01*
X122090296Y-86678220D01*
X122134980Y-86786097D01*
X122157760Y-86900619D01*
X122157760Y-87017381D01*
X122134980Y-87131903D01*
X122090296Y-87239780D01*
X122025431Y-87336858D01*
X121942858Y-87419431D01*
X121845780Y-87484296D01*
X121737903Y-87528980D01*
X121680642Y-87540370D01*
X121623382Y-87551760D01*
X121506618Y-87551760D01*
X121449358Y-87540370D01*
X121392097Y-87528980D01*
X121284220Y-87484296D01*
X121187142Y-87419431D01*
X121104569Y-87336858D01*
X121039704Y-87239780D01*
X120995020Y-87131903D01*
X120972240Y-87017381D01*
X120972240Y-86900619D01*
X120995020Y-86786097D01*
X121039704Y-86678220D01*
X121104569Y-86581142D01*
X121187142Y-86498569D01*
X121284220Y-86433704D01*
X121392097Y-86389020D01*
X121449358Y-86377630D01*
X121506618Y-86366240D01*
X121623382Y-86366240D01*
X121680642Y-86377630D01*
X121680642Y-86377630D01*
G37*
G36*
X128056946Y-86608421D02*
G01*
X128086703Y-86617447D01*
X128114129Y-86632107D01*
X128138166Y-86651834D01*
X128157893Y-86675871D01*
X128172553Y-86703297D01*
X128181579Y-86733054D01*
X128185000Y-86767781D01*
X128185000Y-87282219D01*
X128181579Y-87316946D01*
X128172553Y-87346703D01*
X128157893Y-87374129D01*
X128138166Y-87398166D01*
X128114129Y-87417893D01*
X128086703Y-87432553D01*
X128056946Y-87441579D01*
X128022219Y-87445000D01*
X127557781Y-87445000D01*
X127523054Y-87441579D01*
X127493297Y-87432553D01*
X127465871Y-87417893D01*
X127441834Y-87398166D01*
X127422107Y-87374129D01*
X127407447Y-87346703D01*
X127398421Y-87316946D01*
X127395000Y-87282219D01*
X127395000Y-86767781D01*
X127398421Y-86733054D01*
X127407447Y-86703297D01*
X127422107Y-86675871D01*
X127441834Y-86651834D01*
X127465871Y-86632107D01*
X127493297Y-86617447D01*
X127523054Y-86608421D01*
X127557781Y-86605000D01*
X128022219Y-86605000D01*
X128056946Y-86608421D01*
X128056946Y-86608421D01*
G37*
G36*
X129026946Y-86608421D02*
G01*
X129056703Y-86617447D01*
X129084129Y-86632107D01*
X129108166Y-86651834D01*
X129127893Y-86675871D01*
X129142553Y-86703297D01*
X129151579Y-86733054D01*
X129155000Y-86767781D01*
X129155000Y-87282219D01*
X129151579Y-87316946D01*
X129142553Y-87346703D01*
X129127893Y-87374129D01*
X129108166Y-87398166D01*
X129084129Y-87417893D01*
X129056703Y-87432553D01*
X129026946Y-87441579D01*
X128992219Y-87445000D01*
X128527781Y-87445000D01*
X128493054Y-87441579D01*
X128463297Y-87432553D01*
X128435871Y-87417893D01*
X128411834Y-87398166D01*
X128392107Y-87374129D01*
X128377447Y-87346703D01*
X128368421Y-87316946D01*
X128365000Y-87282219D01*
X128365000Y-86767781D01*
X128368421Y-86733054D01*
X128377447Y-86703297D01*
X128392107Y-86675871D01*
X128411834Y-86651834D01*
X128435871Y-86632107D01*
X128463297Y-86617447D01*
X128493054Y-86608421D01*
X128527781Y-86605000D01*
X128992219Y-86605000D01*
X129026946Y-86608421D01*
X129026946Y-86608421D01*
G37*
G36*
X163600000Y-87080000D02*
G01*
X158400000Y-87080000D01*
X158400000Y-82920000D01*
X163600000Y-82920000D01*
X163600000Y-87080000D01*
X163600000Y-87080000D01*
G37*
G36*
X143200000Y-86500000D02*
G01*
X141950000Y-86500000D01*
X141950000Y-85650000D01*
X143200000Y-85650000D01*
X143200000Y-86500000D01*
X143200000Y-86500000D01*
G37*
G36*
X139050000Y-86500000D02*
G01*
X137800000Y-86500000D01*
X137800000Y-85650000D01*
X139050000Y-85650000D01*
X139050000Y-86500000D01*
X139050000Y-86500000D01*
G37*
G36*
X128056946Y-85608421D02*
G01*
X128086703Y-85617447D01*
X128114129Y-85632107D01*
X128138166Y-85651834D01*
X128157893Y-85675871D01*
X128172553Y-85703297D01*
X128181579Y-85733054D01*
X128185000Y-85767781D01*
X128185000Y-86282219D01*
X128181579Y-86316946D01*
X128172553Y-86346703D01*
X128157893Y-86374129D01*
X128138166Y-86398166D01*
X128114129Y-86417893D01*
X128086703Y-86432553D01*
X128056946Y-86441579D01*
X128022219Y-86445000D01*
X127557781Y-86445000D01*
X127523054Y-86441579D01*
X127493297Y-86432553D01*
X127465871Y-86417893D01*
X127441834Y-86398166D01*
X127422107Y-86374129D01*
X127407447Y-86346703D01*
X127398421Y-86316946D01*
X127395000Y-86282219D01*
X127395000Y-85767781D01*
X127398421Y-85733054D01*
X127407447Y-85703297D01*
X127422107Y-85675871D01*
X127441834Y-85651834D01*
X127465871Y-85632107D01*
X127493297Y-85617447D01*
X127523054Y-85608421D01*
X127557781Y-85605000D01*
X128022219Y-85605000D01*
X128056946Y-85608421D01*
X128056946Y-85608421D01*
G37*
G36*
X129026946Y-85608421D02*
G01*
X129056703Y-85617447D01*
X129084129Y-85632107D01*
X129108166Y-85651834D01*
X129127893Y-85675871D01*
X129142553Y-85703297D01*
X129151579Y-85733054D01*
X129155000Y-85767781D01*
X129155000Y-86282219D01*
X129151579Y-86316946D01*
X129142553Y-86346703D01*
X129127893Y-86374129D01*
X129108166Y-86398166D01*
X129084129Y-86417893D01*
X129056703Y-86432553D01*
X129026946Y-86441579D01*
X128992219Y-86445000D01*
X128527781Y-86445000D01*
X128493054Y-86441579D01*
X128463297Y-86432553D01*
X128435871Y-86417893D01*
X128411834Y-86398166D01*
X128392107Y-86374129D01*
X128377447Y-86346703D01*
X128368421Y-86316946D01*
X128365000Y-86282219D01*
X128365000Y-85767781D01*
X128368421Y-85733054D01*
X128377447Y-85703297D01*
X128392107Y-85675871D01*
X128411834Y-85651834D01*
X128435871Y-85632107D01*
X128463297Y-85617447D01*
X128493054Y-85608421D01*
X128527781Y-85605000D01*
X128992219Y-85605000D01*
X129026946Y-85608421D01*
X129026946Y-85608421D01*
G37*
G36*
X129026946Y-84608421D02*
G01*
X129056703Y-84617447D01*
X129084129Y-84632107D01*
X129108166Y-84651834D01*
X129127893Y-84675871D01*
X129142553Y-84703297D01*
X129151579Y-84733054D01*
X129155000Y-84767781D01*
X129155000Y-85282219D01*
X129151579Y-85316946D01*
X129142553Y-85346703D01*
X129127893Y-85374129D01*
X129108166Y-85398166D01*
X129084129Y-85417893D01*
X129056703Y-85432553D01*
X129026946Y-85441579D01*
X128992219Y-85445000D01*
X128527781Y-85445000D01*
X128493054Y-85441579D01*
X128463297Y-85432553D01*
X128435871Y-85417893D01*
X128411834Y-85398166D01*
X128392107Y-85374129D01*
X128377447Y-85346703D01*
X128368421Y-85316946D01*
X128365000Y-85282219D01*
X128365000Y-84767781D01*
X128368421Y-84733054D01*
X128377447Y-84703297D01*
X128392107Y-84675871D01*
X128411834Y-84651834D01*
X128435871Y-84632107D01*
X128463297Y-84617447D01*
X128493054Y-84608421D01*
X128527781Y-84605000D01*
X128992219Y-84605000D01*
X129026946Y-84608421D01*
X129026946Y-84608421D01*
G37*
G36*
X128056946Y-84608421D02*
G01*
X128086703Y-84617447D01*
X128114129Y-84632107D01*
X128138166Y-84651834D01*
X128157893Y-84675871D01*
X128172553Y-84703297D01*
X128181579Y-84733054D01*
X128185000Y-84767781D01*
X128185000Y-85282219D01*
X128181579Y-85316946D01*
X128172553Y-85346703D01*
X128157893Y-85374129D01*
X128138166Y-85398166D01*
X128114129Y-85417893D01*
X128086703Y-85432553D01*
X128056946Y-85441579D01*
X128022219Y-85445000D01*
X127557781Y-85445000D01*
X127523054Y-85441579D01*
X127493297Y-85432553D01*
X127465871Y-85417893D01*
X127441834Y-85398166D01*
X127422107Y-85374129D01*
X127407447Y-85346703D01*
X127398421Y-85316946D01*
X127395000Y-85282219D01*
X127395000Y-84767781D01*
X127398421Y-84733054D01*
X127407447Y-84703297D01*
X127422107Y-84675871D01*
X127441834Y-84651834D01*
X127465871Y-84632107D01*
X127493297Y-84617447D01*
X127523054Y-84608421D01*
X127557781Y-84605000D01*
X128022219Y-84605000D01*
X128056946Y-84608421D01*
X128056946Y-84608421D01*
G37*
G36*
X139050000Y-84350000D02*
G01*
X137800000Y-84350000D01*
X137800000Y-83500000D01*
X139050000Y-83500000D01*
X139050000Y-84350000D01*
X139050000Y-84350000D01*
G37*
G36*
X143200000Y-84350000D02*
G01*
X141950000Y-84350000D01*
X141950000Y-83500000D01*
X143200000Y-83500000D01*
X143200000Y-84350000D01*
X143200000Y-84350000D01*
G37*
G36*
X152235851Y-81525364D02*
G01*
X152320860Y-81542273D01*
X152521048Y-81625194D01*
X152701204Y-81745570D01*
X152854430Y-81898796D01*
X152974806Y-82078952D01*
X153057727Y-82279140D01*
X153057727Y-82279142D01*
X153100000Y-82491659D01*
X153100000Y-82708341D01*
X153074636Y-82835851D01*
X153057727Y-82920860D01*
X152974806Y-83121048D01*
X152854430Y-83301204D01*
X152701204Y-83454430D01*
X152521048Y-83574806D01*
X152320860Y-83657727D01*
X152235851Y-83674636D01*
X152108341Y-83700000D01*
X151891659Y-83700000D01*
X151764149Y-83674636D01*
X151679140Y-83657727D01*
X151478952Y-83574806D01*
X151298796Y-83454430D01*
X151145570Y-83301204D01*
X151025194Y-83121048D01*
X150942273Y-82920860D01*
X150925364Y-82835851D01*
X150900000Y-82708341D01*
X150900000Y-82491659D01*
X150942273Y-82279142D01*
X150942273Y-82279140D01*
X151025194Y-82078952D01*
X151145570Y-81898796D01*
X151298796Y-81745570D01*
X151478952Y-81625194D01*
X151679140Y-81542273D01*
X151764149Y-81525364D01*
X151891659Y-81500000D01*
X152108341Y-81500000D01*
X152235851Y-81525364D01*
X152235851Y-81525364D01*
G37*
G36*
X156275000Y-83550000D02*
G01*
X155425000Y-83550000D01*
X155425000Y-82300000D01*
X156275000Y-82300000D01*
X156275000Y-83550000D01*
X156275000Y-83550000D01*
G37*
G36*
X154125000Y-83550000D02*
G01*
X153275000Y-83550000D01*
X153275000Y-82300000D01*
X154125000Y-82300000D01*
X154125000Y-83550000D01*
X154125000Y-83550000D01*
G37*
G36*
X127506946Y-81783421D02*
G01*
X127536703Y-81792447D01*
X127564129Y-81807107D01*
X127588166Y-81826834D01*
X127607893Y-81850871D01*
X127622553Y-81878297D01*
X127631579Y-81908054D01*
X127635000Y-81942781D01*
X127635000Y-82457219D01*
X127631579Y-82491946D01*
X127622553Y-82521703D01*
X127607893Y-82549129D01*
X127588166Y-82573166D01*
X127564129Y-82592893D01*
X127536703Y-82607553D01*
X127506946Y-82616579D01*
X127472219Y-82620000D01*
X127007781Y-82620000D01*
X126973054Y-82616579D01*
X126943297Y-82607553D01*
X126915871Y-82592893D01*
X126891834Y-82573166D01*
X126872107Y-82549129D01*
X126857447Y-82521703D01*
X126848421Y-82491946D01*
X126845000Y-82457219D01*
X126845000Y-81942781D01*
X126848421Y-81908054D01*
X126857447Y-81878297D01*
X126872107Y-81850871D01*
X126891834Y-81826834D01*
X126915871Y-81807107D01*
X126943297Y-81792447D01*
X126973054Y-81783421D01*
X127007781Y-81780000D01*
X127472219Y-81780000D01*
X127506946Y-81783421D01*
X127506946Y-81783421D01*
G37*
G36*
X128476946Y-81783421D02*
G01*
X128506703Y-81792447D01*
X128534129Y-81807107D01*
X128558166Y-81826834D01*
X128577893Y-81850871D01*
X128592553Y-81878297D01*
X128601579Y-81908054D01*
X128605000Y-81942781D01*
X128605000Y-82457219D01*
X128601579Y-82491946D01*
X128592553Y-82521703D01*
X128577893Y-82549129D01*
X128558166Y-82573166D01*
X128534129Y-82592893D01*
X128506703Y-82607553D01*
X128476946Y-82616579D01*
X128442219Y-82620000D01*
X127977781Y-82620000D01*
X127943054Y-82616579D01*
X127913297Y-82607553D01*
X127885871Y-82592893D01*
X127861834Y-82573166D01*
X127842107Y-82549129D01*
X127827447Y-82521703D01*
X127818421Y-82491946D01*
X127815000Y-82457219D01*
X127815000Y-81942781D01*
X127818421Y-81908054D01*
X127827447Y-81878297D01*
X127842107Y-81850871D01*
X127861834Y-81826834D01*
X127885871Y-81807107D01*
X127913297Y-81792447D01*
X127943054Y-81783421D01*
X127977781Y-81780000D01*
X128442219Y-81780000D01*
X128476946Y-81783421D01*
X128476946Y-81783421D01*
G37*
G36*
X86678966Y-81691332D02*
G01*
X86756313Y-81723370D01*
X86825919Y-81769879D01*
X86885121Y-81829081D01*
X86931630Y-81898687D01*
X86963668Y-81976034D01*
X86980000Y-82058139D01*
X86980000Y-82141861D01*
X86963668Y-82223966D01*
X86931630Y-82301313D01*
X86885121Y-82370919D01*
X86825919Y-82430121D01*
X86756313Y-82476630D01*
X86678966Y-82508668D01*
X86596861Y-82525000D01*
X86513139Y-82525000D01*
X86431034Y-82508668D01*
X86353687Y-82476630D01*
X86284081Y-82430121D01*
X86224879Y-82370919D01*
X86178370Y-82301313D01*
X86146332Y-82223966D01*
X86130000Y-82141861D01*
X86130000Y-82058139D01*
X86146332Y-81976034D01*
X86178370Y-81898687D01*
X86224879Y-81829081D01*
X86284081Y-81769879D01*
X86353687Y-81723370D01*
X86431034Y-81691332D01*
X86513139Y-81675000D01*
X86596861Y-81675000D01*
X86678966Y-81691332D01*
X86678966Y-81691332D01*
G37*
G36*
X128501946Y-80558421D02*
G01*
X128531703Y-80567447D01*
X128559129Y-80582107D01*
X128583166Y-80601834D01*
X128602893Y-80625871D01*
X128617553Y-80653297D01*
X128626579Y-80683054D01*
X128630000Y-80717781D01*
X128630000Y-81232219D01*
X128626579Y-81266946D01*
X128617553Y-81296703D01*
X128602893Y-81324129D01*
X128583166Y-81348166D01*
X128559129Y-81367893D01*
X128531703Y-81382553D01*
X128501946Y-81391579D01*
X128467219Y-81395000D01*
X128002781Y-81395000D01*
X127968054Y-81391579D01*
X127938297Y-81382553D01*
X127910871Y-81367893D01*
X127886834Y-81348166D01*
X127867107Y-81324129D01*
X127852447Y-81296703D01*
X127843421Y-81266946D01*
X127840000Y-81232219D01*
X127840000Y-80717781D01*
X127843421Y-80683054D01*
X127852447Y-80653297D01*
X127867107Y-80625871D01*
X127886834Y-80601834D01*
X127910871Y-80582107D01*
X127938297Y-80567447D01*
X127968054Y-80558421D01*
X128002781Y-80555000D01*
X128467219Y-80555000D01*
X128501946Y-80558421D01*
X128501946Y-80558421D01*
G37*
G36*
X127531946Y-80558421D02*
G01*
X127561703Y-80567447D01*
X127589129Y-80582107D01*
X127613166Y-80601834D01*
X127632893Y-80625871D01*
X127647553Y-80653297D01*
X127656579Y-80683054D01*
X127660000Y-80717781D01*
X127660000Y-81232219D01*
X127656579Y-81266946D01*
X127647553Y-81296703D01*
X127632893Y-81324129D01*
X127613166Y-81348166D01*
X127589129Y-81367893D01*
X127561703Y-81382553D01*
X127531946Y-81391579D01*
X127497219Y-81395000D01*
X127032781Y-81395000D01*
X126998054Y-81391579D01*
X126968297Y-81382553D01*
X126940871Y-81367893D01*
X126916834Y-81348166D01*
X126897107Y-81324129D01*
X126882447Y-81296703D01*
X126873421Y-81266946D01*
X126870000Y-81232219D01*
X126870000Y-80717781D01*
X126873421Y-80683054D01*
X126882447Y-80653297D01*
X126897107Y-80625871D01*
X126916834Y-80601834D01*
X126940871Y-80582107D01*
X126968297Y-80567447D01*
X126998054Y-80558421D01*
X127032781Y-80555000D01*
X127497219Y-80555000D01*
X127531946Y-80558421D01*
X127531946Y-80558421D01*
G37*
G36*
X87752621Y-80078682D02*
G01*
X87865721Y-80112990D01*
X87969955Y-80168704D01*
X88061317Y-80243683D01*
X88136296Y-80335045D01*
X88192010Y-80439279D01*
X88226318Y-80552379D01*
X88237903Y-80670000D01*
X88226318Y-80787621D01*
X88192010Y-80900721D01*
X88136296Y-81004955D01*
X88061317Y-81096317D01*
X87969955Y-81171296D01*
X87865721Y-81227010D01*
X87752621Y-81261318D01*
X87664474Y-81270000D01*
X86505526Y-81270000D01*
X86417379Y-81261318D01*
X86304279Y-81227010D01*
X86200045Y-81171296D01*
X86108683Y-81096317D01*
X86033704Y-81004955D01*
X85977990Y-80900721D01*
X85943682Y-80787621D01*
X85932097Y-80670000D01*
X85943682Y-80552379D01*
X85977990Y-80439279D01*
X86033704Y-80335045D01*
X86108683Y-80243683D01*
X86200045Y-80168704D01*
X86304279Y-80112990D01*
X86417379Y-80078682D01*
X86505526Y-80070000D01*
X87664474Y-80070000D01*
X87752621Y-80078682D01*
X87752621Y-80078682D01*
G37*
G36*
X83322621Y-80078682D02*
G01*
X83435721Y-80112990D01*
X83539955Y-80168704D01*
X83631317Y-80243683D01*
X83706296Y-80335045D01*
X83762010Y-80439279D01*
X83796318Y-80552379D01*
X83807903Y-80670000D01*
X83796318Y-80787621D01*
X83762010Y-80900721D01*
X83706296Y-81004955D01*
X83631317Y-81096317D01*
X83539955Y-81171296D01*
X83435721Y-81227010D01*
X83322621Y-81261318D01*
X83234474Y-81270000D01*
X82575526Y-81270000D01*
X82487379Y-81261318D01*
X82374279Y-81227010D01*
X82270045Y-81171296D01*
X82178683Y-81096317D01*
X82103704Y-81004955D01*
X82047990Y-80900721D01*
X82013682Y-80787621D01*
X82002097Y-80670000D01*
X82013682Y-80552379D01*
X82047990Y-80439279D01*
X82103704Y-80335045D01*
X82178683Y-80243683D01*
X82270045Y-80168704D01*
X82374279Y-80112990D01*
X82487379Y-80078682D01*
X82575526Y-80070000D01*
X83234474Y-80070000D01*
X83322621Y-80078682D01*
X83322621Y-80078682D01*
G37*
M02*
