G04 #@! TF.GenerationSoftware,KiCad,Pcbnew,5.1.2*
G04 #@! TF.CreationDate,2019-05-22T21:18:17+02:00*
G04 #@! TF.ProjectId,TS100C,54533130-3043-42e6-9b69-6361645f7063,rev?*
G04 #@! TF.SameCoordinates,Original*
G04 #@! TF.FileFunction,Soldermask,Bot*
G04 #@! TF.FilePolarity,Negative*
%FSLAX46Y46*%
G04 Gerber Fmt 4.6, Leading zero omitted, Abs format (unit mm)*
G04 Created by KiCad (PCBNEW 5.1.2) date 2019-05-22 21:18:17*
%MOMM*%
%LPD*%
G04 APERTURE LIST*
%ADD10C,0.150000*%
%ADD11C,0.100000*%
G04 APERTURE END LIST*
D10*
X131000000Y-80500000D02*
X164000000Y-80500000D01*
X130000000Y-80000000D02*
X131000000Y-80500000D01*
X130000000Y-90000000D02*
X131000000Y-89500000D01*
X131000000Y-89500000D02*
X164000000Y-89500000D01*
X80000000Y-80000000D02*
X80000000Y-90000000D01*
X130000000Y-90000000D02*
X80000000Y-90000000D01*
X164000000Y-80500000D02*
X164000000Y-89500000D01*
X80000000Y-80000000D02*
X130000000Y-80000000D01*
D11*
G36*
X87699152Y-88659154D02*
G01*
X87763206Y-88665463D01*
X87886486Y-88702860D01*
X88000101Y-88763588D01*
X88000102Y-88763589D01*
X88000104Y-88763590D01*
X88099686Y-88845314D01*
X88166969Y-88927300D01*
X88181412Y-88944899D01*
X88242140Y-89058514D01*
X88279537Y-89181794D01*
X88292164Y-89310000D01*
X88279537Y-89438206D01*
X88242140Y-89561486D01*
X88181412Y-89675101D01*
X88181410Y-89675104D01*
X88099686Y-89774686D01*
X88000104Y-89856410D01*
X88000102Y-89856411D01*
X88000101Y-89856412D01*
X87886486Y-89917140D01*
X87763206Y-89954537D01*
X87699152Y-89960846D01*
X87667126Y-89964000D01*
X86502874Y-89964000D01*
X86470848Y-89960846D01*
X86406794Y-89954537D01*
X86283514Y-89917140D01*
X86169899Y-89856412D01*
X86169898Y-89856411D01*
X86169896Y-89856410D01*
X86070314Y-89774686D01*
X85988590Y-89675104D01*
X85988588Y-89675101D01*
X85927860Y-89561486D01*
X85890463Y-89438206D01*
X85877836Y-89310000D01*
X85890463Y-89181794D01*
X85927860Y-89058514D01*
X85988588Y-88944899D01*
X86003031Y-88927300D01*
X86070314Y-88845314D01*
X86169896Y-88763590D01*
X86169898Y-88763589D01*
X86169899Y-88763588D01*
X86283514Y-88702860D01*
X86406794Y-88665463D01*
X86470848Y-88659154D01*
X86502874Y-88656000D01*
X87667126Y-88656000D01*
X87699152Y-88659154D01*
X87699152Y-88659154D01*
G37*
G36*
X83269152Y-88659154D02*
G01*
X83333206Y-88665463D01*
X83456486Y-88702860D01*
X83570101Y-88763588D01*
X83570102Y-88763589D01*
X83570104Y-88763590D01*
X83669686Y-88845314D01*
X83736969Y-88927300D01*
X83751412Y-88944899D01*
X83812140Y-89058514D01*
X83849537Y-89181794D01*
X83862164Y-89310000D01*
X83849537Y-89438206D01*
X83812140Y-89561486D01*
X83751412Y-89675101D01*
X83751410Y-89675104D01*
X83669686Y-89774686D01*
X83570104Y-89856410D01*
X83570102Y-89856411D01*
X83570101Y-89856412D01*
X83456486Y-89917140D01*
X83333206Y-89954537D01*
X83269152Y-89960846D01*
X83237126Y-89964000D01*
X82572874Y-89964000D01*
X82540848Y-89960846D01*
X82476794Y-89954537D01*
X82353514Y-89917140D01*
X82239899Y-89856412D01*
X82239898Y-89856411D01*
X82239896Y-89856410D01*
X82140314Y-89774686D01*
X82058590Y-89675104D01*
X82058588Y-89675101D01*
X81997860Y-89561486D01*
X81960463Y-89438206D01*
X81947836Y-89310000D01*
X81960463Y-89181794D01*
X81997860Y-89058514D01*
X82058588Y-88944899D01*
X82073031Y-88927300D01*
X82140314Y-88845314D01*
X82239896Y-88763590D01*
X82239898Y-88763589D01*
X82239899Y-88763588D01*
X82353514Y-88702860D01*
X82476794Y-88665463D01*
X82540848Y-88659154D01*
X82572874Y-88656000D01*
X83237126Y-88656000D01*
X83269152Y-88659154D01*
X83269152Y-88659154D01*
G37*
G36*
X121753652Y-88369094D02*
G01*
X121871354Y-88417848D01*
X121871356Y-88417849D01*
X121977285Y-88488629D01*
X122067371Y-88578715D01*
X122136058Y-88681511D01*
X122138152Y-88684646D01*
X122186906Y-88802348D01*
X122211760Y-88927298D01*
X122211760Y-89054702D01*
X122186906Y-89179652D01*
X122147618Y-89274500D01*
X122138151Y-89297356D01*
X122067371Y-89403285D01*
X121977285Y-89493371D01*
X121871356Y-89564151D01*
X121871355Y-89564152D01*
X121871354Y-89564152D01*
X121753652Y-89612906D01*
X121628702Y-89637760D01*
X121501298Y-89637760D01*
X121376348Y-89612906D01*
X121258646Y-89564152D01*
X121258645Y-89564152D01*
X121258644Y-89564151D01*
X121152715Y-89493371D01*
X121062629Y-89403285D01*
X120991849Y-89297356D01*
X120982382Y-89274500D01*
X120943094Y-89179652D01*
X120918240Y-89054702D01*
X120918240Y-88927298D01*
X120943094Y-88802348D01*
X120991848Y-88684646D01*
X120993943Y-88681511D01*
X121062629Y-88578715D01*
X121152715Y-88488629D01*
X121258644Y-88417849D01*
X121258646Y-88417848D01*
X121376348Y-88369094D01*
X121501298Y-88344240D01*
X121628702Y-88344240D01*
X121753652Y-88369094D01*
X121753652Y-88369094D01*
G37*
G36*
X128108489Y-84554706D02*
G01*
X128138762Y-84563889D01*
X128166667Y-84578805D01*
X128195701Y-84602633D01*
X128216076Y-84616247D01*
X128238714Y-84625624D01*
X128262748Y-84630405D01*
X128287252Y-84630405D01*
X128311285Y-84625625D01*
X128333924Y-84616247D01*
X128354299Y-84602633D01*
X128383333Y-84578805D01*
X128411238Y-84563889D01*
X128441511Y-84554706D01*
X128479141Y-84551000D01*
X129040859Y-84551000D01*
X129078489Y-84554706D01*
X129108762Y-84563889D01*
X129136666Y-84578805D01*
X129161124Y-84598876D01*
X129181195Y-84623334D01*
X129196111Y-84651238D01*
X129205294Y-84681511D01*
X129209000Y-84719141D01*
X129209000Y-85330859D01*
X129205294Y-85368489D01*
X129196111Y-85398762D01*
X129181195Y-85426666D01*
X129165573Y-85445702D01*
X129151960Y-85466076D01*
X129142582Y-85488715D01*
X129137802Y-85512748D01*
X129137802Y-85537252D01*
X129142582Y-85561285D01*
X129151960Y-85583924D01*
X129165573Y-85604298D01*
X129181195Y-85623334D01*
X129196111Y-85651238D01*
X129205294Y-85681511D01*
X129209000Y-85719141D01*
X129209000Y-86330859D01*
X129205294Y-86368489D01*
X129196111Y-86398762D01*
X129181195Y-86426666D01*
X129165573Y-86445702D01*
X129151960Y-86466076D01*
X129142582Y-86488715D01*
X129137802Y-86512748D01*
X129137802Y-86537252D01*
X129142582Y-86561285D01*
X129151960Y-86583924D01*
X129165573Y-86604298D01*
X129181195Y-86623334D01*
X129196111Y-86651238D01*
X129205294Y-86681511D01*
X129209000Y-86719141D01*
X129209000Y-87330859D01*
X129205294Y-87368489D01*
X129196111Y-87398762D01*
X129181195Y-87426666D01*
X129165573Y-87445702D01*
X129151960Y-87466076D01*
X129142582Y-87488715D01*
X129137802Y-87512748D01*
X129137802Y-87537252D01*
X129142582Y-87561285D01*
X129151960Y-87583924D01*
X129165573Y-87604298D01*
X129181195Y-87623334D01*
X129196111Y-87651238D01*
X129205294Y-87681511D01*
X129209000Y-87719141D01*
X129209000Y-88330859D01*
X129205294Y-88368489D01*
X129196111Y-88398762D01*
X129181195Y-88426666D01*
X129165573Y-88445702D01*
X129151960Y-88466076D01*
X129142582Y-88488715D01*
X129137802Y-88512748D01*
X129137802Y-88537252D01*
X129142582Y-88561285D01*
X129151960Y-88583924D01*
X129165573Y-88604298D01*
X129181195Y-88623334D01*
X129196111Y-88651238D01*
X129205294Y-88681511D01*
X129209000Y-88719141D01*
X129209000Y-89330859D01*
X129205294Y-89368489D01*
X129196111Y-89398762D01*
X129181195Y-89426666D01*
X129161124Y-89451124D01*
X129136666Y-89471195D01*
X129108762Y-89486111D01*
X129078489Y-89495294D01*
X129040859Y-89499000D01*
X128479141Y-89499000D01*
X128441511Y-89495294D01*
X128411238Y-89486111D01*
X128383333Y-89471195D01*
X128354299Y-89447367D01*
X128333924Y-89433753D01*
X128311286Y-89424376D01*
X128287252Y-89419595D01*
X128262748Y-89419595D01*
X128238715Y-89424375D01*
X128216076Y-89433753D01*
X128195701Y-89447367D01*
X128166667Y-89471195D01*
X128138762Y-89486111D01*
X128108489Y-89495294D01*
X128070859Y-89499000D01*
X127509141Y-89499000D01*
X127471511Y-89495294D01*
X127441238Y-89486111D01*
X127413334Y-89471195D01*
X127388876Y-89451124D01*
X127368805Y-89426666D01*
X127353889Y-89398762D01*
X127344706Y-89368489D01*
X127341000Y-89330859D01*
X127341000Y-88719141D01*
X127344706Y-88681511D01*
X127353889Y-88651238D01*
X127368805Y-88623334D01*
X127384427Y-88604298D01*
X127398040Y-88583924D01*
X127407418Y-88561285D01*
X127412198Y-88537252D01*
X127412198Y-88512748D01*
X127407418Y-88488715D01*
X127398040Y-88466076D01*
X127384427Y-88445702D01*
X127368805Y-88426666D01*
X127353889Y-88398762D01*
X127344706Y-88368489D01*
X127341000Y-88330859D01*
X127341000Y-87719141D01*
X127344706Y-87681511D01*
X127353889Y-87651238D01*
X127368805Y-87623334D01*
X127384427Y-87604298D01*
X127398040Y-87583924D01*
X127407418Y-87561285D01*
X127412198Y-87537252D01*
X127412198Y-87512748D01*
X127407418Y-87488715D01*
X127398040Y-87466076D01*
X127384427Y-87445702D01*
X127368805Y-87426666D01*
X127353889Y-87398762D01*
X127344706Y-87368489D01*
X127341000Y-87330859D01*
X127341000Y-86719141D01*
X127344706Y-86681511D01*
X127353889Y-86651238D01*
X127368805Y-86623334D01*
X127384427Y-86604298D01*
X127398040Y-86583924D01*
X127407418Y-86561285D01*
X127412198Y-86537252D01*
X127412198Y-86512748D01*
X127407418Y-86488715D01*
X127398040Y-86466076D01*
X127384427Y-86445702D01*
X127368805Y-86426666D01*
X127353889Y-86398762D01*
X127344706Y-86368489D01*
X127341000Y-86330859D01*
X127341000Y-85719141D01*
X127344706Y-85681511D01*
X127353889Y-85651238D01*
X127368805Y-85623334D01*
X127384427Y-85604298D01*
X127398040Y-85583924D01*
X127407418Y-85561285D01*
X127412198Y-85537252D01*
X127412198Y-85512748D01*
X127407418Y-85488715D01*
X127398040Y-85466076D01*
X127384427Y-85445702D01*
X127368805Y-85426666D01*
X127353889Y-85398762D01*
X127344706Y-85368489D01*
X127341000Y-85330859D01*
X127341000Y-84719141D01*
X127344706Y-84681511D01*
X127353889Y-84651238D01*
X127368805Y-84623334D01*
X127388876Y-84598876D01*
X127413334Y-84578805D01*
X127441238Y-84563889D01*
X127471511Y-84554706D01*
X127509141Y-84551000D01*
X128070859Y-84551000D01*
X128108489Y-84554706D01*
X128108489Y-84554706D01*
G37*
G36*
X126154000Y-89474000D02*
G01*
X123846000Y-89474000D01*
X123846000Y-80526000D01*
X126154000Y-80526000D01*
X126154000Y-89474000D01*
X126154000Y-89474000D01*
G37*
G36*
X116611425Y-87339422D02*
G01*
X116674024Y-87351873D01*
X116791958Y-87400723D01*
X116898095Y-87471642D01*
X116988358Y-87561905D01*
X117059277Y-87668042D01*
X117108127Y-87785976D01*
X117133030Y-87911175D01*
X117133030Y-88038825D01*
X117108127Y-88164024D01*
X117059277Y-88281958D01*
X116988358Y-88388095D01*
X116898095Y-88478358D01*
X116791958Y-88549277D01*
X116674024Y-88598127D01*
X116611425Y-88610578D01*
X116548827Y-88623030D01*
X116421173Y-88623030D01*
X116358575Y-88610578D01*
X116295976Y-88598127D01*
X116178042Y-88549277D01*
X116071905Y-88478358D01*
X115981642Y-88388095D01*
X115910723Y-88281958D01*
X115861873Y-88164024D01*
X115836970Y-88038825D01*
X115836970Y-87911175D01*
X115861873Y-87785976D01*
X115910723Y-87668042D01*
X115981642Y-87561905D01*
X116071905Y-87471642D01*
X116178042Y-87400723D01*
X116295976Y-87351873D01*
X116358575Y-87339422D01*
X116421173Y-87326970D01*
X116548827Y-87326970D01*
X116611425Y-87339422D01*
X116611425Y-87339422D01*
G37*
G36*
X152336609Y-86290347D02*
G01*
X152546623Y-86377337D01*
X152672080Y-86461165D01*
X152735632Y-86503629D01*
X152896371Y-86664368D01*
X152967185Y-86770348D01*
X152992068Y-86807589D01*
X153007613Y-86826530D01*
X153026555Y-86842076D01*
X153048166Y-86853627D01*
X153071615Y-86860740D01*
X153096001Y-86863142D01*
X153120387Y-86860740D01*
X153143836Y-86853627D01*
X153165447Y-86842076D01*
X153184388Y-86826531D01*
X153199934Y-86807589D01*
X153211485Y-86785978D01*
X153218598Y-86762529D01*
X153221000Y-86738143D01*
X153221000Y-86396000D01*
X154179000Y-86396000D01*
X154179000Y-87754000D01*
X153185971Y-87754000D01*
X153161585Y-87756402D01*
X153138136Y-87763515D01*
X153116525Y-87775066D01*
X153097583Y-87790611D01*
X153082038Y-87809553D01*
X153070487Y-87831164D01*
X153022663Y-87946623D01*
X152896371Y-88135632D01*
X152735632Y-88296371D01*
X152546623Y-88422663D01*
X152336609Y-88509653D01*
X152113660Y-88554000D01*
X151886340Y-88554000D01*
X151663391Y-88509653D01*
X151453377Y-88422663D01*
X151264368Y-88296371D01*
X151103629Y-88135632D01*
X150977337Y-87946623D01*
X150890347Y-87736609D01*
X150846000Y-87513660D01*
X150846000Y-87286340D01*
X150890347Y-87063391D01*
X150977337Y-86853377D01*
X151103629Y-86664368D01*
X151264368Y-86503629D01*
X151453377Y-86377337D01*
X151663391Y-86290347D01*
X151886340Y-86246000D01*
X152113660Y-86246000D01*
X152336609Y-86290347D01*
X152336609Y-86290347D01*
G37*
G36*
X86694719Y-87419407D02*
G01*
X86781892Y-87455515D01*
X86860345Y-87507936D01*
X86927064Y-87574655D01*
X86979485Y-87653108D01*
X87015593Y-87740281D01*
X87034000Y-87832823D01*
X87034000Y-87927177D01*
X87015593Y-88019719D01*
X86979485Y-88106892D01*
X86927064Y-88185345D01*
X86860345Y-88252064D01*
X86781892Y-88304485D01*
X86694719Y-88340593D01*
X86602177Y-88359000D01*
X86507823Y-88359000D01*
X86415281Y-88340593D01*
X86328108Y-88304485D01*
X86249655Y-88252064D01*
X86182936Y-88185345D01*
X86130515Y-88106892D01*
X86094407Y-88019719D01*
X86076000Y-87927177D01*
X86076000Y-87832823D01*
X86094407Y-87740281D01*
X86130515Y-87653108D01*
X86182936Y-87574655D01*
X86249655Y-87507936D01*
X86328108Y-87455515D01*
X86415281Y-87419407D01*
X86507823Y-87401000D01*
X86602177Y-87401000D01*
X86694719Y-87419407D01*
X86694719Y-87419407D01*
G37*
G36*
X156329000Y-87754000D02*
G01*
X155371000Y-87754000D01*
X155371000Y-86396000D01*
X156329000Y-86396000D01*
X156329000Y-87754000D01*
X156329000Y-87754000D01*
G37*
G36*
X121753652Y-86337094D02*
G01*
X121850809Y-86377338D01*
X121871356Y-86385849D01*
X121977285Y-86456629D01*
X122067371Y-86546715D01*
X122137212Y-86651238D01*
X122138152Y-86652646D01*
X122186906Y-86770348D01*
X122211760Y-86895298D01*
X122211760Y-87022702D01*
X122186906Y-87147652D01*
X122138152Y-87265354D01*
X122138151Y-87265356D01*
X122067371Y-87371285D01*
X121977285Y-87461371D01*
X121871356Y-87532151D01*
X121871355Y-87532152D01*
X121871354Y-87532152D01*
X121753652Y-87580906D01*
X121628702Y-87605760D01*
X121501298Y-87605760D01*
X121376348Y-87580906D01*
X121258646Y-87532152D01*
X121258645Y-87532152D01*
X121258644Y-87532151D01*
X121152715Y-87461371D01*
X121062629Y-87371285D01*
X120991849Y-87265356D01*
X120991848Y-87265354D01*
X120943094Y-87147652D01*
X120918240Y-87022702D01*
X120918240Y-86895298D01*
X120943094Y-86770348D01*
X120991848Y-86652646D01*
X120992789Y-86651238D01*
X121062629Y-86546715D01*
X121152715Y-86456629D01*
X121258644Y-86385849D01*
X121279191Y-86377338D01*
X121376348Y-86337094D01*
X121501298Y-86312240D01*
X121628702Y-86312240D01*
X121753652Y-86337094D01*
X121753652Y-86337094D01*
G37*
G36*
X163654000Y-87134000D02*
G01*
X158346000Y-87134000D01*
X158346000Y-82866000D01*
X163654000Y-82866000D01*
X163654000Y-87134000D01*
X163654000Y-87134000D01*
G37*
G36*
X139104000Y-86554000D02*
G01*
X137746000Y-86554000D01*
X137746000Y-85596000D01*
X139104000Y-85596000D01*
X139104000Y-86554000D01*
X139104000Y-86554000D01*
G37*
G36*
X143254000Y-86554000D02*
G01*
X141896000Y-86554000D01*
X141896000Y-85596000D01*
X143254000Y-85596000D01*
X143254000Y-86554000D01*
X143254000Y-86554000D01*
G37*
G36*
X143254000Y-84404000D02*
G01*
X141896000Y-84404000D01*
X141896000Y-83446000D01*
X143254000Y-83446000D01*
X143254000Y-84404000D01*
X143254000Y-84404000D01*
G37*
G36*
X139104000Y-84404000D02*
G01*
X137746000Y-84404000D01*
X137746000Y-83446000D01*
X139104000Y-83446000D01*
X139104000Y-84404000D01*
X139104000Y-84404000D01*
G37*
G36*
X152336609Y-81490347D02*
G01*
X152546623Y-81577337D01*
X152735632Y-81703629D01*
X152896371Y-81864368D01*
X153022663Y-82053377D01*
X153070487Y-82168836D01*
X153082038Y-82190446D01*
X153097583Y-82209388D01*
X153116525Y-82224934D01*
X153138136Y-82236485D01*
X153161585Y-82243598D01*
X153185971Y-82246000D01*
X154179000Y-82246000D01*
X154179000Y-83604000D01*
X153221000Y-83604000D01*
X153221000Y-83261857D01*
X153218598Y-83237471D01*
X153211485Y-83214022D01*
X153199934Y-83192411D01*
X153184389Y-83173469D01*
X153165447Y-83157924D01*
X153143836Y-83146373D01*
X153120387Y-83139260D01*
X153096001Y-83136858D01*
X153071615Y-83139260D01*
X153048166Y-83146373D01*
X153026555Y-83157924D01*
X153007613Y-83173469D01*
X152992068Y-83192411D01*
X152896371Y-83335632D01*
X152735632Y-83496371D01*
X152546623Y-83622663D01*
X152336609Y-83709653D01*
X152113660Y-83754000D01*
X151886340Y-83754000D01*
X151663391Y-83709653D01*
X151453377Y-83622663D01*
X151264368Y-83496371D01*
X151103629Y-83335632D01*
X150977337Y-83146623D01*
X150890347Y-82936609D01*
X150846000Y-82713660D01*
X150846000Y-82486340D01*
X150890347Y-82263391D01*
X150977337Y-82053377D01*
X151103629Y-81864368D01*
X151264368Y-81703629D01*
X151453377Y-81577337D01*
X151663391Y-81490347D01*
X151886340Y-81446000D01*
X152113660Y-81446000D01*
X152336609Y-81490347D01*
X152336609Y-81490347D01*
G37*
G36*
X156329000Y-83604000D02*
G01*
X155371000Y-83604000D01*
X155371000Y-82246000D01*
X156329000Y-82246000D01*
X156329000Y-83604000D01*
X156329000Y-83604000D01*
G37*
G36*
X127558489Y-81729706D02*
G01*
X127588762Y-81738889D01*
X127616667Y-81753805D01*
X127645701Y-81777633D01*
X127666076Y-81791247D01*
X127688714Y-81800624D01*
X127712748Y-81805405D01*
X127737252Y-81805405D01*
X127761285Y-81800625D01*
X127783924Y-81791247D01*
X127804299Y-81777633D01*
X127833333Y-81753805D01*
X127861238Y-81738889D01*
X127891511Y-81729706D01*
X127929141Y-81726000D01*
X128490859Y-81726000D01*
X128528489Y-81729706D01*
X128558762Y-81738889D01*
X128586666Y-81753805D01*
X128611124Y-81773876D01*
X128631195Y-81798334D01*
X128646111Y-81826238D01*
X128655294Y-81856511D01*
X128659000Y-81894141D01*
X128659000Y-82505859D01*
X128655294Y-82543489D01*
X128646111Y-82573762D01*
X128631195Y-82601666D01*
X128611124Y-82626124D01*
X128586666Y-82646195D01*
X128558762Y-82661111D01*
X128528489Y-82670294D01*
X128490859Y-82674000D01*
X127929141Y-82674000D01*
X127891511Y-82670294D01*
X127861238Y-82661111D01*
X127833333Y-82646195D01*
X127804299Y-82622367D01*
X127783924Y-82608753D01*
X127761286Y-82599376D01*
X127737252Y-82594595D01*
X127712748Y-82594595D01*
X127688715Y-82599375D01*
X127666076Y-82608753D01*
X127645701Y-82622367D01*
X127616667Y-82646195D01*
X127588762Y-82661111D01*
X127558489Y-82670294D01*
X127520859Y-82674000D01*
X126959141Y-82674000D01*
X126921511Y-82670294D01*
X126891238Y-82661111D01*
X126863334Y-82646195D01*
X126838876Y-82626124D01*
X126818805Y-82601666D01*
X126803889Y-82573762D01*
X126794706Y-82543489D01*
X126791000Y-82505859D01*
X126791000Y-81894141D01*
X126794706Y-81856511D01*
X126803889Y-81826238D01*
X126818805Y-81798334D01*
X126838876Y-81773876D01*
X126863334Y-81753805D01*
X126891238Y-81738889D01*
X126921511Y-81729706D01*
X126959141Y-81726000D01*
X127520859Y-81726000D01*
X127558489Y-81729706D01*
X127558489Y-81729706D01*
G37*
G36*
X86694719Y-81639407D02*
G01*
X86781892Y-81675515D01*
X86860345Y-81727936D01*
X86927064Y-81794655D01*
X86979485Y-81873108D01*
X87015593Y-81960281D01*
X87034000Y-82052823D01*
X87034000Y-82147177D01*
X87015593Y-82239719D01*
X86979485Y-82326892D01*
X86927064Y-82405345D01*
X86860345Y-82472064D01*
X86781892Y-82524485D01*
X86694719Y-82560593D01*
X86602177Y-82579000D01*
X86507823Y-82579000D01*
X86415281Y-82560593D01*
X86328108Y-82524485D01*
X86249655Y-82472064D01*
X86182936Y-82405345D01*
X86130515Y-82326892D01*
X86094407Y-82239719D01*
X86076000Y-82147177D01*
X86076000Y-82052823D01*
X86094407Y-81960281D01*
X86130515Y-81873108D01*
X86182936Y-81794655D01*
X86249655Y-81727936D01*
X86328108Y-81675515D01*
X86415281Y-81639407D01*
X86507823Y-81621000D01*
X86602177Y-81621000D01*
X86694719Y-81639407D01*
X86694719Y-81639407D01*
G37*
G36*
X127583489Y-80504706D02*
G01*
X127613762Y-80513889D01*
X127641667Y-80528805D01*
X127670701Y-80552633D01*
X127691076Y-80566247D01*
X127713714Y-80575624D01*
X127737748Y-80580405D01*
X127762252Y-80580405D01*
X127786285Y-80575625D01*
X127808924Y-80566247D01*
X127829299Y-80552633D01*
X127858333Y-80528805D01*
X127886238Y-80513889D01*
X127916511Y-80504706D01*
X127954141Y-80501000D01*
X128515859Y-80501000D01*
X128553489Y-80504706D01*
X128583762Y-80513889D01*
X128611666Y-80528805D01*
X128636124Y-80548876D01*
X128656195Y-80573334D01*
X128671111Y-80601238D01*
X128680294Y-80631511D01*
X128684000Y-80669141D01*
X128684000Y-81280859D01*
X128680294Y-81318489D01*
X128671111Y-81348762D01*
X128656195Y-81376666D01*
X128636124Y-81401124D01*
X128611666Y-81421195D01*
X128583762Y-81436111D01*
X128553489Y-81445294D01*
X128515859Y-81449000D01*
X127954141Y-81449000D01*
X127916511Y-81445294D01*
X127886238Y-81436111D01*
X127858333Y-81421195D01*
X127829299Y-81397367D01*
X127808924Y-81383753D01*
X127786286Y-81374376D01*
X127762252Y-81369595D01*
X127737748Y-81369595D01*
X127713715Y-81374375D01*
X127691076Y-81383753D01*
X127670701Y-81397367D01*
X127641667Y-81421195D01*
X127613762Y-81436111D01*
X127583489Y-81445294D01*
X127545859Y-81449000D01*
X126984141Y-81449000D01*
X126946511Y-81445294D01*
X126916238Y-81436111D01*
X126888334Y-81421195D01*
X126863876Y-81401124D01*
X126843805Y-81376666D01*
X126828889Y-81348762D01*
X126819706Y-81318489D01*
X126816000Y-81280859D01*
X126816000Y-80669141D01*
X126819706Y-80631511D01*
X126828889Y-80601238D01*
X126843805Y-80573334D01*
X126863876Y-80548876D01*
X126888334Y-80528805D01*
X126916238Y-80513889D01*
X126946511Y-80504706D01*
X126984141Y-80501000D01*
X127545859Y-80501000D01*
X127583489Y-80504706D01*
X127583489Y-80504706D01*
G37*
G36*
X87699152Y-80019154D02*
G01*
X87763206Y-80025463D01*
X87886486Y-80062860D01*
X88000101Y-80123588D01*
X88000102Y-80123589D01*
X88000104Y-80123590D01*
X88099686Y-80205314D01*
X88181410Y-80304896D01*
X88181412Y-80304899D01*
X88242140Y-80418514D01*
X88279537Y-80541794D01*
X88292164Y-80670000D01*
X88279537Y-80798206D01*
X88242140Y-80921486D01*
X88181412Y-81035101D01*
X88181410Y-81035104D01*
X88099686Y-81134686D01*
X88000104Y-81216410D01*
X88000102Y-81216411D01*
X88000101Y-81216412D01*
X87886486Y-81277140D01*
X87763206Y-81314537D01*
X87699152Y-81320846D01*
X87667126Y-81324000D01*
X86502874Y-81324000D01*
X86470848Y-81320846D01*
X86406794Y-81314537D01*
X86283514Y-81277140D01*
X86169899Y-81216412D01*
X86169898Y-81216411D01*
X86169896Y-81216410D01*
X86070314Y-81134686D01*
X85988590Y-81035104D01*
X85988588Y-81035101D01*
X85927860Y-80921486D01*
X85890463Y-80798206D01*
X85877836Y-80670000D01*
X85890463Y-80541794D01*
X85927860Y-80418514D01*
X85988588Y-80304899D01*
X85988590Y-80304896D01*
X86070314Y-80205314D01*
X86169896Y-80123590D01*
X86169898Y-80123589D01*
X86169899Y-80123588D01*
X86283514Y-80062860D01*
X86406794Y-80025463D01*
X86470848Y-80019154D01*
X86502874Y-80016000D01*
X87667126Y-80016000D01*
X87699152Y-80019154D01*
X87699152Y-80019154D01*
G37*
G36*
X83269152Y-80019154D02*
G01*
X83333206Y-80025463D01*
X83456486Y-80062860D01*
X83570101Y-80123588D01*
X83570102Y-80123589D01*
X83570104Y-80123590D01*
X83669686Y-80205314D01*
X83751410Y-80304896D01*
X83751412Y-80304899D01*
X83812140Y-80418514D01*
X83849537Y-80541794D01*
X83862164Y-80670000D01*
X83849537Y-80798206D01*
X83812140Y-80921486D01*
X83751412Y-81035101D01*
X83751410Y-81035104D01*
X83669686Y-81134686D01*
X83570104Y-81216410D01*
X83570102Y-81216411D01*
X83570101Y-81216412D01*
X83456486Y-81277140D01*
X83333206Y-81314537D01*
X83269152Y-81320846D01*
X83237126Y-81324000D01*
X82572874Y-81324000D01*
X82540848Y-81320846D01*
X82476794Y-81314537D01*
X82353514Y-81277140D01*
X82239899Y-81216412D01*
X82239898Y-81216411D01*
X82239896Y-81216410D01*
X82140314Y-81134686D01*
X82058590Y-81035104D01*
X82058588Y-81035101D01*
X81997860Y-80921486D01*
X81960463Y-80798206D01*
X81947836Y-80670000D01*
X81960463Y-80541794D01*
X81997860Y-80418514D01*
X82058588Y-80304899D01*
X82058590Y-80304896D01*
X82140314Y-80205314D01*
X82239896Y-80123590D01*
X82239898Y-80123589D01*
X82239899Y-80123588D01*
X82353514Y-80062860D01*
X82476794Y-80025463D01*
X82540848Y-80019154D01*
X82572874Y-80016000D01*
X83237126Y-80016000D01*
X83269152Y-80019154D01*
X83269152Y-80019154D01*
G37*
M02*
