M48
; DRILL file {KiCad 5.1.2} date Mon 22 Jul 2019 01:38:32 PM CEST
; FORMAT={-:-/ absolute / inch / decimal}
; #@! TF.CreationDate,2019-07-22T13:38:32+02:00
; #@! TF.GenerationSoftware,Kicad,Pcbnew,5.1.2
; #@! TF.FileFunction,Plated,1,4,PTH
FMAT,2
INCH
T1C0.0118
T2C0.0157
T3C0.0236
T4C0.0469
T5C0.0669
%
G90
G05
T1
X3.5362Y-3.2996
X3.5565Y-3.4857
X3.5713Y-3.3278
X3.5713Y-3.3652
X3.5829Y-3.4592
X3.5878Y-3.2521
X3.6563Y-3.3469
X3.7516Y-3.3106
X3.7882Y-3.4472
X3.8319Y-3.4772
X3.8516Y-3.3335
X3.9079Y-3.3343
X3.9453Y-3.2024
X3.9543Y-3.276
X4.0217Y-3.4449
X4.0248Y-3.3354
X4.0335Y-3.4862
X4.053Y-3.3935
X4.0693Y-3.1972
X4.0786Y-3.2652
X4.0799Y-3.2343
X4.1213Y-3.1831
X4.1634Y-3.437
X4.1636Y-3.2571
X4.2067Y-3.1826
X4.3228Y-3.5177
X4.3445Y-3.2559
X4.3445Y-3.437
X4.4124Y-3.4843
X4.439Y-3.3386
X4.4582Y-3.314
X4.5197Y-3.311
X4.5492Y-3.5108
X4.5512Y-3.4356
X4.5787Y-3.2362
X4.6033Y-3.5059
X4.6063Y-3.3445
X4.6417Y-3.2362
X4.6417Y-3.3425
X4.6688Y-3.342
X4.6839Y-3.1988
X4.7106Y-3.4094
X4.7115Y-3.1988
X4.7175Y-3.3671
X4.7195Y-3.5157
X4.7384Y-3.1988
X4.75Y-3.3711
X4.7752Y-3.1981
X5.0984Y-3.4252
X5.123Y-3.1753
X5.1287Y-3.4421
X5.152Y-3.4606
X5.2Y-3.2028
X5.278Y-3.4756
X5.2966Y-3.1901
X5.3154Y-3.4768
X5.3917Y-3.3583
X5.6009Y-3.5
X5.6024Y-3.3484
X5.7657Y-3.4803
X5.7953Y-3.4803
X5.8248Y-3.4803
X5.8543Y-3.4803
X6.0571Y-3.1901
X6.0945Y-3.2146
X6.1102Y-3.4409
X6.1616Y-3.313
T2
X3.3126Y-3.2563
X3.3126Y-3.2917
X3.3126Y-3.3272
X3.3126Y-3.3626
X3.3126Y-3.398
X3.3126Y-3.4335
X3.348Y-3.2563
X3.348Y-3.2917
X3.348Y-3.3272
X3.348Y-3.3626
X3.348Y-3.398
X3.348Y-3.4335
X3.3803Y-3.4307
X3.3823Y-3.2571
X3.3823Y-3.2909
X3.3984Y-3.3815
X3.4114Y-3.2697
X3.4138Y-3.4236
X3.4177Y-3.3358
X3.5173Y-3.437
X3.5177Y-3.2598
X3.5512Y-3.2579
X3.6781Y-3.4852
X3.7035Y-3.2488
X3.789Y-3.2012
X3.9004Y-3.202
X3.9587Y-3.439
X4.8258Y-3.2171
X4.8549Y-3.3057
X4.8583Y-3.373
X4.9902Y-3.2862
X5.1433Y-3.4976
X5.311Y-3.235
X5.311Y-3.265
X5.3425Y-3.235
X5.3425Y-3.265
X5.374Y-3.235
X5.374Y-3.265
X5.4055Y-3.235
X5.4055Y-3.265
X5.5236Y-3.3533
X5.5374Y-3.4163
T4
X5.9843Y-3.252
X5.9843Y-3.4409
T5
X6.3386Y-3.3465
T3
G00X3.2758Y-3.176
M15
G01X3.2522Y-3.176
M16
G05
G00X3.2758Y-3.5161
M15
G01X3.2522Y-3.5161
M16
G05
G00X3.4502Y-3.176
M15
G01X3.4069Y-3.176
M16
G05
G00X3.4502Y-3.5161
M15
G01X3.4069Y-3.5161
M16
G05
T0
M30
