G04 #@! TF.GenerationSoftware,KiCad,Pcbnew,5.1.2*
G04 #@! TF.CreationDate,2019-05-22T21:18:17+02:00*
G04 #@! TF.ProjectId,TS100C,54533130-3043-42e6-9b69-6361645f7063,rev?*
G04 #@! TF.SameCoordinates,Original*
G04 #@! TF.FileFunction,Soldermask,Top*
G04 #@! TF.FilePolarity,Negative*
%FSLAX46Y46*%
G04 Gerber Fmt 4.6, Leading zero omitted, Abs format (unit mm)*
G04 Created by KiCad (PCBNEW 5.1.2) date 2019-05-22 21:18:17*
%MOMM*%
%LPD*%
G04 APERTURE LIST*
%ADD10C,0.150000*%
%ADD11C,0.100000*%
G04 APERTURE END LIST*
D10*
X131000000Y-80500000D02*
X164000000Y-80500000D01*
X130000000Y-80000000D02*
X131000000Y-80500000D01*
X130000000Y-90000000D02*
X131000000Y-89500000D01*
X131000000Y-89500000D02*
X164000000Y-89500000D01*
X80000000Y-80000000D02*
X80000000Y-90000000D01*
X130000000Y-90000000D02*
X80000000Y-90000000D01*
X164000000Y-80500000D02*
X164000000Y-89500000D01*
X80000000Y-80000000D02*
X130000000Y-80000000D01*
D11*
G36*
X87699152Y-80019154D02*
G01*
X87763206Y-80025463D01*
X87886486Y-80062860D01*
X88000101Y-80123588D01*
X88000102Y-80123589D01*
X88000104Y-80123590D01*
X88099686Y-80205314D01*
X88181410Y-80304896D01*
X88181412Y-80304899D01*
X88242140Y-80418514D01*
X88279537Y-80541794D01*
X88292164Y-80670000D01*
X88279537Y-80798206D01*
X88242140Y-80921486D01*
X88181412Y-81035101D01*
X88181410Y-81035104D01*
X88102134Y-81131702D01*
X88088520Y-81152077D01*
X88079142Y-81174716D01*
X88074362Y-81198749D01*
X88074362Y-81223253D01*
X88079142Y-81247286D01*
X88088520Y-81269925D01*
X88102133Y-81290299D01*
X88119460Y-81307626D01*
X88139835Y-81321240D01*
X88162474Y-81330618D01*
X88186507Y-81335398D01*
X88198759Y-81336000D01*
X88879000Y-81336000D01*
X88879000Y-88644000D01*
X88198759Y-88644000D01*
X88174373Y-88646402D01*
X88150924Y-88653515D01*
X88129313Y-88665066D01*
X88110371Y-88680611D01*
X88094826Y-88699553D01*
X88083275Y-88721164D01*
X88076162Y-88744613D01*
X88073760Y-88768999D01*
X88076162Y-88793385D01*
X88083275Y-88816834D01*
X88094826Y-88838445D01*
X88102134Y-88848298D01*
X88180255Y-88943489D01*
X88181412Y-88944899D01*
X88242140Y-89058514D01*
X88279537Y-89181794D01*
X88292164Y-89310000D01*
X88279537Y-89438206D01*
X88242140Y-89561486D01*
X88181412Y-89675101D01*
X88181410Y-89675104D01*
X88099686Y-89774686D01*
X88000104Y-89856410D01*
X88000102Y-89856411D01*
X88000101Y-89856412D01*
X87886486Y-89917140D01*
X87763206Y-89954537D01*
X87699152Y-89960846D01*
X87667126Y-89964000D01*
X86502874Y-89964000D01*
X86470848Y-89960846D01*
X86406794Y-89954537D01*
X86283514Y-89917140D01*
X86169899Y-89856412D01*
X86169898Y-89856411D01*
X86169896Y-89856410D01*
X86070314Y-89774686D01*
X85988590Y-89675104D01*
X85988588Y-89675101D01*
X85927860Y-89561486D01*
X85890463Y-89438206D01*
X85877836Y-89310000D01*
X85890463Y-89181794D01*
X85927860Y-89058514D01*
X85988588Y-88944899D01*
X85989745Y-88943489D01*
X86070314Y-88845314D01*
X86169896Y-88763590D01*
X86169898Y-88763589D01*
X86169899Y-88763588D01*
X86283514Y-88702860D01*
X86406794Y-88665463D01*
X86470848Y-88659154D01*
X86502874Y-88656000D01*
X86996001Y-88656000D01*
X87020387Y-88653598D01*
X87043836Y-88646485D01*
X87065447Y-88634934D01*
X87084389Y-88619389D01*
X87099934Y-88600447D01*
X87111485Y-88578836D01*
X87118598Y-88555387D01*
X87121000Y-88531001D01*
X87121000Y-88293182D01*
X87118598Y-88268796D01*
X87111485Y-88245347D01*
X87099934Y-88223736D01*
X87084389Y-88204794D01*
X87065447Y-88189249D01*
X87043836Y-88177698D01*
X87020387Y-88170585D01*
X86996001Y-88168183D01*
X86971615Y-88170585D01*
X86948166Y-88177698D01*
X86926555Y-88189249D01*
X86907624Y-88204785D01*
X86860345Y-88252064D01*
X86781892Y-88304485D01*
X86694719Y-88340593D01*
X86602177Y-88359000D01*
X86507823Y-88359000D01*
X86415281Y-88340593D01*
X86328108Y-88304485D01*
X86249655Y-88252064D01*
X86182936Y-88185345D01*
X86130515Y-88106892D01*
X86094407Y-88019719D01*
X86076000Y-87927177D01*
X86076000Y-87832823D01*
X86094407Y-87740281D01*
X86130515Y-87653108D01*
X86182936Y-87574655D01*
X86249655Y-87507936D01*
X86328108Y-87455515D01*
X86415281Y-87419407D01*
X86507823Y-87401000D01*
X86602177Y-87401000D01*
X86694719Y-87419407D01*
X86781892Y-87455515D01*
X86860345Y-87507936D01*
X86907624Y-87555215D01*
X86926555Y-87570751D01*
X86948166Y-87582302D01*
X86971615Y-87589415D01*
X86996001Y-87591817D01*
X87020387Y-87589415D01*
X87043836Y-87582302D01*
X87065447Y-87570751D01*
X87084389Y-87555206D01*
X87099934Y-87536264D01*
X87111485Y-87514653D01*
X87118598Y-87491204D01*
X87121000Y-87466818D01*
X87121000Y-82513182D01*
X87118598Y-82488796D01*
X87111485Y-82465347D01*
X87099934Y-82443736D01*
X87084389Y-82424794D01*
X87065447Y-82409249D01*
X87043836Y-82397698D01*
X87020387Y-82390585D01*
X86996001Y-82388183D01*
X86971615Y-82390585D01*
X86948166Y-82397698D01*
X86926555Y-82409249D01*
X86907624Y-82424785D01*
X86860345Y-82472064D01*
X86781892Y-82524485D01*
X86694719Y-82560593D01*
X86602177Y-82579000D01*
X86507823Y-82579000D01*
X86415281Y-82560593D01*
X86328108Y-82524485D01*
X86249655Y-82472064D01*
X86182936Y-82405345D01*
X86130515Y-82326892D01*
X86094407Y-82239719D01*
X86076000Y-82147177D01*
X86076000Y-82052823D01*
X86094407Y-81960281D01*
X86130515Y-81873108D01*
X86182936Y-81794655D01*
X86249655Y-81727936D01*
X86328108Y-81675515D01*
X86415281Y-81639407D01*
X86507823Y-81621000D01*
X86602177Y-81621000D01*
X86694719Y-81639407D01*
X86781892Y-81675515D01*
X86860345Y-81727936D01*
X86907624Y-81775215D01*
X86926555Y-81790751D01*
X86948166Y-81802302D01*
X86971615Y-81809415D01*
X86996001Y-81811817D01*
X87020387Y-81809415D01*
X87043836Y-81802302D01*
X87065447Y-81790751D01*
X87084389Y-81775206D01*
X87099934Y-81756264D01*
X87111485Y-81734653D01*
X87118598Y-81711204D01*
X87121000Y-81686818D01*
X87121000Y-81448999D01*
X87118598Y-81424613D01*
X87111485Y-81401164D01*
X87099934Y-81379553D01*
X87084389Y-81360611D01*
X87065447Y-81345066D01*
X87043836Y-81333515D01*
X87020387Y-81326402D01*
X86996001Y-81324000D01*
X86502874Y-81324000D01*
X86470848Y-81320846D01*
X86406794Y-81314537D01*
X86283514Y-81277140D01*
X86169899Y-81216412D01*
X86169898Y-81216411D01*
X86169896Y-81216410D01*
X86070314Y-81134686D01*
X85988590Y-81035104D01*
X85988588Y-81035101D01*
X85927860Y-80921486D01*
X85890463Y-80798206D01*
X85877836Y-80670000D01*
X85890463Y-80541794D01*
X85927860Y-80418514D01*
X85988588Y-80304899D01*
X85988590Y-80304896D01*
X86070314Y-80205314D01*
X86169896Y-80123590D01*
X86169898Y-80123589D01*
X86169899Y-80123588D01*
X86283514Y-80062860D01*
X86406794Y-80025463D01*
X86470848Y-80019154D01*
X86502874Y-80016000D01*
X87667126Y-80016000D01*
X87699152Y-80019154D01*
X87699152Y-80019154D01*
G37*
G36*
X83269152Y-88659154D02*
G01*
X83333206Y-88665463D01*
X83456486Y-88702860D01*
X83570101Y-88763588D01*
X83570102Y-88763589D01*
X83570104Y-88763590D01*
X83669686Y-88845314D01*
X83750255Y-88943489D01*
X83751412Y-88944899D01*
X83812140Y-89058514D01*
X83849537Y-89181794D01*
X83862164Y-89310000D01*
X83849537Y-89438206D01*
X83812140Y-89561486D01*
X83751412Y-89675101D01*
X83751410Y-89675104D01*
X83669686Y-89774686D01*
X83570104Y-89856410D01*
X83570102Y-89856411D01*
X83570101Y-89856412D01*
X83456486Y-89917140D01*
X83333206Y-89954537D01*
X83269152Y-89960846D01*
X83237126Y-89964000D01*
X82572874Y-89964000D01*
X82540848Y-89960846D01*
X82476794Y-89954537D01*
X82353514Y-89917140D01*
X82239899Y-89856412D01*
X82239898Y-89856411D01*
X82239896Y-89856410D01*
X82140314Y-89774686D01*
X82058590Y-89675104D01*
X82058588Y-89675101D01*
X81997860Y-89561486D01*
X81960463Y-89438206D01*
X81947836Y-89310000D01*
X81960463Y-89181794D01*
X81997860Y-89058514D01*
X82058588Y-88944899D01*
X82059745Y-88943489D01*
X82140314Y-88845314D01*
X82239896Y-88763590D01*
X82239898Y-88763589D01*
X82239899Y-88763588D01*
X82353514Y-88702860D01*
X82476794Y-88665463D01*
X82540848Y-88659154D01*
X82572874Y-88656000D01*
X83237126Y-88656000D01*
X83269152Y-88659154D01*
X83269152Y-88659154D01*
G37*
G36*
X113243489Y-87819706D02*
G01*
X113273762Y-87828889D01*
X113301666Y-87843805D01*
X113326124Y-87863876D01*
X113346195Y-87888334D01*
X113361111Y-87916238D01*
X113370294Y-87946511D01*
X113374000Y-87984141D01*
X113374000Y-88545859D01*
X113370294Y-88583489D01*
X113361111Y-88613762D01*
X113346195Y-88641667D01*
X113322367Y-88670701D01*
X113308753Y-88691076D01*
X113299376Y-88713714D01*
X113294595Y-88737748D01*
X113294595Y-88762252D01*
X113299375Y-88786285D01*
X113308753Y-88808924D01*
X113322367Y-88829299D01*
X113346195Y-88858333D01*
X113361111Y-88886238D01*
X113370294Y-88916511D01*
X113374000Y-88954141D01*
X113374000Y-89515859D01*
X113370294Y-89553489D01*
X113361111Y-89583762D01*
X113346195Y-89611666D01*
X113326124Y-89636124D01*
X113301666Y-89656195D01*
X113273762Y-89671111D01*
X113243489Y-89680294D01*
X113205859Y-89684000D01*
X112594141Y-89684000D01*
X112556511Y-89680294D01*
X112526238Y-89671111D01*
X112498334Y-89656195D01*
X112473876Y-89636124D01*
X112453805Y-89611666D01*
X112438889Y-89583762D01*
X112429706Y-89553489D01*
X112426000Y-89515859D01*
X112426000Y-88954141D01*
X112429706Y-88916511D01*
X112438889Y-88886238D01*
X112453805Y-88858333D01*
X112477633Y-88829299D01*
X112491247Y-88808924D01*
X112500624Y-88786286D01*
X112505405Y-88762252D01*
X112505405Y-88737748D01*
X112500625Y-88713715D01*
X112491247Y-88691076D01*
X112477633Y-88670701D01*
X112453805Y-88641667D01*
X112438889Y-88613762D01*
X112429706Y-88583489D01*
X112426000Y-88545859D01*
X112426000Y-87984141D01*
X112429706Y-87946511D01*
X112438889Y-87916238D01*
X112453805Y-87888334D01*
X112473876Y-87863876D01*
X112498334Y-87843805D01*
X112526238Y-87828889D01*
X112556511Y-87819706D01*
X112594141Y-87816000D01*
X113205859Y-87816000D01*
X113243489Y-87819706D01*
X113243489Y-87819706D01*
G37*
G36*
X121753652Y-86337094D02*
G01*
X121871354Y-86385848D01*
X121871356Y-86385849D01*
X121961171Y-86445862D01*
X121977285Y-86456629D01*
X122067371Y-86546715D01*
X122138152Y-86652646D01*
X122186906Y-86770348D01*
X122211760Y-86895298D01*
X122211760Y-87022702D01*
X122186906Y-87147652D01*
X122140049Y-87260774D01*
X122138151Y-87265356D01*
X122067371Y-87371285D01*
X121977285Y-87461371D01*
X121871356Y-87532151D01*
X121871355Y-87532152D01*
X121871354Y-87532152D01*
X121753652Y-87580906D01*
X121628702Y-87605760D01*
X121501298Y-87605760D01*
X121376348Y-87580906D01*
X121258646Y-87532152D01*
X121258645Y-87532152D01*
X121258644Y-87532151D01*
X121152715Y-87461371D01*
X121061790Y-87370446D01*
X121047736Y-87353322D01*
X121028794Y-87337777D01*
X121007183Y-87326227D01*
X120983734Y-87319114D01*
X120959348Y-87316713D01*
X120934962Y-87319115D01*
X120911513Y-87326229D01*
X120889903Y-87337781D01*
X120870961Y-87353327D01*
X120855416Y-87372269D01*
X120843866Y-87393880D01*
X120836754Y-87417327D01*
X120820432Y-87499387D01*
X120786666Y-87580905D01*
X120779240Y-87598832D01*
X120719440Y-87688329D01*
X120643329Y-87764440D01*
X120579767Y-87806911D01*
X120553832Y-87824240D01*
X120468669Y-87859516D01*
X120447059Y-87871067D01*
X120428117Y-87886613D01*
X120412572Y-87905555D01*
X120401021Y-87927165D01*
X120393908Y-87950614D01*
X120391506Y-87975001D01*
X120393908Y-87999387D01*
X120401021Y-88022836D01*
X120412572Y-88044446D01*
X120428118Y-88063388D01*
X120447060Y-88078933D01*
X120468669Y-88090484D01*
X120508281Y-88106892D01*
X120553832Y-88125760D01*
X120643329Y-88185560D01*
X120719440Y-88261671D01*
X120779223Y-88351143D01*
X120779241Y-88351170D01*
X120820432Y-88450613D01*
X120836754Y-88532673D01*
X120843866Y-88556122D01*
X120855417Y-88577733D01*
X120870962Y-88596675D01*
X120889904Y-88612220D01*
X120911515Y-88623772D01*
X120934964Y-88630885D01*
X120959350Y-88633287D01*
X120983736Y-88630885D01*
X121007185Y-88623773D01*
X121028796Y-88612222D01*
X121047738Y-88596677D01*
X121061790Y-88579554D01*
X121152715Y-88488629D01*
X121188458Y-88464746D01*
X121258644Y-88417849D01*
X121258646Y-88417848D01*
X121376348Y-88369094D01*
X121501298Y-88344240D01*
X121628702Y-88344240D01*
X121753652Y-88369094D01*
X121871354Y-88417848D01*
X121871356Y-88417849D01*
X121977285Y-88488629D01*
X122067371Y-88578715D01*
X122134485Y-88679157D01*
X122138152Y-88684646D01*
X122186906Y-88802348D01*
X122211760Y-88927298D01*
X122211760Y-89054702D01*
X122186906Y-89179652D01*
X122143994Y-89283250D01*
X122138151Y-89297356D01*
X122067371Y-89403285D01*
X121977285Y-89493371D01*
X121871356Y-89564151D01*
X121871355Y-89564152D01*
X121871354Y-89564152D01*
X121753652Y-89612906D01*
X121628702Y-89637760D01*
X121501298Y-89637760D01*
X121376348Y-89612906D01*
X121258646Y-89564152D01*
X121258645Y-89564152D01*
X121258644Y-89564151D01*
X121152715Y-89493371D01*
X121062629Y-89403285D01*
X120991849Y-89297356D01*
X120986006Y-89283250D01*
X120943094Y-89179652D01*
X120916952Y-89048226D01*
X120915838Y-89036917D01*
X120908725Y-89013468D01*
X120897174Y-88991857D01*
X120881629Y-88972915D01*
X120862687Y-88957370D01*
X120841076Y-88945819D01*
X120817627Y-88938706D01*
X120793241Y-88936304D01*
X120768855Y-88938706D01*
X120745406Y-88945819D01*
X120723795Y-88957370D01*
X120704859Y-88972910D01*
X120643329Y-89034440D01*
X120553832Y-89094240D01*
X120553831Y-89094241D01*
X120553830Y-89094241D01*
X120454387Y-89135432D01*
X120348821Y-89156430D01*
X120241179Y-89156430D01*
X120135613Y-89135432D01*
X120036170Y-89094241D01*
X120036169Y-89094241D01*
X120036168Y-89094240D01*
X119946671Y-89034440D01*
X119870560Y-88958329D01*
X119810760Y-88868832D01*
X119802752Y-88849500D01*
X119775484Y-88783669D01*
X119763933Y-88762059D01*
X119748387Y-88743117D01*
X119729445Y-88727572D01*
X119707835Y-88716021D01*
X119684386Y-88708908D01*
X119659999Y-88706506D01*
X119635613Y-88708908D01*
X119612164Y-88716021D01*
X119590554Y-88727572D01*
X119571612Y-88743118D01*
X119556067Y-88762060D01*
X119544516Y-88783669D01*
X119517248Y-88849500D01*
X119509240Y-88868832D01*
X119449440Y-88958329D01*
X119373329Y-89034440D01*
X119283832Y-89094240D01*
X119283831Y-89094241D01*
X119283830Y-89094241D01*
X119184387Y-89135432D01*
X119078821Y-89156430D01*
X118971179Y-89156430D01*
X118865613Y-89135432D01*
X118766170Y-89094241D01*
X118766169Y-89094241D01*
X118766168Y-89094240D01*
X118676671Y-89034440D01*
X118600560Y-88958329D01*
X118540760Y-88868832D01*
X118532752Y-88849500D01*
X118505484Y-88783669D01*
X118493933Y-88762059D01*
X118478387Y-88743117D01*
X118459445Y-88727572D01*
X118437835Y-88716021D01*
X118414386Y-88708908D01*
X118389999Y-88706506D01*
X118365613Y-88708908D01*
X118342164Y-88716021D01*
X118320554Y-88727572D01*
X118301612Y-88743118D01*
X118286067Y-88762060D01*
X118274516Y-88783669D01*
X118247248Y-88849500D01*
X118239240Y-88868832D01*
X118179440Y-88958329D01*
X118103329Y-89034440D01*
X118013832Y-89094240D01*
X118013831Y-89094241D01*
X118013830Y-89094241D01*
X117914387Y-89135432D01*
X117808821Y-89156430D01*
X117701179Y-89156430D01*
X117595613Y-89135432D01*
X117496170Y-89094241D01*
X117496169Y-89094241D01*
X117496168Y-89094240D01*
X117406671Y-89034440D01*
X117330560Y-88958329D01*
X117270760Y-88868832D01*
X117269964Y-88866911D01*
X117229568Y-88769387D01*
X117208570Y-88663821D01*
X117208570Y-88556180D01*
X117226922Y-88463916D01*
X117229324Y-88439529D01*
X117226922Y-88415143D01*
X117219809Y-88391694D01*
X117208258Y-88370084D01*
X117192712Y-88351142D01*
X117173770Y-88335597D01*
X117152159Y-88324046D01*
X117128711Y-88316933D01*
X117104324Y-88314531D01*
X117079938Y-88316933D01*
X117056489Y-88324046D01*
X117034879Y-88335597D01*
X117015937Y-88351143D01*
X117000396Y-88370080D01*
X116988358Y-88388095D01*
X116898095Y-88478358D01*
X116791958Y-88549277D01*
X116674024Y-88598127D01*
X116611425Y-88610578D01*
X116548827Y-88623030D01*
X116421173Y-88623030D01*
X116358575Y-88610578D01*
X116295976Y-88598127D01*
X116178042Y-88549277D01*
X116071905Y-88478358D01*
X115981642Y-88388095D01*
X115910723Y-88281958D01*
X115861873Y-88164024D01*
X115846401Y-88086238D01*
X115836970Y-88038827D01*
X115836970Y-87911173D01*
X115852555Y-87832823D01*
X115861873Y-87785976D01*
X115870601Y-87764904D01*
X117106380Y-87764904D01*
X117108781Y-87789264D01*
X117133030Y-87911175D01*
X117133030Y-88038825D01*
X117108781Y-88160736D01*
X117106380Y-88185113D01*
X117108782Y-88209499D01*
X117115895Y-88232948D01*
X117127446Y-88254558D01*
X117142991Y-88273500D01*
X117161933Y-88289046D01*
X117183544Y-88300597D01*
X117206992Y-88307710D01*
X117231379Y-88310112D01*
X117255765Y-88307710D01*
X117279214Y-88300597D01*
X117300824Y-88289046D01*
X117319766Y-88273501D01*
X117324506Y-88267726D01*
X117330559Y-88261673D01*
X117330560Y-88261671D01*
X117406671Y-88185560D01*
X117496168Y-88125760D01*
X117541719Y-88106892D01*
X117581331Y-88090484D01*
X117602941Y-88078933D01*
X117621883Y-88063387D01*
X117637428Y-88044445D01*
X117648979Y-88022835D01*
X117656092Y-87999386D01*
X117658493Y-87975001D01*
X117851506Y-87975001D01*
X117853908Y-87999387D01*
X117861021Y-88022836D01*
X117872572Y-88044446D01*
X117888118Y-88063388D01*
X117907060Y-88078933D01*
X117928669Y-88090484D01*
X117968281Y-88106892D01*
X118013832Y-88125760D01*
X118103329Y-88185560D01*
X118179440Y-88261671D01*
X118207135Y-88303120D01*
X118239240Y-88351168D01*
X118274516Y-88436331D01*
X118286067Y-88457941D01*
X118301613Y-88476883D01*
X118320555Y-88492428D01*
X118342165Y-88503979D01*
X118365614Y-88511092D01*
X118390001Y-88513494D01*
X118414387Y-88511092D01*
X118437836Y-88503979D01*
X118459446Y-88492428D01*
X118478388Y-88476882D01*
X118493933Y-88457940D01*
X118505484Y-88436331D01*
X118540760Y-88351168D01*
X118572865Y-88303120D01*
X118600560Y-88261671D01*
X118676671Y-88185560D01*
X118766168Y-88125760D01*
X118811719Y-88106892D01*
X118851331Y-88090484D01*
X118872941Y-88078933D01*
X118891883Y-88063387D01*
X118907428Y-88044445D01*
X118918979Y-88022835D01*
X118926092Y-87999386D01*
X118928493Y-87975001D01*
X119121506Y-87975001D01*
X119123908Y-87999387D01*
X119131021Y-88022836D01*
X119142572Y-88044446D01*
X119158118Y-88063388D01*
X119177060Y-88078933D01*
X119198669Y-88090484D01*
X119238281Y-88106892D01*
X119283832Y-88125760D01*
X119373329Y-88185560D01*
X119449440Y-88261671D01*
X119477135Y-88303120D01*
X119509240Y-88351168D01*
X119544516Y-88436331D01*
X119556067Y-88457941D01*
X119571613Y-88476883D01*
X119590555Y-88492428D01*
X119612165Y-88503979D01*
X119635614Y-88511092D01*
X119660001Y-88513494D01*
X119684387Y-88511092D01*
X119707836Y-88503979D01*
X119729446Y-88492428D01*
X119748388Y-88476882D01*
X119763933Y-88457940D01*
X119775484Y-88436331D01*
X119810760Y-88351168D01*
X119842865Y-88303120D01*
X119870560Y-88261671D01*
X119946671Y-88185560D01*
X120036168Y-88125760D01*
X120081719Y-88106892D01*
X120121331Y-88090484D01*
X120142941Y-88078933D01*
X120161883Y-88063387D01*
X120177428Y-88044445D01*
X120188979Y-88022835D01*
X120196092Y-87999386D01*
X120198494Y-87974999D01*
X120196092Y-87950613D01*
X120188979Y-87927164D01*
X120177428Y-87905554D01*
X120161882Y-87886612D01*
X120142940Y-87871067D01*
X120121331Y-87859516D01*
X120036168Y-87824240D01*
X120010233Y-87806911D01*
X119946671Y-87764440D01*
X119870560Y-87688329D01*
X119810760Y-87598832D01*
X119800746Y-87574657D01*
X119775484Y-87513669D01*
X119763933Y-87492059D01*
X119748387Y-87473117D01*
X119729445Y-87457572D01*
X119707835Y-87446021D01*
X119684386Y-87438908D01*
X119659999Y-87436506D01*
X119635613Y-87438908D01*
X119612164Y-87446021D01*
X119590554Y-87457572D01*
X119571612Y-87473118D01*
X119556067Y-87492060D01*
X119544516Y-87513669D01*
X119519254Y-87574657D01*
X119509240Y-87598832D01*
X119449440Y-87688329D01*
X119373329Y-87764440D01*
X119309767Y-87806911D01*
X119283832Y-87824240D01*
X119198669Y-87859516D01*
X119177059Y-87871067D01*
X119158117Y-87886613D01*
X119142572Y-87905555D01*
X119131021Y-87927165D01*
X119123908Y-87950614D01*
X119121506Y-87975001D01*
X118928493Y-87975001D01*
X118928494Y-87974999D01*
X118926092Y-87950613D01*
X118918979Y-87927164D01*
X118907428Y-87905554D01*
X118891882Y-87886612D01*
X118872940Y-87871067D01*
X118851331Y-87859516D01*
X118766168Y-87824240D01*
X118740233Y-87806911D01*
X118676671Y-87764440D01*
X118600560Y-87688329D01*
X118540760Y-87598832D01*
X118530746Y-87574657D01*
X118505484Y-87513669D01*
X118493933Y-87492059D01*
X118478387Y-87473117D01*
X118459445Y-87457572D01*
X118437835Y-87446021D01*
X118414386Y-87438908D01*
X118389999Y-87436506D01*
X118365613Y-87438908D01*
X118342164Y-87446021D01*
X118320554Y-87457572D01*
X118301612Y-87473118D01*
X118286067Y-87492060D01*
X118274516Y-87513669D01*
X118249254Y-87574657D01*
X118239240Y-87598832D01*
X118179440Y-87688329D01*
X118103329Y-87764440D01*
X118039767Y-87806911D01*
X118013832Y-87824240D01*
X117928669Y-87859516D01*
X117907059Y-87871067D01*
X117888117Y-87886613D01*
X117872572Y-87905555D01*
X117861021Y-87927165D01*
X117853908Y-87950614D01*
X117851506Y-87975001D01*
X117658493Y-87975001D01*
X117658494Y-87974999D01*
X117656092Y-87950613D01*
X117648979Y-87927164D01*
X117637428Y-87905554D01*
X117621882Y-87886612D01*
X117602940Y-87871067D01*
X117581331Y-87859516D01*
X117496168Y-87824240D01*
X117470233Y-87806911D01*
X117406671Y-87764440D01*
X117330560Y-87688329D01*
X117330558Y-87688326D01*
X117324502Y-87682270D01*
X117319755Y-87676487D01*
X117300811Y-87660945D01*
X117279198Y-87649397D01*
X117255749Y-87642287D01*
X117231362Y-87639888D01*
X117206976Y-87642293D01*
X117183528Y-87649409D01*
X117161919Y-87660964D01*
X117142979Y-87676511D01*
X117127437Y-87695455D01*
X117115889Y-87717068D01*
X117108779Y-87740517D01*
X117106380Y-87764904D01*
X115870601Y-87764904D01*
X115910723Y-87668042D01*
X115981642Y-87561905D01*
X116071905Y-87471642D01*
X116178042Y-87400723D01*
X116295976Y-87351873D01*
X116372026Y-87336746D01*
X116421173Y-87326970D01*
X116548827Y-87326970D01*
X116597974Y-87336746D01*
X116674024Y-87351873D01*
X116791958Y-87400723D01*
X116898095Y-87471642D01*
X116988358Y-87561905D01*
X117000396Y-87579920D01*
X117015937Y-87598858D01*
X117034879Y-87614403D01*
X117056490Y-87625954D01*
X117079939Y-87633067D01*
X117104325Y-87635469D01*
X117128711Y-87633067D01*
X117152160Y-87625954D01*
X117173771Y-87614403D01*
X117192713Y-87598858D01*
X117208258Y-87579916D01*
X117219809Y-87558305D01*
X117226922Y-87534856D01*
X117229324Y-87510470D01*
X117226922Y-87486084D01*
X117208570Y-87393820D01*
X117208570Y-87286179D01*
X117229568Y-87180613D01*
X117270759Y-87081170D01*
X117275550Y-87074000D01*
X117330560Y-86991671D01*
X117406671Y-86915560D01*
X117496168Y-86855760D01*
X117496170Y-86855759D01*
X117595613Y-86814568D01*
X117701179Y-86793570D01*
X117808821Y-86793570D01*
X117914387Y-86814568D01*
X118013830Y-86855759D01*
X118013832Y-86855760D01*
X118103329Y-86915560D01*
X118179440Y-86991671D01*
X118225357Y-87060391D01*
X118239240Y-87081168D01*
X118274516Y-87166331D01*
X118286067Y-87187941D01*
X118301613Y-87206883D01*
X118320555Y-87222428D01*
X118342165Y-87233979D01*
X118365614Y-87241092D01*
X118390001Y-87243494D01*
X118414387Y-87241092D01*
X118437836Y-87233979D01*
X118459446Y-87222428D01*
X118478388Y-87206882D01*
X118493933Y-87187940D01*
X118505484Y-87166331D01*
X118540760Y-87081168D01*
X118554643Y-87060391D01*
X118600560Y-86991671D01*
X118676671Y-86915560D01*
X118766168Y-86855760D01*
X118766170Y-86855759D01*
X118865613Y-86814568D01*
X118971179Y-86793570D01*
X119078821Y-86793570D01*
X119184387Y-86814568D01*
X119283830Y-86855759D01*
X119283832Y-86855760D01*
X119373329Y-86915560D01*
X119449440Y-86991671D01*
X119495357Y-87060391D01*
X119509240Y-87081168D01*
X119544516Y-87166331D01*
X119556067Y-87187941D01*
X119571613Y-87206883D01*
X119590555Y-87222428D01*
X119612165Y-87233979D01*
X119635614Y-87241092D01*
X119660001Y-87243494D01*
X119684387Y-87241092D01*
X119707836Y-87233979D01*
X119729446Y-87222428D01*
X119748388Y-87206882D01*
X119763933Y-87187940D01*
X119775484Y-87166331D01*
X119810760Y-87081168D01*
X119824643Y-87060391D01*
X119870560Y-86991671D01*
X119946671Y-86915560D01*
X120036168Y-86855760D01*
X120036170Y-86855759D01*
X120135613Y-86814568D01*
X120241179Y-86793570D01*
X120348821Y-86793570D01*
X120454387Y-86814568D01*
X120553830Y-86855759D01*
X120553832Y-86855760D01*
X120643329Y-86915560D01*
X120704859Y-86977090D01*
X120723795Y-86992630D01*
X120745406Y-87004181D01*
X120768855Y-87011294D01*
X120793241Y-87013696D01*
X120817627Y-87011294D01*
X120841076Y-87004181D01*
X120862687Y-86992630D01*
X120881629Y-86977085D01*
X120897174Y-86958143D01*
X120908725Y-86936532D01*
X120915838Y-86913083D01*
X120916952Y-86901774D01*
X120943094Y-86770348D01*
X120991848Y-86652646D01*
X121062629Y-86546715D01*
X121152715Y-86456629D01*
X121168829Y-86445862D01*
X121258644Y-86385849D01*
X121258646Y-86385848D01*
X121376348Y-86337094D01*
X121501298Y-86312240D01*
X121628702Y-86312240D01*
X121753652Y-86337094D01*
X121753652Y-86337094D01*
G37*
G36*
X114791135Y-88401075D02*
G01*
X114834780Y-88414314D01*
X114874998Y-88435811D01*
X114910254Y-88464746D01*
X114939189Y-88500002D01*
X114960686Y-88540220D01*
X114973925Y-88583865D01*
X114979000Y-88635391D01*
X114979000Y-89339609D01*
X114973925Y-89391135D01*
X114960686Y-89434780D01*
X114939189Y-89474998D01*
X114910254Y-89510254D01*
X114874998Y-89539189D01*
X114834780Y-89560686D01*
X114791135Y-89573925D01*
X114739609Y-89579000D01*
X113960391Y-89579000D01*
X113908865Y-89573925D01*
X113865220Y-89560686D01*
X113825002Y-89539189D01*
X113789746Y-89510254D01*
X113760811Y-89474998D01*
X113739314Y-89434780D01*
X113726075Y-89391135D01*
X113721000Y-89339609D01*
X113721000Y-88635391D01*
X113726075Y-88583865D01*
X113739314Y-88540220D01*
X113760811Y-88500002D01*
X113789746Y-88464746D01*
X113825002Y-88435811D01*
X113865220Y-88414314D01*
X113908865Y-88401075D01*
X113960391Y-88396000D01*
X114739609Y-88396000D01*
X114791135Y-88401075D01*
X114791135Y-88401075D01*
G37*
G36*
X138093489Y-84969706D02*
G01*
X138123762Y-84978889D01*
X138151666Y-84993805D01*
X138176124Y-85013876D01*
X138196195Y-85038334D01*
X138211111Y-85066238D01*
X138220294Y-85096511D01*
X138224000Y-85134141D01*
X138224000Y-85695859D01*
X138220294Y-85733489D01*
X138211111Y-85763762D01*
X138196195Y-85791667D01*
X138172367Y-85820701D01*
X138158753Y-85841076D01*
X138149376Y-85863714D01*
X138144595Y-85887748D01*
X138144595Y-85912252D01*
X138149375Y-85936285D01*
X138158753Y-85958924D01*
X138172367Y-85979299D01*
X138196195Y-86008333D01*
X138211111Y-86036238D01*
X138220294Y-86066511D01*
X138224000Y-86104141D01*
X138224000Y-86665859D01*
X138220294Y-86703489D01*
X138211111Y-86733762D01*
X138196195Y-86761666D01*
X138176124Y-86786124D01*
X138151667Y-86806195D01*
X138135641Y-86814761D01*
X138115267Y-86828375D01*
X138097940Y-86845702D01*
X138084326Y-86866077D01*
X138074949Y-86888716D01*
X138070169Y-86912749D01*
X138070169Y-86937253D01*
X138074950Y-86961286D01*
X138084327Y-86983925D01*
X138097941Y-87004299D01*
X138115268Y-87021626D01*
X138135641Y-87035239D01*
X138151667Y-87043805D01*
X138176124Y-87063876D01*
X138196195Y-87088334D01*
X138211111Y-87116238D01*
X138220294Y-87146511D01*
X138224000Y-87184141D01*
X138224000Y-87745859D01*
X138220294Y-87783489D01*
X138211111Y-87813762D01*
X138196195Y-87841667D01*
X138172367Y-87870701D01*
X138158753Y-87891076D01*
X138149376Y-87913714D01*
X138144595Y-87937748D01*
X138144595Y-87962252D01*
X138149375Y-87986285D01*
X138158753Y-88008924D01*
X138172367Y-88029299D01*
X138196195Y-88058333D01*
X138211111Y-88086238D01*
X138220294Y-88116511D01*
X138224000Y-88154141D01*
X138224000Y-88715859D01*
X138220294Y-88753489D01*
X138211111Y-88783762D01*
X138196195Y-88811666D01*
X138176124Y-88836124D01*
X138151666Y-88856195D01*
X138123762Y-88871111D01*
X138093489Y-88880294D01*
X138055859Y-88884000D01*
X137444141Y-88884000D01*
X137406511Y-88880294D01*
X137376238Y-88871111D01*
X137348334Y-88856195D01*
X137323876Y-88836124D01*
X137303805Y-88811666D01*
X137288890Y-88783763D01*
X137278616Y-88749893D01*
X137269239Y-88727254D01*
X137255626Y-88706880D01*
X137238299Y-88689553D01*
X137217925Y-88675939D01*
X137195286Y-88666561D01*
X137171253Y-88661780D01*
X137146749Y-88661780D01*
X137122715Y-88666560D01*
X137100076Y-88675937D01*
X137079702Y-88689550D01*
X137062375Y-88706877D01*
X137048761Y-88727251D01*
X137039383Y-88749890D01*
X137034602Y-88773923D01*
X137034000Y-88786177D01*
X137034000Y-88905859D01*
X137030294Y-88943489D01*
X137021111Y-88973762D01*
X137006195Y-89001666D01*
X136986124Y-89026124D01*
X136961666Y-89046195D01*
X136933762Y-89061111D01*
X136903489Y-89070294D01*
X136865859Y-89074000D01*
X136304141Y-89074000D01*
X136266511Y-89070294D01*
X136236238Y-89061111D01*
X136208333Y-89046195D01*
X136179299Y-89022367D01*
X136158924Y-89008753D01*
X136136286Y-88999376D01*
X136112252Y-88994595D01*
X136087748Y-88994595D01*
X136063715Y-88999375D01*
X136041076Y-89008753D01*
X136020701Y-89022367D01*
X135991667Y-89046195D01*
X135963762Y-89061111D01*
X135933489Y-89070294D01*
X135895859Y-89074000D01*
X135334141Y-89074000D01*
X135296511Y-89070294D01*
X135266238Y-89061111D01*
X135238334Y-89046195D01*
X135213876Y-89026124D01*
X135193805Y-89001666D01*
X135178889Y-88973762D01*
X135169706Y-88943489D01*
X135166000Y-88905859D01*
X135166000Y-88294141D01*
X135169706Y-88256511D01*
X135178889Y-88226238D01*
X135193805Y-88198334D01*
X135213876Y-88173876D01*
X135238334Y-88153805D01*
X135266238Y-88138889D01*
X135296511Y-88129706D01*
X135334141Y-88126000D01*
X135895859Y-88126000D01*
X135933489Y-88129706D01*
X135963762Y-88138889D01*
X135991667Y-88153805D01*
X136020701Y-88177633D01*
X136041076Y-88191247D01*
X136063714Y-88200624D01*
X136087748Y-88205405D01*
X136112252Y-88205405D01*
X136136285Y-88200625D01*
X136158924Y-88191247D01*
X136179299Y-88177633D01*
X136208333Y-88153805D01*
X136236238Y-88138889D01*
X136268302Y-88129163D01*
X136288692Y-88125107D01*
X136311330Y-88115728D01*
X136331704Y-88102113D01*
X136349030Y-88084785D01*
X136362643Y-88064410D01*
X136372019Y-88041771D01*
X136376798Y-88017737D01*
X136376797Y-87994948D01*
X136805853Y-87994948D01*
X136805853Y-88019453D01*
X136810633Y-88043486D01*
X136820010Y-88066125D01*
X136833624Y-88086499D01*
X136850951Y-88103826D01*
X136871325Y-88117440D01*
X136893966Y-88126818D01*
X136933763Y-88138890D01*
X136961666Y-88153805D01*
X136986124Y-88173876D01*
X137006195Y-88198334D01*
X137021110Y-88226237D01*
X137031384Y-88260107D01*
X137040761Y-88282746D01*
X137054374Y-88303120D01*
X137071701Y-88320447D01*
X137092075Y-88334061D01*
X137114714Y-88343439D01*
X137138747Y-88348220D01*
X137163251Y-88348220D01*
X137187285Y-88343440D01*
X137209924Y-88334063D01*
X137230298Y-88320450D01*
X137247625Y-88303123D01*
X137261239Y-88282749D01*
X137270617Y-88260110D01*
X137275398Y-88236077D01*
X137276000Y-88223823D01*
X137276000Y-88154141D01*
X137279706Y-88116511D01*
X137288889Y-88086238D01*
X137303805Y-88058333D01*
X137327633Y-88029299D01*
X137341247Y-88008924D01*
X137350624Y-87986286D01*
X137355405Y-87962252D01*
X137355405Y-87937748D01*
X137350625Y-87913715D01*
X137341247Y-87891076D01*
X137327633Y-87870701D01*
X137303805Y-87841667D01*
X137288888Y-87813760D01*
X137288216Y-87811544D01*
X137278839Y-87788905D01*
X137265225Y-87768531D01*
X137247898Y-87751204D01*
X137227523Y-87737590D01*
X137204884Y-87728213D01*
X137180851Y-87723433D01*
X137156347Y-87723433D01*
X137132314Y-87728214D01*
X137109675Y-87737591D01*
X137089301Y-87751205D01*
X137071974Y-87768532D01*
X137058360Y-87788906D01*
X137046193Y-87811669D01*
X137026124Y-87836124D01*
X137001666Y-87856195D01*
X136973762Y-87871111D01*
X136943489Y-87880293D01*
X136917998Y-87882804D01*
X136893965Y-87887584D01*
X136871326Y-87896961D01*
X136850952Y-87910575D01*
X136833625Y-87927902D01*
X136820011Y-87948276D01*
X136810634Y-87970915D01*
X136805853Y-87994948D01*
X136376797Y-87994948D01*
X136376796Y-87993233D01*
X136372015Y-87969200D01*
X136362636Y-87946562D01*
X136349021Y-87926188D01*
X136331693Y-87908862D01*
X136311318Y-87895249D01*
X136288679Y-87885873D01*
X136264650Y-87881095D01*
X136256511Y-87880294D01*
X136226238Y-87871111D01*
X136198334Y-87856195D01*
X136173876Y-87836124D01*
X136153805Y-87811666D01*
X136138889Y-87783762D01*
X136129706Y-87753489D01*
X136126000Y-87715859D01*
X136126000Y-87154141D01*
X136129706Y-87116511D01*
X136138889Y-87086238D01*
X136153805Y-87058333D01*
X136177633Y-87029299D01*
X136191247Y-87008924D01*
X136200624Y-86986286D01*
X136205405Y-86962252D01*
X136205405Y-86937748D01*
X136994595Y-86937748D01*
X136994595Y-86962252D01*
X136999375Y-86986285D01*
X137008753Y-87008924D01*
X137022367Y-87029299D01*
X137046195Y-87058333D01*
X137061112Y-87086240D01*
X137061784Y-87088456D01*
X137071161Y-87111095D01*
X137084775Y-87131469D01*
X137102102Y-87148796D01*
X137122477Y-87162410D01*
X137145116Y-87171787D01*
X137169149Y-87176567D01*
X137193653Y-87176567D01*
X137217686Y-87171786D01*
X137240325Y-87162409D01*
X137260699Y-87148795D01*
X137278026Y-87131468D01*
X137291640Y-87111094D01*
X137303807Y-87088331D01*
X137323876Y-87063876D01*
X137348333Y-87043805D01*
X137364359Y-87035239D01*
X137384733Y-87021625D01*
X137402060Y-87004298D01*
X137415674Y-86983923D01*
X137425051Y-86961284D01*
X137429831Y-86937251D01*
X137429831Y-86912747D01*
X137425050Y-86888714D01*
X137415673Y-86866075D01*
X137402059Y-86845701D01*
X137384732Y-86828374D01*
X137364359Y-86814761D01*
X137348333Y-86806195D01*
X137323876Y-86786124D01*
X137303804Y-86761666D01*
X137301313Y-86757005D01*
X137287698Y-86736631D01*
X137270371Y-86719304D01*
X137249996Y-86705691D01*
X137227357Y-86696314D01*
X137203324Y-86691535D01*
X137178820Y-86691535D01*
X137154787Y-86696316D01*
X137132148Y-86705694D01*
X137111774Y-86719309D01*
X137094447Y-86736636D01*
X137080834Y-86757011D01*
X137071458Y-86779649D01*
X137061111Y-86813762D01*
X137046195Y-86841667D01*
X137022367Y-86870701D01*
X137008753Y-86891076D01*
X136999376Y-86913714D01*
X136994595Y-86937748D01*
X136205405Y-86937748D01*
X136200625Y-86913715D01*
X136191247Y-86891076D01*
X136177633Y-86870701D01*
X136153805Y-86841667D01*
X136138889Y-86813762D01*
X136129706Y-86783489D01*
X136126000Y-86745859D01*
X136126000Y-86184141D01*
X136129706Y-86146511D01*
X136138889Y-86116238D01*
X136153805Y-86088334D01*
X136173876Y-86063876D01*
X136198334Y-86043805D01*
X136226238Y-86028889D01*
X136256511Y-86019706D01*
X136294141Y-86016000D01*
X136905859Y-86016000D01*
X136943489Y-86019706D01*
X136973762Y-86028889D01*
X137001666Y-86043805D01*
X137026124Y-86063876D01*
X137046196Y-86088334D01*
X137048687Y-86092995D01*
X137062302Y-86113369D01*
X137079629Y-86130696D01*
X137100004Y-86144309D01*
X137122643Y-86153686D01*
X137146676Y-86158465D01*
X137171180Y-86158465D01*
X137195213Y-86153684D01*
X137217852Y-86144306D01*
X137238226Y-86130691D01*
X137255553Y-86113364D01*
X137269166Y-86092989D01*
X137278542Y-86070351D01*
X137288889Y-86036238D01*
X137303805Y-86008333D01*
X137327633Y-85979299D01*
X137341247Y-85958924D01*
X137350624Y-85936286D01*
X137355405Y-85912252D01*
X137355405Y-85887748D01*
X137350625Y-85863715D01*
X137341247Y-85841076D01*
X137327633Y-85820701D01*
X137303805Y-85791667D01*
X137288889Y-85763762D01*
X137279706Y-85733489D01*
X137276000Y-85695859D01*
X137276000Y-85134141D01*
X137279706Y-85096511D01*
X137288889Y-85066238D01*
X137303805Y-85038334D01*
X137323876Y-85013876D01*
X137348334Y-84993805D01*
X137376238Y-84978889D01*
X137406511Y-84969706D01*
X137444141Y-84966000D01*
X138055859Y-84966000D01*
X138093489Y-84969706D01*
X138093489Y-84969706D01*
G37*
G36*
X105520219Y-80973399D02*
G01*
X105537753Y-80976886D01*
X105562257Y-80976885D01*
X105579784Y-80973399D01*
X105604138Y-80971000D01*
X105995862Y-80971000D01*
X106020219Y-80973399D01*
X106037753Y-80976886D01*
X106062257Y-80976885D01*
X106079784Y-80973399D01*
X106104138Y-80971000D01*
X106495862Y-80971000D01*
X106520219Y-80973399D01*
X106537753Y-80976886D01*
X106562257Y-80976885D01*
X106579784Y-80973399D01*
X106604138Y-80971000D01*
X106995862Y-80971000D01*
X107020219Y-80973399D01*
X107037753Y-80976886D01*
X107062257Y-80976885D01*
X107079784Y-80973399D01*
X107104138Y-80971000D01*
X107495862Y-80971000D01*
X107520219Y-80973399D01*
X107537753Y-80976886D01*
X107562257Y-80976885D01*
X107579784Y-80973399D01*
X107604138Y-80971000D01*
X107995862Y-80971000D01*
X108020219Y-80973399D01*
X108037753Y-80976886D01*
X108062257Y-80976885D01*
X108079784Y-80973399D01*
X108104138Y-80971000D01*
X108495862Y-80971000D01*
X108520219Y-80973399D01*
X108537753Y-80976886D01*
X108562257Y-80976885D01*
X108579784Y-80973399D01*
X108604138Y-80971000D01*
X108995862Y-80971000D01*
X109020219Y-80973399D01*
X109037753Y-80976886D01*
X109062257Y-80976885D01*
X109079784Y-80973399D01*
X109104138Y-80971000D01*
X109495862Y-80971000D01*
X109520219Y-80973399D01*
X109537753Y-80976886D01*
X109562257Y-80976885D01*
X109579784Y-80973399D01*
X109604138Y-80971000D01*
X109995862Y-80971000D01*
X110020219Y-80973399D01*
X110037753Y-80976886D01*
X110062257Y-80976885D01*
X110079784Y-80973399D01*
X110104138Y-80971000D01*
X110495862Y-80971000D01*
X110520219Y-80973399D01*
X110537753Y-80976886D01*
X110562257Y-80976885D01*
X110579784Y-80973399D01*
X110604138Y-80971000D01*
X110995862Y-80971000D01*
X111016902Y-80973072D01*
X111031236Y-80977420D01*
X111044444Y-80984480D01*
X111056020Y-80993980D01*
X111065520Y-81005556D01*
X111072580Y-81018764D01*
X111076928Y-81033098D01*
X111079000Y-81054138D01*
X111079000Y-81846001D01*
X111081402Y-81870387D01*
X111088515Y-81893836D01*
X111100066Y-81915447D01*
X111115611Y-81934389D01*
X111134553Y-81949934D01*
X111156164Y-81961485D01*
X111179613Y-81968598D01*
X111203999Y-81971000D01*
X111995862Y-81971000D01*
X112016902Y-81973072D01*
X112031236Y-81977420D01*
X112044444Y-81984480D01*
X112056020Y-81993980D01*
X112065520Y-82005556D01*
X112072580Y-82018764D01*
X112076928Y-82033098D01*
X112079000Y-82054138D01*
X112079000Y-82445862D01*
X112076601Y-82470219D01*
X112073114Y-82487753D01*
X112073115Y-82512257D01*
X112076601Y-82529784D01*
X112079000Y-82554138D01*
X112079000Y-82945862D01*
X112076601Y-82970219D01*
X112073114Y-82987753D01*
X112073115Y-83012257D01*
X112076601Y-83029784D01*
X112079000Y-83054138D01*
X112079000Y-83445862D01*
X112076601Y-83470219D01*
X112073114Y-83487753D01*
X112073115Y-83512257D01*
X112076601Y-83529784D01*
X112079000Y-83554138D01*
X112079000Y-83945862D01*
X112076601Y-83970219D01*
X112073114Y-83987753D01*
X112073115Y-84012257D01*
X112076601Y-84029784D01*
X112079000Y-84054138D01*
X112079000Y-84445862D01*
X112076601Y-84470219D01*
X112073114Y-84487753D01*
X112073115Y-84512257D01*
X112076601Y-84529784D01*
X112079000Y-84554138D01*
X112079000Y-84945862D01*
X112076601Y-84970219D01*
X112073114Y-84987753D01*
X112073115Y-85012257D01*
X112076601Y-85029784D01*
X112079000Y-85054138D01*
X112079000Y-85445862D01*
X112076601Y-85470219D01*
X112073114Y-85487753D01*
X112073115Y-85512257D01*
X112076601Y-85529784D01*
X112079000Y-85554138D01*
X112079000Y-85945862D01*
X112076601Y-85970219D01*
X112073114Y-85987753D01*
X112073115Y-86012257D01*
X112076601Y-86029784D01*
X112079000Y-86054138D01*
X112079000Y-86445862D01*
X112076601Y-86470219D01*
X112073114Y-86487753D01*
X112073115Y-86512257D01*
X112076601Y-86529784D01*
X112079000Y-86554138D01*
X112079000Y-86945862D01*
X112076601Y-86970219D01*
X112073114Y-86987753D01*
X112073115Y-87012257D01*
X112076601Y-87029784D01*
X112079000Y-87054138D01*
X112079000Y-87445862D01*
X112076601Y-87470219D01*
X112073114Y-87487753D01*
X112073115Y-87512257D01*
X112076601Y-87529784D01*
X112079000Y-87554138D01*
X112079000Y-87945862D01*
X112076928Y-87966902D01*
X112072580Y-87981236D01*
X112065520Y-87994444D01*
X112056020Y-88006020D01*
X112044444Y-88015520D01*
X112031236Y-88022580D01*
X112016902Y-88026928D01*
X111995862Y-88029000D01*
X111203999Y-88029000D01*
X111179613Y-88031402D01*
X111156164Y-88038515D01*
X111134553Y-88050066D01*
X111115611Y-88065611D01*
X111100066Y-88084553D01*
X111088515Y-88106164D01*
X111081402Y-88129613D01*
X111079000Y-88153999D01*
X111079000Y-88945862D01*
X111076928Y-88966902D01*
X111072580Y-88981236D01*
X111065520Y-88994444D01*
X111056020Y-89006020D01*
X111044444Y-89015520D01*
X111031236Y-89022580D01*
X111016902Y-89026928D01*
X110995862Y-89029000D01*
X110604138Y-89029000D01*
X110579781Y-89026601D01*
X110562247Y-89023114D01*
X110537743Y-89023115D01*
X110520216Y-89026601D01*
X110495862Y-89029000D01*
X110104138Y-89029000D01*
X110079781Y-89026601D01*
X110062247Y-89023114D01*
X110037743Y-89023115D01*
X110020216Y-89026601D01*
X109995862Y-89029000D01*
X109604138Y-89029000D01*
X109579781Y-89026601D01*
X109562247Y-89023114D01*
X109537743Y-89023115D01*
X109520216Y-89026601D01*
X109495862Y-89029000D01*
X109104138Y-89029000D01*
X109079781Y-89026601D01*
X109062247Y-89023114D01*
X109037743Y-89023115D01*
X109020216Y-89026601D01*
X108995862Y-89029000D01*
X108604138Y-89029000D01*
X108579781Y-89026601D01*
X108562247Y-89023114D01*
X108537743Y-89023115D01*
X108520216Y-89026601D01*
X108495862Y-89029000D01*
X108104138Y-89029000D01*
X108079781Y-89026601D01*
X108062247Y-89023114D01*
X108037743Y-89023115D01*
X108020216Y-89026601D01*
X107995862Y-89029000D01*
X107604138Y-89029000D01*
X107579781Y-89026601D01*
X107562247Y-89023114D01*
X107537743Y-89023115D01*
X107520216Y-89026601D01*
X107495862Y-89029000D01*
X107104138Y-89029000D01*
X107079781Y-89026601D01*
X107062247Y-89023114D01*
X107037743Y-89023115D01*
X107020216Y-89026601D01*
X106995862Y-89029000D01*
X106604138Y-89029000D01*
X106579781Y-89026601D01*
X106562247Y-89023114D01*
X106537743Y-89023115D01*
X106520216Y-89026601D01*
X106495862Y-89029000D01*
X106104138Y-89029000D01*
X106079781Y-89026601D01*
X106062247Y-89023114D01*
X106037743Y-89023115D01*
X106020216Y-89026601D01*
X105995862Y-89029000D01*
X105604138Y-89029000D01*
X105579781Y-89026601D01*
X105562247Y-89023114D01*
X105537743Y-89023115D01*
X105520216Y-89026601D01*
X105495862Y-89029000D01*
X105104138Y-89029000D01*
X105083098Y-89026928D01*
X105068764Y-89022580D01*
X105055556Y-89015520D01*
X105043980Y-89006020D01*
X105034480Y-88994444D01*
X105027420Y-88981236D01*
X105023072Y-88966902D01*
X105021000Y-88945862D01*
X105021000Y-88153999D01*
X105018598Y-88129613D01*
X105011485Y-88106164D01*
X104999934Y-88084553D01*
X104984389Y-88065611D01*
X104965447Y-88050066D01*
X104943836Y-88038515D01*
X104920387Y-88031402D01*
X104896001Y-88029000D01*
X104104138Y-88029000D01*
X104083098Y-88026928D01*
X104068764Y-88022580D01*
X104055556Y-88015520D01*
X104043980Y-88006020D01*
X104034480Y-87994444D01*
X104027420Y-87981236D01*
X104023072Y-87966902D01*
X104021000Y-87945862D01*
X104021000Y-87919578D01*
X104018598Y-87895192D01*
X104011485Y-87871743D01*
X103999934Y-87850132D01*
X103984389Y-87831190D01*
X103965447Y-87815645D01*
X103943836Y-87804094D01*
X103920387Y-87796981D01*
X103896001Y-87794579D01*
X103871615Y-87796981D01*
X103848166Y-87804094D01*
X103837074Y-87809340D01*
X103833761Y-87811111D01*
X103803489Y-87820294D01*
X103765859Y-87824000D01*
X103204141Y-87824000D01*
X103166511Y-87820294D01*
X103136238Y-87811111D01*
X103108333Y-87796195D01*
X103079299Y-87772367D01*
X103058924Y-87758753D01*
X103036286Y-87749376D01*
X103012252Y-87744595D01*
X102987748Y-87744595D01*
X102963715Y-87749375D01*
X102941076Y-87758753D01*
X102920701Y-87772367D01*
X102891667Y-87796195D01*
X102863762Y-87811111D01*
X102833489Y-87820294D01*
X102795859Y-87824000D01*
X102234141Y-87824000D01*
X102196511Y-87820294D01*
X102166238Y-87811111D01*
X102138334Y-87796195D01*
X102113876Y-87776124D01*
X102093805Y-87751666D01*
X102078889Y-87723762D01*
X102069706Y-87693489D01*
X102066000Y-87655859D01*
X102066000Y-87044141D01*
X102069706Y-87006511D01*
X102078889Y-86976238D01*
X102093805Y-86948334D01*
X102113876Y-86923876D01*
X102138334Y-86903805D01*
X102166238Y-86888889D01*
X102196511Y-86879706D01*
X102234141Y-86876000D01*
X102795859Y-86876000D01*
X102833489Y-86879706D01*
X102863762Y-86888889D01*
X102891667Y-86903805D01*
X102920701Y-86927633D01*
X102941076Y-86941247D01*
X102963714Y-86950624D01*
X102987748Y-86955405D01*
X103012252Y-86955405D01*
X103036285Y-86950625D01*
X103058924Y-86941247D01*
X103079299Y-86927633D01*
X103108333Y-86903805D01*
X103136238Y-86888889D01*
X103166511Y-86879706D01*
X103204141Y-86876000D01*
X103765859Y-86876000D01*
X103803489Y-86879706D01*
X103833761Y-86888889D01*
X103837074Y-86890660D01*
X103859713Y-86900038D01*
X103883746Y-86904819D01*
X103908250Y-86904819D01*
X103932283Y-86900039D01*
X103954922Y-86890663D01*
X103975297Y-86877049D01*
X103992625Y-86859723D01*
X104006239Y-86839349D01*
X104015617Y-86816710D01*
X104020398Y-86792677D01*
X104021000Y-86780422D01*
X104021000Y-86554138D01*
X104023399Y-86529781D01*
X104026886Y-86512247D01*
X104026885Y-86487743D01*
X104023399Y-86470216D01*
X104021000Y-86445862D01*
X104021000Y-86054138D01*
X104023399Y-86029781D01*
X104026886Y-86012247D01*
X104026885Y-85987743D01*
X104023399Y-85970216D01*
X104021000Y-85945862D01*
X104021000Y-85562660D01*
X104018598Y-85538274D01*
X104011485Y-85514825D01*
X103999934Y-85493214D01*
X103984389Y-85474272D01*
X103965447Y-85458727D01*
X103943836Y-85447176D01*
X103920387Y-85440063D01*
X103896001Y-85437661D01*
X103871615Y-85440063D01*
X103848166Y-85447176D01*
X103826555Y-85458727D01*
X103807613Y-85474272D01*
X103792068Y-85493214D01*
X103780517Y-85514825D01*
X103776384Y-85526377D01*
X103771111Y-85543762D01*
X103756195Y-85571666D01*
X103736124Y-85596124D01*
X103711666Y-85616195D01*
X103683762Y-85631111D01*
X103653489Y-85640294D01*
X103615859Y-85644000D01*
X103004141Y-85644000D01*
X102966511Y-85640294D01*
X102936238Y-85631111D01*
X102908333Y-85616195D01*
X102908298Y-85616166D01*
X102887924Y-85602552D01*
X102865285Y-85593175D01*
X102841251Y-85588394D01*
X102816747Y-85588394D01*
X102792714Y-85593174D01*
X102770075Y-85602552D01*
X102749701Y-85616165D01*
X102732374Y-85633492D01*
X102718760Y-85653866D01*
X102709383Y-85676505D01*
X102704602Y-85700539D01*
X102704000Y-85712791D01*
X102704000Y-85970859D01*
X102700294Y-86008489D01*
X102691111Y-86038762D01*
X102676195Y-86066666D01*
X102656124Y-86091124D01*
X102631666Y-86111195D01*
X102603762Y-86126111D01*
X102573489Y-86135294D01*
X102535859Y-86139000D01*
X101924141Y-86139000D01*
X101886511Y-86135294D01*
X101856238Y-86126111D01*
X101828334Y-86111195D01*
X101803876Y-86091124D01*
X101783805Y-86066666D01*
X101768889Y-86038762D01*
X101759706Y-86008489D01*
X101756000Y-85970859D01*
X101756000Y-85409141D01*
X101759706Y-85371511D01*
X101768889Y-85341238D01*
X101783805Y-85313333D01*
X101807633Y-85284299D01*
X101821247Y-85263924D01*
X101830624Y-85241286D01*
X101835405Y-85217252D01*
X101835405Y-85192748D01*
X101830625Y-85168715D01*
X101821247Y-85146076D01*
X101807633Y-85125701D01*
X101783805Y-85096667D01*
X101768889Y-85068762D01*
X101759706Y-85038489D01*
X101756000Y-85000859D01*
X101756000Y-84697748D01*
X103704595Y-84697748D01*
X103704595Y-84722252D01*
X103709375Y-84746285D01*
X103718753Y-84768924D01*
X103732367Y-84789299D01*
X103756195Y-84818333D01*
X103771111Y-84846238D01*
X103776384Y-84863623D01*
X103785761Y-84886262D01*
X103799374Y-84906637D01*
X103816701Y-84923964D01*
X103837075Y-84937578D01*
X103859713Y-84946956D01*
X103883747Y-84951737D01*
X103908251Y-84951737D01*
X103932284Y-84946957D01*
X103954923Y-84937580D01*
X103975298Y-84923967D01*
X103992625Y-84906640D01*
X104006239Y-84886266D01*
X104015617Y-84863628D01*
X104020398Y-84839594D01*
X104021000Y-84827340D01*
X104021000Y-84592660D01*
X104018598Y-84568274D01*
X104011485Y-84544825D01*
X103999934Y-84523214D01*
X103984389Y-84504272D01*
X103965447Y-84488727D01*
X103943836Y-84477176D01*
X103920387Y-84470063D01*
X103896001Y-84467661D01*
X103871615Y-84470063D01*
X103848166Y-84477176D01*
X103826555Y-84488727D01*
X103807613Y-84504272D01*
X103792068Y-84523214D01*
X103780517Y-84544825D01*
X103776384Y-84556377D01*
X103771111Y-84573762D01*
X103756195Y-84601667D01*
X103732367Y-84630701D01*
X103718753Y-84651076D01*
X103709376Y-84673714D01*
X103704595Y-84697748D01*
X101756000Y-84697748D01*
X101756000Y-84439141D01*
X101759706Y-84401511D01*
X101768889Y-84371238D01*
X101783805Y-84343334D01*
X101803876Y-84318876D01*
X101828334Y-84298805D01*
X101856238Y-84283889D01*
X101886511Y-84274706D01*
X101924141Y-84271000D01*
X102535859Y-84271000D01*
X102573489Y-84274706D01*
X102603762Y-84283889D01*
X102631667Y-84298805D01*
X102631702Y-84298834D01*
X102652076Y-84312448D01*
X102674715Y-84321825D01*
X102698749Y-84326606D01*
X102723253Y-84326606D01*
X102747286Y-84321826D01*
X102769925Y-84312448D01*
X102790299Y-84298835D01*
X102807626Y-84281508D01*
X102821240Y-84261134D01*
X102830617Y-84238495D01*
X102835398Y-84214461D01*
X102836000Y-84202209D01*
X102836000Y-83944141D01*
X102839706Y-83906511D01*
X102848889Y-83876238D01*
X102863805Y-83848334D01*
X102883876Y-83823876D01*
X102908334Y-83803805D01*
X102936238Y-83788889D01*
X102966511Y-83779706D01*
X103004141Y-83776000D01*
X103615859Y-83776000D01*
X103653489Y-83779706D01*
X103683762Y-83788889D01*
X103711666Y-83803805D01*
X103736124Y-83823876D01*
X103756195Y-83848334D01*
X103771111Y-83876238D01*
X103776384Y-83893623D01*
X103785761Y-83916262D01*
X103799374Y-83936637D01*
X103816701Y-83953964D01*
X103837075Y-83967578D01*
X103859713Y-83976956D01*
X103883747Y-83981737D01*
X103908251Y-83981737D01*
X103932284Y-83976957D01*
X103954923Y-83967580D01*
X103975298Y-83953967D01*
X103992625Y-83936640D01*
X104006239Y-83916266D01*
X104015617Y-83893628D01*
X104020398Y-83869594D01*
X104021000Y-83857340D01*
X104021000Y-83554138D01*
X104023399Y-83529781D01*
X104026886Y-83512247D01*
X104026885Y-83487743D01*
X104023399Y-83470216D01*
X104021000Y-83445862D01*
X104021000Y-83054138D01*
X104023399Y-83029781D01*
X104026886Y-83012247D01*
X104026885Y-82987743D01*
X104023399Y-82970216D01*
X104021000Y-82945862D01*
X104021000Y-82554138D01*
X104023399Y-82529781D01*
X104026886Y-82512247D01*
X104026885Y-82487743D01*
X104023399Y-82470216D01*
X104021000Y-82445862D01*
X104021000Y-82054138D01*
X104023072Y-82033098D01*
X104027420Y-82018764D01*
X104034480Y-82005556D01*
X104043980Y-81993980D01*
X104055556Y-81984480D01*
X104068764Y-81977420D01*
X104083098Y-81973072D01*
X104104138Y-81971000D01*
X104896001Y-81971000D01*
X104920387Y-81968598D01*
X104943836Y-81961485D01*
X104965447Y-81949934D01*
X104984389Y-81934389D01*
X104999934Y-81915447D01*
X105011485Y-81893836D01*
X105018598Y-81870387D01*
X105021000Y-81846001D01*
X105021000Y-81054138D01*
X105023072Y-81033098D01*
X105027420Y-81018764D01*
X105034480Y-81005556D01*
X105043980Y-80993980D01*
X105055556Y-80984480D01*
X105068764Y-80977420D01*
X105083098Y-80973072D01*
X105104138Y-80971000D01*
X105495862Y-80971000D01*
X105520219Y-80973399D01*
X105520219Y-80973399D01*
G37*
G36*
X131993489Y-87024706D02*
G01*
X132023762Y-87033889D01*
X132051666Y-87048805D01*
X132076124Y-87068876D01*
X132096195Y-87093334D01*
X132111111Y-87121238D01*
X132120294Y-87151511D01*
X132124000Y-87189141D01*
X132124000Y-87750859D01*
X132120294Y-87788489D01*
X132111111Y-87818762D01*
X132096195Y-87846667D01*
X132072367Y-87875701D01*
X132058753Y-87896076D01*
X132049376Y-87918714D01*
X132044595Y-87942748D01*
X132044595Y-87967252D01*
X132049375Y-87991285D01*
X132058753Y-88013924D01*
X132072367Y-88034299D01*
X132096195Y-88063333D01*
X132111111Y-88091238D01*
X132120294Y-88121511D01*
X132124000Y-88159141D01*
X132124000Y-88720859D01*
X132120294Y-88758489D01*
X132111111Y-88788762D01*
X132096195Y-88816666D01*
X132076124Y-88841124D01*
X132051666Y-88861195D01*
X132023762Y-88876111D01*
X131993489Y-88885294D01*
X131955859Y-88889000D01*
X131344141Y-88889000D01*
X131306511Y-88885294D01*
X131276238Y-88876111D01*
X131248334Y-88861195D01*
X131223876Y-88841124D01*
X131203805Y-88816666D01*
X131188889Y-88788762D01*
X131179706Y-88758489D01*
X131176000Y-88720859D01*
X131176000Y-88159141D01*
X131179706Y-88121511D01*
X131188889Y-88091238D01*
X131203805Y-88063333D01*
X131227633Y-88034299D01*
X131241247Y-88013924D01*
X131250624Y-87991286D01*
X131255405Y-87967252D01*
X131255405Y-87942748D01*
X131250625Y-87918715D01*
X131241247Y-87896076D01*
X131227633Y-87875701D01*
X131203805Y-87846667D01*
X131188889Y-87818762D01*
X131179706Y-87788489D01*
X131176000Y-87750859D01*
X131176000Y-87189141D01*
X131179706Y-87151511D01*
X131188889Y-87121238D01*
X131203805Y-87093334D01*
X131223876Y-87068876D01*
X131248334Y-87048805D01*
X131276238Y-87033889D01*
X131306511Y-87024706D01*
X131344141Y-87021000D01*
X131955859Y-87021000D01*
X131993489Y-87024706D01*
X131993489Y-87024706D01*
G37*
G36*
X133614000Y-88794000D02*
G01*
X132406000Y-88794000D01*
X132406000Y-87686000D01*
X133614000Y-87686000D01*
X133614000Y-88794000D01*
X133614000Y-88794000D01*
G37*
G36*
X143683489Y-85129706D02*
G01*
X143713762Y-85138889D01*
X143741667Y-85153805D01*
X143770701Y-85177633D01*
X143791076Y-85191247D01*
X143813714Y-85200624D01*
X143837748Y-85205405D01*
X143862252Y-85205405D01*
X143886285Y-85200625D01*
X143908924Y-85191247D01*
X143929299Y-85177633D01*
X143958333Y-85153805D01*
X143986238Y-85138889D01*
X144016511Y-85129706D01*
X144054141Y-85126000D01*
X144615859Y-85126000D01*
X144653489Y-85129706D01*
X144683762Y-85138889D01*
X144711666Y-85153805D01*
X144736124Y-85173876D01*
X144756195Y-85198334D01*
X144771111Y-85226238D01*
X144780294Y-85256511D01*
X144784000Y-85294141D01*
X144784000Y-85905859D01*
X144780294Y-85943489D01*
X144771111Y-85973762D01*
X144756195Y-86001666D01*
X144736124Y-86026124D01*
X144711666Y-86046195D01*
X144676933Y-86064761D01*
X144656558Y-86078375D01*
X144639232Y-86095703D01*
X144625618Y-86116077D01*
X144616241Y-86138716D01*
X144611461Y-86162749D01*
X144611461Y-86187253D01*
X144616242Y-86211287D01*
X144625619Y-86233925D01*
X144639233Y-86254300D01*
X144656561Y-86271626D01*
X144676933Y-86285239D01*
X144711666Y-86303805D01*
X144736124Y-86323876D01*
X144756195Y-86348334D01*
X144771111Y-86376238D01*
X144780294Y-86406511D01*
X144784000Y-86444141D01*
X144784000Y-87055859D01*
X144780294Y-87093489D01*
X144771111Y-87123762D01*
X144756195Y-87151666D01*
X144736124Y-87176124D01*
X144711666Y-87196195D01*
X144683762Y-87211111D01*
X144653489Y-87220294D01*
X144640184Y-87221604D01*
X144616151Y-87226385D01*
X144593512Y-87235762D01*
X144573138Y-87249376D01*
X144555811Y-87266703D01*
X144542197Y-87287078D01*
X144532820Y-87309716D01*
X144528040Y-87333750D01*
X144528040Y-87358254D01*
X144532821Y-87382287D01*
X144542198Y-87404926D01*
X144555812Y-87425300D01*
X144573139Y-87442627D01*
X144593514Y-87456241D01*
X144616152Y-87465618D01*
X144652437Y-87471000D01*
X144989609Y-87471000D01*
X145041135Y-87476075D01*
X145084780Y-87489314D01*
X145124998Y-87510811D01*
X145160254Y-87539746D01*
X145189189Y-87575002D01*
X145210686Y-87615220D01*
X145223925Y-87658865D01*
X145229000Y-87710391D01*
X145229000Y-88489609D01*
X145223925Y-88541135D01*
X145210686Y-88584780D01*
X145189189Y-88624998D01*
X145160254Y-88660254D01*
X145124998Y-88689189D01*
X145084780Y-88710686D01*
X145041135Y-88723925D01*
X144989609Y-88729000D01*
X144285391Y-88729000D01*
X144233865Y-88723925D01*
X144190220Y-88710686D01*
X144150002Y-88689189D01*
X144114746Y-88660254D01*
X144085811Y-88624998D01*
X144064314Y-88584780D01*
X144051075Y-88541135D01*
X144046000Y-88489609D01*
X144046000Y-87710391D01*
X144051075Y-87658865D01*
X144064314Y-87615220D01*
X144085811Y-87575002D01*
X144114746Y-87539746D01*
X144150002Y-87510811D01*
X144190220Y-87489314D01*
X144233865Y-87476075D01*
X144261065Y-87473396D01*
X144285098Y-87468615D01*
X144307737Y-87459238D01*
X144328111Y-87445624D01*
X144345438Y-87428297D01*
X144359052Y-87407923D01*
X144368429Y-87385284D01*
X144373209Y-87361250D01*
X144373209Y-87336746D01*
X144368428Y-87312713D01*
X144359051Y-87290074D01*
X144345437Y-87269700D01*
X144328110Y-87252373D01*
X144307736Y-87238759D01*
X144285097Y-87229382D01*
X144248812Y-87224000D01*
X144054141Y-87224000D01*
X144016511Y-87220294D01*
X143986238Y-87211111D01*
X143958333Y-87196195D01*
X143929299Y-87172367D01*
X143908924Y-87158753D01*
X143886286Y-87149376D01*
X143862252Y-87144595D01*
X143837748Y-87144595D01*
X143813715Y-87149375D01*
X143791076Y-87158753D01*
X143770701Y-87172367D01*
X143741667Y-87196195D01*
X143713762Y-87211111D01*
X143683489Y-87220294D01*
X143645859Y-87224000D01*
X143451188Y-87224000D01*
X143426802Y-87226402D01*
X143403353Y-87233515D01*
X143381742Y-87245066D01*
X143362800Y-87260611D01*
X143347255Y-87279553D01*
X143335704Y-87301164D01*
X143328591Y-87324613D01*
X143326189Y-87348999D01*
X143328591Y-87373385D01*
X143335704Y-87396834D01*
X143347255Y-87418445D01*
X143362800Y-87437387D01*
X143381742Y-87452932D01*
X143403353Y-87464483D01*
X143438935Y-87473396D01*
X143466135Y-87476075D01*
X143509780Y-87489314D01*
X143549998Y-87510811D01*
X143585254Y-87539746D01*
X143614189Y-87575002D01*
X143635686Y-87615220D01*
X143648925Y-87658865D01*
X143654000Y-87710391D01*
X143654000Y-88489609D01*
X143648925Y-88541135D01*
X143635686Y-88584780D01*
X143614189Y-88624998D01*
X143585254Y-88660254D01*
X143549998Y-88689189D01*
X143509780Y-88710686D01*
X143466135Y-88723925D01*
X143414609Y-88729000D01*
X142710391Y-88729000D01*
X142658865Y-88723925D01*
X142615220Y-88710686D01*
X142575002Y-88689189D01*
X142539746Y-88660254D01*
X142510811Y-88624998D01*
X142489314Y-88584780D01*
X142476075Y-88541135D01*
X142471000Y-88489609D01*
X142471000Y-87710391D01*
X142476075Y-87658865D01*
X142489314Y-87615220D01*
X142510811Y-87575002D01*
X142539746Y-87539746D01*
X142575002Y-87510811D01*
X142615220Y-87489314D01*
X142658865Y-87476075D01*
X142710391Y-87471000D01*
X143047563Y-87471000D01*
X143071949Y-87468598D01*
X143095398Y-87461485D01*
X143117009Y-87449934D01*
X143135951Y-87434389D01*
X143151496Y-87415447D01*
X143163047Y-87393836D01*
X143170160Y-87370387D01*
X143172562Y-87346001D01*
X143170160Y-87321615D01*
X143163047Y-87298166D01*
X143151496Y-87276555D01*
X143135951Y-87257613D01*
X143117009Y-87242068D01*
X143095398Y-87230517D01*
X143059816Y-87221604D01*
X143046511Y-87220294D01*
X143016238Y-87211111D01*
X142988334Y-87196195D01*
X142963876Y-87176124D01*
X142943805Y-87151666D01*
X142928889Y-87123762D01*
X142919706Y-87093489D01*
X142916000Y-87055859D01*
X142916000Y-86444141D01*
X142919706Y-86406511D01*
X142928889Y-86376238D01*
X142943805Y-86348334D01*
X142963876Y-86323876D01*
X142988334Y-86303805D01*
X143023067Y-86285239D01*
X143043442Y-86271625D01*
X143060768Y-86254297D01*
X143074382Y-86233923D01*
X143083759Y-86211284D01*
X143088539Y-86187251D01*
X143088539Y-86162749D01*
X143641461Y-86162749D01*
X143641461Y-86187253D01*
X143646242Y-86211287D01*
X143655619Y-86233925D01*
X143669233Y-86254300D01*
X143686561Y-86271626D01*
X143706933Y-86285239D01*
X143741667Y-86303805D01*
X143770701Y-86327633D01*
X143791076Y-86341247D01*
X143813714Y-86350624D01*
X143837748Y-86355405D01*
X143862252Y-86355405D01*
X143886285Y-86350625D01*
X143908924Y-86341247D01*
X143929299Y-86327633D01*
X143958333Y-86303805D01*
X143993067Y-86285239D01*
X144013442Y-86271625D01*
X144030768Y-86254297D01*
X144044382Y-86233923D01*
X144053759Y-86211284D01*
X144058539Y-86187251D01*
X144058539Y-86162747D01*
X144053758Y-86138713D01*
X144044381Y-86116075D01*
X144030767Y-86095700D01*
X144013439Y-86078374D01*
X143993067Y-86064761D01*
X143958333Y-86046195D01*
X143929299Y-86022367D01*
X143908924Y-86008753D01*
X143886286Y-85999376D01*
X143862252Y-85994595D01*
X143837748Y-85994595D01*
X143813715Y-85999375D01*
X143791076Y-86008753D01*
X143770701Y-86022367D01*
X143741667Y-86046195D01*
X143706933Y-86064761D01*
X143686558Y-86078375D01*
X143669232Y-86095703D01*
X143655618Y-86116077D01*
X143646241Y-86138716D01*
X143641461Y-86162749D01*
X143088539Y-86162749D01*
X143088539Y-86162747D01*
X143083758Y-86138713D01*
X143074381Y-86116075D01*
X143060767Y-86095700D01*
X143043439Y-86078374D01*
X143023067Y-86064761D01*
X142988334Y-86046195D01*
X142963876Y-86026124D01*
X142943805Y-86001666D01*
X142928889Y-85973762D01*
X142919706Y-85943489D01*
X142916000Y-85905859D01*
X142916000Y-85294141D01*
X142919706Y-85256511D01*
X142928889Y-85226238D01*
X142943805Y-85198334D01*
X142963876Y-85173876D01*
X142988334Y-85153805D01*
X143016238Y-85138889D01*
X143046511Y-85129706D01*
X143084141Y-85126000D01*
X143645859Y-85126000D01*
X143683489Y-85129706D01*
X143683489Y-85129706D01*
G37*
G36*
X152336609Y-86290347D02*
G01*
X152546623Y-86377337D01*
X152735632Y-86503629D01*
X152896371Y-86664368D01*
X153022663Y-86853377D01*
X153109653Y-87063391D01*
X153154000Y-87286340D01*
X153154000Y-87513660D01*
X153109653Y-87736609D01*
X153022663Y-87946623D01*
X152896372Y-88135631D01*
X152735632Y-88296371D01*
X152546623Y-88422663D01*
X152336609Y-88509653D01*
X152113660Y-88554000D01*
X151886340Y-88554000D01*
X151663391Y-88509653D01*
X151453377Y-88422663D01*
X151264368Y-88296371D01*
X151103628Y-88135631D01*
X150977337Y-87946623D01*
X150890347Y-87736609D01*
X150846000Y-87513660D01*
X150846000Y-87286340D01*
X150890347Y-87063391D01*
X150977337Y-86853377D01*
X151103629Y-86664368D01*
X151264368Y-86503629D01*
X151453377Y-86377337D01*
X151663391Y-86290347D01*
X151886340Y-86246000D01*
X152113660Y-86246000D01*
X152336609Y-86290347D01*
X152336609Y-86290347D01*
G37*
G36*
X141779000Y-88534000D02*
G01*
X138921000Y-88534000D01*
X138921000Y-87166000D01*
X141779000Y-87166000D01*
X141779000Y-88534000D01*
X141779000Y-88534000D01*
G37*
G36*
X101743489Y-80644706D02*
G01*
X101773762Y-80653889D01*
X101801666Y-80668805D01*
X101826126Y-80688878D01*
X101828376Y-80691620D01*
X101845703Y-80708947D01*
X101866077Y-80722560D01*
X101888716Y-80731937D01*
X101912750Y-80736717D01*
X101937254Y-80736717D01*
X101961287Y-80731936D01*
X101983926Y-80722558D01*
X102004300Y-80708944D01*
X102021624Y-80691620D01*
X102023874Y-80688878D01*
X102048334Y-80668805D01*
X102076238Y-80653889D01*
X102106511Y-80644706D01*
X102144141Y-80641000D01*
X102755859Y-80641000D01*
X102793489Y-80644706D01*
X102823762Y-80653889D01*
X102851666Y-80668805D01*
X102876124Y-80688876D01*
X102896195Y-80713334D01*
X102911111Y-80741238D01*
X102920294Y-80771511D01*
X102924000Y-80809141D01*
X102924000Y-81370859D01*
X102920294Y-81408489D01*
X102911111Y-81438762D01*
X102896195Y-81466667D01*
X102872367Y-81495701D01*
X102858753Y-81516076D01*
X102849376Y-81538714D01*
X102844595Y-81562748D01*
X102844595Y-81587252D01*
X102849375Y-81611285D01*
X102858753Y-81633924D01*
X102872367Y-81654299D01*
X102896195Y-81683333D01*
X102911111Y-81711238D01*
X102920294Y-81741511D01*
X102924000Y-81779141D01*
X102924000Y-82340859D01*
X102920294Y-82378489D01*
X102911111Y-82408762D01*
X102896195Y-82436666D01*
X102876124Y-82461124D01*
X102851666Y-82481195D01*
X102823762Y-82496111D01*
X102793489Y-82505294D01*
X102755859Y-82509000D01*
X102638985Y-82509000D01*
X102614599Y-82511402D01*
X102591150Y-82518515D01*
X102569539Y-82530066D01*
X102550597Y-82545611D01*
X102535052Y-82564553D01*
X102523501Y-82586164D01*
X102516388Y-82609613D01*
X102513986Y-82633999D01*
X102516388Y-82658385D01*
X102523501Y-82681834D01*
X102535052Y-82703445D01*
X102550597Y-82722387D01*
X102580060Y-82744238D01*
X102616667Y-82763805D01*
X102641124Y-82783876D01*
X102661195Y-82808334D01*
X102676111Y-82836238D01*
X102685294Y-82866511D01*
X102689000Y-82904141D01*
X102689000Y-83515859D01*
X102685294Y-83553489D01*
X102676111Y-83583762D01*
X102661195Y-83611666D01*
X102641124Y-83636124D01*
X102616666Y-83656195D01*
X102588762Y-83671111D01*
X102558489Y-83680294D01*
X102520859Y-83684000D01*
X101959141Y-83684000D01*
X101921511Y-83680294D01*
X101891238Y-83671111D01*
X101863333Y-83656195D01*
X101834299Y-83632367D01*
X101813924Y-83618753D01*
X101791286Y-83609376D01*
X101767252Y-83604595D01*
X101742748Y-83604595D01*
X101718715Y-83609375D01*
X101696076Y-83618753D01*
X101675701Y-83632367D01*
X101646667Y-83656195D01*
X101618762Y-83671111D01*
X101588489Y-83680294D01*
X101550859Y-83684000D01*
X101212370Y-83684000D01*
X101187984Y-83686402D01*
X101164535Y-83693515D01*
X101142924Y-83705066D01*
X101123982Y-83720611D01*
X101108437Y-83739553D01*
X101096886Y-83761164D01*
X101089773Y-83784613D01*
X101087371Y-83808999D01*
X101089773Y-83833385D01*
X101102130Y-83867921D01*
X101102579Y-83868760D01*
X101106928Y-83883098D01*
X101109000Y-83904138D01*
X101109000Y-84295862D01*
X101106601Y-84320219D01*
X101103114Y-84337753D01*
X101103115Y-84362257D01*
X101106601Y-84379784D01*
X101109000Y-84404138D01*
X101109000Y-84795862D01*
X101106601Y-84820219D01*
X101103114Y-84837753D01*
X101103115Y-84862257D01*
X101106601Y-84879784D01*
X101109000Y-84904138D01*
X101109000Y-85295862D01*
X101106601Y-85320219D01*
X101103114Y-85337753D01*
X101103115Y-85362257D01*
X101106601Y-85379784D01*
X101109000Y-85404138D01*
X101109000Y-85795862D01*
X101106601Y-85820219D01*
X101103114Y-85837753D01*
X101103115Y-85862257D01*
X101106601Y-85879784D01*
X101109000Y-85904138D01*
X101109000Y-86295862D01*
X101106601Y-86320219D01*
X101103114Y-86337753D01*
X101103115Y-86362257D01*
X101106601Y-86379784D01*
X101109000Y-86404138D01*
X101109000Y-86795862D01*
X101106928Y-86816902D01*
X101102580Y-86831236D01*
X101095520Y-86844444D01*
X101086020Y-86856020D01*
X101074444Y-86865520D01*
X101061236Y-86872580D01*
X101046902Y-86876928D01*
X101025862Y-86879000D01*
X100233999Y-86879000D01*
X100209613Y-86881402D01*
X100186164Y-86888515D01*
X100164553Y-86900066D01*
X100145611Y-86915611D01*
X100130066Y-86934553D01*
X100118515Y-86956164D01*
X100111402Y-86979613D01*
X100109000Y-87003999D01*
X100109000Y-87795862D01*
X100106928Y-87816902D01*
X100102580Y-87831236D01*
X100095520Y-87844444D01*
X100086020Y-87856020D01*
X100074444Y-87865520D01*
X100061236Y-87872580D01*
X100046902Y-87876928D01*
X100025862Y-87879000D01*
X99634138Y-87879000D01*
X99609781Y-87876601D01*
X99592247Y-87873114D01*
X99567743Y-87873115D01*
X99550216Y-87876601D01*
X99525862Y-87879000D01*
X99134138Y-87879000D01*
X99109781Y-87876601D01*
X99092247Y-87873114D01*
X99067743Y-87873115D01*
X99050216Y-87876601D01*
X99025862Y-87879000D01*
X98634138Y-87879000D01*
X98609781Y-87876601D01*
X98592247Y-87873114D01*
X98567743Y-87873115D01*
X98550216Y-87876601D01*
X98525862Y-87879000D01*
X98134138Y-87879000D01*
X98109781Y-87876601D01*
X98092247Y-87873114D01*
X98067743Y-87873115D01*
X98050216Y-87876601D01*
X98025862Y-87879000D01*
X97634138Y-87879000D01*
X97609781Y-87876601D01*
X97592247Y-87873114D01*
X97567743Y-87873115D01*
X97550216Y-87876601D01*
X97525862Y-87879000D01*
X97134138Y-87879000D01*
X97113098Y-87876928D01*
X97098764Y-87872580D01*
X97085556Y-87865520D01*
X97073980Y-87856020D01*
X97064480Y-87844444D01*
X97057420Y-87831236D01*
X97053072Y-87816902D01*
X97051000Y-87795862D01*
X97051000Y-87003999D01*
X97048598Y-86979613D01*
X97041485Y-86956164D01*
X97029934Y-86934553D01*
X97014389Y-86915611D01*
X96995447Y-86900066D01*
X96973836Y-86888515D01*
X96950387Y-86881402D01*
X96926001Y-86879000D01*
X96134138Y-86879000D01*
X96113098Y-86876928D01*
X96098764Y-86872580D01*
X96085556Y-86865520D01*
X96075638Y-86857380D01*
X96055264Y-86843766D01*
X96032625Y-86834389D01*
X96008592Y-86829608D01*
X95984088Y-86829608D01*
X95960055Y-86834388D01*
X95937416Y-86843765D01*
X95917041Y-86857379D01*
X95899714Y-86874706D01*
X95886100Y-86895080D01*
X95876723Y-86917719D01*
X95871942Y-86941752D01*
X95870293Y-86958489D01*
X95861111Y-86988762D01*
X95846195Y-87016667D01*
X95822367Y-87045701D01*
X95808753Y-87066076D01*
X95799376Y-87088714D01*
X95794595Y-87112748D01*
X95794595Y-87137252D01*
X95799375Y-87161285D01*
X95808753Y-87183924D01*
X95822367Y-87204299D01*
X95846195Y-87233333D01*
X95861111Y-87261238D01*
X95870294Y-87291511D01*
X95874000Y-87329141D01*
X95874000Y-87890859D01*
X95870294Y-87928489D01*
X95861111Y-87958762D01*
X95846195Y-87986666D01*
X95826124Y-88011124D01*
X95801666Y-88031195D01*
X95773762Y-88046111D01*
X95743489Y-88055294D01*
X95705859Y-88059000D01*
X95094141Y-88059000D01*
X95056511Y-88055294D01*
X95026238Y-88046111D01*
X94998334Y-88031195D01*
X94973876Y-88011124D01*
X94953805Y-87986666D01*
X94938889Y-87958762D01*
X94929706Y-87928489D01*
X94926000Y-87890859D01*
X94926000Y-87329141D01*
X94929706Y-87291511D01*
X94938889Y-87261238D01*
X94953805Y-87233333D01*
X94977633Y-87204299D01*
X94991247Y-87183924D01*
X95000624Y-87161286D01*
X95005405Y-87137252D01*
X95005405Y-87112748D01*
X95000625Y-87088715D01*
X94991247Y-87066076D01*
X94977633Y-87045701D01*
X94953805Y-87016667D01*
X94938889Y-86988762D01*
X94929706Y-86958489D01*
X94926000Y-86920859D01*
X94926000Y-86359141D01*
X94929706Y-86321511D01*
X94938889Y-86291238D01*
X94953805Y-86263334D01*
X94973876Y-86238876D01*
X94998334Y-86218805D01*
X95026238Y-86203889D01*
X95056511Y-86194706D01*
X95094141Y-86191000D01*
X95705859Y-86191000D01*
X95743489Y-86194706D01*
X95773762Y-86203889D01*
X95801666Y-86218805D01*
X95826124Y-86238877D01*
X95829376Y-86242839D01*
X95846703Y-86260166D01*
X95867077Y-86273779D01*
X95889716Y-86283157D01*
X95913749Y-86287937D01*
X95938253Y-86287937D01*
X95962287Y-86283156D01*
X95984925Y-86273779D01*
X96005300Y-86260165D01*
X96022627Y-86242838D01*
X96036240Y-86222464D01*
X96045618Y-86199825D01*
X96051000Y-86163540D01*
X96051000Y-85904138D01*
X96053399Y-85879781D01*
X96056886Y-85862247D01*
X96056885Y-85837743D01*
X96053399Y-85820216D01*
X96051000Y-85795862D01*
X96051000Y-85404138D01*
X96053399Y-85379781D01*
X96056886Y-85362247D01*
X96056885Y-85337743D01*
X96053399Y-85320216D01*
X96051000Y-85295862D01*
X96051000Y-84904138D01*
X96053399Y-84879781D01*
X96056886Y-84862247D01*
X96056885Y-84837743D01*
X96053399Y-84820216D01*
X96051000Y-84795862D01*
X96051000Y-84404138D01*
X96053399Y-84379781D01*
X96056886Y-84362247D01*
X96056885Y-84337743D01*
X96053399Y-84320216D01*
X96051000Y-84295862D01*
X96051000Y-83904138D01*
X96053072Y-83883098D01*
X96057420Y-83868764D01*
X96064480Y-83855556D01*
X96073980Y-83843980D01*
X96085556Y-83834480D01*
X96098764Y-83827420D01*
X96113098Y-83823072D01*
X96134138Y-83821000D01*
X96926001Y-83821000D01*
X96950387Y-83818598D01*
X96973836Y-83811485D01*
X96995447Y-83799934D01*
X97014389Y-83784389D01*
X97029934Y-83765447D01*
X97041485Y-83743836D01*
X97048598Y-83720387D01*
X97051000Y-83696001D01*
X97051000Y-82904138D01*
X97053072Y-82883098D01*
X97058790Y-82864249D01*
X97064573Y-82850289D01*
X97066819Y-82838999D01*
X100099176Y-82838999D01*
X100104558Y-82875282D01*
X100106927Y-82883094D01*
X100109000Y-82904138D01*
X100109000Y-83696001D01*
X100111402Y-83720387D01*
X100118515Y-83743836D01*
X100130066Y-83765447D01*
X100145611Y-83784389D01*
X100164553Y-83799934D01*
X100186164Y-83811485D01*
X100209613Y-83818598D01*
X100233999Y-83821000D01*
X100756312Y-83821000D01*
X100780698Y-83818598D01*
X100804147Y-83811485D01*
X100825758Y-83799934D01*
X100844700Y-83784389D01*
X100860245Y-83765447D01*
X100871796Y-83743836D01*
X100878909Y-83720387D01*
X100881311Y-83696001D01*
X100878909Y-83671615D01*
X100871796Y-83648166D01*
X100852939Y-83616704D01*
X100848805Y-83611666D01*
X100833889Y-83583762D01*
X100824706Y-83553489D01*
X100821000Y-83515859D01*
X100821000Y-82904141D01*
X100825605Y-82857386D01*
X100826826Y-82851248D01*
X100826826Y-82826744D01*
X100822045Y-82802711D01*
X100812667Y-82780072D01*
X100799053Y-82759698D01*
X100781725Y-82742372D01*
X100761351Y-82728758D01*
X100738712Y-82719382D01*
X100702429Y-82714000D01*
X100224175Y-82714000D01*
X100199789Y-82716402D01*
X100176340Y-82723515D01*
X100154729Y-82735066D01*
X100135787Y-82750611D01*
X100120242Y-82769553D01*
X100108691Y-82791164D01*
X100101578Y-82814613D01*
X100099176Y-82838999D01*
X97066819Y-82838999D01*
X97069355Y-82826256D01*
X97069356Y-82801751D01*
X97064576Y-82777718D01*
X97055199Y-82755079D01*
X97041586Y-82734704D01*
X97024260Y-82717376D01*
X97003886Y-82703762D01*
X96981248Y-82694384D01*
X96957215Y-82689602D01*
X96944958Y-82689000D01*
X96844141Y-82689000D01*
X96806511Y-82685294D01*
X96776238Y-82676111D01*
X96748333Y-82661195D01*
X96737500Y-82652304D01*
X96717126Y-82638690D01*
X96694487Y-82629312D01*
X96670454Y-82624531D01*
X96645950Y-82624531D01*
X96621917Y-82629311D01*
X96599278Y-82638688D01*
X96578903Y-82652301D01*
X96561576Y-82669628D01*
X96547962Y-82690002D01*
X96538583Y-82712644D01*
X96526110Y-82753763D01*
X96511195Y-82781666D01*
X96491124Y-82806124D01*
X96466666Y-82826195D01*
X96438762Y-82841111D01*
X96408489Y-82850294D01*
X96370859Y-82854000D01*
X95809141Y-82854000D01*
X95771511Y-82850294D01*
X95741238Y-82841111D01*
X95713333Y-82826195D01*
X95684299Y-82802367D01*
X95663924Y-82788753D01*
X95641286Y-82779376D01*
X95617252Y-82774595D01*
X95592748Y-82774595D01*
X95568715Y-82779375D01*
X95546076Y-82788753D01*
X95525701Y-82802367D01*
X95496667Y-82826195D01*
X95468762Y-82841111D01*
X95438489Y-82850294D01*
X95400859Y-82854000D01*
X94839141Y-82854000D01*
X94801511Y-82850294D01*
X94771238Y-82841111D01*
X94743334Y-82826195D01*
X94718876Y-82806124D01*
X94698805Y-82781666D01*
X94683889Y-82753762D01*
X94674706Y-82723489D01*
X94671000Y-82685859D01*
X94671000Y-82074141D01*
X94674706Y-82036511D01*
X94683889Y-82006238D01*
X94698805Y-81978334D01*
X94718876Y-81953876D01*
X94743334Y-81933805D01*
X94771238Y-81918889D01*
X94801511Y-81909706D01*
X94839141Y-81906000D01*
X95400859Y-81906000D01*
X95438489Y-81909706D01*
X95468762Y-81918889D01*
X95496667Y-81933805D01*
X95525701Y-81957633D01*
X95546076Y-81971247D01*
X95568714Y-81980624D01*
X95592748Y-81985405D01*
X95617252Y-81985405D01*
X95641285Y-81980625D01*
X95663924Y-81971247D01*
X95684299Y-81957633D01*
X95713333Y-81933805D01*
X95741238Y-81918889D01*
X95771511Y-81909706D01*
X95809141Y-81906000D01*
X96370859Y-81906000D01*
X96408489Y-81909706D01*
X96438762Y-81918889D01*
X96466667Y-81933805D01*
X96489645Y-81952663D01*
X96510019Y-81966277D01*
X96532658Y-81975654D01*
X96556691Y-81980435D01*
X96581196Y-81980435D01*
X96605229Y-81975655D01*
X96627868Y-81966278D01*
X96648242Y-81952664D01*
X96665569Y-81935337D01*
X96679183Y-81914963D01*
X96688562Y-81892319D01*
X96688891Y-81891236D01*
X96703805Y-81863333D01*
X96727633Y-81834299D01*
X96741247Y-81813924D01*
X96750624Y-81791286D01*
X96755405Y-81767252D01*
X96755405Y-81742748D01*
X96750625Y-81718715D01*
X96741247Y-81696076D01*
X96727633Y-81675701D01*
X96703805Y-81646667D01*
X96688889Y-81618762D01*
X96679706Y-81588489D01*
X96676000Y-81550859D01*
X96676000Y-80989141D01*
X96679706Y-80951511D01*
X96688889Y-80921238D01*
X96703805Y-80893334D01*
X96723876Y-80868876D01*
X96748334Y-80848805D01*
X96776238Y-80833889D01*
X96806511Y-80824706D01*
X96844141Y-80821000D01*
X97455859Y-80821000D01*
X97493489Y-80824706D01*
X97523762Y-80833889D01*
X97551666Y-80848805D01*
X97565701Y-80860323D01*
X97586075Y-80873937D01*
X97608714Y-80883314D01*
X97632747Y-80888095D01*
X97657251Y-80888095D01*
X97681284Y-80883315D01*
X97703923Y-80873938D01*
X97724299Y-80860323D01*
X97738334Y-80848805D01*
X97766238Y-80833889D01*
X97796511Y-80824706D01*
X97834141Y-80821000D01*
X98445859Y-80821000D01*
X98483489Y-80824706D01*
X98513762Y-80833889D01*
X98541666Y-80848805D01*
X98566124Y-80868876D01*
X98586195Y-80893334D01*
X98601111Y-80921238D01*
X98610294Y-80951511D01*
X98614000Y-80989141D01*
X98614000Y-81550859D01*
X98610294Y-81588489D01*
X98601111Y-81618762D01*
X98586195Y-81646667D01*
X98562367Y-81675701D01*
X98548753Y-81696076D01*
X98539376Y-81718714D01*
X98534595Y-81742748D01*
X98534595Y-81767252D01*
X98539375Y-81791285D01*
X98548753Y-81813924D01*
X98562367Y-81834299D01*
X98586195Y-81863333D01*
X98601111Y-81891238D01*
X98610294Y-81921511D01*
X98614000Y-81959141D01*
X98614000Y-82520859D01*
X98610294Y-82558489D01*
X98601111Y-82588762D01*
X98586195Y-82616667D01*
X98586166Y-82616702D01*
X98572552Y-82637076D01*
X98563175Y-82659715D01*
X98558394Y-82683749D01*
X98558394Y-82708253D01*
X98563174Y-82732286D01*
X98572552Y-82754925D01*
X98586165Y-82775299D01*
X98603492Y-82792626D01*
X98623866Y-82806240D01*
X98646505Y-82815617D01*
X98670539Y-82820398D01*
X98682791Y-82821000D01*
X98946112Y-82821000D01*
X98970498Y-82818598D01*
X98993947Y-82811485D01*
X99015558Y-82799934D01*
X99034500Y-82784389D01*
X99050045Y-82765447D01*
X99061596Y-82743836D01*
X99068709Y-82720387D01*
X99071111Y-82696001D01*
X99068709Y-82671615D01*
X99061596Y-82648166D01*
X99056351Y-82637076D01*
X99054707Y-82633999D01*
X101543986Y-82633999D01*
X101546388Y-82658385D01*
X101553501Y-82681834D01*
X101565052Y-82703445D01*
X101580597Y-82722387D01*
X101610060Y-82744238D01*
X101646667Y-82763805D01*
X101675701Y-82787633D01*
X101696076Y-82801247D01*
X101718714Y-82810624D01*
X101742748Y-82815405D01*
X101767252Y-82815405D01*
X101791285Y-82810625D01*
X101813924Y-82801247D01*
X101834299Y-82787633D01*
X101863333Y-82763805D01*
X101891238Y-82748889D01*
X101921511Y-82739706D01*
X101959141Y-82736000D01*
X102026015Y-82736000D01*
X102050401Y-82733598D01*
X102073850Y-82726485D01*
X102095461Y-82714934D01*
X102114403Y-82699389D01*
X102129948Y-82680447D01*
X102141499Y-82658836D01*
X102148612Y-82635387D01*
X102151014Y-82611001D01*
X102148612Y-82586615D01*
X102141499Y-82563166D01*
X102129948Y-82541555D01*
X102114403Y-82522613D01*
X102084940Y-82500762D01*
X102048333Y-82481195D01*
X102023874Y-82461122D01*
X102021624Y-82458380D01*
X102004297Y-82441053D01*
X101983923Y-82427440D01*
X101961284Y-82418063D01*
X101937250Y-82413283D01*
X101912746Y-82413283D01*
X101888713Y-82418064D01*
X101866074Y-82427442D01*
X101845700Y-82441056D01*
X101828376Y-82458380D01*
X101826126Y-82461122D01*
X101801666Y-82481195D01*
X101773762Y-82496111D01*
X101743489Y-82505294D01*
X101705859Y-82509000D01*
X101668985Y-82509000D01*
X101644599Y-82511402D01*
X101621150Y-82518515D01*
X101599539Y-82530066D01*
X101580597Y-82545611D01*
X101565052Y-82564553D01*
X101553501Y-82586164D01*
X101546388Y-82609613D01*
X101543986Y-82633999D01*
X99054707Y-82633999D01*
X99043889Y-82613762D01*
X99034706Y-82583489D01*
X99031000Y-82545859D01*
X99031000Y-81934141D01*
X99034706Y-81896511D01*
X99043889Y-81866238D01*
X99058805Y-81838334D01*
X99078876Y-81813876D01*
X99103334Y-81793805D01*
X99131238Y-81778889D01*
X99161511Y-81769706D01*
X99199141Y-81766000D01*
X99760859Y-81766000D01*
X99798489Y-81769706D01*
X99828762Y-81778889D01*
X99856667Y-81793805D01*
X99885701Y-81817633D01*
X99906076Y-81831247D01*
X99928714Y-81840624D01*
X99952748Y-81845405D01*
X99977252Y-81845405D01*
X100001285Y-81840625D01*
X100023924Y-81831247D01*
X100044299Y-81817633D01*
X100073333Y-81793805D01*
X100101238Y-81778889D01*
X100131511Y-81769706D01*
X100169141Y-81766000D01*
X100730859Y-81766000D01*
X100768491Y-81769707D01*
X100790060Y-81776249D01*
X100814093Y-81781029D01*
X100838597Y-81781029D01*
X100862630Y-81776248D01*
X100885269Y-81766870D01*
X100905643Y-81753256D01*
X100922970Y-81735928D01*
X100936581Y-81715557D01*
X100953805Y-81683333D01*
X100977633Y-81654299D01*
X100991247Y-81633924D01*
X101000624Y-81611286D01*
X101005405Y-81587252D01*
X101005405Y-81587246D01*
X101794594Y-81587246D01*
X101799374Y-81611279D01*
X101808750Y-81633918D01*
X101822371Y-81654304D01*
X101828379Y-81661624D01*
X101845706Y-81678950D01*
X101866082Y-81692562D01*
X101888721Y-81701938D01*
X101912754Y-81706718D01*
X101937258Y-81706716D01*
X101961291Y-81701935D01*
X101983930Y-81692556D01*
X102004304Y-81678941D01*
X102021621Y-81661624D01*
X102027629Y-81654304D01*
X102041244Y-81633930D01*
X102050623Y-81611291D01*
X102055404Y-81587258D01*
X102055406Y-81562754D01*
X102050626Y-81538721D01*
X102041250Y-81516082D01*
X102027629Y-81495696D01*
X102021621Y-81488376D01*
X102004294Y-81471050D01*
X101983918Y-81457438D01*
X101961279Y-81448062D01*
X101937246Y-81443282D01*
X101912742Y-81443284D01*
X101888709Y-81448065D01*
X101866070Y-81457444D01*
X101845696Y-81471059D01*
X101828379Y-81488376D01*
X101822371Y-81495696D01*
X101808756Y-81516070D01*
X101799377Y-81538709D01*
X101794596Y-81562742D01*
X101794594Y-81587246D01*
X101005405Y-81587246D01*
X101005405Y-81562748D01*
X101000625Y-81538715D01*
X100991247Y-81516076D01*
X100977633Y-81495701D01*
X100953805Y-81466667D01*
X100938889Y-81438762D01*
X100929706Y-81408489D01*
X100926000Y-81370859D01*
X100926000Y-80809141D01*
X100929706Y-80771511D01*
X100938889Y-80741238D01*
X100953805Y-80713334D01*
X100973876Y-80688876D01*
X100998334Y-80668805D01*
X101026238Y-80653889D01*
X101056511Y-80644706D01*
X101094141Y-80641000D01*
X101705859Y-80641000D01*
X101743489Y-80644706D01*
X101743489Y-80644706D01*
G37*
G36*
X114791135Y-86826075D02*
G01*
X114834780Y-86839314D01*
X114874998Y-86860811D01*
X114910254Y-86889746D01*
X114939189Y-86925002D01*
X114960686Y-86965220D01*
X114973925Y-87008865D01*
X114979000Y-87060391D01*
X114979000Y-87764609D01*
X114973925Y-87816135D01*
X114960686Y-87859780D01*
X114939189Y-87899998D01*
X114910254Y-87935254D01*
X114874998Y-87964189D01*
X114834780Y-87985686D01*
X114791135Y-87998925D01*
X114739609Y-88004000D01*
X113960391Y-88004000D01*
X113908865Y-87998925D01*
X113865220Y-87985686D01*
X113825002Y-87964189D01*
X113789746Y-87935254D01*
X113760811Y-87899998D01*
X113739314Y-87859780D01*
X113726075Y-87816135D01*
X113721000Y-87764609D01*
X113721000Y-87060391D01*
X113726075Y-87008865D01*
X113739314Y-86965220D01*
X113760811Y-86925002D01*
X113789746Y-86889746D01*
X113825002Y-86860811D01*
X113865220Y-86839314D01*
X113908865Y-86826075D01*
X113960391Y-86821000D01*
X114739609Y-86821000D01*
X114791135Y-86826075D01*
X114791135Y-86826075D01*
G37*
G36*
X135614000Y-87844000D02*
G01*
X134406000Y-87844000D01*
X134406000Y-86736000D01*
X135614000Y-86736000D01*
X135614000Y-87844000D01*
X135614000Y-87844000D01*
G37*
G36*
X163654000Y-87134000D02*
G01*
X158346000Y-87134000D01*
X158346000Y-82866000D01*
X163654000Y-82866000D01*
X163654000Y-87134000D01*
X163654000Y-87134000D01*
G37*
G36*
X155518489Y-86129706D02*
G01*
X155548762Y-86138889D01*
X155576667Y-86153805D01*
X155605701Y-86177633D01*
X155626076Y-86191247D01*
X155648714Y-86200624D01*
X155672748Y-86205405D01*
X155697252Y-86205405D01*
X155721285Y-86200625D01*
X155743924Y-86191247D01*
X155764299Y-86177633D01*
X155793333Y-86153805D01*
X155821238Y-86138889D01*
X155851511Y-86129706D01*
X155889141Y-86126000D01*
X156450859Y-86126000D01*
X156488489Y-86129706D01*
X156518762Y-86138889D01*
X156546666Y-86153805D01*
X156571124Y-86173876D01*
X156591195Y-86198334D01*
X156606111Y-86226238D01*
X156615294Y-86256511D01*
X156619000Y-86294141D01*
X156619000Y-86905859D01*
X156615294Y-86943489D01*
X156606111Y-86973762D01*
X156591195Y-87001666D01*
X156571124Y-87026124D01*
X156546666Y-87046195D01*
X156518762Y-87061111D01*
X156488489Y-87070294D01*
X156450859Y-87074000D01*
X155889141Y-87074000D01*
X155851511Y-87070294D01*
X155821238Y-87061111D01*
X155793333Y-87046195D01*
X155764299Y-87022367D01*
X155743924Y-87008753D01*
X155721286Y-86999376D01*
X155697252Y-86994595D01*
X155672748Y-86994595D01*
X155648715Y-86999375D01*
X155626076Y-87008753D01*
X155605701Y-87022367D01*
X155576667Y-87046195D01*
X155548762Y-87061111D01*
X155518489Y-87070294D01*
X155480859Y-87074000D01*
X154919141Y-87074000D01*
X154881511Y-87070294D01*
X154851238Y-87061111D01*
X154823334Y-87046195D01*
X154798876Y-87026124D01*
X154778805Y-87001666D01*
X154763889Y-86973762D01*
X154754706Y-86943489D01*
X154751000Y-86905859D01*
X154751000Y-86294141D01*
X154754706Y-86256511D01*
X154763889Y-86226238D01*
X154778805Y-86198334D01*
X154798876Y-86173876D01*
X154823334Y-86153805D01*
X154851238Y-86138889D01*
X154881511Y-86129706D01*
X154919141Y-86126000D01*
X155480859Y-86126000D01*
X155518489Y-86129706D01*
X155518489Y-86129706D01*
G37*
G36*
X133614000Y-86894000D02*
G01*
X132406000Y-86894000D01*
X132406000Y-86656177D01*
X132403598Y-86631791D01*
X132396485Y-86608342D01*
X132384934Y-86586731D01*
X132369389Y-86567789D01*
X132350447Y-86552244D01*
X132328836Y-86540693D01*
X132305387Y-86533580D01*
X132281001Y-86531178D01*
X132256615Y-86533580D01*
X132233166Y-86540693D01*
X132211555Y-86552244D01*
X132192613Y-86567789D01*
X132177068Y-86586731D01*
X132165517Y-86608342D01*
X132161384Y-86619893D01*
X132151110Y-86653763D01*
X132136195Y-86681666D01*
X132116124Y-86706124D01*
X132091666Y-86726195D01*
X132063762Y-86741111D01*
X132033489Y-86750294D01*
X131995859Y-86754000D01*
X131434141Y-86754000D01*
X131396511Y-86750294D01*
X131366238Y-86741111D01*
X131338333Y-86726195D01*
X131309299Y-86702367D01*
X131288924Y-86688753D01*
X131266286Y-86679376D01*
X131242252Y-86674595D01*
X131217748Y-86674595D01*
X131193715Y-86679375D01*
X131171076Y-86688753D01*
X131150701Y-86702367D01*
X131121667Y-86726195D01*
X131093762Y-86741111D01*
X131063489Y-86750294D01*
X131025859Y-86754000D01*
X130464141Y-86754000D01*
X130426511Y-86750294D01*
X130396238Y-86741111D01*
X130368334Y-86726195D01*
X130343876Y-86706124D01*
X130323805Y-86681666D01*
X130308889Y-86653762D01*
X130299706Y-86623489D01*
X130296000Y-86585859D01*
X130296000Y-85974141D01*
X130299706Y-85936511D01*
X130308889Y-85906238D01*
X130323805Y-85878334D01*
X130343876Y-85853876D01*
X130368334Y-85833805D01*
X130396238Y-85818889D01*
X130426511Y-85809706D01*
X130464141Y-85806000D01*
X131025859Y-85806000D01*
X131063489Y-85809706D01*
X131093762Y-85818889D01*
X131121667Y-85833805D01*
X131150701Y-85857633D01*
X131171076Y-85871247D01*
X131193714Y-85880624D01*
X131217748Y-85885405D01*
X131242252Y-85885405D01*
X131266285Y-85880625D01*
X131288924Y-85871247D01*
X131309299Y-85857633D01*
X131338333Y-85833805D01*
X131366238Y-85818889D01*
X131396511Y-85809706D01*
X131434141Y-85806000D01*
X131995859Y-85806000D01*
X132033489Y-85809706D01*
X132063762Y-85818889D01*
X132091666Y-85833805D01*
X132116124Y-85853876D01*
X132136195Y-85878334D01*
X132151110Y-85906237D01*
X132161384Y-85940107D01*
X132170761Y-85962746D01*
X132184374Y-85983120D01*
X132201701Y-86000447D01*
X132222075Y-86014061D01*
X132244714Y-86023439D01*
X132268747Y-86028220D01*
X132293251Y-86028220D01*
X132317285Y-86023440D01*
X132339924Y-86014063D01*
X132360298Y-86000450D01*
X132377625Y-85983123D01*
X132391239Y-85962749D01*
X132400617Y-85940110D01*
X132405398Y-85916077D01*
X132406000Y-85903823D01*
X132406000Y-85786000D01*
X133614000Y-85786000D01*
X133614000Y-86894000D01*
X133614000Y-86894000D01*
G37*
G36*
X148104000Y-86854000D02*
G01*
X146696000Y-86854000D01*
X146696000Y-85446000D01*
X148104000Y-85446000D01*
X148104000Y-86854000D01*
X148104000Y-86854000D01*
G37*
G36*
X94299000Y-86784000D02*
G01*
X91441000Y-86784000D01*
X91441000Y-85416000D01*
X94299000Y-85416000D01*
X94299000Y-86784000D01*
X94299000Y-86784000D01*
G37*
G36*
X129479000Y-85404000D02*
G01*
X129402251Y-85404000D01*
X129377865Y-85406402D01*
X129354416Y-85413515D01*
X129332805Y-85425066D01*
X129313863Y-85440611D01*
X129298318Y-85459553D01*
X129286767Y-85481164D01*
X129279654Y-85504613D01*
X129277252Y-85528999D01*
X129279654Y-85553385D01*
X129289450Y-85580762D01*
X129300294Y-85616511D01*
X129304000Y-85654141D01*
X129304000Y-86265859D01*
X129300294Y-86303489D01*
X129291111Y-86333762D01*
X129276195Y-86361666D01*
X129256124Y-86386124D01*
X129231666Y-86406195D01*
X129203762Y-86421111D01*
X129173489Y-86430294D01*
X129135859Y-86434000D01*
X128574141Y-86434000D01*
X128536511Y-86430294D01*
X128506238Y-86421111D01*
X128478333Y-86406195D01*
X128449299Y-86382367D01*
X128428924Y-86368753D01*
X128406286Y-86359376D01*
X128382252Y-86354595D01*
X128357748Y-86354595D01*
X128333715Y-86359375D01*
X128311076Y-86368753D01*
X128290701Y-86382367D01*
X128261667Y-86406195D01*
X128233762Y-86421111D01*
X128203489Y-86430294D01*
X128165859Y-86434000D01*
X127604141Y-86434000D01*
X127566511Y-86430294D01*
X127536238Y-86421111D01*
X127508334Y-86406195D01*
X127483876Y-86386124D01*
X127463805Y-86361666D01*
X127448889Y-86333762D01*
X127439706Y-86303489D01*
X127436000Y-86265859D01*
X127436000Y-85654141D01*
X127439706Y-85616511D01*
X127448889Y-85586238D01*
X127463805Y-85558334D01*
X127483876Y-85533876D01*
X127508334Y-85513805D01*
X127536238Y-85498889D01*
X127566511Y-85489706D01*
X127604141Y-85486000D01*
X128165859Y-85486000D01*
X128203489Y-85489706D01*
X128233762Y-85498889D01*
X128261667Y-85513805D01*
X128290701Y-85537633D01*
X128311076Y-85551247D01*
X128333714Y-85560624D01*
X128357748Y-85565405D01*
X128382252Y-85565405D01*
X128406285Y-85560625D01*
X128428924Y-85551247D01*
X128449300Y-85537633D01*
X128475301Y-85516294D01*
X128492628Y-85498966D01*
X128506241Y-85478592D01*
X128515618Y-85455953D01*
X128521000Y-85419669D01*
X128521000Y-84036000D01*
X129479000Y-84036000D01*
X129479000Y-85404000D01*
X129479000Y-85404000D01*
G37*
G36*
X139879000Y-86334000D02*
G01*
X138921000Y-86334000D01*
X138921000Y-84966000D01*
X139879000Y-84966000D01*
X139879000Y-86334000D01*
X139879000Y-86334000D01*
G37*
G36*
X141779000Y-86334000D02*
G01*
X140821000Y-86334000D01*
X140821000Y-84966000D01*
X141779000Y-84966000D01*
X141779000Y-86334000D01*
X141779000Y-86334000D01*
G37*
G36*
X156104000Y-85754000D02*
G01*
X154996000Y-85754000D01*
X154996000Y-84546000D01*
X156104000Y-84546000D01*
X156104000Y-85754000D01*
X156104000Y-85754000D01*
G37*
G36*
X158004000Y-85754000D02*
G01*
X156896000Y-85754000D01*
X156896000Y-84546000D01*
X158004000Y-84546000D01*
X158004000Y-85754000D01*
X158004000Y-85754000D01*
G37*
G36*
X135168489Y-84509706D02*
G01*
X135198762Y-84518889D01*
X135226667Y-84533805D01*
X135255701Y-84557633D01*
X135276076Y-84571247D01*
X135298714Y-84580624D01*
X135322748Y-84585405D01*
X135347252Y-84585405D01*
X135371285Y-84580625D01*
X135393924Y-84571247D01*
X135414299Y-84557633D01*
X135443333Y-84533805D01*
X135471238Y-84518889D01*
X135501511Y-84509706D01*
X135539141Y-84506000D01*
X136100859Y-84506000D01*
X136138489Y-84509706D01*
X136168762Y-84518889D01*
X136196666Y-84533805D01*
X136221124Y-84553876D01*
X136241195Y-84578334D01*
X136256111Y-84606238D01*
X136265294Y-84636511D01*
X136269000Y-84674141D01*
X136269000Y-85285859D01*
X136265294Y-85323489D01*
X136256111Y-85353762D01*
X136241195Y-85381666D01*
X136221124Y-85406124D01*
X136196666Y-85426195D01*
X136168762Y-85441111D01*
X136138489Y-85450294D01*
X136100859Y-85454000D01*
X135539141Y-85454000D01*
X135501511Y-85450294D01*
X135471238Y-85441111D01*
X135443333Y-85426195D01*
X135414299Y-85402367D01*
X135393924Y-85388753D01*
X135371286Y-85379376D01*
X135347252Y-85374595D01*
X135322748Y-85374595D01*
X135298715Y-85379375D01*
X135276076Y-85388753D01*
X135255701Y-85402367D01*
X135226667Y-85426195D01*
X135198762Y-85441111D01*
X135168489Y-85450294D01*
X135130859Y-85454000D01*
X134569141Y-85454000D01*
X134531511Y-85450294D01*
X134501238Y-85441111D01*
X134473334Y-85426195D01*
X134448876Y-85406124D01*
X134428805Y-85381666D01*
X134413889Y-85353762D01*
X134404706Y-85323489D01*
X134401000Y-85285859D01*
X134401000Y-84674141D01*
X134404706Y-84636511D01*
X134413889Y-84606238D01*
X134428805Y-84578334D01*
X134448876Y-84553876D01*
X134473334Y-84533805D01*
X134501238Y-84518889D01*
X134531511Y-84509706D01*
X134569141Y-84506000D01*
X135130859Y-84506000D01*
X135168489Y-84509706D01*
X135168489Y-84509706D01*
G37*
G36*
X120817500Y-82171001D02*
G01*
X120819902Y-82195387D01*
X120821000Y-82199007D01*
X120821000Y-83700993D01*
X120819902Y-83704613D01*
X120817500Y-83728999D01*
X120817500Y-85104000D01*
X119009500Y-85104000D01*
X119009500Y-83778201D01*
X119007098Y-83753815D01*
X118999985Y-83730366D01*
X118988434Y-83708755D01*
X118972889Y-83689813D01*
X118953947Y-83674268D01*
X118932336Y-83662717D01*
X118908887Y-83655604D01*
X118884501Y-83653202D01*
X118860115Y-83655604D01*
X118836666Y-83662717D01*
X118812819Y-83675798D01*
X118227317Y-84085650D01*
X118208716Y-84101602D01*
X118193585Y-84120876D01*
X118182505Y-84142732D01*
X118175902Y-84166330D01*
X118174000Y-84188053D01*
X118174000Y-84204000D01*
X118097647Y-84204000D01*
X118073261Y-84206402D01*
X118049812Y-84213515D01*
X118025965Y-84226596D01*
X117855700Y-84345781D01*
X117855700Y-84328999D01*
X117853298Y-84304613D01*
X117846185Y-84281164D01*
X117834634Y-84259553D01*
X117819089Y-84240611D01*
X117800147Y-84225066D01*
X117778536Y-84213515D01*
X117755087Y-84206402D01*
X117730701Y-84204000D01*
X116470499Y-84204000D01*
X116446113Y-84206402D01*
X116422664Y-84213515D01*
X116401053Y-84225066D01*
X116382111Y-84240611D01*
X116366566Y-84259553D01*
X116355015Y-84281164D01*
X116347902Y-84304613D01*
X116345500Y-84328999D01*
X116345500Y-84351001D01*
X116347902Y-84375387D01*
X116355015Y-84398836D01*
X116366566Y-84420447D01*
X116382111Y-84439389D01*
X116401053Y-84454934D01*
X116422664Y-84466485D01*
X116446113Y-84473598D01*
X116470499Y-84476000D01*
X116540859Y-84476000D01*
X116578489Y-84479706D01*
X116608762Y-84488889D01*
X116636666Y-84503805D01*
X116661124Y-84523876D01*
X116681195Y-84548334D01*
X116696111Y-84576238D01*
X116705294Y-84606511D01*
X116709000Y-84644141D01*
X116709000Y-85255859D01*
X116705294Y-85293489D01*
X116696111Y-85323762D01*
X116681195Y-85351666D01*
X116661124Y-85376124D01*
X116636666Y-85396195D01*
X116608762Y-85411111D01*
X116578489Y-85420294D01*
X116540859Y-85424000D01*
X115979141Y-85424000D01*
X115941511Y-85420294D01*
X115911238Y-85411111D01*
X115883333Y-85396195D01*
X115854299Y-85372367D01*
X115833924Y-85358753D01*
X115811286Y-85349376D01*
X115787252Y-85344595D01*
X115762748Y-85344595D01*
X115738715Y-85349375D01*
X115716076Y-85358753D01*
X115695701Y-85372367D01*
X115666667Y-85396195D01*
X115638762Y-85411111D01*
X115608489Y-85420294D01*
X115570859Y-85424000D01*
X115009141Y-85424000D01*
X114971511Y-85420294D01*
X114941238Y-85411111D01*
X114913333Y-85396195D01*
X114904298Y-85388780D01*
X114883923Y-85375166D01*
X114861284Y-85365789D01*
X114837251Y-85361009D01*
X114812747Y-85361009D01*
X114788714Y-85365790D01*
X114766075Y-85375167D01*
X114745702Y-85388780D01*
X114736667Y-85396195D01*
X114708762Y-85411111D01*
X114678489Y-85420294D01*
X114640859Y-85424000D01*
X114079141Y-85424000D01*
X114041511Y-85420294D01*
X114011238Y-85411111D01*
X113983333Y-85396195D01*
X113954299Y-85372367D01*
X113933924Y-85358753D01*
X113911286Y-85349376D01*
X113887252Y-85344595D01*
X113862748Y-85344595D01*
X113838715Y-85349375D01*
X113816076Y-85358753D01*
X113795701Y-85372367D01*
X113766667Y-85396195D01*
X113738762Y-85411111D01*
X113708489Y-85420294D01*
X113670859Y-85424000D01*
X113109141Y-85424000D01*
X113071511Y-85420294D01*
X113041238Y-85411111D01*
X113013334Y-85396195D01*
X112988876Y-85376124D01*
X112968805Y-85351666D01*
X112953889Y-85323762D01*
X112944706Y-85293489D01*
X112941000Y-85255859D01*
X112941000Y-84644141D01*
X112944706Y-84606511D01*
X112953889Y-84576238D01*
X112968805Y-84548334D01*
X112988876Y-84523876D01*
X113013334Y-84503805D01*
X113041238Y-84488889D01*
X113071511Y-84479706D01*
X113109141Y-84476000D01*
X113670859Y-84476000D01*
X113708489Y-84479706D01*
X113738762Y-84488889D01*
X113766667Y-84503805D01*
X113795701Y-84527633D01*
X113816076Y-84541247D01*
X113838714Y-84550624D01*
X113862748Y-84555405D01*
X113887252Y-84555405D01*
X113911285Y-84550625D01*
X113933924Y-84541247D01*
X113954299Y-84527633D01*
X113983333Y-84503805D01*
X114011238Y-84488889D01*
X114041511Y-84479706D01*
X114079141Y-84476000D01*
X114640859Y-84476000D01*
X114678489Y-84479706D01*
X114708762Y-84488889D01*
X114736667Y-84503805D01*
X114745702Y-84511220D01*
X114766077Y-84524834D01*
X114788716Y-84534211D01*
X114812749Y-84538991D01*
X114837253Y-84538991D01*
X114861286Y-84534210D01*
X114883925Y-84524833D01*
X114904298Y-84511220D01*
X114913333Y-84503805D01*
X114941238Y-84488889D01*
X114971511Y-84479706D01*
X115009141Y-84476000D01*
X115570859Y-84476000D01*
X115608489Y-84479706D01*
X115638762Y-84488889D01*
X115666667Y-84503805D01*
X115695701Y-84527633D01*
X115716076Y-84541247D01*
X115738714Y-84550624D01*
X115762748Y-84555405D01*
X115787252Y-84555405D01*
X115811285Y-84550625D01*
X115833924Y-84541247D01*
X115854299Y-84527633D01*
X115883333Y-84503805D01*
X115911238Y-84488889D01*
X115941511Y-84479706D01*
X115979141Y-84476000D01*
X116134120Y-84476000D01*
X116158506Y-84473598D01*
X116181955Y-84466485D01*
X116203566Y-84454934D01*
X116222508Y-84439389D01*
X116238053Y-84420447D01*
X116249604Y-84398836D01*
X116256717Y-84375387D01*
X116259119Y-84351001D01*
X116256717Y-84326615D01*
X116249604Y-84303166D01*
X116238053Y-84281555D01*
X116222508Y-84262613D01*
X116206214Y-84248889D01*
X116175027Y-84226874D01*
X116153726Y-84214778D01*
X116130467Y-84207066D01*
X116102950Y-84204000D01*
X116026000Y-84204000D01*
X116026000Y-84186447D01*
X116023598Y-84162061D01*
X116016485Y-84138612D01*
X116004934Y-84117001D01*
X115989389Y-84098059D01*
X115973089Y-84084330D01*
X115187500Y-83529796D01*
X115187500Y-82370204D01*
X115973089Y-81815671D01*
X115991623Y-81799648D01*
X116006678Y-81780314D01*
X116017672Y-81758415D01*
X116024183Y-81734791D01*
X116026000Y-81713553D01*
X116026000Y-81696000D01*
X116102950Y-81696000D01*
X116127336Y-81693598D01*
X116150785Y-81686485D01*
X116175030Y-81673124D01*
X116345500Y-81552792D01*
X116345500Y-81571001D01*
X116347902Y-81595387D01*
X116355015Y-81618836D01*
X116366566Y-81640447D01*
X116382111Y-81659389D01*
X116401053Y-81674934D01*
X116422664Y-81686485D01*
X116446113Y-81693598D01*
X116470499Y-81696000D01*
X117730701Y-81696000D01*
X117755087Y-81693598D01*
X117778536Y-81686485D01*
X117800147Y-81674934D01*
X117819089Y-81659389D01*
X117834634Y-81640447D01*
X117846185Y-81618836D01*
X117853298Y-81595387D01*
X117855700Y-81571001D01*
X117855700Y-81554219D01*
X118025965Y-81673404D01*
X118047320Y-81685421D01*
X118070609Y-81693041D01*
X118097647Y-81696000D01*
X118174000Y-81696000D01*
X118174000Y-81711947D01*
X118176402Y-81736333D01*
X118183515Y-81759782D01*
X118195066Y-81781393D01*
X118210611Y-81800335D01*
X118227317Y-81814350D01*
X118812819Y-82224202D01*
X118834174Y-82236219D01*
X118857463Y-82243839D01*
X118881791Y-82246769D01*
X118906224Y-82244896D01*
X118929822Y-82238293D01*
X118951678Y-82227213D01*
X118970952Y-82212082D01*
X118986904Y-82193481D01*
X118998921Y-82172126D01*
X119006541Y-82148837D01*
X119009500Y-82121799D01*
X119009500Y-80796000D01*
X120817500Y-80796000D01*
X120817500Y-82171001D01*
X120817500Y-82171001D01*
G37*
G36*
X131379000Y-85404000D02*
G01*
X130421000Y-85404000D01*
X130421000Y-84036000D01*
X131379000Y-84036000D01*
X131379000Y-85404000D01*
X131379000Y-85404000D01*
G37*
G36*
X132593489Y-84249706D02*
G01*
X132623762Y-84258889D01*
X132651667Y-84273805D01*
X132680701Y-84297633D01*
X132701076Y-84311247D01*
X132723714Y-84320624D01*
X132747748Y-84325405D01*
X132772252Y-84325405D01*
X132796285Y-84320625D01*
X132818924Y-84311247D01*
X132839299Y-84297633D01*
X132868333Y-84273805D01*
X132896238Y-84258889D01*
X132926511Y-84249706D01*
X132964141Y-84246000D01*
X133525859Y-84246000D01*
X133563489Y-84249706D01*
X133593762Y-84258889D01*
X133621666Y-84273805D01*
X133646124Y-84293876D01*
X133666195Y-84318334D01*
X133681111Y-84346238D01*
X133690294Y-84376511D01*
X133694000Y-84414141D01*
X133694000Y-85025859D01*
X133690294Y-85063489D01*
X133681111Y-85093762D01*
X133666195Y-85121666D01*
X133646124Y-85146124D01*
X133621666Y-85166195D01*
X133593762Y-85181111D01*
X133563489Y-85190294D01*
X133525859Y-85194000D01*
X132964141Y-85194000D01*
X132926511Y-85190294D01*
X132896238Y-85181111D01*
X132868333Y-85166195D01*
X132839299Y-85142367D01*
X132818924Y-85128753D01*
X132796286Y-85119376D01*
X132772252Y-85114595D01*
X132747748Y-85114595D01*
X132723715Y-85119375D01*
X132701076Y-85128753D01*
X132680701Y-85142367D01*
X132651667Y-85166195D01*
X132623762Y-85181111D01*
X132593489Y-85190294D01*
X132555859Y-85194000D01*
X131994141Y-85194000D01*
X131956511Y-85190294D01*
X131926238Y-85181111D01*
X131898334Y-85166195D01*
X131873876Y-85146124D01*
X131853805Y-85121666D01*
X131838889Y-85093762D01*
X131829706Y-85063489D01*
X131826000Y-85025859D01*
X131826000Y-84414141D01*
X131829706Y-84376511D01*
X131838889Y-84346238D01*
X131853805Y-84318334D01*
X131873876Y-84293876D01*
X131898334Y-84273805D01*
X131926238Y-84258889D01*
X131956511Y-84249706D01*
X131994141Y-84246000D01*
X132555859Y-84246000D01*
X132593489Y-84249706D01*
X132593489Y-84249706D01*
G37*
G36*
X122391135Y-84001075D02*
G01*
X122434780Y-84014314D01*
X122474998Y-84035811D01*
X122510254Y-84064746D01*
X122539189Y-84100002D01*
X122560686Y-84140220D01*
X122573925Y-84183865D01*
X122579000Y-84235391D01*
X122579000Y-84939609D01*
X122573925Y-84991135D01*
X122560686Y-85034780D01*
X122539189Y-85074998D01*
X122510254Y-85110254D01*
X122474998Y-85139189D01*
X122434780Y-85160686D01*
X122391135Y-85173925D01*
X122339609Y-85179000D01*
X121560391Y-85179000D01*
X121508865Y-85173925D01*
X121465220Y-85160686D01*
X121425002Y-85139189D01*
X121389746Y-85110254D01*
X121360811Y-85074998D01*
X121339314Y-85034780D01*
X121326075Y-84991135D01*
X121321000Y-84939609D01*
X121321000Y-84235391D01*
X121326075Y-84183865D01*
X121339314Y-84140220D01*
X121360811Y-84100002D01*
X121389746Y-84064746D01*
X121425002Y-84035811D01*
X121465220Y-84014314D01*
X121508865Y-84001075D01*
X121560391Y-83996000D01*
X122339609Y-83996000D01*
X122391135Y-84001075D01*
X122391135Y-84001075D01*
G37*
G36*
X127963489Y-82994706D02*
G01*
X127993762Y-83003889D01*
X128021666Y-83018805D01*
X128046124Y-83038876D01*
X128066195Y-83063334D01*
X128081111Y-83091238D01*
X128090294Y-83121511D01*
X128094000Y-83159141D01*
X128094000Y-83720859D01*
X128090294Y-83758489D01*
X128081111Y-83788762D01*
X128066195Y-83816667D01*
X128042367Y-83845701D01*
X128028753Y-83866076D01*
X128019376Y-83888714D01*
X128014595Y-83912748D01*
X128014595Y-83937252D01*
X128019375Y-83961285D01*
X128028753Y-83983924D01*
X128042367Y-84004299D01*
X128066195Y-84033333D01*
X128081111Y-84061238D01*
X128090294Y-84091511D01*
X128094000Y-84129141D01*
X128094000Y-84690859D01*
X128090294Y-84728489D01*
X128081111Y-84758762D01*
X128066195Y-84786666D01*
X128046124Y-84811124D01*
X128021666Y-84831195D01*
X127993762Y-84846111D01*
X127963489Y-84855294D01*
X127925859Y-84859000D01*
X127314141Y-84859000D01*
X127276511Y-84855294D01*
X127246238Y-84846111D01*
X127218334Y-84831195D01*
X127193876Y-84811124D01*
X127173805Y-84786666D01*
X127158889Y-84758762D01*
X127149706Y-84728489D01*
X127146000Y-84690859D01*
X127146000Y-84129141D01*
X127149706Y-84091511D01*
X127158889Y-84061238D01*
X127173805Y-84033333D01*
X127197633Y-84004299D01*
X127211247Y-83983924D01*
X127220624Y-83961286D01*
X127225405Y-83937252D01*
X127225405Y-83912748D01*
X127220625Y-83888715D01*
X127211247Y-83866076D01*
X127197633Y-83845701D01*
X127173805Y-83816667D01*
X127158889Y-83788762D01*
X127149706Y-83758489D01*
X127146000Y-83720859D01*
X127146000Y-83159141D01*
X127149706Y-83121511D01*
X127158889Y-83091238D01*
X127173805Y-83063334D01*
X127193876Y-83038876D01*
X127218334Y-83018805D01*
X127246238Y-83003889D01*
X127276511Y-82994706D01*
X127314141Y-82991000D01*
X127925859Y-82991000D01*
X127963489Y-82994706D01*
X127963489Y-82994706D01*
G37*
G36*
X92253489Y-82124706D02*
G01*
X92283762Y-82133889D01*
X92311667Y-82148805D01*
X92340701Y-82172633D01*
X92361076Y-82186247D01*
X92383714Y-82195624D01*
X92407748Y-82200405D01*
X92432252Y-82200405D01*
X92456285Y-82195625D01*
X92478924Y-82186247D01*
X92499299Y-82172633D01*
X92528333Y-82148805D01*
X92556238Y-82133889D01*
X92586511Y-82124706D01*
X92624141Y-82121000D01*
X93185859Y-82121000D01*
X93223489Y-82124706D01*
X93253762Y-82133889D01*
X93281666Y-82148805D01*
X93306124Y-82168876D01*
X93326195Y-82193334D01*
X93341111Y-82221238D01*
X93350294Y-82251511D01*
X93354000Y-82289141D01*
X93354000Y-82900859D01*
X93350294Y-82938489D01*
X93341111Y-82968762D01*
X93326195Y-82996667D01*
X93313855Y-83011703D01*
X93300242Y-83032077D01*
X93290864Y-83054716D01*
X93286084Y-83078749D01*
X93286084Y-83103253D01*
X93290865Y-83127287D01*
X93300242Y-83149925D01*
X93313856Y-83170300D01*
X93331183Y-83187627D01*
X93351557Y-83201240D01*
X93374196Y-83210618D01*
X93410481Y-83216000D01*
X94299000Y-83216000D01*
X94299000Y-84584000D01*
X91441000Y-84584000D01*
X91441000Y-83214869D01*
X91453905Y-83213598D01*
X91477354Y-83206485D01*
X91498965Y-83194934D01*
X91517907Y-83179389D01*
X91533452Y-83160447D01*
X91545003Y-83138836D01*
X91552116Y-83115387D01*
X91554518Y-83091001D01*
X91552116Y-83066615D01*
X91545003Y-83043166D01*
X91526145Y-83011703D01*
X91513805Y-82996667D01*
X91498889Y-82968762D01*
X91489706Y-82938489D01*
X91486000Y-82900859D01*
X91486000Y-82289141D01*
X91489706Y-82251511D01*
X91498889Y-82221238D01*
X91513805Y-82193334D01*
X91533876Y-82168876D01*
X91558334Y-82148805D01*
X91586238Y-82133889D01*
X91616511Y-82124706D01*
X91654141Y-82121000D01*
X92215859Y-82121000D01*
X92253489Y-82124706D01*
X92253489Y-82124706D01*
G37*
G36*
X145130189Y-81413228D02*
G01*
X145159221Y-81422035D01*
X145185972Y-81436333D01*
X145209422Y-81455578D01*
X145228667Y-81479028D01*
X145242965Y-81505779D01*
X145242966Y-81505782D01*
X145247190Y-81519706D01*
X145251772Y-81534811D01*
X145255350Y-81571141D01*
X145255350Y-81978859D01*
X145252587Y-82006911D01*
X145251772Y-82015189D01*
X145250688Y-82018764D01*
X145241932Y-82047626D01*
X145235269Y-82063712D01*
X145230488Y-82087745D01*
X145230488Y-82112249D01*
X145235268Y-82136282D01*
X145241931Y-82152370D01*
X145251772Y-82184811D01*
X145255350Y-82221141D01*
X145255350Y-82628859D01*
X145253441Y-82648245D01*
X145251772Y-82665189D01*
X145245528Y-82685774D01*
X145241932Y-82697626D01*
X145235269Y-82713712D01*
X145230488Y-82737745D01*
X145230488Y-82762249D01*
X145235268Y-82786282D01*
X145241930Y-82802367D01*
X145251772Y-82834811D01*
X145255350Y-82871141D01*
X145255350Y-83278859D01*
X145254745Y-83285000D01*
X145251772Y-83315189D01*
X145245571Y-83335632D01*
X145241932Y-83347626D01*
X145235269Y-83363712D01*
X145230488Y-83387745D01*
X145230488Y-83412249D01*
X145235268Y-83436282D01*
X145241931Y-83452370D01*
X145251772Y-83484811D01*
X145255350Y-83521141D01*
X145255350Y-83928859D01*
X145251772Y-83965189D01*
X145242965Y-83994221D01*
X145228667Y-84020972D01*
X145209422Y-84044422D01*
X145185972Y-84063667D01*
X145159221Y-84077965D01*
X145130189Y-84086772D01*
X145093859Y-84090350D01*
X142856141Y-84090350D01*
X142819811Y-84086772D01*
X142790779Y-84077965D01*
X142764028Y-84063667D01*
X142740578Y-84044422D01*
X142721333Y-84020972D01*
X142707035Y-83994221D01*
X142698228Y-83965189D01*
X142694650Y-83928859D01*
X142694650Y-81571141D01*
X142698228Y-81534811D01*
X142702810Y-81519706D01*
X142707034Y-81505782D01*
X142707035Y-81505779D01*
X142721333Y-81479028D01*
X142740578Y-81455578D01*
X142764028Y-81436333D01*
X142790779Y-81422035D01*
X142819811Y-81413228D01*
X142856141Y-81409650D01*
X145093859Y-81409650D01*
X145130189Y-81413228D01*
X145130189Y-81413228D01*
G37*
G36*
X142254000Y-84089000D02*
G01*
X141246000Y-84089000D01*
X141246000Y-81411000D01*
X142254000Y-81411000D01*
X142254000Y-84089000D01*
X142254000Y-84089000D01*
G37*
G36*
X148104000Y-84054000D02*
G01*
X146696000Y-84054000D01*
X146696000Y-82646000D01*
X148104000Y-82646000D01*
X148104000Y-84054000D01*
X148104000Y-84054000D01*
G37*
G36*
X157054000Y-83754000D02*
G01*
X155946000Y-83754000D01*
X155946000Y-82546000D01*
X157054000Y-82546000D01*
X157054000Y-83754000D01*
X157054000Y-83754000D01*
G37*
G36*
X152336609Y-81490347D02*
G01*
X152546623Y-81577337D01*
X152735632Y-81703629D01*
X152896371Y-81864368D01*
X153022663Y-82053377D01*
X153109653Y-82263391D01*
X153154000Y-82486340D01*
X153154000Y-82713660D01*
X153109653Y-82936609D01*
X153022663Y-83146623D01*
X152896371Y-83335632D01*
X152735632Y-83496371D01*
X152546623Y-83622663D01*
X152336609Y-83709653D01*
X152113660Y-83754000D01*
X151886340Y-83754000D01*
X151663391Y-83709653D01*
X151453377Y-83622663D01*
X151264368Y-83496371D01*
X151103629Y-83335632D01*
X150977337Y-83146623D01*
X150890347Y-82936609D01*
X150846000Y-82713660D01*
X150846000Y-82486340D01*
X150890347Y-82263391D01*
X150977337Y-82053377D01*
X151103629Y-81864368D01*
X151264368Y-81703629D01*
X151453377Y-81577337D01*
X151663391Y-81490347D01*
X151886340Y-81446000D01*
X152113660Y-81446000D01*
X152336609Y-81490347D01*
X152336609Y-81490347D01*
G37*
G36*
X114691135Y-80988575D02*
G01*
X114734780Y-81001814D01*
X114774998Y-81023311D01*
X114810254Y-81052246D01*
X114839189Y-81087502D01*
X114860686Y-81127720D01*
X114873925Y-81171365D01*
X114879000Y-81222891D01*
X114879000Y-81927109D01*
X114873925Y-81978635D01*
X114860686Y-82022280D01*
X114839189Y-82062498D01*
X114810254Y-82097754D01*
X114774998Y-82126689D01*
X114734780Y-82148186D01*
X114691135Y-82161425D01*
X114639609Y-82166500D01*
X113860391Y-82166500D01*
X113808865Y-82161425D01*
X113765220Y-82148186D01*
X113725002Y-82126689D01*
X113689746Y-82097754D01*
X113660811Y-82062498D01*
X113639314Y-82022280D01*
X113626075Y-81978635D01*
X113623396Y-81951435D01*
X113618615Y-81927402D01*
X113609238Y-81904763D01*
X113595624Y-81884389D01*
X113578297Y-81867062D01*
X113557923Y-81853448D01*
X113535284Y-81844071D01*
X113511250Y-81839291D01*
X113486746Y-81839291D01*
X113462713Y-81844072D01*
X113440074Y-81853449D01*
X113419700Y-81867063D01*
X113402373Y-81884390D01*
X113388759Y-81904764D01*
X113379382Y-81927403D01*
X113374000Y-81963688D01*
X113374000Y-82245859D01*
X113370294Y-82283489D01*
X113361111Y-82313762D01*
X113346195Y-82341667D01*
X113322367Y-82370701D01*
X113308753Y-82391076D01*
X113299376Y-82413714D01*
X113294595Y-82437748D01*
X113294595Y-82462252D01*
X113299375Y-82486285D01*
X113308753Y-82508924D01*
X113322367Y-82529299D01*
X113346195Y-82558333D01*
X113361111Y-82586238D01*
X113370294Y-82616511D01*
X113374000Y-82654141D01*
X113374000Y-82761312D01*
X113376402Y-82785698D01*
X113383515Y-82809147D01*
X113395066Y-82830758D01*
X113410611Y-82849700D01*
X113429553Y-82865245D01*
X113451164Y-82876796D01*
X113474613Y-82883909D01*
X113498999Y-82886311D01*
X113523385Y-82883909D01*
X113546834Y-82876796D01*
X113568445Y-82865245D01*
X113587387Y-82849700D01*
X113602932Y-82830758D01*
X113614483Y-82809147D01*
X113623396Y-82773565D01*
X113626075Y-82746365D01*
X113639314Y-82702720D01*
X113660811Y-82662502D01*
X113689746Y-82627246D01*
X113725002Y-82598311D01*
X113765220Y-82576814D01*
X113808865Y-82563575D01*
X113860391Y-82558500D01*
X114639609Y-82558500D01*
X114691135Y-82563575D01*
X114734780Y-82576814D01*
X114774998Y-82598311D01*
X114810254Y-82627246D01*
X114839189Y-82662502D01*
X114860686Y-82702720D01*
X114873925Y-82746365D01*
X114879000Y-82797891D01*
X114879000Y-83502109D01*
X114873925Y-83553635D01*
X114860686Y-83597280D01*
X114839189Y-83637498D01*
X114810254Y-83672754D01*
X114774998Y-83701689D01*
X114734780Y-83723186D01*
X114691135Y-83736425D01*
X114639609Y-83741500D01*
X113860391Y-83741500D01*
X113808865Y-83736425D01*
X113765220Y-83723186D01*
X113725002Y-83701689D01*
X113689746Y-83672754D01*
X113660811Y-83637498D01*
X113639314Y-83597280D01*
X113626075Y-83553635D01*
X113621000Y-83502109D01*
X113621000Y-83252437D01*
X113618598Y-83228051D01*
X113611485Y-83204602D01*
X113599934Y-83182991D01*
X113584389Y-83164049D01*
X113565447Y-83148504D01*
X113543836Y-83136953D01*
X113520387Y-83129840D01*
X113496001Y-83127438D01*
X113471615Y-83129840D01*
X113448166Y-83136953D01*
X113426555Y-83148504D01*
X113407613Y-83164049D01*
X113392068Y-83182991D01*
X113380517Y-83204602D01*
X113371604Y-83240184D01*
X113370294Y-83253489D01*
X113361111Y-83283762D01*
X113346195Y-83311666D01*
X113326124Y-83336124D01*
X113301666Y-83356195D01*
X113273762Y-83371111D01*
X113243489Y-83380294D01*
X113205859Y-83384000D01*
X112594141Y-83384000D01*
X112556511Y-83380294D01*
X112526238Y-83371111D01*
X112498334Y-83356195D01*
X112473876Y-83336124D01*
X112453805Y-83311666D01*
X112438889Y-83283762D01*
X112429706Y-83253489D01*
X112426000Y-83215859D01*
X112426000Y-82654141D01*
X112429706Y-82616511D01*
X112438889Y-82586238D01*
X112453805Y-82558333D01*
X112477633Y-82529299D01*
X112491247Y-82508924D01*
X112500624Y-82486286D01*
X112505405Y-82462252D01*
X112505405Y-82437748D01*
X112500625Y-82413715D01*
X112491247Y-82391076D01*
X112477633Y-82370701D01*
X112453805Y-82341667D01*
X112438889Y-82313762D01*
X112429706Y-82283489D01*
X112426000Y-82245859D01*
X112426000Y-81684141D01*
X112429706Y-81646511D01*
X112438889Y-81616238D01*
X112453805Y-81588334D01*
X112473876Y-81563876D01*
X112498334Y-81543805D01*
X112526238Y-81528889D01*
X112556511Y-81519706D01*
X112594141Y-81516000D01*
X113205859Y-81516000D01*
X113243489Y-81519706D01*
X113273762Y-81528889D01*
X113301666Y-81543805D01*
X113326124Y-81563876D01*
X113346195Y-81588334D01*
X113361111Y-81616238D01*
X113370294Y-81646511D01*
X113371604Y-81659816D01*
X113376385Y-81683849D01*
X113385762Y-81706488D01*
X113399376Y-81726862D01*
X113416703Y-81744189D01*
X113437078Y-81757803D01*
X113459716Y-81767180D01*
X113483750Y-81771960D01*
X113508254Y-81771960D01*
X113532287Y-81767179D01*
X113554926Y-81757802D01*
X113575300Y-81744188D01*
X113592627Y-81726861D01*
X113606241Y-81706486D01*
X113615618Y-81683848D01*
X113621000Y-81647563D01*
X113621000Y-81222891D01*
X113626075Y-81171365D01*
X113639314Y-81127720D01*
X113660811Y-81087502D01*
X113689746Y-81052246D01*
X113725002Y-81023311D01*
X113765220Y-81001814D01*
X113808865Y-80988575D01*
X113860391Y-80983500D01*
X114639609Y-80983500D01*
X114691135Y-80988575D01*
X114691135Y-80988575D01*
G37*
G36*
X123593489Y-81619706D02*
G01*
X123623762Y-81628889D01*
X123651666Y-81643805D01*
X123676124Y-81663876D01*
X123696195Y-81688334D01*
X123711111Y-81716238D01*
X123720294Y-81746511D01*
X123724000Y-81784141D01*
X123724000Y-82345859D01*
X123720294Y-82383489D01*
X123711111Y-82413762D01*
X123696195Y-82441667D01*
X123672367Y-82470701D01*
X123658753Y-82491076D01*
X123649376Y-82513714D01*
X123644595Y-82537748D01*
X123644595Y-82562252D01*
X123649375Y-82586285D01*
X123658753Y-82608924D01*
X123672367Y-82629299D01*
X123696195Y-82658333D01*
X123711111Y-82686238D01*
X123720294Y-82716511D01*
X123724000Y-82754141D01*
X123724000Y-83315859D01*
X123720294Y-83353489D01*
X123711111Y-83383762D01*
X123696195Y-83411666D01*
X123676124Y-83436124D01*
X123651666Y-83456195D01*
X123623762Y-83471111D01*
X123593489Y-83480294D01*
X123555859Y-83484000D01*
X122944141Y-83484000D01*
X122906511Y-83480294D01*
X122876238Y-83471111D01*
X122848334Y-83456195D01*
X122823876Y-83436124D01*
X122803803Y-83411665D01*
X122800272Y-83405058D01*
X122786658Y-83384684D01*
X122769331Y-83367357D01*
X122748957Y-83353744D01*
X122726318Y-83344367D01*
X122702284Y-83339587D01*
X122677780Y-83339587D01*
X122653747Y-83344368D01*
X122631108Y-83353746D01*
X122610734Y-83367360D01*
X122593407Y-83384687D01*
X122579794Y-83405061D01*
X122570417Y-83427700D01*
X122560686Y-83459779D01*
X122539189Y-83499998D01*
X122510254Y-83535254D01*
X122474998Y-83564189D01*
X122434780Y-83585686D01*
X122391135Y-83598925D01*
X122339609Y-83604000D01*
X121560391Y-83604000D01*
X121508865Y-83598925D01*
X121465220Y-83585686D01*
X121425002Y-83564189D01*
X121389746Y-83535254D01*
X121360811Y-83499998D01*
X121339314Y-83459780D01*
X121326075Y-83416135D01*
X121321000Y-83364609D01*
X121321000Y-82660391D01*
X121326075Y-82608865D01*
X121339314Y-82565220D01*
X121360811Y-82525002D01*
X121389746Y-82489746D01*
X121425002Y-82460811D01*
X121465220Y-82439314D01*
X121508865Y-82426075D01*
X121560391Y-82421000D01*
X122339609Y-82421000D01*
X122391135Y-82426075D01*
X122434780Y-82439314D01*
X122474998Y-82460811D01*
X122510254Y-82489746D01*
X122539189Y-82525002D01*
X122560686Y-82565220D01*
X122575426Y-82613813D01*
X122578195Y-82627739D01*
X122587572Y-82650378D01*
X122601184Y-82670753D01*
X122618510Y-82688081D01*
X122638884Y-82701696D01*
X122661522Y-82711075D01*
X122685555Y-82715856D01*
X122710059Y-82715858D01*
X122734093Y-82711079D01*
X122756732Y-82701702D01*
X122777107Y-82688090D01*
X122794435Y-82670764D01*
X122798083Y-82665305D01*
X122827633Y-82629299D01*
X122841247Y-82608924D01*
X122850624Y-82586286D01*
X122855405Y-82562252D01*
X122855405Y-82537748D01*
X122850625Y-82513715D01*
X122841247Y-82491076D01*
X122827633Y-82470701D01*
X122803805Y-82441667D01*
X122788889Y-82413762D01*
X122779706Y-82383489D01*
X122776000Y-82345859D01*
X122776000Y-81784141D01*
X122779706Y-81746511D01*
X122788889Y-81716238D01*
X122803805Y-81688334D01*
X122823876Y-81663876D01*
X122848334Y-81643805D01*
X122876238Y-81628889D01*
X122906511Y-81619706D01*
X122944141Y-81616000D01*
X123555859Y-81616000D01*
X123593489Y-81619706D01*
X123593489Y-81619706D01*
G37*
G36*
X131379000Y-81963785D02*
G01*
X131381402Y-81988171D01*
X131388515Y-82011620D01*
X131400066Y-82033231D01*
X131415611Y-82052173D01*
X131434553Y-82067718D01*
X131456164Y-82079269D01*
X131479613Y-82086382D01*
X131503999Y-82088784D01*
X131528385Y-82086382D01*
X131551834Y-82079269D01*
X131562925Y-82074023D01*
X131591237Y-82058890D01*
X131621511Y-82049706D01*
X131659141Y-82046000D01*
X132220859Y-82046000D01*
X132258489Y-82049706D01*
X132288762Y-82058889D01*
X132316667Y-82073805D01*
X132345701Y-82097633D01*
X132366076Y-82111247D01*
X132388714Y-82120624D01*
X132412748Y-82125405D01*
X132437252Y-82125405D01*
X132461285Y-82120625D01*
X132483924Y-82111247D01*
X132504299Y-82097633D01*
X132533333Y-82073805D01*
X132561238Y-82058889D01*
X132591511Y-82049706D01*
X132629141Y-82046000D01*
X133190859Y-82046000D01*
X133228489Y-82049706D01*
X133258762Y-82058889D01*
X133286666Y-82073805D01*
X133311124Y-82093876D01*
X133331195Y-82118334D01*
X133346111Y-82146238D01*
X133355294Y-82176511D01*
X133359000Y-82214141D01*
X133359000Y-82825859D01*
X133355294Y-82863489D01*
X133346111Y-82893762D01*
X133331195Y-82921666D01*
X133311124Y-82946124D01*
X133286666Y-82966195D01*
X133258762Y-82981111D01*
X133228489Y-82990294D01*
X133190859Y-82994000D01*
X132629141Y-82994000D01*
X132591511Y-82990294D01*
X132561238Y-82981111D01*
X132533333Y-82966195D01*
X132504299Y-82942367D01*
X132483924Y-82928753D01*
X132461286Y-82919376D01*
X132437252Y-82914595D01*
X132412748Y-82914595D01*
X132388715Y-82919375D01*
X132366076Y-82928753D01*
X132345701Y-82942367D01*
X132316667Y-82966195D01*
X132288762Y-82981111D01*
X132258489Y-82990294D01*
X132220859Y-82994000D01*
X131659141Y-82994000D01*
X131621511Y-82990294D01*
X131591237Y-82981110D01*
X131562925Y-82965977D01*
X131540286Y-82956599D01*
X131516253Y-82951818D01*
X131491749Y-82951818D01*
X131467715Y-82956598D01*
X131445076Y-82965975D01*
X131424702Y-82979588D01*
X131407375Y-82996915D01*
X131393761Y-83017289D01*
X131384383Y-83039928D01*
X131379602Y-83063961D01*
X131379000Y-83076215D01*
X131379000Y-83204000D01*
X128521000Y-83204000D01*
X128521000Y-81836000D01*
X131379000Y-81836000D01*
X131379000Y-81963785D01*
X131379000Y-81963785D01*
G37*
G36*
X140693512Y-81151555D02*
G01*
X140741850Y-81166218D01*
X140786390Y-81190025D01*
X140825433Y-81222067D01*
X140857475Y-81261110D01*
X140881282Y-81305650D01*
X140895945Y-81353988D01*
X140901500Y-81410390D01*
X140901500Y-82589610D01*
X140895945Y-82646012D01*
X140881282Y-82694350D01*
X140857475Y-82738890D01*
X140825433Y-82777933D01*
X140786390Y-82809975D01*
X140741850Y-82833782D01*
X140693512Y-82848445D01*
X140637110Y-82854000D01*
X139882890Y-82854000D01*
X139826488Y-82848445D01*
X139778150Y-82833782D01*
X139733610Y-82809975D01*
X139694567Y-82777933D01*
X139662525Y-82738890D01*
X139638718Y-82694350D01*
X139624055Y-82646012D01*
X139618500Y-82589610D01*
X139618500Y-81410390D01*
X139624055Y-81353988D01*
X139638718Y-81305650D01*
X139662525Y-81261110D01*
X139694567Y-81222067D01*
X139733610Y-81190025D01*
X139778150Y-81166218D01*
X139826488Y-81151555D01*
X139882890Y-81146000D01*
X140637110Y-81146000D01*
X140693512Y-81151555D01*
X140693512Y-81151555D01*
G37*
G36*
X138818512Y-81151555D02*
G01*
X138866850Y-81166218D01*
X138911390Y-81190025D01*
X138950433Y-81222067D01*
X138982475Y-81261110D01*
X139006282Y-81305650D01*
X139020945Y-81353988D01*
X139026500Y-81410390D01*
X139026500Y-82589610D01*
X139020945Y-82646012D01*
X139006282Y-82694350D01*
X138982475Y-82738890D01*
X138950433Y-82777933D01*
X138911390Y-82809975D01*
X138866850Y-82833782D01*
X138818512Y-82848445D01*
X138762110Y-82854000D01*
X138007890Y-82854000D01*
X137951488Y-82848445D01*
X137903150Y-82833782D01*
X137858610Y-82809975D01*
X137819567Y-82777933D01*
X137787525Y-82738890D01*
X137763718Y-82694350D01*
X137749055Y-82646012D01*
X137743500Y-82589610D01*
X137743500Y-81410390D01*
X137749055Y-81353988D01*
X137763718Y-81305650D01*
X137787525Y-81261110D01*
X137819567Y-81222067D01*
X137858610Y-81190025D01*
X137903150Y-81166218D01*
X137951488Y-81151555D01*
X138007890Y-81146000D01*
X138762110Y-81146000D01*
X138818512Y-81151555D01*
X138818512Y-81151555D01*
G37*
G36*
X156683489Y-81079706D02*
G01*
X156713762Y-81088889D01*
X156741667Y-81103805D01*
X156770701Y-81127633D01*
X156791076Y-81141247D01*
X156813714Y-81150624D01*
X156837748Y-81155405D01*
X156862252Y-81155405D01*
X156886285Y-81150625D01*
X156908924Y-81141247D01*
X156929299Y-81127633D01*
X156958333Y-81103805D01*
X156986238Y-81088889D01*
X157016511Y-81079706D01*
X157054141Y-81076000D01*
X157615859Y-81076000D01*
X157653489Y-81079706D01*
X157683762Y-81088889D01*
X157711666Y-81103805D01*
X157736124Y-81123876D01*
X157756195Y-81148334D01*
X157771111Y-81176238D01*
X157780294Y-81206511D01*
X157784000Y-81244141D01*
X157784000Y-81855859D01*
X157780294Y-81893489D01*
X157771111Y-81923762D01*
X157756195Y-81951666D01*
X157736124Y-81976124D01*
X157711666Y-81996195D01*
X157683762Y-82011111D01*
X157653489Y-82020294D01*
X157615859Y-82024000D01*
X157054141Y-82024000D01*
X157016511Y-82020294D01*
X156986238Y-82011111D01*
X156958333Y-81996195D01*
X156929299Y-81972367D01*
X156908924Y-81958753D01*
X156886286Y-81949376D01*
X156862252Y-81944595D01*
X156837748Y-81944595D01*
X156813715Y-81949375D01*
X156791076Y-81958753D01*
X156770701Y-81972367D01*
X156741667Y-81996195D01*
X156713762Y-82011111D01*
X156683489Y-82020294D01*
X156645859Y-82024000D01*
X156084141Y-82024000D01*
X156046511Y-82020294D01*
X156016238Y-82011111D01*
X155988334Y-81996195D01*
X155963876Y-81976124D01*
X155943805Y-81951666D01*
X155928889Y-81923762D01*
X155919706Y-81893489D01*
X155916000Y-81855859D01*
X155916000Y-81244141D01*
X155919706Y-81206511D01*
X155928889Y-81176238D01*
X155943805Y-81148334D01*
X155963876Y-81123876D01*
X155988334Y-81103805D01*
X156016238Y-81088889D01*
X156046511Y-81079706D01*
X156084141Y-81076000D01*
X156645859Y-81076000D01*
X156683489Y-81079706D01*
X156683489Y-81079706D01*
G37*
G36*
X94483489Y-80529706D02*
G01*
X94513762Y-80538889D01*
X94541667Y-80553805D01*
X94570701Y-80577633D01*
X94591076Y-80591247D01*
X94613714Y-80600624D01*
X94637748Y-80605405D01*
X94662252Y-80605405D01*
X94686285Y-80600625D01*
X94708924Y-80591247D01*
X94729299Y-80577633D01*
X94758333Y-80553805D01*
X94786238Y-80538889D01*
X94816511Y-80529706D01*
X94854141Y-80526000D01*
X95415859Y-80526000D01*
X95453489Y-80529706D01*
X95483762Y-80538889D01*
X95511666Y-80553805D01*
X95536124Y-80573876D01*
X95556195Y-80598334D01*
X95571111Y-80626238D01*
X95580294Y-80656511D01*
X95584000Y-80694141D01*
X95584000Y-81305859D01*
X95580294Y-81343489D01*
X95571111Y-81373762D01*
X95556195Y-81401666D01*
X95536124Y-81426124D01*
X95511666Y-81446195D01*
X95483762Y-81461111D01*
X95453489Y-81470294D01*
X95415859Y-81474000D01*
X94854141Y-81474000D01*
X94816511Y-81470294D01*
X94786238Y-81461111D01*
X94758333Y-81446195D01*
X94729299Y-81422367D01*
X94708924Y-81408753D01*
X94686286Y-81399376D01*
X94662252Y-81394595D01*
X94637748Y-81394595D01*
X94613715Y-81399375D01*
X94591076Y-81408753D01*
X94570701Y-81422367D01*
X94541667Y-81446195D01*
X94513762Y-81461111D01*
X94483489Y-81470294D01*
X94445859Y-81474000D01*
X93884141Y-81474000D01*
X93846511Y-81470294D01*
X93816238Y-81461111D01*
X93788334Y-81446195D01*
X93763876Y-81426124D01*
X93743805Y-81401666D01*
X93728889Y-81373762D01*
X93719706Y-81343489D01*
X93716000Y-81305859D01*
X93716000Y-80694141D01*
X93719706Y-80656511D01*
X93728889Y-80626238D01*
X93743805Y-80598334D01*
X93763876Y-80573876D01*
X93788334Y-80553805D01*
X93816238Y-80538889D01*
X93846511Y-80529706D01*
X93884141Y-80526000D01*
X94445859Y-80526000D01*
X94483489Y-80529706D01*
X94483489Y-80529706D01*
G37*
G36*
X83269152Y-80019154D02*
G01*
X83333206Y-80025463D01*
X83456486Y-80062860D01*
X83570101Y-80123588D01*
X83570102Y-80123589D01*
X83570104Y-80123590D01*
X83669686Y-80205314D01*
X83751410Y-80304896D01*
X83751412Y-80304899D01*
X83812140Y-80418514D01*
X83849537Y-80541794D01*
X83862164Y-80670000D01*
X83849537Y-80798206D01*
X83812140Y-80921486D01*
X83751412Y-81035101D01*
X83751410Y-81035104D01*
X83669686Y-81134686D01*
X83570104Y-81216410D01*
X83570102Y-81216411D01*
X83570101Y-81216412D01*
X83456486Y-81277140D01*
X83333206Y-81314537D01*
X83269152Y-81320846D01*
X83237126Y-81324000D01*
X82572874Y-81324000D01*
X82540848Y-81320846D01*
X82476794Y-81314537D01*
X82353514Y-81277140D01*
X82239899Y-81216412D01*
X82239898Y-81216411D01*
X82239896Y-81216410D01*
X82140314Y-81134686D01*
X82058590Y-81035104D01*
X82058588Y-81035101D01*
X81997860Y-80921486D01*
X81960463Y-80798206D01*
X81947836Y-80670000D01*
X81960463Y-80541794D01*
X81997860Y-80418514D01*
X82058588Y-80304899D01*
X82058590Y-80304896D01*
X82140314Y-80205314D01*
X82239896Y-80123590D01*
X82239898Y-80123589D01*
X82239899Y-80123588D01*
X82353514Y-80062860D01*
X82476794Y-80025463D01*
X82540848Y-80019154D01*
X82572874Y-80016000D01*
X83237126Y-80016000D01*
X83269152Y-80019154D01*
X83269152Y-80019154D01*
G37*
M02*
