G04 #@! TF.GenerationSoftware,KiCad,Pcbnew,5.1.2*
G04 #@! TF.CreationDate,2019-05-22T21:18:17+02:00*
G04 #@! TF.ProjectId,TS100C,54533130-3043-42e6-9b69-6361645f7063,rev?*
G04 #@! TF.SameCoordinates,Original*
G04 #@! TF.FileFunction,Copper,L4,Bot*
G04 #@! TF.FilePolarity,Positive*
%FSLAX46Y46*%
G04 Gerber Fmt 4.6, Leading zero omitted, Abs format (unit mm)*
G04 Created by KiCad (PCBNEW 5.1.2) date 2019-05-22 21:18:17*
%MOMM*%
%LPD*%
G04 APERTURE LIST*
%ADD10C,0.150000*%
%ADD11O,2.100000X1.000000*%
%ADD12O,1.600000X1.000000*%
%ADD13R,5.000000X3.960000*%
%ADD14R,0.650000X1.050000*%
%ADD15R,1.050000X0.650000*%
%ADD16R,2.000000X0.320000*%
%ADD17C,2.000000*%
%ADD18C,0.100000*%
%ADD19C,0.590000*%
%ADD20C,0.600000*%
%ADD21C,0.700000*%
%ADD22C,0.154000*%
%ADD23C,0.250000*%
%ADD24C,0.200000*%
%ADD25C,0.254000*%
G04 APERTURE END LIST*
D10*
X131000000Y-80500000D02*
X164000000Y-80500000D01*
X130000000Y-80000000D02*
X131000000Y-80500000D01*
X130000000Y-90000000D02*
X131000000Y-89500000D01*
X131000000Y-89500000D02*
X164000000Y-89500000D01*
X80000000Y-80000000D02*
X80000000Y-90000000D01*
X130000000Y-90000000D02*
X80000000Y-90000000D01*
X164000000Y-80500000D02*
X164000000Y-89500000D01*
X80000000Y-80000000D02*
X130000000Y-80000000D01*
D11*
X87085000Y-80670000D03*
X87085000Y-89310000D03*
D12*
X82905000Y-80670000D03*
X82905000Y-89310000D03*
D13*
X161000000Y-85000000D03*
D14*
X153700000Y-82925000D03*
X153700000Y-87075000D03*
X155850000Y-82925000D03*
X155850000Y-87075000D03*
D15*
X138425000Y-86075000D03*
X142575000Y-86075000D03*
X138425000Y-83925000D03*
X142575000Y-83925000D03*
D16*
X125000000Y-80840000D03*
X125000000Y-81480000D03*
X125000000Y-82120000D03*
X125000000Y-82760000D03*
X125000000Y-83400000D03*
X125000000Y-84040000D03*
X125000000Y-84680000D03*
X125000000Y-85320000D03*
X125000000Y-85960000D03*
X125000000Y-86600000D03*
X125000000Y-87240000D03*
X125000000Y-87880000D03*
X125000000Y-88520000D03*
X125000000Y-89160000D03*
D17*
X152000000Y-87400000D03*
X152000000Y-82600000D03*
D18*
G36*
X128371958Y-81880710D02*
G01*
X128386276Y-81882834D01*
X128400317Y-81886351D01*
X128413946Y-81891228D01*
X128427031Y-81897417D01*
X128439447Y-81904858D01*
X128451073Y-81913481D01*
X128461798Y-81923202D01*
X128471519Y-81933927D01*
X128480142Y-81945553D01*
X128487583Y-81957969D01*
X128493772Y-81971054D01*
X128498649Y-81984683D01*
X128502166Y-81998724D01*
X128504290Y-82013042D01*
X128505000Y-82027500D01*
X128505000Y-82372500D01*
X128504290Y-82386958D01*
X128502166Y-82401276D01*
X128498649Y-82415317D01*
X128493772Y-82428946D01*
X128487583Y-82442031D01*
X128480142Y-82454447D01*
X128471519Y-82466073D01*
X128461798Y-82476798D01*
X128451073Y-82486519D01*
X128439447Y-82495142D01*
X128427031Y-82502583D01*
X128413946Y-82508772D01*
X128400317Y-82513649D01*
X128386276Y-82517166D01*
X128371958Y-82519290D01*
X128357500Y-82520000D01*
X128062500Y-82520000D01*
X128048042Y-82519290D01*
X128033724Y-82517166D01*
X128019683Y-82513649D01*
X128006054Y-82508772D01*
X127992969Y-82502583D01*
X127980553Y-82495142D01*
X127968927Y-82486519D01*
X127958202Y-82476798D01*
X127948481Y-82466073D01*
X127939858Y-82454447D01*
X127932417Y-82442031D01*
X127926228Y-82428946D01*
X127921351Y-82415317D01*
X127917834Y-82401276D01*
X127915710Y-82386958D01*
X127915000Y-82372500D01*
X127915000Y-82027500D01*
X127915710Y-82013042D01*
X127917834Y-81998724D01*
X127921351Y-81984683D01*
X127926228Y-81971054D01*
X127932417Y-81957969D01*
X127939858Y-81945553D01*
X127948481Y-81933927D01*
X127958202Y-81923202D01*
X127968927Y-81913481D01*
X127980553Y-81904858D01*
X127992969Y-81897417D01*
X128006054Y-81891228D01*
X128019683Y-81886351D01*
X128033724Y-81882834D01*
X128048042Y-81880710D01*
X128062500Y-81880000D01*
X128357500Y-81880000D01*
X128371958Y-81880710D01*
X128371958Y-81880710D01*
G37*
D19*
X128210000Y-82200000D03*
D18*
G36*
X127401958Y-81880710D02*
G01*
X127416276Y-81882834D01*
X127430317Y-81886351D01*
X127443946Y-81891228D01*
X127457031Y-81897417D01*
X127469447Y-81904858D01*
X127481073Y-81913481D01*
X127491798Y-81923202D01*
X127501519Y-81933927D01*
X127510142Y-81945553D01*
X127517583Y-81957969D01*
X127523772Y-81971054D01*
X127528649Y-81984683D01*
X127532166Y-81998724D01*
X127534290Y-82013042D01*
X127535000Y-82027500D01*
X127535000Y-82372500D01*
X127534290Y-82386958D01*
X127532166Y-82401276D01*
X127528649Y-82415317D01*
X127523772Y-82428946D01*
X127517583Y-82442031D01*
X127510142Y-82454447D01*
X127501519Y-82466073D01*
X127491798Y-82476798D01*
X127481073Y-82486519D01*
X127469447Y-82495142D01*
X127457031Y-82502583D01*
X127443946Y-82508772D01*
X127430317Y-82513649D01*
X127416276Y-82517166D01*
X127401958Y-82519290D01*
X127387500Y-82520000D01*
X127092500Y-82520000D01*
X127078042Y-82519290D01*
X127063724Y-82517166D01*
X127049683Y-82513649D01*
X127036054Y-82508772D01*
X127022969Y-82502583D01*
X127010553Y-82495142D01*
X126998927Y-82486519D01*
X126988202Y-82476798D01*
X126978481Y-82466073D01*
X126969858Y-82454447D01*
X126962417Y-82442031D01*
X126956228Y-82428946D01*
X126951351Y-82415317D01*
X126947834Y-82401276D01*
X126945710Y-82386958D01*
X126945000Y-82372500D01*
X126945000Y-82027500D01*
X126945710Y-82013042D01*
X126947834Y-81998724D01*
X126951351Y-81984683D01*
X126956228Y-81971054D01*
X126962417Y-81957969D01*
X126969858Y-81945553D01*
X126978481Y-81933927D01*
X126988202Y-81923202D01*
X126998927Y-81913481D01*
X127010553Y-81904858D01*
X127022969Y-81897417D01*
X127036054Y-81891228D01*
X127049683Y-81886351D01*
X127063724Y-81882834D01*
X127078042Y-81880710D01*
X127092500Y-81880000D01*
X127387500Y-81880000D01*
X127401958Y-81880710D01*
X127401958Y-81880710D01*
G37*
D19*
X127240000Y-82200000D03*
D18*
G36*
X128921958Y-87705710D02*
G01*
X128936276Y-87707834D01*
X128950317Y-87711351D01*
X128963946Y-87716228D01*
X128977031Y-87722417D01*
X128989447Y-87729858D01*
X129001073Y-87738481D01*
X129011798Y-87748202D01*
X129021519Y-87758927D01*
X129030142Y-87770553D01*
X129037583Y-87782969D01*
X129043772Y-87796054D01*
X129048649Y-87809683D01*
X129052166Y-87823724D01*
X129054290Y-87838042D01*
X129055000Y-87852500D01*
X129055000Y-88197500D01*
X129054290Y-88211958D01*
X129052166Y-88226276D01*
X129048649Y-88240317D01*
X129043772Y-88253946D01*
X129037583Y-88267031D01*
X129030142Y-88279447D01*
X129021519Y-88291073D01*
X129011798Y-88301798D01*
X129001073Y-88311519D01*
X128989447Y-88320142D01*
X128977031Y-88327583D01*
X128963946Y-88333772D01*
X128950317Y-88338649D01*
X128936276Y-88342166D01*
X128921958Y-88344290D01*
X128907500Y-88345000D01*
X128612500Y-88345000D01*
X128598042Y-88344290D01*
X128583724Y-88342166D01*
X128569683Y-88338649D01*
X128556054Y-88333772D01*
X128542969Y-88327583D01*
X128530553Y-88320142D01*
X128518927Y-88311519D01*
X128508202Y-88301798D01*
X128498481Y-88291073D01*
X128489858Y-88279447D01*
X128482417Y-88267031D01*
X128476228Y-88253946D01*
X128471351Y-88240317D01*
X128467834Y-88226276D01*
X128465710Y-88211958D01*
X128465000Y-88197500D01*
X128465000Y-87852500D01*
X128465710Y-87838042D01*
X128467834Y-87823724D01*
X128471351Y-87809683D01*
X128476228Y-87796054D01*
X128482417Y-87782969D01*
X128489858Y-87770553D01*
X128498481Y-87758927D01*
X128508202Y-87748202D01*
X128518927Y-87738481D01*
X128530553Y-87729858D01*
X128542969Y-87722417D01*
X128556054Y-87716228D01*
X128569683Y-87711351D01*
X128583724Y-87707834D01*
X128598042Y-87705710D01*
X128612500Y-87705000D01*
X128907500Y-87705000D01*
X128921958Y-87705710D01*
X128921958Y-87705710D01*
G37*
D19*
X128760000Y-88025000D03*
D18*
G36*
X127951958Y-87705710D02*
G01*
X127966276Y-87707834D01*
X127980317Y-87711351D01*
X127993946Y-87716228D01*
X128007031Y-87722417D01*
X128019447Y-87729858D01*
X128031073Y-87738481D01*
X128041798Y-87748202D01*
X128051519Y-87758927D01*
X128060142Y-87770553D01*
X128067583Y-87782969D01*
X128073772Y-87796054D01*
X128078649Y-87809683D01*
X128082166Y-87823724D01*
X128084290Y-87838042D01*
X128085000Y-87852500D01*
X128085000Y-88197500D01*
X128084290Y-88211958D01*
X128082166Y-88226276D01*
X128078649Y-88240317D01*
X128073772Y-88253946D01*
X128067583Y-88267031D01*
X128060142Y-88279447D01*
X128051519Y-88291073D01*
X128041798Y-88301798D01*
X128031073Y-88311519D01*
X128019447Y-88320142D01*
X128007031Y-88327583D01*
X127993946Y-88333772D01*
X127980317Y-88338649D01*
X127966276Y-88342166D01*
X127951958Y-88344290D01*
X127937500Y-88345000D01*
X127642500Y-88345000D01*
X127628042Y-88344290D01*
X127613724Y-88342166D01*
X127599683Y-88338649D01*
X127586054Y-88333772D01*
X127572969Y-88327583D01*
X127560553Y-88320142D01*
X127548927Y-88311519D01*
X127538202Y-88301798D01*
X127528481Y-88291073D01*
X127519858Y-88279447D01*
X127512417Y-88267031D01*
X127506228Y-88253946D01*
X127501351Y-88240317D01*
X127497834Y-88226276D01*
X127495710Y-88211958D01*
X127495000Y-88197500D01*
X127495000Y-87852500D01*
X127495710Y-87838042D01*
X127497834Y-87823724D01*
X127501351Y-87809683D01*
X127506228Y-87796054D01*
X127512417Y-87782969D01*
X127519858Y-87770553D01*
X127528481Y-87758927D01*
X127538202Y-87748202D01*
X127548927Y-87738481D01*
X127560553Y-87729858D01*
X127572969Y-87722417D01*
X127586054Y-87716228D01*
X127599683Y-87711351D01*
X127613724Y-87707834D01*
X127628042Y-87705710D01*
X127642500Y-87705000D01*
X127937500Y-87705000D01*
X127951958Y-87705710D01*
X127951958Y-87705710D01*
G37*
D19*
X127790000Y-88025000D03*
D18*
G36*
X127426958Y-80655710D02*
G01*
X127441276Y-80657834D01*
X127455317Y-80661351D01*
X127468946Y-80666228D01*
X127482031Y-80672417D01*
X127494447Y-80679858D01*
X127506073Y-80688481D01*
X127516798Y-80698202D01*
X127526519Y-80708927D01*
X127535142Y-80720553D01*
X127542583Y-80732969D01*
X127548772Y-80746054D01*
X127553649Y-80759683D01*
X127557166Y-80773724D01*
X127559290Y-80788042D01*
X127560000Y-80802500D01*
X127560000Y-81147500D01*
X127559290Y-81161958D01*
X127557166Y-81176276D01*
X127553649Y-81190317D01*
X127548772Y-81203946D01*
X127542583Y-81217031D01*
X127535142Y-81229447D01*
X127526519Y-81241073D01*
X127516798Y-81251798D01*
X127506073Y-81261519D01*
X127494447Y-81270142D01*
X127482031Y-81277583D01*
X127468946Y-81283772D01*
X127455317Y-81288649D01*
X127441276Y-81292166D01*
X127426958Y-81294290D01*
X127412500Y-81295000D01*
X127117500Y-81295000D01*
X127103042Y-81294290D01*
X127088724Y-81292166D01*
X127074683Y-81288649D01*
X127061054Y-81283772D01*
X127047969Y-81277583D01*
X127035553Y-81270142D01*
X127023927Y-81261519D01*
X127013202Y-81251798D01*
X127003481Y-81241073D01*
X126994858Y-81229447D01*
X126987417Y-81217031D01*
X126981228Y-81203946D01*
X126976351Y-81190317D01*
X126972834Y-81176276D01*
X126970710Y-81161958D01*
X126970000Y-81147500D01*
X126970000Y-80802500D01*
X126970710Y-80788042D01*
X126972834Y-80773724D01*
X126976351Y-80759683D01*
X126981228Y-80746054D01*
X126987417Y-80732969D01*
X126994858Y-80720553D01*
X127003481Y-80708927D01*
X127013202Y-80698202D01*
X127023927Y-80688481D01*
X127035553Y-80679858D01*
X127047969Y-80672417D01*
X127061054Y-80666228D01*
X127074683Y-80661351D01*
X127088724Y-80657834D01*
X127103042Y-80655710D01*
X127117500Y-80655000D01*
X127412500Y-80655000D01*
X127426958Y-80655710D01*
X127426958Y-80655710D01*
G37*
D19*
X127265000Y-80975000D03*
D18*
G36*
X128396958Y-80655710D02*
G01*
X128411276Y-80657834D01*
X128425317Y-80661351D01*
X128438946Y-80666228D01*
X128452031Y-80672417D01*
X128464447Y-80679858D01*
X128476073Y-80688481D01*
X128486798Y-80698202D01*
X128496519Y-80708927D01*
X128505142Y-80720553D01*
X128512583Y-80732969D01*
X128518772Y-80746054D01*
X128523649Y-80759683D01*
X128527166Y-80773724D01*
X128529290Y-80788042D01*
X128530000Y-80802500D01*
X128530000Y-81147500D01*
X128529290Y-81161958D01*
X128527166Y-81176276D01*
X128523649Y-81190317D01*
X128518772Y-81203946D01*
X128512583Y-81217031D01*
X128505142Y-81229447D01*
X128496519Y-81241073D01*
X128486798Y-81251798D01*
X128476073Y-81261519D01*
X128464447Y-81270142D01*
X128452031Y-81277583D01*
X128438946Y-81283772D01*
X128425317Y-81288649D01*
X128411276Y-81292166D01*
X128396958Y-81294290D01*
X128382500Y-81295000D01*
X128087500Y-81295000D01*
X128073042Y-81294290D01*
X128058724Y-81292166D01*
X128044683Y-81288649D01*
X128031054Y-81283772D01*
X128017969Y-81277583D01*
X128005553Y-81270142D01*
X127993927Y-81261519D01*
X127983202Y-81251798D01*
X127973481Y-81241073D01*
X127964858Y-81229447D01*
X127957417Y-81217031D01*
X127951228Y-81203946D01*
X127946351Y-81190317D01*
X127942834Y-81176276D01*
X127940710Y-81161958D01*
X127940000Y-81147500D01*
X127940000Y-80802500D01*
X127940710Y-80788042D01*
X127942834Y-80773724D01*
X127946351Y-80759683D01*
X127951228Y-80746054D01*
X127957417Y-80732969D01*
X127964858Y-80720553D01*
X127973481Y-80708927D01*
X127983202Y-80698202D01*
X127993927Y-80688481D01*
X128005553Y-80679858D01*
X128017969Y-80672417D01*
X128031054Y-80666228D01*
X128044683Y-80661351D01*
X128058724Y-80657834D01*
X128073042Y-80655710D01*
X128087500Y-80655000D01*
X128382500Y-80655000D01*
X128396958Y-80655710D01*
X128396958Y-80655710D01*
G37*
D19*
X128235000Y-80975000D03*
D18*
G36*
X128921958Y-88705710D02*
G01*
X128936276Y-88707834D01*
X128950317Y-88711351D01*
X128963946Y-88716228D01*
X128977031Y-88722417D01*
X128989447Y-88729858D01*
X129001073Y-88738481D01*
X129011798Y-88748202D01*
X129021519Y-88758927D01*
X129030142Y-88770553D01*
X129037583Y-88782969D01*
X129043772Y-88796054D01*
X129048649Y-88809683D01*
X129052166Y-88823724D01*
X129054290Y-88838042D01*
X129055000Y-88852500D01*
X129055000Y-89197500D01*
X129054290Y-89211958D01*
X129052166Y-89226276D01*
X129048649Y-89240317D01*
X129043772Y-89253946D01*
X129037583Y-89267031D01*
X129030142Y-89279447D01*
X129021519Y-89291073D01*
X129011798Y-89301798D01*
X129001073Y-89311519D01*
X128989447Y-89320142D01*
X128977031Y-89327583D01*
X128963946Y-89333772D01*
X128950317Y-89338649D01*
X128936276Y-89342166D01*
X128921958Y-89344290D01*
X128907500Y-89345000D01*
X128612500Y-89345000D01*
X128598042Y-89344290D01*
X128583724Y-89342166D01*
X128569683Y-89338649D01*
X128556054Y-89333772D01*
X128542969Y-89327583D01*
X128530553Y-89320142D01*
X128518927Y-89311519D01*
X128508202Y-89301798D01*
X128498481Y-89291073D01*
X128489858Y-89279447D01*
X128482417Y-89267031D01*
X128476228Y-89253946D01*
X128471351Y-89240317D01*
X128467834Y-89226276D01*
X128465710Y-89211958D01*
X128465000Y-89197500D01*
X128465000Y-88852500D01*
X128465710Y-88838042D01*
X128467834Y-88823724D01*
X128471351Y-88809683D01*
X128476228Y-88796054D01*
X128482417Y-88782969D01*
X128489858Y-88770553D01*
X128498481Y-88758927D01*
X128508202Y-88748202D01*
X128518927Y-88738481D01*
X128530553Y-88729858D01*
X128542969Y-88722417D01*
X128556054Y-88716228D01*
X128569683Y-88711351D01*
X128583724Y-88707834D01*
X128598042Y-88705710D01*
X128612500Y-88705000D01*
X128907500Y-88705000D01*
X128921958Y-88705710D01*
X128921958Y-88705710D01*
G37*
D19*
X128760000Y-89025000D03*
D18*
G36*
X127951958Y-88705710D02*
G01*
X127966276Y-88707834D01*
X127980317Y-88711351D01*
X127993946Y-88716228D01*
X128007031Y-88722417D01*
X128019447Y-88729858D01*
X128031073Y-88738481D01*
X128041798Y-88748202D01*
X128051519Y-88758927D01*
X128060142Y-88770553D01*
X128067583Y-88782969D01*
X128073772Y-88796054D01*
X128078649Y-88809683D01*
X128082166Y-88823724D01*
X128084290Y-88838042D01*
X128085000Y-88852500D01*
X128085000Y-89197500D01*
X128084290Y-89211958D01*
X128082166Y-89226276D01*
X128078649Y-89240317D01*
X128073772Y-89253946D01*
X128067583Y-89267031D01*
X128060142Y-89279447D01*
X128051519Y-89291073D01*
X128041798Y-89301798D01*
X128031073Y-89311519D01*
X128019447Y-89320142D01*
X128007031Y-89327583D01*
X127993946Y-89333772D01*
X127980317Y-89338649D01*
X127966276Y-89342166D01*
X127951958Y-89344290D01*
X127937500Y-89345000D01*
X127642500Y-89345000D01*
X127628042Y-89344290D01*
X127613724Y-89342166D01*
X127599683Y-89338649D01*
X127586054Y-89333772D01*
X127572969Y-89327583D01*
X127560553Y-89320142D01*
X127548927Y-89311519D01*
X127538202Y-89301798D01*
X127528481Y-89291073D01*
X127519858Y-89279447D01*
X127512417Y-89267031D01*
X127506228Y-89253946D01*
X127501351Y-89240317D01*
X127497834Y-89226276D01*
X127495710Y-89211958D01*
X127495000Y-89197500D01*
X127495000Y-88852500D01*
X127495710Y-88838042D01*
X127497834Y-88823724D01*
X127501351Y-88809683D01*
X127506228Y-88796054D01*
X127512417Y-88782969D01*
X127519858Y-88770553D01*
X127528481Y-88758927D01*
X127538202Y-88748202D01*
X127548927Y-88738481D01*
X127560553Y-88729858D01*
X127572969Y-88722417D01*
X127586054Y-88716228D01*
X127599683Y-88711351D01*
X127613724Y-88707834D01*
X127628042Y-88705710D01*
X127642500Y-88705000D01*
X127937500Y-88705000D01*
X127951958Y-88705710D01*
X127951958Y-88705710D01*
G37*
D19*
X127790000Y-89025000D03*
D18*
G36*
X128921958Y-84705710D02*
G01*
X128936276Y-84707834D01*
X128950317Y-84711351D01*
X128963946Y-84716228D01*
X128977031Y-84722417D01*
X128989447Y-84729858D01*
X129001073Y-84738481D01*
X129011798Y-84748202D01*
X129021519Y-84758927D01*
X129030142Y-84770553D01*
X129037583Y-84782969D01*
X129043772Y-84796054D01*
X129048649Y-84809683D01*
X129052166Y-84823724D01*
X129054290Y-84838042D01*
X129055000Y-84852500D01*
X129055000Y-85197500D01*
X129054290Y-85211958D01*
X129052166Y-85226276D01*
X129048649Y-85240317D01*
X129043772Y-85253946D01*
X129037583Y-85267031D01*
X129030142Y-85279447D01*
X129021519Y-85291073D01*
X129011798Y-85301798D01*
X129001073Y-85311519D01*
X128989447Y-85320142D01*
X128977031Y-85327583D01*
X128963946Y-85333772D01*
X128950317Y-85338649D01*
X128936276Y-85342166D01*
X128921958Y-85344290D01*
X128907500Y-85345000D01*
X128612500Y-85345000D01*
X128598042Y-85344290D01*
X128583724Y-85342166D01*
X128569683Y-85338649D01*
X128556054Y-85333772D01*
X128542969Y-85327583D01*
X128530553Y-85320142D01*
X128518927Y-85311519D01*
X128508202Y-85301798D01*
X128498481Y-85291073D01*
X128489858Y-85279447D01*
X128482417Y-85267031D01*
X128476228Y-85253946D01*
X128471351Y-85240317D01*
X128467834Y-85226276D01*
X128465710Y-85211958D01*
X128465000Y-85197500D01*
X128465000Y-84852500D01*
X128465710Y-84838042D01*
X128467834Y-84823724D01*
X128471351Y-84809683D01*
X128476228Y-84796054D01*
X128482417Y-84782969D01*
X128489858Y-84770553D01*
X128498481Y-84758927D01*
X128508202Y-84748202D01*
X128518927Y-84738481D01*
X128530553Y-84729858D01*
X128542969Y-84722417D01*
X128556054Y-84716228D01*
X128569683Y-84711351D01*
X128583724Y-84707834D01*
X128598042Y-84705710D01*
X128612500Y-84705000D01*
X128907500Y-84705000D01*
X128921958Y-84705710D01*
X128921958Y-84705710D01*
G37*
D19*
X128760000Y-85025000D03*
D18*
G36*
X127951958Y-84705710D02*
G01*
X127966276Y-84707834D01*
X127980317Y-84711351D01*
X127993946Y-84716228D01*
X128007031Y-84722417D01*
X128019447Y-84729858D01*
X128031073Y-84738481D01*
X128041798Y-84748202D01*
X128051519Y-84758927D01*
X128060142Y-84770553D01*
X128067583Y-84782969D01*
X128073772Y-84796054D01*
X128078649Y-84809683D01*
X128082166Y-84823724D01*
X128084290Y-84838042D01*
X128085000Y-84852500D01*
X128085000Y-85197500D01*
X128084290Y-85211958D01*
X128082166Y-85226276D01*
X128078649Y-85240317D01*
X128073772Y-85253946D01*
X128067583Y-85267031D01*
X128060142Y-85279447D01*
X128051519Y-85291073D01*
X128041798Y-85301798D01*
X128031073Y-85311519D01*
X128019447Y-85320142D01*
X128007031Y-85327583D01*
X127993946Y-85333772D01*
X127980317Y-85338649D01*
X127966276Y-85342166D01*
X127951958Y-85344290D01*
X127937500Y-85345000D01*
X127642500Y-85345000D01*
X127628042Y-85344290D01*
X127613724Y-85342166D01*
X127599683Y-85338649D01*
X127586054Y-85333772D01*
X127572969Y-85327583D01*
X127560553Y-85320142D01*
X127548927Y-85311519D01*
X127538202Y-85301798D01*
X127528481Y-85291073D01*
X127519858Y-85279447D01*
X127512417Y-85267031D01*
X127506228Y-85253946D01*
X127501351Y-85240317D01*
X127497834Y-85226276D01*
X127495710Y-85211958D01*
X127495000Y-85197500D01*
X127495000Y-84852500D01*
X127495710Y-84838042D01*
X127497834Y-84823724D01*
X127501351Y-84809683D01*
X127506228Y-84796054D01*
X127512417Y-84782969D01*
X127519858Y-84770553D01*
X127528481Y-84758927D01*
X127538202Y-84748202D01*
X127548927Y-84738481D01*
X127560553Y-84729858D01*
X127572969Y-84722417D01*
X127586054Y-84716228D01*
X127599683Y-84711351D01*
X127613724Y-84707834D01*
X127628042Y-84705710D01*
X127642500Y-84705000D01*
X127937500Y-84705000D01*
X127951958Y-84705710D01*
X127951958Y-84705710D01*
G37*
D19*
X127790000Y-85025000D03*
D18*
G36*
X128921958Y-86705710D02*
G01*
X128936276Y-86707834D01*
X128950317Y-86711351D01*
X128963946Y-86716228D01*
X128977031Y-86722417D01*
X128989447Y-86729858D01*
X129001073Y-86738481D01*
X129011798Y-86748202D01*
X129021519Y-86758927D01*
X129030142Y-86770553D01*
X129037583Y-86782969D01*
X129043772Y-86796054D01*
X129048649Y-86809683D01*
X129052166Y-86823724D01*
X129054290Y-86838042D01*
X129055000Y-86852500D01*
X129055000Y-87197500D01*
X129054290Y-87211958D01*
X129052166Y-87226276D01*
X129048649Y-87240317D01*
X129043772Y-87253946D01*
X129037583Y-87267031D01*
X129030142Y-87279447D01*
X129021519Y-87291073D01*
X129011798Y-87301798D01*
X129001073Y-87311519D01*
X128989447Y-87320142D01*
X128977031Y-87327583D01*
X128963946Y-87333772D01*
X128950317Y-87338649D01*
X128936276Y-87342166D01*
X128921958Y-87344290D01*
X128907500Y-87345000D01*
X128612500Y-87345000D01*
X128598042Y-87344290D01*
X128583724Y-87342166D01*
X128569683Y-87338649D01*
X128556054Y-87333772D01*
X128542969Y-87327583D01*
X128530553Y-87320142D01*
X128518927Y-87311519D01*
X128508202Y-87301798D01*
X128498481Y-87291073D01*
X128489858Y-87279447D01*
X128482417Y-87267031D01*
X128476228Y-87253946D01*
X128471351Y-87240317D01*
X128467834Y-87226276D01*
X128465710Y-87211958D01*
X128465000Y-87197500D01*
X128465000Y-86852500D01*
X128465710Y-86838042D01*
X128467834Y-86823724D01*
X128471351Y-86809683D01*
X128476228Y-86796054D01*
X128482417Y-86782969D01*
X128489858Y-86770553D01*
X128498481Y-86758927D01*
X128508202Y-86748202D01*
X128518927Y-86738481D01*
X128530553Y-86729858D01*
X128542969Y-86722417D01*
X128556054Y-86716228D01*
X128569683Y-86711351D01*
X128583724Y-86707834D01*
X128598042Y-86705710D01*
X128612500Y-86705000D01*
X128907500Y-86705000D01*
X128921958Y-86705710D01*
X128921958Y-86705710D01*
G37*
D19*
X128760000Y-87025000D03*
D18*
G36*
X127951958Y-86705710D02*
G01*
X127966276Y-86707834D01*
X127980317Y-86711351D01*
X127993946Y-86716228D01*
X128007031Y-86722417D01*
X128019447Y-86729858D01*
X128031073Y-86738481D01*
X128041798Y-86748202D01*
X128051519Y-86758927D01*
X128060142Y-86770553D01*
X128067583Y-86782969D01*
X128073772Y-86796054D01*
X128078649Y-86809683D01*
X128082166Y-86823724D01*
X128084290Y-86838042D01*
X128085000Y-86852500D01*
X128085000Y-87197500D01*
X128084290Y-87211958D01*
X128082166Y-87226276D01*
X128078649Y-87240317D01*
X128073772Y-87253946D01*
X128067583Y-87267031D01*
X128060142Y-87279447D01*
X128051519Y-87291073D01*
X128041798Y-87301798D01*
X128031073Y-87311519D01*
X128019447Y-87320142D01*
X128007031Y-87327583D01*
X127993946Y-87333772D01*
X127980317Y-87338649D01*
X127966276Y-87342166D01*
X127951958Y-87344290D01*
X127937500Y-87345000D01*
X127642500Y-87345000D01*
X127628042Y-87344290D01*
X127613724Y-87342166D01*
X127599683Y-87338649D01*
X127586054Y-87333772D01*
X127572969Y-87327583D01*
X127560553Y-87320142D01*
X127548927Y-87311519D01*
X127538202Y-87301798D01*
X127528481Y-87291073D01*
X127519858Y-87279447D01*
X127512417Y-87267031D01*
X127506228Y-87253946D01*
X127501351Y-87240317D01*
X127497834Y-87226276D01*
X127495710Y-87211958D01*
X127495000Y-87197500D01*
X127495000Y-86852500D01*
X127495710Y-86838042D01*
X127497834Y-86823724D01*
X127501351Y-86809683D01*
X127506228Y-86796054D01*
X127512417Y-86782969D01*
X127519858Y-86770553D01*
X127528481Y-86758927D01*
X127538202Y-86748202D01*
X127548927Y-86738481D01*
X127560553Y-86729858D01*
X127572969Y-86722417D01*
X127586054Y-86716228D01*
X127599683Y-86711351D01*
X127613724Y-86707834D01*
X127628042Y-86705710D01*
X127642500Y-86705000D01*
X127937500Y-86705000D01*
X127951958Y-86705710D01*
X127951958Y-86705710D01*
G37*
D19*
X127790000Y-87025000D03*
D18*
G36*
X128921958Y-85705710D02*
G01*
X128936276Y-85707834D01*
X128950317Y-85711351D01*
X128963946Y-85716228D01*
X128977031Y-85722417D01*
X128989447Y-85729858D01*
X129001073Y-85738481D01*
X129011798Y-85748202D01*
X129021519Y-85758927D01*
X129030142Y-85770553D01*
X129037583Y-85782969D01*
X129043772Y-85796054D01*
X129048649Y-85809683D01*
X129052166Y-85823724D01*
X129054290Y-85838042D01*
X129055000Y-85852500D01*
X129055000Y-86197500D01*
X129054290Y-86211958D01*
X129052166Y-86226276D01*
X129048649Y-86240317D01*
X129043772Y-86253946D01*
X129037583Y-86267031D01*
X129030142Y-86279447D01*
X129021519Y-86291073D01*
X129011798Y-86301798D01*
X129001073Y-86311519D01*
X128989447Y-86320142D01*
X128977031Y-86327583D01*
X128963946Y-86333772D01*
X128950317Y-86338649D01*
X128936276Y-86342166D01*
X128921958Y-86344290D01*
X128907500Y-86345000D01*
X128612500Y-86345000D01*
X128598042Y-86344290D01*
X128583724Y-86342166D01*
X128569683Y-86338649D01*
X128556054Y-86333772D01*
X128542969Y-86327583D01*
X128530553Y-86320142D01*
X128518927Y-86311519D01*
X128508202Y-86301798D01*
X128498481Y-86291073D01*
X128489858Y-86279447D01*
X128482417Y-86267031D01*
X128476228Y-86253946D01*
X128471351Y-86240317D01*
X128467834Y-86226276D01*
X128465710Y-86211958D01*
X128465000Y-86197500D01*
X128465000Y-85852500D01*
X128465710Y-85838042D01*
X128467834Y-85823724D01*
X128471351Y-85809683D01*
X128476228Y-85796054D01*
X128482417Y-85782969D01*
X128489858Y-85770553D01*
X128498481Y-85758927D01*
X128508202Y-85748202D01*
X128518927Y-85738481D01*
X128530553Y-85729858D01*
X128542969Y-85722417D01*
X128556054Y-85716228D01*
X128569683Y-85711351D01*
X128583724Y-85707834D01*
X128598042Y-85705710D01*
X128612500Y-85705000D01*
X128907500Y-85705000D01*
X128921958Y-85705710D01*
X128921958Y-85705710D01*
G37*
D19*
X128760000Y-86025000D03*
D18*
G36*
X127951958Y-85705710D02*
G01*
X127966276Y-85707834D01*
X127980317Y-85711351D01*
X127993946Y-85716228D01*
X128007031Y-85722417D01*
X128019447Y-85729858D01*
X128031073Y-85738481D01*
X128041798Y-85748202D01*
X128051519Y-85758927D01*
X128060142Y-85770553D01*
X128067583Y-85782969D01*
X128073772Y-85796054D01*
X128078649Y-85809683D01*
X128082166Y-85823724D01*
X128084290Y-85838042D01*
X128085000Y-85852500D01*
X128085000Y-86197500D01*
X128084290Y-86211958D01*
X128082166Y-86226276D01*
X128078649Y-86240317D01*
X128073772Y-86253946D01*
X128067583Y-86267031D01*
X128060142Y-86279447D01*
X128051519Y-86291073D01*
X128041798Y-86301798D01*
X128031073Y-86311519D01*
X128019447Y-86320142D01*
X128007031Y-86327583D01*
X127993946Y-86333772D01*
X127980317Y-86338649D01*
X127966276Y-86342166D01*
X127951958Y-86344290D01*
X127937500Y-86345000D01*
X127642500Y-86345000D01*
X127628042Y-86344290D01*
X127613724Y-86342166D01*
X127599683Y-86338649D01*
X127586054Y-86333772D01*
X127572969Y-86327583D01*
X127560553Y-86320142D01*
X127548927Y-86311519D01*
X127538202Y-86301798D01*
X127528481Y-86291073D01*
X127519858Y-86279447D01*
X127512417Y-86267031D01*
X127506228Y-86253946D01*
X127501351Y-86240317D01*
X127497834Y-86226276D01*
X127495710Y-86211958D01*
X127495000Y-86197500D01*
X127495000Y-85852500D01*
X127495710Y-85838042D01*
X127497834Y-85823724D01*
X127501351Y-85809683D01*
X127506228Y-85796054D01*
X127512417Y-85782969D01*
X127519858Y-85770553D01*
X127528481Y-85758927D01*
X127538202Y-85748202D01*
X127548927Y-85738481D01*
X127560553Y-85729858D01*
X127572969Y-85722417D01*
X127586054Y-85716228D01*
X127599683Y-85711351D01*
X127613724Y-85707834D01*
X127628042Y-85705710D01*
X127642500Y-85705000D01*
X127937500Y-85705000D01*
X127951958Y-85705710D01*
X127951958Y-85705710D01*
G37*
D19*
X127790000Y-86025000D03*
D20*
X99260000Y-84690000D03*
X97830000Y-84670000D03*
D21*
X94070000Y-82520000D03*
D20*
X117900000Y-82200000D03*
X116300000Y-82200000D03*
X110350000Y-82700000D03*
X110350000Y-87300000D03*
X105750000Y-87300000D03*
X156504168Y-84150000D03*
X146450000Y-88400000D03*
X147200000Y-88400000D03*
X147950000Y-88400000D03*
X148700000Y-88400000D03*
X142300000Y-85050000D03*
X136950000Y-85300000D03*
X119875000Y-89300000D03*
X105755086Y-82731010D03*
X112750000Y-84800000D03*
X129500000Y-87000000D03*
D21*
X140650000Y-86775000D03*
X96240000Y-81310000D03*
D20*
X91129245Y-82604245D03*
X100210000Y-81340000D03*
X96220000Y-87560000D03*
X92870000Y-85010000D03*
X134060000Y-88280000D03*
D21*
X126750000Y-83470002D03*
D20*
X114800000Y-84099996D03*
X119825000Y-85525000D03*
D21*
X137300000Y-82170000D03*
X136500000Y-82170000D03*
X135700000Y-82170000D03*
X134900000Y-82170000D03*
X136500000Y-82930979D03*
X134900000Y-82930979D03*
X137300000Y-82930979D03*
D20*
X117900000Y-84900000D03*
X118586802Y-84887682D03*
D21*
X86710000Y-86960000D03*
X85860000Y-87140000D03*
X86650000Y-83050000D03*
X85910000Y-82730000D03*
X85910000Y-83590000D03*
X89350000Y-82800000D03*
X90200000Y-82750000D03*
X89340000Y-87300000D03*
X84140000Y-82710000D03*
X85040000Y-82710000D03*
X84140000Y-83610000D03*
X85040000Y-83610000D03*
X84140000Y-84510000D03*
X85040000Y-84510000D03*
X84140000Y-85410000D03*
X85040000Y-85410000D03*
X84140000Y-86310000D03*
X85040000Y-86310000D03*
X84140000Y-87210000D03*
X85040000Y-87210000D03*
D20*
X130860000Y-87900000D03*
D21*
X135700000Y-82930979D03*
D20*
X120650000Y-85625000D03*
X100440000Y-83210000D03*
X101490000Y-88320000D03*
X155200000Y-87400000D03*
X142262500Y-88900000D03*
X116925000Y-89050000D03*
X115550000Y-89175000D03*
X112075000Y-88500000D03*
X106850000Y-80837052D03*
X101700000Y-87450000D03*
D21*
X123314163Y-83964163D03*
X123400000Y-85675000D03*
D20*
X117000000Y-84950000D03*
D21*
X99070000Y-81330000D03*
D20*
X101640000Y-84160000D03*
D21*
X122575000Y-81713473D03*
X140300000Y-85174010D03*
X130640000Y-88840002D03*
D20*
X120355931Y-81248990D03*
X118970626Y-81248990D03*
X119671581Y-81248990D03*
X97330000Y-88320000D03*
X103240000Y-86100000D03*
X95290000Y-84090000D03*
X89820000Y-83810000D03*
X109800000Y-89350000D03*
X115600000Y-87264021D03*
X119650000Y-86600000D03*
X130269990Y-87430509D03*
X130123424Y-80653152D03*
X135010002Y-88310000D03*
X104680000Y-80850000D03*
X154800000Y-81650000D03*
X103360000Y-81210000D03*
X153850000Y-81029000D03*
X134534782Y-81029010D03*
X103596593Y-82935791D03*
D21*
X86810000Y-84730000D03*
X86320000Y-85890000D03*
D20*
X90710000Y-84525000D03*
X90334124Y-88535876D03*
X90710000Y-85475000D03*
X91005876Y-87864124D03*
X113237705Y-84176000D03*
X132080000Y-81350000D03*
X121290000Y-81231010D03*
X103630000Y-82150000D03*
D22*
X128760000Y-89025000D02*
X128760000Y-87025000D01*
X128760000Y-87025000D02*
X129475000Y-87025000D01*
X129475000Y-87025000D02*
X129500000Y-87000000D01*
D23*
X126250000Y-84680000D02*
X126750000Y-84180000D01*
X126750000Y-83964976D02*
X126750000Y-83470002D01*
X126750000Y-84180000D02*
X126750000Y-83964976D01*
X125000000Y-84680000D02*
X126250000Y-84680000D01*
D22*
X129700000Y-81050000D02*
X128998990Y-80348990D01*
X128998990Y-80348990D02*
X126751010Y-80348990D01*
X128760000Y-86025000D02*
X128760000Y-85025000D01*
X129700000Y-84085000D02*
X128760000Y-85025000D01*
X129700000Y-81050000D02*
X129700000Y-84085000D01*
X115474267Y-84349999D02*
X115224264Y-84099996D01*
X115224264Y-84099996D02*
X114800000Y-84099996D01*
X126950000Y-80350000D02*
X122950000Y-80350000D01*
X122950000Y-80350000D02*
X118950001Y-84349999D01*
X118950001Y-84349999D02*
X115474267Y-84349999D01*
X126575000Y-87240000D02*
X127790000Y-86025000D01*
X125000000Y-87240000D02*
X126575000Y-87240000D01*
X119825000Y-85800000D02*
X119825000Y-85525000D01*
X122231001Y-86156001D02*
X120181001Y-86156001D01*
X120181001Y-86156001D02*
X119825000Y-85800000D01*
X125000000Y-87240000D02*
X123315000Y-87240000D01*
X123315000Y-87240000D02*
X122231001Y-86156001D01*
X126935000Y-87880000D02*
X127790000Y-87025000D01*
X125000000Y-87880000D02*
X126935000Y-87880000D01*
X126215000Y-86600000D02*
X127790000Y-85025000D01*
X125000000Y-86600000D02*
X126215000Y-86600000D01*
X123300000Y-86600000D02*
X122325000Y-85625000D01*
X125000000Y-86600000D02*
X123300000Y-86600000D01*
X122325000Y-85625000D02*
X121074264Y-85625000D01*
X121074264Y-85625000D02*
X120650000Y-85625000D01*
D24*
X103860000Y-86444974D02*
X101984974Y-88320000D01*
X103860000Y-85450000D02*
X103860000Y-86444974D01*
X101984974Y-88320000D02*
X101490000Y-88320000D01*
X100440000Y-83210000D02*
X101620000Y-83210000D01*
X101620000Y-83210000D02*
X103860000Y-85450000D01*
D23*
X155200000Y-87400000D02*
X155200000Y-88350000D01*
X155200000Y-88350000D02*
X154550000Y-89000000D01*
X138425000Y-86075000D02*
X142575000Y-86075000D01*
X142575000Y-86554000D02*
X142250000Y-86879000D01*
X142575000Y-86075000D02*
X142575000Y-86554000D01*
X142250000Y-86879000D02*
X142250000Y-88900000D01*
X155371000Y-87075000D02*
X155250000Y-87196000D01*
X155850000Y-87075000D02*
X155371000Y-87075000D01*
X155250000Y-87196000D02*
X155250000Y-87350000D01*
X155250000Y-87350000D02*
X155200000Y-87300000D01*
X155850000Y-86396000D02*
X155850000Y-82925000D01*
X155850000Y-87075000D02*
X155850000Y-86396000D01*
X154550000Y-89000000D02*
X142350000Y-89000000D01*
X142350000Y-89000000D02*
X142250000Y-88900000D01*
X138425000Y-86075000D02*
X138075000Y-86075000D01*
X125000000Y-83400000D02*
X123750000Y-83400000D01*
X123750000Y-83400000D02*
X123625000Y-83400000D01*
X125000000Y-85320000D02*
X123630000Y-85320000D01*
X123630000Y-85320000D02*
X123625000Y-85325000D01*
X138425000Y-86075000D02*
X139399010Y-86075000D01*
X139399010Y-86075000D02*
X140300000Y-85174010D01*
X131134974Y-88840002D02*
X130640000Y-88840002D01*
X131440962Y-89145990D02*
X131134974Y-88840002D01*
X135925940Y-89145990D02*
X131440962Y-89145990D01*
X142262500Y-88900000D02*
X136171930Y-88900000D01*
X136171930Y-88900000D02*
X135925940Y-89145990D01*
D24*
X99550000Y-86100000D02*
X97330000Y-88320000D01*
X103240000Y-86100000D02*
X99550000Y-86100000D01*
D22*
X95290000Y-84090000D02*
X92660000Y-84090000D01*
X92660000Y-84090000D02*
X92380000Y-83810000D01*
X92380000Y-83810000D02*
X89820000Y-83810000D01*
X138425000Y-83925000D02*
X142575000Y-83925000D01*
X111885979Y-87264021D02*
X115175736Y-87264021D01*
X115175736Y-87264021D02*
X115600000Y-87264021D01*
X109800000Y-89350000D02*
X111885979Y-87264021D01*
D23*
X127130000Y-80840000D02*
X127265000Y-80975000D01*
X125000000Y-80840000D02*
X127130000Y-80840000D01*
X127900832Y-81309168D02*
X128235000Y-80975000D01*
X127635990Y-81574010D02*
X127900832Y-81309168D01*
X126344010Y-81574010D02*
X127635990Y-81574010D01*
X126250000Y-81480000D02*
X126344010Y-81574010D01*
X125000000Y-81480000D02*
X126250000Y-81480000D01*
X127160000Y-82120000D02*
X127240000Y-82200000D01*
X125000000Y-82120000D02*
X127160000Y-82120000D01*
X126250000Y-82760000D02*
X125000000Y-82760000D01*
X127610990Y-82799010D02*
X126289010Y-82799010D01*
X126289010Y-82799010D02*
X126250000Y-82760000D01*
X128210000Y-82200000D02*
X127610990Y-82799010D01*
D22*
X127295000Y-88520000D02*
X127790000Y-88025000D01*
X125000000Y-88520000D02*
X127295000Y-88520000D01*
X127655000Y-89160000D02*
X127790000Y-89025000D01*
X125000000Y-89160000D02*
X127655000Y-89160000D01*
X130269990Y-87898927D02*
X130269990Y-87854773D01*
X121715118Y-87850000D02*
X123476128Y-89611010D01*
X119650000Y-86600000D02*
X120900000Y-87850000D01*
X130269990Y-87854773D02*
X130269990Y-87430509D01*
X130058998Y-88601118D02*
X130058998Y-88109919D01*
X123476128Y-89611010D02*
X129049106Y-89611010D01*
X130058998Y-88109919D02*
X130269990Y-87898927D01*
X129049106Y-89611010D02*
X130058998Y-88601118D01*
X120900000Y-87850000D02*
X121715118Y-87850000D01*
X134910000Y-88209998D02*
X135010002Y-88310000D01*
X130123424Y-80653152D02*
X134910000Y-85439728D01*
X134910000Y-85439728D02*
X134910000Y-88209998D01*
X153700000Y-86396000D02*
X153700000Y-82925000D01*
X153700000Y-87075000D02*
X153700000Y-86396000D01*
X153850000Y-82775000D02*
X153700000Y-82925000D01*
X153850000Y-81029000D02*
X153850000Y-82775000D01*
X86320000Y-85200000D02*
X86320000Y-85890000D01*
X86810000Y-84730000D02*
X86790000Y-84730000D01*
X86790000Y-84730000D02*
X86320000Y-85200000D01*
X90070000Y-85270000D02*
X90070000Y-87885672D01*
X90070000Y-87885672D02*
X90334124Y-88149796D01*
X90437000Y-84903000D02*
X90070000Y-85270000D01*
X90334124Y-88149796D02*
X90334124Y-88535876D01*
X90710000Y-84525000D02*
X90437000Y-84798000D01*
X90437000Y-84798000D02*
X90437000Y-84903000D01*
X90390000Y-87634328D02*
X90619796Y-87864124D01*
X90710000Y-85475000D02*
X90390000Y-85795000D01*
X90619796Y-87864124D02*
X91005876Y-87864124D01*
X90390000Y-85795000D02*
X90390000Y-87634328D01*
X134655000Y-83925000D02*
X132080000Y-81350000D01*
X138425000Y-83925000D02*
X134655000Y-83925000D01*
X120990001Y-81531009D02*
X121290000Y-81231010D01*
X119391010Y-83130000D02*
X120990001Y-81531009D01*
X114283705Y-83130000D02*
X119391010Y-83130000D01*
X113237705Y-84176000D02*
X114283705Y-83130000D01*
D25*
G36*
X104076506Y-80527426D02*
G01*
X104025171Y-80651360D01*
X103999000Y-80782927D01*
X103999000Y-80917073D01*
X104025171Y-81048640D01*
X104076506Y-81172574D01*
X104151033Y-81284112D01*
X104245888Y-81378967D01*
X104357426Y-81453494D01*
X104481360Y-81504829D01*
X104612927Y-81531000D01*
X104747073Y-81531000D01*
X104878640Y-81504829D01*
X105002574Y-81453494D01*
X105114112Y-81378967D01*
X105208967Y-81284112D01*
X105283494Y-81172574D01*
X105334829Y-81048640D01*
X105361000Y-80917073D01*
X105361000Y-80782927D01*
X105334829Y-80651360D01*
X105283494Y-80527426D01*
X105235769Y-80456000D01*
X122196290Y-80456000D01*
X121833557Y-80818733D01*
X121818967Y-80796898D01*
X121724112Y-80702043D01*
X121612574Y-80627516D01*
X121488640Y-80576181D01*
X121357073Y-80550010D01*
X121222927Y-80550010D01*
X121091360Y-80576181D01*
X120967426Y-80627516D01*
X120855888Y-80702043D01*
X120761033Y-80796898D01*
X120686506Y-80908436D01*
X120635171Y-81032370D01*
X120609000Y-81163937D01*
X120609000Y-81264300D01*
X119201301Y-82672000D01*
X118391079Y-82672000D01*
X118428967Y-82634112D01*
X118503494Y-82522574D01*
X118554829Y-82398640D01*
X118581000Y-82267073D01*
X118581000Y-82132927D01*
X118554829Y-82001360D01*
X118503494Y-81877426D01*
X118428967Y-81765888D01*
X118334112Y-81671033D01*
X118222574Y-81596506D01*
X118098640Y-81545171D01*
X117967073Y-81519000D01*
X117832927Y-81519000D01*
X117701360Y-81545171D01*
X117577426Y-81596506D01*
X117465888Y-81671033D01*
X117371033Y-81765888D01*
X117296506Y-81877426D01*
X117245171Y-82001360D01*
X117219000Y-82132927D01*
X117219000Y-82267073D01*
X117245171Y-82398640D01*
X117296506Y-82522574D01*
X117371033Y-82634112D01*
X117408921Y-82672000D01*
X116791079Y-82672000D01*
X116828967Y-82634112D01*
X116903494Y-82522574D01*
X116954829Y-82398640D01*
X116981000Y-82267073D01*
X116981000Y-82132927D01*
X116954829Y-82001360D01*
X116903494Y-81877426D01*
X116828967Y-81765888D01*
X116734112Y-81671033D01*
X116622574Y-81596506D01*
X116498640Y-81545171D01*
X116367073Y-81519000D01*
X116232927Y-81519000D01*
X116101360Y-81545171D01*
X115977426Y-81596506D01*
X115865888Y-81671033D01*
X115771033Y-81765888D01*
X115696506Y-81877426D01*
X115645171Y-82001360D01*
X115619000Y-82132927D01*
X115619000Y-82267073D01*
X115645171Y-82398640D01*
X115696506Y-82522574D01*
X115771033Y-82634112D01*
X115808921Y-82672000D01*
X114306193Y-82672000D01*
X114283704Y-82669785D01*
X114261215Y-82672000D01*
X114261206Y-82672000D01*
X114193921Y-82678627D01*
X114107588Y-82704816D01*
X114028023Y-82747344D01*
X113958283Y-82804578D01*
X113943936Y-82822060D01*
X113270996Y-83495000D01*
X113170632Y-83495000D01*
X113039065Y-83521171D01*
X112915131Y-83572506D01*
X112803593Y-83647033D01*
X112708738Y-83741888D01*
X112634211Y-83853426D01*
X112582876Y-83977360D01*
X112556705Y-84108927D01*
X112556705Y-84144108D01*
X112551360Y-84145171D01*
X112427426Y-84196506D01*
X112315888Y-84271033D01*
X112221033Y-84365888D01*
X112146506Y-84477426D01*
X112095171Y-84601360D01*
X112069000Y-84732927D01*
X112069000Y-84867073D01*
X112095171Y-84998640D01*
X112146506Y-85122574D01*
X112221033Y-85234112D01*
X112315888Y-85328967D01*
X112427426Y-85403494D01*
X112551360Y-85454829D01*
X112682927Y-85481000D01*
X112817073Y-85481000D01*
X112948640Y-85454829D01*
X113072574Y-85403494D01*
X113184112Y-85328967D01*
X113278967Y-85234112D01*
X113353494Y-85122574D01*
X113404829Y-84998640D01*
X113431000Y-84867073D01*
X113431000Y-84831892D01*
X113436345Y-84830829D01*
X113560279Y-84779494D01*
X113671817Y-84704967D01*
X113766672Y-84610112D01*
X113841199Y-84498574D01*
X113892534Y-84374640D01*
X113918705Y-84243073D01*
X113918705Y-84142709D01*
X114141474Y-83919940D01*
X114119000Y-84032923D01*
X114119000Y-84167069D01*
X114145171Y-84298636D01*
X114196506Y-84422570D01*
X114271033Y-84534108D01*
X114365888Y-84628963D01*
X114477426Y-84703490D01*
X114601360Y-84754825D01*
X114732927Y-84780996D01*
X114867073Y-84780996D01*
X114998640Y-84754825D01*
X115122574Y-84703490D01*
X115155908Y-84681217D01*
X115218585Y-84732655D01*
X115290324Y-84771000D01*
X115298150Y-84775183D01*
X115384483Y-84801372D01*
X115474267Y-84810215D01*
X115496766Y-84807999D01*
X117223959Y-84807999D01*
X117219000Y-84832927D01*
X117219000Y-84967073D01*
X117245171Y-85098640D01*
X117296506Y-85222574D01*
X117371033Y-85334112D01*
X117465888Y-85428967D01*
X117577426Y-85503494D01*
X117701360Y-85554829D01*
X117832927Y-85581000D01*
X117967073Y-85581000D01*
X118098640Y-85554829D01*
X118222574Y-85503494D01*
X118252619Y-85483419D01*
X118264228Y-85491176D01*
X118388162Y-85542511D01*
X118519729Y-85568682D01*
X118653875Y-85568682D01*
X118785442Y-85542511D01*
X118909376Y-85491176D01*
X119020914Y-85416649D01*
X119115769Y-85321794D01*
X119190296Y-85210256D01*
X119241631Y-85086322D01*
X119267802Y-84954755D01*
X119267802Y-84820609D01*
X119244044Y-84701173D01*
X119275423Y-84675421D01*
X119289770Y-84657939D01*
X123139710Y-80808000D01*
X123617157Y-80808000D01*
X123617157Y-81000000D01*
X123624513Y-81074689D01*
X123646299Y-81146508D01*
X123653511Y-81160000D01*
X123646299Y-81173492D01*
X123624513Y-81245311D01*
X123617157Y-81320000D01*
X123617157Y-81640000D01*
X123624513Y-81714689D01*
X123646299Y-81786508D01*
X123653511Y-81800000D01*
X123646299Y-81813492D01*
X123624513Y-81885311D01*
X123617157Y-81960000D01*
X123617157Y-82280000D01*
X123624513Y-82354689D01*
X123646299Y-82426508D01*
X123653511Y-82440000D01*
X123646299Y-82453492D01*
X123624513Y-82525311D01*
X123617157Y-82600000D01*
X123617157Y-82920000D01*
X123624513Y-82994689D01*
X123646299Y-83066508D01*
X123681678Y-83132696D01*
X123729289Y-83190711D01*
X123787304Y-83238322D01*
X123853492Y-83273701D01*
X123925311Y-83295487D01*
X124000000Y-83302843D01*
X124473000Y-83302843D01*
X124473000Y-83497157D01*
X124000000Y-83497157D01*
X123925311Y-83504513D01*
X123853492Y-83526299D01*
X123787304Y-83561678D01*
X123729289Y-83609289D01*
X123681678Y-83667304D01*
X123646299Y-83733492D01*
X123624513Y-83805311D01*
X123617157Y-83880000D01*
X123617157Y-84200000D01*
X123624513Y-84274689D01*
X123646299Y-84346508D01*
X123653511Y-84360000D01*
X123646299Y-84373492D01*
X123624513Y-84445311D01*
X123617157Y-84520000D01*
X123617157Y-84840000D01*
X123624513Y-84914689D01*
X123646299Y-84986508D01*
X123681678Y-85052696D01*
X123729289Y-85110711D01*
X123787304Y-85158322D01*
X123853492Y-85193701D01*
X123925311Y-85215487D01*
X124000000Y-85222843D01*
X124473000Y-85222843D01*
X124473000Y-85417157D01*
X124000000Y-85417157D01*
X123925311Y-85424513D01*
X123853492Y-85446299D01*
X123787304Y-85481678D01*
X123729289Y-85529289D01*
X123681678Y-85587304D01*
X123646299Y-85653492D01*
X123624513Y-85725311D01*
X123617157Y-85800000D01*
X123617157Y-86120000D01*
X123619324Y-86142000D01*
X123489709Y-86142000D01*
X122664769Y-85317060D01*
X122650422Y-85299578D01*
X122580682Y-85242344D01*
X122501117Y-85199816D01*
X122414784Y-85173627D01*
X122347499Y-85167000D01*
X122325000Y-85164784D01*
X122302501Y-85167000D01*
X121155079Y-85167000D01*
X121084112Y-85096033D01*
X120972574Y-85021506D01*
X120848640Y-84970171D01*
X120717073Y-84944000D01*
X120582927Y-84944000D01*
X120451360Y-84970171D01*
X120327426Y-85021506D01*
X120301745Y-85038666D01*
X120259112Y-84996033D01*
X120147574Y-84921506D01*
X120023640Y-84870171D01*
X119892073Y-84844000D01*
X119757927Y-84844000D01*
X119626360Y-84870171D01*
X119502426Y-84921506D01*
X119390888Y-84996033D01*
X119296033Y-85090888D01*
X119221506Y-85202426D01*
X119170171Y-85326360D01*
X119144000Y-85457927D01*
X119144000Y-85592073D01*
X119170171Y-85723640D01*
X119221506Y-85847574D01*
X119296033Y-85959112D01*
X119331669Y-85994748D01*
X119327426Y-85996506D01*
X119215888Y-86071033D01*
X119121033Y-86165888D01*
X119046506Y-86277426D01*
X118995171Y-86401360D01*
X118969000Y-86532927D01*
X118969000Y-86667073D01*
X118995171Y-86798640D01*
X119046506Y-86922574D01*
X119121033Y-87034112D01*
X119215888Y-87128967D01*
X119327426Y-87203494D01*
X119451360Y-87254829D01*
X119582927Y-87281000D01*
X119683291Y-87281000D01*
X120560235Y-88157945D01*
X120574578Y-88175422D01*
X120644318Y-88232656D01*
X120659929Y-88241000D01*
X120723883Y-88275184D01*
X120810215Y-88301373D01*
X120900000Y-88310216D01*
X120922499Y-88308000D01*
X121014454Y-88308000D01*
X121008010Y-88312306D01*
X120886306Y-88434010D01*
X120790684Y-88577119D01*
X120724818Y-88736134D01*
X120691240Y-88904942D01*
X120691240Y-89077058D01*
X120724818Y-89245866D01*
X120790684Y-89404881D01*
X120883640Y-89544000D01*
X120511040Y-89544000D01*
X120529829Y-89498640D01*
X120556000Y-89367073D01*
X120556000Y-89232927D01*
X120529829Y-89101360D01*
X120478494Y-88977426D01*
X120403967Y-88865888D01*
X120309112Y-88771033D01*
X120197574Y-88696506D01*
X120073640Y-88645171D01*
X119942073Y-88619000D01*
X119807927Y-88619000D01*
X119676360Y-88645171D01*
X119552426Y-88696506D01*
X119440888Y-88771033D01*
X119346033Y-88865888D01*
X119271506Y-88977426D01*
X119220171Y-89101360D01*
X119194000Y-89232927D01*
X119194000Y-89367073D01*
X119220171Y-89498640D01*
X119238960Y-89544000D01*
X110455752Y-89544000D01*
X110481000Y-89417073D01*
X110481000Y-89316709D01*
X112075689Y-87722021D01*
X115094921Y-87722021D01*
X115165888Y-87792988D01*
X115277426Y-87867515D01*
X115401360Y-87918850D01*
X115532927Y-87945021D01*
X115609970Y-87945021D01*
X115609970Y-88061183D01*
X115643597Y-88230237D01*
X115709558Y-88389482D01*
X115805320Y-88532799D01*
X115927201Y-88654680D01*
X116070518Y-88750442D01*
X116229763Y-88816403D01*
X116398817Y-88850030D01*
X116571183Y-88850030D01*
X116740237Y-88816403D01*
X116899482Y-88750442D01*
X117042799Y-88654680D01*
X117164680Y-88532799D01*
X117260442Y-88389482D01*
X117326403Y-88230237D01*
X117360030Y-88061183D01*
X117360030Y-87888817D01*
X117326403Y-87719763D01*
X117260442Y-87560518D01*
X117164680Y-87417201D01*
X117042799Y-87295320D01*
X116899482Y-87199558D01*
X116740237Y-87133597D01*
X116571183Y-87099970D01*
X116398817Y-87099970D01*
X116266928Y-87126204D01*
X116254829Y-87065381D01*
X116203494Y-86941447D01*
X116128967Y-86829909D01*
X116034112Y-86735054D01*
X115922574Y-86660527D01*
X115798640Y-86609192D01*
X115667073Y-86583021D01*
X115532927Y-86583021D01*
X115401360Y-86609192D01*
X115277426Y-86660527D01*
X115165888Y-86735054D01*
X115094921Y-86806021D01*
X111908478Y-86806021D01*
X111885979Y-86803805D01*
X111796194Y-86812648D01*
X111739293Y-86829909D01*
X111709862Y-86838837D01*
X111630297Y-86881365D01*
X111560557Y-86938599D01*
X111546214Y-86956076D01*
X111005122Y-87497169D01*
X111031000Y-87367073D01*
X111031000Y-87232927D01*
X111004829Y-87101360D01*
X110953494Y-86977426D01*
X110878967Y-86865888D01*
X110784112Y-86771033D01*
X110672574Y-86696506D01*
X110548640Y-86645171D01*
X110417073Y-86619000D01*
X110282927Y-86619000D01*
X110151360Y-86645171D01*
X110027426Y-86696506D01*
X109915888Y-86771033D01*
X109821033Y-86865888D01*
X109746506Y-86977426D01*
X109695171Y-87101360D01*
X109669000Y-87232927D01*
X109669000Y-87367073D01*
X109695171Y-87498640D01*
X109746506Y-87622574D01*
X109821033Y-87734112D01*
X109915888Y-87828967D01*
X110027426Y-87903494D01*
X110151360Y-87954829D01*
X110282927Y-87981000D01*
X110417073Y-87981000D01*
X110547169Y-87955122D01*
X109833291Y-88669000D01*
X109732927Y-88669000D01*
X109601360Y-88695171D01*
X109477426Y-88746506D01*
X109365888Y-88821033D01*
X109271033Y-88915888D01*
X109196506Y-89027426D01*
X109145171Y-89151360D01*
X109119000Y-89282927D01*
X109119000Y-89417073D01*
X109144248Y-89544000D01*
X93652000Y-89544000D01*
X93652000Y-87492927D01*
X95539000Y-87492927D01*
X95539000Y-87627073D01*
X95565171Y-87758640D01*
X95616506Y-87882574D01*
X95691033Y-87994112D01*
X95785888Y-88088967D01*
X95897426Y-88163494D01*
X96021360Y-88214829D01*
X96152927Y-88241000D01*
X96287073Y-88241000D01*
X96418640Y-88214829D01*
X96542574Y-88163494D01*
X96654112Y-88088967D01*
X96712967Y-88030112D01*
X96675171Y-88121360D01*
X96649000Y-88252927D01*
X96649000Y-88387073D01*
X96675171Y-88518640D01*
X96726506Y-88642574D01*
X96801033Y-88754112D01*
X96895888Y-88848967D01*
X97007426Y-88923494D01*
X97131360Y-88974829D01*
X97262927Y-89001000D01*
X97397073Y-89001000D01*
X97528640Y-88974829D01*
X97652574Y-88923494D01*
X97764112Y-88848967D01*
X97858967Y-88754112D01*
X97933494Y-88642574D01*
X97984829Y-88518640D01*
X98011000Y-88387073D01*
X98011000Y-88319236D01*
X99749237Y-86581000D01*
X102757921Y-86581000D01*
X102805888Y-86628967D01*
X102917426Y-86703494D01*
X102920125Y-86704612D01*
X101869917Y-87754821D01*
X101812574Y-87716506D01*
X101688640Y-87665171D01*
X101557073Y-87639000D01*
X101422927Y-87639000D01*
X101291360Y-87665171D01*
X101167426Y-87716506D01*
X101055888Y-87791033D01*
X100961033Y-87885888D01*
X100886506Y-87997426D01*
X100835171Y-88121360D01*
X100809000Y-88252927D01*
X100809000Y-88387073D01*
X100835171Y-88518640D01*
X100886506Y-88642574D01*
X100961033Y-88754112D01*
X101055888Y-88848967D01*
X101167426Y-88923494D01*
X101291360Y-88974829D01*
X101422927Y-89001000D01*
X101557073Y-89001000D01*
X101688640Y-88974829D01*
X101812574Y-88923494D01*
X101924112Y-88848967D01*
X101971117Y-88801962D01*
X101984974Y-88803327D01*
X102008600Y-88801000D01*
X102079266Y-88794040D01*
X102169935Y-88766536D01*
X102253496Y-88721872D01*
X102326738Y-88661764D01*
X102341804Y-88643406D01*
X103752283Y-87232927D01*
X105069000Y-87232927D01*
X105069000Y-87367073D01*
X105095171Y-87498640D01*
X105146506Y-87622574D01*
X105221033Y-87734112D01*
X105315888Y-87828967D01*
X105427426Y-87903494D01*
X105551360Y-87954829D01*
X105682927Y-87981000D01*
X105817073Y-87981000D01*
X105948640Y-87954829D01*
X106072574Y-87903494D01*
X106184112Y-87828967D01*
X106278967Y-87734112D01*
X106353494Y-87622574D01*
X106404829Y-87498640D01*
X106431000Y-87367073D01*
X106431000Y-87232927D01*
X106404829Y-87101360D01*
X106353494Y-86977426D01*
X106278967Y-86865888D01*
X106184112Y-86771033D01*
X106072574Y-86696506D01*
X105948640Y-86645171D01*
X105817073Y-86619000D01*
X105682927Y-86619000D01*
X105551360Y-86645171D01*
X105427426Y-86696506D01*
X105315888Y-86771033D01*
X105221033Y-86865888D01*
X105146506Y-86977426D01*
X105095171Y-87101360D01*
X105069000Y-87232927D01*
X103752283Y-87232927D01*
X104183412Y-86801799D01*
X104201764Y-86786738D01*
X104261872Y-86713496D01*
X104306536Y-86629935D01*
X104334040Y-86539266D01*
X104341000Y-86468600D01*
X104343327Y-86444975D01*
X104341000Y-86421348D01*
X104341000Y-85473623D01*
X104343327Y-85449999D01*
X104341000Y-85426374D01*
X104334040Y-85355708D01*
X104306536Y-85265039D01*
X104261872Y-85181478D01*
X104201764Y-85108236D01*
X104183412Y-85093175D01*
X101976830Y-82886594D01*
X101961764Y-82868236D01*
X101888522Y-82808128D01*
X101804961Y-82763464D01*
X101714292Y-82735960D01*
X101643626Y-82729000D01*
X101620000Y-82726673D01*
X101596374Y-82729000D01*
X100922079Y-82729000D01*
X100874112Y-82681033D01*
X100762574Y-82606506D01*
X100638640Y-82555171D01*
X100507073Y-82529000D01*
X100372927Y-82529000D01*
X100241360Y-82555171D01*
X100117426Y-82606506D01*
X100005888Y-82681033D01*
X99911033Y-82775888D01*
X99836506Y-82887426D01*
X99785171Y-83011360D01*
X99759000Y-83142927D01*
X99759000Y-83277073D01*
X99785171Y-83408640D01*
X99836506Y-83532574D01*
X99911033Y-83644112D01*
X100005888Y-83738967D01*
X100117426Y-83813494D01*
X100241360Y-83864829D01*
X100372927Y-83891000D01*
X100507073Y-83891000D01*
X100638640Y-83864829D01*
X100762574Y-83813494D01*
X100874112Y-83738967D01*
X100922079Y-83691000D01*
X101420764Y-83691000D01*
X103152772Y-85423009D01*
X103041360Y-85445171D01*
X102917426Y-85496506D01*
X102805888Y-85571033D01*
X102757921Y-85619000D01*
X99573626Y-85619000D01*
X99549999Y-85616673D01*
X99455707Y-85625960D01*
X99428203Y-85634304D01*
X99365039Y-85653464D01*
X99281478Y-85698128D01*
X99208236Y-85758236D01*
X99193175Y-85776588D01*
X97330764Y-87639000D01*
X97262927Y-87639000D01*
X97131360Y-87665171D01*
X97007426Y-87716506D01*
X96895888Y-87791033D01*
X96837033Y-87849888D01*
X96874829Y-87758640D01*
X96901000Y-87627073D01*
X96901000Y-87492927D01*
X96874829Y-87361360D01*
X96823494Y-87237426D01*
X96748967Y-87125888D01*
X96654112Y-87031033D01*
X96542574Y-86956506D01*
X96418640Y-86905171D01*
X96287073Y-86879000D01*
X96152927Y-86879000D01*
X96021360Y-86905171D01*
X95897426Y-86956506D01*
X95785888Y-87031033D01*
X95691033Y-87125888D01*
X95616506Y-87237426D01*
X95565171Y-87361360D01*
X95539000Y-87492927D01*
X93652000Y-87492927D01*
X93652000Y-84548000D01*
X94784921Y-84548000D01*
X94855888Y-84618967D01*
X94967426Y-84693494D01*
X95091360Y-84744829D01*
X95222927Y-84771000D01*
X95357073Y-84771000D01*
X95488640Y-84744829D01*
X95612574Y-84693494D01*
X95724112Y-84618967D01*
X95740152Y-84602927D01*
X97149000Y-84602927D01*
X97149000Y-84737073D01*
X97175171Y-84868640D01*
X97226506Y-84992574D01*
X97301033Y-85104112D01*
X97395888Y-85198967D01*
X97507426Y-85273494D01*
X97631360Y-85324829D01*
X97762927Y-85351000D01*
X97897073Y-85351000D01*
X98028640Y-85324829D01*
X98152574Y-85273494D01*
X98264112Y-85198967D01*
X98358967Y-85104112D01*
X98433494Y-84992574D01*
X98484829Y-84868640D01*
X98511000Y-84737073D01*
X98511000Y-84622927D01*
X98579000Y-84622927D01*
X98579000Y-84757073D01*
X98605171Y-84888640D01*
X98656506Y-85012574D01*
X98731033Y-85124112D01*
X98825888Y-85218967D01*
X98937426Y-85293494D01*
X99061360Y-85344829D01*
X99192927Y-85371000D01*
X99327073Y-85371000D01*
X99458640Y-85344829D01*
X99582574Y-85293494D01*
X99694112Y-85218967D01*
X99788967Y-85124112D01*
X99863494Y-85012574D01*
X99914829Y-84888640D01*
X99941000Y-84757073D01*
X99941000Y-84622927D01*
X99914829Y-84491360D01*
X99863494Y-84367426D01*
X99788967Y-84255888D01*
X99694112Y-84161033D01*
X99582574Y-84086506D01*
X99458640Y-84035171D01*
X99327073Y-84009000D01*
X99192927Y-84009000D01*
X99061360Y-84035171D01*
X98937426Y-84086506D01*
X98825888Y-84161033D01*
X98731033Y-84255888D01*
X98656506Y-84367426D01*
X98605171Y-84491360D01*
X98579000Y-84622927D01*
X98511000Y-84622927D01*
X98511000Y-84602927D01*
X98484829Y-84471360D01*
X98433494Y-84347426D01*
X98358967Y-84235888D01*
X98264112Y-84141033D01*
X98152574Y-84066506D01*
X98028640Y-84015171D01*
X97897073Y-83989000D01*
X97762927Y-83989000D01*
X97631360Y-84015171D01*
X97507426Y-84066506D01*
X97395888Y-84141033D01*
X97301033Y-84235888D01*
X97226506Y-84347426D01*
X97175171Y-84471360D01*
X97149000Y-84602927D01*
X95740152Y-84602927D01*
X95818967Y-84524112D01*
X95893494Y-84412574D01*
X95944829Y-84288640D01*
X95971000Y-84157073D01*
X95971000Y-84022927D01*
X95944829Y-83891360D01*
X95893494Y-83767426D01*
X95818967Y-83655888D01*
X95724112Y-83561033D01*
X95612574Y-83486506D01*
X95488640Y-83435171D01*
X95357073Y-83409000D01*
X95222927Y-83409000D01*
X95091360Y-83435171D01*
X94967426Y-83486506D01*
X94855888Y-83561033D01*
X94784921Y-83632000D01*
X93652000Y-83632000D01*
X93652000Y-81238003D01*
X95509000Y-81238003D01*
X95509000Y-81381997D01*
X95537092Y-81523225D01*
X95592196Y-81656258D01*
X95672195Y-81775985D01*
X95774015Y-81877805D01*
X95893742Y-81957804D01*
X96026775Y-82012908D01*
X96168003Y-82041000D01*
X96311997Y-82041000D01*
X96453225Y-82012908D01*
X96586258Y-81957804D01*
X96705985Y-81877805D01*
X96807805Y-81775985D01*
X96887804Y-81656258D01*
X96942908Y-81523225D01*
X96971000Y-81381997D01*
X96971000Y-81272927D01*
X99529000Y-81272927D01*
X99529000Y-81407073D01*
X99555171Y-81538640D01*
X99606506Y-81662574D01*
X99681033Y-81774112D01*
X99775888Y-81868967D01*
X99887426Y-81943494D01*
X100011360Y-81994829D01*
X100142927Y-82021000D01*
X100277073Y-82021000D01*
X100408640Y-81994829D01*
X100532574Y-81943494D01*
X100644112Y-81868967D01*
X100738967Y-81774112D01*
X100813494Y-81662574D01*
X100864829Y-81538640D01*
X100891000Y-81407073D01*
X100891000Y-81272927D01*
X100865141Y-81142927D01*
X102679000Y-81142927D01*
X102679000Y-81277073D01*
X102705171Y-81408640D01*
X102756506Y-81532574D01*
X102831033Y-81644112D01*
X102925888Y-81738967D01*
X103036312Y-81812750D01*
X103026506Y-81827426D01*
X102975171Y-81951360D01*
X102949000Y-82082927D01*
X102949000Y-82217073D01*
X102975171Y-82348640D01*
X103026506Y-82472574D01*
X103056790Y-82517897D01*
X102993099Y-82613217D01*
X102941764Y-82737151D01*
X102915593Y-82868718D01*
X102915593Y-83002864D01*
X102941764Y-83134431D01*
X102993099Y-83258365D01*
X103067626Y-83369903D01*
X103162481Y-83464758D01*
X103274019Y-83539285D01*
X103397953Y-83590620D01*
X103529520Y-83616791D01*
X103663666Y-83616791D01*
X103795233Y-83590620D01*
X103919167Y-83539285D01*
X104030705Y-83464758D01*
X104125560Y-83369903D01*
X104200087Y-83258365D01*
X104251422Y-83134431D01*
X104277593Y-83002864D01*
X104277593Y-82868718D01*
X104251422Y-82737151D01*
X104221096Y-82663937D01*
X105074086Y-82663937D01*
X105074086Y-82798083D01*
X105100257Y-82929650D01*
X105151592Y-83053584D01*
X105226119Y-83165122D01*
X105320974Y-83259977D01*
X105432512Y-83334504D01*
X105556446Y-83385839D01*
X105688013Y-83412010D01*
X105822159Y-83412010D01*
X105953726Y-83385839D01*
X106077660Y-83334504D01*
X106189198Y-83259977D01*
X106284053Y-83165122D01*
X106358580Y-83053584D01*
X106409915Y-82929650D01*
X106436086Y-82798083D01*
X106436086Y-82663937D01*
X106429918Y-82632927D01*
X109669000Y-82632927D01*
X109669000Y-82767073D01*
X109695171Y-82898640D01*
X109746506Y-83022574D01*
X109821033Y-83134112D01*
X109915888Y-83228967D01*
X110027426Y-83303494D01*
X110151360Y-83354829D01*
X110282927Y-83381000D01*
X110417073Y-83381000D01*
X110548640Y-83354829D01*
X110672574Y-83303494D01*
X110784112Y-83228967D01*
X110878967Y-83134112D01*
X110953494Y-83022574D01*
X111004829Y-82898640D01*
X111031000Y-82767073D01*
X111031000Y-82632927D01*
X111004829Y-82501360D01*
X110953494Y-82377426D01*
X110878967Y-82265888D01*
X110784112Y-82171033D01*
X110672574Y-82096506D01*
X110548640Y-82045171D01*
X110417073Y-82019000D01*
X110282927Y-82019000D01*
X110151360Y-82045171D01*
X110027426Y-82096506D01*
X109915888Y-82171033D01*
X109821033Y-82265888D01*
X109746506Y-82377426D01*
X109695171Y-82501360D01*
X109669000Y-82632927D01*
X106429918Y-82632927D01*
X106409915Y-82532370D01*
X106358580Y-82408436D01*
X106284053Y-82296898D01*
X106189198Y-82202043D01*
X106077660Y-82127516D01*
X105953726Y-82076181D01*
X105822159Y-82050010D01*
X105688013Y-82050010D01*
X105556446Y-82076181D01*
X105432512Y-82127516D01*
X105320974Y-82202043D01*
X105226119Y-82296898D01*
X105151592Y-82408436D01*
X105100257Y-82532370D01*
X105074086Y-82663937D01*
X104221096Y-82663937D01*
X104200087Y-82613217D01*
X104169803Y-82567894D01*
X104233494Y-82472574D01*
X104284829Y-82348640D01*
X104311000Y-82217073D01*
X104311000Y-82082927D01*
X104284829Y-81951360D01*
X104233494Y-81827426D01*
X104158967Y-81715888D01*
X104064112Y-81621033D01*
X103953688Y-81547250D01*
X103963494Y-81532574D01*
X104014829Y-81408640D01*
X104041000Y-81277073D01*
X104041000Y-81142927D01*
X104014829Y-81011360D01*
X103963494Y-80887426D01*
X103888967Y-80775888D01*
X103794112Y-80681033D01*
X103682574Y-80606506D01*
X103558640Y-80555171D01*
X103427073Y-80529000D01*
X103292927Y-80529000D01*
X103161360Y-80555171D01*
X103037426Y-80606506D01*
X102925888Y-80681033D01*
X102831033Y-80775888D01*
X102756506Y-80887426D01*
X102705171Y-81011360D01*
X102679000Y-81142927D01*
X100865141Y-81142927D01*
X100864829Y-81141360D01*
X100813494Y-81017426D01*
X100738967Y-80905888D01*
X100644112Y-80811033D01*
X100532574Y-80736506D01*
X100408640Y-80685171D01*
X100277073Y-80659000D01*
X100142927Y-80659000D01*
X100011360Y-80685171D01*
X99887426Y-80736506D01*
X99775888Y-80811033D01*
X99681033Y-80905888D01*
X99606506Y-81017426D01*
X99555171Y-81141360D01*
X99529000Y-81272927D01*
X96971000Y-81272927D01*
X96971000Y-81238003D01*
X96942908Y-81096775D01*
X96887804Y-80963742D01*
X96807805Y-80844015D01*
X96705985Y-80742195D01*
X96586258Y-80662196D01*
X96453225Y-80607092D01*
X96311997Y-80579000D01*
X96168003Y-80579000D01*
X96026775Y-80607092D01*
X95893742Y-80662196D01*
X95774015Y-80742195D01*
X95672195Y-80844015D01*
X95592196Y-80963742D01*
X95537092Y-81096775D01*
X95509000Y-81238003D01*
X93652000Y-81238003D01*
X93652000Y-80456000D01*
X104124231Y-80456000D01*
X104076506Y-80527426D01*
X104076506Y-80527426D01*
G37*
X104076506Y-80527426D02*
X104025171Y-80651360D01*
X103999000Y-80782927D01*
X103999000Y-80917073D01*
X104025171Y-81048640D01*
X104076506Y-81172574D01*
X104151033Y-81284112D01*
X104245888Y-81378967D01*
X104357426Y-81453494D01*
X104481360Y-81504829D01*
X104612927Y-81531000D01*
X104747073Y-81531000D01*
X104878640Y-81504829D01*
X105002574Y-81453494D01*
X105114112Y-81378967D01*
X105208967Y-81284112D01*
X105283494Y-81172574D01*
X105334829Y-81048640D01*
X105361000Y-80917073D01*
X105361000Y-80782927D01*
X105334829Y-80651360D01*
X105283494Y-80527426D01*
X105235769Y-80456000D01*
X122196290Y-80456000D01*
X121833557Y-80818733D01*
X121818967Y-80796898D01*
X121724112Y-80702043D01*
X121612574Y-80627516D01*
X121488640Y-80576181D01*
X121357073Y-80550010D01*
X121222927Y-80550010D01*
X121091360Y-80576181D01*
X120967426Y-80627516D01*
X120855888Y-80702043D01*
X120761033Y-80796898D01*
X120686506Y-80908436D01*
X120635171Y-81032370D01*
X120609000Y-81163937D01*
X120609000Y-81264300D01*
X119201301Y-82672000D01*
X118391079Y-82672000D01*
X118428967Y-82634112D01*
X118503494Y-82522574D01*
X118554829Y-82398640D01*
X118581000Y-82267073D01*
X118581000Y-82132927D01*
X118554829Y-82001360D01*
X118503494Y-81877426D01*
X118428967Y-81765888D01*
X118334112Y-81671033D01*
X118222574Y-81596506D01*
X118098640Y-81545171D01*
X117967073Y-81519000D01*
X117832927Y-81519000D01*
X117701360Y-81545171D01*
X117577426Y-81596506D01*
X117465888Y-81671033D01*
X117371033Y-81765888D01*
X117296506Y-81877426D01*
X117245171Y-82001360D01*
X117219000Y-82132927D01*
X117219000Y-82267073D01*
X117245171Y-82398640D01*
X117296506Y-82522574D01*
X117371033Y-82634112D01*
X117408921Y-82672000D01*
X116791079Y-82672000D01*
X116828967Y-82634112D01*
X116903494Y-82522574D01*
X116954829Y-82398640D01*
X116981000Y-82267073D01*
X116981000Y-82132927D01*
X116954829Y-82001360D01*
X116903494Y-81877426D01*
X116828967Y-81765888D01*
X116734112Y-81671033D01*
X116622574Y-81596506D01*
X116498640Y-81545171D01*
X116367073Y-81519000D01*
X116232927Y-81519000D01*
X116101360Y-81545171D01*
X115977426Y-81596506D01*
X115865888Y-81671033D01*
X115771033Y-81765888D01*
X115696506Y-81877426D01*
X115645171Y-82001360D01*
X115619000Y-82132927D01*
X115619000Y-82267073D01*
X115645171Y-82398640D01*
X115696506Y-82522574D01*
X115771033Y-82634112D01*
X115808921Y-82672000D01*
X114306193Y-82672000D01*
X114283704Y-82669785D01*
X114261215Y-82672000D01*
X114261206Y-82672000D01*
X114193921Y-82678627D01*
X114107588Y-82704816D01*
X114028023Y-82747344D01*
X113958283Y-82804578D01*
X113943936Y-82822060D01*
X113270996Y-83495000D01*
X113170632Y-83495000D01*
X113039065Y-83521171D01*
X112915131Y-83572506D01*
X112803593Y-83647033D01*
X112708738Y-83741888D01*
X112634211Y-83853426D01*
X112582876Y-83977360D01*
X112556705Y-84108927D01*
X112556705Y-84144108D01*
X112551360Y-84145171D01*
X112427426Y-84196506D01*
X112315888Y-84271033D01*
X112221033Y-84365888D01*
X112146506Y-84477426D01*
X112095171Y-84601360D01*
X112069000Y-84732927D01*
X112069000Y-84867073D01*
X112095171Y-84998640D01*
X112146506Y-85122574D01*
X112221033Y-85234112D01*
X112315888Y-85328967D01*
X112427426Y-85403494D01*
X112551360Y-85454829D01*
X112682927Y-85481000D01*
X112817073Y-85481000D01*
X112948640Y-85454829D01*
X113072574Y-85403494D01*
X113184112Y-85328967D01*
X113278967Y-85234112D01*
X113353494Y-85122574D01*
X113404829Y-84998640D01*
X113431000Y-84867073D01*
X113431000Y-84831892D01*
X113436345Y-84830829D01*
X113560279Y-84779494D01*
X113671817Y-84704967D01*
X113766672Y-84610112D01*
X113841199Y-84498574D01*
X113892534Y-84374640D01*
X113918705Y-84243073D01*
X113918705Y-84142709D01*
X114141474Y-83919940D01*
X114119000Y-84032923D01*
X114119000Y-84167069D01*
X114145171Y-84298636D01*
X114196506Y-84422570D01*
X114271033Y-84534108D01*
X114365888Y-84628963D01*
X114477426Y-84703490D01*
X114601360Y-84754825D01*
X114732927Y-84780996D01*
X114867073Y-84780996D01*
X114998640Y-84754825D01*
X115122574Y-84703490D01*
X115155908Y-84681217D01*
X115218585Y-84732655D01*
X115290324Y-84771000D01*
X115298150Y-84775183D01*
X115384483Y-84801372D01*
X115474267Y-84810215D01*
X115496766Y-84807999D01*
X117223959Y-84807999D01*
X117219000Y-84832927D01*
X117219000Y-84967073D01*
X117245171Y-85098640D01*
X117296506Y-85222574D01*
X117371033Y-85334112D01*
X117465888Y-85428967D01*
X117577426Y-85503494D01*
X117701360Y-85554829D01*
X117832927Y-85581000D01*
X117967073Y-85581000D01*
X118098640Y-85554829D01*
X118222574Y-85503494D01*
X118252619Y-85483419D01*
X118264228Y-85491176D01*
X118388162Y-85542511D01*
X118519729Y-85568682D01*
X118653875Y-85568682D01*
X118785442Y-85542511D01*
X118909376Y-85491176D01*
X119020914Y-85416649D01*
X119115769Y-85321794D01*
X119190296Y-85210256D01*
X119241631Y-85086322D01*
X119267802Y-84954755D01*
X119267802Y-84820609D01*
X119244044Y-84701173D01*
X119275423Y-84675421D01*
X119289770Y-84657939D01*
X123139710Y-80808000D01*
X123617157Y-80808000D01*
X123617157Y-81000000D01*
X123624513Y-81074689D01*
X123646299Y-81146508D01*
X123653511Y-81160000D01*
X123646299Y-81173492D01*
X123624513Y-81245311D01*
X123617157Y-81320000D01*
X123617157Y-81640000D01*
X123624513Y-81714689D01*
X123646299Y-81786508D01*
X123653511Y-81800000D01*
X123646299Y-81813492D01*
X123624513Y-81885311D01*
X123617157Y-81960000D01*
X123617157Y-82280000D01*
X123624513Y-82354689D01*
X123646299Y-82426508D01*
X123653511Y-82440000D01*
X123646299Y-82453492D01*
X123624513Y-82525311D01*
X123617157Y-82600000D01*
X123617157Y-82920000D01*
X123624513Y-82994689D01*
X123646299Y-83066508D01*
X123681678Y-83132696D01*
X123729289Y-83190711D01*
X123787304Y-83238322D01*
X123853492Y-83273701D01*
X123925311Y-83295487D01*
X124000000Y-83302843D01*
X124473000Y-83302843D01*
X124473000Y-83497157D01*
X124000000Y-83497157D01*
X123925311Y-83504513D01*
X123853492Y-83526299D01*
X123787304Y-83561678D01*
X123729289Y-83609289D01*
X123681678Y-83667304D01*
X123646299Y-83733492D01*
X123624513Y-83805311D01*
X123617157Y-83880000D01*
X123617157Y-84200000D01*
X123624513Y-84274689D01*
X123646299Y-84346508D01*
X123653511Y-84360000D01*
X123646299Y-84373492D01*
X123624513Y-84445311D01*
X123617157Y-84520000D01*
X123617157Y-84840000D01*
X123624513Y-84914689D01*
X123646299Y-84986508D01*
X123681678Y-85052696D01*
X123729289Y-85110711D01*
X123787304Y-85158322D01*
X123853492Y-85193701D01*
X123925311Y-85215487D01*
X124000000Y-85222843D01*
X124473000Y-85222843D01*
X124473000Y-85417157D01*
X124000000Y-85417157D01*
X123925311Y-85424513D01*
X123853492Y-85446299D01*
X123787304Y-85481678D01*
X123729289Y-85529289D01*
X123681678Y-85587304D01*
X123646299Y-85653492D01*
X123624513Y-85725311D01*
X123617157Y-85800000D01*
X123617157Y-86120000D01*
X123619324Y-86142000D01*
X123489709Y-86142000D01*
X122664769Y-85317060D01*
X122650422Y-85299578D01*
X122580682Y-85242344D01*
X122501117Y-85199816D01*
X122414784Y-85173627D01*
X122347499Y-85167000D01*
X122325000Y-85164784D01*
X122302501Y-85167000D01*
X121155079Y-85167000D01*
X121084112Y-85096033D01*
X120972574Y-85021506D01*
X120848640Y-84970171D01*
X120717073Y-84944000D01*
X120582927Y-84944000D01*
X120451360Y-84970171D01*
X120327426Y-85021506D01*
X120301745Y-85038666D01*
X120259112Y-84996033D01*
X120147574Y-84921506D01*
X120023640Y-84870171D01*
X119892073Y-84844000D01*
X119757927Y-84844000D01*
X119626360Y-84870171D01*
X119502426Y-84921506D01*
X119390888Y-84996033D01*
X119296033Y-85090888D01*
X119221506Y-85202426D01*
X119170171Y-85326360D01*
X119144000Y-85457927D01*
X119144000Y-85592073D01*
X119170171Y-85723640D01*
X119221506Y-85847574D01*
X119296033Y-85959112D01*
X119331669Y-85994748D01*
X119327426Y-85996506D01*
X119215888Y-86071033D01*
X119121033Y-86165888D01*
X119046506Y-86277426D01*
X118995171Y-86401360D01*
X118969000Y-86532927D01*
X118969000Y-86667073D01*
X118995171Y-86798640D01*
X119046506Y-86922574D01*
X119121033Y-87034112D01*
X119215888Y-87128967D01*
X119327426Y-87203494D01*
X119451360Y-87254829D01*
X119582927Y-87281000D01*
X119683291Y-87281000D01*
X120560235Y-88157945D01*
X120574578Y-88175422D01*
X120644318Y-88232656D01*
X120659929Y-88241000D01*
X120723883Y-88275184D01*
X120810215Y-88301373D01*
X120900000Y-88310216D01*
X120922499Y-88308000D01*
X121014454Y-88308000D01*
X121008010Y-88312306D01*
X120886306Y-88434010D01*
X120790684Y-88577119D01*
X120724818Y-88736134D01*
X120691240Y-88904942D01*
X120691240Y-89077058D01*
X120724818Y-89245866D01*
X120790684Y-89404881D01*
X120883640Y-89544000D01*
X120511040Y-89544000D01*
X120529829Y-89498640D01*
X120556000Y-89367073D01*
X120556000Y-89232927D01*
X120529829Y-89101360D01*
X120478494Y-88977426D01*
X120403967Y-88865888D01*
X120309112Y-88771033D01*
X120197574Y-88696506D01*
X120073640Y-88645171D01*
X119942073Y-88619000D01*
X119807927Y-88619000D01*
X119676360Y-88645171D01*
X119552426Y-88696506D01*
X119440888Y-88771033D01*
X119346033Y-88865888D01*
X119271506Y-88977426D01*
X119220171Y-89101360D01*
X119194000Y-89232927D01*
X119194000Y-89367073D01*
X119220171Y-89498640D01*
X119238960Y-89544000D01*
X110455752Y-89544000D01*
X110481000Y-89417073D01*
X110481000Y-89316709D01*
X112075689Y-87722021D01*
X115094921Y-87722021D01*
X115165888Y-87792988D01*
X115277426Y-87867515D01*
X115401360Y-87918850D01*
X115532927Y-87945021D01*
X115609970Y-87945021D01*
X115609970Y-88061183D01*
X115643597Y-88230237D01*
X115709558Y-88389482D01*
X115805320Y-88532799D01*
X115927201Y-88654680D01*
X116070518Y-88750442D01*
X116229763Y-88816403D01*
X116398817Y-88850030D01*
X116571183Y-88850030D01*
X116740237Y-88816403D01*
X116899482Y-88750442D01*
X117042799Y-88654680D01*
X117164680Y-88532799D01*
X117260442Y-88389482D01*
X117326403Y-88230237D01*
X117360030Y-88061183D01*
X117360030Y-87888817D01*
X117326403Y-87719763D01*
X117260442Y-87560518D01*
X117164680Y-87417201D01*
X117042799Y-87295320D01*
X116899482Y-87199558D01*
X116740237Y-87133597D01*
X116571183Y-87099970D01*
X116398817Y-87099970D01*
X116266928Y-87126204D01*
X116254829Y-87065381D01*
X116203494Y-86941447D01*
X116128967Y-86829909D01*
X116034112Y-86735054D01*
X115922574Y-86660527D01*
X115798640Y-86609192D01*
X115667073Y-86583021D01*
X115532927Y-86583021D01*
X115401360Y-86609192D01*
X115277426Y-86660527D01*
X115165888Y-86735054D01*
X115094921Y-86806021D01*
X111908478Y-86806021D01*
X111885979Y-86803805D01*
X111796194Y-86812648D01*
X111739293Y-86829909D01*
X111709862Y-86838837D01*
X111630297Y-86881365D01*
X111560557Y-86938599D01*
X111546214Y-86956076D01*
X111005122Y-87497169D01*
X111031000Y-87367073D01*
X111031000Y-87232927D01*
X111004829Y-87101360D01*
X110953494Y-86977426D01*
X110878967Y-86865888D01*
X110784112Y-86771033D01*
X110672574Y-86696506D01*
X110548640Y-86645171D01*
X110417073Y-86619000D01*
X110282927Y-86619000D01*
X110151360Y-86645171D01*
X110027426Y-86696506D01*
X109915888Y-86771033D01*
X109821033Y-86865888D01*
X109746506Y-86977426D01*
X109695171Y-87101360D01*
X109669000Y-87232927D01*
X109669000Y-87367073D01*
X109695171Y-87498640D01*
X109746506Y-87622574D01*
X109821033Y-87734112D01*
X109915888Y-87828967D01*
X110027426Y-87903494D01*
X110151360Y-87954829D01*
X110282927Y-87981000D01*
X110417073Y-87981000D01*
X110547169Y-87955122D01*
X109833291Y-88669000D01*
X109732927Y-88669000D01*
X109601360Y-88695171D01*
X109477426Y-88746506D01*
X109365888Y-88821033D01*
X109271033Y-88915888D01*
X109196506Y-89027426D01*
X109145171Y-89151360D01*
X109119000Y-89282927D01*
X109119000Y-89417073D01*
X109144248Y-89544000D01*
X93652000Y-89544000D01*
X93652000Y-87492927D01*
X95539000Y-87492927D01*
X95539000Y-87627073D01*
X95565171Y-87758640D01*
X95616506Y-87882574D01*
X95691033Y-87994112D01*
X95785888Y-88088967D01*
X95897426Y-88163494D01*
X96021360Y-88214829D01*
X96152927Y-88241000D01*
X96287073Y-88241000D01*
X96418640Y-88214829D01*
X96542574Y-88163494D01*
X96654112Y-88088967D01*
X96712967Y-88030112D01*
X96675171Y-88121360D01*
X96649000Y-88252927D01*
X96649000Y-88387073D01*
X96675171Y-88518640D01*
X96726506Y-88642574D01*
X96801033Y-88754112D01*
X96895888Y-88848967D01*
X97007426Y-88923494D01*
X97131360Y-88974829D01*
X97262927Y-89001000D01*
X97397073Y-89001000D01*
X97528640Y-88974829D01*
X97652574Y-88923494D01*
X97764112Y-88848967D01*
X97858967Y-88754112D01*
X97933494Y-88642574D01*
X97984829Y-88518640D01*
X98011000Y-88387073D01*
X98011000Y-88319236D01*
X99749237Y-86581000D01*
X102757921Y-86581000D01*
X102805888Y-86628967D01*
X102917426Y-86703494D01*
X102920125Y-86704612D01*
X101869917Y-87754821D01*
X101812574Y-87716506D01*
X101688640Y-87665171D01*
X101557073Y-87639000D01*
X101422927Y-87639000D01*
X101291360Y-87665171D01*
X101167426Y-87716506D01*
X101055888Y-87791033D01*
X100961033Y-87885888D01*
X100886506Y-87997426D01*
X100835171Y-88121360D01*
X100809000Y-88252927D01*
X100809000Y-88387073D01*
X100835171Y-88518640D01*
X100886506Y-88642574D01*
X100961033Y-88754112D01*
X101055888Y-88848967D01*
X101167426Y-88923494D01*
X101291360Y-88974829D01*
X101422927Y-89001000D01*
X101557073Y-89001000D01*
X101688640Y-88974829D01*
X101812574Y-88923494D01*
X101924112Y-88848967D01*
X101971117Y-88801962D01*
X101984974Y-88803327D01*
X102008600Y-88801000D01*
X102079266Y-88794040D01*
X102169935Y-88766536D01*
X102253496Y-88721872D01*
X102326738Y-88661764D01*
X102341804Y-88643406D01*
X103752283Y-87232927D01*
X105069000Y-87232927D01*
X105069000Y-87367073D01*
X105095171Y-87498640D01*
X105146506Y-87622574D01*
X105221033Y-87734112D01*
X105315888Y-87828967D01*
X105427426Y-87903494D01*
X105551360Y-87954829D01*
X105682927Y-87981000D01*
X105817073Y-87981000D01*
X105948640Y-87954829D01*
X106072574Y-87903494D01*
X106184112Y-87828967D01*
X106278967Y-87734112D01*
X106353494Y-87622574D01*
X106404829Y-87498640D01*
X106431000Y-87367073D01*
X106431000Y-87232927D01*
X106404829Y-87101360D01*
X106353494Y-86977426D01*
X106278967Y-86865888D01*
X106184112Y-86771033D01*
X106072574Y-86696506D01*
X105948640Y-86645171D01*
X105817073Y-86619000D01*
X105682927Y-86619000D01*
X105551360Y-86645171D01*
X105427426Y-86696506D01*
X105315888Y-86771033D01*
X105221033Y-86865888D01*
X105146506Y-86977426D01*
X105095171Y-87101360D01*
X105069000Y-87232927D01*
X103752283Y-87232927D01*
X104183412Y-86801799D01*
X104201764Y-86786738D01*
X104261872Y-86713496D01*
X104306536Y-86629935D01*
X104334040Y-86539266D01*
X104341000Y-86468600D01*
X104343327Y-86444975D01*
X104341000Y-86421348D01*
X104341000Y-85473623D01*
X104343327Y-85449999D01*
X104341000Y-85426374D01*
X104334040Y-85355708D01*
X104306536Y-85265039D01*
X104261872Y-85181478D01*
X104201764Y-85108236D01*
X104183412Y-85093175D01*
X101976830Y-82886594D01*
X101961764Y-82868236D01*
X101888522Y-82808128D01*
X101804961Y-82763464D01*
X101714292Y-82735960D01*
X101643626Y-82729000D01*
X101620000Y-82726673D01*
X101596374Y-82729000D01*
X100922079Y-82729000D01*
X100874112Y-82681033D01*
X100762574Y-82606506D01*
X100638640Y-82555171D01*
X100507073Y-82529000D01*
X100372927Y-82529000D01*
X100241360Y-82555171D01*
X100117426Y-82606506D01*
X100005888Y-82681033D01*
X99911033Y-82775888D01*
X99836506Y-82887426D01*
X99785171Y-83011360D01*
X99759000Y-83142927D01*
X99759000Y-83277073D01*
X99785171Y-83408640D01*
X99836506Y-83532574D01*
X99911033Y-83644112D01*
X100005888Y-83738967D01*
X100117426Y-83813494D01*
X100241360Y-83864829D01*
X100372927Y-83891000D01*
X100507073Y-83891000D01*
X100638640Y-83864829D01*
X100762574Y-83813494D01*
X100874112Y-83738967D01*
X100922079Y-83691000D01*
X101420764Y-83691000D01*
X103152772Y-85423009D01*
X103041360Y-85445171D01*
X102917426Y-85496506D01*
X102805888Y-85571033D01*
X102757921Y-85619000D01*
X99573626Y-85619000D01*
X99549999Y-85616673D01*
X99455707Y-85625960D01*
X99428203Y-85634304D01*
X99365039Y-85653464D01*
X99281478Y-85698128D01*
X99208236Y-85758236D01*
X99193175Y-85776588D01*
X97330764Y-87639000D01*
X97262927Y-87639000D01*
X97131360Y-87665171D01*
X97007426Y-87716506D01*
X96895888Y-87791033D01*
X96837033Y-87849888D01*
X96874829Y-87758640D01*
X96901000Y-87627073D01*
X96901000Y-87492927D01*
X96874829Y-87361360D01*
X96823494Y-87237426D01*
X96748967Y-87125888D01*
X96654112Y-87031033D01*
X96542574Y-86956506D01*
X96418640Y-86905171D01*
X96287073Y-86879000D01*
X96152927Y-86879000D01*
X96021360Y-86905171D01*
X95897426Y-86956506D01*
X95785888Y-87031033D01*
X95691033Y-87125888D01*
X95616506Y-87237426D01*
X95565171Y-87361360D01*
X95539000Y-87492927D01*
X93652000Y-87492927D01*
X93652000Y-84548000D01*
X94784921Y-84548000D01*
X94855888Y-84618967D01*
X94967426Y-84693494D01*
X95091360Y-84744829D01*
X95222927Y-84771000D01*
X95357073Y-84771000D01*
X95488640Y-84744829D01*
X95612574Y-84693494D01*
X95724112Y-84618967D01*
X95740152Y-84602927D01*
X97149000Y-84602927D01*
X97149000Y-84737073D01*
X97175171Y-84868640D01*
X97226506Y-84992574D01*
X97301033Y-85104112D01*
X97395888Y-85198967D01*
X97507426Y-85273494D01*
X97631360Y-85324829D01*
X97762927Y-85351000D01*
X97897073Y-85351000D01*
X98028640Y-85324829D01*
X98152574Y-85273494D01*
X98264112Y-85198967D01*
X98358967Y-85104112D01*
X98433494Y-84992574D01*
X98484829Y-84868640D01*
X98511000Y-84737073D01*
X98511000Y-84622927D01*
X98579000Y-84622927D01*
X98579000Y-84757073D01*
X98605171Y-84888640D01*
X98656506Y-85012574D01*
X98731033Y-85124112D01*
X98825888Y-85218967D01*
X98937426Y-85293494D01*
X99061360Y-85344829D01*
X99192927Y-85371000D01*
X99327073Y-85371000D01*
X99458640Y-85344829D01*
X99582574Y-85293494D01*
X99694112Y-85218967D01*
X99788967Y-85124112D01*
X99863494Y-85012574D01*
X99914829Y-84888640D01*
X99941000Y-84757073D01*
X99941000Y-84622927D01*
X99914829Y-84491360D01*
X99863494Y-84367426D01*
X99788967Y-84255888D01*
X99694112Y-84161033D01*
X99582574Y-84086506D01*
X99458640Y-84035171D01*
X99327073Y-84009000D01*
X99192927Y-84009000D01*
X99061360Y-84035171D01*
X98937426Y-84086506D01*
X98825888Y-84161033D01*
X98731033Y-84255888D01*
X98656506Y-84367426D01*
X98605171Y-84491360D01*
X98579000Y-84622927D01*
X98511000Y-84622927D01*
X98511000Y-84602927D01*
X98484829Y-84471360D01*
X98433494Y-84347426D01*
X98358967Y-84235888D01*
X98264112Y-84141033D01*
X98152574Y-84066506D01*
X98028640Y-84015171D01*
X97897073Y-83989000D01*
X97762927Y-83989000D01*
X97631360Y-84015171D01*
X97507426Y-84066506D01*
X97395888Y-84141033D01*
X97301033Y-84235888D01*
X97226506Y-84347426D01*
X97175171Y-84471360D01*
X97149000Y-84602927D01*
X95740152Y-84602927D01*
X95818967Y-84524112D01*
X95893494Y-84412574D01*
X95944829Y-84288640D01*
X95971000Y-84157073D01*
X95971000Y-84022927D01*
X95944829Y-83891360D01*
X95893494Y-83767426D01*
X95818967Y-83655888D01*
X95724112Y-83561033D01*
X95612574Y-83486506D01*
X95488640Y-83435171D01*
X95357073Y-83409000D01*
X95222927Y-83409000D01*
X95091360Y-83435171D01*
X94967426Y-83486506D01*
X94855888Y-83561033D01*
X94784921Y-83632000D01*
X93652000Y-83632000D01*
X93652000Y-81238003D01*
X95509000Y-81238003D01*
X95509000Y-81381997D01*
X95537092Y-81523225D01*
X95592196Y-81656258D01*
X95672195Y-81775985D01*
X95774015Y-81877805D01*
X95893742Y-81957804D01*
X96026775Y-82012908D01*
X96168003Y-82041000D01*
X96311997Y-82041000D01*
X96453225Y-82012908D01*
X96586258Y-81957804D01*
X96705985Y-81877805D01*
X96807805Y-81775985D01*
X96887804Y-81656258D01*
X96942908Y-81523225D01*
X96971000Y-81381997D01*
X96971000Y-81272927D01*
X99529000Y-81272927D01*
X99529000Y-81407073D01*
X99555171Y-81538640D01*
X99606506Y-81662574D01*
X99681033Y-81774112D01*
X99775888Y-81868967D01*
X99887426Y-81943494D01*
X100011360Y-81994829D01*
X100142927Y-82021000D01*
X100277073Y-82021000D01*
X100408640Y-81994829D01*
X100532574Y-81943494D01*
X100644112Y-81868967D01*
X100738967Y-81774112D01*
X100813494Y-81662574D01*
X100864829Y-81538640D01*
X100891000Y-81407073D01*
X100891000Y-81272927D01*
X100865141Y-81142927D01*
X102679000Y-81142927D01*
X102679000Y-81277073D01*
X102705171Y-81408640D01*
X102756506Y-81532574D01*
X102831033Y-81644112D01*
X102925888Y-81738967D01*
X103036312Y-81812750D01*
X103026506Y-81827426D01*
X102975171Y-81951360D01*
X102949000Y-82082927D01*
X102949000Y-82217073D01*
X102975171Y-82348640D01*
X103026506Y-82472574D01*
X103056790Y-82517897D01*
X102993099Y-82613217D01*
X102941764Y-82737151D01*
X102915593Y-82868718D01*
X102915593Y-83002864D01*
X102941764Y-83134431D01*
X102993099Y-83258365D01*
X103067626Y-83369903D01*
X103162481Y-83464758D01*
X103274019Y-83539285D01*
X103397953Y-83590620D01*
X103529520Y-83616791D01*
X103663666Y-83616791D01*
X103795233Y-83590620D01*
X103919167Y-83539285D01*
X104030705Y-83464758D01*
X104125560Y-83369903D01*
X104200087Y-83258365D01*
X104251422Y-83134431D01*
X104277593Y-83002864D01*
X104277593Y-82868718D01*
X104251422Y-82737151D01*
X104221096Y-82663937D01*
X105074086Y-82663937D01*
X105074086Y-82798083D01*
X105100257Y-82929650D01*
X105151592Y-83053584D01*
X105226119Y-83165122D01*
X105320974Y-83259977D01*
X105432512Y-83334504D01*
X105556446Y-83385839D01*
X105688013Y-83412010D01*
X105822159Y-83412010D01*
X105953726Y-83385839D01*
X106077660Y-83334504D01*
X106189198Y-83259977D01*
X106284053Y-83165122D01*
X106358580Y-83053584D01*
X106409915Y-82929650D01*
X106436086Y-82798083D01*
X106436086Y-82663937D01*
X106429918Y-82632927D01*
X109669000Y-82632927D01*
X109669000Y-82767073D01*
X109695171Y-82898640D01*
X109746506Y-83022574D01*
X109821033Y-83134112D01*
X109915888Y-83228967D01*
X110027426Y-83303494D01*
X110151360Y-83354829D01*
X110282927Y-83381000D01*
X110417073Y-83381000D01*
X110548640Y-83354829D01*
X110672574Y-83303494D01*
X110784112Y-83228967D01*
X110878967Y-83134112D01*
X110953494Y-83022574D01*
X111004829Y-82898640D01*
X111031000Y-82767073D01*
X111031000Y-82632927D01*
X111004829Y-82501360D01*
X110953494Y-82377426D01*
X110878967Y-82265888D01*
X110784112Y-82171033D01*
X110672574Y-82096506D01*
X110548640Y-82045171D01*
X110417073Y-82019000D01*
X110282927Y-82019000D01*
X110151360Y-82045171D01*
X110027426Y-82096506D01*
X109915888Y-82171033D01*
X109821033Y-82265888D01*
X109746506Y-82377426D01*
X109695171Y-82501360D01*
X109669000Y-82632927D01*
X106429918Y-82632927D01*
X106409915Y-82532370D01*
X106358580Y-82408436D01*
X106284053Y-82296898D01*
X106189198Y-82202043D01*
X106077660Y-82127516D01*
X105953726Y-82076181D01*
X105822159Y-82050010D01*
X105688013Y-82050010D01*
X105556446Y-82076181D01*
X105432512Y-82127516D01*
X105320974Y-82202043D01*
X105226119Y-82296898D01*
X105151592Y-82408436D01*
X105100257Y-82532370D01*
X105074086Y-82663937D01*
X104221096Y-82663937D01*
X104200087Y-82613217D01*
X104169803Y-82567894D01*
X104233494Y-82472574D01*
X104284829Y-82348640D01*
X104311000Y-82217073D01*
X104311000Y-82082927D01*
X104284829Y-81951360D01*
X104233494Y-81827426D01*
X104158967Y-81715888D01*
X104064112Y-81621033D01*
X103953688Y-81547250D01*
X103963494Y-81532574D01*
X104014829Y-81408640D01*
X104041000Y-81277073D01*
X104041000Y-81142927D01*
X104014829Y-81011360D01*
X103963494Y-80887426D01*
X103888967Y-80775888D01*
X103794112Y-80681033D01*
X103682574Y-80606506D01*
X103558640Y-80555171D01*
X103427073Y-80529000D01*
X103292927Y-80529000D01*
X103161360Y-80555171D01*
X103037426Y-80606506D01*
X102925888Y-80681033D01*
X102831033Y-80775888D01*
X102756506Y-80887426D01*
X102705171Y-81011360D01*
X102679000Y-81142927D01*
X100865141Y-81142927D01*
X100864829Y-81141360D01*
X100813494Y-81017426D01*
X100738967Y-80905888D01*
X100644112Y-80811033D01*
X100532574Y-80736506D01*
X100408640Y-80685171D01*
X100277073Y-80659000D01*
X100142927Y-80659000D01*
X100011360Y-80685171D01*
X99887426Y-80736506D01*
X99775888Y-80811033D01*
X99681033Y-80905888D01*
X99606506Y-81017426D01*
X99555171Y-81141360D01*
X99529000Y-81272927D01*
X96971000Y-81272927D01*
X96971000Y-81238003D01*
X96942908Y-81096775D01*
X96887804Y-80963742D01*
X96807805Y-80844015D01*
X96705985Y-80742195D01*
X96586258Y-80662196D01*
X96453225Y-80607092D01*
X96311997Y-80579000D01*
X96168003Y-80579000D01*
X96026775Y-80607092D01*
X95893742Y-80662196D01*
X95774015Y-80742195D01*
X95672195Y-80844015D01*
X95592196Y-80963742D01*
X95537092Y-81096775D01*
X95509000Y-81238003D01*
X93652000Y-81238003D01*
X93652000Y-80456000D01*
X104124231Y-80456000D01*
X104076506Y-80527426D01*
M02*
