G04 #@! TF.GenerationSoftware,KiCad,Pcbnew,5.1.2*
G04 #@! TF.CreationDate,2019-07-25T15:36:57+02:00*
G04 #@! TF.ProjectId,TS100C,54533130-3043-42e6-9b69-6361645f7063,rev?*
G04 #@! TF.SameCoordinates,Original*
G04 #@! TF.FileFunction,Copper,L2,Inr*
G04 #@! TF.FilePolarity,Positive*
%FSLAX46Y46*%
G04 Gerber Fmt 4.6, Leading zero omitted, Abs format (unit mm)*
G04 Created by KiCad (PCBNEW 5.1.2) date 2019-07-25 15:36:57*
%MOMM*%
%LPD*%
G04 APERTURE LIST*
%ADD10C,0.150000*%
%ADD11O,2.100000X1.000000*%
%ADD12O,1.600000X1.000000*%
%ADD13R,5.000000X3.960000*%
%ADD14C,2.000000*%
%ADD15C,0.600000*%
%ADD16C,0.450000*%
%ADD17C,0.106000*%
%ADD18C,0.154000*%
G04 APERTURE END LIST*
D10*
X131000000Y-80500000D02*
X164000000Y-80500000D01*
X130000000Y-80000000D02*
X131000000Y-80500000D01*
X130000000Y-90000000D02*
X131000000Y-89500000D01*
X131000000Y-89500000D02*
X164000000Y-89500000D01*
X80000000Y-80000000D02*
X80000000Y-90000000D01*
X130000000Y-90000000D02*
X80000000Y-90000000D01*
X164000000Y-80500000D02*
X164000000Y-89500000D01*
X80000000Y-80000000D02*
X130000000Y-80000000D01*
D11*
X87085000Y-89310000D03*
X87085000Y-80670000D03*
D12*
X82905000Y-89310000D03*
X82905000Y-80670000D03*
D13*
X161000000Y-85000000D03*
D14*
X152000000Y-87400000D03*
X152000000Y-82600000D03*
D15*
X99260000Y-84690000D03*
X97830000Y-84670000D03*
X117900000Y-82200000D03*
X116300000Y-82200000D03*
X110350000Y-82700000D03*
X110350000Y-87300000D03*
X105750000Y-87300000D03*
X156504168Y-84150000D03*
X146450000Y-88400000D03*
X147200000Y-88400000D03*
X147950000Y-88400000D03*
X148700000Y-88400000D03*
X142300000Y-85050000D03*
X136950000Y-85300000D03*
X119875000Y-89300000D03*
X105755086Y-82731010D03*
X129500000Y-87000000D03*
X140650000Y-86775000D03*
X96240000Y-81310000D03*
X91129245Y-82604245D03*
X100210000Y-81340000D03*
X96220000Y-87560000D03*
X92870000Y-85010000D03*
X134060000Y-88280000D03*
X126750000Y-83470002D03*
D16*
X119700000Y-85750000D03*
D15*
X137300000Y-82170000D03*
X136500000Y-82170000D03*
X135700000Y-82170000D03*
X134900000Y-82170000D03*
X136500000Y-82930979D03*
X134900000Y-82930979D03*
X137300000Y-82930979D03*
X117900000Y-84900000D03*
X118586802Y-84887682D03*
X86710000Y-86960000D03*
X85860000Y-87140000D03*
X86650000Y-83050000D03*
X85910000Y-82730000D03*
X85910000Y-83590000D03*
X89340000Y-87300000D03*
X84140000Y-82710000D03*
X85040000Y-82710000D03*
X84140000Y-83610000D03*
X85040000Y-83610000D03*
X84140000Y-84510000D03*
X85040000Y-84510000D03*
X84140000Y-85410000D03*
X85040000Y-85410000D03*
X84140000Y-86310000D03*
X85040000Y-86310000D03*
X84140000Y-87210000D03*
X85040000Y-87210000D03*
X130860000Y-87900000D03*
X135700000Y-82930979D03*
X89350000Y-82732990D03*
X90200345Y-82733095D03*
D16*
X120650000Y-85625000D03*
X100440000Y-83210000D03*
X102449998Y-88550000D03*
D15*
X94070000Y-82520000D03*
X155200000Y-87400000D03*
X142262500Y-88900000D03*
X116925000Y-89050000D03*
X115550000Y-89175000D03*
X112075000Y-88500000D03*
X106850000Y-80837052D03*
X123314163Y-83964163D03*
X123400000Y-85675000D03*
X117000000Y-84950000D03*
X99070000Y-81330000D03*
X122575000Y-81550000D03*
X140300000Y-85174010D03*
X130640000Y-88840002D03*
X120355931Y-81248990D03*
X118970626Y-81248990D03*
X119671581Y-81248990D03*
X102230000Y-84719998D03*
X101849996Y-87900000D03*
D16*
X97330000Y-88320000D03*
X102946177Y-86195990D03*
X93820000Y-86100000D03*
X95290000Y-84090000D03*
X89450000Y-86500000D03*
X91000000Y-86650000D03*
X109800000Y-89350000D03*
X115600000Y-87264021D03*
X130269990Y-87430509D03*
D15*
X104500000Y-88900961D03*
X112500000Y-86450000D03*
D16*
X119650000Y-86614012D03*
X130123424Y-80653152D03*
X135010002Y-88310000D03*
X104680000Y-80850000D03*
X154800000Y-81650000D03*
X103360000Y-81210000D03*
X153850000Y-81029000D03*
X134534782Y-81029010D03*
X103596593Y-82935791D03*
X90710000Y-84525000D03*
X90334124Y-88535876D03*
X90710000Y-85475000D03*
X91005876Y-87864124D03*
X89400000Y-85750000D03*
X100550000Y-87350000D03*
X93425000Y-88525000D03*
X103630000Y-82150000D03*
X132050000Y-81214024D03*
D17*
X130100000Y-80650000D02*
X129800000Y-80350000D01*
X104979999Y-81149999D02*
X104680000Y-80850000D01*
X129800000Y-80350000D02*
X108150000Y-80350000D01*
X108150000Y-80350000D02*
X107100001Y-81399999D01*
X105229999Y-81399999D02*
X104979999Y-81149999D01*
X107100001Y-81399999D02*
X105229999Y-81399999D01*
X129550000Y-81100000D02*
X129140000Y-80690000D01*
X131410638Y-81100000D02*
X129550000Y-81100000D01*
X103821592Y-82710792D02*
X103596593Y-82935791D01*
X104502383Y-82030001D02*
X103821592Y-82710792D01*
X134534782Y-81029010D02*
X134287782Y-80782010D01*
X129140000Y-80690000D02*
X108430000Y-80690000D01*
X107089999Y-82030001D02*
X104502383Y-82030001D01*
X131728628Y-80782010D02*
X131410638Y-81100000D01*
X108430000Y-80690000D02*
X107089999Y-82030001D01*
X134287782Y-80782010D02*
X131728628Y-80782010D01*
D18*
G36*
X85856377Y-80388905D02*
G01*
X85814578Y-80526699D01*
X85800464Y-80670000D01*
X85814578Y-80813301D01*
X85856377Y-80951095D01*
X85924256Y-81078086D01*
X86015605Y-81189395D01*
X86126914Y-81280744D01*
X86253905Y-81348623D01*
X86391699Y-81390422D01*
X86499099Y-81401000D01*
X87670901Y-81401000D01*
X87778301Y-81390422D01*
X87916095Y-81348623D01*
X88043086Y-81280744D01*
X88071163Y-81257701D01*
X95709000Y-81257701D01*
X95709000Y-81362299D01*
X95729406Y-81464887D01*
X95769434Y-81561523D01*
X95827546Y-81648493D01*
X95901507Y-81722454D01*
X95988477Y-81780566D01*
X96085113Y-81820594D01*
X96187701Y-81841000D01*
X96292299Y-81841000D01*
X96394887Y-81820594D01*
X96491523Y-81780566D01*
X96578493Y-81722454D01*
X96652454Y-81648493D01*
X96710566Y-81561523D01*
X96750594Y-81464887D01*
X96771000Y-81362299D01*
X96771000Y-81277701D01*
X98539000Y-81277701D01*
X98539000Y-81382299D01*
X98559406Y-81484887D01*
X98599434Y-81581523D01*
X98657546Y-81668493D01*
X98731507Y-81742454D01*
X98818477Y-81800566D01*
X98915113Y-81840594D01*
X99017701Y-81861000D01*
X99122299Y-81861000D01*
X99224887Y-81840594D01*
X99321523Y-81800566D01*
X99408493Y-81742454D01*
X99482454Y-81668493D01*
X99540566Y-81581523D01*
X99580594Y-81484887D01*
X99601000Y-81382299D01*
X99601000Y-81287701D01*
X99679000Y-81287701D01*
X99679000Y-81392299D01*
X99699406Y-81494887D01*
X99739434Y-81591523D01*
X99797546Y-81678493D01*
X99871507Y-81752454D01*
X99958477Y-81810566D01*
X100055113Y-81850594D01*
X100157701Y-81871000D01*
X100262299Y-81871000D01*
X100364887Y-81850594D01*
X100461523Y-81810566D01*
X100548493Y-81752454D01*
X100622454Y-81678493D01*
X100680566Y-81591523D01*
X100720594Y-81494887D01*
X100741000Y-81392299D01*
X100741000Y-81287701D01*
X100720594Y-81185113D01*
X100712300Y-81165088D01*
X102904000Y-81165088D01*
X102904000Y-81254912D01*
X102921524Y-81343010D01*
X102955898Y-81425997D01*
X103005802Y-81500683D01*
X103069317Y-81564198D01*
X103144003Y-81614102D01*
X103226990Y-81648476D01*
X103315088Y-81666000D01*
X103404912Y-81666000D01*
X103493010Y-81648476D01*
X103575997Y-81614102D01*
X103650683Y-81564198D01*
X103714198Y-81500683D01*
X103764102Y-81425997D01*
X103798476Y-81343010D01*
X103816000Y-81254912D01*
X103816000Y-81165088D01*
X103798476Y-81076990D01*
X103764102Y-80994003D01*
X103714198Y-80919317D01*
X103650683Y-80855802D01*
X103575997Y-80805898D01*
X103493010Y-80771524D01*
X103404912Y-80754000D01*
X103315088Y-80754000D01*
X103226990Y-80771524D01*
X103144003Y-80805898D01*
X103069317Y-80855802D01*
X103005802Y-80919317D01*
X102955898Y-80994003D01*
X102921524Y-81076990D01*
X102904000Y-81165088D01*
X100712300Y-81165088D01*
X100680566Y-81088477D01*
X100622454Y-81001507D01*
X100548493Y-80927546D01*
X100461523Y-80869434D01*
X100364887Y-80829406D01*
X100262299Y-80809000D01*
X100157701Y-80809000D01*
X100055113Y-80829406D01*
X99958477Y-80869434D01*
X99871507Y-80927546D01*
X99797546Y-81001507D01*
X99739434Y-81088477D01*
X99699406Y-81185113D01*
X99679000Y-81287701D01*
X99601000Y-81287701D01*
X99601000Y-81277701D01*
X99580594Y-81175113D01*
X99540566Y-81078477D01*
X99482454Y-80991507D01*
X99408493Y-80917546D01*
X99321523Y-80859434D01*
X99224887Y-80819406D01*
X99122299Y-80799000D01*
X99017701Y-80799000D01*
X98915113Y-80819406D01*
X98818477Y-80859434D01*
X98731507Y-80917546D01*
X98657546Y-80991507D01*
X98599434Y-81078477D01*
X98559406Y-81175113D01*
X98539000Y-81277701D01*
X96771000Y-81277701D01*
X96771000Y-81257701D01*
X96750594Y-81155113D01*
X96710566Y-81058477D01*
X96652454Y-80971507D01*
X96578493Y-80897546D01*
X96491523Y-80839434D01*
X96394887Y-80799406D01*
X96292299Y-80779000D01*
X96187701Y-80779000D01*
X96085113Y-80799406D01*
X95988477Y-80839434D01*
X95901507Y-80897546D01*
X95827546Y-80971507D01*
X95769434Y-81058477D01*
X95729406Y-81155113D01*
X95709000Y-81257701D01*
X88071163Y-81257701D01*
X88154395Y-81189395D01*
X88245744Y-81078086D01*
X88313623Y-80951095D01*
X88355422Y-80813301D01*
X88369536Y-80670000D01*
X88355422Y-80526699D01*
X88313623Y-80388905D01*
X88269309Y-80306000D01*
X107792363Y-80306000D01*
X107369819Y-80728545D01*
X107360594Y-80682165D01*
X107320566Y-80585529D01*
X107262454Y-80498559D01*
X107188493Y-80424598D01*
X107101523Y-80366486D01*
X107004887Y-80326458D01*
X106902299Y-80306052D01*
X106797701Y-80306052D01*
X106695113Y-80326458D01*
X106598477Y-80366486D01*
X106511507Y-80424598D01*
X106437546Y-80498559D01*
X106379434Y-80585529D01*
X106339406Y-80682165D01*
X106319000Y-80784753D01*
X106319000Y-80889351D01*
X106339406Y-80991939D01*
X106379434Y-81088575D01*
X106397758Y-81115999D01*
X105347635Y-81115999D01*
X105190691Y-80959056D01*
X105190683Y-80959046D01*
X105134432Y-80902795D01*
X105136000Y-80894912D01*
X105136000Y-80805088D01*
X105118476Y-80716990D01*
X105084102Y-80634003D01*
X105034198Y-80559317D01*
X104970683Y-80495802D01*
X104895997Y-80445898D01*
X104813010Y-80411524D01*
X104724912Y-80394000D01*
X104635088Y-80394000D01*
X104546990Y-80411524D01*
X104464003Y-80445898D01*
X104389317Y-80495802D01*
X104325802Y-80559317D01*
X104275898Y-80634003D01*
X104241524Y-80716990D01*
X104224000Y-80805088D01*
X104224000Y-80894912D01*
X104241524Y-80983010D01*
X104275898Y-81065997D01*
X104325802Y-81140683D01*
X104389317Y-81204198D01*
X104464003Y-81254102D01*
X104546990Y-81288476D01*
X104635088Y-81306000D01*
X104724912Y-81306000D01*
X104732795Y-81304432D01*
X104789046Y-81360683D01*
X104789056Y-81360691D01*
X105019316Y-81590953D01*
X105028209Y-81601789D01*
X105039044Y-81610681D01*
X105039045Y-81610682D01*
X105071453Y-81637279D01*
X105088639Y-81646464D01*
X105120791Y-81663650D01*
X105174325Y-81679890D01*
X105216047Y-81683999D01*
X105216057Y-81683999D01*
X105229998Y-81685372D01*
X105243939Y-81683999D01*
X107034366Y-81683999D01*
X106972364Y-81746001D01*
X104516332Y-81746001D01*
X104502383Y-81744627D01*
X104488434Y-81746001D01*
X104488431Y-81746001D01*
X104446709Y-81750110D01*
X104393175Y-81766350D01*
X104343837Y-81792721D01*
X104325533Y-81807743D01*
X104300593Y-81828211D01*
X104291699Y-81839049D01*
X104075989Y-82054759D01*
X104068476Y-82016990D01*
X104034102Y-81934003D01*
X103984198Y-81859317D01*
X103920683Y-81795802D01*
X103845997Y-81745898D01*
X103763010Y-81711524D01*
X103674912Y-81694000D01*
X103585088Y-81694000D01*
X103496990Y-81711524D01*
X103414003Y-81745898D01*
X103339317Y-81795802D01*
X103275802Y-81859317D01*
X103225898Y-81934003D01*
X103191524Y-82016990D01*
X103174000Y-82105088D01*
X103174000Y-82194912D01*
X103191524Y-82283010D01*
X103225898Y-82365997D01*
X103275802Y-82440683D01*
X103339317Y-82504198D01*
X103380528Y-82531734D01*
X103305910Y-82581593D01*
X103242395Y-82645108D01*
X103192491Y-82719794D01*
X103158117Y-82802781D01*
X103140593Y-82890879D01*
X103140593Y-82980703D01*
X103158117Y-83068801D01*
X103192491Y-83151788D01*
X103242395Y-83226474D01*
X103305910Y-83289989D01*
X103380596Y-83339893D01*
X103463583Y-83374267D01*
X103551681Y-83391791D01*
X103641505Y-83391791D01*
X103729603Y-83374267D01*
X103812590Y-83339893D01*
X103887276Y-83289989D01*
X103950791Y-83226474D01*
X104000695Y-83151788D01*
X104035069Y-83068801D01*
X104052593Y-82980703D01*
X104052593Y-82890879D01*
X104051025Y-82882994D01*
X104620019Y-82314001D01*
X105423410Y-82314001D01*
X105416593Y-82318556D01*
X105342632Y-82392517D01*
X105284520Y-82479487D01*
X105244492Y-82576123D01*
X105224086Y-82678711D01*
X105224086Y-82783309D01*
X105244492Y-82885897D01*
X105284520Y-82982533D01*
X105342632Y-83069503D01*
X105416593Y-83143464D01*
X105503563Y-83201576D01*
X105600199Y-83241604D01*
X105702787Y-83262010D01*
X105807385Y-83262010D01*
X105909973Y-83241604D01*
X106006609Y-83201576D01*
X106093579Y-83143464D01*
X106167540Y-83069503D01*
X106225652Y-82982533D01*
X106265680Y-82885897D01*
X106286086Y-82783309D01*
X106286086Y-82678711D01*
X106279918Y-82647701D01*
X109819000Y-82647701D01*
X109819000Y-82752299D01*
X109839406Y-82854887D01*
X109879434Y-82951523D01*
X109937546Y-83038493D01*
X110011507Y-83112454D01*
X110098477Y-83170566D01*
X110195113Y-83210594D01*
X110297701Y-83231000D01*
X110402299Y-83231000D01*
X110504887Y-83210594D01*
X110601523Y-83170566D01*
X110688493Y-83112454D01*
X110762454Y-83038493D01*
X110820566Y-82951523D01*
X110860594Y-82854887D01*
X110881000Y-82752299D01*
X110881000Y-82647701D01*
X110860594Y-82545113D01*
X110820566Y-82448477D01*
X110762454Y-82361507D01*
X110688493Y-82287546D01*
X110601523Y-82229434D01*
X110504887Y-82189406D01*
X110402299Y-82169000D01*
X110297701Y-82169000D01*
X110195113Y-82189406D01*
X110098477Y-82229434D01*
X110011507Y-82287546D01*
X109937546Y-82361507D01*
X109879434Y-82448477D01*
X109839406Y-82545113D01*
X109819000Y-82647701D01*
X106279918Y-82647701D01*
X106265680Y-82576123D01*
X106225652Y-82479487D01*
X106167540Y-82392517D01*
X106093579Y-82318556D01*
X106086762Y-82314001D01*
X107076050Y-82314001D01*
X107089999Y-82315375D01*
X107103948Y-82314001D01*
X107103951Y-82314001D01*
X107145673Y-82309892D01*
X107199207Y-82293652D01*
X107248544Y-82267281D01*
X107291789Y-82231791D01*
X107300690Y-82220945D01*
X107373934Y-82147701D01*
X115769000Y-82147701D01*
X115769000Y-82252299D01*
X115789406Y-82354887D01*
X115829434Y-82451523D01*
X115887546Y-82538493D01*
X115961507Y-82612454D01*
X116048477Y-82670566D01*
X116145113Y-82710594D01*
X116247701Y-82731000D01*
X116352299Y-82731000D01*
X116454887Y-82710594D01*
X116551523Y-82670566D01*
X116638493Y-82612454D01*
X116712454Y-82538493D01*
X116770566Y-82451523D01*
X116810594Y-82354887D01*
X116831000Y-82252299D01*
X116831000Y-82147701D01*
X117369000Y-82147701D01*
X117369000Y-82252299D01*
X117389406Y-82354887D01*
X117429434Y-82451523D01*
X117487546Y-82538493D01*
X117561507Y-82612454D01*
X117648477Y-82670566D01*
X117745113Y-82710594D01*
X117847701Y-82731000D01*
X117952299Y-82731000D01*
X118054887Y-82710594D01*
X118151523Y-82670566D01*
X118238493Y-82612454D01*
X118312454Y-82538493D01*
X118370566Y-82451523D01*
X118410594Y-82354887D01*
X118431000Y-82252299D01*
X118431000Y-82147701D01*
X118410594Y-82045113D01*
X118370566Y-81948477D01*
X118312454Y-81861507D01*
X118238493Y-81787546D01*
X118151523Y-81729434D01*
X118054887Y-81689406D01*
X117952299Y-81669000D01*
X117847701Y-81669000D01*
X117745113Y-81689406D01*
X117648477Y-81729434D01*
X117561507Y-81787546D01*
X117487546Y-81861507D01*
X117429434Y-81948477D01*
X117389406Y-82045113D01*
X117369000Y-82147701D01*
X116831000Y-82147701D01*
X116810594Y-82045113D01*
X116770566Y-81948477D01*
X116712454Y-81861507D01*
X116638493Y-81787546D01*
X116551523Y-81729434D01*
X116454887Y-81689406D01*
X116352299Y-81669000D01*
X116247701Y-81669000D01*
X116145113Y-81689406D01*
X116048477Y-81729434D01*
X115961507Y-81787546D01*
X115887546Y-81861507D01*
X115829434Y-81948477D01*
X115789406Y-82045113D01*
X115769000Y-82147701D01*
X107373934Y-82147701D01*
X108547637Y-80974000D01*
X118515740Y-80974000D01*
X118500060Y-80997467D01*
X118460032Y-81094103D01*
X118439626Y-81196691D01*
X118439626Y-81301289D01*
X118460032Y-81403877D01*
X118500060Y-81500513D01*
X118558172Y-81587483D01*
X118632133Y-81661444D01*
X118719103Y-81719556D01*
X118815739Y-81759584D01*
X118918327Y-81779990D01*
X119022925Y-81779990D01*
X119125513Y-81759584D01*
X119222149Y-81719556D01*
X119309119Y-81661444D01*
X119321104Y-81649460D01*
X119333088Y-81661444D01*
X119420058Y-81719556D01*
X119516694Y-81759584D01*
X119619282Y-81779990D01*
X119723880Y-81779990D01*
X119826468Y-81759584D01*
X119923104Y-81719556D01*
X120010074Y-81661444D01*
X120013756Y-81657762D01*
X120017438Y-81661444D01*
X120104408Y-81719556D01*
X120201044Y-81759584D01*
X120303632Y-81779990D01*
X120408230Y-81779990D01*
X120510818Y-81759584D01*
X120607454Y-81719556D01*
X120694424Y-81661444D01*
X120768385Y-81587483D01*
X120826497Y-81500513D01*
X120827661Y-81497701D01*
X122044000Y-81497701D01*
X122044000Y-81602299D01*
X122064406Y-81704887D01*
X122104434Y-81801523D01*
X122162546Y-81888493D01*
X122236507Y-81962454D01*
X122323477Y-82020566D01*
X122420113Y-82060594D01*
X122522701Y-82081000D01*
X122627299Y-82081000D01*
X122729887Y-82060594D01*
X122826523Y-82020566D01*
X122913493Y-81962454D01*
X122987454Y-81888493D01*
X123045566Y-81801523D01*
X123085594Y-81704887D01*
X123106000Y-81602299D01*
X123106000Y-81497701D01*
X123085594Y-81395113D01*
X123045566Y-81298477D01*
X122987454Y-81211507D01*
X122913493Y-81137546D01*
X122826523Y-81079434D01*
X122729887Y-81039406D01*
X122627299Y-81019000D01*
X122522701Y-81019000D01*
X122420113Y-81039406D01*
X122323477Y-81079434D01*
X122236507Y-81137546D01*
X122162546Y-81211507D01*
X122104434Y-81298477D01*
X122064406Y-81395113D01*
X122044000Y-81497701D01*
X120827661Y-81497701D01*
X120866525Y-81403877D01*
X120886931Y-81301289D01*
X120886931Y-81196691D01*
X120866525Y-81094103D01*
X120826497Y-80997467D01*
X120810817Y-80974000D01*
X129022365Y-80974000D01*
X129339318Y-81290955D01*
X129348210Y-81301790D01*
X129359045Y-81310682D01*
X129359047Y-81310684D01*
X129391454Y-81337280D01*
X129435239Y-81360683D01*
X129440792Y-81363651D01*
X129494326Y-81379891D01*
X129536048Y-81384000D01*
X129536051Y-81384000D01*
X129550000Y-81385374D01*
X129563949Y-81384000D01*
X131396689Y-81384000D01*
X131410638Y-81385374D01*
X131424587Y-81384000D01*
X131424590Y-81384000D01*
X131466312Y-81379891D01*
X131519846Y-81363651D01*
X131569183Y-81337280D01*
X131603914Y-81308777D01*
X131611524Y-81347034D01*
X131645898Y-81430021D01*
X131695802Y-81504707D01*
X131759317Y-81568222D01*
X131834003Y-81618126D01*
X131916990Y-81652500D01*
X132005088Y-81670024D01*
X132094912Y-81670024D01*
X132183010Y-81652500D01*
X132265997Y-81618126D01*
X132340683Y-81568222D01*
X132404198Y-81504707D01*
X132454102Y-81430021D01*
X132488476Y-81347034D01*
X132506000Y-81258936D01*
X132506000Y-81169112D01*
X132488476Y-81081014D01*
X132482261Y-81066010D01*
X134078782Y-81066010D01*
X134078782Y-81073922D01*
X134096306Y-81162020D01*
X134130680Y-81245007D01*
X134180584Y-81319693D01*
X134244099Y-81383208D01*
X134318785Y-81433112D01*
X134401772Y-81467486D01*
X134489870Y-81485010D01*
X134579694Y-81485010D01*
X134667792Y-81467486D01*
X134750779Y-81433112D01*
X134825465Y-81383208D01*
X134888980Y-81319693D01*
X134938884Y-81245007D01*
X134973258Y-81162020D01*
X134990782Y-81073922D01*
X134990782Y-80984098D01*
X134973258Y-80896000D01*
X134938884Y-80813013D01*
X134934198Y-80806000D01*
X142223000Y-80806000D01*
X142223000Y-84523913D01*
X142145113Y-84539406D01*
X142048477Y-84579434D01*
X141961507Y-84637546D01*
X141887546Y-84711507D01*
X141829434Y-84798477D01*
X141789406Y-84895113D01*
X141769000Y-84997701D01*
X141769000Y-85102299D01*
X141789406Y-85204887D01*
X141829434Y-85301523D01*
X141887546Y-85388493D01*
X141961507Y-85462454D01*
X142048477Y-85520566D01*
X142145113Y-85560594D01*
X142223000Y-85576087D01*
X142223000Y-88369000D01*
X142210201Y-88369000D01*
X142107613Y-88389406D01*
X142010977Y-88429434D01*
X141924007Y-88487546D01*
X141850046Y-88561507D01*
X141791934Y-88648477D01*
X141751906Y-88745113D01*
X141731500Y-88847701D01*
X141731500Y-88952299D01*
X141751906Y-89054887D01*
X141791934Y-89151523D01*
X141820316Y-89194000D01*
X131036949Y-89194000D01*
X131052454Y-89178495D01*
X131110566Y-89091525D01*
X131150594Y-88994889D01*
X131171000Y-88892301D01*
X131171000Y-88787703D01*
X131150594Y-88685115D01*
X131110566Y-88588479D01*
X131052454Y-88501509D01*
X130978493Y-88427548D01*
X130891523Y-88369436D01*
X130794887Y-88329408D01*
X130692299Y-88309002D01*
X130587701Y-88309002D01*
X130485113Y-88329408D01*
X130388477Y-88369436D01*
X130301507Y-88427548D01*
X130227546Y-88501509D01*
X130169434Y-88588479D01*
X130129406Y-88685115D01*
X130109000Y-88787703D01*
X130109000Y-88892301D01*
X130129406Y-88994889D01*
X130169434Y-89091525D01*
X130227546Y-89178495D01*
X130301507Y-89252456D01*
X130388477Y-89310568D01*
X130485113Y-89350596D01*
X130577727Y-89369018D01*
X129927765Y-89694000D01*
X121740651Y-89694000D01*
X121776113Y-89686946D01*
X121907829Y-89632388D01*
X122026370Y-89553181D01*
X122127181Y-89452370D01*
X122206388Y-89333829D01*
X122260946Y-89202113D01*
X122288760Y-89062284D01*
X122288760Y-88919716D01*
X122260946Y-88779887D01*
X122206388Y-88648171D01*
X122127181Y-88529630D01*
X122026370Y-88428819D01*
X121907829Y-88349612D01*
X121776113Y-88295054D01*
X121636284Y-88267240D01*
X121493716Y-88267240D01*
X121353887Y-88295054D01*
X121222171Y-88349612D01*
X121103630Y-88428819D01*
X121002819Y-88529630D01*
X120923612Y-88648171D01*
X120869054Y-88779887D01*
X120841240Y-88919716D01*
X120841240Y-89062284D01*
X120869054Y-89202113D01*
X120923612Y-89333829D01*
X121002819Y-89452370D01*
X121103630Y-89553181D01*
X121222171Y-89632388D01*
X121353887Y-89686946D01*
X121389349Y-89694000D01*
X120231947Y-89694000D01*
X120287454Y-89638493D01*
X120345566Y-89551523D01*
X120385594Y-89454887D01*
X120406000Y-89352299D01*
X120406000Y-89247701D01*
X120385594Y-89145113D01*
X120345566Y-89048477D01*
X120287454Y-88961507D01*
X120213493Y-88887546D01*
X120126523Y-88829434D01*
X120029887Y-88789406D01*
X119927299Y-88769000D01*
X119822701Y-88769000D01*
X119720113Y-88789406D01*
X119623477Y-88829434D01*
X119536507Y-88887546D01*
X119462546Y-88961507D01*
X119404434Y-89048477D01*
X119364406Y-89145113D01*
X119344000Y-89247701D01*
X119344000Y-89352299D01*
X119364406Y-89454887D01*
X119404434Y-89551523D01*
X119462546Y-89638493D01*
X119518053Y-89694000D01*
X115662627Y-89694000D01*
X115704887Y-89685594D01*
X115801523Y-89645566D01*
X115888493Y-89587454D01*
X115962454Y-89513493D01*
X116020566Y-89426523D01*
X116060594Y-89329887D01*
X116081000Y-89227299D01*
X116081000Y-89122701D01*
X116060594Y-89020113D01*
X116020566Y-88923477D01*
X115962454Y-88836507D01*
X115888493Y-88762546D01*
X115801523Y-88704434D01*
X115704887Y-88664406D01*
X115602299Y-88644000D01*
X115497701Y-88644000D01*
X115395113Y-88664406D01*
X115298477Y-88704434D01*
X115211507Y-88762546D01*
X115137546Y-88836507D01*
X115079434Y-88923477D01*
X115039406Y-89020113D01*
X115019000Y-89122701D01*
X115019000Y-89227299D01*
X115039406Y-89329887D01*
X115079434Y-89426523D01*
X115137546Y-89513493D01*
X115211507Y-89587454D01*
X115298477Y-89645566D01*
X115395113Y-89685594D01*
X115437373Y-89694000D01*
X110100881Y-89694000D01*
X110154198Y-89640683D01*
X110204102Y-89565997D01*
X110238476Y-89483010D01*
X110256000Y-89394912D01*
X110256000Y-89305088D01*
X110238476Y-89216990D01*
X110204102Y-89134003D01*
X110154198Y-89059317D01*
X110090683Y-88995802D01*
X110015997Y-88945898D01*
X109933010Y-88911524D01*
X109844912Y-88894000D01*
X109755088Y-88894000D01*
X109666990Y-88911524D01*
X109584003Y-88945898D01*
X109509317Y-88995802D01*
X109445802Y-89059317D01*
X109395898Y-89134003D01*
X109361524Y-89216990D01*
X109344000Y-89305088D01*
X109344000Y-89394912D01*
X109361524Y-89483010D01*
X109395898Y-89565997D01*
X109445802Y-89640683D01*
X109499119Y-89694000D01*
X88258618Y-89694000D01*
X88313623Y-89591095D01*
X88355422Y-89453301D01*
X88369536Y-89310000D01*
X88355422Y-89166699D01*
X88313623Y-89028905D01*
X88245744Y-88901914D01*
X88154395Y-88790605D01*
X88043086Y-88699256D01*
X87916095Y-88631377D01*
X87778301Y-88589578D01*
X87670901Y-88579000D01*
X86499099Y-88579000D01*
X86391699Y-88589578D01*
X86253905Y-88631377D01*
X86126914Y-88699256D01*
X86015605Y-88790605D01*
X85924256Y-88901914D01*
X85856377Y-89028905D01*
X85814578Y-89166699D01*
X85800464Y-89310000D01*
X85814578Y-89453301D01*
X85856377Y-89591095D01*
X85911382Y-89694000D01*
X83828618Y-89694000D01*
X83883623Y-89591095D01*
X83925422Y-89453301D01*
X83939536Y-89310000D01*
X83925422Y-89166699D01*
X83883623Y-89028905D01*
X83815744Y-88901914D01*
X83724395Y-88790605D01*
X83697000Y-88768122D01*
X83697000Y-88490964D01*
X89878124Y-88490964D01*
X89878124Y-88580788D01*
X89895648Y-88668886D01*
X89930022Y-88751873D01*
X89979926Y-88826559D01*
X90043441Y-88890074D01*
X90118127Y-88939978D01*
X90201114Y-88974352D01*
X90289212Y-88991876D01*
X90379036Y-88991876D01*
X90467134Y-88974352D01*
X90550121Y-88939978D01*
X90624807Y-88890074D01*
X90688322Y-88826559D01*
X90738226Y-88751873D01*
X90772600Y-88668886D01*
X90790124Y-88580788D01*
X90790124Y-88490964D01*
X90787961Y-88480088D01*
X92969000Y-88480088D01*
X92969000Y-88569912D01*
X92986524Y-88658010D01*
X93020898Y-88740997D01*
X93070802Y-88815683D01*
X93134317Y-88879198D01*
X93209003Y-88929102D01*
X93291990Y-88963476D01*
X93380088Y-88981000D01*
X93469912Y-88981000D01*
X93558010Y-88963476D01*
X93640997Y-88929102D01*
X93715683Y-88879198D01*
X93779198Y-88815683D01*
X93829102Y-88740997D01*
X93863476Y-88658010D01*
X93881000Y-88569912D01*
X93881000Y-88480088D01*
X93863476Y-88391990D01*
X93829102Y-88309003D01*
X93806441Y-88275088D01*
X96874000Y-88275088D01*
X96874000Y-88364912D01*
X96891524Y-88453010D01*
X96925898Y-88535997D01*
X96975802Y-88610683D01*
X97039317Y-88674198D01*
X97114003Y-88724102D01*
X97196990Y-88758476D01*
X97285088Y-88776000D01*
X97374912Y-88776000D01*
X97463010Y-88758476D01*
X97545997Y-88724102D01*
X97620683Y-88674198D01*
X97684198Y-88610683D01*
X97734102Y-88535997D01*
X97768476Y-88453010D01*
X97786000Y-88364912D01*
X97786000Y-88275088D01*
X97768476Y-88186990D01*
X97734102Y-88104003D01*
X97684198Y-88029317D01*
X97620683Y-87965802D01*
X97545997Y-87915898D01*
X97463010Y-87881524D01*
X97374912Y-87864000D01*
X97285088Y-87864000D01*
X97196990Y-87881524D01*
X97114003Y-87915898D01*
X97039317Y-87965802D01*
X96975802Y-88029317D01*
X96925898Y-88104003D01*
X96891524Y-88186990D01*
X96874000Y-88275088D01*
X93806441Y-88275088D01*
X93779198Y-88234317D01*
X93715683Y-88170802D01*
X93640997Y-88120898D01*
X93558010Y-88086524D01*
X93469912Y-88069000D01*
X93380088Y-88069000D01*
X93291990Y-88086524D01*
X93209003Y-88120898D01*
X93134317Y-88170802D01*
X93070802Y-88234317D01*
X93020898Y-88309003D01*
X92986524Y-88391990D01*
X92969000Y-88480088D01*
X90787961Y-88480088D01*
X90772600Y-88402866D01*
X90738226Y-88319879D01*
X90688322Y-88245193D01*
X90624807Y-88181678D01*
X90550121Y-88131774D01*
X90467134Y-88097400D01*
X90379036Y-88079876D01*
X90289212Y-88079876D01*
X90201114Y-88097400D01*
X90118127Y-88131774D01*
X90043441Y-88181678D01*
X89979926Y-88245193D01*
X89930022Y-88319879D01*
X89895648Y-88402866D01*
X89878124Y-88490964D01*
X83697000Y-88490964D01*
X83697000Y-87825239D01*
X85999000Y-87825239D01*
X85999000Y-87934761D01*
X86020367Y-88042179D01*
X86062279Y-88143365D01*
X86123127Y-88234429D01*
X86200571Y-88311873D01*
X86291635Y-88372721D01*
X86392821Y-88414633D01*
X86500239Y-88436000D01*
X86609761Y-88436000D01*
X86717179Y-88414633D01*
X86818365Y-88372721D01*
X86909429Y-88311873D01*
X86986873Y-88234429D01*
X87047721Y-88143365D01*
X87089633Y-88042179D01*
X87111000Y-87934761D01*
X87111000Y-87825239D01*
X87109802Y-87819212D01*
X90549876Y-87819212D01*
X90549876Y-87909036D01*
X90567400Y-87997134D01*
X90601774Y-88080121D01*
X90651678Y-88154807D01*
X90715193Y-88218322D01*
X90789879Y-88268226D01*
X90872866Y-88302600D01*
X90960964Y-88320124D01*
X91050788Y-88320124D01*
X91138886Y-88302600D01*
X91221873Y-88268226D01*
X91296559Y-88218322D01*
X91360074Y-88154807D01*
X91409978Y-88080121D01*
X91444352Y-87997134D01*
X91461876Y-87909036D01*
X91461876Y-87819212D01*
X91444352Y-87731114D01*
X91409978Y-87648127D01*
X91360074Y-87573441D01*
X91296559Y-87509926D01*
X91293230Y-87507701D01*
X95689000Y-87507701D01*
X95689000Y-87612299D01*
X95709406Y-87714887D01*
X95749434Y-87811523D01*
X95807546Y-87898493D01*
X95881507Y-87972454D01*
X95968477Y-88030566D01*
X96065113Y-88070594D01*
X96167701Y-88091000D01*
X96272299Y-88091000D01*
X96374887Y-88070594D01*
X96471523Y-88030566D01*
X96558493Y-87972454D01*
X96632454Y-87898493D01*
X96666392Y-87847701D01*
X101318996Y-87847701D01*
X101318996Y-87952299D01*
X101339402Y-88054887D01*
X101379430Y-88151523D01*
X101437542Y-88238493D01*
X101511503Y-88312454D01*
X101598473Y-88370566D01*
X101695109Y-88410594D01*
X101797697Y-88431000D01*
X101902295Y-88431000D01*
X102004883Y-88410594D01*
X102016095Y-88405950D01*
X102011522Y-88416990D01*
X101993998Y-88505088D01*
X101993998Y-88594912D01*
X102011522Y-88683010D01*
X102045896Y-88765997D01*
X102095800Y-88840683D01*
X102159315Y-88904198D01*
X102234001Y-88954102D01*
X102316988Y-88988476D01*
X102405086Y-89006000D01*
X102494910Y-89006000D01*
X102583008Y-88988476D01*
X102665995Y-88954102D01*
X102740681Y-88904198D01*
X102796217Y-88848662D01*
X103969000Y-88848662D01*
X103969000Y-88953260D01*
X103989406Y-89055848D01*
X104029434Y-89152484D01*
X104087546Y-89239454D01*
X104161507Y-89313415D01*
X104248477Y-89371527D01*
X104345113Y-89411555D01*
X104447701Y-89431961D01*
X104552299Y-89431961D01*
X104654887Y-89411555D01*
X104751523Y-89371527D01*
X104838493Y-89313415D01*
X104912454Y-89239454D01*
X104970566Y-89152484D01*
X105010594Y-89055848D01*
X105031000Y-88953260D01*
X105031000Y-88848662D01*
X105010594Y-88746074D01*
X104970566Y-88649438D01*
X104912454Y-88562468D01*
X104838493Y-88488507D01*
X104777424Y-88447701D01*
X111544000Y-88447701D01*
X111544000Y-88552299D01*
X111564406Y-88654887D01*
X111604434Y-88751523D01*
X111662546Y-88838493D01*
X111736507Y-88912454D01*
X111823477Y-88970566D01*
X111920113Y-89010594D01*
X112022701Y-89031000D01*
X112127299Y-89031000D01*
X112229887Y-89010594D01*
X112326523Y-88970566D01*
X112413493Y-88912454D01*
X112487454Y-88838493D01*
X112545566Y-88751523D01*
X112585594Y-88654887D01*
X112606000Y-88552299D01*
X112606000Y-88447701D01*
X112585594Y-88345113D01*
X112545566Y-88248477D01*
X112487454Y-88161507D01*
X112413493Y-88087546D01*
X112326523Y-88029434D01*
X112229887Y-87989406D01*
X112127299Y-87969000D01*
X112022701Y-87969000D01*
X111920113Y-87989406D01*
X111823477Y-88029434D01*
X111736507Y-88087546D01*
X111662546Y-88161507D01*
X111604434Y-88248477D01*
X111564406Y-88345113D01*
X111544000Y-88447701D01*
X104777424Y-88447701D01*
X104751523Y-88430395D01*
X104654887Y-88390367D01*
X104552299Y-88369961D01*
X104447701Y-88369961D01*
X104345113Y-88390367D01*
X104248477Y-88430395D01*
X104161507Y-88488507D01*
X104087546Y-88562468D01*
X104029434Y-88649438D01*
X103989406Y-88746074D01*
X103969000Y-88848662D01*
X102796217Y-88848662D01*
X102804196Y-88840683D01*
X102854100Y-88765997D01*
X102888474Y-88683010D01*
X102905998Y-88594912D01*
X102905998Y-88505088D01*
X102888474Y-88416990D01*
X102854100Y-88334003D01*
X102804196Y-88259317D01*
X102740681Y-88195802D01*
X102665995Y-88145898D01*
X102583008Y-88111524D01*
X102494910Y-88094000D01*
X102405086Y-88094000D01*
X102338939Y-88107158D01*
X102360590Y-88054887D01*
X102380996Y-87952299D01*
X102380996Y-87847701D01*
X102360590Y-87745113D01*
X102320562Y-87648477D01*
X102262450Y-87561507D01*
X102188489Y-87487546D01*
X102101519Y-87429434D01*
X102004883Y-87389406D01*
X101902295Y-87369000D01*
X101797697Y-87369000D01*
X101695109Y-87389406D01*
X101598473Y-87429434D01*
X101511503Y-87487546D01*
X101437542Y-87561507D01*
X101379430Y-87648477D01*
X101339402Y-87745113D01*
X101318996Y-87847701D01*
X96666392Y-87847701D01*
X96690566Y-87811523D01*
X96730594Y-87714887D01*
X96751000Y-87612299D01*
X96751000Y-87507701D01*
X96730594Y-87405113D01*
X96690566Y-87308477D01*
X96688302Y-87305088D01*
X100094000Y-87305088D01*
X100094000Y-87394912D01*
X100111524Y-87483010D01*
X100145898Y-87565997D01*
X100195802Y-87640683D01*
X100259317Y-87704198D01*
X100334003Y-87754102D01*
X100416990Y-87788476D01*
X100505088Y-87806000D01*
X100594912Y-87806000D01*
X100683010Y-87788476D01*
X100765997Y-87754102D01*
X100840683Y-87704198D01*
X100904198Y-87640683D01*
X100954102Y-87565997D01*
X100988476Y-87483010D01*
X101006000Y-87394912D01*
X101006000Y-87305088D01*
X100994585Y-87247701D01*
X105219000Y-87247701D01*
X105219000Y-87352299D01*
X105239406Y-87454887D01*
X105279434Y-87551523D01*
X105337546Y-87638493D01*
X105411507Y-87712454D01*
X105498477Y-87770566D01*
X105595113Y-87810594D01*
X105697701Y-87831000D01*
X105802299Y-87831000D01*
X105904887Y-87810594D01*
X106001523Y-87770566D01*
X106088493Y-87712454D01*
X106162454Y-87638493D01*
X106220566Y-87551523D01*
X106260594Y-87454887D01*
X106281000Y-87352299D01*
X106281000Y-87247701D01*
X109819000Y-87247701D01*
X109819000Y-87352299D01*
X109839406Y-87454887D01*
X109879434Y-87551523D01*
X109937546Y-87638493D01*
X110011507Y-87712454D01*
X110098477Y-87770566D01*
X110195113Y-87810594D01*
X110297701Y-87831000D01*
X110402299Y-87831000D01*
X110504887Y-87810594D01*
X110601523Y-87770566D01*
X110688493Y-87712454D01*
X110762454Y-87638493D01*
X110820566Y-87551523D01*
X110860594Y-87454887D01*
X110881000Y-87352299D01*
X110881000Y-87247701D01*
X110875313Y-87219109D01*
X115144000Y-87219109D01*
X115144000Y-87308933D01*
X115161524Y-87397031D01*
X115195898Y-87480018D01*
X115245802Y-87554704D01*
X115309317Y-87618219D01*
X115384003Y-87668123D01*
X115466990Y-87702497D01*
X115555088Y-87720021D01*
X115644912Y-87720021D01*
X115733010Y-87702497D01*
X115815997Y-87668123D01*
X115831690Y-87657637D01*
X115787833Y-87763517D01*
X115759970Y-87903591D01*
X115759970Y-88046409D01*
X115787833Y-88186483D01*
X115842487Y-88318430D01*
X115921833Y-88437180D01*
X116022820Y-88538167D01*
X116141570Y-88617513D01*
X116273517Y-88672167D01*
X116413591Y-88700030D01*
X116524023Y-88700030D01*
X116512546Y-88711507D01*
X116454434Y-88798477D01*
X116414406Y-88895113D01*
X116394000Y-88997701D01*
X116394000Y-89102299D01*
X116414406Y-89204887D01*
X116454434Y-89301523D01*
X116512546Y-89388493D01*
X116586507Y-89462454D01*
X116673477Y-89520566D01*
X116770113Y-89560594D01*
X116872701Y-89581000D01*
X116977299Y-89581000D01*
X117079887Y-89560594D01*
X117176523Y-89520566D01*
X117263493Y-89462454D01*
X117337454Y-89388493D01*
X117395566Y-89301523D01*
X117435594Y-89204887D01*
X117456000Y-89102299D01*
X117456000Y-88997701D01*
X117435594Y-88895113D01*
X117395566Y-88798477D01*
X117337454Y-88711507D01*
X117263493Y-88637546D01*
X117176523Y-88579434D01*
X117079887Y-88539406D01*
X116977299Y-88519000D01*
X116966347Y-88519000D01*
X117048167Y-88437180D01*
X117127513Y-88318430D01*
X117165094Y-88227701D01*
X133529000Y-88227701D01*
X133529000Y-88332299D01*
X133549406Y-88434887D01*
X133589434Y-88531523D01*
X133647546Y-88618493D01*
X133721507Y-88692454D01*
X133808477Y-88750566D01*
X133905113Y-88790594D01*
X134007701Y-88811000D01*
X134112299Y-88811000D01*
X134214887Y-88790594D01*
X134311523Y-88750566D01*
X134398493Y-88692454D01*
X134472454Y-88618493D01*
X134530566Y-88531523D01*
X134570132Y-88436002D01*
X134571526Y-88443010D01*
X134605900Y-88525997D01*
X134655804Y-88600683D01*
X134719319Y-88664198D01*
X134794005Y-88714102D01*
X134876992Y-88748476D01*
X134965090Y-88766000D01*
X135054914Y-88766000D01*
X135143012Y-88748476D01*
X135225999Y-88714102D01*
X135300685Y-88664198D01*
X135364200Y-88600683D01*
X135414104Y-88525997D01*
X135448478Y-88443010D01*
X135466002Y-88354912D01*
X135466002Y-88265088D01*
X135448478Y-88176990D01*
X135414104Y-88094003D01*
X135364200Y-88019317D01*
X135300685Y-87955802D01*
X135225999Y-87905898D01*
X135143012Y-87871524D01*
X135054914Y-87854000D01*
X134965090Y-87854000D01*
X134876992Y-87871524D01*
X134794005Y-87905898D01*
X134719319Y-87955802D01*
X134655804Y-88019317D01*
X134605900Y-88094003D01*
X134577868Y-88161680D01*
X134570594Y-88125113D01*
X134530566Y-88028477D01*
X134472454Y-87941507D01*
X134398493Y-87867546D01*
X134311523Y-87809434D01*
X134214887Y-87769406D01*
X134112299Y-87749000D01*
X134007701Y-87749000D01*
X133905113Y-87769406D01*
X133808477Y-87809434D01*
X133721507Y-87867546D01*
X133647546Y-87941507D01*
X133589434Y-88028477D01*
X133549406Y-88125113D01*
X133529000Y-88227701D01*
X117165094Y-88227701D01*
X117182167Y-88186483D01*
X117210030Y-88046409D01*
X117210030Y-87903591D01*
X117182167Y-87763517D01*
X117127513Y-87631570D01*
X117048167Y-87512820D01*
X116947180Y-87411833D01*
X116828430Y-87332487D01*
X116696483Y-87277833D01*
X116556409Y-87249970D01*
X116413591Y-87249970D01*
X116273517Y-87277833D01*
X116141570Y-87332487D01*
X116035990Y-87403033D01*
X116038476Y-87397031D01*
X116056000Y-87308933D01*
X116056000Y-87219109D01*
X116038476Y-87131011D01*
X116004102Y-87048024D01*
X115954198Y-86973338D01*
X115890683Y-86909823D01*
X115815997Y-86859919D01*
X115733010Y-86825545D01*
X115644912Y-86808021D01*
X115555088Y-86808021D01*
X115466990Y-86825545D01*
X115384003Y-86859919D01*
X115309317Y-86909823D01*
X115245802Y-86973338D01*
X115195898Y-87048024D01*
X115161524Y-87131011D01*
X115144000Y-87219109D01*
X110875313Y-87219109D01*
X110860594Y-87145113D01*
X110820566Y-87048477D01*
X110762454Y-86961507D01*
X110688493Y-86887546D01*
X110601523Y-86829434D01*
X110504887Y-86789406D01*
X110402299Y-86769000D01*
X110297701Y-86769000D01*
X110195113Y-86789406D01*
X110098477Y-86829434D01*
X110011507Y-86887546D01*
X109937546Y-86961507D01*
X109879434Y-87048477D01*
X109839406Y-87145113D01*
X109819000Y-87247701D01*
X106281000Y-87247701D01*
X106260594Y-87145113D01*
X106220566Y-87048477D01*
X106162454Y-86961507D01*
X106088493Y-86887546D01*
X106001523Y-86829434D01*
X105904887Y-86789406D01*
X105802299Y-86769000D01*
X105697701Y-86769000D01*
X105595113Y-86789406D01*
X105498477Y-86829434D01*
X105411507Y-86887546D01*
X105337546Y-86961507D01*
X105279434Y-87048477D01*
X105239406Y-87145113D01*
X105219000Y-87247701D01*
X100994585Y-87247701D01*
X100988476Y-87216990D01*
X100954102Y-87134003D01*
X100904198Y-87059317D01*
X100840683Y-86995802D01*
X100765997Y-86945898D01*
X100683010Y-86911524D01*
X100594912Y-86894000D01*
X100505088Y-86894000D01*
X100416990Y-86911524D01*
X100334003Y-86945898D01*
X100259317Y-86995802D01*
X100195802Y-87059317D01*
X100145898Y-87134003D01*
X100111524Y-87216990D01*
X100094000Y-87305088D01*
X96688302Y-87305088D01*
X96632454Y-87221507D01*
X96558493Y-87147546D01*
X96471523Y-87089434D01*
X96374887Y-87049406D01*
X96272299Y-87029000D01*
X96167701Y-87029000D01*
X96065113Y-87049406D01*
X95968477Y-87089434D01*
X95881507Y-87147546D01*
X95807546Y-87221507D01*
X95749434Y-87308477D01*
X95709406Y-87405113D01*
X95689000Y-87507701D01*
X91293230Y-87507701D01*
X91221873Y-87460022D01*
X91138886Y-87425648D01*
X91050788Y-87408124D01*
X90960964Y-87408124D01*
X90872866Y-87425648D01*
X90789879Y-87460022D01*
X90715193Y-87509926D01*
X90651678Y-87573441D01*
X90601774Y-87648127D01*
X90567400Y-87731114D01*
X90549876Y-87819212D01*
X87109802Y-87819212D01*
X87089633Y-87717821D01*
X87047721Y-87616635D01*
X86986873Y-87525571D01*
X86909429Y-87448127D01*
X86818365Y-87387279D01*
X86717179Y-87345367D01*
X86609761Y-87324000D01*
X86500239Y-87324000D01*
X86392821Y-87345367D01*
X86291635Y-87387279D01*
X86200571Y-87448127D01*
X86123127Y-87525571D01*
X86062279Y-87616635D01*
X86020367Y-87717821D01*
X85999000Y-87825239D01*
X83697000Y-87825239D01*
X83697000Y-85705088D01*
X88944000Y-85705088D01*
X88944000Y-85794912D01*
X88961524Y-85883010D01*
X88995898Y-85965997D01*
X89045802Y-86040683D01*
X89109317Y-86104198D01*
X89165449Y-86141705D01*
X89159317Y-86145802D01*
X89095802Y-86209317D01*
X89045898Y-86284003D01*
X89011524Y-86366990D01*
X88994000Y-86455088D01*
X88994000Y-86544912D01*
X89011524Y-86633010D01*
X89045898Y-86715997D01*
X89095802Y-86790683D01*
X89159317Y-86854198D01*
X89234003Y-86904102D01*
X89316990Y-86938476D01*
X89405088Y-86956000D01*
X89494912Y-86956000D01*
X89583010Y-86938476D01*
X89665997Y-86904102D01*
X89740683Y-86854198D01*
X89804198Y-86790683D01*
X89854102Y-86715997D01*
X89888476Y-86633010D01*
X89894030Y-86605088D01*
X90544000Y-86605088D01*
X90544000Y-86694912D01*
X90561524Y-86783010D01*
X90595898Y-86865997D01*
X90645802Y-86940683D01*
X90709317Y-87004198D01*
X90784003Y-87054102D01*
X90866990Y-87088476D01*
X90955088Y-87106000D01*
X91044912Y-87106000D01*
X91133010Y-87088476D01*
X91215997Y-87054102D01*
X91290683Y-87004198D01*
X91354198Y-86940683D01*
X91404102Y-86865997D01*
X91438476Y-86783010D01*
X91456000Y-86694912D01*
X91456000Y-86605088D01*
X91438476Y-86516990D01*
X91404102Y-86434003D01*
X91354198Y-86359317D01*
X91290683Y-86295802D01*
X91215997Y-86245898D01*
X91133010Y-86211524D01*
X91044912Y-86194000D01*
X90955088Y-86194000D01*
X90866990Y-86211524D01*
X90784003Y-86245898D01*
X90709317Y-86295802D01*
X90645802Y-86359317D01*
X90595898Y-86434003D01*
X90561524Y-86516990D01*
X90544000Y-86605088D01*
X89894030Y-86605088D01*
X89906000Y-86544912D01*
X89906000Y-86455088D01*
X89888476Y-86366990D01*
X89854102Y-86284003D01*
X89804198Y-86209317D01*
X89740683Y-86145802D01*
X89684551Y-86108295D01*
X89690683Y-86104198D01*
X89739793Y-86055088D01*
X93364000Y-86055088D01*
X93364000Y-86144912D01*
X93381524Y-86233010D01*
X93415898Y-86315997D01*
X93465802Y-86390683D01*
X93529317Y-86454198D01*
X93604003Y-86504102D01*
X93686990Y-86538476D01*
X93775088Y-86556000D01*
X93864912Y-86556000D01*
X93953010Y-86538476D01*
X94035997Y-86504102D01*
X94110683Y-86454198D01*
X94174198Y-86390683D01*
X94224102Y-86315997D01*
X94258476Y-86233010D01*
X94274773Y-86151078D01*
X102490177Y-86151078D01*
X102490177Y-86240902D01*
X102507701Y-86329000D01*
X102542075Y-86411987D01*
X102591979Y-86486673D01*
X102655494Y-86550188D01*
X102730180Y-86600092D01*
X102813167Y-86634466D01*
X102901265Y-86651990D01*
X102991089Y-86651990D01*
X103079187Y-86634466D01*
X103162174Y-86600092D01*
X103236860Y-86550188D01*
X103300375Y-86486673D01*
X103350279Y-86411987D01*
X103356196Y-86397701D01*
X111969000Y-86397701D01*
X111969000Y-86502299D01*
X111989406Y-86604887D01*
X112029434Y-86701523D01*
X112087546Y-86788493D01*
X112161507Y-86862454D01*
X112248477Y-86920566D01*
X112345113Y-86960594D01*
X112447701Y-86981000D01*
X112552299Y-86981000D01*
X112654887Y-86960594D01*
X112751523Y-86920566D01*
X112838493Y-86862454D01*
X112912454Y-86788493D01*
X112970566Y-86701523D01*
X113010594Y-86604887D01*
X113017712Y-86569100D01*
X119194000Y-86569100D01*
X119194000Y-86658924D01*
X119211524Y-86747022D01*
X119245898Y-86830009D01*
X119295802Y-86904695D01*
X119359317Y-86968210D01*
X119434003Y-87018114D01*
X119516990Y-87052488D01*
X119605088Y-87070012D01*
X119694912Y-87070012D01*
X119783010Y-87052488D01*
X119865997Y-87018114D01*
X119940683Y-86968210D01*
X120004198Y-86904695D01*
X120015543Y-86887716D01*
X120841240Y-86887716D01*
X120841240Y-87030284D01*
X120869054Y-87170113D01*
X120923612Y-87301829D01*
X121002819Y-87420370D01*
X121103630Y-87521181D01*
X121222171Y-87600388D01*
X121353887Y-87654946D01*
X121493716Y-87682760D01*
X121636284Y-87682760D01*
X121776113Y-87654946D01*
X121907829Y-87600388D01*
X122026370Y-87521181D01*
X122127181Y-87420370D01*
X122206388Y-87301829D01*
X122260946Y-87170113D01*
X122288760Y-87030284D01*
X122288760Y-86947701D01*
X128969000Y-86947701D01*
X128969000Y-87052299D01*
X128989406Y-87154887D01*
X129029434Y-87251523D01*
X129087546Y-87338493D01*
X129161507Y-87412454D01*
X129248477Y-87470566D01*
X129345113Y-87510594D01*
X129447701Y-87531000D01*
X129552299Y-87531000D01*
X129654887Y-87510594D01*
X129751523Y-87470566D01*
X129813990Y-87428827D01*
X129813990Y-87475421D01*
X129831514Y-87563519D01*
X129865888Y-87646506D01*
X129915792Y-87721192D01*
X129979307Y-87784707D01*
X130053993Y-87834611D01*
X130136980Y-87868985D01*
X130225078Y-87886509D01*
X130314902Y-87886509D01*
X130403000Y-87868985D01*
X130485987Y-87834611D01*
X130560673Y-87784707D01*
X130624188Y-87721192D01*
X130674092Y-87646506D01*
X130708466Y-87563519D01*
X130725990Y-87475421D01*
X130725990Y-87385597D01*
X130708466Y-87297499D01*
X130674092Y-87214512D01*
X130624188Y-87139826D01*
X130560673Y-87076311D01*
X130485987Y-87026407D01*
X130403000Y-86992033D01*
X130314902Y-86974509D01*
X130225078Y-86974509D01*
X130136980Y-86992033D01*
X130053993Y-87026407D01*
X130031000Y-87041771D01*
X130031000Y-86947701D01*
X130010594Y-86845113D01*
X129970566Y-86748477D01*
X129953343Y-86722701D01*
X140119000Y-86722701D01*
X140119000Y-86827299D01*
X140139406Y-86929887D01*
X140179434Y-87026523D01*
X140237546Y-87113493D01*
X140311507Y-87187454D01*
X140398477Y-87245566D01*
X140495113Y-87285594D01*
X140597701Y-87306000D01*
X140702299Y-87306000D01*
X140804887Y-87285594D01*
X140901523Y-87245566D01*
X140988493Y-87187454D01*
X141062454Y-87113493D01*
X141120566Y-87026523D01*
X141160594Y-86929887D01*
X141181000Y-86827299D01*
X141181000Y-86722701D01*
X141160594Y-86620113D01*
X141120566Y-86523477D01*
X141062454Y-86436507D01*
X140988493Y-86362546D01*
X140901523Y-86304434D01*
X140804887Y-86264406D01*
X140702299Y-86244000D01*
X140597701Y-86244000D01*
X140495113Y-86264406D01*
X140398477Y-86304434D01*
X140311507Y-86362546D01*
X140237546Y-86436507D01*
X140179434Y-86523477D01*
X140139406Y-86620113D01*
X140119000Y-86722701D01*
X129953343Y-86722701D01*
X129912454Y-86661507D01*
X129838493Y-86587546D01*
X129751523Y-86529434D01*
X129654887Y-86489406D01*
X129552299Y-86469000D01*
X129447701Y-86469000D01*
X129345113Y-86489406D01*
X129248477Y-86529434D01*
X129161507Y-86587546D01*
X129087546Y-86661507D01*
X129029434Y-86748477D01*
X128989406Y-86845113D01*
X128969000Y-86947701D01*
X122288760Y-86947701D01*
X122288760Y-86887716D01*
X122260946Y-86747887D01*
X122206388Y-86616171D01*
X122127181Y-86497630D01*
X122026370Y-86396819D01*
X121907829Y-86317612D01*
X121776113Y-86263054D01*
X121636284Y-86235240D01*
X121493716Y-86235240D01*
X121353887Y-86263054D01*
X121222171Y-86317612D01*
X121103630Y-86396819D01*
X121002819Y-86497630D01*
X120923612Y-86616171D01*
X120869054Y-86747887D01*
X120841240Y-86887716D01*
X120015543Y-86887716D01*
X120054102Y-86830009D01*
X120088476Y-86747022D01*
X120106000Y-86658924D01*
X120106000Y-86569100D01*
X120088476Y-86481002D01*
X120054102Y-86398015D01*
X120004198Y-86323329D01*
X119940683Y-86259814D01*
X119865997Y-86209910D01*
X119820336Y-86190997D01*
X119833010Y-86188476D01*
X119915997Y-86154102D01*
X119990683Y-86104198D01*
X120054198Y-86040683D01*
X120104102Y-85965997D01*
X120138476Y-85883010D01*
X120156000Y-85794912D01*
X120156000Y-85705088D01*
X120138476Y-85616990D01*
X120123191Y-85580088D01*
X120194000Y-85580088D01*
X120194000Y-85669912D01*
X120211524Y-85758010D01*
X120245898Y-85840997D01*
X120295802Y-85915683D01*
X120359317Y-85979198D01*
X120434003Y-86029102D01*
X120516990Y-86063476D01*
X120605088Y-86081000D01*
X120694912Y-86081000D01*
X120783010Y-86063476D01*
X120865997Y-86029102D01*
X120940683Y-85979198D01*
X121004198Y-85915683D01*
X121054102Y-85840997D01*
X121088476Y-85758010D01*
X121106000Y-85669912D01*
X121106000Y-85622701D01*
X122869000Y-85622701D01*
X122869000Y-85727299D01*
X122889406Y-85829887D01*
X122929434Y-85926523D01*
X122987546Y-86013493D01*
X123061507Y-86087454D01*
X123148477Y-86145566D01*
X123245113Y-86185594D01*
X123347701Y-86206000D01*
X123452299Y-86206000D01*
X123554887Y-86185594D01*
X123651523Y-86145566D01*
X123738493Y-86087454D01*
X123812454Y-86013493D01*
X123870566Y-85926523D01*
X123910594Y-85829887D01*
X123931000Y-85727299D01*
X123931000Y-85622701D01*
X123910594Y-85520113D01*
X123870566Y-85423477D01*
X123812454Y-85336507D01*
X123738493Y-85262546D01*
X123716277Y-85247701D01*
X136419000Y-85247701D01*
X136419000Y-85352299D01*
X136439406Y-85454887D01*
X136479434Y-85551523D01*
X136537546Y-85638493D01*
X136611507Y-85712454D01*
X136698477Y-85770566D01*
X136795113Y-85810594D01*
X136897701Y-85831000D01*
X137002299Y-85831000D01*
X137104887Y-85810594D01*
X137201523Y-85770566D01*
X137288493Y-85712454D01*
X137362454Y-85638493D01*
X137420566Y-85551523D01*
X137460594Y-85454887D01*
X137481000Y-85352299D01*
X137481000Y-85247701D01*
X137460594Y-85145113D01*
X137450901Y-85121711D01*
X139769000Y-85121711D01*
X139769000Y-85226309D01*
X139789406Y-85328897D01*
X139829434Y-85425533D01*
X139887546Y-85512503D01*
X139961507Y-85586464D01*
X140048477Y-85644576D01*
X140145113Y-85684604D01*
X140247701Y-85705010D01*
X140352299Y-85705010D01*
X140454887Y-85684604D01*
X140551523Y-85644576D01*
X140638493Y-85586464D01*
X140712454Y-85512503D01*
X140770566Y-85425533D01*
X140810594Y-85328897D01*
X140831000Y-85226309D01*
X140831000Y-85121711D01*
X140810594Y-85019123D01*
X140770566Y-84922487D01*
X140712454Y-84835517D01*
X140638493Y-84761556D01*
X140551523Y-84703444D01*
X140454887Y-84663416D01*
X140352299Y-84643010D01*
X140247701Y-84643010D01*
X140145113Y-84663416D01*
X140048477Y-84703444D01*
X139961507Y-84761556D01*
X139887546Y-84835517D01*
X139829434Y-84922487D01*
X139789406Y-85019123D01*
X139769000Y-85121711D01*
X137450901Y-85121711D01*
X137420566Y-85048477D01*
X137362454Y-84961507D01*
X137288493Y-84887546D01*
X137201523Y-84829434D01*
X137104887Y-84789406D01*
X137002299Y-84769000D01*
X136897701Y-84769000D01*
X136795113Y-84789406D01*
X136698477Y-84829434D01*
X136611507Y-84887546D01*
X136537546Y-84961507D01*
X136479434Y-85048477D01*
X136439406Y-85145113D01*
X136419000Y-85247701D01*
X123716277Y-85247701D01*
X123651523Y-85204434D01*
X123554887Y-85164406D01*
X123452299Y-85144000D01*
X123347701Y-85144000D01*
X123245113Y-85164406D01*
X123148477Y-85204434D01*
X123061507Y-85262546D01*
X122987546Y-85336507D01*
X122929434Y-85423477D01*
X122889406Y-85520113D01*
X122869000Y-85622701D01*
X121106000Y-85622701D01*
X121106000Y-85580088D01*
X121088476Y-85491990D01*
X121054102Y-85409003D01*
X121004198Y-85334317D01*
X120940683Y-85270802D01*
X120865997Y-85220898D01*
X120783010Y-85186524D01*
X120694912Y-85169000D01*
X120605088Y-85169000D01*
X120516990Y-85186524D01*
X120434003Y-85220898D01*
X120359317Y-85270802D01*
X120295802Y-85334317D01*
X120245898Y-85409003D01*
X120211524Y-85491990D01*
X120194000Y-85580088D01*
X120123191Y-85580088D01*
X120104102Y-85534003D01*
X120054198Y-85459317D01*
X119990683Y-85395802D01*
X119915997Y-85345898D01*
X119833010Y-85311524D01*
X119744912Y-85294000D01*
X119655088Y-85294000D01*
X119566990Y-85311524D01*
X119484003Y-85345898D01*
X119409317Y-85395802D01*
X119345802Y-85459317D01*
X119295898Y-85534003D01*
X119261524Y-85616990D01*
X119244000Y-85705088D01*
X119244000Y-85794912D01*
X119261524Y-85883010D01*
X119295898Y-85965997D01*
X119345802Y-86040683D01*
X119409317Y-86104198D01*
X119484003Y-86154102D01*
X119529664Y-86173015D01*
X119516990Y-86175536D01*
X119434003Y-86209910D01*
X119359317Y-86259814D01*
X119295802Y-86323329D01*
X119245898Y-86398015D01*
X119211524Y-86481002D01*
X119194000Y-86569100D01*
X113017712Y-86569100D01*
X113031000Y-86502299D01*
X113031000Y-86397701D01*
X113010594Y-86295113D01*
X112970566Y-86198477D01*
X112912454Y-86111507D01*
X112838493Y-86037546D01*
X112751523Y-85979434D01*
X112654887Y-85939406D01*
X112552299Y-85919000D01*
X112447701Y-85919000D01*
X112345113Y-85939406D01*
X112248477Y-85979434D01*
X112161507Y-86037546D01*
X112087546Y-86111507D01*
X112029434Y-86198477D01*
X111989406Y-86295113D01*
X111969000Y-86397701D01*
X103356196Y-86397701D01*
X103384653Y-86329000D01*
X103402177Y-86240902D01*
X103402177Y-86151078D01*
X103384653Y-86062980D01*
X103350279Y-85979993D01*
X103300375Y-85905307D01*
X103236860Y-85841792D01*
X103162174Y-85791888D01*
X103079187Y-85757514D01*
X102991089Y-85739990D01*
X102901265Y-85739990D01*
X102813167Y-85757514D01*
X102730180Y-85791888D01*
X102655494Y-85841792D01*
X102591979Y-85905307D01*
X102542075Y-85979993D01*
X102507701Y-86062980D01*
X102490177Y-86151078D01*
X94274773Y-86151078D01*
X94276000Y-86144912D01*
X94276000Y-86055088D01*
X94258476Y-85966990D01*
X94224102Y-85884003D01*
X94174198Y-85809317D01*
X94110683Y-85745802D01*
X94035997Y-85695898D01*
X93953010Y-85661524D01*
X93864912Y-85644000D01*
X93775088Y-85644000D01*
X93686990Y-85661524D01*
X93604003Y-85695898D01*
X93529317Y-85745802D01*
X93465802Y-85809317D01*
X93415898Y-85884003D01*
X93381524Y-85966990D01*
X93364000Y-86055088D01*
X89739793Y-86055088D01*
X89754198Y-86040683D01*
X89804102Y-85965997D01*
X89838476Y-85883010D01*
X89856000Y-85794912D01*
X89856000Y-85705088D01*
X89838476Y-85616990D01*
X89804102Y-85534003D01*
X89754198Y-85459317D01*
X89724969Y-85430088D01*
X90254000Y-85430088D01*
X90254000Y-85519912D01*
X90271524Y-85608010D01*
X90305898Y-85690997D01*
X90355802Y-85765683D01*
X90419317Y-85829198D01*
X90494003Y-85879102D01*
X90576990Y-85913476D01*
X90665088Y-85931000D01*
X90754912Y-85931000D01*
X90843010Y-85913476D01*
X90925997Y-85879102D01*
X91000683Y-85829198D01*
X91064198Y-85765683D01*
X91114102Y-85690997D01*
X91148476Y-85608010D01*
X91166000Y-85519912D01*
X91166000Y-85430088D01*
X91148476Y-85341990D01*
X91114102Y-85259003D01*
X91064198Y-85184317D01*
X91000683Y-85120802D01*
X90925997Y-85070898D01*
X90843010Y-85036524D01*
X90754912Y-85019000D01*
X90665088Y-85019000D01*
X90576990Y-85036524D01*
X90494003Y-85070898D01*
X90419317Y-85120802D01*
X90355802Y-85184317D01*
X90305898Y-85259003D01*
X90271524Y-85341990D01*
X90254000Y-85430088D01*
X89724969Y-85430088D01*
X89690683Y-85395802D01*
X89615997Y-85345898D01*
X89533010Y-85311524D01*
X89444912Y-85294000D01*
X89355088Y-85294000D01*
X89266990Y-85311524D01*
X89184003Y-85345898D01*
X89109317Y-85395802D01*
X89045802Y-85459317D01*
X88995898Y-85534003D01*
X88961524Y-85616990D01*
X88944000Y-85705088D01*
X83697000Y-85705088D01*
X83697000Y-84480088D01*
X90254000Y-84480088D01*
X90254000Y-84569912D01*
X90271524Y-84658010D01*
X90305898Y-84740997D01*
X90355802Y-84815683D01*
X90419317Y-84879198D01*
X90494003Y-84929102D01*
X90576990Y-84963476D01*
X90665088Y-84981000D01*
X90754912Y-84981000D01*
X90843010Y-84963476D01*
X90856952Y-84957701D01*
X92339000Y-84957701D01*
X92339000Y-85062299D01*
X92359406Y-85164887D01*
X92399434Y-85261523D01*
X92457546Y-85348493D01*
X92531507Y-85422454D01*
X92618477Y-85480566D01*
X92715113Y-85520594D01*
X92817701Y-85541000D01*
X92922299Y-85541000D01*
X93024887Y-85520594D01*
X93121523Y-85480566D01*
X93208493Y-85422454D01*
X93282454Y-85348493D01*
X93340566Y-85261523D01*
X93380594Y-85164887D01*
X93401000Y-85062299D01*
X93401000Y-84957701D01*
X93380594Y-84855113D01*
X93340566Y-84758477D01*
X93282454Y-84671507D01*
X93228648Y-84617701D01*
X97299000Y-84617701D01*
X97299000Y-84722299D01*
X97319406Y-84824887D01*
X97359434Y-84921523D01*
X97417546Y-85008493D01*
X97491507Y-85082454D01*
X97578477Y-85140566D01*
X97675113Y-85180594D01*
X97777701Y-85201000D01*
X97882299Y-85201000D01*
X97984887Y-85180594D01*
X98081523Y-85140566D01*
X98168493Y-85082454D01*
X98242454Y-85008493D01*
X98300566Y-84921523D01*
X98340594Y-84824887D01*
X98361000Y-84722299D01*
X98361000Y-84637701D01*
X98729000Y-84637701D01*
X98729000Y-84742299D01*
X98749406Y-84844887D01*
X98789434Y-84941523D01*
X98847546Y-85028493D01*
X98921507Y-85102454D01*
X99008477Y-85160566D01*
X99105113Y-85200594D01*
X99207701Y-85221000D01*
X99312299Y-85221000D01*
X99414887Y-85200594D01*
X99511523Y-85160566D01*
X99598493Y-85102454D01*
X99672454Y-85028493D01*
X99730566Y-84941523D01*
X99770594Y-84844887D01*
X99791000Y-84742299D01*
X99791000Y-84667699D01*
X101699000Y-84667699D01*
X101699000Y-84772297D01*
X101719406Y-84874885D01*
X101759434Y-84971521D01*
X101817546Y-85058491D01*
X101891507Y-85132452D01*
X101978477Y-85190564D01*
X102075113Y-85230592D01*
X102177701Y-85250998D01*
X102282299Y-85250998D01*
X102384887Y-85230592D01*
X102481523Y-85190564D01*
X102568493Y-85132452D01*
X102642454Y-85058491D01*
X102700566Y-84971521D01*
X102731143Y-84897701D01*
X116469000Y-84897701D01*
X116469000Y-85002299D01*
X116489406Y-85104887D01*
X116529434Y-85201523D01*
X116587546Y-85288493D01*
X116661507Y-85362454D01*
X116748477Y-85420566D01*
X116845113Y-85460594D01*
X116947701Y-85481000D01*
X117052299Y-85481000D01*
X117154887Y-85460594D01*
X117251523Y-85420566D01*
X117338493Y-85362454D01*
X117412454Y-85288493D01*
X117470566Y-85201523D01*
X117510594Y-85104887D01*
X117531000Y-85002299D01*
X117531000Y-84897701D01*
X117510594Y-84795113D01*
X117470566Y-84698477D01*
X117412454Y-84611507D01*
X117338493Y-84537546D01*
X117251523Y-84479434D01*
X117154887Y-84439406D01*
X117052299Y-84419000D01*
X116947701Y-84419000D01*
X116845113Y-84439406D01*
X116748477Y-84479434D01*
X116661507Y-84537546D01*
X116587546Y-84611507D01*
X116529434Y-84698477D01*
X116489406Y-84795113D01*
X116469000Y-84897701D01*
X102731143Y-84897701D01*
X102740594Y-84874885D01*
X102761000Y-84772297D01*
X102761000Y-84667699D01*
X102740594Y-84565111D01*
X102700566Y-84468475D01*
X102642454Y-84381505D01*
X102568493Y-84307544D01*
X102481523Y-84249432D01*
X102384887Y-84209404D01*
X102282299Y-84188998D01*
X102177701Y-84188998D01*
X102075113Y-84209404D01*
X101978477Y-84249432D01*
X101891507Y-84307544D01*
X101817546Y-84381505D01*
X101759434Y-84468475D01*
X101719406Y-84565111D01*
X101699000Y-84667699D01*
X99791000Y-84667699D01*
X99791000Y-84637701D01*
X99770594Y-84535113D01*
X99730566Y-84438477D01*
X99672454Y-84351507D01*
X99598493Y-84277546D01*
X99511523Y-84219434D01*
X99414887Y-84179406D01*
X99312299Y-84159000D01*
X99207701Y-84159000D01*
X99105113Y-84179406D01*
X99008477Y-84219434D01*
X98921507Y-84277546D01*
X98847546Y-84351507D01*
X98789434Y-84438477D01*
X98749406Y-84535113D01*
X98729000Y-84637701D01*
X98361000Y-84637701D01*
X98361000Y-84617701D01*
X98340594Y-84515113D01*
X98300566Y-84418477D01*
X98242454Y-84331507D01*
X98168493Y-84257546D01*
X98081523Y-84199434D01*
X97984887Y-84159406D01*
X97882299Y-84139000D01*
X97777701Y-84139000D01*
X97675113Y-84159406D01*
X97578477Y-84199434D01*
X97491507Y-84257546D01*
X97417546Y-84331507D01*
X97359434Y-84418477D01*
X97319406Y-84515113D01*
X97299000Y-84617701D01*
X93228648Y-84617701D01*
X93208493Y-84597546D01*
X93121523Y-84539434D01*
X93024887Y-84499406D01*
X92922299Y-84479000D01*
X92817701Y-84479000D01*
X92715113Y-84499406D01*
X92618477Y-84539434D01*
X92531507Y-84597546D01*
X92457546Y-84671507D01*
X92399434Y-84758477D01*
X92359406Y-84855113D01*
X92339000Y-84957701D01*
X90856952Y-84957701D01*
X90925997Y-84929102D01*
X91000683Y-84879198D01*
X91064198Y-84815683D01*
X91114102Y-84740997D01*
X91148476Y-84658010D01*
X91166000Y-84569912D01*
X91166000Y-84480088D01*
X91148476Y-84391990D01*
X91114102Y-84309003D01*
X91064198Y-84234317D01*
X91000683Y-84170802D01*
X90925997Y-84120898D01*
X90843010Y-84086524D01*
X90754912Y-84069000D01*
X90665088Y-84069000D01*
X90576990Y-84086524D01*
X90494003Y-84120898D01*
X90419317Y-84170802D01*
X90355802Y-84234317D01*
X90305898Y-84309003D01*
X90271524Y-84391990D01*
X90254000Y-84480088D01*
X83697000Y-84480088D01*
X83697000Y-84045088D01*
X94834000Y-84045088D01*
X94834000Y-84134912D01*
X94851524Y-84223010D01*
X94885898Y-84305997D01*
X94935802Y-84380683D01*
X94999317Y-84444198D01*
X95074003Y-84494102D01*
X95156990Y-84528476D01*
X95245088Y-84546000D01*
X95334912Y-84546000D01*
X95423010Y-84528476D01*
X95505997Y-84494102D01*
X95580683Y-84444198D01*
X95644198Y-84380683D01*
X95694102Y-84305997D01*
X95728476Y-84223010D01*
X95746000Y-84134912D01*
X95746000Y-84045088D01*
X95728476Y-83956990D01*
X95709785Y-83911864D01*
X122783163Y-83911864D01*
X122783163Y-84016462D01*
X122803569Y-84119050D01*
X122843597Y-84215686D01*
X122901709Y-84302656D01*
X122975670Y-84376617D01*
X123062640Y-84434729D01*
X123159276Y-84474757D01*
X123261864Y-84495163D01*
X123366462Y-84495163D01*
X123469050Y-84474757D01*
X123565686Y-84434729D01*
X123652656Y-84376617D01*
X123726617Y-84302656D01*
X123784729Y-84215686D01*
X123824757Y-84119050D01*
X123845163Y-84016462D01*
X123845163Y-83911864D01*
X123824757Y-83809276D01*
X123784729Y-83712640D01*
X123726617Y-83625670D01*
X123652656Y-83551709D01*
X123565686Y-83493597D01*
X123469050Y-83453569D01*
X123366462Y-83433163D01*
X123261864Y-83433163D01*
X123159276Y-83453569D01*
X123062640Y-83493597D01*
X122975670Y-83551709D01*
X122901709Y-83625670D01*
X122843597Y-83712640D01*
X122803569Y-83809276D01*
X122783163Y-83911864D01*
X95709785Y-83911864D01*
X95694102Y-83874003D01*
X95644198Y-83799317D01*
X95580683Y-83735802D01*
X95505997Y-83685898D01*
X95423010Y-83651524D01*
X95334912Y-83634000D01*
X95245088Y-83634000D01*
X95156990Y-83651524D01*
X95074003Y-83685898D01*
X94999317Y-83735802D01*
X94935802Y-83799317D01*
X94885898Y-83874003D01*
X94851524Y-83956990D01*
X94834000Y-84045088D01*
X83697000Y-84045088D01*
X83697000Y-83165088D01*
X99984000Y-83165088D01*
X99984000Y-83254912D01*
X100001524Y-83343010D01*
X100035898Y-83425997D01*
X100085802Y-83500683D01*
X100149317Y-83564198D01*
X100224003Y-83614102D01*
X100306990Y-83648476D01*
X100395088Y-83666000D01*
X100484912Y-83666000D01*
X100573010Y-83648476D01*
X100655997Y-83614102D01*
X100730683Y-83564198D01*
X100794198Y-83500683D01*
X100844102Y-83425997D01*
X100847537Y-83417703D01*
X126219000Y-83417703D01*
X126219000Y-83522301D01*
X126239406Y-83624889D01*
X126279434Y-83721525D01*
X126337546Y-83808495D01*
X126411507Y-83882456D01*
X126498477Y-83940568D01*
X126595113Y-83980596D01*
X126697701Y-84001002D01*
X126802299Y-84001002D01*
X126904887Y-83980596D01*
X127001523Y-83940568D01*
X127088493Y-83882456D01*
X127162454Y-83808495D01*
X127220566Y-83721525D01*
X127260594Y-83624889D01*
X127281000Y-83522301D01*
X127281000Y-83417703D01*
X127260594Y-83315115D01*
X127220566Y-83218479D01*
X127162454Y-83131509D01*
X127088493Y-83057548D01*
X127001523Y-82999436D01*
X126904887Y-82959408D01*
X126802299Y-82939002D01*
X126697701Y-82939002D01*
X126595113Y-82959408D01*
X126498477Y-82999436D01*
X126411507Y-83057548D01*
X126337546Y-83131509D01*
X126279434Y-83218479D01*
X126239406Y-83315115D01*
X126219000Y-83417703D01*
X100847537Y-83417703D01*
X100878476Y-83343010D01*
X100896000Y-83254912D01*
X100896000Y-83165088D01*
X100878476Y-83076990D01*
X100844102Y-82994003D01*
X100794198Y-82919317D01*
X100730683Y-82855802D01*
X100655997Y-82805898D01*
X100573010Y-82771524D01*
X100484912Y-82754000D01*
X100395088Y-82754000D01*
X100306990Y-82771524D01*
X100224003Y-82805898D01*
X100149317Y-82855802D01*
X100085802Y-82919317D01*
X100035898Y-82994003D01*
X100001524Y-83076990D01*
X99984000Y-83165088D01*
X83697000Y-83165088D01*
X83697000Y-82045239D01*
X85999000Y-82045239D01*
X85999000Y-82154761D01*
X86020367Y-82262179D01*
X86062279Y-82363365D01*
X86123127Y-82454429D01*
X86200571Y-82531873D01*
X86291635Y-82592721D01*
X86392821Y-82634633D01*
X86500239Y-82656000D01*
X86609761Y-82656000D01*
X86717179Y-82634633D01*
X86818365Y-82592721D01*
X86879388Y-82551946D01*
X90598245Y-82551946D01*
X90598245Y-82656544D01*
X90618651Y-82759132D01*
X90658679Y-82855768D01*
X90716791Y-82942738D01*
X90790752Y-83016699D01*
X90877722Y-83074811D01*
X90974358Y-83114839D01*
X91076946Y-83135245D01*
X91181544Y-83135245D01*
X91284132Y-83114839D01*
X91380768Y-83074811D01*
X91467738Y-83016699D01*
X91541699Y-82942738D01*
X91599811Y-82855768D01*
X91639839Y-82759132D01*
X91660245Y-82656544D01*
X91660245Y-82551946D01*
X91643488Y-82467701D01*
X93539000Y-82467701D01*
X93539000Y-82572299D01*
X93559406Y-82674887D01*
X93599434Y-82771523D01*
X93657546Y-82858493D01*
X93731507Y-82932454D01*
X93818477Y-82990566D01*
X93915113Y-83030594D01*
X94017701Y-83051000D01*
X94122299Y-83051000D01*
X94224887Y-83030594D01*
X94321523Y-82990566D01*
X94408493Y-82932454D01*
X94482454Y-82858493D01*
X94540566Y-82771523D01*
X94580594Y-82674887D01*
X94601000Y-82572299D01*
X94601000Y-82467701D01*
X94580594Y-82365113D01*
X94540566Y-82268477D01*
X94482454Y-82181507D01*
X94408493Y-82107546D01*
X94321523Y-82049434D01*
X94224887Y-82009406D01*
X94122299Y-81989000D01*
X94017701Y-81989000D01*
X93915113Y-82009406D01*
X93818477Y-82049434D01*
X93731507Y-82107546D01*
X93657546Y-82181507D01*
X93599434Y-82268477D01*
X93559406Y-82365113D01*
X93539000Y-82467701D01*
X91643488Y-82467701D01*
X91639839Y-82449358D01*
X91599811Y-82352722D01*
X91541699Y-82265752D01*
X91467738Y-82191791D01*
X91380768Y-82133679D01*
X91284132Y-82093651D01*
X91181544Y-82073245D01*
X91076946Y-82073245D01*
X90974358Y-82093651D01*
X90877722Y-82133679D01*
X90790752Y-82191791D01*
X90716791Y-82265752D01*
X90658679Y-82352722D01*
X90618651Y-82449358D01*
X90598245Y-82551946D01*
X86879388Y-82551946D01*
X86909429Y-82531873D01*
X86986873Y-82454429D01*
X87047721Y-82363365D01*
X87089633Y-82262179D01*
X87111000Y-82154761D01*
X87111000Y-82045239D01*
X87089633Y-81937821D01*
X87047721Y-81836635D01*
X86986873Y-81745571D01*
X86909429Y-81668127D01*
X86818365Y-81607279D01*
X86717179Y-81565367D01*
X86609761Y-81544000D01*
X86500239Y-81544000D01*
X86392821Y-81565367D01*
X86291635Y-81607279D01*
X86200571Y-81668127D01*
X86123127Y-81745571D01*
X86062279Y-81836635D01*
X86020367Y-81937821D01*
X85999000Y-82045239D01*
X83697000Y-82045239D01*
X83697000Y-81211878D01*
X83724395Y-81189395D01*
X83815744Y-81078086D01*
X83883623Y-80951095D01*
X83925422Y-80813301D01*
X83939536Y-80670000D01*
X83925422Y-80526699D01*
X83883623Y-80388905D01*
X83839309Y-80306000D01*
X85900691Y-80306000D01*
X85856377Y-80388905D01*
X85856377Y-80388905D01*
G37*
X85856377Y-80388905D02*
X85814578Y-80526699D01*
X85800464Y-80670000D01*
X85814578Y-80813301D01*
X85856377Y-80951095D01*
X85924256Y-81078086D01*
X86015605Y-81189395D01*
X86126914Y-81280744D01*
X86253905Y-81348623D01*
X86391699Y-81390422D01*
X86499099Y-81401000D01*
X87670901Y-81401000D01*
X87778301Y-81390422D01*
X87916095Y-81348623D01*
X88043086Y-81280744D01*
X88071163Y-81257701D01*
X95709000Y-81257701D01*
X95709000Y-81362299D01*
X95729406Y-81464887D01*
X95769434Y-81561523D01*
X95827546Y-81648493D01*
X95901507Y-81722454D01*
X95988477Y-81780566D01*
X96085113Y-81820594D01*
X96187701Y-81841000D01*
X96292299Y-81841000D01*
X96394887Y-81820594D01*
X96491523Y-81780566D01*
X96578493Y-81722454D01*
X96652454Y-81648493D01*
X96710566Y-81561523D01*
X96750594Y-81464887D01*
X96771000Y-81362299D01*
X96771000Y-81277701D01*
X98539000Y-81277701D01*
X98539000Y-81382299D01*
X98559406Y-81484887D01*
X98599434Y-81581523D01*
X98657546Y-81668493D01*
X98731507Y-81742454D01*
X98818477Y-81800566D01*
X98915113Y-81840594D01*
X99017701Y-81861000D01*
X99122299Y-81861000D01*
X99224887Y-81840594D01*
X99321523Y-81800566D01*
X99408493Y-81742454D01*
X99482454Y-81668493D01*
X99540566Y-81581523D01*
X99580594Y-81484887D01*
X99601000Y-81382299D01*
X99601000Y-81287701D01*
X99679000Y-81287701D01*
X99679000Y-81392299D01*
X99699406Y-81494887D01*
X99739434Y-81591523D01*
X99797546Y-81678493D01*
X99871507Y-81752454D01*
X99958477Y-81810566D01*
X100055113Y-81850594D01*
X100157701Y-81871000D01*
X100262299Y-81871000D01*
X100364887Y-81850594D01*
X100461523Y-81810566D01*
X100548493Y-81752454D01*
X100622454Y-81678493D01*
X100680566Y-81591523D01*
X100720594Y-81494887D01*
X100741000Y-81392299D01*
X100741000Y-81287701D01*
X100720594Y-81185113D01*
X100712300Y-81165088D01*
X102904000Y-81165088D01*
X102904000Y-81254912D01*
X102921524Y-81343010D01*
X102955898Y-81425997D01*
X103005802Y-81500683D01*
X103069317Y-81564198D01*
X103144003Y-81614102D01*
X103226990Y-81648476D01*
X103315088Y-81666000D01*
X103404912Y-81666000D01*
X103493010Y-81648476D01*
X103575997Y-81614102D01*
X103650683Y-81564198D01*
X103714198Y-81500683D01*
X103764102Y-81425997D01*
X103798476Y-81343010D01*
X103816000Y-81254912D01*
X103816000Y-81165088D01*
X103798476Y-81076990D01*
X103764102Y-80994003D01*
X103714198Y-80919317D01*
X103650683Y-80855802D01*
X103575997Y-80805898D01*
X103493010Y-80771524D01*
X103404912Y-80754000D01*
X103315088Y-80754000D01*
X103226990Y-80771524D01*
X103144003Y-80805898D01*
X103069317Y-80855802D01*
X103005802Y-80919317D01*
X102955898Y-80994003D01*
X102921524Y-81076990D01*
X102904000Y-81165088D01*
X100712300Y-81165088D01*
X100680566Y-81088477D01*
X100622454Y-81001507D01*
X100548493Y-80927546D01*
X100461523Y-80869434D01*
X100364887Y-80829406D01*
X100262299Y-80809000D01*
X100157701Y-80809000D01*
X100055113Y-80829406D01*
X99958477Y-80869434D01*
X99871507Y-80927546D01*
X99797546Y-81001507D01*
X99739434Y-81088477D01*
X99699406Y-81185113D01*
X99679000Y-81287701D01*
X99601000Y-81287701D01*
X99601000Y-81277701D01*
X99580594Y-81175113D01*
X99540566Y-81078477D01*
X99482454Y-80991507D01*
X99408493Y-80917546D01*
X99321523Y-80859434D01*
X99224887Y-80819406D01*
X99122299Y-80799000D01*
X99017701Y-80799000D01*
X98915113Y-80819406D01*
X98818477Y-80859434D01*
X98731507Y-80917546D01*
X98657546Y-80991507D01*
X98599434Y-81078477D01*
X98559406Y-81175113D01*
X98539000Y-81277701D01*
X96771000Y-81277701D01*
X96771000Y-81257701D01*
X96750594Y-81155113D01*
X96710566Y-81058477D01*
X96652454Y-80971507D01*
X96578493Y-80897546D01*
X96491523Y-80839434D01*
X96394887Y-80799406D01*
X96292299Y-80779000D01*
X96187701Y-80779000D01*
X96085113Y-80799406D01*
X95988477Y-80839434D01*
X95901507Y-80897546D01*
X95827546Y-80971507D01*
X95769434Y-81058477D01*
X95729406Y-81155113D01*
X95709000Y-81257701D01*
X88071163Y-81257701D01*
X88154395Y-81189395D01*
X88245744Y-81078086D01*
X88313623Y-80951095D01*
X88355422Y-80813301D01*
X88369536Y-80670000D01*
X88355422Y-80526699D01*
X88313623Y-80388905D01*
X88269309Y-80306000D01*
X107792363Y-80306000D01*
X107369819Y-80728545D01*
X107360594Y-80682165D01*
X107320566Y-80585529D01*
X107262454Y-80498559D01*
X107188493Y-80424598D01*
X107101523Y-80366486D01*
X107004887Y-80326458D01*
X106902299Y-80306052D01*
X106797701Y-80306052D01*
X106695113Y-80326458D01*
X106598477Y-80366486D01*
X106511507Y-80424598D01*
X106437546Y-80498559D01*
X106379434Y-80585529D01*
X106339406Y-80682165D01*
X106319000Y-80784753D01*
X106319000Y-80889351D01*
X106339406Y-80991939D01*
X106379434Y-81088575D01*
X106397758Y-81115999D01*
X105347635Y-81115999D01*
X105190691Y-80959056D01*
X105190683Y-80959046D01*
X105134432Y-80902795D01*
X105136000Y-80894912D01*
X105136000Y-80805088D01*
X105118476Y-80716990D01*
X105084102Y-80634003D01*
X105034198Y-80559317D01*
X104970683Y-80495802D01*
X104895997Y-80445898D01*
X104813010Y-80411524D01*
X104724912Y-80394000D01*
X104635088Y-80394000D01*
X104546990Y-80411524D01*
X104464003Y-80445898D01*
X104389317Y-80495802D01*
X104325802Y-80559317D01*
X104275898Y-80634003D01*
X104241524Y-80716990D01*
X104224000Y-80805088D01*
X104224000Y-80894912D01*
X104241524Y-80983010D01*
X104275898Y-81065997D01*
X104325802Y-81140683D01*
X104389317Y-81204198D01*
X104464003Y-81254102D01*
X104546990Y-81288476D01*
X104635088Y-81306000D01*
X104724912Y-81306000D01*
X104732795Y-81304432D01*
X104789046Y-81360683D01*
X104789056Y-81360691D01*
X105019316Y-81590953D01*
X105028209Y-81601789D01*
X105039044Y-81610681D01*
X105039045Y-81610682D01*
X105071453Y-81637279D01*
X105088639Y-81646464D01*
X105120791Y-81663650D01*
X105174325Y-81679890D01*
X105216047Y-81683999D01*
X105216057Y-81683999D01*
X105229998Y-81685372D01*
X105243939Y-81683999D01*
X107034366Y-81683999D01*
X106972364Y-81746001D01*
X104516332Y-81746001D01*
X104502383Y-81744627D01*
X104488434Y-81746001D01*
X104488431Y-81746001D01*
X104446709Y-81750110D01*
X104393175Y-81766350D01*
X104343837Y-81792721D01*
X104325533Y-81807743D01*
X104300593Y-81828211D01*
X104291699Y-81839049D01*
X104075989Y-82054759D01*
X104068476Y-82016990D01*
X104034102Y-81934003D01*
X103984198Y-81859317D01*
X103920683Y-81795802D01*
X103845997Y-81745898D01*
X103763010Y-81711524D01*
X103674912Y-81694000D01*
X103585088Y-81694000D01*
X103496990Y-81711524D01*
X103414003Y-81745898D01*
X103339317Y-81795802D01*
X103275802Y-81859317D01*
X103225898Y-81934003D01*
X103191524Y-82016990D01*
X103174000Y-82105088D01*
X103174000Y-82194912D01*
X103191524Y-82283010D01*
X103225898Y-82365997D01*
X103275802Y-82440683D01*
X103339317Y-82504198D01*
X103380528Y-82531734D01*
X103305910Y-82581593D01*
X103242395Y-82645108D01*
X103192491Y-82719794D01*
X103158117Y-82802781D01*
X103140593Y-82890879D01*
X103140593Y-82980703D01*
X103158117Y-83068801D01*
X103192491Y-83151788D01*
X103242395Y-83226474D01*
X103305910Y-83289989D01*
X103380596Y-83339893D01*
X103463583Y-83374267D01*
X103551681Y-83391791D01*
X103641505Y-83391791D01*
X103729603Y-83374267D01*
X103812590Y-83339893D01*
X103887276Y-83289989D01*
X103950791Y-83226474D01*
X104000695Y-83151788D01*
X104035069Y-83068801D01*
X104052593Y-82980703D01*
X104052593Y-82890879D01*
X104051025Y-82882994D01*
X104620019Y-82314001D01*
X105423410Y-82314001D01*
X105416593Y-82318556D01*
X105342632Y-82392517D01*
X105284520Y-82479487D01*
X105244492Y-82576123D01*
X105224086Y-82678711D01*
X105224086Y-82783309D01*
X105244492Y-82885897D01*
X105284520Y-82982533D01*
X105342632Y-83069503D01*
X105416593Y-83143464D01*
X105503563Y-83201576D01*
X105600199Y-83241604D01*
X105702787Y-83262010D01*
X105807385Y-83262010D01*
X105909973Y-83241604D01*
X106006609Y-83201576D01*
X106093579Y-83143464D01*
X106167540Y-83069503D01*
X106225652Y-82982533D01*
X106265680Y-82885897D01*
X106286086Y-82783309D01*
X106286086Y-82678711D01*
X106279918Y-82647701D01*
X109819000Y-82647701D01*
X109819000Y-82752299D01*
X109839406Y-82854887D01*
X109879434Y-82951523D01*
X109937546Y-83038493D01*
X110011507Y-83112454D01*
X110098477Y-83170566D01*
X110195113Y-83210594D01*
X110297701Y-83231000D01*
X110402299Y-83231000D01*
X110504887Y-83210594D01*
X110601523Y-83170566D01*
X110688493Y-83112454D01*
X110762454Y-83038493D01*
X110820566Y-82951523D01*
X110860594Y-82854887D01*
X110881000Y-82752299D01*
X110881000Y-82647701D01*
X110860594Y-82545113D01*
X110820566Y-82448477D01*
X110762454Y-82361507D01*
X110688493Y-82287546D01*
X110601523Y-82229434D01*
X110504887Y-82189406D01*
X110402299Y-82169000D01*
X110297701Y-82169000D01*
X110195113Y-82189406D01*
X110098477Y-82229434D01*
X110011507Y-82287546D01*
X109937546Y-82361507D01*
X109879434Y-82448477D01*
X109839406Y-82545113D01*
X109819000Y-82647701D01*
X106279918Y-82647701D01*
X106265680Y-82576123D01*
X106225652Y-82479487D01*
X106167540Y-82392517D01*
X106093579Y-82318556D01*
X106086762Y-82314001D01*
X107076050Y-82314001D01*
X107089999Y-82315375D01*
X107103948Y-82314001D01*
X107103951Y-82314001D01*
X107145673Y-82309892D01*
X107199207Y-82293652D01*
X107248544Y-82267281D01*
X107291789Y-82231791D01*
X107300690Y-82220945D01*
X107373934Y-82147701D01*
X115769000Y-82147701D01*
X115769000Y-82252299D01*
X115789406Y-82354887D01*
X115829434Y-82451523D01*
X115887546Y-82538493D01*
X115961507Y-82612454D01*
X116048477Y-82670566D01*
X116145113Y-82710594D01*
X116247701Y-82731000D01*
X116352299Y-82731000D01*
X116454887Y-82710594D01*
X116551523Y-82670566D01*
X116638493Y-82612454D01*
X116712454Y-82538493D01*
X116770566Y-82451523D01*
X116810594Y-82354887D01*
X116831000Y-82252299D01*
X116831000Y-82147701D01*
X117369000Y-82147701D01*
X117369000Y-82252299D01*
X117389406Y-82354887D01*
X117429434Y-82451523D01*
X117487546Y-82538493D01*
X117561507Y-82612454D01*
X117648477Y-82670566D01*
X117745113Y-82710594D01*
X117847701Y-82731000D01*
X117952299Y-82731000D01*
X118054887Y-82710594D01*
X118151523Y-82670566D01*
X118238493Y-82612454D01*
X118312454Y-82538493D01*
X118370566Y-82451523D01*
X118410594Y-82354887D01*
X118431000Y-82252299D01*
X118431000Y-82147701D01*
X118410594Y-82045113D01*
X118370566Y-81948477D01*
X118312454Y-81861507D01*
X118238493Y-81787546D01*
X118151523Y-81729434D01*
X118054887Y-81689406D01*
X117952299Y-81669000D01*
X117847701Y-81669000D01*
X117745113Y-81689406D01*
X117648477Y-81729434D01*
X117561507Y-81787546D01*
X117487546Y-81861507D01*
X117429434Y-81948477D01*
X117389406Y-82045113D01*
X117369000Y-82147701D01*
X116831000Y-82147701D01*
X116810594Y-82045113D01*
X116770566Y-81948477D01*
X116712454Y-81861507D01*
X116638493Y-81787546D01*
X116551523Y-81729434D01*
X116454887Y-81689406D01*
X116352299Y-81669000D01*
X116247701Y-81669000D01*
X116145113Y-81689406D01*
X116048477Y-81729434D01*
X115961507Y-81787546D01*
X115887546Y-81861507D01*
X115829434Y-81948477D01*
X115789406Y-82045113D01*
X115769000Y-82147701D01*
X107373934Y-82147701D01*
X108547637Y-80974000D01*
X118515740Y-80974000D01*
X118500060Y-80997467D01*
X118460032Y-81094103D01*
X118439626Y-81196691D01*
X118439626Y-81301289D01*
X118460032Y-81403877D01*
X118500060Y-81500513D01*
X118558172Y-81587483D01*
X118632133Y-81661444D01*
X118719103Y-81719556D01*
X118815739Y-81759584D01*
X118918327Y-81779990D01*
X119022925Y-81779990D01*
X119125513Y-81759584D01*
X119222149Y-81719556D01*
X119309119Y-81661444D01*
X119321104Y-81649460D01*
X119333088Y-81661444D01*
X119420058Y-81719556D01*
X119516694Y-81759584D01*
X119619282Y-81779990D01*
X119723880Y-81779990D01*
X119826468Y-81759584D01*
X119923104Y-81719556D01*
X120010074Y-81661444D01*
X120013756Y-81657762D01*
X120017438Y-81661444D01*
X120104408Y-81719556D01*
X120201044Y-81759584D01*
X120303632Y-81779990D01*
X120408230Y-81779990D01*
X120510818Y-81759584D01*
X120607454Y-81719556D01*
X120694424Y-81661444D01*
X120768385Y-81587483D01*
X120826497Y-81500513D01*
X120827661Y-81497701D01*
X122044000Y-81497701D01*
X122044000Y-81602299D01*
X122064406Y-81704887D01*
X122104434Y-81801523D01*
X122162546Y-81888493D01*
X122236507Y-81962454D01*
X122323477Y-82020566D01*
X122420113Y-82060594D01*
X122522701Y-82081000D01*
X122627299Y-82081000D01*
X122729887Y-82060594D01*
X122826523Y-82020566D01*
X122913493Y-81962454D01*
X122987454Y-81888493D01*
X123045566Y-81801523D01*
X123085594Y-81704887D01*
X123106000Y-81602299D01*
X123106000Y-81497701D01*
X123085594Y-81395113D01*
X123045566Y-81298477D01*
X122987454Y-81211507D01*
X122913493Y-81137546D01*
X122826523Y-81079434D01*
X122729887Y-81039406D01*
X122627299Y-81019000D01*
X122522701Y-81019000D01*
X122420113Y-81039406D01*
X122323477Y-81079434D01*
X122236507Y-81137546D01*
X122162546Y-81211507D01*
X122104434Y-81298477D01*
X122064406Y-81395113D01*
X122044000Y-81497701D01*
X120827661Y-81497701D01*
X120866525Y-81403877D01*
X120886931Y-81301289D01*
X120886931Y-81196691D01*
X120866525Y-81094103D01*
X120826497Y-80997467D01*
X120810817Y-80974000D01*
X129022365Y-80974000D01*
X129339318Y-81290955D01*
X129348210Y-81301790D01*
X129359045Y-81310682D01*
X129359047Y-81310684D01*
X129391454Y-81337280D01*
X129435239Y-81360683D01*
X129440792Y-81363651D01*
X129494326Y-81379891D01*
X129536048Y-81384000D01*
X129536051Y-81384000D01*
X129550000Y-81385374D01*
X129563949Y-81384000D01*
X131396689Y-81384000D01*
X131410638Y-81385374D01*
X131424587Y-81384000D01*
X131424590Y-81384000D01*
X131466312Y-81379891D01*
X131519846Y-81363651D01*
X131569183Y-81337280D01*
X131603914Y-81308777D01*
X131611524Y-81347034D01*
X131645898Y-81430021D01*
X131695802Y-81504707D01*
X131759317Y-81568222D01*
X131834003Y-81618126D01*
X131916990Y-81652500D01*
X132005088Y-81670024D01*
X132094912Y-81670024D01*
X132183010Y-81652500D01*
X132265997Y-81618126D01*
X132340683Y-81568222D01*
X132404198Y-81504707D01*
X132454102Y-81430021D01*
X132488476Y-81347034D01*
X132506000Y-81258936D01*
X132506000Y-81169112D01*
X132488476Y-81081014D01*
X132482261Y-81066010D01*
X134078782Y-81066010D01*
X134078782Y-81073922D01*
X134096306Y-81162020D01*
X134130680Y-81245007D01*
X134180584Y-81319693D01*
X134244099Y-81383208D01*
X134318785Y-81433112D01*
X134401772Y-81467486D01*
X134489870Y-81485010D01*
X134579694Y-81485010D01*
X134667792Y-81467486D01*
X134750779Y-81433112D01*
X134825465Y-81383208D01*
X134888980Y-81319693D01*
X134938884Y-81245007D01*
X134973258Y-81162020D01*
X134990782Y-81073922D01*
X134990782Y-80984098D01*
X134973258Y-80896000D01*
X134938884Y-80813013D01*
X134934198Y-80806000D01*
X142223000Y-80806000D01*
X142223000Y-84523913D01*
X142145113Y-84539406D01*
X142048477Y-84579434D01*
X141961507Y-84637546D01*
X141887546Y-84711507D01*
X141829434Y-84798477D01*
X141789406Y-84895113D01*
X141769000Y-84997701D01*
X141769000Y-85102299D01*
X141789406Y-85204887D01*
X141829434Y-85301523D01*
X141887546Y-85388493D01*
X141961507Y-85462454D01*
X142048477Y-85520566D01*
X142145113Y-85560594D01*
X142223000Y-85576087D01*
X142223000Y-88369000D01*
X142210201Y-88369000D01*
X142107613Y-88389406D01*
X142010977Y-88429434D01*
X141924007Y-88487546D01*
X141850046Y-88561507D01*
X141791934Y-88648477D01*
X141751906Y-88745113D01*
X141731500Y-88847701D01*
X141731500Y-88952299D01*
X141751906Y-89054887D01*
X141791934Y-89151523D01*
X141820316Y-89194000D01*
X131036949Y-89194000D01*
X131052454Y-89178495D01*
X131110566Y-89091525D01*
X131150594Y-88994889D01*
X131171000Y-88892301D01*
X131171000Y-88787703D01*
X131150594Y-88685115D01*
X131110566Y-88588479D01*
X131052454Y-88501509D01*
X130978493Y-88427548D01*
X130891523Y-88369436D01*
X130794887Y-88329408D01*
X130692299Y-88309002D01*
X130587701Y-88309002D01*
X130485113Y-88329408D01*
X130388477Y-88369436D01*
X130301507Y-88427548D01*
X130227546Y-88501509D01*
X130169434Y-88588479D01*
X130129406Y-88685115D01*
X130109000Y-88787703D01*
X130109000Y-88892301D01*
X130129406Y-88994889D01*
X130169434Y-89091525D01*
X130227546Y-89178495D01*
X130301507Y-89252456D01*
X130388477Y-89310568D01*
X130485113Y-89350596D01*
X130577727Y-89369018D01*
X129927765Y-89694000D01*
X121740651Y-89694000D01*
X121776113Y-89686946D01*
X121907829Y-89632388D01*
X122026370Y-89553181D01*
X122127181Y-89452370D01*
X122206388Y-89333829D01*
X122260946Y-89202113D01*
X122288760Y-89062284D01*
X122288760Y-88919716D01*
X122260946Y-88779887D01*
X122206388Y-88648171D01*
X122127181Y-88529630D01*
X122026370Y-88428819D01*
X121907829Y-88349612D01*
X121776113Y-88295054D01*
X121636284Y-88267240D01*
X121493716Y-88267240D01*
X121353887Y-88295054D01*
X121222171Y-88349612D01*
X121103630Y-88428819D01*
X121002819Y-88529630D01*
X120923612Y-88648171D01*
X120869054Y-88779887D01*
X120841240Y-88919716D01*
X120841240Y-89062284D01*
X120869054Y-89202113D01*
X120923612Y-89333829D01*
X121002819Y-89452370D01*
X121103630Y-89553181D01*
X121222171Y-89632388D01*
X121353887Y-89686946D01*
X121389349Y-89694000D01*
X120231947Y-89694000D01*
X120287454Y-89638493D01*
X120345566Y-89551523D01*
X120385594Y-89454887D01*
X120406000Y-89352299D01*
X120406000Y-89247701D01*
X120385594Y-89145113D01*
X120345566Y-89048477D01*
X120287454Y-88961507D01*
X120213493Y-88887546D01*
X120126523Y-88829434D01*
X120029887Y-88789406D01*
X119927299Y-88769000D01*
X119822701Y-88769000D01*
X119720113Y-88789406D01*
X119623477Y-88829434D01*
X119536507Y-88887546D01*
X119462546Y-88961507D01*
X119404434Y-89048477D01*
X119364406Y-89145113D01*
X119344000Y-89247701D01*
X119344000Y-89352299D01*
X119364406Y-89454887D01*
X119404434Y-89551523D01*
X119462546Y-89638493D01*
X119518053Y-89694000D01*
X115662627Y-89694000D01*
X115704887Y-89685594D01*
X115801523Y-89645566D01*
X115888493Y-89587454D01*
X115962454Y-89513493D01*
X116020566Y-89426523D01*
X116060594Y-89329887D01*
X116081000Y-89227299D01*
X116081000Y-89122701D01*
X116060594Y-89020113D01*
X116020566Y-88923477D01*
X115962454Y-88836507D01*
X115888493Y-88762546D01*
X115801523Y-88704434D01*
X115704887Y-88664406D01*
X115602299Y-88644000D01*
X115497701Y-88644000D01*
X115395113Y-88664406D01*
X115298477Y-88704434D01*
X115211507Y-88762546D01*
X115137546Y-88836507D01*
X115079434Y-88923477D01*
X115039406Y-89020113D01*
X115019000Y-89122701D01*
X115019000Y-89227299D01*
X115039406Y-89329887D01*
X115079434Y-89426523D01*
X115137546Y-89513493D01*
X115211507Y-89587454D01*
X115298477Y-89645566D01*
X115395113Y-89685594D01*
X115437373Y-89694000D01*
X110100881Y-89694000D01*
X110154198Y-89640683D01*
X110204102Y-89565997D01*
X110238476Y-89483010D01*
X110256000Y-89394912D01*
X110256000Y-89305088D01*
X110238476Y-89216990D01*
X110204102Y-89134003D01*
X110154198Y-89059317D01*
X110090683Y-88995802D01*
X110015997Y-88945898D01*
X109933010Y-88911524D01*
X109844912Y-88894000D01*
X109755088Y-88894000D01*
X109666990Y-88911524D01*
X109584003Y-88945898D01*
X109509317Y-88995802D01*
X109445802Y-89059317D01*
X109395898Y-89134003D01*
X109361524Y-89216990D01*
X109344000Y-89305088D01*
X109344000Y-89394912D01*
X109361524Y-89483010D01*
X109395898Y-89565997D01*
X109445802Y-89640683D01*
X109499119Y-89694000D01*
X88258618Y-89694000D01*
X88313623Y-89591095D01*
X88355422Y-89453301D01*
X88369536Y-89310000D01*
X88355422Y-89166699D01*
X88313623Y-89028905D01*
X88245744Y-88901914D01*
X88154395Y-88790605D01*
X88043086Y-88699256D01*
X87916095Y-88631377D01*
X87778301Y-88589578D01*
X87670901Y-88579000D01*
X86499099Y-88579000D01*
X86391699Y-88589578D01*
X86253905Y-88631377D01*
X86126914Y-88699256D01*
X86015605Y-88790605D01*
X85924256Y-88901914D01*
X85856377Y-89028905D01*
X85814578Y-89166699D01*
X85800464Y-89310000D01*
X85814578Y-89453301D01*
X85856377Y-89591095D01*
X85911382Y-89694000D01*
X83828618Y-89694000D01*
X83883623Y-89591095D01*
X83925422Y-89453301D01*
X83939536Y-89310000D01*
X83925422Y-89166699D01*
X83883623Y-89028905D01*
X83815744Y-88901914D01*
X83724395Y-88790605D01*
X83697000Y-88768122D01*
X83697000Y-88490964D01*
X89878124Y-88490964D01*
X89878124Y-88580788D01*
X89895648Y-88668886D01*
X89930022Y-88751873D01*
X89979926Y-88826559D01*
X90043441Y-88890074D01*
X90118127Y-88939978D01*
X90201114Y-88974352D01*
X90289212Y-88991876D01*
X90379036Y-88991876D01*
X90467134Y-88974352D01*
X90550121Y-88939978D01*
X90624807Y-88890074D01*
X90688322Y-88826559D01*
X90738226Y-88751873D01*
X90772600Y-88668886D01*
X90790124Y-88580788D01*
X90790124Y-88490964D01*
X90787961Y-88480088D01*
X92969000Y-88480088D01*
X92969000Y-88569912D01*
X92986524Y-88658010D01*
X93020898Y-88740997D01*
X93070802Y-88815683D01*
X93134317Y-88879198D01*
X93209003Y-88929102D01*
X93291990Y-88963476D01*
X93380088Y-88981000D01*
X93469912Y-88981000D01*
X93558010Y-88963476D01*
X93640997Y-88929102D01*
X93715683Y-88879198D01*
X93779198Y-88815683D01*
X93829102Y-88740997D01*
X93863476Y-88658010D01*
X93881000Y-88569912D01*
X93881000Y-88480088D01*
X93863476Y-88391990D01*
X93829102Y-88309003D01*
X93806441Y-88275088D01*
X96874000Y-88275088D01*
X96874000Y-88364912D01*
X96891524Y-88453010D01*
X96925898Y-88535997D01*
X96975802Y-88610683D01*
X97039317Y-88674198D01*
X97114003Y-88724102D01*
X97196990Y-88758476D01*
X97285088Y-88776000D01*
X97374912Y-88776000D01*
X97463010Y-88758476D01*
X97545997Y-88724102D01*
X97620683Y-88674198D01*
X97684198Y-88610683D01*
X97734102Y-88535997D01*
X97768476Y-88453010D01*
X97786000Y-88364912D01*
X97786000Y-88275088D01*
X97768476Y-88186990D01*
X97734102Y-88104003D01*
X97684198Y-88029317D01*
X97620683Y-87965802D01*
X97545997Y-87915898D01*
X97463010Y-87881524D01*
X97374912Y-87864000D01*
X97285088Y-87864000D01*
X97196990Y-87881524D01*
X97114003Y-87915898D01*
X97039317Y-87965802D01*
X96975802Y-88029317D01*
X96925898Y-88104003D01*
X96891524Y-88186990D01*
X96874000Y-88275088D01*
X93806441Y-88275088D01*
X93779198Y-88234317D01*
X93715683Y-88170802D01*
X93640997Y-88120898D01*
X93558010Y-88086524D01*
X93469912Y-88069000D01*
X93380088Y-88069000D01*
X93291990Y-88086524D01*
X93209003Y-88120898D01*
X93134317Y-88170802D01*
X93070802Y-88234317D01*
X93020898Y-88309003D01*
X92986524Y-88391990D01*
X92969000Y-88480088D01*
X90787961Y-88480088D01*
X90772600Y-88402866D01*
X90738226Y-88319879D01*
X90688322Y-88245193D01*
X90624807Y-88181678D01*
X90550121Y-88131774D01*
X90467134Y-88097400D01*
X90379036Y-88079876D01*
X90289212Y-88079876D01*
X90201114Y-88097400D01*
X90118127Y-88131774D01*
X90043441Y-88181678D01*
X89979926Y-88245193D01*
X89930022Y-88319879D01*
X89895648Y-88402866D01*
X89878124Y-88490964D01*
X83697000Y-88490964D01*
X83697000Y-87825239D01*
X85999000Y-87825239D01*
X85999000Y-87934761D01*
X86020367Y-88042179D01*
X86062279Y-88143365D01*
X86123127Y-88234429D01*
X86200571Y-88311873D01*
X86291635Y-88372721D01*
X86392821Y-88414633D01*
X86500239Y-88436000D01*
X86609761Y-88436000D01*
X86717179Y-88414633D01*
X86818365Y-88372721D01*
X86909429Y-88311873D01*
X86986873Y-88234429D01*
X87047721Y-88143365D01*
X87089633Y-88042179D01*
X87111000Y-87934761D01*
X87111000Y-87825239D01*
X87109802Y-87819212D01*
X90549876Y-87819212D01*
X90549876Y-87909036D01*
X90567400Y-87997134D01*
X90601774Y-88080121D01*
X90651678Y-88154807D01*
X90715193Y-88218322D01*
X90789879Y-88268226D01*
X90872866Y-88302600D01*
X90960964Y-88320124D01*
X91050788Y-88320124D01*
X91138886Y-88302600D01*
X91221873Y-88268226D01*
X91296559Y-88218322D01*
X91360074Y-88154807D01*
X91409978Y-88080121D01*
X91444352Y-87997134D01*
X91461876Y-87909036D01*
X91461876Y-87819212D01*
X91444352Y-87731114D01*
X91409978Y-87648127D01*
X91360074Y-87573441D01*
X91296559Y-87509926D01*
X91293230Y-87507701D01*
X95689000Y-87507701D01*
X95689000Y-87612299D01*
X95709406Y-87714887D01*
X95749434Y-87811523D01*
X95807546Y-87898493D01*
X95881507Y-87972454D01*
X95968477Y-88030566D01*
X96065113Y-88070594D01*
X96167701Y-88091000D01*
X96272299Y-88091000D01*
X96374887Y-88070594D01*
X96471523Y-88030566D01*
X96558493Y-87972454D01*
X96632454Y-87898493D01*
X96666392Y-87847701D01*
X101318996Y-87847701D01*
X101318996Y-87952299D01*
X101339402Y-88054887D01*
X101379430Y-88151523D01*
X101437542Y-88238493D01*
X101511503Y-88312454D01*
X101598473Y-88370566D01*
X101695109Y-88410594D01*
X101797697Y-88431000D01*
X101902295Y-88431000D01*
X102004883Y-88410594D01*
X102016095Y-88405950D01*
X102011522Y-88416990D01*
X101993998Y-88505088D01*
X101993998Y-88594912D01*
X102011522Y-88683010D01*
X102045896Y-88765997D01*
X102095800Y-88840683D01*
X102159315Y-88904198D01*
X102234001Y-88954102D01*
X102316988Y-88988476D01*
X102405086Y-89006000D01*
X102494910Y-89006000D01*
X102583008Y-88988476D01*
X102665995Y-88954102D01*
X102740681Y-88904198D01*
X102796217Y-88848662D01*
X103969000Y-88848662D01*
X103969000Y-88953260D01*
X103989406Y-89055848D01*
X104029434Y-89152484D01*
X104087546Y-89239454D01*
X104161507Y-89313415D01*
X104248477Y-89371527D01*
X104345113Y-89411555D01*
X104447701Y-89431961D01*
X104552299Y-89431961D01*
X104654887Y-89411555D01*
X104751523Y-89371527D01*
X104838493Y-89313415D01*
X104912454Y-89239454D01*
X104970566Y-89152484D01*
X105010594Y-89055848D01*
X105031000Y-88953260D01*
X105031000Y-88848662D01*
X105010594Y-88746074D01*
X104970566Y-88649438D01*
X104912454Y-88562468D01*
X104838493Y-88488507D01*
X104777424Y-88447701D01*
X111544000Y-88447701D01*
X111544000Y-88552299D01*
X111564406Y-88654887D01*
X111604434Y-88751523D01*
X111662546Y-88838493D01*
X111736507Y-88912454D01*
X111823477Y-88970566D01*
X111920113Y-89010594D01*
X112022701Y-89031000D01*
X112127299Y-89031000D01*
X112229887Y-89010594D01*
X112326523Y-88970566D01*
X112413493Y-88912454D01*
X112487454Y-88838493D01*
X112545566Y-88751523D01*
X112585594Y-88654887D01*
X112606000Y-88552299D01*
X112606000Y-88447701D01*
X112585594Y-88345113D01*
X112545566Y-88248477D01*
X112487454Y-88161507D01*
X112413493Y-88087546D01*
X112326523Y-88029434D01*
X112229887Y-87989406D01*
X112127299Y-87969000D01*
X112022701Y-87969000D01*
X111920113Y-87989406D01*
X111823477Y-88029434D01*
X111736507Y-88087546D01*
X111662546Y-88161507D01*
X111604434Y-88248477D01*
X111564406Y-88345113D01*
X111544000Y-88447701D01*
X104777424Y-88447701D01*
X104751523Y-88430395D01*
X104654887Y-88390367D01*
X104552299Y-88369961D01*
X104447701Y-88369961D01*
X104345113Y-88390367D01*
X104248477Y-88430395D01*
X104161507Y-88488507D01*
X104087546Y-88562468D01*
X104029434Y-88649438D01*
X103989406Y-88746074D01*
X103969000Y-88848662D01*
X102796217Y-88848662D01*
X102804196Y-88840683D01*
X102854100Y-88765997D01*
X102888474Y-88683010D01*
X102905998Y-88594912D01*
X102905998Y-88505088D01*
X102888474Y-88416990D01*
X102854100Y-88334003D01*
X102804196Y-88259317D01*
X102740681Y-88195802D01*
X102665995Y-88145898D01*
X102583008Y-88111524D01*
X102494910Y-88094000D01*
X102405086Y-88094000D01*
X102338939Y-88107158D01*
X102360590Y-88054887D01*
X102380996Y-87952299D01*
X102380996Y-87847701D01*
X102360590Y-87745113D01*
X102320562Y-87648477D01*
X102262450Y-87561507D01*
X102188489Y-87487546D01*
X102101519Y-87429434D01*
X102004883Y-87389406D01*
X101902295Y-87369000D01*
X101797697Y-87369000D01*
X101695109Y-87389406D01*
X101598473Y-87429434D01*
X101511503Y-87487546D01*
X101437542Y-87561507D01*
X101379430Y-87648477D01*
X101339402Y-87745113D01*
X101318996Y-87847701D01*
X96666392Y-87847701D01*
X96690566Y-87811523D01*
X96730594Y-87714887D01*
X96751000Y-87612299D01*
X96751000Y-87507701D01*
X96730594Y-87405113D01*
X96690566Y-87308477D01*
X96688302Y-87305088D01*
X100094000Y-87305088D01*
X100094000Y-87394912D01*
X100111524Y-87483010D01*
X100145898Y-87565997D01*
X100195802Y-87640683D01*
X100259317Y-87704198D01*
X100334003Y-87754102D01*
X100416990Y-87788476D01*
X100505088Y-87806000D01*
X100594912Y-87806000D01*
X100683010Y-87788476D01*
X100765997Y-87754102D01*
X100840683Y-87704198D01*
X100904198Y-87640683D01*
X100954102Y-87565997D01*
X100988476Y-87483010D01*
X101006000Y-87394912D01*
X101006000Y-87305088D01*
X100994585Y-87247701D01*
X105219000Y-87247701D01*
X105219000Y-87352299D01*
X105239406Y-87454887D01*
X105279434Y-87551523D01*
X105337546Y-87638493D01*
X105411507Y-87712454D01*
X105498477Y-87770566D01*
X105595113Y-87810594D01*
X105697701Y-87831000D01*
X105802299Y-87831000D01*
X105904887Y-87810594D01*
X106001523Y-87770566D01*
X106088493Y-87712454D01*
X106162454Y-87638493D01*
X106220566Y-87551523D01*
X106260594Y-87454887D01*
X106281000Y-87352299D01*
X106281000Y-87247701D01*
X109819000Y-87247701D01*
X109819000Y-87352299D01*
X109839406Y-87454887D01*
X109879434Y-87551523D01*
X109937546Y-87638493D01*
X110011507Y-87712454D01*
X110098477Y-87770566D01*
X110195113Y-87810594D01*
X110297701Y-87831000D01*
X110402299Y-87831000D01*
X110504887Y-87810594D01*
X110601523Y-87770566D01*
X110688493Y-87712454D01*
X110762454Y-87638493D01*
X110820566Y-87551523D01*
X110860594Y-87454887D01*
X110881000Y-87352299D01*
X110881000Y-87247701D01*
X110875313Y-87219109D01*
X115144000Y-87219109D01*
X115144000Y-87308933D01*
X115161524Y-87397031D01*
X115195898Y-87480018D01*
X115245802Y-87554704D01*
X115309317Y-87618219D01*
X115384003Y-87668123D01*
X115466990Y-87702497D01*
X115555088Y-87720021D01*
X115644912Y-87720021D01*
X115733010Y-87702497D01*
X115815997Y-87668123D01*
X115831690Y-87657637D01*
X115787833Y-87763517D01*
X115759970Y-87903591D01*
X115759970Y-88046409D01*
X115787833Y-88186483D01*
X115842487Y-88318430D01*
X115921833Y-88437180D01*
X116022820Y-88538167D01*
X116141570Y-88617513D01*
X116273517Y-88672167D01*
X116413591Y-88700030D01*
X116524023Y-88700030D01*
X116512546Y-88711507D01*
X116454434Y-88798477D01*
X116414406Y-88895113D01*
X116394000Y-88997701D01*
X116394000Y-89102299D01*
X116414406Y-89204887D01*
X116454434Y-89301523D01*
X116512546Y-89388493D01*
X116586507Y-89462454D01*
X116673477Y-89520566D01*
X116770113Y-89560594D01*
X116872701Y-89581000D01*
X116977299Y-89581000D01*
X117079887Y-89560594D01*
X117176523Y-89520566D01*
X117263493Y-89462454D01*
X117337454Y-89388493D01*
X117395566Y-89301523D01*
X117435594Y-89204887D01*
X117456000Y-89102299D01*
X117456000Y-88997701D01*
X117435594Y-88895113D01*
X117395566Y-88798477D01*
X117337454Y-88711507D01*
X117263493Y-88637546D01*
X117176523Y-88579434D01*
X117079887Y-88539406D01*
X116977299Y-88519000D01*
X116966347Y-88519000D01*
X117048167Y-88437180D01*
X117127513Y-88318430D01*
X117165094Y-88227701D01*
X133529000Y-88227701D01*
X133529000Y-88332299D01*
X133549406Y-88434887D01*
X133589434Y-88531523D01*
X133647546Y-88618493D01*
X133721507Y-88692454D01*
X133808477Y-88750566D01*
X133905113Y-88790594D01*
X134007701Y-88811000D01*
X134112299Y-88811000D01*
X134214887Y-88790594D01*
X134311523Y-88750566D01*
X134398493Y-88692454D01*
X134472454Y-88618493D01*
X134530566Y-88531523D01*
X134570132Y-88436002D01*
X134571526Y-88443010D01*
X134605900Y-88525997D01*
X134655804Y-88600683D01*
X134719319Y-88664198D01*
X134794005Y-88714102D01*
X134876992Y-88748476D01*
X134965090Y-88766000D01*
X135054914Y-88766000D01*
X135143012Y-88748476D01*
X135225999Y-88714102D01*
X135300685Y-88664198D01*
X135364200Y-88600683D01*
X135414104Y-88525997D01*
X135448478Y-88443010D01*
X135466002Y-88354912D01*
X135466002Y-88265088D01*
X135448478Y-88176990D01*
X135414104Y-88094003D01*
X135364200Y-88019317D01*
X135300685Y-87955802D01*
X135225999Y-87905898D01*
X135143012Y-87871524D01*
X135054914Y-87854000D01*
X134965090Y-87854000D01*
X134876992Y-87871524D01*
X134794005Y-87905898D01*
X134719319Y-87955802D01*
X134655804Y-88019317D01*
X134605900Y-88094003D01*
X134577868Y-88161680D01*
X134570594Y-88125113D01*
X134530566Y-88028477D01*
X134472454Y-87941507D01*
X134398493Y-87867546D01*
X134311523Y-87809434D01*
X134214887Y-87769406D01*
X134112299Y-87749000D01*
X134007701Y-87749000D01*
X133905113Y-87769406D01*
X133808477Y-87809434D01*
X133721507Y-87867546D01*
X133647546Y-87941507D01*
X133589434Y-88028477D01*
X133549406Y-88125113D01*
X133529000Y-88227701D01*
X117165094Y-88227701D01*
X117182167Y-88186483D01*
X117210030Y-88046409D01*
X117210030Y-87903591D01*
X117182167Y-87763517D01*
X117127513Y-87631570D01*
X117048167Y-87512820D01*
X116947180Y-87411833D01*
X116828430Y-87332487D01*
X116696483Y-87277833D01*
X116556409Y-87249970D01*
X116413591Y-87249970D01*
X116273517Y-87277833D01*
X116141570Y-87332487D01*
X116035990Y-87403033D01*
X116038476Y-87397031D01*
X116056000Y-87308933D01*
X116056000Y-87219109D01*
X116038476Y-87131011D01*
X116004102Y-87048024D01*
X115954198Y-86973338D01*
X115890683Y-86909823D01*
X115815997Y-86859919D01*
X115733010Y-86825545D01*
X115644912Y-86808021D01*
X115555088Y-86808021D01*
X115466990Y-86825545D01*
X115384003Y-86859919D01*
X115309317Y-86909823D01*
X115245802Y-86973338D01*
X115195898Y-87048024D01*
X115161524Y-87131011D01*
X115144000Y-87219109D01*
X110875313Y-87219109D01*
X110860594Y-87145113D01*
X110820566Y-87048477D01*
X110762454Y-86961507D01*
X110688493Y-86887546D01*
X110601523Y-86829434D01*
X110504887Y-86789406D01*
X110402299Y-86769000D01*
X110297701Y-86769000D01*
X110195113Y-86789406D01*
X110098477Y-86829434D01*
X110011507Y-86887546D01*
X109937546Y-86961507D01*
X109879434Y-87048477D01*
X109839406Y-87145113D01*
X109819000Y-87247701D01*
X106281000Y-87247701D01*
X106260594Y-87145113D01*
X106220566Y-87048477D01*
X106162454Y-86961507D01*
X106088493Y-86887546D01*
X106001523Y-86829434D01*
X105904887Y-86789406D01*
X105802299Y-86769000D01*
X105697701Y-86769000D01*
X105595113Y-86789406D01*
X105498477Y-86829434D01*
X105411507Y-86887546D01*
X105337546Y-86961507D01*
X105279434Y-87048477D01*
X105239406Y-87145113D01*
X105219000Y-87247701D01*
X100994585Y-87247701D01*
X100988476Y-87216990D01*
X100954102Y-87134003D01*
X100904198Y-87059317D01*
X100840683Y-86995802D01*
X100765997Y-86945898D01*
X100683010Y-86911524D01*
X100594912Y-86894000D01*
X100505088Y-86894000D01*
X100416990Y-86911524D01*
X100334003Y-86945898D01*
X100259317Y-86995802D01*
X100195802Y-87059317D01*
X100145898Y-87134003D01*
X100111524Y-87216990D01*
X100094000Y-87305088D01*
X96688302Y-87305088D01*
X96632454Y-87221507D01*
X96558493Y-87147546D01*
X96471523Y-87089434D01*
X96374887Y-87049406D01*
X96272299Y-87029000D01*
X96167701Y-87029000D01*
X96065113Y-87049406D01*
X95968477Y-87089434D01*
X95881507Y-87147546D01*
X95807546Y-87221507D01*
X95749434Y-87308477D01*
X95709406Y-87405113D01*
X95689000Y-87507701D01*
X91293230Y-87507701D01*
X91221873Y-87460022D01*
X91138886Y-87425648D01*
X91050788Y-87408124D01*
X90960964Y-87408124D01*
X90872866Y-87425648D01*
X90789879Y-87460022D01*
X90715193Y-87509926D01*
X90651678Y-87573441D01*
X90601774Y-87648127D01*
X90567400Y-87731114D01*
X90549876Y-87819212D01*
X87109802Y-87819212D01*
X87089633Y-87717821D01*
X87047721Y-87616635D01*
X86986873Y-87525571D01*
X86909429Y-87448127D01*
X86818365Y-87387279D01*
X86717179Y-87345367D01*
X86609761Y-87324000D01*
X86500239Y-87324000D01*
X86392821Y-87345367D01*
X86291635Y-87387279D01*
X86200571Y-87448127D01*
X86123127Y-87525571D01*
X86062279Y-87616635D01*
X86020367Y-87717821D01*
X85999000Y-87825239D01*
X83697000Y-87825239D01*
X83697000Y-85705088D01*
X88944000Y-85705088D01*
X88944000Y-85794912D01*
X88961524Y-85883010D01*
X88995898Y-85965997D01*
X89045802Y-86040683D01*
X89109317Y-86104198D01*
X89165449Y-86141705D01*
X89159317Y-86145802D01*
X89095802Y-86209317D01*
X89045898Y-86284003D01*
X89011524Y-86366990D01*
X88994000Y-86455088D01*
X88994000Y-86544912D01*
X89011524Y-86633010D01*
X89045898Y-86715997D01*
X89095802Y-86790683D01*
X89159317Y-86854198D01*
X89234003Y-86904102D01*
X89316990Y-86938476D01*
X89405088Y-86956000D01*
X89494912Y-86956000D01*
X89583010Y-86938476D01*
X89665997Y-86904102D01*
X89740683Y-86854198D01*
X89804198Y-86790683D01*
X89854102Y-86715997D01*
X89888476Y-86633010D01*
X89894030Y-86605088D01*
X90544000Y-86605088D01*
X90544000Y-86694912D01*
X90561524Y-86783010D01*
X90595898Y-86865997D01*
X90645802Y-86940683D01*
X90709317Y-87004198D01*
X90784003Y-87054102D01*
X90866990Y-87088476D01*
X90955088Y-87106000D01*
X91044912Y-87106000D01*
X91133010Y-87088476D01*
X91215997Y-87054102D01*
X91290683Y-87004198D01*
X91354198Y-86940683D01*
X91404102Y-86865997D01*
X91438476Y-86783010D01*
X91456000Y-86694912D01*
X91456000Y-86605088D01*
X91438476Y-86516990D01*
X91404102Y-86434003D01*
X91354198Y-86359317D01*
X91290683Y-86295802D01*
X91215997Y-86245898D01*
X91133010Y-86211524D01*
X91044912Y-86194000D01*
X90955088Y-86194000D01*
X90866990Y-86211524D01*
X90784003Y-86245898D01*
X90709317Y-86295802D01*
X90645802Y-86359317D01*
X90595898Y-86434003D01*
X90561524Y-86516990D01*
X90544000Y-86605088D01*
X89894030Y-86605088D01*
X89906000Y-86544912D01*
X89906000Y-86455088D01*
X89888476Y-86366990D01*
X89854102Y-86284003D01*
X89804198Y-86209317D01*
X89740683Y-86145802D01*
X89684551Y-86108295D01*
X89690683Y-86104198D01*
X89739793Y-86055088D01*
X93364000Y-86055088D01*
X93364000Y-86144912D01*
X93381524Y-86233010D01*
X93415898Y-86315997D01*
X93465802Y-86390683D01*
X93529317Y-86454198D01*
X93604003Y-86504102D01*
X93686990Y-86538476D01*
X93775088Y-86556000D01*
X93864912Y-86556000D01*
X93953010Y-86538476D01*
X94035997Y-86504102D01*
X94110683Y-86454198D01*
X94174198Y-86390683D01*
X94224102Y-86315997D01*
X94258476Y-86233010D01*
X94274773Y-86151078D01*
X102490177Y-86151078D01*
X102490177Y-86240902D01*
X102507701Y-86329000D01*
X102542075Y-86411987D01*
X102591979Y-86486673D01*
X102655494Y-86550188D01*
X102730180Y-86600092D01*
X102813167Y-86634466D01*
X102901265Y-86651990D01*
X102991089Y-86651990D01*
X103079187Y-86634466D01*
X103162174Y-86600092D01*
X103236860Y-86550188D01*
X103300375Y-86486673D01*
X103350279Y-86411987D01*
X103356196Y-86397701D01*
X111969000Y-86397701D01*
X111969000Y-86502299D01*
X111989406Y-86604887D01*
X112029434Y-86701523D01*
X112087546Y-86788493D01*
X112161507Y-86862454D01*
X112248477Y-86920566D01*
X112345113Y-86960594D01*
X112447701Y-86981000D01*
X112552299Y-86981000D01*
X112654887Y-86960594D01*
X112751523Y-86920566D01*
X112838493Y-86862454D01*
X112912454Y-86788493D01*
X112970566Y-86701523D01*
X113010594Y-86604887D01*
X113017712Y-86569100D01*
X119194000Y-86569100D01*
X119194000Y-86658924D01*
X119211524Y-86747022D01*
X119245898Y-86830009D01*
X119295802Y-86904695D01*
X119359317Y-86968210D01*
X119434003Y-87018114D01*
X119516990Y-87052488D01*
X119605088Y-87070012D01*
X119694912Y-87070012D01*
X119783010Y-87052488D01*
X119865997Y-87018114D01*
X119940683Y-86968210D01*
X120004198Y-86904695D01*
X120015543Y-86887716D01*
X120841240Y-86887716D01*
X120841240Y-87030284D01*
X120869054Y-87170113D01*
X120923612Y-87301829D01*
X121002819Y-87420370D01*
X121103630Y-87521181D01*
X121222171Y-87600388D01*
X121353887Y-87654946D01*
X121493716Y-87682760D01*
X121636284Y-87682760D01*
X121776113Y-87654946D01*
X121907829Y-87600388D01*
X122026370Y-87521181D01*
X122127181Y-87420370D01*
X122206388Y-87301829D01*
X122260946Y-87170113D01*
X122288760Y-87030284D01*
X122288760Y-86947701D01*
X128969000Y-86947701D01*
X128969000Y-87052299D01*
X128989406Y-87154887D01*
X129029434Y-87251523D01*
X129087546Y-87338493D01*
X129161507Y-87412454D01*
X129248477Y-87470566D01*
X129345113Y-87510594D01*
X129447701Y-87531000D01*
X129552299Y-87531000D01*
X129654887Y-87510594D01*
X129751523Y-87470566D01*
X129813990Y-87428827D01*
X129813990Y-87475421D01*
X129831514Y-87563519D01*
X129865888Y-87646506D01*
X129915792Y-87721192D01*
X129979307Y-87784707D01*
X130053993Y-87834611D01*
X130136980Y-87868985D01*
X130225078Y-87886509D01*
X130314902Y-87886509D01*
X130403000Y-87868985D01*
X130485987Y-87834611D01*
X130560673Y-87784707D01*
X130624188Y-87721192D01*
X130674092Y-87646506D01*
X130708466Y-87563519D01*
X130725990Y-87475421D01*
X130725990Y-87385597D01*
X130708466Y-87297499D01*
X130674092Y-87214512D01*
X130624188Y-87139826D01*
X130560673Y-87076311D01*
X130485987Y-87026407D01*
X130403000Y-86992033D01*
X130314902Y-86974509D01*
X130225078Y-86974509D01*
X130136980Y-86992033D01*
X130053993Y-87026407D01*
X130031000Y-87041771D01*
X130031000Y-86947701D01*
X130010594Y-86845113D01*
X129970566Y-86748477D01*
X129953343Y-86722701D01*
X140119000Y-86722701D01*
X140119000Y-86827299D01*
X140139406Y-86929887D01*
X140179434Y-87026523D01*
X140237546Y-87113493D01*
X140311507Y-87187454D01*
X140398477Y-87245566D01*
X140495113Y-87285594D01*
X140597701Y-87306000D01*
X140702299Y-87306000D01*
X140804887Y-87285594D01*
X140901523Y-87245566D01*
X140988493Y-87187454D01*
X141062454Y-87113493D01*
X141120566Y-87026523D01*
X141160594Y-86929887D01*
X141181000Y-86827299D01*
X141181000Y-86722701D01*
X141160594Y-86620113D01*
X141120566Y-86523477D01*
X141062454Y-86436507D01*
X140988493Y-86362546D01*
X140901523Y-86304434D01*
X140804887Y-86264406D01*
X140702299Y-86244000D01*
X140597701Y-86244000D01*
X140495113Y-86264406D01*
X140398477Y-86304434D01*
X140311507Y-86362546D01*
X140237546Y-86436507D01*
X140179434Y-86523477D01*
X140139406Y-86620113D01*
X140119000Y-86722701D01*
X129953343Y-86722701D01*
X129912454Y-86661507D01*
X129838493Y-86587546D01*
X129751523Y-86529434D01*
X129654887Y-86489406D01*
X129552299Y-86469000D01*
X129447701Y-86469000D01*
X129345113Y-86489406D01*
X129248477Y-86529434D01*
X129161507Y-86587546D01*
X129087546Y-86661507D01*
X129029434Y-86748477D01*
X128989406Y-86845113D01*
X128969000Y-86947701D01*
X122288760Y-86947701D01*
X122288760Y-86887716D01*
X122260946Y-86747887D01*
X122206388Y-86616171D01*
X122127181Y-86497630D01*
X122026370Y-86396819D01*
X121907829Y-86317612D01*
X121776113Y-86263054D01*
X121636284Y-86235240D01*
X121493716Y-86235240D01*
X121353887Y-86263054D01*
X121222171Y-86317612D01*
X121103630Y-86396819D01*
X121002819Y-86497630D01*
X120923612Y-86616171D01*
X120869054Y-86747887D01*
X120841240Y-86887716D01*
X120015543Y-86887716D01*
X120054102Y-86830009D01*
X120088476Y-86747022D01*
X120106000Y-86658924D01*
X120106000Y-86569100D01*
X120088476Y-86481002D01*
X120054102Y-86398015D01*
X120004198Y-86323329D01*
X119940683Y-86259814D01*
X119865997Y-86209910D01*
X119820336Y-86190997D01*
X119833010Y-86188476D01*
X119915997Y-86154102D01*
X119990683Y-86104198D01*
X120054198Y-86040683D01*
X120104102Y-85965997D01*
X120138476Y-85883010D01*
X120156000Y-85794912D01*
X120156000Y-85705088D01*
X120138476Y-85616990D01*
X120123191Y-85580088D01*
X120194000Y-85580088D01*
X120194000Y-85669912D01*
X120211524Y-85758010D01*
X120245898Y-85840997D01*
X120295802Y-85915683D01*
X120359317Y-85979198D01*
X120434003Y-86029102D01*
X120516990Y-86063476D01*
X120605088Y-86081000D01*
X120694912Y-86081000D01*
X120783010Y-86063476D01*
X120865997Y-86029102D01*
X120940683Y-85979198D01*
X121004198Y-85915683D01*
X121054102Y-85840997D01*
X121088476Y-85758010D01*
X121106000Y-85669912D01*
X121106000Y-85622701D01*
X122869000Y-85622701D01*
X122869000Y-85727299D01*
X122889406Y-85829887D01*
X122929434Y-85926523D01*
X122987546Y-86013493D01*
X123061507Y-86087454D01*
X123148477Y-86145566D01*
X123245113Y-86185594D01*
X123347701Y-86206000D01*
X123452299Y-86206000D01*
X123554887Y-86185594D01*
X123651523Y-86145566D01*
X123738493Y-86087454D01*
X123812454Y-86013493D01*
X123870566Y-85926523D01*
X123910594Y-85829887D01*
X123931000Y-85727299D01*
X123931000Y-85622701D01*
X123910594Y-85520113D01*
X123870566Y-85423477D01*
X123812454Y-85336507D01*
X123738493Y-85262546D01*
X123716277Y-85247701D01*
X136419000Y-85247701D01*
X136419000Y-85352299D01*
X136439406Y-85454887D01*
X136479434Y-85551523D01*
X136537546Y-85638493D01*
X136611507Y-85712454D01*
X136698477Y-85770566D01*
X136795113Y-85810594D01*
X136897701Y-85831000D01*
X137002299Y-85831000D01*
X137104887Y-85810594D01*
X137201523Y-85770566D01*
X137288493Y-85712454D01*
X137362454Y-85638493D01*
X137420566Y-85551523D01*
X137460594Y-85454887D01*
X137481000Y-85352299D01*
X137481000Y-85247701D01*
X137460594Y-85145113D01*
X137450901Y-85121711D01*
X139769000Y-85121711D01*
X139769000Y-85226309D01*
X139789406Y-85328897D01*
X139829434Y-85425533D01*
X139887546Y-85512503D01*
X139961507Y-85586464D01*
X140048477Y-85644576D01*
X140145113Y-85684604D01*
X140247701Y-85705010D01*
X140352299Y-85705010D01*
X140454887Y-85684604D01*
X140551523Y-85644576D01*
X140638493Y-85586464D01*
X140712454Y-85512503D01*
X140770566Y-85425533D01*
X140810594Y-85328897D01*
X140831000Y-85226309D01*
X140831000Y-85121711D01*
X140810594Y-85019123D01*
X140770566Y-84922487D01*
X140712454Y-84835517D01*
X140638493Y-84761556D01*
X140551523Y-84703444D01*
X140454887Y-84663416D01*
X140352299Y-84643010D01*
X140247701Y-84643010D01*
X140145113Y-84663416D01*
X140048477Y-84703444D01*
X139961507Y-84761556D01*
X139887546Y-84835517D01*
X139829434Y-84922487D01*
X139789406Y-85019123D01*
X139769000Y-85121711D01*
X137450901Y-85121711D01*
X137420566Y-85048477D01*
X137362454Y-84961507D01*
X137288493Y-84887546D01*
X137201523Y-84829434D01*
X137104887Y-84789406D01*
X137002299Y-84769000D01*
X136897701Y-84769000D01*
X136795113Y-84789406D01*
X136698477Y-84829434D01*
X136611507Y-84887546D01*
X136537546Y-84961507D01*
X136479434Y-85048477D01*
X136439406Y-85145113D01*
X136419000Y-85247701D01*
X123716277Y-85247701D01*
X123651523Y-85204434D01*
X123554887Y-85164406D01*
X123452299Y-85144000D01*
X123347701Y-85144000D01*
X123245113Y-85164406D01*
X123148477Y-85204434D01*
X123061507Y-85262546D01*
X122987546Y-85336507D01*
X122929434Y-85423477D01*
X122889406Y-85520113D01*
X122869000Y-85622701D01*
X121106000Y-85622701D01*
X121106000Y-85580088D01*
X121088476Y-85491990D01*
X121054102Y-85409003D01*
X121004198Y-85334317D01*
X120940683Y-85270802D01*
X120865997Y-85220898D01*
X120783010Y-85186524D01*
X120694912Y-85169000D01*
X120605088Y-85169000D01*
X120516990Y-85186524D01*
X120434003Y-85220898D01*
X120359317Y-85270802D01*
X120295802Y-85334317D01*
X120245898Y-85409003D01*
X120211524Y-85491990D01*
X120194000Y-85580088D01*
X120123191Y-85580088D01*
X120104102Y-85534003D01*
X120054198Y-85459317D01*
X119990683Y-85395802D01*
X119915997Y-85345898D01*
X119833010Y-85311524D01*
X119744912Y-85294000D01*
X119655088Y-85294000D01*
X119566990Y-85311524D01*
X119484003Y-85345898D01*
X119409317Y-85395802D01*
X119345802Y-85459317D01*
X119295898Y-85534003D01*
X119261524Y-85616990D01*
X119244000Y-85705088D01*
X119244000Y-85794912D01*
X119261524Y-85883010D01*
X119295898Y-85965997D01*
X119345802Y-86040683D01*
X119409317Y-86104198D01*
X119484003Y-86154102D01*
X119529664Y-86173015D01*
X119516990Y-86175536D01*
X119434003Y-86209910D01*
X119359317Y-86259814D01*
X119295802Y-86323329D01*
X119245898Y-86398015D01*
X119211524Y-86481002D01*
X119194000Y-86569100D01*
X113017712Y-86569100D01*
X113031000Y-86502299D01*
X113031000Y-86397701D01*
X113010594Y-86295113D01*
X112970566Y-86198477D01*
X112912454Y-86111507D01*
X112838493Y-86037546D01*
X112751523Y-85979434D01*
X112654887Y-85939406D01*
X112552299Y-85919000D01*
X112447701Y-85919000D01*
X112345113Y-85939406D01*
X112248477Y-85979434D01*
X112161507Y-86037546D01*
X112087546Y-86111507D01*
X112029434Y-86198477D01*
X111989406Y-86295113D01*
X111969000Y-86397701D01*
X103356196Y-86397701D01*
X103384653Y-86329000D01*
X103402177Y-86240902D01*
X103402177Y-86151078D01*
X103384653Y-86062980D01*
X103350279Y-85979993D01*
X103300375Y-85905307D01*
X103236860Y-85841792D01*
X103162174Y-85791888D01*
X103079187Y-85757514D01*
X102991089Y-85739990D01*
X102901265Y-85739990D01*
X102813167Y-85757514D01*
X102730180Y-85791888D01*
X102655494Y-85841792D01*
X102591979Y-85905307D01*
X102542075Y-85979993D01*
X102507701Y-86062980D01*
X102490177Y-86151078D01*
X94274773Y-86151078D01*
X94276000Y-86144912D01*
X94276000Y-86055088D01*
X94258476Y-85966990D01*
X94224102Y-85884003D01*
X94174198Y-85809317D01*
X94110683Y-85745802D01*
X94035997Y-85695898D01*
X93953010Y-85661524D01*
X93864912Y-85644000D01*
X93775088Y-85644000D01*
X93686990Y-85661524D01*
X93604003Y-85695898D01*
X93529317Y-85745802D01*
X93465802Y-85809317D01*
X93415898Y-85884003D01*
X93381524Y-85966990D01*
X93364000Y-86055088D01*
X89739793Y-86055088D01*
X89754198Y-86040683D01*
X89804102Y-85965997D01*
X89838476Y-85883010D01*
X89856000Y-85794912D01*
X89856000Y-85705088D01*
X89838476Y-85616990D01*
X89804102Y-85534003D01*
X89754198Y-85459317D01*
X89724969Y-85430088D01*
X90254000Y-85430088D01*
X90254000Y-85519912D01*
X90271524Y-85608010D01*
X90305898Y-85690997D01*
X90355802Y-85765683D01*
X90419317Y-85829198D01*
X90494003Y-85879102D01*
X90576990Y-85913476D01*
X90665088Y-85931000D01*
X90754912Y-85931000D01*
X90843010Y-85913476D01*
X90925997Y-85879102D01*
X91000683Y-85829198D01*
X91064198Y-85765683D01*
X91114102Y-85690997D01*
X91148476Y-85608010D01*
X91166000Y-85519912D01*
X91166000Y-85430088D01*
X91148476Y-85341990D01*
X91114102Y-85259003D01*
X91064198Y-85184317D01*
X91000683Y-85120802D01*
X90925997Y-85070898D01*
X90843010Y-85036524D01*
X90754912Y-85019000D01*
X90665088Y-85019000D01*
X90576990Y-85036524D01*
X90494003Y-85070898D01*
X90419317Y-85120802D01*
X90355802Y-85184317D01*
X90305898Y-85259003D01*
X90271524Y-85341990D01*
X90254000Y-85430088D01*
X89724969Y-85430088D01*
X89690683Y-85395802D01*
X89615997Y-85345898D01*
X89533010Y-85311524D01*
X89444912Y-85294000D01*
X89355088Y-85294000D01*
X89266990Y-85311524D01*
X89184003Y-85345898D01*
X89109317Y-85395802D01*
X89045802Y-85459317D01*
X88995898Y-85534003D01*
X88961524Y-85616990D01*
X88944000Y-85705088D01*
X83697000Y-85705088D01*
X83697000Y-84480088D01*
X90254000Y-84480088D01*
X90254000Y-84569912D01*
X90271524Y-84658010D01*
X90305898Y-84740997D01*
X90355802Y-84815683D01*
X90419317Y-84879198D01*
X90494003Y-84929102D01*
X90576990Y-84963476D01*
X90665088Y-84981000D01*
X90754912Y-84981000D01*
X90843010Y-84963476D01*
X90856952Y-84957701D01*
X92339000Y-84957701D01*
X92339000Y-85062299D01*
X92359406Y-85164887D01*
X92399434Y-85261523D01*
X92457546Y-85348493D01*
X92531507Y-85422454D01*
X92618477Y-85480566D01*
X92715113Y-85520594D01*
X92817701Y-85541000D01*
X92922299Y-85541000D01*
X93024887Y-85520594D01*
X93121523Y-85480566D01*
X93208493Y-85422454D01*
X93282454Y-85348493D01*
X93340566Y-85261523D01*
X93380594Y-85164887D01*
X93401000Y-85062299D01*
X93401000Y-84957701D01*
X93380594Y-84855113D01*
X93340566Y-84758477D01*
X93282454Y-84671507D01*
X93228648Y-84617701D01*
X97299000Y-84617701D01*
X97299000Y-84722299D01*
X97319406Y-84824887D01*
X97359434Y-84921523D01*
X97417546Y-85008493D01*
X97491507Y-85082454D01*
X97578477Y-85140566D01*
X97675113Y-85180594D01*
X97777701Y-85201000D01*
X97882299Y-85201000D01*
X97984887Y-85180594D01*
X98081523Y-85140566D01*
X98168493Y-85082454D01*
X98242454Y-85008493D01*
X98300566Y-84921523D01*
X98340594Y-84824887D01*
X98361000Y-84722299D01*
X98361000Y-84637701D01*
X98729000Y-84637701D01*
X98729000Y-84742299D01*
X98749406Y-84844887D01*
X98789434Y-84941523D01*
X98847546Y-85028493D01*
X98921507Y-85102454D01*
X99008477Y-85160566D01*
X99105113Y-85200594D01*
X99207701Y-85221000D01*
X99312299Y-85221000D01*
X99414887Y-85200594D01*
X99511523Y-85160566D01*
X99598493Y-85102454D01*
X99672454Y-85028493D01*
X99730566Y-84941523D01*
X99770594Y-84844887D01*
X99791000Y-84742299D01*
X99791000Y-84667699D01*
X101699000Y-84667699D01*
X101699000Y-84772297D01*
X101719406Y-84874885D01*
X101759434Y-84971521D01*
X101817546Y-85058491D01*
X101891507Y-85132452D01*
X101978477Y-85190564D01*
X102075113Y-85230592D01*
X102177701Y-85250998D01*
X102282299Y-85250998D01*
X102384887Y-85230592D01*
X102481523Y-85190564D01*
X102568493Y-85132452D01*
X102642454Y-85058491D01*
X102700566Y-84971521D01*
X102731143Y-84897701D01*
X116469000Y-84897701D01*
X116469000Y-85002299D01*
X116489406Y-85104887D01*
X116529434Y-85201523D01*
X116587546Y-85288493D01*
X116661507Y-85362454D01*
X116748477Y-85420566D01*
X116845113Y-85460594D01*
X116947701Y-85481000D01*
X117052299Y-85481000D01*
X117154887Y-85460594D01*
X117251523Y-85420566D01*
X117338493Y-85362454D01*
X117412454Y-85288493D01*
X117470566Y-85201523D01*
X117510594Y-85104887D01*
X117531000Y-85002299D01*
X117531000Y-84897701D01*
X117510594Y-84795113D01*
X117470566Y-84698477D01*
X117412454Y-84611507D01*
X117338493Y-84537546D01*
X117251523Y-84479434D01*
X117154887Y-84439406D01*
X117052299Y-84419000D01*
X116947701Y-84419000D01*
X116845113Y-84439406D01*
X116748477Y-84479434D01*
X116661507Y-84537546D01*
X116587546Y-84611507D01*
X116529434Y-84698477D01*
X116489406Y-84795113D01*
X116469000Y-84897701D01*
X102731143Y-84897701D01*
X102740594Y-84874885D01*
X102761000Y-84772297D01*
X102761000Y-84667699D01*
X102740594Y-84565111D01*
X102700566Y-84468475D01*
X102642454Y-84381505D01*
X102568493Y-84307544D01*
X102481523Y-84249432D01*
X102384887Y-84209404D01*
X102282299Y-84188998D01*
X102177701Y-84188998D01*
X102075113Y-84209404D01*
X101978477Y-84249432D01*
X101891507Y-84307544D01*
X101817546Y-84381505D01*
X101759434Y-84468475D01*
X101719406Y-84565111D01*
X101699000Y-84667699D01*
X99791000Y-84667699D01*
X99791000Y-84637701D01*
X99770594Y-84535113D01*
X99730566Y-84438477D01*
X99672454Y-84351507D01*
X99598493Y-84277546D01*
X99511523Y-84219434D01*
X99414887Y-84179406D01*
X99312299Y-84159000D01*
X99207701Y-84159000D01*
X99105113Y-84179406D01*
X99008477Y-84219434D01*
X98921507Y-84277546D01*
X98847546Y-84351507D01*
X98789434Y-84438477D01*
X98749406Y-84535113D01*
X98729000Y-84637701D01*
X98361000Y-84637701D01*
X98361000Y-84617701D01*
X98340594Y-84515113D01*
X98300566Y-84418477D01*
X98242454Y-84331507D01*
X98168493Y-84257546D01*
X98081523Y-84199434D01*
X97984887Y-84159406D01*
X97882299Y-84139000D01*
X97777701Y-84139000D01*
X97675113Y-84159406D01*
X97578477Y-84199434D01*
X97491507Y-84257546D01*
X97417546Y-84331507D01*
X97359434Y-84418477D01*
X97319406Y-84515113D01*
X97299000Y-84617701D01*
X93228648Y-84617701D01*
X93208493Y-84597546D01*
X93121523Y-84539434D01*
X93024887Y-84499406D01*
X92922299Y-84479000D01*
X92817701Y-84479000D01*
X92715113Y-84499406D01*
X92618477Y-84539434D01*
X92531507Y-84597546D01*
X92457546Y-84671507D01*
X92399434Y-84758477D01*
X92359406Y-84855113D01*
X92339000Y-84957701D01*
X90856952Y-84957701D01*
X90925997Y-84929102D01*
X91000683Y-84879198D01*
X91064198Y-84815683D01*
X91114102Y-84740997D01*
X91148476Y-84658010D01*
X91166000Y-84569912D01*
X91166000Y-84480088D01*
X91148476Y-84391990D01*
X91114102Y-84309003D01*
X91064198Y-84234317D01*
X91000683Y-84170802D01*
X90925997Y-84120898D01*
X90843010Y-84086524D01*
X90754912Y-84069000D01*
X90665088Y-84069000D01*
X90576990Y-84086524D01*
X90494003Y-84120898D01*
X90419317Y-84170802D01*
X90355802Y-84234317D01*
X90305898Y-84309003D01*
X90271524Y-84391990D01*
X90254000Y-84480088D01*
X83697000Y-84480088D01*
X83697000Y-84045088D01*
X94834000Y-84045088D01*
X94834000Y-84134912D01*
X94851524Y-84223010D01*
X94885898Y-84305997D01*
X94935802Y-84380683D01*
X94999317Y-84444198D01*
X95074003Y-84494102D01*
X95156990Y-84528476D01*
X95245088Y-84546000D01*
X95334912Y-84546000D01*
X95423010Y-84528476D01*
X95505997Y-84494102D01*
X95580683Y-84444198D01*
X95644198Y-84380683D01*
X95694102Y-84305997D01*
X95728476Y-84223010D01*
X95746000Y-84134912D01*
X95746000Y-84045088D01*
X95728476Y-83956990D01*
X95709785Y-83911864D01*
X122783163Y-83911864D01*
X122783163Y-84016462D01*
X122803569Y-84119050D01*
X122843597Y-84215686D01*
X122901709Y-84302656D01*
X122975670Y-84376617D01*
X123062640Y-84434729D01*
X123159276Y-84474757D01*
X123261864Y-84495163D01*
X123366462Y-84495163D01*
X123469050Y-84474757D01*
X123565686Y-84434729D01*
X123652656Y-84376617D01*
X123726617Y-84302656D01*
X123784729Y-84215686D01*
X123824757Y-84119050D01*
X123845163Y-84016462D01*
X123845163Y-83911864D01*
X123824757Y-83809276D01*
X123784729Y-83712640D01*
X123726617Y-83625670D01*
X123652656Y-83551709D01*
X123565686Y-83493597D01*
X123469050Y-83453569D01*
X123366462Y-83433163D01*
X123261864Y-83433163D01*
X123159276Y-83453569D01*
X123062640Y-83493597D01*
X122975670Y-83551709D01*
X122901709Y-83625670D01*
X122843597Y-83712640D01*
X122803569Y-83809276D01*
X122783163Y-83911864D01*
X95709785Y-83911864D01*
X95694102Y-83874003D01*
X95644198Y-83799317D01*
X95580683Y-83735802D01*
X95505997Y-83685898D01*
X95423010Y-83651524D01*
X95334912Y-83634000D01*
X95245088Y-83634000D01*
X95156990Y-83651524D01*
X95074003Y-83685898D01*
X94999317Y-83735802D01*
X94935802Y-83799317D01*
X94885898Y-83874003D01*
X94851524Y-83956990D01*
X94834000Y-84045088D01*
X83697000Y-84045088D01*
X83697000Y-83165088D01*
X99984000Y-83165088D01*
X99984000Y-83254912D01*
X100001524Y-83343010D01*
X100035898Y-83425997D01*
X100085802Y-83500683D01*
X100149317Y-83564198D01*
X100224003Y-83614102D01*
X100306990Y-83648476D01*
X100395088Y-83666000D01*
X100484912Y-83666000D01*
X100573010Y-83648476D01*
X100655997Y-83614102D01*
X100730683Y-83564198D01*
X100794198Y-83500683D01*
X100844102Y-83425997D01*
X100847537Y-83417703D01*
X126219000Y-83417703D01*
X126219000Y-83522301D01*
X126239406Y-83624889D01*
X126279434Y-83721525D01*
X126337546Y-83808495D01*
X126411507Y-83882456D01*
X126498477Y-83940568D01*
X126595113Y-83980596D01*
X126697701Y-84001002D01*
X126802299Y-84001002D01*
X126904887Y-83980596D01*
X127001523Y-83940568D01*
X127088493Y-83882456D01*
X127162454Y-83808495D01*
X127220566Y-83721525D01*
X127260594Y-83624889D01*
X127281000Y-83522301D01*
X127281000Y-83417703D01*
X127260594Y-83315115D01*
X127220566Y-83218479D01*
X127162454Y-83131509D01*
X127088493Y-83057548D01*
X127001523Y-82999436D01*
X126904887Y-82959408D01*
X126802299Y-82939002D01*
X126697701Y-82939002D01*
X126595113Y-82959408D01*
X126498477Y-82999436D01*
X126411507Y-83057548D01*
X126337546Y-83131509D01*
X126279434Y-83218479D01*
X126239406Y-83315115D01*
X126219000Y-83417703D01*
X100847537Y-83417703D01*
X100878476Y-83343010D01*
X100896000Y-83254912D01*
X100896000Y-83165088D01*
X100878476Y-83076990D01*
X100844102Y-82994003D01*
X100794198Y-82919317D01*
X100730683Y-82855802D01*
X100655997Y-82805898D01*
X100573010Y-82771524D01*
X100484912Y-82754000D01*
X100395088Y-82754000D01*
X100306990Y-82771524D01*
X100224003Y-82805898D01*
X100149317Y-82855802D01*
X100085802Y-82919317D01*
X100035898Y-82994003D01*
X100001524Y-83076990D01*
X99984000Y-83165088D01*
X83697000Y-83165088D01*
X83697000Y-82045239D01*
X85999000Y-82045239D01*
X85999000Y-82154761D01*
X86020367Y-82262179D01*
X86062279Y-82363365D01*
X86123127Y-82454429D01*
X86200571Y-82531873D01*
X86291635Y-82592721D01*
X86392821Y-82634633D01*
X86500239Y-82656000D01*
X86609761Y-82656000D01*
X86717179Y-82634633D01*
X86818365Y-82592721D01*
X86879388Y-82551946D01*
X90598245Y-82551946D01*
X90598245Y-82656544D01*
X90618651Y-82759132D01*
X90658679Y-82855768D01*
X90716791Y-82942738D01*
X90790752Y-83016699D01*
X90877722Y-83074811D01*
X90974358Y-83114839D01*
X91076946Y-83135245D01*
X91181544Y-83135245D01*
X91284132Y-83114839D01*
X91380768Y-83074811D01*
X91467738Y-83016699D01*
X91541699Y-82942738D01*
X91599811Y-82855768D01*
X91639839Y-82759132D01*
X91660245Y-82656544D01*
X91660245Y-82551946D01*
X91643488Y-82467701D01*
X93539000Y-82467701D01*
X93539000Y-82572299D01*
X93559406Y-82674887D01*
X93599434Y-82771523D01*
X93657546Y-82858493D01*
X93731507Y-82932454D01*
X93818477Y-82990566D01*
X93915113Y-83030594D01*
X94017701Y-83051000D01*
X94122299Y-83051000D01*
X94224887Y-83030594D01*
X94321523Y-82990566D01*
X94408493Y-82932454D01*
X94482454Y-82858493D01*
X94540566Y-82771523D01*
X94580594Y-82674887D01*
X94601000Y-82572299D01*
X94601000Y-82467701D01*
X94580594Y-82365113D01*
X94540566Y-82268477D01*
X94482454Y-82181507D01*
X94408493Y-82107546D01*
X94321523Y-82049434D01*
X94224887Y-82009406D01*
X94122299Y-81989000D01*
X94017701Y-81989000D01*
X93915113Y-82009406D01*
X93818477Y-82049434D01*
X93731507Y-82107546D01*
X93657546Y-82181507D01*
X93599434Y-82268477D01*
X93559406Y-82365113D01*
X93539000Y-82467701D01*
X91643488Y-82467701D01*
X91639839Y-82449358D01*
X91599811Y-82352722D01*
X91541699Y-82265752D01*
X91467738Y-82191791D01*
X91380768Y-82133679D01*
X91284132Y-82093651D01*
X91181544Y-82073245D01*
X91076946Y-82073245D01*
X90974358Y-82093651D01*
X90877722Y-82133679D01*
X90790752Y-82191791D01*
X90716791Y-82265752D01*
X90658679Y-82352722D01*
X90618651Y-82449358D01*
X90598245Y-82551946D01*
X86879388Y-82551946D01*
X86909429Y-82531873D01*
X86986873Y-82454429D01*
X87047721Y-82363365D01*
X87089633Y-82262179D01*
X87111000Y-82154761D01*
X87111000Y-82045239D01*
X87089633Y-81937821D01*
X87047721Y-81836635D01*
X86986873Y-81745571D01*
X86909429Y-81668127D01*
X86818365Y-81607279D01*
X86717179Y-81565367D01*
X86609761Y-81544000D01*
X86500239Y-81544000D01*
X86392821Y-81565367D01*
X86291635Y-81607279D01*
X86200571Y-81668127D01*
X86123127Y-81745571D01*
X86062279Y-81836635D01*
X86020367Y-81937821D01*
X85999000Y-82045239D01*
X83697000Y-82045239D01*
X83697000Y-81211878D01*
X83724395Y-81189395D01*
X83815744Y-81078086D01*
X83883623Y-80951095D01*
X83925422Y-80813301D01*
X83939536Y-80670000D01*
X83925422Y-80526699D01*
X83883623Y-80388905D01*
X83839309Y-80306000D01*
X85900691Y-80306000D01*
X85856377Y-80388905D01*
M02*
