G04 #@! TF.GenerationSoftware,KiCad,Pcbnew,5.1.5-52549c5~84~ubuntu19.10.1*
G04 #@! TF.CreationDate,2020-03-01T18:45:08+01:00*
G04 #@! TF.ProjectId,C245,43323435-2e6b-4696-9361-645f70636258,rev?*
G04 #@! TF.SameCoordinates,Original*
G04 #@! TF.FileFunction,Legend,Top*
G04 #@! TF.FilePolarity,Positive*
%FSLAX46Y46*%
G04 Gerber Fmt 4.6, Leading zero omitted, Abs format (unit mm)*
G04 Created by KiCad (PCBNEW 5.1.5-52549c5~84~ubuntu19.10.1) date 2020-03-01 18:45:08*
%MOMM*%
%LPD*%
G04 APERTURE LIST*
%ADD10C,0.100000*%
%ADD11C,0.150000*%
%ADD12C,0.120000*%
%ADD13C,0.010000*%
G04 APERTURE END LIST*
D10*
X101338095Y-117311904D02*
X101338095Y-117502380D01*
X101147619Y-117426190D02*
X101338095Y-117502380D01*
X101528571Y-117426190D01*
X101223809Y-117654761D02*
X101338095Y-117502380D01*
X101452380Y-117654761D01*
X101833333Y-118111904D02*
X101833333Y-117578571D01*
X101833333Y-117654761D02*
X101871428Y-117616666D01*
X101947619Y-117578571D01*
X102061904Y-117578571D01*
X102138095Y-117616666D01*
X102176190Y-117692857D01*
X102176190Y-118111904D01*
X102176190Y-117692857D02*
X102214285Y-117616666D01*
X102290476Y-117578571D01*
X102404761Y-117578571D01*
X102480952Y-117616666D01*
X102519047Y-117692857D01*
X102519047Y-118111904D01*
X103242857Y-118111904D02*
X103242857Y-117692857D01*
X103204761Y-117616666D01*
X103128571Y-117578571D01*
X102976190Y-117578571D01*
X102900000Y-117616666D01*
X103242857Y-118073809D02*
X103166666Y-118111904D01*
X102976190Y-118111904D01*
X102900000Y-118073809D01*
X102861904Y-117997619D01*
X102861904Y-117921428D01*
X102900000Y-117845238D01*
X102976190Y-117807142D01*
X103166666Y-117807142D01*
X103242857Y-117769047D01*
X103966666Y-117578571D02*
X103966666Y-118111904D01*
X103623809Y-117578571D02*
X103623809Y-117997619D01*
X103661904Y-118073809D01*
X103738095Y-118111904D01*
X103852380Y-118111904D01*
X103928571Y-118073809D01*
X103966666Y-118035714D01*
X104461904Y-117311904D02*
X104461904Y-117502380D01*
X104271428Y-117426190D02*
X104461904Y-117502380D01*
X104652380Y-117426190D01*
X104347619Y-117654761D02*
X104461904Y-117502380D01*
X104576190Y-117654761D01*
D11*
X95500000Y-95400000D02*
X96200000Y-94700000D01*
X95500000Y-97000000D02*
X95500000Y-95400000D01*
X95500000Y-99600000D02*
X95500000Y-97850000D01*
X95000000Y-102300000D02*
X95000000Y-105000000D01*
X95350000Y-101950000D02*
X95000000Y-102300000D01*
X97300000Y-101800000D02*
X96800000Y-101800000D01*
X103300000Y-101800000D02*
X98900000Y-101800000D01*
X105500000Y-104000000D02*
X103300000Y-101800000D01*
X109500000Y-104000000D02*
X105500000Y-104000000D01*
X114400000Y-104000000D02*
X111500000Y-104000000D01*
X88000000Y-120000001D02*
G75*
G02X85999999Y-118000000I0J2000001D01*
G01*
X114000001Y-118000000D02*
G75*
G02X112000000Y-120000001I-2000001J0D01*
G01*
X112000000Y-89999999D02*
G75*
G02X114000001Y-92000000I0J-2000001D01*
G01*
X86000000Y-92000000D02*
G75*
G02X88000000Y-90000000I2000000J0D01*
G01*
X86000000Y-92000000D02*
X85999999Y-118000000D01*
X112000000Y-90000000D02*
X88000000Y-90000000D01*
X114000000Y-118000000D02*
X114000000Y-92000000D01*
X88000000Y-120000001D02*
X112000000Y-120000001D01*
D12*
X100685000Y-100010000D02*
X101160000Y-100010000D01*
X96940000Y-95790000D02*
X96940000Y-96265000D01*
X97415000Y-95790000D02*
X96940000Y-95790000D01*
X101160000Y-95790000D02*
X101160000Y-96265000D01*
X100685000Y-95790000D02*
X101160000Y-95790000D01*
X96940000Y-100010000D02*
X96940000Y-99535000D01*
X97415000Y-100010000D02*
X96940000Y-100010000D01*
D13*
G36*
X106030100Y-91826100D02*
G01*
X105509400Y-91826100D01*
X105509400Y-91648300D01*
X106030100Y-91648300D01*
X106030100Y-91826100D01*
G37*
X106030100Y-91826100D02*
X105509400Y-91826100D01*
X105509400Y-91648300D01*
X106030100Y-91648300D01*
X106030100Y-91826100D01*
G36*
X96162200Y-91826100D02*
G01*
X95641500Y-91826100D01*
X95641500Y-91648300D01*
X96162200Y-91648300D01*
X96162200Y-91826100D01*
G37*
X96162200Y-91826100D02*
X95641500Y-91826100D01*
X95641500Y-91648300D01*
X96162200Y-91648300D01*
X96162200Y-91826100D01*
G36*
X103998100Y-91838800D02*
G01*
X104163200Y-91838800D01*
X104163200Y-92003900D01*
X103998100Y-92003900D01*
X103998100Y-92372200D01*
X103807600Y-92372200D01*
X103807600Y-92004328D01*
X103153550Y-91997550D01*
X103149744Y-91931846D01*
X103149569Y-91895928D01*
X103155129Y-91862764D01*
X103163626Y-91838800D01*
X103336504Y-91838800D01*
X103807600Y-91838800D01*
X103807600Y-91495900D01*
X103807262Y-91405555D01*
X103806310Y-91324127D01*
X103804834Y-91254889D01*
X103802925Y-91201111D01*
X103800674Y-91166066D01*
X103798172Y-91153026D01*
X103798075Y-91153009D01*
X103785021Y-91162805D01*
X103760205Y-91189764D01*
X103726457Y-91230260D01*
X103686608Y-91280665D01*
X103643489Y-91337354D01*
X103599929Y-91396699D01*
X103558760Y-91455073D01*
X103535671Y-91489199D01*
X103494591Y-91553465D01*
X103451752Y-91624349D01*
X103413345Y-91691438D01*
X103394079Y-91727324D01*
X103336504Y-91838800D01*
X103163626Y-91838800D01*
X103168628Y-91824693D01*
X103192271Y-91774058D01*
X103199091Y-91760396D01*
X103273144Y-91623960D01*
X103361878Y-91478436D01*
X103460436Y-91330970D01*
X103563964Y-91188710D01*
X103667607Y-91058801D01*
X103706159Y-91013993D01*
X103796299Y-90911700D01*
X103998100Y-90911700D01*
X103998100Y-91838800D01*
G37*
X103998100Y-91838800D02*
X104163200Y-91838800D01*
X104163200Y-92003900D01*
X103998100Y-92003900D01*
X103998100Y-92372200D01*
X103807600Y-92372200D01*
X103807600Y-92004328D01*
X103153550Y-91997550D01*
X103149744Y-91931846D01*
X103149569Y-91895928D01*
X103155129Y-91862764D01*
X103163626Y-91838800D01*
X103336504Y-91838800D01*
X103807600Y-91838800D01*
X103807600Y-91495900D01*
X103807262Y-91405555D01*
X103806310Y-91324127D01*
X103804834Y-91254889D01*
X103802925Y-91201111D01*
X103800674Y-91166066D01*
X103798172Y-91153026D01*
X103798075Y-91153009D01*
X103785021Y-91162805D01*
X103760205Y-91189764D01*
X103726457Y-91230260D01*
X103686608Y-91280665D01*
X103643489Y-91337354D01*
X103599929Y-91396699D01*
X103558760Y-91455073D01*
X103535671Y-91489199D01*
X103494591Y-91553465D01*
X103451752Y-91624349D01*
X103413345Y-91691438D01*
X103394079Y-91727324D01*
X103336504Y-91838800D01*
X103163626Y-91838800D01*
X103168628Y-91824693D01*
X103192271Y-91774058D01*
X103199091Y-91760396D01*
X103273144Y-91623960D01*
X103361878Y-91478436D01*
X103460436Y-91330970D01*
X103563964Y-91188710D01*
X103667607Y-91058801D01*
X103706159Y-91013993D01*
X103796299Y-90911700D01*
X103998100Y-90911700D01*
X103998100Y-91838800D01*
G36*
X102561990Y-90892814D02*
G01*
X102664559Y-90931125D01*
X102664600Y-90931145D01*
X102738411Y-90979825D01*
X102792638Y-91041887D01*
X102828197Y-91119039D01*
X102846006Y-91212990D01*
X102848568Y-91273650D01*
X102846948Y-91327939D01*
X102840989Y-91376672D01*
X102828967Y-91422675D01*
X102809155Y-91468772D01*
X102779827Y-91517790D01*
X102739259Y-91572556D01*
X102685724Y-91635894D01*
X102617497Y-91710631D01*
X102532851Y-91799592D01*
X102517955Y-91815039D01*
X102431697Y-91906777D01*
X102359528Y-91988557D01*
X102302529Y-92058988D01*
X102261777Y-92116676D01*
X102238352Y-92160229D01*
X102232800Y-92183147D01*
X102233905Y-92190345D01*
X102239114Y-92195937D01*
X102251266Y-92200126D01*
X102273197Y-92203113D01*
X102307748Y-92205100D01*
X102357756Y-92206290D01*
X102426059Y-92206884D01*
X102515497Y-92207084D01*
X102569350Y-92207100D01*
X102905900Y-92207100D01*
X102905900Y-92372200D01*
X102013559Y-92372200D01*
X102019697Y-92276558D01*
X102025160Y-92222127D01*
X102035615Y-92175536D01*
X102054054Y-92126482D01*
X102078193Y-92075255D01*
X102098309Y-92036797D01*
X102120357Y-91999928D01*
X102146569Y-91961946D01*
X102179181Y-91920149D01*
X102220428Y-91871836D01*
X102272544Y-91814305D01*
X102337765Y-91744853D01*
X102418324Y-91660779D01*
X102437148Y-91641272D01*
X102516227Y-91555050D01*
X102575400Y-91479797D01*
X102616070Y-91412662D01*
X102639641Y-91350793D01*
X102647517Y-91291337D01*
X102641101Y-91231444D01*
X102640406Y-91228276D01*
X102617058Y-91163306D01*
X102577671Y-91114691D01*
X102524640Y-91079975D01*
X102451790Y-91056352D01*
X102370283Y-91053145D01*
X102285169Y-91069381D01*
X102201494Y-91104089D01*
X102124308Y-91156300D01*
X102123309Y-91157141D01*
X102083668Y-91190607D01*
X102035774Y-91118472D01*
X101987879Y-91046337D01*
X102030964Y-91009796D01*
X102123181Y-90947299D01*
X102227315Y-90903742D01*
X102338445Y-90879734D01*
X102451644Y-90875888D01*
X102561990Y-90892814D01*
G37*
X102561990Y-90892814D02*
X102664559Y-90931125D01*
X102664600Y-90931145D01*
X102738411Y-90979825D01*
X102792638Y-91041887D01*
X102828197Y-91119039D01*
X102846006Y-91212990D01*
X102848568Y-91273650D01*
X102846948Y-91327939D01*
X102840989Y-91376672D01*
X102828967Y-91422675D01*
X102809155Y-91468772D01*
X102779827Y-91517790D01*
X102739259Y-91572556D01*
X102685724Y-91635894D01*
X102617497Y-91710631D01*
X102532851Y-91799592D01*
X102517955Y-91815039D01*
X102431697Y-91906777D01*
X102359528Y-91988557D01*
X102302529Y-92058988D01*
X102261777Y-92116676D01*
X102238352Y-92160229D01*
X102232800Y-92183147D01*
X102233905Y-92190345D01*
X102239114Y-92195937D01*
X102251266Y-92200126D01*
X102273197Y-92203113D01*
X102307748Y-92205100D01*
X102357756Y-92206290D01*
X102426059Y-92206884D01*
X102515497Y-92207084D01*
X102569350Y-92207100D01*
X102905900Y-92207100D01*
X102905900Y-92372200D01*
X102013559Y-92372200D01*
X102019697Y-92276558D01*
X102025160Y-92222127D01*
X102035615Y-92175536D01*
X102054054Y-92126482D01*
X102078193Y-92075255D01*
X102098309Y-92036797D01*
X102120357Y-91999928D01*
X102146569Y-91961946D01*
X102179181Y-91920149D01*
X102220428Y-91871836D01*
X102272544Y-91814305D01*
X102337765Y-91744853D01*
X102418324Y-91660779D01*
X102437148Y-91641272D01*
X102516227Y-91555050D01*
X102575400Y-91479797D01*
X102616070Y-91412662D01*
X102639641Y-91350793D01*
X102647517Y-91291337D01*
X102641101Y-91231444D01*
X102640406Y-91228276D01*
X102617058Y-91163306D01*
X102577671Y-91114691D01*
X102524640Y-91079975D01*
X102451790Y-91056352D01*
X102370283Y-91053145D01*
X102285169Y-91069381D01*
X102201494Y-91104089D01*
X102124308Y-91156300D01*
X102123309Y-91157141D01*
X102083668Y-91190607D01*
X102035774Y-91118472D01*
X101987879Y-91046337D01*
X102030964Y-91009796D01*
X102123181Y-90947299D01*
X102227315Y-90903742D01*
X102338445Y-90879734D01*
X102451644Y-90875888D01*
X102561990Y-90892814D01*
G36*
X99545017Y-91259396D02*
G01*
X99636314Y-91274830D01*
X99710549Y-91302582D01*
X99771059Y-91344294D01*
X99821184Y-91401608D01*
X99857900Y-91463389D01*
X99902350Y-91550402D01*
X99910292Y-92372200D01*
X99718200Y-92372200D01*
X99718200Y-92046215D01*
X99717455Y-91912962D01*
X99714845Y-91802557D01*
X99709803Y-91712480D01*
X99701764Y-91640213D01*
X99690163Y-91583236D01*
X99674434Y-91539030D01*
X99654011Y-91505077D01*
X99628330Y-91478858D01*
X99596824Y-91457852D01*
X99584682Y-91451450D01*
X99553183Y-91438559D01*
X99517042Y-91430894D01*
X99469011Y-91427421D01*
X99413400Y-91426992D01*
X99356330Y-91428328D01*
X99305295Y-91431109D01*
X99268151Y-91434841D01*
X99257825Y-91436759D01*
X99222900Y-91445583D01*
X99222900Y-92372200D01*
X99019700Y-92372200D01*
X99019700Y-91839655D01*
X99019757Y-91709080D01*
X99019992Y-91601628D01*
X99020499Y-91515025D01*
X99021371Y-91446995D01*
X99022702Y-91395262D01*
X99024586Y-91357550D01*
X99027117Y-91331584D01*
X99030388Y-91315088D01*
X99034494Y-91305786D01*
X99039528Y-91301403D01*
X99041925Y-91300487D01*
X99097536Y-91287494D01*
X99170633Y-91275501D01*
X99253298Y-91265436D01*
X99337618Y-91258226D01*
X99415677Y-91254798D01*
X99433319Y-91254640D01*
X99545017Y-91259396D01*
G37*
X99545017Y-91259396D02*
X99636314Y-91274830D01*
X99710549Y-91302582D01*
X99771059Y-91344294D01*
X99821184Y-91401608D01*
X99857900Y-91463389D01*
X99902350Y-91550402D01*
X99910292Y-92372200D01*
X99718200Y-92372200D01*
X99718200Y-92046215D01*
X99717455Y-91912962D01*
X99714845Y-91802557D01*
X99709803Y-91712480D01*
X99701764Y-91640213D01*
X99690163Y-91583236D01*
X99674434Y-91539030D01*
X99654011Y-91505077D01*
X99628330Y-91478858D01*
X99596824Y-91457852D01*
X99584682Y-91451450D01*
X99553183Y-91438559D01*
X99517042Y-91430894D01*
X99469011Y-91427421D01*
X99413400Y-91426992D01*
X99356330Y-91428328D01*
X99305295Y-91431109D01*
X99268151Y-91434841D01*
X99257825Y-91436759D01*
X99222900Y-91445583D01*
X99222900Y-92372200D01*
X99019700Y-92372200D01*
X99019700Y-91839655D01*
X99019757Y-91709080D01*
X99019992Y-91601628D01*
X99020499Y-91515025D01*
X99021371Y-91446995D01*
X99022702Y-91395262D01*
X99024586Y-91357550D01*
X99027117Y-91331584D01*
X99030388Y-91315088D01*
X99034494Y-91305786D01*
X99039528Y-91301403D01*
X99041925Y-91300487D01*
X99097536Y-91287494D01*
X99170633Y-91275501D01*
X99253298Y-91265436D01*
X99337618Y-91258226D01*
X99415677Y-91254798D01*
X99433319Y-91254640D01*
X99545017Y-91259396D01*
G36*
X97492992Y-91263253D02*
G01*
X97521530Y-91268578D01*
X97559477Y-91277991D01*
X97577691Y-91287492D01*
X97581567Y-91300895D01*
X97579913Y-91309853D01*
X97573627Y-91339616D01*
X97566314Y-91380262D01*
X97564316Y-91392487D01*
X97555517Y-91447825D01*
X97509733Y-91439500D01*
X97392999Y-91424388D01*
X97291358Y-91424759D01*
X97236516Y-91432179D01*
X97152800Y-91447976D01*
X97152800Y-92372200D01*
X96962300Y-92372200D01*
X96962300Y-91318809D01*
X97028975Y-91299555D01*
X97146627Y-91272568D01*
X97268391Y-91257194D01*
X97386452Y-91253925D01*
X97492992Y-91263253D01*
G37*
X97492992Y-91263253D02*
X97521530Y-91268578D01*
X97559477Y-91277991D01*
X97577691Y-91287492D01*
X97581567Y-91300895D01*
X97579913Y-91309853D01*
X97573627Y-91339616D01*
X97566314Y-91380262D01*
X97564316Y-91392487D01*
X97555517Y-91447825D01*
X97509733Y-91439500D01*
X97392999Y-91424388D01*
X97291358Y-91424759D01*
X97236516Y-91432179D01*
X97152800Y-91447976D01*
X97152800Y-92372200D01*
X96962300Y-92372200D01*
X96962300Y-91318809D01*
X97028975Y-91299555D01*
X97146627Y-91272568D01*
X97268391Y-91257194D01*
X97386452Y-91253925D01*
X97492992Y-91263253D01*
G36*
X96606700Y-92372200D02*
G01*
X96403500Y-92372200D01*
X96403500Y-90911700D01*
X96606700Y-90911700D01*
X96606700Y-92372200D01*
G37*
X96606700Y-92372200D02*
X96403500Y-92372200D01*
X96403500Y-90911700D01*
X96606700Y-90911700D01*
X96606700Y-92372200D01*
G36*
X95537192Y-91263253D02*
G01*
X95565730Y-91268578D01*
X95603677Y-91277991D01*
X95621891Y-91287492D01*
X95625767Y-91300895D01*
X95624113Y-91309853D01*
X95617827Y-91339616D01*
X95610514Y-91380262D01*
X95608516Y-91392487D01*
X95599717Y-91447825D01*
X95553933Y-91439500D01*
X95437199Y-91424388D01*
X95335558Y-91424759D01*
X95280716Y-91432179D01*
X95197000Y-91447976D01*
X95197000Y-92372200D01*
X95006500Y-92372200D01*
X95006500Y-91318809D01*
X95073175Y-91299555D01*
X95190827Y-91272568D01*
X95312591Y-91257194D01*
X95430652Y-91253925D01*
X95537192Y-91263253D01*
G37*
X95537192Y-91263253D02*
X95565730Y-91268578D01*
X95603677Y-91277991D01*
X95621891Y-91287492D01*
X95625767Y-91300895D01*
X95624113Y-91309853D01*
X95617827Y-91339616D01*
X95610514Y-91380262D01*
X95608516Y-91392487D01*
X95599717Y-91447825D01*
X95553933Y-91439500D01*
X95437199Y-91424388D01*
X95335558Y-91424759D01*
X95280716Y-91432179D01*
X95197000Y-91447976D01*
X95197000Y-92372200D01*
X95006500Y-92372200D01*
X95006500Y-91318809D01*
X95073175Y-91299555D01*
X95190827Y-91272568D01*
X95312591Y-91257194D01*
X95430652Y-91253925D01*
X95537192Y-91263253D01*
G36*
X109395600Y-91266670D02*
G01*
X109808350Y-91273650D01*
X109815912Y-91432400D01*
X109394039Y-91432400D01*
X109397994Y-91759425D01*
X109399705Y-91871502D01*
X109402238Y-91961078D01*
X109406201Y-92031050D01*
X109412204Y-92084314D01*
X109420856Y-92123769D01*
X109432766Y-92152312D01*
X109448543Y-92172840D01*
X109468797Y-92188250D01*
X109490575Y-92199768D01*
X109540616Y-92214034D01*
X109604718Y-92219059D01*
X109673292Y-92214858D01*
X109736746Y-92201451D01*
X109743275Y-92199321D01*
X109779467Y-92189159D01*
X109805323Y-92185884D01*
X109812204Y-92187671D01*
X109820284Y-92204951D01*
X109829713Y-92237251D01*
X109838477Y-92275459D01*
X109844561Y-92310465D01*
X109845948Y-92333158D01*
X109845082Y-92336312D01*
X109825494Y-92349229D01*
X109786373Y-92361939D01*
X109733574Y-92373577D01*
X109672957Y-92383277D01*
X109610377Y-92390174D01*
X109551694Y-92393401D01*
X109502764Y-92392094D01*
X109484500Y-92389608D01*
X109395396Y-92364419D01*
X109325288Y-92325701D01*
X109272336Y-92271318D01*
X109234705Y-92199132D01*
X109210556Y-92107007D01*
X109204198Y-92063583D01*
X109201458Y-92027200D01*
X109199111Y-91968963D01*
X109197212Y-91892418D01*
X109195813Y-91801109D01*
X109194967Y-91698582D01*
X109194728Y-91588379D01*
X109195150Y-91474047D01*
X109195212Y-91465060D01*
X109198750Y-90970671D01*
X109232956Y-90961526D01*
X109266181Y-90954304D01*
X109310775Y-90946583D01*
X109331381Y-90943548D01*
X109395600Y-90934716D01*
X109395600Y-91266670D01*
G37*
X109395600Y-91266670D02*
X109808350Y-91273650D01*
X109815912Y-91432400D01*
X109394039Y-91432400D01*
X109397994Y-91759425D01*
X109399705Y-91871502D01*
X109402238Y-91961078D01*
X109406201Y-92031050D01*
X109412204Y-92084314D01*
X109420856Y-92123769D01*
X109432766Y-92152312D01*
X109448543Y-92172840D01*
X109468797Y-92188250D01*
X109490575Y-92199768D01*
X109540616Y-92214034D01*
X109604718Y-92219059D01*
X109673292Y-92214858D01*
X109736746Y-92201451D01*
X109743275Y-92199321D01*
X109779467Y-92189159D01*
X109805323Y-92185884D01*
X109812204Y-92187671D01*
X109820284Y-92204951D01*
X109829713Y-92237251D01*
X109838477Y-92275459D01*
X109844561Y-92310465D01*
X109845948Y-92333158D01*
X109845082Y-92336312D01*
X109825494Y-92349229D01*
X109786373Y-92361939D01*
X109733574Y-92373577D01*
X109672957Y-92383277D01*
X109610377Y-92390174D01*
X109551694Y-92393401D01*
X109502764Y-92392094D01*
X109484500Y-92389608D01*
X109395396Y-92364419D01*
X109325288Y-92325701D01*
X109272336Y-92271318D01*
X109234705Y-92199132D01*
X109210556Y-92107007D01*
X109204198Y-92063583D01*
X109201458Y-92027200D01*
X109199111Y-91968963D01*
X109197212Y-91892418D01*
X109195813Y-91801109D01*
X109194967Y-91698582D01*
X109194728Y-91588379D01*
X109195150Y-91474047D01*
X109195212Y-91465060D01*
X109198750Y-90970671D01*
X109232956Y-90961526D01*
X109266181Y-90954304D01*
X109310775Y-90946583D01*
X109331381Y-90943548D01*
X109395600Y-90934716D01*
X109395600Y-91266670D01*
G36*
X108655796Y-91251429D02*
G01*
X108720535Y-91256989D01*
X108783000Y-91265218D01*
X108836472Y-91275160D01*
X108874233Y-91285860D01*
X108884160Y-91290574D01*
X108890604Y-91307180D01*
X108889700Y-91338407D01*
X108883242Y-91376235D01*
X108873026Y-91412646D01*
X108860844Y-91439621D01*
X108848675Y-91449166D01*
X108828157Y-91445533D01*
X108790225Y-91437965D01*
X108742277Y-91427948D01*
X108731203Y-91425580D01*
X108639895Y-91412454D01*
X108560001Y-91413690D01*
X108493689Y-91428208D01*
X108443128Y-91454930D01*
X108410486Y-91492776D01*
X108397933Y-91540666D01*
X108404590Y-91588171D01*
X108417108Y-91617305D01*
X108438176Y-91643396D01*
X108471130Y-91668689D01*
X108519307Y-91695429D01*
X108586045Y-91725864D01*
X108646300Y-91750855D01*
X108731295Y-91786562D01*
X108795874Y-91817388D01*
X108843889Y-91845950D01*
X108879190Y-91874866D01*
X108905628Y-91906755D01*
X108925150Y-91940400D01*
X108952709Y-92020549D01*
X108958085Y-92103079D01*
X108941909Y-92182682D01*
X108904813Y-92254049D01*
X108884964Y-92278338D01*
X108835858Y-92322454D01*
X108779025Y-92354379D01*
X108709918Y-92375657D01*
X108623992Y-92387834D01*
X108551050Y-92391779D01*
X108490752Y-92392905D01*
X108437112Y-92392817D01*
X108396922Y-92391586D01*
X108379600Y-92389941D01*
X108350486Y-92383671D01*
X108307227Y-92373341D01*
X108268475Y-92363565D01*
X108223418Y-92350241D01*
X108198703Y-92337867D01*
X108189535Y-92323739D01*
X108189100Y-92318788D01*
X108191673Y-92296769D01*
X108198068Y-92261898D01*
X108206292Y-92223429D01*
X108214356Y-92190618D01*
X108220269Y-92172720D01*
X108220639Y-92172142D01*
X108232784Y-92174446D01*
X108262103Y-92183627D01*
X108298141Y-92196228D01*
X108360807Y-92212872D01*
X108434750Y-92223084D01*
X108512606Y-92226779D01*
X108587010Y-92223872D01*
X108650597Y-92214278D01*
X108690750Y-92200750D01*
X108727109Y-92177514D01*
X108746727Y-92148909D01*
X108753055Y-92128786D01*
X108758470Y-92084145D01*
X108749826Y-92044376D01*
X108725154Y-92007607D01*
X108682480Y-91971967D01*
X108619835Y-91935583D01*
X108535246Y-91896584D01*
X108488008Y-91877084D01*
X108388150Y-91831451D01*
X108311799Y-91783372D01*
X108257065Y-91730744D01*
X108222058Y-91671465D01*
X108204888Y-91603434D01*
X108202357Y-91559400D01*
X108213315Y-91475455D01*
X108246761Y-91402931D01*
X108303461Y-91340043D01*
X108369864Y-91294847D01*
X108446538Y-91265840D01*
X108538140Y-91251576D01*
X108595500Y-91249495D01*
X108655796Y-91251429D01*
G37*
X108655796Y-91251429D02*
X108720535Y-91256989D01*
X108783000Y-91265218D01*
X108836472Y-91275160D01*
X108874233Y-91285860D01*
X108884160Y-91290574D01*
X108890604Y-91307180D01*
X108889700Y-91338407D01*
X108883242Y-91376235D01*
X108873026Y-91412646D01*
X108860844Y-91439621D01*
X108848675Y-91449166D01*
X108828157Y-91445533D01*
X108790225Y-91437965D01*
X108742277Y-91427948D01*
X108731203Y-91425580D01*
X108639895Y-91412454D01*
X108560001Y-91413690D01*
X108493689Y-91428208D01*
X108443128Y-91454930D01*
X108410486Y-91492776D01*
X108397933Y-91540666D01*
X108404590Y-91588171D01*
X108417108Y-91617305D01*
X108438176Y-91643396D01*
X108471130Y-91668689D01*
X108519307Y-91695429D01*
X108586045Y-91725864D01*
X108646300Y-91750855D01*
X108731295Y-91786562D01*
X108795874Y-91817388D01*
X108843889Y-91845950D01*
X108879190Y-91874866D01*
X108905628Y-91906755D01*
X108925150Y-91940400D01*
X108952709Y-92020549D01*
X108958085Y-92103079D01*
X108941909Y-92182682D01*
X108904813Y-92254049D01*
X108884964Y-92278338D01*
X108835858Y-92322454D01*
X108779025Y-92354379D01*
X108709918Y-92375657D01*
X108623992Y-92387834D01*
X108551050Y-92391779D01*
X108490752Y-92392905D01*
X108437112Y-92392817D01*
X108396922Y-92391586D01*
X108379600Y-92389941D01*
X108350486Y-92383671D01*
X108307227Y-92373341D01*
X108268475Y-92363565D01*
X108223418Y-92350241D01*
X108198703Y-92337867D01*
X108189535Y-92323739D01*
X108189100Y-92318788D01*
X108191673Y-92296769D01*
X108198068Y-92261898D01*
X108206292Y-92223429D01*
X108214356Y-92190618D01*
X108220269Y-92172720D01*
X108220639Y-92172142D01*
X108232784Y-92174446D01*
X108262103Y-92183627D01*
X108298141Y-92196228D01*
X108360807Y-92212872D01*
X108434750Y-92223084D01*
X108512606Y-92226779D01*
X108587010Y-92223872D01*
X108650597Y-92214278D01*
X108690750Y-92200750D01*
X108727109Y-92177514D01*
X108746727Y-92148909D01*
X108753055Y-92128786D01*
X108758470Y-92084145D01*
X108749826Y-92044376D01*
X108725154Y-92007607D01*
X108682480Y-91971967D01*
X108619835Y-91935583D01*
X108535246Y-91896584D01*
X108488008Y-91877084D01*
X108388150Y-91831451D01*
X108311799Y-91783372D01*
X108257065Y-91730744D01*
X108222058Y-91671465D01*
X108204888Y-91603434D01*
X108202357Y-91559400D01*
X108213315Y-91475455D01*
X108246761Y-91402931D01*
X108303461Y-91340043D01*
X108369864Y-91294847D01*
X108446538Y-91265840D01*
X108538140Y-91251576D01*
X108595500Y-91249495D01*
X108655796Y-91251429D01*
G36*
X107618790Y-91254727D02*
G01*
X107718795Y-91283018D01*
X107802192Y-91329179D01*
X107869403Y-91393784D01*
X107920844Y-91477410D01*
X107956936Y-91580630D01*
X107978099Y-91704021D01*
X107982118Y-91753075D01*
X107989736Y-91876900D01*
X107227367Y-91876900D01*
X107239370Y-91942937D01*
X107266282Y-92035082D01*
X107309801Y-92109524D01*
X107368947Y-92165033D01*
X107442737Y-92200380D01*
X107445280Y-92201150D01*
X107512500Y-92214159D01*
X107593839Y-92219442D01*
X107679265Y-92217138D01*
X107758746Y-92207383D01*
X107805504Y-92196187D01*
X107881371Y-92172574D01*
X107894217Y-92250162D01*
X107899729Y-92292128D01*
X107901183Y-92323485D01*
X107898856Y-92336121D01*
X107871992Y-92351002D01*
X107825182Y-92364506D01*
X107763865Y-92376069D01*
X107693483Y-92385126D01*
X107619476Y-92391113D01*
X107547284Y-92393465D01*
X107482348Y-92391617D01*
X107430109Y-92385006D01*
X107429338Y-92384844D01*
X107319694Y-92350169D01*
X107226618Y-92296375D01*
X107150467Y-92223897D01*
X107091593Y-92133165D01*
X107050350Y-92024612D01*
X107027091Y-91898671D01*
X107026477Y-91892638D01*
X107024550Y-91768869D01*
X107033508Y-91711800D01*
X107233773Y-91711800D01*
X107784932Y-91711800D01*
X107776381Y-91657825D01*
X107752499Y-91571985D01*
X107712031Y-91503153D01*
X107657159Y-91452961D01*
X107590067Y-91423042D01*
X107512937Y-91415029D01*
X107460951Y-91421797D01*
X107392305Y-91448852D01*
X107331467Y-91496398D01*
X107282616Y-91559784D01*
X107249928Y-91634362D01*
X107242596Y-91664765D01*
X107233773Y-91711800D01*
X107033508Y-91711800D01*
X107042649Y-91653566D01*
X107078945Y-91548699D01*
X107131611Y-91456234D01*
X107198821Y-91378141D01*
X107278747Y-91316386D01*
X107369561Y-91272938D01*
X107469436Y-91249765D01*
X107576545Y-91248834D01*
X107618790Y-91254727D01*
G37*
X107618790Y-91254727D02*
X107718795Y-91283018D01*
X107802192Y-91329179D01*
X107869403Y-91393784D01*
X107920844Y-91477410D01*
X107956936Y-91580630D01*
X107978099Y-91704021D01*
X107982118Y-91753075D01*
X107989736Y-91876900D01*
X107227367Y-91876900D01*
X107239370Y-91942937D01*
X107266282Y-92035082D01*
X107309801Y-92109524D01*
X107368947Y-92165033D01*
X107442737Y-92200380D01*
X107445280Y-92201150D01*
X107512500Y-92214159D01*
X107593839Y-92219442D01*
X107679265Y-92217138D01*
X107758746Y-92207383D01*
X107805504Y-92196187D01*
X107881371Y-92172574D01*
X107894217Y-92250162D01*
X107899729Y-92292128D01*
X107901183Y-92323485D01*
X107898856Y-92336121D01*
X107871992Y-92351002D01*
X107825182Y-92364506D01*
X107763865Y-92376069D01*
X107693483Y-92385126D01*
X107619476Y-92391113D01*
X107547284Y-92393465D01*
X107482348Y-92391617D01*
X107430109Y-92385006D01*
X107429338Y-92384844D01*
X107319694Y-92350169D01*
X107226618Y-92296375D01*
X107150467Y-92223897D01*
X107091593Y-92133165D01*
X107050350Y-92024612D01*
X107027091Y-91898671D01*
X107026477Y-91892638D01*
X107024550Y-91768869D01*
X107033508Y-91711800D01*
X107233773Y-91711800D01*
X107784932Y-91711800D01*
X107776381Y-91657825D01*
X107752499Y-91571985D01*
X107712031Y-91503153D01*
X107657159Y-91452961D01*
X107590067Y-91423042D01*
X107512937Y-91415029D01*
X107460951Y-91421797D01*
X107392305Y-91448852D01*
X107331467Y-91496398D01*
X107282616Y-91559784D01*
X107249928Y-91634362D01*
X107242596Y-91664765D01*
X107233773Y-91711800D01*
X107033508Y-91711800D01*
X107042649Y-91653566D01*
X107078945Y-91548699D01*
X107131611Y-91456234D01*
X107198821Y-91378141D01*
X107278747Y-91316386D01*
X107369561Y-91272938D01*
X107469436Y-91249765D01*
X107576545Y-91248834D01*
X107618790Y-91254727D01*
G36*
X106428345Y-90946088D02*
G01*
X106432926Y-90974370D01*
X106435584Y-91023924D01*
X106436496Y-91096727D01*
X106436500Y-91102200D01*
X106436500Y-91267300D01*
X106855600Y-91267300D01*
X106855600Y-91432400D01*
X106645087Y-91432399D01*
X106434574Y-91432399D01*
X106438893Y-91753075D01*
X106440748Y-91864036D01*
X106443399Y-91952608D01*
X106447453Y-92021799D01*
X106453517Y-92074621D01*
X106462198Y-92114081D01*
X106474102Y-92143191D01*
X106489837Y-92164960D01*
X106510009Y-92182397D01*
X106527810Y-92194074D01*
X106572784Y-92210812D01*
X106632722Y-92218808D01*
X106698658Y-92217841D01*
X106761629Y-92207692D01*
X106785750Y-92200383D01*
X106820642Y-92188896D01*
X106846156Y-92182410D01*
X106850671Y-92181891D01*
X106859950Y-92193009D01*
X106870357Y-92221062D01*
X106879950Y-92257773D01*
X106886784Y-92294863D01*
X106888916Y-92324055D01*
X106886667Y-92335204D01*
X106865362Y-92350285D01*
X106824352Y-92364108D01*
X106769330Y-92375929D01*
X106705984Y-92385006D01*
X106640005Y-92390596D01*
X106577085Y-92391954D01*
X106522914Y-92388339D01*
X106504145Y-92385160D01*
X106418269Y-92355555D01*
X106348813Y-92306626D01*
X106295140Y-92237869D01*
X106279059Y-92207100D01*
X106272821Y-92192917D01*
X106267615Y-92177855D01*
X106263332Y-92159553D01*
X106259859Y-92135647D01*
X106257087Y-92103774D01*
X106254904Y-92061574D01*
X106253199Y-92006682D01*
X106251862Y-91936736D01*
X106250782Y-91849375D01*
X106249847Y-91742235D01*
X106248948Y-91612954D01*
X106248593Y-91557629D01*
X106244837Y-90965309D01*
X106325834Y-90951204D01*
X106370073Y-90943879D01*
X106405019Y-90938779D01*
X106421665Y-90937100D01*
X106428345Y-90946088D01*
G37*
X106428345Y-90946088D02*
X106432926Y-90974370D01*
X106435584Y-91023924D01*
X106436496Y-91096727D01*
X106436500Y-91102200D01*
X106436500Y-91267300D01*
X106855600Y-91267300D01*
X106855600Y-91432400D01*
X106645087Y-91432399D01*
X106434574Y-91432399D01*
X106438893Y-91753075D01*
X106440748Y-91864036D01*
X106443399Y-91952608D01*
X106447453Y-92021799D01*
X106453517Y-92074621D01*
X106462198Y-92114081D01*
X106474102Y-92143191D01*
X106489837Y-92164960D01*
X106510009Y-92182397D01*
X106527810Y-92194074D01*
X106572784Y-92210812D01*
X106632722Y-92218808D01*
X106698658Y-92217841D01*
X106761629Y-92207692D01*
X106785750Y-92200383D01*
X106820642Y-92188896D01*
X106846156Y-92182410D01*
X106850671Y-92181891D01*
X106859950Y-92193009D01*
X106870357Y-92221062D01*
X106879950Y-92257773D01*
X106886784Y-92294863D01*
X106888916Y-92324055D01*
X106886667Y-92335204D01*
X106865362Y-92350285D01*
X106824352Y-92364108D01*
X106769330Y-92375929D01*
X106705984Y-92385006D01*
X106640005Y-92390596D01*
X106577085Y-92391954D01*
X106522914Y-92388339D01*
X106504145Y-92385160D01*
X106418269Y-92355555D01*
X106348813Y-92306626D01*
X106295140Y-92237869D01*
X106279059Y-92207100D01*
X106272821Y-92192917D01*
X106267615Y-92177855D01*
X106263332Y-92159553D01*
X106259859Y-92135647D01*
X106257087Y-92103774D01*
X106254904Y-92061574D01*
X106253199Y-92006682D01*
X106251862Y-91936736D01*
X106250782Y-91849375D01*
X106249847Y-91742235D01*
X106248948Y-91612954D01*
X106248593Y-91557629D01*
X106244837Y-90965309D01*
X106325834Y-90951204D01*
X106370073Y-90943879D01*
X106405019Y-90938779D01*
X106421665Y-90937100D01*
X106428345Y-90946088D01*
G36*
X104884888Y-90911697D02*
G01*
X104894808Y-90911699D01*
X105242700Y-90911700D01*
X105242700Y-91076800D01*
X104712581Y-91076800D01*
X104704824Y-91162525D01*
X104699955Y-91218760D01*
X104694414Y-91286428D01*
X104689336Y-91351622D01*
X104688972Y-91356465D01*
X104680879Y-91464680D01*
X104817776Y-91486396D01*
X104945531Y-91514263D01*
X105051886Y-91554322D01*
X105138135Y-91607351D01*
X105205567Y-91674128D01*
X105251846Y-91747861D01*
X105268110Y-91783481D01*
X105278472Y-91815362D01*
X105284231Y-91851056D01*
X105286688Y-91898119D01*
X105287150Y-91953100D01*
X105283859Y-92040216D01*
X105272496Y-92108998D01*
X105250823Y-92165830D01*
X105216603Y-92217098D01*
X105181007Y-92256092D01*
X105107853Y-92315492D01*
X105022892Y-92357939D01*
X104923332Y-92384348D01*
X104806379Y-92395637D01*
X104754256Y-92396126D01*
X104697256Y-92394961D01*
X104647754Y-92393025D01*
X104612638Y-92390636D01*
X104601350Y-92389118D01*
X104576586Y-92382830D01*
X104536297Y-92371715D01*
X104490225Y-92358475D01*
X104444382Y-92344086D01*
X104417412Y-92329857D01*
X104406131Y-92309691D01*
X104407356Y-92277494D01*
X104417904Y-92227170D01*
X104419053Y-92222189D01*
X104433606Y-92159141D01*
X104523828Y-92191095D01*
X104605767Y-92212855D01*
X104695011Y-92224404D01*
X104783978Y-92225639D01*
X104865085Y-92216459D01*
X104930748Y-92196759D01*
X104931085Y-92196606D01*
X104986288Y-92168371D01*
X105023923Y-92139517D01*
X105051137Y-92103555D01*
X105066414Y-92073750D01*
X105087049Y-92001690D01*
X105088354Y-91924154D01*
X105071359Y-91848911D01*
X105037093Y-91783733D01*
X105026199Y-91770206D01*
X104976543Y-91729458D01*
X104906336Y-91694416D01*
X104820050Y-91666423D01*
X104722157Y-91646821D01*
X104617126Y-91636951D01*
X104579125Y-91636043D01*
X104549784Y-91636619D01*
X104527541Y-91636662D01*
X104511688Y-91633129D01*
X104501514Y-91622977D01*
X104496310Y-91603163D01*
X104495365Y-91570645D01*
X104497969Y-91522379D01*
X104503414Y-91455323D01*
X104510989Y-91366435D01*
X104512362Y-91349850D01*
X104518612Y-91269125D01*
X104524003Y-91190524D01*
X104528159Y-91120258D01*
X104530704Y-91064536D01*
X104531329Y-91036563D01*
X104530864Y-91000195D01*
X104531117Y-90971621D01*
X104534804Y-90949910D01*
X104544641Y-90934127D01*
X104563343Y-90923341D01*
X104593626Y-90916618D01*
X104638206Y-90913025D01*
X104699799Y-90911629D01*
X104781121Y-90911497D01*
X104884888Y-90911697D01*
G37*
X104884888Y-90911697D02*
X104894808Y-90911699D01*
X105242700Y-90911700D01*
X105242700Y-91076800D01*
X104712581Y-91076800D01*
X104704824Y-91162525D01*
X104699955Y-91218760D01*
X104694414Y-91286428D01*
X104689336Y-91351622D01*
X104688972Y-91356465D01*
X104680879Y-91464680D01*
X104817776Y-91486396D01*
X104945531Y-91514263D01*
X105051886Y-91554322D01*
X105138135Y-91607351D01*
X105205567Y-91674128D01*
X105251846Y-91747861D01*
X105268110Y-91783481D01*
X105278472Y-91815362D01*
X105284231Y-91851056D01*
X105286688Y-91898119D01*
X105287150Y-91953100D01*
X105283859Y-92040216D01*
X105272496Y-92108998D01*
X105250823Y-92165830D01*
X105216603Y-92217098D01*
X105181007Y-92256092D01*
X105107853Y-92315492D01*
X105022892Y-92357939D01*
X104923332Y-92384348D01*
X104806379Y-92395637D01*
X104754256Y-92396126D01*
X104697256Y-92394961D01*
X104647754Y-92393025D01*
X104612638Y-92390636D01*
X104601350Y-92389118D01*
X104576586Y-92382830D01*
X104536297Y-92371715D01*
X104490225Y-92358475D01*
X104444382Y-92344086D01*
X104417412Y-92329857D01*
X104406131Y-92309691D01*
X104407356Y-92277494D01*
X104417904Y-92227170D01*
X104419053Y-92222189D01*
X104433606Y-92159141D01*
X104523828Y-92191095D01*
X104605767Y-92212855D01*
X104695011Y-92224404D01*
X104783978Y-92225639D01*
X104865085Y-92216459D01*
X104930748Y-92196759D01*
X104931085Y-92196606D01*
X104986288Y-92168371D01*
X105023923Y-92139517D01*
X105051137Y-92103555D01*
X105066414Y-92073750D01*
X105087049Y-92001690D01*
X105088354Y-91924154D01*
X105071359Y-91848911D01*
X105037093Y-91783733D01*
X105026199Y-91770206D01*
X104976543Y-91729458D01*
X104906336Y-91694416D01*
X104820050Y-91666423D01*
X104722157Y-91646821D01*
X104617126Y-91636951D01*
X104579125Y-91636043D01*
X104549784Y-91636619D01*
X104527541Y-91636662D01*
X104511688Y-91633129D01*
X104501514Y-91622977D01*
X104496310Y-91603163D01*
X104495365Y-91570645D01*
X104497969Y-91522379D01*
X104503414Y-91455323D01*
X104510989Y-91366435D01*
X104512362Y-91349850D01*
X104518612Y-91269125D01*
X104524003Y-91190524D01*
X104528159Y-91120258D01*
X104530704Y-91064536D01*
X104531329Y-91036563D01*
X104530864Y-91000195D01*
X104531117Y-90971621D01*
X104534804Y-90949910D01*
X104544641Y-90934127D01*
X104563343Y-90923341D01*
X104593626Y-90916618D01*
X104638206Y-90913025D01*
X104699799Y-90911629D01*
X104781121Y-90911497D01*
X104884888Y-90911697D01*
G36*
X101450848Y-90876785D02*
G01*
X101517950Y-90885193D01*
X101587015Y-90897841D01*
X101653448Y-90913524D01*
X101712651Y-90931039D01*
X101760028Y-90949184D01*
X101790980Y-90966754D01*
X101801000Y-90981332D01*
X101796685Y-91001742D01*
X101785509Y-91037118D01*
X101773609Y-91069914D01*
X101756346Y-91110494D01*
X101742525Y-91130425D01*
X101729160Y-91133628D01*
X101725984Y-91132478D01*
X101594512Y-91084532D01*
X101470072Y-91059910D01*
X101354104Y-91057725D01*
X101248049Y-91077088D01*
X101153346Y-91117111D01*
X101071437Y-91176907D01*
X101003762Y-91255588D01*
X100951760Y-91352266D01*
X100916873Y-91466053D01*
X100900541Y-91596061D01*
X100899469Y-91641950D01*
X100908570Y-91775464D01*
X100935427Y-91893652D01*
X100979494Y-91995416D01*
X101040225Y-92079659D01*
X101117075Y-92145284D01*
X101162931Y-92171542D01*
X101198796Y-92188701D01*
X101228281Y-92200383D01*
X101257653Y-92207629D01*
X101293177Y-92211478D01*
X101341119Y-92212971D01*
X101407743Y-92213149D01*
X101413424Y-92213139D01*
X101485527Y-92212434D01*
X101539233Y-92210022D01*
X101581531Y-92204990D01*
X101619410Y-92196424D01*
X101659860Y-92183409D01*
X101670855Y-92179476D01*
X101715013Y-92164691D01*
X101749034Y-92155564D01*
X101766816Y-92153673D01*
X101767943Y-92154387D01*
X101774373Y-92171062D01*
X101784680Y-92203181D01*
X101796260Y-92241910D01*
X101806510Y-92278421D01*
X101812828Y-92303883D01*
X101813700Y-92309626D01*
X101801985Y-92321201D01*
X101769920Y-92335830D01*
X101722118Y-92351900D01*
X101663196Y-92367792D01*
X101619508Y-92377597D01*
X101550169Y-92388013D01*
X101468254Y-92394256D01*
X101381370Y-92396319D01*
X101297121Y-92394196D01*
X101223113Y-92387877D01*
X101169359Y-92378021D01*
X101051622Y-92333778D01*
X100947945Y-92268746D01*
X100859371Y-92183944D01*
X100786942Y-92080394D01*
X100731701Y-91959116D01*
X100726660Y-91944563D01*
X100702446Y-91848262D01*
X100687973Y-91737752D01*
X100683699Y-91622470D01*
X100690079Y-91511849D01*
X100702107Y-91437731D01*
X100737450Y-91320956D01*
X100788994Y-91211324D01*
X100853542Y-91114360D01*
X100927894Y-91035592D01*
X100941319Y-91024376D01*
X101037433Y-90961875D01*
X101148879Y-90914487D01*
X101269121Y-90884404D01*
X101390307Y-90873820D01*
X101450848Y-90876785D01*
G37*
X101450848Y-90876785D02*
X101517950Y-90885193D01*
X101587015Y-90897841D01*
X101653448Y-90913524D01*
X101712651Y-90931039D01*
X101760028Y-90949184D01*
X101790980Y-90966754D01*
X101801000Y-90981332D01*
X101796685Y-91001742D01*
X101785509Y-91037118D01*
X101773609Y-91069914D01*
X101756346Y-91110494D01*
X101742525Y-91130425D01*
X101729160Y-91133628D01*
X101725984Y-91132478D01*
X101594512Y-91084532D01*
X101470072Y-91059910D01*
X101354104Y-91057725D01*
X101248049Y-91077088D01*
X101153346Y-91117111D01*
X101071437Y-91176907D01*
X101003762Y-91255588D01*
X100951760Y-91352266D01*
X100916873Y-91466053D01*
X100900541Y-91596061D01*
X100899469Y-91641950D01*
X100908570Y-91775464D01*
X100935427Y-91893652D01*
X100979494Y-91995416D01*
X101040225Y-92079659D01*
X101117075Y-92145284D01*
X101162931Y-92171542D01*
X101198796Y-92188701D01*
X101228281Y-92200383D01*
X101257653Y-92207629D01*
X101293177Y-92211478D01*
X101341119Y-92212971D01*
X101407743Y-92213149D01*
X101413424Y-92213139D01*
X101485527Y-92212434D01*
X101539233Y-92210022D01*
X101581531Y-92204990D01*
X101619410Y-92196424D01*
X101659860Y-92183409D01*
X101670855Y-92179476D01*
X101715013Y-92164691D01*
X101749034Y-92155564D01*
X101766816Y-92153673D01*
X101767943Y-92154387D01*
X101774373Y-92171062D01*
X101784680Y-92203181D01*
X101796260Y-92241910D01*
X101806510Y-92278421D01*
X101812828Y-92303883D01*
X101813700Y-92309626D01*
X101801985Y-92321201D01*
X101769920Y-92335830D01*
X101722118Y-92351900D01*
X101663196Y-92367792D01*
X101619508Y-92377597D01*
X101550169Y-92388013D01*
X101468254Y-92394256D01*
X101381370Y-92396319D01*
X101297121Y-92394196D01*
X101223113Y-92387877D01*
X101169359Y-92378021D01*
X101051622Y-92333778D01*
X100947945Y-92268746D01*
X100859371Y-92183944D01*
X100786942Y-92080394D01*
X100731701Y-91959116D01*
X100726660Y-91944563D01*
X100702446Y-91848262D01*
X100687973Y-91737752D01*
X100683699Y-91622470D01*
X100690079Y-91511849D01*
X100702107Y-91437731D01*
X100737450Y-91320956D01*
X100788994Y-91211324D01*
X100853542Y-91114360D01*
X100927894Y-91035592D01*
X100941319Y-91024376D01*
X101037433Y-90961875D01*
X101148879Y-90914487D01*
X101269121Y-90884404D01*
X101390307Y-90873820D01*
X101450848Y-90876785D01*
G36*
X98327318Y-91257200D02*
G01*
X98429391Y-91285902D01*
X98522412Y-91335170D01*
X98540642Y-91348354D01*
X98613100Y-91418975D01*
X98670546Y-91506476D01*
X98712287Y-91606758D01*
X98737627Y-91715720D01*
X98745874Y-91829264D01*
X98736334Y-91943289D01*
X98708312Y-92053697D01*
X98673578Y-92133909D01*
X98618817Y-92214803D01*
X98546569Y-92287045D01*
X98464533Y-92343330D01*
X98439789Y-92355727D01*
X98378659Y-92375754D01*
X98302830Y-92389078D01*
X98222322Y-92394843D01*
X98147156Y-92392191D01*
X98102073Y-92384615D01*
X98004322Y-92347381D01*
X97917958Y-92289581D01*
X97844674Y-92214128D01*
X97786163Y-92123936D01*
X97744121Y-92021915D01*
X97720241Y-91910980D01*
X97717067Y-91818761D01*
X97924959Y-91818761D01*
X97933176Y-91931861D01*
X97957460Y-92028224D01*
X97997263Y-92106638D01*
X98052035Y-92165890D01*
X98094400Y-92193047D01*
X98154166Y-92212767D01*
X98224222Y-92219870D01*
X98295408Y-92214709D01*
X98358563Y-92197638D01*
X98388977Y-92181700D01*
X98452397Y-92123616D01*
X98498231Y-92047251D01*
X98526448Y-91952678D01*
X98537015Y-91839973D01*
X98537100Y-91827961D01*
X98528869Y-91713311D01*
X98504488Y-91616615D01*
X98464420Y-91538546D01*
X98409130Y-91479776D01*
X98339082Y-91440978D01*
X98257461Y-91423060D01*
X98171141Y-91426224D01*
X98095908Y-91451401D01*
X98032903Y-91497233D01*
X97983269Y-91562361D01*
X97948147Y-91645425D01*
X97928679Y-91745067D01*
X97924959Y-91818761D01*
X97717067Y-91818761D01*
X97716216Y-91794042D01*
X97722510Y-91731983D01*
X97749623Y-91608704D01*
X97791886Y-91504667D01*
X97850257Y-91418051D01*
X97924281Y-91348107D01*
X98014675Y-91294520D01*
X98115172Y-91261507D01*
X98220982Y-91249068D01*
X98327318Y-91257200D01*
G37*
X98327318Y-91257200D02*
X98429391Y-91285902D01*
X98522412Y-91335170D01*
X98540642Y-91348354D01*
X98613100Y-91418975D01*
X98670546Y-91506476D01*
X98712287Y-91606758D01*
X98737627Y-91715720D01*
X98745874Y-91829264D01*
X98736334Y-91943289D01*
X98708312Y-92053697D01*
X98673578Y-92133909D01*
X98618817Y-92214803D01*
X98546569Y-92287045D01*
X98464533Y-92343330D01*
X98439789Y-92355727D01*
X98378659Y-92375754D01*
X98302830Y-92389078D01*
X98222322Y-92394843D01*
X98147156Y-92392191D01*
X98102073Y-92384615D01*
X98004322Y-92347381D01*
X97917958Y-92289581D01*
X97844674Y-92214128D01*
X97786163Y-92123936D01*
X97744121Y-92021915D01*
X97720241Y-91910980D01*
X97717067Y-91818761D01*
X97924959Y-91818761D01*
X97933176Y-91931861D01*
X97957460Y-92028224D01*
X97997263Y-92106638D01*
X98052035Y-92165890D01*
X98094400Y-92193047D01*
X98154166Y-92212767D01*
X98224222Y-92219870D01*
X98295408Y-92214709D01*
X98358563Y-92197638D01*
X98388977Y-92181700D01*
X98452397Y-92123616D01*
X98498231Y-92047251D01*
X98526448Y-91952678D01*
X98537015Y-91839973D01*
X98537100Y-91827961D01*
X98528869Y-91713311D01*
X98504488Y-91616615D01*
X98464420Y-91538546D01*
X98409130Y-91479776D01*
X98339082Y-91440978D01*
X98257461Y-91423060D01*
X98171141Y-91426224D01*
X98095908Y-91451401D01*
X98032903Y-91497233D01*
X97983269Y-91562361D01*
X97948147Y-91645425D01*
X97928679Y-91745067D01*
X97924959Y-91818761D01*
X97717067Y-91818761D01*
X97716216Y-91794042D01*
X97722510Y-91731983D01*
X97749623Y-91608704D01*
X97791886Y-91504667D01*
X97850257Y-91418051D01*
X97924281Y-91348107D01*
X98014675Y-91294520D01*
X98115172Y-91261507D01*
X98220982Y-91249068D01*
X98327318Y-91257200D01*
G36*
X94391391Y-91260822D02*
G01*
X94485010Y-91298082D01*
X94567002Y-91356268D01*
X94590650Y-91379600D01*
X94637631Y-91438665D01*
X94671583Y-91503683D01*
X94694279Y-91579854D01*
X94707491Y-91672378D01*
X94711440Y-91734025D01*
X94717596Y-91876900D01*
X93962867Y-91876900D01*
X93971754Y-91930875D01*
X93997203Y-92023762D01*
X94039605Y-92101409D01*
X94097245Y-92161134D01*
X94134110Y-92184992D01*
X94158985Y-92196911D01*
X94184613Y-92204963D01*
X94216599Y-92209871D01*
X94260549Y-92212357D01*
X94322069Y-92213145D01*
X94352450Y-92213147D01*
X94429800Y-92212096D01*
X94486682Y-92208941D01*
X94527973Y-92203189D01*
X94558555Y-92194347D01*
X94564897Y-92191686D01*
X94595621Y-92180527D01*
X94615294Y-92178168D01*
X94617932Y-92179730D01*
X94622291Y-92196415D01*
X94627816Y-92230351D01*
X94632272Y-92265405D01*
X94640923Y-92341878D01*
X94560186Y-92364632D01*
X94492801Y-92378687D01*
X94411815Y-92388112D01*
X94326016Y-92392547D01*
X94244192Y-92391630D01*
X94175131Y-92384999D01*
X94155581Y-92381257D01*
X94047931Y-92345015D01*
X93956291Y-92289519D01*
X93881403Y-92215815D01*
X93824007Y-92124947D01*
X93784844Y-92017959D01*
X93764654Y-91895896D01*
X93761900Y-91826099D01*
X93770576Y-91711800D01*
X93967799Y-91711800D01*
X94511200Y-91711800D01*
X94511129Y-91676875D01*
X94499311Y-91602161D01*
X94466892Y-91531789D01*
X94417970Y-91472580D01*
X94366439Y-91436105D01*
X94325020Y-91422909D01*
X94270147Y-91416624D01*
X94253208Y-91416381D01*
X94175241Y-91429108D01*
X94105354Y-91463887D01*
X94046820Y-91517833D01*
X94002909Y-91588055D01*
X93979650Y-91657825D01*
X93967799Y-91711800D01*
X93770576Y-91711800D01*
X93771828Y-91695313D01*
X93801034Y-91578710D01*
X93848651Y-91477471D01*
X93913809Y-91392775D01*
X93995641Y-91325801D01*
X94093279Y-91277728D01*
X94183383Y-91253450D01*
X94289673Y-91245580D01*
X94391391Y-91260822D01*
G37*
X94391391Y-91260822D02*
X94485010Y-91298082D01*
X94567002Y-91356268D01*
X94590650Y-91379600D01*
X94637631Y-91438665D01*
X94671583Y-91503683D01*
X94694279Y-91579854D01*
X94707491Y-91672378D01*
X94711440Y-91734025D01*
X94717596Y-91876900D01*
X93962867Y-91876900D01*
X93971754Y-91930875D01*
X93997203Y-92023762D01*
X94039605Y-92101409D01*
X94097245Y-92161134D01*
X94134110Y-92184992D01*
X94158985Y-92196911D01*
X94184613Y-92204963D01*
X94216599Y-92209871D01*
X94260549Y-92212357D01*
X94322069Y-92213145D01*
X94352450Y-92213147D01*
X94429800Y-92212096D01*
X94486682Y-92208941D01*
X94527973Y-92203189D01*
X94558555Y-92194347D01*
X94564897Y-92191686D01*
X94595621Y-92180527D01*
X94615294Y-92178168D01*
X94617932Y-92179730D01*
X94622291Y-92196415D01*
X94627816Y-92230351D01*
X94632272Y-92265405D01*
X94640923Y-92341878D01*
X94560186Y-92364632D01*
X94492801Y-92378687D01*
X94411815Y-92388112D01*
X94326016Y-92392547D01*
X94244192Y-92391630D01*
X94175131Y-92384999D01*
X94155581Y-92381257D01*
X94047931Y-92345015D01*
X93956291Y-92289519D01*
X93881403Y-92215815D01*
X93824007Y-92124947D01*
X93784844Y-92017959D01*
X93764654Y-91895896D01*
X93761900Y-91826099D01*
X93770576Y-91711800D01*
X93967799Y-91711800D01*
X94511200Y-91711800D01*
X94511129Y-91676875D01*
X94499311Y-91602161D01*
X94466892Y-91531789D01*
X94417970Y-91472580D01*
X94366439Y-91436105D01*
X94325020Y-91422909D01*
X94270147Y-91416624D01*
X94253208Y-91416381D01*
X94175241Y-91429108D01*
X94105354Y-91463887D01*
X94046820Y-91517833D01*
X94002909Y-91588055D01*
X93979650Y-91657825D01*
X93967799Y-91711800D01*
X93770576Y-91711800D01*
X93771828Y-91695313D01*
X93801034Y-91578710D01*
X93848651Y-91477471D01*
X93913809Y-91392775D01*
X93995641Y-91325801D01*
X94093279Y-91277728D01*
X94183383Y-91253450D01*
X94289673Y-91245580D01*
X94391391Y-91260822D01*
G36*
X93170478Y-90949618D02*
G01*
X93174817Y-90986574D01*
X93177215Y-91047067D01*
X93177700Y-91101885D01*
X93177700Y-91266670D01*
X93590450Y-91273650D01*
X93598012Y-91432400D01*
X93387087Y-91432400D01*
X93176162Y-91432399D01*
X93180106Y-91765775D01*
X93181444Y-91867573D01*
X93182929Y-91947199D01*
X93184807Y-92007880D01*
X93187328Y-92052843D01*
X93190739Y-92085315D01*
X93195288Y-92108524D01*
X93201224Y-92125696D01*
X93208795Y-92140059D01*
X93208891Y-92140219D01*
X93237267Y-92173870D01*
X93272237Y-92199523D01*
X93274311Y-92200544D01*
X93322681Y-92214187D01*
X93385331Y-92219032D01*
X93452729Y-92215125D01*
X93515345Y-92202513D01*
X93525375Y-92199321D01*
X93561057Y-92188744D01*
X93585804Y-92184349D01*
X93591941Y-92185307D01*
X93600480Y-92202792D01*
X93610111Y-92234753D01*
X93618926Y-92272520D01*
X93625013Y-92307424D01*
X93626462Y-92330795D01*
X93624995Y-92335331D01*
X93608538Y-92343687D01*
X93576367Y-92356264D01*
X93552350Y-92364647D01*
X93478106Y-92382033D01*
X93391413Y-92390948D01*
X93303958Y-92390820D01*
X93227431Y-92381078D01*
X93225450Y-92380637D01*
X93144633Y-92351081D01*
X93080192Y-92302512D01*
X93031867Y-92234608D01*
X92999400Y-92147049D01*
X92987635Y-92086450D01*
X92984841Y-92054099D01*
X92982249Y-91999667D01*
X92979930Y-91926469D01*
X92977953Y-91837822D01*
X92976390Y-91737044D01*
X92975311Y-91627452D01*
X92974788Y-91512363D01*
X92974751Y-91481886D01*
X92974500Y-90966222D01*
X93062671Y-90951661D01*
X93108487Y-90944392D01*
X93144828Y-90939173D01*
X93164033Y-90937102D01*
X93164271Y-90937100D01*
X93170478Y-90949618D01*
G37*
X93170478Y-90949618D02*
X93174817Y-90986574D01*
X93177215Y-91047067D01*
X93177700Y-91101885D01*
X93177700Y-91266670D01*
X93590450Y-91273650D01*
X93598012Y-91432400D01*
X93387087Y-91432400D01*
X93176162Y-91432399D01*
X93180106Y-91765775D01*
X93181444Y-91867573D01*
X93182929Y-91947199D01*
X93184807Y-92007880D01*
X93187328Y-92052843D01*
X93190739Y-92085315D01*
X93195288Y-92108524D01*
X93201224Y-92125696D01*
X93208795Y-92140059D01*
X93208891Y-92140219D01*
X93237267Y-92173870D01*
X93272237Y-92199523D01*
X93274311Y-92200544D01*
X93322681Y-92214187D01*
X93385331Y-92219032D01*
X93452729Y-92215125D01*
X93515345Y-92202513D01*
X93525375Y-92199321D01*
X93561057Y-92188744D01*
X93585804Y-92184349D01*
X93591941Y-92185307D01*
X93600480Y-92202792D01*
X93610111Y-92234753D01*
X93618926Y-92272520D01*
X93625013Y-92307424D01*
X93626462Y-92330795D01*
X93624995Y-92335331D01*
X93608538Y-92343687D01*
X93576367Y-92356264D01*
X93552350Y-92364647D01*
X93478106Y-92382033D01*
X93391413Y-92390948D01*
X93303958Y-92390820D01*
X93227431Y-92381078D01*
X93225450Y-92380637D01*
X93144633Y-92351081D01*
X93080192Y-92302512D01*
X93031867Y-92234608D01*
X92999400Y-92147049D01*
X92987635Y-92086450D01*
X92984841Y-92054099D01*
X92982249Y-91999667D01*
X92979930Y-91926469D01*
X92977953Y-91837822D01*
X92976390Y-91737044D01*
X92975311Y-91627452D01*
X92974788Y-91512363D01*
X92974751Y-91481886D01*
X92974500Y-90966222D01*
X93062671Y-90951661D01*
X93108487Y-90944392D01*
X93144828Y-90939173D01*
X93164033Y-90937102D01*
X93164271Y-90937100D01*
X93170478Y-90949618D01*
G36*
X92319578Y-90949618D02*
G01*
X92323917Y-90986574D01*
X92326315Y-91047067D01*
X92326800Y-91101885D01*
X92326800Y-91266670D01*
X92739550Y-91273650D01*
X92747112Y-91432400D01*
X92536187Y-91432400D01*
X92325262Y-91432399D01*
X92329206Y-91765775D01*
X92330767Y-91876344D01*
X92332954Y-91964440D01*
X92336384Y-92032990D01*
X92341670Y-92084920D01*
X92349428Y-92123158D01*
X92360273Y-92150630D01*
X92374818Y-92170263D01*
X92393681Y-92184984D01*
X92417474Y-92197719D01*
X92420234Y-92199037D01*
X92470451Y-92213562D01*
X92534348Y-92219123D01*
X92601815Y-92215650D01*
X92662739Y-92203074D01*
X92669700Y-92200750D01*
X92710210Y-92187261D01*
X92733453Y-92184487D01*
X92746082Y-92194598D01*
X92754750Y-92219766D01*
X92757249Y-92229325D01*
X92769817Y-92280608D01*
X92773632Y-92313381D01*
X92766438Y-92333686D01*
X92745980Y-92347567D01*
X92710002Y-92361069D01*
X92707800Y-92361827D01*
X92628180Y-92381286D01*
X92537082Y-92391068D01*
X92446260Y-92390510D01*
X92374550Y-92380637D01*
X92293305Y-92350478D01*
X92227856Y-92300608D01*
X92178620Y-92231533D01*
X92146013Y-92143756D01*
X92135875Y-92091636D01*
X92133293Y-92061127D01*
X92130894Y-92008450D01*
X92128743Y-91936838D01*
X92126904Y-91849522D01*
X92125441Y-91749733D01*
X92124419Y-91640706D01*
X92123903Y-91525670D01*
X92123855Y-91488236D01*
X92123600Y-90966222D01*
X92211771Y-90951661D01*
X92257587Y-90944392D01*
X92293928Y-90939173D01*
X92313133Y-90937102D01*
X92313371Y-90937100D01*
X92319578Y-90949618D01*
G37*
X92319578Y-90949618D02*
X92323917Y-90986574D01*
X92326315Y-91047067D01*
X92326800Y-91101885D01*
X92326800Y-91266670D01*
X92739550Y-91273650D01*
X92747112Y-91432400D01*
X92536187Y-91432400D01*
X92325262Y-91432399D01*
X92329206Y-91765775D01*
X92330767Y-91876344D01*
X92332954Y-91964440D01*
X92336384Y-92032990D01*
X92341670Y-92084920D01*
X92349428Y-92123158D01*
X92360273Y-92150630D01*
X92374818Y-92170263D01*
X92393681Y-92184984D01*
X92417474Y-92197719D01*
X92420234Y-92199037D01*
X92470451Y-92213562D01*
X92534348Y-92219123D01*
X92601815Y-92215650D01*
X92662739Y-92203074D01*
X92669700Y-92200750D01*
X92710210Y-92187261D01*
X92733453Y-92184487D01*
X92746082Y-92194598D01*
X92754750Y-92219766D01*
X92757249Y-92229325D01*
X92769817Y-92280608D01*
X92773632Y-92313381D01*
X92766438Y-92333686D01*
X92745980Y-92347567D01*
X92710002Y-92361069D01*
X92707800Y-92361827D01*
X92628180Y-92381286D01*
X92537082Y-92391068D01*
X92446260Y-92390510D01*
X92374550Y-92380637D01*
X92293305Y-92350478D01*
X92227856Y-92300608D01*
X92178620Y-92231533D01*
X92146013Y-92143756D01*
X92135875Y-92091636D01*
X92133293Y-92061127D01*
X92130894Y-92008450D01*
X92128743Y-91936838D01*
X92126904Y-91849522D01*
X92125441Y-91749733D01*
X92124419Y-91640706D01*
X92123903Y-91525670D01*
X92123855Y-91488236D01*
X92123600Y-90966222D01*
X92211771Y-90951661D01*
X92257587Y-90944392D01*
X92293928Y-90939173D01*
X92313133Y-90937102D01*
X92313371Y-90937100D01*
X92319578Y-90949618D01*
G36*
X91256777Y-90881593D02*
G01*
X91380008Y-90910278D01*
X91492936Y-90960193D01*
X91593673Y-91030132D01*
X91680333Y-91118889D01*
X91751029Y-91225256D01*
X91803874Y-91348027D01*
X91826331Y-91429522D01*
X91839999Y-91521213D01*
X91844383Y-91624705D01*
X91839925Y-91731513D01*
X91827066Y-91833156D01*
X91806250Y-91921150D01*
X91799715Y-91940400D01*
X91741688Y-92067685D01*
X91668377Y-92174688D01*
X91579763Y-92261425D01*
X91475828Y-92327914D01*
X91356554Y-92374172D01*
X91340269Y-92378610D01*
X91255313Y-92393139D01*
X91157567Y-92397783D01*
X91057315Y-92392834D01*
X90964843Y-92378584D01*
X90920397Y-92366684D01*
X90801745Y-92315744D01*
X90698810Y-92245632D01*
X90612447Y-92157773D01*
X90543511Y-92053592D01*
X90492855Y-91934514D01*
X90461335Y-91801965D01*
X90449805Y-91657370D01*
X90450182Y-91641950D01*
X90663541Y-91641950D01*
X90673028Y-91769985D01*
X90700698Y-91886070D01*
X90745367Y-91988226D01*
X90805847Y-92074479D01*
X90880955Y-92142852D01*
X90969503Y-92191369D01*
X90999650Y-92202117D01*
X91069032Y-92215708D01*
X91150574Y-92219170D01*
X91233286Y-92212834D01*
X91306181Y-92197028D01*
X91319206Y-92192539D01*
X91392253Y-92154444D01*
X91462709Y-92098391D01*
X91522639Y-92031252D01*
X91545840Y-91996249D01*
X91585513Y-91907620D01*
X91612090Y-91803594D01*
X91625407Y-91690635D01*
X91625296Y-91575209D01*
X91611593Y-91463781D01*
X91584131Y-91362816D01*
X91563322Y-91314525D01*
X91503424Y-91221214D01*
X91428981Y-91147761D01*
X91342291Y-91095010D01*
X91245652Y-91063806D01*
X91141364Y-91054996D01*
X91031724Y-91069424D01*
X90958052Y-91091899D01*
X90876807Y-91135509D01*
X90806635Y-91200048D01*
X90748896Y-91282972D01*
X90704952Y-91381739D01*
X90676164Y-91493807D01*
X90663893Y-91616634D01*
X90663541Y-91641950D01*
X90450182Y-91641950D01*
X90451583Y-91584800D01*
X90456612Y-91520673D01*
X90463916Y-91458238D01*
X90472306Y-91406767D01*
X90477001Y-91386322D01*
X90523410Y-91261361D01*
X90589135Y-91150746D01*
X90672258Y-91056333D01*
X90770861Y-90979977D01*
X90883027Y-90923535D01*
X90986950Y-90892740D01*
X91125128Y-90875345D01*
X91256777Y-90881593D01*
G37*
X91256777Y-90881593D02*
X91380008Y-90910278D01*
X91492936Y-90960193D01*
X91593673Y-91030132D01*
X91680333Y-91118889D01*
X91751029Y-91225256D01*
X91803874Y-91348027D01*
X91826331Y-91429522D01*
X91839999Y-91521213D01*
X91844383Y-91624705D01*
X91839925Y-91731513D01*
X91827066Y-91833156D01*
X91806250Y-91921150D01*
X91799715Y-91940400D01*
X91741688Y-92067685D01*
X91668377Y-92174688D01*
X91579763Y-92261425D01*
X91475828Y-92327914D01*
X91356554Y-92374172D01*
X91340269Y-92378610D01*
X91255313Y-92393139D01*
X91157567Y-92397783D01*
X91057315Y-92392834D01*
X90964843Y-92378584D01*
X90920397Y-92366684D01*
X90801745Y-92315744D01*
X90698810Y-92245632D01*
X90612447Y-92157773D01*
X90543511Y-92053592D01*
X90492855Y-91934514D01*
X90461335Y-91801965D01*
X90449805Y-91657370D01*
X90450182Y-91641950D01*
X90663541Y-91641950D01*
X90673028Y-91769985D01*
X90700698Y-91886070D01*
X90745367Y-91988226D01*
X90805847Y-92074479D01*
X90880955Y-92142852D01*
X90969503Y-92191369D01*
X90999650Y-92202117D01*
X91069032Y-92215708D01*
X91150574Y-92219170D01*
X91233286Y-92212834D01*
X91306181Y-92197028D01*
X91319206Y-92192539D01*
X91392253Y-92154444D01*
X91462709Y-92098391D01*
X91522639Y-92031252D01*
X91545840Y-91996249D01*
X91585513Y-91907620D01*
X91612090Y-91803594D01*
X91625407Y-91690635D01*
X91625296Y-91575209D01*
X91611593Y-91463781D01*
X91584131Y-91362816D01*
X91563322Y-91314525D01*
X91503424Y-91221214D01*
X91428981Y-91147761D01*
X91342291Y-91095010D01*
X91245652Y-91063806D01*
X91141364Y-91054996D01*
X91031724Y-91069424D01*
X90958052Y-91091899D01*
X90876807Y-91135509D01*
X90806635Y-91200048D01*
X90748896Y-91282972D01*
X90704952Y-91381739D01*
X90676164Y-91493807D01*
X90663893Y-91616634D01*
X90663541Y-91641950D01*
X90450182Y-91641950D01*
X90451583Y-91584800D01*
X90456612Y-91520673D01*
X90463916Y-91458238D01*
X90472306Y-91406767D01*
X90477001Y-91386322D01*
X90523410Y-91261361D01*
X90589135Y-91150746D01*
X90672258Y-91056333D01*
X90770861Y-90979977D01*
X90883027Y-90923535D01*
X90986950Y-90892740D01*
X91125128Y-90875345D01*
X91256777Y-90881593D01*
G36*
X103488982Y-92932554D02*
G01*
X103524182Y-92949859D01*
X103547756Y-92981281D01*
X103553600Y-93011375D01*
X103542999Y-93052868D01*
X103515498Y-93081304D01*
X103477544Y-93093622D01*
X103435588Y-93086763D01*
X103416725Y-93076329D01*
X103394767Y-93047172D01*
X103388358Y-93008248D01*
X103397926Y-92970195D01*
X103411725Y-92952018D01*
X103449161Y-92932296D01*
X103488982Y-92932554D01*
G37*
X103488982Y-92932554D02*
X103524182Y-92949859D01*
X103547756Y-92981281D01*
X103553600Y-93011375D01*
X103542999Y-93052868D01*
X103515498Y-93081304D01*
X103477544Y-93093622D01*
X103435588Y-93086763D01*
X103416725Y-93076329D01*
X103394767Y-93047172D01*
X103388358Y-93008248D01*
X103397926Y-92970195D01*
X103411725Y-92952018D01*
X103449161Y-92932296D01*
X103488982Y-92932554D01*
G36*
X98661052Y-92941476D02*
G01*
X98689214Y-92968346D01*
X98701532Y-93004769D01*
X98695218Y-93043904D01*
X98676800Y-93070700D01*
X98638755Y-93092859D01*
X98595671Y-93091407D01*
X98565325Y-93076329D01*
X98542458Y-93047761D01*
X98537100Y-93013737D01*
X98546349Y-92968294D01*
X98573784Y-92940559D01*
X98618934Y-92931002D01*
X98619837Y-92931000D01*
X98661052Y-92941476D01*
G37*
X98661052Y-92941476D02*
X98689214Y-92968346D01*
X98701532Y-93004769D01*
X98695218Y-93043904D01*
X98676800Y-93070700D01*
X98638755Y-93092859D01*
X98595671Y-93091407D01*
X98565325Y-93076329D01*
X98542458Y-93047761D01*
X98537100Y-93013737D01*
X98546349Y-92968294D01*
X98573784Y-92940559D01*
X98618934Y-92931002D01*
X98619837Y-92931000D01*
X98661052Y-92941476D01*
G36*
X93174652Y-92941476D02*
G01*
X93202814Y-92968346D01*
X93215132Y-93004769D01*
X93208818Y-93043904D01*
X93190400Y-93070700D01*
X93152355Y-93092859D01*
X93109271Y-93091407D01*
X93078925Y-93076329D01*
X93057663Y-93047722D01*
X93050442Y-93008574D01*
X93057996Y-92969981D01*
X93070657Y-92950957D01*
X93096881Y-92937006D01*
X93132501Y-92931004D01*
X93133437Y-92931000D01*
X93174652Y-92941476D01*
G37*
X93174652Y-92941476D02*
X93202814Y-92968346D01*
X93215132Y-93004769D01*
X93208818Y-93043904D01*
X93190400Y-93070700D01*
X93152355Y-93092859D01*
X93109271Y-93091407D01*
X93078925Y-93076329D01*
X93057663Y-93047722D01*
X93050442Y-93008574D01*
X93057996Y-92969981D01*
X93070657Y-92950957D01*
X93096881Y-92937006D01*
X93132501Y-92931004D01*
X93133437Y-92931000D01*
X93174652Y-92941476D01*
G36*
X104633100Y-93236100D02*
G01*
X104687075Y-93226425D01*
X104779058Y-93217407D01*
X104864332Y-93223344D01*
X104938290Y-93243279D01*
X104996326Y-93276253D01*
X105015743Y-93294773D01*
X105036974Y-93320485D01*
X105053328Y-93345666D01*
X105065507Y-93374084D01*
X105074212Y-93409507D01*
X105080145Y-93455701D01*
X105084007Y-93516435D01*
X105086501Y-93595475D01*
X105088125Y-93683475D01*
X105092447Y-93959700D01*
X104965596Y-93959700D01*
X104961139Y-93708875D01*
X104958635Y-93607501D01*
X104954625Y-93528338D01*
X104948309Y-93468208D01*
X104938886Y-93423931D01*
X104925558Y-93392329D01*
X104907522Y-93370222D01*
X104883980Y-93354431D01*
X104870333Y-93348096D01*
X104828365Y-93337697D01*
X104772521Y-93333206D01*
X104713697Y-93334924D01*
X104665528Y-93342444D01*
X104633100Y-93350583D01*
X104633100Y-93959700D01*
X104493400Y-93959700D01*
X104493400Y-93427155D01*
X104493271Y-93295921D01*
X104493141Y-93187803D01*
X104493387Y-93100517D01*
X104494391Y-93031783D01*
X104496532Y-92979318D01*
X104500191Y-92940841D01*
X104505748Y-92914069D01*
X104513583Y-92896720D01*
X104524075Y-92886513D01*
X104537606Y-92881166D01*
X104554554Y-92878396D01*
X104575301Y-92875922D01*
X104585475Y-92874383D01*
X104633100Y-92866349D01*
X104633100Y-93236100D01*
G37*
X104633100Y-93236100D02*
X104687075Y-93226425D01*
X104779058Y-93217407D01*
X104864332Y-93223344D01*
X104938290Y-93243279D01*
X104996326Y-93276253D01*
X105015743Y-93294773D01*
X105036974Y-93320485D01*
X105053328Y-93345666D01*
X105065507Y-93374084D01*
X105074212Y-93409507D01*
X105080145Y-93455701D01*
X105084007Y-93516435D01*
X105086501Y-93595475D01*
X105088125Y-93683475D01*
X105092447Y-93959700D01*
X104965596Y-93959700D01*
X104961139Y-93708875D01*
X104958635Y-93607501D01*
X104954625Y-93528338D01*
X104948309Y-93468208D01*
X104938886Y-93423931D01*
X104925558Y-93392329D01*
X104907522Y-93370222D01*
X104883980Y-93354431D01*
X104870333Y-93348096D01*
X104828365Y-93337697D01*
X104772521Y-93333206D01*
X104713697Y-93334924D01*
X104665528Y-93342444D01*
X104633100Y-93350583D01*
X104633100Y-93959700D01*
X104493400Y-93959700D01*
X104493400Y-93427155D01*
X104493271Y-93295921D01*
X104493141Y-93187803D01*
X104493387Y-93100517D01*
X104494391Y-93031783D01*
X104496532Y-92979318D01*
X104500191Y-92940841D01*
X104505748Y-92914069D01*
X104513583Y-92896720D01*
X104524075Y-92886513D01*
X104537606Y-92881166D01*
X104554554Y-92878396D01*
X104575301Y-92875922D01*
X104585475Y-92874383D01*
X104633100Y-92866349D01*
X104633100Y-93236100D01*
G36*
X103897149Y-93199865D02*
G01*
X103897798Y-93534250D01*
X104195548Y-93223100D01*
X104261924Y-93223100D01*
X104299084Y-93224827D01*
X104323172Y-93229261D01*
X104328300Y-93233108D01*
X104319974Y-93245197D01*
X104296920Y-93272351D01*
X104262023Y-93311333D01*
X104218165Y-93358907D01*
X104181148Y-93398256D01*
X104033997Y-93553394D01*
X104135566Y-93661953D01*
X104185006Y-93717155D01*
X104235881Y-93777882D01*
X104280815Y-93835159D01*
X104302527Y-93865106D01*
X104367920Y-93959700D01*
X104216404Y-93959700D01*
X104152844Y-93873975D01*
X104113472Y-93824961D01*
X104063826Y-93768896D01*
X104012668Y-93715540D01*
X103996067Y-93699350D01*
X103902850Y-93610450D01*
X103899316Y-93785075D01*
X103895783Y-93959700D01*
X103769500Y-93959700D01*
X103769500Y-93427155D01*
X103769384Y-93296118D01*
X103769275Y-93188186D01*
X103769526Y-93101068D01*
X103770494Y-93032470D01*
X103772534Y-92980101D01*
X103775999Y-92941668D01*
X103781246Y-92914880D01*
X103788630Y-92897444D01*
X103798505Y-92887068D01*
X103811228Y-92881459D01*
X103827152Y-92878325D01*
X103846633Y-92875375D01*
X103855225Y-92873789D01*
X103896500Y-92865481D01*
X103897149Y-93199865D01*
G37*
X103897149Y-93199865D02*
X103897798Y-93534250D01*
X104195548Y-93223100D01*
X104261924Y-93223100D01*
X104299084Y-93224827D01*
X104323172Y-93229261D01*
X104328300Y-93233108D01*
X104319974Y-93245197D01*
X104296920Y-93272351D01*
X104262023Y-93311333D01*
X104218165Y-93358907D01*
X104181148Y-93398256D01*
X104033997Y-93553394D01*
X104135566Y-93661953D01*
X104185006Y-93717155D01*
X104235881Y-93777882D01*
X104280815Y-93835159D01*
X104302527Y-93865106D01*
X104367920Y-93959700D01*
X104216404Y-93959700D01*
X104152844Y-93873975D01*
X104113472Y-93824961D01*
X104063826Y-93768896D01*
X104012668Y-93715540D01*
X103996067Y-93699350D01*
X103902850Y-93610450D01*
X103899316Y-93785075D01*
X103895783Y-93959700D01*
X103769500Y-93959700D01*
X103769500Y-93427155D01*
X103769384Y-93296118D01*
X103769275Y-93188186D01*
X103769526Y-93101068D01*
X103770494Y-93032470D01*
X103772534Y-92980101D01*
X103775999Y-92941668D01*
X103781246Y-92914880D01*
X103788630Y-92897444D01*
X103798505Y-92887068D01*
X103811228Y-92881459D01*
X103827152Y-92878325D01*
X103846633Y-92875375D01*
X103855225Y-92873789D01*
X103896500Y-92865481D01*
X103897149Y-93199865D01*
G36*
X103537919Y-93594575D02*
G01*
X103541289Y-93959700D01*
X103400810Y-93959700D01*
X103407550Y-93229450D01*
X103534550Y-93229450D01*
X103537919Y-93594575D01*
G37*
X103537919Y-93594575D02*
X103541289Y-93959700D01*
X103400810Y-93959700D01*
X103407550Y-93229450D01*
X103534550Y-93229450D01*
X103537919Y-93594575D01*
G36*
X103180966Y-93218917D02*
G01*
X103231305Y-93224675D01*
X103240581Y-93226884D01*
X103263950Y-93235671D01*
X103271960Y-93249993D01*
X103268937Y-93278843D01*
X103268003Y-93283898D01*
X103259863Y-93321601D01*
X103249239Y-93339305D01*
X103229040Y-93341986D01*
X103194899Y-93335237D01*
X103150300Y-93329759D01*
X103096478Y-93329308D01*
X103067825Y-93331468D01*
X102994800Y-93339893D01*
X102994800Y-93959700D01*
X102855100Y-93959700D01*
X102855100Y-93261909D01*
X102928125Y-93240439D01*
X102981531Y-93229136D01*
X103047316Y-93221528D01*
X103116716Y-93217995D01*
X103180966Y-93218917D01*
G37*
X103180966Y-93218917D02*
X103231305Y-93224675D01*
X103240581Y-93226884D01*
X103263950Y-93235671D01*
X103271960Y-93249993D01*
X103268937Y-93278843D01*
X103268003Y-93283898D01*
X103259863Y-93321601D01*
X103249239Y-93339305D01*
X103229040Y-93341986D01*
X103194899Y-93335237D01*
X103150300Y-93329759D01*
X103096478Y-93329308D01*
X103067825Y-93331468D01*
X102994800Y-93339893D01*
X102994800Y-93959700D01*
X102855100Y-93959700D01*
X102855100Y-93261909D01*
X102928125Y-93240439D01*
X102981531Y-93229136D01*
X103047316Y-93221528D01*
X103116716Y-93217995D01*
X103180966Y-93218917D01*
G36*
X102418798Y-93221392D02*
G01*
X102493087Y-93244615D01*
X102552034Y-93284254D01*
X102597475Y-93340948D01*
X102606556Y-93357126D01*
X102615325Y-93375829D01*
X102622020Y-93396609D01*
X102626989Y-93423230D01*
X102630582Y-93459456D01*
X102633151Y-93509048D01*
X102635043Y-93575771D01*
X102636611Y-93663388D01*
X102636912Y-93683475D01*
X102640975Y-93959700D01*
X102514807Y-93959700D01*
X102509923Y-93702525D01*
X102507751Y-93603116D01*
X102504619Y-93525801D01*
X102499249Y-93467275D01*
X102490365Y-93424234D01*
X102476687Y-93393372D01*
X102456938Y-93371386D01*
X102429840Y-93354971D01*
X102394115Y-93340823D01*
X102366453Y-93331537D01*
X102340827Y-93328468D01*
X102299856Y-93328891D01*
X102261678Y-93331826D01*
X102182000Y-93340359D01*
X102182000Y-93959700D01*
X102055000Y-93959700D01*
X102055000Y-93605458D01*
X102055185Y-93498837D01*
X102055831Y-93414996D01*
X102057067Y-93351320D01*
X102059024Y-93305191D01*
X102061835Y-93273993D01*
X102065629Y-93255109D01*
X102070539Y-93245921D01*
X102073105Y-93244269D01*
X102092929Y-93239794D01*
X102131555Y-93233398D01*
X102182551Y-93226094D01*
X102216842Y-93221643D01*
X102327328Y-93213948D01*
X102418798Y-93221392D01*
G37*
X102418798Y-93221392D02*
X102493087Y-93244615D01*
X102552034Y-93284254D01*
X102597475Y-93340948D01*
X102606556Y-93357126D01*
X102615325Y-93375829D01*
X102622020Y-93396609D01*
X102626989Y-93423230D01*
X102630582Y-93459456D01*
X102633151Y-93509048D01*
X102635043Y-93575771D01*
X102636611Y-93663388D01*
X102636912Y-93683475D01*
X102640975Y-93959700D01*
X102514807Y-93959700D01*
X102509923Y-93702525D01*
X102507751Y-93603116D01*
X102504619Y-93525801D01*
X102499249Y-93467275D01*
X102490365Y-93424234D01*
X102476687Y-93393372D01*
X102456938Y-93371386D01*
X102429840Y-93354971D01*
X102394115Y-93340823D01*
X102366453Y-93331537D01*
X102340827Y-93328468D01*
X102299856Y-93328891D01*
X102261678Y-93331826D01*
X102182000Y-93340359D01*
X102182000Y-93959700D01*
X102055000Y-93959700D01*
X102055000Y-93605458D01*
X102055185Y-93498837D01*
X102055831Y-93414996D01*
X102057067Y-93351320D01*
X102059024Y-93305191D01*
X102061835Y-93273993D01*
X102065629Y-93255109D01*
X102070539Y-93245921D01*
X102073105Y-93244269D01*
X102092929Y-93239794D01*
X102131555Y-93233398D01*
X102182551Y-93226094D01*
X102216842Y-93221643D01*
X102327328Y-93213948D01*
X102418798Y-93221392D01*
G36*
X100581800Y-93238032D02*
G01*
X100635775Y-93227391D01*
X100678337Y-93221967D01*
X100732607Y-93218945D01*
X100773753Y-93218788D01*
X100861400Y-93230502D01*
X100932029Y-93261059D01*
X100985796Y-93310588D01*
X101022856Y-93379218D01*
X101038782Y-93437855D01*
X101043060Y-93473275D01*
X101046740Y-93528292D01*
X101049567Y-93597105D01*
X101051288Y-93673914D01*
X101051700Y-93732833D01*
X101051700Y-93959700D01*
X100912000Y-93959700D01*
X100912000Y-93711642D01*
X100911405Y-93612603D01*
X100909165Y-93535536D01*
X100904600Y-93477027D01*
X100897027Y-93433668D01*
X100885764Y-93402046D01*
X100870130Y-93378750D01*
X100849443Y-93360369D01*
X100840573Y-93354262D01*
X100808135Y-93339731D01*
X100763704Y-93333133D01*
X100721242Y-93332504D01*
X100678784Y-93333062D01*
X100645929Y-93335014D01*
X100621452Y-93341257D01*
X100604125Y-93354690D01*
X100592721Y-93378209D01*
X100586012Y-93414713D01*
X100582770Y-93467098D01*
X100581769Y-93538262D01*
X100581782Y-93631104D01*
X100581800Y-93661696D01*
X100581800Y-93959700D01*
X100454800Y-93959700D01*
X100454800Y-92893383D01*
X100489725Y-92885995D01*
X100527409Y-92878115D01*
X100553225Y-92872811D01*
X100581800Y-92867016D01*
X100581800Y-93238032D01*
G37*
X100581800Y-93238032D02*
X100635775Y-93227391D01*
X100678337Y-93221967D01*
X100732607Y-93218945D01*
X100773753Y-93218788D01*
X100861400Y-93230502D01*
X100932029Y-93261059D01*
X100985796Y-93310588D01*
X101022856Y-93379218D01*
X101038782Y-93437855D01*
X101043060Y-93473275D01*
X101046740Y-93528292D01*
X101049567Y-93597105D01*
X101051288Y-93673914D01*
X101051700Y-93732833D01*
X101051700Y-93959700D01*
X100912000Y-93959700D01*
X100912000Y-93711642D01*
X100911405Y-93612603D01*
X100909165Y-93535536D01*
X100904600Y-93477027D01*
X100897027Y-93433668D01*
X100885764Y-93402046D01*
X100870130Y-93378750D01*
X100849443Y-93360369D01*
X100840573Y-93354262D01*
X100808135Y-93339731D01*
X100763704Y-93333133D01*
X100721242Y-93332504D01*
X100678784Y-93333062D01*
X100645929Y-93335014D01*
X100621452Y-93341257D01*
X100604125Y-93354690D01*
X100592721Y-93378209D01*
X100586012Y-93414713D01*
X100582770Y-93467098D01*
X100581769Y-93538262D01*
X100581782Y-93631104D01*
X100581800Y-93661696D01*
X100581800Y-93959700D01*
X100454800Y-93959700D01*
X100454800Y-92893383D01*
X100489725Y-92885995D01*
X100527409Y-92878115D01*
X100553225Y-92872811D01*
X100581800Y-92867016D01*
X100581800Y-93238032D01*
G36*
X99977792Y-93218376D02*
G01*
X100022258Y-93221542D01*
X100055526Y-93228390D01*
X100084676Y-93239997D01*
X100094824Y-93245176D01*
X100136767Y-93270911D01*
X100169953Y-93300677D01*
X100195340Y-93337600D01*
X100213888Y-93384800D01*
X100226555Y-93445401D01*
X100234300Y-93522526D01*
X100238082Y-93619297D01*
X100238900Y-93714355D01*
X100238900Y-93959700D01*
X100111900Y-93959700D01*
X100111900Y-93751883D01*
X100110627Y-93641922D01*
X100106547Y-93554489D01*
X100099265Y-93486825D01*
X100088386Y-93436173D01*
X100073517Y-93399774D01*
X100058604Y-93379193D01*
X100012410Y-93347887D01*
X99948366Y-93331532D01*
X99869680Y-93330880D01*
X99857530Y-93332101D01*
X99781700Y-93340680D01*
X99781700Y-93959700D01*
X99642000Y-93959700D01*
X99642000Y-93250300D01*
X99715025Y-93234384D01*
X99761096Y-93227206D01*
X99822168Y-93221550D01*
X99887851Y-93218276D01*
X99915050Y-93217815D01*
X99977792Y-93218376D01*
G37*
X99977792Y-93218376D02*
X100022258Y-93221542D01*
X100055526Y-93228390D01*
X100084676Y-93239997D01*
X100094824Y-93245176D01*
X100136767Y-93270911D01*
X100169953Y-93300677D01*
X100195340Y-93337600D01*
X100213888Y-93384800D01*
X100226555Y-93445401D01*
X100234300Y-93522526D01*
X100238082Y-93619297D01*
X100238900Y-93714355D01*
X100238900Y-93959700D01*
X100111900Y-93959700D01*
X100111900Y-93751883D01*
X100110627Y-93641922D01*
X100106547Y-93554489D01*
X100099265Y-93486825D01*
X100088386Y-93436173D01*
X100073517Y-93399774D01*
X100058604Y-93379193D01*
X100012410Y-93347887D01*
X99948366Y-93331532D01*
X99869680Y-93330880D01*
X99857530Y-93332101D01*
X99781700Y-93340680D01*
X99781700Y-93959700D01*
X99642000Y-93959700D01*
X99642000Y-93250300D01*
X99715025Y-93234384D01*
X99761096Y-93227206D01*
X99822168Y-93221550D01*
X99887851Y-93218276D01*
X99915050Y-93217815D01*
X99977792Y-93218376D01*
G36*
X94617522Y-93222985D02*
G01*
X94695244Y-93250942D01*
X94741206Y-93283031D01*
X94768005Y-93310184D01*
X94788823Y-93339721D01*
X94804384Y-93375150D01*
X94815409Y-93419975D01*
X94822620Y-93477704D01*
X94826738Y-93551843D01*
X94828487Y-93645899D01*
X94828700Y-93708005D01*
X94828700Y-93959700D01*
X94703957Y-93959700D01*
X94699503Y-93702525D01*
X94697555Y-93610566D01*
X94695114Y-93540448D01*
X94691874Y-93488615D01*
X94687528Y-93451507D01*
X94681770Y-93425567D01*
X94674294Y-93407237D01*
X94674057Y-93406800D01*
X94640114Y-93365452D01*
X94590854Y-93340002D01*
X94524234Y-93329782D01*
X94448928Y-93332925D01*
X94371500Y-93341018D01*
X94371500Y-93959700D01*
X94244500Y-93959700D01*
X94244500Y-93248983D01*
X94273075Y-93242508D01*
X94406490Y-93218772D01*
X94521289Y-93212263D01*
X94617522Y-93222985D01*
G37*
X94617522Y-93222985D02*
X94695244Y-93250942D01*
X94741206Y-93283031D01*
X94768005Y-93310184D01*
X94788823Y-93339721D01*
X94804384Y-93375150D01*
X94815409Y-93419975D01*
X94822620Y-93477704D01*
X94826738Y-93551843D01*
X94828487Y-93645899D01*
X94828700Y-93708005D01*
X94828700Y-93959700D01*
X94703957Y-93959700D01*
X94699503Y-93702525D01*
X94697555Y-93610566D01*
X94695114Y-93540448D01*
X94691874Y-93488615D01*
X94687528Y-93451507D01*
X94681770Y-93425567D01*
X94674294Y-93407237D01*
X94674057Y-93406800D01*
X94640114Y-93365452D01*
X94590854Y-93340002D01*
X94524234Y-93329782D01*
X94448928Y-93332925D01*
X94371500Y-93341018D01*
X94371500Y-93959700D01*
X94244500Y-93959700D01*
X94244500Y-93248983D01*
X94273075Y-93242508D01*
X94406490Y-93218772D01*
X94521289Y-93212263D01*
X94617522Y-93222985D01*
G36*
X93200119Y-93594575D02*
G01*
X93203489Y-93959700D01*
X93063010Y-93959700D01*
X93069750Y-93229450D01*
X93196750Y-93229450D01*
X93200119Y-93594575D01*
G37*
X93200119Y-93594575D02*
X93203489Y-93959700D01*
X93063010Y-93959700D01*
X93069750Y-93229450D01*
X93196750Y-93229450D01*
X93200119Y-93594575D01*
G36*
X101614225Y-93218377D02*
G01*
X101653422Y-93224253D01*
X101687258Y-93236884D01*
X101713473Y-93251154D01*
X101766883Y-93290918D01*
X101806563Y-93341213D01*
X101834523Y-93406025D01*
X101852771Y-93489339D01*
X101858942Y-93539791D01*
X101867781Y-93629500D01*
X101354481Y-93629500D01*
X101362957Y-93670775D01*
X101384144Y-93735591D01*
X101417143Y-93791714D01*
X101450377Y-93825630D01*
X101469961Y-93837784D01*
X101493274Y-93845406D01*
X101526325Y-93849407D01*
X101575121Y-93850700D01*
X101614606Y-93850553D01*
X101671885Y-93849554D01*
X101721589Y-93847831D01*
X101756930Y-93845663D01*
X101768726Y-93844203D01*
X101786015Y-93845445D01*
X101796260Y-93862194D01*
X101801816Y-93887686D01*
X101805333Y-93920292D01*
X101798738Y-93937753D01*
X101778263Y-93949519D01*
X101776940Y-93950072D01*
X101750511Y-93956321D01*
X101705815Y-93962139D01*
X101649981Y-93966728D01*
X101610500Y-93968696D01*
X101548324Y-93970383D01*
X101504375Y-93969434D01*
X101471538Y-93964915D01*
X101442696Y-93955890D01*
X101413650Y-93942842D01*
X101339134Y-93896097D01*
X101284093Y-93836452D01*
X101247453Y-93761948D01*
X101228141Y-93670630D01*
X101224358Y-93597750D01*
X101225507Y-93536489D01*
X101228851Y-93504700D01*
X101363804Y-93504700D01*
X101366127Y-93520594D01*
X101380824Y-93523245D01*
X101416092Y-93525468D01*
X101467103Y-93527067D01*
X101529028Y-93527852D01*
X101549116Y-93527900D01*
X101618904Y-93527754D01*
X101667232Y-93526902D01*
X101698041Y-93524722D01*
X101715271Y-93520592D01*
X101722862Y-93513889D01*
X101724754Y-93503992D01*
X101724800Y-93500159D01*
X101716589Y-93459741D01*
X101695686Y-93413889D01*
X101667685Y-93372396D01*
X101638181Y-93345052D01*
X101635230Y-93343403D01*
X101576561Y-93326383D01*
X101514451Y-93330338D01*
X101456363Y-93353301D01*
X101409756Y-93393307D01*
X101401200Y-93405085D01*
X101383744Y-93438013D01*
X101370396Y-93474125D01*
X101363804Y-93504700D01*
X101228851Y-93504700D01*
X101230252Y-93491391D01*
X101240200Y-93453297D01*
X101256703Y-93413600D01*
X101304859Y-93332203D01*
X101363884Y-93273358D01*
X101435605Y-93235878D01*
X101521851Y-93218577D01*
X101559700Y-93217044D01*
X101614225Y-93218377D01*
G37*
X101614225Y-93218377D02*
X101653422Y-93224253D01*
X101687258Y-93236884D01*
X101713473Y-93251154D01*
X101766883Y-93290918D01*
X101806563Y-93341213D01*
X101834523Y-93406025D01*
X101852771Y-93489339D01*
X101858942Y-93539791D01*
X101867781Y-93629500D01*
X101354481Y-93629500D01*
X101362957Y-93670775D01*
X101384144Y-93735591D01*
X101417143Y-93791714D01*
X101450377Y-93825630D01*
X101469961Y-93837784D01*
X101493274Y-93845406D01*
X101526325Y-93849407D01*
X101575121Y-93850700D01*
X101614606Y-93850553D01*
X101671885Y-93849554D01*
X101721589Y-93847831D01*
X101756930Y-93845663D01*
X101768726Y-93844203D01*
X101786015Y-93845445D01*
X101796260Y-93862194D01*
X101801816Y-93887686D01*
X101805333Y-93920292D01*
X101798738Y-93937753D01*
X101778263Y-93949519D01*
X101776940Y-93950072D01*
X101750511Y-93956321D01*
X101705815Y-93962139D01*
X101649981Y-93966728D01*
X101610500Y-93968696D01*
X101548324Y-93970383D01*
X101504375Y-93969434D01*
X101471538Y-93964915D01*
X101442696Y-93955890D01*
X101413650Y-93942842D01*
X101339134Y-93896097D01*
X101284093Y-93836452D01*
X101247453Y-93761948D01*
X101228141Y-93670630D01*
X101224358Y-93597750D01*
X101225507Y-93536489D01*
X101228851Y-93504700D01*
X101363804Y-93504700D01*
X101366127Y-93520594D01*
X101380824Y-93523245D01*
X101416092Y-93525468D01*
X101467103Y-93527067D01*
X101529028Y-93527852D01*
X101549116Y-93527900D01*
X101618904Y-93527754D01*
X101667232Y-93526902D01*
X101698041Y-93524722D01*
X101715271Y-93520592D01*
X101722862Y-93513889D01*
X101724754Y-93503992D01*
X101724800Y-93500159D01*
X101716589Y-93459741D01*
X101695686Y-93413889D01*
X101667685Y-93372396D01*
X101638181Y-93345052D01*
X101635230Y-93343403D01*
X101576561Y-93326383D01*
X101514451Y-93330338D01*
X101456363Y-93353301D01*
X101409756Y-93393307D01*
X101401200Y-93405085D01*
X101383744Y-93438013D01*
X101370396Y-93474125D01*
X101363804Y-93504700D01*
X101228851Y-93504700D01*
X101230252Y-93491391D01*
X101240200Y-93453297D01*
X101256703Y-93413600D01*
X101304859Y-93332203D01*
X101363884Y-93273358D01*
X101435605Y-93235878D01*
X101521851Y-93218577D01*
X101559700Y-93217044D01*
X101614225Y-93218377D01*
G36*
X99213358Y-93221027D02*
G01*
X99279204Y-93233206D01*
X99329625Y-93256267D01*
X99369057Y-93291957D01*
X99389895Y-93321130D01*
X99399555Y-93337711D01*
X99406939Y-93354741D01*
X99412412Y-93375847D01*
X99416341Y-93404658D01*
X99419093Y-93444802D01*
X99421034Y-93499907D01*
X99422531Y-93573601D01*
X99423767Y-93656392D01*
X99424944Y-93749236D01*
X99425401Y-93819852D01*
X99424936Y-93871407D01*
X99423343Y-93907069D01*
X99420421Y-93930003D01*
X99415965Y-93943379D01*
X99409773Y-93950361D01*
X99404717Y-93952973D01*
X99383730Y-93956897D01*
X99342981Y-93960905D01*
X99288104Y-93964555D01*
X99224732Y-93967407D01*
X99216550Y-93967684D01*
X99138288Y-93969304D01*
X99080348Y-93968097D01*
X99037776Y-93963754D01*
X99005618Y-93955966D01*
X99000650Y-93954210D01*
X98941043Y-93920024D01*
X98896526Y-93870418D01*
X98868512Y-93810609D01*
X98858419Y-93745811D01*
X98858591Y-93744606D01*
X98994300Y-93744606D01*
X99000512Y-93784962D01*
X99015742Y-93818213D01*
X99016830Y-93819610D01*
X99050831Y-93844395D01*
X99102481Y-93861426D01*
X99164882Y-93869472D01*
X99231133Y-93867305D01*
X99259412Y-93862862D01*
X99299100Y-93854925D01*
X99299100Y-93632997D01*
X99232425Y-93625587D01*
X99150872Y-93623395D01*
X99084155Y-93635720D01*
X99034410Y-93661497D01*
X99003774Y-93699658D01*
X98994300Y-93744606D01*
X98858591Y-93744606D01*
X98867663Y-93681242D01*
X98897658Y-93622118D01*
X98907281Y-93610247D01*
X98954417Y-93569214D01*
X99013646Y-93541773D01*
X99088743Y-93526721D01*
X99181625Y-93522835D01*
X99299100Y-93524121D01*
X99299100Y-93480930D01*
X99288170Y-93420948D01*
X99257779Y-93371288D01*
X99220143Y-93342324D01*
X99190052Y-93330919D01*
X99152556Y-93326153D01*
X99099839Y-93327220D01*
X99083833Y-93328270D01*
X99034493Y-93332664D01*
X98993383Y-93337893D01*
X98968596Y-93342904D01*
X98967136Y-93343427D01*
X98953338Y-93344104D01*
X98945477Y-93328657D01*
X98941272Y-93298771D01*
X98939906Y-93264023D01*
X98946982Y-93245245D01*
X98966181Y-93233460D01*
X98968436Y-93232515D01*
X98994800Y-93226664D01*
X99039210Y-93221847D01*
X99094312Y-93218737D01*
X99127650Y-93217985D01*
X99213358Y-93221027D01*
G37*
X99213358Y-93221027D02*
X99279204Y-93233206D01*
X99329625Y-93256267D01*
X99369057Y-93291957D01*
X99389895Y-93321130D01*
X99399555Y-93337711D01*
X99406939Y-93354741D01*
X99412412Y-93375847D01*
X99416341Y-93404658D01*
X99419093Y-93444802D01*
X99421034Y-93499907D01*
X99422531Y-93573601D01*
X99423767Y-93656392D01*
X99424944Y-93749236D01*
X99425401Y-93819852D01*
X99424936Y-93871407D01*
X99423343Y-93907069D01*
X99420421Y-93930003D01*
X99415965Y-93943379D01*
X99409773Y-93950361D01*
X99404717Y-93952973D01*
X99383730Y-93956897D01*
X99342981Y-93960905D01*
X99288104Y-93964555D01*
X99224732Y-93967407D01*
X99216550Y-93967684D01*
X99138288Y-93969304D01*
X99080348Y-93968097D01*
X99037776Y-93963754D01*
X99005618Y-93955966D01*
X99000650Y-93954210D01*
X98941043Y-93920024D01*
X98896526Y-93870418D01*
X98868512Y-93810609D01*
X98858419Y-93745811D01*
X98858591Y-93744606D01*
X98994300Y-93744606D01*
X99000512Y-93784962D01*
X99015742Y-93818213D01*
X99016830Y-93819610D01*
X99050831Y-93844395D01*
X99102481Y-93861426D01*
X99164882Y-93869472D01*
X99231133Y-93867305D01*
X99259412Y-93862862D01*
X99299100Y-93854925D01*
X99299100Y-93632997D01*
X99232425Y-93625587D01*
X99150872Y-93623395D01*
X99084155Y-93635720D01*
X99034410Y-93661497D01*
X99003774Y-93699658D01*
X98994300Y-93744606D01*
X98858591Y-93744606D01*
X98867663Y-93681242D01*
X98897658Y-93622118D01*
X98907281Y-93610247D01*
X98954417Y-93569214D01*
X99013646Y-93541773D01*
X99088743Y-93526721D01*
X99181625Y-93522835D01*
X99299100Y-93524121D01*
X99299100Y-93480930D01*
X99288170Y-93420948D01*
X99257779Y-93371288D01*
X99220143Y-93342324D01*
X99190052Y-93330919D01*
X99152556Y-93326153D01*
X99099839Y-93327220D01*
X99083833Y-93328270D01*
X99034493Y-93332664D01*
X98993383Y-93337893D01*
X98968596Y-93342904D01*
X98967136Y-93343427D01*
X98953338Y-93344104D01*
X98945477Y-93328657D01*
X98941272Y-93298771D01*
X98939906Y-93264023D01*
X98946982Y-93245245D01*
X98966181Y-93233460D01*
X98968436Y-93232515D01*
X98994800Y-93226664D01*
X99039210Y-93221847D01*
X99094312Y-93218737D01*
X99127650Y-93217985D01*
X99213358Y-93221027D01*
G36*
X95501800Y-93257257D02*
G01*
X95574825Y-93232472D01*
X95663272Y-93214201D01*
X95750586Y-93218025D01*
X95831937Y-93242901D01*
X95902493Y-93287787D01*
X95923394Y-93307661D01*
X95967884Y-93366409D01*
X95997037Y-93434821D01*
X96012412Y-93517700D01*
X96015839Y-93592297D01*
X96015238Y-93651847D01*
X96011994Y-93694377D01*
X96004494Y-93728245D01*
X95991123Y-93761811D01*
X95977918Y-93788602D01*
X95930678Y-93859225D01*
X95870514Y-93915636D01*
X95803023Y-93952914D01*
X95784054Y-93959120D01*
X95743611Y-93965751D01*
X95685700Y-93969502D01*
X95618085Y-93970423D01*
X95548529Y-93968566D01*
X95484794Y-93963983D01*
X95435125Y-93956824D01*
X95374800Y-93944252D01*
X95374800Y-93387826D01*
X95501800Y-93387826D01*
X95501800Y-93615554D01*
X95502285Y-93702912D01*
X95503856Y-93767422D01*
X95506684Y-93811620D01*
X95510941Y-93838043D01*
X95516799Y-93849227D01*
X95517675Y-93849689D01*
X95537526Y-93852948D01*
X95575049Y-93855570D01*
X95622515Y-93857033D01*
X95627684Y-93857097D01*
X95682579Y-93856064D01*
X95721912Y-93850235D01*
X95755362Y-93837622D01*
X95775256Y-93826783D01*
X95818774Y-93794756D01*
X95848617Y-93755300D01*
X95866769Y-93703656D01*
X95875215Y-93635064D01*
X95876450Y-93584103D01*
X95875704Y-93526994D01*
X95872442Y-93487758D01*
X95865122Y-93458887D01*
X95852207Y-93432872D01*
X95842214Y-93417142D01*
X95795852Y-93368575D01*
X95736449Y-93338477D01*
X95669372Y-93327821D01*
X95599992Y-93337575D01*
X95542661Y-93362977D01*
X95501800Y-93387826D01*
X95374800Y-93387826D01*
X95374800Y-92893383D01*
X95403375Y-92887588D01*
X95438487Y-92880354D01*
X95466875Y-92874404D01*
X95501800Y-92867016D01*
X95501800Y-93257257D01*
G37*
X95501800Y-93257257D02*
X95574825Y-93232472D01*
X95663272Y-93214201D01*
X95750586Y-93218025D01*
X95831937Y-93242901D01*
X95902493Y-93287787D01*
X95923394Y-93307661D01*
X95967884Y-93366409D01*
X95997037Y-93434821D01*
X96012412Y-93517700D01*
X96015839Y-93592297D01*
X96015238Y-93651847D01*
X96011994Y-93694377D01*
X96004494Y-93728245D01*
X95991123Y-93761811D01*
X95977918Y-93788602D01*
X95930678Y-93859225D01*
X95870514Y-93915636D01*
X95803023Y-93952914D01*
X95784054Y-93959120D01*
X95743611Y-93965751D01*
X95685700Y-93969502D01*
X95618085Y-93970423D01*
X95548529Y-93968566D01*
X95484794Y-93963983D01*
X95435125Y-93956824D01*
X95374800Y-93944252D01*
X95374800Y-93387826D01*
X95501800Y-93387826D01*
X95501800Y-93615554D01*
X95502285Y-93702912D01*
X95503856Y-93767422D01*
X95506684Y-93811620D01*
X95510941Y-93838043D01*
X95516799Y-93849227D01*
X95517675Y-93849689D01*
X95537526Y-93852948D01*
X95575049Y-93855570D01*
X95622515Y-93857033D01*
X95627684Y-93857097D01*
X95682579Y-93856064D01*
X95721912Y-93850235D01*
X95755362Y-93837622D01*
X95775256Y-93826783D01*
X95818774Y-93794756D01*
X95848617Y-93755300D01*
X95866769Y-93703656D01*
X95875215Y-93635064D01*
X95876450Y-93584103D01*
X95875704Y-93526994D01*
X95872442Y-93487758D01*
X95865122Y-93458887D01*
X95852207Y-93432872D01*
X95842214Y-93417142D01*
X95795852Y-93368575D01*
X95736449Y-93338477D01*
X95669372Y-93327821D01*
X95599992Y-93337575D01*
X95542661Y-93362977D01*
X95501800Y-93387826D01*
X95374800Y-93387826D01*
X95374800Y-92893383D01*
X95403375Y-92887588D01*
X95438487Y-92880354D01*
X95466875Y-92874404D01*
X95501800Y-92867016D01*
X95501800Y-93257257D01*
G36*
X92687132Y-93212373D02*
G01*
X92733202Y-93217529D01*
X92780217Y-93224723D01*
X92821489Y-93232806D01*
X92850328Y-93240634D01*
X92860129Y-93246628D01*
X92856964Y-93263104D01*
X92849184Y-93293854D01*
X92846550Y-93303496D01*
X92835273Y-93334778D01*
X92822725Y-93345393D01*
X92811696Y-93343263D01*
X92788733Y-93337933D01*
X92748975Y-93332470D01*
X92700992Y-93328048D01*
X92700587Y-93328019D01*
X92628258Y-93327178D01*
X92577304Y-93337200D01*
X92545682Y-93359101D01*
X92531353Y-93393899D01*
X92530000Y-93413061D01*
X92532888Y-93442068D01*
X92543897Y-93465925D01*
X92566539Y-93487451D01*
X92604326Y-93509468D01*
X92660773Y-93534795D01*
X92702982Y-93551928D01*
X92783415Y-93589602D01*
X92840759Y-93630614D01*
X92877313Y-93677564D01*
X92895377Y-93733054D01*
X92898300Y-93772836D01*
X92886400Y-93838178D01*
X92851632Y-93893913D01*
X92795389Y-93937949D01*
X92784381Y-93943825D01*
X92752141Y-93957929D01*
X92718779Y-93966449D01*
X92676631Y-93970573D01*
X92618032Y-93971494D01*
X92606684Y-93971423D01*
X92546946Y-93969351D01*
X92490734Y-93964647D01*
X92447093Y-93958168D01*
X92434750Y-93955142D01*
X92403829Y-93943703D01*
X92386918Y-93933285D01*
X92385759Y-93930461D01*
X92389120Y-93912726D01*
X92395022Y-93881358D01*
X92396098Y-93875625D01*
X92403905Y-93845909D01*
X92415515Y-93835749D01*
X92432388Y-93838122D01*
X92507356Y-93855579D01*
X92579793Y-93865252D01*
X92640637Y-93866063D01*
X92654628Y-93864517D01*
X92700116Y-93850852D01*
X92739100Y-93827184D01*
X92764807Y-93798585D01*
X92771300Y-93777101D01*
X92759339Y-93744181D01*
X92725448Y-93708793D01*
X92672616Y-93673396D01*
X92606620Y-93641593D01*
X92523516Y-93602722D01*
X92463250Y-93563515D01*
X92423313Y-93521964D01*
X92401665Y-93477655D01*
X92393507Y-93411104D01*
X92407918Y-93349385D01*
X92442132Y-93295488D01*
X92493386Y-93252404D01*
X92558915Y-93223124D01*
X92635954Y-93210639D01*
X92648697Y-93210400D01*
X92687132Y-93212373D01*
G37*
X92687132Y-93212373D02*
X92733202Y-93217529D01*
X92780217Y-93224723D01*
X92821489Y-93232806D01*
X92850328Y-93240634D01*
X92860129Y-93246628D01*
X92856964Y-93263104D01*
X92849184Y-93293854D01*
X92846550Y-93303496D01*
X92835273Y-93334778D01*
X92822725Y-93345393D01*
X92811696Y-93343263D01*
X92788733Y-93337933D01*
X92748975Y-93332470D01*
X92700992Y-93328048D01*
X92700587Y-93328019D01*
X92628258Y-93327178D01*
X92577304Y-93337200D01*
X92545682Y-93359101D01*
X92531353Y-93393899D01*
X92530000Y-93413061D01*
X92532888Y-93442068D01*
X92543897Y-93465925D01*
X92566539Y-93487451D01*
X92604326Y-93509468D01*
X92660773Y-93534795D01*
X92702982Y-93551928D01*
X92783415Y-93589602D01*
X92840759Y-93630614D01*
X92877313Y-93677564D01*
X92895377Y-93733054D01*
X92898300Y-93772836D01*
X92886400Y-93838178D01*
X92851632Y-93893913D01*
X92795389Y-93937949D01*
X92784381Y-93943825D01*
X92752141Y-93957929D01*
X92718779Y-93966449D01*
X92676631Y-93970573D01*
X92618032Y-93971494D01*
X92606684Y-93971423D01*
X92546946Y-93969351D01*
X92490734Y-93964647D01*
X92447093Y-93958168D01*
X92434750Y-93955142D01*
X92403829Y-93943703D01*
X92386918Y-93933285D01*
X92385759Y-93930461D01*
X92389120Y-93912726D01*
X92395022Y-93881358D01*
X92396098Y-93875625D01*
X92403905Y-93845909D01*
X92415515Y-93835749D01*
X92432388Y-93838122D01*
X92507356Y-93855579D01*
X92579793Y-93865252D01*
X92640637Y-93866063D01*
X92654628Y-93864517D01*
X92700116Y-93850852D01*
X92739100Y-93827184D01*
X92764807Y-93798585D01*
X92771300Y-93777101D01*
X92759339Y-93744181D01*
X92725448Y-93708793D01*
X92672616Y-93673396D01*
X92606620Y-93641593D01*
X92523516Y-93602722D01*
X92463250Y-93563515D01*
X92423313Y-93521964D01*
X92401665Y-93477655D01*
X92393507Y-93411104D01*
X92407918Y-93349385D01*
X92442132Y-93295488D01*
X92493386Y-93252404D01*
X92558915Y-93223124D01*
X92635954Y-93210639D01*
X92648697Y-93210400D01*
X92687132Y-93212373D01*
G36*
X92002363Y-93215743D02*
G01*
X92080084Y-93239023D01*
X92144513Y-93283017D01*
X92194505Y-93346633D01*
X92228916Y-93428783D01*
X92246602Y-93528376D01*
X92246950Y-93532775D01*
X92254266Y-93629500D01*
X91743235Y-93629500D01*
X91751100Y-93670775D01*
X91774420Y-93743070D01*
X91812582Y-93799312D01*
X91856564Y-93832529D01*
X91903084Y-93847728D01*
X91964644Y-93856551D01*
X92031600Y-93858603D01*
X92094306Y-93853490D01*
X92135053Y-93843931D01*
X92163599Y-93835606D01*
X92179530Y-93834026D01*
X92180142Y-93834406D01*
X92184004Y-93848831D01*
X92188078Y-93878909D01*
X92189019Y-93888576D01*
X92189983Y-93921450D01*
X92181007Y-93939170D01*
X92156032Y-93951683D01*
X92149000Y-93954285D01*
X92108138Y-93963289D01*
X92050694Y-93968655D01*
X91985225Y-93970365D01*
X91920289Y-93968405D01*
X91864443Y-93962757D01*
X91830040Y-93954878D01*
X91749931Y-93914517D01*
X91688461Y-93857225D01*
X91645485Y-93782770D01*
X91620863Y-93690916D01*
X91614258Y-93600203D01*
X91619306Y-93527900D01*
X91751976Y-93527900D01*
X92110900Y-93527900D01*
X92110900Y-93494894D01*
X92100548Y-93443255D01*
X92073676Y-93392357D01*
X92036555Y-93353450D01*
X92029366Y-93348648D01*
X91971579Y-93326767D01*
X91912165Y-93326950D01*
X91856078Y-93346726D01*
X91808271Y-93383626D01*
X91773698Y-93435181D01*
X91759209Y-93483329D01*
X91751976Y-93527900D01*
X91619306Y-93527900D01*
X91621185Y-93501005D01*
X91643391Y-93418566D01*
X91682291Y-93348366D01*
X91699941Y-93326048D01*
X91767228Y-93265628D01*
X91846215Y-93227732D01*
X91912495Y-93214266D01*
X92002363Y-93215743D01*
G37*
X92002363Y-93215743D02*
X92080084Y-93239023D01*
X92144513Y-93283017D01*
X92194505Y-93346633D01*
X92228916Y-93428783D01*
X92246602Y-93528376D01*
X92246950Y-93532775D01*
X92254266Y-93629500D01*
X91743235Y-93629500D01*
X91751100Y-93670775D01*
X91774420Y-93743070D01*
X91812582Y-93799312D01*
X91856564Y-93832529D01*
X91903084Y-93847728D01*
X91964644Y-93856551D01*
X92031600Y-93858603D01*
X92094306Y-93853490D01*
X92135053Y-93843931D01*
X92163599Y-93835606D01*
X92179530Y-93834026D01*
X92180142Y-93834406D01*
X92184004Y-93848831D01*
X92188078Y-93878909D01*
X92189019Y-93888576D01*
X92189983Y-93921450D01*
X92181007Y-93939170D01*
X92156032Y-93951683D01*
X92149000Y-93954285D01*
X92108138Y-93963289D01*
X92050694Y-93968655D01*
X91985225Y-93970365D01*
X91920289Y-93968405D01*
X91864443Y-93962757D01*
X91830040Y-93954878D01*
X91749931Y-93914517D01*
X91688461Y-93857225D01*
X91645485Y-93782770D01*
X91620863Y-93690916D01*
X91614258Y-93600203D01*
X91619306Y-93527900D01*
X91751976Y-93527900D01*
X92110900Y-93527900D01*
X92110900Y-93494894D01*
X92100548Y-93443255D01*
X92073676Y-93392357D01*
X92036555Y-93353450D01*
X92029366Y-93348648D01*
X91971579Y-93326767D01*
X91912165Y-93326950D01*
X91856078Y-93346726D01*
X91808271Y-93383626D01*
X91773698Y-93435181D01*
X91759209Y-93483329D01*
X91751976Y-93527900D01*
X91619306Y-93527900D01*
X91621185Y-93501005D01*
X91643391Y-93418566D01*
X91682291Y-93348366D01*
X91699941Y-93326048D01*
X91767228Y-93265628D01*
X91846215Y-93227732D01*
X91912495Y-93214266D01*
X92002363Y-93215743D01*
G36*
X90971714Y-92983304D02*
G01*
X91035604Y-92987649D01*
X91083203Y-92994073D01*
X91089821Y-92995529D01*
X91158984Y-93018340D01*
X91229096Y-93051768D01*
X91291538Y-93091068D01*
X91337687Y-93131492D01*
X91338538Y-93132453D01*
X91366674Y-93170267D01*
X91395899Y-93218336D01*
X91411115Y-93247920D01*
X91425154Y-93280029D01*
X91434549Y-93309528D01*
X91440210Y-93342754D01*
X91443046Y-93386045D01*
X91443968Y-93445740D01*
X91444002Y-93477100D01*
X91443537Y-93544963D01*
X91441645Y-93593743D01*
X91437362Y-93629752D01*
X91429724Y-93659303D01*
X91417766Y-93688708D01*
X91408799Y-93707514D01*
X91352766Y-93794365D01*
X91278378Y-93864188D01*
X91186409Y-93916671D01*
X91077631Y-93951500D01*
X90952815Y-93968361D01*
X90812734Y-93966941D01*
X90777400Y-93963892D01*
X90732437Y-93958566D01*
X90691675Y-93952649D01*
X90650400Y-93945849D01*
X90650400Y-93848141D01*
X90790100Y-93848141D01*
X90932975Y-93843027D01*
X91002477Y-93839562D01*
X91052804Y-93834293D01*
X91090169Y-93826191D01*
X91120782Y-93814228D01*
X91127516Y-93810826D01*
X91184377Y-93771525D01*
X91236077Y-93718922D01*
X91274964Y-93661485D01*
X91286955Y-93634334D01*
X91295226Y-93597378D01*
X91301254Y-93544243D01*
X91304073Y-93484118D01*
X91304166Y-93470750D01*
X91296572Y-93369373D01*
X91273440Y-93286376D01*
X91233923Y-93219414D01*
X91200773Y-93184880D01*
X91157357Y-93151509D01*
X91111793Y-93128083D01*
X91057888Y-93112669D01*
X90989450Y-93103331D01*
X90926625Y-93099234D01*
X90790100Y-93092837D01*
X90790100Y-93848141D01*
X90650400Y-93848141D01*
X90650400Y-92997384D01*
X90704926Y-92989207D01*
X90758138Y-92983990D01*
X90825397Y-92981350D01*
X90899117Y-92981163D01*
X90971714Y-92983304D01*
G37*
X90971714Y-92983304D02*
X91035604Y-92987649D01*
X91083203Y-92994073D01*
X91089821Y-92995529D01*
X91158984Y-93018340D01*
X91229096Y-93051768D01*
X91291538Y-93091068D01*
X91337687Y-93131492D01*
X91338538Y-93132453D01*
X91366674Y-93170267D01*
X91395899Y-93218336D01*
X91411115Y-93247920D01*
X91425154Y-93280029D01*
X91434549Y-93309528D01*
X91440210Y-93342754D01*
X91443046Y-93386045D01*
X91443968Y-93445740D01*
X91444002Y-93477100D01*
X91443537Y-93544963D01*
X91441645Y-93593743D01*
X91437362Y-93629752D01*
X91429724Y-93659303D01*
X91417766Y-93688708D01*
X91408799Y-93707514D01*
X91352766Y-93794365D01*
X91278378Y-93864188D01*
X91186409Y-93916671D01*
X91077631Y-93951500D01*
X90952815Y-93968361D01*
X90812734Y-93966941D01*
X90777400Y-93963892D01*
X90732437Y-93958566D01*
X90691675Y-93952649D01*
X90650400Y-93945849D01*
X90650400Y-93848141D01*
X90790100Y-93848141D01*
X90932975Y-93843027D01*
X91002477Y-93839562D01*
X91052804Y-93834293D01*
X91090169Y-93826191D01*
X91120782Y-93814228D01*
X91127516Y-93810826D01*
X91184377Y-93771525D01*
X91236077Y-93718922D01*
X91274964Y-93661485D01*
X91286955Y-93634334D01*
X91295226Y-93597378D01*
X91301254Y-93544243D01*
X91304073Y-93484118D01*
X91304166Y-93470750D01*
X91296572Y-93369373D01*
X91273440Y-93286376D01*
X91233923Y-93219414D01*
X91200773Y-93184880D01*
X91157357Y-93151509D01*
X91111793Y-93128083D01*
X91057888Y-93112669D01*
X90989450Y-93103331D01*
X90926625Y-93099234D01*
X90790100Y-93092837D01*
X90790100Y-93848141D01*
X90650400Y-93848141D01*
X90650400Y-92997384D01*
X90704926Y-92989207D01*
X90758138Y-92983990D01*
X90825397Y-92981350D01*
X90899117Y-92981163D01*
X90971714Y-92983304D01*
G36*
X97816086Y-92971027D02*
G01*
X97878569Y-92974009D01*
X97924182Y-92978797D01*
X97961457Y-92987343D01*
X97998925Y-93001597D01*
X98044793Y-93023353D01*
X98127240Y-93071932D01*
X98197040Y-93132013D01*
X98210835Y-93146493D01*
X98268894Y-93219481D01*
X98308637Y-93295798D01*
X98332751Y-93382176D01*
X98343611Y-93479374D01*
X98341257Y-93585640D01*
X98322928Y-93680902D01*
X98289843Y-93762269D01*
X98243222Y-93826851D01*
X98184286Y-93871755D01*
X98176328Y-93875739D01*
X98130154Y-93889970D01*
X98076530Y-93895457D01*
X98025350Y-93892124D01*
X97986506Y-93879896D01*
X97982237Y-93877208D01*
X97964888Y-93867636D01*
X97944929Y-93864987D01*
X97914937Y-93869448D01*
X97872158Y-93879976D01*
X97779933Y-93893033D01*
X97695995Y-93883227D01*
X97622771Y-93852282D01*
X97562689Y-93801922D01*
X97518176Y-93733873D01*
X97491658Y-93649858D01*
X97486129Y-93605724D01*
X97486907Y-93572350D01*
X97617395Y-93572350D01*
X97626871Y-93652615D01*
X97652810Y-93713742D01*
X97695044Y-93755535D01*
X97753401Y-93777797D01*
X97799037Y-93781705D01*
X97841368Y-93779855D01*
X97874323Y-93775303D01*
X97886558Y-93771224D01*
X97892949Y-93760533D01*
X97897223Y-93736022D01*
X97899555Y-93694739D01*
X97900124Y-93633731D01*
X97899258Y-93558694D01*
X97895750Y-93356450D01*
X97825424Y-93352721D01*
X97754028Y-93359715D01*
X97695632Y-93387547D01*
X97652138Y-93434211D01*
X97625447Y-93497697D01*
X97617395Y-93572350D01*
X97486907Y-93572350D01*
X97488428Y-93507113D01*
X97510788Y-93423431D01*
X97553783Y-93353316D01*
X97616700Y-93296307D01*
X97683836Y-93263206D01*
X97767344Y-93247224D01*
X97868524Y-93248138D01*
X97887787Y-93249981D01*
X97936312Y-93254660D01*
X97972327Y-93259157D01*
X97997679Y-93266920D01*
X98014216Y-93281393D01*
X98023786Y-93306025D01*
X98028238Y-93344262D01*
X98029420Y-93399551D01*
X98029180Y-93475339D01*
X98029100Y-93513515D01*
X98029388Y-93602588D01*
X98030768Y-93669440D01*
X98034005Y-93717248D01*
X98039870Y-93749189D01*
X98049130Y-93768439D01*
X98062553Y-93778177D01*
X98080909Y-93781578D01*
X98094011Y-93781900D01*
X98134656Y-93769895D01*
X98169121Y-93735703D01*
X98196141Y-93682053D01*
X98214454Y-93611678D01*
X98222797Y-93527308D01*
X98223177Y-93502500D01*
X98212454Y-93394046D01*
X98180715Y-93299736D01*
X98128094Y-93219791D01*
X98054721Y-93154432D01*
X97993908Y-93118858D01*
X97952447Y-93099402D01*
X97918375Y-93087132D01*
X97883371Y-93080411D01*
X97839113Y-93077597D01*
X97781717Y-93077050D01*
X97719658Y-93077849D01*
X97674606Y-93081239D01*
X97638189Y-93088703D01*
X97602038Y-93101726D01*
X97575107Y-93113694D01*
X97487649Y-93167807D01*
X97415176Y-93241606D01*
X97359911Y-93332819D01*
X97359004Y-93334790D01*
X97336511Y-93403461D01*
X97322571Y-93487332D01*
X97317687Y-93577512D01*
X97322359Y-93665112D01*
X97336248Y-93738346D01*
X97376614Y-93837333D01*
X97435605Y-93920323D01*
X97511287Y-93986233D01*
X97601723Y-94033980D01*
X97704978Y-94062481D01*
X97819116Y-94070652D01*
X97914800Y-94062162D01*
X97959787Y-94055683D01*
X97993503Y-94051775D01*
X98009516Y-94051164D01*
X98009985Y-94051390D01*
X98013563Y-94065003D01*
X98018807Y-94094080D01*
X98019955Y-94101354D01*
X98022546Y-94133134D01*
X98015068Y-94149000D01*
X97999528Y-94156021D01*
X97967820Y-94161511D01*
X97917995Y-94165754D01*
X97857314Y-94168593D01*
X97793037Y-94169869D01*
X97732423Y-94169425D01*
X97682733Y-94167103D01*
X97654450Y-94163522D01*
X97532616Y-94126331D01*
X97428690Y-94071404D01*
X97343087Y-93999143D01*
X97276221Y-93909948D01*
X97228507Y-93804221D01*
X97209225Y-93732928D01*
X97192255Y-93602462D01*
X97196823Y-93477365D01*
X97222027Y-93360203D01*
X97266964Y-93253544D01*
X97330729Y-93159954D01*
X97412420Y-93081999D01*
X97446823Y-93057752D01*
X97526573Y-93014325D01*
X97610181Y-92986373D01*
X97703961Y-92972411D01*
X97814223Y-92970959D01*
X97816086Y-92971027D01*
G37*
X97816086Y-92971027D02*
X97878569Y-92974009D01*
X97924182Y-92978797D01*
X97961457Y-92987343D01*
X97998925Y-93001597D01*
X98044793Y-93023353D01*
X98127240Y-93071932D01*
X98197040Y-93132013D01*
X98210835Y-93146493D01*
X98268894Y-93219481D01*
X98308637Y-93295798D01*
X98332751Y-93382176D01*
X98343611Y-93479374D01*
X98341257Y-93585640D01*
X98322928Y-93680902D01*
X98289843Y-93762269D01*
X98243222Y-93826851D01*
X98184286Y-93871755D01*
X98176328Y-93875739D01*
X98130154Y-93889970D01*
X98076530Y-93895457D01*
X98025350Y-93892124D01*
X97986506Y-93879896D01*
X97982237Y-93877208D01*
X97964888Y-93867636D01*
X97944929Y-93864987D01*
X97914937Y-93869448D01*
X97872158Y-93879976D01*
X97779933Y-93893033D01*
X97695995Y-93883227D01*
X97622771Y-93852282D01*
X97562689Y-93801922D01*
X97518176Y-93733873D01*
X97491658Y-93649858D01*
X97486129Y-93605724D01*
X97486907Y-93572350D01*
X97617395Y-93572350D01*
X97626871Y-93652615D01*
X97652810Y-93713742D01*
X97695044Y-93755535D01*
X97753401Y-93777797D01*
X97799037Y-93781705D01*
X97841368Y-93779855D01*
X97874323Y-93775303D01*
X97886558Y-93771224D01*
X97892949Y-93760533D01*
X97897223Y-93736022D01*
X97899555Y-93694739D01*
X97900124Y-93633731D01*
X97899258Y-93558694D01*
X97895750Y-93356450D01*
X97825424Y-93352721D01*
X97754028Y-93359715D01*
X97695632Y-93387547D01*
X97652138Y-93434211D01*
X97625447Y-93497697D01*
X97617395Y-93572350D01*
X97486907Y-93572350D01*
X97488428Y-93507113D01*
X97510788Y-93423431D01*
X97553783Y-93353316D01*
X97616700Y-93296307D01*
X97683836Y-93263206D01*
X97767344Y-93247224D01*
X97868524Y-93248138D01*
X97887787Y-93249981D01*
X97936312Y-93254660D01*
X97972327Y-93259157D01*
X97997679Y-93266920D01*
X98014216Y-93281393D01*
X98023786Y-93306025D01*
X98028238Y-93344262D01*
X98029420Y-93399551D01*
X98029180Y-93475339D01*
X98029100Y-93513515D01*
X98029388Y-93602588D01*
X98030768Y-93669440D01*
X98034005Y-93717248D01*
X98039870Y-93749189D01*
X98049130Y-93768439D01*
X98062553Y-93778177D01*
X98080909Y-93781578D01*
X98094011Y-93781900D01*
X98134656Y-93769895D01*
X98169121Y-93735703D01*
X98196141Y-93682053D01*
X98214454Y-93611678D01*
X98222797Y-93527308D01*
X98223177Y-93502500D01*
X98212454Y-93394046D01*
X98180715Y-93299736D01*
X98128094Y-93219791D01*
X98054721Y-93154432D01*
X97993908Y-93118858D01*
X97952447Y-93099402D01*
X97918375Y-93087132D01*
X97883371Y-93080411D01*
X97839113Y-93077597D01*
X97781717Y-93077050D01*
X97719658Y-93077849D01*
X97674606Y-93081239D01*
X97638189Y-93088703D01*
X97602038Y-93101726D01*
X97575107Y-93113694D01*
X97487649Y-93167807D01*
X97415176Y-93241606D01*
X97359911Y-93332819D01*
X97359004Y-93334790D01*
X97336511Y-93403461D01*
X97322571Y-93487332D01*
X97317687Y-93577512D01*
X97322359Y-93665112D01*
X97336248Y-93738346D01*
X97376614Y-93837333D01*
X97435605Y-93920323D01*
X97511287Y-93986233D01*
X97601723Y-94033980D01*
X97704978Y-94062481D01*
X97819116Y-94070652D01*
X97914800Y-94062162D01*
X97959787Y-94055683D01*
X97993503Y-94051775D01*
X98009516Y-94051164D01*
X98009985Y-94051390D01*
X98013563Y-94065003D01*
X98018807Y-94094080D01*
X98019955Y-94101354D01*
X98022546Y-94133134D01*
X98015068Y-94149000D01*
X97999528Y-94156021D01*
X97967820Y-94161511D01*
X97917995Y-94165754D01*
X97857314Y-94168593D01*
X97793037Y-94169869D01*
X97732423Y-94169425D01*
X97682733Y-94167103D01*
X97654450Y-94163522D01*
X97532616Y-94126331D01*
X97428690Y-94071404D01*
X97343087Y-93999143D01*
X97276221Y-93909948D01*
X97228507Y-93804221D01*
X97209225Y-93732928D01*
X97192255Y-93602462D01*
X97196823Y-93477365D01*
X97222027Y-93360203D01*
X97266964Y-93253544D01*
X97330729Y-93159954D01*
X97412420Y-93081999D01*
X97446823Y-93057752D01*
X97526573Y-93014325D01*
X97610181Y-92986373D01*
X97703961Y-92972411D01*
X97814223Y-92970959D01*
X97816086Y-92971027D01*
G36*
X98683150Y-93616800D02*
G01*
X98682825Y-93715871D01*
X98681908Y-93808726D01*
X98680481Y-93891765D01*
X98678627Y-93961388D01*
X98676430Y-94013996D01*
X98673971Y-94045989D01*
X98673119Y-94051401D01*
X98647958Y-94112553D01*
X98603608Y-94163120D01*
X98545024Y-94200395D01*
X98477167Y-94221667D01*
X98404992Y-94224230D01*
X98368825Y-94217645D01*
X98352888Y-94209338D01*
X98347353Y-94191465D01*
X98350968Y-94157702D01*
X98353905Y-94142246D01*
X98360557Y-94119474D01*
X98373573Y-94109788D01*
X98400967Y-94108989D01*
X98415396Y-94110028D01*
X98457601Y-94109180D01*
X98489721Y-94095609D01*
X98506515Y-94082585D01*
X98543450Y-94050833D01*
X98549800Y-93640141D01*
X98556150Y-93229450D01*
X98683150Y-93229450D01*
X98683150Y-93616800D01*
G37*
X98683150Y-93616800D02*
X98682825Y-93715871D01*
X98681908Y-93808726D01*
X98680481Y-93891765D01*
X98678627Y-93961388D01*
X98676430Y-94013996D01*
X98673971Y-94045989D01*
X98673119Y-94051401D01*
X98647958Y-94112553D01*
X98603608Y-94163120D01*
X98545024Y-94200395D01*
X98477167Y-94221667D01*
X98404992Y-94224230D01*
X98368825Y-94217645D01*
X98352888Y-94209338D01*
X98347353Y-94191465D01*
X98350968Y-94157702D01*
X98353905Y-94142246D01*
X98360557Y-94119474D01*
X98373573Y-94109788D01*
X98400967Y-94108989D01*
X98415396Y-94110028D01*
X98457601Y-94109180D01*
X98489721Y-94095609D01*
X98506515Y-94082585D01*
X98543450Y-94050833D01*
X98549800Y-93640141D01*
X98556150Y-93229450D01*
X98683150Y-93229450D01*
X98683150Y-93616800D01*
G36*
X96251299Y-93277075D02*
G01*
X96267116Y-93333455D01*
X96288004Y-93400508D01*
X96312362Y-93473840D01*
X96338593Y-93549059D01*
X96365096Y-93621770D01*
X96390273Y-93687582D01*
X96412525Y-93742102D01*
X96430251Y-93780935D01*
X96441393Y-93799247D01*
X96449753Y-93792976D01*
X96463243Y-93764778D01*
X96480957Y-93717395D01*
X96501989Y-93653573D01*
X96525433Y-93576055D01*
X96550383Y-93487585D01*
X96575001Y-93394550D01*
X96617340Y-93229450D01*
X96681870Y-93225611D01*
X96722303Y-93225124D01*
X96742237Y-93230496D01*
X96746400Y-93239313D01*
X96742598Y-93262310D01*
X96732065Y-93305069D01*
X96716113Y-93363257D01*
X96696050Y-93432542D01*
X96673187Y-93508593D01*
X96648834Y-93587076D01*
X96624302Y-93663660D01*
X96600899Y-93734013D01*
X96579937Y-93793803D01*
X96573240Y-93811909D01*
X96523901Y-93933965D01*
X96475962Y-94032430D01*
X96427606Y-94108911D01*
X96377019Y-94165011D01*
X96322384Y-94202337D01*
X96261887Y-94222493D01*
X96193710Y-94227085D01*
X96116040Y-94217717D01*
X96114575Y-94217437D01*
X96092064Y-94203281D01*
X96085957Y-94171765D01*
X96093174Y-94131150D01*
X96099516Y-94117963D01*
X96113516Y-94110297D01*
X96140879Y-94106709D01*
X96187310Y-94105756D01*
X96193577Y-94105750D01*
X96244239Y-94104702D01*
X96277297Y-94100272D01*
X96300505Y-94090530D01*
X96321133Y-94074000D01*
X96350157Y-94041731D01*
X96372891Y-94008072D01*
X96373198Y-94007488D01*
X96381577Y-93987917D01*
X96382708Y-93968984D01*
X96375173Y-93943866D01*
X96357553Y-93905741D01*
X96348127Y-93886838D01*
X96303917Y-93793899D01*
X96258561Y-93689758D01*
X96214463Y-93580672D01*
X96174027Y-93472898D01*
X96139657Y-93372691D01*
X96113756Y-93286308D01*
X96106543Y-93258025D01*
X96102842Y-93238035D01*
X96107737Y-93227646D01*
X96126741Y-93223715D01*
X96165365Y-93223100D01*
X96237420Y-93223100D01*
X96251299Y-93277075D01*
G37*
X96251299Y-93277075D02*
X96267116Y-93333455D01*
X96288004Y-93400508D01*
X96312362Y-93473840D01*
X96338593Y-93549059D01*
X96365096Y-93621770D01*
X96390273Y-93687582D01*
X96412525Y-93742102D01*
X96430251Y-93780935D01*
X96441393Y-93799247D01*
X96449753Y-93792976D01*
X96463243Y-93764778D01*
X96480957Y-93717395D01*
X96501989Y-93653573D01*
X96525433Y-93576055D01*
X96550383Y-93487585D01*
X96575001Y-93394550D01*
X96617340Y-93229450D01*
X96681870Y-93225611D01*
X96722303Y-93225124D01*
X96742237Y-93230496D01*
X96746400Y-93239313D01*
X96742598Y-93262310D01*
X96732065Y-93305069D01*
X96716113Y-93363257D01*
X96696050Y-93432542D01*
X96673187Y-93508593D01*
X96648834Y-93587076D01*
X96624302Y-93663660D01*
X96600899Y-93734013D01*
X96579937Y-93793803D01*
X96573240Y-93811909D01*
X96523901Y-93933965D01*
X96475962Y-94032430D01*
X96427606Y-94108911D01*
X96377019Y-94165011D01*
X96322384Y-94202337D01*
X96261887Y-94222493D01*
X96193710Y-94227085D01*
X96116040Y-94217717D01*
X96114575Y-94217437D01*
X96092064Y-94203281D01*
X96085957Y-94171765D01*
X96093174Y-94131150D01*
X96099516Y-94117963D01*
X96113516Y-94110297D01*
X96140879Y-94106709D01*
X96187310Y-94105756D01*
X96193577Y-94105750D01*
X96244239Y-94104702D01*
X96277297Y-94100272D01*
X96300505Y-94090530D01*
X96321133Y-94074000D01*
X96350157Y-94041731D01*
X96372891Y-94008072D01*
X96373198Y-94007488D01*
X96381577Y-93987917D01*
X96382708Y-93968984D01*
X96375173Y-93943866D01*
X96357553Y-93905741D01*
X96348127Y-93886838D01*
X96303917Y-93793899D01*
X96258561Y-93689758D01*
X96214463Y-93580672D01*
X96174027Y-93472898D01*
X96139657Y-93372691D01*
X96113756Y-93286308D01*
X96106543Y-93258025D01*
X96102842Y-93238035D01*
X96107737Y-93227646D01*
X96126741Y-93223715D01*
X96165365Y-93223100D01*
X96237420Y-93223100D01*
X96251299Y-93277075D01*
G36*
X93811858Y-93217273D02*
G01*
X93894413Y-93228973D01*
X94015900Y-93250847D01*
X94015900Y-93598298D01*
X94015363Y-93704662D01*
X94013828Y-93800871D01*
X94011407Y-93883589D01*
X94008215Y-93949477D01*
X94004363Y-93995197D01*
X94001932Y-94010876D01*
X93973834Y-94083620D01*
X93924945Y-94144261D01*
X93858522Y-94188880D01*
X93851379Y-94192160D01*
X93798523Y-94207987D01*
X93729309Y-94218152D01*
X93652236Y-94222211D01*
X93575806Y-94219721D01*
X93508517Y-94210236D01*
X93507900Y-94210100D01*
X93438050Y-94194650D01*
X93440602Y-94139180D01*
X93442945Y-94104666D01*
X93445843Y-94083001D01*
X93446969Y-94079896D01*
X93460271Y-94080735D01*
X93490664Y-94086875D01*
X93520209Y-94094091D01*
X93610586Y-94110292D01*
X93693459Y-94111137D01*
X93764919Y-94097220D01*
X93821061Y-94069138D01*
X93846974Y-94044229D01*
X93861800Y-94017458D01*
X93875033Y-93980784D01*
X93884397Y-93942972D01*
X93887619Y-93912785D01*
X93884371Y-93900138D01*
X93870372Y-93900774D01*
X93840032Y-93908110D01*
X93813377Y-93916232D01*
X93733394Y-93931453D01*
X93650882Y-93928047D01*
X93572560Y-93907457D01*
X93505147Y-93871126D01*
X93473595Y-93843302D01*
X93427201Y-93776071D01*
X93399132Y-93692977D01*
X93389008Y-93592829D01*
X93388988Y-93578700D01*
X93389719Y-93568419D01*
X93520611Y-93568419D01*
X93526080Y-93643202D01*
X93549372Y-93712314D01*
X93582653Y-93760994D01*
X93611303Y-93788052D01*
X93638113Y-93806967D01*
X93641250Y-93808500D01*
X93675266Y-93815510D01*
X93723636Y-93816199D01*
X93776313Y-93811299D01*
X93823248Y-93801544D01*
X93844450Y-93793677D01*
X93882550Y-93775207D01*
X93882550Y-93344452D01*
X93825400Y-93334256D01*
X93749338Y-93328621D01*
X93679339Y-93338304D01*
X93622279Y-93362083D01*
X93607164Y-93373063D01*
X93561551Y-93427047D01*
X93532567Y-93494266D01*
X93520611Y-93568419D01*
X93389719Y-93568419D01*
X93395294Y-93490043D01*
X93414028Y-93418548D01*
X93447509Y-93358074D01*
X93490652Y-93309445D01*
X93554749Y-93260298D01*
X93627623Y-93228957D01*
X93712313Y-93214818D01*
X93811858Y-93217273D01*
G37*
X93811858Y-93217273D02*
X93894413Y-93228973D01*
X94015900Y-93250847D01*
X94015900Y-93598298D01*
X94015363Y-93704662D01*
X94013828Y-93800871D01*
X94011407Y-93883589D01*
X94008215Y-93949477D01*
X94004363Y-93995197D01*
X94001932Y-94010876D01*
X93973834Y-94083620D01*
X93924945Y-94144261D01*
X93858522Y-94188880D01*
X93851379Y-94192160D01*
X93798523Y-94207987D01*
X93729309Y-94218152D01*
X93652236Y-94222211D01*
X93575806Y-94219721D01*
X93508517Y-94210236D01*
X93507900Y-94210100D01*
X93438050Y-94194650D01*
X93440602Y-94139180D01*
X93442945Y-94104666D01*
X93445843Y-94083001D01*
X93446969Y-94079896D01*
X93460271Y-94080735D01*
X93490664Y-94086875D01*
X93520209Y-94094091D01*
X93610586Y-94110292D01*
X93693459Y-94111137D01*
X93764919Y-94097220D01*
X93821061Y-94069138D01*
X93846974Y-94044229D01*
X93861800Y-94017458D01*
X93875033Y-93980784D01*
X93884397Y-93942972D01*
X93887619Y-93912785D01*
X93884371Y-93900138D01*
X93870372Y-93900774D01*
X93840032Y-93908110D01*
X93813377Y-93916232D01*
X93733394Y-93931453D01*
X93650882Y-93928047D01*
X93572560Y-93907457D01*
X93505147Y-93871126D01*
X93473595Y-93843302D01*
X93427201Y-93776071D01*
X93399132Y-93692977D01*
X93389008Y-93592829D01*
X93388988Y-93578700D01*
X93389719Y-93568419D01*
X93520611Y-93568419D01*
X93526080Y-93643202D01*
X93549372Y-93712314D01*
X93582653Y-93760994D01*
X93611303Y-93788052D01*
X93638113Y-93806967D01*
X93641250Y-93808500D01*
X93675266Y-93815510D01*
X93723636Y-93816199D01*
X93776313Y-93811299D01*
X93823248Y-93801544D01*
X93844450Y-93793677D01*
X93882550Y-93775207D01*
X93882550Y-93344452D01*
X93825400Y-93334256D01*
X93749338Y-93328621D01*
X93679339Y-93338304D01*
X93622279Y-93362083D01*
X93607164Y-93373063D01*
X93561551Y-93427047D01*
X93532567Y-93494266D01*
X93520611Y-93568419D01*
X93389719Y-93568419D01*
X93395294Y-93490043D01*
X93414028Y-93418548D01*
X93447509Y-93358074D01*
X93490652Y-93309445D01*
X93554749Y-93260298D01*
X93627623Y-93228957D01*
X93712313Y-93214818D01*
X93811858Y-93217273D01*
D12*
X91300000Y-113850000D02*
X91300000Y-114550000D01*
X96850000Y-119850000D02*
X93350000Y-119850000D01*
X93350000Y-116750000D02*
X96850000Y-116750000D01*
X94150000Y-120500000D02*
X94150000Y-119850000D01*
X96050000Y-120500000D02*
X94150000Y-120500000D01*
X96050000Y-119850000D02*
X96050000Y-120500000D01*
X111650000Y-119850000D02*
X108150000Y-119850000D01*
X108150000Y-116750000D02*
X111650000Y-116750000D01*
X108950000Y-120500000D02*
X108950000Y-119850000D01*
X110850000Y-120500000D02*
X108950000Y-120500000D01*
X110850000Y-119850000D02*
X110850000Y-120500000D01*
X101640000Y-113910000D02*
X101640000Y-115200000D01*
X101190000Y-113910000D02*
X101640000Y-113910000D01*
X101190000Y-113460000D02*
X101190000Y-113910000D01*
X101190000Y-106690000D02*
X101640000Y-106690000D01*
X101190000Y-107140000D02*
X101190000Y-106690000D01*
X108410000Y-113910000D02*
X107960000Y-113910000D01*
X108410000Y-113460000D02*
X108410000Y-113910000D01*
X108410000Y-106690000D02*
X107960000Y-106690000D01*
X108410000Y-107140000D02*
X108410000Y-106690000D01*
X91000000Y-115750000D02*
X91000000Y-115450000D01*
X96150000Y-98650000D02*
X95850000Y-98650000D01*
X93050000Y-97500000D02*
X94050000Y-97500000D01*
X95756066Y-101443934D02*
X95543934Y-101656066D01*
X96193934Y-101006066D02*
X96406066Y-100793934D01*
X90550000Y-103900000D02*
X90550000Y-104200000D01*
X111150000Y-110200000D02*
X110850000Y-110200000D01*
X88900000Y-106650000D02*
X88900000Y-106350000D01*
X87193934Y-108006066D02*
X87406066Y-107793934D01*
X92106066Y-111506066D02*
X91893934Y-111293934D01*
X93143934Y-112156066D02*
X93356066Y-111943934D01*
X93550000Y-115800000D02*
X93250000Y-115800000D01*
X93650000Y-102800000D02*
X93950000Y-102800000D01*
X91000000Y-117550000D02*
X91000000Y-117250000D01*
X92550000Y-115600000D02*
X92250000Y-115600000D01*
X92900000Y-107300000D02*
X92900000Y-107600000D01*
X99750000Y-103750000D02*
X100050000Y-103750000D01*
X102700000Y-95150000D02*
X102700000Y-95450000D01*
X108000000Y-104800000D02*
X108000000Y-104500000D01*
X98850000Y-119100000D02*
X98850000Y-119400000D01*
X101850000Y-103650000D02*
X101850000Y-103950000D01*
X101750000Y-102750000D02*
X101750000Y-103050000D01*
X111100000Y-104900000D02*
X110800000Y-104900000D01*
X109850000Y-104000000D02*
X110150000Y-104000000D01*
X108100000Y-116350000D02*
X108100000Y-116050000D01*
X102000000Y-100150000D02*
X102000000Y-100450000D01*
X102050000Y-101400000D02*
X102050000Y-101100000D01*
X98100000Y-101200000D02*
X98100000Y-100900000D01*
X112300000Y-105250000D02*
X112300000Y-104950000D01*
X87100000Y-106650000D02*
X87100000Y-106350000D01*
X91506066Y-110806066D02*
X91293934Y-110593934D01*
X91000000Y-119350000D02*
X91000000Y-119050000D01*
X86900000Y-110000000D02*
X86600000Y-110000000D01*
X91000000Y-118450000D02*
X91000000Y-118150000D01*
X90350000Y-112300000D02*
X90650000Y-112300000D01*
X100000000Y-105900000D02*
X100700000Y-105900000D01*
X106350000Y-116500000D02*
X106650000Y-116500000D01*
X88400000Y-110100000D02*
X88400000Y-110400000D01*
X99850000Y-101150000D02*
X99850000Y-101450000D01*
X99600000Y-113850000D02*
X99600000Y-114150000D01*
X109450000Y-106500000D02*
X109450000Y-106800000D01*
X98252513Y-111852513D02*
X98747487Y-112347487D01*
X102250000Y-104800000D02*
X102250000Y-104500000D01*
X108400000Y-115050000D02*
X108700000Y-115050000D01*
X97047487Y-114047487D02*
X96552513Y-113552513D01*
X95990000Y-103200000D02*
X95990000Y-105650000D01*
X99210000Y-105000000D02*
X99210000Y-103200000D01*
X112760000Y-108980000D02*
X111300000Y-108980000D01*
X112760000Y-105820000D02*
X110600000Y-105820000D01*
X112760000Y-105820000D02*
X112760000Y-106750000D01*
X112760000Y-108980000D02*
X112760000Y-108050000D01*
X90795980Y-110424407D02*
X92528391Y-108691995D01*
X89791888Y-106874731D02*
X88519096Y-108147523D01*
X92844294Y-110838406D02*
X93692822Y-109989878D01*
X95672721Y-113666833D02*
X92844294Y-110838406D01*
X96238406Y-107444294D02*
X98147595Y-109353482D01*
X95389878Y-108292822D02*
X96238406Y-107444294D01*
X105010000Y-98900000D02*
X105010000Y-96450000D01*
X101790000Y-97100000D02*
X101790000Y-98900000D01*
X93170000Y-102970000D02*
X93170000Y-99200000D01*
X89630000Y-99430000D02*
X89630000Y-102970000D01*
X93170000Y-102970000D02*
X92800000Y-102970000D01*
X89630000Y-102970000D02*
X90000000Y-102970000D01*
X89630000Y-99430000D02*
X90000000Y-99430000D01*
X94380000Y-104590000D02*
X94380000Y-106050000D01*
X91220000Y-104590000D02*
X91220000Y-106750000D01*
X91220000Y-104590000D02*
X92150000Y-104590000D01*
X94380000Y-104590000D02*
X93450000Y-104590000D01*
D11*
X106000000Y-94300000D02*
X106000000Y-93800000D01*
X106000000Y-102800000D02*
X106000000Y-102300000D01*
X108500000Y-102800000D02*
X110500000Y-102800000D01*
X110500000Y-93800000D02*
X108500000Y-93800000D01*
X112500000Y-93800000D02*
X114195000Y-93800000D01*
X114195000Y-102800000D02*
X112500000Y-102800000D01*
X114195000Y-93800000D02*
X114195000Y-102800000D01*
D12*
X89600000Y-98900000D02*
X89600000Y-95050000D01*
X91600000Y-98900000D02*
X91600000Y-95050000D01*
X89600000Y-98900000D02*
X91600000Y-98900000D01*
D10*
X100657142Y-95203571D02*
X100657142Y-95567857D01*
X100678571Y-95610714D01*
X100700000Y-95632142D01*
X100742857Y-95653571D01*
X100828571Y-95653571D01*
X100871428Y-95632142D01*
X100892857Y-95610714D01*
X100914285Y-95567857D01*
X100914285Y-95203571D01*
X101085714Y-95203571D02*
X101364285Y-95203571D01*
X101214285Y-95375000D01*
X101278571Y-95375000D01*
X101321428Y-95396428D01*
X101342857Y-95417857D01*
X101364285Y-95460714D01*
X101364285Y-95567857D01*
X101342857Y-95610714D01*
X101321428Y-95632142D01*
X101278571Y-95653571D01*
X101150000Y-95653571D01*
X101107142Y-95632142D01*
X101085714Y-95610714D01*
X92875000Y-114110714D02*
X92853571Y-114132142D01*
X92789285Y-114153571D01*
X92746428Y-114153571D01*
X92682142Y-114132142D01*
X92639285Y-114089285D01*
X92617857Y-114046428D01*
X92596428Y-113960714D01*
X92596428Y-113896428D01*
X92617857Y-113810714D01*
X92639285Y-113767857D01*
X92682142Y-113725000D01*
X92746428Y-113703571D01*
X92789285Y-113703571D01*
X92853571Y-113725000D01*
X92875000Y-113746428D01*
X93089285Y-114153571D02*
X93175000Y-114153571D01*
X93217857Y-114132142D01*
X93239285Y-114110714D01*
X93282142Y-114046428D01*
X93303571Y-113960714D01*
X93303571Y-113789285D01*
X93282142Y-113746428D01*
X93260714Y-113725000D01*
X93217857Y-113703571D01*
X93132142Y-113703571D01*
X93089285Y-113725000D01*
X93067857Y-113746428D01*
X93046428Y-113789285D01*
X93046428Y-113896428D01*
X93067857Y-113939285D01*
X93089285Y-113960714D01*
X93132142Y-113982142D01*
X93217857Y-113982142D01*
X93260714Y-113960714D01*
X93282142Y-113939285D01*
X93303571Y-113896428D01*
X96600000Y-116482142D02*
X96664285Y-116503571D01*
X96771428Y-116503571D01*
X96814285Y-116482142D01*
X96835714Y-116460714D01*
X96857142Y-116417857D01*
X96857142Y-116375000D01*
X96835714Y-116332142D01*
X96814285Y-116310714D01*
X96771428Y-116289285D01*
X96685714Y-116267857D01*
X96642857Y-116246428D01*
X96621428Y-116225000D01*
X96600000Y-116182142D01*
X96600000Y-116139285D01*
X96621428Y-116096428D01*
X96642857Y-116075000D01*
X96685714Y-116053571D01*
X96792857Y-116053571D01*
X96857142Y-116075000D01*
X97007142Y-116053571D02*
X97114285Y-116503571D01*
X97200000Y-116182142D01*
X97285714Y-116503571D01*
X97392857Y-116053571D01*
X97542857Y-116096428D02*
X97564285Y-116075000D01*
X97607142Y-116053571D01*
X97714285Y-116053571D01*
X97757142Y-116075000D01*
X97778571Y-116096428D01*
X97800000Y-116139285D01*
X97800000Y-116182142D01*
X97778571Y-116246428D01*
X97521428Y-116503571D01*
X97800000Y-116503571D01*
X111400000Y-116482142D02*
X111464285Y-116503571D01*
X111571428Y-116503571D01*
X111614285Y-116482142D01*
X111635714Y-116460714D01*
X111657142Y-116417857D01*
X111657142Y-116375000D01*
X111635714Y-116332142D01*
X111614285Y-116310714D01*
X111571428Y-116289285D01*
X111485714Y-116267857D01*
X111442857Y-116246428D01*
X111421428Y-116225000D01*
X111400000Y-116182142D01*
X111400000Y-116139285D01*
X111421428Y-116096428D01*
X111442857Y-116075000D01*
X111485714Y-116053571D01*
X111592857Y-116053571D01*
X111657142Y-116075000D01*
X111807142Y-116053571D02*
X111914285Y-116503571D01*
X112000000Y-116182142D01*
X112085714Y-116503571D01*
X112192857Y-116053571D01*
X112600000Y-116503571D02*
X112342857Y-116503571D01*
X112471428Y-116503571D02*
X112471428Y-116053571D01*
X112428571Y-116117857D01*
X112385714Y-116160714D01*
X112342857Y-116182142D01*
X100707142Y-114103571D02*
X100707142Y-114467857D01*
X100728571Y-114510714D01*
X100750000Y-114532142D01*
X100792857Y-114553571D01*
X100878571Y-114553571D01*
X100921428Y-114532142D01*
X100942857Y-114510714D01*
X100964285Y-114467857D01*
X100964285Y-114103571D01*
X101371428Y-114253571D02*
X101371428Y-114553571D01*
X101264285Y-114082142D02*
X101157142Y-114403571D01*
X101435714Y-114403571D01*
X91060714Y-115203571D02*
X90910714Y-114989285D01*
X90803571Y-115203571D02*
X90803571Y-114753571D01*
X90975000Y-114753571D01*
X91017857Y-114775000D01*
X91039285Y-114796428D01*
X91060714Y-114839285D01*
X91060714Y-114903571D01*
X91039285Y-114946428D01*
X91017857Y-114967857D01*
X90975000Y-114989285D01*
X90803571Y-114989285D01*
X91232142Y-114796428D02*
X91253571Y-114775000D01*
X91296428Y-114753571D01*
X91403571Y-114753571D01*
X91446428Y-114775000D01*
X91467857Y-114796428D01*
X91489285Y-114839285D01*
X91489285Y-114882142D01*
X91467857Y-114946428D01*
X91210714Y-115203571D01*
X91489285Y-115203571D01*
X91875000Y-114903571D02*
X91875000Y-115203571D01*
X91767857Y-114732142D02*
X91660714Y-115053571D01*
X91939285Y-115053571D01*
X95510714Y-97653571D02*
X95360714Y-97439285D01*
X95253571Y-97653571D02*
X95253571Y-97203571D01*
X95425000Y-97203571D01*
X95467857Y-97225000D01*
X95489285Y-97246428D01*
X95510714Y-97289285D01*
X95510714Y-97353571D01*
X95489285Y-97396428D01*
X95467857Y-97417857D01*
X95425000Y-97439285D01*
X95253571Y-97439285D01*
X95682142Y-97246428D02*
X95703571Y-97225000D01*
X95746428Y-97203571D01*
X95853571Y-97203571D01*
X95896428Y-97225000D01*
X95917857Y-97246428D01*
X95939285Y-97289285D01*
X95939285Y-97332142D01*
X95917857Y-97396428D01*
X95660714Y-97653571D01*
X95939285Y-97653571D01*
X96089285Y-97203571D02*
X96367857Y-97203571D01*
X96217857Y-97375000D01*
X96282142Y-97375000D01*
X96325000Y-97396428D01*
X96346428Y-97417857D01*
X96367857Y-97460714D01*
X96367857Y-97567857D01*
X96346428Y-97610714D01*
X96325000Y-97632142D01*
X96282142Y-97653571D01*
X96153571Y-97653571D01*
X96110714Y-97632142D01*
X96089285Y-97610714D01*
X93260714Y-95953571D02*
X93110714Y-95739285D01*
X93003571Y-95953571D02*
X93003571Y-95503571D01*
X93175000Y-95503571D01*
X93217857Y-95525000D01*
X93239285Y-95546428D01*
X93260714Y-95589285D01*
X93260714Y-95653571D01*
X93239285Y-95696428D01*
X93217857Y-95717857D01*
X93175000Y-95739285D01*
X93003571Y-95739285D01*
X93432142Y-95546428D02*
X93453571Y-95525000D01*
X93496428Y-95503571D01*
X93603571Y-95503571D01*
X93646428Y-95525000D01*
X93667857Y-95546428D01*
X93689285Y-95589285D01*
X93689285Y-95632142D01*
X93667857Y-95696428D01*
X93410714Y-95953571D01*
X93689285Y-95953571D01*
X93860714Y-95546428D02*
X93882142Y-95525000D01*
X93925000Y-95503571D01*
X94032142Y-95503571D01*
X94075000Y-95525000D01*
X94096428Y-95546428D01*
X94117857Y-95589285D01*
X94117857Y-95632142D01*
X94096428Y-95696428D01*
X93839285Y-95953571D01*
X94117857Y-95953571D01*
X94210714Y-100853571D02*
X94060714Y-100639285D01*
X93953571Y-100853571D02*
X93953571Y-100403571D01*
X94125000Y-100403571D01*
X94167857Y-100425000D01*
X94189285Y-100446428D01*
X94210714Y-100489285D01*
X94210714Y-100553571D01*
X94189285Y-100596428D01*
X94167857Y-100617857D01*
X94125000Y-100639285D01*
X93953571Y-100639285D01*
X94382142Y-100446428D02*
X94403571Y-100425000D01*
X94446428Y-100403571D01*
X94553571Y-100403571D01*
X94596428Y-100425000D01*
X94617857Y-100446428D01*
X94639285Y-100489285D01*
X94639285Y-100532142D01*
X94617857Y-100596428D01*
X94360714Y-100853571D01*
X94639285Y-100853571D01*
X95067857Y-100853571D02*
X94810714Y-100853571D01*
X94939285Y-100853571D02*
X94939285Y-100403571D01*
X94896428Y-100467857D01*
X94853571Y-100510714D01*
X94810714Y-100532142D01*
X94860714Y-100253571D02*
X94710714Y-100039285D01*
X94603571Y-100253571D02*
X94603571Y-99803571D01*
X94775000Y-99803571D01*
X94817857Y-99825000D01*
X94839285Y-99846428D01*
X94860714Y-99889285D01*
X94860714Y-99953571D01*
X94839285Y-99996428D01*
X94817857Y-100017857D01*
X94775000Y-100039285D01*
X94603571Y-100039285D01*
X95032142Y-99846428D02*
X95053571Y-99825000D01*
X95096428Y-99803571D01*
X95203571Y-99803571D01*
X95246428Y-99825000D01*
X95267857Y-99846428D01*
X95289285Y-99889285D01*
X95289285Y-99932142D01*
X95267857Y-99996428D01*
X95010714Y-100253571D01*
X95289285Y-100253571D01*
X95567857Y-99803571D02*
X95610714Y-99803571D01*
X95653571Y-99825000D01*
X95675000Y-99846428D01*
X95696428Y-99889285D01*
X95717857Y-99975000D01*
X95717857Y-100082142D01*
X95696428Y-100167857D01*
X95675000Y-100210714D01*
X95653571Y-100232142D01*
X95610714Y-100253571D01*
X95567857Y-100253571D01*
X95525000Y-100232142D01*
X95503571Y-100210714D01*
X95482142Y-100167857D01*
X95460714Y-100082142D01*
X95460714Y-99975000D01*
X95482142Y-99889285D01*
X95503571Y-99846428D01*
X95525000Y-99825000D01*
X95567857Y-99803571D01*
X90160714Y-105053571D02*
X90010714Y-104839285D01*
X89903571Y-105053571D02*
X89903571Y-104603571D01*
X90075000Y-104603571D01*
X90117857Y-104625000D01*
X90139285Y-104646428D01*
X90160714Y-104689285D01*
X90160714Y-104753571D01*
X90139285Y-104796428D01*
X90117857Y-104817857D01*
X90075000Y-104839285D01*
X89903571Y-104839285D01*
X90589285Y-105053571D02*
X90332142Y-105053571D01*
X90460714Y-105053571D02*
X90460714Y-104603571D01*
X90417857Y-104667857D01*
X90375000Y-104710714D01*
X90332142Y-104732142D01*
X90803571Y-105053571D02*
X90889285Y-105053571D01*
X90932142Y-105032142D01*
X90953571Y-105010714D01*
X90996428Y-104946428D01*
X91017857Y-104860714D01*
X91017857Y-104689285D01*
X90996428Y-104646428D01*
X90975000Y-104625000D01*
X90932142Y-104603571D01*
X90846428Y-104603571D01*
X90803571Y-104625000D01*
X90782142Y-104646428D01*
X90760714Y-104689285D01*
X90760714Y-104796428D01*
X90782142Y-104839285D01*
X90803571Y-104860714D01*
X90846428Y-104882142D01*
X90932142Y-104882142D01*
X90975000Y-104860714D01*
X90996428Y-104839285D01*
X91017857Y-104796428D01*
X110710714Y-111603571D02*
X110560714Y-111389285D01*
X110453571Y-111603571D02*
X110453571Y-111153571D01*
X110625000Y-111153571D01*
X110667857Y-111175000D01*
X110689285Y-111196428D01*
X110710714Y-111239285D01*
X110710714Y-111303571D01*
X110689285Y-111346428D01*
X110667857Y-111367857D01*
X110625000Y-111389285D01*
X110453571Y-111389285D01*
X111139285Y-111603571D02*
X110882142Y-111603571D01*
X111010714Y-111603571D02*
X111010714Y-111153571D01*
X110967857Y-111217857D01*
X110925000Y-111260714D01*
X110882142Y-111282142D01*
X111396428Y-111346428D02*
X111353571Y-111325000D01*
X111332142Y-111303571D01*
X111310714Y-111260714D01*
X111310714Y-111239285D01*
X111332142Y-111196428D01*
X111353571Y-111175000D01*
X111396428Y-111153571D01*
X111482142Y-111153571D01*
X111525000Y-111175000D01*
X111546428Y-111196428D01*
X111567857Y-111239285D01*
X111567857Y-111260714D01*
X111546428Y-111303571D01*
X111525000Y-111325000D01*
X111482142Y-111346428D01*
X111396428Y-111346428D01*
X111353571Y-111367857D01*
X111332142Y-111389285D01*
X111310714Y-111432142D01*
X111310714Y-111517857D01*
X111332142Y-111560714D01*
X111353571Y-111582142D01*
X111396428Y-111603571D01*
X111482142Y-111603571D01*
X111525000Y-111582142D01*
X111546428Y-111560714D01*
X111567857Y-111517857D01*
X111567857Y-111432142D01*
X111546428Y-111389285D01*
X111525000Y-111367857D01*
X111482142Y-111346428D01*
X89710714Y-105953571D02*
X89560714Y-105739285D01*
X89453571Y-105953571D02*
X89453571Y-105503571D01*
X89625000Y-105503571D01*
X89667857Y-105525000D01*
X89689285Y-105546428D01*
X89710714Y-105589285D01*
X89710714Y-105653571D01*
X89689285Y-105696428D01*
X89667857Y-105717857D01*
X89625000Y-105739285D01*
X89453571Y-105739285D01*
X90139285Y-105953571D02*
X89882142Y-105953571D01*
X90010714Y-105953571D02*
X90010714Y-105503571D01*
X89967857Y-105567857D01*
X89925000Y-105610714D01*
X89882142Y-105632142D01*
X90289285Y-105503571D02*
X90589285Y-105503571D01*
X90396428Y-105953571D01*
X86710714Y-109103571D02*
X86560714Y-108889285D01*
X86453571Y-109103571D02*
X86453571Y-108653571D01*
X86625000Y-108653571D01*
X86667857Y-108675000D01*
X86689285Y-108696428D01*
X86710714Y-108739285D01*
X86710714Y-108803571D01*
X86689285Y-108846428D01*
X86667857Y-108867857D01*
X86625000Y-108889285D01*
X86453571Y-108889285D01*
X87139285Y-109103571D02*
X86882142Y-109103571D01*
X87010714Y-109103571D02*
X87010714Y-108653571D01*
X86967857Y-108717857D01*
X86925000Y-108760714D01*
X86882142Y-108782142D01*
X87525000Y-108653571D02*
X87439285Y-108653571D01*
X87396428Y-108675000D01*
X87375000Y-108696428D01*
X87332142Y-108760714D01*
X87310714Y-108846428D01*
X87310714Y-109017857D01*
X87332142Y-109060714D01*
X87353571Y-109082142D01*
X87396428Y-109103571D01*
X87482142Y-109103571D01*
X87525000Y-109082142D01*
X87546428Y-109060714D01*
X87567857Y-109017857D01*
X87567857Y-108910714D01*
X87546428Y-108867857D01*
X87525000Y-108846428D01*
X87482142Y-108825000D01*
X87396428Y-108825000D01*
X87353571Y-108846428D01*
X87332142Y-108867857D01*
X87310714Y-108910714D01*
X91460714Y-112653571D02*
X91310714Y-112439285D01*
X91203571Y-112653571D02*
X91203571Y-112203571D01*
X91375000Y-112203571D01*
X91417857Y-112225000D01*
X91439285Y-112246428D01*
X91460714Y-112289285D01*
X91460714Y-112353571D01*
X91439285Y-112396428D01*
X91417857Y-112417857D01*
X91375000Y-112439285D01*
X91203571Y-112439285D01*
X91889285Y-112653571D02*
X91632142Y-112653571D01*
X91760714Y-112653571D02*
X91760714Y-112203571D01*
X91717857Y-112267857D01*
X91675000Y-112310714D01*
X91632142Y-112332142D01*
X92296428Y-112203571D02*
X92082142Y-112203571D01*
X92060714Y-112417857D01*
X92082142Y-112396428D01*
X92125000Y-112375000D01*
X92232142Y-112375000D01*
X92275000Y-112396428D01*
X92296428Y-112417857D01*
X92317857Y-112460714D01*
X92317857Y-112567857D01*
X92296428Y-112610714D01*
X92275000Y-112632142D01*
X92232142Y-112653571D01*
X92125000Y-112653571D01*
X92082142Y-112632142D01*
X92060714Y-112610714D01*
X93010714Y-113403571D02*
X92860714Y-113189285D01*
X92753571Y-113403571D02*
X92753571Y-112953571D01*
X92925000Y-112953571D01*
X92967857Y-112975000D01*
X92989285Y-112996428D01*
X93010714Y-113039285D01*
X93010714Y-113103571D01*
X92989285Y-113146428D01*
X92967857Y-113167857D01*
X92925000Y-113189285D01*
X92753571Y-113189285D01*
X93439285Y-113403571D02*
X93182142Y-113403571D01*
X93310714Y-113403571D02*
X93310714Y-112953571D01*
X93267857Y-113017857D01*
X93225000Y-113060714D01*
X93182142Y-113082142D01*
X93825000Y-113103571D02*
X93825000Y-113403571D01*
X93717857Y-112932142D02*
X93610714Y-113253571D01*
X93889285Y-113253571D01*
X94210714Y-115503571D02*
X94060714Y-115289285D01*
X93953571Y-115503571D02*
X93953571Y-115053571D01*
X94125000Y-115053571D01*
X94167857Y-115075000D01*
X94189285Y-115096428D01*
X94210714Y-115139285D01*
X94210714Y-115203571D01*
X94189285Y-115246428D01*
X94167857Y-115267857D01*
X94125000Y-115289285D01*
X93953571Y-115289285D01*
X94639285Y-115503571D02*
X94382142Y-115503571D01*
X94510714Y-115503571D02*
X94510714Y-115053571D01*
X94467857Y-115117857D01*
X94425000Y-115160714D01*
X94382142Y-115182142D01*
X94789285Y-115053571D02*
X95067857Y-115053571D01*
X94917857Y-115225000D01*
X94982142Y-115225000D01*
X95025000Y-115246428D01*
X95046428Y-115267857D01*
X95067857Y-115310714D01*
X95067857Y-115417857D01*
X95046428Y-115460714D01*
X95025000Y-115482142D01*
X94982142Y-115503571D01*
X94853571Y-115503571D01*
X94810714Y-115482142D01*
X94789285Y-115460714D01*
X93610714Y-101853571D02*
X93460714Y-101639285D01*
X93353571Y-101853571D02*
X93353571Y-101403571D01*
X93525000Y-101403571D01*
X93567857Y-101425000D01*
X93589285Y-101446428D01*
X93610714Y-101489285D01*
X93610714Y-101553571D01*
X93589285Y-101596428D01*
X93567857Y-101617857D01*
X93525000Y-101639285D01*
X93353571Y-101639285D01*
X94039285Y-101853571D02*
X93782142Y-101853571D01*
X93910714Y-101853571D02*
X93910714Y-101403571D01*
X93867857Y-101467857D01*
X93825000Y-101510714D01*
X93782142Y-101532142D01*
X94210714Y-101446428D02*
X94232142Y-101425000D01*
X94275000Y-101403571D01*
X94382142Y-101403571D01*
X94425000Y-101425000D01*
X94446428Y-101446428D01*
X94467857Y-101489285D01*
X94467857Y-101532142D01*
X94446428Y-101596428D01*
X94189285Y-101853571D01*
X94467857Y-101853571D01*
X90710714Y-116453571D02*
X90560714Y-116239285D01*
X90453571Y-116453571D02*
X90453571Y-116003571D01*
X90625000Y-116003571D01*
X90667857Y-116025000D01*
X90689285Y-116046428D01*
X90710714Y-116089285D01*
X90710714Y-116153571D01*
X90689285Y-116196428D01*
X90667857Y-116217857D01*
X90625000Y-116239285D01*
X90453571Y-116239285D01*
X91139285Y-116453571D02*
X90882142Y-116453571D01*
X91010714Y-116453571D02*
X91010714Y-116003571D01*
X90967857Y-116067857D01*
X90925000Y-116110714D01*
X90882142Y-116132142D01*
X91567857Y-116453571D02*
X91310714Y-116453571D01*
X91439285Y-116453571D02*
X91439285Y-116003571D01*
X91396428Y-116067857D01*
X91353571Y-116110714D01*
X91310714Y-116132142D01*
X93260714Y-114803571D02*
X93110714Y-114589285D01*
X93003571Y-114803571D02*
X93003571Y-114353571D01*
X93175000Y-114353571D01*
X93217857Y-114375000D01*
X93239285Y-114396428D01*
X93260714Y-114439285D01*
X93260714Y-114503571D01*
X93239285Y-114546428D01*
X93217857Y-114567857D01*
X93175000Y-114589285D01*
X93003571Y-114589285D01*
X93689285Y-114803571D02*
X93432142Y-114803571D01*
X93560714Y-114803571D02*
X93560714Y-114353571D01*
X93517857Y-114417857D01*
X93475000Y-114460714D01*
X93432142Y-114482142D01*
X93967857Y-114353571D02*
X94010714Y-114353571D01*
X94053571Y-114375000D01*
X94075000Y-114396428D01*
X94096428Y-114439285D01*
X94117857Y-114525000D01*
X94117857Y-114632142D01*
X94096428Y-114717857D01*
X94075000Y-114760714D01*
X94053571Y-114782142D01*
X94010714Y-114803571D01*
X93967857Y-114803571D01*
X93925000Y-114782142D01*
X93903571Y-114760714D01*
X93882142Y-114717857D01*
X93860714Y-114632142D01*
X93860714Y-114525000D01*
X93882142Y-114439285D01*
X93903571Y-114396428D01*
X93925000Y-114375000D01*
X93967857Y-114353571D01*
X92825000Y-108403571D02*
X92675000Y-108189285D01*
X92567857Y-108403571D02*
X92567857Y-107953571D01*
X92739285Y-107953571D01*
X92782142Y-107975000D01*
X92803571Y-107996428D01*
X92825000Y-108039285D01*
X92825000Y-108103571D01*
X92803571Y-108146428D01*
X92782142Y-108167857D01*
X92739285Y-108189285D01*
X92567857Y-108189285D01*
X93039285Y-108403571D02*
X93125000Y-108403571D01*
X93167857Y-108382142D01*
X93189285Y-108360714D01*
X93232142Y-108296428D01*
X93253571Y-108210714D01*
X93253571Y-108039285D01*
X93232142Y-107996428D01*
X93210714Y-107975000D01*
X93167857Y-107953571D01*
X93082142Y-107953571D01*
X93039285Y-107975000D01*
X93017857Y-107996428D01*
X92996428Y-108039285D01*
X92996428Y-108146428D01*
X93017857Y-108189285D01*
X93039285Y-108210714D01*
X93082142Y-108232142D01*
X93167857Y-108232142D01*
X93210714Y-108210714D01*
X93232142Y-108189285D01*
X93253571Y-108146428D01*
X99825000Y-102803571D02*
X99675000Y-102589285D01*
X99567857Y-102803571D02*
X99567857Y-102353571D01*
X99739285Y-102353571D01*
X99782142Y-102375000D01*
X99803571Y-102396428D01*
X99825000Y-102439285D01*
X99825000Y-102503571D01*
X99803571Y-102546428D01*
X99782142Y-102567857D01*
X99739285Y-102589285D01*
X99567857Y-102589285D01*
X100082142Y-102546428D02*
X100039285Y-102525000D01*
X100017857Y-102503571D01*
X99996428Y-102460714D01*
X99996428Y-102439285D01*
X100017857Y-102396428D01*
X100039285Y-102375000D01*
X100082142Y-102353571D01*
X100167857Y-102353571D01*
X100210714Y-102375000D01*
X100232142Y-102396428D01*
X100253571Y-102439285D01*
X100253571Y-102460714D01*
X100232142Y-102503571D01*
X100210714Y-102525000D01*
X100167857Y-102546428D01*
X100082142Y-102546428D01*
X100039285Y-102567857D01*
X100017857Y-102589285D01*
X99996428Y-102632142D01*
X99996428Y-102717857D01*
X100017857Y-102760714D01*
X100039285Y-102782142D01*
X100082142Y-102803571D01*
X100167857Y-102803571D01*
X100210714Y-102782142D01*
X100232142Y-102760714D01*
X100253571Y-102717857D01*
X100253571Y-102632142D01*
X100232142Y-102589285D01*
X100210714Y-102567857D01*
X100167857Y-102546428D01*
X103925000Y-95353571D02*
X103775000Y-95139285D01*
X103667857Y-95353571D02*
X103667857Y-94903571D01*
X103839285Y-94903571D01*
X103882142Y-94925000D01*
X103903571Y-94946428D01*
X103925000Y-94989285D01*
X103925000Y-95053571D01*
X103903571Y-95096428D01*
X103882142Y-95117857D01*
X103839285Y-95139285D01*
X103667857Y-95139285D01*
X104075000Y-94903571D02*
X104375000Y-94903571D01*
X104182142Y-95353571D01*
X106625000Y-104853571D02*
X106475000Y-104639285D01*
X106367857Y-104853571D02*
X106367857Y-104403571D01*
X106539285Y-104403571D01*
X106582142Y-104425000D01*
X106603571Y-104446428D01*
X106625000Y-104489285D01*
X106625000Y-104553571D01*
X106603571Y-104596428D01*
X106582142Y-104617857D01*
X106539285Y-104639285D01*
X106367857Y-104639285D01*
X107010714Y-104403571D02*
X106925000Y-104403571D01*
X106882142Y-104425000D01*
X106860714Y-104446428D01*
X106817857Y-104510714D01*
X106796428Y-104596428D01*
X106796428Y-104767857D01*
X106817857Y-104810714D01*
X106839285Y-104832142D01*
X106882142Y-104853571D01*
X106967857Y-104853571D01*
X107010714Y-104832142D01*
X107032142Y-104810714D01*
X107053571Y-104767857D01*
X107053571Y-104660714D01*
X107032142Y-104617857D01*
X107010714Y-104596428D01*
X106967857Y-104575000D01*
X106882142Y-104575000D01*
X106839285Y-104596428D01*
X106817857Y-104617857D01*
X106796428Y-104660714D01*
X98775000Y-118703571D02*
X98625000Y-118489285D01*
X98517857Y-118703571D02*
X98517857Y-118253571D01*
X98689285Y-118253571D01*
X98732142Y-118275000D01*
X98753571Y-118296428D01*
X98775000Y-118339285D01*
X98775000Y-118403571D01*
X98753571Y-118446428D01*
X98732142Y-118467857D01*
X98689285Y-118489285D01*
X98517857Y-118489285D01*
X99182142Y-118253571D02*
X98967857Y-118253571D01*
X98946428Y-118467857D01*
X98967857Y-118446428D01*
X99010714Y-118425000D01*
X99117857Y-118425000D01*
X99160714Y-118446428D01*
X99182142Y-118467857D01*
X99203571Y-118510714D01*
X99203571Y-118617857D01*
X99182142Y-118660714D01*
X99160714Y-118682142D01*
X99117857Y-118703571D01*
X99010714Y-118703571D01*
X98967857Y-118682142D01*
X98946428Y-118660714D01*
X103075000Y-104003571D02*
X102925000Y-103789285D01*
X102817857Y-104003571D02*
X102817857Y-103553571D01*
X102989285Y-103553571D01*
X103032142Y-103575000D01*
X103053571Y-103596428D01*
X103075000Y-103639285D01*
X103075000Y-103703571D01*
X103053571Y-103746428D01*
X103032142Y-103767857D01*
X102989285Y-103789285D01*
X102817857Y-103789285D01*
X103460714Y-103703571D02*
X103460714Y-104003571D01*
X103353571Y-103532142D02*
X103246428Y-103853571D01*
X103525000Y-103853571D01*
X102975000Y-103103571D02*
X102825000Y-102889285D01*
X102717857Y-103103571D02*
X102717857Y-102653571D01*
X102889285Y-102653571D01*
X102932142Y-102675000D01*
X102953571Y-102696428D01*
X102975000Y-102739285D01*
X102975000Y-102803571D01*
X102953571Y-102846428D01*
X102932142Y-102867857D01*
X102889285Y-102889285D01*
X102717857Y-102889285D01*
X103125000Y-102653571D02*
X103403571Y-102653571D01*
X103253571Y-102825000D01*
X103317857Y-102825000D01*
X103360714Y-102846428D01*
X103382142Y-102867857D01*
X103403571Y-102910714D01*
X103403571Y-103017857D01*
X103382142Y-103060714D01*
X103360714Y-103082142D01*
X103317857Y-103103571D01*
X103189285Y-103103571D01*
X103146428Y-103082142D01*
X103125000Y-103060714D01*
X110875000Y-103953571D02*
X110725000Y-103739285D01*
X110617857Y-103953571D02*
X110617857Y-103503571D01*
X110789285Y-103503571D01*
X110832142Y-103525000D01*
X110853571Y-103546428D01*
X110875000Y-103589285D01*
X110875000Y-103653571D01*
X110853571Y-103696428D01*
X110832142Y-103717857D01*
X110789285Y-103739285D01*
X110617857Y-103739285D01*
X111046428Y-103546428D02*
X111067857Y-103525000D01*
X111110714Y-103503571D01*
X111217857Y-103503571D01*
X111260714Y-103525000D01*
X111282142Y-103546428D01*
X111303571Y-103589285D01*
X111303571Y-103632142D01*
X111282142Y-103696428D01*
X111025000Y-103953571D01*
X111303571Y-103953571D01*
X109275000Y-105353571D02*
X109125000Y-105139285D01*
X109017857Y-105353571D02*
X109017857Y-104903571D01*
X109189285Y-104903571D01*
X109232142Y-104925000D01*
X109253571Y-104946428D01*
X109275000Y-104989285D01*
X109275000Y-105053571D01*
X109253571Y-105096428D01*
X109232142Y-105117857D01*
X109189285Y-105139285D01*
X109017857Y-105139285D01*
X109703571Y-105353571D02*
X109446428Y-105353571D01*
X109575000Y-105353571D02*
X109575000Y-104903571D01*
X109532142Y-104967857D01*
X109489285Y-105010714D01*
X109446428Y-105032142D01*
X109360714Y-116360714D02*
X109339285Y-116382142D01*
X109275000Y-116403571D01*
X109232142Y-116403571D01*
X109167857Y-116382142D01*
X109125000Y-116339285D01*
X109103571Y-116296428D01*
X109082142Y-116210714D01*
X109082142Y-116146428D01*
X109103571Y-116060714D01*
X109125000Y-116017857D01*
X109167857Y-115975000D01*
X109232142Y-115953571D01*
X109275000Y-115953571D01*
X109339285Y-115975000D01*
X109360714Y-115996428D01*
X109532142Y-115996428D02*
X109553571Y-115975000D01*
X109596428Y-115953571D01*
X109703571Y-115953571D01*
X109746428Y-115975000D01*
X109767857Y-115996428D01*
X109789285Y-116039285D01*
X109789285Y-116082142D01*
X109767857Y-116146428D01*
X109510714Y-116403571D01*
X109789285Y-116403571D01*
X109960714Y-115996428D02*
X109982142Y-115975000D01*
X110025000Y-115953571D01*
X110132142Y-115953571D01*
X110175000Y-115975000D01*
X110196428Y-115996428D01*
X110217857Y-116039285D01*
X110217857Y-116082142D01*
X110196428Y-116146428D01*
X109939285Y-116403571D01*
X110217857Y-116403571D01*
X103210714Y-100460714D02*
X103189285Y-100482142D01*
X103125000Y-100503571D01*
X103082142Y-100503571D01*
X103017857Y-100482142D01*
X102975000Y-100439285D01*
X102953571Y-100396428D01*
X102932142Y-100310714D01*
X102932142Y-100246428D01*
X102953571Y-100160714D01*
X102975000Y-100117857D01*
X103017857Y-100075000D01*
X103082142Y-100053571D01*
X103125000Y-100053571D01*
X103189285Y-100075000D01*
X103210714Y-100096428D01*
X103382142Y-100096428D02*
X103403571Y-100075000D01*
X103446428Y-100053571D01*
X103553571Y-100053571D01*
X103596428Y-100075000D01*
X103617857Y-100096428D01*
X103639285Y-100139285D01*
X103639285Y-100182142D01*
X103617857Y-100246428D01*
X103360714Y-100503571D01*
X103639285Y-100503571D01*
X104067857Y-100503571D02*
X103810714Y-100503571D01*
X103939285Y-100503571D02*
X103939285Y-100053571D01*
X103896428Y-100117857D01*
X103853571Y-100160714D01*
X103810714Y-100182142D01*
X103260714Y-101410714D02*
X103239285Y-101432142D01*
X103175000Y-101453571D01*
X103132142Y-101453571D01*
X103067857Y-101432142D01*
X103025000Y-101389285D01*
X103003571Y-101346428D01*
X102982142Y-101260714D01*
X102982142Y-101196428D01*
X103003571Y-101110714D01*
X103025000Y-101067857D01*
X103067857Y-101025000D01*
X103132142Y-101003571D01*
X103175000Y-101003571D01*
X103239285Y-101025000D01*
X103260714Y-101046428D01*
X103432142Y-101046428D02*
X103453571Y-101025000D01*
X103496428Y-101003571D01*
X103603571Y-101003571D01*
X103646428Y-101025000D01*
X103667857Y-101046428D01*
X103689285Y-101089285D01*
X103689285Y-101132142D01*
X103667857Y-101196428D01*
X103410714Y-101453571D01*
X103689285Y-101453571D01*
X103967857Y-101003571D02*
X104010714Y-101003571D01*
X104053571Y-101025000D01*
X104075000Y-101046428D01*
X104096428Y-101089285D01*
X104117857Y-101175000D01*
X104117857Y-101282142D01*
X104096428Y-101367857D01*
X104075000Y-101410714D01*
X104053571Y-101432142D01*
X104010714Y-101453571D01*
X103967857Y-101453571D01*
X103925000Y-101432142D01*
X103903571Y-101410714D01*
X103882142Y-101367857D01*
X103860714Y-101282142D01*
X103860714Y-101175000D01*
X103882142Y-101089285D01*
X103903571Y-101046428D01*
X103925000Y-101025000D01*
X103967857Y-101003571D01*
X97810714Y-101960714D02*
X97789285Y-101982142D01*
X97725000Y-102003571D01*
X97682142Y-102003571D01*
X97617857Y-101982142D01*
X97575000Y-101939285D01*
X97553571Y-101896428D01*
X97532142Y-101810714D01*
X97532142Y-101746428D01*
X97553571Y-101660714D01*
X97575000Y-101617857D01*
X97617857Y-101575000D01*
X97682142Y-101553571D01*
X97725000Y-101553571D01*
X97789285Y-101575000D01*
X97810714Y-101596428D01*
X98239285Y-102003571D02*
X97982142Y-102003571D01*
X98110714Y-102003571D02*
X98110714Y-101553571D01*
X98067857Y-101617857D01*
X98025000Y-101660714D01*
X97982142Y-101682142D01*
X98453571Y-102003571D02*
X98539285Y-102003571D01*
X98582142Y-101982142D01*
X98603571Y-101960714D01*
X98646428Y-101896428D01*
X98667857Y-101810714D01*
X98667857Y-101639285D01*
X98646428Y-101596428D01*
X98625000Y-101575000D01*
X98582142Y-101553571D01*
X98496428Y-101553571D01*
X98453571Y-101575000D01*
X98432142Y-101596428D01*
X98410714Y-101639285D01*
X98410714Y-101746428D01*
X98432142Y-101789285D01*
X98453571Y-101810714D01*
X98496428Y-101832142D01*
X98582142Y-101832142D01*
X98625000Y-101810714D01*
X98646428Y-101789285D01*
X98667857Y-101746428D01*
X112010714Y-104560714D02*
X111989285Y-104582142D01*
X111925000Y-104603571D01*
X111882142Y-104603571D01*
X111817857Y-104582142D01*
X111775000Y-104539285D01*
X111753571Y-104496428D01*
X111732142Y-104410714D01*
X111732142Y-104346428D01*
X111753571Y-104260714D01*
X111775000Y-104217857D01*
X111817857Y-104175000D01*
X111882142Y-104153571D01*
X111925000Y-104153571D01*
X111989285Y-104175000D01*
X112010714Y-104196428D01*
X112439285Y-104603571D02*
X112182142Y-104603571D01*
X112310714Y-104603571D02*
X112310714Y-104153571D01*
X112267857Y-104217857D01*
X112225000Y-104260714D01*
X112182142Y-104282142D01*
X112696428Y-104346428D02*
X112653571Y-104325000D01*
X112632142Y-104303571D01*
X112610714Y-104260714D01*
X112610714Y-104239285D01*
X112632142Y-104196428D01*
X112653571Y-104175000D01*
X112696428Y-104153571D01*
X112782142Y-104153571D01*
X112825000Y-104175000D01*
X112846428Y-104196428D01*
X112867857Y-104239285D01*
X112867857Y-104260714D01*
X112846428Y-104303571D01*
X112825000Y-104325000D01*
X112782142Y-104346428D01*
X112696428Y-104346428D01*
X112653571Y-104367857D01*
X112632142Y-104389285D01*
X112610714Y-104432142D01*
X112610714Y-104517857D01*
X112632142Y-104560714D01*
X112653571Y-104582142D01*
X112696428Y-104603571D01*
X112782142Y-104603571D01*
X112825000Y-104582142D01*
X112846428Y-104560714D01*
X112867857Y-104517857D01*
X112867857Y-104432142D01*
X112846428Y-104389285D01*
X112825000Y-104367857D01*
X112782142Y-104346428D01*
X87810714Y-107460714D02*
X87789285Y-107482142D01*
X87725000Y-107503571D01*
X87682142Y-107503571D01*
X87617857Y-107482142D01*
X87575000Y-107439285D01*
X87553571Y-107396428D01*
X87532142Y-107310714D01*
X87532142Y-107246428D01*
X87553571Y-107160714D01*
X87575000Y-107117857D01*
X87617857Y-107075000D01*
X87682142Y-107053571D01*
X87725000Y-107053571D01*
X87789285Y-107075000D01*
X87810714Y-107096428D01*
X88239285Y-107503571D02*
X87982142Y-107503571D01*
X88110714Y-107503571D02*
X88110714Y-107053571D01*
X88067857Y-107117857D01*
X88025000Y-107160714D01*
X87982142Y-107182142D01*
X88389285Y-107053571D02*
X88689285Y-107053571D01*
X88496428Y-107503571D01*
X92160714Y-109960714D02*
X92139285Y-109982142D01*
X92075000Y-110003571D01*
X92032142Y-110003571D01*
X91967857Y-109982142D01*
X91925000Y-109939285D01*
X91903571Y-109896428D01*
X91882142Y-109810714D01*
X91882142Y-109746428D01*
X91903571Y-109660714D01*
X91925000Y-109617857D01*
X91967857Y-109575000D01*
X92032142Y-109553571D01*
X92075000Y-109553571D01*
X92139285Y-109575000D01*
X92160714Y-109596428D01*
X92589285Y-110003571D02*
X92332142Y-110003571D01*
X92460714Y-110003571D02*
X92460714Y-109553571D01*
X92417857Y-109617857D01*
X92375000Y-109660714D01*
X92332142Y-109682142D01*
X92975000Y-109553571D02*
X92889285Y-109553571D01*
X92846428Y-109575000D01*
X92825000Y-109596428D01*
X92782142Y-109660714D01*
X92760714Y-109746428D01*
X92760714Y-109917857D01*
X92782142Y-109960714D01*
X92803571Y-109982142D01*
X92846428Y-110003571D01*
X92932142Y-110003571D01*
X92975000Y-109982142D01*
X92996428Y-109960714D01*
X93017857Y-109917857D01*
X93017857Y-109810714D01*
X92996428Y-109767857D01*
X92975000Y-109746428D01*
X92932142Y-109725000D01*
X92846428Y-109725000D01*
X92803571Y-109746428D01*
X92782142Y-109767857D01*
X92760714Y-109810714D01*
X89210714Y-119660714D02*
X89189285Y-119682142D01*
X89125000Y-119703571D01*
X89082142Y-119703571D01*
X89017857Y-119682142D01*
X88975000Y-119639285D01*
X88953571Y-119596428D01*
X88932142Y-119510714D01*
X88932142Y-119446428D01*
X88953571Y-119360714D01*
X88975000Y-119317857D01*
X89017857Y-119275000D01*
X89082142Y-119253571D01*
X89125000Y-119253571D01*
X89189285Y-119275000D01*
X89210714Y-119296428D01*
X89639285Y-119703571D02*
X89382142Y-119703571D01*
X89510714Y-119703571D02*
X89510714Y-119253571D01*
X89467857Y-119317857D01*
X89425000Y-119360714D01*
X89382142Y-119382142D01*
X90046428Y-119253571D02*
X89832142Y-119253571D01*
X89810714Y-119467857D01*
X89832142Y-119446428D01*
X89875000Y-119425000D01*
X89982142Y-119425000D01*
X90025000Y-119446428D01*
X90046428Y-119467857D01*
X90067857Y-119510714D01*
X90067857Y-119617857D01*
X90046428Y-119660714D01*
X90025000Y-119682142D01*
X89982142Y-119703571D01*
X89875000Y-119703571D01*
X89832142Y-119682142D01*
X89810714Y-119660714D01*
X86610714Y-111360714D02*
X86589285Y-111382142D01*
X86525000Y-111403571D01*
X86482142Y-111403571D01*
X86417857Y-111382142D01*
X86375000Y-111339285D01*
X86353571Y-111296428D01*
X86332142Y-111210714D01*
X86332142Y-111146428D01*
X86353571Y-111060714D01*
X86375000Y-111017857D01*
X86417857Y-110975000D01*
X86482142Y-110953571D01*
X86525000Y-110953571D01*
X86589285Y-110975000D01*
X86610714Y-110996428D01*
X87039285Y-111403571D02*
X86782142Y-111403571D01*
X86910714Y-111403571D02*
X86910714Y-110953571D01*
X86867857Y-111017857D01*
X86825000Y-111060714D01*
X86782142Y-111082142D01*
X87425000Y-111103571D02*
X87425000Y-111403571D01*
X87317857Y-110932142D02*
X87210714Y-111253571D01*
X87489285Y-111253571D01*
X90710714Y-116960714D02*
X90689285Y-116982142D01*
X90625000Y-117003571D01*
X90582142Y-117003571D01*
X90517857Y-116982142D01*
X90475000Y-116939285D01*
X90453571Y-116896428D01*
X90432142Y-116810714D01*
X90432142Y-116746428D01*
X90453571Y-116660714D01*
X90475000Y-116617857D01*
X90517857Y-116575000D01*
X90582142Y-116553571D01*
X90625000Y-116553571D01*
X90689285Y-116575000D01*
X90710714Y-116596428D01*
X91139285Y-117003571D02*
X90882142Y-117003571D01*
X91010714Y-117003571D02*
X91010714Y-116553571D01*
X90967857Y-116617857D01*
X90925000Y-116660714D01*
X90882142Y-116682142D01*
X91289285Y-116553571D02*
X91567857Y-116553571D01*
X91417857Y-116725000D01*
X91482142Y-116725000D01*
X91525000Y-116746428D01*
X91546428Y-116767857D01*
X91567857Y-116810714D01*
X91567857Y-116917857D01*
X91546428Y-116960714D01*
X91525000Y-116982142D01*
X91482142Y-117003571D01*
X91353571Y-117003571D01*
X91310714Y-116982142D01*
X91289285Y-116960714D01*
X91310714Y-113310714D02*
X91289285Y-113332142D01*
X91225000Y-113353571D01*
X91182142Y-113353571D01*
X91117857Y-113332142D01*
X91075000Y-113289285D01*
X91053571Y-113246428D01*
X91032142Y-113160714D01*
X91032142Y-113096428D01*
X91053571Y-113010714D01*
X91075000Y-112967857D01*
X91117857Y-112925000D01*
X91182142Y-112903571D01*
X91225000Y-112903571D01*
X91289285Y-112925000D01*
X91310714Y-112946428D01*
X91739285Y-113353571D02*
X91482142Y-113353571D01*
X91610714Y-113353571D02*
X91610714Y-112903571D01*
X91567857Y-112967857D01*
X91525000Y-113010714D01*
X91482142Y-113032142D01*
X91910714Y-112946428D02*
X91932142Y-112925000D01*
X91975000Y-112903571D01*
X92082142Y-112903571D01*
X92125000Y-112925000D01*
X92146428Y-112946428D01*
X92167857Y-112989285D01*
X92167857Y-113032142D01*
X92146428Y-113096428D01*
X91889285Y-113353571D01*
X92167857Y-113353571D01*
X98760714Y-106460714D02*
X98739285Y-106482142D01*
X98675000Y-106503571D01*
X98632142Y-106503571D01*
X98567857Y-106482142D01*
X98525000Y-106439285D01*
X98503571Y-106396428D01*
X98482142Y-106310714D01*
X98482142Y-106246428D01*
X98503571Y-106160714D01*
X98525000Y-106117857D01*
X98567857Y-106075000D01*
X98632142Y-106053571D01*
X98675000Y-106053571D01*
X98739285Y-106075000D01*
X98760714Y-106096428D01*
X99189285Y-106503571D02*
X98932142Y-106503571D01*
X99060714Y-106503571D02*
X99060714Y-106053571D01*
X99017857Y-106117857D01*
X98975000Y-106160714D01*
X98932142Y-106182142D01*
X99617857Y-106503571D02*
X99360714Y-106503571D01*
X99489285Y-106503571D02*
X99489285Y-106053571D01*
X99446428Y-106117857D01*
X99403571Y-106160714D01*
X99360714Y-106182142D01*
X105160714Y-116010714D02*
X105139285Y-116032142D01*
X105075000Y-116053571D01*
X105032142Y-116053571D01*
X104967857Y-116032142D01*
X104925000Y-115989285D01*
X104903571Y-115946428D01*
X104882142Y-115860714D01*
X104882142Y-115796428D01*
X104903571Y-115710714D01*
X104925000Y-115667857D01*
X104967857Y-115625000D01*
X105032142Y-115603571D01*
X105075000Y-115603571D01*
X105139285Y-115625000D01*
X105160714Y-115646428D01*
X105589285Y-116053571D02*
X105332142Y-116053571D01*
X105460714Y-116053571D02*
X105460714Y-115603571D01*
X105417857Y-115667857D01*
X105375000Y-115710714D01*
X105332142Y-115732142D01*
X105867857Y-115603571D02*
X105910714Y-115603571D01*
X105953571Y-115625000D01*
X105975000Y-115646428D01*
X105996428Y-115689285D01*
X106017857Y-115775000D01*
X106017857Y-115882142D01*
X105996428Y-115967857D01*
X105975000Y-116010714D01*
X105953571Y-116032142D01*
X105910714Y-116053571D01*
X105867857Y-116053571D01*
X105825000Y-116032142D01*
X105803571Y-116010714D01*
X105782142Y-115967857D01*
X105760714Y-115882142D01*
X105760714Y-115775000D01*
X105782142Y-115689285D01*
X105803571Y-115646428D01*
X105825000Y-115625000D01*
X105867857Y-115603571D01*
X88025000Y-109710714D02*
X88003571Y-109732142D01*
X87939285Y-109753571D01*
X87896428Y-109753571D01*
X87832142Y-109732142D01*
X87789285Y-109689285D01*
X87767857Y-109646428D01*
X87746428Y-109560714D01*
X87746428Y-109496428D01*
X87767857Y-109410714D01*
X87789285Y-109367857D01*
X87832142Y-109325000D01*
X87896428Y-109303571D01*
X87939285Y-109303571D01*
X88003571Y-109325000D01*
X88025000Y-109346428D01*
X88282142Y-109496428D02*
X88239285Y-109475000D01*
X88217857Y-109453571D01*
X88196428Y-109410714D01*
X88196428Y-109389285D01*
X88217857Y-109346428D01*
X88239285Y-109325000D01*
X88282142Y-109303571D01*
X88367857Y-109303571D01*
X88410714Y-109325000D01*
X88432142Y-109346428D01*
X88453571Y-109389285D01*
X88453571Y-109410714D01*
X88432142Y-109453571D01*
X88410714Y-109475000D01*
X88367857Y-109496428D01*
X88282142Y-109496428D01*
X88239285Y-109517857D01*
X88217857Y-109539285D01*
X88196428Y-109582142D01*
X88196428Y-109667857D01*
X88217857Y-109710714D01*
X88239285Y-109732142D01*
X88282142Y-109753571D01*
X88367857Y-109753571D01*
X88410714Y-109732142D01*
X88432142Y-109710714D01*
X88453571Y-109667857D01*
X88453571Y-109582142D01*
X88432142Y-109539285D01*
X88410714Y-109517857D01*
X88367857Y-109496428D01*
X100675000Y-100810714D02*
X100653571Y-100832142D01*
X100589285Y-100853571D01*
X100546428Y-100853571D01*
X100482142Y-100832142D01*
X100439285Y-100789285D01*
X100417857Y-100746428D01*
X100396428Y-100660714D01*
X100396428Y-100596428D01*
X100417857Y-100510714D01*
X100439285Y-100467857D01*
X100482142Y-100425000D01*
X100546428Y-100403571D01*
X100589285Y-100403571D01*
X100653571Y-100425000D01*
X100675000Y-100446428D01*
X100825000Y-100403571D02*
X101125000Y-100403571D01*
X100932142Y-100853571D01*
X99525000Y-114910714D02*
X99503571Y-114932142D01*
X99439285Y-114953571D01*
X99396428Y-114953571D01*
X99332142Y-114932142D01*
X99289285Y-114889285D01*
X99267857Y-114846428D01*
X99246428Y-114760714D01*
X99246428Y-114696428D01*
X99267857Y-114610714D01*
X99289285Y-114567857D01*
X99332142Y-114525000D01*
X99396428Y-114503571D01*
X99439285Y-114503571D01*
X99503571Y-114525000D01*
X99525000Y-114546428D01*
X99910714Y-114503571D02*
X99825000Y-114503571D01*
X99782142Y-114525000D01*
X99760714Y-114546428D01*
X99717857Y-114610714D01*
X99696428Y-114696428D01*
X99696428Y-114867857D01*
X99717857Y-114910714D01*
X99739285Y-114932142D01*
X99782142Y-114953571D01*
X99867857Y-114953571D01*
X99910714Y-114932142D01*
X99932142Y-114910714D01*
X99953571Y-114867857D01*
X99953571Y-114760714D01*
X99932142Y-114717857D01*
X99910714Y-114696428D01*
X99867857Y-114675000D01*
X99782142Y-114675000D01*
X99739285Y-114696428D01*
X99717857Y-114717857D01*
X99696428Y-114760714D01*
X109375000Y-106060714D02*
X109353571Y-106082142D01*
X109289285Y-106103571D01*
X109246428Y-106103571D01*
X109182142Y-106082142D01*
X109139285Y-106039285D01*
X109117857Y-105996428D01*
X109096428Y-105910714D01*
X109096428Y-105846428D01*
X109117857Y-105760714D01*
X109139285Y-105717857D01*
X109182142Y-105675000D01*
X109246428Y-105653571D01*
X109289285Y-105653571D01*
X109353571Y-105675000D01*
X109375000Y-105696428D01*
X109782142Y-105653571D02*
X109567857Y-105653571D01*
X109546428Y-105867857D01*
X109567857Y-105846428D01*
X109610714Y-105825000D01*
X109717857Y-105825000D01*
X109760714Y-105846428D01*
X109782142Y-105867857D01*
X109803571Y-105910714D01*
X109803571Y-106017857D01*
X109782142Y-106060714D01*
X109760714Y-106082142D01*
X109717857Y-106103571D01*
X109610714Y-106103571D01*
X109567857Y-106082142D01*
X109546428Y-106060714D01*
X99075000Y-112910714D02*
X99053571Y-112932142D01*
X98989285Y-112953571D01*
X98946428Y-112953571D01*
X98882142Y-112932142D01*
X98839285Y-112889285D01*
X98817857Y-112846428D01*
X98796428Y-112760714D01*
X98796428Y-112696428D01*
X98817857Y-112610714D01*
X98839285Y-112567857D01*
X98882142Y-112525000D01*
X98946428Y-112503571D01*
X98989285Y-112503571D01*
X99053571Y-112525000D01*
X99075000Y-112546428D01*
X99460714Y-112653571D02*
X99460714Y-112953571D01*
X99353571Y-112482142D02*
X99246428Y-112803571D01*
X99525000Y-112803571D01*
X103475000Y-104810714D02*
X103453571Y-104832142D01*
X103389285Y-104853571D01*
X103346428Y-104853571D01*
X103282142Y-104832142D01*
X103239285Y-104789285D01*
X103217857Y-104746428D01*
X103196428Y-104660714D01*
X103196428Y-104596428D01*
X103217857Y-104510714D01*
X103239285Y-104467857D01*
X103282142Y-104425000D01*
X103346428Y-104403571D01*
X103389285Y-104403571D01*
X103453571Y-104425000D01*
X103475000Y-104446428D01*
X103625000Y-104403571D02*
X103903571Y-104403571D01*
X103753571Y-104575000D01*
X103817857Y-104575000D01*
X103860714Y-104596428D01*
X103882142Y-104617857D01*
X103903571Y-104660714D01*
X103903571Y-104767857D01*
X103882142Y-104810714D01*
X103860714Y-104832142D01*
X103817857Y-104853571D01*
X103689285Y-104853571D01*
X103646428Y-104832142D01*
X103625000Y-104810714D01*
X109325000Y-115210714D02*
X109303571Y-115232142D01*
X109239285Y-115253571D01*
X109196428Y-115253571D01*
X109132142Y-115232142D01*
X109089285Y-115189285D01*
X109067857Y-115146428D01*
X109046428Y-115060714D01*
X109046428Y-114996428D01*
X109067857Y-114910714D01*
X109089285Y-114867857D01*
X109132142Y-114825000D01*
X109196428Y-114803571D01*
X109239285Y-114803571D01*
X109303571Y-114825000D01*
X109325000Y-114846428D01*
X109496428Y-114846428D02*
X109517857Y-114825000D01*
X109560714Y-114803571D01*
X109667857Y-114803571D01*
X109710714Y-114825000D01*
X109732142Y-114846428D01*
X109753571Y-114889285D01*
X109753571Y-114932142D01*
X109732142Y-114996428D01*
X109475000Y-115253571D01*
X109753571Y-115253571D01*
X97425000Y-114610714D02*
X97403571Y-114632142D01*
X97339285Y-114653571D01*
X97296428Y-114653571D01*
X97232142Y-114632142D01*
X97189285Y-114589285D01*
X97167857Y-114546428D01*
X97146428Y-114460714D01*
X97146428Y-114396428D01*
X97167857Y-114310714D01*
X97189285Y-114267857D01*
X97232142Y-114225000D01*
X97296428Y-114203571D01*
X97339285Y-114203571D01*
X97403571Y-114225000D01*
X97425000Y-114246428D01*
X97853571Y-114653571D02*
X97596428Y-114653571D01*
X97725000Y-114653571D02*
X97725000Y-114203571D01*
X97682142Y-114267857D01*
X97639285Y-114310714D01*
X97596428Y-114332142D01*
X95307142Y-102553571D02*
X95307142Y-102917857D01*
X95328571Y-102960714D01*
X95350000Y-102982142D01*
X95392857Y-103003571D01*
X95478571Y-103003571D01*
X95521428Y-102982142D01*
X95542857Y-102960714D01*
X95564285Y-102917857D01*
X95564285Y-102553571D01*
X95735714Y-102553571D02*
X96035714Y-102553571D01*
X95842857Y-103003571D01*
X113007142Y-106253571D02*
X113007142Y-106617857D01*
X113028571Y-106660714D01*
X113050000Y-106682142D01*
X113092857Y-106703571D01*
X113178571Y-106703571D01*
X113221428Y-106682142D01*
X113242857Y-106660714D01*
X113264285Y-106617857D01*
X113264285Y-106253571D01*
X113671428Y-106253571D02*
X113585714Y-106253571D01*
X113542857Y-106275000D01*
X113521428Y-106296428D01*
X113478571Y-106360714D01*
X113457142Y-106446428D01*
X113457142Y-106617857D01*
X113478571Y-106660714D01*
X113500000Y-106682142D01*
X113542857Y-106703571D01*
X113628571Y-106703571D01*
X113671428Y-106682142D01*
X113692857Y-106660714D01*
X113714285Y-106617857D01*
X113714285Y-106510714D01*
X113692857Y-106467857D01*
X113671428Y-106446428D01*
X113628571Y-106425000D01*
X113542857Y-106425000D01*
X113500000Y-106446428D01*
X113478571Y-106467857D01*
X113457142Y-106510714D01*
X89857142Y-108403571D02*
X89857142Y-108767857D01*
X89878571Y-108810714D01*
X89900000Y-108832142D01*
X89942857Y-108853571D01*
X90028571Y-108853571D01*
X90071428Y-108832142D01*
X90092857Y-108810714D01*
X90114285Y-108767857D01*
X90114285Y-108403571D01*
X90542857Y-108403571D02*
X90328571Y-108403571D01*
X90307142Y-108617857D01*
X90328571Y-108596428D01*
X90371428Y-108575000D01*
X90478571Y-108575000D01*
X90521428Y-108596428D01*
X90542857Y-108617857D01*
X90564285Y-108660714D01*
X90564285Y-108767857D01*
X90542857Y-108810714D01*
X90521428Y-108832142D01*
X90478571Y-108853571D01*
X90371428Y-108853571D01*
X90328571Y-108832142D01*
X90307142Y-108810714D01*
X94907142Y-107303571D02*
X94907142Y-107667857D01*
X94928571Y-107710714D01*
X94950000Y-107732142D01*
X94992857Y-107753571D01*
X95078571Y-107753571D01*
X95121428Y-107732142D01*
X95142857Y-107710714D01*
X95164285Y-107667857D01*
X95164285Y-107303571D01*
X95357142Y-107346428D02*
X95378571Y-107325000D01*
X95421428Y-107303571D01*
X95528571Y-107303571D01*
X95571428Y-107325000D01*
X95592857Y-107346428D01*
X95614285Y-107389285D01*
X95614285Y-107432142D01*
X95592857Y-107496428D01*
X95335714Y-107753571D01*
X95614285Y-107753571D01*
X104407142Y-95653571D02*
X104407142Y-96017857D01*
X104428571Y-96060714D01*
X104450000Y-96082142D01*
X104492857Y-96103571D01*
X104578571Y-96103571D01*
X104621428Y-96082142D01*
X104642857Y-96060714D01*
X104664285Y-96017857D01*
X104664285Y-95653571D01*
X105114285Y-96103571D02*
X104857142Y-96103571D01*
X104985714Y-96103571D02*
X104985714Y-95653571D01*
X104942857Y-95717857D01*
X104900000Y-95760714D01*
X104857142Y-95782142D01*
X93657142Y-99746428D02*
X93614285Y-99725000D01*
X93571428Y-99682142D01*
X93507142Y-99617857D01*
X93464285Y-99596428D01*
X93421428Y-99596428D01*
X93442857Y-99703571D02*
X93400000Y-99682142D01*
X93357142Y-99639285D01*
X93335714Y-99553571D01*
X93335714Y-99403571D01*
X93357142Y-99317857D01*
X93400000Y-99275000D01*
X93442857Y-99253571D01*
X93528571Y-99253571D01*
X93571428Y-99275000D01*
X93614285Y-99317857D01*
X93635714Y-99403571D01*
X93635714Y-99553571D01*
X93614285Y-99639285D01*
X93571428Y-99682142D01*
X93528571Y-99703571D01*
X93442857Y-99703571D01*
X93807142Y-99296428D02*
X93828571Y-99275000D01*
X93871428Y-99253571D01*
X93978571Y-99253571D01*
X94021428Y-99275000D01*
X94042857Y-99296428D01*
X94064285Y-99339285D01*
X94064285Y-99382142D01*
X94042857Y-99446428D01*
X93785714Y-99703571D01*
X94064285Y-99703571D01*
X93857142Y-104446428D02*
X93814285Y-104425000D01*
X93771428Y-104382142D01*
X93707142Y-104317857D01*
X93664285Y-104296428D01*
X93621428Y-104296428D01*
X93642857Y-104403571D02*
X93600000Y-104382142D01*
X93557142Y-104339285D01*
X93535714Y-104253571D01*
X93535714Y-104103571D01*
X93557142Y-104017857D01*
X93600000Y-103975000D01*
X93642857Y-103953571D01*
X93728571Y-103953571D01*
X93771428Y-103975000D01*
X93814285Y-104017857D01*
X93835714Y-104103571D01*
X93835714Y-104253571D01*
X93814285Y-104339285D01*
X93771428Y-104382142D01*
X93728571Y-104403571D01*
X93642857Y-104403571D01*
X94264285Y-104403571D02*
X94007142Y-104403571D01*
X94135714Y-104403571D02*
X94135714Y-103953571D01*
X94092857Y-104017857D01*
X94050000Y-104060714D01*
X94007142Y-104082142D01*
X91817857Y-96903571D02*
X91817857Y-96453571D01*
X91925000Y-96453571D01*
X91989285Y-96475000D01*
X92032142Y-96517857D01*
X92053571Y-96560714D01*
X92075000Y-96646428D01*
X92075000Y-96710714D01*
X92053571Y-96796428D01*
X92032142Y-96839285D01*
X91989285Y-96882142D01*
X91925000Y-96903571D01*
X91817857Y-96903571D01*
X92225000Y-96453571D02*
X92503571Y-96453571D01*
X92353571Y-96625000D01*
X92417857Y-96625000D01*
X92460714Y-96646428D01*
X92482142Y-96667857D01*
X92503571Y-96710714D01*
X92503571Y-96817857D01*
X92482142Y-96860714D01*
X92460714Y-96882142D01*
X92417857Y-96903571D01*
X92289285Y-96903571D01*
X92246428Y-96882142D01*
X92225000Y-96860714D01*
M02*
