G04 #@! TF.GenerationSoftware,KiCad,Pcbnew,5.1.4+dfsg1-1*
G04 #@! TF.CreationDate,2020-04-13T21:54:57+02:00*
G04 #@! TF.ProjectId,C245_conn,43323435-5f63-46f6-9e6e-2e6b69636164,rev?*
G04 #@! TF.SameCoordinates,Original*
G04 #@! TF.FileFunction,Soldermask,Bot*
G04 #@! TF.FilePolarity,Negative*
%FSLAX46Y46*%
G04 Gerber Fmt 4.6, Leading zero omitted, Abs format (unit mm)*
G04 Created by KiCad (PCBNEW 5.1.4+dfsg1-1) date 2020-04-13 21:54:57*
%MOMM*%
%LPD*%
G04 APERTURE LIST*
%ADD10C,0.100000*%
G04 APERTURE END LIST*
D10*
G36*
X107451000Y-110251000D02*
G01*
X104349000Y-110251000D01*
X104349000Y-108649000D01*
X107451000Y-108649000D01*
X107451000Y-110251000D01*
X107451000Y-110251000D01*
G37*
G36*
X93129487Y-106498996D02*
G01*
X93366253Y-106597068D01*
X93366255Y-106597069D01*
X93443975Y-106649000D01*
X93579339Y-106739447D01*
X93760553Y-106920661D01*
X93902932Y-107133747D01*
X94001004Y-107370513D01*
X94051000Y-107621861D01*
X94051000Y-107878139D01*
X94001004Y-108129487D01*
X93902932Y-108366253D01*
X93902931Y-108366255D01*
X93760553Y-108579339D01*
X93579339Y-108760553D01*
X93366255Y-108902931D01*
X93366254Y-108902932D01*
X93366253Y-108902932D01*
X93129487Y-109001004D01*
X92878139Y-109051000D01*
X92621861Y-109051000D01*
X92370513Y-109001004D01*
X92133747Y-108902932D01*
X92133746Y-108902932D01*
X92133745Y-108902931D01*
X91920661Y-108760553D01*
X91739447Y-108579339D01*
X91597069Y-108366255D01*
X91597068Y-108366253D01*
X91498996Y-108129487D01*
X91449000Y-107878139D01*
X91449000Y-107621861D01*
X91498996Y-107370513D01*
X91597068Y-107133747D01*
X91739447Y-106920661D01*
X91920661Y-106739447D01*
X92056025Y-106649000D01*
X92133745Y-106597069D01*
X92133747Y-106597068D01*
X92370513Y-106498996D01*
X92621861Y-106449000D01*
X92878139Y-106449000D01*
X93129487Y-106498996D01*
X93129487Y-106498996D01*
G37*
G36*
X107451000Y-108251000D02*
G01*
X104349000Y-108251000D01*
X104349000Y-106649000D01*
X107451000Y-106649000D01*
X107451000Y-108251000D01*
X107451000Y-108251000D01*
G37*
G36*
X101996217Y-102056665D02*
G01*
X102266995Y-102110525D01*
X102558358Y-102231212D01*
X102820578Y-102406422D01*
X103043578Y-102629422D01*
X103218788Y-102891642D01*
X103339475Y-103183005D01*
X103386417Y-103419000D01*
X103401000Y-103492314D01*
X103401000Y-103807686D01*
X103399145Y-103817011D01*
X103339475Y-104116995D01*
X103218788Y-104408358D01*
X103043578Y-104670578D01*
X102820578Y-104893578D01*
X102558358Y-105068788D01*
X102266995Y-105189475D01*
X101996217Y-105243335D01*
X101957686Y-105251000D01*
X101642314Y-105251000D01*
X101603783Y-105243335D01*
X101333005Y-105189475D01*
X101041642Y-105068788D01*
X100779422Y-104893578D01*
X100556422Y-104670578D01*
X100381212Y-104408358D01*
X100260525Y-104116995D01*
X100200855Y-103817011D01*
X100199000Y-103807686D01*
X100199000Y-103492314D01*
X100213583Y-103419000D01*
X100260525Y-103183005D01*
X100381212Y-102891642D01*
X100556422Y-102629422D01*
X100779422Y-102406422D01*
X101041642Y-102231212D01*
X101333005Y-102110525D01*
X101603783Y-102056665D01*
X101642314Y-102049000D01*
X101957686Y-102049000D01*
X101996217Y-102056665D01*
X101996217Y-102056665D01*
G37*
G36*
X98396217Y-102056665D02*
G01*
X98666995Y-102110525D01*
X98958358Y-102231212D01*
X99220578Y-102406422D01*
X99443578Y-102629422D01*
X99618788Y-102891642D01*
X99739475Y-103183005D01*
X99786417Y-103419000D01*
X99801000Y-103492314D01*
X99801000Y-103807686D01*
X99799145Y-103817011D01*
X99739475Y-104116995D01*
X99618788Y-104408358D01*
X99443578Y-104670578D01*
X99220578Y-104893578D01*
X98958358Y-105068788D01*
X98666995Y-105189475D01*
X98396217Y-105243335D01*
X98357686Y-105251000D01*
X98042314Y-105251000D01*
X98003783Y-105243335D01*
X97733005Y-105189475D01*
X97441642Y-105068788D01*
X97179422Y-104893578D01*
X96956422Y-104670578D01*
X96781212Y-104408358D01*
X96660525Y-104116995D01*
X96600855Y-103817011D01*
X96599000Y-103807686D01*
X96599000Y-103492314D01*
X96613583Y-103419000D01*
X96660525Y-103183005D01*
X96781212Y-102891642D01*
X96956422Y-102629422D01*
X97179422Y-102406422D01*
X97441642Y-102231212D01*
X97733005Y-102110525D01*
X98003783Y-102056665D01*
X98042314Y-102049000D01*
X98357686Y-102049000D01*
X98396217Y-102056665D01*
X98396217Y-102056665D01*
G37*
G36*
X91610442Y-103425518D02*
G01*
X91676627Y-103432037D01*
X91846466Y-103483557D01*
X92002991Y-103567222D01*
X92038729Y-103596552D01*
X92140186Y-103679814D01*
X92223448Y-103781271D01*
X92252778Y-103817009D01*
X92336443Y-103973534D01*
X92387963Y-104143373D01*
X92405359Y-104320000D01*
X92387963Y-104496627D01*
X92336443Y-104666466D01*
X92252778Y-104822991D01*
X92223448Y-104858729D01*
X92140186Y-104960186D01*
X92038729Y-105043448D01*
X92002991Y-105072778D01*
X91846466Y-105156443D01*
X91676627Y-105207963D01*
X91610442Y-105214482D01*
X91544260Y-105221000D01*
X91455740Y-105221000D01*
X91389558Y-105214482D01*
X91323373Y-105207963D01*
X91153534Y-105156443D01*
X90997009Y-105072778D01*
X90961271Y-105043448D01*
X90859814Y-104960186D01*
X90776552Y-104858729D01*
X90747222Y-104822991D01*
X90663557Y-104666466D01*
X90612037Y-104496627D01*
X90594641Y-104320000D01*
X90612037Y-104143373D01*
X90663557Y-103973534D01*
X90747222Y-103817009D01*
X90776552Y-103781271D01*
X90859814Y-103679814D01*
X90961271Y-103596552D01*
X90997009Y-103567222D01*
X91153534Y-103483557D01*
X91323373Y-103432037D01*
X91389558Y-103425518D01*
X91455740Y-103419000D01*
X91544260Y-103419000D01*
X91610442Y-103425518D01*
X91610442Y-103425518D01*
G37*
G36*
X91610443Y-100885519D02*
G01*
X91676627Y-100892037D01*
X91846466Y-100943557D01*
X92002991Y-101027222D01*
X92038729Y-101056552D01*
X92140186Y-101139814D01*
X92223448Y-101241271D01*
X92252778Y-101277009D01*
X92336443Y-101433534D01*
X92387963Y-101603373D01*
X92405359Y-101780000D01*
X92387963Y-101956627D01*
X92336443Y-102126466D01*
X92252778Y-102282991D01*
X92223448Y-102318729D01*
X92140186Y-102420186D01*
X92038729Y-102503448D01*
X92002991Y-102532778D01*
X91846466Y-102616443D01*
X91676627Y-102667963D01*
X91610443Y-102674481D01*
X91544260Y-102681000D01*
X91455740Y-102681000D01*
X91389557Y-102674481D01*
X91323373Y-102667963D01*
X91153534Y-102616443D01*
X90997009Y-102532778D01*
X90961271Y-102503448D01*
X90859814Y-102420186D01*
X90776552Y-102318729D01*
X90747222Y-102282991D01*
X90663557Y-102126466D01*
X90612037Y-101956627D01*
X90594641Y-101780000D01*
X90612037Y-101603373D01*
X90663557Y-101433534D01*
X90747222Y-101277009D01*
X90776552Y-101241271D01*
X90859814Y-101139814D01*
X90961271Y-101056552D01*
X90997009Y-101027222D01*
X91153534Y-100943557D01*
X91323373Y-100892037D01*
X91389557Y-100885519D01*
X91455740Y-100879000D01*
X91544260Y-100879000D01*
X91610443Y-100885519D01*
X91610443Y-100885519D01*
G37*
G36*
X100196217Y-98906665D02*
G01*
X100466995Y-98960525D01*
X100758358Y-99081212D01*
X101020578Y-99256422D01*
X101243578Y-99479422D01*
X101418788Y-99741642D01*
X101539475Y-100033005D01*
X101601000Y-100342315D01*
X101601000Y-100657685D01*
X101539475Y-100966995D01*
X101418788Y-101258358D01*
X101243578Y-101520578D01*
X101020578Y-101743578D01*
X100758358Y-101918788D01*
X100466995Y-102039475D01*
X100196217Y-102093335D01*
X100157686Y-102101000D01*
X99842314Y-102101000D01*
X99803783Y-102093335D01*
X99533005Y-102039475D01*
X99241642Y-101918788D01*
X98979422Y-101743578D01*
X98756422Y-101520578D01*
X98581212Y-101258358D01*
X98460525Y-100966995D01*
X98399000Y-100657685D01*
X98399000Y-100342315D01*
X98460525Y-100033005D01*
X98581212Y-99741642D01*
X98756422Y-99479422D01*
X98979422Y-99256422D01*
X99241642Y-99081212D01*
X99533005Y-98960525D01*
X99803783Y-98906665D01*
X99842314Y-98899000D01*
X100157686Y-98899000D01*
X100196217Y-98906665D01*
X100196217Y-98906665D01*
G37*
G36*
X96596217Y-98906665D02*
G01*
X96866995Y-98960525D01*
X97158358Y-99081212D01*
X97420578Y-99256422D01*
X97643578Y-99479422D01*
X97818788Y-99741642D01*
X97939475Y-100033005D01*
X98001000Y-100342315D01*
X98001000Y-100657685D01*
X97939475Y-100966995D01*
X97818788Y-101258358D01*
X97643578Y-101520578D01*
X97420578Y-101743578D01*
X97158358Y-101918788D01*
X96866995Y-102039475D01*
X96596217Y-102093335D01*
X96557686Y-102101000D01*
X96242314Y-102101000D01*
X96203783Y-102093335D01*
X95933005Y-102039475D01*
X95641642Y-101918788D01*
X95379422Y-101743578D01*
X95156422Y-101520578D01*
X94981212Y-101258358D01*
X94860525Y-100966995D01*
X94799000Y-100657685D01*
X94799000Y-100342315D01*
X94860525Y-100033005D01*
X94981212Y-99741642D01*
X95156422Y-99479422D01*
X95379422Y-99256422D01*
X95641642Y-99081212D01*
X95933005Y-98960525D01*
X96203783Y-98906665D01*
X96242314Y-98899000D01*
X96557686Y-98899000D01*
X96596217Y-98906665D01*
X96596217Y-98906665D01*
G37*
G36*
X91610442Y-98345518D02*
G01*
X91676627Y-98352037D01*
X91846466Y-98403557D01*
X92002991Y-98487222D01*
X92038729Y-98516552D01*
X92140186Y-98599814D01*
X92223448Y-98701271D01*
X92252778Y-98737009D01*
X92336443Y-98893534D01*
X92387963Y-99063373D01*
X92405359Y-99240000D01*
X92387963Y-99416627D01*
X92336443Y-99586466D01*
X92252778Y-99742991D01*
X92223448Y-99778729D01*
X92140186Y-99880186D01*
X92038729Y-99963448D01*
X92002991Y-99992778D01*
X91846466Y-100076443D01*
X91676627Y-100127963D01*
X91610442Y-100134482D01*
X91544260Y-100141000D01*
X91455740Y-100141000D01*
X91389557Y-100134481D01*
X91323373Y-100127963D01*
X91153534Y-100076443D01*
X90997009Y-99992778D01*
X90961271Y-99963448D01*
X90859814Y-99880186D01*
X90776552Y-99778729D01*
X90747222Y-99742991D01*
X90663557Y-99586466D01*
X90612037Y-99416627D01*
X90594641Y-99240000D01*
X90612037Y-99063373D01*
X90663557Y-98893534D01*
X90747222Y-98737009D01*
X90776552Y-98701271D01*
X90859814Y-98599814D01*
X90961271Y-98516552D01*
X90997009Y-98487222D01*
X91153534Y-98403557D01*
X91323373Y-98352037D01*
X91389557Y-98345519D01*
X91455740Y-98339000D01*
X91544260Y-98339000D01*
X91610442Y-98345518D01*
X91610442Y-98345518D01*
G37*
G36*
X98396217Y-95756665D02*
G01*
X98666995Y-95810525D01*
X98958358Y-95931212D01*
X99220578Y-96106422D01*
X99443578Y-96329422D01*
X99618788Y-96591642D01*
X99739475Y-96883005D01*
X99801000Y-97192315D01*
X99801000Y-97507685D01*
X99739475Y-97816995D01*
X99618788Y-98108358D01*
X99443578Y-98370578D01*
X99220578Y-98593578D01*
X98958358Y-98768788D01*
X98666995Y-98889475D01*
X98396217Y-98943335D01*
X98357686Y-98951000D01*
X98042314Y-98951000D01*
X98003783Y-98943335D01*
X97733005Y-98889475D01*
X97441642Y-98768788D01*
X97179422Y-98593578D01*
X96956422Y-98370578D01*
X96781212Y-98108358D01*
X96660525Y-97816995D01*
X96599000Y-97507685D01*
X96599000Y-97192315D01*
X96660525Y-96883005D01*
X96781212Y-96591642D01*
X96956422Y-96329422D01*
X97179422Y-96106422D01*
X97441642Y-95931212D01*
X97733005Y-95810525D01*
X98003783Y-95756665D01*
X98042314Y-95749000D01*
X98357686Y-95749000D01*
X98396217Y-95756665D01*
X98396217Y-95756665D01*
G37*
G36*
X101996217Y-95756665D02*
G01*
X102266995Y-95810525D01*
X102558358Y-95931212D01*
X102820578Y-96106422D01*
X103043578Y-96329422D01*
X103218788Y-96591642D01*
X103339475Y-96883005D01*
X103401000Y-97192315D01*
X103401000Y-97507685D01*
X103339475Y-97816995D01*
X103218788Y-98108358D01*
X103043578Y-98370578D01*
X102820578Y-98593578D01*
X102558358Y-98768788D01*
X102266995Y-98889475D01*
X101996217Y-98943335D01*
X101957686Y-98951000D01*
X101642314Y-98951000D01*
X101603783Y-98943335D01*
X101333005Y-98889475D01*
X101041642Y-98768788D01*
X100779422Y-98593578D01*
X100556422Y-98370578D01*
X100381212Y-98108358D01*
X100260525Y-97816995D01*
X100199000Y-97507685D01*
X100199000Y-97192315D01*
X100260525Y-96883005D01*
X100381212Y-96591642D01*
X100556422Y-96329422D01*
X100779422Y-96106422D01*
X101041642Y-95931212D01*
X101333005Y-95810525D01*
X101603783Y-95756665D01*
X101642314Y-95749000D01*
X101957686Y-95749000D01*
X101996217Y-95756665D01*
X101996217Y-95756665D01*
G37*
G36*
X92401000Y-97601000D02*
G01*
X90599000Y-97601000D01*
X90599000Y-95799000D01*
X92401000Y-95799000D01*
X92401000Y-97601000D01*
X92401000Y-97601000D01*
G37*
G36*
X93129487Y-91998996D02*
G01*
X93366253Y-92097068D01*
X93366255Y-92097069D01*
X93579339Y-92239447D01*
X93760553Y-92420661D01*
X93902932Y-92633747D01*
X94001004Y-92870513D01*
X94051000Y-93121861D01*
X94051000Y-93378139D01*
X94001004Y-93629487D01*
X93902932Y-93866253D01*
X93902931Y-93866255D01*
X93760553Y-94079339D01*
X93579339Y-94260553D01*
X93366255Y-94402931D01*
X93366254Y-94402932D01*
X93366253Y-94402932D01*
X93129487Y-94501004D01*
X92878139Y-94551000D01*
X92621861Y-94551000D01*
X92370513Y-94501004D01*
X92133747Y-94402932D01*
X92133746Y-94402932D01*
X92133745Y-94402931D01*
X91920661Y-94260553D01*
X91739447Y-94079339D01*
X91597069Y-93866255D01*
X91597068Y-93866253D01*
X91498996Y-93629487D01*
X91449000Y-93378139D01*
X91449000Y-93121861D01*
X91498996Y-92870513D01*
X91597068Y-92633747D01*
X91739447Y-92420661D01*
X91920661Y-92239447D01*
X92133745Y-92097069D01*
X92133747Y-92097068D01*
X92370513Y-91998996D01*
X92621861Y-91949000D01*
X92878139Y-91949000D01*
X93129487Y-91998996D01*
X93129487Y-91998996D01*
G37*
G36*
X107451000Y-94401000D02*
G01*
X104349000Y-94401000D01*
X104349000Y-92799000D01*
X107451000Y-92799000D01*
X107451000Y-94401000D01*
X107451000Y-94401000D01*
G37*
G36*
X107451000Y-92401000D02*
G01*
X104349000Y-92401000D01*
X104349000Y-90799000D01*
X107451000Y-90799000D01*
X107451000Y-92401000D01*
X107451000Y-92401000D01*
G37*
M02*
